<svg xmlns="http://www.w3.org/2000/svg" width="97" height="28" fill="none" xmlns:v="https://vecta.io/nano"><g clip-path="url(#A)"><g fill="#fff"><path d="M25.22 0h4.462v28H25.22V0zm19.982 19.127c0 4.338-3.492 4.732-4.656 4.732-2.716 0-3.104-2.563-3.104-3.944V9.07H32.98v10.648c0 2.563.776 4.93 2.328 6.31C36.666 27.408 38.412 28 40.546 28c1.552 0 3.492-.394 4.656-1.578V28h4.462V9.07h-4.462v10.056zM58.394 2.168h-4.462v6.901h-3.298v4.338h3.298v14.592h4.462V13.407h3.298V9.069h-3.298V2.168zM75.66 22.281c-.97.789-2.328 1.38-3.686 1.38-3.104 0-5.238-2.366-5.238-5.521s2.134-5.324 5.238-5.324c1.358 0 2.716.394 3.686 1.38l.582.592 3.104-2.958-.776-.591c-1.746-1.578-4.074-2.563-6.596-2.563-5.432 0-9.506 4.141-9.506 9.662S66.542 28 71.974 28c2.522 0 4.85-.986 6.596-2.563l.776-.591-3.104-3.155-.582.591zm19.4-11.633c-1.358-1.38-2.716-1.972-4.85-1.972-1.552 0-3.104.394-4.268 1.577V0H81.48v28h4.462V17.549c0-4.338 2.91-4.732 4.074-4.732 2.716 0 2.522 2.563 2.522 3.944v11.042H97V16.958c0-2.563-.582-4.93-1.94-6.31z"/></g><path d="M71.78 21.493c1.714 0 3.104-1.413 3.104-3.155s-1.39-3.155-3.104-3.155-3.104 1.412-3.104 3.155 1.39 3.155 3.104 3.155z" fill="#ef4444"/><path d="M19.012 21.099c-1.552 1.578-3.88 2.563-6.402 2.563-4.85 0-8.342-3.944-8.342-9.268s3.492-9.268 8.536-9.268c2.328 0 4.656.986 6.402 2.761l.582.592 2.91-2.958-.582-.592C19.594 2.367 16.296.986 12.804.986 5.432.789 0 6.705 0 14.395S5.432 28 12.61 28c3.492 0 6.984-1.38 9.312-3.944l.582-.592-2.91-2.958-.582.591z" fill="#fff"/></g><defs><clipPath id="A"><path fill="#fff" d="M0 0h97v28H0z"/></clipPath></defs></svg>