<svg width="1920" height="786" viewBox="0 0 1920 786" fill="none" xmlns="http://www.w3.org/2000/svg">
<path d="M0 0H1920V786H0V0Z" fill="url(#paint0_radial_5259_17864)"/>
<path d="M0.642475 786H0.000365257H0.642475ZM1.76602 786L526.338 772.522C526.499 777.015 526.499 781.507 526.499 786H1.60554H1.76602ZM0.802954 786H0.642475H0.000365257H0.802954ZM1.44506 786H1.60554H1.76602H1.9266H2.08708L522.004 718.288C523.128 727.274 524.091 736.42 524.893 745.566L1.9266 786H1.76602H1.44506H0.963433H1.44506ZM512.052 663.895C514.139 672.88 516.065 681.865 517.831 690.851L2.08708 785.84L512.052 663.895ZM1.44506 786H1.76602H1.9266H1.44506ZM496.321 610.784C499.371 619.449 502.26 628.274 504.829 637.099L1.9266 785.84L496.321 610.784ZM475.293 559.76C479.306 568.104 482.998 576.447 486.53 584.951L2.08708 785.679L475.293 559.76ZM1.60554 786H1.76602H1.60554ZM448.969 511.464C453.784 519.326 458.278 527.188 462.773 535.211L2.24765 785.84L448.969 511.464ZM1.60554 786L1.76602 785.84L1.60554 786ZM1.76602 786L417.828 466.376C423.446 473.596 428.743 480.977 433.88 488.519L1.9266 785.84L1.76602 786ZM1.60554 786L382.354 424.818C388.614 431.397 394.713 438.136 400.653 445.196L1.60554 786ZM1.60554 785.84L342.706 387.112C349.608 393.049 356.35 399.146 363.092 405.404L1.60554 785.84ZM1.60554 785.84V785.679L299.205 353.898C306.75 359.032 314.134 364.488 321.357 369.943L1.60554 785.84ZM1.76602 785.519L252.495 325.016C260.521 329.348 268.547 334.002 276.251 338.815L1.76602 785.519ZM202.574 301.269C211.081 304.799 219.428 308.489 227.775 312.501L1.60554 785.519L202.574 301.269ZM150.566 282.817C159.394 285.384 168.223 288.272 176.891 291.321L1.76602 785.358L150.566 282.817ZM1.60554 786V785.84V786ZM96.7925 269.981C105.942 271.585 114.931 273.511 123.76 275.757L1.76602 785.519L96.7925 269.981ZM1.60554 786V785.84V786ZM1.60554 786V785.84V785.679L42.3771 262.921C51.5266 263.562 60.5156 264.525 69.6651 265.809L1.9266 785.519V785.679V785.84L1.60554 786ZM1.60554 786V261.316C6.10004 261.316 10.5946 261.316 15.0891 261.477L1.60554 785.84V786ZM1.60554 261.316V786H1.44506H0.963433H0.802954H0.642475H0.000365257V261.316H1.60554ZM1.76602 786L526.338 772.522L991.679 760.488C991.839 768.992 992 777.496 992 786H1.60554H1.76602ZM0.802954 786H0.642475H0.000365257H0.802954ZM1.44506 786H1.60554H1.76602H1.9266H2.08708L522.165 718.128L983.653 657.958C985.9 674.966 987.666 692.135 988.95 709.303L524.893 745.245L1.9266 786H1.76602H1.44506H0.963433H1.44506ZM2.08708 785.84L512.052 663.895L964.712 555.588C968.725 572.436 972.417 589.444 975.467 606.613L517.67 690.851L2.08708 785.84ZM1.44506 786H1.60554H1.44506ZM496.321 610.784L935.177 455.465C940.955 471.831 946.413 488.358 951.228 505.045L504.829 637.099L1.9266 785.84L496.321 610.784ZM1.60554 786H1.76602H1.60554ZM475.293 559.76L895.208 359.193C902.752 374.757 909.815 390.642 916.396 406.848L486.369 585.112L1.9266 785.84L475.293 559.76ZM448.969 511.464L845.608 268.055C854.597 282.817 863.265 297.739 871.612 312.982L2.08708 785.84L448.969 511.464ZM1.60554 786L1.76602 785.84L1.60554 786ZM1.76602 786L417.828 466.376L787.019 182.854C797.453 196.493 807.565 210.452 817.517 224.572L434.04 488.519L2.08708 785.84L1.76602 786ZM1.76602 786L382.354 424.818L719.922 104.392C731.801 116.908 743.198 129.583 754.434 142.741L400.653 445.036L1.76602 786ZM1.60554 785.84L342.706 387.112L645.121 33.4716C658.284 44.7034 670.965 56.0956 683.485 67.9692L362.931 405.404L1.60554 785.84ZM1.60554 785.84V785.679L299.205 353.898L563.257 -29.4263C577.543 -19.6386 591.348 -9.52998 604.992 1.05997L321.357 370.104L1.60554 785.84ZM1.76602 785.519L474.812 -83.6596C490.061 -75.316 504.989 -66.6515 519.757 -57.6661L276.091 338.815L1.76602 785.519ZM202.574 301.269L380.909 -128.587C396.961 -121.848 412.852 -114.788 428.583 -107.407L227.936 312.501L1.76602 785.519L202.574 301.269ZM150.566 282.817L282.512 -163.405C299.205 -158.431 315.899 -153.136 332.112 -147.36L176.73 291.321L1.60554 785.358L150.566 282.817ZM1.60554 786V785.84V786ZM1.76602 785.519L96.7925 269.981L181.064 -187.634C198.24 -184.425 215.255 -180.895 232.109 -176.883L123.76 275.596L1.76602 785.519ZM1.60554 786V785.84V786ZM1.60554 786V785.84V785.679L42.3771 262.921L78.333 -201.112C95.5084 -199.828 112.684 -197.903 129.699 -195.817L69.5045 265.648L1.60554 785.519V785.679V785.84V786ZM1.60554 786V-204C10.113 -204 18.6205 -203.84 27.1279 -203.679L15.0891 261.477L1.60554 785.84V786ZM1.60554 -204V786H1.44506H0.963433H0.802954H0.642475H0.000365257V-204H1.60554Z" fill="url(#paint1_radial_5259_17864)"/>
<defs>
<radialGradient id="paint0_radial_5259_17864" cx="0" cy="0" r="1" gradientUnits="userSpaceOnUse" gradientTransform="translate(1407.5 246.804) rotate(-39.8539) scale(2120.67 1089.74)">
<stop stop-color="#6387F1" stop-opacity="0.1"/>
<stop offset="0.524709" stop-color="#DA46EF" stop-opacity="0.05"/>
<stop offset="1" stop-color="#6387F1" stop-opacity="0.1"/>
</radialGradient>
<radialGradient id="paint1_radial_5259_17864" cx="0" cy="0" r="1" gradientUnits="userSpaceOnUse" gradientTransform="translate(-33.1926 844.812) rotate(-46.0678) scale(1058.92 1061.02)">
<stop stop-color="#6366F1" stop-opacity="0.05"/>
<stop offset="1" stop-color="white" stop-opacity="0"/>
</radialGradient>
</defs>
</svg>
