<svg xmlns="http://www.w3.org/2000/svg" width="100" height="100" fill="none"  xmlns:v="https://vecta.io/nano"><path fill="#f5f4f8" d="M0 0h100v100H0z"/><g fill-rule="evenodd"><path d="M22.711 41.003v-.411h1.187v-9.724h-1.157v-.411h7.822c3.272 0 4.368 1.628 4.368 3.089 0 1.491-1.096 3.135-4.367 3.135h-2.085v3.911h1.415v.411h-7.183zm5.767-4.733h.578c.669 0 1.096-.472 1.096-1.689V32.39c0-.7-.244-1.522-1.187-1.522h-.487v5.403zm7.119 4.733v-.411h1.157v-9.724h-1.157v-.411h7.03v.411h-1.156v9.724h1.156v.411h-7.03zm17.714-10.546v.472l-4.916 9.664h.883c1.431 0 2.983-1.065 3.531-3.622h.502l-.122 4.033h-9.846v-.578l4.839-9.557h-.517c-1.887 0-3.165 1.537-3.637 3.302h-.441l.182-3.713h9.542zm10.987 0v.472l-4.916 9.664h.883c1.431 0 2.983-1.065 3.53-3.622h.503l-.122 4.033H54.33v-.578l4.839-9.557h-.517c-1.887 0-3.166 1.537-3.638 3.302h-.441l.183-3.713h9.542zm.699 10.546v-.411h.35c.487 0 .852-.898 1.096-1.552l3.135-8.583h3.181l3.758 10.135h.837v.411h-6.757v-.411h1.096l-1.08-3.105h-3.074l-.609 1.628c-.426 1.141.182 1.476.578 1.476h.411v.411h-2.921zm4.063-7.792l-1.385 3.865h2.785l-1.4-3.865z" fill="#49aa6a"/><path d="M22.727 56.223v-.493h1.424V44.062h-1.388v-.493h9.386c3.926 0 5.241 1.954 5.241 3.707 0 1.789-1.315 3.761-5.241 3.761h-2.502v4.693h1.698v.493h-8.619zm6.92-5.679h.694c.803 0 1.315-.566 1.315-2.027v-2.629c0-.84-.292-1.826-1.424-1.826h-.584v6.482zm8.544 5.679v-.493h1.388V44.062h-1.388v-.493h8.436v.493h-1.388V55.73h1.388v.493h-8.436zm8.821 0v-.493h.456c.785 0 1.023-.894 1.023-1.735v-8.966c-.347-.456-.639-.986-1.206-.986h-.274v-.475h6.939l4.949 6.775v-5.368c0-.511-.566-.913-1.242-.913h-.365v-.493h3.761v.493h-.548c-.95 0-.931.712-.931 2.209v9.951h-3.068L49.13 46.07v7.925c0 .84.182 1.735 1.059 1.735h.584v.493h-3.761zm28.94-6.336c0 3.908-3.177 6.61-7.177 6.61-4.2 0-7.157-3.068-7.157-6.61 0-4.072 3.397-6.592 7.157-6.592 3.835 0 7.177 2.666 7.177 6.592zm-8.4 4.729c0 .731.402 1.388 1.223 1.388.877 0 1.242-.657 1.242-1.388v-8.491c0-.913-.018-2.337-1.242-2.337-1.168 0-1.223 1.424-1.223 2.337v8.491z" fill="#cf4044"/><path d="M23.176 59.18h-.507v-.411h3.54c1.404 0 1.91 1.232 1.91 2.557 0 1.674-.753 2.222-1.376 2.313v.152c.87.214 1.308 1.37 1.308 3.196 0 .806-.007 1.446.185 1.446.13 0 .24-.366.308-.579l.185.229c-.24.867-.684 1.461-1.369 1.461-.883 0-1.424-.928-1.431-2.952-.007-2.541-.116-2.74-.473-2.74h-.24v5.053h.575v.41h-3.143v-.41h.527V59.18zm2.04 4.216h.26c.322 0 .486-.198.486-2.025v-.943c0-.609-.164-1.248-.438-1.248h-.308v4.216zm3.541 5.919v-.41h.506v-9.724h-.506v-.411h4.594l.034 3.698h-.226c-.192-1.674-.657-3.287-1.404-3.287h-.418v4.611h.117c.212 0 .691-.502.753-2.069h.226v4.642h-.226c-.062-1.659-.541-2.161-.753-2.161h-.117v4.703h.466c.52 0 1.062-.852 1.438-3.607h.205l-.034 4.017h-4.656zM37.179 63c.438.503.815 1.72.815 3.135 0 2.602-1.061 3.409-2.054 3.409-.376 0-.767-.32-1.095-.716l-.739.716h-.171l-.048-3.774h.219c.342 1.796 1.013 3.363 1.944 3.363.288 0 .657-.258.657-1.019 0-.898-.445-1.278-.753-1.583l-.52-.517c-.993-.989-1.499-2.313-1.499-3.972 0-2.222.719-3.501 1.678-3.501.383 0 .753.259 1.096.624l.739-.624h.157l.055 3.485h-.185c-.342-1.643-.972-3.074-1.835-3.074-.26 0-.582.305-.582.989 0 .822.452 1.156.726 1.476L37.179 63zm2.637-3.819c-.801.152-1.116 1.978-1.273 3.47h-.212l.034-3.881h5.012l.034 3.881h-.212c-.157-1.491-.472-3.318-1.273-3.47v9.724h.623v.41h-3.362v-.41h.63V59.18zm3.793 10.135v-.41h.157c.219 0 .383-.898.493-1.553l1.41-8.583h1.431l1.691 10.136h.377v.41h-3.04v-.41h.493l-.486-3.105h-1.383l-.274 1.628c-.192 1.142.082 1.477.261 1.477h.185v.41h-1.314zm1.828-7.791l-.623 3.865h1.253l-.63-3.865zm3.862-2.754h3.183v.411h-.568v8.035c0 1.05.342 1.522.808 1.522.603 0 .992-.578.992-3.287v-4.475c0-1.431-.123-1.795-.438-1.795h-.178v-.411h1.41v.411h-.226c-.185 0-.328.334-.328 1.872v5.433c0 1.156-.233 2.009-.699 2.557-.219.258-.664.502-1.287.502-.424 0-.781-.137-1.075-.274-.459-.213-1.04-.776-1.04-3.059v-7.03h-.554v-.411h0zm5.833.411h-.507v-.411h3.539c1.404 0 1.91 1.232 1.91 2.557 0 1.674-.753 2.222-1.376 2.313v.152c.87.214 1.308 1.37 1.308 3.196 0 .806-.007 1.446.186 1.446.129 0 .239-.366.307-.579l.185.229c-.24.867-.684 1.461-1.369 1.461-.883 0-1.424-.928-1.431-2.952-.007-2.541-.116-2.74-.473-2.74h-.24v5.053h.575v.41h-3.143v-.41h.527V59.18zm2.04 4.216h.26c.322 0 .486-.198.486-2.025v-.943c0-.609-.165-1.248-.438-1.248h-.308v4.216zm3.554 5.919v-.41h.157c.22 0 .384-.898.493-1.553l1.41-8.583h1.431l1.691 10.136h.377v.41h-3.041v-.41h.493l-.486-3.105H61.87l-.274 1.628c-.192 1.142.082 1.477.26 1.477h.185v.41h-1.315zm1.828-7.791l-.622 3.865h1.252l-.63-3.865zm3.84 7.791v-.41h.172c.294 0 .383-.746.383-1.446v-7.473c-.13-.38-.24-.822-.452-.822h-.103v-.396h2.602l1.855 5.646v-4.474c0-.426-.212-.76-.466-.76h-.137v-.411h1.41v.411h-.205c-.356 0-.349.593-.349 1.841v8.294h-1.15l-2.766-8.461v6.605c0 .7.069 1.446.397 1.446h.219v.41h-1.41 0zM73.29 59.18c-.801.152-1.116 1.978-1.274 3.47h-.213l.035-3.881h5.011l.035 3.881h-.212c-.158-1.491-.473-3.318-1.274-3.47v9.724h.623v.41H72.66v-.41h.63l.001-9.724z" fill="#49aa6a"/></g><defs /></svg>