<svg xmlns="http://www.w3.org/2000/svg" width="100" height="100" fill="none"  xmlns:v="https://vecta.io/nano"><path fill="#f5f4f8" d="M0 0h100v100H0z"/><path d="M20 64.56h59.996V36H20v28.56z" fill="#ab182f"/><path d="M67.313 54.401c1.063-.003 2.395-.299 3.447-.649l-.629 2.702c-1.319.262-2.801.486-4.541.493-5.438.024-7.779-2.77-7.786-5.67-.013-3.882 4.16-7.756 10.881-7.663 1.426.019 2.784.275 3.698.573l-.889 3.187h-.451c-.556-.727-1.4-1.278-3.066-1.278-3.406 0-5.514 1.864-5.507 4.349.006 2.249 1.947 3.963 4.843 3.955zM47.662 43.738l-.212.845s1.289.141.893 1.426l-2.93 10.652 5.858.01.22-.916s-1.095-.265-.811-1.275c.023-.093.86-3.162.86-3.162l2.686-.004c1.337.007 1.779.7 1.779.7l.779-3.163H52.26l.673-2.485 3.931-.005c.723 0 1.23.485 1.23.839h.445l.867-3.462H47.662zM43.22 54.758c-.346-.371-3.361-5.072-3.361-5.072l5.513-4.412c.928-.775 1.588-.693 1.588-.693l.216-.85-6.858.005-.211.845c.466.032 1.117.448.584.942-.066.062-5.508 4.218-5.508 4.218l1.171-4.243c.242-.82 1.123-.917 1.123-.917l.215-.848-6.547.003-.21.846c.312.078 1.205.25.894 1.426l-2.079 7.547c-.598 2.281-1.56 2.165-1.909 2.189l-.226.914h6.846l.231-.926s-1.088-.218-.88-1.001l1.065-3.884c1.185 1.906 1.463 2.141 2.891 4.108s2.959 1.707 7.007 1.708l.225-.91c-.864.004-1.433-.626-1.78-.996" fill="#fff"/><defs /></svg>