<svg xmlns="http://www.w3.org/2000/svg" width="100" height="100" fill="none"  xmlns:v="https://vecta.io/nano"><path fill="#f5f4f8" d="M0 0h100v100H0z"/><g fill-rule="evenodd"><path d="M26.649 70.566l19.766-10.459 3.479.181c13.78 0 24.985-7.049 24.985-15.678S63.675 29 49.895 29C36.137 29 25 35.98 25 44.61c0 5.873 5.128 11.001 12.718 13.644L26.649 70.566z" fill="#cc2935"/><path d="M41.196 37.495h-4.857l.181 1.378h.474c.587 0 .791.068.858.068.113.068.113.135.113.203s0 .339-.248.858c-.203.271-.474.723-.791 1.31l-1.265 1.92-1.649-3.569c-.068-.068-.068-.135-.113-.316-.068-.203-.136-.271-.136-.271v-.068h.068c0-.068.181-.068.791-.136h.587l-.203-1.378H29.02l.248 1.31.407.068c.587.068.791.203.858.203 0 0 .136.136.452.858l2.575 5.399c-.068.271-.52 4.224-.52 4.224-.068.452-.203.791-.407.858-.068.068-.316.181-.994.181l-.587.068.203 1.333h7.048l-.271-1.333-.384-.068c-.858 0-1.197-.045-1.31-.113-.068 0-.136-.136-.203-.339v-.384c0-.136 0-.407.068-.678l.384-3.682 3.502-5.534c.316-.52.52-.723.587-.791s.271-.135.655-.203l.542-.068-.271-1.31h-.407zm1.649 4.359l-1.514.316-1.898.407.181 1.174h.474c.452 0 .655 0 .723.068 0 0 .068.068.068.136v.271l-.407 5.58v.859c.203.79.655 1.197.994 1.401a2.34 2.34 0 0 0 .858.18c1.062 0 1.965-.655 2.756-1.898l.542-.858c-.068.203-.068.384-.068.587v.068c0 .203.068.452.068.655.068.474.316.859.587 1.062.339.271.723.384 1.13.384.723 0 1.446-.452 2.033-1.378.339-.384.587-.858.791-1.378l.204-.407-1.13-.723-.723 1.13-.271.384-.045.068v-.181l.655-7.116.068-.61h-2.507l-.135.474-.452 2.44c-.203.791-.407 1.513-.745 2.169-.317.723-.723 1.446-1.107 2.101-.52.791-.859.858-.926.858v-.52l.587-6.912v-.136c0-.203-.068-.339-.181-.474-.271-.247-.474-.18-.61-.18zm10.888 0l-3.117.655-.52.136.204 1.242h.452c.61 0 .79 0 .858.068 0 0 .068 0 .068.068v.249l-.791 7.726h2.575l.068-.474.384-2.553c.203-.926.406-1.717.655-2.259.271-.587.678-1.243 1.13-1.898.587-.791.858-.858.994-.858v.317c0 .067-.655 7.726-.655 7.726h2.553l.068-.474.339-3.095c.068-.452.271-1.039.52-1.717a7.8 7.8 0 0 1 1.13-1.898c.316-.542.722-.791.993-.858v.317l-.474 5.67v.79c.136.61.407.994.723 1.265.271.136.587.248.858.248.655 0 1.197-.248 1.717-.791a7.44 7.44 0 0 0 1.31-1.762l.068-.136.203-.407-1.174-.791-.791 1.197-.068.136c-.068.068-.136.181-.204.249v.068l.452-5.128v-1.265c-.136-.587-.384-1.039-.791-1.378a2.07 2.07 0 0 0-1.242-.384c-.927 0-1.785.587-2.711 1.83-.068.135-.136.203-.249.339v-.407c-.136-.655-.474-1.175-.927-1.446-.339-.203-.655-.316-1.061-.316-.858 0-1.717.52-2.575 1.694l-.384.61.204-1.988-.542-.384-.249.067zm14.096-3.772c-.203.406-.27 1.129-.27 2.056v1.83l-.068 2.711-.068 3.502.406.113.859.136.723-3.298.452-2.101.79-3.163a3.8 3.8 0 0 0 0-1.242c-.068-.339-.249-.678-.519-.994-.271-.271-.655-.406-1.062-.406-.519 0-.994.271-1.243.858zm-1.264 11.476c-.249.317-.384.723-.317 1.107.136.542.317.926.723 1.197.316.271.723.384 1.107.384.475 0 .859-.181 1.13-.52s.407-.723.271-1.174c-.067-.474-.271-.791-.655-1.13-.339-.271-.746-.407-1.129-.407-.587 0-.994.271-1.13.542z" fill="#fff"/></g><defs /></svg>