<svg xmlns="http://www.w3.org/2000/svg" width="100" height="100" fill="none"  xmlns:v="https://vecta.io/nano"><path fill="#f5f4f8" d="M0 0h100v100H0z"/><g fill-rule="evenodd"><path d="M50.964 31c11.269 0 20.512 8.612 20.512 19.303 0 10.565-9.243 19.207-20.512 19.207-11.309 0-20.523-8.642-20.523-19.207C30.441 39.612 39.655 31 50.964 31z" fill="#cc2229"/><g fill="#1f1b2d"><path d="M23 57.205c.662-1.585 1.753-3.305 3.185-5.123 1.403-1.913 3.292-3.953 5.493-6.07h-.399c-1.14 0-2.104-.097-2.932-.164-.867 0-1.627-.193-2.162-.3l2.659-2.368 3.331.329 3.584.164 2.766-.097 3.76-.396-2.201 2.368c-.925.039-2.123.271-3.156.3l-3.429.203 1.695.628-.029.29c-1.198.86-2.425 1.981-3.292 3.238s-1.598 2.474-2.123 3.76c-.234.328-.341.793-.468 1.092-.204.455-.272.889-.467 1.218l-2.494.425c-.964.039-2.026.3-3.321.435v.068zm22.87-7.994s.497.106 1.266.135l2.825.164s-.36.203-.73.657l-1.363 1.459c-.36-.203-1.432-.464-3.127-.628-.399.86.204 1.285 1.627 1.285.74 0 1.237.029 1.5.097.205.039.37.261.263.464 0 .193-.097.561-.361.957-.37.464-.828.957-1.227 1.353l-1.529 1.093c-.302.222-.964.493-1.802.686-.73.164-1.529.27-2.162.27-1.227 0-2.026-.27-2.425-.86.331-.367.867-.831 1.432-1.324.594.464 1.325.667 2.425.667.536 0 1.198-.174 1.899-.532-.136-.232-.399-.396-.77-.396 0 0-.195.067-.234.067h-.526c-1.071 0-1.802-.203-2.094-.561-.302-.367-.107-.928.399-1.789.526-.618 1.091-1.218 1.753-1.681.604-.464 1.637-.986 2.961-1.586zm26.036 7.791c0-.261-.059-.725 0-1.024l.467-1.518-2.99 1.817c-.964.464-1.569.725-1.928.725-.166 0-.399-.164-.604-.261-.224-.136-.458-.396-.623-.599l-.37-.85c0-.232-.029-.464 0-.561.069-.232.468-.57.896-1.024.536-.532 1.169-1.063 1.861-1.586.741-.493 1.598-1.024 2.465-1.45.828-.561 1.792-.995 2.824-1.459l.663.464.702.435 1.1-.561c.302-.135.565-.232.662-.232s.331.193.468.454c.195.3.263.561.165.764-.097.261-.331.628-.702.928-.263.357-.759.754-1.325 1.054-.107.232-.272.425-.272.522-.126.136-.195.3-.224.368-.205.396-.302.889-.438 1.354-.098.464-.137 1.054-.098 1.614l-2.698.628zm-2.523-1.846c.536-.135 1.13-.493 1.695-.792.565-.396 1.295-.822 1.86-1.325.137-.357.399-.754.663-1.179.302-.396.604-.86.964-1.093l-.097-.231c-1.227.561-2.425 1.285-3.321 1.981-1.032.822-1.792 1.547-2.192 2.31l.428.328zm-4.958-8.941l-.068.029 3.828-.754c-1.393 1.218-3.321 3.557-5.815 6.93l-1.432 2.04c1.792-1.517 3.223-2.833 3.925-3.789a6.11 6.11 0 0 1 .429-.764l2.922-.493c-.36.493-.759.919-1.022 1.257-.234.29-.507.493-.672.59-.126.097-.662.464-1.256.86l-1.266.822h.302c.565 0 .964.202.993.492.165.367.234.928.068 1.682L63.5 56.345l-1.597.86c.399-.86.165-1.691-.604-2.378-1.227.889-1.987 1.518-2.094 1.778l-2.923.493.965-1.382 1.792-2.378 3.126-4.388 2.192-2.706.068-.029zm-11.27 10.816c0-.29.069-.686.098-1.054l.536-1.479c-1.032.725-2.134 1.315-2.99 1.779-.935.464-1.665.725-1.899.725-.166 0-.429-.068-.633-.193-.195-.164-.302-.464-.497-.628-.166-.367-.205-.667-.263-.793 0-.27 0-.532.058-.628.039-.203.467-.561.906-1.025.526-.493 1.227-.986 1.861-1.517.799-.561 1.764-1.121 2.455-1.517l3-1.382c.126.097.233.358.496.396.195.164.497.358.702.493.36-.232.731-.396 1.023-.532.302-.164.565-.261.672-.261.165 0 .263.193.457.464.108.29.176.522.108.792-.136.193-.399.522-.702.85-.37.339-.935.764-1.432 1.122a2.17 2.17 0 0 0-.331.434c-.029.097-.136.261-.234.357-.234.396-.36.86-.526 1.392-.107.464-.107.986-.107 1.643l-2.758.562zm-2.162-1.807c.468-.165.993-.464 1.597-.764l1.861-1.382.701-1.218c.399-.396.76-.86 1.13-1.093l-.165-.164c-1.169.493-2.328 1.257-3.331 2.04-1.062.764-1.792 1.517-2.26 2.213l.467.368z"/><path d="M36.266 50.961c-.672.561-1.237 1.121-1.529 1.682-.935 1.421-.672 2.378.692 2.678.438-.493 1.003-1.16 1.295-1.682.565-.86.701-1.556.565-1.914-.195-.368-.565-.628-1.023-.764zm4.889-1.353l-1.071.725c.399.174.604.464.604.86.097.464-.068 1.024-.468 1.652-.425.621-.915 1.194-1.461 1.711l-1.636 1.131c-.458.261-1.227.561-2.094.85l-.828.367c-.136.097-.428.193-.565.193-1.101 0-2.094-.29-2.698-.85-.565-.628-.565-1.392.039-2.349.925-1.518 3.088-3.036 6.049-4.456l2.63.164 1.5-.001zm9.306-14.439c.017.035.332 1.104.332 1.141l-.05 3.452c0 2.169.17 3.679-1.33 5.564-.474.596-.95.849-1.762 1.163-.223.083-1.384.448-1.663.399l.047-.001.046-.009.197-.022c.118-.012.254-.052.38-.083.264-.053.517-.127.622-.168.824-.314 1.299-.566 1.774-1.163 1.488-1.887 1.32-3.405 1.32-5.573v-3.584l-.033-.712a1.04 1.04 0 0 0-.052-.262c-.01-.043.167-.111.172-.142zm-3.751 7.38c1.076-.189 2.639-.555 3.579-1.027l-.01-.031c-.19 0-.992.063-1.088.157-.792 0-1.657.398-2.481.398-.031.094-.064.419-.031.482l.031.052v-.031zm2.724-6.034c-.064.054-.072.085-.087.105s-.035.026-.093.113c-.236.246-.356.321-.782.532-.017.009-.018.201-.018.22.231-.049.928-.415 1.233-.521.074-.02-.284-.461-.243-.461l-.01.011zm-1.2.714c-.29-.011-.799-.569-1.063-.744.017.002-.281.285-.305.405-.006.026.048.029.09.054.018.012.041.026.064.038l.073.04.081.041.086.041.092.041.094.039.095.039.093.035.093.033.091.029.087.026.082.022.077.018.069.014.083.009c.012.001-.007-.113.11-.103.002.001-.065-.023-.09-.077z"/><path d="M55.743 36.212c.086.196-.281-.733-.419-.669-.105.052-.355.515-.377.52-1.307.276-2.609.105-3.928-.01-.177-.016-.405-.695-.553-.872-.028-.033.345 1.146.313 1.178 1.423.029 2.986.227 4.41-.077.064 0 .553-.015.554-.07zm-4.985 4.595c.293-.041.821-.041 1.107.022.222.031.39.01.612 0l1.857-.084c.19-.01.581 0 .855-.052.106-.021.223-.01.328-.052.179-.084.198-.509.387-.339-.028-.009.302.622.157.633l-.882.038c-.276.05-.601.018-.79.032l-1.644.062c-.222.01-.633.034-.853 0l-.057-.008-.062-.008-.067-.006-.069-.006-.073-.002c-.024 0-.052-.003-.076-.003h-.077c-.026 0-.053-.001-.077-.001l-.156.007-.076.005-.073.003-.071.005-.067.006c-.021.001-.12-.004-.139-.003s.013-.241.005-.249z"/><path d="M49.238 46.865c.14-.081.91-.218 1.036-.227a4.39 4.39 0 0 0 1.172-.283c.57-.22.834-.451 1.256-.775.106-.073.222-.189.338-.283.189-.147.358-.345.56-.617.084-.127.169-.221.242-.357l.665-1.11c.126-.283.269-.824.381-1.101l.084-.22c.085-.303.195-.659.374-.948-.003-.002.434-.012.43-.006-.354.74-.631 1.682-.972 2.431-.182.397-.388.715-.634 1.08-.094.141-.203.271-.327.387-.381.378-.592.66-.866.849-.38.272-.707.566-1.277.786a4.34 4.34 0 0 1-1.172.282c-.127.021-1.178.196-1.29.113zm1.682-5.809c0 .503.316 1.336.441 1.808.161.355.424.679.62 1.022.384.673.807 1.071 1.345 1.558.416.38.869.606 1.481.793l1.784.551c-.21.026-.421.328-.665.303l-1.202-.329c-.575-.178-1.103-.481-1.547-.888-.558-.499-1.033-1.085-1.406-1.736-.194-.341-.458-.792-.551-1.169-.126-.473-.324-1.406-.324-1.909l.023-.004zm-2.564-6.408l.36.334-.232.294-.022 6.515-.172-.006-.112-6.542-.253-.209.431-.388z"/></g></g><defs /></svg>