<svg xmlns="http://www.w3.org/2000/svg" width="100" height="100" fill="none"  xmlns:v="https://vecta.io/nano"><path fill="#f5f4f8" d="M0 0h100v100H0z"/><path d="M28.665 53.253c-.943-1.334-2.242-2.117-3.861-2.314h-2.652c-.57.003-1.116.23-1.52.634s-.631.95-.633 1.52v6.281a2.15 2.15 0 0 0 2.153 2.154h2.652c1.619-.178 2.936-.961 3.861-2.296.588-.943.872-1.886.872-2.989a5.38 5.38 0 0 0-.872-2.989zm6.726-2.509a5.5 5.5 0 0 0-5.48 5.498 5.48 5.48 0 0 0 5.48 5.48c.721.002 1.435-.139 2.102-.414s1.273-.678 1.783-1.187.916-1.113 1.193-1.779.42-1.379.421-2.1c-.001-1.458-.581-2.855-1.612-3.886s-2.429-1.611-3.886-1.612zm12.135 10.214l-2.883-3.665v2.509c-.004.459-.19.899-.516 1.222s-.767.505-1.227.505a1.72 1.72 0 0 1-1.725-1.53v-7.313c0-.979.782-1.743 1.743-1.743h.178c.462.036.854.232 1.156.588l2.883 3.648v-2.491c.018-.961.782-1.743 1.743-1.743.889 0 1.619.659 1.727 1.548v7.313c0 .961-.782 1.743-1.743 1.743-.054 0-.106 0-.178-.018-.463-.038-.854-.215-1.157-.572zm13.666-8.469v4.999c-.249 2.437-2.277 4.236-4.716 4.236s-4.449-1.797-4.716-4.236v-4.999c.046-.426.248-.819.567-1.105s.732-.444 1.16-.443a1.74 1.74 0 0 1 1.743 1.548v4.626c.019.318.158.616.39.834s.538.34.856.339.627-.117.859-.336.371-.519.387-.837v-4.626a1.75 1.75 0 0 1 1.743-1.548c.889 0 1.638.658 1.727 1.548zm9.055 3.647c.553.587 1.175.943 1.94 1.139l.588.124.409.126c.072.053.142.089.195.16.069.079.107.18.106.285v.053c0 .142-.053.249-.16.375-.04.04-.087.071-.139.092s-.108.032-.164.032c-.018 0-.054-.018-.072-.018-.173-.029-.341-.083-.498-.16-.19-.068-.375-.151-.552-.249-.173-.071-.335-.167-.48-.285-.193-.13-.418-.204-.65-.214s-.463.046-.666.16a1.5 1.5 0 0 0-.73.89c-.049.161-.073.329-.071.498a1.7 1.7 0 0 0 .57 1.299c.943.818 1.993 1.228 3.238 1.228.054 0 .106 0 .16-.018h.035c.711.01 1.407-.201 1.993-.602s1.034-.974 1.282-1.64c.178-.445.267-.853.267-1.334 0-.676-.16-1.262-.516-1.85-.277-.476-.676-.869-1.156-1.139-.252-.148-.513-.279-.782-.393-.472-.194-.927-.294-1.424-.445-.114-.028-.223-.076-.321-.141-.052-.04-.095-.092-.126-.15a.46.46 0 0 1-.052-.189c-.003-.081.017-.16.058-.23s.101-.126.173-.163a.48.48 0 0 1 .249-.089 1.06 1.06 0 0 1 .57.16c.301.178.568.321.907.445s.702.139 1.049.054c.409-.178.712-.481.836-.926.035-.107.035-.213.035-.319 0-.481-.213-.89-.588-1.157-.433-.319-.921-.554-1.441-.693-.443-.143-.905-.215-1.37-.214a4.22 4.22 0 0 0-1.246.178c-.567.146-1.075.462-1.457.906-.284.292-.507.638-.656 1.017s-.223.784-.216 1.191c.001.853.286 1.583.872 2.205zm-6.939-1.725h.391zm.391 0v5.587a1.72 1.72 0 0 0 1.725 1.53c.961 0 1.727-.766 1.743-1.727v-5.392h.373c.962 0 1.743-.782 1.743-1.727 0-.961-.782-1.743-1.743-1.743h-4.235a1.73 1.73 0 0 0-1.225.513 1.73 1.73 0 0 0-.373.565c-.086.211-.13.437-.128.665a1.73 1.73 0 0 0 1.727 1.727h.392v.001z" fill="#cb0879"/><path d="M23.452 46.331v-3.683 3.683zm5.213-4.822c-.943-1.335-2.242-2.118-3.861-2.314h-2.652A2.15 2.15 0 0 0 20 41.349v6.281a2.15 2.15 0 0 0 2.153 2.153h2.652c1.619-.178 2.936-.961 3.861-2.313.588-.926.872-1.869.872-2.971.013-1.061-.291-2.101-.872-2.989zm-2.883 4.056a1.82 1.82 0 0 1-.527.507c-.208.132-.44.22-.683.259h-1.121v-3.683h1.085c.534.107.925.373 1.246.783.213.337.303.675.303 1.067s-.107.729-.303 1.067zm4.609.178v-5 5zm0-5a1.72 1.72 0 0 1 1.725-1.548c.908 0 1.637.659 1.743 1.548v4.609a1.24 1.24 0 0 0 1.246 1.192c.676 0 1.21-.516 1.246-1.192v-4.609a1.74 1.74 0 0 1 1.743-1.548c.89 0 1.637.659 1.727 1.548v4.999c-.119 1.166-.668 2.245-1.54 3.028s-2.004 1.213-3.176 1.207c-1.172.006-2.304-.424-3.176-1.207s-1.421-1.862-1.54-3.028l.001-4.999zm18.096-1.548c-.943 0-1.725.782-1.725 1.743v2.491l-2.901-3.647c-.141-.173-.317-.315-.516-.416s-.417-.16-.64-.172h-.178c-.228-.002-.454.042-.665.128a1.73 1.73 0 0 0-.565.373c-.162.16-.291.351-.379.562s-.134.436-.134.664v7.331a1.73 1.73 0 0 0 .571 1.093c.318.282.729.437 1.154.436a1.73 1.73 0 0 0 1.23-.501 1.73 1.73 0 0 0 .379-.561c.088-.21.134-.436.135-.663v-2.509l2.883 3.665c.371.393.831.588 1.352.588.228-.001.453-.047.663-.135s.401-.217.561-.379.287-.354.373-.565a1.73 1.73 0 0 0 .128-.665v-7.313a1.72 1.72 0 0 0-1.725-1.548zm24.253 10.019l-2.882-3.666 2.882 3.666zm0 0a1.81 1.81 0 0 0 1.352.587c.961 0 1.743-.782 1.743-1.743v-7.315c-.046-.425-.248-.819-.566-1.105s-.731-.444-1.159-.444c-.961 0-1.743.782-1.743 1.743v2.491l-2.884-3.647c-.37-.41-.812-.587-1.352-.587-.228-.002-.454.042-.665.128a1.73 1.73 0 0 0-.565.373c-.162.16-.291.351-.379.562s-.134.436-.134.664v7.331a1.73 1.73 0 0 0 1.727 1.529 1.73 1.73 0 0 0 1.23-.501c.162-.16.291-.351.379-.561a1.73 1.73 0 0 0 .135-.663v-2.509l2.882 3.666zm-17.705-1.157c-.001.228-.047.453-.135.663a1.73 1.73 0 0 1-.944.934 1.73 1.73 0 0 1-.665.128c-.425.001-.836-.154-1.154-.436a1.73 1.73 0 0 1-.571-1.093V40.94c0-.961.782-1.743 1.743-1.743.942 0 1.725.782 1.725 1.743v2.491l2.9-3.702a1.64 1.64 0 0 1 1.246-.534 1.73 1.73 0 0 1 1.725 1.743c0 .409-.106.748-.355 1.067l-2.046 2.385 2.046 2.596a1.65 1.65 0 0 1 .355 1.069 1.73 1.73 0 0 1-.128.665c-.086.211-.213.403-.373.565s-.351.291-.561.379-.436.134-.663.135c-.499 0-.908-.178-1.246-.535l-2.9-3.701v2.494zm6.744.196V40.94a1.73 1.73 0 0 1 1.725-1.743c.961 0 1.727.782 1.727 1.743v7.117c0 .961-.766 1.725-1.727 1.725a1.72 1.72 0 0 1-1.725-1.529zM80 40.743v-.125c0-.89-.712-1.619-1.62-1.619-.889 0-1.619.729-1.619 1.619l.035 1.851c.142.694.73 1.156 1.442 1.156.694 0 1.28-.462 1.441-1.156L80 40.743z" fill="#e0912f"/><path d="M23.453 58.074h1.121a1.82 1.82 0 0 0 1.21-.766c.196-.322.3-.691.302-1.067 0-.391-.088-.729-.302-1.049a1.97 1.97 0 0 0-1.246-.8h-1.085v3.683zm9.929-1.833c0-1.121.907-2.028 2.01-2.028a2.03 2.03 0 0 1 2.029 2.028c0 1.121-.908 2.01-2.029 2.01-.264.001-.526-.051-.77-.152s-.466-.249-.653-.436-.335-.408-.436-.653a2.01 2.01 0 0 1-.152-.77z" fill="#fff"/><path d="M78.66 61.707a1.12 1.12 0 0 0 1.046-1.556 1.12 1.12 0 0 0-.614-.605 1.12 1.12 0 0 0-.432-.081 1.12 1.12 0 0 0-1.121 1.121 1.12 1.12 0 0 0 1.121 1.121zm-.913-1.125c0-.53.4-.931.913-.931.507 0 .907.4.907.931 0 .54-.4.936-.907.936-.513.001-.913-.396-.913-.936zm.676.09h.225l.341.562h.219l-.368-.57c.19-.024.336-.124.336-.355 0-.254-.151-.367-.457-.367h-.493v1.293h.196v-.563zm0-.166v-.4h.267c.136 0 .281.03.281.19 0 .198-.148.21-.314.21h-.234z" fill="#cb0879"/><defs /></svg>