<svg xmlns="http://www.w3.org/2000/svg" width="100" height="100" fill="none"  xmlns:v="https://vecta.io/nano"><path fill="#f5f4f8" d="M0 0h100v100H0z"/><g fill-rule="evenodd"><path d="M30.202 66.894c0 .064-.029.117-.088.157s-.134.061-.227.061h-1.384v-2.948h1.373a.39.39 0 0 1 .227.061c.059.041.088.093.088.157v.966c0 .053-.051.097-.152.134l-.3.085.322.094c.094.027.142.068.142.124v1.109zm-.393-1.612v-.885h-.932v1.062h.555l.377-.177zm.011 1.598v-1.023l-.383-.174h-.56v1.197h.942zm3.591.232h-.357v-.045l-.429.038-.426.022c-.2 0-.299-.073-.299-.218v-.648c.003-.143.098-.215.288-.218h.872v-.553h-.778v.314h-.351v-.306c.002-.143.097-.215.285-.217h.882c.209.001.313.075.315.222l-.001 1.611zm-.352-.224v-.651h-.808v.666l.808-.015zm3.411-1.003h-.359v-.389l-.666.016v1.6h-.359v-1.833h.359v.048l.361-.04.363-.023c.2 0 .3.073.301.218v.403zm3.709.217h-1.115v-.232h1.115v.232zm4.578 1.01h-.397l-.785-1.585.052-.053h.674v-1.077h-.973v2.716h-.374v-2.948h1.406c.093 0 .168.02.227.061s.088.093.088.157v1.097c0 .146-.138.218-.412.218-.027 0-.067-.001-.12-.003l-.114-.003.727 1.42zm3.1-.216c-.002.143-.107.215-.315.216h-.852c-.208 0-.313-.073-.315-.218v-1.396c.002-.146.107-.218.315-.218h.852c.208 0 .313.072.315.218v.651l-.123.088h-1.007v.666h.778v-.344h.351v.337zm-.351-.861v-.546h-.778v.546h.778zm3.46.859c0 .143-.105.216-.314.218h-.822c-.21-.002-.315-.075-.315-.218v-.41h.359v.412h.733v-.364l-.948-.539c-.091-.05-.136-.115-.136-.195v-.299c0-.143.104-.216.313-.218h.811c.209.002.313.075.313.218v.358h-.352v-.359h-.733v.319l.959.539c.089.048.134.115.134.199v.341zm2.603.218h-.508c-.209-.001-.314-.074-.315-.218v-1.397h-.314v-.217h.314v-.576h.359v.576h.464v.217h-.464v1.399h.464v.217h0zm3.045 0h-.357v-.045l-.429.038-.425.022c-.2 0-.299-.073-.299-.218v-.648c.002-.143.098-.215.288-.218h.872v-.553h-.778v.314h-.352v-.306c.002-.143.097-.215.285-.217h.882c.208.001.313.075.314.222v1.611zm-.351-.224v-.651h-.808v.666l.808-.015zm3.546.224h-.359v-.048l-.422.04-.422.023c-.209-.002-.314-.074-.315-.218v-1.629h.359v1.616l.8-.018v-1.598h.359v1.833zm3.053-1.227h-.359v-.389l-.666.016v1.6h-.359v-1.833h.359v.048l.361-.04.362-.023c.2 0 .3.073.302.218v.403zm3.04 1.227h-.357v-.045l-.429.038-.426.022c-.2 0-.299-.073-.299-.218v-.648c.002-.143.098-.215.288-.218h.872v-.553h-.778v.314h-.352v-.306c.002-.143.097-.215.285-.217h.882c.209.001.314.075.315.222v1.611zm-.352-.224v-.651h-.808v.666l.808-.015zm3.539.224h-.359v-1.616l-.793.018v1.598h-.359v-1.833h.359v.048l.428-.04.425-.023c.2 0 .299.073.299.218v1.63zm2.627 0h-.508c-.209-.001-.314-.074-.315-.218v-1.397h-.314v-.217h.314v-.576h.359v.576h.464v.217h-.464v1.399h.464v.217h0z" fill="#a12c32"/><path d="M64.847 61.153l1.065-1.175c1.301 1.572 3.073.147 4.173-.919 1.795-1.739 2.898-3.818 2.563-6.328-.289-2.169-.741-5.044-2.004-6.889-.63-.922-1.561 1.723-1.784 2.225-.178-.173-.466-.372-.508-.58.296-.723.626-1.436 1.019-2.113.367-.633 1.407-2.488 2.206-1.392 1.846 2.534 2.255 6.581 2.457 9.581 1.075-1.955 2.109-4.127 2.312-6.369.033-.378-.193-2.393-.92-1.351-.77-.801-.237-1.129.614-1.824.218-.178.93-.728 1.22-.348.7.915.415 2.691.225 3.726-.305 1.654-.928 3.237-1.643 4.755-1.341 2.846-3.1 5.601-5.302 7.874-1.236 1.275-4.532 4.03-5.692 1.127zM36.281 33.967a1.76 1.76 0 0 0-1.263.515c-.394.381-.589.873-.589 1.474 0 .821.443 1.774 1.332 2.862l2.472 3.133a8.77 8.77 0 0 1 1.332 4.692c0 2.909-.901 5.179-2.702 6.81-1.636 1.488-3.775 2.256-6.417 2.303-1.983.038-3.648-.415-4.992-1.359C23.817 53.251 23 51.55 23 49.29c0-1.555.47-2.932 1.412-4.135.722-.915 1.658-1.673 2.81-2.274.886-.457 1.559-.686 2.015-.686.311 0 .466.139.466.415 0 .209-.251.386-.754.529a5.97 5.97 0 0 0-2.592 1.501c-1.134 1.106-1.701 2.516-1.701 4.231 0 1.572.348 2.854 1.043 3.846.969 1.4 2.561 2.101 4.773 2.101 2.488 0 4.381-.786 5.68-2.359 1.153-1.392 1.729-3.213 1.729-5.462 0-1.459-.435-2.85-1.305-4.175l-2.417-3.045c-.869-1.106-1.304-2.116-1.304-3.032 0-1.143.333-2.059 1.001-2.745.631-.667 1.44-1 2.426-1 .759 0 1.413.162 1.963.486l.808.487c.137 0 .249-.128.336-.384s.241-.384.459-.384c.338 0 .553.3.645.9.055.343.083 1.057.083 2.143 0 1.447-.151 2.17-.453 2.17-.338 0-.507-.352-.507-1.058 0-.993-.388-1.828-1.167-2.505-.686-.592-1.409-.887-2.169-.887zm8.421 20.499c1.108 0 2.312-.958 3.613-2.873 1.017-1.735 1.526-3.34 1.526-4.817 0-1.258-.477-1.887-1.431-1.887-1.4 0-2.645 1.063-3.736 3.188-.918 1.772-1.377 3.316-1.377 4.631 0 1.172.468 1.758 1.404 1.758zm-4.462 1.985l2.975-9.136.48-1.715c0-.181-.073-.272-.22-.272-.119 0-.317.087-.596.262s-.446.264-.5.264c-.21 0-.314-.105-.314-.314 0-.276.451-.677 1.356-1.206s1.601-.792 2.095-.792c.301 0 .452.138.452.415 0 .408-.159.947-.476 1.612 1.177-1.351 2.469-2.027 3.872-2.027 1.48 0 2.218.958 2.218 2.873 0 1.762-.772 3.662-2.315 5.701-1.562 2.191-3.289 3.287-5.179 3.287-.923 0-1.504-.256-1.74-.768l-.85 2.087c-1.351 3.338-2.745 5.006-4.178 5.006-.375 0-.562-.086-.562-.259 0-.316.197-.473.59-.473.943 0 1.906-1.516 2.894-4.546zm16.902-17.088c0-.105.234-.386.703-.843s.747-.687.84-.687c.128 0 .262.133.405.4s.214.563.214.887c0 .83-.307 1.569-.922 2.217-.523.544-1.013.839-1.472.887-.257.039-.385-.038-.385-.229 0-.181.091-.301.274-.358.566-.143.849-.572.849-1.287 0-.325-.083-.544-.252-.658s-.253-.224-.253-.329zm-2.277 7.954c.3-.868.451-1.44.451-1.717 0-.181-.104-.272-.314-.272-.11 0-.307.087-.59.264s-.453.263-.508.263c-.2 0-.3-.104-.3-.313 0-.257.449-.655 1.345-1.193s1.534-.807 1.909-.807c.339 0 .507.138.507.415 0 .181-.082.515-.247 1.001l-2.308 6.607-.48 1.56c0 .171.072.257.219.257.118 0 .317-.087.597-.261s.445-.26.5-.26c.21 0 .315.104.315.315 0 .229-.436.618-1.31 1.168s-1.469.824-1.79.824c-.291 0-.438-.133-.438-.4 0-.229.073-.562.218-1.002l2.222-6.45zm6.738 8.085a3.3 3.3 0 0 1-2.592-1.171c-.666-.754-1-1.681-1-2.787 0-1.952.683-3.758 2.05-5.415s2.871-2.487 4.515-2.487c1.024 0 1.811.162 2.358.485.394.238.59.466.59.685 0 .647-.214.971-.642.971-.394 0-.713-.187-.961-.559-.265-.411-.813-.616-1.645-.616-1.435 0-2.597.797-3.483 2.389-.732 1.306-1.097 2.69-1.097 4.149 0 1.058.208 1.893.624 2.503a1.98 1.98 0 0 0 1.734.916c.622 0 1.243-.234 1.864-.701.476-.354.809-.706 1.002-1.06.3-.544.553-.816.753-.816.146 0 .219.129.219.385 0 .495-.311 1.076-.933 1.742-.859.923-1.979 1.385-3.359 1.385z" fill="#1f1b2d"/></g><defs /></svg>