<svg xmlns="http://www.w3.org/2000/svg" width="60" height="60" fill="none"  xmlns:v="https://vecta.io/nano"><path d="M57.526 20.982H2.574V19.74h54.952v1.241zm0 19.531H2.574v-1.241h54.952v1.241z" fill-rule="evenodd" fill="#6898a5"/><path d="M13.871 36.995h-2.235V22.719h2.235v6.124h2.565v-6.124h2.276v14.276h-2.276v-6.124h-2.565v6.124zm6.289-10.883c0-2.276 1.2-3.6 3.393-3.6s3.393 1.324 3.393 3.6v7.407c0 2.276-1.2 3.6-3.393 3.6s-3.393-1.324-3.393-3.6v-7.407zm2.234 7.572c0 1.035.455 1.407 1.159 1.407s1.159-.372 1.159-1.407v-7.696c0-1.035-.455-1.407-1.159-1.407s-1.159.372-1.159 1.407v7.697zm5.381-10.965h6.952v2.027h-2.359v12.248h-2.234V24.746h-2.359v-2.027zm10.137 6h3.062v2.028h-3.062v4.179h3.89v2.028h-6.124V22.719h6.124v2.027h-3.89v3.972zm5.256-6h2.235v12.248h3.683v2.028h-5.917V22.719z" fill="#6898a5"/><g fill-rule="evenodd"><path d="M30.755 7.449v8.731h-1.241V7.449h1.241zm-4.948 3.688l1.448 5.338-1.198.325-1.448-5.338 1.198-.325zm-5.772-.647l4.386 7.572-1.074.622-4.386-7.572 1.074-.622zm-.718 5.582l3.6 3.6-.878.878-3.6-3.6.878-.878zm16.298-4.61L34.167 16.8l-1.198-.325 1.448-5.338 1.198.325zm5.648-.35l-4.386 7.573-1.074-.622 4.386-7.572 1.074.622zm.402 5.96l-3.434 3.476-.883-.872 3.434-3.476.883.872z" fill="#6898a5"/><path d="M21.6 19.999c1.888-2.634 4.967-4.397 8.491-4.397s6.602 1.718 8.494 4.401l.69.978H20.897l.704-.982zm1.818-.259h13.357a9.07 9.07 0 0 0-6.685-2.897c-2.638 0-4.998 1.123-6.672 2.897z" fill="#6898a5"/></g><path d="M14.698 46.305c.29.041.662.124.993.29.538.207.869.414 1.034.745.124.248.165.538.041.869-.207.538-.621.745-1.117.745.248.207.331.579.29.993-.083.579-.124.993-.083 1.2l-.538-.207c-.041-.124 0-.497.083-1.035.083-.579-.041-.869-.497-1.035l-.496-.165-.621 1.697-.497-.166 1.407-3.931zm-.165 1.945l.538.207c.538.207.993.041 1.159-.414.166-.496-.083-.869-.621-1.076-.248-.083-.414-.124-.538-.124l-.538 1.407zm4.717 1.738l-1.572-.414-.372 1.448 1.738.455-.124.455-2.276-.579 1.076-4.014 2.193.579-.124.455-1.655-.455-.331 1.283 1.572.414-.124.372zm.621 1.449c.207.207.538.372.91.455.538.083.91-.124.993-.538.083-.372-.124-.662-.621-.952-.621-.372-.993-.786-.869-1.366.124-.621.745-1.034 1.531-.869a2.16 2.16 0 0 1 .869.372l-.207.414a2.12 2.12 0 0 0-.745-.331c-.579-.083-.828.207-.869.455-.083.372.165.621.662.952.662.414.952.786.828 1.407s-.704 1.076-1.655.91c-.414-.083-.786-.248-.993-.455l.165-.455zm4.343-2.401l-1.241-.124.041-.455 3.062.331-.041.455-1.283-.124-.372 3.683-.538-.041.372-3.724zm2.319 2.608l-.496 1.283h-.538l1.572-4.138.662.041 1.283 4.221h-.579l-.414-1.324-1.49-.083zm1.366-.372l-.372-1.2-.207-.786-.248.745-.455 1.2 1.283.041zm2.11-2.443l.124 2.483c.041.952.455 1.324 1.035 1.283.621-.041.993-.455.952-1.366l-.124-2.483.538-.041.124 2.441c.041 1.283-.579 1.821-1.49 1.862-.869.041-1.531-.414-1.573-1.697l-.124-2.441.538-.041zm3.35-.124c.248-.083.662-.165 1.035-.207.579-.083.952 0 1.241.207.248.166.372.414.414.745.083.538-.248.952-.662 1.159.331.083.579.331.703.745.207.579.331.952.455 1.117l-.538.083c-.083-.124-.207-.455-.414-.952-.207-.538-.455-.745-.91-.703l-.497.041.207 1.779-.538.083-.496-4.097zm.745 1.821l.538-.083c.579-.083.91-.414.828-.91-.083-.538-.497-.703-1.035-.662-.248.041-.455.083-.538.124l.207 1.531zm3.683.371l-.166 1.365-.538.124.621-4.345.621-.124 2.193 3.848-.579.124-.662-1.2-1.49.207zm1.241-.662l-.621-1.117-.372-.704c0 .248-.041.497-.083.786l-.166 1.241 1.241-.207zm2.235 1.325l-1.076-4.014.579-.166 1.821 1.697 1.076 1.117c-.207-.538-.331-1.035-.497-1.655l-.455-1.697.497-.124 1.076 4.014-.538.124-1.821-1.697c-.414-.372-.786-.786-1.117-1.159l.496 1.655.455 1.738-.497.166zm3.684-4.924l-1.2.372-.124-.455 2.938-.952.124.455-1.2.372 1.159 3.517-.538.166-1.159-3.476zm-13.821-.208l-.372-.373c-.331.331-.703.455-1.159.455-.786 0-1.2-.496-1.2-1.117 0-.538.331-.91.786-1.159-.207-.248-.331-.538-.331-.828 0-.497.331-.993.993-.993.497 0 .869.331.869.828 0 .414-.248.745-.869 1.035l.952 1.117c.166-.29.29-.662.372-1.159h.455c-.124.621-.29 1.117-.579 1.448l.662.703h-.579v.041zm-.662-.662c-.248-.248-.662-.745-1.117-1.241-.207.124-.497.372-.497.786 0 .455.331.786.828.786.331 0 .621-.166.786-.331zm-1.2-2.441c0 .29.124.497.29.704.414-.248.662-.455.662-.786 0-.248-.124-.496-.455-.496-.29 0-.497.29-.497.579z" fill="#6898a5"/><path d="M1.989 20.149C6.13 8.656 17.116.414 30.049.414s23.919 8.242 28.06 19.734l.299.831H1.689l.299-.831zm1.482-.41h53.155c-4.19-10.582-14.5-18.083-26.578-18.083S7.661 9.157 3.471 19.738zM1.654 39.27h56.791l-.293.828C54.054 51.674 43.026 60.001 30.05 60.001S6.046 51.674 1.947 40.097l-.293-.828zm1.771 1.241C7.578 51.177 17.93 58.759 30.05 58.759s22.472-7.582 26.625-18.248H3.425z" fill="#6898a5" fill-rule="evenodd"/><defs /></svg>