<?xml version="1.0" encoding="utf-8"?>
<!-- Generator: Adobe Illustrator 23.0.1, SVG Export Plug-In . SVG Version: 6.00 Build 0)  -->
<svg version="1.1" id="Layer_1" xmlns:v="https://vecta.io/nano"
	 xmlns="http://www.w3.org/2000/svg" xmlns:xlink="http://www.w3.org/1999/xlink" x="0px" y="0px" viewBox="0 0 344 292"
	 style="enable-background:new 0 0 344 292;" xml:space="preserve">
<style type="text/css">
	.st0{fill:#D5D2DC;}
	.st1{fill:#F5F4F8;}
	.st2{fill:#FFFFFF;}
	.st3{fill:#F9F8FA;}
	.st4{fill:#EFECF3;}
	.st5{fill:#1F1B2D;}
	.st6{fill:#FD5631;}
	.st7{fill:#666276;}
	.st8{opacity:0.1;enable-background:new    ;}
	.st9{opacity:0.2;fill:#FFFFFF;enable-background:new    ;}
	.st10{fill:#FFBE9D;}
	.st11{fill:#EB996E;}
	.st12{opacity:0.2;enable-background:new    ;}
	.st13{opacity:4.000000e-02;enable-background:new    ;}
</style>
<path class="st0" d="M319,195.4H206.2v-65.3H319V195.4z M206.9,194.7h111.4v-63.9H206.9V194.7z"/>
<path class="st1" d="M295.7,164.9h-74.4v2.2h74.4V164.9z M300.9,173.1h-79.5v2.4h79.5V173.1z M300.9,181.3h-79.5v2.4h79.5V181.3z
	 M247.3,153.1h-26v5.7h26V153.1z"/>
<path class="st0" d="M318.7,130.5H206.6v10.4h112.1V130.5z"/>
<g>
	<path class="st2" d="M307.7,139.3c-0.1-0.1,1.3-1.9,3.2-3.9s3.6-3.5,3.7-3.4s-1.3,1.9-3.2,3.9S307.8,139.4,307.7,139.3z"/>
	<path class="st2" d="M314.7,139.3c-0.1,0.1-1.8-1.4-3.7-3.4s-3.4-3.8-3.2-3.9s1.8,1.4,3.7,3.4S314.8,139.2,314.7,139.3L314.7,139.3
		z"/>
</g>
<path class="st3" d="M180.2,1.2H68.1v64.6h112.1V1.2z"/>
<path class="st4" d="M157.3,35.6H82.9v2.2h74.4V35.6z M162.4,43.8H82.9v2.4h79.5V43.8z M162.4,52H82.9v2.4h79.5V52z M108.9,23.8h-26
	v5.7h26V23.8z"/>
<path class="st0" d="M180.2,1.2H68.1v10.4h112.1V1.2z"/>
<g>
	<path class="st2" d="M171.2,10c-0.1-0.1,1.3-1.9,3.2-3.9s3.6-3.5,3.7-3.4s-1.3,1.9-3.2,3.9S171.4,10.1,171.2,10z"/>
	<path class="st2" d="M178.2,10c-0.1,0.1-1.8-1.4-3.7-3.4s-3.4-3.8-3.2-3.9s1.8,1.4,3.7,3.4S178.3,9.8,178.2,10z"/>
</g>
<path class="st0" d="M137.8,121.2H25V55.9h112.8L137.8,121.2L137.8,121.2z M25.7,120.5h111.4V56.6H25.7
	C25.7,56.6,25.7,120.5,25.7,120.5z"/>
<path class="st1" d="M114.5,90.7H40.1v2.2h74.4V90.7z M119.6,98.8H40.1v2.4h79.5C119.6,101.2,119.6,98.8,119.6,98.8z M119.6,107.1
	H40.1v2.4h79.5V107.1z M66.1,78.9h-26v5.7h26V78.9z"/>
<path class="st0" d="M137.4,56.2H25.3v10.4h112.1V56.2z"/>
<path class="st3" d="M267.9,136.1H135.6v118.5h132.3V136.1z"/>
<path class="st1" d="M142.2,98.8H38.6v107.7h103.7V98.8z"/>
<path class="st0" d="M142.2,98.8H38.6v11.7h103.7V98.8z"/>
<path class="st2" d="M47.1,104.6c0,0.4-0.2,0.8-0.4,1.2s-0.6,0.6-1,0.8c-0.4,0.1-0.8,0.2-1.2,0.1c-0.4-0.1-0.8-0.3-1.1-0.6
	s-0.5-0.7-0.6-1.1c-0.1-0.4,0-0.9,0.1-1.2c0.2-0.4,0.4-0.7,0.8-1c0.4-0.2,0.8-0.4,1.2-0.4c0.6,0,1.1,0.3,1.6,0.7
	C46.9,103.4,47.1,104,47.1,104.6L47.1,104.6z M55.9,104.6c0,0.9-0.6,1.6-1.4,2c-0.4,0.2-0.8,0.2-1.3,0.1c-0.4-0.1-0.8-0.3-1.1-0.6
	c-0.3-0.3-0.5-0.7-0.6-1.1c-0.1-0.4,0-0.9,0.1-1.2c0.2-0.4,0.4-0.7,0.8-1c0.4-0.2,0.8-0.4,1.2-0.4c0.6,0,1.1,0.3,1.6,0.7
	C55.7,103.4,56,104,55.9,104.6z M64.8,104.6c0,0.9-0.6,1.6-1.4,2c-0.8,0.3-1.7,0.1-2.3-0.5c-0.3-0.3-0.5-0.7-0.6-1.1
	c-0.1-0.4,0-0.9,0.1-1.2c0.2-0.4,0.4-0.7,0.8-1c0.4-0.2,0.8-0.4,1.2-0.4c0.6,0,1.1,0.3,1.6,0.7C64.6,103.4,64.8,104,64.8,104.6
	L64.8,104.6z"/>
<path class="st1" d="M304.2,24.7H171.9v131.9h132.3V24.7z"/>
<path class="st0" d="M304.2,24.7H171.9v15.5h132.3V24.7z"/>
<g>
	<g>
		<path id="B" class="st2" d="M183.1,32.3c0,0.6-0.2,1.1-0.5,1.6c-0.7,0.9-1.8,1.4-3,1.1c-0.5-0.1-1-0.4-1.4-0.8
			c-0.4-0.4-0.7-0.9-0.8-1.5c-0.1-0.6,0-1.1,0.2-1.6s0.6-1,1.1-1.3c0.5-0.3,1-0.5,1.6-0.5C181.9,29.3,183.2,30.7,183.1,32.3z"/>
	</g>
	<path class="st2" d="M193.9,30.3c0.4,0.4,0.6,0.9,0.7,1.5c0.1,0.6,0,1.1-0.2,1.6c-0.2,0.5-0.6,0.9-1.1,1.2c-1,0.6-2.2,0.6-3.2-0.1
		c-0.5-0.3-0.8-0.8-1-1.3s-0.3-1.1-0.1-1.6c0.1-0.6,0.4-1.1,0.8-1.5c0.6-0.5,1.3-0.8,2.1-0.8S193.4,29.7,193.9,30.3L193.9,30.3z"/>
	<g>
		<path class="st2" d="M206.4,32.3c0,0.6-0.2,1.1-0.5,1.6c-0.7,0.9-1.8,1.4-3,1.1c-0.5-0.1-1-0.4-1.4-0.8c-0.4-0.4-0.7-0.9-0.8-1.5
			c-0.1-0.6,0-1.1,0.2-1.6s0.6-1,1.1-1.3c0.5-0.3,1-0.5,1.6-0.5C205.1,29.3,206.4,30.7,206.4,32.3z"/>
	</g>
</g>
<path class="st5" d="M275.6,289.7c0,0.1-47.8,0.2-106.7,0.2s-106.7-0.1-106.7-0.2s47.8-0.2,106.7-0.2L275.6,289.7z"/>
<path class="st6" d="M229,205.4c-10.6-7.4-13-21.2-12.6-33.6c0.1-2.1-0.2-4.3,0.8-6.1s3.3-3.1,5.1-2.2c1.5,0.7,2.2,2.5,3.1,4
	c1.1,2,2.8,3.6,4.9,4.6c1.3,0.7,2.9,1.1,4.2,0.4c1.8-1,2-3.4,2-5.5l-0.1-11.5c-0.1-2.1,0.1-4.1,0.6-6.1c0.6-2,2.1-3.8,4-4.3
	s4.4,0.6,4.8,2.6c0.1,0.9,0.1,1.7,0.1,2.6c0.1,0.9,0.5,1.8,1.3,2.1s1.6-0.3,2.3-0.9c2.1-2.1,3.6-4.8,4.9-7.4s2.7-5.4,4.6-7.7
	s4.6-4.1,7.6-4.2s6.1,1.7,6.8,4.6s-0.9,5.8-2.8,8.2c-2.7,3.5-6,6.6-9.6,9.1c-0.7,0.4-1.3,1-1.6,1.7c-0.4,1.4,0.9,2.8,2.2,3.2
	c1.5,0.5,3.2,0.4,4.8,0.5s3.3,0.9,4,2.4c0.8,2.1-0.9,4.3-2.6,5.8c-3.5,2.9-7.4,5.2-11.6,6.7c-1.5,0.6-3.1,1-4.3,2.1s-2,2.9-1.2,4.4
	s2.6,1.9,4.2,1.6s3-1.1,4.5-1.7c2.8-1.1,6.5-0.9,8.3,1.6c0.6,0.8,0.9,1.8,1,2.8c0.1,1,0,2-0.3,3c-0.7,1.9-1.7,3.6-3.1,5.1
	c-4.5,5.4-10.4,9.5-17,11.9C241.6,207.2,235.6,207.8,229,205.4"/>
<g>
	<path class="st5" d="M270.4,133.8c0,0-0.1,0.1-0.2,0.2l-0.6,0.5l-2.3,2.1c-2.8,2.6-5.5,5.5-7.9,8.5c-1.5,1.9-3.1,4.1-4.8,6.4
		c-1.8,2.5-3.5,5-5.2,7.6c-1.8,2.8-3.5,5.8-5.1,8.8c-0.8,1.6-1.5,3.2-2.2,4.9l-2.1,5.1c-2.8,6.5-5.3,13.1-7.3,19.8
		c-1.7,5.5-2.8,11.2-3.4,16.9c-0.4,3.9-0.5,7.8-0.2,11.6c0.1,1.4,0.2,2.4,0.3,3.1l0.1,0.8v0.3c0-0.1,0-0.2-0.1-0.3l-0.1-0.8
		c-0.1-0.7-0.3-1.8-0.4-3.2c-0.3-3.9-0.3-7.8,0.1-11.7c0.6-5.7,1.7-11.4,3.4-17c2.1-6.8,4.5-13.4,7.3-19.9l2.2-5.1
		c0.7-1.7,1.4-3.3,2.2-4.9c1.5-3,3.2-6,5.1-8.8c1.8-2.8,3.5-5.2,5.2-7.6s3.3-4.5,4.8-6.4c2.4-3,5.1-5.8,8-8.4c1-0.9,1.8-1.6,2.4-2.1
		l0.6-0.5C270.2,133.9,270.3,133.8,270.4,133.8L270.4,133.8z"/>
	<path class="st5" d="M244.1,167.7c-0.1-0.3-0.2-0.6-0.2-0.9l-0.4-2.4l-0.9-8l-1-8l-0.4-2.4c-0.1-0.3-0.1-0.6-0.1-0.9
		c0.1,0.3,0.2,0.6,0.3,0.9c0.2,0.6,0.3,1.4,0.5,2.4c0.4,2.1,0.8,4.9,1.1,8l0.8,8l0.3,2.4C244.1,167.1,244.1,167.4,244.1,167.7
		L244.1,167.7z M270.5,162.8c-0.3,0.1-0.7,0.1-1,0.1l-2.9,0.3l-9.4,1.4l-9.3,2.1l-2.8,0.8c-0.3,0.1-0.7,0.2-1,0.2
		c0.3-0.2,0.6-0.3,1-0.4l2.8-0.9c2.3-0.7,5.6-1.5,9.3-2.2c3.1-0.6,6.2-1,9.4-1.3l2.9-0.2C269.8,162.7,270.2,162.7,270.5,162.8
		L270.5,162.8z M232.6,197.1c-0.1-0.1-0.1-0.2-0.2-0.3l-0.5-1l-1.6-3.6c-1.3-3-2.9-7.3-4.6-12l-4.5-12l-1.4-3.6l-0.4-1
		c-0.1-0.1-0.1-0.2-0.1-0.4c0.1,0.1,0.1,0.2,0.2,0.3l0.5,1c0.4,0.8,0.9,2.1,1.6,3.6c1.3,3,2.9,7.3,4.6,12l4.5,12l1.4,3.6
		c0.2,0.4,0.3,0.7,0.4,1C232.5,196.9,232.5,197,232.6,197.1L232.6,197.1z"/>
	<path class="st5" d="M267.7,185.8c-0.1,0.1-0.2,0.1-0.4,0.1l-1,0.3l-3.8,1.2l-12.4,4.1l-12.4,4l-3.8,1.1l-1,0.3
		c-0.1,0-0.2,0.1-0.4,0.1c0.1-0.1,0.2-0.1,0.4-0.1l1-0.3l3.8-1.2l12.4-4.1l12.4-4l3.8-1.1l1-0.3
		C267.5,185.8,267.6,185.8,267.7,185.8L267.7,185.8z"/>
</g>
<path class="st6" d="M253.4,18.8l-3.5,1.3l-1.5-4.6c-2.8-8.5-11.7-13.1-19.9-10.2s-12.5,12.3-9.7,20.8l1.5,4.6l-3.6,1.3
	c-2.8,1.1-4.3,4.2-3.3,7.1l9.9,30.1c0.2,0.7,0.5,1.3,1,1.9s1,1,1.6,1.3s1.3,0.5,2,0.6c0.7,0.1,1.4,0,2.1-0.3l36.7-13.1
	c1.4-0.5,2.5-1.6,3.1-2.9s0.7-2.9,0.2-4.2l-9.9-30.1c-0.2-0.7-0.6-1.3-1-1.9c-0.5-0.5-1-1-1.7-1.3c-0.6-0.3-1.3-0.5-2-0.6
	S254.1,18.6,253.4,18.8L253.4,18.8z M225.4,23.6c-0.8-2.2-0.6-4.6,0.4-6.8c1-2.1,2.8-3.8,5-4.6c1.1-0.4,2.2-0.5,3.4-0.4
	c1.1,0.1,2.3,0.4,3.3,0.9c1,0.5,1.9,1.2,2.7,2.1c0.7,0.9,1.3,1.9,1.6,3l1.5,4.6l-16.2,5.8L225.4,23.6z M246,50.4l2.5,7.7
	c0,0.2,0,0.3,0,0.5s-0.2,0.3-0.4,0.3l-3.5,1.3c-0.1,0-0.3,0-0.4,0s-0.2-0.2-0.3-0.3l-2.5-7.7c-2.9-0.2-5.3-2.1-6.2-4.8
	c-0.6-1.8-0.5-3.7,0.3-5.4s2.2-3,4-3.7c1.7-0.6,3.6-0.5,5.3,0.4c0.8,0.4,1.5,1,2.1,1.7c0.6,0.7,1,1.5,1.3,2.4
	c0.4,1.4,0.5,2.8,0.1,4.2S247.1,49.4,246,50.4L246,50.4L246,50.4z"/>
<g>
	<path class="st5" d="M249.7,20c0,0.1-6.6,2.6-14.7,5.5l-14.9,5.2c0-0.1,6.6-2.6,14.8-5.5L249.7,20L249.7,20z M257.5,21.3
		c0,0.1,0.1,0.1,0.1,0.2l0.2,0.5l0.7,2.1l2.6,7.7l3.9,11.4l2.3,6.8c0.4,1.2,0.6,2.5,0.5,3.8c-0.1,0.7-0.2,1.3-0.6,1.9
		c-0.3,0.6-0.8,1.1-1.3,1.5c-1.1,0.8-2.2,1.4-3.5,1.8l-3.5,1.3l-6.7,2.4l-11.4,4l-7.7,2.7l-2.1,0.7l-0.6,0.2c-0.1,0-0.1,0-0.2,0
		c0,0,0.1,0,0.2-0.1l0.5-0.2l2.1-0.8l7.6-2.8l11.3-4.1l6.7-2.4l3.5-1.3c1.2-0.4,2.4-1,3.4-1.7c0.5-0.4,0.9-0.9,1.2-1.4
		c0.3-0.5,0.5-1.2,0.5-1.8c0.1-1.2-0.1-2.5-0.5-3.6l-2.2-6.8l-3.8-11.4l-2.5-7.7l-0.7-2.1l-0.2-0.6
		C257.5,21.3,257.5,21.3,257.5,21.3L257.5,21.3z"/>
	<path class="st5" d="M238.1,11.8l-1-0.5c-1-0.4-2-0.6-3-0.6c-1.5-0.1-3,0.2-4.4,0.8c-1.7,0.8-3.2,2-4.2,3.5c-1,1.5-1.6,3.4-1.6,5.2
		c0,1.5,0.2,3,0.7,4.5l1,2.9c0.1,0.4,0.3,0.7,0.4,1.1c-0.2-0.3-0.4-0.7-0.5-1l-1.1-2.9c-0.5-1.5-0.8-3-0.8-4.6
		c0-1.9,0.6-3.8,1.7-5.4c1.1-1.6,2.6-2.9,4.4-3.6c1.4-0.6,3-0.9,4.6-0.8c1.1,0.1,2.1,0.3,3,0.7c0.3,0.1,0.5,0.3,0.7,0.4
		C237.9,11.6,238,11.7,238.1,11.8L238.1,11.8z M238.4,38.7c0.1-0.1,0.2-0.1,0.3-0.2c0.3-0.2,0.7-0.3,1.1-0.4
		c0.6-0.2,1.2-0.3,1.8-0.3c0.8,0,1.6,0.1,2.4,0.4c1.8,0.6,3.4,2.4,4.2,4.8c0.4,1.3,0.4,2.7,0,4c-0.4,1.4-1.2,2.7-2.2,3.7l0-0.2
		l2.9,8.1l0.1,0.2l-0.2,0.1l-1.6,0.5l-3.4,1.2l-0.2,0.1l-0.1-0.2l-2.8-8.1l0.2,0.1c-1.3-0.1-2.6-0.6-3.7-1.5c-1-0.7-1.7-1.7-2.3-2.8
		c-0.5-1-0.8-2-0.7-3.1c0-1.1,0.3-2.2,0.8-3.2c0.5-1,1.2-1.8,2.1-2.5C237.5,39.1,237.9,38.9,238.4,38.7c-0.4,0.2-0.8,0.5-1.2,0.7
		c-1,0.8-1.7,1.8-2.1,3c-0.4,0.9-0.6,1.8-0.5,2.8c0,1,0.3,1.9,0.7,2.8c0.5,1,1.3,1.9,2.2,2.6c1,0.8,2.2,1.3,3.5,1.4h0.1l0,0.1
		l2.8,8.1l-0.2-0.1l3.4-1.2l1.6-0.5l-0.1,0.2l-2.9-8.1v-0.1l0.1-0.1c1-1,1.7-2.2,2.2-3.6c0.4-1.2,0.4-2.5,0-3.8
		c-0.8-2.3-2.3-4.1-4-4.7c-0.7-0.3-1.5-0.4-2.3-0.4c-0.6,0-1.2,0.1-1.8,0.2L238.4,38.7L238.4,38.7z"/>
</g>
<path class="st7" d="M217.1,237.5l-68.7-0.3c-4,0-7.8-1.6-10.6-4.4c-2.8-2.8-4.4-6.6-4.3-10.6l0.7-172.4c0-2,0.4-3.9,1.2-5.7
	s1.9-3.5,3.3-4.8s3.1-2.5,4.9-3.2s3.8-1.1,5.7-1.1l68.7,0.3c4,0,7.8,1.6,10.6,4.4c2.8,2.8,4.4,6.6,4.3,10.6l-0.7,172.4
	c0,2-0.4,3.9-1.2,5.7s-1.9,3.5-3.3,4.8s-3.1,2.5-4.9,3.2S219.1,237.5,217.1,237.5L217.1,237.5z"/>
<path class="st2" d="M217.9,41.1h-13.3c-0.9,0-1.7,0.4-2.3,1c-0.3,0.3-0.5,0.7-0.7,1.1c-0.2,0.4-0.2,0.8-0.2,1.3v2.4
	c0,0.4-0.1,0.9-0.2,1.3c-0.3,0.8-1,1.5-1.8,1.8c-0.4,0.2-0.8,0.3-1.3,0.3l-26-0.1c-1.8-0.1-3.3-1.6-3.2-3.4v-2.4
	c0-0.9-0.3-1.7-0.9-2.4c-0.6-0.6-1.4-1-2.3-1H161l-11.7-0.1c-2.8,0-5.4,1.1-7.4,3c-2,1.9-3.1,4.6-3.1,7.4l-0.7,168.3
	c0,1.4,0.3,2.7,0.8,4c0.5,1.3,1.3,2.4,2.3,3.4c1,1,2.1,1.8,3.4,2.3s2.6,0.8,4,0.8l68.6,0.3c1.4,0,2.7-0.3,4-0.8
	c1.3-0.5,2.4-1.3,3.4-2.3c2-2,3.1-4.6,3.1-7.4l0.7-168.3c0-2.8-1.1-5.5-3-7.4S220.7,41.1,217.9,41.1L217.9,41.1z"/>
<path class="st6" d="M165.5,100.4l-17.7-0.1l0,3.2l17.7,0.1L165.5,100.4z"/>
<path class="st8" d="M165.5,100.4l-17.7-0.1l0,3.2l17.7,0.1L165.5,100.4z"/>
<path class="st0" d="M217.4,120.3c0.1,0,0.3,0,0.4-0.1c0.2-0.1,0.4-0.2,0.5-0.4c0.1-0.2,0.2-0.4,0.2-0.6v-4.7v-3.4v-1
	c0-0.3,0-0.6-0.2-0.9c-0.1-0.1-0.2-0.2-0.4-0.3c-0.1-0.1-0.3-0.1-0.5-0.1h-1.1h-9.9l-57.6-0.2c-0.1,0-0.3,0-0.4,0.1
	c-0.1,0.1-0.2,0.2-0.3,0.3c-0.2,0.3-0.2,0.6-0.2,0.9v2.1v4.1v2.1c0,0.3,0,0.6,0,1c0,0.1,0.1,0.3,0.2,0.4c0.1,0.1,0.2,0.2,0.3,0.2
	c0.1,0.1,0.3,0.1,0.4,0.1h3.5l15.3,0.1l25.9,0.2l17.4,0.1l4.7,0.1h1.2L217.4,120.3l-0.4-0.1h-1.2H211h-17.4l-25.9-0.1l-15.3-0.1
	h-3.5c-0.2,0-0.4,0-0.6-0.1c-0.2-0.1-0.3-0.2-0.5-0.3s-0.2-0.3-0.3-0.5c0-0.2-0.1-0.4,0-0.6v-0.5V116v-4.1v-2.1c0-0.2,0-0.4,0-0.6
	c0-0.2,0.1-0.4,0.2-0.6c0.1-0.2,0.3-0.3,0.5-0.4c0.2-0.1,0.4-0.1,0.6-0.1l57.6,0.3l9.9,0.1h1.1c0.2,0,0.4,0,0.5,0.1
	c0.2,0.1,0.3,0.2,0.4,0.4c0.2,0.3,0.3,0.7,0.2,1v1v3.4l-0.1,4.8c0,0.4-0.3,0.8-0.7,1C217.7,120.3,217.5,120.3,217.4,120.3
	L217.4,120.3z"/>
<path class="st6" d="M185.5,112.1h-32.4v3h32.4V112.1z"/>
<path class="st9" d="M185.5,112.1h-32.4v3h32.4V112.1z"/>
<path class="st6" d="M165.4,130l-17.7-0.1l0,3.2l17.7,0.1L165.4,130L165.4,130z"/>
<path class="st8" d="M165.4,130l-17.7-0.1l0,3.2l17.7,0.1L165.4,130L165.4,130z"/>
<path class="st0" d="M216.9,150c0.1,0,0.3,0,0.4-0.1c0.2-0.1,0.4-0.2,0.5-0.3s0.3-0.3,0.3-0.5c0.1-0.3,0.2-0.6,0.1-0.9v-1.1v-2.8
	V140c0-0.3,0-0.6-0.2-0.9c-0.2-0.3-0.4-0.5-0.8-0.6c-0.3-0.1-0.7-0.1-1-0.1h-9.9l-57.4-0.2c-0.3,0-0.6,0.1-0.8,0.3s-0.4,0.5-0.4,0.8
	v2.1v4.1v2.1c0,0.3,0,0.6,0,1c0.1,0.3,0.3,0.5,0.5,0.7c0.3,0.2,0.6,0.2,0.9,0.2h1h2l15.2,0.1l25.8,0.2l17.4,0.1l4.7,0.1h1.2
	L216.9,150l-0.4,0h-1.2h-4.7h-17.4l-25.8,0l-15.2-0.1h-3c-0.4,0-0.7-0.1-1.1-0.3c-0.3-0.2-0.5-0.5-0.6-0.9c-0.1-0.3-0.1-0.7-0.1-1.1
	v-2.1v-4.1v-2.1c0.1-0.4,0.2-0.8,0.5-1c0.3-0.3,0.7-0.4,1.1-0.4l57.4,0.3l9.9,0.1c0.4,0,0.7,0,1.1,0.1c0.4,0.1,0.7,0.4,0.8,0.7
	c0.2,0.3,0.3,0.7,0.2,1v1v3.4v2.8v1.1c0,0.3,0,0.6-0.1,0.9c-0.1,0.2-0.2,0.4-0.4,0.5s-0.3,0.2-0.6,0.3
	C217.2,150,217.1,150,216.9,150L216.9,150z"/>
<path class="st6" d="M165.2,161l-17.7-0.1l0,3.2l17.7,0.1L165.2,161z"/>
<path class="st8" d="M165.2,161l-17.7-0.1l0,3.2l17.7,0.1L165.2,161z"/>
<path class="st0" d="M216.8,180.9c0.1,0,0.3,0,0.4-0.1c0.2-0.1,0.4-0.2,0.5-0.3c0.1-0.1,0.3-0.3,0.4-0.5c0.1-0.3,0.1-0.6,0.1-0.9
	v-1.1v-2.8V171c0-0.3,0-0.6-0.2-0.9c-0.2-0.3-0.4-0.5-0.8-0.6c-0.3-0.1-0.7-0.1-1-0.1h-9.9l-57.4-0.2c-0.3,0-0.6,0.1-0.8,0.3
	c-0.2,0.2-0.4,0.5-0.4,0.8v2.1v4.1v2.1c0,0.3,0,0.6,0,1c0.1,0.3,0.3,0.5,0.5,0.7c0.3,0.2,0.6,0.2,0.9,0.2h3l15.2,0.1l25.8,0.2
	l17.4,0.1l4.7,0.1h1.2L216.8,180.9l-0.4,0h-1.2h-4.7h-17.4l-25.8-0.1l-15.2-0.1h-3c-0.4,0-0.7-0.1-1.1-0.3c-0.3-0.2-0.5-0.5-0.6-0.9
	c-0.1-0.3-0.1-0.7-0.1-1.1v-2.1v-4.1v-2.1c0-0.4,0.2-0.8,0.5-1c0.3-0.3,0.7-0.4,1.1-0.4l57.4,0.3l9.9,0.1c0.4,0,0.7,0,1.1,0.1
	c0.4,0.1,0.7,0.4,0.8,0.7c0.2,0.3,0.3,0.7,0.2,1v1v3.4v2.8v1.1c0,0.3,0,0.6-0.1,0.9c-0.1,0.2-0.2,0.4-0.4,0.5
	c-0.2,0.1-0.3,0.2-0.6,0.3C217.1,180.9,217,180.9,216.8,180.9z"/>
<path class="st6" d="M184.8,142.6l-32.4-0.1l0,3l32.4,0.1L184.8,142.6L184.8,142.6z"/>
<path class="st9" d="M184.8,142.6l-32.4-0.1l0,3l32.4,0.1L184.8,142.6L184.8,142.6z"/>
<path class="st6" d="M155.3,175.3c0,0.3-0.1,0.5-0.3,0.8c-0.3,0.4-0.9,0.6-1.5,0.5c-0.3-0.1-0.5-0.2-0.7-0.4c-0.5-0.6-0.5-1.5,0.1-2
	c0.3-0.2,0.6-0.4,1-0.4c0.4,0,0.7,0.2,1,0.5C155.2,174.5,155.4,174.9,155.3,175.3L155.3,175.3z M159.7,175.3c0,0.2,0,0.4-0.1,0.6
	c-0.1,0.2-0.2,0.4-0.3,0.5c-0.3,0.3-0.6,0.5-1,0.5c-0.2,0-0.4,0-0.6-0.1c-0.2-0.1-0.3-0.2-0.5-0.3c-0.1-0.1-0.2-0.3-0.3-0.5
	c-0.1-0.2-0.1-0.4-0.1-0.6c0-0.2,0-0.4,0.1-0.6c0.1-0.2,0.2-0.4,0.3-0.5c0.1-0.1,0.3-0.3,0.5-0.3c0.2-0.1,0.4-0.1,0.6-0.1
	c0.2,0,0.4,0,0.6,0.1c0.2,0.1,0.3,0.2,0.5,0.3c0.1,0.1,0.2,0.3,0.3,0.5C159.7,174.9,159.7,175.1,159.7,175.3L159.7,175.3z
	 M164.1,175.3c0,0.6-0.4,1.1-1,1.2c-0.3,0.1-0.5,0.1-0.8,0c-0.3-0.1-0.5-0.2-0.7-0.4c-0.4-0.4-0.5-1-0.2-1.5
	c0.1-0.3,0.3-0.5,0.5-0.6c0.2-0.1,0.5-0.2,0.8-0.2c0.4,0,0.7,0.2,1,0.5S164.1,174.9,164.1,175.3L164.1,175.3z M168.5,175.3
	c0,0.3-0.1,0.5-0.3,0.8c-0.2,0.2-0.4,0.4-0.7,0.5c-0.3,0.1-0.5,0.1-0.8,0c-0.3-0.1-0.5-0.2-0.7-0.4c-0.2-0.2-0.3-0.5-0.4-0.7
	c0-0.3,0-0.6,0.1-0.8c0.1-0.3,0.3-0.5,0.5-0.6c0.2-0.1,0.5-0.2,0.8-0.2c0.4,0,0.7,0.2,1,0.5C168.4,174.6,168.5,175,168.5,175.3
	L168.5,175.3z M172.9,175.4c0,0.3-0.1,0.5-0.3,0.8c-0.2,0.2-0.4,0.4-0.7,0.5c-0.3,0.1-0.5,0.1-0.8,0c-0.3-0.1-0.5-0.2-0.7-0.4
	c-0.2-0.2-0.3-0.5-0.4-0.7c0-0.3,0-0.6,0.1-0.8c0.1-0.3,0.3-0.5,0.5-0.6c0.2-0.1,0.5-0.2,0.8-0.2c0.4,0,0.7,0.2,1,0.5
	C172.8,174.6,172.9,175,172.9,175.4L172.9,175.4z M177.3,175.4c0,0.3-0.1,0.5-0.3,0.8c-0.2,0.2-0.4,0.4-0.7,0.5
	c-0.3,0.1-0.5,0.1-0.8,0c-0.3-0.1-0.5-0.2-0.7-0.4c-0.2-0.2-0.3-0.5-0.4-0.7c-0.1-0.8,0.4-1.5,1.1-1.6c0.1,0,0.2,0,0.3,0
	c0.4,0,0.8,0.2,1,0.5C177.1,174.6,177.3,175,177.3,175.4L177.3,175.4z M181.7,175.4c0,0.2,0,0.4-0.1,0.6s-0.2,0.4-0.3,0.5
	c-0.1,0.1-0.3,0.3-0.5,0.3c-0.2,0.1-0.4,0.1-0.6,0.1c-0.2,0-0.4,0-0.6-0.1c-0.2-0.1-0.3-0.2-0.5-0.3c-0.1-0.1-0.2-0.3-0.3-0.5
	c-0.1-0.2-0.1-0.4-0.1-0.6c0-0.2,0-0.4,0.1-0.6s0.2-0.4,0.3-0.5c0.1-0.1,0.3-0.3,0.5-0.3c0.2-0.1,0.4-0.1,0.6-0.1
	c0.2,0,0.4,0,0.6,0.1c0.2,0.1,0.3,0.2,0.5,0.3c0.1,0.1,0.2,0.3,0.3,0.5C181.6,175,181.7,175.2,181.7,175.4z M186,175.4
	c0,0.3-0.1,0.5-0.3,0.8c-0.3,0.4-0.9,0.7-1.5,0.5c-0.3-0.1-0.5-0.2-0.7-0.4c-0.2-0.2-0.3-0.5-0.4-0.7c0-0.3,0-0.6,0.1-0.8
	c0.1-0.3,0.3-0.5,0.5-0.6c0.2-0.2,0.5-0.2,0.8-0.2c0.4,0,0.8,0.2,1,0.5C185.9,174.7,186.1,175,186,175.4z M190.4,175.4
	c0,0.3-0.1,0.5-0.3,0.8s-0.4,0.4-0.7,0.5s-0.5,0.1-0.8,0c-0.3-0.1-0.5-0.2-0.7-0.4c-0.2-0.2-0.3-0.5-0.4-0.7c0-0.3,0-0.6,0.1-0.8
	c0.1-0.3,0.3-0.5,0.5-0.6c0.2-0.1,0.5-0.2,0.8-0.2c0.4,0,0.7,0.2,1,0.5C190.3,174.7,190.4,175.1,190.4,175.4L190.4,175.4z"/>
<path class="st9" d="M157.7,165.4c0,0.3-0.1,0.5-0.3,0.8c-0.2,0.2-0.4,0.4-0.7,0.5c-0.3,0.1-0.5,0.1-0.8,0c-0.3-0.1-0.5-0.2-0.7-0.4
	c-0.2-0.2-0.3-0.5-0.4-0.7c0-0.3,0-0.6,0.1-0.8c0.1-0.3,0.3-0.5,0.5-0.6c0.2-0.1,0.5-0.2,0.8-0.2c0.4,0,0.7,0.2,1,0.5
	C157.6,164.6,157.7,165,157.7,165.4z M162.1,165.4c0,0.2,0,0.4-0.1,0.6c-0.1,0.4-0.4,0.7-0.8,0.8c-0.2,0.1-0.4,0.1-0.6,0.1
	c-0.2,0-0.4,0-0.6-0.1c-0.4-0.2-0.6-0.5-0.8-0.8c-0.1-0.2-0.1-0.4-0.1-0.6c0-0.2,0-0.4,0.1-0.6c0.1-0.4,0.4-0.7,0.8-0.8
	c0.2-0.1,0.4-0.1,0.6-0.1c0.6,0,1.1,0.4,1.3,0.9C162.1,165,162.1,165.2,162.1,165.4L162.1,165.4z M166.5,165.4c0,0.6-0.4,1.1-1,1.2
	c-0.3,0.1-0.5,0.1-0.8,0c-0.3-0.1-0.5-0.2-0.7-0.4s-0.3-0.5-0.4-0.7s0-0.6,0.1-0.8c0.2-0.5,0.8-0.8,1.3-0.8c0.4,0,0.7,0.2,1,0.5
	C166.4,164.7,166.5,165.1,166.5,165.4L166.5,165.4z M170.9,165.5c0,0.3-0.1,0.5-0.3,0.8c-0.2,0.2-0.4,0.4-0.7,0.5s-0.5,0.1-0.8,0
	c-0.3-0.1-0.5-0.2-0.7-0.4c-0.5-0.6-0.5-1.5,0.1-2c0.3-0.2,0.6-0.4,1-0.4c0.4,0,0.7,0.2,1,0.5C170.7,164.7,170.9,165.1,170.9,165.5z
	 M175.2,165.5c0,0.3-0.1,0.5-0.3,0.8c-0.2,0.2-0.4,0.4-0.7,0.5s-0.5,0.1-0.8,0c-0.3-0.1-0.5-0.2-0.7-0.4c-0.2-0.2-0.3-0.5-0.4-0.7
	c0-0.3,0-0.6,0.1-0.8c0.1-0.3,0.3-0.5,0.5-0.6c0.2-0.1,0.5-0.2,0.8-0.2c0.4,0,0.7,0.2,1,0.5C175.1,164.7,175.3,165.1,175.2,165.5z
	 M179.6,165.5c0,0.3-0.1,0.5-0.3,0.8c-0.3,0.4-0.9,0.7-1.5,0.5c-0.3-0.1-0.5-0.2-0.7-0.4c-0.5-0.6-0.5-1.5,0.1-2
	c0.1-0.1,0.1-0.1,0.2-0.1c0.2-0.2,0.5-0.2,0.8-0.2c0.4,0,0.8,0.2,1,0.5C179.5,164.7,179.6,165.1,179.6,165.5L179.6,165.5z
	 M184,165.5c0,0.4-0.1,0.8-0.4,1.1c-0.1,0.1-0.3,0.3-0.5,0.3c-0.2,0.1-0.4,0.1-0.6,0.1c-0.2,0-0.4,0-0.6-0.1
	c-0.2-0.1-0.3-0.2-0.5-0.3c-0.1-0.1-0.2-0.3-0.3-0.5c-0.1-0.2-0.1-0.4-0.1-0.6c0-0.2,0-0.4,0.1-0.6s0.2-0.4,0.3-0.5
	c0.1-0.1,0.3-0.3,0.5-0.3c0.2-0.1,0.4-0.1,0.6-0.1c0.2,0,0.4,0,0.6,0.1c0.2,0.1,0.3,0.2,0.5,0.3s0.2,0.3,0.3,0.5
	C184,165.1,184,165.3,184,165.5L184,165.5z M188.4,165.5c0,0.3-0.1,0.5-0.3,0.8c-0.5,0.6-1.4,0.7-2,0.3c-0.1,0-0.1-0.1-0.2-0.2
	c-0.2-0.2-0.3-0.5-0.4-0.7c0-0.3,0-0.6,0.1-0.8c0.1-0.3,0.3-0.5,0.5-0.6c0.2-0.2,0.5-0.2,0.8-0.2
	C187.8,164.1,188.4,164.7,188.4,165.5L188.4,165.5z M192.8,165.6c0,0.3-0.1,0.5-0.3,0.8c-0.3,0.5-0.9,0.7-1.5,0.5
	c-0.3-0.1-0.5-0.2-0.7-0.4c-0.2-0.2-0.3-0.5-0.4-0.7c0-0.3,0-0.6,0.1-0.8c0.1-0.3,0.3-0.5,0.5-0.6c0.2-0.1,0.5-0.2,0.8-0.2
	c0.4,0,0.7,0.2,1,0.5C192.7,164.8,192.8,165.2,192.8,165.6z"/>
<g>
	<path id="C" class="st6" d="M186.6,66.2c0.5-0.2,0.9-0.6,1.2-1s0.4-1,0.4-1.5c0-0.3,0-0.7-0.2-1c-0.1-0.3-0.3-0.6-0.5-0.9
		c-0.2-0.2-0.5-0.4-0.8-0.6c-0.3-0.1-0.6-0.2-1-0.2c-0.7,0-1.3,0.3-1.8,0.8c-0.2,0.2-0.4,0.5-0.5,0.9c-0.1,0.3-0.2,0.7-0.2,1
		c0,0.5,0.1,1,0.4,1.5c0.3,0.4,0.7,0.8,1.2,1c-3.9,0.6-3.7,4.8-3.7,4.8l9.1,0C190.2,71,190.4,66.8,186.6,66.2L186.6,66.2z"/>
</g>
<g>
	<path d="M186.6,66.2c0.5-0.2,0.9-0.6,1.2-1s0.4-1,0.4-1.5c0-0.3,0-0.7-0.2-1c-0.1-0.3-0.3-0.6-0.5-0.9c-0.2-0.2-0.5-0.4-0.8-0.6
		c-0.3-0.1-0.6-0.2-1-0.2c-0.7,0-1.3,0.3-1.8,0.8c-0.2,0.2-0.4,0.5-0.5,0.9c-0.1,0.3-0.2,0.7-0.2,1c0,0.5,0.1,1,0.4,1.5
		c0.3,0.4,0.7,0.8,1.2,1c-3.9,0.6-3.7,4.8-3.7,4.8l9.1,0C190.2,71,190.4,66.8,186.6,66.2L186.6,66.2z"/>
</g>
<path class="st6" d="M201.4,73.7l-32.5-0.1l0,3.9l32.5,0.1L201.4,73.7z"/>
<path class="st9" d="M201.4,73.7l-32.5-0.1l0,3.9l32.5,0.1L201.4,73.7z"/>
<path class="st6" d="M88.9,286.4v-5.9l-10.6-0.1l-0.1,8.9l0.7,0c2.9,0.2,14.8,0.5,16.8-0.1C97.9,288.5,88.9,286.4,88.9,286.4
	L88.9,286.4z"/>
<g>
	<path class="st5" d="M96,288.6c0,0.1-3.9,0.2-8.8,0.2s-8.8-0.1-8.8-0.2s3.9-0.2,8.8-0.2L96,288.6z M89.1,287.6
		c-0.1,0,0-0.4,0.2-0.7s0.5-0.5,0.6-0.4s-0.1,0.3-0.3,0.6S89.2,287.6,89.1,287.6L89.1,287.6z"/>
	<path class="st5" d="M89.8,288c-0.1,0,0-0.4,0.2-0.8s0.5-0.6,0.6-0.5s0,0.4-0.2,0.7S89.9,288,89.8,288L89.8,288z M81.5,288.6
		c0,0-0.2-0.1-0.4-0.4c-0.3-0.3-0.6-0.6-0.9-0.9c-0.3-0.3-0.7-0.4-1.1-0.5c-0.3,0-0.5,0-0.6,0s0.2-0.2,0.6-0.2c0.5,0,1,0.2,1.4,0.5
		c0.4,0.3,0.7,0.7,0.9,1.1C81.5,288.4,81.6,288.6,81.5,288.6L81.5,288.6z M89.2,286.5c0,0.1-0.1,0.3-0.4,0.4s-0.6,0.1-0.6,0
		s0.2-0.2,0.5-0.3S89.1,286.4,89.2,286.5L89.2,286.5z M89,285.9c0,0.1-0.3,0.2-0.6,0.2s-0.6-0.1-0.6-0.2s0.3-0.2,0.6-0.2
		S89,285.8,89,285.9z"/>
</g>
<path class="st6" d="M114.9,286.4v-5.9l-10.6-0.1l-0.1,8.8l0.7,0c2.9,0.2,14.8,0.6,16.8-0.1C123.9,288.5,114.9,286.4,114.9,286.4
	L114.9,286.4z"/>
<g>
	<path class="st5" d="M121.9,288.7c0,0.1-3.9,0.2-8.8,0.2s-8.8-0.1-8.8-0.2s3.9-0.2,8.8-0.2L121.9,288.7z M115.1,287.6
		c-0.1,0,0-0.4,0.2-0.7s0.5-0.5,0.6-0.4s-0.1,0.3-0.3,0.6S115.2,287.6,115.1,287.6L115.1,287.6z"/>
	<path class="st5" d="M115.8,288c-0.1,0,0-0.4,0.2-0.8s0.5-0.6,0.6-0.5s-0.1,0.4-0.2,0.7S115.9,288,115.8,288z M107.5,288.6
		c0,0-0.2-0.1-0.4-0.4c-0.3-0.3-0.6-0.6-0.9-0.9c-0.3-0.3-0.7-0.4-1.1-0.5c-0.3,0-0.5,0-0.6,0s0.2-0.2,0.6-0.2c0.5,0,1,0.2,1.4,0.5
		c0.4,0.3,0.7,0.7,0.9,1.1C107.5,288.4,107.5,288.6,107.5,288.6L107.5,288.6z M115.1,286.5c0,0.1-0.1,0.3-0.4,0.4s-0.6,0.1-0.6,0
		s0.2-0.2,0.5-0.3S115.1,286.4,115.1,286.5z M115,285.9c0,0.1-0.3,0.2-0.6,0.2s-0.6-0.1-0.6-0.2s0.3-0.2,0.6-0.2
		S115,285.8,115,285.9z"/>
</g>
<path class="st10" d="M153.8,111.6c-0.3-0.3-1-0.1-1-0.1c0.1-0.4,0.1-0.8,0-1.2c-0.1-0.4-1-0.3-1-0.3c0-0.3,0-0.7,0-1
	c0-0.1,0-0.1,0-0.2s-0.1-0.1-0.2-0.1c-0.4-0.2-0.9-0.2-1.3-0.2c-0.5-0.4,1.6-3.4,2.4-4.4s0.7-1.7-0.1-1.7c-0.5,0-3,2.9-3.8,3.9
	s-2.8,3.7-2.9,1.5s-0.9-3.8-1.5-4.1s-1.1,0.4-0.8,1c0.3,0.7,0.4,1.4,0.5,2.1c0.1,0.6,0,1.2-0.1,1.7c-0.2,1.1-0.5,2.1-0.9,3.1h-0.1
	L127.1,127c-1,0.9-20.5-1.1-24.4-1.5c-1.3-0.2-2.7-0.3-4-0.3c-1.7,0.1-2,0.3-3.7,0.3c-4.3,0-8.5,0.4-12.8,1.1
	c-1.9,0.3-3.7,1.2-5.2,2.4c-1.5,1.3-2.6,2.9-3.1,4.8C70,146.2,61,175.4,59.4,191.7c-1.2,2.2-2.3,4.4-3.2,6.7c-1.1,3-0.8,3.1-0.5,3.2
	c1,0.2,2.1-5.2,2.6-3.9s-2.2,6.4-1.1,6.6c1.4,0.2,2.5-5.5,2.6-6s0.8-0.3,0.7,0.1c-0.2,0.6-2.1,7-0.8,7.2c0.7,0.1,0.8-1.2,0.8-1.2
	s1.4-6.1,2-6s0,3.8-0.4,5s0.1,1.8,0.8,1.5c0.4-0.2,1.5-3.9,1.8-5.1s1-4.5,2-2.6s2.4,3,3,3.1c0.1,0,0.3-0.1,0.4-0.2
	c0.2-0.2,0.3-0.5,0.2-0.7c0-0.1-0.1-0.2-0.2-0.3c-0.5-0.5-1-1.1-1.3-1.7c-0.3-0.5-0.6-1-0.7-1.6c-0.3-1.1-0.4-2.3-0.5-3.5l-0.1-0.7
	c1.5-7.6,6-30,12.4-44.4l2.6,5.4l1.1,4l-7,17.3l29.9-0.4l-4.5-17.2l5.4-17.9c5.9,0.1,20.9,0.4,23.4-0.8c3.2-1.4,19.5-22,19.5-22
	c1.1-0.8,2.1-1.7,3-2.6C153.4,113,154.4,112.2,153.8,111.6L153.8,111.6z"/>
<path class="st6" d="M75.3,161.1l5.3-17.6c0,0,2.2,11.9,1.6,13.4c-0.5,1.2-1.2,2.4-1.9,3.6C75.3,168.1,76,172,76,172l30.5-0.9
	c0.1-4.3-2.5-14.2-3-15.8s1.2-6.8,1.2-6.8s3.4-3.5,3.3-5.3c-0.1-1.6-0.3-3.2-0.6-4.8l18.6,0.7l-0.6-12.6l-26.7-2.7
	c-0.9,2.6-9.3,1.3-9.3,1.3c-9.1,0.3-9.6,2-13.4,4.9c-3.8,2.9-10,28.1-10,28.1L75.3,161.1L75.3,161.1z"/>
<path class="st5" d="M93.4,158.1c-0.5,0.1-1.1,0.1-1.6,0.1c-1,0-2.4-0.1-3.9-0.2l-3.8-0.6c-0.5-0.1-1.1-0.2-1.6-0.4
	c0.5,0,1.1,0.1,1.6,0.2l3.8,0.4l3.8,0.3C92.3,158,92.9,158,93.4,158.1z M95.5,155.5c-0.5,0.3-1.1,0.5-1.7,0.6
	c-2.7,0.7-5.6,1.1-8.4,1c-0.6,0-1.2,0-1.7-0.2c0.6-0.1,1.2-0.1,1.7-0.1l4.2-0.3l4.1-0.7C94.3,155.7,94.9,155.6,95.5,155.5
	L95.5,155.5z M105.7,143.9c0,0.5-0.1,1-0.2,1.6l-0.8,3.7l-1,3.6c-0.1,0.5-0.3,1-0.5,1.5c0-0.5,0.1-1,0.3-1.5l0.9-3.7l0.9-3.7
	C105.4,144.9,105.5,144.4,105.7,143.9L105.7,143.9z M75.7,159.4c-1.6-0.2-3.2-0.6-4.7-1.1c-1.6-0.4-3.1-0.9-4.6-1.4
	c1.6,0.2,3.2,0.6,4.7,1.1C72.6,158.3,74.2,158.8,75.7,159.4L75.7,159.4z M107.8,138.2c-0.3,0-0.5,0-0.8,0c-0.7-0.1-1.4-0.2-2.1-0.5
	c-1.1-0.4-2.2-1.1-3-1.9s-1.5-1.9-2-3c-0.5-1.2-0.7-2.6-0.6-3.9c0-1.1,0.4-2.2,0.9-3.1c0.4-0.6,1-1.1,1.7-1.3
	c0.2-0.1,0.4-0.1,0.6-0.1h0.2c0,0-0.3,0-0.8,0.2c-0.7,0.2-1.2,0.7-1.6,1.3c-0.9,1.5-1.2,4.2-0.2,6.7c0.5,1.2,1.2,2.2,2.1,3.1
	c0.8,0.7,1.6,1.3,2.6,1.7C105.9,137.8,106.9,138.1,107.8,138.2L107.8,138.2z M123.9,138.8c-0.2-2.1-0.2-4.2-0.2-6.3
	c-0.1-2.1,0-4.2,0.2-6.3c0.2,2.1,0.2,4.2,0.2,6.3C124.1,134.6,124,136.7,123.9,138.8z"/>
<path class="st10" d="M98.6,124.6l0.2-3.3c0,0,3.8-0.4,4-4.3s0-13,0-13l-6.9-3.5l-7.6,6l1.2,19.6l7,0.4c0.5,0,1.1-0.2,1.4-0.6
	C98.4,125.6,98.6,125.1,98.6,124.6L98.6,124.6z"/>
<path class="st11" d="M99.3,113.8c0,0,0,0.1-0.1,0.2c-0.1,0.1-0.1,0.1-0.2,0.2c-0.1,0-0.2,0-0.2,0c-0.4,0-0.9-0.5-1-1.1
	c-0.1-0.3-0.1-0.6,0-0.9c0-0.1,0.1-0.2,0.1-0.3s0.2-0.2,0.3-0.2c0.1,0,0.2,0,0.3,0c0.1,0,0.1,0.1,0.2,0.2c0,0.1,0,0.2,0,0.2
	s0-0.1-0.1-0.1c0,0-0.1-0.1-0.1-0.1s-0.1,0-0.2,0c-0.1,0.1-0.2,0.1-0.2,0.2c0,0.1-0.1,0.2-0.1,0.3c-0.1,0.3-0.1,0.5,0,0.8
	c0.1,0.5,0.5,1,0.8,1c0.1,0,0.1,0,0.2,0c0.1,0,0.1,0,0.2-0.1C99.2,113.9,99.3,113.8,99.3,113.8L99.3,113.8z"/>
<path class="st5" d="M105.2,101.8c-0.5-1.8-2.4-2.7-4.2-3.2c-2.7-0.8-5.5-1.1-8.1-0.1s-5.7,2.6-5.7,5.5c-1.5-0.1-2.4,1.2-3,2.9
	c-0.4,1-0.6,2.1-0.7,3.2c-0.2,3.8-1.2,8.9-3.7,11.7c-1.4,1.5-3.3,2.6-4.1,4.5c-0.7,1.7-0.3,3.6-1,5.3c-0.6,1.5-1.8,2.5-2.8,3.8
	c-0.9,1.5-1.5,3.1-1.6,4.9c-0.1,1.7,0.2,3.5,1,5c0.7,1.5,1.8,2.9,3.1,4c1.3,1.1,2.8,2,4.4,2.5c3.2,1,6.6,1,9.9,0.1
	c2.4-0.6,4.7-1.7,6.6-3.3c2-1.6,3.3-3.9,3.8-6.4c0.5-2.8-0.3-5.7-0.9-8.5c-1.8-8.8-1.3-9.3,1-17.5c0.1-0.1,0.1-0.3,0.1-0.4l0.1-0.3
	c0.1-0.3,0.1-0.7,0.1-1c-0.3,0.1-0.7,0.2-1.1,0.1s-0.7-0.2-0.9-0.5c-0.5-0.6-0.7-1.3-0.5-2.1c0.2-0.4,0.4-0.7,0.7-1
	c0.3-0.3,0.7-0.5,1.1-0.6c0.8-0.3,1.6-0.5,2.3-0.8c1.6-0.8,2.7-2.3,3.4-4C105.3,104.4,105.5,103.1,105.2,101.8L105.2,101.8z"/>
<path class="st6" d="M99.6,114c0.1,0.2,0.3,0.4,0.4,0.7l0.8,1.8l0.1,0.1h-0.1l-0.7,0.1c-0.5,0-0.9,0.1-1.3,0.1c0,0-0.1,0-0.1-0.1
	c0,0-0.1-0.1-0.1-0.1c0-0.1,0-0.1,0-0.2c0-0.1,0-0.2,0.1-0.3l0.1-0.5c0.1-0.3,0.2-0.6,0.3-0.9c0,0.3-0.1,0.7-0.1,1l-0.1,0.5
	c0,0.2-0.1,0.4,0,0.4c0.3,0,0.8-0.1,1.3-0.1l0.7-0.1l-0.1,0.2l-0.7-1.8C99.7,114.5,99.6,114.3,99.6,114z"/>
<path class="st5" d="M76,172l30.5-0.9l13.3,51.9l-2.4,59.5h-16.1l2-58.2l-11.8-36.1l1.8,96.6l-16.3,0.2l-1.7-90.8
	c-0.1-2.5-0.9-8.2-0.6-10.7C74.6,183.4,76,172,76,172z"/>
<g>
	<path class="st7" d="M95.5,188.8c-0.5,0-1,0-1.5-0.1l-3.6-0.6l-3.5-0.8c-0.5-0.1-0.9-0.3-1.4-0.5c0-0.1,2.2,0.4,5,1
		C90.5,187.8,95.5,188.8,95.5,188.8z M117.2,279.1c0,0.1-3.7,0.2-8.2,0.2s-8.2-0.1-8.2-0.2s3.7-0.2,8.2-0.2L117.2,279.1z
		 M93.1,282.2c0,0.1-3.6,0.2-7.9,0.2s-7.9-0.1-7.9-0.2s3.6-0.2,7.9-0.2L93.1,282.2z"/>
	<path class="st7" d="M91,281.9c-0.1,0-0.5-21.1-1-47.2l-0.6-47.2c0.1,0,0.5,21.1,1,47.2L91,281.9L91,281.9z M115,279.1
		c0-0.1,0-0.2,0-0.3V278l0.1-3.2l0.4-11.7l1.5-38.4v-0.4v0l-9.3-37.1l-2.8-11.2l-0.7-3.1l-0.2-0.8c0-0.1,0-0.2,0-0.3
		c0,0.1,0.1,0.2,0.1,0.3l0.2,0.8l0.8,3l2.9,11.2l9.4,37.1v0v0.4l-1.6,38.4l-0.5,11.6l-0.2,3.2c0,0.4,0,0.6,0,0.8
		C115.1,278.9,115.1,279,115,279.1L115,279.1z M109.8,223.1c-1.2,0.4-2.4,0.6-3.6,0.8l-3.3,0.5v-0.1c0.2,0.1,0.3,0.1,0.3,0.1
		s-0.1,0-0.3,0h-0.4l0.4-0.1c0.5-0.2,1.8-0.4,3.3-0.7C107.3,223.3,108.5,223.2,109.8,223.1L109.8,223.1z M109.5,225.1
		c-1.1,0-2.1,0-3.2-0.1c-1.1,0-2.1-0.1-3.2-0.4C105.2,224.4,107.4,224.6,109.5,225.1z"/>
</g>
<g>
	<path class="st12" d="M75.9,173.1c0.4,0.5,0.8,0.8,1.3,1.1c0.5,0.3,1.1,0.4,1.7,0.5c1.2,0.1,2.5,0.1,3.7-0.1
		c7.9-0.9,16.2-1.7,23.9-3.6c-10,0.6-20.5,0.4-30.5,0.9l-0.1,0.9"/>
	<path class="st13" d="M86.2,187.1l5.6,21.9l-0.4-20.9L86.2,187.1L86.2,187.1z"/>
</g>
</svg>
