<svg xmlns="http://www.w3.org/2000/svg" xmlns:xlink="http://www.w3.org/1999/xlink" width="344" height="404" fill="none" xmlns:v="https://vecta.io/nano"><style><![CDATA[.B{fill:#fff}.C{fill:#fd5631}.D{fill:#1f1b2d}.E{fill:#d1734a}.F{fill:#eb996e}]]></style><path opacity=".12" d="M237.912 86.228L29.443 108.152 57.417 373.58l208.469-21.925-27.974-265.427z" class="B"/><path opacity=".2" d="M245.861 91.908L39.472 122.831l36.447 242.743 206.389-30.923-36.447-242.743z" fill="#f5f4f8"/><g class="B"><path opacity=".2" d="M327.041 113.828s-8.198-5.397-18.129 14.113-13.731 30.75-13.731 30.75-2.632 4.046-5.443 1.416-6.667-10.261-11.446-8.901c-4.958 1.416-6.594 6.943-5.671 15.067s2.365 25.992 2.487 27.611-.81 3.924-2.997 2.427-14.914-15.642-21.265-9.217 0 28.614.657 31.058.17 3.48-.997 4.046-4.982-4.548-8.757-8.416-8.837-7.695-12.191-3.69-4.423 20.668 11.438 47.744l8.182 12.081 14.581-.809c31.171-3.633 43.841-14.517 45.023-19.615s-4.917-6.814-10.287-7.502-11.787-.623-12.006-1.909.333-2.298 2.674-3.237 23.905-9.249 25.209-18.183-17.635-10.52-20.179-11.402-1.215-2.978.122-3.844 16.501-10.519 23.564-14.646 10.491-8.764 8.644-13.571c-1.79-4.637-10.175-3.14-14.006-3.771s-2.147-5.195-2.147-5.195 6.732-9.791 16.331-29.488.122-23.006.122-23.006"/><path opacity=".7" d="M318.099 131.289l-.186.42-.567 1.222-2.236 4.718-8.36 17.131-28.199 56.159-28.352 56.151-8.489 17.067-2.252 4.637-.616 1.205-.219.397s.057-.146.179-.421l.575-1.222 2.235-4.669 8.352-17.131 28.207-56.216 28.352-56.143 8.481-17.066 2.317-4.637.608-1.198.17-.404z"/><path opacity=".7" d="M283.253 162.081a4.36 4.36 0 0 1 .373.987l.81 2.743 2.341 9.152 2.147 9.201.664 2.784a5.38 5.38 0 0 1 .211 1.027c-.164-.313-.292-.644-.381-.987l-.81-2.743-2.276-9.177-2.212-9.176-.68-2.776a5.78 5.78 0 0 1-.187-1.035zm7.889 26.154c0-.121 6.569-2.12 14.751-4.475s14.849-4.151 14.881-4.046-6.57 2.129-14.751 4.475l-14.881 4.046zm-18.577 32.867c.357-.056.718-.072 1.078-.048h2.924l9.64-.146 9.624-.574 2.916-.227a4.41 4.41 0 0 1 1.077 0c-.344.1-.696.167-1.053.202l-2.908.373-9.64.712h-9.664l-2.924-.154c-.361-.008-.719-.054-1.07-.138zm-12.34-22.087a4.28 4.28 0 0 1 .567.809l1.41 2.307c1.174 1.958 2.13 5.316 4.504 7.687l4.39 7.76 1.288 2.371c.177.283.316.588.414.907a4.33 4.33 0 0 1-.568-.809l-1.409-2.307-4.504-7.687-4.391-7.752-1.288-2.339c-.179-.296-.318-.614-.413-.947zm-20.085 26.937a6.64 6.64 0 0 1 .721 1.052l1.814 2.945 5.857 9.816 5.735 9.872 1.693 3.027c.222.36.412.739.567 1.133-.272-.325-.513-.675-.721-1.044l-1.814-2.954-5.849-9.808-5.743-9.88-1.693-3.018c-.222-.364-.412-.745-.567-1.141zm16.182 27.067c.451-.067.906-.1 1.361-.097l3.71-.113 12.216-.583c4.763-.307 9.081-.696 12.2-1.003l3.694-.356c.45-.067.905-.094 1.36-.081a9.92 9.92 0 0 1-1.336.251 102.57 102.57 0 0 1-3.686.501c-3.111.389-7.42.81-12.2 1.133a209.04 209.04 0 0 1-12.248.454h-3.71c-.456.009-.912-.027-1.361-.106z"/></g><path d="M14.193 246.958c1.443-.732 3.019-1.166 4.634-1.274a12.04 12.04 0 0 1 4.763.642c3.061 1.082 5.832 2.851 8.101 5.171 4.488 4.338 7.291 10.949 8.911 16.994-6.805 1.359-13.844-2.541-17.287-4.742-5.452-3.48-13.188-13.069-9.113-16.775m38.22 22.922a10.24 10.24 0 0 1-3.986-3.52c-.996-1.503-1.577-3.242-1.684-5.041a13.6 13.6 0 0 1 .826-5.301 13.61 13.61 0 0 1 2.811-4.571c1.118-1.238 2.6-2.371 4.261-2.29a4.42 4.42 0 0 1 2.146.844 4.41 4.41 0 0 1 1.427 1.81 8.83 8.83 0 0 1 .559 4.588c-.51 5.317-1.977 10.366-6.318 13.481" class="C"/><g class="B"><path d="M63.413 286.806a6.53 6.53 0 0 1-.891-.923l-2.349-2.598c-1.928-2.217-4.747-5.316-6.562-9.524a22.07 22.07 0 0 1-1.831-11.377 14.54 14.54 0 0 1 .81-3.415 9.2 9.2 0 0 1 .381-.882c.089-.195.146-.3.162-.292-.509 1.504-.864 3.054-1.061 4.629-.304 3.831.371 7.676 1.96 11.175 1.766 4.127 4.512 7.235 6.383 9.5l2.236 2.695c.285.312.54.651.761 1.012z"/><path d="M20.742 253.74c.171.082.333.179.486.291l1.32.898 4.812 3.399c4.05 2.905 9.567 6.992 15.561 11.645s11.341 8.99 15.156 12.178l4.488 3.812 1.199 1.06c.276.25.413.38.397.396a2.94 2.94 0 0 1-.454-.324l-1.256-.995-4.577-3.698-15.262-12.041-15.472-11.742-4.723-3.512-1.28-.971a2.41 2.41 0 0 1-.397-.396z"/></g><path d="M49.904 279.365a24.05 24.05 0 0 0-10.927-2.816c-3.814-.059-7.588.79-11.009 2.476-1.725.874-3.548 2.347-3.394 4.273s2.203 3.099 4.05 3.649c3.907 1.069 8.043.957 11.887-.32a20.51 20.51 0 0 0 9.71-6.857" class="C"/><path d="M33.153 281.947a5.71 5.71 0 0 1 1.061-.582c.419-.224.852-.421 1.296-.591.576-.249 1.166-.465 1.766-.647.72-.246 1.453-.451 2.195-.615a25.14 25.14 0 0 1 2.584-.462c1.997-.223 4.013-.223 6.011 0 1.995.248 3.955.726 5.841 1.425.83.308 1.641.665 2.43 1.068a22.09 22.09 0 0 1 1.993 1.133c.608.348 1.086.76 1.539 1.076a11.38 11.38 0 0 1 1.102.898 6.4 6.4 0 0 1 .875.809c-.073.081-1.328-1.108-3.686-2.541-.642-.39-1.305-.747-1.985-1.068a23.38 23.38 0 0 0-2.382-1.019 26.73 26.73 0 0 0-5.743-1.36 27.83 27.83 0 0 0-5.913 0c-.857.097-1.709.237-2.552.421-.81.138-1.523.364-2.187.542-2.673.793-4.204 1.602-4.245 1.513z" class="B"/><path opacity=".9" d="M260.192 311.103c-5.67-3.641-7.712-8.31-8.603-14.986a23.61 23.61 0 0 1 .885-9.973c1.005-3.224 2.689-6.194 4.939-8.712 3.775-4.16 9.073-7 11.819-11.904 2.917-5.227 2.544-12.138 6.708-16.467 2.867-2.954 7.185-3.876 10.717-5.98 2.892-1.716 5.225-4.2 7.841-6.296s5.76-3.876 9.113-3.755c5.063.186 9.187 4.985 9.616 10.026s-2.195 9.978-5.93 13.401c-2.705 2.476-6.083 4.426-7.793 7.679-3.24 6.094.705 14.251-2.77 20.231-2.535 4.345-8.579 6.611-9.235 11.604-.243 1.837.349 3.674.405 5.527.179 5.786-5.055 10.649-10.717 11.895s-11.543-.315-17.011-2.266" fill="#9691a4"/><g class="B"><path opacity=".7" d="M293.463 253.776c-.164.245-.351.473-.559.68l-1.71 1.837-2.673 2.937-3.41 3.998-3.888 5.041-2.058 2.889-2.066 3.14a111.55 111.55 0 0 0-7.841 14.752c-2.18 5.132-3.954 10.427-5.306 15.836-.575 2.509-1.134 4.855-1.458 7.154l-.867 6.295c-.219 1.934-.292 3.69-.421 5.236s-.138 2.873-.154 3.965l-.057 2.509a4.07 4.07 0 0 1-.073.874c-.054-.288-.076-.582-.065-.874 0-.648-.04-1.481-.072-2.517a57.94 57.94 0 0 1 0-3.973c.056-1.546.081-3.326.315-5.268s.381-4.046.811-6.344.81-4.678 1.401-7.202c1.335-5.457 3.109-10.796 5.306-15.966 2.257-5.141 4.914-10.098 7.947-14.825l2.098-3.14c.68-1.019 1.425-1.95 2.098-2.881 1.344-1.869 2.73-3.503 3.977-5.009s2.43-2.791 3.492-3.949 1.984-2.103 2.77-2.864l1.806-1.748c.199-.216.419-.411.657-.583z"/><path d="M265.249 106.213H56.552v245.459h208.698V106.213z"/><path d="M265.256 351.671l-.195-245.458.195.186H56.575l.211-.211v245.459l-.178-.178 208.706.178-208.706.178h-.227v-.178-245.459-.21h.235 208.681.187v.194l-.227 245.499z"/></g><g class="D"><path d="M157.504 219.617v-.453-1.311-5.065l-.081-18.879.137.129-81.889.081.211-.21v25.708l-.203-.202 58.527.089 17.141.057h4.609 1.199.413-.389-1.239-4.561l-17.092.064-58.673.089h-.211v-26.016h.211l81.89.073h.137v.138l-.073 18.959v5.034 1.286c0 .3-.064.429-.064.429zm90.646 34.82v-1.691-4.944l-.057-19.074.106.106-172.545.105.211-.211v25.709l-.211-.202 122.758.089 36.453.056h9.858 2.56.883-.85-2.536-9.81l-36.453.065-122.903.089h-.211v-26.016h.219l172.544.105h.105v.105l-.064 19.138v4.92l-.057 1.651z"/><path d="M248.15 289.022v-1.691-4.945l-.057-19.073.106.097-172.545.114.211-.211v25.709l-.211-.21 122.758.089 36.453.064h9.858 2.56.883-.85-2.536-9.81l-36.453.057-122.903.097h-.211v-26.04h.219l172.544.113h.105v.105l-.064 19.13v4.92l-.057 1.675zm-.002-69.406v-.453-1.311-5.066l-.073-18.879.138.13-81.89.081.211-.211v25.709l-.211-.202 58.536.089 17.141.056h4.609 1.199.413-.389-1.247-4.561l-17.092.065-58.682.089h-.202v-.202-25.709-.21h.219l81.889.073h.138v.137l-.081 18.96v5.033 1.287c0 .299-.065.534-.065.534z"/></g><g class="C"><path d="M92.764 210.483a4.82 4.82 0 0 1-.624.041l-1.847.056-6.724.146h-.259l.081-.243a4.91 4.91 0 0 1 1.296-2.169 4.66 4.66 0 0 1 2.479-1.149l-.049.397a3.11 3.11 0 0 1-1.293-1.053c-.327-.462-.521-1.005-.562-1.569a3.17 3.17 0 0 1 .391-1.826 3.18 3.18 0 0 1 1.351-1.29 2.77 2.77 0 0 1 1.738-.187c.584.127 1.112.44 1.503.892a3.23 3.23 0 0 1 .712 1.391c.12.515.112 1.051-.023 1.562a2.99 2.99 0 0 1-.62 1.207 2.98 2.98 0 0 1-1.09.808v-.283c.722.106 1.408.384 2.001.809a4.25 4.25 0 0 1 1.086 1.198 3.23 3.23 0 0 1 .494 1.278l-.154-.315a6.3 6.3 0 0 0-.478-.874 4.11 4.11 0 0 0-1.299-1.231 4.12 4.12 0 0 0-1.699-.566l-.543-.064.51-.219a2.68 2.68 0 0 0 1.482-1.829 2.87 2.87 0 0 0-.632-2.605c-.343-.378-.795-.638-1.294-.744s-1.018-.052-1.485.153a2.75 2.75 0 0 0-1.49 2.703 2.69 2.69 0 0 0 .49 1.367 2.7 2.7 0 0 0 1.13.915l.689.275-.737.121c-.844.111-1.635.475-2.268 1.044-.572.544-.994 1.227-1.223 1.983l-.178-.235 6.594.057h1.896c.217.001.433.018.648.048zm96-.004a4.36 4.36 0 0 1-.615.041l-1.855.057-6.724.145h-.251l.073-.243a4.9 4.9 0 0 1 1.296-2.168c.69-.629 1.554-1.035 2.479-1.166l-.049.397c-.518-.227-.964-.592-1.289-1.054a3.09 3.09 0 0 1-.558-1.568 3.14 3.14 0 0 1 .383-1.826c.309-.557.78-1.006 1.351-1.289a2.77 2.77 0 0 1 3.24.704c.346.399.589.877.708 1.392a3.22 3.22 0 0 1-.028 1.561 2.99 2.99 0 0 1-.619 1.207 2.98 2.98 0 0 1-1.09.808v-.283c.722.106 1.408.384 2.001.809.437.324.806.731 1.086 1.198.254.386.422.822.494 1.278l-.154-.315a4.97 4.97 0 0 0-.478-.874 4.11 4.11 0 0 0-2.989-1.797l-.543-.064.502-.219a2.72 2.72 0 0 0 .954-.744c.258-.317.442-.688.537-1.085a2.88 2.88 0 0 0 .002-1.381 2.89 2.89 0 0 0-.642-1.224 2.38 2.38 0 0 0-2.771-.591 2.74 2.74 0 0 0-1.498 2.703c.035.492.204.965.49 1.367a2.7 2.7 0 0 0 1.13.915l.688.275-.737.121c-.844.111-1.635.475-2.268 1.044a4.55 4.55 0 0 0-1.215 1.983l-.178-.235 6.586.057h1.903c.217.006.434.028.648.064zm-97.547 63.46c-.039-.173-.063-.349-.073-.526a2.61 2.61 0 0 0-.292-1.23 2.06 2.06 0 0 0-1.491-1.019 2 2 0 0 0-1.097.164c-.343.158-.634.41-.839.726-.179.271-.285.583-.308.906v.987l-.194-.202a43.09 43.09 0 0 1 4.326.194 34.53 34.53 0 0 1-4.326.203h-.203v-.203-1.011a2.22 2.22 0 0 1 .365-1.101c.247-.384.601-.687 1.018-.873a2.34 2.34 0 0 1 1.331-.171 2.3 2.3 0 0 1 1.001.424 2.29 2.29 0 0 1 .692.839 2.34 2.34 0 0 1 .186 1.416c-.032.348-.097.502-.097.477zm-1.404 5.26a7.16 7.16 0 0 1-.389-.947v-.089l.089-.065a.67.67 0 0 0 .162-.873.62.62 0 0 0-.182-.224c-.077-.06-.168-.1-.264-.118a.63.63 0 0 0-.541.154.63.63 0 0 0-.161.24c-.034.092-.046.19-.035.287s.044.19.097.271.125.15.21.199l.13.073-.04.137-.243.963-.154-.194a9.96 9.96 0 0 1 1.345.154 4.33 4.33 0 0 1-1.345.161h-.194v-.21l.178-.979.089.21c-.129-.078-.239-.184-.322-.31a1.02 1.02 0 0 1-.121-.864c.045-.144.122-.277.224-.387a1 1 0 0 1 .907-.316 1.02 1.02 0 0 1 .423.171c.126.089.231.204.306.339a.97.97 0 0 1 .089.721c-.065.243-.222.452-.437.582l.065-.154a2.88 2.88 0 0 1 .113 1.068z"/><path d="M91.819 273.948a.93.93 0 0 1 .356 0 1.62 1.62 0 0 1 .757.491 1.63 1.63 0 0 1 .377.82v.874 2.12 1.23a6.82 6.82 0 0 1-.049 1.384 1.71 1.71 0 0 1-.38.692 1.73 1.73 0 0 1-.649.449c-.257.103-.534.147-.81.129h-.81-3.24-.859a1.76 1.76 0 0 1-1.345-.528 1.76 1.76 0 0 1-.393-.626 1.75 1.75 0 0 1-.101-.731v-3.642-.866a2.27 2.27 0 0 1 .113-.914 1.74 1.74 0 0 1 1.377-1.109l-.162.186v-1.132a2.86 2.86 0 0 1 .332-1.085 2.94 2.94 0 0 1 1.717-1.327c.543-.196 1.133-.224 1.693-.08s1.062.455 1.442.889a2.74 2.74 0 0 1 .705 2.015c-.007.255-.032.509-.073.761a3.98 3.98 0 0 1-.049-.753c-.004-.696-.273-1.364-.753-1.869a2.63 2.63 0 0 0-1.033-.668c-.393-.138-.812-.18-1.224-.124a2.62 2.62 0 0 0-1.963 1.367 2.56 2.56 0 0 0-.283.955v1.108.162h-.162a1.37 1.37 0 0 0-.648.29 1.36 1.36 0 0 0-.414.576 2.13 2.13 0 0 0-.081.809v.866 3.641a1.36 1.36 0 0 0 .689 1.303 1.49 1.49 0 0 0 .729.17h4.115c.482.046.968.018 1.442-.081.196-.076.371-.197.511-.353s.243-.343.299-.545c.059-.426.081-.857.065-1.287v-1.23-2.12-.858c-.021-.227-.096-.446-.219-.639a1.83 1.83 0 0 0-1.021-.72zm3.546-26.918l-.041-.623-.057-1.691-.154-6.005.17.17-12.345.162.178-.243v1.085 1.092 2.128 3.99l-.194-.186h8.838 2.56a6.98 6.98 0 0 1 .948.04 5.48 5.48 0 0 1-.859.049l-2.519.081-8.967.178h-.186v-.195l-.049-3.997v-2.128-1.085-1.092l.211-.219 12.345-.081h.17v.17 6.11 1.618c.014.225-.002.451-.049.672z"/><path d="M95.266 238.714c-.518.533-1.091 1.011-1.709 1.424l-4.293 3.188h-.284l-.081-.056-.162-.114-.316-.218-.616-.429-1.158-.809-1.952-1.408c-.621-.408-1.201-.874-1.734-1.392.67.321 1.308.706 1.904 1.149l2.001 1.335 1.174.809.624.429.316.219.154.105.081.057h.04-.227l4.374-3.092c.584-.454 1.207-.855 1.863-1.197z"/><path d="M83.259 247.144a12.95 12.95 0 0 1 1.887-2.735c.636-.918 1.384-1.752 2.228-2.484a12.78 12.78 0 0 1-1.896 2.743c-.633.915-1.379 1.747-2.22 2.476zm8.142-5.219a12.57 12.57 0 0 1 2.147 2.427 12.46 12.46 0 0 1 1.814 2.687 12.5 12.5 0 0 1-2.147-2.428c-.721-.811-1.331-1.715-1.815-2.686z"/><use xlink:href="#B"/></g><use xlink:href="#B" opacity=".09" fill="#000"/><path d="M245.996 298.66H77.769c-1.19 0-2.155.964-2.155 2.153v21.97c0 1.189.965 2.152 2.155 2.152h168.227c1.19 0 2.154-.963 2.154-2.152v-21.97c0-1.189-.964-2.153-2.154-2.153z" class="C"/><g class="B"><path d="M147.312 312.363c-.005-.379.068-.755.214-1.106a2.78 2.78 0 0 1 .636-.93c.273-.264.597-.469.952-.603s.735-.194 1.114-.177a2.76 2.76 0 0 1 1.143.201 2.72 2.72 0 0 1 .955.657l-.51.494a2.13 2.13 0 0 0-1.089-.617 2.12 2.12 0 0 0-1.247.1c-.397.157-.737.43-.976.782a2.13 2.13 0 0 0 0 2.391c.24.353.579.625.976.782s.831.192 1.247.1a2.13 2.13 0 0 0 1.089-.617l.51.494c-.268.287-.595.512-.958.662a2.75 2.75 0 0 1-1.148.204c-.379.016-.757-.045-1.111-.179s-.678-.34-.95-.604-.488-.58-.634-.929a2.79 2.79 0 0 1-.213-1.105zm9.818 2.748l-1.191-1.691h-.34-1.369v1.675h-.811v-5.503h2.155c1.426 0 2.293.72 2.293 1.918.018.382-.09.76-.308 1.075a1.75 1.75 0 0 1-.899.665l1.304 1.845-.834.016zm0-3.585c0-.809-.527-1.23-1.531-1.23h-1.345v2.477h1.345c.98 0 1.506-.462 1.506-1.247h.025zm6.035 2.904v.68h-4.001v-5.503h3.888v.688h-3.103v1.691h2.771v.664h-2.771v1.78h3.216zm4.79-.696h-2.933l-.607 1.376h-.811l2.496-5.503h.81l2.503 5.503h-.81l-.648-1.376zm-.276-.623l-1.191-2.703-1.19 2.703h2.381zm3.335-2.816h-1.888v-.688h4.561v.688h-1.895v4.815h-.81l.032-4.815zm7.526 4.135v.68h-4.002v-5.503h3.889v.688h-3.103v1.691h2.762v.664h-2.762v1.78h3.216z"/><path opacity=".3" d="M137.143 147.799c22.255-22.232 22.255-58.277 0-80.509s-58.339-22.232-80.594 0-22.255 58.277 0 80.509 58.338 22.231 80.594 0z"/></g><path d="M129.495 30.598c-.996 1.249-1.604 2.763-1.748 4.354a8.16 8.16 0 0 0 .938 4.596c.713 1.279 1.799 2.428 1.961 3.876.267 2.355-2.017 4.475-1.62 6.822.251 1.618 1.62 2.727 2.365 4.159.461.931.646 1.975.536 3.008s-.513 2.013-1.16 2.827c-1.037 1.262-2.665 2.063-3.337 3.56-.502 1.101-.381 2.428-.81 3.536a5.5 5.5 0 0 1-4.342 3.237 16.31 16.31 0 0 1-5.671-.316l.413-2.047c-.351.544-.83.994-1.394 1.311a3.99 3.99 0 0 1-1.846.51c-1.297.026-2.589-.166-3.823-.566-.77-3.471-1.523-7.137-.438-10.52.989-3.043 3.321-5.422 5.266-7.963a35.93 35.93 0 0 0 5.127-9.274c.891-2.387 1.531-4.855 2.779-7.121s3.24-4.224 5.735-4.702" class="D"/><path d="M166.558 78.419l-11.276.809-.113-2.897a6.35 6.35 0 0 1 .972-4.095c.124-.214.215-.446.267-.688.081-.858-1.183-5.163-1.62-6.741-.551-1.894.526-2.897.948-2.12.761 1.416 2.778 7.493 3.41 8.092s.267-2.581.267-2.581c-.988-6.692-1.417-7.663-.226-7.914 1.369-.291 2.875 9.67 2.875 9.67s-.202-1.392.867-1.675 1.563 1.084 1.563 1.084c-.137-.704.875-.809.875-.809 2.528.348 1.215 9.953 1.215 9.953l-11.276.809-5.403 37.669-5.767-8.829-15.052 10.73 13.569 16.185a12.03 12.03 0 0 0 4.337 3.256c1.674.742 3.496 1.092 5.327 1.024a12.01 12.01 0 0 0 7.975-3.427 11.99 11.99 0 0 0 3.577-7.902l2.689-49.604z" class="F"/><g class="E"><path d="M157.737 78.521c-.049-.057.55-.583 1.352-1.57.466-.578.888-1.189 1.264-1.829a13.14 13.14 0 0 0 .616-1.165c.227-.372.361-.794.389-1.23-.004-.101-.036-.199-.093-.282a.53.53 0 0 0-.231-.187 1.02 1.02 0 0 0-.648.105 7.27 7.27 0 0 0-1.256.753 7 7 0 0 0-1.62 1.724l-.13.186-.097-.194c-.232-.417-.533-.792-.891-1.109 0 0 .616.146 1.142 1.02h-.227a6.53 6.53 0 0 1 1.62-1.877 7.05 7.05 0 0 1 1.321-.809c.288-.152.621-.198.939-.129a.93.93 0 0 1 .624.81c-.014.521-.165 1.028-.437 1.473-.197.403-.416.794-.656 1.173a12.65 12.65 0 0 1-1.369 1.829 6.42 6.42 0 0 1-1.612 1.311zm4.463-8.036a10.39 10.39 0 0 1 0 2.072c0 .68-.073 1.432-.121 2.233a8.27 8.27 0 0 0 0 1.278c0 .397.38.736.664.575s.445-.647.567-1.076l.308-1.27.429-2.193a8.84 8.84 0 0 1 .478-2.015 11.71 11.71 0 0 1-.186 2.064l-.341 2.225-.291 1.303a2.01 2.01 0 0 1-.27.753c-.139.231-.322.431-.54.59a.81.81 0 0 1-.899-.154 1.15 1.15 0 0 1-.357-.745c-.025-.454-.009-.909.049-1.359l.218-2.233c.026-.691.124-1.377.292-2.047z"/><path d="M164.128 73.359c.064 0-.098.469-.049 1.198a2.3 2.3 0 0 0 .348 1.133c.138.138.235.146.365 0a4.18 4.18 0 0 0 .372-.696 24.01 24.01 0 0 0 1.207-3.941 7.51 7.51 0 0 1-.81 4.119 4.68 4.68 0 0 1-.429.809.66.66 0 0 1-.222.182.65.65 0 0 1-.28.068.64.64 0 0 1-.478-.243c-.162-.215-.265-.469-.3-.736a3.06 3.06 0 0 1-.057-.647c-.024-.842.26-1.27.333-1.246z"/></g><path d="M116.64 144.171l1.053 16.379c-32.07 12.276-55.894-8.092-55.894-8.092l4.796-14.655.81-25.587-6.157 6.821-2.908-2.427-14.67-12.203-3.151-2.63 15.254-16.079C75.059 64.958 90.07 71.294 90.07 71.294l22.552 2.112s15.602 2.209 23.152 15.869l12.839 22.893-19.328 13.757-6.148-11.281-6.497 29.528z" fill="#454056"/><path d="M39.861 107.328l.057 2.889c.133 3.8.649 7.576 1.539 11.272v.106c.113.461.243.914.373 1.367.502 1.78 1.166 3.35 1.798 5.074a21.53 21.53 0 0 0 .251.647c2.041-.534 7.461-5.664 14.079-12.356l-14.687-12.236c-1.887 2.056-2.779 2.994-3.41 3.237zm70.712-31.794l1.726-11.442s7.363-.202 10.15-9.379c2.657-8.756 4.05-29.625 4.05-29.625a27.27 27.27 0 0 0-15.917-3.48c-5.537.489-10.792 2.657-15.06 6.215l-5.67 45.437c-.656 5.268 3.362 10.034 9.024 10.698 5.711.663 10.976-3.107 11.697-8.424z" class="F"/><g class="D"><path d="M121.592 40.863c-.041.314-.202.6-.45.798s-.563.292-.879.262a1.17 1.17 0 0 1-.447-.118 1.16 1.16 0 0 1-.593-.685 1.15 1.15 0 0 1-.053-.459 1.22 1.22 0 0 1 .452-.793c.248-.196.562-.289.876-.259.155.009.306.049.446.117a1.17 1.17 0 0 1 .365.281 1.19 1.19 0 0 1 .228.4 1.18 1.18 0 0 1 .055.457zm2.135-1.078c-.17.138-.988-.663-2.284-.809s-2.341.348-2.431.17.13-.348.584-.591a3.37 3.37 0 0 1 1.993-.324 3.24 3.24 0 0 1 1.798.866c.332.324.421.639.34.688zm-15.439-.521c-.041.314-.202.599-.45.796a1.22 1.22 0 0 1-.879.256 1.15 1.15 0 0 1-.446-.115 1.16 1.16 0 0 1-.367-.28 1.15 1.15 0 0 1-.227-.401c-.048-.148-.066-.303-.053-.458a1.22 1.22 0 0 1 1.328-1.06 1.18 1.18 0 0 1 .811.403c.102.117.179.254.228.401s.067.303.055.458z"/><path d="M110.137 38.393c-.17.138-.989-.663-2.285-.809s-2.341.34-2.43.162.13-.34.583-.583c.616-.309 1.311-.422 1.993-.324a3.15 3.15 0 0 1 1.798.866c.324.324.422.631.341.688zm3.767 10.041c.672-.078 1.355-.097 2.034-.058.313 0 .618 0 .701-.148.066-.221.037-.449-.083-.659l-.595-1.728c-.815-2.455-1.356-4.463-1.211-4.489s.922 1.955 1.729 4.41l.557 1.733a.9.9 0 0 1 0 .859.7.7 0 0 1-.242.179c-.099.046-.212.077-.33.09-.179.016-.361.016-.541 0-.682-.006-1.36-.069-2.019-.19z"/></g><path d="M112.279 64.093a24.13 24.13 0 0 1-12.151-5.082s2.163 6.862 11.682 7.283l.469-2.201z" class="E"/><path d="M116.757 22.191c.608 1.481-.348 3.237-1.701 4.046a11.84 11.84 0 0 1-4.593 1.295 8.41 8.41 0 0 0-4.423 1.683c-2.203 1.999-1.62 4.855-3.847 7.453a4.8 4.8 0 0 1-4.675 1.958c-1.782-.251-4.091.162-4.99 2.217s.186 3.569 1.183 5.454.729 3.819.162 5.883c-.405 1.489-1.685 2.654-1.968 4.176-.454 2.428 1.62 5.13.219 7.121s-4.958 1.109-6.521 2.962c-.567.656-.891 1.618-1.725 1.877-.519.073-1.047-.024-1.507-.275l-7.291-3.083.575-2.266a4.86 4.86 0 0 1-1.933 1.214c-.732.245-1.511.313-2.275.198s-1.488-.411-2.114-.862-1.136-1.044-1.487-1.731a21.87 21.87 0 0 0 4.212-3.18 7.35 7.35 0 0 0 2.147-4.669c.073-2.136-1.085-4.297-.437-6.328.932-2.905 4.86-3.633 6.594-6.126 1.62-2.331 1.077-5.713 2.754-8.019 1.952-2.67 6.075-2.792 8.311-5.236 1.515-1.618 1.863-4.046 2.965-6.012 1.427-2.311 3.656-4.017 6.261-4.791 2.589-.755 5.286-1.069 7.98-.931 2.021-.095 4.035.308 5.864 1.173 1.758.979 3.087 2.986 2.674 4.96" class="D"/><path d="M97.522 38.648c-.975-.354-2.03-.43-3.046-.219-.508.105-.99.308-1.418.6a3.92 3.92 0 0 0-1.077 1.099 4.14 4.14 0 0 0-.437 2.994c.243 1.009.708 1.952 1.361 2.759.418.606.973 1.105 1.62 1.457.329.177.696.27 1.069.27s.741-.093 1.069-.27" class="F"/><path d="M96.128 44.654c.114.057-.413.607-1.296.227a2.01 2.01 0 0 1-.996-1.101c-.204-.556-.295-1.148-.267-1.74.011-.63.246-1.236.664-1.708a1.75 1.75 0 0 1 1.426-.591c.948.105 1.15.809 1.045.809s-.405-.316-1.045-.259c-.397.095-.747.328-.987.657s-.356.733-.325 1.139c0 1.052.235 2.047.753 2.363s.98.138 1.029.202z" class="E"/><g class="D"><path d="M116.793 22.739c-.369 1.012-.377 2.12-.023 3.138s1.049 1.881 1.967 2.446c1.053.607 2.349.809 3.24 1.618.83.899 1.312 2.064 1.361 3.285a11.84 11.84 0 0 0 .673 3.544 2.82 2.82 0 0 0 1.131 1.36 2.84 2.84 0 0 0 1.72.421l2.033-5.996c.745-2.201 1.499-4.556.964-6.83-.761-3.237-3.969-5.357-7.177-6.239-1.47-.522-3.076-.507-4.536.04-1.394.656-2.341 2.428-1.62 3.803m-5.864 11.842c-.081.097-.365 0-.81-.138a8.23 8.23 0 0 0-1.823-.21 7.91 7.91 0 0 0-1.831.194c-.461.105-.745.227-.81.138s.105-.405.6-.688a4.53 4.53 0 0 1 4.115 0c.421.307.599.631.559.704zm11.79 1.597c-.041.227-.883.299-1.896.154s-1.798-.421-1.798-.688.883-.291 1.896-.146 1.83.453 1.798.68zM94.103 47.081a1.24 1.24 0 0 0 .203.202c.174.213.322.447.438.696a4.97 4.97 0 0 1 .356 2.962 14.18 14.18 0 0 1-1.45 4.167 3.76 3.76 0 0 0-.356 2.428 11.1 11.1 0 0 0 1.166 2.468 4.38 4.38 0 0 1 .611 2.7c-.093.942-.49 1.829-1.129 2.528a4.05 4.05 0 0 1-2.074 1.262c-.68.141-1.371.217-2.066.227a5.22 5.22 0 0 0-2.779.712 3.42 3.42 0 0 0-.753.752s0-.105.105-.267a2.09 2.09 0 0 1 .551-.615 5.01 5.01 0 0 1 2.827-.866 11.35 11.35 0 0 0 2.001-.267 3.75 3.75 0 0 0 1.896-1.19 4.32 4.32 0 0 0 1.004-2.233c.089-.891-.11-1.787-.567-2.557a11.14 11.14 0 0 1-1.175-2.581 4.13 4.13 0 0 1 .405-2.638l.964-2.136a11.32 11.32 0 0 0 .551-1.942 5.08 5.08 0 0 0-.219-2.849c-.284-.639-.543-.939-.51-.963z"/><path d="M131.724 68.865c-.162.075-.34.108-.518.097a1.92 1.92 0 0 1-.741-.199 1.93 1.93 0 0 1-.604-.473 2.67 2.67 0 0 1-.664-2.274c.253-1.045.798-1.996 1.572-2.743.925-.842 1.741-1.796 2.43-2.84a3.69 3.69 0 0 0 .461-1.942c-.047-.722-.217-1.431-.502-2.096a44.37 44.37 0 0 1-1.944-4.426 4.64 4.64 0 0 1 0-2.622c.32-.827.725-1.619 1.207-2.363.461-.696.646-1.538.519-2.363-.219-.784-.651-1.493-1.248-2.047l-1.693-1.796a5.51 5.51 0 0 1-1.102-2.153 9.7 9.7 0 0 1 .065-4.402l.915-3.682a8.32 8.32 0 0 0-.259-5.373c-.282-.6-.666-1.148-1.134-1.619l.114.073c.104.074.202.158.291.251a4.23 4.23 0 0 1 .875 1.295c.348.724.56 1.506.624 2.306a10.85 10.85 0 0 1-.243 3.148l-.867 3.69a9.42 9.42 0 0 0 0 4.232 4.98 4.98 0 0 0 1.013 1.999c.494.607 1.101 1.149 1.685 1.764a4.86 4.86 0 0 1 1.369 2.209 3.84 3.84 0 0 1-.559 2.646 12.71 12.71 0 0 0-1.199 2.282c-.233.792-.233 1.635 0 2.428.554 1.494 1.187 2.958 1.895 4.386.3.709.472 1.465.511 2.233a4.05 4.05 0 0 1-.519 2.12c-.715 1.06-1.561 2.025-2.519 2.873-.751.698-1.29 1.592-1.555 2.581-.08.372-.071.758.026 1.127s.279.709.532.993a1.89 1.89 0 0 0 1.224.704c.364-.024.542-.073.542-.024z"/></g><path d="M163.512 79.774a14.26 14.26 0 0 0-1.758-1.894c-.724-.466-1.485-.872-2.276-1.214a3.49 3.49 0 0 1 1.356.187 3.48 3.48 0 0 1 1.179.695 3.4 3.4 0 0 1 .979.959c.258.383.434.813.52 1.267zm-12.082 44.347a12.27 12.27 0 0 1-1.175-3.666c-.326-1.253-.444-2.552-.348-3.844a34.78 34.78 0 0 1 .762 3.755 32.18 32.18 0 0 1 .761 3.755z" class="E"/><path opacity=".7" d="M99.774 115.046a7.67 7.67 0 0 0 3.599-2.526c.927-1.174 1.489-2.594 1.618-4.085.438-4.216-2.43-7.962-6.31-8.375s-7.453 2.686-7.89 6.902c-.18 1.499.087 3.017.767 4.364a7.67 7.67 0 0 0 3.057 3.211c-6.075.315-9.016 4.046-10.45 7.38 2.246 3.159 5.556 5.405 9.324 6.328l4.374.453a16.13 16.13 0 0 0 10.531-4.402c-.721-3.553-2.835-7.769-8.619-9.25z" class="B"/><path opacity=".09" d="M67.468 112.214l3.597-3.706s-1.555 26.785-2.617 30.005-6.618 13.943-6.618 13.943l4.796-14.655.843-25.587z" fill="#000"/><path d="M75.431 103.97c.081.081-3.078 3.504-7.064 7.647s-7.291 7.445-7.38 7.364 3.086-3.504 7.072-7.656 7.29-7.436 7.371-7.355zm50.281-2.095a3.85 3.85 0 0 1-.041.81l-.267 2.274-1.296 7.428-1.782 7.34-.664 2.193c-.064.283-.168.555-.308.809a4.04 4.04 0 0 1 .146-.809l.534-2.218 1.661-7.347 1.417-7.396.397-2.25a3.04 3.04 0 0 1 .203-.834z" class="B"/><path d="M109.576 49.02c.211 0 0 1.424 1.086 2.581s2.592 1.222 2.576 1.416-.373.227-1.013.154a3.5 3.5 0 0 1-2.154-1.101c-.54-.585-.83-1.357-.811-2.152.017-.599.219-.922.316-.898zM91.601 28.059a8.09 8.09 0 0 0 1.725-3.981 4.3 4.3 0 0 0-3.726-4.281 4.55 4.55 0 0 0-2.942.822 4.54 4.54 0 0 0-1.757 2.496 4.85 4.85 0 0 0 .336 3.046 4.86 4.86 0 0 0 2.095 2.238 5.14 5.14 0 0 0 5.8-.882" class="D"/><g class="C"><path d="M93.456 23.856c.11 1.056-.179 2.115-.81 2.97-.52.928-1.37 1.627-2.382 1.958a14.65 14.65 0 0 0 2.025-2.193 14.5 14.5 0 0 0 1.166-2.735z"/><use xlink:href="#C"/></g><use xlink:href="#C" opacity=".09" fill="#000"/><path d="M119.517 172.604c11.359 0 20.568-9.199 20.568-20.546s-9.209-20.546-20.568-20.546-20.567 9.199-20.567 20.546 9.209 20.546 20.567 20.546z" class="C"/><g class="B"><path d="M119.518 164.21c-.583 0-1.061-5.446-1.061-12.138s.478-12.138 1.061-12.138 1.053 5.446 1.053 12.138-.478 12.138-1.053 12.138z"/><path d="M131.717 152.058c0 .582-5.444 1.052-12.151 1.052s-12.151-.47-12.151-1.052 5.443-1.052 12.151-1.052 12.151.469 12.151 1.052z"/></g><defs ><path id="B" d="M245.996 302.317H77.769c-1.19 0-2.155.964-2.155 2.152v21.971c0 1.188.965 2.152 2.155 2.152h168.227c1.19 0 2.155-.964 2.155-2.152v-21.971c0-1.188-.965-2.152-2.155-2.152z"/><path id="C" d="M119.517 176.415c11.359 0 20.568-9.199 20.568-20.546s-9.209-20.546-20.568-20.546-20.567 9.198-20.567 20.546 9.208 20.546 20.567 20.546z"/></defs></svg>