<svg xmlns="http://www.w3.org/2000/svg" width="344" height="292" fill="none" xmlns:v="https://vecta.io/nano"><style><![CDATA[.B{fill:#fd5631}.C{fill:#1f1b2d}.D{opacity:.12}.E{opacity:.8}.F{opacity:.04}.G{fill:#d5d2dc}]]></style><g fill="#fff"><path opacity=".2" d="M319 195.396H206.213v-65.288H319v65.288zm-112.098-.688h111.41v-63.911h-111.41v63.911z"/><path opacity=".4" d="M295.731 164.919h-74.413v2.183h74.413v-2.183zm5.127 8.139h-79.54v2.382h79.54v-2.382zm0 8.231h-79.54v2.381h79.54v-2.381z"/><path opacity=".2" d="M247.324 153.102h-26.006v5.666h26.006v-5.666z"/><path d="M318.653 130.454H206.576v10.394h112.077v-10.394z" class="D"/><path d="M307.675 139.296c-.145-.138 1.3-1.88 3.22-3.89s3.606-3.531 3.744-3.401-1.301 1.88-3.221 3.897-3.606 3.531-3.743 3.394z"/><path d="M314.656 139.292c-.138.138-1.817-1.377-3.744-3.394s-3.365-3.758-3.221-3.896 1.817 1.377 3.744 3.401 3.351 3.751 3.221 3.889z"/><path d="M180.215 1.164H68.137V65.77h112.078V1.164z" class="F"/><path opacity=".6" d="M157.297 35.642H82.884v2.182h74.413v-2.182zm5.127 8.134h-79.54v2.382h79.54v-2.382zm0 8.235h-79.54v2.382h79.54v-2.382zM108.89 23.816H82.884v5.666h26.006v-5.666z"/><path d="M180.215 1.164H68.137v10.395h112.078V1.164z" class="D"/><path d="M171.213 9.957c-.144-.131 1.301-1.879 3.221-3.889s3.606-3.531 3.744-3.394-1.301 1.879-3.221 3.889-3.606 3.518-3.744 3.394z"/><path d="M178.178 9.957c-.138.138-1.817-1.377-3.744-3.394s-3.365-3.752-3.221-3.889 1.817 1.377 3.744 3.394 3.365 3.759 3.221 3.889z"/><path opacity=".2" d="M137.766 121.183H25.001V55.889h112.765v65.294zm-112.077-.688h111.389V56.577H25.689v63.918z"/><path opacity=".5" d="M114.506 90.704H40.092v2.182h74.414v-2.182zM66.099 78.887H40.092v5.666h26.006v-5.666z"/><path d="M137.421 56.23H25.344v10.395h112.077V56.23zm130.485 79.908H135.568v118.515h132.338V136.138z" class="D"/><path d="M142.227 98.805H38.559v107.742h103.668V98.805z" class="F"/><path d="M142.227 98.805H38.559v11.737h103.668V98.805z" class="D"/><path d="M47.117 104.555a2.18 2.18 0 0 1-1.407 1.94 2.17 2.17 0 0 1-1.248.085c-.415-.094-.794-.309-1.088-.616a2.18 2.18 0 0 1-.43-2.358 2.17 2.17 0 0 1 1.999-1.322c.589.014 1.148.261 1.556.687a2.23 2.23 0 0 1 .619 1.584zm8.831 0a2.18 2.18 0 0 1-1.409 1.952 2.17 2.17 0 0 1-1.253.087 2.18 2.18 0 0 1-1.664-1.738 2.19 2.19 0 0 1 .141-1.249 2.18 2.18 0 0 1 2.01-1.323c.589.014 1.148.261 1.556.687a2.23 2.23 0 0 1 .619 1.584zm8.832 0a2.18 2.18 0 0 1-1.408 1.952 2.17 2.17 0 0 1-1.253.087 2.18 2.18 0 0 1-1.523-2.987c.168-.394.449-.729.806-.964a2.18 2.18 0 0 1 1.204-.359c.589.014 1.148.261 1.556.687a2.23 2.23 0 0 1 .619 1.584z"/><path d="M304.198 24.727H171.86v131.939h132.338V24.727z" class="F"/><path d="M304.198 24.727H171.86v15.455h132.338V24.727z" class="D"/><path opacity=".7" d="M183.129 32.299c-.024.562-.213 1.104-.542 1.56a2.87 2.87 0 0 1-2.959 1.116c-.549-.124-1.048-.407-1.437-.813a2.87 2.87 0 0 1-.752-1.47c-.101-.553-.037-1.124.183-1.641a2.87 2.87 0 0 1 2.638-1.745 2.94 2.94 0 0 1 2.869 2.994zm10.789-2.025a2.88 2.88 0 0 1 .722 1.488 2.87 2.87 0 0 1-1.306 2.887 2.87 2.87 0 0 1-3.166-.074c-.463-.322-.82-.772-1.028-1.296s-.258-1.097-.142-1.648.39-1.057.791-1.453a2.92 2.92 0 0 1 2.084-.805 2.93 2.93 0 0 1 2.045.902zm12.461 2.025a2.87 2.87 0 0 1-3.502 2.676 2.87 2.87 0 0 1-2.188-2.284c-.101-.553-.038-1.124.183-1.641a2.87 2.87 0 0 1 2.637-1.745 2.94 2.94 0 0 1 2.87 2.994zm69.227 257.359c0 .096-47.788.179-106.717.179s-106.737-.083-106.737-.179 47.78-.179 106.737-.179l106.717.179z"/></g><path d="M229.047 205.383c-10.633-7.428-13.041-21.216-12.621-33.615.068-2.065-.159-4.254.825-6.064s3.283-3.057 5.134-2.189c1.535.722 2.202 2.512 3.063 3.992a12.08 12.08 0 0 0 4.851 4.633c1.315.689 2.946 1.102 4.246.386 1.79-.985 1.996-3.442 1.982-5.508l-.068-11.51c-.124-2.057.085-4.122.619-6.113.64-1.955 2.065-3.765 4.012-4.316s4.377.585 4.817 2.595c.076.852.097 1.707.062 2.561.055.861.455 1.804 1.26 2.065s1.644-.337 2.264-.943c2.119-2.065 3.565-4.756 4.907-7.414s2.656-5.39 4.583-7.655 4.59-4.061 7.57-4.233 6.083 1.659 6.827 4.55-.943 5.844-2.753 8.192c-2.731 3.484-5.951 6.556-9.559 9.121a3.75 3.75 0 0 0-1.603 1.714c-.448 1.377.853 2.754 2.209 3.188 1.534.509 3.2.351 4.817.543s3.338.895 3.95 2.41c.84 2.106-.922 4.309-2.649 5.755a39.51 39.51 0 0 1-11.644 6.726c-1.514.55-3.104 1.039-4.329 2.099s-1.955 2.912-1.218 4.365 2.629 1.913 4.218 1.617 3.001-1.149 4.515-1.721c2.828-1.067 6.476-.874 8.258 1.57a6.51 6.51 0 0 1 1.021 2.8 6.5 6.5 0 0 1-.333 2.962 15.04 15.04 0 0 1-3.117 5.087c-4.508 5.387-10.364 9.48-16.971 11.861-6.558 2.272-12.635 2.892-19.152.503" class="B"/><g fill="#fff"><path d="M270.352 133.758s-.062.069-.2.193l-.612.544-2.326 2.113c-2.83 2.628-5.457 5.465-7.859 8.488-1.535 1.907-3.125 4.069-4.818 6.416s-3.441 4.881-5.175 7.573a93.4 93.4 0 0 0-5.072 8.797c-.798 1.577-1.5 3.222-2.223 4.902l-2.133 5.128a189.26 189.26 0 0 0-7.336 19.806 92.31 92.31 0 0 0-3.441 16.886c-.4 3.863-.465 7.753-.193 11.627.111 1.377.214 2.43.31 3.146l.096.819v.283a1.45 1.45 0 0 1-.061-.276l-.131-.812c-.124-.688-.255-1.776-.379-3.153-.332-3.881-.309-7.784.069-11.661.579-5.749 1.706-11.429 3.365-16.963a184.82 184.82 0 0 1 7.316-19.853l2.188-5.108c.723-1.673 1.432-3.332 2.237-4.915 1.54-3.032 3.247-5.976 5.113-8.819 1.762-2.753 3.537-5.245 5.209-7.572s3.29-4.502 4.818-6.402c2.427-3.015 5.089-5.833 7.962-8.426 1.019-.916 1.831-1.604 2.381-2.065l.64-.517a1.56 1.56 0 0 1 .255-.179z"/><path d="M244.064 167.718c-.097-.284-.164-.577-.199-.875l-.379-2.423-.922-8.027-.991-8.013-.392-2.409a3.7 3.7 0 0 1-.117-.895c.118.276.204.565.255.861.151.564.323 1.376.516 2.402.392 2.065.777 4.874 1.101 8.013l.812 8.034.261 2.437a3.78 3.78 0 0 1 .055.895zm26.483-4.94c-.335.073-.676.114-1.019.123l-2.876.283-9.408 1.432-9.297 2.065-2.753.764a5.01 5.01 0 0 1-1.032.248c.318-.16.65-.292.991-.393l2.753-.881c2.346-.688 5.629-1.507 9.297-2.21 3.107-.594 6.243-1.03 9.394-1.308l2.89-.158a5.29 5.29 0 0 1 1.06.035zm-37.979 34.353c-.073-.1-.133-.209-.179-.324l-.454-.957-1.555-3.573c-1.28-3.029-2.911-7.269-4.645-11.978l-4.542-12.012-1.446-3.615-.385-.984a1.35 1.35 0 0 1-.11-.358 1.46 1.46 0 0 1 .179.324l.454.957c.385.832.922 2.065 1.555 3.572 1.28 3.029 2.911 7.27 4.646 11.978l4.542 12.013 1.438 3.614c.158.393.289.689.392.985a1.28 1.28 0 0 1 .11.358z"/><path d="M267.722 185.792c-.11.063-.228.111-.351.144l-1.018.344-3.765 1.219-12.387 4.13-12.428 4.034-3.799 1.109-1.039.268a1.82 1.82 0 0 1-.372.076c.11-.064.228-.112.351-.145l1.018-.344 3.765-1.218 12.387-4.131 12.422-4.034 3.805-1.108 1.04-.269a1.73 1.73 0 0 1 .371-.075z"/></g><path d="M253.382 18.805l-3.545 1.267-1.521-4.633c-2.794-8.543-11.699-13.08-19.881-10.195s-12.539 12.254-9.745 20.797l1.521 4.633-3.558 1.274a5.66 5.66 0 0 0-3.317 7.077l9.862 30.145c.205.683.544 1.318.999 1.867s1.016 1.001 1.649 1.329a5.32 5.32 0 0 0 2.036.581c.711.055 1.425-.033 2.101-.26l36.729-13.141c1.374-.526 2.492-1.564 3.117-2.896s.709-2.856.234-4.249l-9.868-30.145c-.21-.681-.556-1.313-1.015-1.858a5.31 5.31 0 0 0-1.66-1.314c-.636-.322-1.33-.512-2.041-.56s-1.424.049-2.097.283zm-27.996 4.819a9.08 9.08 0 0 1 .378-6.772c.995-2.124 2.774-3.78 4.963-4.621a8.5 8.5 0 0 1 3.364-.436c1.14.082 2.251.393 3.267.914a8.5 8.5 0 0 1 2.651 2.119c.732.877 1.28 1.893 1.611 2.986l1.514 4.633-16.234 5.81-1.514-4.633zm20.646 26.751l2.518 7.696c.047.154.032.321-.041.464s-.199.254-.351.307l-3.53 1.26c-.141.039-.291.022-.419-.047s-.225-.186-.269-.325l-2.54-7.662a6.88 6.88 0 0 1-6.193-4.819c-.599-1.77-.49-3.703.304-5.394s2.212-3.01 3.955-3.679a6.78 6.78 0 0 1 5.283.382c.81.415 1.528.989 2.111 1.687a6.78 6.78 0 0 1 1.284 2.378c.443 1.36.48 2.82.106 4.2s-1.143 2.622-2.211 3.572l-.007-.021z" class="B"/><g fill="#fff"><path d="M249.679 19.991c0 .096-6.572 2.568-14.748 5.507l-14.879 5.232c-.034-.069 6.573-2.561 14.755-5.507l14.872-5.232zm7.805 1.267c.031.06.056.122.076.186l.2.537.736 2.065 2.643 7.696 3.874 11.427 2.257 6.76c.405 1.217.58 2.498.516 3.779a5.06 5.06 0 0 1-.557 1.907c-.331.591-.772 1.112-1.301 1.535a12.38 12.38 0 0 1-3.496 1.783l-3.544 1.274-6.71 2.402-11.362 4.048-7.673 2.699-2.064.688-.551.179c-.059.026-.122.043-.186.048 0 0 .055 0 .172-.083l.537-.213 2.065-.778 7.632-2.809 11.341-4.13 6.696-2.423 3.544-1.28a11.79 11.79 0 0 0 3.393-1.728c.491-.393.903-.877 1.211-1.425.291-.548.467-1.15.516-1.769a9.91 9.91 0 0 0-.495-3.642l-2.237-6.76-3.799-11.448-2.532-7.731-.688-2.113-.166-.551a.76.76 0 0 1-.048-.131z"/><path d="M238.104 11.765l-1.039-.454a9.19 9.19 0 0 0-3.008-.606 10.33 10.33 0 0 0-4.445.84c-1.705.754-3.162 1.973-4.205 3.518a9.31 9.31 0 0 0-1.617 5.225 16.1 16.1 0 0 0 .688 4.509l.977 2.946c.146.353.266.717.358 1.088a6.12 6.12 0 0 1-.489-1.039l-1.087-2.926c-.49-1.478-.757-3.021-.791-4.578a9.44 9.44 0 0 1 1.651-5.425c1.08-1.601 2.597-2.858 4.37-3.621a10.24 10.24 0 0 1 4.577-.785 8.66 8.66 0 0 1 3.048.723 5.66 5.66 0 0 1 .744.413 1.04 1.04 0 0 1 .268.172zm.319 26.933a2.38 2.38 0 0 1 .344-.172 6.86 6.86 0 0 1 1.067-.379 7.63 7.63 0 0 1 1.783-.303 6.04 6.04 0 0 1 2.415.365c1.762.62 3.379 2.416 4.177 4.819a6.94 6.94 0 0 1 0 3.951 8.94 8.94 0 0 1-2.216 3.711l.042-.186 2.945 8.082.062.172-.172.062-1.576.523-3.441 1.15-.172.055-.055-.172-2.753-8.116.152.117a6.88 6.88 0 0 1-3.689-1.453 8.33 8.33 0 0 1-2.305-2.754 6.29 6.29 0 0 1-.73-3.098c.032-1.102.307-2.183.806-3.166a7.47 7.47 0 0 1 2.078-2.52 4.38 4.38 0 0 1 1.19-.688 13.18 13.18 0 0 0-1.128.75 7.32 7.32 0 0 0-2.127 3.022 6.52 6.52 0 0 0 .213 5.555c.55 1.034 1.318 1.936 2.251 2.644 1.012.794 2.235 1.273 3.516 1.377h.117l.035.103 2.753 8.103-.228-.11 3.441-1.15 1.569-.53-.11.234-2.924-8.089v-.103l.082-.083c1.001-.994 1.747-2.215 2.175-3.559a6.66 6.66 0 0 0 0-3.779c-.75-2.313-2.299-4.068-3.978-4.688a5.91 5.91 0 0 0-2.333-.392 7.89 7.89 0 0 0-1.762.241l-1.514.454z"/></g><path d="M217.146 237.468l-68.742-.317a14.98 14.98 0 0 1-10.563-4.441c-2.793-2.821-4.353-6.636-4.336-10.608l.729-172.382c.008-1.967.404-3.914 1.164-5.728s1.872-3.461 3.269-4.846 3.053-2.48 4.874-3.225a14.96 14.96 0 0 1 5.737-1.112l68.735.317a14.98 14.98 0 0 1 10.565 4.436 14.99 14.99 0 0 1 4.341 10.606l-.729 172.376c-.008 1.968-.404 3.915-1.164 5.73a14.99 14.99 0 0 1-3.268 4.849c-1.397 1.386-3.053 2.483-4.874 3.229a14.99 14.99 0 0 1-5.738 1.117z" class="C E"/><path d="M217.914 41.053h-13.323c-.435.008-.864.102-1.263.276s-.758.425-1.06.738a3.31 3.31 0 0 0-.698 1.088 3.33 3.33 0 0 0-.228 1.272v2.416a3.29 3.29 0 0 1-.228 1.271c-.159.404-.396.774-.698 1.086a3.3 3.3 0 0 1-1.06.736c-.399.173-.827.266-1.262.273l-25.972-.117c-.879-.023-1.712-.395-2.317-1.032s-.933-1.489-.91-2.368v-2.416c.022-.878-.305-1.728-.908-2.366a3.32 3.32 0 0 0-2.313-1.035h-4.687l-11.664-.055c-2.775-.017-5.443 1.067-7.42 3.014s-3.103 4.598-3.13 7.374l-.688 168.259a10.47 10.47 0 0 0 .779 4.016c.521 1.275 1.288 2.434 2.256 3.412s2.121 1.756 3.39 2.288 2.631.811 4.007.817l68.598.317a10.48 10.48 0 0 0 7.431-3.039c.978-.97 1.756-2.123 2.289-3.393a10.51 10.51 0 0 0 .817-4.012l.688-168.258c.016-2.783-1.073-5.459-3.028-7.439s-4.616-3.103-7.398-3.121z" fill="#fff"/><path d="M165.494 100.397l-17.7-.081-.015 3.25 17.7.08.015-3.249z" class="B"/><path d="M217.376 120.344a1.57 1.57 0 0 0 .406-.097c.191-.074.356-.201.478-.365a1.08 1.08 0 0 0 .21-.564v-4.743-3.442-.957c.045-.314-.023-.634-.192-.902a1.04 1.04 0 0 0-.36-.306 1.03 1.03 0 0 0-.459-.114h-1.074-9.944l-57.56-.213c-.147-.003-.293.03-.424.096s-.246.163-.333.282c-.166.27-.229.59-.178.902v2.065 4.131 2.065a5.35 5.35 0 0 0 0 .964c.036.137.103.265.196.372s.209.192.34.247.281.08.427.076h3.503l15.284.083 25.876.158 17.445.138 4.742.055h1.232.42-.42-1.232-4.742-17.445l-25.876-.083-15.284-.062h-3.503c-.193.008-.385-.025-.564-.096a1.29 1.29 0 0 1-.471-.344 1.31 1.31 0 0 1-.273-.517 1.99 1.99 0 0 1-.041-.55v-.51-2.065-4.13-2.066c-.013-.183-.013-.367 0-.55.026-.203.104-.395.227-.558s.276-.301.458-.393a1.25 1.25 0 0 1 .588-.137l57.56.317 9.944.068h1.074a1.18 1.18 0 0 1 .543.134c.168.087.312.214.42.369.194.299.272.659.22 1.012v.957 3.442l-.062 4.75a1.11 1.11 0 0 1-.221.584 1.12 1.12 0 0 1-.501.373.84.84 0 0 1-.434.124z" class="G"/><g class="B"><path d="M185.48 112.096h-32.373v3.036h32.373v-3.036z" class="E"/><path d="M165.371 130.039l-17.7-.08-.014 3.249 17.7.081.014-3.25z"/></g><path d="M216.931 149.994c.139-.017.276-.043.412-.076.193-.061.37-.163.519-.298a1.42 1.42 0 0 0 .349-.487 1.93 1.93 0 0 0 .123-.874v-1.088-2.753-4.372a1.48 1.48 0 0 0-.199-.908c-.17-.281-.437-.489-.75-.585a4.16 4.16 0 0 0-1.039-.055h-9.903l-57.36-.214a1.27 1.27 0 0 0-1.26 1.108v2.066 4.13 2.065a3.94 3.94 0 0 0 .042.964c.085.279.262.522.502.688a1.43 1.43 0 0 0 .853.221h.957 1.989l15.229.075 25.786.159 17.384.137 4.728.056h1.231.413-.413-1.231-4.728-17.384l-25.8-.028-15.229-.055h-2.994a1.73 1.73 0 0 1-1.053-.282 1.66 1.66 0 0 1-.647-.902 4.38 4.38 0 0 1-.055-1.06v-2.065-4.131-2.065a1.64 1.64 0 0 1 .54-1.018c.298-.262.681-.407 1.078-.407l57.36.317 9.903.075c.368-.022.739.003 1.101.076a1.52 1.52 0 0 1 .846.688c.178.304.255.656.22 1.006v.956 3.442 2.754 1.095a1.92 1.92 0 0 1-.144.901c-.089.19-.219.359-.379.494s-.348.235-.55.291a1.27 1.27 0 0 1-.447-.041z" class="G"/><path d="M165.236 160.968l-17.7-.08-.015 3.249 17.7.08.015-3.249z" class="B"/><path d="M216.79 180.904c.139-.017.277-.042.412-.076.192-.061.368-.162.518-.296a1.43 1.43 0 0 0 .35-.482c.107-.278.15-.577.123-.874v-1.095-2.753-4.372a1.48 1.48 0 0 0-.199-.908 1.38 1.38 0 0 0-.75-.579 4.26 4.26 0 0 0-1.039-.062h-9.903l-57.36-.213a1.27 1.27 0 0 0-.838.317c-.232.204-.382.485-.422.791v2.065 4.131 2.065c-.025.319-.012.641.041.957.083.281.261.524.503.688.252.165.552.243.853.221h2.994l15.229.082 25.787.159 17.383.137 4.728.055h1.232.413-.413-1.232-4.728-17.383l-25.787-.075-15.229-.062h-2.994a1.69 1.69 0 0 1-1.053-.283c-.313-.217-.541-.535-.647-.901-.061-.35-.08-.706-.055-1.061v-2.065-4.13-2.1c.049-.393.239-.755.536-1.017a1.63 1.63 0 0 1 1.075-.408l57.36.317 9.903.076a4.24 4.24 0 0 1 1.101.075 1.52 1.52 0 0 1 .846.689 1.66 1.66 0 0 1 .22 1.005v.957 3.442 2.753 1.095c.027.308-.023.617-.144.902a1.45 1.45 0 0 1-.379.493c-.16.136-.348.235-.55.291-.161.056-.334.072-.502.049z" class="G"/><path d="M184.789 142.602l-32.372-.147-.014 3.035 32.372.147.014-3.035z" class="B E"/><path d="M155.342 175.288a1.43 1.43 0 0 1-.291.762c-.169.22-.4.385-.662.475s-.546.102-.815.033a1.41 1.41 0 0 1-.697-.422 1.42 1.42 0 0 1-.35-.737c-.042-.274-.003-.555.113-.807a1.42 1.42 0 0 1 .539-.612c.235-.146.509-.221.786-.213.384.021.743.193 1.001.478s.393.659.376 1.043zm4.388.024a1.43 1.43 0 0 1-.078.573c-.065.183-.167.351-.3.493a1.41 1.41 0 0 1-.471.334c-.178.077-.371.117-.565.117a1.43 1.43 0 0 1-.566-.117 1.42 1.42 0 0 1-.471-.334c-.133-.142-.235-.31-.3-.493a1.43 1.43 0 0 1-.078-.573c-.013-.194.013-.389.078-.572s.167-.351.3-.494a1.43 1.43 0 0 1 .471-.333c.179-.078.371-.118.566-.118a1.41 1.41 0 0 1 .565.118 1.42 1.42 0 0 1 .471.333c.133.143.235.311.3.494s.091.378.078.572zm4.39.017a1.43 1.43 0 0 1-.291.762 1.42 1.42 0 0 1-.662.476c-.263.09-.546.101-.815.032a1.41 1.41 0 0 1-.697-.422c-.187-.206-.308-.462-.35-.736a1.42 1.42 0 0 1 .652-1.419c.235-.147.509-.221.786-.214.383.023.741.195.999.48s.393.658.378 1.041zm4.385.017a1.42 1.42 0 0 1-.29.762c-.17.22-.4.385-.663.475a1.41 1.41 0 0 1-.814.033c-.269-.07-.511-.216-.698-.422a1.42 1.42 0 0 1-.237-1.544c.116-.252.304-.465.539-.612a1.42 1.42 0 0 1 .787-.213 1.47 1.47 0 0 1 1.376 1.521zm4.382.018a1.42 1.42 0 0 1-.948 1.243c-.263.091-.546.103-.816.035a1.42 1.42 0 0 1-1.051-1.157c-.043-.275-.004-.556.112-.809a1.41 1.41 0 0 1 .539-.612 1.42 1.42 0 0 1 .788-.214c.381.023.739.194.996.477a1.47 1.47 0 0 1 .38 1.037zm4.39.025a1.42 1.42 0 0 1-.285.76c-.167.22-.395.387-.655.48a1.43 1.43 0 0 1-.811.041c-.269-.066-.512-.209-.701-.411a1.42 1.42 0 0 1-.36-.728c-.046-.273-.012-.553.098-.806s.293-.469.525-.62.502-.232.778-.231a1.46 1.46 0 0 1 1.018.466c.265.284.406.661.393 1.049zm4.384.019c.013.194-.013.389-.078.572a1.41 1.41 0 0 1-.3.494 1.42 1.42 0 0 1-.471.333c-.179.078-.371.118-.566.118a1.41 1.41 0 0 1-1.336-.945c-.065-.183-.091-.378-.078-.572-.013-.194.013-.389.078-.572a1.41 1.41 0 0 1 1.336-.945c.195 0 .387.04.566.118a1.42 1.42 0 0 1 .471.333 1.41 1.41 0 0 1 .3.494c.065.183.091.378.078.572zm4.383.014c-.018.276-.117.54-.284.761a1.41 1.41 0 0 1-1.467.52c-.268-.065-.512-.208-.7-.41a1.42 1.42 0 0 1-.36-.728c-.046-.272-.013-.553.098-.807a1.42 1.42 0 0 1 .524-.62c.232-.151.502-.231.779-.23a1.47 1.47 0 0 1 1.41 1.514zm4.386.026a1.41 1.41 0 0 1-.948 1.242 1.42 1.42 0 0 1-.816.035c-.269-.069-.512-.215-.699-.42a1.42 1.42 0 0 1-.352-.737 1.41 1.41 0 0 1 .112-.808c.116-.253.303-.466.539-.613a1.42 1.42 0 0 1 .788-.214c.381.023.739.194.996.477a1.47 1.47 0 0 1 .38 1.038z" class="B E"/><g class="B"><path d="M186.559 66.187c.478-.211.883-.557 1.166-.997a2.66 2.66 0 0 0 .423-1.475c.018-.34-.033-.679-.151-.998a2.51 2.51 0 0 0-1.361-1.435 2.51 2.51 0 0 0-.989-.203c-.34 0-.677.069-.989.203a2.51 2.51 0 0 0-.828.578c-.234.247-.416.538-.533.858s-.169.659-.152.999c-.01.528.136 1.047.42 1.491a2.67 2.67 0 0 0 1.177 1.007c-3.854.578-3.682 4.764-3.682 4.764l9.112.041s.213-4.261-3.613-4.832z"/><path d="M201.365 73.717l-32.475-.148-.017 3.883 32.475.147.017-3.882z" class="E"/><path d="M99.063 43.735h-.323l-.936.069a10.47 10.47 0 0 0-1.507.2c-.322.045-.641.107-.957.186l-1.067.296a17.53 17.53 0 0 0-5.072 2.513c-2.039 1.481-3.742 3.376-4.996 5.562-.737 1.26-1.324 2.602-1.748 4a19.24 19.24 0 0 0-.764 4.667 18.93 18.93 0 0 0 .041 2.492c0 .42.117.84.172 1.267a8.14 8.14 0 0 0 .241 1.274A18.17 18.17 0 0 0 92.47 78.88a16.35 16.35 0 0 0 5.912 1.329 15.95 15.95 0 0 0 6.194-.888l.605-.227h.083l.069.041 8.678 4.406-.255.22-2.691-8.343v-.103l.076-.076a18.59 18.59 0 0 0 4.556-7.572 19.07 19.07 0 0 0 .688-8.068 18.85 18.85 0 0 0-2.278-6.843c-1.028-1.815-2.354-3.444-3.922-4.819a19.19 19.19 0 0 0-4.26-2.712 18.56 18.56 0 0 0-3.606-1.136l-1.377-.227-.998-.076-.606-.041h-.206c.069-.008.138-.008.206 0h.612l.998.041 1.376.2a18.22 18.22 0 0 1 3.655 1.095 19.12 19.12 0 0 1 4.335 2.705 18.61 18.61 0 0 1 4.005 4.819 18.89 18.89 0 0 1 2.347 6.932 19.27 19.27 0 0 1-.64 8.206 18.83 18.83 0 0 1-4.624 7.731l.041-.179 2.704 8.337.131.42-.392-.2-8.678-4.399h.151l-.619.227c-2.024.712-4.168 1.021-6.311.909a16.72 16.72 0 0 1-6.035-1.377 18.11 18.11 0 0 1-8.623-7.717 18.41 18.41 0 0 1-1.948-5.094 10.56 10.56 0 0 1-.241-1.301l-.165-1.287a20.35 20.35 0 0 1 .764-7.27c.435-1.416 1.038-2.775 1.796-4.048a18.01 18.01 0 0 1 5.099-5.597 17.39 17.39 0 0 1 5.154-2.492l1.081-.275a9.56 9.56 0 0 1 .963-.172 10.22 10.22 0 0 1 1.521-.165l.943-.034a2.3 2.3 0 0 1 .323-.021zm3.919 16.055h-1.273l-2.752-3.869v-2.54s-1.968-.124-1.734 3.201 0 2.478 0 2.478-4.177 0-4.521.379-.365 4.413-.413 6.664a2.44 2.44 0 0 0 .442 1.523c.313.444.765.771 1.285.928.146.04.296.061.447.062 1.046 0 6.365-.847 6.365-.847h2.196l-.042-7.979zm3.645-.68l-.784 8.701h-2.175v-8.522l2.959-.179zM88.94 286.357v-5.886l-10.55-.076-.089 8.901.654.048c2.911.186 14.81.461 16.764-.144 2.175-.675-6.779-2.843-6.779-2.843z"/></g><g class="C"><path d="M95.967 288.651c0 .096-3.95.179-8.816.179s-8.816-.083-8.816-.179 3.95-.179 8.816-.179l8.816.179zm-6.838-1.088c-.09-.049 0-.358.213-.689s.502-.468.571-.399-.076.33-.282.612-.413.524-.502.476z"/><path d="M89.802 287.95c-.096 0-.048-.385.158-.75s.482-.585.557-.53-.048.365-.241.688-.385.627-.475.592zm-8.285.673c-.041 0-.2-.124-.427-.385a6.88 6.88 0 0 0-.922-.923 2.43 2.43 0 0 0-1.142-.502c-.323-.042-.53 0-.55-.042s.179-.185.557-.213a2.13 2.13 0 0 1 1.376.468c.365.298.673.659.908 1.067.158.303.241.503.2.53zm7.646-2.172c.048.083-.131.289-.434.4s-.571.068-.585 0 .2-.214.461-.31.502-.172.557-.09zm-.167-.566c0 .104-.275.186-.633.193s-.64-.076-.633-.172.289-.186.633-.193.619.076.633.172z"/></g><path d="M114.919 286.357v-5.886l-10.55-.076-.089 8.812.654.048c2.911.186 14.816.551 16.764-.055 2.174-.675-6.779-2.843-6.779-2.843z" class="B"/><g class="C"><path d="M121.948 288.667c0 .097-3.943.179-8.816.179s-8.808-.082-8.808-.179 3.943-.179 8.808-.179l8.816.179zm-6.841-1.104c-.082-.049 0-.358.214-.689s.502-.468.571-.399-.076.33-.282.612-.413.524-.503.476z"/><path d="M115.782 287.95c-.09 0-.048-.385.165-.75s.482-.585.557-.53-.055.365-.247.688-.379.627-.475.592zm-8.286.673c-.041 0-.193-.124-.427-.385-.277-.336-.586-.645-.922-.923a2.43 2.43 0 0 0-1.142-.502c-.317-.042-.53 0-.551-.042s.179-.185.558-.213a2.13 2.13 0 0 1 1.376.468c.367.296.675.658.908 1.067.159.303.241.503.2.53zm7.646-2.172c.048.083-.131.289-.434.4s-.571.068-.585 0 .2-.214.461-.31.503-.172.558-.09zm-.153-.566c0 .104-.275.186-.633.193s-.633-.076-.626-.172.282-.186.626-.193.633.076.633.172z"/></g><path d="M153.789 111.572c-.275-.282-.956-.144-.956-.144.068-.397.068-.802 0-1.198-.124-.386-.991-.31-.991-.31a4 4 0 0 1 0-.978.35.35 0 0 0-.2-.351c-.41-.167-.851-.247-1.294-.234-.53-.378 1.618-3.387 2.416-4.35s.654-1.715-.055-1.715c-.489 0-2.994 2.892-3.765 3.862s-2.814 3.67-2.883 1.515-.936-3.779-1.48-4.055-1.121.372-.826.971a7.68 7.68 0 0 1 .482 2.12c.075.578.049 1.165-.075 1.735-.229 1.06-.539 2.1-.93 3.111h-.055l-16.103 15.434c-.97.923-20.487-1.094-24.403-1.507a26.24 26.24 0 0 0-4.019-.276c-1.7.076-2.003.317-3.696.338-4.275.047-8.541.422-12.759 1.122-1.91.325-3.694 1.168-5.158 2.438a10.58 10.58 0 0 0-3.142 4.763c-3.943 12.322-12.876 41.489-14.452 57.873a69.67 69.67 0 0 0-3.221 6.657c-1.108 3.015-.84 3.119-.468 3.187 1.005.186 2.147-5.225 2.574-3.917s-2.168 6.451-1.115 6.602c1.376.193 2.47-5.507 2.601-5.961s.812-.31.688.117c-.2.605-2.133 7.028-.785 7.235.743.11.826-1.246.826-1.246s1.376-6.148 2.003-6.024-.041 3.752-.358 4.964.124 1.824.771 1.528c.44-.207 1.493-3.89 1.782-5.087s1.012-4.516 1.982-2.596 2.443 3.036 3.049 3.064c.136-.016.265-.072.369-.162s.179-.208.216-.34a.69.69 0 0 0-.248-.731 7.78 7.78 0 0 1-1.328-1.721 5.08 5.08 0 0 1-.688-1.61 17.47 17.47 0 0 1-.482-3.484l-.11-.688c1.541-7.634 5.98-30.042 12.387-44.354l2.629 5.411 1.142 4.007-7.006 17.299 29.881-.392-4.46-17.169 5.416-17.898c5.857.13 20.893.351 23.398-.785 3.152-1.377 19.455-21.974 19.455-21.974 1.063-.826 2.081-1.708 3.049-2.643 0 0 .991-.833.392-1.453z" fill="#ffbe9d"/><path d="M75.343 161.102l5.32-17.596s2.188 11.93 1.61 13.369a25.41 25.41 0 0 1-1.879 3.552c-5.051 7.69-4.391 11.538-4.391 11.538l30.521-.93c.069-4.268-2.456-14.194-2.979-15.778s1.218-6.767 1.218-6.767 3.441-3.504 3.317-5.307a29.27 29.27 0 0 0-.599-4.819l18.581.688-.585-12.597-26.688-2.671c-.929 2.622-9.332 1.335-9.332 1.335-9.07.303-9.635 1.969-13.406 4.902s-10.013 28.1-10.013 28.1l9.304 2.981z" class="B"/><path d="M93.388 158.125a6.43 6.43 0 0 1-1.603.082c-.998 0-2.367-.068-3.875-.22l-3.84-.557a6.59 6.59 0 0 1-1.562-.4c.538 0 1.075.051 1.603.152l3.833.447 3.847.324a8.48 8.48 0 0 1 1.597.172zm2.092-2.597a7.06 7.06 0 0 1-1.665.571c-2.746.722-5.578 1.058-8.416.998-.587.02-1.175-.036-1.748-.165a11.74 11.74 0 0 1 1.748-.089l4.205-.303 4.129-.689c.573-.153 1.158-.261 1.748-.323zm10.267-11.58c-.014.525-.086 1.047-.214 1.556l-.805 3.697-.991 3.648c-.122.513-.302 1.009-.537 1.48a7.04 7.04 0 0 1 .289-1.542l.888-3.669.908-3.669a6.57 6.57 0 0 1 .462-1.501zM75.666 159.35c-1.592-.246-3.163-.612-4.7-1.095a32.62 32.62 0 0 1-4.611-1.445 33.07 33.07 0 0 1 4.7 1.094c1.571.366 3.112.849 4.611 1.446zm32.146-21.136a2.3 2.3 0 0 1-.785 0 8.15 8.15 0 0 1-2.099-.503c-1.126-.423-2.151-1.077-3.009-1.92a8.63 8.63 0 0 1-1.973-2.974c-.49-1.23-.699-2.554-.612-3.876a6.02 6.02 0 0 1 .943-3.07 3.18 3.18 0 0 1 1.741-1.287 2.1 2.1 0 0 1 .585-.076h.206s-.289 0-.75.186c-.654.241-1.208.695-1.576 1.287-.936 1.473-1.197 4.165-.199 6.678a8.41 8.41 0 0 0 2.126 3.111 9.04 9.04 0 0 0 2.608 1.68 13.27 13.27 0 0 0 2.795.764zm16.042.591a57.45 57.45 0 0 1-.165-6.347c-.054-2.115.01-4.232.192-6.34.173 2.109.228 4.226.166 6.34.057 2.118-.007 4.237-.193 6.347z" class="C"/><path d="M98.612 124.556l.234-3.27s3.799-.42 4.026-4.344 0-12.976 0-12.976l-6.882-3.525-7.639 6.01 1.177 19.619 7.006.448c.535.014 1.055-.184 1.445-.552a2.02 2.02 0 0 0 .634-1.41z" fill="#ffbe9d"/><path d="M99.29 113.835s0 .075-.062.165a.51.51 0 0 1-.193.15c-.076.033-.158.048-.241.043-.44 0-.867-.51-1.019-1.102a1.8 1.8 0 0 1 0-.874c.014-.125.059-.245.131-.349s.169-.187.281-.243a.38.38 0 0 1 .289 0c.069.034.124.09.158.158.048.117 0 .193 0 .186s0-.069-.069-.138a.25.25 0 0 0-.148-.096c-.06-.013-.122-.003-.175.028a.58.58 0 0 0-.204.208c-.049.085-.076.182-.078.28-.058.256-.058.522 0 .778.138.537.509.971.84 1.012.065.009.13.004.193-.014s.121-.048.172-.089c.082-.055.11-.11.124-.103z" fill="#eb996e"/><path d="M105.231 101.845c-.53-1.803-2.45-2.698-4.198-3.194-2.664-.757-5.54-1.088-8.142-.131s-5.726 2.637-5.726 5.508c-1.535-.124-2.416 1.218-3.021 2.884-.387 1.015-.619 2.083-.688 3.167-.193 3.758-1.246 8.949-3.682 11.702-1.376 1.536-3.283 2.596-4.067 4.51-.688 1.659-.33 3.627-.97 5.307-.571 1.48-1.831 2.533-2.753 3.821a10.24 10.24 0 0 0-1.607 4.868 10.25 10.25 0 0 0 .953 5.038 12.53 12.53 0 0 0 3.082 4.006 12.54 12.54 0 0 0 4.413 2.465 17.53 17.53 0 0 0 9.875.096c2.426-.58 4.69-1.703 6.62-3.284a11.05 11.05 0 0 0 3.84-6.36c.489-2.809-.296-5.666-.881-8.461-1.831-8.832-1.308-9.293 1.005-17.492.055-.145.083-.296.124-.441l.089-.323c.066-.324.1-.654.103-.985-.338.126-.704.153-1.057.077s-.676-.25-.932-.503a2.07 2.07 0 0 1-.468-2.066c.162-.387.404-.736.71-1.025a3 3 0 0 1 1.065-.647c.764-.317 1.583-.482 2.333-.833 1.59-.758 2.691-2.327 3.441-3.972.617-1.141.807-2.464.537-3.732z" class="C"/><path d="M99.57 114.022c.145.215.266.446.358.688l.784 1.756.055.131h-.144l-.688.062c-.475 0-.874.089-1.342.082-.041-.009-.078-.028-.11-.056s-.055-.063-.069-.102a.31.31 0 0 1 0-.193c.016-.093.037-.185.062-.275l.124-.489c.062-.326.159-.645.289-.95a4.65 4.65 0 0 1-.145.984l-.096.489c-.034.165-.096.42 0 .399.344 0 .833-.075 1.287-.103l.688-.062-.09.152-.688-1.783a2.7 2.7 0 0 1-.275-.73z" class="B"/><path d="M76.004 171.965l30.521-.929 13.282 51.864-2.443 59.492h-16.138l1.975-58.225-11.802-36.107 1.817 96.638-16.31.241-1.714-90.835c-.076-2.526-.901-8.219-.592-10.725l1.404-11.414z" class="C"/><g fill="#fff"><path d="M95.461 188.796a6.13 6.13 0 0 1-1.493-.09l-3.565-.578-3.517-.847c-.478-.105-.941-.271-1.376-.495 0-.103 2.243.433 4.996.991l4.955 1.019zm21.737 90.33c0 .097-3.654.179-8.162.179s-8.168-.082-8.168-.179 3.654-.179 8.168-.179l8.162.179zm-24.128 3.063c0 .103-3.551.179-7.928.179s-7.921-.076-7.921-.179 3.551-.179 7.921-.179l7.928.179z" fill-opacity=".4"/><path d="M90.965 281.938c-.096 0-.523-21.113-.957-47.156l-.599-47.169c.09 0 .53 21.107.957 47.163l.599 47.162zm24.067-2.811c-.007-.094-.007-.188 0-.282v-.826l.097-3.167.406-11.654 1.466-38.448v-.406.048l-9.256-37.07-2.753-11.228-.73-3.056-.186-.799a1.28 1.28 0 0 1-.048-.275c.036.087.064.176.083.268l.22.785.798 3.043 2.87 11.2 9.359 37.05v.048.406l-1.576 38.44-.516 11.648-.158 3.167c0 .351-.041.626-.048.826.001.095-.008.189-.028.282zm-5.266-55.991a18.44 18.44 0 0 1-3.565.791l-3.324.462v-.138c.186.055.282.089.282.117s-.117 0-.31 0h-.412l.412-.124c.537-.158 1.803-.42 3.29-.688a18.51 18.51 0 0 1 3.627-.42zm-.281 1.977c-1.073.05-2.149.001-3.214-.144a18.2 18.2 0 0 1-3.2-.351c2.151-.176 4.316-.008 6.414.495z" fill-opacity=".4"/></g><g fill="#000"><path opacity=".2" d="M75.875 173.06a4.2 4.2 0 0 0 1.336 1.124c.519.276 1.091.44 1.678.48 1.229.146 2.473.122 3.696-.069 7.88-.874 16.227-1.68 23.942-3.559-9.986.558-20.536.372-30.521.929l-.103.854"/><path d="M86.163 187.139l5.629 21.85-.392-20.927-5.237-.923z" class="F"/></g></svg>