<svg xmlns="http://www.w3.org/2000/svg" xmlns:xlink="http://www.w3.org/1999/xlink" width="344" height="404" fill="none" xmlns:v="https://vecta.io/nano"><style><![CDATA[.B{fill:#1f1b2d}.C{fill:#fd5631}.D{fill:#d1734a}.E{fill:#efecf3}.F{fill:#eb996e}]]></style><path d="M237.914 86.228L29.445 108.152 57.419 373.58l208.469-21.925-27.974-265.427z" class="E"/><g fill="#f5f4f8"><path d="M245.861 91.909L39.473 122.832l36.447 242.743 206.389-30.923-36.447-242.743z"/><path d="M327.045 113.829s-8.198-5.397-18.129 14.113-13.731 30.75-13.731 30.75-2.632 4.046-5.443 1.416-6.667-10.261-11.447-8.901c-4.957 1.416-6.593 6.943-5.67 15.067s2.365 25.992 2.487 27.611-.81 3.924-2.997 2.427-14.914-15.642-21.265-9.217 0 28.614.657 31.058.17 3.48-.997 4.046-4.982-4.548-8.757-8.416-8.837-7.695-12.191-3.69-4.423 20.668 11.438 47.744l8.182 12.081 14.581-.809c31.171-3.633 43.841-14.517 45.023-19.615s-4.917-6.814-10.288-7.502-11.786-.623-12.005-1.909.332-2.299 2.674-3.237 23.905-9.25 25.209-18.183-17.635-10.52-20.179-11.402-1.215-2.978.122-3.844 16.501-10.52 23.564-14.646 10.491-8.764 8.644-13.571c-1.79-4.637-10.175-3.14-14.006-3.771s-2.147-5.195-2.147-5.195 6.732-9.792 16.331-29.488.121-23.006.121-23.006"/></g><g fill="#000"><path opacity=".1" d="M318.101 131.289l-.187.421-.567 1.222-2.235 4.717-8.36 17.131-28.199 56.16-28.352 56.151-8.49 17.066-2.252 4.637-.615 1.206-.219.396s.057-.145.178-.421l.575-1.221 2.236-4.67 8.352-17.131 28.206-56.216 28.353-56.143 8.481-17.066 2.317-4.637.608-1.197.17-.405z"/><path opacity=".1" d="M283.254 162.082c.163.313.288.645.373.987l.81 2.744 2.341 9.152 2.146 9.2.665 2.784c.103.335.174.679.21 1.028a4.62 4.62 0 0 1-.38-.987l-.811-2.744-2.276-9.176-2.211-9.177-.681-2.775c-.093-.339-.155-.686-.186-1.036zm7.891 26.154c0-.121 6.569-2.12 14.751-4.475s14.848-4.151 14.881-4.046-6.57 2.129-14.752 4.475l-14.88 4.046zm-18.579 32.867c.357-.057.718-.073 1.078-.049h2.924l9.64-.145 9.623-.575 2.917-.227a4.41 4.41 0 0 1 1.077 0c-.344.1-.696.168-1.053.203l-2.908.372-9.64.712h-9.664l-2.924-.154a5.14 5.14 0 0 1-1.07-.137zm-12.339-22.087a4.34 4.34 0 0 1 .567.809l1.409 2.306c1.175 1.958 2.131 5.317 4.504 7.688l4.391 7.76 1.288 2.371a3.88 3.88 0 0 1 .413.906 4.25 4.25 0 0 1-.567-.809l-1.41-2.306-4.504-7.688-4.39-7.752-1.288-2.339a3.81 3.81 0 0 1-.413-.946zm-20.086 26.937c.273.327.515.679.721 1.052l1.814 2.946 5.857 9.815 5.735 9.873 1.693 3.026c.222.36.412.739.567 1.133-.272-.325-.513-.674-.721-1.044l-1.814-2.953-5.849-9.808-5.743-9.881-1.693-3.018a7.26 7.26 0 0 1-.567-1.141zm16.183 27.067a8.74 8.74 0 0 1 1.361-.097l3.71-.114 12.216-.582c4.763-.308 9.081-.696 12.2-1.004l3.694-.356c.45-.067.905-.094 1.36-.081-.439.115-.885.199-1.336.251a99.92 99.92 0 0 1-3.686.502c-3.111.388-7.42.809-12.2 1.133s-9.105.429-12.248.453h-3.71c-.456.009-.912-.026-1.361-.105z"/></g><path d="M14.195 246.957c1.443-.732 3.019-1.165 4.634-1.274s3.235.11 4.763.643c3.061 1.082 5.832 2.851 8.101 5.171 4.488 4.337 7.291 10.948 8.911 16.993-6.804 1.36-13.844-2.541-17.287-4.742-5.452-3.479-13.188-13.069-9.113-16.775m38.222 22.923a10.25 10.25 0 0 1-3.986-3.52c-.995-1.503-1.577-3.242-1.684-5.041-.079-1.805.201-3.607.826-5.302a13.62 13.62 0 0 1 2.811-4.571c1.118-1.238 2.6-2.371 4.261-2.29.778.087 1.518.378 2.146.844a4.41 4.41 0 0 1 1.427 1.81 8.83 8.83 0 0 1 .559 4.588c-.51 5.317-1.977 10.367-6.318 13.482" class="C"/><g class="B"><path d="M63.413 286.804a6.53 6.53 0 0 1-.891-.923l-2.349-2.597c-1.928-2.218-4.747-5.317-6.562-9.525a22.07 22.07 0 0 1-1.831-11.377 14.54 14.54 0 0 1 .81-3.415 9.2 9.2 0 0 1 .381-.882c.089-.195.146-.3.162-.292-.509 1.504-.864 3.054-1.061 4.629-.304 3.831.371 7.676 1.96 11.175 1.766 4.127 4.512 7.235 6.383 9.5l2.236 2.695c.285.312.54.651.761 1.012z"/><path d="M20.742 253.738c.171.082.333.18.486.292l1.32.898 4.812 3.399a530.8 530.8 0 0 1 15.561 11.644 557.5 557.5 0 0 1 15.156 12.179l4.488 3.811 1.199 1.06.397.397a3 3 0 0 1-.454-.324l-1.256-.995-4.577-3.698-15.262-12.042-15.472-11.741-4.723-3.512-1.28-.971c-.147-.117-.28-.25-.397-.397z"/></g><path d="M49.906 279.364a24.05 24.05 0 0 0-10.927-2.816c-3.815-.059-7.588.79-11.009 2.476-1.725.874-3.548 2.347-3.394 4.273s2.203 3.099 4.05 3.649c3.907 1.069 8.043.957 11.887-.32a20.51 20.51 0 0 0 9.71-6.857" class="C"/><path d="M33.156 281.945a5.71 5.71 0 0 1 1.061-.582 11.4 11.4 0 0 1 1.296-.591c.576-.249 1.166-.465 1.766-.647a20.37 20.37 0 0 1 2.195-.615c.853-.199 1.715-.353 2.584-.461 1.997-.224 4.013-.224 6.011 0a25.98 25.98 0 0 1 5.84 1.424c.83.308 1.642.665 2.43 1.068.684.343 1.349.721 1.993 1.133.608.348 1.085.76 1.539 1.076a11.38 11.38 0 0 1 1.102.898 6.4 6.4 0 0 1 .875.809c-.073.081-1.328-1.108-3.686-2.54a21.31 21.31 0 0 0-1.985-1.069c-.774-.383-1.569-.724-2.382-1.019a26.73 26.73 0 0 0-5.743-1.36 27.83 27.83 0 0 0-5.914 0 25.29 25.29 0 0 0-2.552.421c-.81.138-1.523.364-2.187.542-2.673.793-4.204 1.603-4.245 1.513z" class="B"/><path d="M260.194 311.102c-5.671-3.641-7.712-8.31-8.603-14.986a23.59 23.59 0 0 1 .885-9.973c1.005-3.223 2.689-6.194 4.939-8.712 3.775-4.16 9.073-7 11.819-11.904 2.917-5.227 2.544-12.138 6.708-16.467 2.867-2.954 7.185-3.876 10.717-5.98 2.892-1.716 5.225-4.2 7.841-6.296s5.76-3.876 9.113-3.755c5.063.186 9.187 4.985 9.616 10.026s-2.195 9.978-5.93 13.401c-2.705 2.476-6.083 4.426-7.793 7.679-3.24 6.094.705 14.251-2.77 20.231-2.536 4.345-8.579 6.611-9.235 11.604-.243 1.837.349 3.674.405 5.527.178 5.786-5.055 10.649-10.717 11.895s-11.543-.315-17.011-2.266" class="E"/><path opacity=".2" d="M293.466 253.775c-.163.245-.351.473-.559.68l-1.709 1.837-2.673 2.937-3.411 3.998-3.888 5.041-2.058 2.889-2.065 3.14a111.44 111.44 0 0 0-7.842 14.752c-2.18 5.132-3.954 10.427-5.306 15.836-.575 2.509-1.134 4.855-1.458 7.154l-.867 6.295c-.218 1.934-.291 3.69-.421 5.236s-.138 2.873-.154 3.965l-.056 2.509c.007.293-.018.586-.073.874a3.83 3.83 0 0 1-.065-.874c0-.648-.041-1.481-.073-2.517a58.59 58.59 0 0 1 0-3.973c.057-1.546.081-3.326.316-5.268s.381-4.046.81-6.344.81-4.678 1.401-7.202c1.335-5.457 3.11-10.796 5.306-15.966a107.61 107.61 0 0 1 7.947-14.825l2.098-3.14c.681-1.019 1.426-1.95 2.098-2.881 1.345-1.869 2.73-3.503 3.978-5.009s2.43-2.791 3.491-3.948 1.985-2.104 2.77-2.865l1.807-1.748a4.33 4.33 0 0 1 .656-.583z" fill="#000"/><path d="M265.252 106.213H56.555v245.458h208.697V106.213z" fill="#fff"/><path d="M265.258 351.671l-.194-245.458.194.186H56.577l.211-.21v245.458l-.178-.178 208.705.178-208.705.178h-.227v-.178-245.458-.21h.235 208.681.186v.194l-.227 245.498zM157.506 219.618v-.453-1.311-5.065l-.081-18.879.138.129-81.889.081.211-.21v25.708l-.203-.202 58.527.089 17.141.057h4.609 1.199.413-.389-1.239-4.561l-17.092.064-58.673.089h-.211v-26.016h.211l81.889.073h.138v.138l-.073 18.959v5.034 1.286c0 .3-.065.429-.065.429zm90.647 34.819v-1.692-4.944l-.057-19.073.106.105-172.545.105.211-.21v25.709l-.211-.203 122.758.089 36.453.057h9.858 2.56.883-.85-2.536-9.81l-36.453.065-122.903.089h-.211v-26.016h.219l172.544.105h.105v.105l-.064 19.138v4.92l-.057 1.651zm0 34.586v-1.691-4.944l-.057-19.073.106.097-172.545.113.211-.21v25.708l-.211-.21 122.758.089 36.453.065h9.858 2.56.883-.85-2.536-9.81l-36.453.056-122.903.097h-.211v-26.04h.219l172.544.113h.105v.106l-.064 19.129v4.92l-.057 1.675zm-.002-69.407v-.453-1.311-5.066l-.073-18.879.138.13-81.89.081.211-.211v25.709l-.211-.202 58.536.089 17.141.056h4.609 1.199.413-.389-1.247-4.561l-17.093.065-58.681.089h-.202v-.202-25.709-.21h.218l81.89.073h.138v.137l-.081 18.96v5.033 1.287c0 .299-.065.534-.065.534z" class="B"/><g class="C"><path d="M92.766 210.484a4.82 4.82 0 0 1-.624.04l-1.847.057-6.723.145h-.259l.081-.242a4.91 4.91 0 0 1 1.296-2.169c.692-.623 1.556-1.023 2.479-1.149l-.049.396a3.11 3.11 0 0 1-1.293-1.053c-.327-.462-.521-1.004-.562-1.569a3.17 3.17 0 0 1 .391-1.825c.311-.556.781-1.005 1.351-1.29.544-.249 1.153-.315 1.738-.188a2.76 2.76 0 0 1 1.503.892 3.24 3.24 0 0 1 .689 2.954c-.111.444-.323.857-.619 1.206a2.99 2.99 0 0 1-1.09.809v-.284a4.58 4.58 0 0 1 2.001.81 4.25 4.25 0 0 1 1.085 1.197 3.23 3.23 0 0 1 .494 1.279l-.154-.316a6.42 6.42 0 0 0-.478-.874 4.12 4.12 0 0 0-1.299-1.231c-.518-.31-1.098-.503-1.699-.565l-.543-.065.51-.218c.37-.173.695-.427.952-.744a2.69 2.69 0 0 0 .53-1.085 2.87 2.87 0 0 0-.632-2.606 2.43 2.43 0 0 0-1.294-.743c-.499-.106-1.018-.053-1.485.152-.49.25-.895.642-1.16 1.123a2.75 2.75 0 0 0-.33 1.58 2.7 2.7 0 0 0 1.62 2.282l.689.275-.737.122c-.844.11-1.635.474-2.268 1.043a4.58 4.58 0 0 0-1.223 1.983l-.178-.235 6.594.057h1.896a4.85 4.85 0 0 1 .648.049zm96-.004c-.204.028-.41.042-.616.041l-1.855.056-6.724.146h-.251l.073-.243a4.91 4.91 0 0 1 1.296-2.168 4.65 4.65 0 0 1 2.479-1.166l-.048.397c-.518-.227-.964-.592-1.29-1.054s-.518-1.004-.557-1.568a3.14 3.14 0 0 1 .382-1.826 3.15 3.15 0 0 1 1.351-1.289 2.77 2.77 0 0 1 1.737-.186c.584.127 1.112.439 1.503.89.347.399.589.877.708 1.392s.109 1.051-.027 1.561a2.98 2.98 0 0 1-.62 1.207c-.296.349-.669.626-1.089.808v-.283c.722.106 1.408.384 2.001.809.437.324.806.731 1.085 1.198a3.23 3.23 0 0 1 .494 1.278l-.154-.315c-.129-.307-.29-.6-.478-.874a4.09 4.09 0 0 0-1.294-1.231 4.1 4.1 0 0 0-1.695-.566l-.543-.064.503-.219a2.72 2.72 0 0 0 .954-.744c.258-.317.441-.688.536-1.085a2.87 2.87 0 0 0 .002-1.381 2.88 2.88 0 0 0-.642-1.224c-.337-.383-.788-.647-1.287-.754a2.38 2.38 0 0 0-1.483.163c-.493.248-.899.638-1.167 1.121a2.74 2.74 0 0 0-.332 1.582c.035.492.205.965.491 1.367a2.69 2.69 0 0 0 1.129.915l.689.275-.737.121c-.845.111-1.636.475-2.269 1.044-.569.545-.988 1.228-1.215 1.983l-.178-.235 6.586.057h1.904a4.71 4.71 0 0 1 .648.064zm-97.547 63.459a3.24 3.24 0 0 1-.073-.526 2.61 2.61 0 0 0-.292-1.23 2.06 2.06 0 0 0-1.49-1.02 1.99 1.99 0 0 0-1.097.165c-.343.158-.634.409-.839.725-.179.271-.285.583-.308.907v.987l-.194-.202a42.79 42.79 0 0 1 4.326.194 34.53 34.53 0 0 1-4.326.202h-.203v-.202-1.012a2.23 2.23 0 0 1 .364-1.1 2.34 2.34 0 0 1 2.349-1.044 2.28 2.28 0 0 1 1.001.424c.294.22.532.507.692.838.208.441.274.936.186 1.416-.032.348-.097.502-.097.478zm-1.404 5.261a7.12 7.12 0 0 1-.389-.947v-.089l.089-.065a.67.67 0 0 0 .162-.873.62.62 0 0 0-.182-.224c-.077-.06-.168-.1-.264-.118a.63.63 0 0 0-.541.154.63.63 0 0 0-.161.24c-.034.092-.046.19-.035.287a.62.62 0 0 0 .098.271c.053.082.125.15.21.199l.13.073-.04.137-.243.963-.154-.194a9.96 9.96 0 0 1 1.345.154 4.33 4.33 0 0 1-1.345.161H88.3v-.21l.178-.979.089.21c-.129-.078-.239-.184-.322-.31a1.02 1.02 0 0 1-.158-.419c-.021-.15-.008-.301.037-.445s.122-.277.224-.387a1 1 0 0 1 .907-.316 1.02 1.02 0 0 1 .423.171c.126.089.231.204.306.339a.97.97 0 0 1 .089.721c-.065.243-.222.452-.437.582l.065-.154a2.88 2.88 0 0 1 .113 1.068z"/><path d="M91.82 273.949a.93.93 0 0 1 .356 0 1.62 1.62 0 0 1 .757.491 1.63 1.63 0 0 1 .377.82v.874 2.12 1.23a6.82 6.82 0 0 1-.049 1.384 1.71 1.71 0 0 1-.38.692 1.73 1.73 0 0 1-.649.449c-.257.103-.534.147-.81.129h-.81-3.24-.859a1.76 1.76 0 0 1-1.345-.528 1.76 1.76 0 0 1-.393-.626 1.75 1.75 0 0 1-.101-.731v-3.642-.866a2.27 2.27 0 0 1 .113-.914 1.74 1.74 0 0 1 1.377-1.109l-.162.186v-1.132a2.86 2.86 0 0 1 .332-1.085 2.94 2.94 0 0 1 1.717-1.327c.543-.196 1.133-.224 1.693-.08s1.062.455 1.442.889a2.74 2.74 0 0 1 .705 2.015 5.8 5.8 0 0 1-.073.761 4.04 4.04 0 0 1-.049-.753c-.004-.696-.273-1.364-.753-1.869a2.63 2.63 0 0 0-1.033-.668c-.392-.138-.812-.18-1.224-.124a2.62 2.62 0 0 0-1.147.447c-.341.237-.621.553-.816.92a2.56 2.56 0 0 0-.284.954v1.109.162h-.162a1.37 1.37 0 0 0-.648.29 1.36 1.36 0 0 0-.414.576 2.13 2.13 0 0 0-.081.809v.866 3.641a1.36 1.36 0 0 0 .689 1.303 1.49 1.49 0 0 0 .729.17h4.115c.482.046.968.018 1.442-.081.196-.076.371-.198.511-.353s.243-.343.299-.545c.059-.426.081-.857.065-1.287v-1.23-2.12-.858c-.021-.227-.096-.446-.219-.639a1.83 1.83 0 0 0-1.021-.72zm3.549-26.918c-.024-.207-.037-.415-.04-.624l-.057-1.691-.154-6.004.17.17-12.345.162.178-.243v1.084 1.093 2.128 3.989l-.194-.186h8.838 2.56c.316-.008.633.006.948.041a5.48 5.48 0 0 1-.859.048l-2.519.081-8.968.178h-.186v-.194l-.049-3.998v-2.128-1.084-1.093l.211-.218 12.345-.081h.17v.17 6.109 1.619a2.5 2.5 0 0 1-.049.672z"/><path d="M95.27 238.715c-.518.533-1.091 1.011-1.709 1.424l-4.293 3.188h-.284l-.081-.056-.162-.114-.316-.218-.616-.429-1.158-.809-1.952-1.408a11.73 11.73 0 0 1-1.734-1.392c.67.321 1.308.706 1.904 1.149l2.001 1.335 1.175.809.624.429.316.219.154.105.081.057h.041-.227l4.374-3.092c.584-.454 1.207-.855 1.863-1.197z"/><path d="M83.262 247.145a12.95 12.95 0 0 1 1.887-2.735c.636-.918 1.384-1.752 2.228-2.484a12.78 12.78 0 0 1-1.896 2.743c-.633.915-1.379 1.747-2.22 2.476zm8.14-5.219a12.57 12.57 0 0 1 2.147 2.427 12.46 12.46 0 0 1 1.814 2.687 12.5 12.5 0 0 1-2.147-2.428c-.721-.811-1.331-1.715-1.815-2.686z"/><use xlink:href="#B"/></g><use xlink:href="#B" opacity=".09" fill="#000"/><use xlink:href="#B" y="-3.658" class="C"/><path d="M147.313 312.364a2.78 2.78 0 0 1 .214-1.106 2.79 2.79 0 0 1 .635-.931c.273-.264.598-.469.953-.603s.735-.194 1.114-.176a2.72 2.72 0 0 1 1.142.201 2.73 2.73 0 0 1 .956.657l-.51.493a2.13 2.13 0 0 0-1.089-.617c-.416-.092-.851-.057-1.247.1a2.13 2.13 0 0 0-.977 3.173c.24.353.58.625.977.783a2.13 2.13 0 0 0 2.336-.517l.51.493c-.268.287-.595.513-.959.662a2.73 2.73 0 0 1-1.147.204c-.379.017-.757-.044-1.112-.179a2.79 2.79 0 0 1-.949-.603 2.78 2.78 0 0 1-.634-.93c-.145-.35-.218-.725-.213-1.104zm9.819 2.749l-1.191-1.692h-.34-1.369v1.675h-.81v-5.502h2.155c1.425 0 2.292.72 2.292 1.918.019.382-.09.759-.308 1.074a1.74 1.74 0 0 1-.899.665l1.304 1.845-.834.017zm0-3.585c0-.809-.527-1.23-1.531-1.23h-1.345v2.476h1.345c.98 0 1.507-.461 1.507-1.246h.024zm6.038 2.902v.68h-4.002v-5.503h3.888v.688h-3.102v1.691h2.77v.664h-2.77v1.78h3.216zm4.786-.696h-2.933l-.607 1.376h-.811l2.495-5.503h.811l2.503 5.503h-.81l-.648-1.376zm-.276-.623l-1.191-2.702-1.19 2.702h2.381zm3.336-2.816h-1.887v-.688h4.561v.688h-1.896v4.815h-.81l.032-4.815zm7.525 4.135v.68h-4.002v-5.503h3.888v.688h-3.102v1.691h2.762v.664h-2.762v1.78h3.216z" fill="#fff"/><path d="M137.144 147.799c22.255-22.232 22.255-58.277 0-80.508s-58.338-22.232-80.593 0-22.255 58.276 0 80.508 58.338 22.232 80.593 0z" class="E"/><path d="M129.495 30.599c-.996 1.249-1.604 2.763-1.748 4.354a8.16 8.16 0 0 0 .938 4.596c.713 1.279 1.798 2.428 1.961 3.876.267 2.355-2.018 4.475-1.621 6.822.251 1.618 1.621 2.727 2.366 4.159a5.48 5.48 0 0 1-.624 5.834c-1.037 1.262-2.665 2.064-3.337 3.561-.503 1.101-.381 2.428-.811 3.536a5.49 5.49 0 0 1-1.744 2.189c-.761.567-1.656.928-2.597 1.047-1.895.227-3.814.121-5.671-.316l.413-2.047c-.351.544-.83.994-1.394 1.311s-1.199.492-1.846.51a11.63 11.63 0 0 1-3.824-.566c-.769-3.472-1.523-7.137-.437-10.52.988-3.043 3.321-5.422 5.265-7.963 2.159-2.821 3.887-5.946 5.128-9.274.891-2.387 1.531-4.855 2.779-7.121s3.24-4.224 5.735-4.701" class="B"/><path d="M166.56 78.418l-11.277.809-.113-2.897c-.15-1.435.192-2.879.972-4.095.125-.214.215-.446.267-.688.081-.858-1.182-5.163-1.62-6.741-.551-1.894.527-2.897.948-2.12.762 1.416 2.779 7.493 3.41 8.092s.268-2.581.268-2.581c-.988-6.692-1.418-7.663-.227-7.914 1.369-.291 2.876 9.67 2.876 9.67s-.203-1.392.867-1.675 1.563 1.084 1.563 1.084c-.138-.704.875-.809.875-.809 2.527.348 1.215 9.953 1.215 9.953l-11.276.809-5.403 37.669-5.768-8.828-15.051 10.73 13.569 16.184a12.03 12.03 0 0 0 4.336 3.257 12.05 12.05 0 0 0 5.328 1.024 12.01 12.01 0 0 0 7.974-3.427c2.138-2.096 3.413-4.915 3.577-7.902l2.69-49.605z" class="F"/><g class="D"><path d="M157.739 78.521c-.048-.057.551-.583 1.353-1.57.466-.578.888-1.189 1.264-1.829l.615-1.165a2.67 2.67 0 0 0 .389-1.23.52.52 0 0 0-.324-.469c-.221-.037-.449 0-.648.105a7.27 7.27 0 0 0-1.255.753 7.02 7.02 0 0 0-1.621 1.724l-.129.186-.097-.194a4.23 4.23 0 0 0-.891-1.109s.615.146 1.142 1.02h-.227a6.53 6.53 0 0 1 1.62-1.877 7.06 7.06 0 0 1 1.32-.809 1.39 1.39 0 0 1 .94-.129.94.94 0 0 1 .624.81c-.015.521-.166 1.028-.437 1.473a12.51 12.51 0 0 1-.657 1.173 12.58 12.58 0 0 1-1.369 1.829 6.39 6.39 0 0 1-1.612 1.311zm4.465-8.037a10.55 10.55 0 0 1 0 2.072c0 .68-.073 1.432-.122 2.233a8.53 8.53 0 0 0 0 1.279c0 .397.381.736.664.575s.446-.647.567-1.076l.308-1.27.43-2.193a8.83 8.83 0 0 1 .477-2.015 11.7 11.7 0 0 1-.186 2.063l-.34 2.225-.292 1.303a2.01 2.01 0 0 1-.269.753 2.02 2.02 0 0 1-.541.59.81.81 0 0 1-.899-.154 1.15 1.15 0 0 1-.356-.745c-.026-.454-.01-.909.048-1.359l.219-2.233c.026-.691.124-1.377.292-2.047z"/><path d="M164.13 73.359c.065 0-.097.469-.048 1.198a2.29 2.29 0 0 0 .348 1.133c.138.138.235.146.365 0 .145-.22.27-.453.372-.696a24.11 24.11 0 0 0 1.207-3.941 7.51 7.51 0 0 1-.81 4.119c-.116.283-.26.554-.429.809-.06.077-.136.139-.223.183a.64.64 0 0 1-.279.068.64.64 0 0 1-.478-.243c-.162-.216-.265-.469-.3-.736-.042-.213-.061-.43-.057-.647-.024-.842.26-1.27.332-1.246z"/></g><path d="M116.641 144.172l1.053 16.378c-32.07 12.276-55.894-8.092-55.894-8.092l4.796-14.655.81-25.587-6.157 6.822-2.908-2.428-14.67-12.203-3.151-2.63 15.254-16.079c19.288-20.74 34.298-14.404 34.298-14.404l22.552 2.112s15.602 2.209 23.152 15.869l12.84 22.893-19.328 13.756-6.149-11.28-6.497 29.528z" fill="#666276"/><path d="M39.863 107.329l.057 2.889c.133 3.799.649 7.576 1.539 11.272v.105c.113.461.243.914.373 1.368.502 1.78 1.166 3.35 1.798 5.073a21.58 21.58 0 0 0 .251.648c2.041-.534 7.461-5.665 14.079-12.357l-14.686-12.235c-1.887 2.055-2.779 2.994-3.41 3.237zm70.714-31.795l1.725-11.442s7.364-.202 10.15-9.379c2.657-8.756 4.051-29.625 4.051-29.625a27.28 27.28 0 0 0-15.918-3.48 27.26 27.26 0 0 0-15.059 6.215L89.855 73.26c-.656 5.268 3.362 10.034 9.024 10.698 5.711.663 10.977-3.107 11.698-8.424z" class="F"/><g class="B"><path d="M121.594 40.863a1.22 1.22 0 0 1-.449.798c-.248.198-.563.292-.879.262a1.16 1.16 0 0 1-.447-.118 1.17 1.17 0 0 1-.367-.283 1.16 1.16 0 0 1-.227-.403 1.17 1.17 0 0 1-.053-.459c.043-.313.205-.597.452-.793s.562-.289.877-.259a1.17 1.17 0 0 1 1.038.798 1.16 1.16 0 0 1 .055.457zm2.136-1.077c-.17.138-.988-.663-2.284-.809s-2.341.348-2.43.17.129-.348.583-.591a3.37 3.37 0 0 1 1.993-.324 3.24 3.24 0 0 1 1.798.866c.332.324.421.639.34.688zm-15.44-.522a1.22 1.22 0 0 1-.451.796c-.248.197-.563.288-.878.256a1.16 1.16 0 0 1-.447-.115c-.139-.068-.264-.163-.366-.28a1.17 1.17 0 0 1-.228-.401c-.048-.148-.066-.303-.052-.458a1.22 1.22 0 0 1 .449-.798c.248-.198.563-.292.879-.262a1.18 1.18 0 0 1 .811.403 1.16 1.16 0 0 1 .227.401c.049.148.068.303.056.458z"/><path d="M110.136 38.393c-.17.137-.988-.664-2.284-.809s-2.341.34-2.43.162.13-.34.583-.583c.616-.309 1.311-.422 1.993-.324a3.15 3.15 0 0 1 1.798.866c.324.324.421.631.34.688zm3.77 10.042c.672-.078 1.356-.098 2.035-.058.312 0 .617 0 .701-.148a.83.83 0 0 0-.084-.659l-.595-1.728c-.815-2.455-1.356-4.463-1.211-4.489s.922 1.955 1.73 4.41l.556 1.733a.9.9 0 0 1 0 .859c-.06.072-.143.133-.242.179a1.03 1.03 0 0 1-.33.09c-.179.016-.361.016-.541 0-.681-.006-1.36-.069-2.019-.19z"/></g><path d="M112.28 64.094a24.13 24.13 0 0 1-12.151-5.082s2.163 6.862 11.681 7.283l.47-2.201z" class="D"/><path d="M116.759 22.191c.608 1.481-.348 3.237-1.701 4.046a11.84 11.84 0 0 1-4.593 1.295 8.41 8.41 0 0 0-4.423 1.683c-2.203 1.999-1.62 4.855-3.848 7.453a4.79 4.79 0 0 1-2.056 1.646 4.8 4.8 0 0 1-2.618.312c-1.782-.251-4.091.162-4.99 2.217s.186 3.569 1.183 5.454.729 3.819.162 5.883c-.405 1.489-1.685 2.654-1.969 4.176-.454 2.428 1.62 5.13.219 7.121s-4.958 1.109-6.521 2.962c-.567.656-.891 1.618-1.725 1.877-.519.073-1.047-.024-1.507-.275l-7.291-3.083.575-2.266a4.86 4.86 0 0 1-1.933 1.214c-.732.245-1.511.313-2.275.198s-1.488-.411-2.114-.862-1.136-1.044-1.487-1.731a21.87 21.87 0 0 0 4.212-3.18c1.254-1.248 2.016-2.906 2.147-4.669.073-2.136-1.085-4.297-.437-6.328.932-2.905 4.86-3.633 6.594-6.126 1.62-2.331 1.077-5.713 2.754-8.019 1.952-2.67 6.075-2.792 8.311-5.236 1.515-1.618 1.863-4.046 2.965-6.012 1.427-2.311 3.656-4.017 6.261-4.791a24.09 24.09 0 0 1 7.979-.931c2.022-.095 4.036.308 5.865 1.173 1.758.979 3.087 2.986 2.674 4.96" class="B"/><path d="M97.524 38.648c-.975-.354-2.03-.43-3.046-.219-.508.105-.99.308-1.418.6a3.92 3.92 0 0 0-1.077 1.099 4.14 4.14 0 0 0-.437 2.994c.243 1.009.708 1.952 1.361 2.759.418.606.973 1.105 1.62 1.457.329.177.696.27 1.069.27s.741-.093 1.069-.27" class="F"/><path d="M96.131 44.654c.113.057-.413.607-1.296.227-.461-.226-.817-.62-.996-1.1-.204-.556-.295-1.148-.267-1.74.011-.63.246-1.236.664-1.707a1.75 1.75 0 0 1 1.426-.591c.948.105 1.15.809 1.045.809s-.405-.316-1.045-.259c-.397.095-.747.328-.987.657s-.356.733-.325 1.139c0 1.052.235 2.047.753 2.363s.98.138 1.029.202z" class="D"/><g class="B"><path d="M116.796 22.74c-.369 1.012-.377 2.12-.023 3.137a4.68 4.68 0 0 0 1.967 2.446c1.054.607 2.35.809 3.241 1.619a5.16 5.16 0 0 1 1.361 3.285 11.84 11.84 0 0 0 .672 3.544 2.83 2.83 0 0 0 2.851 1.781l2.034-5.996c.745-2.201 1.498-4.556.964-6.83-.762-3.237-3.97-5.357-7.178-6.239-1.469-.521-3.076-.507-4.536.041-1.393.656-2.341 2.428-1.62 3.803m-5.867 11.84c-.081.097-.365 0-.81-.138a8.23 8.23 0 0 0-1.823-.21 7.91 7.91 0 0 0-1.831.194c-.461.105-.745.227-.81.138s.105-.405.6-.688a4.53 4.53 0 0 1 4.115 0c.421.307.599.631.559.704zm11.79 1.597c-.041.227-.883.299-1.896.154s-1.798-.421-1.798-.688.883-.291 1.895-.146 1.831.453 1.799.68zM94.103 47.08a1.24 1.24 0 0 0 .203.202 3.31 3.31 0 0 1 .437.696 4.97 4.97 0 0 1 .356 2.962c-.263 1.456-.752 2.862-1.45 4.168a3.76 3.76 0 0 0-.356 2.428 11.1 11.1 0 0 0 1.166 2.468c.49.81.704 1.758.611 2.7s-.49 1.829-1.129 2.528a4.05 4.05 0 0 1-2.074 1.262 10.94 10.94 0 0 1-2.066.227 5.22 5.22 0 0 0-2.778.712 3.45 3.45 0 0 0-.753.752s0-.105.105-.267a2.09 2.09 0 0 1 .551-.615 5.01 5.01 0 0 1 2.827-.866c.674-.029 1.343-.119 2.001-.267a3.75 3.75 0 0 0 1.895-1.19 4.32 4.32 0 0 0 1.005-2.233c.089-.891-.11-1.787-.567-2.557a11.14 11.14 0 0 1-1.175-2.581 4.13 4.13 0 0 1 .405-2.638l.964-2.136a11.32 11.32 0 0 0 .551-1.942 5.08 5.08 0 0 0-.219-2.849c-.284-.639-.543-.939-.51-.963z"/><path d="M131.725 68.865a1.09 1.09 0 0 1-.519.097 1.92 1.92 0 0 1-.741-.199 1.93 1.93 0 0 1-.604-.473 2.67 2.67 0 0 1-.664-2.274c.253-1.045.798-1.996 1.572-2.743.925-.842 1.741-1.796 2.43-2.84a3.69 3.69 0 0 0 .462-1.942 6.4 6.4 0 0 0-.503-2.096c-.727-1.439-1.376-2.917-1.944-4.426a4.66 4.66 0 0 1 0-2.622c.321-.827.725-1.619 1.207-2.363.462-.696.647-1.538.519-2.363-.219-.784-.651-1.493-1.248-2.047l-1.693-1.796c-.522-.627-.898-1.362-1.101-2.153-.317-1.453-.294-2.959.064-4.402l.916-3.682c.51-1.77.419-3.66-.26-5.373-.282-.6-.666-1.148-1.134-1.619l.114.073a2.03 2.03 0 0 1 .291.251 4.23 4.23 0 0 1 .875 1.295c.348.724.56 1.506.624 2.306a10.85 10.85 0 0 1-.243 3.148l-.867 3.69a9.45 9.45 0 0 0 0 4.232 4.99 4.99 0 0 0 1.013 1.999c.494.607 1.102 1.149 1.685 1.764a4.85 4.85 0 0 1 1.369 2.209c.141.921-.057 1.861-.559 2.646-.476.718-.877 1.483-1.199 2.282-.233.792-.233 1.635 0 2.428.555 1.494 1.187 2.958 1.896 4.386.299.709.472 1.465.51 2.233a4.04 4.04 0 0 1-.519 2.12c-.715 1.06-1.561 2.025-2.519 2.873-.751.698-1.29 1.592-1.555 2.581-.08.372-.071.758.026 1.127a2.43 2.43 0 0 0 .533.993c.301.384.739.636 1.223.704.364-.024.543-.073.543-.024z"/></g><path d="M163.515 79.774a14.3 14.3 0 0 0-1.758-1.894c-.724-.466-1.486-.872-2.277-1.214.46-.028.921.036 1.357.187a3.47 3.47 0 0 1 1.179.695 3.39 3.39 0 0 1 .978.959 3.4 3.4 0 0 1 .521 1.267zm-12.085 44.347a12.27 12.27 0 0 1-1.174-3.666 11.77 11.77 0 0 1-.349-3.844 34.54 34.54 0 0 1 .762 3.755 32.18 32.18 0 0 1 .761 3.755z" class="D"/><path d="M99.774 115.047a7.67 7.67 0 0 0 3.599-2.526 7.66 7.66 0 0 0 1.618-4.085c.437-4.216-2.43-7.963-6.311-8.376s-7.453 2.687-7.89 6.903a7.66 7.66 0 0 0 .767 4.364 7.67 7.67 0 0 0 3.057 3.21c-6.076.316-9.016 4.046-10.45 7.38 2.246 3.159 5.556 5.406 9.324 6.328l4.374.453c3.931-.135 7.676-1.7 10.531-4.402-.721-3.552-2.835-7.768-8.619-9.249z" fill="#fff"/><path opacity=".09" d="M67.47 112.214l3.597-3.706s-1.555 26.785-2.617 30.005-6.618 13.943-6.618 13.943l4.796-14.655.843-25.587z" fill="#000"/><path d="M75.434 103.97c.081.081-3.078 3.504-7.064 7.647s-7.291 7.445-7.38 7.364 3.086-3.504 7.072-7.655 7.291-7.437 7.372-7.356zm50.28-2.095a3.91 3.91 0 0 1-.041.809l-.267 2.274-1.296 7.429-1.782 7.339-.665 2.193c-.063.283-.167.556-.308.809a4.04 4.04 0 0 1 .146-.809l.535-2.217 1.661-7.348 1.417-7.396.397-2.25a3.04 3.04 0 0 1 .203-.833zm-16.135-52.854c.21 0 0 1.424 1.085 2.581s2.592 1.222 2.576 1.416-.373.227-1.013.154a3.5 3.5 0 0 1-2.154-1.101 3.06 3.06 0 0 1-.81-2.153c.016-.599.218-.922.316-.898zM91.604 28.058a8.09 8.09 0 0 0 1.725-3.981c.005-1.044-.37-2.054-1.056-2.842s-1.635-1.299-2.671-1.439a4.55 4.55 0 0 0-2.942.822 4.54 4.54 0 0 0-1.757 2.496 4.85 4.85 0 0 0 .336 3.046 4.86 4.86 0 0 0 2.095 2.238 5.14 5.14 0 0 0 5.8-.882" class="B"/><path d="M93.457 23.856c.11 1.056-.179 2.115-.81 2.97-.52.928-1.37 1.627-2.382 1.958.748-.66 1.427-1.395 2.025-2.193a14.51 14.51 0 0 0 1.166-2.735z" fill="#666276"/><use xlink:href="#C" class="C"/><use xlink:href="#C" opacity=".09" fill="#000"/><path d="M119.521 172.603c11.359 0 20.567-9.198 20.567-20.545s-9.208-20.546-20.567-20.546-20.568 9.198-20.568 20.546 9.209 20.545 20.568 20.545z" class="C"/><g fill="#fff"><path d="M119.522 164.21c-.583 0-1.061-5.446-1.061-12.138s.478-12.138 1.061-12.138 1.053 5.446 1.053 12.138-.478 12.138-1.053 12.138z"/><path d="M131.72 152.058c0 .582-5.444 1.052-12.151 1.052s-12.151-.47-12.151-1.052 5.444-1.052 12.151-1.052 12.151.469 12.151 1.052z"/></g><defs ><path id="B" d="M245.998 302.318H77.772c-1.19 0-2.155.964-2.155 2.153v21.97c0 1.189.965 2.152 2.155 2.152h168.226c1.19 0 2.155-.963 2.155-2.152v-21.97c0-1.189-.965-2.153-2.155-2.153z"/><path id="C" d="M119.521 176.414c11.359 0 20.567-9.199 20.567-20.546s-9.208-20.546-20.567-20.546-20.568 9.199-20.568 20.546 9.209 20.546 20.568 20.546z"/></defs></svg>