<svg xmlns="http://www.w3.org/2000/svg" width="86" height="48" fill="none" xmlns:v="https://vecta.io/nano"><path d="M63.001 13C56.926 13 52 17.925 52 24s4.926 11 11.001 11S74 30.075 74 24s-4.925-11-10.999-11zm0 18.915c-4.364 0-7.914-3.551-7.914-7.915s3.55-7.914 7.914-7.914 7.914 3.55 7.914 7.914-3.55 7.915-7.914 7.915z" fill="#efecf3"/><path d="M63.476 13a10.14 10.14 0 0 0-1.476.108c5.113.75 9.973 5.34 9.973 10.892S67.113 34.141 62 34.892c.482.071.975.108 1.476.108C69.288 35 74 30.075 74 24s-4.712-11-10.524-11z" fill="#bbb7c5"/><path d="M49.999 13C43.925 13 39 17.925 39 24a11 11 0 0 0 10.999 11C56.074 35 61 30.075 61 24s-4.926-11-11.001-11zm0 18.915c-4.364 0-7.914-3.551-7.914-7.915s3.55-7.914 7.914-7.914 7.915 3.55 7.915 7.914-3.551 7.915-7.915 7.915z" fill="#efecf3"/><path d="M49.599 13c-.543 0-1.076.037-1.599.108 5.539.75 10.804 5.34 10.804 10.892S53.539 34.141 48 34.892c.523.071 1.056.108 1.599.108C55.895 35 61 30.075 61 24s-5.105-11-11.401-11z" fill="#bbb7c5"/><path d="M36.001 13C29.926 13 25 17.925 25 24s4.926 11 11.001 11S47 30.075 47 24s-4.925-11-10.999-11zm0 18.915c-4.364 0-7.914-3.551-7.914-7.915s3.55-7.914 7.914-7.914 7.914 3.55 7.914 7.914-3.55 7.915-7.914 7.915z" fill="#efecf3"/><path d="M36.476 13a10.14 10.14 0 0 0-1.476.108c5.113.75 9.973 5.34 9.973 10.892S40.113 34.141 35 34.892c.482.071.975.108 1.476.108C42.288 35 47 30.075 47 24s-4.712-11-10.524-11z" fill="#bbb7c5"/><path d="M22.999 13C16.925 13 12 17.925 12 24s4.925 11 10.999 11S34 30.075 34 24s-4.926-11-11.001-11zm0 18.915c-4.364 0-7.914-3.551-7.914-7.915s3.55-7.914 7.914-7.914 7.915 3.55 7.915 7.914-3.551 7.915-7.915 7.915z" fill="#efecf3"/><path d="M22.599 13c-.543 0-1.076.037-1.599.108 5.539.75 10.804 5.34 10.804 10.892S26.539 34.141 21 34.892c.523.071 1.056.108 1.599.108C28.895 35 34 30.075 34 24s-5.105-11-11.401-11z" fill="#bbb7c5"/></svg>