<svg xmlns="http://www.w3.org/2000/svg" width="196" height="80" fill="#fff" fill-rule="evenodd" xmlns:v="https://vecta.io/nano"><path d="M79.729 44.955h1.597c1.795 0 3.84.198 3.84 2.336 0 1.998-1.99 2.277-3.896 2.277h-1.54v-4.612h-.001zm-5.208 8.328h8.234c3.503 0 7.622-.986 7.622-5.681 0-2.392-1.347-3.798-3.949-4.336v-.056c2.184-.732 3.445-2.108 3.445-4.584 0-3.376-2.718-4.979-6.359-4.979h-8.993v19.637zm5.208-15.923h1.515c1.736 0 3.416.167 3.416 1.969 0 1.657-1.764 2.082-3.472 2.082h-1.459v-4.05zm30.816 8.468c0 5.372-3.474 7.791-8.574 7.791s-8.576-2.42-8.576-7.791V33.646h5.212v11.309c0 2.587.7 4.782 3.362 4.782s3.362-2.195 3.362-4.782V33.646h5.211v12.183h.002zm3.971-12.183h5.213v19.637h-5.213V33.646zm9.959 0h5.21V49.4h8.072v3.883h-13.282V33.646zm20.05 3.881h2.016c3.811 0 6.08 2.027 6.08 5.936s-2.184 5.938-6.08 5.938h-2.016V37.527zm-5.212 15.756h7.114c6.671 0 11.573-2.56 11.573-9.903 0-7.597-4.763-9.735-11.573-9.735h-7.114v19.637zM47.857 24.071l12.107 1.675 2.226 38.171s-13.962 4.456-14.704 4.269l.371-44.114z"/><path d="M59.575 26.105l-11.774-1.628.112-.811 12.107 1.674.353.382 2.226 38.171-.284.414-.124-.39.124.39-.157.05-.445.141L60.12 65l-4.884 1.512-5.03 1.479-1.783.463-.586.118-.218.025c-.055.003-.144.006-.233-.016l.2-.794c-.02-.005-.035-.006-.04-.007h.022c.03-.002.077-.007.142-.017l.529-.107 1.748-.454 5.01-1.473 4.877-1.51 1.591-.502.298-.094-2.188-37.518zm-12.03 41.677h0z"/><path d="M47.486 68.185l-9.076-5.191 1.529-34.642 7.919-4.282-.371 44.115z"/><path d="M40.337 28.603L38.83 62.764l8.253 4.72.36-42.722-7.105 3.842zm-.594-.61l7.919-4.282.604.364-.371 44.115-.613.352-9.076-5.191-.206-.374 1.529-34.642.214-.342zm19.851-5.779l-12.038-2.055.159-8.749 11.172 2.792.707 8.013z"/><path d="M47.464 11.085a.41.41 0 0 1 .348-.072l11.171 2.792a.41.41 0 0 1 .309.361L60 22.178l-.408.036-.069.404-12.038-2.055a.41.41 0 0 1-.341-.411l.159-8.749a.41.41 0 0 1 .16-.318zm11.673 10.637l-.635-7.193-10.389-2.596-.144 7.883 11.167 1.907z"/><path d="M40.227 24.629l7.329-4.47.159-8.749-7.036 5.212-.452 8.007z"/><path d="M40.435 16.293l7.036-5.212.653.337-.159 8.749-.196.342-7.329 4.47-.213-.35-.409-.023.452-8.007.165-.306zm.244 7.58l6.471-3.947.14-7.692-6.214 4.603-.398 7.036z"/></svg>