<svg xmlns="http://www.w3.org/2000/svg" width="196" height="80" fill="#fff" xmlns:v="https://vecta.io/nano"><path d="M72.377 34.794c5.457 0 7.634 1.399 7.657 4.847.003.675-.081 1.43-.256 2.269l-2.422 11.698c-.44 2.127-.644 3.607-.452 4.794h-6.628c0-.072-.011-.142-.011-.217l.148-2.486h-.368l-.145.229c-1.19 1.912-3.891 3.094-6.204 3.094-4.03 0-5.583-2.185-4.705-6.447.903-4.368 2.89-6.216 7.869-7.333l3.308-.752c1.96-.432 2.907-1.299 3.256-2.991.368-1.784-.404-2.812-2.065-2.812-1.77 0-2.712.914-3.297 3.192H62.15c1.597-6.14 7.055-7.083 10.229-7.083zm-.073 12.044s-.134.123-.39.223c-.418.162-1.346.312-1.92.457-.446.111-.948.24-1.491.465-1.444.61-2.188 1.614-2.573 3.453-.39 1.884.418 3.208 1.895 3.208 2.581 0 3.392-2.472 3.777-4.331l.719-3.478h-.017l-.702 3.478.702-3.476zm23.751 9.499c-1.397-1.717-1.672-4.415-.708-9.226 2.107-10.469 6.085-12.317 9.547-12.317 1.647 0 4.122.61 4.415 3.498l.047.449h.482l.686-3.323h6.436l-4.78 22.984c-1.135 5.491-4.661 8.225-11.127 8.225-5.99 0-6.879-3.534-7.016-4.624-.053-.415.086-1.642.086-1.642h6.266v.003c.002.56.044 1.382.234 1.614.259.321.473.697 1.466.697 1.318 0 2.581-.379 3.197-3.359l1.065-5.159h-.511l-.144.242c-1.283 2.221-3.671 3.345-6.191 3.345-1.55-.003-2.681-.457-3.451-1.408zm6.392-9.733c-.703 3.409-.672 4.716.016 5.563.343.421.856.624 1.561.624 1.96 0 2.913-1.187 3.908-5.984.708-3.434.783-5.616.103-6.453-.334-.407-.822-.608-1.497-.608-2.021 0-3.102 2.06-4.091 6.857zm24.834-11.185l-4.752 22.984h-6.968l4.758-22.984h6.962zm12.8-7.668L133.739 58.4h-6.968l6.341-30.649h6.969zm11.171 0L144.905 58.4h-6.965l6.341-30.649h6.971zm-54.204 7.044c-2.283 0-5.003 1.597-6.33 4.167l-.137.265h-.51l.786-3.808h-.597v-.003h-6.628c.15.937.059 2.052-.206 3.529l-4.028 19.458h6.971l2.62-12.682c.655-3.166 2.511-4.641 5.837-4.641.574 0 1.079.034 1.572.103l1.324-6.388h-.674zM39.37 57.204c-1.739-2.138-1.817-6.065-.265-13.56 2.481-11.985 6.065-16.03 14.207-16.03 6.506 0 8.992 3.041 7.668 9.407l-.334 1.603h-6.859s.51-3.272.505-3.994c-.006-.811-.033-1.249-.346-1.658a1.84 1.84 0 0 0-1.55-.764c-3.033 0-4.028 2.888-5.753 11.233-1.341 6.478-1.82 9.452-.786 10.723.393.479.984.714 1.814.714 2.386 0 3.328-2.046 4.529-7.743h6.91l-.365 1.75c-1.452 7.024-5.569 10.586-12.236 10.586-3.612-.003-5.878-.725-7.138-2.266zm113.362-29.47h2.09l-.069.334h-.861l-.619 2.996h-.368l.619-2.996h-.862l.07-.334zm4.621 0H158l-.688 3.331h-.368l.652-3.164h-.009c-.136.318-1.452 3.164-1.452 3.164h-.437l-.142-3.164h-.009c-.053.29-.644 3.164-.644 3.164h-.37l.688-3.331h.652l.115 2.601a2.63 2.63 0 0 1-.034.493h.011c.117-.337 1.388-3.094 1.388-3.094zm-29.472 4.973c.546-12.632-14.687-22.114-28.899-19.165S77.904 28.86 76.109 32.682h2.325c3.111-5.232 6.26-9.293 11.629-10.806 3.412-.962 6.09-.741 12.685 2.938 3.038 1.695 9.911 6.793 17.295 7.81 3.205.443 7.838.084 7.838.084z"/></svg>