<svg xmlns="http://www.w3.org/2000/svg" width="196" height="80" fill="#fff" xmlns:v="https://vecta.io/nano"><path d="M143.672 29c-.209 0-.41.083-.557.231a.79.79 0 0 0-.232.557v5.519h14.583l-6.641-6.305-7.153-.002zM158 36.977a.78.78 0 0 0-.06-.301.76.76 0 0 0-.171-.255.79.79 0 0 0-.557-.229h-5.519v14.582l6.304-6.642.003-7.153zm-7.979 14.325a.79.79 0 0 0 .786-.788v-5.519h-14.582l6.639 6.305 7.157.002zm-14.329-7.976a.78.78 0 0 0 .06.301.76.76 0 0 0 .171.256.78.78 0 0 0 .255.171.79.79 0 0 0 .302.06h5.519V29.531l-6.306 6.641-.001 7.154zM68.851 31.661v6.734h-9.383v-6.734l-3.416-.001v16.98h3.416v-7.295h9.383v7.295h3.422V31.661h-3.422zm45.46 0v16.975l14.993-.001-1.9-2.987h-9.665v-4.303h9.359v-2.879h-9.359V34.58h9.65l1.861-2.919h-14.939zm-70.96-.002c-3.556 0-5.351 2.159-5.351 5.304v6.339c0 3.638 2.313 5.338 5.333 5.338l10.719-.002-1.986-3.103h-8.072c-1.714 0-2.461-.619-2.461-2.539v-5.75c0-1.856.628-2.58 2.506-2.58h8.11l1.908-3.007H43.351zm55.965-.005c-2.054 0-4.156 1.233-4.156 4.407v.815c0 3.307 2.025 4.571 4.049 4.58h7.11c.738 0 1.338.122 1.338 1.371v1.443c-.019 1.119-.58 1.378-1.363 1.378H96.94l-1.916 2.987h11.488c2.772 0 4.653-1.378 4.653-4.563v-1.17c0-3.079-1.747-4.532-4.457-4.532h-6.789c-.753 0-1.277-.207-1.277-1.322l-.001-1.173c0-.949.361-1.296 1.237-1.296l8.907-.003 1.862-2.925-11.332.003zm-17.113.01l-8.051 16.974h3.806l1.568-3.506h8.748l1.563 3.506h3.821l-8.07-16.974h-3.385zm1.687 3.523l3.094 7.056h-6.168l3.075-7.056z"/></svg>