<svg xmlns="http://www.w3.org/2000/svg" width="86" height="48" fill="none" xmlns:v="https://vecta.io/nano"><path d="M58.138 6.281L55.269 41.72h-5.207s-.065-3.432-1.658-6.03c-.261-.433-.596-.781-1.006-1.014-1.155-.676-3.027-.892-4.397-.892s-3.242.216-4.397.892c-.41.232-.745.581-1.006 1.014-1.593 2.598-1.658 6.03-1.658 6.03h-5.207L27.863 6.281h3.801c1.677 9.726 2.971 14.868 5.226 19.092.484.908 1.295 1.542 2.217 1.711 1.257.222 2.47.256 3.894.256s2.636-.034 3.894-.256c.922-.169 1.733-.803 2.217-1.711 2.254-4.224 3.549-9.367 5.226-19.092h3.801z" fill="#efecf3"/><path d="M40.717 33.777c-1.369 0-3.242.217-4.397.892-.41.232-.745.581-1.006 1.014-1.593 2.598-1.658 6.03-1.658 6.03h2.283s.065-3.432 1.658-6.03c.261-.433.596-.781 1.006-1.014.856-.501 2.107-.749 3.255-.844l-1.142-.048z" fill="#9691a4"/><path d="M36.822 27.084c1.257.222 2.47.256 3.894.256l1.142-.012c-.958-.022-1.844-.084-2.752-.244-.922-.169-1.733-.803-2.217-1.711-2.254-4.224-3.549-9.367-5.226-19.092h-2.283c1.677 9.726 2.971 14.868 5.226 19.092.484.908 1.295 1.542 2.217 1.711z" fill="#bbb7c5"/><path d="M55.854 6.281L52.984 41.72h2.283l2.869-35.439h-2.283z" fill="#9691a4"/><path d="M54.546 2.813H31.641c-12.617 0-12.79 3.951-12.61 8.758L20 37.334c.164 4.363 3.467 7.853 7.378 7.853h31.244c3.911 0 7.214-3.49 7.378-7.853l.969-25.764c.18-4.807.007-8.758-12.423-8.758zm8.7 8.59l-.969 25.764c-.081 2.174-1.721 3.943-3.655 3.943H27.378c-1.933 0-3.574-1.769-3.655-3.943l-.969-25.764c-.049-1.303.343-2.499 1.104-3.367.458-.522 1.25-1.144 2.424-1.144h33.436c1.173 0 1.965.622 2.423 1.144.76.868 1.153 2.064 1.104 3.367z" fill="#efecf3"/><path d="M26.281 6.89h-2.187c-1.173 0-1.965.622-2.424 1.144-.76.868-1.153 2.064-1.104 3.367l.969 25.764c.081 2.174 1.721 3.943 3.655 3.943h2.187c-1.934 0-3.574-1.769-3.655-3.943l-.969-25.764c-.049-1.303.343-2.499 1.104-3.367.458-.522 1.25-1.144 2.424-1.144z" fill="#bbb7c5"/><path d="M54.546 2.813h-2.187c12.429 0 12.603 3.951 12.423 8.758l-.969 25.764c-.164 4.363-3.467 7.853-7.378 7.853h2.187c3.911 0 7.214-3.49 7.378-7.853l.969-25.764c.18-4.807.007-8.758-12.423-8.758z" fill="#9691a4"/></svg>