<svg xmlns="http://www.w3.org/2000/svg" width="86" height="48" fill="none" xmlns:v="https://vecta.io/nano"><path d="M43 9c-15.464 0-28 6.716-28 15s12.536 15 28 15 28-6.715 28-15S58.464 9 43 9zm18.203 22.627c-3.805 2.039-8.65 3.352-13.943 3.81a46.96 46.96 0 0 1-2.515.151c-.578.022-1.16.032-1.745.032-5.641 0-10.971-.939-15.351-2.676a28.07 28.07 0 0 1-1.986-.874 28.12 28.12 0 0 1-.865-.443c-4.078-2.185-6.417-4.964-6.417-7.626s2.339-5.443 6.417-7.628c3.631-1.945 8.21-3.23 13.22-3.742a46.61 46.61 0 0 1 2.479-.188c.826-.042 1.662-.063 2.504-.063 5.493 0 10.692.891 15.005 2.541.666.255 1.309.527 1.93.818.434.203.858.415 1.268.634 4.078 2.185 6.417 4.965 6.417 7.628s-2.339 5.442-6.417 7.626z" fill="#efecf3"/><path d="M42.708 9L41 9.028c14.83.468 26.584 6.992 26.584 14.973S55.83 38.504 41 38.972a54.53 54.53 0 0 0 1.708.028C58.333 39 71 32.285 71 24.001S58.333 9 42.708 9z" fill="#9691a4"/><path d="M60 15.417c-3.51 6.351-9.877 16.268-12.574 20.426-.822.075-1.654.127-2.495.157 1.197-3.577 3.067-11.301-3.105-11.301-6.001 0-11.471 5.683-13.855 8.559-.681-.282-1.339-.584-1.971-.907 4.847-9.656 9.962-17.024 12.257-20.156.809-.088 1.63-.152 2.459-.195-1.384 3.678-2.593 9.482 3.555 9.482 6.121 0 11.195-4.215 13.815-6.913a27.99 27.99 0 0 1 1.915.848z" fill="#efecf3"/><path d="M58.094 15l-1.608 1.513c-3.06 5.36-7.916 12.898-10.862 17.402-.199.775-.421 1.489-.624 2.086.837-.029 1.666-.08 2.483-.153C50.168 31.772 56.506 22.054 60 15.831A28.08 28.08 0 0 0 58.094 15z" fill="#9691a4"/></svg>