<svg xmlns="http://www.w3.org/2000/svg" width="86" height="48" fill="none" xmlns:v="https://vecta.io/nano"><path d="M43 11c-15.465 0-28 5.883-28 13.148 0 6.292 9.4 11.553 21.971 12.85a.34.34 0 0 0 .343-.194l5.38-11.575a.34.34 0 0 1 .614 0l5.38 11.575a.34.34 0 0 0 .343.194C61.6 35.702 71 30.44 71 24.149 71 16.883 58.465 11 43 11zm11.991 19.242L43.248 17.679a.34.34 0 0 0-.495 0L31.009 30.242c-6.663-.64-11.069-4.282-11.069-7.558 0-4.227 9.475-8.939 23.06-8.939 13.594 0 23.06 4.712 23.06 8.94 0 3.276-4.406 6.917-11.069 7.558z" fill="#f5f4f8"/><path d="M54.903 29.929l.097-.02-11.393-11.809c-.13-.134-.35-.134-.48 0L42 19.268l9.112 9.445c.966 1.002 2.398 1.478 3.79 1.217z" fill="#9691a4"/><path d="M37.671 30.842L35 36.704l2.293.294a.32.32 0 0 0 .324-.187L43 25l-.29.637c-2.338 1.328-3.913 2.736-5.038 5.205z" fill="#bbb7c5"/><path d="M43.389 11L42 11.017c14.605.344 26.222 6.089 26.222 13.132 0 5.88-8.098 10.86-19.277 12.545l.051.111c.06.131.196.209.338.194C61.73 35.702 71 30.44 71 24.149 71 16.883 58.64 11 43.389 11z" fill="#9691a4"/></svg>