<svg xmlns="http://www.w3.org/2000/svg" width="86" height="48" fill="none" xmlns:v="https://vecta.io/nano"><path d="M63.151 27.643c-.634 2.026-1.824 3.905-3.449 5.532H34.011c-5.647 0-3.797-4.244-3.797-4.244 3.188-6.767 10.704-16.664 13.371-20.091 3.006.078 5.856.626 8.41 1.557-5.969 6.706-11.216 13.351-13.362 16.117-.426.548-.026 1.331.66 1.331l23.858-.2z" fill="#efecf3"/><path d="M45.548 9.326c1.822.351 2.583 2.543 1.37 3.946a337.72 337.72 0 0 0-10.84 13.24c-.426.548-.026 1.331.66 1.331l1.979-.017c.087-.001.125-.11.057-.165-.331-.263-.44-.764-.141-1.149 2.135-2.752 7.34-9.343 13.271-16.013.044-.049.024-.128-.038-.15-2.508-.897-5.295-1.427-8.233-1.509-.03-.001-.058.012-.076.036-.046.059-.011.142.061.15.654.078 1.298.178 1.93.3z" fill="#bbb7c5"/><path d="M60.569 27.728c-.62 1.929-1.744 3.722-3.267 5.289-.057.059-.017.157.066.157h2.296c.025 0 .049-.01.067-.028 1.578-1.587 2.743-3.413 3.382-5.381.02-.06-.026-.122-.09-.122l-2.367.02c-.04 0-.075.026-.087.064z" fill="#9691a4"/><path d="M43 7.594c-13.255 0-24 7.345-24 16.406s10.745 16.406 24 16.406S67 33.061 67 24 56.255 7.594 43 7.594zm19.312 19.713c-.602 1.924-1.733 3.709-3.275 5.253-3.605 3.633-9.446 5.996-16.037 5.996-10.947 0-19.832-6.516-19.832-14.552 0-8.043 8.884-14.559 19.832-14.559l.734.008c2.855.074 5.56.595 7.986 1.479 6.583 2.363 11.111 7.326 11.111 13.073a10.81 10.81 0 0 1-.52 3.303z" fill="#efecf3"/><path d="M41.829 9.471l-.509-.018-.734-.008c-10.947 0-19.832 6.516-19.832 14.559 0 8.036 8.884 14.552 19.832 14.552.409 0 .815-.009 1.218-.027-10.391-.454-18.636-6.784-18.636-14.525 0-7.754 8.258-14.088 18.66-14.533z" fill="#bbb7c5"/><path d="M43 7.594l-1.207.021c12.694.43 22.793 7.601 22.793 16.386S54.487 39.956 41.793 40.386a35.52 35.52 0 0 0 1.207.021c13.255 0 24-7.345 24-16.406S56.255 7.594 43 7.594z" fill="#9691a4"/></svg>