<svg xmlns="http://www.w3.org/2000/svg" width="86" height="48" fill="none" xmlns:v="https://vecta.io/nano"><path d="M49.47 3.656H36.53c-9.682 0-17.53 7.835-17.53 17.5v5.687c0 9.666 7.848 17.501 17.53 17.501h12.94c9.682 0 17.53-7.835 17.53-17.501v-5.687c0-9.666-7.848-17.5-17.53-17.5zm12.424 25.329c0 6.84-5.554 12.385-12.406 12.385H36.512c-6.851 0-12.406-5.545-12.406-12.385v-9.971c0-6.84 5.554-12.385 12.406-12.385h12.976c6.851 0 12.406 5.545 12.406 12.385v9.971z" fill="#efecf3"/><path d="M36.511 6.629h-2.414c-6.851 0-12.406 5.545-12.406 12.385v9.971c0 6.84 5.554 12.385 12.406 12.385h2.414c-6.851 0-12.406-5.545-12.406-12.385v-9.971c0-6.84 5.554-12.385 12.406-12.385z" fill="#bbb7c5"/><g fill="#9691a4"><path d="M49.471 3.656h-2.415c9.682 0 17.53 7.835 17.53 17.5v5.687c0 9.666-7.848 17.501-17.53 17.501h2.415c9.682 0 17.53-7.835 17.53-17.501v-5.687c0-9.666-7.848-17.5-17.53-17.5z"/><path d="M63.031 15.855c-.044 1.527-.385 3.103-1.38 4.108-.399.404-.954.745-1.627 1.048-2.895 1.306-7.963 1.917-12.094 3.935-2.326 1.144-3.896 4.904-4.565 6.815-.121.346-.608.346-.729 0-.669-1.911-2.239-5.671-4.565-6.815-5.091-2.486-11.606-2.837-13.721-4.983-.995-1.006-1.336-2.581-1.38-4.108-.048-1.567.207-3.092.382-3.937.061-.293.416-.408.638-.207.912.826 3.174 2.629 7.252 4.456 5.194 2.341 10.395 5.14 11.577 9.885.047.189.315.189.362 0 1.182-4.744 6.384-7.544 11.577-9.885 1.926-.863 3.446-1.72 4.611-2.472 1.304-.84 2.162-1.549 2.643-1.985.221-.2.576-.085.636.207.175.844.43 2.37.382 3.938z"/></g><path d="M63.031 15.858c-.044 1.527-.385 3.103-1.38 4.108-.399.404-.954.745-1.627 1.048.599-2.81.119-4.609-.093-5.559-.113-.503-.339-1.166-.561-1.757 1.303-.84 2.16-1.548 2.642-1.984.222-.201.577-.085.638.207.175.844.43 2.37.382 3.937z" fill="#666276"/><path d="M63.03 15.855c-.859.544-1.787 1.056-2.761 1.537-2.749 1.36-5.864 2.471-8.809 3.341-5.623 1.662-7.719 5.769-8.286 7.176-.063.157-.285.157-.348 0-.567-1.407-2.664-5.515-8.286-7.176-3.988-1.177-8.29-2.8-11.57-4.878-.048-1.567.207-3.092.382-3.937.061-.293.416-.408.638-.207.912.826 3.174 2.629 7.252 4.456 5.194 2.341 10.395 5.14 11.577 9.884.047.189.315.189.363 0 1.182-4.744 6.384-7.544 11.577-9.884 1.926-.863 3.446-1.72 4.611-2.472 1.304-.84 2.162-1.549 2.643-1.985.221-.2.576-.085.636.207.175.844.43 2.37.382 3.938z" fill="#efecf3"/><path d="M63.031 15.858a29.97 29.97 0 0 1-2.761 1.537c-.078-.849-.239-1.49-.339-1.94-.113-.503-.339-1.166-.561-1.757 1.303-.84 2.16-1.548 2.642-1.984.222-.201.577-.085.638.207.175.844.43 2.37.382 3.937z" fill="#bbb7c5"/></svg>