<svg xmlns="http://www.w3.org/2000/svg" width="86" height="48" fill="none" xmlns:v="https://vecta.io/nano"><path d="M43 0C29.75 0 19 10.744 19 23.996 19 37.256 29.75 48 43 48s24-10.744 24-24.004C67 10.744 56.25 0 43 0zm0 44.621c-11.37 0-20.619-9.251-20.619-20.622S31.63 3.376 43 3.376s20.619 9.251 20.619 20.623S54.369 44.621 43 44.621z" fill="#efecf3"/><g fill="#9691a4"><path d="M43.001 0l-1.69.06c12.462.868 22.31 11.252 22.31 23.936 0 12.691-9.848 23.076-22.31 23.944a24.32 24.32 0 0 0 1.69.06c13.25 0 24-10.744 24-24.004 0-13.253-10.75-23.996-24-23.996z"/><path d="M61.133 34.18l-.004.008c-.007.011-.018.019-.032.024h-.001l-.21-.08-17.688-6.698a.56.56 0 0 0-.398 0L25.116 34.13l-.214.081c-.012-.005-.023-.012-.03-.023l-.001-.002c-.011-.021-.012-.037-.007-.055l.155-.14 13.76-12.423c.087-.078.147-.182.172-.296l3.944-17.786.009-.037.025-.116a.1.1 0 0 1 .044-.045c.008-.005.016-.007.026-.007H43c.008 0 .016.002.024.006.018.009.034.026.046.05l.025.11.009.04 3.943 17.785c.025.114.085.218.172.296l13.759 12.422.16.143c.004.018.003.034-.005.048z"/></g><path d="M43 3.281v19.706L25.141 34.011l-.273.168c-.008-.014-.009-.031-.004-.049l.155-.14 13.76-12.423c.087-.078.147-.182.172-.296l3.944-17.786.009-.037.025-.116a.1.1 0 0 1 .044-.045c.008-.005.016-.007.026-.007H43z" fill="#f5f4f8"/><path d="M61.133 34.185l-.273-.169-17.859-11.024V3.286c.008 0 .016.002.024.006.018.009.034.026.046.05l.025.106.009.043 3.944 17.786c.025.114.086.217.172.296L60.98 33.995l.157.141c.004.019.003.035-.005.049z" fill="#efecf3"/></svg>