<svg xmlns="http://www.w3.org/2000/svg" width="86" height="48" fill="none" xmlns:v="https://vecta.io/nano"><path d="M50.918 16.382l-7.586 12.784a.39.39 0 0 1-.672 0l-7.578-12.784a.39.39 0 0 1 0-.398L42.66 3.192a.39.39 0 0 1 .672 0l7.586 12.792a.39.39 0 0 1 0 .399zM34.257 45l-14.867-.03a.39.39 0 0 1-.342-.578l7.135-13.063a.39.39 0 0 1 .343-.203l14.87.019a.39.39 0 0 1 .342.578L34.6 44.797a.39.39 0 0 1-.344.203zm32.352-.03l-2.444.005L51.743 45a.39.39 0 0 1-.344-.204l-7.137-13.074a.39.39 0 0 1 .342-.578l12.474-.016 2.396-.003a.39.39 0 0 1 .343.204l7.135 13.062a.39.39 0 0 1-.343.578z" fill="#efecf3"/><path d="M66.608 44.97l-2.444.005.003-.005a.39.39 0 0 0 .343-.578L57.374 31.33a.39.39 0 0 0-.298-.201l2.396-.003a.39.39 0 0 1 .343.204l7.135 13.062a.39.39 0 0 1-.343.578zM41.396 31.145l-14.87-.019c-.015 0-.031.001-.046.003l12.442.016a.39.39 0 0 1 .342.578l-7.138 13.074a.39.39 0 0 1-.284.199l2.414.005a.39.39 0 0 0 .344-.203l7.138-13.074a.39.39 0 0 0-.342-.578zm7.03-15.162a.39.39 0 0 1 0 .398L41.75 27.633l.908 1.533a.39.39 0 0 0 .672 0l7.586-12.784a.39.39 0 0 0 0-.398L43.331 3.191a.39.39 0 0 0-.672 0l-.908 1.534 6.676 11.259z" fill="#bbb7c5"/></svg>