<svg xmlns="http://www.w3.org/2000/svg" xmlns:xlink="http://www.w3.org/1999/xlink" width="86" height="48" fill="none" xmlns:v="https://vecta.io/nano"><path d="M43 2.246c-12.013 0-21.753 9.738-21.753 21.753S30.987 45.751 43 45.751s21.753-9.739 21.753-21.753S55.014 2.246 43 2.246zm0 38.671c-9.344 0-16.919-7.575-16.919-16.919S33.656 7.08 43 7.08s16.919 7.575 16.919 16.919S52.344 40.918 43 40.918z" fill="#efecf3"/><path d="M41.791 7.122l-1.209-.043c-9.344 0-16.919 7.575-16.919 16.919s7.575 16.919 16.919 16.919c.407 0 .809-.015 1.209-.043-8.78-.62-15.71-7.938-15.71-16.875s6.93-16.256 15.71-16.875zm1.208-4.876l-1.208.034c11.452.627 20.544 10.11 20.544 21.719S53.243 45.09 41.791 45.718a22 22 0 0 0 1.208.034c12.014 0 21.753-9.739 21.753-21.753S55.014 2.246 42.999 2.246z" fill="#9691a4"/><path d="M66.625 30.467H19.376c-.207 0-.375-.168-.375-.375V17.903c0-.207.168-.375.375-.375h47.249c.207 0 .375.168.375.375v12.188c0 .207-.168.375-.376.375z" fill="#f5f4f8"/><path d="M66.625 30.47h-2.039V17.531h2.039c.207 0 .375.168.375.376v12.188c0 .207-.168.375-.375.375z" fill="#efecf3"/><g fill="#454056"><path d="M28.025 19.699c-.388 0-.703.316-.703.705v5.078l-4.128-5.502a.7.7 0 0 0-.785-.245c-.287.096-.48.365-.48.668v7.188c0 .389.315.705.703.705s.703-.316.703-.705v-5.078l4.128 5.502a.7.7 0 0 0 .785.245c.287-.096.481-.365.481-.668v-7.188c0-.389-.315-.705-.703-.705zm35.344 0c-.388 0-.703.316-.703.705v5.078l-4.128-5.502a.7.7 0 0 0-.785-.245c-.287.096-.48.365-.48.668v7.188c0 .389.315.705.703.705s.703-.316.703-.705v-5.078l4.128 5.502c.135.18.345.281.562.281a.7.7 0 0 0 .223-.036c.287-.096.48-.365.48-.668v-7.188c0-.389-.315-.705-.703-.705zm-32.242 0c-.388 0-.703.316-.703.705v7.188c0 .389.315.705.703.705s.703-.316.703-.705v-7.188c0-.389-.315-.705-.703-.705z"/><use xlink:href="#B"/><use xlink:href="#B" x="7.939"/><path d="M52.82 19.699a3.41 3.41 0 0 0-3.4 3.407v4.486c0 .389.315.705.703.705s.703-.316.703-.705v-2.889h3.987v2.889c0 .389.315.705.703.705s.703-.316.703-.705v-4.486a3.41 3.41 0 0 0-3.399-3.407zm-1.993 3.594v-.187a2 2 0 0 1 1.993-1.998 2 2 0 0 1 1.993 1.998v.187h-3.987z"/></g><defs ><path id="B" d="M36.039 21.109h3.6c.388 0 .703-.315.703-.705s-.315-.705-.703-.705h-3.6c-1.376 0-2.496 1.122-2.496 2.502s1.12 2.502 2.496 2.502h1.807c.601 0 1.09.49 1.09 1.092s-.489 1.092-1.09 1.092h-3.6c-.388 0-.703.316-.703.705s.315.705.703.705h3.6c1.377 0 2.496-1.122 2.496-2.502s-1.12-2.502-2.496-2.502h-1.807c-.601 0-1.09-.49-1.09-1.092s.489-1.093 1.09-1.093z"/></defs></svg>