<svg xmlns="http://www.w3.org/2000/svg" xmlns:xlink="http://www.w3.org/1999/xlink" width="86" height="48" fill="none" xmlns:v="https://vecta.io/nano"><g fill="#efecf3"><use xlink:href="#B"/><use xlink:href="#B"/></g><path d="M43 3.188l-1.21.036C52.721 3.85 61.393 12.912 61.393 24S52.721 44.15 41.79 44.777c.401.023.804.036 1.21.036 11.494 0 20.813-9.318 20.813-20.812S54.494 3.188 43 3.188z" fill="#9691a4"/><path d="M66.99 25.456l-.539 2.317a.39.39 0 0 1-.379.298H33.459c-.159 0-.291-.109-.326-.257-.006-.025-.009-.052-.009-.079a.33.33 0 0 1 .099-.236c.009-.01.021-.02.032-.028l4.678-3.963c.132-.112.055-.327-.118-.331l-18.432-.356c-.27-.005-.453-.275-.354-.524l.995-2.514a.39.39 0 0 1 .358-.245l26.614-.289 5.036-.054c.146 0 .27.093.316.222a.32.32 0 0 1 .02.112.33.33 0 0 1-.089.227l-.033.032-4.713 4.485c-.121.115-.042.32.125.323l18.964.388c.246.006.426.233.37.471z" fill="#bbb7c5"/><path d="M52.345 19.417l-.612.268-17.996 7.866-.605.264c-.007-.025-.009-.052-.009-.079a.33.33 0 0 1 .098-.236c.009-.01.021-.02.032-.028l4.678-3.964c.066-.055.08-.137.055-.205l9.007-4.053 5.036-.054c.146 0 .27.093.316.222z" fill="#efecf3"/><path d="M52.365 19.534a.33.33 0 0 1-.089.227l-.033.032-4.713 4.485c-.06.057-.071.136-.047.202l-5.689 3.596h-8.336c-.158 0-.291-.109-.326-.257l.605-.264 17.996-7.866.612-.268a.32.32 0 0 1 .02.113z" fill="#9691a4"/><defs ><path id="B" d="M43 3.188c-11.495 0-20.812 9.318-20.812 20.813S31.505 44.813 43 44.813 63.813 35.494 63.813 24 54.494 3.188 43 3.188zm0 37.753c-9.341 0-16.94-7.599-16.94-16.94S33.659 7.06 43 7.06 59.94 14.659 59.94 24 52.341 40.94 43 40.94z"/></defs></svg>