<svg xmlns="http://www.w3.org/2000/svg" width="196" height="80" fill="none" xmlns:v="https://vecta.io/nano"><path fill-rule="evenodd" d="M53.642 21c8.578 0 15.579 7.008 15.579 15.586 0 .733-.049 1.451-.147 2.155 1.98-1.723 4.686-2.796 7.922-2.796 5.579 0 9.463 3.229 11.158 7.803l-11.681 6.757-2.183-3.835 6.06-3.619c-1.088-1.137-2.308-1.353-3.18-1.353-3.006 0-4.797 2.441-4.797 5.013s1.966 5.272 5.453 5.272c2.657 0 4.965-1.611 6.234-4.009l4.317 4.009c-2.531 3.885-6.716 6.2-11.207 6.2-6.889 0-11.771-5.021-11.771-11.297v-.104c-2.859 3.299-7.071 5.39-11.758 5.39-2.064 0-4.038-.413-5.837-1.144v-8.724c.759.779 1.667 1.399 2.669 1.822s2.08.64 3.168.64a8.2 8.2 0 0 0 8.18-8.18c0-4.505-3.675-8.187-8.18-8.187-7.35.488-8.041 6.904-7.943 12.232v9.344c-.041-.02-.081-.044-.119-.07v7.832L38 57.834V38.65c0-.53.014-1.088.063-1.659 0-.133-.007-.272-.007-.405C38.056 28.008 45.065 21 53.642 21zm43.082 36.737V45.358c0-1.652.781-2.964 2.399-2.964 1.611 0 2.392 1.312 2.392 2.964v12.379h6.98V45.798c0-2.183-.307-6.06-4.058-8.459-1.569-1.004-3.438-1.395-5.313-1.395s-3.752.391-5.321 1.395c-3.745 2.399-4.052 6.276-4.052 8.459v11.938h6.973zm61.255 0l.021-4.303c-4.067.321-5.377-.606-5.335-3.277V27.227h-6.973v25.383c.013 3.487 2.036 4.798 4.972 5.126h7.315zm-40.787-21.353v-5.063h-6.974v16.827c0 2.922-.084 5.321 2.182 7.454 2.225 2.092 5.014 2.135 7.928 2.135h1.918v-6.36c1.716 4.017 5.739 6.806 10.871 6.806 4.491 0 8.669-2.315 11.193-6.2l-4.316-4.009c-1.256 2.398-3.565 4.009-6.22 4.009-3.488 0-5.453-2.698-5.453-5.272s1.791-5.013 4.797-5.013c.871 0 2.092.216 3.181 1.353l-6.06 3.619 2.182 3.835 11.673-6.757c-1.701-4.574-5.572-7.803-11.151-7.803-5.299 0-9.176 2.873-10.78 6.778v-6.339h-4.971zm5.055 14.993h-.955c-1.437 0-2.657-.041-3.312-.614-.963-.823-.788-2.483-.788-3.437v-4.582h4.964a10.85 10.85 0 0 0-.809 4.142c-.003 1.542.303 3.069.9 4.491z" fill="#fff"/></svg>