<svg xmlns="http://www.w3.org/2000/svg" width="196" height="80" fill="#fff" fill-rule="evenodd" xmlns:v="https://vecta.io/nano"><path d="M38 30.376h4.665c1.981 0 3.686 0 5.442 1.48 1.205 1.103 1.756 2.533 1.756 4.263s-.552 3.16-1.756 4.264c-1.755 1.479-3.46 1.479-5.442 1.479h-1.229v7.073H38V30.376zm3.436 8.276h1.103c1.48 0 3.887-.1 3.887-2.533s-2.357-2.532-3.761-2.532h-1.229v5.066zm12.522-8.276h5.693c2.132 0 3.461.401 4.515 1.254s2.182 2.357 2.182 4.489c0 1.229-.451 3.16-1.781 4.44-1.103 1.052-2.157 1.303-3.085 1.529l5.041 6.846H62.36l-4.915-7.098h-.05v7.098h-3.436V30.376h-.001zm3.437 8.878h2.207c2.834 0 3.311-1.881 3.311-2.86 0-1.028-.627-2.808-3.311-2.808h-2.207v5.668zM79.32 30c5.266 0 9.706 4.213 9.706 9.705 0 5.317-4.364 9.606-9.706 9.606s-9.706-4.289-9.706-9.606c0-5.492 4.439-9.705 9.706-9.705zm0 16.101c3.536 0 6.27-2.984 6.27-6.42 0-3.562-2.784-6.471-6.27-6.471s-6.27 2.909-6.27 6.471c0 3.436 2.734 6.42 6.27 6.42zm37.135-15.725h9.981v3.21h-6.545v4.539h6.27v3.211h-6.27v4.389h6.545v3.21h-9.981V30.376zm15.116 0h5.693c2.133 0 3.462.401 4.516 1.254s2.181 2.357 2.181 4.489c0 1.229-.452 3.16-1.781 4.44-1.103 1.052-2.157 1.303-3.085 1.529l5.041 6.846h-4.164l-4.915-7.098h-.049v7.098h-3.437V30.376zm3.437 8.878h2.206c2.834 0 3.311-1.881 3.311-2.86 0-1.028-.627-2.808-3.311-2.808h-2.206v5.668zm16.094-5.668h-3.435v-3.21H158v3.21h-3.46v15.349h-3.438V33.587zm-55.211-.483h2.7l3.712 10.555h.037l3.732-10.555h2.7l-5.382 13.874h-2.1l-5.4-13.874zm-3.035-2.745v18.564h18.563V30.358H92.856z"/></svg>