<svg xmlns="http://www.w3.org/2000/svg" width="196" height="80" fill="#fff" fill-rule="evenodd" xmlns:v="https://vecta.io/nano"><path d="M59.109 20l10.046 10.071-10.046 10.045-10.045-10.069L59.109 20zM48.045 31.186l10.044 10.071-10.044 10.045L38 41.23l10.045-10.045zm22.097-.14l10.045 10.071-10.045 10.045L60.097 41.09l10.045-10.045zm29.687 18.675l-3.374-8.135c2.205-1.007 3.292-2.477 3.292-4.925 0-1.823-.735-3.482-2.285-4.464-1.389-.925-3.185-1.141-4.816-1.141H83.15v18.665h5.796v-7.126h1.795l2.722 7.127h6.367v-.001zM88.945 38.594v-3.565h2.313c.542 0 1.141 0 1.632.245.572.299.898.897.898 1.524 0 1.603-1.496 1.795-2.748 1.795h-2.095v.001zm45.319 11.127h5.847l-5.847-18.665h-6.042l-5.795 18.665h4.651l1.144-3.673h4.978l1.064 3.673zm-5.091-7.753l1.526-5.415 1.522 5.415h-3.048zM158 45.151h-7.319V31.056h-5.767v18.665H158v-4.57zm-39.37.108h-8.407v-3.021h6.804v-4.162h-6.804v-2.72h8.407v-4.3h-14.012v18.665h14.012v-4.462zm-66.435 8.094c0-3.923 3.18-7.101 7.102-7.101a7.1 7.1 0 0 1 7.101 7.101c0 3.919-3.178 7.101-7.101 7.101s-7.102-3.182-7.102-7.101zm94.379.326c.73.543 1.096 1.239 1.096 2.083 0 .915-.419 1.676-1.254 2.283-.982.712-2.381 1.068-4.198 1.068-1.699 0-3.032-.309-4.004-.935-.867-.602-1.3-1.359-1.3-2.278 0-.828.37-1.539 1.112-2.128.952-.757 2.359-1.136 4.221-1.136 1.947 0 3.389.347 4.327 1.043zm-15.069 1.934c.7 0 1.254-.078 1.661-.233s.616-.438.616-.843c0-.438-.286-.735-.855-.894-.307-.084-.716-.124-1.227-.124h-3.65v2.093h3.455v.001zm13.746 1.973c.592-.524.888-1.128.888-1.811 0-.722-.342-1.299-1.023-1.739s-1.603-.659-2.778-.66c-1.143 0-2.073.218-2.796.656s-1.08 1.075-1.08 1.925c0 .676.307 1.249.923 1.718s1.625.697 3.012.697c1.317-.001 2.268-.262 2.854-.786zm-18.696-4.782h5.107c.841 0 1.537.068 2.081.207 1.038.26 1.554.744 1.554 1.447a1.13 1.13 0 0 1-.412.903c-.27.233-.652.42-1.143.561l1.977 3.013h-1.438a93.58 93.58 0 0 1-1.701-2.639c-.285-.073-.516.011-1.127.011h-3.403v2.629h-1.494v-6.131h-.001zm23.868 4.156c.037.349.183.63.443.845.498.408 1.371.61 2.623.61a8.36 8.36 0 0 0 1.531-.13c.894-.173 1.336-.484 1.339-.928 0-.335-.188-.571-.565-.712s-.977-.263-1.786-.364l-1.496-.189c-.978-.12-1.667-.256-2.071-.404-.702-.253-1.052-.639-1.052-1.146 0-.554.343-1.004 1.028-1.359s1.658-.529 2.914-.529c1.158 0 2.138.156 2.945.47.811.307 1.218.803 1.218 1.483h-1.405a1.23 1.23 0 0 0-.483-.754c-.455-.32-1.229-.48-2.32-.48-.88 0-1.514.101-1.899.308s-.578.447-.578.719c0 .3.226.52.675.66.296.088.964.197 2.006.332l1.547.196c.746.095 1.321.224 1.727.389.701.287 1.052.701 1.052 1.247 0 .679-.445 1.164-1.336 1.456s-1.92.439-3.095.439c-1.373 0-2.447-.196-3.224-.585s-1.156-.911-1.141-1.572h1.403v-.001zm-33.536-4.154v3.791a1.49 1.49 0 0 0 .449 1.108c.446.447 1.197.669 2.255.669 1.266 0 2.128-.24 2.583-.723.245-.262.368-.612.368-1.055v-3.791h1.518v3.445c0 .754-.184 1.333-.548 1.74-.671.74-1.938 1.11-3.801 1.11s-3.127-.369-3.794-1.11c-.365-.407-.548-.987-.548-1.74v-3.445h1.518 0zm-6.131.178c1.096.32 1.768.881 2.015 1.682h-1.482c-.18-.448-.554-.774-1.119-.976s-1.28-.308-2.141-.311c-1.02 0-1.883.213-2.583.641s-1.044 1.059-1.044 1.901a2.17 2.17 0 0 0 .863 1.782c.578.456 1.517.684 2.817.684.996 0 1.822-.16 2.471-.48.656-.323.991-.843 1.007-1.56h-3.454v-.688h4.844v3.278h-.96l-.362-.788c-.506.311-.953.524-1.345.644-.655.206-1.489.308-2.499.308-1.309 0-2.433-.235-3.374-.705-1.027-.589-1.539-1.399-1.539-2.429s.501-1.843 1.501-2.45c.951-.579 2.183-.868 3.697-.868 1.036 0 1.931.112 2.687.335zm-17.575-.178h8.044v.754h-6.587v1.859h6.091v.711h-6.091v2.079h6.7v.728h-8.157v-6.131zm-9.427 4.154a1.21 1.21 0 0 0 .442.845c.497.408 1.371.61 2.622.61a8.37 8.37 0 0 0 1.532-.13c.892-.173 1.337-.484 1.338-.928 0-.335-.188-.571-.565-.712s-.976-.263-1.786-.364l-1.496-.189c-.977-.12-1.667-.256-2.074-.404-.701-.253-1.05-.639-1.05-1.146 0-.554.342-1.004 1.028-1.359s1.658-.529 2.913-.529c1.157 0 2.138.156 2.944.47.812.307 1.218.803 1.218 1.483h-1.404c-.075-.327-.236-.578-.482-.754-.455-.32-1.229-.48-2.32-.48-.881 0-1.514.101-1.9.308s-.578.447-.578.719c0 .3.226.52.675.66.296.088.964.197 2.005.332l1.548.196c.746.095 1.321.224 1.727.389.701.287 1.053.701 1.053 1.247 0 .679-.447 1.164-1.337 1.456s-1.92.439-3.094.439c-1.373 0-2.448-.196-3.224-.585s-1.156-.911-1.142-1.572h1.406v-.001z"/></svg>