<svg xmlns="http://www.w3.org/2000/svg" xmlns:xlink="http://www.w3.org/1999/xlink" width="86" height="48" fill="none" xmlns:v="https://vecta.io/nano"><path d="M62.638 23.813L49.121.188C49.055.072 48.93 0 48.797 0H37.205c-.134 0-.258.072-.325.188L23.363 23.813c-.066.115-.066.258 0 .373L36.88 47.812l.026.04a.38.38 0 0 0 .11.096c.044.026.093.042.144.048.015.003.03.004.045.004h11.592c.134 0 .258-.072.325-.188l13.517-23.625c.067-.115.067-.258 0-.373zm-26.408.364c-.059-.111-.059-.244 0-.354l6.77-12.617 6.77 12.617c.059.111.059.244 0 .354l-6.77 12.617-6.77-12.617z" fill="#efecf3"/><path d="M48.796 0h-2.191l13.731 24-13.731 24h2.191c.134 0 .258-.072.325-.188l13.517-23.625c.066-.115.066-.258 0-.373L49.121.189C49.054.072 48.931 0 48.796 0z" fill="#9691a4"/><use xlink:href="#B" fill="#efecf3"/><use xlink:href="#B" fill="#f5f4f8"/><path d="M46.605 0L33.822 23.822c-.059.111-.059.244 0 .355l7.974 14.86L43 36.794l-6.77-12.616c-.06-.111-.06-.244 0-.355L48.79.414C48.891.227 48.755 0 48.543 0h-1.938z" fill="#9691a4"/><path d="M52.179 24.176L39.395 47.999h-2.274c-.042 0-.082-.012-.117-.032l.011-.02.208-.387.806-1.501v-.001l3.767-7.022 1.204-2.244 6.77-12.617c.059-.111.059-.244 0-.354l-6.77-12.617 1.204-2.243 7.974 14.86c.06.111.06.244 0 .354z" fill="#bbb7c5"/><defs ><path id="B" d="M48.79.414l-.942 1.757-3.644 6.791-1.204 2.243-6.77 12.617c-.06.111-.06.244 0 .354l6.77 12.617-1.204 2.243-3.767 7.022v.001l-.806 1.501-.208.387-.011.02c-.03-.018-.055-.042-.075-.07l-.011-.019-.038-.068-13.517-23.625c-.067-.115-.067-.258 0-.373L36.878.188c.066-.116.191-.188.325-.188h11.339a.28.28 0 0 1 .247.414z"/></defs></svg>