<svg xmlns="http://www.w3.org/2000/svg" width="86" height="48" fill="none" xmlns:v="https://vecta.io/nano"><path d="M43 6c-14.912 0-27 8.059-27 18s12.088 18 27 18 27-8.059 27-18S57.911 6 43 6zm13.552 7.048c.795.587.793 1.757-.004 2.342-1.088.797-3.004 1.744-5.655 2.433-.051-.184-.104-.368-.161-.548-1.194-3.87-3.406-6.725-6.048-7.588 5.958.283 10.062 2.026 11.868 3.36zm-18.194 9.4c1.491.169 3.048.259 4.642.259s3.15-.09 4.641-.259c.033.465.05.944.05 1.436 0 6.312-2.824 10.5-4.69 10.5s-4.692-4.188-4.692-10.5c0-.491.017-.971.05-1.436zm8.59-3.896a33.95 33.95 0 0 1-3.948.224c-.463 0-.916-.009-1.358-.026a33.09 33.09 0 0 1-2.591-.198c.965-3.229 2.678-5.169 3.95-5.169s2.984 1.94 3.948 5.169zm-17.497-5.517c1.394-1.021 4.152-2.29 8.07-2.946l.203-.034a32.3 32.3 0 0 1 3.592-.368c-2.765.903-5.059 3.988-6.208 8.135-2.656-.692-4.574-1.643-5.661-2.445-.795-.588-.793-1.758.004-2.342zm15.184 25.51l-.274.012h-.003a33.24 33.24 0 0 1-1.358.027c-12.468 0-23-6.678-23-14.584 0-3.052 1.569-5.921 4.214-8.292.94 2.62 4.872 4.877 10.187 6.078-.061.685-.091 1.386-.091 2.098 0 7.991 3.891 14.468 8.691 14.468s8.69-6.478 8.69-14.468c0-.712-.03-1.413-.091-2.098 5.315-1.2 9.247-3.458 10.187-6.078C64.43 18.08 66 20.948 66 24c0 7.558-9.625 13.993-21.364 14.545zm6.096-21.269a10.23 10.23 0 0 0 .161.548c-.051-.184-.104-.368-.161-.548z" fill="#efecf3"/><path d="M29.473 15.376c1.085.802 3 1.753 5.65 2.445-4.593-.184-7.051-1.521-7.829-2.262s-.507-1.941.289-2.525c1.804-1.325 3.949-2.129 10.151-2.98l-.203.034c-3.91.656-6.663 1.925-8.054 2.946a1.45 1.45 0 0 0-.004 2.342zM43.001 6l-1.356.023c14.252.472 25.592 8.34 25.592 17.977S55.898 41.506 41.645 41.977a41.16 41.16 0 0 0 1.356.023c14.882 0 26.947-8.059 26.947-18S57.883 6 43.001 6zm8.581 15.785l.091 2.098c0 7.991-3.883 14.468-8.673 14.468a5.32 5.32 0 0 1-1.355-.177c4.146-1.086 7.22-4.903 7.22-12.124 0-.008.098-2.182.098-2.189-.001-1.195 1.441-1.874 2.62-2.076zm-.704-3.962a1.71 1.71 0 0 1-.263.075c-1.238.259-2.491-.428-2.967-1.599-1.371-3.37-3.919-5.823-6.328-6.612 1.22-.299 2.256-.179 3.362 0 2.636.863 4.844 3.718 6.036 7.588l.16.548z" fill="#9691a4"/></svg>