<svg xmlns="http://www.w3.org/2000/svg" width="295" height="295" fill="#fff" opacity=".1" xmlns:v="https://vecta.io/nano"><path d="M147.5 295C66.167 295 0 228.833 0 147.5S66.167 0 147.5 0 295 66.167 295 147.5c-.015 81.333-66.182 147.5-147.5 147.5zm0-290.043C68.902 4.957 4.957 68.902 4.957 147.5S68.902 290.043 147.5 290.043 290.043 226.098 290.043 147.5 226.098 4.957 147.5 4.957zm-.001 273.947c-72.445 0-131.386-58.941-131.386-131.385S75.054 16.133 147.499 16.133s131.386 58.941 131.386 131.386c-.016 72.444-58.957 131.385-131.386 131.385zm0-257.814c-69.71 0-126.429 56.719-126.429 126.429s56.719 126.428 126.429 126.428 126.429-56.719 126.429-126.428S217.209 21.09 147.499 21.09zm.001 241.688c-63.556 0-115.271-51.715-115.271-115.271S83.944 32.235 147.5 32.235 262.772 83.95 262.772 147.507c-.016 63.556-51.715 115.271-115.272 115.271zm0-225.586c-60.836 0-110.314 49.493-110.314 110.315 0 60.837 49.493 110.314 110.314 110.314s110.315-49.493 110.315-110.314S208.322 37.192 147.5 37.192z"/></svg>