<svg xmlns="http://www.w3.org/2000/svg" width="333" height="361" fill="#fff" opacity=".15" xmlns:v="https://vecta.io/nano"><path d="M170.524 218.12l9.805-8.015 4.815-4.043c.766-.459 1.717-1.258 2.466-1.809-.434.292-.355.095-.046-.144 2.215-1.771.078-.196 2.27-2.039l6.963-5.659 10.299-8.136-.889-.561-4.05-2.279-1.98-1.181-.77-.44-.531-.284.161.047c-1.457-.791-9.395-5.76-11.078-6.681l.22.151c-1.51-.762-1.187-.822-2.289-1.555.031.272-1.259-.339-1.75-.611l.052-.029c-.722-.382-2.439-1.182-3.626-1.85l.11-.078c-1.045-.475-2.863-1.61-3.553-2.027-1.573-.998-3.94-2.662-6.171-3.806l-1.206-1.134-.217-.084-5.026-2.23c-1.152-.484.19 5.283.031 5.303-.037-.404-.094-.815-.065-.916-.055.116.004.899.102 1.321l.182.052c.181.971-.07.242.056 1.175-.13.073-.273-.8-.385-1.554.063.696.039 1.389.229 1.641.028.664-.182-.052-.142.725.103.555.339 1.257.327 1.91l-.021-.006c.033 1.563.506 2.355.533 3.785l-.066-.151c-.013.5.209 1.482.228 2.407-.011-.266.078-.503.161.046.031 1.037.221 1.748.194 2.528l.23.722c.405 3.617 2.332 17.866 2.798 21.501l-.046-.145c.348 3.513.983 8.618 1.675 14.133zm-43.286-1.947l-4.206-11.95-2.179-5.898c-.164-.879-.598-2.032-.869-2.919.115.514-.038.361-.173-.006-.912-2.69-.153-.153-1.132-2.841l-2.953-8.461-4.152-12.438-.824.66-3.54 3.032-1.775 1.459-.688.569-.443.398.081-.13c-1.238 1.11-8.608 6.893-10.065 8.159l.214-.136c-1.229 1.157-1.182.842-2.241 1.633.269.055-.767 1.07-1.177 1.434l-.009-.046c-.616.545-1.944 1.892-2.985 2.775l-.052-.125c-.804.82-2.493 2.129-3.109 2.674-1.489 1.148-3.848 2.812-5.693 4.514l-1.486.755-.159.173-3.812 3.981c-.853.915 5.027 1.618 5.007 1.766-.39-.09-.78-.18-.895-.235.084.089.852.31 1.273.365l.107-.144c.959.166.199.144 1.126.345.02.159-.846-.024-1.591-.172.673.171 1.323.423 1.632.337.621.2-.107.144.635.379.543.09 1.302.111 1.912.352l-.026.014c1.498.496 2.377.332 3.734.788l-.159.02c.468.2 1.464.311 2.342.606-.237-.09-.436-.234.081-.13.999.331 1.721.407 2.431.677l.734.035c3.543.842 17.609 3.896 21.17 4.677l-.147-.02c3.604.706 8.637 1.845 14.061 3.074zM15.339 245.525l6.014-2.43 2.962-1.25c.448-.112 1.023-.363 1.482-.515-.263.077-.194-.012.003-.087 1.355-.53.069-.089 1.41-.645l4.254-1.711 6.248-2.407-.343-.405-1.624-1.735-.796-.885c-.098-.115-.196-.231-.32-.332l-.222-.217.075.043-4.402-4.939.078.11c-.617-.593-.464-.593-.885-1.108-.02.148-.574-.361-.756-.567l.026-.014-1.486-1.455.072-.023c-.436-.388-1.136-1.223-1.442-1.53l-2.434-2.799-.424-.734-.089-.07-2.115-1.854c-.491-.425-.702 2.599-.789 2.596.038-.208.076-.416.113-.471-.058.049-.148.439-.145.659l.075.043c-.053.488-.075.11-.148.592-.072.023-.005-.439.059-.815-.078.35-.197.688-.131.838-.093.323-.075-.043-.185.341-.035.274-.038.667-.131.99l-.02-.006c-.22.768-.108 1.216-.311 1.924l-.017-.093c-.09.237-.128.751-.256 1.196.035-.121.11-.231.075.043l-.293 1.251.002.372c-.349 1.826-1.574 9.066-1.888 10.923l-.003-.067-1.292 7.243zm175.039-194.53l-2.286-6.06-1.178-2.985c-.091-.442-.316-1.032-.469-1.491.058.257-.011.194-.086-.003-.484-1.364-.09-.07-.614-1.445l-1.612-4.292-2.257-6.314-.425.337-1.769 1.592-.9.77-.347.294c-.063.069-.147.133-.217.222l.044-.075-5.038 4.286.11-.078c-.613.612-.587.444-1.122.859.148.02-.376.548-.587.75l-.014-.026-1.49 1.454-.023-.072c-.408.43-1.238 1.111-1.559 1.39l-2.848 2.377-.748.398-.07.089-1.909 2.077c-.425.491 2.581.763 2.578.85-.207-.038-.41-.096-.47-.113.049.058.439.148.652.165l.044-.075c.482.073.11.075.586.168.003.066-.439.005-.809-.079.35.078.688.197.832.151.323.093-.043.075.341.185.274.035.667.038.984.151l-.005.02c.762.241 1.21.129 1.911.352l-.086-.003c.237.09.745.148 1.19.276-.122-.035-.231-.11.043-.075l1.245.314.372-.002 10.867 2.157-.066.003 7.205 1.5zm75.337 208.867l6.49-10.871 3.138-5.444c.57-.689 1.184-1.76 1.69-2.534-.315.413-.303.22-.092-.136 1.482-2.418.018-.213 1.45-2.69l4.615-7.689 6.897-11.147-1.034-.21-4.592-.771-2.261-.43-.872-.163-.589-.082.159-.02c-1.641-.23-10.81-2.206-12.693-2.506l.243.07c-1.672-.196-1.406-.36-2.691-.685.123.254-1.3.108-1.843.018l.031-.035c-.817-.125-2.694-.292-4.034-.502l.075-.109c-1.135-.086-3.232-.556-4.049-.681-1.828-.416-4.609-1.17-7.104-1.471l-1.519-.655-.239-.003-5.488-.394c-1.248-.074 1.984 4.902 1.854 4.974-.182-.359-.363-.717-.389-.856-.015.127.302.853.53 1.203l.179-.015c.502.844.017.246.452 1.093-.095.104-.533-.657-.882-1.347.3.633.527 1.289.781 1.471.239.615-.179.014.117.734.3.48.744 1.067.963 1.676l-.02-.006c.567 1.454 1.277 2.03 1.787 3.38l-.119-.122c.147.48.695 1.315 1.037 2.179-.083-.242-.1-.488.159-.02.401.969.798 1.564 1.043 2.313l.464.592c1.623 3.266 8.291 16.011 9.959 19.268l-.078-.11 6.475 12.733zm-64.128-114.304l11.394-5.547 5.605-2.832c.867-.276 1.962-.815 2.812-1.184-.486.167-.373.003 0-.153 2.558-1.213.133-.159 2.694-1.458l8.061-3.921 11.879-5.56-.75-.741-3.422-3.17-1.664-1.594a14.11 14.11 0 0 0-.658-.604l-.456-.394.156.067c-1.238-1.099-7.836-7.763-9.261-9.047l.161.199c-1.29-1.07-.983-1.07-1.863-2.044-.035.274-1.158-.617-1.553-.993l.052-.029c-.609-.547-2.089-1.715-3.093-2.638l.124-.052c-.915-.7-2.404-2.222-3.007-2.788-1.301-1.337-3.216-3.505-5.135-5.128l-.917-1.379-.199-.145-4.38-3.336c-1.011-.749-1.032 5.195-1.18 5.175.05-.401.1-.803.134-.924-.089.084-.209.881-.218 1.294l.17.093c-.038.973-.124.205-.224 1.161-.144.046-.088-.835 0-1.597-.085.676-.282 1.363-.15 1.664-.139.638-.17-.093-.304.678-.03.56.042 1.303-.118 1.935l-.02-.006c-.308 1.531-.052 2.392-.346 3.795l-.02-.159c-.139.485-.143 1.491-.332 2.377.049-.248.18-.473.13.081-.209 1.034-.193 1.739-.387 2.493l.051.736-2.231 21.567-.006-.133-1.529 14.242zm-58.822 4.188l6.04-11.131 2.913-5.574c.555-.716 1.108-1.804 1.6-2.604-.295.419-.303.22-.092-.136 1.367-2.473.018-.213 1.335-2.745l4.294-7.869 6.433-11.433-1.046-.169-4.624-.584-2.284-.349-.884-.123-.595-.061.159-.02c-1.658-.17-10.891-1.77-12.797-1.989l.243.069c-1.67-.129-1.418-.319-2.721-.584.145.261-1.297.175-1.845.105l.037-.055c-.829-.085-2.709-.165-4.055-.354l.075-.11c-1.146-.045-3.252-.409-4.069-.534-1.831-.329-4.667-.968-7.165-1.182l-1.536-.594-.24-.003-5.511-.16c-1.265-.013 2.18 4.827 2.05 4.899-.201-.364-.383-.723-.42-.821-.015.127.348.844.576 1.194l.179-.015c.528.83.017.246.504 1.064-.095.104-.559-.642-.94-1.298.326.619.579 1.26.833 1.442.265.602-.179.015.138.74.305.46.796 1.038 1.015 1.648l-.021-.006c.64 1.431 1.355 1.986 1.917 3.307l-.118-.121c.167.485.746 1.286 1.115 2.136-.104-.249-.121-.495.159-.02.426.953.85 1.534 1.147 2.254l.47.573c1.752 3.194 8.935 15.67 10.739 18.835l-.098-.115 7.09 12.493zm62.171 140.444l4.614-11.803 2.194-5.89c.445-.791.883-1.934 1.26-2.789-.241.456-.269.251-.119-.121 1.061-2.628-.022-.226.983-2.891l3.269-8.338 4.972-12.137-1.06-.042c-1.548.059-3.094.031-4.659-.003l-2.305-.049c-.307-.001-.593.005-.899.005l-.598.025.165-.04c-1.649.029-11.025-.387-12.935-.366l.255.029c-1.687.085-1.45-.132-2.759-.223.176.226-1.271.313-1.823.33l.017-.061c-.837.022-2.695.167-4.073.166l.055-.116c-1.147.108-3.281-.001-4.107-.02-1.875-.1-4.749-.378-7.247-.286l-1.615-.398-.245.017-5.469.531c-1.245.146 2.773 4.515 2.643 4.587l-.525-.763c.006.133.453.786.733 1.107l.185-.034c.637.752.063.237.628 1.012-.081.13-.629-.553-1.087-1.166.403.576.729 1.194 1.02 1.322.344.557-.184.034.236.702.358.431.912.94 1.229 1.512l-.026.014c.796 1.345 1.586 1.79 2.324 3.031l-.124-.102c.24.463.909 1.18 1.382 1.972-.13-.234-.173-.465.164-.04.551.902 1.038 1.414 1.413 2.09l.554.509c2.128 2.952 10.826 14.419 13 17.363l-.104-.096 8.484 11.45zm-48.969-13.678l-12.148 3.602-6.005 1.864c-.887.117-2.063.48-2.965.724.509-.095.376.064-.026.168-2.716.773-.153.153-2.893 1.007l-8.605 2.54-12.631 3.528.609.853 2.858 3.687 1.369 1.859.543.702a6.49 6.49 0 0 0 .392.463l-.124-.101c1.053 1.287 6.448 8.94 7.636 10.44l-.13-.234c1.099 1.278.784 1.232 1.516 2.339.076-.263 1.039.801 1.371 1.247l-.046.008c.513.651 1.777 2.042 2.627 3.117l-.138.026c.787.839 2.013 2.591 2.506 3.236 1.07 1.532 2.597 3.983 4.21 5.912l.682 1.509.174.159 3.77 4.014c.877.908 1.881-4.952 2.022-4.911-.11.384-.22.768-.295.878.089-.084.35-.84.426-1.256l-.145-.107c.207-.947.165-.194.406-1.109.153 0-.064.835-.259 1.588.212-.661.504-1.299.418-1.608.241-.609.139.127.42-.623.11-.538.172-1.286.433-1.889l.014.026c.571-1.455.439-2.368.969-3.682v.153c.22-.462.372-1.446.722-2.287-.09.237-.254.431-.124-.101.371-.987.488-1.698.798-2.396l.061-.748c1.024-3.491 4.771-17.381 5.74-20.91l-.02.148 3.862-13.835z"/></svg>