<svg xmlns="http://www.w3.org/2000/svg" width="202" height="219" fill="#fff" opacity=".2" xmlns:v="https://vecta.io/nano"><path d="M103.451 132.327l5.949-4.863 2.921-2.453c.465-.278 1.042-.763 1.496-1.097-.263.177-.216.058-.028-.088 1.344-1.074.048-.119 1.377-1.237l4.225-3.433 6.248-4.936-.539-.34-2.457-1.383-1.202-.716-.467-.267-.322-.172.098.028-6.721-4.053.133.091c-.916-.462-.72-.499-1.389-.943.02.165-.763-.206-1.061-.371l.031-.017-2.199-1.123.066-.047c-.634-.288-1.737-.977-2.155-1.23l-3.744-2.309-.732-.688-.131-.051-3.049-1.353c-.699-.294.115 3.206.019 3.218l-.04-.556c-.033.07.003.545.062.801l.11.032c.11.589-.042.147.034.713-.079.044-.166-.486-.234-.943.038.422.023.843.139.996.017.403-.11-.032-.086.439.063.337.206.763.199 1.159l-.013-.004c.02.948.307 1.429.323 2.297l-.04-.092c-.007.303.127.899.139 1.46-.007-.161.047-.305.098.028l.117 1.534.139.438c.247 2.195 1.415 10.839 1.698 13.044l-.028-.088c.211 2.132.596 5.229 1.016 8.575zm-26.26-1.182l-2.551-7.25-1.322-3.578c-.099-.533-.363-1.233-.527-1.771.07.312-.023.219-.105-.003-.553-1.633-.093-.093-.687-1.724l-1.791-5.133-2.519-7.546-.5.401-2.147 1.839-1.077.885-.417.345-.269.241.049-.078-6.106 4.95.13-.083c-.746.702-.717.511-1.359.99.163.034-.465.65-.714.871l-.005-.028-1.811 1.683-.031-.075c-.488.497-1.512 1.291-1.886 1.622l-3.454 2.738-.901.458-.097.105-2.313 2.416c-.518.554 3.05.981 3.037 1.071l-.543-.143c.051.054.517.188.773.222l.065-.088c.582.101.121.088.683.21.012.096-.514-.015-.965-.105.408.104.802.257.99.205.377.121-.065.087.385.23.329.054.79.067 1.16.213l-.016.009c.909.301 1.442.201 2.265.478l-.096.012c.284.121.888.188 1.421.368-.144-.055-.264-.142.049-.079l1.475.41.445.022c2.15.511 10.683 2.363 12.844 2.837l-.089-.012c2.187.429 5.24 1.119 8.53 1.865zM9.306 148.954l3.649-1.474 1.797-.759c.272-.068.621-.22.899-.312-.16.047-.117-.007.002-.053.822-.321.042-.054.856-.391l2.581-1.038 3.791-1.46-.208-.246-.985-1.052-.483-.537a1.42 1.42 0 0 0-.194-.202l-.135-.132.045.027-2.67-2.997.047.067c-.375-.36-.282-.36-.537-.672-.012.089-.348-.22-.459-.344l.016-.009-.901-.883.044-.014c-.264-.235-.689-.742-.875-.928l-1.477-1.698-.257-.445-.054-.042-1.283-1.125c-.298-.258-.426 1.576-.479 1.574.023-.126.046-.252.069-.285-.035.03-.09.266-.088.399l.046.027c-.032.296-.046.066-.09.359-.044.014-.003-.267.036-.494-.048.212-.12.417-.08.508-.056.196-.046-.027-.112.206-.021.167-.023.405-.08.601l-.012-.003c-.134.466-.066.738-.189 1.167l-.01-.056c-.055.143-.078.455-.155.725.021-.074.067-.14.046.026l-.178.759.002.226-1.146 6.626-.002-.04-.784 4.394zm106.19-118.017l-1.387-3.677-.715-1.811c-.055-.268-.192-.626-.284-.905.035.156-.007.117-.053-.002-.293-.828-.054-.042-.372-.877l-.978-2.604-1.369-3.831-.258.205-1.074.966-.545.467-.211.178c-.038.042-.089.081-.131.135l.026-.046-3.056 2.6.067-.047c-.372.371-.356.269-.681.521.089.012-.228.333-.356.455l-.009-.016-.904.882-.014-.044c-.247.261-.75.674-.945.843l-1.728 1.442-.454.241-.043.054-1.158 1.26c-.258.297 1.566.463 1.565.515-.127-.023-.249-.058-.286-.069.03.035.266.09.396.1l.026-.046c.293.044.067.046.356.102.002.04-.266.003-.491-.048.212.048.417.12.505.092.196.056-.026.046.206.112.167.021.405.023.598.092l-.004.012c.463.146.735.078 1.16.213l-.052-.002c.143.055.452.09.722.167-.074-.021-.141-.067.026-.046l.755.19.226-.002 6.593 1.309-.04.002 4.371.91zm45.707 126.714l3.937-6.594 1.904-3.303c.346-.418.718-1.068 1.025-1.537-.191.25-.184.133-.055-.083.899-1.467.01-.13.88-1.632l2.799-4.665 4.184-6.763-.627-.127-2.786-.468-1.371-.261-.53-.098-.357-.05.096-.012c-.995-.14-6.557-1.338-7.7-1.52l.147.042c-1.014-.119-.853-.219-1.632-.416.075.155-.789.066-1.118.011l.019-.021-2.448-.304.046-.067c-.689-.052-1.961-.337-2.457-.413l-4.31-.892-.921-.397-.145-.002-3.33-.239c-.757-.045 1.204 2.973 1.125 3.017l-.236-.519c-.009.077.184.517.322.729l.108-.008c.305.512.011.149.275.662-.058.064-.324-.398-.536-.817.182.384.32.782.474.893.145.373-.108.008.072.445.181.291.451.647.584 1.017l-.013-.003c.344.882.775 1.231 1.084 2.05l-.072-.074c.09.291.422.798.63 1.322-.051-.147-.061-.296.096-.012l.633 1.403.281.359c.985 1.982 5.03 9.713 6.042 11.69l-.047-.067 3.928 7.724zm-38.906-69.347l6.913-3.365 3.4-1.718c.526-.168 1.19-.495 1.706-.718-.295.101-.226.001 0-.093 1.552-.736.081-.096 1.634-.885l4.891-2.379 7.207-3.373-.455-.449-2.076-1.923-1.01-.967-.399-.367-.277-.239.095.04-5.619-5.489.098.121c-.782-.649-.597-.649-1.13-1.24-.022.166-.703-.374-.942-.602l.031-.017-1.877-1.601.076-.031c-.555-.425-1.458-1.348-1.824-1.692l-3.116-3.111-.556-.837-.121-.088-2.657-2.024c-.613-.455-.626 3.152-.716 3.139l.082-.561c-.055.051-.127.534-.133.785l.104.056c-.024.59-.076.124-.136.704-.088.028-.054-.507-.001-.969-.051.41-.171.827-.09 1.009-.085.387-.104-.056-.185.412-.018.34.025.79-.072 1.174l-.012-.003c-.187.928-.031 1.451-.209 2.302l-.013-.096c-.084.294-.087.904-.201 1.442.03-.151.109-.287.079.049l-.235 1.512.031.447-1.354 13.084-.003-.081-.928 8.64zm-35.685 2.542l3.664-6.753 1.767-3.382c.337-.434.672-1.094.971-1.579-.179.254-.184.133-.056-.082.829-1.501.011-.13.81-1.666l2.605-4.774 3.903-6.937-.634-.102-2.805-.354-1.386-.212-.536-.074-.361-.037.096-.012c-1.006-.103-6.607-1.074-7.764-1.207l.147.042c-1.013-.078-.86-.194-1.65-.354.087.158-.787.106-1.12.064l.023-.033-2.46-.215.046-.067c-.696-.027-1.973-.248-2.469-.324l-4.347-.717-.932-.36-.146-.002-3.343-.097c-.768-.008 1.323 2.928 1.244 2.972l-.255-.498c-.009.077.211.512.35.724l.109-.009c.32.503.01.149.306.645-.058.063-.34-.389-.57-.788.198.375.351.764.505.875.161.365-.109.009.084.449.185.279.483.63.616 1l-.012-.004c.388.868.822 1.205 1.163 2.006l-.072-.074c.101.295.453.781.677 1.296-.063-.151-.073-.3.096-.012l.696 1.368.285.347c1.063 1.938 5.421 9.507 6.515 11.427l-.059-.07 4.302 7.58zm37.716 85.204l2.799-7.16 1.331-3.574c.27-.479.536-1.173.764-1.691-.146.276-.163.152-.072-.074.644-1.594-.013-.137.597-1.754l1.983-5.058 3.016-7.364-.643-.025c-.939.036-1.877.019-2.827-.002l-1.398-.03-.545.003-.363.015.1-.024c-1.001.018-6.689-.234-7.847-.222l.154.018c-1.023.051-.88-.08-1.673-.135.106.136-.772.19-1.106.2l.01-.037-2.471.1.033-.07c-.695.066-1.99-.001-2.491-.012l-4.397-.173-.979-.242-.149.011-3.318.321c-.756.089 1.682 2.74 1.603 2.784l-.318-.464c.003.081.274.477.444.672l.112-.021c.387.456.039.144.382.614-.05.079-.382-.335-.66-.707.245.349.442.724.619.802.208.338-.112.021.143.426.217.261.553.57.746.917l-.016.009c.483.815.962 1.086 1.41 1.838l-.075-.061c.145.28.551.716.838 1.196-.079-.142-.105-.282.1-.024l.857 1.268.336.309c1.291 1.791 6.568 8.747 7.887 10.533l-.063-.058 5.147 6.946zm-29.707-8.297l-7.37 2.185-3.643 1.131c-.538.071-1.252.291-1.799.439.308-.057.228.039-.016.102-1.648.469-.093.092-1.755.611l-5.221 1.541-7.663 2.14.369.518 1.734 2.236.831 1.128.329.426c.077.102.157.192.238.281l-.075-.061c.639.78 3.912 5.423 4.633 6.334l-.079-.143c.667.776.476.748.92 1.419.046-.159.63.487.831.757l-.028.005 1.594 1.891-.084.016c.478.509 1.221 1.571 1.52 1.963l2.554 3.587.414.915.105.096 2.287 2.436c.532.551 1.141-3.004 1.227-2.98l-.179.533c.054-.051.213-.51.259-.762l-.088-.065c.125-.575.1-.117.246-.673.093 0-.039.507-.157.964.128-.401.306-.788.254-.976.146-.369.084.077.255-.378.067-.326.104-.78.263-1.146l.009.016c.346-.883.266-1.437.588-2.234v.093c.133-.28.225-.878.438-1.387-.055.143-.155.261-.075-.062l.484-1.454.037-.453c.621-2.118 2.894-10.545 3.482-12.686l-.012.09 2.343-8.393z"/></svg>