<svg xmlns="http://www.w3.org/2000/svg" width="28" height="28" fill="none" xmlns:v="https://vecta.io/nano"><g clip-path="url(#B)"><path d="M22.148 14.055c-1.809 0-3.281 1.472-3.281 3.281s1.472 3.281 3.281 3.281h4.648l.055-.003.054.003c.604 0 1.094-.49 1.094-1.094v-8.586a4.37 4.37 0 0 0-1.813-3.543L22.466 1.29c-.152-.249-.397-.427-.68-.495s-.582-.019-.83.134l-2.744 1.702L16.974.537c-.149-.252-.392-.433-.676-.505s-.584-.026-.834.126L4.928 6.563H3.281c-.594 0-1.079-.476-1.093-1.066.015-.591.499-1.066 1.093-1.066h2.023c.604 0 1.094-.49 1.094-1.094s-.49-1.094-1.094-1.094H3.281C1.734 2.242.433 3.319.089 4.763A1.09 1.09 0 0 0 0 5.195v.273.055 18.102A4.38 4.38 0 0 0 4.375 28h19.25a4.37 4.37 0 0 0 4.151-2.99c.191-.573-.118-1.193-.691-1.384s-1.192.118-1.384.691c-.298.894-1.132 1.495-2.076 1.495H4.375a2.19 2.19 0 0 1-2.187-2.187V8.562c.342.121.71.188 1.094.188h20.344a2.19 2.19 0 0 1 2.188 2.187v3.117h-3.664zm3.664 4.375h-3.664c-.603 0-1.094-.491-1.094-1.094s.491-1.094 1.094-1.094h3.664v2.188zM9.14 6.563l6.514-3.959 1.165 1.971a1.08 1.08 0 0 0 .08.158 1.11 1.11 0 0 0 .078.108l1.017 1.721H9.14zm11.395 0l-1.21-2.047 1.847-1.145 1.946 3.193h-2.584z" fill="url(#A)"/></g><defs><linearGradient id="A" x1="0" y1="14.067" x2="28" y2="14.067" gradientUnits="userSpaceOnUse"><stop stop-color="#6366f1"/><stop offset=".5" stop-color="#8b5cf6"/><stop offset="1" stop-color="#d946ef"/></linearGradient><clipPath id="B"><path fill="#fff" d="M0 0h28v28H0z"/></clipPath></defs></svg>