<svg xmlns="http://www.w3.org/2000/svg" width="28" height="28" fill="none" xmlns:v="https://vecta.io/nano"><g clip-path="url(#B)"><path d="M13.945 21.656c-5.031 0-7.373-4.222-7.47-4.401-.287-.531-.09-1.195.442-1.483s1.195-.089 1.482.442c.002.004.474.847 1.412 1.667 1.205 1.053 2.596 1.588 4.134 1.588 3.742 0 5.528-3.222 5.546-3.255.288-.531.951-.729 1.483-.442s.729.951.442 1.482c-.097.18-2.438 4.401-7.47 4.401zm7.299 4.326c.517-.313.682-.985.369-1.502s-.986-.682-1.502-.369A11.79 11.79 0 0 1 14 25.813 11.83 11.83 0 0 1 2.188 14 11.83 11.83 0 0 1 14 2.188 11.83 11.83 0 0 1 25.813 14c0 2.329-.693 4.596-2.003 6.556-.336.502-.201 1.181.301 1.517s1.181.201 1.517-.301C27.18 19.451 28 16.763 28 14c0-3.739-1.456-7.255-4.1-9.9S17.74 0 14 0 6.745 1.456 4.1 4.1 0 10.261 0 14s1.456 7.255 4.1 9.9S10.261 28 14 28c2.56 0 5.065-.698 7.244-2.018zm.358-14.607a2.74 2.74 0 0 0-2.734-2.734 2.74 2.74 0 0 0-2.734 2.734c0 .604.49 1.094 1.094 1.094s1.094-.49 1.094-1.094a.55.55 0 0 1 .547-.547.55.55 0 0 1 .547.547c0 .604.49 1.094 1.094 1.094s1.094-.49 1.094-1.094zm-9.68 0a2.74 2.74 0 0 0-2.734-2.734 2.74 2.74 0 0 0-2.734 2.734c0 .604.49 1.094 1.094 1.094s1.094-.49 1.094-1.094a.55.55 0 0 1 .547-.547.55.55 0 0 1 .547.547c0 .604.49 1.094 1.094 1.094s1.094-.49 1.094-1.094z" fill="url(#A)"/></g><defs><linearGradient id="A" x1="0" y1="14.067" x2="28" y2="14.067" gradientUnits="userSpaceOnUse"><stop stop-color="#6366f1"/><stop offset=".5" stop-color="#8b5cf6"/><stop offset="1" stop-color="#d946ef"/></linearGradient><clipPath id="B"><path fill="#fff" d="M0 0h28v28H0z"/></clipPath></defs></svg>