<svg xmlns="http://www.w3.org/2000/svg" width="28" height="28" fill="none" xmlns:v="https://vecta.io/nano"><path d="M22.531 16.413c.604 0 1.094.49 1.094 1.094v1.313c0 .604-.49 1.094-1.094 1.094h-2.516c-.604 0-1.094-.49-1.094-1.094v-1.312c0-.604.49-1.094 1.094-1.094h2.516zm3.281-1.969v-3.281H2.188v8.743a2.19 2.19 0 0 0 2.188 2.188h19.25a2.19 2.19 0 0 0 2.188-2.188c0-.604.49-1.094 1.094-1.094S28 19.302 28 19.906a4.38 4.38 0 0 1-4.375 4.375H4.375A4.38 4.38 0 0 1 0 19.906V8.094a4.38 4.38 0 0 1 4.375-4.375h19.25A4.38 4.38 0 0 1 28 8.094v6.35c0 .604-.49 1.094-1.094 1.094s-1.094-.49-1.094-1.094zm0-5.469v-.882a2.19 2.19 0 0 0-2.187-2.187H4.375a2.19 2.19 0 0 0-2.187 2.188v.882h23.625zM5.469 13.35c-.604 0-1.094.49-1.094 1.094s.49 1.094 1.094 1.094h9.023c.604 0 1.094-.49 1.094-1.094s-.49-1.094-1.094-1.094H5.469z" fill="url(#A)"/><defs><linearGradient id="A" x1="0" y1="14.049" x2="28" y2="14.049" gradientUnits="userSpaceOnUse"><stop stop-color="#6366f1"/><stop offset=".5" stop-color="#8b5cf6"/><stop offset="1" stop-color="#d946ef"/></linearGradient></defs></svg>