<svg xmlns="http://www.w3.org/2000/svg" width="28" height="28" fill="none" xmlns:v="https://vecta.io/nano"><g clip-path="url(#B)"><path d="M13.945 28c-.168 0-.335-.038-.489-.115-.128-.064-3.169-1.606-6.352-5.065a26.9 26.9 0 0 1-4.554-6.757C1.106 12.995.248 9.636.002 6.08c-.02-.29.076-.576.267-.795s.462-.353.752-.372c2.003-.132 3.572-1.809 3.572-3.819C4.594.49 5.083 0 5.687 0h16.625c.604 0 1.094.49 1.094 1.094 0 2.009 1.568 3.686 3.57 3.819.295.019.569.157.76.382s.284.518.256.812c-.374 3.949-1.464 7.642-3.241 10.977-.284.533-.946.735-1.479.451s-.735-.946-.451-1.48c1.488-2.794 2.455-5.866 2.881-9.145-2.24-.59-3.96-2.443-4.383-4.724H6.681C6.256 4.479 4.523 6.337 2.27 6.919c.575 5.518 2.72 10.342 6.383 14.353 2.193 2.401 4.343 3.817 5.286 4.377 1.032-.628 3.527-2.314 5.956-5.239.386-.465 1.075-.528 1.54-.142s.529 1.076.142 1.54c-3.457 4.162-6.986 5.996-7.135 6.072a1.09 1.09 0 0 1-.498.12zm.846-5.919c.364-.482.269-1.168-.213-1.532-.946-.715-1.841-1.525-2.66-2.408-2.383-2.569-3.999-5.586-4.811-8.979.438-.338.849-.711 1.229-1.116.63-.671 1.168-1.419 1.599-2.226.285-.533.083-1.195-.449-1.48s-1.195-.083-1.48.449a8.25 8.25 0 0 1-1.264 1.758c-.439.467-.931.882-1.462 1.233-.373.246-.558.694-.469 1.132.833 4.072 2.684 7.677 5.503 10.716a22.68 22.68 0 0 0 2.945 2.666 1.09 1.09 0 0 0 1.532-.213z" fill="url(#A)"/></g><defs><linearGradient id="A" x1="-.001" y1="14.067" x2="27.998" y2="14.067" gradientUnits="userSpaceOnUse"><stop stop-color="#6366f1"/><stop offset=".5" stop-color="#8b5cf6"/><stop offset="1" stop-color="#d946ef"/></linearGradient><clipPath id="B"><path fill="#fff" d="M0 0h28v28H0z"/></clipPath></defs></svg>