<svg xmlns="http://www.w3.org/2000/svg" width="28" height="28" fill="none" xmlns:v="https://vecta.io/nano"><g clip-path="url(#B)"><path d="M25.813 21.983V2.734a.55.55 0 0 0-.547-.547H22.86a.55.55 0 0 0-.547.547v23.076h4.593c.604 0 1.094.49 1.094 1.093s-.49 1.094-1.094 1.094H1.096c-.604 0-1.094-.49-1.094-1.094v-7.82a2.74 2.74 0 0 1 2.734-2.734h2.406a2.74 2.74 0 0 1 2.734 2.734v2.898c0 .604-.49 1.094-1.094 1.094s-1.094-.49-1.094-1.094v-2.898a.55.55 0 0 0-.547-.547H2.736a.55.55 0 0 0-.547.547v6.726h7.875V11.484a2.74 2.74 0 0 1 2.734-2.734h2.406a2.74 2.74 0 0 1 2.734 2.734v10.499c0 .604-.49 1.094-1.094 1.094s-1.094-.49-1.094-1.094V11.484a.55.55 0 0 0-.547-.547h-2.406a.55.55 0 0 0-.547.547v14.327h7.874V2.734A2.74 2.74 0 0 1 22.86 0h2.406A2.74 2.74 0 0 1 28 2.734v19.249c0 .604-.49 1.094-1.094 1.094s-1.093-.49-1.093-1.094zM4.357 9.788H2.728c-.269 0-.541-.169-.541-.492 0-.604-.49-1.094-1.094-1.094S0 8.692 0 9.296c0 1.469 1.145 2.626 2.626 2.677v.604c0 .604.49 1.094 1.094 1.094s1.094-.49 1.094-1.094v-.633c1.505-.21 2.626-1.447 2.626-2.989v-.096c0-1.719-1.383-3.117-3.082-3.117H3.355c-.498 0-.889-.38-.889-.866v-.079c0-.49.382-.859.889-.859h.948c.279 0 .567.186.567.498 0 .604.49 1.094 1.094 1.094s1.094-.49 1.094-1.094c0-1.311-.968-2.404-2.243-2.639v-.703C4.813.49 4.324 0 3.72 0S2.626.49 2.626 1.094v.741c-.541.128-1.037.398-1.439.791a3.01 3.01 0 0 0-.908 2.17v.079c0 .826.322 1.597.906 2.172.578.568 1.349.881 2.17.881h1.002c.485 0 .895.426.895.929v.096c0 .476-.385.834-.895.834z" fill="url(#A)"/></g><defs><linearGradient id="A" x1="0" y1="14.066" x2="28" y2="14.066" gradientUnits="userSpaceOnUse"><stop stop-color="#6366f1"/><stop offset=".5" stop-color="#8b5cf6"/><stop offset="1" stop-color="#d946ef"/></linearGradient><clipPath id="B"><path fill="#fff" d="M0 0h28v28H0z"/></clipPath></defs></svg>