<svg xmlns="http://www.w3.org/2000/svg" width="28" height="28" fill="none" xmlns:v="https://vecta.io/nano"><g clip-path="url(#B)"><path d="M26.322 22.544c1.1-1.497 1.677-3.237 1.677-5.07 0-2.935-1.522-5.66-4.09-7.361-.237-2.615-1.458-5.04-3.5-6.909C18.152 1.138 15.157 0 11.976 0S5.8 1.138 3.542 3.204C1.258 5.295 0 8.083 0 11.054c0 2.285.737 4.452 2.137 6.306L.079 22.449c-.167.413-.067.885.253 1.195.208.202.483.308.762.308.149 0 .299-.03.441-.093l5.868-2.587c.737.282 1.496.492 2.272.632.795 1.308 1.93 2.416 3.309 3.222 1.54.9 3.317 1.381 5.146 1.395l.081.004a10.41 10.41 0 0 0 3.648-.65l4.606 2.031a1.09 1.09 0 0 0 .441.093c.279 0 .553-.107.762-.308.32-.31.42-.783.253-1.195l-1.598-3.952zm-2.266.23l.826 2.044-2.561-1.129c-.277-.122-.592-.124-.87-.005-1.004.428-2.079.648-3.196.654l-.044-.002c-2.155 0-4.192-.842-5.614-2.243 1.804-.086 3.572-.547 5.148-1.348.539-.274.753-.932.48-1.471s-.932-.753-1.471-.48c-1.451.737-3.103 1.127-4.777 1.127-1.455 0-2.856-.283-4.163-.841-.278-.119-.594-.117-.87.005l-3.826 1.686 1.288-3.186c.153-.378.083-.809-.182-1.119-1.332-1.563-2.036-3.434-2.036-5.412 0-4.889 4.391-8.867 9.789-8.867s9.789 3.978 9.789 8.867c0 1.579-.464 3.129-1.343 4.483-.329.507-.184 1.184.322 1.513s1.184.184 1.513-.322a10.49 10.49 0 0 0 1.541-3.906c1.281 1.255 2.013 2.908 2.013 4.652 0 1.527-.544 2.973-1.575 4.181-.264.31-.334.742-.182 1.119zM13.015 16.68c0 .604-.49 1.094-1.094 1.094s-1.094-.49-1.094-1.094.49-1.094 1.094-1.094 1.094.49 1.094 1.094zm3.062-8.195c.001.015.001.03.001.046a4.1 4.1 0 0 1-2.492 3.775c-.313.134-.516.449-.516.804v.071c0 .604-.49 1.094-1.094 1.094s-1.094-.49-1.094-1.094v-.07a3.05 3.05 0 0 1 1.845-2.816c.697-.298 1.151-.975 1.163-1.731v-.032c0-1.055-.858-1.914-1.914-1.914s-1.914.858-1.914 1.914c0 .604-.49 1.094-1.094 1.094s-1.094-.49-1.094-1.094c0-2.261 1.84-4.101 4.101-4.101 2.246 0 4.076 1.815 4.101 4.055z" fill="url(#A)"/></g><defs><linearGradient id="A" x1="0" y1="14.067" x2="28" y2="14.067" gradientUnits="userSpaceOnUse"><stop stop-color="#6366f1"/><stop offset=".5" stop-color="#8b5cf6"/><stop offset="1" stop-color="#d946ef"/></linearGradient><clipPath id="B"><path fill="#fff" d="M0 0h28v28H0z"/></clipPath></defs></svg>