<svg xmlns="http://www.w3.org/2000/svg" viewBox="0 0 154 36" xmlns:v="https://vecta.io/nano"><path d="M20.9 30.8h25.6V5.2H20.9v25.6zm20.8-15.3h-5.4v-5.4h5.4v5.4zm-15.8-5.4h5.4v10.4h10.4v5.4H25.9V10.1zm37.4-4.9c-2.5 0-5 .8-7.1 2.2s-3.8 3.4-4.7 5.8c-1 2.3-1.2 4.9-.7 7.4s1.7 4.8 3.5 6.6 4.1 3 6.6 3.5 5.1.2 7.4-.7a13.93 13.93 0 0 0 5.8-4.7c1.4-2.1 2.2-4.6 2.2-7.1 0-3.4-1.4-6.7-3.8-9.1-2.5-2.6-5.8-3.9-9.2-3.9zm0 20.7c-1.6 0-3.1-.5-4.4-1.3-1.3-.9-2.3-2.1-2.9-3.5s-.8-3-.4-4.6c.3-1.5 1.1-2.9 2.2-4s2.5-1.9 4-2.2 3.1-.1 4.6.4c1.4.6 2.7 1.6 3.5 2.9.9 1.3 1.3 2.8 1.3 4.4 0 2.1-.8 4.1-2.3 5.6s-3.5 2.3-5.6 2.3zM122 5.2c-2.5 0-5 .8-7.1 2.2s-3.8 3.4-4.7 5.8c-1 2.3-1.2 4.9-.7 7.4s1.7 4.8 3.5 6.6 4.1 3 6.6 3.5 5.1.2 7.4-.7a13.93 13.93 0 0 0 5.8-4.7c1.4-2.1 2.2-4.6 2.2-7.1 0-3.4-1.4-6.7-3.8-9.1-2.5-2.6-5.8-3.9-9.2-3.9zm0 20.7c-1.6 0-3.1-.5-4.4-1.3-1.3-.9-2.3-2.1-2.9-3.5s-.8-3-.4-4.6c.3-1.5 1.1-2.9 2.2-4s2.5-1.9 4-2.2 3.1-.1 4.6.4c1.4.6 2.7 1.6 3.5 2.9.9 1.3 1.3 2.8 1.3 4.4 0 2.1-.8 4.1-2.3 5.6s-3.5 2.3-5.6 2.3zM92.7 5.2c-2.5 0-5 .8-7.1 2.2s-3.8 3.4-4.7 5.8c-1 2.3-1.2 4.9-.7 7.4s1.7 4.8 3.5 6.6 4.1 3 6.6 3.5 5.1.2 7.4-.7a13.93 13.93 0 0 0 5.8-4.7c1.4-2.1 2.2-4.6 2.2-7.1 0-3.4-1.4-6.7-3.8-9.1-2.6-2.6-5.8-3.9-9.2-3.9zm0 20.7c-1.5 0-2.9-.4-4.1-1.2s-2.2-1.8-2.9-3.1-1-2.7-.8-4.2c.1-1.4.6-2.8 1.5-4s2-2.1 3.4-2.7c1.3-.6 2.8-.7 4.2-.5s2.8.8 3.9 1.8c1.1.9 1.9 2.2 2.4 3.5h-7.5v4.9h7.5c-.5 1.6-1.5 2.9-2.9 3.9-1.5 1.1-3.1 1.6-4.7 1.6z" fill="#b4b7c9"/></svg>