<svg xmlns="http://www.w3.org/2000/svg" viewBox="0 0 154 36" xmlns:v="https://vecta.io/nano"><path d="M76.7 24.4h-5.1V10.7h5.1v13.7zm-4.6-.5h4.1V11.2h-4.1v12.7zm11.7.5h-5V10.7h10.5c1.5-.1 3 .3 4.2 1.2a6.57 6.57 0 0 1 1.2 1.7c.3.7.4 1.4.3 2.1.1 1.2-.3 2.4-1.1 3.4-.9 1.1-2.4 1.6-4.5 1.6h-5.5l-.1 3.7zm-4.5-.5h4v-3.7h.3 5.8c1.9 0 3.4-.5 4.2-1.4.7-.9 1-1.9 1-3 .1-.6 0-1.3-.2-1.9s-.6-1.1-1.1-1.6c-1.1-.8-2.5-1.2-3.9-1.1h-10l-.1 12.7zm8.9-6.3h-4.9v-3.7h5c.4 0 .7 0 1 .1s.6.3.9.6c.2.3.3.7.3 1.2 0 .4-.1.7-.2 1.1-.2.3-.5.5-.9.6s-.8.2-1.2.1h0zm-4.4-.5h4.4c.8 0 1.3-.2 1.6-.5.1-.3.2-.5.2-.8s0-.6-.2-.9h0c-.2-.4-.7-.5-1.5-.5h-4.5v2.7zm20.3 7.5c-4.5 0-7.2-1.1-8.2-3.4-.2-.4-.3-.9-.3-1.4v-.3h5.3v.2c0 .2.1.4.3.6.2.3.9.7 3.3.7 2.8 0 2.8-.5 2.8-.8 0-.4-.3-.6-2.6-.8h-.4l-2.5-.2c-4.2-.4-6.1-1.7-6.1-4.2 0-2.7 3.2-4.4 8.1-4.4 4 0 6.6 1.1 7.7 3.2.3.5.4 1 .5 1.6v.3h-5.3v-.2c0-.2-.1-.3-.2-.5-.2-.3-.8-.7-2.8-.7-2.4 0-2.7.3-2.7.6 0 .4.8.6 3.2.9l3.2.3c3.5.4 5.1 1.7 5.1 4.1-.1 1.9-1.5 4.4-8.4 4.4zm-8-4.6c.1.3.1.7.3 1 .9 2.1 3.5 3.1 7.7 3.1 3.6 0 7.8-.7 7.8-4.1 0-2.2-1.4-3.3-4.6-3.6-.6-.1-2.2-.2-3.2-.3-2.6-.3-3.7-.4-3.7-1.4s1.1-1.1 3.2-1.1c1.7 0 2.7.3 3.2.9.1.1.2.3.3.5h4.3c-.1-.4-.2-.8-.4-1.1-1-1.9-3.4-2.9-7.3-2.9-4.6 0-7.6 1.5-7.6 3.9 0 2.3 1.7 3.4 5.6 3.7.5 0 1.6.1 2.5.2h.4c2.1.2 3.1.4 3.1 1.3 0 1.1-1.2 1.3-3.3 1.3-1.9 0-3.2-.3-3.6-.9-.1-.2-.3-.4-.3-.6h-4.4zm25.8 4.6c-5.2 0-8.1-2.1-8.1-5.9v-7.9h5.1v7.9c0 1.3 1.2 2.1 3.2 2.1s3.2-.8 3.2-2.1v-7.9h5V19c0 3.5-3.1 5.6-8.4 5.6h0zm-7.6-13.4v7.4c0 4.7 4.8 5.4 7.6 5.4 2.9 0 7.9-.7 7.9-5v-7.8h-4v7.4c0 1.5-1.4 2.6-3.7 2.6s-3.7-1-3.7-2.6v-7.4h-4.1zm37.2 13.2h-4.8v-6.2l-2.7 6.2h-4.2l-2.7-6.2v6.2h-4.8V10.7h6.3l3.3 7.5 3.4-7.5h6.1l.1 13.7zm-4.3-.5h3.8V11.2h-5.3l-3.8 8.3-3.6-8.3h-5.5v12.7h3.8v-8.1l3.5 8.1h3.5l3.5-8.1.1 8.1zM7.1 10.9H2.5v13.2h12.6v-3.5h-8v-9.7zm17.2-.3c-5.8 0-8.9 2.8-8.9 6.8 0 4.6 3.2 6.9 8.9 6.9 6.2 0 8.9-2.7 8.9-6.9-.1-4.2-3-6.8-8.9-6.8h0zm0 3.5c.4 0 .8 0 1.2.1l-5.1 5.1c-.2-.5-.4-1.1-.3-1.7-.1-2.2.9-3.5 4.2-3.5h0zm0 6.9c-.4 0-.8 0-1.1-.1l5.1-5.1c.2.5.3 1.1.3 1.7 0 2-1 3.4-4.3 3.5h0zm17.9-1.8h4.7c-.1.3-.2.6-.4.9-1 .8-2.2 1.2-3.5 1.1-.6.1-1.3 0-1.9-.2s-1.1-.5-1.6-1c-.5-.7-.7-1.5-.6-2.4-.1-.9.2-1.8.7-2.5.7-.7 1.8-1.1 3.4-1.1 1-.1 2.1.2 2.9.8.3.2.5.5.6.8h4.3c0-.5-.2-1.1-.4-1.6-1-2.1-3.5-3.4-7.6-3.4-3.6 0-6 1.1-7.3 2.7-.9 1.2-1.3 2.6-1.3 4.1-.1 1.5.4 3 1.2 4.2 1.3 1.7 3.6 2.5 6.5 2.5 1.9.1 3.7-.4 5.2-1.5l.1 1.3h3.6v-7.8H42v3.1zm19-8.6c-5.8 0-8.9 2.8-8.9 6.8 0 4.6 3.2 6.9 8.9 6.9 6.2 0 8.9-2.7 8.9-6.9-.1-4.2-3-6.8-8.9-6.8h0zm0 3.5c.4 0 .8 0 1.2.1l-5.1 5.1c-.2-.5-.3-1.1-.3-1.7-.1-2.2.9-3.5 4.2-3.5h0zm0 6.8c-.4 0-.8 0-1.2-.1l5.1-5.1c.2.5.4 1.1.3 1.7.1 2.1-.9 3.5-4.2 3.5h0z" fill="#b4b7c9"/></svg>