<svg xmlns="http://www.w3.org/2000/svg" viewBox="0 0 154 36" fill="#b4b7c9" xmlns:v="https://vecta.io/nano"><path d="M52.9 12.1h3v12.1h-3V12.1zm4.2 7.5c0-3 1.8-4.8 4.7-4.8s4.7 1.8 4.7 4.8-1.8 4.8-4.7 4.8-4.7-1.7-4.7-4.8zm6.3 0c0-1.6-.6-2.6-1.7-2.6S60 18 60 19.6s.6 2.6 1.7 2.6 1.7-.9 1.7-2.6h0zm4.2 5.2h2.9a1.21 1.21 0 0 0 .7.7c.3.2.6.2 1 .2 1.1 0 1.7-.6 1.7-1.5v-1.7h-.1c-.2.5-.6.9-1.1 1.2s-1 .4-1.6.4c-2.2 0-3.6-1.7-3.6-4.5s1.4-4.7 3.7-4.7c.6 0 1.2.1 1.7.4s.9.8 1.1 1.3V15h3v9.1c0 2.2-1.9 3.5-4.8 3.5-2.8 0-4.5-1.1-4.6-2.8h0zm6.2-5.2c0-1.5-.7-2.4-1.7-2.4s-1.7.9-1.7 2.4.6 2.3 1.7 2.3 1.7-.8 1.7-2.3h0zm4.1 0c0-3 1.8-4.8 4.7-4.8s4.7 1.8 4.7 4.8-1.8 4.8-4.7 4.8-4.7-1.7-4.7-4.8h0zm6.4 0c0-1.6-.7-2.6-1.7-2.6S81 18 81 19.6s.6 2.6 1.7 2.6c1 0 1.6-.9 1.6-2.6h0zm4.1-6.8c0-.3.1-.6.2-.9.2-.3.4-.5.7-.6s.6-.2.9-.1.6.2.8.4.4.5.4.8c.1.3 0 .6-.1.9s-.3.5-.5.7-.5.3-.8.3c-.2 0-.4 0-.6-.1s-.4-.2-.5-.3-.3-.3-.3-.5c-.1-.2-.2-.4-.2-.6h0zm0 2.2h3v9.2h-3V15zm13.9 4.6c0 3-1.3 4.7-3.6 4.7-.6 0-1.2-.1-1.7-.4s-.9-.8-1.1-1.3h-.1v4.5h-3V15h3v1.6h.1c.2-.5.6-1 1.1-1.3s1.1-.5 1.7-.4c2.3 0 3.7 1.7 3.6 4.7h0zm-3 0c0-1.5-.7-2.4-1.7-2.4s-1.7.9-1.7 2.4.7 2.4 1.7 2.4 1.7-.9 1.7-2.4h0zm8.2-4.8c2.5 0 4 1.2 4.1 3.1h-2.7c0-.6-.5-1.1-1.4-1.1-.8 0-1.2.3-1.2.8s.3.6 1 .8l1.9.4c1.8.4 2.6 1.1 2.6 2.5 0 1.9-1.7 3.1-4.3 3.1-2.5 0-4.2-1.2-4.3-3.1h2.9c.1.7.6 1.1 1.5 1.1s1.3-.3 1.3-.8-.3-.6-1-.7l-1.7-.4c-1.8-.4-2.7-1.3-2.7-2.7-.1-1.8 1.5-3 4-3h0zm14.3 9.4h-2.9v-1.7h-.1c-.2.6-.5 1.1-1 1.4s-1.1.5-1.7.5c-.5 0-.9 0-1.3-.2s-.8-.4-1.1-.7-.6-.7-.7-1.1c-.2-.4-.2-.9-.2-1.3V15h3v5.2c0 1.1.6 1.7 1.5 1.7.2 0 .4 0 .6-.1s.4-.2.5-.4.3-.4.3-.6c.1-.2.1-.4.1-.6V15h3v9.2zm1.4-9.2h2.9v1.8h.1c.2-.6.5-1.1 1-1.4.5-.4 1-.5 1.6-.5s1.2.1 1.7.5a2.37 2.37 0 0 1 .9 1.5h.1c.2-.6.6-1.1 1.1-1.5s1.1-.5 1.8-.5c.4 0 .8.1 1.2.2.4.2.7.4 1 .7s.5.6.6 1 .2.8.2 1.2v6.2h-3v-5.4c0-1-.4-1.5-1.3-1.5-.2 0-.4 0-.5.1a1.38 1.38 0 0 0-.4.3c-.1.1-.2.3-.3.5s-.1.4 0 .6v5.4h-2.8v-5.5c0-.9-.5-1.4-1.3-1.4-.2 0-.4 0-.5.1-.2.1-.3.2-.5.3-.1.1-.2.3-.3.5s-.1.4-.1.6v5.4h-3l-.2-9.2zm-78.7-2.4c-.5-1.2-1.2-2.2-2-3.2-1.2-1.5-2.7-2.7-4.4-3.5-1.7-.9-3.6-1.3-5.5-1.4s-3.8.2-5.6 1c-1.8.7-3.4 1.8-4.7 3.2s-2.4 3-3 4.8-.9 3.7-.8 5.6.7 3.8 1.6 5.4c.9 1.7 2.2 3.1 3.7 4.3a11.37 11.37 0 0 0 3.2 1.8c1.6.7 3.3 1 5.1 1 3.6 0 7-1.4 9.6-4 2.5-2.5 4-6 4-9.6a16.33 16.33 0 0 0-1.2-5.4zM32.1 7.2c1.6 0 3.1.3 4.5 1-.3.1-.7.3-1.1.3-1.2.2-2.4.7-3.2 1.6-.9.9-1.4 2-1.6 3.2a3.1 3.1 0 0 1-.9 1.8c-.5.5-1.1.8-1.8.8-1.2.2-2.4.7-3.2 1.6-.9.9-1.4 2-1.6 3.2-.1.7-.3 1.3-.8 1.7-.8-1.6-1.1-3.5-1-5.3s.7-3.6 1.7-5.1 2.3-2.8 3.9-3.7c1.5-.7 3.2-1.1 5.1-1.1h0zM23.8 25c.1-.1.2-.2.4-.3.9-.9 1.5-2 1.6-3.2a3.1 3.1 0 0 1 .9-1.8 3.1 3.1 0 0 1 1.8-.9c1.2-.2 2.4-.7 3.2-1.6.9-.9 1.4-2 1.6-3.2 0-.7.4-1.4.9-1.9s1.1-.8 1.8-.8c1.1-.2 2.2-.7 3-1.4a13.12 13.12 0 0 1 2.4 2.8c0 .1-.1.1-.1.1a3.1 3.1 0 0 1-1.8.9c-1.2.2-2.4.7-3.2 1.6-.9.9-1.4 2-1.6 3.2a3.1 3.1 0 0 1-.9 1.8 3.1 3.1 0 0 1-1.8.9c-1.2.2-2.4.7-3.2 1.6-.9.9-1.5 2-1.6 3.2-.1.5-.2 1-.5 1.4-1.2-.7-2.1-1.5-2.9-2.4zm8.3 3.9c-1 0-2-.1-3-.4.3-.6.6-1.3.6-2a3.1 3.1 0 0 1 .9-1.8 3.1 3.1 0 0 1 1.8-.9c1.2-.2 2.4-.7 3.2-1.6.9-.9 1.4-2 1.6-3.2a3.1 3.1 0 0 1 .9-1.8 3.1 3.1 0 0 1 1.8-.9c.9-.1 1.8-.5 2.6-1 .4 1.6.5 3.3.1 4.9-.3 1.6-1 3.1-2 4.5-1 1.3-2.3 2.4-3.8 3.1-1.5.6-3.1 1-4.7 1.1h0z"/></svg>