<svg xmlns="http://www.w3.org/2000/svg" viewBox="0 0 154 36" fill="#b4b7c9" xmlns:v="https://vecta.io/nano"><path d="M42.5 13.2c.4 0 .5.1.5.5v7.9h4.1c.3 0 .5.1.5.5v.7c0 .4-.1.5-.5.5h-5.4c-.3 0-.5-.1-.5-.5v-9.1c0-.3.1-.5.5-.5h.8zm8.6 3.5c0-2.3 1.5-3.7 4-3.7s4 1.4 4 3.7v3.1c0 2.3-1.5 3.7-4 3.7s-4-1.4-4-3.7v-3.1zm6.3 0c0-1.3-.8-2-2.3-2s-2.3.7-2.3 2v3.1c0 1.3.8 2 2.3 2s2.3-.7 2.3-2v-3.1zM71 17.8c.4 0 .5.1.5.5v1.9a3.08 3.08 0 0 1-.3 1.3 4.44 4.44 0 0 1-.8 1.1c-.8.7-1.9 1-3 .9-2.6 0-4-1.4-4-3.7v-3.1c0-2.3 1.5-3.7 4-3.7 2 0 3.3.8 3.8 2.4v.2.2c0 .1-.1.1-.1.2 0-.1-.1 0-.1 0l-.8.3c-.3.1-.5.1-.6-.3-.2-.4-.5-.8-.9-1a3.08 3.08 0 0 0-1.3-.3c-1.5 0-2.3.7-2.3 2v3.2c0 1.3.8 2 2.3 2s2.4-.7 2.4-1.6v-.7h-2.2c-.4 0-.5-.1-.5-.5v-.7c0-.4.1-.5.5-.5H71zm4.6-1.1c0-2.3 1.5-3.7 4-3.7s4 1.4 4 3.7v3.1c0 2.3-1.5 3.7-4 3.7s-4-1.4-4-3.7v-3.1zm6.3 0c0-1.3-.8-2-2.3-2-1.4 0-2.3.7-2.3 2v3.1c0 1.3.8 2 2.3 2s2.3-.7 2.3-2v-3.1zm6.4-3.2c0-.2.1-.3.3-.3h.5c.2 0 .3.1.3.3V23c0 .2 0 .3-.3.3h-.5c-.2 0-.3-.1-.3-.3v-9.5zm10.2-.3c.8 0 1.6.3 2.2.9s.9 1.4.9 2.2-.3 1.6-.9 2.2-1.4.9-2.2.9h-3V23c0 .2-.1.3-.3.3h-.5c-.2 0-.3-.1-.3-.3v-9.5c0-.2.1-.3.3-.3h3.8zm-.1 5.3c.3 0 .6-.1.8-.2.3-.1.5-.3.7-.5s.4-.4.5-.7.2-.5.2-.8-.1-.6-.2-.8c-.1-.3-.3-.5-.5-.7s-.4-.4-.7-.5-.5-.2-.8-.2h-3v4.4h3zm11-5.4c.8-.1 1.6.1 2.2.5a3.53 3.53 0 0 1 1.5 1.7c.1.2 0 .3-.2.4l-.4.2c-.2.1-.2.1-.4-.1-.2-.5-.6-1-1.1-1.3s-1.1-.4-1.6-.4c-1.7 0-2.6.7-2.6 1.9a1.69 1.69 0 0 0 .3 1c.2.3.6.5.9.5.5.2 1.1.3 1.7.3.7 0 1.4.2 2 .4a2.73 2.73 0 0 1 1.2.9c.3.4.4.9.4 1.5 0 1.9-1.4 3-3.9 3-.8.1-1.6-.1-2.3-.5s-1.2-1.1-1.5-1.9v-.1-.1s0-.1.1-.1c0 0 .1 0 .1-.1l.4-.2h.1.1s.1 0 .1.1c0 0 0 .1.1.1.2.6.6 1 1.1 1.4.5.3 1.1.5 1.7.4 1.9 0 2.8-.7 2.8-2a1.69 1.69 0 0 0-.3-1c-.2-.3-.5-.5-.9-.6-.5-.2-1.1-.2-1.6-.3l-1.1-.1-1-.3c-.3-.1-.6-.3-.9-.5s-.5-.5-.6-.9c-.1-.3-.2-.7-.2-1 .2-1.7 1.5-2.8 3.8-2.8zm9.3 6.8c0 .7.4 1.4.9 1.9s1.2.8 1.9.8 1.4-.3 1.9-.8.8-1.1.9-1.9v-6.3c0-.2.1-.3.3-.3h.5c.2 0 .3.1.3.3v6.3c0 2.3-1.3 3.6-3.8 3.6s-3.8-1.4-3.8-3.6v-6.3c0-.2.1-.3.3-.3h.5c.2 0 .3.1.3.3v6.3zm20.4-6.6c.2 0 .3.1.3.3V23c0 .2-.1.3-.3.3h-.4c-.2 0-.3-.1-.3-.3v-5.8c0-.8.1-1.7.2-2.5h-.1c-.3.8-.7 1.5-1.1 2.2l-2.2 3.8c0 .1-.1.1-.1.2-.1 0-.1.1-.2.1h-.3c-.1 0-.1 0-.2-.1-.1 0-.1-.1-.1-.2l-2.2-3.8c-.4-.7-.7-1.4-1-2.2h-.1l.2 2.5V23c0 .2-.1.3-.3.3h-.4c-.2 0-.3-.1-.3-.3v-9.5c0-.2.1-.3.3-.3h.4c.1 0 .2 0 .2.1.1 0 .1.1.2.2l3.5 6.2 3.5-6.2c.1-.2.2-.2.4-.2h.4zM24.7 21.8V29c0 .3-.1.5-.3.7a1.08 1.08 0 0 1-.7.3c-.3 0-.5-.1-.7-.3a1.08 1.08 0 0 1-.3-.7v-7.2a1.69 1.69 0 0 0 1 .3c.3.1.7-.1 1-.3zm8.9-2.1c-.3 0-.5.1-.7.3s-.3.4-.3.7V22c0 .3.1.5.3.7a1.08 1.08 0 0 0 .7.3c.3 0 .5-.1.7-.3a1.08 1.08 0 0 0 .3-.7v-1.2c0-.1 0-.3-.1-.4s-.1-.3-.2-.4-.2-.2-.4-.2c0-.1-.1-.1-.3-.1zm-13.2 4.8a1.69 1.69 0 0 1-1-.3v7.2c0 .3.1.5.3.7a1.08 1.08 0 0 0 .7.3c.3 0 .5-.1.7-.3a1.08 1.08 0 0 0 .3-.7v-7.2c-.3.3-.6.4-1 .3zm10-7c-.1 0-.3 0-.4.1-.1 0-.2.1-.3.2s-.2.2-.2.3c-.1.1-.1.3-.1.4v5.6c0 .3.1.5.3.7a1.08 1.08 0 0 0 .7.3c.3 0 .5-.1.7-.3a1.08 1.08 0 0 0 .3-.7v-5.5c0-.1 0-.3-.1-.4s-.1-.3-.2-.4-.2-.2-.4-.2c-.1 0-.2-.1-.3-.1h0zM27 19.7a1.69 1.69 0 0 1-1-.3v7.3c0 .3.1.5.3.7a1.08 1.08 0 0 0 .7.3 1.08 1.08 0 0 0 .7-.3 1.08 1.08 0 0 0 .3-.7v-7.3c-.2.2-.6.3-1 .3h0zm-8.9 5.5V4.9a1.08 1.08 0 0 0-.3-.7c-.2-.1-.4-.2-.6-.2H17a1.08 1.08 0 0 0-.7.3c-.2.2-.3.4-.3.6v20.3a1.08 1.08 0 0 0 .3.7c.2.2.4.3.7.3h.2a1.08 1.08 0 0 0 .7-.3c.1-.2.2-.4.2-.7zm2.4-1.4h-.2a1.08 1.08 0 0 1-.7-.3c-.2-.2-.3-.4-.3-.7V7.3a1.08 1.08 0 0 1 .3-.7c.2-.2.4-.3.7-.3h.2a1.08 1.08 0 0 1 .7.3c.2.2.3.4.3.7v15.5a1.08 1.08 0 0 1-.3.7 1.08 1.08 0 0 1-.7.3h0zm3.3-2.4h-.2a1.08 1.08 0 0 1-.7-.3c-.2-.2-.3-.4-.3-.7V9.8c0-.1 0-.2.1-.4 0-.1.1-.2.2-.3s.2-.2.3-.2.2-.1.4-.1h.2a1.08 1.08 0 0 1 .7.3c.2.2.3.4.3.7v10.7a1.08 1.08 0 0 1-.3.7c-.2.1-.5.2-.7.2zm3.3-2.5h-.2a1.08 1.08 0 0 1-.7-.3c-.1-.1-.2-.4-.2-.6v-5.8c0-.1 0-.3.1-.4 0-.1.1-.2.2-.3s.2-.2.3-.2c.1-.1.2-.1.4-.1h.2a1.08 1.08 0 0 1 .7.3c.2.2.3.4.3.7V18c0 .1 0 .2-.1.4 0 .1-.1.2-.2.3s-.2.2-.3.2h-.5 0zm3.3-2.1h-.2a1.08 1.08 0 0 1-.7-.3c-.2-.2-.3-.4-.3-.7v-1.5a1.08 1.08 0 0 1 .3-.7c.2-.2.4-.3.7-.3h.2a1.08 1.08 0 0 1 .7.3c.2.2.3.4.3.7v1.5a1.08 1.08 0 0 1-.3.7c-.2.2-.4.3-.7.3h0z"/></svg>