<svg xmlns="http://www.w3.org/2000/svg" viewBox="0 0 154 36" fill="#b4b7c9" xmlns:v="https://vecta.io/nano"><path d="M50.5 11.1h3.2V24h-3.2V11.1zm4.4 8c0-3.2 2-5.1 4.9-5.1 3 0 4.9 1.9 4.9 5.1s-1.9 5.1-4.9 5.1-4.9-1.8-4.9-5.1zm6.7 0c0-1.7-.7-2.8-1.8-2.8s-1.8 1-1.8 2.8.7 2.8 1.8 2.8 1.9-1 1.8-2.8h0zm4.4 5.5h3.1c.1.3.4.6.7.8s.7.2 1 .2c1.2 0 1.8-.7 1.8-1.6v-1.8h0a3.04 3.04 0 0 1-1.2 1.3c-.5.3-1.1.4-1.7.4-2.3 0-3.8-1.8-3.8-4.8s1.5-4.9 3.9-4.9c.6 0 1.2.1 1.8.5.5.3.9.8 1.2 1.4h-.1v-1.8h3.1v9.6c0 2.3-2 3.8-5.1 3.8-2.7-.1-4.5-1.3-4.7-3.1h0zm6.6-5.5c0-1.5-.7-2.5-1.8-2.5s-1.8 1-1.8 2.5.7 2.4 1.8 2.4c1.1.1 1.8-.8 1.8-2.4zm4.4 0c0-3.2 2-5.1 4.9-5.1 3 0 4.9 1.9 4.9 5.1s-1.9 5.1-4.9 5.1-4.9-1.8-4.9-5.1h0zm6.7 0c0-1.7-.7-2.8-1.8-2.8s-1.8 1-1.8 2.8.7 2.8 1.8 2.8c1.2 0 1.9-1 1.8-2.8h0zm4.4-7.1c0-.3.1-.6.2-.9.2-.3.4-.5.7-.6s.6-.2.9-.1.6.2.8.4.4.5.5.8 0 .6-.1.9-.3.6-.6.7c-.3.2-.6.3-.9.3-.2 0-.4 0-.6-.1s-.4-.2-.5-.3-.3-.3-.3-.5 0-.4-.1-.6h0zm0 2.3h3.2V24h-3.1l-.1-9.7zm14.7 4.8c0 3.2-1.4 5-3.8 5-.6 0-1.2-.1-1.8-.4-.5-.3-.9-.8-1.2-1.4h0v4.8h-3.2V14.3H96V16h0c.2-.6.7-1.1 1.2-1.4s1.1-.5 1.8-.5c2.5.1 3.9 1.9 3.8 5h0zm-3.2 0c0-1.5-.7-2.5-1.8-2.5s-1.8 1-1.8 2.5.7 2.5 1.8 2.5c1.1.1 1.9-.9 1.8-2.5h0zm8.6-5c2.6 0 4.3 1.3 4.3 3.3h-2.9c0-.7-.6-1.1-1.4-1.1-.9 0-1.3.3-1.3.8s.4.7 1.1.8l2 .4c2 .4 2.8 1.2 2.8 2.7 0 2-1.8 3.3-4.5 3.3s-4.5-1.3-4.6-3.3h3.1c.1.7.7 1.1 1.6 1.1s1.4-.3 1.4-.8-.3-.6-1.1-.8l-1.8-.4c-1.9-.4-2.9-1.4-2.9-2.9 0-1.9 1.6-3.1 4.2-3.1h0zm15.2 9.9h-3.1v-1.8h-.1c-.2.6-.5 1.1-1.1 1.5-.5.4-1.1.5-1.8.5-.5 0-.9-.1-1.4-.3-.4-.2-.8-.5-1.2-.8-.3-.3-.6-.8-.7-1.2-.2-.4-.2-.9-.2-1.4v-6.2h3.2v5.6c0 1.1.6 1.8 1.6 1.8.2 0 .5-.1.7-.2s.4-.2.5-.4c.2-.2.3-.4.3-.6.1-.2.1-.5 0-.7v-5.5h3.1l.2 9.7zm1.5-9.7h3.1v1.9h.1c.2-.6.5-1.1 1-1.5s1.1-.6 1.7-.6c.6-.1 1.2.1 1.7.5s.8.9 1 1.6h.1c.2-.6.6-1.2 1.1-1.5.5-.4 1.2-.6 1.8-.5.4 0 .9.1 1.3.2.4.2.8.4 1.1.7s.5.7.7 1.1c.1.4.2.8.2 1.3V24h-3.2v-5.8c0-1-.5-1.5-1.4-1.5-.2 0-.4 0-.6.1s-.3.2-.5.3c-.1.1-.2.3-.3.5s-.1.4 0 .6V24h-3v-5.8c0-1-.5-1.5-1.3-1.5-.2 0-.4 0-.6.1s-.3.2-.5.4c-.1.2-.2.3-.3.5s-.1.4-.1.6V24h-3.2l.1-9.7zM44.3 12c0-2-.6-3.9-1.7-5.5s-2.7-2.9-4.5-3.6-3.8-.9-5.7-.4c-1.9.4-3.6 1.5-5 2.9H15.1v26H41V19.2c1-.9 1.8-2 2.4-3.3s.9-2.5.9-3.9zm-5 0c0 .9-.3 1.9-.8 2.6-.5.8-1.3 1.4-2.1 1.8-.9.4-1.8.5-2.7.3s-1.8-.6-2.4-1.3A4.74 4.74 0 0 1 30 13c-.2-.9-.1-1.9.3-2.7.4-.9 1-1.6 1.7-2.1.8-.5 1.7-.8 2.6-.8A4.76 4.76 0 0 1 38 8.8c.8.7 1.3 1.9 1.3 3.2zM36 26.4H20v-16h4.9c-.1.5-.1 1.1-.1 1.6 0 2.6 1 5.1 2.9 6.9 1.8 1.8 4.3 2.9 6.9 2.9.5 0 1 0 1.5-.1v4.7z"/></svg>