<svg xmlns="http://www.w3.org/2000/svg" width="61" height="61" fill="none" xmlns:v="https://vecta.io/nano"><path d="M0 30.5C0 13.655 13.655 0 30.5 0S61 13.655 61 30.5 47.345 61 30.5 61 0 47.345 0 30.5z" fill="#4a5fef"/><path fill-rule="evenodd" d="M49.817 20.355l-7.651 6.053-11.157-6.806 7.743-6.385 11.065 7.138zm-26.551-7.138l7.743 6.385-11.157 6.806h0 0L12.2 20.355l11.065-7.138zm-3.414 13.191L12.2 32.462 23.266 39.6l7.743-6.385-11.157-6.807h0 0zm22.315 0l-11.157 6.806 7.743 6.385 11.065-7.138-7.651-6.053zm-3.369 14.546l-7.765-6.366-7.766 6.366-3.323-2.144v2.403l11.089 6.569 11.089-6.569v-2.403l-3.323 2.144z" fill="#fff"/></svg>