<svg xmlns="http://www.w3.org/2000/svg" width="61" height="61" fill="none" xmlns:v="https://vecta.io/nano"><path fill-rule="evenodd" d="M54.531 10.614c-.453-2.434-1.895-3.634-3.198-4.106-1.406-.51-4.258-1.039-7.84-1.463-2.882-.341-6.27-.314-8.316-.25-.246-1.689-1.425-3.232-2.746-3.766C28.914-.392 23.479-.048 22.084.344c-1.109.311-2.336.949-3.019 1.931-.458.656-.755 1.497-.757 2.672l.035 3.622.034 2.549v.001l.001.103c-.001 1.243-1.004 2.254-2.247 2.256h-5.703c-1.216 0-2.146.205-2.856.529a3.98 3.98 0 0 0-1.597 1.278c-.762 1.027-.894 2.294-.891 3.586 0 0 .011 1.056.265 3.101.211 1.582 1.92 12.635 3.543 15.997.629 1.308 1.049 1.853 2.285 2.429 2.755 1.184 9.048 2.502 11.998 2.879a41.74 41.74 0 0 1 1.375.206c2.161.35 3.6.583 4.518-1.351.004-.006.221-.577.519-1.414.956-2.909 1.089-5.489 1.089-7.357 0-.19.277-.199.277 0l-.002.25c-.015 1.577-.054 5.804 3.261 6.986 1.386.493 4.261.933 7.182 1.277 2.641.305 4.558 1.348 4.558 8.152 0 4.139-.866 4.707-5.393 4.707h-.337c-3.419.003-4.732.004-4.732-2.832 0-2.164 1.95-2.141 3.605-2.121h.001l.452.004c.486 0 .444-.228.346-.761-.058-.314-.134-.733-.134-1.274 0-.615.162-1.121.285-1.5.166-.516.257-.8-.236-.812-5.972-.165-9.486-.007-9.486 7.492 0 6.808 2.595 8.072 11.072 8.072 6.646 0 8.989-.219 11.733-8.767.543-1.688 1.856-6.838 2.651-15.485.502-5.468-.474-21.97-1.248-26.135zM42.945 28.855c-.821-.029-1.611.023-2.347.142.207-1.681.898-3.743 3.346-3.656 2.709.093 3.089 2.664 3.099 4.406-1.142-.511-2.557-.837-4.097-.892zM10.164 11.817h-.004c-1.4 0-2.57.24-3.535.677-.044.019-.352.172-.58.286l-.006.003c.006-.024.02-.047.041-.065L17.159 1.687c.022-.022.044-.032.065-.036l-.195.368c-.408.819-.642 1.796-.642 2.916v.016l.069 6.252v.021c-.001.325-.264.593-.59.593h-5.702z" fill="#20c05c"/></svg>