<svg xmlns="http://www.w3.org/2000/svg" width="61" height="61" fill="none" xmlns:v="https://vecta.io/nano"><path d="M57.111 53.96H3.815a3.82 3.82 0 0 1-3.807-3.807V11.65a3.82 3.82 0 0 1 3.807-3.807h53.296a3.82 3.82 0 0 1 3.807 3.807v38.503a3.78 3.78 0 0 1-3.807 3.807z" fill="#e3e3e3"/><path opacity=".1" d="M7.621 53.962l22.787-18.327.163-.979L7.077 17.742l-.054 35.403.598.816z" fill="#231f20"/><path d="M3.815 53.961a3.78 3.78 0 0 1-3.807-3.807V11.596c0-2.121 1.686-2.502 3.807-2.502s3.807.435 3.807 2.502v42.365H3.815z" fill="#d54b3d"/><path d="M3.815 9.638c2.719 0 3.263.816 3.263 1.958v41.821H3.815c-1.795 0-3.263-1.468-3.263-3.263V11.596c0-1.197.544-1.958 3.263-1.958zm0-.544c-2.121 0-3.807.435-3.807 2.502v38.558a3.78 3.78 0 0 0 3.807 3.807h3.807V11.596c0-2.121-1.686-2.502-3.807-2.502z" fill="#d72b27"/><path d="M57.111 53.961h-3.807V11.487c0-2.121 1.686-2.393 3.807-2.393s3.807.272 3.807 2.393v38.721c0 2.067-1.686 3.753-3.807 3.753z" fill="#d54b3d"/><path d="M57.111 9.638c2.447 0 3.263.489 3.263 1.849v38.721c0 1.795-1.468 3.263-3.263 3.263h-3.263V11.487c0-1.414.816-1.849 3.263-1.849zm0-.544c-2.121 0-3.807.272-3.807 2.393v42.528h3.807c2.121 0 3.807-1.686 3.807-3.807V11.487c0-2.121-1.686-2.393-3.807-2.393z" fill="#d72b27"/><path d="M40.795 53.957L.326 13.174l2.129.866 28.171 20.285 30.292-22.212v38.092c0 2.067-1.686 3.752-3.807 3.752H40.795z" fill="url(#A)"/><path d="M30.408 35.631L1.639 14.748c-1.686-1.251-2.175-3.644-.925-5.33s3.698-2.067 5.438-.816l24.309 17.675L54.935 8.385c1.686-1.251 4.079-.87 5.329.87 1.251 1.686.87 4.079-.87 5.33L30.408 35.631z" fill="#d54b3d"/><path d="M57.111 8.169c1.033 0 2.012.489 2.665 1.36 1.033 1.468.707 3.48-.707 4.568L30.408 34.98 1.966 14.314C.497 13.227.117 11.16 1.15 9.746c.598-.816 1.632-1.36 2.719-1.36.707 0 1.414.218 1.958.653l24.255 17.62.326.218.326-.218L55.153 8.767c.598-.381 1.251-.598 1.958-.598zm0-.544c-.761 0-1.577.218-2.23.707L30.408 26.224 6.099 8.55c-.653-.489-1.468-.707-2.284-.707-1.196 0-2.393.544-3.154 1.577-1.196 1.686-.707 4.079.979 5.33l28.769 20.938L59.34 14.586c1.686-1.251 2.066-3.589.87-5.33-.761-1.088-1.903-1.632-3.1-1.632z" fill="#d72b27"/><defs><linearGradient id="A" x1=".329" y1="33.034" x2="60.936" y2="33.034" gradientUnits="userSpaceOnUse"><stop stop-opacity=".1"/><stop offset="1" stop-opacity=".2"/></linearGradient></defs></svg>