<svg xmlns="http://www.w3.org/2000/svg" width="61" height="61" fill="none" xmlns:v="https://vecta.io/nano"><path d="M30.5 11.794c5.727 0 9.591 2.474 11.793 4.541l8.608-8.404C45.615 3.017 38.735 0 30.5 0 18.571 0 8.269 6.846 3.253 16.809l9.862 7.659c2.474-7.354 9.319-12.674 17.385-12.674z" fill="#ea4335"/><path d="M59.78 31.181c0-2.508-.203-4.338-.644-6.236H30.5v11.319h16.809c-.339 2.813-2.169 7.049-6.236 9.896l9.624 7.456c5.761-5.321 9.082-13.149 9.082-22.434z" fill="#4285f4"/><path d="M13.149 36.535c-.644-1.898-1.017-3.931-1.017-6.032s.373-4.134.983-6.032l-9.862-7.659C1.186 20.947 0 25.589 0 30.503s1.186 9.557 3.253 13.691l9.896-7.659z" fill="#fbbc05"/><path d="M30.5 61.001c8.235 0 15.148-2.711 20.198-7.388l-9.624-7.456c-2.575 1.796-6.032 3.05-10.573 3.05-8.066 0-14.911-5.321-17.351-12.674l-9.862 7.659C8.303 54.155 18.571 61.001 30.5 61.001h0z" fill="#34a853"/></svg>