<svg xmlns="http://www.w3.org/2000/svg" width="61" height="61" fill="none" xmlns:v="https://vecta.io/nano"><g fill-rule="evenodd"><path d="M57.984 43.59l-.006.02c-.185.676-4.755 17.395-21.919 17.39-15.075-.005-22.22-13.261-22.22-13.261-1.099.062-2.159-.114-3.136-.478-4.423-1.644-6.545-6.763-5.019-11.058l-2.431-1.879c-9.416-7.257 17.258-40.465 26.69-32.951l2.252 1.833C35.582 1.125 38.936.001 41.662 0c1.936 0 3.556.567 4.646 1.762 2.448 2.682 1.568 7.803-1.775 12.988.719.691 1.315 1.629 1.74 2.561 1.063.83 1.752 2.091 2.094 3.833.212 1.076.33 2.405.435 3.578h0c.084.938.158 1.776.265 2.303l.476.216.229.104c.12.056.238.116.577.287l.197.099c1.002.507 2.223 1.124 3.571 2.437 2.397.608 3.313 3.186 1.91 4.946-.038.047-.207.25-.382.452a1.39 1.39 0 0 0 .047.097h0c.133.264.506 1.003.787 2.303.993.237 1.785.856 2.2 1.753.718 1.756-.695 3.869-.695 3.869zm-6.913 13.035v.722h.273v-.722h.28v-.228h-.829v.228h.276zm.637.722v-.95h.39l.171.547.168-.547h.39v.95h-.249v-.688l-.204.688h-.213l-.204-.686v.686h-.249z" fill="#5b453e"/><path d="M56.451 42.57c-.216.81-1.277 4.781-5.523 8.129-5.897 4.652-13.646 4.181-16.572 1.574-1.563-1.468-2.24-3.567-2.24-3.567s-.177 1.183-.207 1.648c-1.179-2.013-1.08-4.472-1.08-4.472s-.629 1.177-.917 1.837c-.868-2.217-.419-4.507-.419-4.507l-.687 1.027s-.322-2.51.468-4.6c.845-2.234 2.483-3.856 2.807-4.059-1.243-.397-2.675-1.533-2.677-1.535s.569.038.965-.053c0 0-2.513-1.807-2.953-4.572.364.452 1.128.962 1.128.962-.247-.724-.397-2.333-.166-3.918l.001-.002c.475-3.027 2.96-4.997 5.775-4.972.538.005 1.044.029 1.527.052 2.207.106 3.929.188 5.99-1.719l.086-.08c.493-.458.911-.846 1.616-1.003.014-.003.031-.008.053-.015.101-.029.291-.085.621-.085.405 0 .795.091 1.153.305 1.362.814 1.656 2.937 1.803 4.494.331 3.529.378 4.517.896 5.024.33.322.85.45 1.755.913l.325.164c1.028.516 2.17 1.089 3.453 2.468.007.008.017.012.028.012 1.198.029 1.815.975 1.262 1.664-4.019 4.817-9.631 7.124-15.887 7.317l-.762.018-.081.002c-2.526.077-3.349 3.358-1.764 5.331 1.002 1.247 2.929 1.657 4.515 1.663l.023-.008c6.839.139 13.71-4.719 14.897-7.398.009-.019.081-.19.081-.19s-.063.074-.139.137a1.42 1.42 0 0 0-.054.048c-.648.594-7.009 6.426-14.839 6.206 0 0-.885-.018-1.718-.213-1.099-.257-1.934-.741-2.253-1.841-.095-.201-.149-.898-.023-1.367.344-1.155.919-1.165 1.81-1.18l.421-.011h0c4.051-.135 7.32-1.158 9.77-2.325 2.612-1.245 4.604-2.849 5.321-3.659.93 1.573.925 3.592.925 3.592s.365-.128.848-.128c1.518 0 1.831 1.363.681 2.747-.007.014-.02.063-.042.145zm-37.747-7.412s-.189.785-.564 1.743c-.36-3.063-1.641-3.711-1.641-3.711a5.73 5.73 0 0 0-2.425-.537c-3.328 0-6.025 2.851-6.025 6.367s2.698 6.367 6.025 6.367c3.748 0 6.593-3.582 5.931-7.496 0 0-.382.896-.738 1.371.086-1.401-.133-2.787-.563-4.105z" fill="#f2d8b4"/></g><path d="M6.144 33.889c-.024-.006-2.289-1.618-2.611-2.149-1.906-3.119 1.41-9.525 3.769-13.167 5.83-9 15.535-16.102 19.943-15.088l4.527 2.266c-1.758 1.003-3.457 2.234-4.476 3.053l-.963.783s-2.813 1.837-4.212 2.994c-5.608 4.641-11.129 11.826-13.177 18.761a7.7 7.7 0 0 0-2.8 2.546z" fill="#207eac"/><path d="M28.382 3.494c-4.493-1.1-14.385 6.605-20.328 16.369l.019.011 4.736 3.849c5.2-8.52 11.735-12.913 11.919-13.042l-.751-5.215 1.407-.695 2.823.944-.216-.973.392-1.246z" fill="#4fb1d3"/><path d="M35.16 4.761l-5.142 3.445-.36.268-4.56-3.548-.105-.671 1.585-.723 3.182.981.053-1.881.146-.427 1.393-.508c.002.001 3.803 3.06 3.808 3.065z" fill="#facd55"/><g fill="#131b23"><path d="M40.815 1.696c-2.905 0-6.166 1.611-8.668 3.195l-1.04.678-1.309-1.157.475 1.742-.527.389-2.705-.871 1.79 1.58-1.076.897-4.292-3.737.227 1.675 3.119 2.898-4.133 3.195c-5.504 4.951-10.923 12.617-12.932 20.017l.114-.068c.016-.009.031-.017.047-.026.056-.032.112-.062.168-.092l.107-.056c.057-.029.115-.056.173-.083l.102-.047a5.27 5.27 0 0 1 .187-.078l.086-.035a5 5 0 0 1 .271-.094c1.366-.43 3.225-.706 5.401.268 1.093-2.906 2.398-5.862 4.456-8.703 1.668-2.304 3.272-4.36 5.196-5.491 3.644-3.609 13.466-7.437 16.613-4.119.744-1.283 1.39-2.498 1.922-4.021 1.313-3.662 1.337-7.855-3.77-7.855z"/><path d="M30.077 5.083L29.01 3.389l-.627.844.376.664 1.319.187z"/></g><g fill-rule="evenodd"><path d="M39.944 1.696c-1.595.167-3.258.748-4.81 1.482-5.238 2.522-8.893 6.243-9.332 6.689l-.039.039a49.36 49.36 0 0 0-1.299 1.329c-1.28 1.359-2.53 2.83-3.702 4.343-2.072 2.675-2.934 3.924-4.243 6.467 0 0 .009-.011.026-.032.472-.581 7.192-8.842 8.912-10.594 3.272-3.333 8.628-7.045 8.684-7.078 2.287-1.437 4.217-2.28 5.801-2.646zm12.953 33.546c.901 1.559.896 3.56.896 3.56.015.574-.003.891-.034 1.335-1.828 1.585-7.279 5.794-13.774 5.607 0 0-.858-.018-1.665-.211-1.059-.253-1.865-.73-2.178-1.807l-.005-.017-.001-.001a1.23 1.23 0 0 1-.071-.317l-.001-.008-.001-.008c-.006-.052-.011-.108-.014-.165l-.001-.02v-.007c-.005-.092-.006-.198-.002-.319.002-.042.004-.084.008-.126h.001v-.013a2.2 2.2 0 0 1 .06-.37c.333-1.144.891-1.154 1.754-1.17l.408-.011h0c3.925-.134 7.092-1.148 9.466-2.305 2.531-1.234 4.46-2.824 5.155-3.626z" fill="#fffffe"/><path d="M46.187 25.18c.285 3.035.352 3.756.954 4.184.017.016.033.03.05.041l-1.086.33c-.591-.801-1.411-1.549-3.097-1.428-2.234.192-4.01 2.189-3.689 4.173l-2.97 1.657c-1.518.163-3.366.687-4.997 2.052-1.229-.387-2.645-1.496-2.647-1.498s.563.037.954-.052l-.076-.057-.11-.086c-.584-.47-2.372-2.07-2.735-4.319.36.441 1.115.938 1.115.938l-.027-.081c.002-.013-.103-.312-.176-.888l-.049-.515-.018-.388c.092-1.137.382-2.093 1.105-2.996 1.053-1.318 2.499-1.853 4.166-1.828.459.006.923.053 1.406.103h0l1.46.113c1.432.045 2.812-.191 4.264-.842 1.434-.677 2.245-1.459 3.094-2.673.299-.327.827-.806 1.293-.786.309 0 .524.152.677.284.739.988.943 2.526 1.057 3.722l.077.82.002.021h0zm-4.361 5.854c.345-1.101 1.908-1.63 2.852-.965-.422.243-.552.948-.294 1.357-.534-.01-1.082.199-1.468.569.036-.524-.544-.933-1.09-.961zm5.701 21.492a16.18 16.18 0 0 0 2.463-1.582c4.198-3.268 5.247-7.143 5.462-7.934l.042-.141c-1.944 2.489-4.486 4.468-7.206 5.837-2.237 1.127-3.91 1.519-3.91 1.519s1.198 1.566 3.15 2.301zm-12.754-9.024c.297-1.096 1.137-1.965 2.425-2.004l.833-.02c6.186-.188 11.736-2.44 15.71-7.142.546-.672-.064-1.596-1.248-1.624-.119.107-.179.26-.257.46h0a4.75 4.75 0 0 1-.328.706c-1.209 2.081-2.881 3.032-5.11 4.136-3.624 1.788-6.323 2.186-8.271 2.474-1.726.255-2.863.423-3.531 1.393-.413.607-.421 1.286-.223 1.621zm13.174-.778a.34.34 0 0 0-.063.01c-.088.02-.284.084-.567.175-1.881.608-7.627 2.466-11.443 1.279-.02.238-.013.738.085.955v.001c.664.132 1.505.216 2.481.216 5.778 0 9.942-2.603 9.507-2.637zm-32.32-.537l-.005.003c-2.715.198-5.226-3.239-3.743-5.135.203-.151.377-.239.445-.273l.026-.013a1.51 1.51 0 0 1 .122-.055l.09-.039a.93.93 0 0 1 .101-.033l.173-.051c.026-.008.053-.013.175-.038h0c1.319-.277 2.249.301 2.654.87.187.262.227.458.256.601a1.07 1.07 0 0 0 .029.122v.002c-.316-.436-.723-.532-.723-.532-.344-.136-1.004.072-1.047.809-.02.283.065.601.31.88l.002.002.027.03.026.027c.201.206.439.356.667.499.391.246.75.471.832.926a1.65 1.65 0 0 1-.416 1.399z" fill="#e2b986"/><path d="M42.489 13.236c-2.185-1.708-8.563-1.225-14.948 2.984-2.923 1.927-5.067 4.034-6.72 6.224 0 0 2.551-4.931 8.156-8.192-.391-.064-1.309.048-1.573.08l-.044.005c1.018-.89 2.91-1.485 4.217-1.755-.383-.248-1.294-.31-1.746-.322a2.52 2.52 0 0 0-.256.002l-.034.001c1.229-.699 3.509-1.109 5.581-.739-.26-.352-.851-.608-1.265-.733-.036-.011-.199-.052-.199-.052l.156-.037c1.248-.244 2.706.02 3.86.491-.131-.309-.451-.669-.692-.897-.025-.023-.168-.128-.168-.128 1.207.254 2.363.79 3.234 1.397a4.57 4.57 0 0 0-.613-.837c1.153.336 2.448 1.172 3.003 2.371.013.026.045.115.052.134l.001.003v.001zm-5.118 15.999c.125.185.158.325.108.383-.09.107-.39-.012-.835-.19l-.153-.061c-1.355-.514-2.353-.592-4.119.088l-.141.055c-.373.146-.639.25-.774.229-.248-.038-.008-.499.534-.946 1.089-.884 2.586-1.158 3.865-.674.56.209 1.188.628 1.517 1.117zm-.269 1.41c-.371-.288-1.055-.482-1.765-.359-.111.017-.216.048-.318.077h0l-.104.03a.95.95 0 0 0-.143.05c-.294.126-.548.261-.794.502-.283.278-.363.536-.282.6.07.057.228-.009.467-.109h0l.053-.022.059-.024c1.014-.429 1.731-.44 2.415-.392l.049.003c.303.021.504.035.553-.052.036-.062-.029-.18-.189-.303zm-21.833 5.288h0c-.554-.454-1.339-.669-2.252-.473h0l-.017.003h0 0l-.157.036-.026.008h0a4.98 4.98 0 0 1-.146.044c-.038.011-.072.021-.101.034s-.06.027-.089.04h0 0 0 0c-.042.018-.083.035-.122.057-.005.003-.014.007-.026.013-.117.06-.542.278-.894.716a2.98 2.98 0 0 0-.438.773 4.04 4.04 0 0 0-.241 1.579c.028.721.217 1.153.287 1.315h0l.02.046c.18.394-.242.475-.627.051v-.001c-.308-.331-.505-.837-.602-1.285h0c-.057-.267-.093-.566-.093-.888a4.22 4.22 0 0 1 .173-1.196h0 0c.334-1.099 1.084-1.93 2.225-2.382a2.03 2.03 0 0 1 .229-.07h0l.098-.027h-.001c.192-.058.88-.2 1.579-.089.405.064.773.2 1.09.38s.583.402.785.641l.001.001c.331.382.58.921.536 1.401v.001c-.017.2-.104.485-.28.56-.066.027-.132.013-.178-.033-.052-.052-.066-.125-.086-.224-.029-.146-.069-.347-.255-.614-.095-.137-.223-.281-.389-.415h0zm-.195 1.793c-.126-.102-.184-.188-.219-.322-.051-.243-.025-.384.18-.53.044-.031.086-.057.123-.081.095-.06.161-.101.161-.151.007-.13-.519-.264-.887.104-.305.331-.402 1.021.085 1.558.205.225.453.385.69.538.389.251.746.481.828.946.017.106.03.224.021.341.002.12-.033.286-.042.329l-.002.01c-.163.723-.838 1.413-1.95 1.237l-.048-.007h0 0c-.178-.027-.293-.044-.329.009-.086.121.391.676 1.264.656.854-.018 1.701-.669 1.973-1.646l.002-.007c.013-.047.082-.301.088-.531.015-.184.002-.373-.031-.571-.166-.937-.892-1.318-1.439-1.605-.185-.097-.35-.184-.466-.277zm29.017-8.201c.072-.471.404-.809.742-.755s.552.478.48.949-.404.809-.742.755-.552-.478-.48-.949zm-2.966.618c-.185.344.04.833.505 1.091s.991.189 1.176-.155-.04-.833-.505-1.091-.991-.189-1.176.155z" fill="#916d53"/></g><path d="M41.938 26.82c-.007-.466.048-1.236.372-1.379.555-.26 1.288 1.66 1.322 3.365a2.16 2.16 0 0 0-1.481-.361 7.64 7.64 0 0 1-.212-1.625z" fill="#5b453e"/></svg>