<svg xmlns="http://www.w3.org/2000/svg" width="61" height="62" fill="none" xmlns:v="https://vecta.io/nano"><path d="M12.816 38.549c0 3.527-2.881 6.408-6.408 6.408S0 42.076 0 38.549s2.881-6.408 6.408-6.408h6.408v6.408zm3.228 0c0-3.527 2.881-6.408 6.408-6.408s6.408 2.881 6.408 6.408v16.045c0 3.527-2.881 6.408-6.408 6.408s-6.408-2.881-6.408-6.408V38.549z" fill="#e01e5a"/><path d="M22.452 12.817c-3.527 0-6.408-2.881-6.408-6.408S18.926.001 22.452.001s6.408 2.881 6.408 6.408v6.408h-6.408zm.001 3.231c3.527 0 6.408 2.881 6.408 6.408s-2.881 6.408-6.408 6.408H6.408C2.881 28.864 0 25.983 0 22.456s2.881-6.408 6.408-6.408h16.045z" fill="#36c5f0"/><path d="M48.184 22.456c0-3.527 2.881-6.408 6.408-6.408S61 18.929 61 22.456s-2.881 6.408-6.408 6.408h-6.408v-6.408zm-3.229-.002c0 3.527-2.881 6.408-6.408 6.408s-6.408-2.881-6.408-6.408V6.409c0-3.527 2.881-6.408 6.408-6.408s6.408 2.881 6.408 6.408v16.045z" fill="#2eb67d"/><path d="M38.547 48.183c3.527 0 6.408 2.881 6.408 6.408s-2.881 6.408-6.408 6.408-6.408-2.881-6.408-6.408v-6.408h6.408zm0-3.226c-3.527 0-6.408-2.881-6.408-6.408s2.881-6.408 6.408-6.408h16.045c3.527 0 6.408 2.881 6.408 6.408s-2.881 6.408-6.408 6.408H38.547z" fill="#ecb22e"/></svg>