<svg xmlns="http://www.w3.org/2000/svg" width="61" height="61" fill="none" xmlns:v="https://vecta.io/nano"><path d="M30.5 61C47.345 61 61 47.345 61 30.5S47.345 0 30.5 0 0 13.655 0 30.5 13.655 61 30.5 61z" fill="url(#A)"/><path fill-rule="evenodd" d="M12.2 18.305a6.1 6.1 0 0 1 6.105-6.105h24.389a6.1 6.1 0 0 1 6.105 6.105v24.389a6.1 6.1 0 0 1-6.105 6.105H18.306a6.1 6.1 0 0 1-6.105-6.105V18.305zm20.679.85v11.618c0 1.214.983 2.197 2.195 2.197h6.772c1.212 0 2.196-.984 2.196-2.197V19.155c0-1.214-.983-2.197-2.196-2.197h-6.772c-1.212 0-2.195.984-2.195 2.197zM16.958 39.926V19.152c0-1.212.983-2.195 2.195-2.195h6.772c1.213 0 2.196.983 2.196 2.195v20.774c0 1.212-.983 2.194-2.196 2.194h-6.772c-1.213 0-2.195-.982-2.195-2.194z" fill="#fff"/><defs><linearGradient id="A" x1="0" y1="0" x2="0" y2="61" gradientUnits="userSpaceOnUse"><stop stop-color="#0091e6"/><stop offset="1" stop-color="#0079bf"/></linearGradient></defs></svg>