<svg xmlns="http://www.w3.org/2000/svg" width="61" height="61" fill="none" xmlns:v="https://vecta.io/nano"><path d="M30.5 61C47.345 61 61 47.345 61 30.5S47.345 0 30.5 0 0 13.655 0 30.5 13.655 61 30.5 61z" fill="#2d8cff"/><path fill-rule="evenodd" d="M48.402 20.251l-8.62 6.289v7.944l8.62 6.289c.61.466 1.326.61 1.326-.662V20.913c0-1.134-.575-1.277-1.326-.662zM10.609 35.274V20.952c0-.586.479-1.061 1.07-1.061h20.887c3.252 0 5.891 2.612 5.891 5.835v14.322c0 .586-.479 1.061-1.07 1.061H16.5c-3.252 0-5.891-2.612-5.891-5.835z" fill="#fff"/></svg>