<svg xmlns="http://www.w3.org/2000/svg" width="48" height="48" fill="none" xmlns:v="https://vecta.io/nano"><g clip-path="url(#B)"><path d="M21.279 31.754c-.247 0-.488.1-.664.275s-.274.416-.274.663.099.489.274.663.416.275.664.275.488-.1.663-.275.274-.416.274-.663-.099-.488-.274-.663-.416-.275-.663-.275z" fill="url(#A)"/><path d="M9.038 26.947c-.653-.457-1.446-.633-2.231-.495s-1.47.575-1.928 1.228-.633 1.446-.495 2.231.575 1.47 1.228 1.928c.508.355 1.099.541 1.707.541a3.01 3.01 0 0 0 .525-.046 2.99 2.99 0 0 0 2.422-3.459c-.139-.786-.575-1.47-1.228-1.928zm-1.52 3.541c-.292.051-.587-.014-.83-.184s-.405-.425-.457-.717.014-.587.184-.83.425-.405.717-.457c.065-.012.131-.017.195-.017.226 0 .446.069.635.201.243.17.405.425.457.717.106.603-.298 1.181-.901 1.287z" fill="url(#A)"/><path d="M32.748 21.879c-.786.139-1.47.575-1.928 1.228s-.633 1.446-.495 2.232.575 1.47 1.228 1.928c.508.355 1.099.541 1.707.541a3.02 3.02 0 0 0 .525-.046 2.99 2.99 0 0 0 2.422-3.459 2.99 2.99 0 0 0-3.459-2.422zm.712 4.035c-.292.051-.587-.014-.83-.184s-.405-.425-.457-.717.014-.587.184-.83.425-.405.717-.457a1.12 1.12 0 0 1 .194-.017c.529 0 .999.38 1.094.918.106.603-.298 1.181-.901 1.288z" fill="url(#A)"/><path d="M23.946 13.963a.94.94 0 0 0 .663-.276c.174-.174.275-.415.275-.663s-.1-.488-.275-.663-.416-.275-.663-.275-.489.1-.663.275-.275.416-.275.663.1.488.275.663a.94.94 0 0 0 .663.276z" fill="url(#A)"/><path d="M25.37 28.587a1.67 1.67 0 0 0 1.254-2.306l-.811-1.919a1.67 1.67 0 0 0-1.837-1l-8.421 1.485a1.67 1.67 0 0 0-1.385 1.568l-.106 2.081a1.67 1.67 0 0 0 1.673 1.764 1.7 1.7 0 0 0 .295-.026l9.338-1.646zm-9.42-.243l.085-1.678 8.113-1.43.654 1.547-8.852 1.561z" fill="url(#A)"/><path d="M47.063 30.505h-2.531a.94.94 0 0 0-.512.152l-3.607 2.349-2.562.567-1.162.258-.026-.198-.462-2.621 1.178-.208a2.76 2.76 0 0 0 2.234-3.191l-.968-5.488c-.375-2.125-2.078-3.688-4.104-3.987l-.532-1.209.634-.112c1.527-.269 2.551-1.731 2.281-3.258s-1.73-2.551-3.258-2.281l-1.988.35-.683-1.553a4.83 4.83 0 0 0-5.275-2.82L8.404 10.308c-2.202.388-3.843 2.217-3.992 4.449L4.3 16.455l-1.975.348c-.74.13-1.385.541-1.815 1.157s-.596 1.362-.466 2.102.541 1.385 1.157 1.815a2.79 2.79 0 0 0 1.607.509c.164 0 .329-.014.494-.043l.615-.108-.088 1.322c-1.795.977-2.856 3.023-2.482 5.144l.968 5.488a2.76 2.76 0 0 0 2.711 2.276 2.76 2.76 0 0 0 .48-.042l1.178-.208.462 2.621c.205 1.163 1.221 1.984 2.363 1.984a2.41 2.41 0 0 0 .418-.037l1.729-.305c.632-.111 1.182-.462 1.55-.987s.509-1.163.398-1.794l-.462-2.621 4.592-.81a.94.94 0 0 0 .761-1.086.94.94 0 0 0-1.086-.76L5.179 34.578a.88.88 0 0 1-1.019-.713l-.968-5.488a3.02 3.02 0 0 1 2.445-3.491l27.67-4.879a3.02 3.02 0 0 1 3.491 2.445l.968 5.489a.88.88 0 0 1-.714 1.019l-12.259 2.162a.94.94 0 0 0-.761 1.086.94.94 0 0 0 1.086.76l4.622-.815.462 2.621c.111.632.462 1.182.987 1.55.408.286.884.435 1.372.435l.102-.005-.85.992c-.479.559-.586 1.323-.278 1.992s.957 1.085 1.694 1.085h13.83a.94.94 0 0 0 .938-.937v-8.442a.94.94 0 0 0-.937-.937zm-35.767 4.898l.462 2.621c.024.138-.007.278-.087.393s-.201.192-.339.216l-1.729.305c-.286.05-.559-.141-.609-.427l-.462-2.621 2.765-.488zm22.698-22.28a.94.94 0 0 1 1.086.76.94.94 0 0 1-.76 1.086l-1.085.191-.777-1.767 1.537-.271zm-7.945-4.023a2.96 2.96 0 0 1 3.233 1.729l3.257 7.408-12.659 2.232 2.703-3.86a.94.94 0 0 0-.23-1.306.94.94 0 0 0-1.306.23l-3.778 5.396-6.001 1.058 8.213-11.729 6.569-1.158zM8.73 12.154l8.138-1.435-8.213 11.729-2.908.513.537-8.081a2.96 2.96 0 0 1 2.446-2.726zm-5.754 8.342c-.247.043-.495-.012-.7-.155a.93.93 0 0 1-.385-.605.94.94 0 0 1 .76-1.086l1.522-.268-.128 1.927-1.068.188zm29.291 14.289a.52.52 0 0 1-.216-.34l-.462-2.621 2.765-.488.462 2.621c.05.285-.141.559-.426.609l-1.729.305c-.139.024-.278-.007-.393-.087zm13.858 4.161H33.254l2.572-3.002 5.157-1.145a.94.94 0 0 0 .309-.13l3.517-2.29h1.315v6.567z" fill="url(#A)"/></g><defs><linearGradient id="A" x1="0" y1="40.822" x2="16.853" y2="-8.024" gradientUnits="userSpaceOnUse"><stop stop-color="#5d3cf2"/><stop offset="1" stop-color="#fd5631"/></linearGradient><clipPath id="B"><path fill="#fff" d="M0 0h48v48H0z"/></clipPath></defs></svg>