<svg xmlns="http://www.w3.org/2000/svg" width="56" height="56" fill="none" xmlns:v="https://vecta.io/nano"><g clip-path="url(#B)"><path d="M54.677 26.203c-.838-.773-1.979-1.251-3.129-1.311-1.306-.067-2.53.398-3.441 1.31l-6.227 6.161c-.123-.213-.264-.414-.421-.601-.766-.91-1.886-1.41-3.154-1.41h-8.717c-1.644 0-3.247-.213-4.765-.633-3.959-1.095-7.741-.295-10.938 2.314a15.91 15.91 0 0 0-2.848 3.057l-1.563-1.517a1.11 1.11 0 0 0-.771-.313c-.304.002-.591.126-.797.339L.308 41.488a1.1 1.1 0 0 0-.308.788 1.1 1.1 0 0 0 .341.774l12.85 12.236a1.1 1.1 0 0 0 1.549-.029l7.527-7.722c.205-.211.32-.499.314-.794s-.127-.571-.336-.773l-.655-.636 1.5-.169c.908-.106 1.83-.159 2.744-.159h13.262c2.155 0 3.985-.471 5.441-1.401l.036-.024a7.34 7.34 0 0 0 1.405-1.276l8.937-10.514c1.53-1.799 1.434-4.044-.238-5.586zM13.923 52.94L2.664 42.219l6.066-6.297 11.194 10.863-6 6.156zm39.314-22.577L44.3 40.877a5.15 5.15 0 0 1-.967.882c-1.092.692-2.517 1.043-4.236 1.043H25.834a26.02 26.02 0 0 0-2.994.173l-3.297.37-6.904-6.7a13.74 13.74 0 0 1 2.64-2.904c2.657-2.169 5.67-2.807 8.957-1.898 1.71.473 3.511.713 5.353.713h8.717c1.565 0 1.983 1.356 1.983 2.157 0 .585-.188 1.142-.516 1.529-.355.418-.861.63-1.502.63h-7.588a1.1 1.1 0 1 0 0 2.203h7.588c1.281 0 2.41-.5 3.181-1.407.641-.755 1.007-1.747 1.038-2.807l7.171-7.096c1.025-1.025 2.626-.768 3.522.059.463.427 1.086 1.325.053 2.54z" fill="url(#A)"/><path d="M27.247 37.679a1.1 1.1 0 1 0-2.145.503l.01.045c.119.508.572.85 1.072.85a1.12 1.12 0 0 0 .253-.029 1.1 1.1 0 0 0 .821-1.324l-.011-.045z" fill="url(#A)"/><path d="M7.446 23.68H18.18a2.65 2.65 0 0 0 1.565-.51 2.65 2.65 0 0 0 1.565.51h10.735a2.65 2.65 0 0 0 1.565-.51 2.65 2.65 0 0 0 1.565.51h10.734a2.67 2.67 0 0 0 2.667-2.667v-5.006c0-2.248-1.258-4.201-3.141-5.165.913-1.101 1.462-2.512 1.462-4.05 0-3.504-2.85-6.354-6.354-6.354s-6.354 2.851-6.354 6.354c0 1.538.549 2.95 1.462 4.05a5.77 5.77 0 0 0-2.04 1.749 5.76 5.76 0 0 0-2.04-1.749c.913-1.1 1.462-2.512 1.462-4.05 0-3.504-2.851-6.354-6.354-6.354s-6.355 2.851-6.355 6.354c0 1.538.55 2.95 1.463 4.051a5.76 5.76 0 0 0-2.041 1.749c-.529-.731-1.226-1.333-2.04-1.75.913-1.1 1.462-2.512 1.462-4.05 0-3.504-2.851-6.355-6.354-6.355S6.459 3.288 6.459 6.792c0 1.538.549 2.95 1.462 4.05-1.883.963-3.142 2.917-3.142 5.165v5.005a2.67 2.67 0 0 0 2.667 2.667zM40.544 2.641c2.289 0 4.151 1.862 4.151 4.151a4.16 4.16 0 0 1-4.151 4.151c-2.289 0-4.151-1.862-4.151-4.151s1.862-4.151 4.151-4.151zm-2.862 9.822c.861.436 1.833.684 2.862.684a6.31 6.31 0 0 0 2.862-.684 3.58 3.58 0 0 1 2.969 3.544v5.006c0 .256-.208.464-.464.464H35.177c-.255 0-.464-.208-.464-.464v-5.006a3.58 3.58 0 0 1 2.969-3.544zM26.679 2.641c2.289 0 4.151 1.862 4.151 4.151s-1.862 4.151-4.151 4.151-4.151-1.862-4.151-4.151 1.862-4.151 4.151-4.151zm-2.862 9.822a6.31 6.31 0 0 0 2.862.684c1.029 0 2.001-.247 2.862-.684a3.58 3.58 0 0 1 2.969 3.544v5.006c0 .256-.208.464-.464.464H21.312c-.256 0-.464-.208-.464-.464v-5.006a3.58 3.58 0 0 1 2.969-3.544zM12.813 2.641c2.289 0 4.151 1.862 4.151 4.151a4.16 4.16 0 0 1-4.151 4.151c-2.289 0-4.151-1.862-4.151-4.151s1.862-4.151 4.151-4.151zM6.982 16.007a3.58 3.58 0 0 1 2.969-3.544 6.31 6.31 0 0 0 2.862.684c1.029 0 2.001-.247 2.862-.684a3.58 3.58 0 0 1 2.969 3.544v5.006c0 .256-.208.464-.464.464H7.446c-.256 0-.464-.208-.464-.464v-5.006z" fill="url(#A)"/></g><defs><linearGradient id="A" x1="0" y1="55.59" x2="35.177" y2="-16.966" gradientUnits="userSpaceOnUse"><stop stop-color="#5d3cf2"/><stop offset="1" stop-color="#fd5631"/></linearGradient><clipPath id="B"><path fill="#fff" d="M0 0h56v56H0z"/></clipPath></defs></svg>