<svg xmlns="http://www.w3.org/2000/svg" width="40" height="40" fill="none" xmlns:v="https://vecta.io/nano"><path fill-rule="evenodd" d="M5.482 7.734c.248-.643.866-1.068 1.555-1.068h16.667c.517 0 1.005.24 1.32.65l6.907 8.966h1.032c1.445 0 2.818.597 3.819 1.637a5.59 5.59 0 0 1 1.551 3.876v7.692c0 .442-.176.866-.488 1.179s-.736.488-1.178.488h-2.288C33.696 33.356 31.698 35 29.259 35s-4.437-1.644-5.119-3.846h-8.281C15.178 33.356 13.18 35 10.741 35s-4.437-1.644-5.119-3.846H3.333c-.442 0-.866-.176-1.179-.488s-.488-.736-.488-1.179V17.949c0-.205.038-.408.111-.599l3.704-9.615zm.14 20.086c.682-2.202 2.68-3.846 5.119-3.846s4.437 1.644 5.119 3.846h8.281c.682-2.202 2.68-3.846 5.119-3.846s4.437 1.644 5.119 3.846H35v-6.026c0-.598-.229-1.159-.619-1.563a1.97 1.97 0 0 0-1.418-.616H5v8.205h.622zm.139-11.538h12.572V10H8.181l-2.42 6.282zM21.667 10v6.282h6.057L22.884 10h-1.217zM10.741 27.308c-1.066 0-2.037.916-2.037 2.179s.971 2.179 2.037 2.179 2.037-.916 2.037-2.179-.971-2.179-2.037-2.179zm18.519 0c-1.066 0-2.037.916-2.037 2.179s.971 2.179 2.037 2.179 2.037-.916 2.037-2.179-.971-2.179-2.037-2.179z" fill="url(#A)"/><defs><linearGradient id="A" x1="1.667" y1="35" x2="16.965" y2="-5.216" gradientUnits="userSpaceOnUse"><stop stop-color="#5d3cf2"/><stop offset="1" stop-color="#fd5631"/></linearGradient></defs></svg>