<svg xmlns="http://www.w3.org/2000/svg" width="32" height="32" fill="none" xmlns:v="https://vecta.io/nano"><path fill-rule="evenodd" d="M16.512 6.648c-2.624-.106-5.185.64-7.207 2.074s-3.347 3.439-3.789 5.625.018 4.443 1.323 6.372c.232.343.291.775.16 1.169l-.996 2.989 3.987-.848c.29-.062.593-.025.86.105 2.286 1.11 4.961 1.448 7.521.941s4.791-1.817 6.3-3.647 2.193-4.046 1.977-6.252-1.33-4.305-3.185-5.887-4.326-2.535-6.95-2.641zM3.925 27.998a1.33 1.33 0 0 0 .374-.032l5.809-1.236c2.72 1.209 5.817 1.548 8.779.961 3.117-.618 5.91-2.227 7.839-4.567s2.861-5.263 2.573-8.208-1.766-5.658-4.108-7.656-5.387-3.148-8.573-3.277-6.334.773-8.858 2.563-4.273 4.369-4.86 7.271c-.544 2.69-.051 5.448 1.367 7.827l-1.526 4.578c-.041.117-.067.241-.074.368a1.33 1.33 0 0 0 .06.477c.058.184.154.349.277.486s.275.251.452.33a1.33 1.33 0 0 0 .467.113z" fill="url(#A)"/><defs><linearGradient id="A" x1="2.667" y1="28" x2="17.13" y2="-4.63" gradientUnits="userSpaceOnUse"><stop stop-color="#5d3cf2"/><stop offset="1" stop-color="#fd5631"/></linearGradient></defs></svg>