<svg xmlns="http://www.w3.org/2000/svg" width="48" height="48" fill="none" xmlns:v="https://vecta.io/nano"><g clip-path="url(#B)"><path d="M16.951 17.201a.94.94 0 0 0-1.318.149l-.016.02a.94.94 0 0 0 .149 1.317c.173.138.379.205.584.205.276 0 .549-.121.734-.353l.015-.02a.94.94 0 0 0-.149-1.317z" fill="url(#A)"/><path d="M31.557 16.443c-1.723-1.723-4.003-2.813-6.422-3.07a10.73 10.73 0 0 0-6.821 1.575.94.94 0 0 0-.294 1.293.94.94 0 0 0 1.293.294 8.76 8.76 0 0 1 10.919 1.234c.183.183.423.275.663.275s.48-.092.663-.275a.94.94 0 0 0 0-1.326z" fill="url(#A)"/><path d="M47.711 13.824l-4.243-4.243a.94.94 0 0 0-1.326 0L23.948 27.776l-9.231-9.231a.94.94 0 0 0-1.326 0l-4.243 4.243a.94.94 0 0 0-.275.663c0 .249.099.487.275.663L23.286 38.25c.183.183.423.275.663.275s.48-.092.663-.275l8.628-8.628a.94.94 0 0 0 0-1.326.94.94 0 0 0-1.326 0l-7.965 7.965L11.138 23.45l2.917-2.917 9.231 9.231a.94.94 0 0 0 1.326 0L42.805 11.57l2.917 2.917-8.933 8.933a.94.94 0 0 0 0 1.326.94.94 0 0 0 1.326 0l9.596-9.596a.94.94 0 0 0 0-1.326z" fill="url(#A)"/><path d="M35.812 25.725c-.175-.174-.416-.275-.664-.275s-.489.1-.663.275-.275.416-.275.663.1.488.275.663.416.275.663.275a.95.95 0 0 0 .664-.275c.174-.174.274-.416.274-.663s-.099-.488-.274-.663z" fill="url(#A)"/><path d="M47.691 29.318l-1.082-.977c-1.22-1.101-1.922-2.674-1.929-4.317-.002-.509-.4-.945-.91-.96a.94.94 0 0 0-.966.937c0 2.181.928 4.27 2.548 5.732l.591.533-1.999 4.82-.797-.041c-2.175-.111-4.31.709-5.851 2.251a7.73 7.73 0 0 0-2.251 5.851l.041.797-4.82 1.999-.533-.591c-1.462-1.619-3.551-2.548-5.732-2.548s-4.271.928-5.732 2.548l-.533.591-4.82-1.999.041-.797a7.73 7.73 0 0 0-2.251-5.851 7.73 7.73 0 0 0-5.851-2.25l-.797.041-1.999-4.82.592-.535c1.618-1.461 2.546-3.549 2.546-5.733a7.73 7.73 0 0 0-2.546-5.729l-.592-.534 1.999-4.82.797.041a7.73 7.73 0 0 0 5.851-2.251 7.73 7.73 0 0 0 2.251-5.851l-.041-.797 4.82-1.999.535.592c1.461 1.618 3.549 2.546 5.733 2.546a7.73 7.73 0 0 0 5.729-2.546l.534-.592 4.82 1.999-.041.797c-.093 1.819.465 3.608 1.55 5.046.342.453 1.008.497 1.41.095a.94.94 0 0 0 .083-1.229c-.82-1.088-1.241-2.441-1.171-3.817l.074-1.457a.94.94 0 0 0-.577-.914L30.372.072c-.367-.152-.789-.057-1.055.238l-.978 1.083c-1.106 1.225-2.687 1.928-4.341 1.928s-3.231-.703-4.337-1.928L18.683.31c-.266-.295-.688-.39-1.055-.238l-6.042 2.506a.94.94 0 0 0-.577.914l.074 1.457c.084 1.648-.537 3.263-1.704 4.43a5.85 5.85 0 0 1-4.43 1.704l-1.457-.074c-.395-.021-.762.211-.914.577L.072 17.628a.94.94 0 0 0 .238 1.055l1.083.978c1.225 1.106 1.928 2.687 1.928 4.341s-.703 3.231-1.928 4.337l-1.083.978a.94.94 0 0 0-.238 1.055l2.506 6.042a.94.94 0 0 0 .914.577l1.457-.075c1.649-.084 3.263.537 4.43 1.704s1.788 2.782 1.704 4.43l-.074 1.457a.94.94 0 0 0 .577.914l6.042 2.506a.94.94 0 0 0 1.055-.238l.977-1.082c1.107-1.226 2.689-1.929 4.34-1.929s3.234.703 4.34 1.929l.977 1.082a.94.94 0 0 0 .696.309c.121 0 .243-.023.359-.072l6.043-2.506a.94.94 0 0 0 .577-.914l-.074-1.457c-.084-1.648.537-3.263 1.704-4.43s2.78-1.787 4.43-1.704l1.457.075a.94.94 0 0 0 .914-.577l2.506-6.042c.152-.366.057-.789-.238-1.055z" fill="url(#A)"/></g><defs><linearGradient id="A" x1="0" y1="48.001" x2="30.903" y2="-14.776" gradientUnits="userSpaceOnUse"><stop stop-color="#5d3cf2"/><stop offset="1" stop-color="#fd5631"/></linearGradient><clipPath id="B"><path fill="#fff" d="M0 0h48v48H0z"/></clipPath></defs></svg>