<svg xmlns="http://www.w3.org/2000/svg" xmlns:xlink="http://www.w3.org/1999/xlink" width="160" height="96" fill="none" xmlns:v="https://vecta.io/nano"><path d="M128.412 69.819l-1.962-11.573c-.392-1.962-1.961-3.727-3.923-4.119l-15.888-3.531c-.785-.196-1.569-.588-2.158-1.177L91.339 35.296C88.201 31.962 83.886 30 79.178 30H55.051c-9.415 0-17.458 6.669-19.223 16.084L31.121 71.78c-.392 1.765.196 3.531 1.373 4.904s2.942 2.158 4.707 2.158h1.177c1.962 4.904 6.669 8.434 12.358 8.434 5.492 0 10.396-3.531 12.357-8.434h32.953c1.962 4.904 6.669 8.434 12.357 8.434 5.492 0 10.396-3.531 12.358-8.434h1.765c1.765 0 3.335-.588 4.511-1.962 1.177-1.177 1.962-2.746 1.962-4.511l-.588-2.55zm-91.21 7.65c-1.373 0-2.55-.588-3.531-1.569-.785-.981-1.177-2.354-.981-3.727l.196-1.177h4.904c-.196.981-.392 2.158-.392 3.138 0 1.177.196 2.158.392 3.335h-.589zm24.519 0c0 .196-.196.588-.196.785s-.196.588-.392.785c-1.765 4.119-5.884 6.865-10.592 6.865s-8.827-2.746-10.592-6.865c-.196-.196-.196-.588-.392-.785 0-.196-.196-.588-.196-.785-.392-.981-.589-2.158-.589-3.335a8.13 8.13 0 0 1 .589-3.138c0-.196.196-.588.196-.785s.196-.588.196-.785c1.765-4.119 5.884-7.061 10.592-7.061s8.827 2.942 10.592 7.061c.196.196.196.589.196.785s.196.588.196.785c.196.981.589 2.158.589 3.138.196 1.177 0 2.158-.196 3.335zm1.569 0c.196-.981.392-2.158.392-3.335s-.196-2.158-.392-3.138h31.973c-.196.981-.392 2.158-.392 3.138 0 1.177.196 2.158.392 3.335H63.29zm55.902 0c0 .196-.196.588-.196.785s-.196.588-.392.785c-1.765 4.119-5.884 6.865-10.592 6.865s-8.827-2.746-10.592-6.865c-.196-.196-.196-.588-.392-.785 0-.196-.196-.588-.196-.785-.392-.981-.588-2.158-.588-3.335a8.13 8.13 0 0 1 .588-3.138c0-.196.196-.588.196-.785s.196-.588.196-.785c1.765-4.119 5.884-7.061 10.592-7.061s8.827 2.942 10.592 7.061c.196.196.196.589.196.785s.196.588.196.785c.196.981.589 2.158.589 3.138.392 1.177.196 2.158-.197 3.335zm-11.18-16.477c-5.688 0-10.396 3.531-12.358 8.434H62.701c-1.962-4.904-6.669-8.434-12.358-8.434s-10.396 3.531-12.357 8.434h-5.1l1.765-10.004h4.315c.392 0 .785-.392.785-.785s-.392-.785-.785-.785h-3.923l.392-2.354h3.923c.392 0 .785-.392.785-.784s-.392-.785-.785-.785h-3.727l1.373-7.846c1.569-8.631 9.023-14.711 17.654-14.711h24.126c4.119 0 8.238 1.765 10.984 4.708l13.142 14.123c.785.785 1.765 1.373 2.942 1.569l15.889 3.531c1.373.196 2.353 1.177 2.549 2.55h-5.884c-.392 0-.785.392-.785.785s.393.785.785.785h6.081l1.765 9.807h-6.473c-1.373-4.708-6.081-8.238-11.769-8.238zm18.83 11.573c0 1.373-.588 2.55-1.373 3.531-.98.981-2.157 1.373-3.53 1.373h-1.177c.196-.981.392-2.158.392-3.335s-.196-2.158-.392-3.138h6.08v1.569z" fill="url(#A)"/><path d="M63.88 54.129h-3.923c-.392 0-.785.392-.785.785s.392.785.785.785h3.923c.392 0 .785-.392.785-.785s-.392-.785-.785-.785z" fill="url(#B)"/><path d="M114.482 70.211c-.196-.196-.392-.588-.588-.785-1.373-1.765-3.531-2.942-5.885-2.942s-4.511 1.177-5.884 2.942c-.196.196-.393.589-.589.785s-.196.588-.392.785c-.392.981-.785 1.962-.785 3.138s.393 2.354.785 3.335c.196.196.196.588.392.785s.393.588.589.785c1.373 1.765 3.53 2.746 5.884 2.746s4.512-1.177 5.885-2.746c.196-.196.392-.392.588-.785.196-.196.196-.588.393-.785.392-.981.784-2.158.784-3.335s-.196-2.158-.784-3.138c0-.392-.197-.588-.393-.785zm-1.373 7.258c-.196.196-.392.588-.588.785l-.785.785c-.981.785-2.354 1.177-3.727 1.177s-2.55-.392-3.727-1.177a1.53 1.53 0 0 1-.784-.785c-.196-.196-.393-.392-.589-.785-.588-.981-.98-2.158-.98-3.335s.392-2.158.98-3.138c.196-.196.393-.588.589-.785l.784-.785c.981-.785 2.354-1.373 3.727-1.373s2.746.588 3.727 1.373c.196.196.589.392.785.785.196.196.392.392.588.785.589.981.981 1.962.981 3.138s-.392 2.354-.981 3.335z" fill="url(#C)"/><path d="M57.014 70.211c-.196-.196-.392-.588-.589-.785-1.373-1.765-3.531-2.942-5.885-2.942s-4.511 1.177-5.884 2.942c-.196.196-.392.589-.588.785s-.196.588-.392.785c-.392.981-.785 1.962-.785 3.138s.392 2.354.785 3.335c.196.196.196.588.392.785s.392.588.588.785c1.373 1.765 3.531 2.746 5.884 2.746s4.512-1.177 5.885-2.746c.196-.196.392-.392.589-.785.196-.196.196-.588.392-.785.392-.981.785-2.158.785-3.335s-.196-2.158-.785-3.138c-.196-.392-.392-.588-.392-.785zm-1.373 7.258c-.196.196-.392.588-.588.785l-.785.785c-.981.785-2.354 1.177-3.727 1.177s-2.55-.392-3.727-1.177a1.53 1.53 0 0 1-.785-.785c-.196-.196-.392-.392-.588-.785-.589-.981-.981-2.158-.981-3.335s.392-2.158.981-3.138c.196-.196.392-.588.588-.785l.785-.785c.981-.785 2.354-1.373 3.727-1.373s2.746.588 3.727 1.373c.196.196.589.392.785.785.196.196.392.392.588.785.589.981.981 1.962.981 3.138s-.392 2.354-.981 3.335z" fill="url(#D)"/><path d="M98.791 49.616L88.788 38.044c-2.55-2.942-6.277-4.708-10.2-4.708H57.207c-4.708 0-9.023 2.746-10.984 7.258l-1.962 4.511c-.589 1.177-.392 2.746.196 3.923.785 1.177 1.961 1.962 3.335 1.962l49.626 1.569c.588 0 1.177-.392 1.569-.981.196-.588.196-1.373-.196-1.962zm-50.999-.196c-.981 0-1.765-.392-2.158-1.177s-.588-1.765-.196-2.55l1.962-4.511c1.177-2.746 3.531-4.904 6.277-5.688l2.158 14.319-8.042-.392zm49.626 1.569l-40.015-1.177-2.158-14.711c.589-.196 1.177-.196 1.765-.196h21.38c3.531 0 6.865 1.569 9.219 4.119l10.004 11.573-.196.392z" fill="url(#E)"/><defs><linearGradient id="A" x1="31" y1="87.276" x2="55.728" y2="1.33" xlink:href="#F"><stop stop-color="#5d3cf2"/><stop offset="1" stop-color="#fd5631"/></linearGradient><linearGradient id="B" x1="59.172" y1="55.698" x2="59.524" y2="53.198" xlink:href="#F"><stop stop-color="#5d3cf2"/><stop offset="1" stop-color="#fd5631"/></linearGradient><linearGradient id="C" x1="100.359" y1="81.784" x2="110.21" y2="61.775" xlink:href="#F"><stop stop-color="#5d3cf2"/><stop offset="1" stop-color="#fd5631"/></linearGradient><linearGradient id="D" x1="42.891" y1="81.784" x2="52.741" y2="61.775" xlink:href="#F"><stop stop-color="#5d3cf2"/><stop offset="1" stop-color="#fd5631"/></linearGradient><linearGradient id="E" x1="43.906" y1="52.559" x2="49.107" y2="22.217" xlink:href="#F"><stop stop-color="#5d3cf2"/><stop offset="1" stop-color="#fd5631"/></linearGradient><linearGradient id="F" gradientUnits="userSpaceOnUse"/></defs></svg>