<svg xmlns="http://www.w3.org/2000/svg" width="160" height="96" fill="none" xmlns:v="https://vecta.io/nano"><path d="M143.145 55.94c-1.644-3.288-5.115-5.298-9.499-5.48l-27.037-2.558c-2.375 0-4.567-.731-6.576-2.192l-9.317-6.394c-.365-.183-.731-.548-1.279-.913-4.567-3.288-5.48-3.654-6.028-3.288-.365.183-.548.548-.731 1.096l-.183.365c-.365.731-.365 1.644.365 2.375l9.317 7.672.183.365-.365.183-29.959-1.096-2.558-5.846c-.365-.913-1.279-1.462-2.192-1.462-.731 0-1.461.365-1.827.913s-.548 1.279-.365 2.01l1.096 4.202-25.758-.913h-3.471-3.106c-2.009 0-4.019.731-5.48 2.192S16 50.459 16 52.651v6.576c0 7.672 6.211 14.066 14.066 14.066h1.461c2.009 4.202 6.211 7.307 11.144 7.307s9.317-2.923 11.144-7.307h53.342c2.009 4.202 6.211 7.307 11.143 7.307 5.115 0 9.317-3.105 11.327-7.307 4.749-.548 8.951-2.74 11.691-6.394.548-.731.913-1.462 1.279-2.192h.182v-.183c1.462-3.288 1.645-6.211.366-8.586zm-86.59-15.528c.365-.548 1.279-.365 1.644.183l2.192 5.298-2.923-.183-1.096-4.567c0-.183 0-.365.183-.731zM30.797 71.65h-.913c-4.932 0-9.317-2.923-11.326-7.125H30.98c-.365 1.096-.548 2.375-.548 3.654-.183 1.096.183 2.192.365 3.471zm22.104 0c-.183.548-.365.913-.548 1.461-1.827 3.471-5.48 5.846-9.499 5.846-4.202 0-7.855-2.375-9.499-5.846-.183-.365-.365-.913-.548-1.461-.365-1.096-.731-2.375-.731-3.654s.183-2.557.731-3.654c.183-.548.365-.913.548-1.461 1.827-3.471 5.48-5.846 9.499-5.846 4.202 0 7.672 2.375 9.499 5.846.183.365.365.913.548 1.461.365 1.096.731 2.375.731 3.654-.183 1.279-.365 2.375-.731 3.654zm53.708 0H54.363c.365-1.096.548-2.375.548-3.654s-.183-2.557-.548-3.654h52.429c-.366 1.096-.548 2.375-.548 3.654s.182 2.375.365 3.654zm22.104-.183c-.182.548-.365.913-.548 1.462a10.94 10.94 0 0 1-9.682 5.846c-4.201 0-7.855-2.375-9.499-5.846-.183-.365-.366-.913-.548-1.462-.366-1.096-.731-2.375-.731-3.653s.183-2.558.731-3.654c.182-.548.365-.913.548-1.462 1.827-3.471 5.48-5.846 9.499-5.846s7.673 2.375 9.499 5.846c.183.365.366.913.549 1.462.365 1.096.73 2.375.73 3.654 0 1.461-.182 2.558-.548 3.653zm11.509-5.846c-2.375 3.105-5.846 5.115-10.047 5.663.365-1.096.548-2.192.548-3.471s-.183-2.558-.548-3.654h10.96c-.365.548-.548 1.096-.913 1.461zm1.644-2.74h-12.239c-2.01-4.202-6.212-7.307-11.144-7.307s-9.317 2.923-11.143 7.307H53.815c-2.01-4.202-6.211-7.307-11.144-7.307s-9.317 2.923-11.143 7.307H18.01c-.365-1.096-.548-2.192-.548-3.471h3.654a.79.79 0 0 0 .731-.731.79.79 0 0 0-.731-.731h-3.654v-4.567h3.654a.79.79 0 0 0 .731-.731.79.79 0 0 0-.731-.731h-3.471c.183-1.461.731-2.923 1.827-4.019s2.74-1.644 4.202-1.644h.183 3.106 3.288l61.746 2.375c.731 0 1.462-.365 1.644-1.096a2.06 2.06 0 0 0-.548-2.009l-9.317-7.49a.56.56 0 0 1 0-.731l.183-.365.183-.365c.913.365 3.471 2.192 4.567 2.923.548.365.913.731 1.279.913l9.317 6.211c2.192 1.644 4.749 2.375 7.307 2.557l27.037 2.558c3.105.183 5.845 1.461 7.489 3.471h-6.941a.79.79 0 0 0-.731.731.79.79 0 0 0 .731.731h7.855c.73 1.827.73 4.019-.183 6.211z" fill="url(#A)"/><path d="M123.416 62.887c-1.279-1.279-2.923-2.01-4.932-2.01-1.827 0-3.654.731-4.933 2.01-.365.365-.73.913-1.096 1.461-.73 1.096-1.096 2.375-1.096 3.654s.366 2.558 1.096 3.654c.366.548.731.913 1.096 1.461 1.279 1.279 3.106 2.01 4.933 2.01 2.009 0 3.653-.731 4.932-2.01.366-.365.731-.913 1.096-1.461.548-1.096 1.096-2.192 1.096-3.654 0-1.279-.365-2.557-1.096-3.654-.365-.548-.73-.913-1.096-1.461zm-.731 8.769c-.548.548-1.096 1.096-1.826 1.461s-1.644.731-2.558.731-1.827-.183-2.557-.731c-.731-.365-1.279-.913-1.827-1.461-.731-.913-1.279-2.192-1.279-3.654s.548-2.557 1.279-3.654c.548-.548 1.096-1.096 1.827-1.461s1.644-.548 2.557-.548 1.644.183 2.558.548c.73.365 1.278.913 1.826 1.461.914.913 1.279 2.192 1.279 3.654.183 1.279-.365 2.558-1.279 3.654z" fill="url(#B)"/><path d="M66.237 51.555h-3.654a.79.79 0 0 0-.731.731.79.79 0 0 0 .731.731h3.654a.79.79 0 0 0 .731-.731.79.79 0 0 0-.731-.731z" fill="url(#C)"/><path d="M47.604 62.887c-1.279-1.279-2.923-2.01-4.932-2.01-1.827 0-3.654.731-4.932 2.01-.365.365-.731.913-1.096 1.461-.731 1.096-1.096 2.375-1.096 3.654s.365 2.558 1.096 3.654c.365.548.731.913 1.096 1.461 1.279 1.279 3.106 2.01 4.932 2.01s3.654-.731 4.932-2.01c.365-.365.731-.913 1.096-1.461.548-1.096 1.096-2.192 1.096-3.654 0-1.279-.365-2.557-1.096-3.654-.365-.548-.731-.913-1.096-1.461zm-.731 8.769c-.548.548-1.096 1.096-1.827 1.461s-1.644.731-2.558.731-1.827-.183-2.557-.731c-.731-.365-1.279-.913-1.827-1.461-.731-.913-1.279-2.192-1.279-3.654s.548-2.557 1.279-3.654c.548-.548 1.096-1.096 1.827-1.461s1.644-.548 2.557-.548 1.644.183 2.558.548c.731.365 1.279.913 1.827 1.461.913.913 1.279 2.192 1.279 3.654.183 1.279-.365 2.558-1.279 3.654z" fill="url(#D)"/><defs><linearGradient id="A" x1="16" y1="80.601" x2="28.606" y2="8.72" gradientUnits="userSpaceOnUse"><stop stop-color="#5d3cf2"/><stop offset="1" stop-color="#fd5631"/></linearGradient><linearGradient id="B" x1="111.359" y1="75.127" x2="120.533" y2="56.492" gradientUnits="userSpaceOnUse"><stop stop-color="#5d3cf2"/><stop offset="1" stop-color="#fd5631"/></linearGradient><linearGradient id="C" x1="61.853" y1="53.017" x2="62.18" y2="50.688" gradientUnits="userSpaceOnUse"><stop stop-color="#5d3cf2"/><stop offset="1" stop-color="#fd5631"/></linearGradient><linearGradient id="D" x1="35.547" y1="75.127" x2="44.721" y2="56.492" gradientUnits="userSpaceOnUse"><stop stop-color="#5d3cf2"/><stop offset="1" stop-color="#fd5631"/></linearGradient></defs></svg>