<svg xmlns="http://www.w3.org/2000/svg" xmlns:xlink="http://www.w3.org/1999/xlink" width="160" height="96" fill="none" xmlns:v="https://vecta.io/nano"><path d="M133.174 52.581l-26.743-2.496c-.713 0-1.605-.357-2.318-.535l-18.72-8.914C79.153 37.605 72.021 36 65.068 36c-12.48 0-24.425 4.636-33.518 12.837-.357.178-.713.357-1.07.357l-4.814.178c-1.961-.178-3.922.713-5.349 2.139S18 54.72 18 56.86v6.418c0 7.488 6.062 13.728 13.728 13.728h1.426c1.961 4.101 6.062 7.132 10.876 7.132s9.093-2.853 10.876-7.132h56.16c1.962 4.101 6.062 7.132 10.876 7.132 5.17 0 9.449-3.209 11.232-7.666 5.705-1.605 9.806-6.953 9.806-13.015.357-6.24-4.101-10.697-9.806-10.876zM32.798 75.223h-.891a12.33 12.33 0 0 1-11.054-6.953h12.124c-.356 1.07-.535 2.318-.535 3.566-.178 1.07 0 2.139.356 3.388zm21.573 0c-.178.535-.357.892-.535 1.426-1.783 3.388-5.349 5.705-9.449 5.705s-7.666-2.318-9.271-5.705c-.178-.356-.357-.891-.535-1.426-.357-1.07-.713-2.318-.713-3.566s.178-2.496.713-3.566c.178-.535.357-.891.535-1.426 1.783-3.387 5.349-5.705 9.271-5.705 4.101 0 7.488 2.318 9.271 5.705.178.357.357.891.535 1.426.357 1.07.713 2.318.713 3.566s-.178 2.496-.535 3.566zm56.517 0H55.797c.357-1.07.535-2.318.535-3.566s-.178-2.496-.535-3.566h55.091c-.356 1.07-.535 2.318-.535 3.566s.179 2.318.535 3.566zm21.395-.356c-.179.535-.357 1.07-.535 1.426-1.783 3.566-5.349 5.883-9.449 5.883s-7.667-2.318-9.271-5.705c-.179-.356-.357-.891-.535-1.426-.357-1.07-.713-2.318-.713-3.566s.178-2.496.713-3.566c.178-.535.356-.891.535-1.426 1.783-3.388 5.348-5.705 9.271-5.705 4.1 0 7.488 2.318 9.271 5.705.178.357.356.891.534 1.426.357 1.07.714 2.318.714 3.566s-.179 2.318-.535 3.388zm1.604-.535c.179-.891.357-1.783.357-2.674 0-1.248-.178-2.496-.535-3.566h6.953c-1.248 2.853-3.744 5.17-6.775 6.24zm-.713-7.666c-1.961-4.101-6.062-7.131-10.875-7.131s-9.093 2.853-10.876 7.131H55.262c-1.961-4.101-6.062-7.131-10.876-7.131s-9.093 2.853-10.876 7.131H20.318a10.38 10.38 0 0 1-.535-3.387h3.566a.77.77 0 0 0 .713-.713.77.77 0 0 0-.713-.713h-3.566v-4.457h3.566a.77.77 0 0 0 .713-.713.77.77 0 0 0-.713-.713h-3.387c.178-1.426.713-2.853 1.783-3.922s2.674-1.605 4.101-1.605h.178l4.814-.178a3.44 3.44 0 0 0 1.783-.535c8.915-8.023 20.682-12.48 32.805-12.48 6.775 0 13.55 1.605 19.79 4.457l18.72 8.915c.891.356 1.783.713 2.674.713l26.743 2.496c3.21.178 5.884 1.783 7.31 4.279h-6.953a.77.77 0 0 0-.713.713.77.77 0 0 0 .713.713h7.666c.357 1.07.714 2.139.714 3.387 0 1.426-.179 2.674-.714 3.922h-8.201v-.178z" fill="url(#A)"/><path d="M127.111 66.668c-1.248-1.248-2.853-1.961-4.814-1.961-1.783 0-3.566.713-4.814 1.961-.356.357-.713.891-1.07 1.426a6.43 6.43 0 0 0 0 7.132c.357.535.714.892 1.07 1.426 1.248 1.248 3.031 1.961 4.814 1.961 1.961 0 3.566-.713 4.814-1.961.356-.357.713-.891 1.07-1.426.534-1.07 1.069-2.139 1.069-3.566a6.43 6.43 0 0 0-1.069-3.566c-.357-.535-.714-.891-1.07-1.426zm-.713 8.558c-.535.535-1.07 1.07-1.783 1.426s-1.605.713-2.496.713-1.783-.178-2.496-.713c-.713-.357-1.248-.891-1.783-1.426-.713-.891-1.248-2.139-1.248-3.566s.535-2.496 1.248-3.566c.535-.535 1.07-1.07 1.783-1.426s1.604-.535 2.496-.535 1.604.178 2.496.535c.713.357 1.248.891 1.783 1.426.891.891 1.248 2.139 1.248 3.566.178 1.426-.357 2.496-1.248 3.566z" fill="url(#B)"/><path d="M63.464 55.613h-3.566a.77.77 0 0 0-.713.713.77.77 0 0 0 .713.713h3.566a.77.77 0 0 0 .713-.713.77.77 0 0 0-.713-.713z" fill="url(#C)"/><path d="M49.201 66.668c-1.248-1.248-2.853-1.961-4.814-1.961s-3.566.713-4.814 1.961c-.357.357-.713.891-1.07 1.426-.713 1.07-1.07 2.318-1.07 3.566s.357 2.496 1.07 3.566c.357.535.713.892 1.07 1.426 1.248 1.248 3.031 1.961 4.814 1.961 1.961 0 3.566-.713 4.814-1.961.356-.356.713-.891 1.07-1.426.535-1.07 1.07-2.139 1.07-3.566 0-1.248-.357-2.496-1.07-3.566-.357-.535-.713-.891-1.07-1.426zm-.713 8.558c-.535.535-1.07 1.07-1.783 1.426s-1.605.713-2.496.713-1.783-.178-2.496-.713c-.713-.356-1.248-.891-1.783-1.426-.713-.891-1.248-2.139-1.248-3.566s.535-2.496 1.248-3.566c.535-.535 1.07-1.07 1.783-1.426s1.605-.535 2.496-.535 1.605.178 2.496.535c.713.357 1.248.891 1.783 1.426.892.891 1.248 2.139 1.248 3.566.178 1.426-.357 2.496-1.248 3.566z" fill="url(#D)"/><path d="M95.913 50.089l-15.689-7.132c-2.318-1.07-4.636-1.783-6.953-2.318-3.922-.892-8.023-1.07-12.124-.178l-1.426.178c-5.349 1.07-10.341 3.744-14.085 7.666-.535.535-.713 1.426-.357 2.139s.891 1.248 1.783 1.248l48.138 1.07c.535 0 1.07-.357 1.248-.892.357-1.07 0-1.605-.535-1.783zm-39.402.178l-9.271-.178c-.357 0-.535-.357-.535-.357s-.178-.357.178-.535c2.674-2.853 6.062-4.992 9.628-6.24v7.31zm1.248 0v-7.845c.713-.178 1.605-.357 2.318-.535l1.426-.178c1.783-.357 3.388-.535 5.17-.535 2.139 0 4.279.178 6.418.713 2.318.535 4.635 1.248 6.775 2.318l14.976 6.953-37.084-.892z" fill="url(#E)"/><defs><linearGradient id="A" x1="18" y1="84.138" x2="32.313" y2="8.638" xlink:href="#F"><stop stop-color="#5d3cf2"/><stop offset="1" stop-color="#fd5631"/></linearGradient><linearGradient id="B" x1="115.344" y1="78.614" x2="124.297" y2="60.426" xlink:href="#F"><stop stop-color="#5d3cf2"/><stop offset="1" stop-color="#fd5631"/></linearGradient><linearGradient id="C" x1="59.185" y1="57.039" x2="59.504" y2="54.767" xlink:href="#F"><stop stop-color="#5d3cf2"/><stop offset="1" stop-color="#fd5631"/></linearGradient><linearGradient id="D" x1="37.434" y1="78.613" x2="46.387" y2="60.426" xlink:href="#F"><stop stop-color="#5d3cf2"/><stop offset="1" stop-color="#fd5631"/></linearGradient><linearGradient id="E" x1="45.094" y1="52.763" x2="47.635" y2="32.136" xlink:href="#F"><stop stop-color="#5d3cf2"/><stop offset="1" stop-color="#fd5631"/></linearGradient><linearGradient id="F" gradientUnits="userSpaceOnUse"/></defs></svg>