<svg xmlns="http://www.w3.org/2000/svg" xmlns:xlink="http://www.w3.org/1999/xlink" width="160" height="96" fill="none" xmlns:v="https://vecta.io/nano"><path d="M144.209 54.269c-.782-1.173-2.346-1.955-4.693-2.347-3.715-.587-10.558-.978-16.033-1.369-3.716-.196-6.844-.587-8.017-.587-.978-.196-1.76-.391-2.542-.978l-9.19-10.363C99.432 33.738 93.175 31 86.722 31h-47.71c-6.844 0-13.101 3.715-16.425 9.581l-5.475 9.581c-2.346 4.106-2.737 8.995-1.173 13.296l2.933 8.212v1.955c-.196 2.151-.196 3.911.978 5.084.587.587 1.564.978 2.933.978h6.648c1.955 4.888 6.648 8.408 12.319 8.408 5.475 0 10.363-3.52 12.319-8.408h56.705c1.955 4.888 6.648 8.408 12.319 8.408 5.474 0 10.363-3.52 12.318-8.408h7.235c.196 0 .391 0 .587-.196s.195-.391.195-.587v-8.212c0-2.933.587-5.671 1.173-8.017.196-3.52.978-6.453-.391-8.408zM22.587 78.124c-.978 0-1.564-.196-1.76-.587-.587-.587-.587-2.151-.391-3.911v-1.955h8.408c-.196.978-.391 2.151-.391 3.129 0 1.173.195 2.151.391 3.324h-6.257zm29.917 0c0 .195-.196.587-.196.782s-.196.587-.391.782c-1.76 4.106-5.866 6.844-10.559 6.844s-8.799-2.737-10.559-6.844c-.195-.196-.196-.587-.391-.782 0-.196-.196-.587-.196-.782-.391-.978-.587-2.151-.587-3.324s.195-2.151.587-3.129c0-.195.196-.587.196-.782s.196-.587.196-.782c1.76-4.106 5.866-7.039 10.559-7.039s8.799 2.933 10.559 7.039c.195.196.195.587.195.782s.196.587.196.782c.196.978.587 2.151.587 3.129.391 1.173.196 2.151-.195 3.324zm1.564 0c.196-.978.391-2.151.391-3.324s-.196-2.151-.391-3.129h55.727c-.195.978-.391 2.151-.391 3.129 0 1.173.196 2.151.391 3.324H54.068zm79.582 0c0 .195-.195.587-.195.782s-.196.587-.391.782c-1.76 4.106-5.866 6.844-10.559 6.844s-8.799-2.737-10.559-6.844c-.195-.196-.195-.587-.391-.782 0-.196-.196-.587-.196-.782-.391-.978-.586-2.151-.586-3.324s.195-2.151.586-3.129c0-.195.196-.587.196-.782s.196-.587.196-.782c1.759-4.106 5.866-7.039 10.558-7.039s8.799 2.933 10.559 7.039c.196.196.196.587.196.782s.195.587.195.782c.196.978.587 2.151.587 3.129.391 1.173.196 2.151-.196 3.324zm7.626 0h-6.061c.195-.978.391-2.151.391-3.324s-.196-2.151-.391-3.129h6.061v6.453zm1.369-15.838c-.587 2.347-1.173 5.084-1.173 7.821h-6.648c-1.956-4.888-6.649-8.408-12.319-8.408s-10.363 3.52-12.319 8.408H53.481c-1.955-4.888-6.648-8.408-12.319-8.408s-10.363 3.52-12.319 8.408h-9.19l-2.542-7.235c-.587-1.564-.782-3.129-.782-4.497h4.693c.391 0 .782-.391.782-.782s-.391-.782-.782-.782H16.33c.196-2.151.782-4.106 1.76-6.062l5.475-9.581c3.129-5.475 8.799-8.799 15.056-8.799h47.71c6.062 0 11.928 2.542 15.838 7.039l9.386 10.559.196.195c.977.587 2.15 1.173 3.324 1.173 1.173.196 4.497.391 8.212.587 5.475.391 12.319.978 15.838 1.369 1.956.196 3.129.782 3.716 1.76.977 1.564.391 4.106-.196 7.235z" fill="url(#A)"/><use xlink:href="#H" fill="url(#B)"/><path d="M128.957 70.887c-.195-.196-.391-.587-.586-.782-1.369-1.76-3.52-2.933-5.866-2.933s-4.498 1.173-5.866 2.933c-.196.195-.391.587-.587.782s-.195.587-.391.782c-.391.978-.782 1.955-.782 3.129s.391 2.346.782 3.324c.196.196.196.587.391.782s.391.587.587.782c1.368 1.76 3.519 2.737 5.866 2.737s4.497-1.173 5.866-2.737c.195-.195.391-.391.586-.782.196-.196.196-.587.391-.782.392-.978.783-2.151.783-3.324s-.196-2.151-.783-3.129c0-.391-.195-.587-.391-.782zm-1.368 7.235c-.196.196-.391.587-.587.782l-.782.782c-.978.782-2.347 1.173-3.715 1.173s-2.542-.391-3.715-1.173c-.391-.195-.587-.391-.783-.782-.195-.196-.391-.391-.586-.782-.587-.978-.978-2.151-.978-3.324s.391-2.151.978-3.129c.195-.196.391-.587.586-.782l.783-.782c.977-.782 2.346-1.369 3.715-1.369s2.737.587 3.715 1.369c.195.195.586.391.782.782.196.195.391.391.587.782.586.978.977 1.955.977 3.129s-.391 2.346-.977 3.324z" fill="url(#C)"/><path d="M47.813 70.887c-.196-.196-.391-.587-.587-.782-1.369-1.76-3.52-2.933-5.866-2.933s-4.497 1.173-5.866 2.933c-.196.195-.391.587-.587.782s-.196.587-.391.782c-.391.978-.782 1.955-.782 3.129s.391 2.346.782 3.324c.196.196.196.587.391.782s.391.587.587.782c1.369 1.76 3.52 2.737 5.866 2.737s4.497-1.173 5.866-2.737c.195-.195.391-.391.587-.782.196-.196.196-.587.391-.782.391-.978.782-2.151.782-3.324s-.196-2.151-.782-3.129c-.195-.391-.195-.587-.391-.782zm-1.369 7.235c-.195.196-.391.587-.587.782l-.782.782c-.978.782-2.346 1.173-3.715 1.173s-2.542-.391-3.715-1.173c-.391-.195-.587-.391-.782-.782-.196-.196-.391-.391-.587-.782-.587-.978-.978-2.151-.978-3.324s.391-2.151.978-3.129c.196-.196.391-.587.587-.782l.782-.782c.978-.782 2.346-1.369 3.715-1.369s2.738.587 3.715 1.369c.195.195.587.391.782.782.195.195.391.391.587.782.587.978.978 1.955.978 3.129s-.391 2.346-.978 3.324z" fill="url(#D)"/><use xlink:href="#H" x="-31.09" fill="url(#E)"/><path d="M141.081 56.621c-.391 0-.783.196-.978.587l-1.173 6.062c0 .391.195.782.586.978h.196c.391 0 .586-.195.782-.586l1.173-6.062c0-.391-.195-.782-.586-.978z" fill="url(#F)"/><path d="M98.65 40.776c-3.129-3.715-7.821-5.866-12.514-5.866H39.794c-4.888 0-9.19 2.542-11.732 6.844-1.369 2.346-1.369 5.279 0 7.626s3.911 3.911 6.648 3.911h62.767 5.671c1.173 0 1.955-.587 2.542-1.564.391-.978.391-2.151-.391-2.933l-6.648-8.017zm-63.94 10.95c-2.151 0-4.302-1.173-5.279-3.129-1.173-1.955-1.173-4.302 0-6.062 2.151-3.715 6.062-6.062 10.363-6.062h3.129l-2.737 15.056H34.71v.196zm6.844 0l2.737-14.861v-.391h21.9l2.151 15.252H41.554zm28.157 0L67.56 36.475h18.576c2.151 0 4.106.391 6.062 1.173l4.497 13.883H69.711v.196zm34.609-.587c-.195.391-.586.782-1.173.782h-5.084l-4.106-12.905c1.369.782 2.542 1.76 3.52 3.129l6.648 7.821c.391.196.391.587.195 1.173z" fill="url(#G)"/><defs><linearGradient id="A" x1="15" y1="88.096" x2="34.162" y2="-.53" xlink:href="#I"><stop stop-color="#5d3cf2"/><stop offset="1" stop-color="#fd5631"/></linearGradient><linearGradient id="B" x1="72.84" y1="58.373" x2="73.19" y2="55.881" xlink:href="#I"><stop stop-color="#5d3cf2"/><stop offset="1" stop-color="#fd5631"/></linearGradient><linearGradient id="C" x1="114.879" y1="82.424" x2="124.698" y2="62.477" xlink:href="#I"><stop stop-color="#5d3cf2"/><stop offset="1" stop-color="#fd5631"/></linearGradient><linearGradient id="D" x1="33.734" y1="82.424" x2="43.554" y2="62.477" xlink:href="#I"><stop stop-color="#5d3cf2"/><stop offset="1" stop-color="#fd5631"/></linearGradient><linearGradient id="E" x1="72.84" y1="58.373" x2="73.191" y2="55.881" xlink:href="#I"><stop stop-color="#5d3cf2"/><stop offset="1" stop-color="#fd5631"/></linearGradient><linearGradient id="F" x1="138.93" y1="64.246" x2="144.828" y2="59.945" xlink:href="#I"><stop stop-color="#5d3cf2"/><stop offset="1" stop-color="#fd5631"/></linearGradient><linearGradient id="G" x1="27.035" y1="53.291" x2="30.415" y2="23.814" xlink:href="#I"><stop stop-color="#5d3cf2"/><stop offset="1" stop-color="#fd5631"/></linearGradient><path id="H" d="M77.533 56.809h-3.911c-.391 0-.782.391-.782.782s.391.782.782.782h3.911c.391 0 .782-.391.782-.782s-.391-.782-.782-.782z"/><linearGradient id="I" gradientUnits="userSpaceOnUse"/></defs></svg>