<svg xmlns="http://www.w3.org/2000/svg" width="32" height="32" fill="none" xmlns:v="https://vecta.io/nano"><g fill-rule="evenodd"><path d="M6.667 8c-.736 0-1.333.597-1.333 1.333v13.333c0 .736.597 1.333 1.333 1.333h18.667c.736 0 1.333-.597 1.333-1.333V9.333c0-.736-.597-1.333-1.333-1.333H6.667zm-4 1.333a4 4 0 0 1 4-4h18.667a4 4 0 0 1 4 4v13.333a4 4 0 0 1-4 4H6.667a4 4 0 0 1-4-4V9.333z" fill="url(#A)"/><path d="M2.891 8.593c.408-.613 1.236-.778 1.849-.37L16 15.731l11.26-7.507c.613-.408 1.441-.243 1.849.37s.243 1.441-.37 1.849l-12 8c-.448.299-1.031.299-1.479 0l-12-8c-.613-.409-.778-1.236-.37-1.849z" fill="url(#A)"/></g><defs><linearGradient id="A" x1="2.667" y1="26.666" x2="14.484" y2="-3.342" gradientUnits="userSpaceOnUse"><stop stop-color="#5d3cf2"/><stop offset="1" stop-color="#fd5631"/></linearGradient></defs></svg>