<svg xmlns="http://www.w3.org/2000/svg" width="40" height="40" fill="none" xmlns:v="https://vecta.io/nano"><g fill-rule="evenodd"><path d="M8.334 6.667c.92 0 1.667.746 1.667 1.667V35c0 .921-.746 1.667-1.667 1.667S6.667 35.92 6.667 35V8.333c0-.92.746-1.667 1.667-1.667z" fill="url(#A)"/><path d="M31.667 6.667c.921 0 1.667.746 1.667 1.667v15c0 .92-.746 1.667-1.667 1.667S30 24.254 30 23.333v-15c0-.92.746-1.667 1.667-1.667z" fill="url(#A)"/><path d="M14.167 7.618c-1.745 0-3.421.684-4.667 1.906-.657.644-1.713.634-2.357-.024s-.634-1.713.024-2.357a10 10 0 0 1 14 0c1.246 1.222 2.922 1.906 4.667 1.906s3.42-.684 4.667-1.906c.657-.644 1.713-.634 2.357.024s.634 1.713-.023 2.357a10 10 0 0 1-14 0c-1.246-1.222-2.922-1.906-4.667-1.906z" fill="url(#A)"/><path d="M14.167 22.618c-1.745 0-3.421.684-4.667 1.906-.657.644-1.713.634-2.357-.024s-.634-1.713.024-2.357a10 10 0 0 1 14 0c1.246 1.221 2.922 1.906 4.667 1.906s3.42-.684 4.667-1.906c.657-.644 1.713-.634 2.357.024s.634 1.713-.023 2.357a10 10 0 0 1-14 0c-1.246-1.221-2.922-1.906-4.667-1.906z" fill="url(#A)"/></g><defs><linearGradient id="A" x1="6.667" y1="36.667" x2="29.838" y2="-2.096" gradientUnits="userSpaceOnUse"><stop stop-color="#5d3cf2"/><stop offset="1" stop-color="#fd5631"/></linearGradient></defs></svg>