<svg xmlns="http://www.w3.org/2000/svg" width="56" height="56" fill="none" xmlns:v="https://vecta.io/nano"><g clip-path="url(#B)"><path d="M55.772 23.883l-9.373-12.176a1.1 1.1 0 0 0-1.459-.256L38.888 15.3h-7.893a1.09 1.09 0 0 0-.302.05l-6.12 1.761-6.35-1.737-6.17-3.924a1.1 1.1 0 0 0-1.444.237L.243 24.529a1.1 1.1 0 0 0 .138 1.522l5.434 4.676 4.875 6.569c-1.426 1.519-1.398 3.914.085 5.398.658.657 1.494 1.028 2.354 1.115-.03.195-.045.393-.045.593 0 1.036.404 2.011 1.137 2.744s1.708 1.137 2.744 1.137l.041-.001-.002.079c0 1.037.404 2.011 1.137 2.744s1.708 1.136 2.744 1.136c.205 0 .407-.017.606-.047a3.86 3.86 0 0 0 1.116 2.363c.756.757 1.75 1.135 2.744 1.135a3.87 3.87 0 0 0 2.744-1.135l.593-.593.249.201c.75.727 1.724 1.09 2.698 1.09.994 0 1.988-.378 2.744-1.135a3.87 3.87 0 0 0 1.134-2.805c1.014.015 2.033-.362 2.805-1.134a3.87 3.87 0 0 0 1.134-2.803 3.86 3.86 0 0 0 2.804-1.136 3.87 3.87 0 0 0 1.134-2.805 3.87 3.87 0 0 0 2.805-1.134c1.318-1.318 1.487-3.354.51-4.858l3.559-7.455 5.351-4.605a1.1 1.1 0 0 0 .154-1.502zM11.703 13.83l4.437 2.821-9.651 11.758-3.867-3.329 9.082-11.25zm.626 24.929l1.339-1.339.127-.115a1.68 1.68 0 0 1 .915-.371l.029-.001.144-.006c.459.006.885.194 1.201.528.62.656.587 1.727-.074 2.389l-1.298 1.298c-.657.657-1.725.657-2.382 0s-.657-1.726 0-2.382zm3.445 6.834a1.67 1.67 0 0 1-.493-1.191c0-.45.175-.873.493-1.191l2.596-2.596c.497-.497 1.279-.634 1.915-.331a1.68 1.68 0 0 1 .928 1.739 1.78 1.78 0 0 1-.502 1.015l-2.555 2.555c-.318.318-.741.493-1.191.493s-.873-.175-1.191-.493zm3.92 3.958a1.67 1.67 0 0 1-.493-1.191c0-.45.175-.873.493-1.191l2.596-2.596c.532-.532 1.385-.646 2.036-.267.595.346.906 1.025.804 1.702a1.78 1.78 0 0 1-.499.988l-2.555 2.555c-.318.318-.741.493-1.191.493s-.873-.175-1.191-.493zm4.466 3.452c-.657-.657-.657-1.725 0-2.382l1.339-1.339.127-.114.003-.003a1.68 1.68 0 0 1 .747-.347l.162-.022.058-.003.118-.004c.458.006.885.193 1.201.528.039.041.075.084.108.128.505.66.437 1.641-.19 2.268l-1.292 1.292c-.657.657-1.725.656-2.382-.001zm20.484-12.255c-.657.657-1.725.657-2.382 0a1.02 1.02 0 0 0-.075-.067l-7.061-7.135a1.1 1.1 0 0 0-1.553-.008 1.1 1.1 0 0 0-.008 1.553l7.137 7.212.003.002a1.69 1.69 0 0 1 0 2.382c-.318.318-.741.493-1.191.493a1.67 1.67 0 0 1-1.191-.493l-4.774-4.824a1.1 1.1 0 0 0-1.553-.008 1.1 1.1 0 0 0-.008 1.553l4.701 4.75a1.02 1.02 0 0 0 .077.086 1.69 1.69 0 0 1 0 2.382 1.69 1.69 0 0 1-2.383-.001l-2.606-2.633a1.1 1.1 0 0 0-1.553-.008 1.1 1.1 0 0 0-.008 1.553l2.533 2.559c.024.03.05.059.077.086.657.657.657 1.726 0 2.382s-1.725.657-2.382 0c-.076-.076-.165-.134-.249-.199-.072-.055-.091-.093-.055-.18s.091-.168.127-.257a3.75 3.75 0 0 0 .104-.304 3.96 3.96 0 0 0 .142-1.689c-.145-1.081-.74-2.056-1.64-2.672-.487-.333-1.05-.551-1.633-.633.283-1.248-.057-2.6-.94-3.534a3.85 3.85 0 0 0-2.766-1.214c-.038 0-.077 0-.116 0 .023-1.008-.343-2.01-1.038-2.745-.728-.768-1.71-1.199-2.766-1.214-.314-.004-.631.029-.937.099a3.85 3.85 0 0 0-3.765-3.295 3.89 3.89 0 0 0-2.651.997l-4.245-5.719 10.155-12.371 3.236.885-4.227 7.458c-.511.902-.64 1.949-.364 2.948s.925 1.831 1.827 2.342l.171.091a4 4 0 0 0 .479.202c.736.255 1.531.283 2.298.071.999-.276 1.83-.925 2.341-1.827l2.747-4.847 4.904.348 13.06 13.059a1.69 1.69 0 0 1 0 2.382zm.455-5.033L32.848 23.465c-.023-.023-.047-.046-.073-.067a1.1 1.1 0 0 0-.626-.252l-6.005-.426c-.415-.029-.828.192-1.033.554l-3.088 5.45c-.222.391-.583.673-1.016.793s-.888.064-1.28-.158-.673-.583-.793-1.016a1.67 1.67 0 0 1 .158-1.28l4.123-7.276 1.671-.481.033-.011 6.235-1.8h7.533l9.404 11.955-2.992 6.265zm4.43-7.989l-8.697-11.062 4.439-2.823 8.127 10.556-3.868 3.329z" fill="url(#A)"/><path d="M33.926 13.237c.281 0 .562-.107.777-.322l7.501-7.501a1.1 1.1 0 0 0 0-1.553 1.1 1.1 0 0 0-1.553 0l-7.501 7.501a1.1 1.1 0 0 0 0 1.553c.214.214.496.322.776.322z" fill="url(#A)"/><path d="M21.297 12.915c.214.214.496.322.777.322s.562-.107.776-.322a1.1 1.1 0 0 0 0-1.553l-7.501-7.501a1.1 1.1 0 0 0-1.553 0 1.1 1.1 0 0 0 0 1.553l7.501 7.501z" fill="url(#A)"/><path d="M28 13.237a1.1 1.1 0 0 0 1.098-1.098V5.932A1.1 1.1 0 0 0 28 4.834a1.1 1.1 0 0 0-1.098 1.098v6.207A1.1 1.1 0 0 0 28 13.237z" fill="url(#A)"/><path d="M26.987 1.953c.174.423.609.7 1.067.676a1.11 1.11 0 0 0 .991-.761c.141-.435-.012-.93-.376-1.207a1.11 1.11 0 0 0-1.277-.042c-.433.286-.601.856-.404 1.333z" fill="url(#A)"/></g><defs><linearGradient id="A" x1="0" y1="55.692" x2="35.282" y2="-16.947" gradientUnits="userSpaceOnUse"><stop stop-color="#5d3cf2"/><stop offset="1" stop-color="#fd5631"/></linearGradient><clipPath id="B"><path fill="#fff" d="M0 0h56v56H0z"/></clipPath></defs></svg>