<svg xmlns="http://www.w3.org/2000/svg" width="32" height="32" fill="none" xmlns:v="https://vecta.io/nano"><g fill-rule="evenodd"><path d="M16 12c-1.473 0-2.667 1.194-2.667 2.667s1.194 2.667 2.667 2.667 2.667-1.194 2.667-2.667S17.473 12 16 12zm-5.333 2.667c0-2.946 2.388-5.333 5.333-5.333s5.333 2.388 5.333 5.333S18.946 20 16 20s-5.333-2.388-5.333-5.333z" fill="url(#A)"/><path d="M16 5.334c-1.846 0-3.65.547-5.185 1.573S8.084 9.39 7.377 11.095s-.891 3.582-.531 5.393 1.249 3.474 2.554 4.779l5.658 5.657c.25.25.589.39.942.39s.692-.14.942-.39l5.657-5.657c1.305-1.305 2.194-2.968 2.554-4.779s.175-3.687-.531-5.392-1.903-3.163-3.437-4.189S17.846 5.334 16 5.334zm8.485 17.818a12 12 0 0 0 2.601-13.077A12 12 0 0 0 16 2.667a12 12 0 0 0-11.086 7.408 12 12 0 0 0 2.601 13.078l5.659 5.657a4 4 0 0 0 5.654 0l5.658-5.658z" fill="url(#A)"/></g><defs><linearGradient id="A" x1="4" y1="29.98" x2="22.923" y2="-3.797" gradientUnits="userSpaceOnUse"><stop stop-color="#5d3cf2"/><stop offset="1" stop-color="#fd5631"/></linearGradient></defs></svg>