<svg xmlns="http://www.w3.org/2000/svg" xmlns:xlink="http://www.w3.org/1999/xlink" width="160" height="96" fill="none" xmlns:v="https://vecta.io/nano"><path d="M143.844 52.209l-4.835-1.741c-5.609-2.128-11.218-4.448-16.634-7.156l-14.699-7.156C98.006 31.514 87.368 29 76.731 29H20.449c-2.321 0-4.448.967-6.189 2.514-5.029 5.029-5.415 16.44-5.222 20.888v10.444c0 8.317 6.576 14.892 14.893 14.892h1.547c2.128 4.448 6.576 7.736 11.798 7.736s9.864-3.095 11.798-7.736h63.052c2.127 4.448 6.576 7.736 11.798 7.736s9.864-3.095 11.798-7.736h.386c8.124 0 14.893-6.769 14.893-14.892 0-4.642-2.901-8.897-7.156-10.638zM23.737 76.385c-3.288 0-6.382-1.354-8.703-3.288h9.284c0 1.16.193 2.321.58 3.288h-1.16zm24.95-3.481c0 1.16-.193 2.321-.58 3.288-.194.58-.387.967-.58 1.547-1.934 3.675-5.802 6.189-10.251 6.189s-8.317-2.514-10.057-6.189c-.193-.387-.387-.967-.58-1.547-.387-.967-.58-2.128-.58-3.288v-.387c0-.387 0-.774.194-.967.58-5.802 5.415-10.444 11.411-10.444s10.831 4.642 11.411 10.444c0 .387.193.774.193.967-.387.193-.387.193-.58.387zm1.16 3.481c.387-1.16.58-2.128.58-3.288h60.537c0 1.16.194 2.321.58 3.288H49.847zm85.68-3.481c0 1.16-.193 2.321-.58 3.288-.193.58-.387.967-.58 1.547-1.934 3.675-5.802 6.189-10.057 6.189-4.449 0-8.317-2.514-10.251-6.189-.194-.387-.387-.967-.58-1.547-.387-.967-.581-2.128-.581-3.288v-.387c0-.387 0-.774.194-.967.58-5.802 5.415-10.444 11.411-10.444s10.831 4.642 11.411 10.444c0 .387.193.774.193.967-.58.193-.58.193-.58.387zm.967 3.481c.387-1.16.581-2.128.581-3.288h8.123c-2.515 1.934-5.416 3.095-8.704 3.288zm10.058-4.835h-9.477c-.581-6.769-6.19-11.991-12.959-11.991s-12.378 5.222-12.958 11.991H50.427c-.58-6.769-6.189-11.991-12.958-11.991S25.091 64.781 24.51 71.55H13.873c-1.934-2.321-3.094-5.415-3.094-8.703v-1.934h3.868c.387 0 .774-.387.774-.774s-.387-.774-.774-.774h-3.868v-2.321h6.576c.387 0 .774-.387.774-.774s-.387-.774-.774-.774h-6.963v-3.288c0-4.448.193-15.279 4.835-19.921 1.354-1.547 3.095-2.128 5.029-2.128h56.282c10.444 0 20.888 2.514 30.366 6.963l14.699 7.156c5.415 2.708 11.218 5.029 16.826 7.156l4.836 1.741c2.127.774 3.674 2.321 4.835 4.255h-6.769c-.387 0-.774.387-.774.774s.387.774.774.774h7.542c.387 1.16.581 2.321.581 3.481.193 3.675-.967 6.576-2.901 9.09z" fill="url(#A)"/><path d="M123.922 64.977c-3.675 0-6.769 2.708-7.35 6.382 0 .387-.193.774-.193.967v.387c0 1.16.387 2.321.967 3.288.387.58.774.967 1.16 1.547 1.354 1.354 3.288 2.128 5.222 2.128 2.128 0 3.869-.774 5.223-2.128.386-.387.773-.967 1.16-1.547.58-.967.967-2.127.967-3.288v-.387c0-.387 0-.774-.193-.967 0-3.481-3.095-6.382-6.963-6.382zm5.996 7.93a4.67 4.67 0 0 1-1.354 3.288c-.581.58-1.161 1.16-1.934 1.547s-1.741.774-2.708.774-1.934-.193-2.708-.774c-.773-.387-1.354-.967-1.934-1.547-.774-.967-1.354-2.127-1.354-3.288v-.387c0-.387 0-.774.194-.967.58-2.708 2.901-4.835 5.802-4.835s5.415 2.128 5.802 4.835c0 .387.194.774.194.967v.387z" fill="url(#B)"/><use xlink:href="#F" fill="url(#C)"/><use xlink:href="#F" x="-35.203" fill="url(#C)"/><path d="M37.274 64.977c-3.675 0-6.769 2.708-7.35 6.382 0 .387-.193.774-.193.967v.387c0 1.16.387 2.321.967 3.288.387.58.774.967 1.16 1.547 1.354 1.354 3.288 2.128 5.222 2.128 2.128 0 3.868-.774 5.222-2.128.387-.387.774-.967 1.16-1.547.58-.967.967-2.127.967-3.288v-.387c0-.387 0-.774-.193-.967 0-3.481-3.094-6.382-6.963-6.382zm5.996 7.93c0 1.354-.58 2.514-1.354 3.288-.58.58-1.16 1.16-1.934 1.547s-1.741.774-2.708.774-1.934-.193-2.708-.774c-.774-.387-1.354-.967-1.934-1.547-.774-.967-1.354-2.127-1.354-3.288v-.387c0-.387 0-.774.194-.967.58-2.708 2.901-4.835 5.802-4.835s5.415 2.128 5.802 4.835c0 .387.193.774.193.967v.387z" fill="url(#D)"/><path d="M125.081 49.693l-16.053-8.51c-4.061-2.127-7.349-3.675-10.444-4.642-7.736-2.514-15.666-3.868-23.789-3.868H23.348c-5.029 0-9.09 4.255-9.09 9.477 0 5.802 4.448 10.444 10.057 10.444h99.993c.773 0 1.354-.387 1.547-1.16.193-.58-.193-1.354-.774-1.741zM24.122 51.24c-4.642-.194-8.317-4.062-8.317-8.897 0-4.448 3.481-7.93 7.736-7.93h.58V51.24zm15.473 0H25.476V34.22h14.119v17.02zm4.255 0h-2.708V34.22h2.708v17.02zm34.427 0H45.203V34.22h29.592c1.16 0 2.321 0 3.481.193V51.24zm1.547 0V34.414c6.189.387 12.378 1.547 18.374 3.675 3.094.967 6.382 2.514 10.25 4.642l16.053 8.51H79.824z" fill="url(#E)"/><defs><linearGradient id="A" x1="9" y1="85.476" x2="26.302" y2="-2.897" xlink:href="#G"><stop stop-color="#5d3cf2"/><stop offset="1" stop-color="#fd5631"/></linearGradient><linearGradient id="B" x1="116.379" y1="79.676" x2="125.842" y2="60.452" xlink:href="#G"><stop stop-color="#5d3cf2"/><stop offset="1" stop-color="#fd5631"/></linearGradient><linearGradient id="C" x1="81.375" y1="55.692" x2="81.722" y2="53.227" xlink:href="#G"><stop stop-color="#5d3cf2"/><stop offset="1" stop-color="#fd5631"/></linearGradient><linearGradient id="D" x1="29.731" y1="79.676" x2="39.194" y2="60.452" xlink:href="#G"><stop stop-color="#5d3cf2"/><stop offset="1" stop-color="#fd5631"/></linearGradient><linearGradient id="E" x1="14.258" y1="52.594" x2="17.079" y2="20.474" xlink:href="#G"><stop stop-color="#5d3cf2"/><stop offset="1" stop-color="#fd5631"/></linearGradient><path id="F" d="M86.017 54.145h-3.868c-.387 0-.774.387-.774.774s.387.774.774.774h3.868c.387 0 .774-.387.774-.774s-.387-.774-.774-.774z"/><linearGradient id="G" gradientUnits="userSpaceOnUse"/></defs></svg>