<svg xmlns="http://www.w3.org/2000/svg" xmlns:xlink="http://www.w3.org/1999/xlink" width="160" height="96" fill="none" xmlns:v="https://vecta.io/nano"><path d="M133.768 47.391L122 46.58c-1.826-.203-3.246-.812-4.464-2.232l-8.319-9.333C100.493 25.478 88.319 20 75.333 20h-4.058c-3.044 0-5.478 2.435-5.478 5.478v16.029H12.638c-.406 0-.812.406-.812.812s.406.812.812.812h4.261v4.058h-.609c-3.246 0-5.681 2.435-5.884 5.681L10 64.435a12.73 12.73 0 0 0 12.783 12.783h4.058c1.217 6.29 6.696 10.957 13.391 10.957 6.493 0 12.174-4.667 13.391-10.957h57.42c1.218 6.29 6.696 10.957 13.392 10.957s12.174-4.667 13.391-10.957c3.246-.203 6.29-1.623 8.522-4.058 2.435-2.435 3.652-5.681 3.652-9.13-.609-8.725-7.507-15.826-16.232-16.638zM59.71 43.333h5.884v1.623c0 1.42-1.014 2.435-2.435 2.435H59.71v-4.058zm-20.696 0h19.073v4.058H39.015v-4.058zm-20.696 0h19.072v4.058H18.319v-4.058zM11.42 59.159h4.261c.406 0 .812-.406.812-.811s-.406-.812-.812-.812H11.42l.203-4.464c.203-2.232 2.029-4.058 4.261-4.058h1.42H38h20.696 4.058a4.07 4.07 0 0 0 4.058-4.058V25.681a4.07 4.07 0 0 1 4.058-4.058h4.058c12.377 0 24.348 5.275 32.667 14.406l8.319 9.333c1.42 1.623 3.449 2.638 5.478 2.638l11.768.812c4.058.406 7.711 2.232 10.348 5.072h-8.116c-.406 0-.811.406-.811.812s.405.812.811.812h9.334c1.623 2.435 2.637 5.073 2.84 8.319h-15.826c-2.232-1.826-5.072-2.84-8.116-2.84s-5.884 1.014-8.116 2.84H47.739c-2.232-1.826-5.072-2.84-8.116-2.84s-5.884 1.014-8.116 2.84h-20.29l.203-4.667zm14.812 16.638h-3.855c-5.884 0-10.754-4.667-11.159-10.348h18.464c-2.232 2.435-3.652 5.681-3.652 9.333.203.203.203.609.203 1.014zm25.565 0v.812c0 .203 0 .609-.203.812-1.217 5.275-6.087 9.333-11.768 9.333s-10.551-4.058-11.768-9.333c0-.203 0-.609-.203-.812v-.812c0-.406-.203-.811-.203-1.217 0-3.855 1.826-7.102 4.464-9.333.406-.203.609-.609 1.014-.812s1.014-.609 1.42-.812c1.623-.812 3.246-1.217 5.072-1.217s3.652.406 5.073 1.217c.406.203 1.014.406 1.42.812.406.203.609.609 1.014.812 2.638 2.232 4.464 5.478 4.464 9.333.406.406.203.811.203 1.217zm58.841 0H53.623V74.58c0-3.652-1.42-6.899-3.652-9.333h64.319c-2.232 2.435-3.652 5.681-3.652 9.333a1.29 1.29 0 0 0 0 1.217zm25.362 0v.812c0 .203 0 .609-.203.812-1.217 5.275-6.087 9.333-11.768 9.333s-10.551-4.058-11.768-9.333c0-.203 0-.609-.203-.812v-.812c0-.406-.203-.811-.203-1.217 0-3.855 1.826-7.102 4.464-9.333.406-.203.609-.609 1.014-.812s1.015-.609 1.421-.812c1.623-.812 3.246-1.217 5.072-1.217s3.652.406 5.073 1.217c.405.203 1.014.406 1.42.812.406.203.609.609 1.014.812 2.638 2.232 4.464 5.478 4.464 9.333.406.406.406.811.203 1.217zm8.928-3.449c-1.827 2.029-4.464 3.043-7.102 3.449v-1.014c0-3.652-1.42-6.898-3.652-9.333h14c-.406 2.435-1.42 4.87-3.246 6.899z" fill="url(#A)"/><path d="M124.03 66.875c-4.261 0-7.913 3.449-7.913 7.913 0 .406 0 .811.203 1.217 0 .203 0 .609.203.812 0 .203.203.609.203.812 1.014 3.044 4.058 5.073 7.304 5.073 3.45 0 6.29-2.232 7.305-5.073 0-.203.203-.609.203-.812s.202-.609.202-.812c0-.406.203-.811.203-1.217 0-4.464-3.449-7.913-7.913-7.913zm6.29 8.928c0 .203-.203.609-.203.812s-.203.609-.406.812c-1.014 2.029-3.043 3.449-5.681 3.449-2.434 0-4.666-1.42-5.681-3.449-.203-.203-.203-.609-.406-.812 0-.203-.203-.609-.203-.812 0-.406-.202-.812-.202-1.217 0-3.449 2.84-6.29 6.289-6.29s6.29 2.841 6.29 6.29c.203.406.203.812.203 1.217z" fill="url(#B)"/><path d="M39.827 66.875c-4.261 0-7.913 3.449-7.913 7.913 0 .406 0 .811.203 1.217 0 .203 0 .609.203.812 0 .203.203.609.203.812 1.015 3.044 4.058 5.073 7.304 5.073 3.449 0 6.29-2.232 7.304-5.073 0-.203.203-.609.203-.812s.203-.609.203-.812c0-.406.203-.811.203-1.217 0-4.464-3.449-7.913-7.913-7.913zm6.29 8.928c0 .203-.203.609-.203.812s-.203.609-.406.812c-1.014 2.029-3.044 3.449-5.681 3.449-2.435 0-4.667-1.42-5.681-3.449-.203-.203-.203-.609-.406-.812 0-.203-.203-.609-.203-.812 0-.406-.203-.812-.203-1.217 0-3.449 2.841-6.29 6.29-6.29s6.29 2.841 6.29 6.29c.203.406.203.812.203 1.217z" fill="url(#C)"/><path d="M75.129 49.219l35.507-.203c.812 0 1.623-.609 2.029-1.42s.203-1.826-.406-2.435l-5.681-6.493c-7.71-8.928-18.667-13.797-30.435-13.797H73.1c-.812 0-1.623.812-1.623 1.623V45.77a3.36 3.36 0 0 0 1.014 2.435c1.014.609 1.826 1.014 2.638 1.014zm-1.826-22.928h3.043c11.159 0 21.913 4.87 29.218 13.391l5.681 6.493c.203.406.203.609.203.812 0 0-.203.406-.609.406l-35.507.203c-.609 0-1.014-.203-1.42-.609s-.609-.812-.609-1.42V26.291z" fill="url(#D)"/><path d="M80.405 54.285h-4.058c-.406 0-.812.406-.812.811s.406.812.812.812h4.058c.406 0 .812-.406.812-.812s-.406-.811-.812-.811z" fill="url(#E)"/><defs><linearGradient id="A" x1="10" y1="88.174" x2="35.11" y2="-16.574" xlink:href="#F"><stop stop-color="#5d3cf2"/><stop offset="1" stop-color="#fd5631"/></linearGradient><linearGradient id="B" x1="116.117" y1="82.701" x2="126.306" y2="62.003" xlink:href="#F"><stop stop-color="#5d3cf2"/><stop offset="1" stop-color="#fd5631"/></linearGradient><linearGradient id="C" x1="31.914" y1="82.701" x2="42.103" y2="62.003" xlink:href="#F"><stop stop-color="#5d3cf2"/><stop offset="1" stop-color="#fd5631"/></linearGradient><linearGradient id="D" x1="71.477" y1="49.219" x2="82.044" y2="12.719" xlink:href="#F"><stop stop-color="#5d3cf2"/><stop offset="1" stop-color="#fd5631"/></linearGradient><linearGradient id="E" x1="75.535" y1="55.908" x2="75.899" y2="53.322" xlink:href="#F"><stop stop-color="#5d3cf2"/><stop offset="1" stop-color="#fd5631"/></linearGradient><linearGradient id="F" gradientUnits="userSpaceOnUse"/></defs></svg>