<svg xmlns="http://www.w3.org/2000/svg" xmlns:xlink="http://www.w3.org/1999/xlink" width="160" height="96" fill="none" xmlns:v="https://vecta.io/nano"><path d="M133.317 52.601l-18.208-.714c-.893 0-1.964-.357-2.678-.714l-11.603-7.854C93.688 38.499 85.298 36 76.551 36h-16.78c-3.927 0-7.676 1.071-11.067 3.035l-17.137 9.818c-.357.178-.714.357-1.071.357l-4.82.178c-1.964 0-3.927.714-5.355 2.142S18 54.744 18 56.886v6.426c0 7.497 6.069 13.745 13.745 13.745h1.428c1.964 4.106 6.069 7.14 10.889 7.14s9.104-2.856 10.889-7.14h52.125c1.964 4.106 6.069 7.14 10.889 7.14s9.104-2.856 10.889-7.14h.357c7.498 0 13.745-6.069 13.745-13.745.536-6.069-3.927-10.532-9.639-10.711zM32.816 75.272h-.893c-4.82 0-9.104-2.856-11.068-6.962h12.139c-.357 1.071-.536 2.321-.536 3.57 0 1.071.179 2.321.357 3.392zm21.6 0c-.178.535-.357.893-.535 1.428-1.785 3.392-5.355 5.712-9.282 5.712s-7.676-2.321-9.461-5.712c-.179-.357-.357-.893-.535-1.428-.357-1.071-.714-2.321-.714-3.57s.178-2.499.714-3.57c.178-.535.357-.893.535-1.428 1.785-3.392 5.355-5.712 9.283-5.712s7.497 2.321 9.282 5.712c.178.357.357.893.536 1.428.357 1.071.714 2.321.714 3.57s-.178 2.499-.536 3.57zm52.66 0H55.844c.357-1.071.536-2.321.536-3.57s-.179-2.499-.536-3.57h51.232c-.357 1.071-.535 2.321-.535 3.57s.178 2.499.535 3.57zm21.421 0c-.178.535-.357.893-.535 1.428-1.785 3.392-5.356 5.712-9.283 5.712-4.106 0-7.676-2.321-9.282-5.712-.179-.357-.357-.893-.536-1.428-.357-1.071-.714-2.321-.714-3.57s.179-2.499.714-3.57c.179-.535.357-.893.536-1.428 1.785-3.392 5.355-5.712 9.282-5.712s7.498 2.321 9.283 5.712c.178.357.357.893.535 1.428.357 1.071.714 2.321.714 3.57-.178 1.25-.357 2.499-.714 3.57zm1.428 0c.357-1.071.536-2.321.536-3.57s-.179-2.499-.536-3.57h10.889a12.56 12.56 0 0 1-10.889 7.14zm-.535-8.39c-1.964-4.106-6.07-7.14-10.889-7.14s-9.104 2.856-10.889 7.14H55.308c-1.964-4.106-6.069-7.14-10.889-7.14s-9.104 2.856-10.889 7.14h-13.21c-.357-1.071-.535-2.142-.535-3.392h3.57a.77.77 0 0 0 .714-.714.77.77 0 0 0-.714-.714h-3.57V57.6h3.57a.77.77 0 0 0 .714-.714.77.77 0 0 0-.714-.714h-3.392c.178-1.428.714-2.856 1.785-3.927s2.678-1.607 4.106-1.607h.179l4.82-.178c.536 0 1.25-.178 1.785-.536l17.137-9.996c3.213-1.785 6.783-2.856 10.354-2.856h16.78c8.39 0 16.423 2.499 23.385 7.14l11.603 7.854a10.77 10.77 0 0 0 3.391 1.071l18.208.714c3.214.178 5.891 1.785 7.319 4.284h-6.962a.77.77 0 0 0-.714.714.77.77 0 0 0 .714.714h7.676c.357 1.071.714 2.142.714 3.392 0 1.428-.178 2.678-.714 3.927H129.39z" fill="url(#A)"/><path d="M77.443 40.106H62.092c-3.749 0-7.497 1.607-10.175 4.463a4.39 4.39 0 0 0-.893 4.82c.714 1.606 2.142 2.678 3.927 2.678l49.983 1.607c.357 0 .714-.178.714-.535v-.536l-4.463-3.749c-6.426-5.534-14.995-8.747-23.742-8.747zm-22.492 10.71c-1.25 0-2.321-.714-2.678-1.964-.535-1.071-.178-2.321.714-3.392 2.321-2.499 5.712-3.927 9.104-3.927h12.853l3.57 9.996-23.563-.714zm24.991.893s0-.178 0 0l-3.57-10.175h1.071c8.39 0 16.601 3.035 23.028 8.39l2.856 2.499-23.385-.714z" fill="url(#B)"/><path d="M123.321 66.882c-1.249-1.25-2.856-1.964-4.82-1.964s-3.57.714-4.819 1.964c-.357.357-.714.893-1.071 1.428-.714 1.071-1.071 2.321-1.071 3.57s.357 2.499 1.071 3.57c.357.535.714.892 1.071 1.428 1.249 1.249 3.034 1.964 4.819 1.964s3.571-.714 4.82-1.964c.357-.357.714-.893 1.071-1.428.536-1.071 1.071-2.142 1.071-3.57 0-1.25-.357-2.499-1.071-3.57-.357-.535-.714-1.071-1.071-1.428zm-.714 8.39c-.535.535-1.071 1.071-1.785 1.428s-1.607.714-2.499.714-1.785-.178-2.499-.714c-.714-.357-1.25-.893-1.785-1.428a5.75 5.75 0 0 1-1.25-3.57c0-1.428.536-2.499 1.25-3.57.535-.535 1.071-1.071 1.785-1.428s1.606-.535 2.499-.535 1.606.178 2.499.535c.714.357 1.25.893 1.785 1.428.893.893 1.25 2.142 1.25 3.57.178 1.428-.357 2.678-1.25 3.57z" fill="url(#C)"/><path d="M85.3 56.707h-3.57a.77.77 0 0 0-.714.714.77.77 0 0 0 .714.714h3.57a.77.77 0 0 0 .714-.714c0-.357-.178-.714-.714-.714z" fill="url(#D)"/><path d="M58.702 56.707h-3.57a.77.77 0 0 0-.714.714.77.77 0 0 0 .714.714h3.57a.77.77 0 0 0 .714-.714.77.77 0 0 0-.714-.714z" fill="url(#E)"/><path d="M49.24 66.882c-1.25-1.25-2.856-1.964-4.82-1.964-1.785 0-3.57.714-4.82 1.964-.357.357-.714.893-1.071 1.428-.714 1.071-1.071 2.321-1.071 3.57s.357 2.499 1.071 3.57c.357.535.714.892 1.071 1.428 1.25 1.249 3.035 1.964 4.82 1.964 1.964 0 3.57-.714 4.82-1.964.357-.357.714-.893 1.071-1.428.536-1.071 1.071-2.142 1.071-3.57 0-1.25-.357-2.499-1.071-3.57-.357-.535-.714-1.071-1.071-1.428zm-.714 8.39c-.536.535-1.071 1.071-1.785 1.428s-1.607.714-2.499.714-1.785-.178-2.499-.714c-.714-.357-1.249-.893-1.785-1.428a5.75 5.75 0 0 1-1.25-3.57c0-1.428.535-2.499 1.25-3.57.535-.535 1.071-1.071 1.785-1.428s1.607-.535 2.499-.535 1.607.178 2.499.535c.714.357 1.25.893 1.785 1.428.893.893 1.25 2.142 1.25 3.57.178 1.428-.357 2.678-1.25 3.57z" fill="url(#F)"/><defs><linearGradient id="A" x1="18" y1="84.198" x2="32.347" y2="8.611" xlink:href="#G"><stop stop-color="#5d3cf2"/><stop offset="1" stop-color="#fd5631"/></linearGradient><linearGradient id="B" x1="50.66" y1="53.672" x2="53.299" y2="31.95" xlink:href="#G"><stop stop-color="#5d3cf2"/><stop offset="1" stop-color="#fd5631"/></linearGradient><linearGradient id="C" x1="111.54" y1="78.842" x2="120.504" y2="60.632" xlink:href="#G"><stop stop-color="#5d3cf2"/><stop offset="1" stop-color="#fd5631"/></linearGradient><linearGradient id="D" x1="81.016" y1="58.135" x2="81.336" y2="55.86" xlink:href="#G"><stop stop-color="#5d3cf2"/><stop offset="1" stop-color="#fd5631"/></linearGradient><linearGradient id="E" x1="54.418" y1="58.135" x2="54.738" y2="55.86" xlink:href="#G"><stop stop-color="#5d3cf2"/><stop offset="1" stop-color="#fd5631"/></linearGradient><linearGradient id="F" x1="37.458" y1="78.842" x2="46.422" y2="60.632" xlink:href="#G"><stop stop-color="#5d3cf2"/><stop offset="1" stop-color="#fd5631"/></linearGradient><linearGradient id="G" gradientUnits="userSpaceOnUse"/></defs></svg>