<svg xmlns="http://www.w3.org/2000/svg" xmlns:xlink="http://www.w3.org/1999/xlink" width="160" height="96" fill="none" xmlns:v="https://vecta.io/nano"><path d="M133.466 51.597l-32.302-.535c-2.32 0-4.461-.714-6.424-2.142l-8.388-6.246C79.749 37.677 71.539 35 63.151 35c-7.317 0-14.634 2.142-20.88 6.068l-10.708 6.782c-.357.178-.714.357-1.071.357l-4.818.178c-2.142 0-3.926.714-5.354 2.142S18 53.739 18 55.88v6.425c0 7.496 6.068 13.742 13.742 13.742h1.428c1.963 4.105 6.068 7.139 10.886 7.139s9.102-2.855 10.886-7.139h52.112c1.963 4.105 6.067 7.139 10.886 7.139s9.102-2.855 10.886-7.139h.357c7.496 0 13.742-6.068 13.742-13.742.714-6.068-3.748-10.529-9.459-10.708zM32.991 74.262h-.892a12.34 12.34 0 0 1-11.065-6.96h12.136c-.357 1.071-.535 2.32-.535 3.569 0 1.071.178 2.141.357 3.391zm21.594 0c-.178.535-.357.892-.535 1.428-1.785 3.391-5.354 5.711-9.28 5.711-4.105 0-7.674-2.32-9.459-5.711-.178-.357-.357-.892-.535-1.428-.357-1.071-.714-2.32-.714-3.569s.178-2.499.714-3.569c.178-.535.357-.892.535-1.428 1.785-3.391 5.354-5.711 9.28-5.711s7.495 2.32 9.28 5.711c.178.357.357.892.535 1.428.357 1.071.714 2.32.714 3.569s-.178 2.32-.535 3.569zm52.647 0H56.013c.357-1.071.535-2.32.535-3.569s-.178-2.499-.535-3.569h51.219c-.357 1.071-.535 2.32-.535 3.569s.178 2.32.535 3.569zm21.416 0c-.179.535-.357.892-.536 1.428-1.784 3.391-5.354 5.711-9.28 5.711-4.104 0-7.674-2.32-9.28-5.711-.178-.357-.357-.892-.535-1.428-.357-1.071-.714-2.32-.714-3.569s.178-2.499.714-3.569c.178-.535.357-.892.535-1.428 1.785-3.391 5.354-5.711 9.28-5.711 4.105 0 7.496 2.32 9.28 5.711.179.357.357.892.536 1.428.357 1.071.714 2.32.714 3.569-.179 1.249-.357 2.32-.714 3.569zm1.427-.178c.357-1.071.536-2.32.536-3.569s-.179-2.498-.536-3.569h10.887c-1.963 4.283-6.068 7.139-10.887 7.139zm-.535-8.388c-1.963-4.105-6.068-7.139-10.886-7.139s-9.102 2.855-10.887 7.139h-52.29c-1.963-4.105-6.068-7.139-10.886-7.139s-9.102 2.855-10.886 7.139H20.499a10.39 10.39 0 0 1-.535-3.391h3.569a.77.77 0 0 0 .714-.714.77.77 0 0 0-.714-.714h-3.569v-4.462h3.569a.77.77 0 0 0 .714-.714.77.77 0 0 0-.714-.714h-3.391c.178-1.428.714-2.855 1.785-3.926s2.677-1.606 4.105-1.606h.178l4.819-.178c.535 0 1.249-.178 1.785-.535L43.52 41.96c6.068-3.748 13.028-5.889 19.988-5.889 8.031 0 15.883 2.677 22.308 7.317l8.388 6.246c2.142 1.606 4.64 2.32 7.139 2.499l32.302.535c3.212.178 5.889 1.785 7.317 4.283h-6.96a.77.77 0 0 0-.714.714.77.77 0 0 0 .714.714h7.674c.357 1.071.713 2.142.713 3.391 0 1.428-.178 2.677-.713 3.926H129.54z" fill="url(#A)"/><path d="M123.474 65.697c-1.249-1.249-2.855-1.963-4.819-1.963s-3.569.714-4.818 1.963c-.357.357-.714.892-1.071 1.428-.714 1.071-1.071 2.32-1.071 3.569s.357 2.498 1.071 3.569c.357.535.714.892 1.071 1.428 1.249 1.249 3.034 1.963 4.818 1.963s3.57-.714 4.819-1.963c.357-.357.714-.892 1.071-1.428.535-1.071 1.071-2.142 1.071-3.569 0-1.249-.357-2.499-1.071-3.569-.357-.535-.714-.892-1.071-1.428zm-.714 8.566c-.535.535-1.071 1.071-1.785 1.428s-1.606.714-2.498.714-1.785-.178-2.499-.714c-.713-.357-1.249-.892-1.784-1.428a5.75 5.75 0 0 1-1.249-3.569c0-1.428.535-2.499 1.249-3.569.535-.535 1.071-1.071 1.784-1.428s1.607-.535 2.499-.535 1.606.178 2.498.535c.714.357 1.25.892 1.785 1.428.892.892 1.249 2.142 1.249 3.569.179 1.249-.357 2.498-1.249 3.569z" fill="url(#B)"/><path d="M63.689 54.629H60.12a.77.77 0 0 0-.714.714.77.77 0 0 0 .714.714h3.569a.77.77 0 0 0 .714-.714.77.77 0 0 0-.714-.714z" fill="url(#C)"/><path d="M49.411 65.697c-1.249-1.249-2.855-1.963-4.818-1.963-1.785 0-3.569.714-4.818 1.963-.357.357-.714.892-1.071 1.428-.714 1.071-1.071 2.32-1.071 3.569s.357 2.498 1.071 3.569c.357.535.714.892 1.071 1.428 1.249 1.249 3.034 1.963 4.819 1.963 1.963 0 3.569-.714 4.819-1.963.357-.357.714-.892 1.071-1.428.535-1.071 1.071-2.142 1.071-3.569 0-1.249-.357-2.499-1.071-3.569-.357-.535-.714-.892-1.071-1.428zm-.714 8.566c-.535.535-1.071 1.071-1.785 1.428s-1.606.714-2.498.714-1.785-.178-2.498-.714c-.714-.357-1.249-.892-1.785-1.428a5.75 5.75 0 0 1-1.249-3.569c0-1.428.535-2.499 1.249-3.569.535-.535 1.071-1.071 1.785-1.428s1.606-.535 2.499-.535 1.606.178 2.498.535c.714.357 1.249.892 1.785 1.428.892.892 1.249 2.142 1.249 3.569.178 1.249-.357 2.498-1.249 3.569z" fill="url(#D)"/><path d="M84.747 45.353c-3.212-2.677-6.96-4.462-11.065-5.711s-8.209-1.606-12.493-1.249l-2.32.178c-3.926.357-7.674 1.963-10.708 4.64-1.428 1.249-1.785 3.034-1.249 4.819s2.142 2.855 3.926 3.034l38.37 1.963h.178c.714 0 1.249-.357 1.428-1.071s0-1.428-.535-1.785l-5.532-4.818zm-33.551 4.105c-1.606 0-2.498-1.071-2.677-2.142-.357-.892-.357-2.32.892-3.391 1.785-1.606 3.926-2.855 6.246-3.569l1.606 9.28-6.068-.178zm38.37 1.963l-31.053-1.606-1.785-9.637c.714-.178 1.606-.357 2.32-.357l2.32-.178c.892 0 1.785-.178 2.677-.178 3.212 0 6.246.535 9.28 1.428 3.926 1.249 7.496 3.034 10.529 5.532l5.889 4.64v.178l-.178.178z" fill="url(#E)"/><defs><linearGradient id="A" x1="18" y1="83.185" x2="32.34" y2="7.616" xlink:href="#F"><stop stop-color="#5d3cf2"/><stop offset="1" stop-color="#fd5631"/></linearGradient><linearGradient id="B" x1="111.695" y1="77.654" x2="120.657" y2="59.449" xlink:href="#F"><stop stop-color="#5d3cf2"/><stop offset="1" stop-color="#fd5631"/></linearGradient><linearGradient id="C" x1="59.406" y1="56.057" x2="59.726" y2="53.782" xlink:href="#F"><stop stop-color="#5d3cf2"/><stop offset="1" stop-color="#fd5631"/></linearGradient><linearGradient id="D" x1="37.633" y1="77.654" x2="46.595" y2="59.449" xlink:href="#F"><stop stop-color="#5d3cf2"/><stop offset="1" stop-color="#fd5631"/></linearGradient><linearGradient id="E" x1="46.676" y1="53.027" x2="50.517" y2="29.668" xlink:href="#F"><stop stop-color="#5d3cf2"/><stop offset="1" stop-color="#fd5631"/></linearGradient><linearGradient id="F" gradientUnits="userSpaceOnUse"/></defs></svg>