<svg xmlns="http://www.w3.org/2000/svg" width="48" height="48" fill="none" xmlns:v="https://vecta.io/nano"><g clip-path="url(#B)"><path d="M27.032 20.063c0-1.672-1.36-3.031-3.031-3.031s-3.031 1.36-3.031 3.031 1.36 3.031 3.031 3.031 3.031-1.36 3.031-3.031zm-4.187 0A1.16 1.16 0 0 1 24 18.907a1.16 1.16 0 0 1 1.156 1.156A1.16 1.16 0 0 1 24 21.22a1.16 1.16 0 0 1-1.156-1.156z" fill="url(#A)"/><path d="M47.927 33.789l-1.541-3.68.838-1.276c.693-1.056.898-2.36.562-3.578l-.779-2.823a5.24 5.24 0 0 0-2.199-3.004c-.174-.113-.378-.163-.582-.147-.441-9.232-7.152-17.095-16.283-18.898a.94.94 0 0 0-1.101.738.94.94 0 0 0 .738 1.101 18.41 18.41 0 0 1 14.794 18.026c0 .259-.007.52-.018.78l-1.957 1.046c.067-.605.101-1.216.101-1.826a16.53 16.53 0 0 0-.27-2.982c-.004-.026-.009-.053-.015-.078C38.775 9.548 32.053 3.749 24 3.749S9.219 9.553 7.784 17.198a.92.92 0 0 0-.013.066 16.53 16.53 0 0 0-.271 2.985 16.71 16.71 0 0 0 .101 1.826l-1.958-1.046c-.011-.259-.017-.52-.017-.78 0-8.764 6.232-16.347 14.817-18.031a.94.94 0 0 0 .739-1.1.94.94 0 0 0-1.1-.739C10.936 2.171 4.215 10.037 3.774 19.281c-.204-.016-.409.035-.582.147a5.24 5.24 0 0 0-2.199 3.004l-.779 2.823c-.336 1.218-.131 2.522.562 3.578l.838 1.276-1.541 3.68a.94.94 0 0 0 .503 1.227c.118.05.241.073.362.073a.94.94 0 0 0 .865-.576l1.434-3.424 4.078.86-3.538 14.895a.94.94 0 0 0 .913 1.154.94.94 0 0 0 .911-.721l3.234-13.614A20.29 20.29 0 0 0 24 40.498c3.225 0 6.433-.777 9.28-2.247 2.218-1.146 4.226-2.714 5.887-4.588L42.4 47.277a.94.94 0 0 0 .911.721c.072 0 .145-.008.217-.025a.94.94 0 0 0 .695-1.129l-3.538-14.895 4.078-.86 1.434 3.424a.94.94 0 0 0 .865.576c.121 0 .243-.023.362-.073a.94.94 0 0 0 .503-1.227zm-3.985-11.481a.94.94 0 0 0 .352-.328l.217-.345a3.37 3.37 0 0 1 .688 1.295l.779 2.823a2.52 2.52 0 0 1-.322 2.05l-.899 1.37-4.894 1.032-.867-.891a3.57 3.57 0 0 1-1.016-2.501v-2.261a.61.61 0 0 1 .457-.59l.221-.057a2.27 2.27 0 0 0 2.204.045l3.079-1.645zm-32.16 1.516h5.568a3.09 3.09 0 0 1 3.088 3.088v7.527c-3.556-.884-6.669-3.082-8.719-6.249.115-.444.175-.905.175-1.375v-2.261c0-.253-.04-.498-.112-.73zm5.568-1.875H9.473a14.83 14.83 0 0 1-.098-1.699c0-.707.051-1.402.149-2.082l9.519-2.297c3.243-.782 6.671-.782 9.914 0l9.519 2.297a14.69 14.69 0 0 1 .149 2.082c0 .568-.033 1.137-.098 1.699H30.65a4.97 4.97 0 0 0-4.963 4.963v7.865a14.86 14.86 0 0 1-1.687.097 14.86 14.86 0 0 1-1.687-.097v-7.865a4.97 4.97 0 0 0-4.963-4.963zm10.213 4.963a3.09 3.09 0 0 1 3.088-3.088h5.568a2.48 2.48 0 0 0-.112.73v2.261a5.48 5.48 0 0 0 .175 1.375c-2.05 3.167-5.163 5.365-8.719 6.249v-7.527zM24 5.624c6.635 0 12.251 4.441 14.034 10.507l-8.637-2.084c-3.53-.852-7.263-.852-10.793 0l-8.637 2.084C11.749 10.065 17.365 5.624 24 5.624zM2.022 25.754L2.8 22.93a3.37 3.37 0 0 1 .688-1.296l.217.345a.94.94 0 0 0 .352.327l3.079 1.645a2.27 2.27 0 0 0 2.204-.045l.221.057a.61.61 0 0 1 .457.59v2.261a3.57 3.57 0 0 1-1.016 2.501l-.867.891-4.894-1.032-.899-1.37a2.52 2.52 0 0 1-.322-2.05zM24 38.624c-5.681 0-11.044-2.644-14.517-7.112l.864-.888a5.54 5.54 0 0 0 .433-.504c1.368 1.828 3.108 3.367 5.096 4.494 2.465 1.397 5.275 2.136 8.124 2.136s5.66-.739 8.125-2.136c1.988-1.127 3.728-2.666 5.095-4.493a5.53 5.53 0 0 0 .433.504l.865.889c-3.469 4.461-8.861 7.112-14.518 7.112z" fill="url(#A)"/><path d="M23.999 1.875h.023a.94.94 0 0 0 .938-.937.94.94 0 0 0-.937-.937h-.023a.94.94 0 0 0-.937.938.94.94 0 0 0 .938.938z" fill="url(#A)"/></g><defs><linearGradient id="A" x1="0" y1="47.999" x2="30.902" y2="-14.777" gradientUnits="userSpaceOnUse"><stop stop-color="#5d3cf2"/><stop offset="1" stop-color="#fd5631"/></linearGradient><clipPath id="B"><path fill="#fff" d="M0 0h48v48H0z"/></clipPath></defs></svg>