<svg xmlns="http://www.w3.org/2000/svg" xmlns:xlink="http://www.w3.org/1999/xlink" width="160" height="96" fill="none" xmlns:v="https://vecta.io/nano"><path d="M133.714 53.162l-22.525-2.725c-.364 0-.545-.182-.727-.363L97.565 34.996A11.32 11.32 0 0 0 88.845 31H40.162c-3.451 0-6.903 1.635-9.083 4.541L19.635 50.8A7.97 7.97 0 0 0 18 55.705v14.169c0 4.723 3.815 8.356 8.356 8.356h5.45c1.635 5.631 6.903 9.809 13.079 9.809s11.444-4.178 13.079-9.809h46.685c1.635 5.631 6.903 9.809 13.079 9.809s11.444-4.178 13.079-9.809h6.721c3.088 0 5.45-2.543 5.45-5.45v-8.538c.363-5.631-3.815-10.354-9.264-11.081zM31.261 74.234c0 .908 0 1.635.182 2.543h-5.086c-3.815 0-6.721-2.906-6.903-6.721h12.534c-.545 1.272-.727 2.725-.727 4.178zm25.795 2.543c0 .182-.182.545-.182.727s-.182.545-.182.727c-1.635 4.905-6.176 8.356-11.626 8.356s-9.991-3.451-11.626-8.356c0-.182-.182-.545-.182-.727s-.182-.545-.182-.727c-.182-.908-.182-1.635-.182-2.543 0-1.453.181-2.906.727-4.178 0-.182.182-.545.182-.727.182-.182.182-.545.363-.727 1.998-3.996 6.176-6.721 11.081-6.721 4.723 0 8.901 2.725 11.081 6.721.182.182.182.545.363.727s.182.545.182.727c.545 1.272.727 2.725.727 4.178-.363.908-.363 1.635-.545 2.543zm47.23-2.543c0 .908 0 1.635.181 2.543H58.509c.182-.908.182-1.635.182-2.543 0-1.453-.182-2.725-.545-4.178h46.867c-.545 1.272-.726 2.725-.726 4.178zm25.795 2.543c0 .182-.182.545-.182.727s-.182.545-.182.727c-1.635 4.905-6.176 8.356-11.626 8.356s-9.991-3.451-11.625-8.356c0-.182-.182-.545-.182-.727s-.182-.545-.182-.727c-.181-.908-.181-1.635-.181-2.543 0-1.453.181-2.906.726-4.178 0-.182.182-.545.182-.727.182-.182.181-.545.363-.727 1.998-3.996 6.176-6.721 11.081-6.721 4.723 0 8.901 2.725 11.081 6.721.182.182.182.545.363.727s.182.545.182.727c.545 1.272.727 2.725.727 4.178-.364.908-.364 1.635-.545 2.543zm11.807-4.178c0 2.18-1.816 3.996-3.996 3.996h-6.358c.181-.908.181-1.635.181-2.543 0-1.453-.181-2.725-.545-4.178h10.9v2.725h-.182zm0-3.996h-11.444c-2.18-4.905-6.903-8.174-12.534-8.174s-10.355 3.451-12.534 8.174H57.419c-2.18-4.905-6.903-8.174-12.534-8.174s-10.354 3.451-12.534 8.174H19.272v-4.723h3.996c.363 0 .727-.363.727-.727s-.363-.727-.727-.727h-3.996v-4.541h3.996c.363 0 .727-.363.727-.727s-.363-.727-.727-.727h-3.996v-.908c0-1.453.545-2.907 1.272-3.996l11.444-15.259c1.816-2.543 4.723-3.996 7.993-3.996h48.683c2.906 0 5.631 1.272 7.629 3.451L109.19 50.8c.364.545 1.09.908 1.635.908l22.525 2.725c3.088.363 5.632 2.18 7.085 4.723h-6.358c-.363 0-.727.363-.727.727s.364.727.727.727h7.084c.364 1.09.545 2.18.545 3.27v4.723h.182z" fill="url(#A)"/><path d="M124.086 69.326c-.182-.182-.363-.545-.545-.727-1.453-1.453-3.451-2.362-5.631-2.362s-4.178.908-5.631 2.362c-.182.182-.364.545-.545.727s-.364.545-.545.727c-.727 1.272-1.272 2.543-1.272 4.178 0 .908.182 1.817.545 2.543 0 .182.182.545.182.727.181.182.181.545.363.727 1.453 2.361 3.815 3.815 6.721 3.815s5.45-1.635 6.721-3.815c.182-.182.182-.545.364-.727s.181-.545.181-.727c.364-.727.545-1.635.545-2.543 0-1.453-.363-2.906-1.271-4.178.181-.182 0-.363-.182-.727zm-.182 7.448c-.181.182-.181.545-.363.727s-.363.545-.545.727c-1.09 1.453-2.906 2.543-5.086 2.543s-3.815-.908-5.086-2.543c-.182-.182-.364-.545-.545-.727s-.364-.545-.364-.727c-.363-.727-.545-1.635-.545-2.543 0-1.635.545-2.906 1.454-4.178.181-.182.363-.545.726-.727s.545-.545.908-.727c.909-.545 1.999-.908 3.27-.908a6.27 6.27 0 0 1 3.27.908c.363.182.727.363.908.727.182.182.545.363.727.727.908 1.09 1.453 2.543 1.453 4.178.363.908.182 1.635-.182 2.543z" fill="url(#B)"/><path d="M51.242 69.326c-.182-.182-.363-.545-.545-.727-1.453-1.453-3.451-2.362-5.631-2.362s-4.178.908-5.631 2.362c-.182.182-.363.545-.545.727s-.363.545-.545.727c-.727 1.272-1.272 2.543-1.272 4.178 0 .908.182 1.817.545 2.543 0 .182.182.545.182.727.182.182.182.545.363.727 1.453 2.361 3.815 3.815 6.721 3.815s5.45-1.635 6.721-3.815c.182-.182.182-.545.363-.727s.182-.545.182-.727c.363-.727.545-1.635.545-2.543 0-1.453-.363-2.906-1.271-4.178 0-.182 0-.363-.182-.727zm-.363 7.448c-.182.182-.182.545-.363.727s-.363.545-.545.727c-1.09 1.453-2.906 2.543-5.086 2.543s-3.815-.908-5.086-2.543c-.182-.182-.363-.545-.545-.727s-.363-.545-.363-.727c-.363-.727-.545-1.635-.545-2.543 0-1.635.545-2.906 1.453-4.178.182-.182.363-.545.727-.727s.545-.545.908-.727c.908-.545 1.998-.908 3.27-.908s2.361.363 3.27.908c.363.182.727.363.908.727.182.182.545.363.727.727.908 1.09 1.453 2.543 1.453 4.178.363.908.182 1.635-.182 2.543z" fill="url(#C)"/><use xlink:href="#G" fill="url(#D)"/><use xlink:href="#G" x="-25.25" fill="url(#E)"/><path d="M95.928 37.9c-1.635-2.18-4.36-3.451-7.085-3.451H44.338c-2.906 0-5.45 1.272-7.266 3.633l-7.629 10.173c-.545.727-.545 1.453-.182 2.18s1.09 1.09 1.817 1.09h71.39c.908 0 1.634-.545 1.998-1.272s.181-1.635-.182-2.18L95.928 37.9zM31.441 50.253c-.363 0-.545-.182-.727-.363s-.182-.545 0-.727l7.629-10.173c1.453-1.998 3.633-3.088 5.995-3.088h5.45l-3.633 14.351H31.441zm16.349 0l3.633-14.351h21.072l1.817 14.351H47.79zm27.793 0l-1.817-14.351h15.077c.545 0 1.09 0 1.453.182l5.45 14.169H75.583zm27.611-.363c-.181.182-.363.363-.726.363h-5.087l-5.268-13.624c1.09.545 1.998 1.272 2.725 2.18l8.175 10.354c.181.182.363.363.181.727z" fill="url(#F)"/><defs><linearGradient id="A" x1="18" y1="88.039" x2="37.818" y2="-.185" xlink:href="#H"><stop stop-color="#5d3cf2"/><stop offset="1" stop-color="#fd5631"/></linearGradient><linearGradient id="B" x1="109.917" y1="82.042" x2="120.163" y2="61.467" xlink:href="#H"><stop stop-color="#5d3cf2"/><stop offset="1" stop-color="#fd5631"/></linearGradient><linearGradient id="C" x1="37.073" y1="82.042" x2="47.32" y2="61.467" xlink:href="#H"><stop stop-color="#5d3cf2"/><stop offset="1" stop-color="#fd5631"/></linearGradient><linearGradient id="D" x1="77.219" y1="54.976" x2="77.544" y2="52.66" xlink:href="#H"><stop stop-color="#5d3cf2"/><stop offset="1" stop-color="#fd5631"/></linearGradient><linearGradient id="E" x1="77.219" y1="54.976" x2="77.545" y2="52.66" xlink:href="#H"><stop stop-color="#5d3cf2"/><stop offset="1" stop-color="#fd5631"/></linearGradient><linearGradient id="F" x1="29.008" y1="51.524" x2="32.053" y2="24.119" xlink:href="#H"><stop stop-color="#5d3cf2"/><stop offset="1" stop-color="#fd5631"/></linearGradient><path id="G" d="M81.579 53.523h-3.633c-.363 0-.727.363-.727.727s.363.727.727.727h3.633c.363 0 .727-.363.727-.727s-.363-.727-.727-.727z"/><linearGradient id="H" gradientUnits="userSpaceOnUse"/></defs></svg>