<svg xmlns="http://www.w3.org/2000/svg" width="56" height="56" fill="none" xmlns:v="https://vecta.io/nano"><g clip-path="url(#B)"><path d="M9.849 43.307c-.784 0-1.538.196-2.206.563A25.86 25.86 0 0 1 2.188 28C2.188 13.767 13.767 2.188 28 2.188a26.01 26.01 0 0 1 5.141.512c.591.12 1.169-.263 1.289-.855S34.166.675 33.574.555C31.751.187 29.876 0 28 0 20.521 0 13.489 2.913 8.201 8.201S0 20.521 0 28a28.05 28.05 0 0 0 6.025 17.353 4.56 4.56 0 0 0 .576 5.796 4.56 4.56 0 0 0 3.248 1.346c1.227 0 2.381-.478 3.248-1.346s1.345-2.021 1.345-3.248a4.56 4.56 0 0 0-1.345-3.248c-.868-.868-2.021-1.345-3.248-1.345zm1.701 6.295a2.39 2.39 0 0 1-1.701.705 2.39 2.39 0 0 1-2.406-2.406 2.39 2.39 0 0 1 2.406-2.406 2.39 2.39 0 0 1 2.406 2.406 2.39 2.39 0 0 1-.705 1.701z" fill="url(#A)"/><path d="M49.974 10.646c1.189-1.784.998-4.222-.575-5.795-.868-.867-2.021-1.345-3.248-1.345s-2.381.478-3.248 1.345-1.345 2.021-1.345 3.248.478 2.381 1.345 3.248 2.021 1.345 3.248 1.345c.784 0 1.538-.196 2.206-.563A25.86 25.86 0 0 1 53.813 28c0 14.233-11.579 25.813-25.812 25.813-1.713 0-3.427-.169-5.091-.502-.592-.118-1.169.266-1.287.858s.266 1.169.858 1.287A28.23 28.23 0 0 0 28 56c7.479 0 14.511-2.913 19.799-8.201S56 35.479 56 28c0-6.292-2.137-12.432-6.026-17.354zm-5.524-.845a2.39 2.39 0 0 1-.705-1.702 2.39 2.39 0 0 1 .705-1.701 2.39 2.39 0 0 1 3.403 0 2.41 2.41 0 0 1 0 3.403 2.39 2.39 0 0 1-3.403 0z" fill="url(#A)"/><path d="M23.487 46.813c0 .604.49 1.094 1.094 1.094h6.839c.604 0 1.094-.49 1.094-1.094v-2.12a17.13 17.13 0 0 0 4.105-1.701l1.497 1.497c.205.205.483.32.774.32s.568-.115.773-.321l4.834-4.837c.427-.427.427-1.12 0-1.547l-1.495-1.495c.744-1.292 1.314-2.667 1.701-4.105h2.112c.604 0 1.094-.49 1.094-1.094v-6.839c0-.604-.49-1.094-1.094-1.094h-2.113a17.13 17.13 0 0 0-1.701-4.105l1.487-1.487c.205-.205.321-.484.321-.774s-.116-.569-.321-.774l-4.838-4.834c-.427-.427-1.119-.427-1.547 0l-1.485 1.486c-1.292-.744-2.667-1.314-4.105-1.701V9.188c0-.604-.49-1.094-1.094-1.094H24.58c-.604 0-1.094.49-1.094 1.094v2.101c-1.438.387-2.813.957-4.105 1.701l-1.486-1.486c-.427-.427-1.119-.427-1.547 0l-4.837 4.834a1.09 1.09 0 0 0-.321.773c0 .29.115.569.32.774l1.487 1.487c-.744 1.292-1.314 2.666-1.701 4.105H9.19c-.604 0-1.094.49-1.094 1.093l-.004 6.839a1.09 1.09 0 0 0 .32.774c.205.205.483.321.774.321h2.112c.387 1.438.957 2.813 1.701 4.105l-1.495 1.495c-.427.427-.427 1.119 0 1.547l4.834 4.837c.205.205.483.321.773.321s.569-.115.774-.32l1.497-1.497c1.292.744 2.667 1.314 4.105 1.701v2.12zm-3.676-6.122c-.433-.28-1.002-.219-1.367.145l-1.332 1.332-3.288-3.29 1.33-1.331c.364-.364.425-.934.145-1.367a14.97 14.97 0 0 1-2.072-5c-.109-.504-.554-.864-1.069-.864H10.28l.003-4.651h1.876c.516 0 .961-.36 1.069-.864a14.97 14.97 0 0 1 2.072-5c.28-.433.219-1.002-.145-1.367l-1.322-1.322 3.29-3.288 1.321 1.321c.365.364.934.425 1.367.145 1.534-.992 3.216-1.689 5-2.072.504-.109.864-.554.864-1.069v-1.868h4.651v1.867c0 .516.36.961.864 1.069 1.783.383 3.465 1.08 5 2.072.433.28 1.002.22 1.367-.145l1.321-1.321 3.29 3.288-1.322 1.322c-.365.365-.425.934-.145 1.367a14.98 14.98 0 0 1 2.072 5c.108.504.554.864 1.069.864h1.88v4.651h-1.88c-.516 0-.961.36-1.069.864a14.97 14.97 0 0 1-2.072 5c-.28.433-.219 1.003.145 1.367l1.331 1.33-3.288 3.29-1.332-1.331c-.365-.365-.934-.425-1.367-.145a14.98 14.98 0 0 1-5 2.072c-.504.108-.864.554-.864 1.069v1.887h-4.651v-1.887c0-.515-.36-.961-.864-1.069-1.783-.383-3.465-1.08-5-2.072z" fill="url(#A)"/><path d="M37.038 28A9.05 9.05 0 0 0 28 18.963 9.05 9.05 0 0 0 18.963 28 9.05 9.05 0 0 0 28 37.038 9.05 9.05 0 0 0 37.038 28zM21.15 28A6.86 6.86 0 0 1 28 21.15 6.86 6.86 0 0 1 34.85 28 6.86 6.86 0 0 1 28 34.85 6.86 6.86 0 0 1 21.15 28z" fill="url(#A)"/><path d="M38.071 4.137a1.1 1.1 0 0 0 .773-.32c.203-.205.32-.487.32-.775s-.117-.569-.32-.773a1.1 1.1 0 0 0-1.546 0c-.204.205-.321.486-.321.773s.117.57.321.775a1.1 1.1 0 0 0 .773.32z" fill="url(#A)"/><path d="M17.977 51.883c-.288 0-.57.117-.773.32s-.32.486-.32.773a1.1 1.1 0 0 0 .32.773c.203.203.486.32.773.32a1.1 1.1 0 0 0 1.094-1.094c0-.287-.117-.57-.32-.773a1.1 1.1 0 0 0-.773-.32z" fill="url(#A)"/></g><defs><linearGradient id="A" x1="0" y1="56" x2="36.054" y2="-17.239" gradientUnits="userSpaceOnUse"><stop stop-color="#5d3cf2"/><stop offset="1" stop-color="#fd5631"/></linearGradient><clipPath id="B"><path fill="#fff" d="M0 0h56v56H0z"/></clipPath></defs></svg>