<svg xmlns="http://www.w3.org/2000/svg" xmlns:xlink="http://www.w3.org/1999/xlink" width="160" height="96" fill="none" xmlns:v="https://vecta.io/nano"><path d="M133.16 52.783l-18.211-.714c-.893 0-1.964-.357-2.678-.714l-13.748-9.284C92.631 38.143 85.846 36 78.883 36H34.962c-3.214 0-6.249 1.428-8.213 4.106l-7.499 9.82c-.893 1.071-1.25 2.5-1.25 3.928v9.284c0 7.499 6.07 13.748 13.748 13.748h1.428c1.964 4.106 6.071 7.142 10.891 7.142s9.106-2.857 10.891-7.142h52.135c1.964 4.106 6.07 7.142 10.891 7.142s9.106-2.857 10.891-7.142h.357c7.499 0 13.748-6.071 13.748-13.748.357-5.713-4.107-10.177-9.82-10.355zM32.819 75.458h-.893c-4.821 0-9.106-2.857-11.07-6.963h12.141c-.357 1.071-.536 2.321-.536 3.571-.179 1.071 0 2.321.357 3.392zm21.425 0c-.178.536-.357.893-.536 1.428-1.785 3.392-5.356 5.713-9.463 5.713s-7.677-2.321-9.284-5.713c-.179-.357-.357-.893-.536-1.428-.357-1.071-.714-2.321-.714-3.571s.179-2.5.714-3.571c.178-.536.357-.893.536-1.428 1.785-3.392 5.356-5.713 9.284-5.713 4.106 0 7.499 2.321 9.284 5.713.179.357.357.893.536 1.428.357 1.071.714 2.321.714 3.571s-.178 2.5-.536 3.571zm52.67 0H55.673c.357-1.071.536-2.321.536-3.571s-.179-2.5-.536-3.571h51.242c-.357 1.071-.535 2.321-.535 3.571s.178 2.5.535 3.571zm21.426 0c-.179.536-.358.893-.536 1.428-1.786 3.392-5.356 5.713-9.284 5.713-4.107 0-7.678-2.321-9.463-5.713-.179-.357-.357-.893-.536-1.428-.357-1.071-.714-2.321-.714-3.571s.179-2.5.714-3.571c.179-.536.357-.893.536-1.428 1.785-3.392 5.356-5.713 9.284-5.713 4.107 0 7.499 2.321 9.284 5.713.179.357.357.893.536 1.428.357 1.071.714 2.321.714 3.571s-.178 2.5-.535 3.571zm1.428 0c.357-1.071.535-2.321.535-3.571s-.178-2.5-.535-3.571h10.891c-1.964 4.107-6.071 6.963-10.891 7.142zm-.536-8.392c-1.964-4.106-6.07-7.142-10.891-7.142s-9.106 2.857-10.891 7.142H55.137c-1.964-4.106-6.07-7.142-10.891-7.142s-9.106 2.857-10.891 7.142H20.143c-.357-1.071-.536-2.142-.536-3.392h3.571a.77.77 0 0 0 .714-.714.77.77 0 0 0-.714-.714h-3.571v-4.464h3.571a.77.77 0 0 0 .714-.714.77.77 0 0 0-.714-.714h-3.571v-2.5a4.85 4.85 0 0 1 1.071-3.035l7.499-9.82c1.607-2.143 4.285-3.571 6.963-3.571h43.922c6.785 0 13.212 1.964 18.926 5.713l13.748 9.284c1.071.536 2.142.893 3.392 1.071l18.212.714c3.213.178 5.892 1.785 7.32 4.285h-6.963a.77.77 0 0 0-.714.714.77.77 0 0 0 .714.714h7.677c.357 1.071.714 2.143.714 3.392 0 1.428-.178 2.678-.714 3.928h-12.141v-.179z" fill="url(#A)"/><path d="M77.277 40.284l-41.779-.178c-2.5 0-4.642 1.25-6.071 3.214l-3.749 5.535c-.357.714-.536 1.428-.179 2.142s1.071 1.071 1.785 1.071l17.497.357h.179.178l59.276 1.428c.357 0 .714-.179.714-.536v-.536l-4.463-3.749c-6.071-5.535-14.641-8.749-23.389-8.749zM44.782 51.175l-17.14-.357c-.357 0-.536-.357-.536-.357 0-.179-.178-.357 0-.714l3.749-5.535c1.071-1.607 2.857-2.5 4.821-2.5h12.855l-3.749 9.463zm1.428.179l3.749-9.641 18.926.178 1.785 10.177-24.46-.714zm25.71.536l-1.785-10.177h6.963c8.391 0 16.604 3.035 23.032 8.392l2.857 2.5-31.066-.714z" fill="url(#B)"/><path d="M123.163 67.066c-1.25-1.25-2.857-1.964-4.821-1.964-1.785 0-3.571.714-4.821 1.964-.357.357-.714.893-1.071 1.428a6.44 6.44 0 0 0 0 7.142c.357.536.714.893 1.071 1.428 1.25 1.25 3.036 1.964 4.821 1.964 1.964 0 3.571-.714 4.821-1.964.357-.357.714-.893 1.071-1.428.536-1.071 1.071-2.142 1.071-3.571a6.44 6.44 0 0 0-1.071-3.571c-.357-.536-.714-1.071-1.071-1.428zm-.536 8.392c-.536.536-1.071 1.071-1.785 1.428s-1.607.714-2.5.714-1.785-.179-2.5-.714c-.714-.357-1.249-.893-1.785-1.428-.714-.893-1.25-2.143-1.25-3.571s.536-2.5 1.25-3.571c.536-.536 1.071-1.071 1.785-1.428s1.607-.536 2.5-.536 1.607.178 2.5.536c.714.357 1.249.893 1.785 1.428.893.893 1.25 2.143 1.25 3.571s-.536 2.678-1.25 3.571z" fill="url(#C)"/><path d="M85.312 56.89h-3.571a.77.77 0 0 0-.714.714.77.77 0 0 0 .714.714h3.571a.77.77 0 0 0 .714-.714.77.77 0 0 0-.714-.714z" fill="url(#D)"/><path d="M58.531 56.89H54.96a.77.77 0 0 0-.714.714.77.77 0 0 0 .714.714h3.571a.77.77 0 0 0 .714-.714.77.77 0 0 0-.714-.714z" fill="url(#E)"/><path d="M49.069 67.066c-1.25-1.25-2.857-1.964-4.821-1.964-1.785 0-3.571.714-4.821 1.964-.357.357-.714.893-1.071 1.428-.714 1.071-1.071 2.321-1.071 3.571s.357 2.5 1.071 3.571c.357.536.714.893 1.071 1.428 1.25 1.25 3.035 1.964 4.821 1.964 1.964 0 3.571-.714 4.821-1.964.357-.357.714-.893 1.071-1.428.536-1.071 1.071-2.142 1.071-3.571 0-1.25-.357-2.5-1.071-3.571-.357-.536-.714-1.071-1.071-1.428zm-.714 8.392c-.536.536-1.071 1.071-1.785 1.428s-1.607.714-2.499.714-1.785-.179-2.5-.714c-.714-.357-1.25-.893-1.785-1.428a5.75 5.75 0 0 1-1.25-3.571c0-1.428.536-2.5 1.25-3.571.536-.536 1.071-1.071 1.785-1.428s1.607-.536 2.5-.536 1.607.178 2.499.536c.714.357 1.25.893 1.785 1.428.893.893 1.25 2.143 1.25 3.571.178 1.428-.357 2.678-1.25 3.571z" fill="url(#F)"/><defs><linearGradient id="A" x1="18" y1="84.028" x2="32.25" y2="8.688" xlink:href="#G"><stop stop-color="#5d3cf2"/><stop offset="1" stop-color="#fd5631"/></linearGradient><linearGradient id="B" x1="25.305" y1="53.853" x2="27.185" y2="31.676" xlink:href="#G"><stop stop-color="#5d3cf2"/><stop offset="1" stop-color="#fd5631"/></linearGradient><linearGradient id="C" x1="111.379" y1="79.028" x2="120.345" y2="60.815" xlink:href="#G"><stop stop-color="#5d3cf2"/><stop offset="1" stop-color="#fd5631"/></linearGradient><linearGradient id="D" x1="81.027" y1="58.319" x2="81.347" y2="56.043" xlink:href="#G"><stop stop-color="#5d3cf2"/><stop offset="1" stop-color="#fd5631"/></linearGradient><linearGradient id="E" x1="54.246" y1="58.319" x2="54.566" y2="56.043" xlink:href="#G"><stop stop-color="#5d3cf2"/><stop offset="1" stop-color="#fd5631"/></linearGradient><linearGradient id="F" x1="37.285" y1="79.028" x2="46.251" y2="60.815" xlink:href="#G"><stop stop-color="#5d3cf2"/><stop offset="1" stop-color="#fd5631"/></linearGradient><linearGradient id="G" gradientUnits="userSpaceOnUse"/></defs></svg>