<svg xmlns="http://www.w3.org/2000/svg" width="120" height="120" fill="none" xmlns:v="https://vecta.io/nano"><g clip-path="url(#A)"><path d="M118.246 87.034c-10.721-2.779-20.647-8.537-31.765-9.728-2.183-.198-2.581 2.581-1.588 3.772 1.389 1.588 3.177 3.97 5.162 5.956-5.559.397-10.721 2.382-16.28 3.574-5.162 1.191-10.324.397-15.088-1.39 1.191-1.191 2.183-2.581 3.375-3.971 7.941-11.316 12.904-48.442-7.743-51.023-11.713-1.588-22.434 13.302-23.03 23.824-.794 13.897 7.544 25.611 18.861 32.559-4.765 3.176-10.522 4.765-16.677 5.161-12.904.596-22.037-7.941-26.405-19.456C-.873 55.269 5.877 26.482 28.51 18.342c.993-.397.993-1.985-.199-1.985-28.39.397-32.361 42.685-25.214 62.339 8.14 22.434 34.942 27.199 51.817 14.096 1.39.596 2.978 1.39 4.566 1.787C70.4 98.35 80.128 92.99 90.65 91.799c-1.39 2.581-2.779 5.36-4.765 7.743-1.39 1.787-.199 4.765 2.382 3.97 10.721-3.176 21.64-5.559 30.773-12.11 1.39-1.191 1.39-3.97-.794-4.368zm-63.927 0c-2.382-1.39-4.765-2.978-6.75-4.765-13.699-11.515-15.684-32.956 1.39-42.486 7.941-4.368 12.507 5.36 14.096 11.515 2.382 8.934.993 19.258-2.779 27.596-1.787 3.177-3.772 5.758-5.956 8.14zm42.883 2.581c.199 0 .397-.397.397-.596-.596-2.184-2.383-3.971-4.368-5.758 6.353 1.787 12.309 4.566 18.662 6.552-5.956 3.176-12.508 5.162-19.258 7.147 1.191-2.184 2.184-4.368 3.97-6.155.397-.397.596-.794.596-1.191z" fill="#fd5631"/></g><defs><clipPath id="A"><path fill="#fff" d="M0 0h120v120H0z"/></clipPath></defs></svg>