<svg xmlns="http://www.w3.org/2000/svg" width="80" height="80" fill="none" xmlns:v="https://vecta.io/nano"><g clip-path="url(#A)" fill="#fd5631"><path d="M4.286 8.598c0-.857 0-1.857-.286-2.715-.143-.857-1.715-.857-1.857 0S2 7.598 1.857 8.455v1.572c0 .286 0 .571.143.857l.429.429c-.286-.143-.286-.286-.143 0 .286.571 1.143.571 1.286 0v-.143c.286-.286.286-.572.286-1 .429-.429.429-1 .429-1.572zM1.858 20.314c0-.429-.571-.429-.714 0-.143 2.572-.857 5.144-.857 7.715 0 1.572 2.429 1.572 2.429 0 0-2.572-.571-5.144-.857-7.715zm.999 16.431c.143-.572-.714-1.143-1.143-.429-.571 1.286-1 2.572-1.143 4.001-.143 1.286-.429 2.572.143 3.715.286.571 1.143.571 1.429 0 .572-.857.429-1.858.429-2.857 0-1.572.143-3 .286-4.429zm-.285 19.574c-.571-1.429-1-2.715-1.143-4.143-.143-.857-1.429-.857-1.429 0l.143 3.715c.143 1.286.429 3 1.429 3.858.429.429 1.429.286 1.572-.429.286-1.143-.143-2-.572-3zm8.715 10.716c-.714-.571-1.857-.429-2.715-.714-1.143-.286-2-1-2.429-2.143-.286-.715-1.429-.143-1.143.429.429 1.429 1.286 2.429 2.429 3.143 1.143.572 2.858 1.286 4.001.429.286-.286.286-.857-.143-1.143zm14.145 1.571c-1.714-1.572-4.572-1.143-6.715-1-1 0-1 1.429 0 1.572 1 0 2 .143 3 .286s2.143.572 3.143.429c.571 0 1.143-.714.571-1.286zm15.431-.285c-2.429-1.429-5.858-1-8.429 0-1 .429-.572 1.857.429 1.571 2.572-.572 5.001 0 7.573.143 1 .143 1.286-1.286.428-1.714zm14.43-.715c-2.286-.714-4.858-.286-7.144-.143-1.143 0-1.143 1.715 0 1.715 2.286.143 5.001.571 7.144-.143.857-.143.857-1.143 0-1.429zm13.573-.571c-1-1-2.286-.571-3.572-.429a22.78 22.78 0 0 0-4.286.857c-1 .429-.715 2 .429 1.715 1.429-.429 2.858-.572 4.286-.572 1.143 0 2.143.286 3-.572.429-.143.429-.715.143-1zm10.002-1c-3.286-.857-5.572-3.572-8.716-4.858-1.143-.429-1.715 1.286-.857 2 2.143 1.429 4 3.429 6.287 4.858l-2.715 2.143c-1 .714-2.572 1-3.286 2-.429.572-.571 1.429 0 2 2.715 2.429 8.144-3.429 9.859-5.287 1-1 .572-2.571-.572-2.857z"/></g><defs><clipPath id="A"><path fill="#fff" d="M0 0h80v80H0z"/></clipPath></defs></svg>