<svg width="500" height="300" viewBox="0 0 500 300" fill="none" xmlns="http://www.w3.org/2000/svg">
<g clip-path="url(#clip0)">
<path d="M500 -7.62939e-06H0V300H500V-7.62939e-06Z" fill="#4571F8"/>
<path d="M518.3 8.09999L536.6 162.1C537.9 173 530.1 183 519.1 184.3L365.1 202.6C354.2 203.9 344.2 196.1 342.9 185.1L324.6 31.1C323.3 20.2 331.1 10.2 342.1 8.89999L496.1 -9.40001C507 -10.6 517 -2.80001 518.3 8.09999Z" fill="white"/>
<path d="M506.5 -17.5L491.9 136.9C490.9 147.9 481.1 155.9 470.2 154.9L315.8 140.3C304.8 139.3 296.8 129.5 297.8 118.6L312.4 -35.8C313.4 -46.8 323.2 -54.8 334.1 -53.8L488.5 -39.2C499.5 -38.2 507.5 -28.5 506.5 -17.5Z" fill="#8582FB"/>
<path d="M506.4 -20.1L434.9 117.5C429.8 127.3 417.8 131.1 408 126L270.4 54.5C260.6 49.4 256.8 37.4 261.9 27.6L333.4 -110C338.5 -119.8 350.5 -123.6 360.3 -118.5L497.9 -47C507.7 -41.9 511.5 -29.9 506.4 -20.1Z" fill="#46B5F9"/>
<path d="M62.1 224.4C80.9329 224.4 96.2 209.133 96.2 190.3C96.2 171.467 80.9329 156.2 62.1 156.2C43.2671 156.2 28 171.467 28 190.3C28 209.133 43.2671 224.4 62.1 224.4Z" fill="#46B5F9"/>
<path d="M93.7999 172.1L61.8999 208" stroke="#4571F8" stroke-width="5" stroke-miterlimit="10" stroke-linecap="round"/>
<path d="M93.7999 153.9L61.8999 189.9" stroke="#4571F8" stroke-width="5" stroke-miterlimit="10" stroke-linecap="round"/>
<path d="M93.7999 135.8L61.8999 171.7" stroke="#4571F8" stroke-width="5" stroke-miterlimit="10" stroke-linecap="round"/>
</g>
<defs>
<clipPath id="clip0">
<rect width="500" height="300" fill="white"/>
</clipPath>
</defs>
</svg>
