<svg width="500" height="300" viewBox="0 0 500 300" fill="none" xmlns="http://www.w3.org/2000/svg">
<g clip-path="url(#clip0)">
<path d="M500 0H0V300H500V0Z" fill="#287793"/>
<path opacity="0.2" d="M298.9 174.9V184.2C298.8 184.7 298.7 185.2 298.6 185.7C298.1 189.8 297.8 193.8 297.1 197.9C294.9 211 290.2 223.2 283.2 234.4C272.6 251.5 258.2 264.5 240.1 273.4C229.7 278.6 218.4 281.9 206.9 283.2C204.3 283.5 201.8 283.8 199.2 284H99.8C99.3 283.9 98.8 283.8 98.3 283.7C88.3 283.1 78.6 280.8 69.4 276.8C49.4 268 34.4 253.8 24.6 234.2C20.3 225.6 17.5 216.3 16.3 206.7C16 204.4 15.7 202 15.5 199.7V190.6C15.6 190.1 15.7 189.6 15.8 189.1C16.3 180.4 18.1 172 21.2 163.8C29.7 142 44.4 125.8 65.3 115.3C76.2 109.9 87.8 107 99.9 106.4C105.8 106.1 111.8 106.4 117.7 107.2C118.2 107.3 119 107 119.4 106.7C127.9 98 137.5 91 148.4 85.7C159 80.5 170.1 77.2 181.8 75.9C184.6 75.6 187.3 75.3 190.1 75H198.6C199.2 75.1 199.7 75.2 200.3 75.2C204.5 75.7 208.7 76 212.9 76.7C225.9 78.9 238 83.5 249.2 90.5C266.4 101.1 279.5 115.5 288.4 133.6C293.6 144 296.9 155.3 298.2 166.8C298.4 169.5 298.6 172.2 298.9 174.9ZM140.4 114.5C140.6 114.7 140.6 114.8 140.7 114.9C146.5 117.8 152.1 121.1 157.4 125C157.7 125.2 158.6 125.1 159 124.9C173.4 115.8 189.1 112.6 205.9 115.6C222.4 118.5 235.8 126.8 246 139.9C257.6 154.8 262 171.6 258.8 190.3C256.7 202.8 251.6 214.1 243.1 223.5C227.5 240.7 208 247.8 185 244.8C170.9 242.9 158.7 236.8 148.5 226.6C135.5 213.5 122.5 200.5 109.5 187.4C107.8 185.7 105.8 184.3 103.3 184C98.9 183.5 95 185.6 93.1 189.6C91.4 193.1 91.6 197 95.3 200.6C109.8 214.8 124.2 229.2 138.6 243.4C141.1 245.9 143.7 248.1 146.6 250.2C157.2 257.9 169.1 262.1 182 263.8C192.1 265.1 202.2 264.9 212.2 262.6C231.2 258.3 247 248.6 259.4 233.6C269.7 221.2 275.9 207 278 191C279.3 181.9 279 172.6 277.2 163.6C274.3 148.8 268.1 135.6 258.1 124.4C239 103 215 93.4 186.4 95.5C175.4 96.3 165 99.6 155.2 104.7C150 107.4 145 110.7 140.4 114.5ZM133.4 264.2C133 263.8 132.6 263.5 132.2 263.1C126.3 257.5 120.3 251.9 114.5 246.3C113.4 245.2 112.3 244.7 110.7 244.7C104.8 244.8 98.8 244.9 93 243.5C63.9 236.9 47.1 205.3 57.8 177.5C66.2 155.6 89.6 142.2 112.7 146.3C123 148.1 132.1 152.5 139.6 160.2C148.7 169.6 158 178.7 167.2 188C169.3 190.1 171.7 191.1 174.6 190.7C178.3 190.2 181.3 188.4 182.7 184.7C184 181.1 183.4 177.7 180.6 174.9C171 165.1 161.6 155.1 151.5 145.8C132.1 127.7 109.1 122.3 83.8 130C49.7 140.4 29.7 175.6 37.5 210.3C44.6 242 72.3 264.2 104.7 264.2C113.7 264.2 122.8 264.2 131.8 264.2C132.3 264.3 132.7 264.2 133.4 264.2Z" fill="#86D1F2"/>
<path opacity="0.4" d="M447 116.5C487 116.5 519.5 84 519.5 44C519.5 4 487 -28.5 447 -28.5C407 -28.5 374.5 4 374.5 44C374.5 84 407 116.5 447 116.5Z" stroke="#105E5E" stroke-width="3" stroke-miterlimit="10" stroke-linecap="round" stroke-linejoin="round"/>
<path opacity="0.3" d="M447 99.9C478 99.9 502.9 74.8 502.9 44C502.9 13 477.8 -11.9 447 -11.9C416 -11.9 391.1 13.2 391.1 44C391.1 75 416 99.9 447 99.9Z" fill="#105E5E"/>
<path opacity="0.35" d="M447 64.4C458.3 64.4 467.4 55.3 467.4 44C467.4 32.7 458.3 23.6 447 23.6C435.7 23.6 426.6 32.7 426.6 44C426.6 55.3 435.7 64.4 447 64.4Z" fill="#105E5E"/>
</g>
<defs>
<clipPath id="clip0">
<rect width="500" height="300" fill="white"/>
</clipPath>
</defs>
</svg>
