<svg width="500" height="300" viewBox="0 0 500 300" fill="none" xmlns="http://www.w3.org/2000/svg">
<g clip-path="url(#clip0)">
<path d="M500 0H0V300H500V0Z" fill="#326CB2"/>
<path opacity="0.8" d="M475 118C503.719 118 527 94.7188 527 66C527 37.2812 503.719 14 475 14C446.281 14 423 37.2812 423 66C423 94.7188 446.281 118 475 118Z" fill="#00EAFC"/>
<path opacity="0.7" d="M434.5 55C443.06 55 450 48.0604 450 39.5C450 30.9396 443.06 24 434.5 24C425.94 24 419 30.9396 419 39.5C419 48.0604 425.94 55 434.5 55Z" stroke="#377DFF" stroke-width="10" stroke-miterlimit="10"/>
<path d="M410 14C411.657 14 413 12.6569 413 11C413 9.34315 411.657 8 410 8C408.343 8 407 9.34315 407 11C407 12.6569 408.343 14 410 14Z" fill="#26BCB8"/>
<path opacity="0.7" d="M435.9 26.4C434.6 21.9 437.2 17.2 441.6 15.9C446.1 14.6 450.8 17.2 452.1 21.6C453.4 26.1 450.8 30.8 446.3 32.1C441.9 33.5 437.2 30.9 435.9 26.4Z" fill="#F4E800"/>
<g opacity="0.4">
<path opacity="0.4" d="M358.8 190.1C359.573 190.1 360.2 189.473 360.2 188.7C360.2 187.927 359.573 187.3 358.8 187.3C358.027 187.3 357.4 187.927 357.4 188.7C357.4 189.473 358.027 190.1 358.8 190.1Z" fill="#00EAFC"/>
<path opacity="0.4" d="M389.3 190.1C390.073 190.1 390.7 189.473 390.7 188.7C390.7 187.927 390.073 187.3 389.3 187.3C388.527 187.3 387.9 187.927 387.9 188.7C387.9 189.473 388.527 190.1 389.3 190.1Z" fill="#00EAFC"/>
<path opacity="0.4" d="M419.9 190.1C420.673 190.1 421.3 189.473 421.3 188.7C421.3 187.927 420.673 187.3 419.9 187.3C419.127 187.3 418.5 187.927 418.5 188.7C418.5 189.473 419.127 190.1 419.9 190.1Z" fill="#00EAFC"/>
<path opacity="0.4" d="M450.5 190.1C451.273 190.1 451.9 189.473 451.9 188.7C451.9 187.927 451.273 187.3 450.5 187.3C449.727 187.3 449.1 187.927 449.1 188.7C449.1 189.473 449.727 190.1 450.5 190.1Z" fill="#00EAFC"/>
<path opacity="0.4" d="M481.1 190.1C481.873 190.1 482.5 189.473 482.5 188.7C482.5 187.927 481.873 187.3 481.1 187.3C480.327 187.3 479.7 187.927 479.7 188.7C479.7 189.473 480.327 190.1 481.1 190.1Z" fill="#00EAFC"/>
<path opacity="0.4" d="M481.1 220.7C481.873 220.7 482.5 220.073 482.5 219.3C482.5 218.527 481.873 217.9 481.1 217.9C480.327 217.9 479.7 218.527 479.7 219.3C479.7 220.073 480.327 220.7 481.1 220.7Z" fill="#00EAFC"/>
<path opacity="0.4" d="M358.8 220.7C359.573 220.7 360.2 220.073 360.2 219.3C360.2 218.527 359.573 217.9 358.8 217.9C358.027 217.9 357.4 218.527 357.4 219.3C357.4 220.073 358.027 220.7 358.8 220.7Z" fill="#00EAFC"/>
<path opacity="0.4" d="M389.3 220.7C390.073 220.7 390.7 220.073 390.7 219.3C390.7 218.527 390.073 217.9 389.3 217.9C388.527 217.9 387.9 218.527 387.9 219.3C387.9 220.073 388.527 220.7 389.3 220.7Z" fill="#00EAFC"/>
<path opacity="0.4" d="M419.9 220.7C420.673 220.7 421.3 220.073 421.3 219.3C421.3 218.527 420.673 217.9 419.9 217.9C419.127 217.9 418.5 218.527 418.5 219.3C418.5 220.073 419.127 220.7 419.9 220.7Z" fill="#00EAFC"/>
<path opacity="0.4" d="M450.5 220.7C451.273 220.7 451.9 220.073 451.9 219.3C451.9 218.527 451.273 217.9 450.5 217.9C449.727 217.9 449.1 218.527 449.1 219.3C449.1 220.073 449.727 220.7 450.5 220.7Z" fill="#00EAFC"/>
<path opacity="0.4" d="M358.8 251.2C359.573 251.2 360.2 250.573 360.2 249.8C360.2 249.027 359.573 248.4 358.8 248.4C358.027 248.4 357.4 249.027 357.4 249.8C357.4 250.573 358.027 251.2 358.8 251.2Z" fill="#00EAFC"/>
<path opacity="0.4" d="M389.3 251.2C390.073 251.2 390.7 250.573 390.7 249.8C390.7 249.027 390.073 248.4 389.3 248.4C388.527 248.4 387.9 249.027 387.9 249.8C387.9 250.573 388.527 251.2 389.3 251.2Z" fill="#00EAFC"/>
<path opacity="0.4" d="M419.9 251.2C420.673 251.2 421.3 250.573 421.3 249.8C421.3 249.027 420.673 248.4 419.9 248.4C419.127 248.4 418.5 249.027 418.5 249.8C418.5 250.573 419.127 251.2 419.9 251.2Z" fill="#00EAFC"/>
<path opacity="0.4" d="M450.5 251.2C451.273 251.2 451.9 250.573 451.9 249.8C451.9 249.027 451.273 248.4 450.5 248.4C449.727 248.4 449.1 249.027 449.1 249.8C449.1 250.573 449.727 251.2 450.5 251.2Z" fill="#00EAFC"/>
<path opacity="0.4" d="M481.1 251.2C481.873 251.2 482.5 250.573 482.5 249.8C482.5 249.027 481.873 248.4 481.1 248.4C480.327 248.4 479.7 249.027 479.7 249.8C479.7 250.573 480.327 251.2 481.1 251.2Z" fill="#00EAFC"/>
<path opacity="0.4" d="M358.8 281.8C359.573 281.8 360.2 281.173 360.2 280.4C360.2 279.627 359.573 279 358.8 279C358.027 279 357.4 279.627 357.4 280.4C357.4 281.173 358.027 281.8 358.8 281.8Z" fill="#00EAFC"/>
<path opacity="0.4" d="M389.3 281.8C390.073 281.8 390.7 281.173 390.7 280.4C390.7 279.627 390.073 279 389.3 279C388.527 279 387.9 279.627 387.9 280.4C387.9 281.173 388.527 281.8 389.3 281.8Z" fill="#00EAFC"/>
<path opacity="0.4" d="M419.9 281.8C420.673 281.8 421.3 281.173 421.3 280.4C421.3 279.627 420.673 279 419.9 279C419.127 279 418.5 279.627 418.5 280.4C418.5 281.173 419.127 281.8 419.9 281.8Z" fill="#00EAFC"/>
<path opacity="0.4" d="M450.5 281.8C451.273 281.8 451.9 281.173 451.9 280.4C451.9 279.627 451.273 279 450.5 279C449.727 279 449.1 279.627 449.1 280.4C449.1 281.173 449.727 281.8 450.5 281.8Z" fill="#00EAFC"/>
<path opacity="0.4" d="M481.1 281.8C481.873 281.8 482.5 281.173 482.5 280.4C482.5 279.627 481.873 279 481.1 279C480.327 279 479.7 279.627 479.7 280.4C479.7 281.173 480.327 281.8 481.1 281.8Z" fill="#00EAFC"/>
</g>
<path opacity="0.1" d="M164.3 56C126.3 56 128.7 72.5 128.7 72.5V89.6H165V94.7H114.4C114.4 94.7 90.1 91.9 90.1 130.3C90.1 168.6 111.3 167.3 111.3 167.3H124V149.5C124 149.5 123.3 128.3 144.9 128.3C166.5 128.3 180.9 128.3 180.9 128.3C180.9 128.3 201.1 128.6 201.1 108.8C201.1 89 201.1 76 201.1 76C201.1 76 204 56 164.3 56ZM144.3 67.5C147.9 67.5 150.8 70.4 150.8 74C150.8 77.6 147.9 80.5 144.3 80.5C140.7 80.5 137.8 77.6 137.8 74C137.8 70.4 140.7 67.5 144.3 67.5Z" stroke="#00EAFC" stroke-width="3" stroke-miterlimit="10"/>
<path opacity="0.1" d="M165.4 204.8C203.4 204.8 201 188.3 201 188.3V171.2H164.8V166.1H215.4C215.4 166.1 239.7 168.9 239.7 130.5C239.7 92.2 218.5 93.5 218.5 93.5H205.8V111.3C205.8 111.3 206.5 132.5 184.9 132.5C163.3 132.5 148.9 132.5 148.9 132.5C148.9 132.5 128.7 132.2 128.7 152C128.7 171.8 128.7 184.8 128.7 184.8C128.7 184.8 125.7 204.8 165.4 204.8ZM185.3 193.4C181.7 193.4 178.8 190.5 178.8 186.9C178.8 183.3 181.7 180.4 185.3 180.4C188.9 180.4 191.8 183.3 191.8 186.9C191.9 190.5 188.9 193.4 185.3 193.4Z" fill="#00EAFC"/>
</g>
<defs>
<clipPath id="clip0">
<rect width="500" height="300" fill="white"/>
</clipPath>
</defs>
</svg>
