<svg width="600" height="338" viewBox="0 0 600 338" fill="none" xmlns="http://www.w3.org/2000/svg">
<g clip-path="url(#clip0)">
<path opacity="0.1" d="M600 0H0V337.5H600V0Z" fill="#065ABF"/>
<path opacity="0.2" d="M239.1 336.8L517.9 -11.7L818 280.5L812.8 312.7L736 417.5L238 337.9L239.1 336.8Z" fill="#48C0B6"/>
<path opacity="0.1" d="M630.3 349.4C669.623 349.4 701.5 324.238 701.5 293.2C701.5 262.162 669.623 237 630.3 237C590.977 237 559.1 262.162 559.1 293.2C559.1 324.238 590.977 349.4 630.3 349.4Z" fill="black"/>
<path opacity="0.1" d="M301.1 64.3C317.669 64.3 331.1 58.614 331.1 51.6C331.1 44.586 317.669 38.9 301.1 38.9C284.531 38.9 271.1 44.586 271.1 51.6C271.1 58.614 284.531 64.3 301.1 64.3Z" fill="black"/>
<path opacity="0.8" d="M569.5 271.3C606.282 271.3 636.1 241.482 636.1 204.7C636.1 167.918 606.282 138.1 569.5 138.1C532.718 138.1 502.9 167.918 502.9 204.7C502.9 241.482 532.718 271.3 569.5 271.3Z" fill="#FFCE00"/>
<path opacity="0.8" d="M283.8 57.0001C297.718 57.0001 309 45.7177 309 31.8001C309 17.8825 297.718 6.6001 283.8 6.6001C269.882 6.6001 258.6 17.8825 258.6 31.8001C258.6 45.7177 269.882 57.0001 283.8 57.0001Z" fill="#00DFFC"/>
</g>
<defs>
<clipPath id="clip0">
<rect width="600" height="337.5" fill="white"/>
</clipPath>
</defs>
</svg>
