<svg width="400" height="400" viewBox="0 0 400 400" fill="none" xmlns="http://www.w3.org/2000/svg">
<g clip-path="url(#clip0)">
<path d="M400 0H0V400H400V0Z" fill="#4571F8"/>
<path d="M468.3 58.1L486.6 212.1C487.9 223 480.1 233 469.1 234.3L315.1 252.6C304.2 253.9 294.2 246.1 292.9 235.1L274.6 81.1C273.3 70.2 281.1 60.2 292.1 58.9L446.1 40.6C457 39.4 467 47.2 468.3 58.1Z" fill="white"/>
<path d="M456.5 32.5L441.9 186.9C440.9 197.9 431.1 205.9 420.2 204.9L265.8 190.3C254.8 189.3 246.8 179.5 247.8 168.6L262.4 14.2C263.4 3.19999 273.2 -4.80001 284.1 -3.80001L438.5 10.8C449.5 11.8 457.5 21.5 456.5 32.5Z" fill="#8582FB"/>
<path d="M456.4 29.9L384.9 167.5C379.8 177.3 367.8 181.1 358 176L220.4 104.5C210.6 99.4 206.8 87.4 211.9 77.6L283.4 -60C288.5 -69.8 300.5 -73.6 310.3 -68.5L447.9 2.99999C457.7 8.09999 461.5 20.1 456.4 29.9Z" fill="#46B5F9"/>
<path d="M72.1 354.4C90.9329 354.4 106.2 339.133 106.2 320.3C106.2 301.467 90.9329 286.2 72.1 286.2C53.2671 286.2 38 301.467 38 320.3C38 339.133 53.2671 354.4 72.1 354.4Z" fill="#46B5F9"/>
<path d="M113.8 302.1L81.9 338" stroke="#4571F8" stroke-width="5" stroke-miterlimit="10" stroke-linecap="round"/>
<path d="M113.8 283.9L81.9 319.9" stroke="#4571F8" stroke-width="5" stroke-miterlimit="10" stroke-linecap="round"/>
<path d="M113.8 265.8L81.9 301.7" stroke="#4571F8" stroke-width="5" stroke-miterlimit="10" stroke-linecap="round"/>
</g>
<defs>
<clipPath id="clip0">
<rect width="400" height="400" fill="white"/>
</clipPath>
</defs>
</svg>
