<svg width="500" height="500" viewBox="0 0 500 500" fill="none" xmlns="http://www.w3.org/2000/svg">
<g clip-path="url(#clip0)">
<path d="M11.3 9.10004L486.6 484" stroke="#3170E5" stroke-width="4" stroke-miterlimit="10" stroke-linecap="round"/>
<path d="M-6.5 34.8L468.8 509.6" stroke="#3170E5" stroke-width="4" stroke-miterlimit="10" stroke-linecap="round"/>
<path d="M498.2 319.4L181.5 2.69995" stroke="#3170E5" stroke-width="4" stroke-miterlimit="10" stroke-linecap="round"/>
<path d="M526.8 299.6L210.1 -17.1" stroke="#3170E5" stroke-width="4" stroke-miterlimit="10" stroke-linecap="round"/>
<path d="M355.6 1L494.7 139.7" stroke="#3170E5" stroke-width="4" stroke-miterlimit="10" stroke-linecap="round"/>
<path d="M275.9 3.10004L492.6 219.4" stroke="#3170E5" stroke-width="4" stroke-miterlimit="10" stroke-linecap="round"/>
<path d="M294.6 -17.6L511.3 198.7" stroke="#3170E5" stroke-width="4" stroke-miterlimit="10" stroke-linecap="round"/>
<path d="M7.39999 181.1L313.3 487" stroke="#3170E5" stroke-width="4" stroke-miterlimit="10" stroke-linecap="round"/>
<path d="M-6.40002 216.6L299.5 522.5" stroke="#3170E5" stroke-width="4" stroke-miterlimit="10" stroke-linecap="round"/>
<path d="M3.09998 86.3L416.8 499.9" stroke="#3170E5" stroke-width="4" stroke-miterlimit="10" stroke-linecap="round"/>
<path d="M-12.7 116.8L401 530.5" stroke="#3170E5" stroke-width="4" stroke-miterlimit="10" stroke-linecap="round"/>
<path d="M93.6 0.0999756L498.6 405.1" stroke="#3170E5" stroke-width="4" stroke-miterlimit="10" stroke-linecap="round"/>
<path d="M115.3 -20.6L520.3 384.4" stroke="#3170E5" stroke-width="4" stroke-miterlimit="10" stroke-linecap="round"/>
<path d="M81.8 33.6L486.8 438.7" stroke="#3170E5" stroke-width="4" stroke-miterlimit="10" stroke-linecap="round"/>
<path d="M1.39999 350.8L144.4 494.3" stroke="#3170E5" stroke-width="4" stroke-miterlimit="10" stroke-linecap="round"/>
<path d="M3.5 275.4L219.8 492.2" stroke="#3170E5" stroke-width="4" stroke-miterlimit="10" stroke-linecap="round"/>
<path d="M-11.3 300.1L205 516.8" stroke="#3170E5" stroke-width="4" stroke-miterlimit="10" stroke-linecap="round"/>
</g>
<defs>
<clipPath id="clip0">
<rect width="500" height="500" rx="250" fill="white"/>
</clipPath>
</defs>
</svg>
