<svg width="638" height="1178" viewBox="0 0 638 1178" fill="none" xmlns="http://www.w3.org/2000/svg">
<path d="M4 8C6.20914 8 8 6.20914 8 4C8 1.79086 6.20914 0 4 0C1.79086 0 0 1.79086 0 4C0 6.20914 1.79086 8 4 8Z" fill="#71869D"/>
<path d="M94 8C96.2091 8 98 6.20914 98 4C98 1.79086 96.2091 0 94 0C91.7909 0 90 1.79086 90 4C90 6.20914 91.7909 8 94 8Z" fill="#71869D"/>
<path d="M184 8C186.209 8 188 6.20914 188 4C188 1.79086 186.209 0 184 0C181.791 0 180 1.79086 180 4C180 6.20914 181.791 8 184 8Z" fill="#71869D"/>
<path d="M274 8C276.209 8 278 6.20914 278 4C278 1.79086 276.209 0 274 0C271.791 0 270 1.79086 270 4C270 6.20914 271.791 8 274 8Z" fill="#71869D"/>
<path d="M364 8C366.209 8 368 6.20914 368 4C368 1.79086 366.209 0 364 0C361.791 0 360 1.79086 360 4C360 6.20914 361.791 8 364 8Z" fill="#71869D"/>
<path d="M454 8C456.209 8 458 6.20914 458 4C458 1.79086 456.209 0 454 0C451.791 0 450 1.79086 450 4C450 6.20914 451.791 8 454 8Z" fill="#71869D"/>
<path d="M4 98C6.20914 98 8 96.2091 8 94C8 91.7909 6.20914 90 4 90C1.79086 90 0 91.7909 0 94C0 96.2091 1.79086 98 4 98Z" fill="#71869D"/>
<path d="M94 98C96.2091 98 98 96.2091 98 94C98 91.7909 96.2091 90 94 90C91.7909 90 90 91.7909 90 94C90 96.2091 91.7909 98 94 98Z" fill="#71869D"/>
<path d="M184 98C186.209 98 188 96.2091 188 94C188 91.7909 186.209 90 184 90C181.791 90 180 91.7909 180 94C180 96.2091 181.791 98 184 98Z" fill="#71869D"/>
<path d="M274 98C276.209 98 278 96.2091 278 94C278 91.7909 276.209 90 274 90C271.791 90 270 91.7909 270 94C270 96.2091 271.791 98 274 98Z" fill="#71869D"/>
<path d="M364 98C366.209 98 368 96.2091 368 94C368 91.7909 366.209 90 364 90C361.791 90 360 91.7909 360 94C360 96.2091 361.791 98 364 98Z" fill="#71869D"/>
<path d="M454 98C456.209 98 458 96.2091 458 94C458 91.7909 456.209 90 454 90C451.791 90 450 91.7909 450 94C450 96.2091 451.791 98 454 98Z" fill="#71869D"/>
<path d="M4 188C6.20914 188 8 186.209 8 184C8 181.791 6.20914 180 4 180C1.79086 180 0 181.791 0 184C0 186.209 1.79086 188 4 188Z" fill="#71869D"/>
<path d="M94 188C96.2091 188 98 186.209 98 184C98 181.791 96.2091 180 94 180C91.7909 180 90 181.791 90 184C90 186.209 91.7909 188 94 188Z" fill="#71869D"/>
<path d="M184 188C186.209 188 188 186.209 188 184C188 181.791 186.209 180 184 180C181.791 180 180 181.791 180 184C180 186.209 181.791 188 184 188Z" fill="#71869D"/>
<path d="M274 188C276.209 188 278 186.209 278 184C278 181.791 276.209 180 274 180C271.791 180 270 181.791 270 184C270 186.209 271.791 188 274 188Z" fill="#71869D"/>
<path d="M364 188C366.209 188 368 186.209 368 184C368 181.791 366.209 180 364 180C361.791 180 360 181.791 360 184C360 186.209 361.791 188 364 188Z" fill="#71869D"/>
<path d="M454 188C456.209 188 458 186.209 458 184C458 181.791 456.209 180 454 180C451.791 180 450 181.791 450 184C450 186.209 451.791 188 454 188Z" fill="#71869D"/>
<path d="M4 278C6.20914 278 8 276.209 8 274C8 271.791 6.20914 270 4 270C1.79086 270 0 271.791 0 274C0 276.209 1.79086 278 4 278Z" fill="#71869D"/>
<path d="M94 278C96.2091 278 98 276.209 98 274C98 271.791 96.2091 270 94 270C91.7909 270 90 271.791 90 274C90 276.209 91.7909 278 94 278Z" fill="#71869D"/>
<path d="M184 278C186.209 278 188 276.209 188 274C188 271.791 186.209 270 184 270C181.791 270 180 271.791 180 274C180 276.209 181.791 278 184 278Z" fill="#71869D"/>
<path d="M274 278C276.209 278 278 276.209 278 274C278 271.791 276.209 270 274 270C271.791 270 270 271.791 270 274C270 276.209 271.791 278 274 278Z" fill="#71869D"/>
<path d="M364 278C366.209 278 368 276.209 368 274C368 271.791 366.209 270 364 270C361.791 270 360 271.791 360 274C360 276.209 361.791 278 364 278Z" fill="#71869D"/>
<path d="M454 278C456.209 278 458 276.209 458 274C458 271.791 456.209 270 454 270C451.791 270 450 271.791 450 274C450 276.209 451.791 278 454 278Z" fill="#71869D"/>
<path d="M4 368C6.20914 368 8 366.209 8 364C8 361.791 6.20914 360 4 360C1.79086 360 0 361.791 0 364C0 366.209 1.79086 368 4 368Z" fill="#71869D"/>
<path d="M94 368C96.2091 368 98 366.209 98 364C98 361.791 96.2091 360 94 360C91.7909 360 90 361.791 90 364C90 366.209 91.7909 368 94 368Z" fill="#71869D"/>
<path d="M184 368C186.209 368 188 366.209 188 364C188 361.791 186.209 360 184 360C181.791 360 180 361.791 180 364C180 366.209 181.791 368 184 368Z" fill="#71869D"/>
<path d="M274 368C276.209 368 278 366.209 278 364C278 361.791 276.209 360 274 360C271.791 360 270 361.791 270 364C270 366.209 271.791 368 274 368Z" fill="#71869D"/>
<path d="M364 368C366.209 368 368 366.209 368 364C368 361.791 366.209 360 364 360C361.791 360 360 361.791 360 364C360 366.209 361.791 368 364 368Z" fill="#71869D"/>
<path d="M454 368C456.209 368 458 366.209 458 364C458 361.791 456.209 360 454 360C451.791 360 450 361.791 450 364C450 366.209 451.791 368 454 368Z" fill="#71869D"/>
<path d="M4 458C6.20914 458 8 456.209 8 454C8 451.791 6.20914 450 4 450C1.79086 450 0 451.791 0 454C0 456.209 1.79086 458 4 458Z" fill="#71869D"/>
<path d="M94 458C96.2091 458 98 456.209 98 454C98 451.791 96.2091 450 94 450C91.7909 450 90 451.791 90 454C90 456.209 91.7909 458 94 458Z" fill="#71869D"/>
<path d="M184 458C186.209 458 188 456.209 188 454C188 451.791 186.209 450 184 450C181.791 450 180 451.791 180 454C180 456.209 181.791 458 184 458Z" fill="#71869D"/>
<path d="M274 458C276.209 458 278 456.209 278 454C278 451.791 276.209 450 274 450C271.791 450 270 451.791 270 454C270 456.209 271.791 458 274 458Z" fill="#71869D"/>
<path d="M364 458C366.209 458 368 456.209 368 454C368 451.791 366.209 450 364 450C361.791 450 360 451.791 360 454C360 456.209 361.791 458 364 458Z" fill="#71869D"/>
<path d="M454 458C456.209 458 458 456.209 458 454C458 451.791 456.209 450 454 450C451.791 450 450 451.791 450 454C450 456.209 451.791 458 454 458Z" fill="#71869D"/>
<path d="M4 548C6.20914 548 8 546.209 8 544C8 541.791 6.20914 540 4 540C1.79086 540 0 541.791 0 544C0 546.209 1.79086 548 4 548Z" fill="#71869D"/>
<path d="M94 548C96.2091 548 98 546.209 98 544C98 541.791 96.2091 540 94 540C91.7909 540 90 541.791 90 544C90 546.209 91.7909 548 94 548Z" fill="#71869D"/>
<path d="M184 548C186.209 548 188 546.209 188 544C188 541.791 186.209 540 184 540C181.791 540 180 541.791 180 544C180 546.209 181.791 548 184 548Z" fill="#71869D"/>
<path d="M274 548C276.209 548 278 546.209 278 544C278 541.791 276.209 540 274 540C271.791 540 270 541.791 270 544C270 546.209 271.791 548 274 548Z" fill="#71869D"/>
<path d="M364 548C366.209 548 368 546.209 368 544C368 541.791 366.209 540 364 540C361.791 540 360 541.791 360 544C360 546.209 361.791 548 364 548Z" fill="#71869D"/>
<path d="M454 548C456.209 548 458 546.209 458 544C458 541.791 456.209 540 454 540C451.791 540 450 541.791 450 544C450 546.209 451.791 548 454 548Z" fill="#71869D"/>
<path d="M4 638C6.20914 638 8 636.209 8 634C8 631.791 6.20914 630 4 630C1.79086 630 0 631.791 0 634C0 636.209 1.79086 638 4 638Z" fill="#71869D"/>
<path d="M94 638C96.2091 638 98 636.209 98 634C98 631.791 96.2091 630 94 630C91.7909 630 90 631.791 90 634C90 636.209 91.7909 638 94 638Z" fill="#71869D"/>
<path d="M184 638C186.209 638 188 636.209 188 634C188 631.791 186.209 630 184 630C181.791 630 180 631.791 180 634C180 636.209 181.791 638 184 638Z" fill="#71869D"/>
<path d="M274 638C276.209 638 278 636.209 278 634C278 631.791 276.209 630 274 630C271.791 630 270 631.791 270 634C270 636.209 271.791 638 274 638Z" fill="#71869D"/>
<path d="M364 638C366.209 638 368 636.209 368 634C368 631.791 366.209 630 364 630C361.791 630 360 631.791 360 634C360 636.209 361.791 638 364 638Z" fill="#71869D"/>
<path d="M454 638C456.209 638 458 636.209 458 634C458 631.791 456.209 630 454 630C451.791 630 450 631.791 450 634C450 636.209 451.791 638 454 638Z" fill="#71869D"/>
<path d="M4 728C6.20914 728 8 726.209 8 724C8 721.791 6.20914 720 4 720C1.79086 720 0 721.791 0 724C0 726.209 1.79086 728 4 728Z" fill="#71869D"/>
<path d="M94 728C96.2091 728 98 726.209 98 724C98 721.791 96.2091 720 94 720C91.7909 720 90 721.791 90 724C90 726.209 91.7909 728 94 728Z" fill="#71869D"/>
<path d="M184 728C186.209 728 188 726.209 188 724C188 721.791 186.209 720 184 720C181.791 720 180 721.791 180 724C180 726.209 181.791 728 184 728Z" fill="#71869D"/>
<path d="M274 728C276.209 728 278 726.209 278 724C278 721.791 276.209 720 274 720C271.791 720 270 721.791 270 724C270 726.209 271.791 728 274 728Z" fill="#71869D"/>
<path d="M364 728C366.209 728 368 726.209 368 724C368 721.791 366.209 720 364 720C361.791 720 360 721.791 360 724C360 726.209 361.791 728 364 728Z" fill="#71869D"/>
<path d="M454 728C456.209 728 458 726.209 458 724C458 721.791 456.209 720 454 720C451.791 720 450 721.791 450 724C450 726.209 451.791 728 454 728Z" fill="#71869D"/>
<path d="M4 818C6.20914 818 8 816.209 8 814C8 811.791 6.20914 810 4 810C1.79086 810 0 811.791 0 814C0 816.209 1.79086 818 4 818Z" fill="#71869D"/>
<path d="M94 818C96.2091 818 98 816.209 98 814C98 811.791 96.2091 810 94 810C91.7909 810 90 811.791 90 814C90 816.209 91.7909 818 94 818Z" fill="#71869D"/>
<path d="M184 818C186.209 818 188 816.209 188 814C188 811.791 186.209 810 184 810C181.791 810 180 811.791 180 814C180 816.209 181.791 818 184 818Z" fill="#71869D"/>
<path d="M274 818C276.209 818 278 816.209 278 814C278 811.791 276.209 810 274 810C271.791 810 270 811.791 270 814C270 816.209 271.791 818 274 818Z" fill="#71869D"/>
<path d="M364 818C366.209 818 368 816.209 368 814C368 811.791 366.209 810 364 810C361.791 810 360 811.791 360 814C360 816.209 361.791 818 364 818Z" fill="#71869D"/>
<path d="M454 818C456.209 818 458 816.209 458 814C458 811.791 456.209 810 454 810C451.791 810 450 811.791 450 814C450 816.209 451.791 818 454 818Z" fill="#71869D"/>
<path d="M4 908C6.20914 908 8 906.209 8 904C8 901.791 6.20914 900 4 900C1.79086 900 0 901.791 0 904C0 906.209 1.79086 908 4 908Z" fill="#71869D"/>
<path d="M94 908C96.2091 908 98 906.209 98 904C98 901.791 96.2091 900 94 900C91.7909 900 90 901.791 90 904C90 906.209 91.7909 908 94 908Z" fill="#71869D"/>
<path d="M184 908C186.209 908 188 906.209 188 904C188 901.791 186.209 900 184 900C181.791 900 180 901.791 180 904C180 906.209 181.791 908 184 908Z" fill="#71869D"/>
<path d="M274 908C276.209 908 278 906.209 278 904C278 901.791 276.209 900 274 900C271.791 900 270 901.791 270 904C270 906.209 271.791 908 274 908Z" fill="#71869D"/>
<path d="M364 908C366.209 908 368 906.209 368 904C368 901.791 366.209 900 364 900C361.791 900 360 901.791 360 904C360 906.209 361.791 908 364 908Z" fill="#71869D"/>
<path d="M454 908C456.209 908 458 906.209 458 904C458 901.791 456.209 900 454 900C451.791 900 450 901.791 450 904C450 906.209 451.791 908 454 908Z" fill="#71869D"/>
<path d="M544 8C546.209 8 548 6.20914 548 4C548 1.79086 546.209 0 544 0C541.791 0 540 1.79086 540 4C540 6.20914 541.791 8 544 8Z" fill="#71869D"/>
<path d="M634 8C636.209 8 638 6.20914 638 4C638 1.79086 636.209 0 634 0C631.791 0 630 1.79086 630 4C630 6.20914 631.791 8 634 8Z" fill="#71869D"/>
<path d="M544 98C546.209 98 548 96.2091 548 94C548 91.7909 546.209 90 544 90C541.791 90 540 91.7909 540 94C540 96.2091 541.791 98 544 98Z" fill="#71869D"/>
<path d="M634 98C636.209 98 638 96.2091 638 94C638 91.7909 636.209 90 634 90C631.791 90 630 91.7909 630 94C630 96.2091 631.791 98 634 98Z" fill="#71869D"/>
<path d="M544 188C546.209 188 548 186.209 548 184C548 181.791 546.209 180 544 180C541.791 180 540 181.791 540 184C540 186.209 541.791 188 544 188Z" fill="#71869D"/>
<path d="M634 188C636.209 188 638 186.209 638 184C638 181.791 636.209 180 634 180C631.791 180 630 181.791 630 184C630 186.209 631.791 188 634 188Z" fill="#71869D"/>
<path d="M544 278C546.209 278 548 276.209 548 274C548 271.791 546.209 270 544 270C541.791 270 540 271.791 540 274C540 276.209 541.791 278 544 278Z" fill="#71869D"/>
<path d="M634 278C636.209 278 638 276.209 638 274C638 271.791 636.209 270 634 270C631.791 270 630 271.791 630 274C630 276.209 631.791 278 634 278Z" fill="#71869D"/>
<path d="M544 368C546.209 368 548 366.209 548 364C548 361.791 546.209 360 544 360C541.791 360 540 361.791 540 364C540 366.209 541.791 368 544 368Z" fill="#71869D"/>
<path d="M634 368C636.209 368 638 366.209 638 364C638 361.791 636.209 360 634 360C631.791 360 630 361.791 630 364C630 366.209 631.791 368 634 368Z" fill="#71869D"/>
<path d="M544 458C546.209 458 548 456.209 548 454C548 451.791 546.209 450 544 450C541.791 450 540 451.791 540 454C540 456.209 541.791 458 544 458Z" fill="#71869D"/>
<path d="M634 458C636.209 458 638 456.209 638 454C638 451.791 636.209 450 634 450C631.791 450 630 451.791 630 454C630 456.209 631.791 458 634 458Z" fill="#71869D"/>
<path d="M544 548C546.209 548 548 546.209 548 544C548 541.791 546.209 540 544 540C541.791 540 540 541.791 540 544C540 546.209 541.791 548 544 548Z" fill="#71869D"/>
<path d="M634 548C636.209 548 638 546.209 638 544C638 541.791 636.209 540 634 540C631.791 540 630 541.791 630 544C630 546.209 631.791 548 634 548Z" fill="#71869D"/>
<path d="M544 638C546.209 638 548 636.209 548 634C548 631.791 546.209 630 544 630C541.791 630 540 631.791 540 634C540 636.209 541.791 638 544 638Z" fill="#71869D"/>
<path d="M634 638C636.209 638 638 636.209 638 634C638 631.791 636.209 630 634 630C631.791 630 630 631.791 630 634C630 636.209 631.791 638 634 638Z" fill="#71869D"/>
<path d="M544 728C546.209 728 548 726.209 548 724C548 721.791 546.209 720 544 720C541.791 720 540 721.791 540 724C540 726.209 541.791 728 544 728Z" fill="#71869D"/>
<path d="M634 728C636.209 728 638 726.209 638 724C638 721.791 636.209 720 634 720C631.791 720 630 721.791 630 724C630 726.209 631.791 728 634 728Z" fill="#71869D"/>
<path d="M544 818C546.209 818 548 816.209 548 814C548 811.791 546.209 810 544 810C541.791 810 540 811.791 540 814C540 816.209 541.791 818 544 818Z" fill="#71869D"/>
<path d="M634 818C636.209 818 638 816.209 638 814C638 811.791 636.209 810 634 810C631.791 810 630 811.791 630 814C630 816.209 631.791 818 634 818Z" fill="#71869D"/>
<path d="M544 908C546.209 908 548 906.209 548 904C548 901.791 546.209 900 544 900C541.791 900 540 901.791 540 904C540 906.209 541.791 908 544 908Z" fill="#71869D"/>
<path d="M634 908C636.209 908 638 906.209 638 904C638 901.791 636.209 900 634 900C631.791 900 630 901.791 630 904C630 906.209 631.791 908 634 908Z" fill="#71869D"/>
<path d="M4 998C6.20914 998 8 996.209 8 994C8 991.791 6.20914 990 4 990C1.79086 990 0 991.791 0 994C0 996.209 1.79086 998 4 998Z" fill="#71869D"/>
<path d="M94 998C96.2091 998 98 996.209 98 994C98 991.791 96.2091 990 94 990C91.7909 990 90 991.791 90 994C90 996.209 91.7909 998 94 998Z" fill="#71869D"/>
<path d="M184 998C186.209 998 188 996.209 188 994C188 991.791 186.209 990 184 990C181.791 990 180 991.791 180 994C180 996.209 181.791 998 184 998Z" fill="#71869D"/>
<path d="M274 998C276.209 998 278 996.209 278 994C278 991.791 276.209 990 274 990C271.791 990 270 991.791 270 994C270 996.209 271.791 998 274 998Z" fill="#71869D"/>
<path d="M364 998C366.209 998 368 996.209 368 994C368 991.791 366.209 990 364 990C361.791 990 360 991.791 360 994C360 996.209 361.791 998 364 998Z" fill="#71869D"/>
<path d="M454 998C456.209 998 458 996.209 458 994C458 991.791 456.209 990 454 990C451.791 990 450 991.791 450 994C450 996.209 451.791 998 454 998Z" fill="#71869D"/>
<path d="M4 1088C6.20914 1088 8 1086.21 8 1084C8 1081.79 6.20914 1080 4 1080C1.79086 1080 0 1081.79 0 1084C0 1086.21 1.79086 1088 4 1088Z" fill="#71869D"/>
<path d="M94 1088C96.2091 1088 98 1086.21 98 1084C98 1081.79 96.2091 1080 94 1080C91.7909 1080 90 1081.79 90 1084C90 1086.21 91.7909 1088 94 1088Z" fill="#71869D"/>
<path d="M184 1088C186.209 1088 188 1086.21 188 1084C188 1081.79 186.209 1080 184 1080C181.791 1080 180 1081.79 180 1084C180 1086.21 181.791 1088 184 1088Z" fill="#71869D"/>
<path d="M274 1088C276.209 1088 278 1086.21 278 1084C278 1081.79 276.209 1080 274 1080C271.791 1080 270 1081.79 270 1084C270 1086.21 271.791 1088 274 1088Z" fill="#71869D"/>
<path d="M364 1088C366.209 1088 368 1086.21 368 1084C368 1081.79 366.209 1080 364 1080C361.791 1080 360 1081.79 360 1084C360 1086.21 361.791 1088 364 1088Z" fill="#71869D"/>
<path d="M454 1088C456.209 1088 458 1086.21 458 1084C458 1081.79 456.209 1080 454 1080C451.791 1080 450 1081.79 450 1084C450 1086.21 451.791 1088 454 1088Z" fill="#71869D"/>
<path d="M4 1178C6.20914 1178 8 1176.21 8 1174C8 1171.79 6.20914 1170 4 1170C1.79086 1170 0 1171.79 0 1174C0 1176.21 1.79086 1178 4 1178Z" fill="#71869D"/>
<path d="M94 1178C96.2091 1178 98 1176.21 98 1174C98 1171.79 96.2091 1170 94 1170C91.7909 1170 90 1171.79 90 1174C90 1176.21 91.7909 1178 94 1178Z" fill="#71869D"/>
<path d="M184 1178C186.209 1178 188 1176.21 188 1174C188 1171.79 186.209 1170 184 1170C181.791 1170 180 1171.79 180 1174C180 1176.21 181.791 1178 184 1178Z" fill="#71869D"/>
<path d="M274 1178C276.209 1178 278 1176.21 278 1174C278 1171.79 276.209 1170 274 1170C271.791 1170 270 1171.79 270 1174C270 1176.21 271.791 1178 274 1178Z" fill="#71869D"/>
<path d="M364 1178C366.209 1178 368 1176.21 368 1174C368 1171.79 366.209 1170 364 1170C361.791 1170 360 1171.79 360 1174C360 1176.21 361.791 1178 364 1178Z" fill="#71869D"/>
<path d="M454 1178C456.209 1178 458 1176.21 458 1174C458 1171.79 456.209 1170 454 1170C451.791 1170 450 1171.79 450 1174C450 1176.21 451.791 1178 454 1178Z" fill="#71869D"/>
<path d="M544 998C546.209 998 548 996.209 548 994C548 991.791 546.209 990 544 990C541.791 990 540 991.791 540 994C540 996.209 541.791 998 544 998Z" fill="#71869D"/>
<path d="M634 998C636.209 998 638 996.209 638 994C638 991.791 636.209 990 634 990C631.791 990 630 991.791 630 994C630 996.209 631.791 998 634 998Z" fill="#71869D"/>
<path d="M544 1088C546.209 1088 548 1086.21 548 1084C548 1081.79 546.209 1080 544 1080C541.791 1080 540 1081.79 540 1084C540 1086.21 541.791 1088 544 1088Z" fill="#71869D"/>
<path d="M634 1088C636.209 1088 638 1086.21 638 1084C638 1081.79 636.209 1080 634 1080C631.791 1080 630 1081.79 630 1084C630 1086.21 631.791 1088 634 1088Z" fill="#71869D"/>
<path d="M544 1178C546.209 1178 548 1176.21 548 1174C548 1171.79 546.209 1170 544 1170C541.791 1170 540 1171.79 540 1174C540 1176.21 541.791 1178 544 1178Z" fill="#71869D"/>
<path d="M634 1178C636.209 1178 638 1176.21 638 1174C638 1171.79 636.209 1170 634 1170C631.791 1170 630 1171.79 630 1174C630 1176.21 631.791 1178 634 1178Z" fill="#71869D"/>
</svg>
