<svg width="1983" height="541" viewBox="0 0 1983 541" fill="none" xmlns="http://www.w3.org/2000/svg">
<g clip-path="url(#clip0)">
<path opacity="0.05" d="M821.8 446.8L750 488.2C745.9 490.6 738.8 490.3 734.1 487.5L651.2 439.6C646.5 436.9 646 432.8 650.1 430.4L721.9 388.9C726 386.5 733.1 386.8 737.8 389.6L820.7 437.5C825.4 440.3 825.9 444.4 821.8 446.8Z" fill="white"/>
<path opacity="0.15" d="M619.6 452.4C622.5 452.4 625.4 453.1 627.6 454.4L710.5 502.3C712.3 503.3 713.4 504.6 713.4 505.8C713.4 506.9 712.3 507.7 711.6 508.1L639.8 549.6C638.3 550.5 636.2 550.9 633.9 550.9C631 550.9 628.1 550.2 625.9 548.9L543 501C541.2 500 540.1 498.7 540.1 497.5C540.1 496.4 541.2 495.6 541.9 495.2L613.7 453.7C615.2 452.9 617.3 452.4 619.6 452.4ZM619.6 450.4C617 450.4 614.5 450.9 612.7 452L540.9 493.5C536.8 495.9 537.3 500 542 502.7L624.9 550.6C627.5 552.1 630.8 552.8 633.9 552.8C636.5 552.8 639 552.3 640.8 551.2L712.6 509.7C716.7 507.3 716.2 503.2 711.5 500.5L628.6 452.6C626 451.2 622.7 450.4 619.6 450.4Z" fill="white"/>
<path opacity="0.15" d="M510.5 515.4C513.4 515.4 516.3 516.1 518.5 517.4L601.4 565.3C603.2 566.3 604.3 567.6 604.3 568.8C604.3 569.9 603.2 570.7 602.5 571.1L530.7 612.6C529.2 613.5 527.1 613.9 524.8 613.9C521.9 613.9 519 613.2 516.8 611.9L433.9 564C432.1 563 431 561.7 431 560.5C431 559.4 432.1 558.6 432.8 558.2L504.6 516.7C506 515.9 508.1 515.4 510.5 515.4ZM510.5 513.4C507.9 513.4 505.4 513.9 503.6 515L431.8 556.5C427.7 558.9 428.2 563 432.9 565.7L515.8 613.6C518.4 615.1 521.7 615.8 524.8 615.8C527.4 615.8 529.9 615.3 531.7 614.2L603.5 572.7C607.6 570.3 607.1 566.2 602.4 563.5L519.5 515.6C516.9 514.2 513.6 513.4 510.5 513.4Z" fill="white"/>
<path opacity="0.15" d="M946.9 263.4C949.8 263.4 952.7 264.1 954.9 265.4L1037.8 313.3C1039.6 314.3 1040.7 315.6 1040.7 316.8C1040.7 317.9 1039.6 318.7 1038.9 319.1L967.1 360.6C965.6 361.5 963.5 361.9 961.2 361.9C958.3 361.9 955.4 361.2 953.2 359.9L870.3 312C868.5 311 867.4 309.7 867.4 308.5C867.4 307.4 868.5 306.6 869.2 306.2L941 264.7C942.5 263.9 944.6 263.4 946.9 263.4ZM946.9 261.4C944.3 261.4 941.8 261.9 940 263L868.2 304.5C864.1 306.9 864.6 311 869.3 313.7L952.2 361.6C954.8 363.1 958.1 363.8 961.2 363.8C963.8 363.8 966.3 363.3 968.1 362.2L1039.9 320.7C1044 318.3 1043.5 314.2 1038.8 311.5L955.9 263.6C953.4 262.2 950.1 261.4 946.9 261.4Z" fill="white"/>
<path opacity="0.15" d="M1056.1 200.4C1059 200.4 1061.9 201.1 1064.1 202.4L1147 250.3C1148.8 251.3 1149.9 252.6 1149.9 253.8C1149.9 254.9 1148.8 255.7 1148.1 256.1L1076.3 297.6C1074.8 298.5 1072.7 298.9 1070.4 298.9C1067.5 298.9 1064.6 298.2 1062.4 296.9L979.5 249C977.7 248 976.6 246.7 976.6 245.5C976.6 244.4 977.7 243.6 978.4 243.2L1050.2 201.7C1051.6 200.9 1053.7 200.4 1056.1 200.4ZM1056.1 198.4C1053.5 198.4 1051 198.9 1049.2 200L977.4 241.5C973.3 243.9 973.8 248 978.5 250.7L1061.4 298.6C1064 300.1 1067.3 300.8 1070.4 300.8C1073 300.8 1075.5 300.3 1077.3 299.2L1149.1 257.7C1153.2 255.3 1152.7 251.2 1148 248.5L1065.1 200.6C1062.5 199.2 1059.2 198.4 1056.1 198.4Z" fill="white"/>
<path opacity="0.15" d="M1274.3 74.4C1277.2 74.4 1280.1 75.1 1282.3 76.4L1365.2 124.3C1367 125.3 1368.1 126.6 1368.1 127.8C1368.1 128.9 1367 129.7 1366.3 130.1L1294.5 171.6C1293 172.5 1290.9 172.9 1288.6 172.9C1285.7 172.9 1282.8 172.2 1280.6 170.9L1197.7 123C1195.9 122 1194.8 120.7 1194.8 119.5C1194.8 118.4 1195.9 117.6 1196.6 117.2L1268.4 75.7C1269.9 74.9 1272 74.4 1274.3 74.4ZM1274.3 72.4C1271.7 72.4 1269.2 72.9 1267.4 74L1195.6 115.5C1191.5 117.9 1192 122 1196.7 124.7L1279.6 172.6C1282.2 174.1 1285.5 174.8 1288.6 174.8C1291.2 174.8 1293.7 174.3 1295.5 173.2L1367.3 131.7C1371.4 129.3 1370.9 125.2 1366.2 122.5L1283.3 74.6C1280.7 73.2 1277.4 72.4 1274.3 72.4Z" fill="white"/>
<path opacity="0.15" d="M1383.4 11.4C1386.3 11.4 1389.2 12.1 1391.4 13.4L1474.3 61.3C1476.1 62.3 1477.2 63.6 1477.2 64.8C1477.2 65.9 1476.1 66.7 1475.4 67.1L1403.6 108.6C1402.1 109.5 1400 109.9 1397.7 109.9C1394.8 109.9 1391.9 109.2 1389.7 107.9L1306.8 60C1305 59 1303.9 57.7 1303.9 56.5C1303.9 55.4 1305 54.6 1305.7 54.2L1377.5 12.7C1379 11.9 1381.1 11.4 1383.4 11.4ZM1383.4 9.39999C1380.8 9.39999 1378.3 9.89999 1376.5 11L1304.7 52.5C1300.6 54.9 1301.1 59 1305.8 61.7L1388.7 109.6C1391.3 111.1 1394.6 111.8 1397.7 111.8C1400.3 111.8 1402.8 111.3 1404.6 110.2L1476.4 68.7C1480.5 66.3 1480 62.2 1475.3 59.5L1392.4 11.6C1389.8 10.2 1386.6 9.39999 1383.4 9.39999Z" fill="white"/>
<path opacity="0.15" d="M854.7 462.2C857.6 462.2 860.5 462.9 862.7 464.2L945.6 512.1C947.4 513.1 948.5 514.4 948.5 515.6C948.5 516.7 947.4 517.5 946.7 517.9L875 559.2C873.5 560.1 871.4 560.5 869.1 560.5C866.2 560.5 863.3 559.8 861.1 558.5L778.2 510.6C776.4 509.6 775.3 508.3 775.3 507.1C775.3 506 776.4 505.2 777.1 504.8L848.9 463.3C850.3 462.6 852.4 462.2 854.7 462.2ZM854.7 460.2C852.1 460.2 849.6 460.7 847.8 461.8L776 503.2C771.9 505.6 772.4 509.7 777.1 512.4L860 560.3C862.6 561.8 865.9 562.5 869 562.5C871.6 562.5 874.1 562 875.9 560.9L947.7 519.4C951.8 517 951.3 512.9 946.6 510.2L863.7 462.3C861.1 460.9 857.8 460.2 854.7 460.2Z" fill="white"/>
<path opacity="0.15" d="M745.6 525.2C748.5 525.2 751.4 525.9 753.6 527.2L836.5 575.1C838.3 576.1 839.4 577.4 839.4 578.6C839.4 579.7 838.3 580.5 837.6 580.9L765.8 622.4C764.3 623.3 762.2 623.7 759.9 623.7C757 623.7 754.1 623 751.9 621.7L669 573.7C667.2 572.7 666.1 571.4 666.1 570.2C666.1 569.1 667.2 568.3 667.9 567.9L739.7 526.4C741.2 525.6 743.3 525.2 745.6 525.2ZM745.6 523.2C743 523.2 740.5 523.7 738.7 524.8L666.9 566.3C662.8 568.7 663.3 572.8 668 575.5L750.9 623.4C753.5 624.9 756.8 625.6 759.9 625.6C762.5 625.6 765 625.1 766.8 624L838.6 582.5C842.7 580.1 842.2 576 837.5 573.3L754.6 525.4C752 523.9 748.7 523.2 745.6 523.2Z" fill="white"/>
<path opacity="0.15" d="M963.8 399.2C966.7 399.2 969.6 399.9 971.8 401.2L1054.7 449.1C1056.5 450.1 1057.6 451.4 1057.6 452.6C1057.6 453.7 1056.5 454.5 1055.8 454.9L984 496.4C982.5 497.3 980.4 497.7 978.1 497.7C975.2 497.7 972.3 497 970.1 495.7L887.2 447.8C885.4 446.8 884.3 445.5 884.3 444.3C884.3 443.2 885.4 442.4 886.1 442L957.9 400.5C959.4 399.6 961.5 399.2 963.8 399.2ZM963.8 397.2C961.2 397.2 958.7 397.7 956.9 398.8L885.1 440.3C881 442.7 881.5 446.8 886.2 449.5L969.1 497.4C971.7 498.9 975 499.6 978.1 499.6C980.7 499.6 983.2 499.1 985 498L1056.8 456.5C1060.9 454.1 1060.4 450 1055.7 447.3L972.8 399.4C970.3 397.9 967 397.2 963.8 397.2Z" fill="white"/>
<path opacity="0.15" d="M1072.9 336.2C1075.8 336.2 1078.7 336.9 1080.9 338.2L1163.8 386.1C1165.6 387.1 1166.7 388.4 1166.7 389.6C1166.7 390.7 1165.6 391.5 1164.9 391.9L1093.1 433.4C1091.6 434.3 1089.5 434.7 1087.2 434.7C1084.3 434.7 1081.4 434 1079.2 432.7L996.3 384.8C994.5 383.8 993.4 382.5 993.4 381.3C993.4 380.2 994.5 379.4 995.2 379L1067 337.5C1068.5 336.6 1070.6 336.2 1072.9 336.2ZM1072.9 334.2C1070.3 334.2 1067.8 334.7 1066 335.8L994.2 377.3C990.1 379.7 990.6 383.8 995.3 386.5L1078.2 434.4C1080.8 435.9 1084.1 436.6 1087.2 436.6C1089.8 436.6 1092.3 436.1 1094.1 435L1165.9 393.5C1170 391.1 1169.5 387 1164.8 384.3L1081.9 336.4C1079.4 334.9 1076.1 334.2 1072.9 334.2Z" fill="white"/>
<path opacity="0.05" d="M1275.2 330.5L1203.4 372C1199.3 374.4 1192.2 374.1 1187.5 371.3L1104.6 323.4C1099.9 320.7 1099.4 316.6 1103.5 314.2L1175.3 272.7C1179.4 270.3 1186.5 270.6 1191.2 273.4L1274.1 321.3C1278.7 324 1279.2 328.1 1275.2 330.5Z" fill="white"/>
<path opacity="0.05" d="M1384.3 267.5L1312.5 309C1308.4 311.4 1301.3 311.1 1296.6 308.3L1213.7 260.4C1209 257.7 1208.5 253.6 1212.6 251.2L1284.4 209.7C1288.5 207.3 1295.6 207.6 1300.3 210.4L1383.2 258.3C1387.8 261 1388.4 265.1 1384.3 267.5Z" fill="white"/>
<path opacity="0.15" d="M1400.3 147.2C1403.2 147.2 1406.1 147.9 1408.3 149.2L1491.2 197.1C1493 198.1 1494.1 199.4 1494.1 200.6C1494.1 201.7 1493 202.5 1492.3 202.9L1420.5 244.4C1419 245.3 1416.9 245.7 1414.6 245.7C1411.7 245.7 1408.8 245 1406.6 243.7L1323.7 195.8C1321.9 194.8 1320.8 193.5 1320.8 192.3C1320.8 191.2 1321.9 190.4 1322.6 190L1394.4 148.5C1395.9 147.6 1398 147.2 1400.3 147.2ZM1400.3 145.2C1397.7 145.2 1395.2 145.7 1393.4 146.8L1321.6 188.3C1317.5 190.7 1318 194.8 1322.7 197.5L1405.6 245.4C1408.2 246.9 1411.5 247.6 1414.6 247.6C1417.2 247.6 1419.7 247.1 1421.5 246L1493.3 204.5C1497.4 202.1 1496.9 198 1492.2 195.3L1409.3 147.4C1406.7 145.9 1403.4 145.2 1400.3 145.2Z" fill="white"/>
<path opacity="0.05" d="M1602.5 141.5L1530.7 183C1526.6 185.4 1519.5 185.1 1514.8 182.3L1431.9 134.4C1427.2 131.7 1426.7 127.6 1430.8 125.2L1502.6 83.7C1506.7 81.3 1513.8 81.6 1518.5 84.4L1601.4 132.3C1606.1 135 1606.6 139.1 1602.5 141.5Z" fill="white"/>
<path opacity="0.15" d="M980.7 534.9C983.6 534.9 986.5 535.6 988.7 536.9L1071.6 584.8C1073.4 585.8 1074.5 587.1 1074.5 588.3C1074.5 589.4 1073.4 590.2 1072.7 590.6L1001 632C999.5 632.9 997.4 633.3 995.1 633.3C992.2 633.3 989.3 632.6 987.1 631.3L904.2 583.4C902.4 582.4 901.3 581.1 901.3 579.9C901.3 578.8 902.4 578 903.1 577.6L974.9 536.1C976.3 535.4 978.4 534.9 980.7 534.9ZM980.7 532.9C978.1 532.9 975.6 533.4 973.8 534.5L902 576C897.9 578.4 898.4 582.5 903.1 585.2L986 633.1C988.6 634.6 991.9 635.3 995 635.3C997.6 635.3 1000.1 634.8 1001.9 633.7L1073.7 592.2C1077.8 589.8 1077.3 585.7 1072.6 583L989.7 535.1C987.1 533.7 983.8 532.9 980.7 532.9Z" fill="white"/>
<path opacity="0.15" d="M1089.8 471.9C1092.7 471.9 1095.6 472.6 1097.8 473.9L1180.7 521.8C1182.5 522.8 1183.6 524.1 1183.6 525.3C1183.6 526.4 1182.5 527.2 1181.8 527.6L1110 569.1C1108.5 570 1106.4 570.4 1104.1 570.4C1101.2 570.4 1098.3 569.7 1096.1 568.4L1013.2 520.5C1011.4 519.5 1010.3 518.2 1010.3 517C1010.3 515.9 1011.4 515.1 1012.1 514.7L1083.9 473.2C1085.4 472.4 1087.5 471.9 1089.8 471.9ZM1089.8 469.9C1087.2 469.9 1084.7 470.4 1082.9 471.5L1011.1 513C1007 515.4 1007.5 519.5 1012.2 522.2L1095.1 570.1C1097.7 571.6 1101 572.3 1104.1 572.3C1106.7 572.3 1109.2 571.8 1111 570.7L1182.8 529.2C1186.9 526.8 1186.4 522.7 1181.7 520L1098.8 472.1C1096.3 470.7 1093 469.9 1089.8 469.9Z" fill="white"/>
<path opacity="0.15" d="M1198.9 408.9C1201.8 408.9 1204.7 409.6 1206.9 410.9L1289.8 458.8C1291.6 459.8 1292.7 461.1 1292.7 462.3C1292.7 463.4 1291.6 464.2 1290.9 464.6L1219.1 506.1C1217.6 507 1215.5 507.4 1213.2 507.4C1210.3 507.4 1207.4 506.7 1205.2 505.4L1122.3 457.5C1120.5 456.5 1119.4 455.2 1119.4 454C1119.4 452.9 1120.5 452.1 1121.2 451.7L1193 410.2C1194.5 409.4 1196.6 408.9 1198.9 408.9ZM1198.9 406.9C1196.3 406.9 1193.8 407.4 1192 408.5L1120.2 450C1116.1 452.4 1116.6 456.5 1121.3 459.2L1204.2 507.1C1206.8 508.6 1210.1 509.3 1213.2 509.3C1215.8 509.3 1218.3 508.8 1220.1 507.7L1291.9 466.2C1296 463.8 1295.5 459.7 1290.8 457L1207.9 409.1C1205.4 407.7 1202.1 406.9 1198.9 406.9Z" fill="white"/>
<path opacity="0.15" d="M1417.2 282.9C1420.1 282.9 1423 283.6 1425.2 284.9L1508.1 332.8C1509.9 333.8 1511 335.1 1511 336.3C1511 337.4 1509.9 338.2 1509.2 338.6L1437.4 380.1C1435.9 381 1433.8 381.4 1431.5 381.4C1428.6 381.4 1425.7 380.7 1423.5 379.4L1340.6 331.5C1338.8 330.5 1337.7 329.2 1337.7 328C1337.7 326.9 1338.8 326.1 1339.5 325.7L1411.3 284.2C1412.8 283.4 1414.8 282.9 1417.2 282.9ZM1417.2 280.9C1414.6 280.9 1412.1 281.4 1410.3 282.5L1338.5 324C1334.4 326.4 1334.9 330.5 1339.6 333.2L1422.5 381.1C1425.1 382.6 1428.4 383.3 1431.5 383.3C1434.1 383.3 1436.6 382.8 1438.4 381.7L1510.2 340.2C1514.3 337.8 1513.8 333.7 1509.1 331L1426.2 283.1C1423.6 281.7 1420.3 280.9 1417.2 280.9Z" fill="white"/>
<path opacity="0.15" d="M1526.3 219.9C1529.2 219.9 1532.1 220.6 1534.3 221.9L1617.2 269.8C1619 270.8 1620.1 272.1 1620.1 273.3C1620.1 274.4 1619 275.2 1618.3 275.6L1546.5 317.1C1545 318 1542.9 318.4 1540.6 318.4C1537.7 318.4 1534.8 317.7 1532.6 316.4L1449.7 268.5C1447.9 267.5 1446.8 266.2 1446.8 265C1446.8 263.9 1447.9 263.1 1448.6 262.7L1520.4 221.2C1521.9 220.4 1524 219.9 1526.3 219.9ZM1526.3 217.9C1523.7 217.9 1521.2 218.4 1519.4 219.5L1447.6 261C1443.5 263.4 1444 267.5 1448.7 270.2L1531.6 318.1C1534.2 319.6 1537.5 320.3 1540.6 320.3C1543.2 320.3 1545.7 319.8 1547.5 318.7L1619.3 277.2C1623.4 274.8 1622.9 270.7 1618.2 268L1535.3 220.1C1532.7 218.7 1529.4 217.9 1526.3 217.9Z" fill="white"/>
<path opacity="0.15" d="M1324.9 481.7C1327.8 481.7 1330.7 482.4 1332.9 483.7L1415.8 531.6C1417.6 532.6 1418.7 533.9 1418.7 535.1C1418.7 536.2 1417.6 537 1416.9 537.4L1345.1 578.9C1343.6 579.8 1341.5 580.2 1339.2 580.2C1336.3 580.2 1333.4 579.5 1331.2 578.2L1248.3 530.3C1246.5 529.3 1245.4 528 1245.4 526.8C1245.4 525.7 1246.5 524.9 1247.2 524.5L1319 483C1320.5 482.1 1322.6 481.7 1324.9 481.7ZM1324.9 479.7C1322.3 479.7 1319.8 480.2 1318 481.3L1246.2 522.8C1242.1 525.2 1242.6 529.3 1247.3 532L1330.2 579.9C1332.8 581.4 1336.1 582.1 1339.2 582.1C1341.8 582.1 1344.3 581.6 1346.1 580.5L1418 539C1422.1 536.6 1421.6 532.5 1416.9 529.8L1334 481.9C1331.4 480.4 1328.1 479.7 1324.9 479.7Z" fill="white"/>
<path opacity="0.15" d="M1434.1 418.7C1437 418.7 1439.9 419.4 1442.1 420.7L1525 468.6C1526.8 469.6 1527.9 470.9 1527.9 472.1C1527.9 473.2 1526.8 474 1526.1 474.4L1454.3 515.9C1452.8 516.8 1450.7 517.2 1448.4 517.2C1445.5 517.2 1442.6 516.5 1440.4 515.2L1357.5 467.3C1355.7 466.3 1354.6 465 1354.6 463.8C1354.6 462.7 1355.7 461.9 1356.4 461.5L1428.2 420C1429.6 419.1 1431.7 418.7 1434.1 418.7ZM1434.1 416.7C1431.5 416.7 1429 417.2 1427.2 418.3L1355.4 459.8C1351.3 462.2 1351.8 466.3 1356.5 469L1439.4 516.9C1442 518.4 1445.3 519.1 1448.4 519.1C1451 519.1 1453.5 518.6 1455.3 517.5L1527.1 476C1531.2 473.6 1530.7 469.5 1526 466.8L1443.1 418.9C1440.5 417.4 1437.2 416.7 1434.1 416.7Z" fill="white"/>
<path opacity="0.15" d="M1543.2 355.7C1546.1 355.7 1549 356.4 1551.2 357.7L1634.1 405.6C1635.9 406.6 1637 407.9 1637 409.1C1637 410.2 1635.9 411 1635.2 411.4L1563.4 452.9C1561.9 453.8 1559.8 454.2 1557.5 454.2C1554.6 454.2 1551.7 453.5 1549.5 452.2L1466.6 404.3C1464.8 403.3 1463.7 402 1463.7 400.8C1463.7 399.7 1464.8 398.9 1465.5 398.5L1537.3 357C1538.8 356.1 1540.8 355.7 1543.2 355.7ZM1543.2 353.7C1540.6 353.7 1538.1 354.2 1536.3 355.3L1464.5 396.8C1460.4 399.2 1460.9 403.3 1465.6 406L1548.5 453.9C1551.1 455.4 1554.4 456.1 1557.5 456.1C1560.1 456.1 1562.6 455.6 1564.4 454.5L1636.2 413C1640.3 410.6 1639.8 406.5 1635.1 403.8L1552.2 355.9C1549.6 354.4 1546.3 353.7 1543.2 353.7Z" fill="white"/>
<path opacity="0.05" d="M1854.5 287L1782.7 328.5C1778.6 330.9 1771.5 330.6 1766.8 327.8L1683.9 279.9C1679.2 277.2 1678.7 273.1 1682.8 270.7L1754.6 229.2C1758.7 226.8 1765.8 227.1 1770.5 229.9L1853.4 277.8C1858.1 280.5 1858.6 284.6 1854.5 287Z" fill="white"/>
<path opacity="0.15" d="M1560.1 491.4C1563 491.4 1565.9 492.1 1568.1 493.4L1651 541.3C1652.8 542.3 1653.9 543.6 1653.9 544.8C1653.9 545.9 1652.8 546.7 1652.1 547.1L1580.3 588.6C1578.8 589.5 1576.7 589.9 1574.4 589.9C1571.5 589.9 1568.6 589.2 1566.4 587.9L1483.5 540C1481.7 539 1480.6 537.7 1480.6 536.5C1480.6 535.4 1481.7 534.6 1482.4 534.2L1554.2 492.7C1555.6 491.9 1557.7 491.4 1560.1 491.4ZM1560.1 489.4C1557.5 489.4 1555 489.9 1553.2 491L1481.4 532.5C1477.3 534.9 1477.8 539 1482.5 541.7L1565.4 589.6C1568 591.1 1571.3 591.8 1574.4 591.8C1577 591.8 1579.5 591.3 1581.3 590.2L1653.1 548.7C1657.2 546.3 1656.7 542.2 1652 539.5L1569.1 491.6C1566.5 490.2 1563.2 489.4 1560.1 489.4Z" fill="white"/>
<path opacity="0.15" d="M1778.3 365.4C1781.2 365.4 1784.1 366.1 1786.3 367.4L1869.2 415.3C1871 416.3 1872.1 417.6 1872.1 418.8C1872.1 419.9 1871 420.7 1870.3 421.1L1798.5 462.6C1797 463.5 1794.9 463.9 1792.6 463.9C1789.7 463.9 1786.8 463.2 1784.6 461.9L1701.7 414C1699.9 413 1698.8 411.7 1698.8 410.5C1698.8 409.4 1699.9 408.6 1700.6 408.2L1772.4 366.7C1773.9 365.9 1776 365.4 1778.3 365.4ZM1778.3 363.4C1775.7 363.4 1773.2 363.9 1771.4 365L1699.6 406.5C1695.5 408.9 1696 413 1700.7 415.7L1783.6 463.6C1786.2 465.1 1789.5 465.8 1792.6 465.8C1795.2 465.8 1797.7 465.3 1799.5 464.2L1871.3 422.7C1875.4 420.3 1874.9 416.2 1870.2 413.5L1787.3 365.6C1784.7 364.2 1781.4 363.4 1778.3 363.4Z" fill="white"/>
<path opacity="0.15" d="M1887.4 302.4C1890.3 302.4 1893.2 303.1 1895.4 304.4L1978.3 352.3C1980.1 353.3 1981.2 354.6 1981.2 355.8C1981.2 356.9 1980.1 357.7 1979.4 358.1L1907.6 399.6C1906.1 400.5 1904 400.9 1901.7 400.9C1898.8 400.9 1895.9 400.2 1893.7 398.9L1810.8 351C1809 350 1807.9 348.7 1807.9 347.5C1807.9 346.4 1809 345.6 1809.7 345.2L1881.5 303.7C1883 302.9 1885.1 302.4 1887.4 302.4ZM1887.4 300.4C1884.8 300.4 1882.3 300.9 1880.5 302L1808.7 343.5C1804.6 345.9 1805.1 350 1809.8 352.7L1892.7 400.6C1895.3 402.1 1898.6 402.8 1901.7 402.8C1904.3 402.8 1906.8 402.3 1908.6 401.2L1980.4 359.7C1984.5 357.3 1984 353.2 1979.3 350.5L1896.4 302.6C1893.8 301.2 1890.6 300.4 1887.4 300.4Z" fill="white"/>
<path opacity="0.15" d="M602.7 316.7C605.6 316.7 608.5 317.4 610.7 318.7L693.6 366.6C695.4 367.6 696.5 368.9 696.5 370.1C696.5 371.2 695.4 372 694.7 372.4L623 413.8C621.5 414.7 619.4 415.1 617.1 415.1C614.2 415.1 611.3 414.4 609.1 413.1L526.2 365.2C524.4 364.2 523.3 362.9 523.3 361.7C523.3 360.6 524.4 359.8 525.1 359.4L596.9 317.9C598.3 317.2 600.4 316.7 602.7 316.7ZM602.7 314.7C600.1 314.7 597.6 315.2 595.8 316.3L524 357.7C519.9 360.1 520.4 364.2 525.1 366.9L608 414.8C610.6 416.3 613.9 417 617 417C619.6 417 622.1 416.5 623.9 415.4L695.7 373.9C699.8 371.5 699.3 367.4 694.6 364.7L611.7 316.8C609.1 315.4 605.8 314.7 602.7 314.7Z" fill="white"/>
<path opacity="0.15" d="M493.6 379.7C496.5 379.7 499.4 380.4 501.6 381.7L584.5 429.6C586.3 430.6 587.4 431.9 587.4 433.1C587.4 434.2 586.3 435 585.6 435.4L513.8 476.9C512.3 477.8 510.2 478.2 507.9 478.2C505 478.2 502.1 477.5 499.9 476.2L417 428.2C415.2 427.2 414.1 425.9 414.1 424.7C414.1 423.6 415.2 422.8 415.9 422.4L487.7 380.9C489.2 380.2 491.3 379.7 493.6 379.7ZM493.6 377.7C491 377.7 488.5 378.2 486.7 379.3L414.9 420.8C410.8 423.2 411.3 427.3 416 430L498.9 477.9C501.5 479.4 504.8 480.1 507.9 480.1C510.5 480.1 513 479.6 514.8 478.5L586.6 437C590.7 434.6 590.2 430.5 585.5 427.8L502.6 379.9C500 378.4 496.7 377.7 493.6 377.7Z" fill="white"/>
<path opacity="0.15" d="M384.5 442.7C387.4 442.7 390.3 443.4 392.5 444.7L475.4 492.6C477.2 493.6 478.3 494.9 478.3 496.1C478.3 497.2 477.2 498 476.5 498.4L404.7 539.9C403.2 540.8 401.1 541.2 398.8 541.2C395.9 541.2 393 540.5 390.8 539.2L307.9 491.3C306.1 490.3 305 489 305 487.8C305 486.7 306.1 485.9 306.8 485.5L378.6 444C380 443.2 382.1 442.7 384.5 442.7ZM384.5 440.7C381.9 440.7 379.4 441.2 377.6 442.3L305.8 483.8C301.7 486.2 302.2 490.3 306.9 493L389.8 540.9C392.4 542.4 395.7 543.1 398.8 543.1C401.4 543.1 403.9 542.6 405.7 541.5L477.5 500C481.6 497.6 481.1 493.5 476.4 490.8L393.5 442.9C390.9 441.4 387.6 440.7 384.5 440.7Z" fill="white"/>
<path opacity="0.15" d="M275.4 505.7C278.3 505.7 281.2 506.4 283.4 507.7L366.3 555.6C368.1 556.6 369.2 557.9 369.2 559.1C369.2 560.2 368.1 561 367.4 561.4L295.6 602.9C294.1 603.8 292 604.2 289.7 604.2C286.8 604.2 283.9 603.5 281.7 602.2L198.8 554.3C197 553.3 195.9 552 195.9 550.8C195.9 549.7 197 548.9 197.7 548.5L269.5 507C270.9 506.2 273 505.7 275.4 505.7ZM275.4 503.7C272.8 503.7 270.3 504.2 268.5 505.3L196.7 546.8C192.6 549.2 193.1 553.3 197.8 556L280.7 603.9C283.3 605.4 286.6 606.1 289.7 606.1C292.3 606.1 294.8 605.6 296.6 604.5L368.4 563C372.5 560.6 372 556.5 367.3 553.8L284.4 505.9C281.8 504.4 278.5 503.7 275.4 503.7Z" fill="white"/>
<path opacity="0.15" d="M711.8 253.7C714.7 253.7 717.6 254.4 719.8 255.7L802.7 303.6C804.5 304.6 805.6 305.9 805.6 307.1C805.6 308.2 804.5 309 803.8 309.4L732 350.9C730.5 351.8 728.4 352.2 726.1 352.2C723.2 352.2 720.3 351.5 718.1 350.2L635.2 302.3C633.4 301.3 632.3 300 632.3 298.8C632.3 297.7 633.4 296.9 634.1 296.5L705.9 255C707.4 254.2 709.5 253.7 711.8 253.7ZM711.8 251.7C709.2 251.7 706.7 252.2 704.9 253.3L633.1 294.8C629 297.2 629.5 301.3 634.2 304L717.1 351.9C719.7 353.4 723 354.1 726.1 354.1C728.7 354.1 731.2 353.6 733 352.5L804.8 311C808.9 308.6 808.4 304.5 803.7 301.8L720.8 253.9C718.3 252.4 715 251.7 711.8 251.7Z" fill="white"/>
<path opacity="0.05" d="M914 248L842.2 289.5C838.1 291.9 831 291.6 826.3 288.8L743.4 240.9C738.7 238.2 738.2 234.1 742.3 231.7L814.1 190.2C818.2 187.8 825.3 188.1 830 190.9L912.9 238.8C917.6 241.5 918.1 245.7 914 248Z" fill="white"/>
<path opacity="0.15" d="M930.1 127.7C933 127.7 935.9 128.4 938.1 129.7L1021 177.6C1022.8 178.6 1023.9 179.9 1023.9 181.1C1023.9 182.2 1022.8 183 1022.1 183.4L950.3 224.9C948.8 225.8 946.7 226.2 944.4 226.2C941.5 226.2 938.6 225.5 936.4 224.2L853.5 176.3C851.7 175.3 850.6 174 850.6 172.8C850.6 171.7 851.7 170.9 852.4 170.5L924.2 129C925.6 128.2 927.7 127.7 930.1 127.7ZM930.1 125.7C927.5 125.7 925 126.2 923.2 127.3L851.4 168.8C847.3 171.2 847.8 175.3 852.5 178L935.4 225.9C938 227.4 941.3 228.1 944.4 228.1C947 228.1 949.5 227.6 951.3 226.5L1023.1 185C1027.2 182.6 1026.7 178.5 1022 175.8L939.1 127.9C936.5 126.4 933.2 125.7 930.1 125.7Z" fill="white"/>
<path opacity="0.15" d="M1148.3 1.7C1151.2 1.7 1154.1 2.4 1156.3 3.7L1239.2 51.6C1241 52.6 1242.1 53.9 1242.1 55.1C1242.1 56.2 1241 57 1240.3 57.4L1168.5 98.9C1167 99.8 1164.9 100.2 1162.6 100.2C1159.7 100.2 1156.8 99.5 1154.6 98.2L1071.7 50.3C1069.9 49.3 1068.8 48 1068.8 46.8C1068.8 45.7 1069.9 44.9 1070.6 44.5L1142.4 3C1143.9 2.2 1146 1.7 1148.3 1.7ZM1148.3 -0.300003C1145.7 -0.300003 1143.2 0.199997 1141.4 1.3L1069.6 42.8C1065.5 45.2 1066 49.3 1070.7 52L1153.6 99.9C1156.2 101.4 1159.5 102.1 1162.6 102.1C1165.2 102.1 1167.7 101.6 1169.5 100.5L1241.3 59C1245.4 56.6 1244.9 52.5 1240.2 49.8L1157.3 1.9C1154.7 0.399997 1151.4 -0.300003 1148.3 -0.300003Z" fill="white"/>
<path opacity="0.15" d="M367.6 306.9C370.5 306.9 373.4 307.6 375.6 308.9L458.5 356.8C460.3 357.8 461.4 359.1 461.4 360.3C461.4 361.4 460.3 362.2 459.6 362.6L387.8 404C386.3 404.9 384.2 405.3 381.9 405.3C379 405.3 376.1 404.6 373.9 403.3L291 355.5C289.2 354.5 288.1 353.2 288.1 352C288.1 350.9 289.2 350.1 289.9 349.7L361.7 308.2C363.2 307.4 365.3 306.9 367.6 306.9ZM367.6 304.9C365 304.9 362.5 305.4 360.7 306.5L288.8 348C284.7 350.4 285.2 354.5 289.9 357.2L372.8 405.1C375.4 406.6 378.7 407.3 381.8 407.3C384.4 407.3 386.9 406.8 388.7 405.7L460.5 364.2C464.6 361.8 464.1 357.7 459.4 355L376.5 307.1C374 305.7 370.7 304.9 367.6 304.9Z" fill="white"/>
<path opacity="0.15" d="M258.5 369.9C261.4 369.9 264.3 370.6 266.5 371.9L349.4 419.8C351.2 420.8 352.3 422.1 352.3 423.3C352.3 424.4 351.2 425.2 350.5 425.6L278.7 467C277.2 467.9 275.1 468.3 272.8 468.3C269.9 468.3 267 467.6 264.8 466.3L181.9 418.4C180.1 417.4 179 416.1 179 414.9C179 413.8 180.1 413 180.8 412.6L252.6 371.1C254 370.4 256.1 369.9 258.5 369.9ZM258.5 367.9C255.9 367.9 253.4 368.4 251.6 369.5L179.7 411C175.6 413.4 176.1 417.5 180.8 420.2L263.7 468.1C266.3 469.6 269.6 470.3 272.7 470.3C275.3 470.3 277.8 469.8 279.6 468.7L351.4 427.2C355.5 424.8 355 420.7 350.3 418L267.4 370.1C264.9 368.7 261.6 367.9 258.5 367.9Z" fill="white"/>
<path opacity="0.05" d="M242.4 490.3L170.6 531.8C166.5 534.2 159.4 533.9 154.7 531.1L71.8 483.2C67.1 480.5 66.6 476.4 70.7 474L142.5 432.5C146.6 430.1 153.7 430.4 158.4 433.2L241.3 481.1C246 483.8 246.5 487.9 242.4 490.3Z" fill="white"/>
<path opacity="0.15" d="M40.2 495.9C43.1 495.9 46 496.6 48.2 497.9L131.1 545.8C132.9 546.8 134 548.1 134 549.3C134 550.4 132.9 551.2 132.2 551.6L60.5 593C59 593.9 56.9 594.3 54.6 594.3C51.7 594.3 48.8 593.6 46.6 592.3L-36.3 544.4C-38.1 543.4 -39.2 542.1 -39.2 540.9C-39.2 539.8 -38.1 539 -37.4 538.6L34.4 497.1C35.8 496.4 37.9 495.9 40.2 495.9ZM40.2 493.9C37.6 493.9 35.1 494.4 33.3 495.5L-38.5 537C-42.6 539.4 -42.1 543.5 -37.4 546.2L45.5 594.1C48.1 595.6 51.4 596.3 54.5 596.3C57.1 596.3 59.6 595.8 61.4 594.7L133.2 553.2C137.3 550.8 136.8 546.7 132.1 544L49.2 496.1C46.7 494.7 43.4 493.9 40.2 493.9Z" fill="white"/>
<path opacity="0.15" d="M585.8 180.9C588.7 180.9 591.6 181.6 593.8 182.9L676.7 230.8C678.5 231.8 679.6 233.1 679.6 234.3C679.6 235.4 678.5 236.2 677.8 236.6L606.1 278C604.6 278.9 602.5 279.3 600.2 279.3C597.3 279.3 594.4 278.6 592.2 277.3L509.3 229.4C507.5 228.4 506.4 227.1 506.4 225.9C506.4 224.8 507.5 224 508.2 223.6L580 182.1C581.4 181.4 583.5 180.9 585.8 180.9ZM585.8 178.9C583.2 178.9 580.7 179.4 578.9 180.5L507.1 222C503 224.4 503.5 228.5 508.2 231.2L591.1 279.1C593.7 280.6 597 281.3 600.1 281.3C602.7 281.3 605.2 280.8 607 279.7L678.8 238.2C682.9 235.8 682.4 231.7 677.7 229L594.8 181.1C592.3 179.7 589 178.9 585.8 178.9Z" fill="white"/>
<path opacity="0.15" d="M694.9 117.9C697.8 117.9 700.7 118.6 702.9 119.9L785.8 167.8C787.6 168.8 788.7 170.1 788.7 171.3C788.7 172.4 787.6 173.2 786.9 173.6L715.2 215C713.7 215.9 711.6 216.3 709.3 216.3C706.4 216.3 703.5 215.6 701.3 214.3L618.4 166.4C616.6 165.4 615.5 164.1 615.5 162.9C615.5 161.8 616.6 161 617.3 160.6L689.1 119.1C690.5 118.4 692.6 117.9 694.9 117.9ZM694.9 115.9C692.3 115.9 689.8 116.4 688 117.5L616.2 159C612.1 161.4 612.6 165.5 617.3 168.2L700.2 216.1C702.8 217.6 706.1 218.3 709.2 218.3C711.8 218.3 714.3 217.8 716.1 216.7L787.9 175.2C792 172.8 791.5 168.7 786.8 166L703.9 118.1C701.4 116.7 698.1 115.9 694.9 115.9Z" fill="white"/>
<path opacity="0.15" d="M804.1 54.9C807 54.9 809.9 55.6 812.1 56.9L895 104.8C896.8 105.8 897.9 107.1 897.9 108.3C897.9 109.4 896.8 110.2 896.1 110.6L824.3 152C822.8 152.9 820.7 153.3 818.4 153.3C815.5 153.3 812.6 152.6 810.4 151.3L727.5 103.4C725.7 102.4 724.6 101.1 724.6 99.9C724.6 98.8 725.7 98 726.4 97.6L798.2 56.1C799.6 55.4 801.7 54.9 804.1 54.9ZM804.1 52.9C801.5 52.9 799 53.4 797.2 54.5L725.3 96C721.2 98.4 721.7 102.5 726.4 105.2L809.3 153.1C811.9 154.6 815.2 155.3 818.3 155.3C820.9 155.3 823.4 154.8 825.2 153.7L897 112.2C901.1 109.8 900.6 105.7 895.9 103L813 55.1C810.5 53.7 807.2 52.9 804.1 52.9Z" fill="white"/>
<path opacity="0.15" d="M132.5 297.2C135.4 297.2 138.3 297.9 140.5 299.2L223.4 347.1C225.2 348.1 226.3 349.4 226.3 350.6C226.3 351.7 225.2 352.5 224.5 352.9L152.7 394.4C151.2 395.3 149.1 395.7 146.8 395.7C143.9 395.7 141 395 138.8 393.7L55.9 345.8C54.1 344.8 53 343.5 53 342.3C53 341.2 54.1 340.4 54.8 340L126.6 298.5C128 297.7 130.1 297.2 132.5 297.2ZM132.5 295.2C129.9 295.2 127.4 295.7 125.6 296.8L53.8 338.3C49.7 340.7 50.2 344.8 54.9 347.5L137.8 395.4C140.4 396.9 143.7 397.6 146.8 397.6C149.4 397.6 151.9 397.1 153.7 396L225.5 354.5C229.6 352.1 229.1 348 224.4 345.3L141.5 297.4C138.9 296 135.6 295.2 132.5 295.2Z" fill="white"/>
<path opacity="0.15" d="M23.4 360.2C26.3 360.2 29.2 360.9 31.4 362.2L114.3 410.1C116.1 411.1 117.2 412.4 117.2 413.6C117.2 414.7 116.1 415.5 115.4 415.9L43.6 457.4C42.1 458.3 40 458.7 37.7 458.7C34.8 458.7 31.9 458 29.7 456.7L-53.2 408.8C-55 407.8 -56.1 406.5 -56.1 405.3C-56.1 404.2 -55 403.4 -54.3 403L17.5 361.5C18.9 360.7 21 360.2 23.4 360.2ZM23.4 358.2C20.8 358.2 18.3 358.7 16.5 359.8L-55.3 401.3C-59.4 403.7 -58.9 407.8 -54.2 410.5L28.7 458.4C31.3 459.9 34.6 460.6 37.7 460.6C40.3 460.6 42.8 460.1 44.6 459L116.4 417.5C120.5 415.1 120 411 115.3 408.3L32.4 360.4C29.8 359 26.5 358.2 23.4 358.2Z" fill="white"/>
<path opacity="0.15" d="M-85.8 423.2C-82.9 423.2 -80 423.9 -77.8 425.2L5.10001 473.1C6.90001 474.1 8.00002 475.4 8.00002 476.6C8.00002 477.7 6.90001 478.5 6.20001 478.9L-65.6 520.4C-67.1 521.3 -69.2 521.7 -71.5 521.7C-74.4 521.7 -77.3 521 -79.5 519.7L-162.4 471.8C-164.2 470.8 -165.3 469.5 -165.3 468.3C-165.3 467.2 -164.2 466.4 -163.5 466L-91.7 424.5C-90.2 423.7 -88.1 423.2 -85.8 423.2ZM-85.8 421.2C-88.4 421.2 -90.9 421.7 -92.7 422.8L-164.5 464.3C-168.6 466.7 -168.1 470.8 -163.4 473.5L-80.5 521.4C-77.9 522.9 -74.6 523.6 -71.5 523.6C-68.9 523.6 -66.4 523.1 -64.6 522L7.20001 480.5C11.3 478.1 10.8 474 6.10001 471.3L-76.8 423.4C-79.3 422 -82.6 421.2 -85.8 421.2Z" fill="white"/>
<path opacity="0.15" d="M568.9 45.2C571.8 45.2 574.7 45.9 576.9 47.2L659.8 95.1C661.6 96.1 662.7 97.4 662.7 98.6C662.7 99.7 661.6 100.5 660.9 100.9L589.1 142.4C587.6 143.3 585.5 143.7 583.2 143.7C580.3 143.7 577.4 143 575.2 141.7L492.3 93.8C490.5 92.8 489.4 91.5 489.4 90.3C489.4 89.2 490.5 88.4 491.2 88L563 46.5C564.5 45.7 566.6 45.2 568.9 45.2ZM568.9 43.2C566.3 43.2 563.8 43.7 562 44.8L490.2 86.3C486.1 88.7 486.6 92.8 491.3 95.5L574.2 143.4C576.8 144.9 580.1 145.6 583.2 145.6C585.8 145.6 588.3 145.1 590.1 144L661.9 102.5C666 100.1 665.5 96 660.8 93.3L577.9 45.4C575.4 44 572.1 43.2 568.9 43.2Z" fill="white"/>
</g>
<defs>
<clipPath id="clip0">
<rect width="1983" height="541" fill="white"/>
</clipPath>
</defs>
</svg>
