<svg width="890" height="500" viewBox="0 0 890 500" fill="none" xmlns="http://www.w3.org/2000/svg">
<path d="M890 0H0V500H890V0Z" fill="#F8FAFD"/>
<path d="M744.5 259.3C744.5 287 722.1 309.3 694.5 309.3C666.9 309.3 644.5 287 644.5 259.3C644.5 231.7 666.9 209.3 694.5 209.3C722.2 209.3 744.5 231.7 744.5 259.3ZM695.8 225.8C684.8 225.8 677.8 230.4 672.3 238.6C671.6 239.6 671.9 241.1 672.8 241.8L679.8 247.1C680.8 247.9 682.4 247.7 683.2 246.7C686.8 242.1 689.2 239.5 694.8 239.5C698.9 239.5 704 242.2 704 246.1C704 249.1 701.5 250.7 697.4 253C692.7 255.7 686.4 259 686.4 267.2V268C686.4 269.3 687.5 270.4 688.8 270.4H700.1C701.4 270.4 702.5 269.3 702.5 268V267.7C702.5 261.9 719.2 261.7 719.2 246.2C719.4 234.7 707.2 225.8 695.8 225.8ZM694.5 275.8C689.4 275.8 685.2 279.9 685.2 285.1C685.2 290.2 689.3 294.4 694.5 294.4C699.7 294.4 703.8 290.3 703.8 285.1C703.8 280 699.6 275.8 694.5 275.8Z" fill="#377dff"/>
<path d="M573.3 157.5V365.5C573.3 370.5 569.3 374.5 564.3 374.5H159.3C154.3 374.5 150.3 370.5 150.3 365.5V157.5C150.3 152.5 154.3 148.5 159.3 148.5H564.3C569.3 148.5 573.3 152.5 573.3 157.5Z" fill="white" stroke="#BDC5D1" stroke-width="4"/>
<path d="M149.5 216.5H572.3" stroke="#BDC5D1" stroke-width="4"/>
<path d="M546.3 182.5C546.3 187.5 542.3 191.5 537.3 191.5H182.3C177.3 191.5 173.3 187.5 173.3 182.5C173.3 177.5 177.3 173.5 182.3 173.5H537.3C542.3 173.5 546.3 177.5 546.3 182.5Z" fill="#BDC5D1"/>
<path d="M502.3 252.5C502.3 257.5 498.3 261.5 493.3 261.5H182.3C177.3 261.5 173.3 257.5 173.3 252.5C173.3 247.5 177.3 243.5 182.3 243.5H493.3C498.3 243.5 502.3 247.5 502.3 252.5Z" fill="#BDC5D1"/>
<path d="M430.3 296.5C430.3 301.5 426.3 305.5 421.3 305.5H182.3C177.3 305.5 173.3 301.5 173.3 296.5C173.3 291.5 177.3 287.5 182.3 287.5H421.3C426.3 287.5 430.3 291.5 430.3 296.5Z" fill="#BDC5D1"/>
<path d="M525.3 340.5C525.3 345.5 521.3 349.5 516.3 349.5H182.3C177.3 349.5 173.3 345.5 173.3 340.5C173.3 335.5 177.3 331.5 182.3 331.5H516.3C521.3 331.5 525.3 335.5 525.3 340.5Z" fill="#BDC5D1"/>
<path d="M599.8 265.3L575 289.6C574.4 290.2 573.3 289.8 573.3 288.9V232.8L599.8 258.7C601.7 260.5 601.7 263.5 599.8 265.3Z" fill="white" stroke="#BDC5D1" stroke-width="4"/>
</svg>
