<svg width="890" height="500" viewBox="0 0 890 500" fill="none" xmlns="http://www.w3.org/2000/svg">
<path d="M890 0H0V500H890V0Z" fill="#F8FAFD"/>
<path d="M267.3 259.3C267.3 287 244.9 309.3 217.3 309.3C189.7 309.3 167.3 287 167.3 259.3C167.3 231.7 189.7 209.3 217.3 209.3C245 209.3 267.3 231.7 267.3 259.3ZM218.6 225.8C207.6 225.8 200.6 230.4 195.1 238.6C194.4 239.6 194.7 241.1 195.6 241.8L202.6 247.1C203.6 247.9 205.2 247.7 206 246.7C209.6 242.1 212 239.5 217.6 239.5C221.7 239.5 226.8 242.2 226.8 246.1C226.8 249.1 224.3 250.7 220.2 253C215.5 255.7 209.2 259 209.2 267.2V268C209.2 269.3 210.3 270.4 211.6 270.4H223C224.3 270.4 225.4 269.3 225.4 268V267.7C225.4 261.9 242.1 261.7 242.1 246.2C242.2 234.7 230 225.8 218.6 225.8ZM217.3 275.8C212.2 275.8 208 279.9 208 285.1C208 290.2 212.1 294.4 217.3 294.4C222.5 294.4 226.6 290.3 226.6 285.1C226.6 280 222.4 275.8 217.3 275.8Z" fill="#377dff"/>
<path d="M347.5 148.5H752.5C757.5 148.5 761.5 152.5 761.5 157.5V365.5C761.5 370.5 757.5 374.5 752.5 374.5H347.5C342.5 374.5 338.5 370.5 338.5 365.5V157.5C338.5 152.5 342.5 148.5 347.5 148.5Z" fill="white" stroke="#BDC5D1" stroke-width="4"/>
<path d="M339.5 216.5H762.3" stroke="#BDC5D1" stroke-width="4"/>
<path d="M374.5 173.5H729.5C734.5 173.5 738.5 177.5 738.5 182.5C738.5 187.5 734.5 191.5 729.5 191.5H374.5C369.5 191.5 365.5 187.5 365.5 182.5C365.5 177.5 369.5 173.5 374.5 173.5Z" fill="#BDC5D1"/>
<path d="M368.5 243.5H679.5C684.5 243.5 688.5 247.5 688.5 252.5C688.5 257.5 684.5 261.5 679.5 261.5H368.5C363.5 261.5 359.5 257.5 359.5 252.5C359.5 247.5 363.5 243.5 368.5 243.5Z" fill="#BDC5D1"/>
<path d="M368.5 287.5H607.5C612.5 287.5 616.5 291.5 616.5 296.5C616.5 301.5 612.5 305.5 607.5 305.5H368.5C363.5 305.5 359.5 301.5 359.5 296.5C359.5 291.5 363.5 287.5 368.5 287.5Z" fill="#BDC5D1"/>
<path d="M368.5 331.5H702.5C707.5 331.5 711.5 335.5 711.5 340.5C711.5 345.5 707.5 349.5 702.5 349.5H368.5C363.5 349.5 359.5 345.5 359.5 340.5C359.5 335.5 363.5 331.5 368.5 331.5Z" fill="#BDC5D1"/>
<path d="M312 258.7L338.5 232.8V288.9C338.5 289.8 337.4 290.2 336.8 289.6L312 265.3C310.1 263.5 310.1 260.5 312 258.7Z" fill="white" stroke="#BDC5D1" stroke-width="4"/>
</svg>
