<svg xmlns="http://www.w3.org/2000/svg" width="80" height="80" fill="none" xmlns:v="https://vecta.io/nano"><path fill="#5d3cf2" fill-opacity=".1" d="M0 0h80v80H0z"/><g clip-path="url(#A)" fill="#5d3cf2"><path d="M19.5529 54.5222c.8546 0 1.657-.2976 2.2906-.835 1.1116.4954 2.3169.7767 3.5385.8263v3.6991c-5.1009 2.0201-7.5889 4.0233-7.7123 4.124-.307.2508-.4229.6675-.2898 1.041s.4867.6225.883.6225h25.3223c.5178 0 .9375-.4197.9375-.9375s-.4197-.9375-.9375-.9375H21.4547c1.0097-.5624 2.3189-1.219 3.9338-1.8903.053.4675.4493.831.931.831.5178 0 .9375-.4197.9375-.9375v-.6225c6.967-2.5477 14.4578-3.5468 21.8502-3.5933 4.6234-.0288 9.2476.3206 13.8253.9622.5537.0776 1.0676-.3686 1.0676-.9287V20.8086c0-.5178-.4197-.9375-.9375-.9375H48.6062c-.5177 0-.9375.4197-.9375.9375v33.2507l-2.3859.0895V31.692c0-.5178-.4197-.9375-.9375-.9375h-2.5931v-1.9884c0-.5178-.4197-.9375-.9375-.9375h-6.5259c-.5178 0-.9375.4197-.9375.9375v1.9884h-2.5932c-.5178 0-.9375.4197-.9375.9375v4.4469c-1.2319-.5728-2.604-.8933-4.0497-.8933-5.3146 0-9.6383 4.3238-9.6383 9.6384 0 1.3011.2534 2.5556.7542 3.7387-.5645.6428-.8868 1.477-.8868 2.3466 0 1.9591 1.5938 3.5529 3.5529 3.5529h0zm9.2752 2.4691c-.5445.1719-1.0677.3465-1.5711.5228v-3.107c.8869-.138 1.7495-.3997 2.5636-.7769v3.0594l-.9925.3017h0zm20.8094-2.9565h-.0938v-3.56H62.125v4.3987c-4.1391-.5377-8.3128-.8387-12.4875-.8387h0zM62.125 21.7461v26.8537H49.5437V21.7461H62.125zM31.6956 32.6295h2.5932c.5177 0 .9375-.4197.9375-.9375v-1.9884h4.6509v1.9884c0 .5178.4197.9375.9375.9375h2.5931v21.6391c-3.9467.304-7.8781.911-11.7122 1.9019v-2.2099c1.828.4163 3.7781-.2384 4.9871-1.6718h3.7925c.5178 0 .9375-.4197.9375-.9375s-.4197-.9375-.9375-.9375h-2.795c.1239-.4372.1917-.8978.1917-1.3743 0-.6725-.1334-1.3235-.3801-1.9221h2.9834c.5178 0 .9375-.4197.9375-.9375s-.4197-.9375-.9375-.9375h-4.326c-.2286-.2003-.4762-.3814-.7416-.5395-.0174-.9346-.1711-1.867-.4567-2.7571h5.5243c.5178 0 .9375-.4197.9375-.9375s-.4197-.9375-.9375-.9375h-5.9751c-.1214 0-.2371.0239-.3436.0659-.6222-1.1007-1.4641-2.0772-2.4609-2.8549v-4.6523zM18.8599 48.419c-.5656-1.1033-.8523-2.2926-.8523-3.535 0-4.2808 3.4826-7.7634 7.7633-7.7634 4.3614 0 7.9449 3.7586 7.7544 8.1079-.016.3636.1797.7012.4976.8695.85.4507 1.5161 1.0251 1.8216 1.9728.3283 1.0179.1078 2.1609-.573 2.9856-1.0734 1.3001-3.0421 1.5261-4.3774.4997-.3085-.2371-.7312-.2591-1.0626-.0553-.7937.4883-1.6659.8256-2.5745 1.0023v-.9884-4.5938c0-.5205.2027-1.0099.5709-1.3781l.8373-.8373c.3661-.3661.3661-.9598 0-1.3259s-.9597-.3661-1.3259 0l-.8373.8373c-.7223.7223-1.12 1.6826-1.12 2.7039v.8889l-1.3512-1.3511c-.3661-.3661-.9597-.3661-1.3258 0s-.3661.9597 0 1.3258l1.9321 1.9321c.4804.4803.7448 1.1189.7448 1.7982v1.1218c-1.1526-.0579-2.2844-.3716-3.295-.9177-.4029-.2178-.9182-.1052-1.1938.2599-.3207.4248-.8093.6684-1.3402.6684-.9252 0-1.6779-.7527-1.6779-1.6779 0-.5374.2613-1.0466.6989-1.3621.3758-.2709.4974-.7758.286-1.1881h0zm44.2004 13.706H51.8281c-.5178 0-.9375.4197-.9375.9375s.4197.9375.9375.9375h11.2322c.5178 0 .9375-.4197.9375-.9375s-.4197-.9375-.9375-.9375zM26.3082 16c-1.5619 0-2.982.7932-3.8039 2.0747-.1366-.0162-.2747-.0244-.4136-.0244-1.9282 0-3.4969 1.5687-3.4969 3.497s1.5687 3.497 3.4969 3.497h11.2039c.5178 0 .9375-.4198.9375-.9375s-.4197-.9375-.9375-.9375h-3.3234c.5397-.7448.8591-1.6591.8591-2.6472 0-2.4934-2.0287-4.5221-4.5221-4.5221h0zm-5.8395 5.5474c0-.8944.7275-1.622 1.6219-1.622.1969 0 .3896.0352.573.1044.4735.1788 1.0039-.0506 1.1976-.5186.4113-.9939 1.3717-1.6362 2.447-1.6362 1.4596 0 2.6471 1.1875 2.6471 2.6471s-1.1876 2.6472-2.6471 2.6472h-4.2176c-.8944 0-1.6219-.7276-1.6219-1.6219h0zM34.5 36.7734h5.9752c.5177 0 .9375-.4197.9375-.9375s-.4198-.9375-.9375-.9375H34.5c-.5178 0-.9375.4198-.9375.9375s.4197.9375.9375.9375zm17.8555-6.6373h7.1369c.5178 0 .9375-.4197.9375-.9375v-3.5433c0-.5178-.4197-.9375-.9375-.9375h-7.1369c-.5178 0-.9375.4197-.9375.9375v3.5433c0 .5178.4197.9375.9375.9375h0zm.9375-3.5433h5.2619v1.6683H53.293v-1.6683zm-.9375 11.4096h7.1369c.5178 0 .9375-.4198.9375-.9375v-3.5434c0-.5178-.4197-.9375-.9375-.9375h-7.1369c-.5178 0-.9375.4197-.9375.9375v3.5434c0 .5177.4197.9375.9375.9375zm.9375-3.5434h5.2619v1.6684H53.293V34.459zm-.9375 11.4096h7.1369c.5178 0 .9375-.4198.9375-.9375v-3.5434c0-.5178-.4197-.9375-.9375-.9375h-7.1369c-.5178 0-.9375.4197-.9375.9375v3.5434c0 .5177.4197.9375.9375.9375zm.9375-3.5434h5.2619v1.6684H53.293v-1.6684zM37.3679 23.1878c-.4012.0815-.708.4196-.7499.827s.1993.8025.5746.958c.3684.1528.8084.0493 1.0682-.254.2523-.2947.2973-.722.1119-1.0626-.1926-.3534-.6098-.5486-1.0048-.4684h0zm9.5567 40.3951c.4545.6935 1.5613.4513 1.7027-.3602.1497-.8593-.9079-1.4385-1.5533-.8546-.34.3078-.4031.8341-.1494 1.2148h0z"/></g><defs><clipPath id="A"><path fill="#fff" transform="translate(16 16)" d="M0 0h48v48H0z"/></clipPath></defs></svg>