<svg xmlns="http://www.w3.org/2000/svg" width="80" height="80" fill="none" xmlns:v="https://vecta.io/nano"><path fill="#07c98b" fill-opacity=".1" d="M0 0h80v80H0z"/><g clip-path="url(#A)" fill="#07c98b"><path d="M63.0596 53.5898c-7.8296 0-15.5141 3.2117-21.0835 8.8114-.3654.3674-.3636.961.0033 1.3257.1831.182.4219.2729.6614.2729s.4812-.092.6647-.2762c5.22-5.2485 12.42-8.2588 19.7541-8.2588.5179 0 .9375-.4196.9375-.9375s-.4196-.9375-.9375-.9375h0zm-19.547-.8683c-.2901-.4292-.8727-.542-1.3015-.252-4.0089 2.7078-7.3946 6.0959-10.0635 10.0701-.2886.4299-.1743 1.0125.2556 1.3011.1608.1077.342.1593.5218.1593.3018 0 .5984-.1457.7793-.4149 2.5335-3.7731 5.7485-6.9902 9.5563-9.5621.4289-.2897.5417-.8723.252-1.3015zm19.5517-6.6785c-4.1913 0-8.3397.7159-12.33 2.128-.4881.1725-.7437.7083-.5709 1.1964.1359.3849.4977.6252.8837.6252.1036 0 .2091-.0176.3127-.0542 3.7888-1.3407 7.7267-2.0204 11.7045-2.0204.5178 0 .9375-.4197.9375-.9375s-.4197-.9375-.9375-.9375h0zm-33.632 11.5237C35.6 49.5251 44.5282 43.9414 54.38 41.8489c.0018-.0004.0037-.0007.0051-.0011 2.8312-.6009 5.7378-.9141 8.6774-.9141.5175 0 .9375-.42.9375-.9375s-.42-.9375-.9375-.9375c-2.6656 0-5.321.2439-7.9314.7211v-2.0237c3.3886-2.8685 5.2485-6.6273 5.2485-10.63 0-4.1385-1.9881-8.0163-5.5986-10.9193-.3431-.2757-.832-.2757-1.1752 0-3.6101 2.903-5.5986 6.7808-5.5986 10.9193 0 4.0027 1.8604 7.7615 5.2485 10.63v2.4071c-1.7812.4054-3.5368.9222-5.2558 1.5444v-5.4892c0-.2578-.104-.4911-.2725-.6606v-.0004l-5.25-5.2811c-.1761-.1769-.4153-.2765-.665-.2765H31.0938c-.2494 0-.4889.0996-.6647.2765l-5.25 5.2811v.0004c-.1685.1695-.2729.4028-.2729.661v3.5801c-.6533-.1198-1.3095-.2253-1.9687-.3153v-3.3421c2.5624-2.2042 3.9683-5.079 3.9683-8.1416 0-3.1996-1.5337-6.1944-4.3184-8.4338-.3431-.2758-.8317-.2758-1.1748 0-2.7847 2.239-4.3184 5.2342-4.3184 8.4338 0 3.0623 1.4059 5.937 3.9683 8.1412v3.1268c-1.3671-.1279-2.7433-.1938-4.125-.1938-.5178 0-.9375.4197-.9375.9375s.4197.9375.9375.9375c7.4963 0 14.8286 1.9834 21.2926 5.7462-1.5487 1.0525-3.0278 2.2021-4.4282 3.4395-5.2372-2.6682-11.0563-4.0763-16.8644-4.0763-.5175 0-.9375.4197-.9375.9375s.42.9375.9375.9375c5.2848 0 10.5802 1.229 15.3911 3.5629-1.4253 1.3788-2.7576 2.8539-3.9869 4.4132-3.6468-1.5293-7.4795-2.3042-11.4042-2.3042-.5175 0-.9375.4197-.9375.9375s.42.9375.9375.9375c3.5156 0 6.9529.6665 10.2363 1.979-.6478.9001-1.2634 1.8248-1.8424 2.774l-1.4286 2.3405c-.2699.4416-.13 1.0188.3117 1.2883.1527.0934.3211.1377.4878.1377.3156 0 .6244-.16.8009-.4493l1.4286-2.3405c.7448-1.2206 1.5498-2.395 2.4078-3.5226.0337-.0373.0652-.0772.0927-.1208h0zm20.4503-30.4406c0-3.3321 1.5245-6.4885 4.311-8.9619 2.7865 2.4734 4.311 5.6298 4.311 8.9619 0 2.9363-1.185 5.7367-3.3735 8.053v-7.1792c0-.5178-.4197-.9375-.9375-.9375s-.9375.4197-.9375.9375v7.1792c-2.1888-2.3163-3.3735-5.1167-3.3735-8.053zm-30.9134.8738c0-2.3913 1.0705-4.6626 3.0308-6.4673 1.9603 1.8043 3.0308 4.076 3.0308 6.4673 0 1.9764-.7321 3.8712-2.0933 5.4884v-6.2384c0-.5178-.4197-.9375-.9375-.9375s-.9375.4197-.9375.9375v6.2384c-1.3612-1.6172-2.0933-3.512-2.0933-5.4884zm25.8395 7.281h-8.0749l-3.386-3.4061h8.0749l3.386 3.4061zM31.0938 32.267l2.9963 3.0139h-5.9923l2.996-3.0139zm-4.3126 4.8889h8.625v5.9619c-.4346-.1999-.8719-.3933-1.3124-.579v-3.1486c0-.5175-.4197-.9375-.9376-.9375h-4.125c-.5174 0-.9374.42-.9374.9375v1.1147l-1.3126-.3215v-3.0275zm5.4376 4.6432c-.7435-.2739-1.4935-.5281-2.25-.7613v-.7101h2.25v1.4714zm5.0624 2.2361v-6.8793h8.844v5.2793c-1.6058.6654-3.175 1.4249-4.6962 2.2789-.4864.2729-.9668.5563-1.4418.8471-.8862-.5413-1.7886-1.0503-2.706-1.526h0zM54.1953 25.375c.2465 0 .4885-.1003.6629-.275s.2746-.416.2746-.6625-.1-.4885-.2746-.6628-.4164-.2747-.6629-.2747-.4885.1-.6625.2747-.275.416-.275.6628.1004.4882.275.6625.4161.275.6625.275zm-8.1394 24.8688c-.1739.1743-.2747.416-.2747.6624s.1004.4886.2747.6629.4164.2747.6629.2747.4885-.1.6628-.2747.2746-.4153.2746-.6629-.1003-.4881-.2746-.6624-.416-.275-.6628-.275-.4882.1003-.6629.275z"/></g><defs><clipPath id="A"><path fill="#fff" transform="translate(16 16)" d="M0 0h48v48H0z"/></clipPath></defs></svg>