<svg xmlns="http://www.w3.org/2000/svg" width="80" height="80" fill="none" xmlns:v="https://vecta.io/nano"><path fill="#fdbc31" fill-opacity=".1" d="M0 0h80v80H0z"/><g clip-path="url(#A)" fill="#fdbc31"><path d="M62.1378 40.668C63.9834 38.822 65 36.3684 65 33.7588c0-.7019-.2731-1.3615-.7694-1.8578s-1.1559-.7694-1.8574-.7694h-3.9169c-.7019 0-1.3615.2731-1.8578.7694l-7.2666 7.2666c-.1274.1278-.2968.198-.4768.198h-.002c-.1808-.0007-.3501-.0717-.4772-.1999l-3.3863-3.4237c-.4905-.4951-1.1715-.7793-1.8673-.7793h-4.4445l2.797-3.9051c.8819-1.5282 1.3107-2.9793 1.3107-4.4369 0-4.5769-3.7235-8.3004-8.3008-8.3004-3.6129 0-6.8764 2.4101-7.9357 5.8609-.626 2.0386-.4276 4.3015.5444 6.2096.3616.7099.8293 1.3351 1.2813 1.9394l.938 1.2817-10.968-3.1189c-.7995-.2266-1.6388-.0694-2.3018.4318S15 32.1894 15 33.0202v7.7061c0 1.5595.2316 3.1124.6889 4.6154.1278.4212.515.6924.9339.6924.0938 0 .1896-.0134.2845-.0424.5158-.1567.8072-.7022.6501-1.2184-.401-1.3183-.6043-2.6802-.6043-4.047v-7.7061c0-.2918.1675-.4619.2674-.5374.1702-.1286.3857-.169.5906-.1111l13.3602 3.7995 2.5238 3.474c.1838.2526.4772.4021.7896.4021h.0004c.3128-.0004.6061-.1503.7896-.4032l1.9802-2.7283h5.867c.1786 0 .3537.0733.4796.2003l3.3859 3.4229c.4955.5009 1.1562.7775 1.8604.7794h.0073c.7015 0 1.361-.2732 1.8577-.7698l7.2666-7.2667c.1255-.1251.2991-.1972.4765-.1972h3.9169c.1801 0 .3494.0702.4765.1976s.1976.296.1976.4761c0 2.0882-.8133 4.0516-2.2904 5.5283l-3.6934 3.6945c-1.0242 1.0242-1.0242 2.6905 0 3.7151l1.0392 1.0391c.2628.2625.2624.6909 0 .9537l-2.3789 2.3781c-.4963.4959-.7694 1.1559-.7694 1.8578s.2731 1.3618.7694 1.8581l3.8475 3.8467c.1332.1328.2007.2892.2007.4647 0 .2845-.2102.6855-.6771.6855-.1797 0-.3491-.0702-.4765-.1973l-3.9127-3.9119c-.4963-.4963-1.1559-.7694-1.8578-.7694h-4.3884c-.7019 0-1.3615.2731-1.8578.7694l-1.1699 1.1696c-.1252.1255-.2987.1976-.4761.1976h-1.2432c-.7019 0-1.3615.2731-1.8578.7694l-1.8974 1.8974c-.2628.2629-.6901.2629-.9529 0l-1.994-1.9932c-.4898-.4894-1.1665-.7701-1.8577-.7701h-1.5282c-.1774 0-.3509-.0721-.4764-.1976l-3.0117-3.0118c-.4963-.4962-1.1559-.7694-1.8574-.7694h-4.5552c-.177 0-.3509-.0717-.4764-.1972l-1.0986-1.0986c-.3811-.3815-.9995-.3815-1.381 0s-.3814.9994 0 1.3809l1.0987 1.0986c.4963.4963 1.1558.7694 1.8573.7694h4.5548c.1774 0 .351.0721.4765.1976l3.0117 3.0118c.4962.4962 1.1558.7694 1.8577.7694h1.5282c.1766 0 .3502.0721.4764.1983l1.994 1.9932c.5123.512 1.1848.7679 1.8577.7679s1.3455-.2559 1.8574-.7679l1.8974-1.8974c.1255-.1255.2991-.1976.4765-.1976h1.2432c.7019 0 1.3615-.2731 1.8578-.7694l1.1696-1.1696c.1255-.1255.2994-.1976.4764-.1976h4.3888c.1774 0 .351.0721.4765.1976l3.9131 3.912c.4963.4962 1.1558.7694 1.8574.7694 1.4503 0 2.6298-1.1837 2.6298-2.6387 0-.6923-.2743-1.3477-.7725-1.8459l-3.8475-3.8467c-.1274-.1271-.1972-.2964-.1972-.4769s.0702-.3498.1972-.4768l2.3796-2.3785c1.0235-1.025 1.0231-2.6916-.0007-3.7155l-1.0391-1.0391c-.2625-.2628-.2625-.6901 0-.9529l3.6937-3.6945zm-27.6535-3.2593l-5.6507-7.9045c-.7438-1.4602-.8961-3.1913-.4177-4.7493.8103-2.6386 3.3058-4.4815 6.0688-4.4815 3.5 0 6.3477 2.8477 6.3477 6.3477 0 1.1204-.3334 2.2201-1.0491 3.4603-.5531.9583-5.299 7.3273-5.299 7.3273h0zm4.1856-10.9915c0-2.3064-1.876-4.1828-4.1824-4.1828s-4.1828 1.8764-4.1828 4.1828 1.8764 4.1824 4.1828 4.1824 4.1824-1.876 4.1824-4.1824zm-4.1824 2.2293c-1.2295 0-2.2297-1.0002-2.2297-2.2293s1.0002-2.2297 2.2297-2.2297 2.2293 1.0002 2.2293 2.2297-.9998 2.2293-2.2293 2.2293zm-2.684 18.7253h.0057c.2625 0 .5139-.1057.6977-.2934l1.458-1.4889c.3773-.3852.3708-1.0036-.0149-1.3809s-1.0036-.3708-1.3809.0145l-.7523.7683-.7286-.7606c-.373-.3895-.9914-.4029-1.3809-.0298s-.4028.9911-.0297 1.3805l1.4263 1.4893c.1827.1911.4352.2994.6996.301zm10.9727 5.8597h.0053c.2624 0 .5142-.106.6981-.2933l1.458-1.4893c.3772-.3853.3708-1.0036-.0149-1.3809s-1.0033-.3708-1.3809.0145l-.7523.7687-.729-.7611c-.3731-.3895-.991-.4028-1.3805-.0297s-.4029.9914-.0298 1.3809l1.426 1.4889c.1831.1911.4356.2998.7.3013h0zm7.1244-3.772c.1827.1911.4353.2998.7.3009h.0054c.2624 0 .5138-.1056.6977-.2933l1.4579-1.4889c.3773-.3857.3708-1.0036-.0145-1.3809s-1.0036-.3708-1.3809.0145l-.7526.7683-.7286-.7607c-.3731-.3895-.9915-.4028-1.3809-.0297s-.4029.991-.0298 1.3805l1.4263 1.4893zm-30.5047-.8352c-.2045-.491-.7832-.7321-1.2753-.5284s-.7324.784-.5283 1.2757.7835.7324 1.2753.5279.7331-.7839.5283-1.2752h0z"/></g><defs><clipPath id="A"><path fill="#fff" transform="translate(15 15)" d="M0 0h50v50H0z"/></clipPath></defs></svg>