<svg xmlns="http://www.w3.org/2000/svg" width="32" height="32" fill="none" xmlns:v="https://vecta.io/nano"><g clip-path="url(#B)"><path d="M25.126 0c-3.791 0-6.875 2.87-6.875 6.398a6.1 6.1 0 0 0 1.015 3.347l-.924 2.286a1.25 1.25 0 0 0 1.159 1.719 1.25 1.25 0 0 0 .504-.106l2.789-1.23c.695.221 1.463.329 2.331.329 1.814 0 3.524-.642 4.813-1.809 1.327-1.2 2.059-2.813 2.061-4.545C31.995 2.866 28.911 0 25.126 0zm0 10.243c-.752 0-1.368-.107-1.883-.326a1.25 1.25 0 0 0-.995.006l-.434.191.034-.084a1.25 1.25 0 0 0-.208-1.279c-.582-.682-.889-1.496-.889-2.353 0-2.15 1.962-3.898 4.375-3.898s4.372 1.747 4.375 3.89c-.003 2.125-1.966 3.854-4.375 3.854zm4.922 17.383c.225 1.076-.043 2.182-.736 3.034S27.593 32 26.494 32H3.632c-1.099 0-2.126-.488-2.818-1.34s-.961-1.958-.736-3.034c.707-3.38 2.578-6.456 5.269-8.661 1.44-1.18 3.082-2.08 4.832-2.666A8.07 8.07 0 0 1 7 9.875c0-4.446 3.597-8.062 8.019-8.062a6.91 6.91 0 0 1 .353.009 1.25 1.25 0 1 1-.118 2.497 4.46 4.46 0 0 0-.235-.006c-3.043 0-5.518 2.495-5.518 5.563s2.476 5.563 5.519 5.563c.141 0 .275.024.401.067 4.977.115 9.578 2.623 12.363 6.761a1.25 1.25 0 1 1-2.074 1.396C23.323 20.116 19.343 18 15.063 18c-6.037 0-11.31 4.264-12.538 10.138a1.13 1.13 0 0 0 .229.946c.126.155.408.416.878.416h22.862c.47 0 .752-.261.878-.416.216-.265.299-.61.229-.946a1.25 1.25 0 0 1 2.447-.511z" fill="url(#A)"/></g><defs><linearGradient id="A" x1="0" y1="16.077" x2="32" y2="16.077" gradientUnits="userSpaceOnUse"><stop stop-color="#6366f1"/><stop offset=".5" stop-color="#8b5cf6"/><stop offset="1" stop-color="#d946ef"/></linearGradient><clipPath id="B"><path fill="#fff" d="M0 0h32v32H0z"/></clipPath></defs></svg>