<svg xmlns="http://www.w3.org/2000/svg" width="32" height="32" fill="none" xmlns:v="https://vecta.io/nano"><g clip-path="url(#C)"><path d="M22.75 10.753a2 2 0 0 0 0-4 2 2 0 0 0 0 4z" fill="url(#A)"/><path d="M31.655 10.371c-.668-1.7-1.892-4.152-3.932-6.183-2.033-2.024-4.46-3.213-6.137-3.854-1.841-.704-3.934-.26-5.331 1.13L11.346 6.35c-1.455 1.448-1.874 3.677-1.044 5.545l.837 1.694L.366 24.362a1.25 1.25 0 0 0-.366.884v5.5a1.25 1.25 0 0 0 1.25 1.25h5.5A1.25 1.25 0 0 0 8 30.746v-2.25h2.25a1.25 1.25 0 0 0 1.25-1.25v-2.25h2.25a1.25 1.25 0 1 0 0-2.5h-3.5A1.25 1.25 0 0 0 9 23.746v2.25H6.75a1.25 1.25 0 0 0-1.25 1.25v2.25h-3v-3.732l11.085-11.085a1.25 1.25 0 0 0 .185-1.532c-.433-.714-.831-1.477-1.183-2.268a2.49 2.49 0 0 1 .523-2.757l4.909-4.886a2.52 2.52 0 0 1 2.675-.567c1.451.555 3.543 1.576 5.266 3.291 1.733 1.725 2.789 3.848 3.369 5.325a2.48 2.48 0 0 1-.56 2.668L23.8 18.898c-.723.72-1.803.93-2.751.536a16.23 16.23 0 0 1-2.25-1.148 1.25 1.25 0 1 0-1.308 2.131c.822.505 1.696.95 2.598 1.325a5.01 5.01 0 0 0 5.475-1.073l4.968-4.944a4.98 4.98 0 0 0 1.124-5.354z" fill="url(#B)"/></g><defs><linearGradient id="A" x1="20.75" y1="8.763" x2="24.75" y2="8.763" gradientUnits="userSpaceOnUse"><stop stop-color="#6366f1"/><stop offset=".5" stop-color="#8b5cf6"/><stop offset="1" stop-color="#d946ef"/></linearGradient><linearGradient id="B" x1="0" y1="16.077" x2="32" y2="16.077" gradientUnits="userSpaceOnUse"><stop stop-color="#6366f1"/><stop offset=".5" stop-color="#8b5cf6"/><stop offset="1" stop-color="#d946ef"/></linearGradient><clipPath id="C"><path fill="#fff" d="M0 0h32v32H0z"/></clipPath></defs></svg>