<svg width="120" height="120" viewBox="0 0 120 120" fill="none" xmlns="http://www.w3.org/2000/svg">
<path d="M75.4163 98.8357H54.5449C54.081 98.8357 53.7031 98.4578 53.7031 97.994C53.7031 96.8288 54.6479 95.8811 55.816 95.8811H74.1451C75.3104 95.8811 76.258 96.8259 76.258 97.994C76.258 98.4578 75.8801 98.8357 75.4163 98.8357Z" fill="#00684A"/>
<path d="M71.5897 95.8811H58.3711L59.857 87.2319H70.1066L71.5897 95.8811Z" fill="#24473D"/>
<path d="M100.16 87.2141H30.4736C29.108 87.2141 28 86.1061 28 84.7405V42.4737C28 41.108 29.108 40 30.4736 40H100.157C101.522 40 102.63 41.108 102.63 42.4737V84.7405C102.63 86.1061 101.525 87.2141 100.16 87.2141Z" fill="#00684A"/>
<path d="M99.0514 79.4732H30.9115C30.4334 79.4732 30.0469 79.0866 30.0469 78.6085V43.2531C30.0469 42.7749 30.4334 42.3884 30.9115 42.3884H99.0514C99.5295 42.3884 99.9161 42.7749 99.9161 43.2531V78.6057C99.9161 79.0838 99.5295 79.4732 99.0514 79.4732Z" fill="#0AAD0A"/>
<path d="M67.1347 83.8471C67.416 82.6561 66.6784 81.4625 65.4874 81.1813C64.2963 80.9 63.1028 81.6376 62.8215 82.8286C62.5403 84.0197 63.2778 85.2132 64.4689 85.4945C65.6599 85.7757 66.8535 85.0382 67.1347 83.8471Z" fill="#24473D"/>
<path d="M60.0489 68.4019H69.8462C70.4474 68.4019 70.9341 67.9152 70.9341 67.3139V53.3338C70.9341 52.7326 70.4474 52.2458 69.8462 52.2458H60.0489C59.4477 52.2458 58.9609 52.7326 58.9609 53.3338V67.3139C58.9609 67.9152 59.4477 68.4019 60.0489 68.4019Z" fill="#45C945"/>
<path d="M67.752 66.7843H62.1433C61.6967 66.7843 61.3359 66.4236 61.3359 65.9769C61.3359 65.5303 61.6967 65.1696 62.1433 65.1696H67.752C68.1986 65.1696 68.5593 65.5303 68.5593 65.9769C68.5593 66.4236 68.1957 66.7843 67.752 66.7843Z" fill="#088F08"/>
<path d="M67.0043 57.5282H63.1334C62.9387 57.5282 62.7812 57.3707 62.7812 57.176V57.1617C62.7812 56.967 62.9387 56.8096 63.1334 56.8096H67.0043C67.199 56.8096 67.3564 56.967 67.3564 57.1617V57.176C67.3592 57.3707 67.199 57.5282 67.0043 57.5282Z" fill="#EABC49"/>
<path d="M67.123 57.8603H66.7651V57.5282H63.3753V57.8603H63.0174C62.7369 57.8603 62.5078 58.0893 62.5078 58.3699V63.2342C62.5078 63.5148 62.7369 63.7438 63.0174 63.7438H67.1259C67.4064 63.7438 67.6355 63.5148 67.6355 63.2342V58.3699C67.6326 58.0893 67.4036 57.8603 67.123 57.8603Z" fill="#D7513E"/>
<path d="M67.123 63.7467C67.4036 63.7467 67.6326 63.5177 67.6326 63.2371V58.7278C67.5267 58.725 67.4208 58.7336 67.3177 58.7536C66.9684 58.8223 66.6449 58.9941 66.3128 59.1258C65.9807 59.2575 65.6142 59.3548 65.2678 59.2689C64.8698 59.1687 64.5434 58.8395 64.134 58.808C63.8992 58.788 63.6673 58.8738 63.4469 58.9597C63.2264 59.0456 63.0003 59.1401 62.7655 59.143C62.6796 59.143 62.588 59.1287 62.5078 59.0972V63.24C62.5078 63.5205 62.7369 63.7496 63.0174 63.7496H67.123V63.7467Z" fill="#2B5B4F"/>
<path d="M65.0662 61.9344C66.0908 61.9344 66.9214 61.4281 66.9214 60.8035C66.9214 60.1789 66.0908 59.6726 65.0662 59.6726C64.0416 59.6726 63.2109 60.1789 63.2109 60.8035C63.2109 61.4281 64.0416 61.9344 65.0662 61.9344Z" fill="#EABC49"/>
<path d="M70.3329 71.5856H59.5564C59.2272 71.5856 58.9609 71.3193 58.9609 70.99C58.9609 70.6608 59.2272 70.3945 59.5564 70.3945H70.3329C70.6621 70.3945 70.9284 70.6608 70.9284 70.99C70.9312 71.3193 70.6621 71.5856 70.3329 71.5856Z" fill="#097609"/>
<path d="M70.3329 74.0448H59.5564C59.2272 74.0448 58.9609 73.7785 58.9609 73.4493C58.9609 73.12 59.2272 72.8538 59.5564 72.8538H70.3329C70.6621 72.8538 70.9284 73.12 70.9284 73.4493C70.9312 73.7785 70.6621 74.0448 70.3329 74.0448Z" fill="#097609"/>
<path d="M87.9033 71.5856H77.1269C76.7976 71.5856 76.5312 71.3193 76.5312 70.99C76.5312 70.6608 76.7976 70.3945 77.1269 70.3945H87.9033C88.2325 70.3945 88.4988 70.6608 88.4988 70.99C88.4988 71.3193 88.2325 71.5856 87.9033 71.5856Z" fill="#097609"/>
<path d="M87.9033 74.0448H77.1269C76.7976 74.0448 76.5312 73.7785 76.5312 73.4493C76.5312 73.12 76.7976 72.8538 77.1269 72.8538H87.9033C88.2325 72.8538 88.4988 73.12 88.4988 73.4493C88.4988 73.7785 88.2325 74.0448 87.9033 74.0448Z" fill="#097609"/>
<path d="M52.2758 68.4019H42.4786C41.8773 68.4019 41.3906 67.9152 41.3906 67.3139V53.3338C41.3906 52.7326 41.8773 52.2458 42.4786 52.2458H52.2758C52.8771 52.2458 53.3638 52.7326 53.3638 53.3338V67.3139C53.3609 67.9152 52.8742 68.4019 52.2758 68.4019Z" fill="#45C945"/>
<path d="M50.1817 66.7843H44.573C44.1264 66.7843 43.7656 66.4236 43.7656 65.9769C43.7656 65.5303 44.1264 65.1696 44.573 65.1696H50.1817C50.6283 65.1696 50.989 65.5303 50.989 65.9769C50.989 66.4236 50.6283 66.7843 50.1817 66.7843Z" fill="#088F08"/>
<path d="M46.1073 55.6385C44.0546 56.9069 43.419 59.601 44.6902 61.6538C45.9585 63.7065 48.6526 64.3421 50.7054 63.071L46.1073 55.6385Z" fill="#2B5B4F"/>
<path d="M46.5039 56.2799C44.8061 57.3306 44.2793 59.5581 45.33 61.2558C46.3808 62.9536 48.6082 63.4804 50.306 62.4297L46.5039 56.2799Z" fill="#D7513E"/>
<path d="M46.5058 57.677C46.3798 57.7543 46.2452 57.7686 46.2052 57.7056C46.1679 57.6427 46.2395 57.5281 46.3655 57.4508C46.4915 57.3735 46.626 57.3592 46.6661 57.4222C46.7033 57.4852 46.6317 57.5997 46.5058 57.677Z" fill="black"/>
<path d="M45.8144 59.1113C45.6884 59.1887 45.5538 59.203 45.5137 59.14C45.4765 59.077 45.5481 58.9625 45.6741 58.8852C45.8001 58.8079 45.9346 58.7935 45.9747 58.8565C46.0119 58.9195 45.9403 59.0312 45.8144 59.1113Z" fill="black"/>
<path d="M47.0526 59.4148C46.9267 59.4921 46.7921 59.5064 46.752 59.4434C46.7148 59.3805 46.7864 59.2659 46.9124 59.1886C47.0383 59.1113 47.1729 59.097 47.213 59.16C47.2502 59.2201 47.1786 59.3346 47.0526 59.4148Z" fill="black"/>
<path d="M46.1112 60.8263C45.9853 60.9036 45.8507 60.9179 45.8106 60.8549C45.7734 60.792 45.845 60.6774 45.971 60.6001C46.0969 60.5228 46.2315 60.5085 46.2716 60.5715C46.3088 60.6316 46.2372 60.7461 46.1112 60.8263Z" fill="black"/>
<path d="M47.5917 61.001C47.4657 61.0783 47.3312 61.0926 47.2911 61.0296C47.2539 60.9666 47.3254 60.8521 47.4514 60.7748C47.5774 60.6975 47.7119 60.6832 47.752 60.7462C47.7892 60.8092 47.7177 60.9208 47.5917 61.001Z" fill="black"/>
<path d="M49.0683 62.0661C48.9423 62.1434 48.8077 62.1577 48.7677 62.0947C48.7304 62.0317 48.802 61.9172 48.928 61.8399C49.054 61.7626 49.1885 61.7483 49.2286 61.8112C49.2687 61.8742 49.1971 61.9859 49.0683 62.0661Z" fill="black"/>
<path d="M47.5058 62.2121C47.3798 62.2894 47.2452 62.3037 47.2052 62.2407C47.1679 62.1777 47.2395 62.0632 47.3655 61.9859C47.4915 61.9086 47.626 61.8943 47.6661 61.9572C47.7033 62.0174 47.6317 62.1319 47.5058 62.2121Z" fill="black"/>
<path d="M52.7626 71.5856H41.9861C41.6569 71.5856 41.3906 71.3193 41.3906 70.99C41.3906 70.6608 41.6569 70.3945 41.9861 70.3945H52.7626C53.0918 70.3945 53.3581 70.6608 53.3581 70.99C53.3581 71.3193 53.0918 71.5856 52.7626 71.5856Z" fill="#097609"/>
<path d="M52.7626 74.0448H41.9861C41.6569 74.0448 41.3906 73.7785 41.3906 73.4493C41.3906 73.12 41.6569 72.8538 41.9861 72.8538H52.7626C53.0918 72.8538 53.3581 73.12 53.3581 73.4493C53.3581 73.7785 53.0918 74.0448 52.7626 74.0448Z" fill="#097609"/>
<path d="M77.6153 68.4019H87.4126C88.0138 68.4019 88.5005 67.9152 88.5005 67.3139V53.3338C88.5005 52.7326 88.0138 52.2458 87.4126 52.2458H77.6153C77.0141 52.2458 76.5273 52.7326 76.5273 53.3338V67.3139C76.5273 67.9152 77.0141 68.4019 77.6153 68.4019Z" fill="#45C945"/>
<path d="M85.3184 66.7843H79.7097C79.2631 66.7843 78.9023 66.4236 78.9023 65.9769C78.9023 65.5303 79.2631 65.1696 79.7097 65.1696H85.3184C85.765 65.1696 86.1257 65.5303 86.1257 65.9769C86.1257 66.4236 85.765 66.7843 85.3184 66.7843Z" fill="#088F08"/>
<path d="M84.4474 55.9277C82.512 55.0001 78.4465 62.4955 80.7655 63.6092C83.0874 64.72 86.3828 56.8553 84.4474 55.9277Z" fill="#D7513E"/>
<path d="M84.6407 57.7858C84.5348 57.4423 84.2943 57.1445 83.9479 56.9785C83.5986 56.8124 83.2149 56.8124 82.8828 56.9441L84.6407 57.7858Z" fill="#EB8F48"/>
<path d="M82.336 62.5956C82.2301 62.2521 81.9896 61.9543 81.6432 61.7883C81.2967 61.6222 80.9102 61.6222 80.5781 61.7539L82.336 62.5956Z" fill="#EB8F48"/>
<path d="M84.2231 59.0627C84.1 58.659 83.8137 58.304 83.4043 58.1065C82.992 57.9089 82.5396 57.9089 82.1445 58.0664L84.2231 59.0627Z" fill="#EB8F48"/>
<path d="M83.0317 61.5421C82.9086 61.1384 82.6223 60.7834 82.2129 60.5858C81.8006 60.3883 81.3482 60.3883 80.9531 60.5458L83.0317 61.5421Z" fill="#EB8F48"/>
<path d="M83.7045 60.3625C83.5699 59.9244 83.2636 59.5437 82.817 59.3289C82.3732 59.1171 81.8808 59.1142 81.457 59.286L83.7045 60.3625Z" fill="#EB8F48"/>
<path d="M92.5694 58.3182C92.4921 58.3182 92.4148 58.3469 92.3576 58.407C92.2402 58.5244 92.2402 58.7162 92.3576 58.8336L93.8492 60.3252L92.3576 61.8169C92.2402 61.9342 92.2402 62.1261 92.3576 62.2434C92.475 62.3608 92.6668 62.3608 92.7842 62.2434L94.2758 60.7518C94.5106 60.517 94.5106 60.1363 94.2758 59.9015L92.7842 58.4099C92.7212 58.3497 92.6467 58.3182 92.5694 58.3182Z" fill="#FFC107"/>
<path d="M37.3942 58.3182C37.4715 58.3182 37.5488 58.3469 37.606 58.407C37.7234 58.5244 37.7234 58.7162 37.606 58.8336L36.1144 60.3252L37.606 61.8169C37.7234 61.9342 37.7234 62.1261 37.606 62.2434C37.4886 62.3608 37.2997 62.3608 37.1794 62.2434L35.6878 60.7518C35.453 60.517 35.453 60.1363 35.6878 59.9015L37.1794 58.4099C37.2396 58.3497 37.3169 58.3182 37.3942 58.3182Z" fill="#FFC107"/>
<path d="M60.1992 49.9954C60.1992 52.6351 62.3379 54.7738 64.9776 54.7738C67.6173 54.7738 69.756 52.6351 69.756 49.9954H60.1992Z" fill="#EAC9B7"/>
<path d="M69.7617 49.9954C69.7617 52.6351 71.9004 54.7738 74.5401 54.7738C77.1798 54.7738 79.3185 52.6351 79.3185 49.9954H69.7617Z" fill="#00684A"/>
<path d="M79.3203 49.9954C79.3203 52.6351 81.459 54.7738 84.0987 54.7738C86.7384 54.7738 88.8771 52.6351 88.8771 49.9954H79.3203Z" fill="#EAC9B7"/>
<path d="M88.8789 49.9954C88.8789 52.6351 91.0176 54.7738 93.6573 54.7738C96.297 54.7738 98.4357 52.6351 98.4357 49.9954H88.8789Z" fill="#00684A"/>
<path d="M98.4375 49.9954C98.4375 52.6351 100.576 54.7738 103.216 54.7738C105.856 54.7738 107.994 52.6351 107.994 49.9954H98.4375Z" fill="#EAC9B7"/>
<path d="M60.2013 49.9954C60.2013 52.6351 58.0626 54.7738 55.4229 54.7738C52.7832 54.7738 50.6445 52.6351 50.6445 49.9954H60.2013Z" fill="#00684A"/>
<path d="M50.6427 49.9954C50.6427 52.6351 48.504 54.7738 45.8643 54.7738C43.2246 54.7738 41.0859 52.6351 41.0859 49.9954H50.6427Z" fill="#EAC9B7"/>
<path d="M41.0802 49.9954C41.0802 52.6351 38.9415 54.7738 36.3018 54.7738C33.6621 54.7738 31.5234 52.6351 31.5234 49.9954H41.0802Z" fill="#00684A"/>
<path d="M31.5216 49.9954C31.5216 52.6351 29.3829 54.7738 26.7432 54.7738C24.1035 54.7738 21.9648 52.6351 21.9648 49.9954H31.5216Z" fill="#EAC9B7"/>
<path d="M69.7588 49.9954H60.1992L61.2156 32.1444H68.7453L69.7588 49.9954Z" fill="#FAE7DB"/>
<path d="M79.3192 49.9954H69.7596L68.7461 32.1444H76.2758L79.3192 49.9954Z" fill="#0AAD0A"/>
<path d="M88.8804 49.9954H79.3207L76.2773 32.1444H83.8071L88.8804 49.9954Z" fill="#FAE7DB"/>
<path d="M98.4376 49.9954H88.878L83.8047 32.1444H91.3373L98.4376 49.9954Z" fill="#0AAD0A"/>
<path d="M108 49.9954H98.4401L91.3398 32.1444H98.8696L108 49.9954Z" fill="#FAE7DB"/>
<path d="M50.6406 49.9954H60.2003L61.2166 32.1444H53.6869L50.6406 49.9954Z" fill="#0AAD0A"/>
<path d="M41.082 49.9954H50.6417L53.6879 32.1444H46.1553L41.082 49.9954Z" fill="#FAE7DB"/>
<path d="M31.5234 49.9954H41.0831L46.1563 32.1444H38.6266L31.5234 49.9954Z" fill="#0AAD0A"/>
<path d="M21.9648 49.9954H31.5216L38.6248 32.1444H31.095L21.9648 49.9954Z" fill="#FAE7DB"/>
<path d="M91.332 32.1447H98.8618V30.0002H91.332V32.1447Z" fill="#EAC9B7"/>
<path d="M83.8047 32.1447H91.3344V30.0002H83.8047V32.1447Z" fill="#00684A"/>
<path d="M76.2734 32.1447H83.8032V30.0002H76.2734V32.1447Z" fill="#EAC9B7"/>
<path d="M68.7422 32.1447H76.2719V30.0002H68.7422V32.1447Z" fill="#00684A"/>
<path d="M61.2148 32.1447H68.7446V30.0002H61.2148V32.1447Z" fill="#EAC9B7"/>
<path d="M53.6836 32.1447H61.2133V30.0002H53.6836V32.1447Z" fill="#00684A"/>
<path d="M46.1523 32.1447H53.6821V30.0002H46.1523V32.1447Z" fill="#EAC9B7"/>
<path d="M38.625 32.1447H46.1547V30.0002H38.625V32.1447Z" fill="#00684A"/>
<path d="M31.0938 32.1447H38.6236V30.0002H31.0938V32.1447Z" fill="#EAC9B7"/>
<path d="M24.6064 75.1985L13.0455 60.8863C12.6877 60.4425 12.7564 59.7955 13.2001 59.4376L20.7013 53.3766C21.145 53.0187 21.7921 53.0874 22.1499 53.5312L33.7108 67.8434C34.0687 68.2872 34 68.9343 33.5562 69.2921L26.0551 75.3532C25.6113 75.7082 24.9643 75.6395 24.6064 75.1985Z" fill="#D7513E"/>
<path d="M32.7948 69.9059L19.9401 53.9929L18.3789 55.2541L31.2336 71.1671L32.7948 69.9059Z" fill="#EABC49"/>
<path d="M16.0888 61.9227L14.9722 60.5398C14.8262 60.3566 14.8548 60.0903 15.0352 59.9443L15.5248 59.5492C15.708 59.4032 15.9743 59.4319 16.1203 59.6122L17.2369 60.9951C17.3829 61.1783 17.3542 61.4446 17.1739 61.5906L16.6843 61.9857C16.5039 62.1317 16.2377 62.1059 16.0888 61.9227Z" fill="#EABC49"/>
<path d="M25.818 67.3853L18.0821 57.8057C17.9962 57.6997 18.0134 57.5423 18.1193 57.4564C18.2253 57.3705 18.3827 57.3877 18.4686 57.4936L26.2074 67.0733C26.2933 67.1792 26.2761 67.3367 26.1701 67.4226C26.0613 67.5085 25.9039 67.4941 25.818 67.3853Z" fill="#FAE7DB"/>
<path d="M21.6966 64.0471L17.2188 58.5043C17.1329 58.3983 17.1501 58.2409 17.256 58.155C17.362 58.0691 17.5194 58.0863 17.6053 58.1922L22.0831 63.735C22.169 63.8409 22.1518 63.9984 22.0459 64.0843C21.9399 64.1702 21.7825 64.153 21.6966 64.0471Z" fill="#FAE7DB"/>
<path d="M31.2334 77.1855L12.9272 75.3618C12.3603 75.3045 11.9481 74.8006 12.0053 74.2338L12.9616 64.6369C13.0188 64.07 13.5227 63.6578 14.0896 63.715L32.3958 65.5388C32.9626 65.596 33.3749 66.0999 33.3176 66.6668L32.3614 76.2637C32.3041 76.8305 31.8002 77.2428 31.2334 77.1855Z" fill="#EABC49"/>
<path d="M33.219 67.6403L12.863 65.613L12.6641 67.6102L33.0202 69.6374L33.219 67.6403Z" fill="#D7513E"/>
<path d="M15.8045 73.9245L14.0352 73.7499C13.8033 73.727 13.6315 73.518 13.6544 73.2861L13.7174 72.6591C13.7403 72.4272 13.9493 72.2554 14.1812 72.2783L15.9505 72.4558C16.1824 72.4787 16.3542 72.6877 16.3313 72.9196L16.2683 73.5466C16.2454 73.7785 16.0364 73.9474 15.8045 73.9245Z" fill="#D7513E"/>
<path d="M26.5253 70.8353L14.2716 69.6157C14.1341 69.6014 14.0339 69.4811 14.0482 69.3437C14.0626 69.2063 14.1828 69.1061 14.3202 69.1204L26.574 70.34C26.7114 70.3543 26.8116 70.4746 26.7973 70.612C26.783 70.7494 26.6598 70.8497 26.5253 70.8353Z" fill="#FAE7DB"/>
<path d="M21.0625 69.7903L22.1247 70.3973L26.5223 70.8353C26.6597 70.8496 26.7828 70.7494 26.7943 70.612C26.8086 70.4746 26.7084 70.3514 26.571 70.34" fill="#EAC9B7"/>
<path d="M21.251 71.428L14.1622 70.7208C14.0248 70.7065 13.9245 70.5862 13.9389 70.4488C13.9532 70.3114 14.0734 70.2112 14.2108 70.2255L21.2997 70.9327C21.4371 70.947 21.5373 71.0672 21.523 71.2046C21.5087 71.3421 21.3856 71.4423 21.251 71.428Z" fill="#FAE7DB"/>
</svg>
