<svg width="120" height="120" viewBox="0 0 120 120" fill="none" xmlns="http://www.w3.org/2000/svg">
<path d="M58.5128 21.1678C47.7668 24.3278 58.2199 67.4624 71.1102 63.6692C84.0067 59.876 69.2589 18.0078 58.5128 21.1678Z" fill="#EABC49"/>
<path d="M65.7541 27.6863C64.1522 26.7302 62.17 26.4136 60.2315 26.9786C58.2992 27.5497 56.8033 28.8845 55.9805 30.5607L65.7541 27.6863Z" fill="#C94536"/>
<path d="M73.6487 54.2947C72.0467 53.3386 70.0646 53.022 68.1261 53.587C66.1938 54.1581 64.6978 55.4929 63.875 57.1629L73.6487 54.2947Z" fill="#C94536"/>
<path d="M68.6087 34.0559C66.7138 32.926 64.3701 32.5473 62.0826 33.224C59.795 33.9007 58.0372 35.4776 57.0586 37.4518L68.6087 34.0559Z" fill="#C94536"/>
<path d="M72.679 47.7885C70.7841 46.6586 68.4405 46.2799 66.1529 46.9566C63.8653 47.6333 62.1075 49.2101 61.1289 51.1844L72.679 47.7885Z" fill="#C94536"/>
<path d="M71.1429 40.885C69.0922 39.662 66.5615 39.2584 64.0932 39.9848C61.6248 40.7112 59.7175 42.4246 58.6641 44.5541L71.1429 40.885Z" fill="#C94536"/>
<path d="M82.9364 31.4795H73.624C72.4646 31.4795 71.5234 30.5421 71.5234 29.3873C71.5234 28.2326 72.4646 27.2952 73.624 27.2952H82.9364C84.0958 27.2952 85.037 28.2326 85.037 29.3873C85.037 30.5421 84.0958 31.4795 82.9364 31.4795Z" fill="#D7513E"/>
<path d="M86.9812 45.299C86.9812 43.9642 85.8967 42.884 84.5565 42.884H84.3197C86.2894 42.884 87.5734 40.8228 86.7007 39.0659L82.9359 31.4733H78.2797H73.6235L69.8586 39.0659C68.986 40.8228 70.27 42.884 72.2397 42.884H72.0028C70.6627 42.884 69.5781 43.9642 69.5781 45.299C69.5781 46.6337 70.6627 47.714 72.0028 47.714C70.6627 47.714 69.5781 48.7942 69.5781 50.1289C69.5781 51.4637 70.6627 52.5439 72.0028 52.5439C70.6627 52.5439 69.5781 53.6242 69.5781 54.9589C69.5781 56.2937 70.6627 57.3739 72.0028 57.3739C70.6627 57.3739 69.5781 58.4542 69.5781 59.7889C69.5781 61.1237 70.6627 62.2039 72.0028 62.2039H84.5628C85.9029 62.2039 86.9875 61.1237 86.9875 59.7889C86.9875 58.4542 85.9029 57.3739 84.5628 57.3739C85.9029 57.3739 86.9875 56.2937 86.9875 54.9589C86.9875 53.6242 85.9029 52.5439 84.5628 52.5439C85.9029 52.5439 86.9875 51.4637 86.9875 50.1289C86.9875 48.7942 85.9029 47.714 84.5628 47.714C85.8967 47.714 86.9812 46.6337 86.9812 45.299Z" fill="#FAE7DB"/>
<path d="M86.9812 45.299C86.9812 43.9642 85.8967 42.8839 84.5565 42.8839H84.3197C86.2894 42.8839 87.5734 40.8228 86.7007 39.0658L85.4479 36.5453C85.211 36.5826 84.9804 36.6323 84.756 36.6944C83.3099 37.0979 82.0071 37.8926 80.6421 38.532C79.277 39.1653 77.7623 39.6557 76.2851 39.3764C74.9511 39.128 73.8105 38.296 72.5638 37.7683C71.9904 37.5262 71.3359 37.3711 70.7063 37.3587L69.8586 39.0722C68.986 40.8291 70.27 42.8902 72.2397 42.8902H72.0028C70.6627 42.8902 69.5781 43.9703 69.5781 45.3051C69.5781 46.6399 70.6627 47.7201 72.0028 47.7201C70.6627 47.7201 69.5781 48.8004 69.5781 50.1352C69.5781 51.47 70.6627 52.5502 72.0028 52.5502C70.6627 52.5502 69.5781 53.6303 69.5781 54.9651C69.5781 56.2998 70.6627 57.3801 72.0028 57.3801C70.6627 57.3801 69.5781 58.4604 69.5781 59.7952C69.5781 61.1299 70.6627 62.2102 72.0028 62.2102H84.5628C85.9029 62.2102 86.9875 61.1299 86.9875 59.7952C86.9875 58.4604 85.9029 57.3801 84.5628 57.3801C85.9029 57.3801 86.9875 56.2998 86.9875 54.9651C86.9875 53.6303 85.9029 52.5502 84.5628 52.5502C85.9029 52.5502 86.9875 51.47 86.9875 50.1352C86.9875 48.8004 85.9029 47.7201 84.5628 47.7201C85.8967 47.7139 86.9812 46.6338 86.9812 45.299Z" fill="#016BF8"/>
<path d="M44.7549 32.3734H32.9492V51.8175H44.7549V32.3734Z" fill="#0AAD0A"/>
<path d="M47.5479 27.8539H35.7422V25.9231C35.7422 24.9671 36.5213 24.191 37.4813 24.191H45.8151C46.775 24.191 47.5541 24.9671 47.5541 25.9231V27.8539H47.5479Z" fill="#0AAD0A"/>
<path d="M44.7549 32.3735H32.9492L35.7417 27.8539H47.5474L44.7549 32.3735Z" fill="#FAE7DB"/>
<path d="M50.3389 32.3735V51.8176H44.7539V32.3735L47.5464 27.8539L50.3389 32.3735Z" fill="#EABC49"/>
<path d="M42.1234 36.6075H35.5785C35.3417 36.6075 35.1484 36.415 35.1484 36.1791C35.1484 35.9432 35.3417 35.7507 35.5785 35.7507H42.1234C42.3603 35.7507 42.5535 35.9432 42.5535 36.1791C42.5597 36.415 42.3665 36.6075 42.1234 36.6075Z" fill="#254C40"/>
<path d="M42.1234 39.6929H35.5785C35.3417 39.6929 35.1484 39.5005 35.1484 39.2645C35.1484 39.0286 35.3417 38.8362 35.5785 38.8362H42.1234C42.3603 38.8362 42.5535 39.0286 42.5535 39.2645C42.5597 39.5005 42.3665 39.6929 42.1234 39.6929Z" fill="#254C40"/>
<path d="M42.1234 42.7785H35.5785C35.3417 42.7785 35.1484 42.586 35.1484 42.3501C35.1484 42.1142 35.3417 41.9218 35.5785 41.9218H42.1234C42.3603 41.9218 42.5535 42.1142 42.5535 42.3501C42.5597 42.586 42.3665 42.7785 42.1234 42.7785Z" fill="#254C40"/>
<path d="M59.8633 35.3969H47.6275C47.0104 35.3969 46.5117 34.9002 46.5117 34.2856V34.2421C46.5117 33.6275 47.0104 33.1309 47.6275 33.1309H59.8633C60.4803 33.1309 60.979 33.6275 60.979 34.2421V34.2856C60.979 34.894 60.4803 35.3969 59.8633 35.3969Z" fill="#254C40"/>
<path d="M60.2388 36.4398H59.1044V35.3906H48.3895V36.4398H47.255C46.3637 36.4398 45.6406 37.16 45.6406 38.0477V53.3634C45.6406 54.2512 46.3637 54.9713 47.255 54.9713H60.2388C61.1301 54.9713 61.8532 54.2512 61.8532 53.3634V38.0477C61.8532 37.16 61.1301 36.4398 60.2388 36.4398Z" fill="#D7513E"/>
<path d="M60.2404 54.9651C61.1317 54.9651 61.8548 54.245 61.8548 53.3572V39.1652C61.5182 39.159 61.1816 39.1839 60.8575 39.2459C59.748 39.4632 58.7319 39.9971 57.6848 40.4131C56.6376 40.829 55.4782 41.1332 54.3812 40.8601C53.1221 40.5497 52.0936 39.5067 50.7971 39.4074C50.0491 39.3453 49.3198 39.6122 48.6217 39.8854C47.9236 40.1585 47.213 40.4565 46.465 40.4565C46.1907 40.4565 45.9102 40.4069 45.6484 40.3138V53.3572C45.6484 54.245 46.3715 54.9651 47.2628 54.9651H60.2404Z" fill="#2B5B4F"/>
<path d="M53.7483 49.2659C56.9877 49.2659 59.6137 47.6705 59.6137 45.7024C59.6137 43.7344 56.9877 42.1389 53.7483 42.1389C50.5089 42.1389 47.8828 43.7344 47.8828 45.7024C47.8828 47.6705 50.5089 49.2659 53.7483 49.2659Z" fill="#EABC49"/>
<path d="M84.8611 47.3353L80.7161 44.0449L76.5772 47.3353H76.546L72.4072 44.0449L68.2621 47.3353H68.2372L64.0983 44.0449L59.9532 47.3353H59.9283L55.7895 44.0449L51.6444 47.3353H51.6195L47.4744 44.0449L43.3355 47.3353H43.3106L39.1655 44.0449L35.0828 47.2794L31 44.0449V47.5215V49.3157V99H89V49.3157V47.5215V44.0449L84.8611 47.3353Z" fill="#00684A"/>
<path d="M75.5926 65.1901H44.4079C43.6163 65.1901 42.9805 64.5506 42.9805 63.7684C42.9805 62.9799 43.6225 62.3467 44.4079 62.3467H75.5926C76.3842 62.3467 77.02 62.9861 77.02 63.7684C77.02 64.5568 76.3842 65.1901 75.5926 65.1901Z" fill="#0AAD0A"/>
<path d="M75.5926 75.148H44.4079C43.6163 75.148 42.9805 74.5086 42.9805 73.7264C42.9805 72.9441 43.6225 72.3047 44.4079 72.3047H75.5926C76.3842 72.3047 77.02 72.9441 77.02 73.7264C77.02 74.5086 76.3842 75.148 75.5926 75.148Z" fill="#0AAD0A"/>
<path d="M75.5926 85.0998H44.4079C43.6163 85.0998 42.9805 84.4604 42.9805 83.6781C42.9805 82.8959 43.6225 82.2565 44.4079 82.2565H75.5926C76.3842 82.2565 77.02 82.8959 77.02 83.6781C77.02 84.4666 76.3842 85.0998 75.5926 85.0998Z" fill="#0AAD0A"/>
</svg>
