<svg width="120" height="120" viewBox="0 0 120 120" fill="none" xmlns="http://www.w3.org/2000/svg">
<path d="M90.6546 20.1486C79.6158 17.1323 65.4301 60.3647 78.6794 63.9843C91.9287 67.6039 101.698 23.1694 90.6546 20.1486Z" fill="#EABC49"/>
<path d="M93.4378 29.7243C92.5599 28.027 91.0113 26.6854 89.0214 26.1452C87.0315 25.605 85.0146 25.9696 83.3984 26.9826L93.4378 29.7243Z" fill="#DB3030"/>
<path d="M85.9378 57.1683C85.06 55.471 83.5113 54.1294 81.5214 53.5892C79.5315 53.0445 77.5146 53.4136 75.8984 54.4266L85.9378 57.1683Z" fill="#EB8F48"/>
<path d="M92.476 36.8194C91.4405 34.816 89.6082 33.2268 87.2582 32.5875C84.9082 31.9437 82.5266 32.3804 80.6133 33.578L92.476 36.8194Z" fill="#DB3030"/>
<path d="M88.6049 50.9781C87.5694 48.9747 85.7371 47.39 83.3871 46.7462C81.0371 46.1024 78.6555 46.5391 76.7422 47.7367L88.6049 50.9781Z" fill="#DB3030"/>
<path d="M90.9935 44.1351C89.8725 41.9696 87.8916 40.2544 85.3525 39.5611C82.8134 38.8678 80.2383 39.336 78.1719 40.6325L90.9935 44.1351Z" fill="#DB3030"/>
<path d="M74.8353 24.583H65.7548C64.6248 24.583 63.7109 23.6691 63.7109 22.5391C63.7109 21.4091 64.6248 20.4952 65.7548 20.4952H74.8353C75.9653 20.4952 76.8792 21.4091 76.8792 22.5391C76.8792 23.6646 75.9653 24.583 74.8353 24.583Z" fill="#00684A"/>
<path d="M78.778 38.1114C78.778 36.8058 77.72 35.7479 76.4144 35.7479H76.1848C78.1027 35.7479 79.3542 33.731 78.5078 32.0112L74.8342 24.5785H70.2917H65.7538L62.0802 32.0112C61.2293 33.731 62.4808 35.7479 64.4032 35.7479H64.1736C62.868 35.7479 61.81 36.8058 61.81 38.1114C61.81 39.417 62.868 40.4749 64.1736 40.4749C62.868 40.4749 61.81 41.5329 61.81 42.8385C61.81 44.1441 62.868 45.202 64.1736 45.202C62.868 45.202 61.81 46.26 61.81 47.5656C61.81 48.8711 62.868 49.9291 64.1736 49.9291C62.868 49.9291 61.81 50.9871 61.81 52.2926C61.81 53.5982 62.868 54.6562 64.1736 54.6562H76.4144C77.72 54.6562 78.778 53.5982 78.778 52.2926C78.778 50.9871 77.72 49.9291 76.4144 49.9291C77.72 49.9291 78.778 48.8711 78.778 47.5656C78.778 46.26 77.72 45.202 76.4144 45.202C77.72 45.202 78.778 44.1441 78.778 42.8385C78.778 41.5329 77.72 40.4749 76.4144 40.4749C77.72 40.4749 78.778 39.417 78.778 38.1114Z" fill="#FAE7DB"/>
<path d="M78.778 38.1114C78.778 36.8059 77.72 35.7479 76.4144 35.7479H76.1848C78.1027 35.7479 79.3542 33.731 78.5078 32.0113L77.2878 29.5397C77.0582 29.5802 76.8331 29.6252 76.6125 29.6882C75.1989 30.0844 73.9293 30.8633 72.6013 31.4845C71.2732 32.1058 69.7965 32.583 68.3514 32.3129C67.0503 32.0698 65.9428 31.2549 64.7228 30.7372C64.1601 30.4986 63.5253 30.3455 62.9085 30.332L62.0802 32.0113C61.2293 33.731 62.4808 35.7479 64.4032 35.7479H64.1736C62.868 35.7479 61.81 36.8059 61.81 38.1114C61.81 39.417 62.868 40.475 64.1736 40.475C62.868 40.475 61.81 41.5329 61.81 42.8385C61.81 44.1441 62.868 45.202 64.1736 45.202C62.868 45.202 61.81 46.26 61.81 47.5656C61.81 48.8711 62.868 49.9291 64.1736 49.9291C62.868 49.9291 61.81 50.9871 61.81 52.2926C61.81 53.5982 62.868 54.6562 64.1736 54.6562H76.4144C77.72 54.6562 78.778 53.5982 78.778 52.2926C78.778 50.9871 77.72 49.9291 76.4144 49.9291C77.72 49.9291 78.778 48.8711 78.778 47.5656C78.778 46.26 77.72 45.202 76.4144 45.202C77.72 45.202 78.778 44.1441 78.778 42.8385C78.778 41.5329 77.72 40.475 76.4144 40.475C77.72 40.475 78.778 39.417 78.778 38.1114Z" fill="#016BF8"/>
<path d="M42.7553 33.8795H23.8516V65.1367H42.7553V33.8795Z" fill="#2B5B4F"/>
<path d="M47.2241 26.6133H28.3203V23.516C28.3203 21.9808 29.5674 20.7338 31.1025 20.7338H44.4419C45.977 20.7338 47.2241 21.9808 47.2241 23.516V26.6133Z" fill="#2B5B4F"/>
<path d="M42.7553 33.8795H23.8516L28.322 26.6133H47.2258L42.7553 33.8795Z" fill="#FAE7DB"/>
<path d="M51.6948 33.8795V65.1366H42.7539V33.8795L47.2244 26.6133L51.6948 33.8795Z" fill="#EABC49"/>
<path d="M38.5456 40.6865H28.0605C27.6778 40.6865 27.3672 40.3759 27.3672 39.9932C27.3672 39.6106 27.6778 39.2999 28.0605 39.2999H38.5456C38.9282 39.2999 39.2389 39.6106 39.2389 39.9932C39.2344 40.3759 38.9282 40.6865 38.5456 40.6865Z" fill="#254C40"/>
<path d="M38.5456 45.6477H28.0605C27.6778 45.6477 27.3672 45.3371 27.3672 44.9544C27.3672 44.5717 27.6778 44.2611 28.0605 44.2611H38.5456C38.9282 44.2611 39.2389 44.5717 39.2389 44.9544C39.2344 45.3371 38.9282 45.6477 38.5456 45.6477Z" fill="#254C40"/>
<path d="M38.5456 50.6044H28.0605C27.6778 50.6044 27.3672 50.2937 27.3672 49.9111C27.3672 49.5284 27.6778 49.2178 28.0605 49.2178H38.5456C38.9282 49.2178 39.2389 49.5284 39.2389 49.9111C39.2344 50.2937 38.9282 50.6044 38.5456 50.6044Z" fill="#EABC49"/>
<path d="M54.7181 57.1689L53.219 55.7193L51.1886 56.183L49.6894 54.7334L47.659 55.1971L46.1599 53.7474L44.125 54.2156C44.125 54.2156 47.452 47.8003 49.0276 42.1549C50.6033 36.5094 51.076 29.2972 51.076 29.2972L52.5752 30.7469L54.6101 30.2832L56.1092 31.7328L58.1396 31.2691L59.6388 32.7187L61.6692 32.255L63.1683 33.7047L65.1987 33.241L66.6979 34.6906L68.7283 34.2269L70.2274 35.6765L72.2623 35.2128C72.2623 35.2128 68.9353 41.6281 67.3597 47.2736C65.784 52.9191 65.3113 60.1312 65.3113 60.1312L63.8121 58.6816L61.7772 59.1453L60.2781 57.6957L58.2477 58.1594L56.7485 56.7097L54.7181 57.1689Z" fill="#FAE7DB"/>
<path d="M68.7342 34.2171L66.7039 34.6808L65.2047 33.2312L63.1743 33.6949L61.6752 32.2453L59.6448 32.709L58.1456 31.2593L56.1152 31.723L54.6161 30.2734L52.5812 30.7371L51.082 29.2875C51.082 29.2875 51.0055 30.4355 50.8164 32.1732L71.0032 37.8052C71.7416 36.2205 72.2683 35.1986 72.2683 35.1986L70.2334 35.6623L68.7342 34.2171Z" fill="#EABC49"/>
<path d="M47.659 55.2008L49.6894 54.7371L51.1886 56.1868L53.219 55.7231L54.7181 57.1727L56.7485 56.709L58.2477 58.1586L60.2781 57.6949L61.7772 59.1446L63.8121 58.6809L65.3113 60.1305C65.3113 60.1305 65.3878 58.9825 65.5769 57.2447L45.3946 51.6038C44.6562 53.1885 44.125 54.2149 44.125 54.2149L46.1599 53.7512L47.659 55.2008Z" fill="#EABC49"/>
<path d="M62.5621 45.9268C61.4817 49.812 58.6454 52.4141 56.2368 51.7388C53.8238 51.068 52.7478 47.3719 53.8328 43.4867C54.9178 39.6015 57.7495 36.9993 60.1581 37.6746C62.5711 38.3499 63.6471 42.0416 62.5621 45.9268Z" fill="#00684A"/>
<path d="M87.8559 99.1176H32.1485C29.767 99.1176 27.7231 97.4338 27.2594 95.0973L19.3359 57.92H100.668L92.7405 95.0973C92.2813 97.4338 90.2374 99.1176 87.8559 99.1176Z" fill="#00684A"/>
<path d="M101.335 57.92H18.6698C16.6709 57.92 15.0547 56.2993 15.0547 54.305V51.6173C15.0547 49.6184 16.6754 48.0022 18.6698 48.0022H101.335C103.334 48.0022 104.95 49.6229 104.95 51.6173V54.305C104.95 56.3038 103.334 57.92 101.335 57.92Z" fill="#0AAD0A"/>
<path d="M60.0012 91.1625C59.0018 91.1625 58.1914 90.3522 58.1914 89.3527V67.6803C58.1914 66.6808 59.0018 65.8705 60.0012 65.8705C61.0006 65.8705 61.811 66.6808 61.811 67.6803V89.3527C61.811 90.3567 61.0006 91.1625 60.0012 91.1625Z" fill="#0AAD0A"/>
<path d="M70.1301 91.1625C69.1307 91.1625 68.3203 90.3522 68.3203 89.3527V67.6803C68.3203 66.6808 69.1307 65.8705 70.1301 65.8705C71.1295 65.8705 71.9399 66.6808 71.9399 67.6803V89.3527C71.9399 90.3567 71.1295 91.1625 70.1301 91.1625Z" fill="#0AAD0A"/>
<path d="M80.2668 91.1625C79.2674 91.1625 78.457 90.3522 78.457 89.3527V67.6803C78.457 66.6808 79.2674 65.8705 80.2668 65.8705C81.2663 65.8705 82.0766 66.6808 82.0766 67.6803V89.3527C82.0721 90.3567 81.2618 91.1625 80.2668 91.1625Z" fill="#0AAD0A"/>
<path d="M49.8723 91.1625C50.8717 91.1625 51.6821 90.3522 51.6821 89.3527V67.6803C51.6821 66.6808 50.8717 65.8705 49.8723 65.8705C48.8729 65.8705 48.0625 66.6808 48.0625 67.6803V89.3527C48.0625 90.3567 48.8729 91.1625 49.8723 91.1625Z" fill="#0AAD0A"/>
<path d="M39.7434 91.1625C40.7428 91.1625 41.5532 90.3522 41.5532 89.3527V67.6803C41.5532 66.6808 40.7428 65.8705 39.7434 65.8705C38.7439 65.8705 37.9336 66.6808 37.9336 67.6803V89.3527C37.9336 90.3567 38.7439 91.1625 39.7434 91.1625Z" fill="#0AAD0A"/>
<path d="M103.615 74.6673L81.5871 55.0793C80.4976 54.1113 80.4031 52.4456 81.371 51.3561C82.3389 50.2667 84.0047 50.1721 85.0941 51.14L107.122 70.7281C108.212 71.696 108.306 73.3618 107.338 74.4512C106.37 75.5407 104.705 75.6353 103.615 74.6673Z" fill="#EABC49"/>
<path d="M84.3824 53.0849C84.3824 53.6791 83.9007 54.1609 83.3064 54.1609C82.7122 54.1609 82.2305 53.6791 82.2305 53.0849C82.2305 52.4906 82.7122 52.0089 83.3064 52.0089C83.9007 52.0089 84.3824 52.4906 84.3824 53.0849Z" fill="#00684A"/>
<path d="M16.391 74.6673L38.4191 55.0793C39.5086 54.1113 39.6032 52.4456 38.6352 51.3561C37.6673 50.2667 36.0016 50.1721 34.9121 51.14L12.884 70.7281C11.7945 71.696 11.6999 73.3618 12.6679 74.4512C13.6358 75.5407 15.3015 75.6353 16.391 74.6673Z" fill="#EABC49"/>
<path d="M35.6172 53.0849C35.6172 53.6791 36.0989 54.1609 36.6932 54.1609C37.2874 54.1609 37.7691 53.6791 37.7691 53.0849C37.7691 52.4906 37.2874 52.0089 36.6932 52.0089C36.0989 52.0089 35.6172 52.4906 35.6172 53.0849Z" fill="#00684A"/>
</svg>
