<?xml version="1.0" encoding="utf-8"?>
<!-- Generator: Adobe Illustrator 23.0.1, SVG Export Plug-In . SVG Version: 6.00 Build 0)  -->
<svg version="1.1" id="Layer_1" xmlns="http://www.w3.org/2000/svg" xmlns:xlink="http://www.w3.org/1999/xlink" x="0px" y="0px"
	 viewBox="0 0 60 60" style="enable-background:new 0 0 60 60;" xml:space="preserve">
<style type="text/css">
	.st0{fill:#8892A5;}
	.st1{opacity:0.6;fill:#FE696A;}
</style>
<g>
	<g id="Слой_1">
		<path class="st0" d="M59.8,16.8H2.2l0.9-2.5C6.2,5.8,14.7,0.1,24.2,0.1h13.6c9.5,0,18,5.7,21.1,14.2L59.8,16.8z M7.9,13h46.3
			C51,7.4,44.7,3.8,37.8,3.8H24.2C17.3,3.8,11,7.4,7.9,13z"/>
		<path class="st1" d="M31.8,11c0.1,0.6-0.4,1.2-1.1,1.2c-0.6,0.1-1.2-0.4-1.2-1.1S30,10,30.6,10c0,0,0.1,0,0.1,0
			C31.3,10,31.8,10.4,31.8,11L31.8,11z"/>
		<ellipse class="st1" cx="26" cy="8.2" rx="1.1" ry="1.1"/>
		<ellipse class="st1" cx="35.3" cy="8.2" rx="1.1" ry="1.1"/>
		<path class="st1" d="M31.8,6.1c-0.1,0.6-0.6,1.1-1.2,1c-0.5-0.1-1-0.5-1-1c0-0.6,0.6-1.1,1.2-1.1C31.3,5,31.8,5.5,31.8,6.1z"/>
		<path class="st1" d="M40.9,11c0.1,0.6-0.4,1.2-1.1,1.2c-0.6,0.1-1.2-0.4-1.2-1.1C38.6,10.6,39,10,39.7,10c0,0,0.1,0,0.1,0
			C40.4,10,40.9,10.4,40.9,11L40.9,11z"/>
		<path class="st1" d="M42.9,6.8c0,0.6-0.6,1.1-1.2,1.1c-0.6,0-1-0.5-1.1-1.1c0.1-0.6,0.6-1.1,1.2-1C42.4,5.9,42.9,6.3,42.9,6.8z"/>
		<path class="st1" d="M47.3,10c0.1,0.6-0.4,1.2-1.1,1.2c-0.6,0.1-1.2-0.4-1.2-1.1C45,9.5,45.5,9,46.1,8.9c0,0,0.1,0,0.1,0
			C46.8,8.9,47.3,9.4,47.3,10C47.3,10,47.3,10,47.3,10z"/>
		<path class="st1" d="M20.6,11c-0.1,0.6,0.4,1.2,1.1,1.2c0.6,0.1,1.2-0.4,1.2-1.1c0.1-0.6-0.4-1.2-1.1-1.2c0,0-0.1,0-0.1,0
			C21.1,10,20.6,10.4,20.6,11L20.6,11z"/>
		<path class="st1" d="M18.6,6.8c0,0.6,0.6,1.1,1.2,1.1c0.6,0,1-0.5,1.1-1.1c-0.1-0.6-0.6-1.1-1.2-1C19.1,5.9,18.6,6.3,18.6,6.8z"/>
		<path class="st1" d="M14.2,10c-0.1,0.6,0.4,1.2,1.1,1.2c0.6,0.1,1.2-0.4,1.2-1.1C16.5,9.5,16,9,15.4,8.9c0,0-0.1,0-0.1,0
			C14.7,8.9,14.2,9.4,14.2,10C14.2,10,14.2,10,14.2,10z"/>
		<path class="st0" d="M58.3,23.3c0,2.2-1.8,4.1-4.1,4.1H7.1c-2.2,0-4.1-1.8-4.1-4.1s1.8-4.1,4.1-4.1h26.6c0.4,2.4,4.3,4.3,9,4.3
			s8.6-1.9,9-4.3h2.6C56.4,19.2,58.3,21,58.3,23.3L58.3,23.3z"/>
		<path class="st0" d="M58.3,30.2H2.5c-0.8,0-1.4,0.6-1.4,1.4l0,0c0,0.8,0.6,1.4,1.4,1.4h55.8c0.8,0,1.4-0.6,1.4-1.4l0,0
			C59.7,30.8,59.1,30.2,58.3,30.2z"/>
		<path class="st1" d="M48.4,35.4c-3.2,0-5,1.6-6.2,2.9c-1.1,1-1.6,1.5-2.8,1.5s-1.7-0.4-2.8-1.5c-1.3-1.2-3-2.9-6.2-2.9
			s-5,1.6-6.2,2.9c-1.1,1-1.6,1.5-2.8,1.5s-1.7-0.4-2.8-1.5c-1.3-1.2-3-2.9-6.2-2.9s-5,1.6-6.2,2.9c-1.1,1-1.6,1.5-2.8,1.5
			c-1.5,0-2.7,1.2-2.7,2.7s1.2,2.7,2.7,2.7c3.2,0,5-1.6,6.2-2.9c1.1-1,1.6-1.5,2.8-1.5s1.7,0.4,2.8,1.5c1.3,1.2,3,2.9,6.2,2.9
			s5-1.6,6.2-2.9c1.1-1,1.6-1.5,2.8-1.5c1.2,0,1.7,0.4,2.8,1.5c1.3,1.2,3,2.9,6.2,2.9s5-1.6,6.2-2.9c1.1-1,1.6-1.5,2.8-1.5
			s1.7,0.4,2.8,1.5c1.3,1.2,3,2.9,6.2,2.9c1.5,0,2.7-1.2,2.7-2.7s-1.2-2.7-2.7-2.7c-1.2,0-1.7-0.4-2.8-1.5
			C53.4,37,51.7,35.4,48.4,35.4z"/>
		<path class="st0" d="M56.7,49.1l-0.4-1.5H5.2l-0.4,1.5c-0.2,0.6-0.2,1.3-0.2,2v1.1c0,4.4,3.3,7.9,7.4,7.9h37.4
			c4.1,0,7.3-3.5,7.3-7.9V51c0-0.1,0-0.2,0-0.4C56.8,50.1,56.8,49.6,56.7,49.1z M53,52.1c0,2.3-1.5,4.1-3.5,4.1H12.1
			c-2,0-3.6-1.9-3.6-4.1v-0.7H53V52.1z"/>
	</g>
</g>
</svg>
