<?xml version="1.0" encoding="utf-8"?>
<!-- Generator: Adobe Illustrator 23.0.1, SVG Export Plug-In . SVG Version: 6.00 Build 0)  -->
<svg version="1.1" id="Layer_1" xmlns="http://www.w3.org/2000/svg" xmlns:xlink="http://www.w3.org/1999/xlink" x="0px" y="0px"
	 viewBox="0 0 60 60" style="enable-background:new 0 0 60 60;" xml:space="preserve">
<style type="text/css">
	.st0{fill:#8892A5;}
	.st1{opacity:0.6;fill:#FE696A;}
</style>
<g>
	<g id="Слой_1_2_">
	</g>
</g>
<g>
	<g id="Слой_1">
		<path class="st0" d="M29.8,0c-16.5,0-30,13.5-30,30s13.5,30,30,30s30-13.5,30-30S46.3,0,29.8,0z M29.8,57.2
			C14.8,57.2,2.6,45,2.6,30S14.8,2.8,29.8,2.8S57,15,57,30S44.8,57.2,29.8,57.2z"/>
		<path class="st0" d="M53.6,25.1c-1.7-8.2-7.6-15-15.4-17.9c-0.7-0.3-1.5,0.1-1.8,0.8c-0.3,0.7,0.1,1.5,0.8,1.8c0,0,0.1,0,0.1,0
			c7,2.6,12.1,8.6,13.7,15.8c0.1,0.7,0.7,1.1,1.4,1.1c0.1,0,0.2,0,0.3,0C53.2,26.7,53.7,25.9,53.6,25.1
			C53.6,25.1,53.6,25.1,53.6,25.1z"/>
		<path class="st0" d="M29.8,5.7c-5.4,0-10.7,1.8-15,5.2c-0.6,0.4-0.8,1.3-0.3,2c0.4,0.6,1.3,0.8,2,0.3c0,0,0.1-0.1,0.1-0.1
			c3.8-3,8.4-4.6,13.2-4.6c0.8,0,1.4-0.6,1.4-1.4S30.5,5.7,29.8,5.7z"/>
		<path class="st0" d="M48,33.5c-0.3-0.7-1.1-1-1.9-0.7c-0.1,0.1-0.2,0.1-0.3,0.2c-1.1,0.9-2.8,0.8-3.7-0.4
			c-0.3-0.4-0.5-0.8-0.6-1.3c-0.1-0.7-0.6-1.4-1.2-1.8c-0.7-0.4-1.5-0.5-2.2-0.3c-1.4,0.4-2.9-0.4-3.3-1.8c-0.1-0.3-0.1-0.7-0.1-1.1
			c0.1-0.8-0.4-1.5-1.2-1.6c0,0-0.1,0-0.1,0c-3.5-0.1-6,0.5-7.7,1.1c-0.6,0.2-1.2,0.5-1.8,0.9l-4.2-2.3l0.4-0.7
			c0.7-1.3,0.9-2.8,0.4-4.3c-0.9-2.9-4-4.6-6.9-3.8c-2.9,0.8-4.6,3.9-3.8,6.9c0,0.1,0.1,0.2,0.1,0.4c-3,0.7-4.8,3.7-4.1,6.7
			s3.7,4.8,6.7,4.1c1.5-0.4,2.8-1.4,3.6-2.7l0.3-0.6l4.2,2.3c0,3,1.5,6,2.8,8.1c1.6,2.5,3.7,4.9,5.3,6c2.4,1.7,5.3,2.6,8.2,2.6
			c1.1,0,2.2-0.1,3.2-0.4c1.5-0.3,2.8-0.9,4.1-1.8c1.4-0.9,2.6-2.2,3.4-3.7C49.4,40.6,49.4,36.9,48,33.5z M21.7,28.9
			C21.7,29,21.7,29,21.7,28.9c-0.1,0.2-0.2,0.2-0.2,0.3c0,0.1-0.1,0.2-0.2,0.3l0,0.1c0,0.1-0.1,0.1-0.1,0.2v0l-4.7-2.5
			c-0.7-0.4-1.5-0.1-1.9,0.6l-1,1.8c-0.8,1.3-2.5,1.8-3.8,1.1c-0.6-0.4-1.1-0.9-1.3-1.6c-0.2-0.7-0.1-1.5,0.2-2.1
			c0.5-0.9,1.4-1.4,2.4-1.4c0.5,0,0.9,0.1,1.3,0.3c0.7,0.4,1.5,0.1,1.9-0.6c0.4-0.7,0.1-1.5-0.6-1.9c-1.3-0.7-1.8-2.4-1.1-3.7
			c0.4-0.6,0.9-1.1,1.6-1.3c1.5-0.4,3,0.4,3.5,1.9c0.2,0.7,0.1,1.5-0.2,2.1l-1,1.9c-0.4,0.7-0.1,1.5,0.6,1.9c0,0,0,0,0,0l4.6,2.5
			C21.7,28.8,21.7,28.9,21.7,28.9z M45.3,42.2c-0.6,1-1.3,1.9-2.3,2.5c-1,0.7-2.2,1.3-3.4,1.5c-3.2,0.7-6.5,0.1-9.2-1.8
			c-1.1-0.7-3-2.8-4.5-5.2c-1.7-2.7-2.6-5.3-2.4-7.2c0-0.5,0.2-1.1,0.5-1.5c0.2-0.4,0.6-0.8,1-1.1c0.6-0.5,1.4-0.9,2.2-1.2
			c1.6-0.5,3.2-0.8,4.9-0.8c0.5,3,3.3,5,6.3,4.5c0.2,0,0.3-0.1,0.5-0.1c0.6,3,3.5,4.9,6.4,4.3c0.3,0,0.5-0.1,0.7-0.2
			C46.5,38.3,46.3,40.4,45.3,42.2z"/>
		<path class="st1" d="M45.3,42.2c-0.6,1-1.3,1.9-2.3,2.5c-1,0.7-2.2,1.3-3.4,1.5c-3.2,0.7-6.5,0.1-9.2-1.8c-1.1-0.7-3-2.8-4.5-5.2
			c-1.7-2.7-2.6-5.3-2.4-7.2c0-0.5,0.2-1.1,0.5-1.5c0.2-0.4,0.6-0.8,1-1.1c0.6-0.5,1.4-0.9,2.2-1.2c1.6-0.5,3.2-0.8,4.9-0.8
			c0.5,3,3.3,5,6.3,4.5c0.2,0,0.3-0.1,0.5-0.1c0.6,3,3.5,4.9,6.4,4.3c0.3,0,0.5-0.1,0.7-0.2C46.5,38.3,46.3,40.4,45.3,42.2z"/>
		<path class="st1" d="M49.9,42.4c-1.2,2.1-3.1,3.8-5.6,4.8c1.4-0.9,2.6-2.2,3.4-3.7c1.6-3,1.7-6.6,0.2-10.1c-0.3-0.7-1.1-1-1.9-0.7
			c-0.1,0.1-0.2,0.1-0.3,0.2c-1.1,0.9-2.8,0.8-3.7-0.4c-0.3-0.4-0.5-0.8-0.6-1.3c-0.1-0.7-0.6-1.4-1.2-1.8c-0.7-0.4-1.5-0.5-2.2-0.3
			c-1.4,0.4-2.9-0.4-3.3-1.8c-0.1-0.3-0.1-0.7-0.1-1.1c0.1-0.8-0.4-1.5-1.2-1.6c0,0-0.1,0-0.1,0c-3.5-0.1-6,0.5-7.7,1.1
			c1.4-1,4.4-2.4,9.8-2.3c0.8,0,1.4,0.7,1.4,1.4c0,0,0,0.1,0,0.1c-0.2,1.5,0.8,2.8,2.3,3c0.4,0,0.7,0,1.1-0.1
			c0.7-0.2,1.5-0.1,2.2,0.3c0.6,0.4,1.1,1.1,1.2,1.8c0.2,1.4,1.6,2.4,3,2.2c0.5-0.1,0.9-0.3,1.3-0.6c0.6-0.5,1.5-0.4,2,0.2
			c0.1,0.1,0.2,0.2,0.2,0.3C51.6,35.8,51.5,39.5,49.9,42.4z"/>
	</g>
</g>
</svg>
