<?xml version="1.0" encoding="utf-8"?>
<!-- Generator: Adobe Illustrator 23.0.1, SVG Export Plug-In . SVG Version: 6.00 Build 0)  -->
<svg version="1.1" id="Layer_1" xmlns="http://www.w3.org/2000/svg" xmlns:xlink="http://www.w3.org/1999/xlink" x="0px" y="0px"
	 viewBox="0 0 60 60" style="enable-background:new 0 0 60 60;" xml:space="preserve">
<style type="text/css">
	.st0{fill:#353535;}
	.st1{fill:#8892A5;}
	.st2{opacity:0.6;fill:#FE696A;}
</style>
<g>
	<g id="Слой_1_2_">
	</g>
</g>
<g>
</g>
<g>
	<g id="Слой_1">
		<path class="st0" d="M56.8,29.9c-1.5-1.2-3.4-1.9-5.3-1.9c0-0.6,0-1.3,0-1.9v-1.7H0.7v1.7c0,16.4,9.9,30,22.6,31.7
			c0.9,0.1,1.8,0.2,2.8,0.2c6.1,0,11.8-2.8,16.2-7.3c6.2,0,15.4-3.2,16.9-12.1C59.9,33.8,58.3,31.2,56.8,29.9z M29.5,54.1
			c-1.1,0.2-2.3,0.4-3.4,0.4C14.5,54.5,5,42.6,4.3,28h43.5C47.2,41.1,39.4,52.1,29.5,54.1z M55.6,38c-0.5,3-2.3,5.4-5.3,7
			c-1.5,0.8-3.2,1.4-4.9,1.7c2.9-4.2,4.9-9.4,5.7-15.1c1-0.1,2.4,0.1,3.3,1C55.9,33.9,55.9,36.3,55.6,38z"/>
		<path class="st1" d="M21.4,48.4c-0.1,0-0.3,0-0.4-0.1c-7-1.8-9.8-9.8-9.9-10.2c-0.3-0.9,0.2-2,1.2-2.3c0.9-0.3,1.9,0.2,2.2,1.1
			c0,0.1,2.2,6.5,7.3,7.8c1,0.2,1.5,1.2,1.3,2.2C23,47.8,22.3,48.4,21.4,48.4z"/>
		<path class="st1" d="M40.5,19.4c-1,0-1.8-0.8-1.8-1.8c0-0.6,0.3-1.1,0.8-1.5l0.3-0.2c0.8-0.5,1.3-1.4,1.3-2.3
			c0-0.9-0.5-1.8-1.3-2.4L39.3,11c-1.7-1.2-2.8-3.2-2.7-5.4c0.1-2.1,1.2-4.1,3-5.3c0.8-0.6,1.9-0.3,2.5,0.5c0.6,0.8,0.3,1.9-0.5,2.5
			l0,0c-0.8,0.5-1.4,1.4-1.4,2.4c0,1,0.5,1.9,1.3,2.4l0.5,0.3c2.9,2,3.6,6,1.6,8.9c-0.5,0.7-1,1.2-1.7,1.7l-0.3,0.2
			C41.2,19.3,40.9,19.5,40.5,19.4z"/>
		<path class="st1" d="M31.3,19.4c-1,0-1.8-0.8-1.8-1.8c0-0.6,0.3-1.1,0.8-1.5l0.3-0.2c0.8-0.5,1.3-1.4,1.3-2.3
			c0-0.9-0.5-1.8-1.3-2.4L30.1,11c-1.7-1.2-2.8-3.2-2.7-5.4c0.1-2.1,1.2-4.1,3-5.3c0.8-0.5,1.9-0.3,2.5,0.5s0.3,1.9-0.5,2.5l0,0
			c-0.8,0.5-1.4,1.4-1.4,2.4c0,1,0.5,1.9,1.3,2.4l0.5,0.3c2.9,2,3.6,6,1.6,8.9c-0.5,0.7-1,1.2-1.7,1.7l-0.3,0.2
			C32,19.3,31.6,19.4,31.3,19.4z"/>
		<path class="st1" d="M43.8,60H7c-1,0-1.8-0.8-1.8-1.8c0-1,0.8-1.8,1.8-1.8h36.8c1,0,1.8,0.8,1.8,1.8C45.6,59.2,44.8,60,43.8,60z"
			/>
		<path class="st2" d="M47.8,28c-0.6,13.1-8.4,24.1-18.4,26.2c9.9-7.6,8.9-21.3,8.1-26.2L47.8,28z"/>
		<path class="st1" d="M56.8,29.9c-1.5-1.2-3.4-1.9-5.3-1.9c0-0.6,0-1.3,0-1.9v-1.7H0.7v1.7c0,16.4,9.9,30,22.6,31.7
			c0.9,0.1,1.8,0.2,2.8,0.2c6.1,0,11.8-2.8,16.2-7.3c6.2,0,15.4-3.2,16.9-12.1C59.9,33.8,58.3,31.2,56.8,29.9z M29.5,54.1
			c-1.1,0.2-2.3,0.4-3.4,0.4C14.5,54.5,5,42.6,4.3,28h43.5C47.2,41.1,39.4,52.1,29.5,54.1z M55.6,38c-0.5,3-2.3,5.4-5.3,7
			c-1.5,0.8-3.2,1.4-4.9,1.7c2.9-4.2,4.9-9.4,5.7-15.1c1-0.1,2.4,0.1,3.3,1C55.9,33.9,55.9,36.3,55.6,38z"/>
	</g>
</g>
</svg>
