<?xml version="1.0" encoding="utf-8"?>
<!-- Generator: Adobe Illustrator 23.0.1, SVG Export Plug-In . SVG Version: 6.00 Build 0)  -->
<svg version="1.1" id="Layer_1" xmlns="http://www.w3.org/2000/svg" xmlns:xlink="http://www.w3.org/1999/xlink" x="0px" y="0px"
	 viewBox="0 0 60 60" style="enable-background:new 0 0 60 60;" xml:space="preserve">
<style type="text/css">
	.st0{fill:#8892A5;}
	.st1{opacity:0.6;fill:#FE696A;}
</style>
<g>
	<g id="Слой_1_2_">
	</g>
</g>
<g>
	<g id="Слой_1">
		<path class="st0" d="M28.8,12c-10.3,0-18.7,8.4-18.7,18.7s8.4,18.7,18.7,18.7S47.5,41,47.5,30.7C47.5,20.4,39.2,12,28.8,12z
			 M28.8,46.7c-8.8,0-16-7.2-16-16c0-8.8,7.2-16,16-16c8.8,0,16,7.2,16,16l0,0C44.8,39.5,37.6,46.7,28.8,46.7z"/>
		<path class="st0" d="M41.7,26.1c-1-2.9-2.9-5.4-5.5-7.1c-0.6-0.4-1.5-0.2-1.9,0.4c-0.4,0.6-0.2,1.5,0.4,1.9l0,0
			c2,1.3,3.6,3.3,4.4,5.6c0.2,0.6,0.7,0.9,1.3,0.9c0.1,0,0.3,0,0.4-0.1C41.5,27.6,41.9,26.9,41.7,26.1
			C41.7,26.1,41.7,26.1,41.7,26.1z"/>
		<path class="st0" d="M25,17.4c-2.1,0.6-4,1.7-5.6,3.2c-0.5,0.5-0.6,1.4,0,1.9c0.5,0.5,1.4,0.6,1.9,0l0,0c1.3-1.2,2.8-2.1,4.4-2.6
			c0.7-0.2,1.1-1,0.9-1.7C26.5,17.6,25.8,17.2,25,17.4L25,17.4L25,17.4z"/>
		<path class="st0" d="M25.5,40.7c-5.7-1.8-8.8-7.9-7-13.6c0.1-0.3,0.2-0.7,0.4-1c0.3-0.7,0-1.5-0.7-1.8s-1.5,0-1.8,0.7
			c0,0,0,0,0,0.1c-3,6.9,0.2,14.9,7,17.9c0.4,0.2,0.8,0.3,1.3,0.5c0.1,0,0.3,0.1,0.4,0.1c0.8,0,1.4-0.6,1.4-1.4
			C26.5,41.4,26.1,40.9,25.5,40.7L25.5,40.7z"/>
		<path class="st0" d="M1.4,4.3H0v51.2h7.1V10C7.1,6.9,4.6,4.3,1.4,4.3C1.5,4.3,1.4,4.3,1.4,4.3z M4.3,52.7H2.7V38.2h1.6V52.7z
			 M4.3,35.5H2.7V7.4c1,0.5,1.6,1.5,1.6,2.6V35.5z"/>
		<rect x="2.7" y="38.2" class="st1" width="1.6" height="14.5"/>
		<path class="st0" d="M49,5.5v17.6h2v32.5H58V23.1h2V5.5H49z M55.3,52.9h-1.6V40h1.6V52.9z M55.3,37.3h-1.6V23.1h1.6V37.3z
			 M57.3,20.4h-5.5V8.2h1.4v7.3h2.7V8.2h1.4V20.4z"/>
		<rect x="53.7" y="40" class="st1" width="1.6" height="12.9"/>
	</g>
</g>
</svg>
