<?xml version="1.0" encoding="utf-8"?>
<!-- Generator: Adobe Illustrator 23.0.1, SVG Export Plug-In . SVG Version: 6.00 Build 0)  -->
<svg version="1.1" id="Layer_1" xmlns="http://www.w3.org/2000/svg" xmlns:xlink="http://www.w3.org/1999/xlink" x="0px" y="0px"
	 viewBox="0 0 60 60" style="enable-background:new 0 0 60 60;" xml:space="preserve">
<style type="text/css">
	.st0{fill:#8892A5;}
	.st1{opacity:0.6;fill:#FE696A;}
</style>
<g>
	<g id="Слой_1_2_">
		<g id="Слой_1">
			<path class="st0" d="M30,0.2c-16.5,0-30,13.5-30,30s13.5,30,30,30s30-13.5,30-30S46.5,0.2,30,0.2z M30,57.3
				c-15,0-27.2-12.2-27.2-27.2S15,3,30,3s27.2,12.2,27.2,27.2S45,57.3,30,57.3z"/>
			<path class="st0" d="M53.8,25.3c-1.7-8.2-7.6-15-15.4-17.9c-0.7-0.3-1.5,0.1-1.8,0.8c-0.3,0.7,0.1,1.5,0.8,1.8c0,0,0.1,0,0.1,0
				c7,2.6,12.1,8.6,13.7,15.8c0.1,0.7,0.7,1.1,1.4,1.1c0.1,0,0.2,0,0.3,0C53.4,26.8,53.9,26.1,53.8,25.3
				C53.8,25.3,53.8,25.3,53.8,25.3z"/>
			<path class="st0" d="M30,5.9c-5.4,0-10.7,1.8-15,5.2c-0.6,0.4-0.8,1.3-0.3,2c0.4,0.6,1.3,0.8,2,0.3c0,0,0.1-0.1,0.1-0.1
				c3.8-3,8.4-4.6,13.2-4.6c0.8,0,1.4-0.6,1.4-1.4S30.7,5.9,30,5.9z"/>
			<path class="st0" d="M22.6,25.3c0.5-0.9,0.2-2-0.6-2.5c-0.9-0.5-2-0.2-2.5,0.6c-0.5,0.9-0.2,2,0.6,2.5
				C20.9,26.5,22,26.2,22.6,25.3C22.6,25.3,22.6,25.3,22.6,25.3z"/>
			<path class="st0" d="M51.1,33.8c-5.4-2.8-9.9,0.5-10.1,0.6c-0.1,0.1-0.1,0.1-0.2,0.2c-3.2-3.9-7.9-9.6-11.6-13.4
				c-0.1-0.1-0.1-0.1-0.2-0.2c-1.6-1.6-3-2.9-4.1-3.5c-5.6-3.4-14,1.4-14.3,1.6c-0.4,0.2-0.7,0.6-0.7,1.1c0,0.4-0.7,10.3,4.9,13.7
				c1.1,0.7,2.9,1.4,5.1,2.1c0.1,0,0.2,0.1,0.3,0.1c5.2,1.6,12.5,3.2,17.4,4.2c-0.1,1.3-0.2,5.9,4.2,8.9c0.4,0.3,0.9,0.3,1.3,0.1
				c0.1,0,0.2-0.1,0.3-0.2c0.7-0.6,1.2-1.3,1.5-2.1c0.6-1.3,1.1-3.4,0.6-6.2c5.5-1.7,6.3-5.6,6.3-5.7C51.9,34.7,51.6,34.1,51.1,33.8
				z M20.2,33.2c-1.8-0.6-3.2-1.1-4-1.6c-2.9-1.8-3.6-6.8-3.6-9.7c0-0.2,0-0.5,0-0.7C15,20,20.2,18,23.3,19.9c0.8,0.5,2,1.5,3.3,2.8
				c0.1,2.3-0.6,4.5-1.8,6.3C23.8,30.5,22.4,32,20.2,33.2z M23.7,34.3c1.4-1,2.6-2.3,3.5-3.7c1-1.5,1.7-3.2,2-5
				c3.5,3.9,7.7,8.8,10.5,12.5C35.2,37,28.8,35.7,23.7,34.3L23.7,34.3z M42.3,46.1c-1.9-1.9-2-4.2-2-5.2c0.9,0.2,1.6,0.3,2.1,0.4
				l0.3,0.1c0,0.2,0.1,0.4,0.1,0.6C43.1,44,42.7,45.4,42.3,46.1L42.3,46.1z M44.2,38.4c-0.1,0-0.3-0.1-0.4-0.1
				c-0.3-0.4-0.8-1-1.3-1.6c0,0,0.1-0.1,0.1-0.1c0.1-0.1,2.7-1.9,5.9-0.9C48,36.6,46.7,37.8,44.2,38.4L44.2,38.4z"/>
			<path class="st1" d="M39.8,38c-4.6-0.9-11-2.3-16.1-3.7c1.4-1,2.6-2.3,3.5-3.7c1-1.5,1.7-3.2,2-5C32.8,29.4,36.9,34.3,39.8,38z"
				/>
			<path class="st1" d="M42.5,49.6c-6.7,0.9-8.3-6.8-8.3-6.8S17.5,41,12.6,35.5S9.8,20.3,9.8,20.3c0,0.4-0.7,10.3,4.9,13.7
				c1.1,0.7,2.9,1.4,5.1,2.1c0.1,0,0.2,0.1,0.3,0.1c5.2,1.6,12.5,3.2,17.4,4.2c-0.1,1.3-0.2,5.9,4.2,8.9
				C41.9,49.5,42.2,49.6,42.5,49.6z"/>
		</g>
	</g>
</g>
</svg>
