<?xml version="1.0" encoding="utf-8"?>
<!-- Generator: Adobe Illustrator 23.0.1, SVG Export Plug-In . SVG Version: 6.00 Build 0)  -->
<svg version="1.1" id="Layer_1" xmlns="http://www.w3.org/2000/svg" xmlns:xlink="http://www.w3.org/1999/xlink" x="0px" y="0px"
	 viewBox="0 0 60 60" style="enable-background:new 0 0 60 60;" xml:space="preserve">
<style type="text/css">
	.st0{opacity:0.6;fill:#FE696A;}
	.st1{fill:#8892A5;}
</style>
<g>
	<g id="Слой_1_2_">
	</g>
</g>
<g>
	<g id="Слой_1">
		<path class="st0" d="M30.2,22.8c0,0.8-0.3,1.6-0.7,2.3c-0.8,1.2-2.1,2-3.5,2.1c-0.2,0-0.5,0-0.7,0c-1.2,0-2.4-0.4-3.4-1
			c-2.4-1.5-3.3-4.4-2.4-6.6c-0.1,1.9,0.9,3.9,2.7,5.1c1,0.7,2.2,1,3.4,1c0.2,0,0.5,0,0.7,0c1.4-0.1,2.7-0.9,3.5-2.1
			C29.9,23.4,30,23.1,30.2,22.8z"/>
		<path class="st0" d="M41.8,22.4c-0.1,2.2-1.8,4.2-4.3,4.9c-0.6,0.2-1.1,0.2-1.7,0.2c-2.4,0-4.6-1.4-5.2-3.6c-0.3-1-0.2-2,0.2-3
			c0,0.5,0,1,0.2,1.5c0.6,2.2,2.8,3.6,5.2,3.6c0.6,0,1.1-0.1,1.7-0.2C39.7,25.3,41.1,24,41.8,22.4z"/>
		<path class="st0" d="M45.6,33.4C45.6,33.4,45.6,33.4,45.6,33.4c-0.1,1.3-0.7,2.6-1.8,3.4c-1.1,0.9-2.5,1.4-3.9,1.4
			c-0.1,0-0.3,0-0.4,0c-3.1-0.2-5.6-2.6-5.4-5.4c0-0.5,0.1-1,0.3-1.4c-0.1,2.8,2.3,5.2,5.4,5.4c0.1,0,0.3,0,0.4,0
			c1.4,0,2.8-0.5,3.9-1.4C44.8,34.8,45.3,34.1,45.6,33.4z"/>
		<path class="st0" d="M33.1,33.7c-0.2,0.1-0.5,0.2-0.7,0.2c-0.5,0-1-0.3-1.2-0.7l-2.7-4.4c-0.3-0.6-0.3-1.3,0.2-1.7
			c0,0.1,0.1,0.2,0.1,0.3l2.7,4.4c0.4,0.7,1.3,0.9,1.9,0.5c0,0,0,0,0,0c0.1-0.1,0.2-0.1,0.3-0.2C33.9,32.6,33.7,33.3,33.1,33.7z"/>
		<path class="st0" d="M48.3,42.4l-0.1,0.9c-0.1,0.7-0.7,1.2-1.4,1.2c-0.1,0-0.1,0-0.2,0c-0.8-0.1-1.3-0.8-1.2-1.6l0.5-4.3
			c0-0.2,0.1-0.4,0.2-0.6l-0.4,3.4c-0.1,0.8,0.5,1.5,1.2,1.6c0.1,0,0.1,0,0.2,0C47.6,43,48,42.8,48.3,42.4z"/>
		<path class="st1" d="M30,0C13.5,0,0,13.4,0,30s13.5,30,30,30s30-13.5,30-30S46.5,0,30,0z M30,57.2C15,57.2,2.8,45,2.8,30
			S15,2.8,30,2.8S57.2,15,57.2,30S45,57.2,30,57.2z"/>
		<path class="st1" d="M53.8,25.1c-1.7-8.2-7.6-15-15.4-17.9c-0.7-0.3-1.5,0.1-1.8,0.8c-0.3,0.7,0.1,1.5,0.8,1.8c0,0,0.1,0,0.1,0
			c7,2.6,12.1,8.6,13.7,15.8c0.1,0.7,0.7,1.1,1.4,1.1c0.1,0,0.2,0,0.3,0C53.4,26.6,53.9,25.9,53.8,25.1
			C53.8,25.1,53.8,25.1,53.8,25.1z"/>
		<path class="st1" d="M30,5.7c-5.4,0-10.7,1.8-15,5.2c-0.6,0.4-0.8,1.3-0.3,2c0.4,0.6,1.3,0.8,2,0.3c0,0,0.1-0.1,0.1-0.1
			c3.8-3,8.4-4.6,13.2-4.6c0.8,0,1.4-0.6,1.4-1.4S30.7,5.7,30,5.7z"/>
		<path class="st1" d="M41,43.4c-1.1-1.4-2.6-3-4.2-4.7c-1.2-1.3-3.1-3.1-5.1-4.9c-2.1-1.8-4.4-3.6-6.7-4.9c-3.6-2-6.3-2.7-8.4-2.2
			s-3,2.3-3.7,3.5l-0.1,0.1l-0.2,0.3c-0.4,0.7-0.9,1.5-1.1,2.4c-0.2,0.8-0.2,1.6,0,2.4c0.5,2,2.5,3.9,6,5.9
			c4.7,2.7,11.8,4.5,14.6,5.2c2.3,0.5,4.5,1,6.3,1.2c0.7,0.1,1.4,0.2,2.1,0.2c0.7,0,1.1-0.1,1.5-0.3c0.2-0.1,0.4-0.3,0.5-0.5
			c0,0,0,0,0,0c0-0.1,0.1-0.1,0.1-0.2C43,46.2,42.4,45.2,41,43.4z M37.6,45c-4.2-0.7-8.4-1.8-12.5-3.1c-0.9-0.3-1.9-0.8-2.7-1l0,0
			c-1.1-0.6-2.2-1-3.1-1.5c-0.1-0.1-0.2-0.1-0.4-0.2c-0.7-0.4-1.4-0.8-2.1-1.3c-1.7-1.2-2.4-2.2-2.6-2.8c0,0,0-0.1,0-0.1
			c-0.1-0.2-0.1-0.4-0.1-0.6c0-0.6,0.4-1.2,0.9-2.1c0.1-0.1,0.1-0.2,0.2-0.4l0.1-0.2c0.7-1.2,1.1-2,2-2.2c0.2-0.1,0.5-0.1,0.7-0.1
			c1,0,2.7,0.4,5.5,2c5.3,3,11.9,9.8,14.9,13.3c0.1,0.1,0.2,0.3,0.3,0.4C38.4,45.1,38,45.1,37.6,45L37.6,45z"/>
		<path class="st1" d="M10.2,30.5c-0.2,0-0.5-0.1-0.7-0.2l-3.7-2.1c-0.7-0.4-0.9-1.3-0.5-1.9c0.4-0.6,1.2-0.9,1.9-0.5l3.7,2.1
			c0.7,0.4,0.9,1.2,0.5,1.9C11.2,30.2,10.7,30.5,10.2,30.5L10.2,30.5z"/>
		<path class="st1" d="M9,34.4c-0.1,0-0.2,0-0.3,0L6.8,34c-0.8-0.1-1.3-0.9-1.2-1.6c0.1-0.8,0.9-1.3,1.6-1.2c0,0,0.1,0,0.1,0
			l1.9,0.4c0.8,0.1,1.3,0.9,1.1,1.7C10.2,33.9,9.6,34.4,9,34.4L9,34.4z"/>
		<path class="st1" d="M12.8,27.5c-0.4,0-0.8-0.2-1-0.5l-1.3-1.4c-0.5-0.6-0.5-1.5,0.1-2c0.6-0.5,1.4-0.5,2,0.1l1.3,1.4
			c0.5,0.6,0.5,1.5-0.1,2C13.5,27.4,13.2,27.5,12.8,27.5z"/>
		<path class="st0" d="M22.3,34.4c-1.2,2.4-2.2,4-3,4.9l-0.4-0.2c-0.8-0.5-1.5-0.9-2.1-1.3c0.6-0.7,1.6-2.1,2.9-4.7
			c0.3-0.7,1.2-1,1.9-0.7C22.3,32.8,22.6,33.7,22.3,34.4L22.3,34.4z"/>
		<path class="st0" d="M26.2,39.9c-0.3,0.7-0.7,1.3-1.1,1.9c-0.9-0.3-1.9-0.7-2.7-1c0.5-0.7,1-1.4,1.3-2.1c0.3-0.7,1.2-1,1.9-0.6
			C26.3,38.4,26.6,39.2,26.2,39.9L26.2,39.9z"/>
		<path class="st1" d="M27.7,16.2c-1.2-0.8-2.7-1.2-4.1-1c-1.4,0.2-2.7,0.9-3.5,2.1c-0.4,0.7-0.7,1.4-0.7,2.2
			c-0.1,1.9,0.9,3.9,2.7,5.1c1,0.7,2.2,1,3.4,1c0.2,0,0.5,0,0.7,0c1.4-0.1,2.7-0.9,3.5-2.1c0.2-0.2,0.3-0.5,0.4-0.8
			C31.1,20.6,30.1,17.8,27.7,16.2z M27.4,22.1C27.4,22.1,27.4,22.1,27.4,22.1L27.4,22.1c-0.4,0.5-0.9,0.8-1.5,0.9
			c-0.8,0.1-1.6-0.1-2.2-0.6c-0.8-0.5-1.3-1.2-1.5-2.1c-0.1-0.5,0-1,0.3-1.4c0.3-0.5,0.9-0.8,1.5-0.9c0.1,0,0.2,0,0.4,0
			c0.7,0,1.3,0.2,1.8,0.6C27.5,19.5,28.1,21,27.4,22.1L27.4,22.1z"/>
		<path class="st0" d="M27.4,22.1C27.4,22.1,27.3,22.1,27.4,22.1L27.4,22.1c-0.4,0.5-0.9,0.8-1.5,0.9c-0.8,0.1-1.6-0.1-2.2-0.6
			c-0.8-0.5-1.3-1.2-1.5-2.1c-0.1-0.5,0-1,0.3-1.4c0.3-0.5,0.9-0.8,1.5-0.9c0.1,0,0.2,0,0.4,0c0.7,0,1.3,0.2,1.8,0.6
			C27.5,19.5,28.1,21,27.4,22.1z"/>
		<path class="st1" d="M41.9,19.5c-0.7-2.7-3.8-4.2-6.9-3.4c-2.5,0.7-4.2,2.7-4.3,4.9c0,0.5,0,1,0.2,1.5c0.6,2.2,2.8,3.6,5.2,3.6
			c0.6,0,1.1-0.1,1.7-0.2c1.9-0.5,3.4-1.9,4-3.5C42.1,21.5,42.2,20.4,41.9,19.5z M38.9,21.8c-0.5,0.7-1.1,1.1-1.9,1.3
			c-1.5,0.4-3.1-0.2-3.4-1.4c0-0.1,0-0.1,0-0.2c-0.2-1.2,0.8-2.4,2.2-2.8c0.3-0.1,0.6-0.1,1-0.1c1.2,0,2.2,0.6,2.4,1.5
			C39.4,20.8,39.3,21.4,38.9,21.8L38.9,21.8z"/>
		<path class="st0" d="M38.9,21.8c-0.5,0.7-1.1,1.1-1.9,1.3c-1.5,0.4-3.1-0.2-3.4-1.4c0-0.1,0-0.1,0-0.2c-0.2-1.2,0.8-2.4,2.2-2.8
			c0.3-0.1,0.6-0.1,1-0.1c1.2,0,2.2,0.6,2.4,1.5C39.4,20.8,39.3,21.4,38.9,21.8z"/>
		<path class="st1" d="M40.5,26.5c-3.2-0.2-5.8,1.9-6,4.7c0,0,0,0,0,0c-0.1,2.8,2.3,5.2,5.4,5.4c0.1,0,0.3,0,0.4,0
			c1.4,0,2.8-0.5,3.9-1.4c0.6-0.5,1.1-1.2,1.4-1.9c0.2-0.5,0.3-0.9,0.3-1.4C46.1,29.1,43.7,26.7,40.5,26.5z M43.1,31.8
			c0,0.4-0.1,0.7-0.4,1c-0.5,0.7-1.5,1.2-2.7,1.1c-1.4-0.1-2.5-0.9-2.7-2c0-0.2,0-0.3,0-0.5c0.1-1.2,1.3-2.1,2.8-2.1h0.2
			c1.6,0.1,2.8,1.1,2.8,2.3C43.1,31.7,43.1,31.7,43.1,31.8L43.1,31.8z"/>
		<path class="st0" d="M43.1,31.6c0,0,0,0.1,0,0.1c0,0.4-0.1,0.7-0.4,1c-0.5,0.7-1.5,1.2-2.7,1.1c-1.4-0.1-2.5-0.9-2.7-2
			c0-0.2,0-0.3,0-0.5c0.1-1.2,1.3-2.1,2.8-2.1h0.2C41.9,29.4,43.1,30.4,43.1,31.6z"/>
		<path class="st1" d="M33.7,32c-0.1,0.1-0.2,0.2-0.3,0.2c-0.7,0.4-1.5,0.2-1.9-0.5l-2.7-4.4c0-0.1-0.1-0.2-0.1-0.3
			c-0.3-0.7,0.1-1.5,0.8-1.8c0.6-0.2,1.3,0,1.7,0.6l2.7,4.4C34.2,30.8,34.2,31.5,33.7,32z"/>
		<path class="st1" d="M47.8,35.9c-0.8-0.1-1.5,0.4-1.6,1.2L46.1,38l-0.4,3.4c-0.1,0.8,0.5,1.5,1.2,1.6c0.1,0,0.1,0,0.2,0
			c0.5,0,0.9-0.2,1.2-0.6l0,0c0.1-0.2,0.2-0.4,0.2-0.6l0.5-4.3C49.1,36.7,48.6,36,47.8,35.9z"/>
		<path class="st0" d="M42,47.8c-1.4,1.3-6.4,2.2-12.5,1.4c-7-0.9-14.4-4.2-16.7-7.9s-1.3-8-1.3-8c-0.2,0.8-0.2,1.6,0,2.4
			c0.5,2,2.5,3.9,6,5.9c4.7,2.7,11.8,4.5,14.6,5.2c2.3,0.5,4.5,1,6.3,1.2c0.7,0.1,1.4,0.2,2.1,0.2C41.2,48.1,41.7,48,42,47.8z"/>
	</g>
</g>
</svg>
