<?xml version="1.0" encoding="utf-8"?>
<!-- Generator: Adobe Illustrator 23.0.1, SVG Export Plug-In . SVG Version: 6.00 Build 0)  -->
<svg version="1.1" id="Layer_1" xmlns="http://www.w3.org/2000/svg" xmlns:xlink="http://www.w3.org/1999/xlink" x="0px" y="0px"
	 viewBox="0 0 60 60" style="enable-background:new 0 0 60 60;" xml:space="preserve">
<style type="text/css">
	.st0{fill:#8892A5;}
	.st1{opacity:0.6;fill:#FE696A;}
</style>
<g>
	<g id="Слой_1">
		<g>
			<g id="Слой_1_1_">
				<path class="st0" d="M0,28v1.3c0,13.6,13.5,24.6,30,24.6c1.6,0,3.2-0.1,4.8-0.3c3.5-0.5,6.8-1.4,10-2.9c3.2-1.5,6.1-3.4,8.4-5.8
					l0,0c2.5-2.4,4.4-5.3,5.5-8.5c0.7-1.8,1.1-3.7,1.2-5.6c0-0.5,0-0.9,0-1.4V28L0,28z M51.5,42.6c-0.7,0.7-1.5,1.4-2.3,2.1
					c-3.8,3.1-8.9,5.3-14.4,6.1c-1.6,0.2-3.2,0.3-4.8,0.3c-1.7,0-3.5-0.1-5.2-0.4c-12-1.9-21.1-10.1-21.9-20h54.3
					C56.8,35.2,54.7,39.3,51.5,42.6z"/>
				<path class="st1" d="M24.8,50.8c-12-1.9-21.1-10.1-21.9-20h6.8C10.3,39.2,16.2,46.8,24.8,50.8z"/>
				<path class="st0" d="M29.9,21.7c-0.8,0-1.4-0.6-1.4-1.4c0-0.5,0.2-0.9,0.6-1.1l0.2-0.1c0.6-0.4,1-1.1,1-1.8c0-0.7-0.4-1.4-1-1.9
					L29,15.1c-1.4-1-2.2-2.5-2.1-4.2c0.1-1.7,0.9-3.2,2.3-4.1c0.6-0.4,1.5-0.3,2,0.4s0.3,1.5-0.4,2c0,0,0,0,0,0
					c-0.7,0.4-1.1,1.1-1.1,1.9c0,0.8,0.4,1.5,1,1.9l0.4,0.3c2.3,1.6,2.8,4.7,1.2,7c-0.4,0.5-0.8,1-1.3,1.3l-0.2,0.1
					C30.5,21.6,30.2,21.7,29.9,21.7z"/>
				<path class="st0" d="M22.7,21.7c-0.8,0-1.4-0.6-1.4-1.4c0-0.5,0.2-0.9,0.6-1.1l0.2-0.1c0.6-0.4,1-1.1,1-1.8c0-0.7-0.4-1.4-1-1.9
					l-0.4-0.3c-1.4-1-2.2-2.6-2.1-4.2c0.1-1.7,0.9-3.2,2.3-4.1c0.6-0.4,1.5-0.3,2,0.4c0.4,0.6,0.3,1.5-0.4,2c0,0,0,0,0,0
					c-0.7,0.4-1.1,1.1-1.1,1.9c0,0.8,0.4,1.5,1,1.9l0.4,0.3c2.3,1.6,2.8,4.7,1.2,7c-0.4,0.5-0.8,1-1.3,1.3l-0.2,0.1
					C23.2,21.6,23,21.7,22.7,21.7z"/>
				<path class="st0" d="M37.1,21.3c-0.8,0-1.4-0.6-1.4-1.4c0-0.5,0.2-0.9,0.6-1.1l0.2-0.1c0.6-0.4,1-1.1,1-1.8c0-0.7-0.4-1.4-1-1.9
					l-0.4-0.3c-1.4-1-2.2-2.6-2.1-4.2c0.1-1.7,0.9-3.2,2.4-4.1c0.6-0.4,1.5-0.3,2,0.4c0.4,0.6,0.3,1.5-0.4,2l0,0
					c-0.7,0.4-1.1,1.1-1.1,1.9c0,0.8,0.4,1.5,1,1.9l0.4,0.3c2.3,1.6,2.8,4.7,1.2,7c-0.4,0.5-0.8,1-1.3,1.3L38,21.1
					C37.7,21.2,37.4,21.3,37.1,21.3z"/>
				<path class="st0" d="M41,46c-0.8,0-1.4-0.7-1.4-1.4c0-0.5,0.3-1,0.8-1.3c3.8-1.7,6.9-4.2,8.9-7.3c0.4-0.7,1.3-0.8,1.9-0.4
					c0.7,0.4,0.8,1.3,0.4,1.9l0,0c-2.3,3.6-5.8,6.5-10.2,8.4C41.4,46,41.2,46,41,46z"/>
			</g>
		</g>
	</g>
</g>
</svg>
