<?xml version="1.0" encoding="utf-8"?>
<!-- Generator: Adobe Illustrator 23.0.1, SVG Export Plug-In . SVG Version: 6.00 Build 0)  -->
<svg version="1.1" id="Layer_1" xmlns="http://www.w3.org/2000/svg" xmlns:xlink="http://www.w3.org/1999/xlink" x="0px" y="0px"
	 viewBox="0 0 60 60" style="enable-background:new 0 0 60 60;" xml:space="preserve">
<style type="text/css">
	.st0{fill:#8892A5;}
	.st1{opacity:0.6;fill:#FE696A;}
</style>
<g>
	<g id="Слой_1">
		<path class="st0" d="M30.1,0c-16.5,0-30,13.5-30,30s13.5,30,30,30s30-13.5,30-30S46.6,0,30.1,0z M30.1,57.2
			C15.1,57.2,2.9,45,2.9,30S15.1,2.8,30.1,2.8S57.3,15,57.3,30S45.1,57.2,30.1,57.2z"/>
		<path class="st0" d="M53.9,25.1c-1.7-8.2-7.6-15-15.4-17.9c-0.7-0.3-1.5,0.1-1.8,0.8c-0.3,0.7,0.1,1.5,0.8,1.8c0,0,0.1,0,0.1,0
			c7,2.6,12.1,8.6,13.7,15.8c0.1,0.7,0.7,1.1,1.4,1.1c0.1,0,0.2,0,0.3,0C53.5,26.7,54,25.9,53.9,25.1C53.9,25.1,53.9,25.1,53.9,25.1
			z"/>
		<path class="st0" d="M30.1,5.7c-5.4,0-10.7,1.8-15,5.2c-0.6,0.4-0.8,1.3-0.3,2c0.4,0.6,1.3,0.8,2,0.3c0,0,0.1-0.1,0.1-0.1
			c3.8-3,8.4-4.6,13.2-4.6c0.8,0,1.4-0.6,1.4-1.4S30.8,5.7,30.1,5.7z"/>
		<path class="st1" d="M44,17.9l-5.2,17.8v0l-1.4,4.8l0,0.1l0,0l-2.6,8.9L33.2,55c-0.2,0.6-0.8,1-1.4,0.9
			c-5.5-0.8-10.7-3.1-15.1-6.7c-3.1-2.5-5.6-5.6-7.5-9.1c1.8,3,4.1,5.6,6.7,7.8c4.3,3.5,9.4,5.8,15.1,6.7c0.6,0.1,1.3-0.3,1.4-0.9
			l1.6-5.5l2.6-8.9l0,0l0-0.1l1.4-4.8v0l5.2-17.8c0-0.1,0-0.1,0-0.2c0.1,0,0.2,0.1,0.3,0.2h0C44,16.8,44.1,17.4,44,17.9z"/>
		<path class="st0" d="M42.8,15.2L42.8,15.2c-0.4-0.3-1-0.3-1.5,0L21.8,25.9l0,0L16,29h0l-8.6,4.7c-0.6,0.3-0.8,1-0.6,1.6
			c0.7,1.7,1.5,3.3,2.4,4.8c1.8,2.9,4.1,5.6,6.8,7.7c4.3,3.5,9.4,5.8,15.1,6.7c0.6,0.1,1.3-0.3,1.4-0.9l1.6-5.5l2.6-8.9l0,0l0-0.1
			l1.4-4.8v0l5.2-17.8C43.3,16,43.2,15.5,42.8,15.2L42.8,15.2z M39.2,20.9l-3.4,11.7l-0.4,1.2l-1.6,5.6l-0.2,0.9l-1.7,5.9
			c-6.8-1.9-12.6-6.3-16.3-12.3c-0.3-0.4-0.5-0.9-0.8-1.4l1.2-0.6l8.5-4.7l15.4-8.5L39.2,20.9z M30.2,51.8
			c-9.2-1.7-16.9-7.9-20.6-16.4l2.9-1.6c4,7.3,10.7,12.7,18.7,14.9L30.2,51.8z"/>
		<path class="st1" d="M30.2,51.8c-9.2-1.7-16.9-7.9-20.6-16.4l2.9-1.6c4,7.3,10.7,12.7,18.7,14.9L30.2,51.8z"/>
		<path class="st1" d="M24.5,33.7c-1.7,2.1-4.9,2.4-7,0.7c-0.8-0.6-1.3-1.5-1.6-2.5l8.5-4.7C26,29.1,26.1,31.8,24.5,33.7z"/>
		<path class="st1" d="M29.2,41.2c-0.6,0.7-1.7,0.8-2.4,0.2c-0.7-0.6-0.8-1.7-0.2-2.4c0.6-0.7,1.7-0.8,2.4-0.2c0,0,0,0,0,0
			C29.7,39.4,29.8,40.4,29.2,41.2z"/>
		<path class="st1" d="M35.9,27.4c-0.9,1-2.5,1.1-3.5,0.1c-1-0.9-1.1-2.5-0.1-3.5c0.9-1,2.5-1.1,3.5-0.1c0,0,0,0,0,0
			C36.8,24.8,36.8,26.4,35.9,27.4z"/>
		<path class="st1" d="M33.8,39.5c-1.9-0.6-3-2.6-2.4-4.5c0.4-1.4,1.6-2.4,3.1-2.5c0.4,0,0.9,0,1.3,0.1L33.8,39.5z"/>
		<path class="st1" d="M30.2,32.3c-0.6,0.7-1.7,0.8-2.4,0.2c-0.7-0.6-0.8-1.7-0.2-2.4c0.6-0.7,1.7-0.8,2.4-0.2c0,0,0,0,0,0
			C30.7,30.5,30.8,31.5,30.2,32.3z"/>
	</g>
</g>
</svg>
