<?xml version="1.0" encoding="utf-8"?>
<!-- Generator: Adobe Illustrator 23.0.1, SVG Export Plug-In . SVG Version: 6.00 Build 0)  -->
<svg version="1.1" id="Layer_1" xmlns="http://www.w3.org/2000/svg" xmlns:xlink="http://www.w3.org/1999/xlink" x="0px" y="0px"
	 viewBox="0 0 60 60" style="enable-background:new 0 0 60 60;" xml:space="preserve">
<style type="text/css">
	.st0{fill:#8892A5;}
	.st1{opacity:0.6;fill:#FE696A;}
</style>
<g>
	<g id="Слой_1_2_">
		<path class="st0" d="M30,0C13.5,0,0,13.5,0,30s13.5,30,30,30s30-13.5,30-30S46.5,0,30,0z M30,57.2C15,57.2,2.8,45,2.8,30
			S15,2.8,30,2.8S57.2,15,57.2,30S45,57.2,30,57.2z"/>
		<path class="st0" d="M53.8,25.1c-1.7-8.2-7.6-15-15.4-17.9c-0.7-0.3-1.5,0.1-1.8,0.8c-0.3,0.7,0.1,1.5,0.8,1.8c0,0,0.1,0,0.1,0
			c7,2.6,12.1,8.6,13.7,15.8c0.1,0.7,0.7,1.1,1.4,1.1c0.1,0,0.2,0,0.3,0C53.4,26.7,53.9,25.9,53.8,25.1
			C53.8,25.1,53.8,25.1,53.8,25.1z"/>
		<path class="st0" d="M30,5.7c-5.4,0-10.7,1.8-15,5.2c-0.6,0.4-0.8,1.3-0.3,2c0.4,0.6,1.3,0.8,2,0.3c0,0,0.1-0.1,0.1-0.1
			c3.8-3,8.4-4.6,13.2-4.6c0.8,0,1.4-0.6,1.4-1.4S30.7,5.7,30,5.7z"/>
		<path class="st0" d="M48.7,34.2c-0.1-6.8-2.9-12.5-8.2-16.5c-7.8-5.9-17.5-4.3-24.1-0.9c-5.4,2.8-9.1,6.9-9.7,10.7
			c-0.1,0.5-0.1,1-0.1,1.4c0.2,6.4,4.8,7.4,9.2,8.4c2.4,0.6,5.2,1.2,7.7,2.7c3.6,2.2,4.7,4.1,5.8,6c1,1.7,2,3.5,4.7,4.7
			c0.8,0.3,1.6,0.6,2.5,0.6c0.3,0,0.5,0,0.8,0c1.2,0,2.3-0.3,3.4-0.7c1-0.5,2-1.1,2.8-1.8c1.8-1.6,3.1-3.5,3.9-5.7c0,0,0-0.1,0-0.1
			l0,0C48.2,40.3,48.7,37.3,48.7,34.2z M44.6,42.3C44.6,42.3,44.6,42.3,44.6,42.3L44.6,42.3c-0.5,1.5-1.3,2.7-2.3,3.8
			c-0.8,0.9-1.8,1.6-2.9,2.1c-1.4,0.6-3,0.7-4.4,0.1c-1.9-0.8-2.5-1.9-3.4-3.5c-1.1-2-2.5-4.5-6.8-7.1c-2.9-1.7-5.9-2.4-8.6-3
			c-4.8-1.1-6.9-1.7-7-5.7c0-0.2,0-0.4,0-0.5c0-0.3,0.1-0.6,0.2-0.9c0.8-2.8,3.9-5.9,8.1-8.1c3-1.6,6.8-2.7,10.7-2.7
			c3.6,0,7.2,0.9,10.4,3.4c4.6,3.5,7,8.3,7.1,14.2C45.9,36.9,45.5,39.6,44.6,42.3L44.6,42.3z"/>
		<path class="st0" d="M19.1,31.6c-2.4-0.1-4.3-2.2-4.2-4.6c0.1-2.2,1.8-4,4-4.2c2.4-0.1,4.5,1.8,4.6,4.3c0.1,2.4-1.8,4.5-4.3,4.6
			L19.1,31.6z M19.1,25.6L19.1,25.6c-0.9,0-1.6,0.8-1.6,1.7c0,0,0,0,0,0c0,0.9,0.8,1.6,1.7,1.5c0.9-0.1,1.5-0.9,1.4-1.8
			C20.5,26.3,19.8,25.7,19.1,25.6L19.1,25.6z"/>
		<path class="st1" d="M43.8,33.9l-2-1.5l1.9-2.9c0.4-0.6,0.3-1.5-0.4-2c-0.6-0.4-1.5-0.3-2,0.4c0,0,0,0,0,0l-1.8,2.7l-3.3-2.5
			l1.5-2.4c0.4-0.7,0.2-1.5-0.4-1.9c-0.7-0.4-1.5-0.2-1.9,0.4l-1.4,2.2L32,24.9c-0.6-0.5-1.5-0.3-2,0.3c-0.5,0.6-0.3,1.5,0.3,2
			l2.1,1.6l-2,3.2l-2-1.5c-0.6-0.5-1.5-0.4-2,0.2c-0.5,0.6-0.4,1.5,0.2,2c0,0,0,0,0,0l2.1,1.6l-1.3,2c-0.4,0.7-0.2,1.5,0.4,1.9
			s1.5,0.2,1.9-0.4l1.1-1.8l3.2,2.4l-1.4,2.1c-0.4,0.6-0.3,1.5,0.4,2c0.6,0.4,1.5,0.3,2-0.4l1.3-2l2,1.5c0.6,0.5,1.5,0.3,2-0.3
			c0.4-0.6,0.3-1.5-0.3-1.9l-2.1-1.6l2.1-3.1l1.9,1.5c0.6,0.5,1.5,0.4,2-0.2C44.5,35.2,44.4,34.4,43.8,33.9
			C43.8,33.9,43.8,33.9,43.8,33.9L43.8,33.9z M35.9,36.1l-3.2-2.4l2-3.2l3.3,2.5L35.9,36.1z"/>
		<path class="st1" d="M36.4,51.5c-11.8,1.4-19.4-3.1-24.7-10.2C5.7,33.4,6.5,29,6.5,29c0.2,6.4,4.8,7.4,9.2,8.4
			c2.4,0.6,5.2,1.2,7.7,2.7c3.6,2.2,4.7,4.1,5.8,6c1,1.7,2,3.5,4.7,4.7C34.7,51.2,35.5,51.4,36.4,51.5z"/>
	</g>
</g>
</svg>
