<svg width="155" height="47" viewBox="0 0 155 47" fill="none" xmlns="http://www.w3.org/2000/svg">
<g clip-path="url(#clip0)">
<path d="M58.9 38.2V10H76.8V15.2H65.6V21.3H74V26.5H65.6V38.2H58.9V38.2Z" fill="#377dff"/>
<path d="M86.2 15.8V20C87.8 17.1 89.9 15.6 92.5 15.6V22.6H90.9C89.4 22.6 88.2 23 87.4 23.7C86.6 24.5 86.2 25.8 86.2 27.6V38.2H79.5V15.8H86.2Z" fill="#377dff"/>
<path d="M95.9 35.3C93.7 33.2 92.6 30.4 92.6 26.9C92.6 23.4 93.7 20.7 95.9 18.6C98.1 16.5 100.8 15.5 104 15.5C107.2 15.5 109.9 16.5 112.1 18.6C114.3 20.7 115.4 23.4 115.4 26.9C115.4 30.4 114.3 33.1 112.1 35.3C109.9 37.5 107.2 38.5 104 38.5C100.8 38.5 98.1 37.4 95.9 35.3ZM107.3 31.2C108.2 30.2 108.6 28.8 108.6 27C108.6 25.2 108.1 23.8 107.2 22.8C106.3 21.8 105.2 21.4 103.9 21.4C102.6 21.4 101.6 21.9 100.7 22.8C99.8 23.8 99.3 25.1 99.3 27C99.3 28.9 99.8 30.2 100.7 31.2C101.6 32.2 102.7 32.6 104 32.6C105.3 32.6 106.4 32.1 107.3 31.2Z" fill="#377dff"/>
<path d="M124.5 15.8V19.1C125.9 16.7 128.1 15.6 131.1 15.6C133.6 15.6 135.6 16.5 137.2 18.2C138.8 19.9 139.5 22.2 139.5 25.2V38.3H132.8V26C132.8 24.6 132.4 23.4 131.7 22.6C131 21.8 129.9 21.4 128.6 21.4C127.3 21.4 126.3 21.8 125.5 22.6C124.8 23.4 124.4 24.5 124.4 26V38.2H117.7V15.8H124.5Z" fill="#377dff"/>
<path d="M152.5 32.4H154.9V38.2H151.5C149 38.2 147.1 37.6 145.8 36.5C144.5 35.4 143.8 33.5 143.8 30.8V21.5H141.8V15.8H143.8V10.3H150.5V15.8H154.9V21.5H150.5V30.8C150.5 31.8 151.2 32.4 152.5 32.4Z" fill="#377dff"/>
<path opacity="0.65" d="M23 41.1C13.1 41.1 5 33.1 5 23.1C5 13.2 13 5.09998 23 5.09998H34.3C38 5.09998 40.9 8.09998 40.9 11.7V23.1C41 33 32.9 41.1 23 41.1Z" fill="#377dff"/>
<path opacity="0.5" d="M28 36C18.1 36 10 28 10 18C10 8.1 18 0 28 0H39.3C43 0.1 46 3.1 46 6.7V18.1C46 28 38 36 28 36Z" fill="#00DFFC"/>
<path opacity="0.7" d="M18 46.1C8 46.1 0 38.1 0 28.1C0 18.2 8 10.1 18 10.1H29.3C33 10.1 35.9 13.1 35.9 16.7V28.1C35.9 38.1 27.9 46.1 18 46.1Z" fill="#377dff"/>
<path d="M17.4 34.1V18.4H27.6V21.3H21.2V24.7H26V27.6H21.2V34.1H17.4V34.1Z" fill="white"/>
</g>
<defs>
<clipPath id="clip0">
<rect width="154.9" height="46.1" fill="white"/>
</clipPath>
</defs>
</svg>
