<svg xmlns="http://www.w3.org/2000/svg" width="32" height="32" fill="none" xmlns:v="https://vecta.io/nano"><g clip-path="url(#A)"><path d="M18.53 21.037c-.782-.546-1.619-.991-2.493-1.331a6.36 6.36 0 0 0 2.069-4.197 9.31 9.31 0 0 1 6.556-2.661c1.935 0 3.793.583 5.374 1.685a1.25 1.25 0 0 0 1.43-2.05 11.88 11.88 0 0 0-2.493-1.33 6.36 6.36 0 0 0 2.091-4.716c0-3.515-2.859-6.374-6.374-6.374s-6.374 2.859-6.374 6.374c0 1.86.801 3.536 2.076 4.702l-.52.214c-.782.344-1.518.768-2.201 1.265-.943-2.343-3.239-4.001-5.916-4.001-3.515 0-6.374 2.859-6.374 6.374 0 1.854.796 3.526 2.064 4.692-3.39 1.27-6.139 3.999-7.259 7.478a3.71 3.71 0 0 0 .539 3.357 3.71 3.71 0 0 0 3.03 1.541h10.874a1.25 1.25 0 0 0 1.25-1.25 1.25 1.25 0 0 0-1.25-1.25H3.754c-.404 0-.772-.187-1.01-.514a1.24 1.24 0 0 1-.18-1.119c1.235-3.841 5.003-6.523 9.162-6.523a9.35 9.35 0 0 1 5.374 1.685 1.25 1.25 0 0 0 1.74-.31 1.25 1.25 0 0 0-.31-1.74zm6.159-18.475a3.88 3.88 0 0 1 3.875 3.875 3.88 3.88 0 0 1-3.875 3.875 3.88 3.88 0 0 1-3.875-3.875 3.88 3.88 0 0 1 3.875-3.875zm-12.936 8.553a3.88 3.88 0 0 1 3.875 3.874 3.88 3.88 0 0 1-3.875 3.875 3.88 3.88 0 0 1-3.874-3.875 3.88 3.88 0 0 1 3.874-3.874zM32 26.122a1.25 1.25 0 0 1-1.25 1.25h-3.437v3.437a1.25 1.25 0 0 1-1.25 1.25 1.25 1.25 0 0 1-1.25-1.25v-3.437h-3.437a1.25 1.25 0 0 1-1.25-1.25 1.25 1.25 0 0 1 1.25-1.25h3.437v-3.437a1.25 1.25 0 0 1 1.25-1.25 1.25 1.25 0 0 1 1.25 1.25v3.437h3.437a1.25 1.25 0 0 1 1.25 1.25z" fill="#6366f1"/></g><defs><clipPath id="A"><path fill="#fff" d="M0 0h32v32H0z"/></clipPath></defs></svg>