<svg xmlns="http://www.w3.org/2000/svg" width="32" height="32" fill="#6366f1" xmlns:v="https://vecta.io/nano"><path d="M22.816 7.688a1.25 1.25 0 0 0-.892.37l-7.172 7.228-2.684-2.724a1.25 1.25 0 0 0-.882-.373c-.337 0-.653.13-.887.361L5.496 17.3a1.25 1.25 0 0 0-.01 1.768c.244.247.566.371.889.371s.635-.12.879-.361l3.913-3.87 2.693 2.733a1.25 1.25 0 0 0 1.778.003l7.169-7.225 1.926 1.968a1.25 1.25 0 1 0 1.787-1.748l-2.813-2.875a1.25 1.25 0 0 0-.889-.376zm7.934 7.437a1.25 1.25 0 0 0 1.25-1.25V3.813a1.25 1.25 0 0 0-1.25-1.25h-13.5V1.25a1.25 1.25 0 1 0-2.5 0v1.313H1.25A1.25 1.25 0 0 0 0 3.813v16.375c0 2.757 2.243 5 5 5h9.75V29.5H11a1.25 1.25 0 1 0 0 2.5h9.938a1.25 1.25 0 1 0 0-2.5H17.25v-4.312H27c2.757 0 5-2.243 5-5a1.25 1.25 0 1 0-2.5 0c0 1.378-1.122 2.5-2.5 2.5H5c-1.378 0-2.5-1.122-2.5-2.5V5.063h27v8.813a1.25 1.25 0 0 0 1.25 1.25z"/></svg>