<svg xmlns="http://www.w3.org/2000/svg" width="32" height="32" fill="#6366f1" xmlns:v="https://vecta.io/nano"><path d="M3.962 10.596c.431-2.401 1.527-4.577 3.171-6.294a1.25 1.25 0 0 0-1.805-1.729c-1.986 2.073-3.309 4.695-3.827 7.581a1.25 1.25 0 0 0 1.01 1.451 1.3 1.3 0 0 0 .222.02 1.25 1.25 0 0 0 1.229-1.029zM28.47 20.987a4.62 4.62 0 0 1-1.761-1.321 1.25 1.25 0 1 0-1.957 1.556c.646.813 1.398 1.353 1.971 1.685-.096.538-.299 1.14-.653 1.651-.556.802-1.343 1.192-2.403 1.192H8.419c-1.933 0-2.796-1.62-3.045-2.85a7.56 7.56 0 0 0 1.256-.911c1.416-1.274 2.164-2.956 2.164-4.864V12.75a7.27 7.27 0 0 1 7.128-7.249c.011 0 .022-.002.032-.002l.028.001a1.26 1.26 0 0 0 .098-.005l.087.006c3.965.053 7.19 3.305 7.19 7.249v1.75a1.25 1.25 0 1 0 2.5 0v-1.75c0-4.957-3.784-9.101-8.625-9.68V1.25a1.25 1.25 0 1 0-2.5 0v1.835c-2.129.283-4.096 1.262-5.632 2.823a9.7 9.7 0 0 0-2.806 6.842v4.375c0 2.791-2.515 3.8-2.677 3.862a1.23 1.23 0 0 0-.823 1.175c0 1.312.467 2.746 1.25 3.837A5.26 5.26 0 0 0 8.42 28.25h3.874c0 2.068 1.682 3.75 3.75 3.75s3.75-1.682 3.75-3.75h3.874c2.384 0 3.74-1.233 4.457-2.267 1.055-1.52 1.168-3.178 1.168-3.821a1.23 1.23 0 0 0-.823-1.175zM16.044 29.5a1.25 1.25 0 0 1-1.25-1.25h2.5a1.25 1.25 0 0 1-1.25 1.25zm14.455-19.307c-.523-2.913-1.896-5.643-3.869-7.686a1.25 1.25 0 1 0-1.799 1.736c1.632 1.69 2.77 3.96 3.206 6.391a1.25 1.25 0 0 0 1.229 1.03 1.26 1.26 0 0 0 .222-.02 1.25 1.25 0 0 0 1.01-1.451z"/></svg>