<svg xmlns="http://www.w3.org/2000/svg" width="32" height="32" fill="#6366f1" xmlns:v="https://vecta.io/nano"><path d="M30.75 22A1.25 1.25 0 0 0 32 20.75V7.5c0-2.757-2.243-5-5-5h-1.625V1.25a1.25 1.25 0 1 0-2.5 0V2.5h-5.687V1.25a1.25 1.25 0 1 0-2.5 0V2.5H9.063V1.25a1.25 1.25 0 1 0-2.5 0V2.5H5c-2.757 0-5 2.243-5 5V27c0 2.757 2.243 5 5 5h22c2.757 0 5-2.243 5-5a1.25 1.25 0 1 0-2.5 0c0 1.378-1.122 2.5-2.5 2.5H5c-1.378 0-2.5-1.122-2.5-2.5V7.5C2.5 6.122 3.622 5 5 5h1.563v1.25a1.25 1.25 0 1 0 2.5 0V5h5.625v1.25a1.25 1.25 0 1 0 2.5 0V5h5.688v1.25a1.25 1.25 0 1 0 2.5 0V5H27c1.378 0 2.5 1.122 2.5 2.5v13.25A1.25 1.25 0 0 0 30.75 22zm-9.204-8.915l-6.161 8.606a.71.71 0 0 1-.492.245c-.113.008-.342-.007-.536-.192l-3.989-3.83a1.25 1.25 0 0 0-1.732 1.803l3.993 3.834c.598.569 1.396.886 2.217.886l.212-.007c.895-.06 1.73-.495 2.292-1.194l.042-.055 6.186-8.641a1.25 1.25 0 1 0-2.033-1.455z"/></svg>