<svg xmlns="http://www.w3.org/2000/svg" xmlns:xlink="http://www.w3.org/1999/xlink" width="32" height="32" fill="none" xmlns:v="https://vecta.io/nano"><g clip-path="url(#A)" fill="#6366f1"><path d="M29.284 19.161a1.25 1.25 0 1 0-2.318.937l1.472 3.642-4.372-1.927a1.25 1.25 0 0 0-.995-.006 12.05 12.05 0 0 1-4.758.961c-6.692 0-11.187-5.24-11.187-10.133C7.126 7.046 12.144 2.5 18.313 2.5s11.188 4.546 11.188 10.134c0 .436-.041.958-.111 1.432a1.25 1.25 0 1 0 2.473.369 12.62 12.62 0 0 0 .139-1.801c0-3.396-1.438-6.582-4.049-8.971C25.371 1.301 21.948 0 18.313 0s-7.058 1.301-9.639 3.662c-2.333 2.136-3.729 4.907-3.999 7.896C1.74 13.501.001 16.616.001 19.97c0 2.095.66 4.084 1.917 5.795L.092 30.281A1.25 1.25 0 0 0 1.251 32a1.25 1.25 0 0 0 .504-.106l5.264-2.321c1.324.493 2.724.742 4.169.742.031 0 .062-.002.093-.005 2.09-.016 4.122-.566 5.881-1.594 1.576-.921 2.873-2.187 3.782-3.682.887-.159 1.755-.4 2.597-.722l6.706 2.956a1.25 1.25 0 0 0 1.374-.246 1.25 1.25 0 0 0 .289-1.366l-2.626-6.496zm-18.095 8.651c-.017 0-.034.002-.051.003-1.276-.007-2.505-.257-3.652-.747a1.25 1.25 0 0 0-.995.006l-2.927 1.29.944-2.336a1.25 1.25 0 0 0-.208-1.279c-1.177-1.381-1.799-3.033-1.799-4.779 0-1.998.84-3.89 2.311-5.325.458 2.495 1.749 4.882 3.698 6.757 2.424 2.333 5.631 3.685 9.094 3.848-1.626 1.6-3.952 2.562-6.415 2.562z"/><use xlink:href="#B"/><path d="M23.25 13.938a1.25 1.25 0 1 0 0-2.5 1.25 1.25 0 1 0 0 2.5zm-10 0a1.25 1.25 0 1 0 0-2.5 1.25 1.25 0 1 0 0 2.5z"/></g><defs><clipPath id="A"><path fill="#fff" d="M0 0h32v32H0z"/></clipPath><path id="B" d="M18.25 13.938a1.25 1.25 0 1 0 0-2.5 1.25 1.25 0 1 0 0 2.5z"/></defs></svg>