<svg xmlns="http://www.w3.org/2000/svg" width="32" height="32" fill="#6366f1" xmlns:v="https://vecta.io/nano"><path d="M7.5 12.688H5.03C5.447 7 10.208 2.5 16 2.5a11.05 11.05 0 0 1 10.32 7.184 1.25 1.25 0 1 0 2.345-.867c-.947-2.561-2.63-4.752-4.867-6.338A13.41 13.41 0 0 0 16 0a13.41 13.41 0 0 0-9.546 3.954c-2.517 2.517-3.916 5.852-3.952 9.405C1.008 14.225 0 15.84 0 17.688v4.25c0 2.757 2.243 5 5 5h2.5a1.25 1.25 0 0 0 1.25-1.25v-11.75a1.25 1.25 0 0 0-1.25-1.25zm-1.25 11.75H5c-1.378 0-2.5-1.122-2.5-2.5v-4.25c0-1.378 1.122-2.5 2.5-2.5h1.25v9.25zM27 12.688h-2.5a1.25 1.25 0 0 0-1.25 1.25V22.5v3.188V27A1.25 1.25 0 0 1 22 28.25h-3.812v.04a2.5 2.5 0 1 0 0 2.42v.04H22c2.068 0 3.75-1.682 3.75-3.75v-.062H27c2.757 0 5-2.243 5-5v-4.25c0-2.757-2.243-5-5-5zm2.5 9.25c0 1.378-1.122 2.5-2.5 2.5h-1.25V22.5v-7.312H27c1.378 0 2.5 1.122 2.5 2.5v4.25z"/></svg>