<svg xmlns="http://www.w3.org/2000/svg" width="32" height="32" fill="none" xmlns:v="https://vecta.io/nano"><g clip-path="url(#A)"><path d="M15.938 32a1.25 1.25 0 0 1-.559-.132c-.146-.073-3.622-1.836-7.259-5.789-2.132-2.317-3.883-4.915-5.205-7.722C1.264 14.851.284 11.013.002 6.949a1.25 1.25 0 0 1 1.165-1.334C3.457 5.465 5.25 3.547 5.25 1.25A1.25 1.25 0 0 1 6.5 0h19a1.25 1.25 0 0 1 1.25 1.25c0 2.296 1.792 4.213 4.08 4.365a1.25 1.25 0 0 1 1.162 1.365c-.428 4.513-1.674 8.733-3.704 12.545a1.25 1.25 0 1 1-2.207-1.175c1.701-3.193 2.806-6.704 3.292-10.451-2.559-.675-4.526-2.792-5.009-5.399H7.636C7.15 5.119 5.169 7.242 2.594 7.907c.657 6.306 3.108 11.82 7.295 16.403 2.506 2.743 4.964 4.362 6.041 5.003 1.179-.717 4.031-2.645 6.807-5.987a1.25 1.25 0 1 1 1.923 1.597c-3.951 4.756-7.984 6.852-8.154 6.939a1.25 1.25 0 0 1-.569.137zm.967-6.765a1.25 1.25 0 0 0-.243-1.751c-1.081-.817-2.104-1.743-3.04-2.752-2.723-2.935-4.57-6.384-5.498-10.262a12 12 0 0 0 1.405-1.275c.72-.766 1.335-1.622 1.828-2.544A1.25 1.25 0 1 0 9.15 5.474c-.389.728-.875 1.404-1.444 2.01-.502.534-1.064 1.008-1.671 1.409a1.25 1.25 0 0 0-.536 1.293 25.17 25.17 0 0 0 6.289 12.247 25.92 25.92 0 0 0 3.366 3.046c.226.17.49.253.753.253a1.25 1.25 0 0 0 .998-.496z" fill="#6366f1"/></g><defs><clipPath id="A"><path fill="#fff" d="M0 0h32v32H0z"/></clipPath></defs></svg>