<svg xmlns="http://www.w3.org/2000/svg" xmlns:xlink="http://www.w3.org/1999/xlink" width="32" height="32" fill="none" xmlns:v="https://vecta.io/nano"><g fill="#6366f1"><use xlink:href="#B"/><use xlink:href="#B" y="-7.563"/><path d="M27.435 22a1.25 1.25 0 0 0 1.25-1.25V5c0-2.757-2.243-5-5-5H8.316c-2.757 0-5 2.243-5 5v22c0 2.757 2.243 5 5 5h15.368c2.757 0 5-2.243 5-5a1.25 1.25 0 1 0-2.5 0c0 1.378-1.122 2.5-2.5 2.5H8.316c-1.378 0-2.5-1.122-2.5-2.5V5c0-1.378 1.121-2.5 2.5-2.5h15.368c1.378 0 2.5 1.122 2.5 2.5v15.75a1.25 1.25 0 0 0 1.25 1.25zM15.988 4.974a1.25 1.25 0 0 0-1.76.167l-2.7 3.268-1.065-1.094A1.251 1.251 0 0 0 8.671 9.06l1.341 1.377.034.033a2.18 2.18 0 0 0 1.502.6l.144-.005a2.18 2.18 0 0 0 1.546-.801l2.917-3.531a1.25 1.25 0 0 0-.168-1.76zm0 15.242a1.25 1.25 0 0 0-1.76.168l-2.701 3.269-1.067-1.09a1.25 1.25 0 0 0-1.786 1.749l1.341 1.369.031.031a2.18 2.18 0 0 0 1.502.6l.144-.005a2.18 2.18 0 0 0 1.546-.801l2.917-3.531a1.25 1.25 0 0 0-.168-1.76z"/><use xlink:href="#B" y="-15.25"/><path d="M15.988 12.654a1.25 1.25 0 0 0-1.76.168l-2.701 3.269L10.46 15a1.25 1.25 0 1 0-1.786 1.749l1.341 1.369.031.031c.405.386.946.6 1.502.6l.144-.005c.603-.04 1.166-.332 1.546-.801l2.917-3.531a1.25 1.25 0 0 0-.168-1.76z"/></g><defs ><path id="B" d="M22.441 23.313h-3.687a1.25 1.25 0 1 0 0 2.5h3.688a1.25 1.25 0 1 0 0-2.5z"/></defs></svg>