<svg width="400" height="400" viewBox="0 0 400 400" fill="none" xmlns="http://www.w3.org/2000/svg">
<path d="M0 400H400V0H0V400Z" fill="url(#paint0_linear)"/>
<path d="M314.431 123.972C294.269 103.81 267.147 92.6492 238.464 92.6492C209.781 92.6492 182.658 103.81 162.496 123.972L160.336 126.133C155.175 125.292 150.495 124.812 145.334 124.812C121.332 124.812 98.0497 134.293 80.888 151.815C45.2444 187.459 45.2444 245.064 80.888 280.708C98.0497 297.87 120.852 307.351 145.334 307.351H240.744C269.067 306.871 295.349 295.709 315.031 276.028C356.556 233.903 356.556 165.616 314.431 123.972V123.972ZM145.574 287.669C126.252 287.669 108.611 279.508 95.2894 265.706C67.3266 237.744 67.3266 192.739 95.2894 165.136C108.611 151.815 126.613 144.134 145.574 144.134H146.054C149.895 144.134 152.895 144.614 156.376 144.974C160.216 145.814 163.696 146.295 167.537 147.495C174.377 149.655 180.858 153.135 186.379 156.976C188.899 159.136 192.019 160.816 194.059 163.456L196.219 165.616L225.382 194.779C229.223 198.62 229.223 204.62 225.382 208.941C223.222 211.101 221.062 211.941 218.542 211.941C216.021 211.941 213.381 211.101 211.701 208.941L187.699 184.938L182.538 179.778C181.698 178.938 180.858 178.458 180.378 177.618C173.537 171.617 165.376 167.777 156.376 165.977C153.375 165.136 149.895 165.136 146.895 165.136H145.574C132.253 165.616 120.252 170.777 110.771 180.138C90.6089 200.3 90.6089 232.583 110.771 252.745C120.612 262.586 133.093 267.747 147.255 267.747H156.255L164.896 275.907C169.217 280.228 173.537 284.548 178.698 287.549H145.574V287.669ZM300.63 261.866C291.629 270.867 280.828 277.708 268.827 282.028C264.986 283.348 261.506 284.188 257.666 285.508C252.025 286.829 246.024 287.669 240.024 287.669H238.344C217.702 287.669 198.38 280.828 182.898 267.867C180.738 266.187 178.578 264.026 176.418 262.226L135.133 220.942C131.293 217.102 131.293 211.101 135.133 206.781C137.294 204.62 139.454 203.78 141.974 203.78C144.494 203.78 147.135 204.62 148.815 206.781L189.619 247.585C193.459 251.425 197.78 254.425 202.1 257.426C212.421 263.906 224.422 267.267 237.264 267.267C242.904 267.267 248.905 266.427 254.065 265.106C257.546 264.266 260.906 262.946 263.906 261.626C271.587 258.146 278.908 253.465 285.388 246.985C311.551 220.822 311.551 177.858 285.388 151.575C272.067 138.254 254.905 131.773 237.744 131.773C224.422 131.773 211.581 135.613 199.94 143.414C194.299 139.094 188.299 135.253 181.458 132.253C197.78 118.932 217.942 112.091 237.744 112.091C260.066 112.091 282.388 120.732 299.55 137.414C334.593 172.097 334.593 227.543 300.63 261.866" fill="white"/>
<defs>
<linearGradient id="paint0_linear" x1="199.968" y1="400.014" x2="199.968" y2="-0.0157606" gradientUnits="userSpaceOnUse">
<stop stop-color="#911A1E"/>
<stop offset="1" stop-color="#D61E25"/>
</linearGradient>
</defs>
</svg>
