<svg width="400" height="390" viewBox="0 0 400 390" fill="none" xmlns="http://www.w3.org/2000/svg">
<g clip-path="url(#clip0)">
<path d="M329.19 389.831H70.8098C31.6384 389.831 0 358.192 0 319.021V70.8098C0 31.6384 31.6384 0 70.8098 0H329.19C368.362 0 400 31.6384 400 70.8098V319.021C400 358.192 368.362 389.831 329.19 389.831Z" fill="#FF26BE"/>
<path d="M322.787 373.258H77.2128C43.6911 373.258 16.5725 346.139 16.5725 312.618V77.2128C16.5725 43.6912 43.6911 16.5725 77.2128 16.5725H322.787C356.309 16.5725 383.428 43.6912 383.428 77.2128V312.618C383.428 346.139 356.309 373.258 322.787 373.258Z" fill="#2E001F"/>
<path d="M158.192 182.674L204.896 272.316C205.65 273.823 205.273 274.953 203.766 274.953H174.765C172.881 274.953 172.128 274.576 171.375 272.693C160.829 250.847 149.906 228.625 138.606 204.896H138.23C128.06 227.119 117.137 250.847 106.591 272.693C105.838 274.2 105.085 274.576 103.578 274.576H76.0829C74.5763 274.576 74.1996 273.07 74.9529 272.316L120.527 185.311L76.8362 97.1751C75.7062 95.6685 76.8362 94.9152 77.9661 94.9152H106.591C108.098 94.9152 108.851 95.2919 109.605 96.7985C120.151 118.644 130.697 141.62 140.866 163.465H141.243C151.036 141.62 161.582 118.644 171.751 96.7985C172.505 95.2919 173.258 94.5386 174.765 94.5386H201.507C203.013 94.5386 203.39 95.6685 202.637 96.7985L158.192 182.674ZM213.183 209.793C213.183 170.998 239.171 140.49 279.849 140.49C283.239 140.49 285.122 140.49 288.512 140.866V96.7985C288.512 95.6685 289.266 95.2919 290.019 95.2919H316.384C317.891 95.2919 317.891 95.6685 317.891 96.7985V249.717C317.891 254.237 317.891 259.887 318.644 265.913C318.644 267.043 318.267 267.42 317.137 267.797C303.202 274.576 288.512 277.589 274.576 277.589C238.795 277.213 213.183 254.991 213.183 209.793ZM288.512 166.855C286.252 165.725 282.863 165.348 278.719 165.348C257.627 165.348 242.938 181.544 242.938 208.286C242.938 238.795 258.004 251.224 276.836 251.224C280.979 251.224 285.122 250.847 288.512 249.341V166.855Z" fill="#FFD9F2"/>
</g>
<defs>
<clipPath id="clip0">
<rect width="400" height="389.831" fill="white"/>
</clipPath>
</defs>
</svg>
