<svg width="400" height="125" viewBox="0 0 400 125" fill="none" xmlns="http://www.w3.org/2000/svg">
<g clip-path="url(#clip0)">
<path d="M210.81 31.3564C210.81 35.8541 207.186 39.4758 202.688 39.4758C198.19 39.4758 194.569 35.8541 194.569 31.3564C194.569 26.8587 198.067 23.2371 202.688 23.2371C207.313 23.3619 210.81 26.9848 210.81 31.3564V31.3564ZM177.329 47.7224V49.7216C177.329 49.7216 173.458 44.7222 165.213 44.7222C151.597 44.7222 140.977 55.0917 140.977 69.4571C140.977 83.699 151.472 94.1919 165.213 94.1919C173.583 94.1919 177.329 89.0703 177.329 89.0703V91.1931C177.329 92.1927 178.08 92.9402 179.079 92.9402H189.196V45.9677H179.079C178.08 45.9715 177.329 46.8476 177.329 47.7224V47.7224ZM177.329 77.8273C175.457 80.5766 171.708 82.9502 167.212 82.9502C159.217 82.9502 153.095 77.9533 153.095 69.4571C153.095 60.9621 159.217 55.9652 167.212 55.9652C171.585 55.9652 175.582 58.4637 177.329 61.0869V77.8273ZM196.693 45.9715H208.685V92.944H196.693V45.9715V45.9715ZM375.833 44.721C367.588 44.721 363.714 49.7204 363.714 49.7204V23.3619H351.722V92.944H361.842C362.842 92.944 363.589 92.0692 363.589 91.1943V89.0715C363.589 89.0715 367.463 94.1932 375.706 94.1932C389.324 94.1932 399.942 83.7027 399.942 69.4608C399.942 55.2189 389.324 44.721 375.833 44.721V44.721ZM373.834 82.8242C369.21 82.8242 365.589 80.453 363.714 77.7025V60.9621C365.589 58.4637 369.586 55.8404 373.834 55.8404C381.829 55.8404 387.95 60.8373 387.95 69.3323C387.95 77.8273 381.83 82.8242 373.834 82.8242ZM345.478 65.0867V93.0688H333.483V66.4594C333.483 58.7158 330.985 55.5909 324.243 55.5909C320.622 55.5909 316.873 57.4653 314.495 60.2146V92.9453H302.506V45.9727H311.997C312.997 45.9727 313.747 46.8476 313.747 47.7224V49.7216C317.245 46.0975 321.866 44.7222 326.487 44.7222C331.735 44.7222 336.108 46.2235 339.606 49.2212C343.851 52.7193 345.478 57.2157 345.478 65.0867V65.0867ZM273.395 44.721C265.152 44.721 261.278 49.7204 261.278 49.7204V23.3619H249.286V92.944H259.404C260.403 92.944 261.153 92.0692 261.153 91.1943V89.0715C261.153 89.0715 265.027 94.1932 273.27 94.1932C286.888 94.1932 297.505 83.7027 297.505 69.4608C297.63 55.2177 287.012 44.721 273.395 44.721V44.721ZM271.395 82.8242C266.774 82.8242 263.152 80.453 261.278 77.7025V60.9621C263.152 58.4637 267.15 55.8404 271.395 55.8404C279.392 55.8404 285.512 60.8373 285.512 69.3323C285.512 77.8273 279.392 82.8242 271.395 82.8242ZM238.917 44.721C242.538 44.721 244.413 45.3475 244.413 45.3475V56.4644C244.413 56.4644 234.419 53.0911 228.174 60.2133V93.0675H216.18V45.9715H226.3C227.299 45.9715 228.047 46.8463 228.047 47.7211V49.7204C230.298 47.0959 235.17 44.721 238.917 44.721V44.721ZM114.37 88.6959C113.746 87.1971 113.121 85.5735 112.497 84.1982C111.496 81.9506 110.496 79.8253 109.624 77.8273L109.499 77.7025C100.878 58.9629 91.6357 39.9762 81.8902 21.2391L81.5159 20.4878C80.4909 18.544 79.492 16.5866 78.5195 14.6161C77.269 12.366 76.021 9.99482 74.0218 7.74472C70.0245 2.74782 64.2776 -0.00146484 58.1575 -0.00146484C51.9101 -0.00146484 46.2893 2.74784 42.1685 7.49389C40.294 9.74149 38.9187 12.1152 37.6708 14.3653C36.6958 16.3346 35.6969 18.2919 34.6744 20.237L34.2987 20.9882C24.6793 39.7253 15.3108 58.7133 6.69102 77.4516L6.565 77.7C5.69142 79.7017 4.69053 81.8245 3.6909 84.0709C3.06691 85.4461 2.44292 86.945 1.81894 88.5686C0.194074 93.1898 -0.306388 97.5627 0.320095 102.062C1.69412 111.431 7.93898 119.299 16.56 122.799C19.8085 124.175 23.1818 124.799 26.6786 124.799C27.6782 124.799 28.9262 124.674 29.9271 124.548C34.0504 124.049 38.2972 122.676 42.4206 120.302C47.5422 117.428 52.4143 113.307 57.9104 107.311C63.4065 113.307 68.4034 117.428 73.4003 120.302C77.5249 122.676 81.7704 124.049 85.8925 124.548C86.8921 124.675 88.1426 124.799 89.1422 124.799C92.6403 124.799 96.1372 124.175 99.2596 122.799C108.005 119.299 114.125 111.307 115.501 102.062C116.493 97.69 115.994 93.3196 114.37 88.6959V88.6959ZM58.0315 95.1916C51.2849 86.6966 46.912 78.7021 45.4144 71.958C44.7904 69.0839 44.6644 66.5855 45.0401 64.3367C45.2884 62.3374 46.0397 60.5877 47.0393 59.0889C49.4129 55.7181 53.4102 53.5928 58.0327 53.5928C62.6565 53.5928 66.7785 55.5921 69.0274 59.0889C70.027 60.5877 70.7758 62.3387 71.0279 64.3367C71.401 66.5868 71.2762 69.2087 70.6523 71.958C69.1485 78.5773 64.7755 86.5731 58.0315 95.1916ZM107.873 101.063C107 107.559 102.627 113.182 96.5065 115.681C93.5089 116.929 90.2592 117.304 87.0132 116.929C83.8908 116.553 80.7658 115.554 77.5199 113.682C73.0222 111.181 68.5257 107.311 63.278 101.562C71.5221 91.4451 76.519 82.1989 78.3935 73.9561C79.2683 70.0823 79.3943 66.5855 79.0174 63.3358C78.5195 60.2133 77.3938 57.3393 75.6454 54.8408C71.7704 49.2174 65.2735 45.9715 58.0302 45.9715C50.787 45.9715 44.29 49.3447 40.4175 54.8408C38.6691 57.3393 37.5435 60.2133 37.0443 63.3358C36.5451 66.5855 36.6686 70.2071 37.6682 73.9561C39.5415 82.1989 44.6632 91.5687 52.7825 101.687C47.6608 107.434 43.0383 111.308 38.5406 113.806C35.2921 115.681 32.1709 116.68 29.0485 117.054C25.6765 117.429 22.4267 116.929 19.5539 115.806C13.4338 113.307 9.06093 107.684 8.18735 101.188C7.81296 98.0657 8.06131 94.9432 9.31178 91.4452C9.68492 90.1947 10.3114 88.9467 10.9354 87.4479C11.8102 85.4487 12.8074 83.3234 13.8082 81.2005L13.9343 80.9522C22.5528 62.3374 31.7966 43.3494 41.4159 24.8619L41.7903 24.1107C42.7912 22.2387 43.7908 20.2395 44.7892 18.365C45.7889 16.3657 46.912 14.4913 48.2873 12.8664C50.9105 9.87127 54.4073 8.24516 58.2811 8.24516C62.1548 8.24516 65.6516 9.87127 68.2749 12.8664C69.6501 14.495 70.7733 16.3695 71.7729 18.365C72.7738 20.2395 73.7734 22.2387 74.7706 24.1107L75.1462 24.8619C84.6189 43.4263 93.7399 62.168 102.504 81.077V81.2018C103.505 83.2036 104.379 85.4499 105.378 87.4517C106.002 88.948 106.628 90.196 107.002 91.4464C107.999 94.6912 108.374 97.8161 107.873 101.063V101.063Z" fill="#FF5A5F"/>
</g>
<defs>
<clipPath id="clip0">
<rect width="400" height="124.8" fill="white"/>
</clipPath>
</defs>
</svg>
