<svg width="400" height="431" viewBox="0 0 400 431" fill="none" xmlns="http://www.w3.org/2000/svg">
<g clip-path="url(#clip0)">
<path d="M371.938 348.637C368.925 371.054 353.839 390.438 332.727 399.056C322.382 403.355 311.174 404.66 299.965 403.355C289.198 402.069 278.411 398.614 267.222 392.166C251.715 383.528 236.187 370.19 218.089 350.364C246.532 315.452 263.767 283.574 270.236 255.13C273.249 241.772 273.691 229.699 272.385 218.49C270.657 207.724 266.78 197.8 260.754 189.183C247.396 169.799 224.979 158.59 199.99 158.59C175.001 158.59 152.584 170.22 139.226 189.183C133.199 197.8 129.323 207.724 127.595 218.49C125.868 229.699 126.309 242.194 129.744 255.13C136.213 283.574 153.869 315.894 181.891 350.786C164.214 370.612 148.285 383.97 132.757 392.588C121.549 399.056 110.782 402.511 100.015 403.796C88.9067 405.042 77.6779 403.555 67.2726 399.498C46.1608 390.88 31.0752 371.476 28.0621 349.078C26.7765 338.312 27.6402 327.545 31.9389 315.472C33.2245 311.154 35.394 306.855 37.5433 301.692C40.5564 294.802 44.0114 287.47 47.4464 280.139L47.8883 279.275C77.6176 215.055 109.516 149.551 142.701 85.7731L143.986 83.1818C147.441 76.7338 150.876 69.8237 154.331 63.3556C157.786 56.4656 161.663 49.9975 166.404 44.3931C175.463 34.0481 187.516 28.4437 200.874 28.4437C214.232 28.4437 226.304 34.0481 235.344 44.3931C240.084 49.9975 243.961 56.4656 247.416 63.3556C250.871 69.8237 254.306 76.7137 257.761 83.1617L259.067 85.753C291.809 149.952 323.708 215.457 353.437 279.677V280.098C356.892 286.988 359.906 294.762 363.34 301.652C365.49 306.835 367.659 311.133 368.945 315.432C372.38 326.661 373.665 337.428 371.938 348.637V348.637ZM199.99 328.368C176.729 299.061 161.643 271.481 156.461 248.22C154.311 238.297 153.869 229.679 155.175 221.925C156.039 215.035 158.63 208.989 162.065 203.827C170.261 192.196 184.041 184.864 199.99 184.864C215.939 184.864 230.161 191.774 237.915 203.827C241.37 209.009 243.941 215.035 244.805 221.925C246.09 229.679 245.669 238.738 243.519 248.22C238.357 271.059 223.271 298.639 199.99 328.368V328.368ZM394.355 305.971C392.206 300.808 390.037 295.204 387.887 290.464C384.432 282.71 380.997 275.378 377.964 268.488L377.542 268.066C347.813 203.425 315.914 137.92 282.308 73.2788L281.022 70.6875C277.567 64.2193 274.132 57.3294 270.677 50.4394C266.359 42.6857 262.06 34.49 255.17 26.7363C241.37 9.48124 221.544 0 200.432 0C178.878 0 159.494 9.48124 145.252 25.8525C138.784 33.6062 134.043 41.8018 129.744 49.5556C126.289 56.4455 122.854 63.3355 119.399 69.8036L118.114 72.3748C84.9294 137.016 52.6088 202.521 22.8795 267.162L22.4577 268.026C19.4446 274.916 15.9896 282.248 12.5345 290.001C10.2245 295.104 8.07513 300.286 6.06639 305.509C0.462014 321.458 -1.2655 336.544 0.883849 352.051C5.62447 384.372 27.1782 411.53 56.9075 423.583C68.1163 428.323 79.7469 430.473 91.8194 430.473C95.2744 430.473 99.5731 430.051 103.028 429.609C117.25 427.881 131.894 423.161 146.116 414.965C163.792 405.062 180.586 390.84 199.548 370.15C218.511 390.84 235.745 405.062 252.98 414.965C267.202 423.161 281.846 427.881 296.068 429.609C299.523 430.051 303.822 430.473 307.277 430.473C319.349 430.473 331.402 428.323 342.188 423.583C372.36 411.51 393.472 383.93 398.212 352.051C401.667 336.986 399.94 321.92 394.355 305.971V305.971Z" fill="#E0565B"/>
</g>
<defs>
<clipPath id="clip0">
<rect width="400" height="430.513" fill="white"/>
</clipPath>
</defs>
</svg>
