<svg width="1940" height="584" viewBox="0 0 1940 584" fill="none" xmlns="http://www.w3.org/2000/svg">
<path fill-rule="evenodd" clip-rule="evenodd" d="M1203.34 456.468C1091.09 539.462 927.823 583.68 787.005 583.68C589.723 583.68 412.851 510.89 278.155 389.801C267.951 380.277 276.795 367.351 289.72 374.835C434.62 459.189 613.533 509.53 798.569 509.53C923.061 509.53 1060.48 483.679 1187.01 429.937C1206.06 422.454 1221.7 442.863 1203.34 456.468Z" fill="#FF9900"/>
<path fill-rule="evenodd" clip-rule="evenodd" d="M1250.28 402.725C1235.99 384.358 1155.04 393.882 1118.98 398.644C1108.1 400.004 1106.06 390.48 1116.26 383.678C1180.89 338.099 1286.33 351.704 1298.58 366.671C1310.82 381.637 1295.17 487.76 1234.63 538.101C1225.1 545.584 1216.26 541.503 1220.34 531.298C1233.95 497.284 1264.56 421.773 1250.28 402.725Z" fill="#FF9900"/>
<path fill-rule="evenodd" clip-rule="evenodd" d="M1121.02 63.9462V19.7281C1121.02 12.9253 1125.78 8.84355 1131.91 8.84355H1329.19C1335.31 8.84355 1340.75 13.6056 1340.75 19.7281V57.1435C1340.75 63.266 1335.31 71.4294 1325.79 85.035L1223.74 230.615C1261.84 229.934 1301.98 235.377 1335.99 254.425C1343.47 258.506 1345.51 265.309 1346.19 271.432V318.371C1346.19 325.174 1339.39 332.657 1331.91 328.575C1271.36 296.602 1190.41 293.201 1123.74 329.255C1116.94 332.657 1109.46 325.854 1109.46 319.051V274.153C1109.46 267.35 1109.46 255.105 1116.94 244.22L1235.31 74.8308H1132.59C1126.46 74.8308 1121.02 70.0688 1121.02 63.9462V63.9462ZM401.966 338.099H342.102C336.659 337.419 331.898 333.337 331.217 327.895V20.4084C331.217 14.2859 336.66 9.52387 342.782 9.52387H398.565C404.687 9.52387 408.769 14.2858 409.449 19.7281V59.8645H410.81C425.096 21.0886 452.987 2.72108 489.722 2.72108C527.138 2.72108 550.948 21.0886 567.274 59.8645C581.56 21.0886 614.894 2.72108 650.268 2.72108C675.439 2.72108 702.65 12.9253 719.657 36.7351C738.705 62.5857 734.623 100.001 734.623 133.335V327.895C734.623 334.017 729.181 338.779 723.058 338.779H663.874C657.751 338.099 652.989 333.337 652.989 327.895V164.628C652.989 151.702 654.35 119.049 651.629 106.804C646.867 86.3954 633.942 80.2729 616.254 80.2729C601.969 80.2729 586.322 89.7969 580.2 105.443C574.077 121.09 574.757 146.94 574.757 164.628V327.895C574.757 334.017 569.315 338.779 563.193 338.779H503.328C497.205 338.099 492.444 333.337 492.444 327.895V164.628C492.444 130.614 497.886 79.5926 455.708 79.5926C412.851 79.5926 414.211 128.573 414.211 164.628V327.895C413.531 333.337 408.769 338.099 401.966 338.099V338.099ZM1510.82 2.72108C1599.94 2.72108 1648.24 78.9124 1648.24 176.192C1648.24 270.071 1595.18 344.902 1510.82 344.902C1423.75 344.902 1376.13 268.71 1376.13 173.471C1375.45 77.5519 1423.75 2.72108 1510.82 2.72108ZM1510.82 65.987C1466.6 65.987 1463.88 126.532 1463.88 163.947C1463.88 201.363 1463.2 281.636 1510.14 281.636C1556.4 281.636 1559.12 217.009 1559.12 177.553C1559.12 151.702 1557.76 120.41 1550.28 95.9195C1543.48 74.1505 1529.87 65.987 1510.82 65.987ZM1763.21 338.099H1703.34C1697.22 337.419 1692.46 332.657 1692.46 327.215V19.0477C1693.14 13.6055 1697.9 8.84355 1704.02 8.84355H1759.8C1765.25 8.84355 1769.33 12.9254 1770.69 17.6873V64.6266H1772.05C1789.06 22.4492 1812.19 2.72108 1853.68 2.72108C1880.21 2.72108 1906.75 12.2449 1923.75 38.7758C1939.4 63.2659 1939.4 104.763 1939.4 134.695V328.575C1938.72 334.017 1933.96 338.099 1927.83 338.099H1867.97C1862.53 337.419 1857.76 333.337 1857.08 328.575V161.226C1857.08 127.212 1861.17 78.2322 1819.67 78.2322C1805.38 78.2322 1791.78 87.7561 1784.97 102.722C1776.81 121.77 1775.45 140.137 1775.45 161.226V327.215C1774.77 333.337 1769.33 338.099 1763.21 338.099V338.099ZM963.877 191.159C963.877 214.288 964.558 234.016 952.993 255.105C943.469 272.112 928.503 282.316 911.496 282.316C888.366 282.316 874.761 264.629 874.761 238.778C874.761 187.757 920.339 178.233 963.877 178.233V191.159ZM1024.42 337.419C1020.34 340.82 1014.9 341.5 1010.14 338.779C990.408 322.452 986.326 314.289 975.442 298.643C942.789 331.976 918.979 342.181 876.801 342.181C826.461 342.181 787.005 310.888 787.005 248.982C787.005 200.002 813.536 167.349 850.951 151.022C883.604 136.736 929.183 134.015 963.877 129.933V122.45C963.877 108.164 965.238 91.1575 956.394 78.9125C948.911 68.028 935.306 63.2659 923.061 63.2659C899.931 63.2659 879.523 74.8308 874.761 99.3209C873.4 104.763 869.999 110.205 864.557 110.205L806.733 104.083C801.971 102.722 796.529 99.3208 797.889 91.8378C811.495 21.0887 874.761 0 931.904 0C961.156 0 999.252 7.48304 1022.38 29.9323C1051.63 57.1435 1048.91 93.8786 1048.91 133.335V226.533C1048.91 254.425 1060.48 266.67 1071.36 282.316C1075.44 287.758 1076.12 294.561 1071.36 297.962C1058.44 308.167 1036.67 327.215 1024.42 337.419V337.419ZM178.154 191.159C178.154 214.288 178.835 234.016 167.27 255.105C157.746 272.112 142.78 282.316 125.773 282.316C102.643 282.316 89.0377 264.629 89.0377 238.778C89.0377 187.757 134.616 178.233 178.154 178.233V191.159ZM238.019 337.419C233.937 340.82 228.495 341.5 223.733 338.779C204.005 322.452 199.923 314.289 189.039 298.643C156.385 331.976 132.576 342.181 90.3982 342.181C40.0575 342.181 0.601318 310.888 0.601318 248.982C0.601318 200.002 27.1322 167.349 64.5476 151.022C97.201 136.736 142.78 134.015 177.474 129.933V122.45C177.474 108.164 178.835 91.1575 169.991 78.9125C162.508 68.028 148.902 63.2659 136.657 63.2659C113.528 63.2659 93.1193 74.8308 88.3574 99.3209C86.9968 104.763 83.5954 110.205 78.1532 110.205L20.3294 104.083C15.5674 102.722 10.1253 99.3208 11.4858 91.8378C25.0914 21.0887 88.3574 0 145.501 0C174.753 0 212.849 7.48304 235.978 29.9323C265.23 57.1435 262.509 93.8786 262.509 133.335V226.533C262.509 254.425 274.074 266.67 284.958 282.316C289.04 287.758 289.72 294.561 284.958 297.962C272.033 308.167 250.264 327.215 238.019 337.419V337.419Z" fill="black"/>
</svg>
