<svg width="400" height="400" viewBox="0 0 400 400" fill="none" xmlns="http://www.w3.org/2000/svg">
<path d="M118.561 185.026C116.728 182.634 114.022 181.065 111.035 180.662C108.048 180.26 105.024 181.057 102.623 182.879C101.211 183.993 100.072 185.415 99.2924 187.036L1.43639 382.803C0.0504135 385.577 -0.177238 388.788 0.803473 391.731C1.78418 394.673 3.89299 397.105 6.66638 398.493C8.28748 399.313 10.0797 399.737 11.8964 399.732H148.234C150.418 399.787 152.57 399.205 154.428 398.056C156.286 396.907 157.769 395.242 158.694 393.263C188.12 332.485 170.283 240.079 118.561 185.026Z" fill="url(#paint0_linear)"/>
<path d="M190.486 6.87633C166.092 44.4153 151.875 87.6511 149.23 132.342C146.586 177.033 155.605 221.643 175.402 261.797L241.134 393.263C242.106 395.206 243.598 396.84 245.446 397.983C247.293 399.125 249.422 399.731 251.594 399.732H387.905C389.442 399.735 390.965 399.435 392.386 398.848C393.807 398.262 395.098 397.4 396.185 396.313C397.272 395.226 398.134 393.935 398.72 392.514C399.307 391.093 399.607 389.57 399.603 388.033C399.605 386.22 399.19 384.431 398.392 382.803L210.388 6.82127C209.495 4.93727 208.086 3.34531 206.325 2.23052C204.563 1.11573 202.522 0.523926 200.437 0.523926C198.352 0.523926 196.31 1.11573 194.549 2.23052C192.787 3.34531 191.378 4.93727 190.486 6.82127V6.87633Z" fill="#2684FF"/>
<defs>
<linearGradient id="paint0_linear" x1="172.43" y1="214.948" x2="69.096" y2="393.924" gradientUnits="userSpaceOnUse">
<stop stop-color="#0052CC"/>
<stop offset="0.92" stop-color="#2684FF"/>
</linearGradient>
</defs>
</svg>
