<svg width="400" height="400" viewBox="0 0 400 400" fill="none" xmlns="http://www.w3.org/2000/svg">
<path d="M200 400C310.457 400 400 310.457 400 200C400 89.543 310.457 0 200 0C89.543 0 0 89.543 0 200C0 310.457 89.543 400 200 400Z" fill="#1769FF"/>
<path d="M141.296 109.376C149.92 109.376 157.792 110.144 164.912 111.664C172.032 113.184 178.112 115.68 183.184 119.152C188.256 122.624 192.192 127.232 194.992 132.992C197.792 138.752 199.184 145.856 199.184 154.32C199.184 163.456 197.104 171.072 192.96 177.168C188.816 183.264 182.672 188.256 174.56 192.144C185.728 195.36 194.064 200.992 199.568 209.024C205.072 217.056 207.824 226.752 207.824 238.096C207.824 247.232 206.048 255.152 202.496 261.84C198.944 268.528 194.16 273.984 188.144 278.208C182.128 282.448 175.28 285.568 167.584 287.6C159.84 289.632 151.856 290.656 143.856 290.64H56V109.376H141.296ZM136.224 182.736C143.328 182.736 149.168 181.04 153.744 177.664C158.32 174.272 160.608 168.784 160.592 161.168C160.592 156.944 159.824 153.472 158.304 150.768C156.784 148.064 154.752 145.936 152.208 144.416C149.664 142.896 146.752 141.84 143.456 141.248C140.064 140.656 136.624 140.352 133.168 140.368H95.872V182.768L136.224 182.736V182.736ZM138.512 259.648C142.272 259.664 146.016 259.28 149.68 258.512C153.232 257.744 156.368 256.48 159.072 254.704C161.776 252.928 163.936 250.512 165.552 247.472C167.152 244.432 167.968 240.528 167.968 235.792C167.968 226.496 165.344 219.84 160.096 215.872C154.848 211.888 147.904 209.904 139.28 209.904H95.872V259.664L138.512 259.648V259.648ZM257.968 255.84C263.376 261.088 271.168 263.712 281.328 263.712C288.608 263.712 294.864 261.888 300.112 258.256C305.36 254.624 308.576 250.768 309.76 246.704H341.488C336.416 262.448 328.624 273.696 318.128 280.464C307.632 287.232 294.944 290.624 280.048 290.624C269.728 290.624 260.416 288.976 252.128 285.68C243.84 282.384 236.816 277.68 231.056 271.584C225.296 265.488 220.848 258.224 217.728 249.76C214.608 241.296 213.04 231.984 213.04 221.84C213.04 212.032 214.64 202.896 217.856 194.432C221.072 185.968 225.648 178.656 231.568 172.48C237.488 166.304 244.56 161.44 252.768 157.888C260.976 154.336 270.08 152.56 280.064 152.56C291.232 152.56 300.96 154.72 309.264 159.04C317.552 163.36 324.368 169.152 329.696 176.432C335.024 183.712 338.88 192 341.248 201.312C343.616 210.624 344.464 220.352 343.792 230.512H249.104C249.6 242.144 252.56 250.608 257.968 255.84ZM298.72 186.8C294.4 182.064 287.84 179.696 279.04 179.696C273.28 179.696 268.496 180.672 264.704 182.608C260.896 184.56 257.856 186.96 255.568 189.84C253.28 192.72 251.68 195.76 250.752 198.976C249.824 202.192 249.264 205.072 249.104 207.6H307.744C306.032 198.48 303.024 191.536 298.72 186.8V186.8ZM242.928 118.576H316.192V138.896H242.928V118.576V118.576Z" fill="white"/>
</svg>
