<svg width="227" height="88" viewBox="0 0 227 88" fill="none" xmlns="http://www.w3.org/2000/svg">
<path fill-rule="evenodd" clip-rule="evenodd" d="M80.9446 0C74.6414 0 69.9774 5.51694 70.1862 11.4999C70.3867 17.2479 70.1263 24.6924 68.2522 30.7634C66.3714 36.8515 63.1929 40.7095 58 41.2046V46.7954C63.1929 47.2916 66.3714 51.1476 68.252 57.2365C70.1263 63.3076 70.3865 70.7521 70.186 76.5001C69.9772 82.4822 74.6412 88 80.9455 88H145.532C151.835 88 156.498 82.4831 156.29 76.5001C156.089 70.7521 156.349 63.3076 158.224 57.2365C160.104 51.1476 163.275 47.2901 168.468 46.7954V41.2046C163.275 40.7084 160.105 36.8524 158.224 30.7634C156.349 24.6933 156.089 17.2479 156.29 11.4999C156.498 5.5178 151.835 0 145.532 0H80.9437H80.9446ZM132.894 54.1698C132.894 62.4081 126.749 67.4044 116.551 67.4044H99.1915C98.6949 67.4044 98.2187 67.2071 97.8675 66.856C97.5164 66.5048 97.3191 66.0286 97.3191 65.532V22.4682C97.3191 21.9716 97.5164 21.4954 97.8675 21.1442C98.2187 20.7931 98.6949 20.5958 99.1915 20.5958H116.452C124.955 20.5958 130.536 25.2019 130.536 32.2735C130.536 37.2371 126.782 41.6806 121.999 42.4591V42.718C128.51 43.4321 132.894 47.9415 132.894 54.1698V54.1698ZM114.658 26.5311H104.76V40.5123H113.097C119.541 40.5123 123.095 37.9171 123.095 33.2785C123.094 28.9314 120.039 26.5311 114.658 26.5311ZM104.76 46.0596V61.4671H115.022C121.732 61.4671 125.287 58.7747 125.287 53.7147C125.287 48.6548 121.633 46.0588 114.591 46.0588H104.76V46.0596Z" fill="#BDC5D1"/>
</svg>
