<svg width="400" height="127" viewBox="0 0 400 127" fill="none" xmlns="http://www.w3.org/2000/svg">
<path d="M87.317 2.57503C90.1388 2.57503 92.9744 2.57503 95.8079 2.55546C95.7766 12.694 95.9097 22.8346 95.7453 32.9732C95.6729 39.517 92.9117 46.4913 86.9139 49.7377C80.1353 53.1896 71.5407 53.1701 64.8951 49.4187C59.2378 46.1077 56.4884 39.2997 56.641 32.9516C56.6723 22.8228 56.6508 12.694 56.6625 2.56524H64.903C64.9245 11.334 64.8834 20.093 64.9127 28.8618C65.0575 32.891 65.0673 37.2763 67.4899 40.7106C70.7462 45.1938 77.5776 45.6165 82.1665 43.0922C86.319 40.5874 87.2055 35.3645 87.2877 30.9028C87.3581 21.4628 87.2955 12.015 87.317 2.57503V2.57503ZM124.102 2.76093C131.241 0.639674 139.208 1.9273 145.565 5.72951C145.526 8.69614 145.526 11.653 145.526 14.6118C140.19 10.6334 133.09 7.70791 126.464 10.0249C123.599 10.882 121.725 14.33 123.104 17.1048C124.237 19.7623 127.32 20.5352 129.758 21.5254C135.012 23.6173 141.07 24.7406 144.967 29.1807C149.974 35.2294 148.706 45.9981 141.37 49.6771C133.116 53.9528 122.801 52.5928 114.887 48.1409C114.878 45.0901 114.878 42.0511 114.846 39.0003C120.803 43.5873 129.067 46.3073 136.362 43.5148C140.341 42.0726 140.845 35.883 137.239 33.7461C131.642 30.3568 124.77 29.666 119.402 25.8227C114.684 22.4295 113.293 15.7037 115.251 10.4064C116.713 6.56314 120.249 3.89396 124.102 2.76093V2.76093ZM200.71 1.83337C211.941 12.1383 222.864 22.7935 233.889 33.3234V2.56524H242.131V52.3149C230.889 41.6382 219.958 30.6445 208.653 20.0265V51.2289C205.986 51.2484 203.327 51.2484 200.669 51.2582C200.683 34.7872 200.601 18.3201 200.71 1.83337V1.83337ZM263.784 2.55546C273.729 2.55546 283.662 2.60634 293.595 2.52415C293.656 5.02895 293.656 7.53179 293.656 10.0366C286.527 10.0366 279.406 10.0249 272.275 10.0366V21.6076C278.633 21.6291 284.981 21.6076 291.339 21.6291V29.0888C284.981 29.0979 278.626 29.0979 272.275 29.0888C272.275 33.9809 272.275 38.8888 272.297 43.7829C279.406 43.7516 286.527 43.7829 293.627 43.7614C293.636 46.3386 293.646 48.9237 293.646 51.5009H263.765C263.784 35.1883 263.755 18.8778 263.784 2.55546V2.55546ZM317.81 4.47124C325.537 -0.000224422 335.41 1.36959 342.993 5.49273C343.138 8.52197 343.138 11.559 343.128 14.5903C337.625 10.4691 330.212 7.52201 323.457 10.2225C319.624 11.5923 319.18 17.3729 322.663 19.3709C328.338 22.6271 335.275 23.2847 340.582 27.2845C347.713 32.6013 347.186 45.4717 339.036 49.5929C330.782 53.9215 320.365 52.6437 312.471 48.0685C312.471 45.0588 312.471 42.0511 312.421 39.0414C318.17 43.1509 325.487 45.9453 332.576 44.0295C335.193 43.37 337.594 41.0198 337.222 38.1354C337.275 35.93 335.729 33.9927 333.792 33.0867C328.226 30.2003 321.659 29.3862 316.614 25.4822C310.029 20.3806 310.464 8.68635 317.81 4.47124V4.47124ZM367.27 4.63757C374.935 -0.000224422 384.972 1.24631 392.545 5.48099C392.576 8.48088 392.576 11.469 392.598 14.467C387.146 10.3458 379.706 7.55332 373.041 10.2734C369.323 11.7156 368.898 17.3318 372.297 19.3709C378.109 22.7524 385.344 23.2847 390.66 27.6054C395.236 31.212 396.151 37.8986 394.378 43.1744C392.719 47.8709 387.989 50.6105 383.342 51.6124C376.211 53.0859 368.597 51.767 362.26 48.2035C362.157 45.143 362.156 42.0824 362.147 39.0219C368.143 43.4738 376.315 46.3269 383.6 43.5227C387.567 42.0805 388.175 36.0004 384.6 33.795C378.849 30.1983 371.595 29.6856 366.205 25.4177C359.851 20.32 360.149 8.92705 367.27 4.63757V4.63757ZM3.84839 2.56524C12.488 3.07012 21.4603 1.29523 29.8201 4.0192C39.1035 6.99561 40.4224 21.5156 31.9531 26.2337C39.671 29.4292 41.442 40.3721 36.1466 46.4306C32.8904 50.3052 27.5736 51.3345 22.7616 51.4793C16.4546 51.5831 10.1593 51.4793 3.8523 51.5106V2.56524H3.84839ZM12.1064 10.0464C12.096 14.3332 12.096 18.6195 12.1064 22.905C16.5368 22.6898 21.1335 23.5234 25.4601 22.2769C30.685 20.7622 30.7261 12.1579 25.5325 10.5924C21.1531 9.47889 16.5681 10.2421 12.1064 10.0464V10.0464ZM12.1064 30.1298C12.0868 34.7657 12.0966 39.4035 12.1064 44.0236C17.1943 43.6636 22.6579 45.0236 27.4699 42.8906C32.2407 40.5619 31.8082 32.6268 26.8104 30.8441C22.0708 29.3666 16.9908 30.4527 12.1064 30.1298ZM168.978 2.56524H177.228V51.5106H168.978V2.56524ZM135.2 78.5586C142.896 73.684 153.16 75.0362 160.764 79.4353C160.723 82.3823 160.723 85.3294 160.733 88.2745C155.17 84.2061 147.524 81.0634 140.826 84.1846C137.519 85.7619 137.086 90.6756 140.063 92.8086C146.164 96.6832 154.274 96.8691 159.538 102.166C163.06 105.493 163.647 110.8 162.743 115.334C161.692 119.868 157.735 123.248 153.375 124.532C145.744 126.88 137.178 125.614 130.315 121.626C130.337 118.606 130.347 115.589 130.315 112.569C136.118 116.927 144 119.792 151.131 117.236C155.436 116.082 156.293 109.467 152.397 107.303C146.638 103.706 139.311 103.254 134.014 98.8025C128.008 93.7264 128.4 82.8031 135.2 78.5586V78.5586ZM36.5693 76.498H44.8019C44.8215 92.6344 44.8247 108.777 44.8117 124.927H36.5693V76.498ZM68.2433 75.365C79.2077 85.8323 90.1467 96.3427 101.207 106.71C101.248 96.5501 101.217 86.3998 101.227 76.2514C103.966 76.2397 106.714 76.2358 109.471 76.2397C109.49 92.7577 109.449 109.264 109.49 125.782C98.3108 115.185 87.3483 104.35 76.2528 93.6598C76.2 104.078 76.2528 114.504 76.2313 124.933H68.2453C68.2349 108.405 68.2342 91.8823 68.2433 75.365V75.365ZM184.175 76.498H192.419V124.927H184.175V76.498ZM216.128 76.498C222.765 76.498 229.408 76.4908 236.057 76.4765C243.609 76.3845 251.409 80.2493 255.1 86.9986C259.066 94.0864 259.323 102.896 256.861 110.532C254.223 118.555 246.37 124.23 238.004 124.772C230.719 125.144 223.424 124.825 216.128 124.927V76.498ZM224.619 83.9674V117.446C230.523 117.23 236.881 118.354 242.372 115.593C247.656 112.87 250.07 106.689 249.916 101C250.131 95.2508 248.102 88.8009 242.807 85.8538C237.251 82.7522 230.668 84.3607 224.619 83.9674V83.9674ZM275.367 76.498C285.238 76.4889 295.113 76.4889 304.992 76.498C304.992 78.9911 304.98 81.4841 304.98 83.9791C297.852 83.9583 290.729 83.9583 283.609 83.9791V95.2919C289.958 95.3036 296.312 95.3075 302.673 95.3036V102.517C296.315 102.517 289.954 102.505 283.609 102.517V117.436C290.73 117.457 297.861 117.436 304.992 117.448V124.917H275.367V76.498ZM329.216 76.4882C335.903 76.5489 342.592 76.4256 349.269 76.5293C354.943 76.6722 360.943 79.9402 362.575 85.6679C364.039 90.6462 363.689 96.5501 360.493 100.804C358.536 103.348 355.362 104.309 352.396 105.123C358.185 111.664 363.931 118.253 369.634 124.888C366.372 124.95 363.123 124.95 359.887 124.888C354.362 118.324 348.732 111.853 343.183 105.331C341.349 105.342 339.525 105.342 337.703 105.342C337.684 111.865 337.694 118.387 337.694 124.911C334.86 124.92 332.026 124.92 329.193 124.911V76.4726L329.216 76.4882ZM337.694 83.713C337.674 88.5152 337.684 93.3174 337.694 98.1176C342.095 97.871 346.695 98.8084 350.955 97.4385C356.221 95.3251 356.335 86.8714 351.151 84.619C346.889 82.989 342.179 83.9478 337.717 83.7208" fill="#185F7D"/>
</svg>
