<svg width="400" height="401" viewBox="0 0 400 401" fill="none" xmlns="http://www.w3.org/2000/svg">
<g clip-path="url(#clip0)">
<path d="M0.25 320.25H50.25V288.75H114V320.25H164V79.0001H0.25V320.25Z" fill="#1F2E5C"/>
<path d="M251.5 11.75C244 11.75 237.75 18 237.75 25.5C237.75 33 244 39.25 251.5 39.25C259 39.25 265.25 33 265.25 25.5C265.25 18 259 11.75 251.5 11.75Z" fill="#1F2E5C"/>
<path d="M251.5 75C244 75 237.75 81.25 237.75 88.75C237.75 96.25 244 102.5 251.5 102.5C259 102.5 265.25 96.25 265.25 88.75C265.25 81 259 75 251.5 75Z" fill="#1F2E5C"/>
<path d="M251.5 138C244 138 237.75 144.25 237.75 151.75C237.75 159.25 244 165.5 251.5 165.5C259 165.5 265.25 159.25 265.25 151.75C265.25 144.25 259 138 251.5 138Z" fill="#1F2E5C"/>
<path d="M315.75 11.75C308.25 11.75 302 18 302 25.5C302 33 308.25 39.25 315.75 39.25C323.25 39.25 329.5 33 329.5 25.5C329.5 18 323.5 11.75 315.75 11.75Z" fill="#1F2E5C"/>
<path d="M315.75 75C308.25 75 302 81.25 302 88.75C302 96.25 308.25 102.5 315.75 102.5C323.25 102.5 329.5 96.25 329.5 88.75C329.5 81 323.5 75 315.75 75Z" fill="#1F2E5C"/>
<path d="M315.75 138C308.25 138 302 144.25 302 151.75C302 159.25 308.25 165.5 315.75 165.5C323.25 165.5 329.5 159.25 329.5 151.75C329.5 144.25 323.5 138 315.75 138Z" fill="#1F2E5C"/>
<path d="M379 11.75C371.5 11.75 365.25 18 365.25 25.5C365.25 33 371.5 39.25 379 39.25C386.5 39.25 392.75 33 392.75 25.5C393 18 386.75 11.75 379 11.75Z" fill="#1F2E5C"/>
<path d="M379 75C371.5 75 365.25 81.25 365.25 88.75C365.25 96.25 371.5 102.5 379 102.5C386.5 102.5 392.75 96.25 392.75 88.75C393 81 386.75 75 379 75Z" fill="#1F2E5C"/>
<path d="M379 138C371.5 138 365.25 144.25 365.25 151.75C365.25 159.25 371.5 165.5 379 165.5C386.5 165.5 392.75 159.25 392.75 151.75C392.75 144.25 386.75 138 379 138Z" fill="#1F2E5C"/>
<path d="M83.9999 236.25C38.7499 235.25 1.24985 271 -0.000145026 316.25C-1.25015 361.5 34.7499 399 79.9999 400.25C125.25 401.5 162.75 365.5 164 320.25C165 275 129.25 237.25 83.9999 236.25ZM109.5 347.5H54.4999V292.75H109.25V347.5H109.5Z" fill="#DE2179"/>
<path d="M82 164C127.287 164 164 127.287 164 82C164 36.7126 127.287 0 82 0C36.7126 0 0 36.7126 0 82C0 127.287 36.7126 164 82 164Z" fill="#42BA9B"/>
<path d="M231 220.75V389.75H400V220.75H231ZM365.75 343.25H265.5V322.25H365.75V343.25ZM365.75 288H265.5V267H365.75V288Z" fill="#42BA9B"/>
</g>
<defs>
<clipPath id="clip0">
<rect width="400" height="400.25" fill="white"/>
</clipPath>
</defs>
</svg>
