<svg width="400" height="400" viewBox="0 0 400 400" fill="none" xmlns="http://www.w3.org/2000/svg">
<path d="M0 200C0 163.733 8.9336 130.267 26.8 99.6C44.6668 68.9332 68.9336 44.6668 99.6 26.8C130.267 8.9332 163.734 0 200 0C236.267 0 269.734 8.9332 300.4 26.8C331.067 44.6668 355.334 68.9332 373.2 99.6C391.067 130.267 400 163.733 400 200C400 236.267 391.067 269.733 373.2 300.4C355.334 331.067 331.067 355.333 300.4 373.2C269.734 391.067 236.267 400 200 400C163.734 400 130.267 391.067 99.6 373.2C68.9336 355.333 44.6668 331.067 26.8 300.4C8.9336 269.733 0 236.267 0 200ZM33.2 200C33.2 241.6 47.2 278.267 75.2 310C88 284.933 108.267 261.067 136 238.4C163.734 215.733 190.8 201.467 217.2 195.6C213.2 186.267 209.334 177.867 205.6 170.4C159.734 185.067 110.134 192.4 56.8 192.4C46.4 192.4 38.6668 192.267 33.6 192C33.6 193.067 33.5336 194.4 33.4 196C33.2668 197.6 33.2 198.933 33.2 200ZM38.4 158.8C44.2668 159.333 52.9336 159.6 64.4 159.6C108.934 159.6 151.2 153.6 191.2 141.6C170.934 105.6 148.667 75.6 124.4 51.6C103.334 62.2668 85.2668 77.0668 70.2 96C55.1336 114.933 44.5336 135.867 38.4 158.8ZM98 331.6C128.134 355.067 162.134 366.8 200 366.8C219.734 366.8 239.334 363.067 258.8 355.6C253.467 310 243.067 265.867 227.6 223.2C203.067 228.533 178.334 242 153.4 263.6C128.467 285.2 110 307.867 98 331.6ZM159.2 38.8C182.667 63.0668 204.4 93.3332 224.4 129.6C260.667 114.4 288 95.0668 306.4 71.6C275.467 46 240 33.2 200 33.2C186.4 33.2 172.8 35.0668 159.2 38.8ZM238.8 158C242.8 166.533 247.334 177.333 252.4 190.4C272.134 188.533 293.6 187.6 316.8 187.6C333.334 187.6 349.734 188 366 188.8C363.867 152.533 350.8 120.267 326.8 92C309.467 117.867 280.134 139.867 238.8 158ZM262.4 218.4C276 257.867 285.2 298.4 290 340C311.067 326.4 328.267 308.933 341.6 287.6C354.934 266.267 362.934 243.2 365.6 218.4C346.134 217.067 328.4 216.4 312.4 216.4C297.734 216.4 281.067 217.067 262.4 218.4Z" fill="#EA4C89"/>
</svg>
