<svg width="80" height="27" viewBox="0 0 80 27" fill="none" xmlns="http://www.w3.org/2000/svg">
<g clip-path="url(#clip0)">
<path d="M25.5088 15.2494C25.7084 14.2115 25.5886 13.8123 24.8302 13.8123C24.1515 13.8123 23.7124 14.2115 23.5128 15.2494L21.7962 23.3931H17.6445L20.2793 11.0578H24.2713L23.9519 12.5748H24.0318C24.7902 11.3373 26.0278 10.6985 27.425 10.6985C29.1415 10.6985 29.8202 11.3373 30.0597 12.6147C31.0178 11.1776 32.3351 10.6985 33.5727 10.6985C35.3691 10.6985 36.6066 11.3772 36.0477 14.0917L34.0517 23.3931H29.9399L31.6565 15.2494C31.8561 14.2115 31.7363 13.8123 30.9779 13.8123C30.2194 13.8123 29.8601 14.2115 29.6605 15.2494L27.9439 23.3931H23.7922L25.5088 15.2494ZM38.7623 7.10571H42.914L41.7563 12.4151H41.8361C42.5148 11.1776 43.6325 10.6985 44.7503 10.6985C47.1455 10.6985 48.2633 12.1357 47.2254 16.966C46.2673 21.5169 44.8701 23.7125 42.1156 23.7125C40.6785 23.7125 39.92 23.0339 39.7204 21.7165L39.3212 23.3532H35.409L38.7623 7.10571ZM41.1176 20.6386C42.0757 20.6386 42.5148 19.8802 43.0337 17.2454C43.5926 14.5708 43.5128 13.8123 42.5547 13.8123C41.6765 13.8123 41.3172 14.5708 40.6785 17.2454C40.1196 19.8802 40.1994 20.6386 41.1176 20.6386ZM53.0936 23.3931C53.0138 22.9939 53.0936 22.5149 53.1735 21.9959H53.0936C52.415 23.1137 51.1775 23.7125 49.9399 23.7125C47.4649 23.7125 46.8262 22.1955 47.3052 20.0398C47.7842 17.7644 48.8222 16.6466 51.5767 16.0478L53.2134 15.6885C54.1715 15.4889 54.6106 15.0498 54.7304 14.2913C54.8501 13.5329 54.6505 13.1736 53.892 13.1736C53.1335 13.1736 52.7343 13.5329 52.3751 14.7704H48.8621C49.6206 11.2574 52.5747 10.6187 54.4509 10.6187C57.3651 10.6187 59.2014 11.3772 58.5228 14.6107L57.2054 20.5987C57.0058 21.7564 56.8461 22.6746 57.0856 23.2734L53.0936 23.3931ZM53.8122 18.9221L54.1715 17.485H54.0916C53.8122 17.7644 53.2533 17.7644 52.5747 18.0438C51.896 18.3233 51.5367 18.8023 51.417 19.6406C51.2174 20.479 51.4968 21.0379 52.0956 21.0379C53.0537 20.958 53.5327 20.2794 53.8122 18.9221ZM60.6785 11.0578H64.6705L64.2713 12.974C65.0297 11.5369 66.3471 10.6985 67.5048 10.6985H68.1834L67.3451 14.5708C66.9858 14.4909 66.6665 14.4909 66.3072 14.4909C64.8701 14.4909 63.912 15.0498 63.5527 16.6466L62.1156 23.3931H58.0437L60.6785 11.0578ZM70.0198 7.10571H74.1715L72.4549 15.3293L75.6884 11.0578H80.0397L75.5687 16.1676L77.8441 23.3931H73.4529L72.2952 19.1217L71.3371 20.2394L70.6984 23.3931H66.5467L70.0198 7.10571Z" fill="#7B878D"/>
<path d="M9.58084 23.3932H4.3513L6.26747 15.1297H0L0.958084 10.978H7.22555L9.02196 3.31335H14.2116L13.2535 7.58481L12.4152 10.978H19.0419L18.0838 15.1297H11.5369L9.58084 23.3932Z" fill="#7B878D"/>
<path d="M20.2782 7.58482L21.2363 3.23352H15.2483L14.2104 7.58482H20.2782ZM16.6854 23.3932L17.7234 19.1217H11.4559L10.418 23.3932H16.6854Z" fill="#7B878D"/>
</g>
<defs>
<clipPath id="clip0">
<rect width="80" height="26.5469" fill="white"/>
</clipPath>
</defs>
</svg>
