<svg width="400" height="400" viewBox="0 0 400 400" fill="none" xmlns="http://www.w3.org/2000/svg">
<g clip-path="url(#clip0)">
<path d="M200 400C310.457 400 400 310.457 400 200C400 89.5431 310.457 6.10352e-05 200 6.10352e-05C89.5431 6.10352e-05 0 89.5431 0 200C0 310.457 89.5431 400 200 400Z" fill="#3C5A9A"/>
<path d="M265.031 61.3895H220.726C194.434 61.3895 165.19 72.4475 165.19 110.559C165.319 123.838 165.19 136.556 165.19 150.869H134.774V199.271H166.131V338.61H223.753V198.351H261.784L265.226 150.733H222.76C222.76 150.733 222.855 129.551 222.76 123.4C222.76 108.339 238.431 109.201 239.374 109.201C246.831 109.201 261.331 109.223 265.053 109.201V61.3895H265.031V61.3895Z" fill="white"/>
</g>
<defs>
<clipPath id="clip0">
<rect width="400" height="400" fill="white"/>
</clipPath>
</defs>
</svg>
