<svg width="400" height="400" viewBox="0 0 400 400" fill="none" xmlns="http://www.w3.org/2000/svg">
<g clip-path="url(#clip0)">
<path d="M133.667 400C170.467 400 200.333 370.133 200.333 333.333V266.667H133.667C96.8667 266.667 67 296.533 67 333.333C67 370.133 96.8667 400 133.667 400Z" fill="#0ACF83"/>
<path d="M67 200C67 163.2 96.8667 133.333 133.667 133.333H200.333V266.667H133.667C96.8667 266.667 67 236.8 67 200Z" fill="#A259FF"/>
<path d="M67 66.6667C67 29.8667 96.8667 0 133.667 0H200.333V133.333H133.667C96.8667 133.333 67 103.467 67 66.6667Z" fill="#F24E1E"/>
<path d="M200.333 0H267C303.8 0 333.667 29.8667 333.667 66.6667C333.667 103.467 303.8 133.333 267 133.333H200.333V0Z" fill="#FF7262"/>
<path d="M333.667 200C333.667 236.8 303.8 266.667 267 266.667C230.2 266.667 200.333 236.8 200.333 200C200.333 163.2 230.2 133.333 267 133.333C303.8 133.333 333.667 163.2 333.667 200Z" fill="#1ABCFE"/>
</g>
<defs>
<clipPath id="clip0">
<rect width="400" height="400" fill="white"/>
</clipPath>
</defs>
</svg>
