<svg width="400" height="100" viewBox="0 0 400 100" fill="none" xmlns="http://www.w3.org/2000/svg">
<g clip-path="url(#clip0)">
<path d="M148.57 35.1085H129.8V25.9418C129.88 15.3333 132.704 11.3921 135.809 9.36942C139.012 7.27405 143.89 7.08341 148.569 7.12622C149.037 7.12633 149.501 7.03408 149.933 6.85475C150.366 6.67542 150.758 6.41255 151.089 6.08118C151.42 5.74981 151.682 5.35646 151.86 4.92368C152.038 4.49089 152.129 4.02717 152.128 3.55907C152.128 3.09166 152.036 2.6288 151.858 2.19695C151.679 1.76509 151.417 1.3727 151.086 1.04219C150.756 0.71168 150.363 0.449525 149.931 0.270702C149.499 0.0918797 149.037 -0.00010603 148.569 9.17181e-08C143.912 0.0379657 137.623 -0.159132 131.998 3.34663C126.278 6.92509 122.598 14.1757 122.673 25.9426V35.1093H115.338C113.366 35.1093 111.768 36.7087 111.768 38.6684C111.769 39.6144 112.146 40.5213 112.815 41.1899C113.484 41.8584 114.392 42.2339 115.338 42.2339H122.673V95.6466C122.673 97.6079 124.266 99.217 126.238 99.217C128.21 99.217 129.805 97.6079 129.805 95.6466C129.804 61.4913 129.797 59.1375 129.797 42.2339H148.567C149.513 42.233 150.419 41.8573 151.089 41.1889C151.758 40.5206 152.135 39.6142 152.137 38.6684C152.14 36.7079 150.536 35.1085 148.57 35.1085V35.1085ZM232.509 92.0965V92.0803C226.5 92.1336 221.655 91.7725 218.906 89.703C216.184 87.7684 213.767 83.5389 213.736 72.7599C213.731 57.4282 213.728 50.3392 213.728 42.3292H232.505C234.475 42.3292 236.071 40.7306 236.071 38.7637C236.071 36.7967 234.472 35.2062 232.505 35.2062H213.728C213.728 28.1083 213.736 18.9464 213.736 3.56554C213.736 1.59617 212.135 9.17181e-08 210.166 9.17181e-08C208.196 9.17181e-08 206.615 1.59698 206.615 3.56554V35.2062H199.27C198.327 35.2071 197.423 35.5822 196.756 36.2491C196.089 36.9161 195.714 37.8204 195.713 38.7637C195.713 39.7079 196.088 40.6134 196.754 41.2818C197.421 41.9502 198.326 42.3269 199.27 42.3292H206.615V72.7599C206.573 84.362 209.324 91.5754 214.754 95.4948C220.17 99.2703 226.5 99.1661 232.508 99.2162C232.976 99.2157 233.44 99.1229 233.872 98.9432C234.305 98.7634 234.697 98.5003 235.028 98.1687C235.359 97.8371 235.621 97.4437 235.799 97.0108C235.978 96.5779 236.069 96.1141 236.069 95.6458C236.068 95.1789 235.976 94.7166 235.797 94.2854C235.618 93.8542 235.356 93.4625 235.025 93.1328C234.694 92.8031 234.302 92.5419 233.87 92.3641C233.438 92.1862 232.976 92.0953 232.509 92.0965V92.0965ZM396.387 92.1037V92.0868C388.696 92.1385 383.98 91.2992 381.708 89.1933C379.365 87.2579 377.598 82.7771 377.611 72.9101V42.3284H396.384C398.36 42.3284 399.944 40.7298 399.944 38.7629C399.944 36.7959 398.36 35.2054 396.384 35.2054H377.61V3.55827C377.611 3.09124 377.52 2.62862 377.342 2.19693C377.163 1.76524 376.902 1.37298 376.572 1.04263C376.241 0.712279 375.849 0.450343 375.418 0.271842C374.986 0.0933408 374.524 0.00178458 374.057 0.00242343C372.087 0.00242343 370.487 1.58971 370.487 3.55827V35.2054H363.148C362.68 35.2047 362.216 35.2961 361.784 35.4745C361.351 35.6529 360.958 35.9147 360.626 36.245C360.295 36.5754 360.032 36.9677 359.852 37.3998C359.672 37.8318 359.58 38.295 359.579 38.7629C359.58 39.7088 359.956 40.6157 360.625 41.2843C361.294 41.9529 362.202 42.3284 363.148 42.3284H370.487V72.9101C370.509 83.3272 372.121 90.216 377.047 94.5763C382.044 98.7873 388.493 99.1597 396.386 99.2146C397.329 99.2133 398.234 98.8379 398.901 98.1707C399.568 97.5034 399.943 96.5989 399.944 95.6555C399.944 95.1886 399.852 94.7262 399.673 94.2948C399.495 93.8634 399.233 93.4715 398.902 93.1416C398.572 92.8117 398.18 92.5501 397.748 92.3721C397.316 92.194 396.854 92.1028 396.387 92.1037V92.1037ZM170.168 95.6458V38.6724C170.168 36.7079 171.766 35.1085 173.723 35.1085C174.669 35.1091 175.575 35.4847 176.244 36.1528C176.913 36.821 177.289 37.7271 177.291 38.6724V95.6458C177.291 97.6071 175.691 99.2162 173.723 99.2162C171.766 99.2162 170.168 97.6071 170.168 95.6458ZM335.559 95.6458V38.6724C335.559 36.7079 337.14 35.1085 339.106 35.1085C339.574 35.1082 340.038 35.2001 340.471 35.379C340.903 35.558 341.297 35.8204 341.628 36.1513C341.96 36.4823 342.223 36.8752 342.402 37.3078C342.582 37.7404 342.674 38.2041 342.674 38.6724V95.6458C342.674 96.5922 342.297 97.4996 341.628 98.169C340.959 98.8383 340.052 99.2149 339.106 99.2162C337.14 99.2162 335.559 97.6071 335.559 95.6458ZM286.19 34.8702C276.029 34.8767 266.972 39.5844 261.065 46.9271V3.56554C261.05 2.63015 260.669 1.73785 260.003 1.08135C259.336 0.42486 258.438 0.0568725 257.503 0.0568725C256.567 0.0568725 255.669 0.42486 255.003 1.08135C254.336 1.73785 253.955 2.63015 253.941 3.56554V69.267C253.941 69.519 254.034 69.742 254.088 69.9819C255.538 86.4485 269.341 99.36 286.192 99.36C303.998 99.36 318.427 84.9339 318.427 67.1232C318.425 49.3108 303.996 34.8783 286.19 34.8702V34.8702ZM286.19 92.2354C272.31 92.2087 261.082 80.9992 261.065 67.1232C261.082 53.2383 272.313 42.0239 286.19 41.9996C300.062 42.0231 311.278 53.2358 311.3 67.1232C311.276 80.9984 300.062 92.2079 286.19 92.2354Z" fill="black"/>
<path d="M168.696 20.8117C167.364 19.4729 166.615 17.6627 166.61 15.7744C166.61 13.8971 167.368 12.0634 168.696 10.7371C170.032 9.40441 171.841 8.65458 173.728 8.65137C175.615 8.65561 177.424 9.40524 178.762 10.7371C180.095 12.0749 180.845 13.8856 180.849 15.7744C180.844 17.6629 180.094 19.4733 178.762 20.8117C177.423 22.1418 175.615 22.8921 173.728 22.9006C171.841 22.8927 170.033 22.1422 168.696 20.8117V20.8117ZM334.075 20.8117C332.742 19.4734 331.991 17.6631 331.986 15.7744C331.986 13.8971 332.744 12.0634 334.075 10.7371C335.414 9.40475 337.225 8.65517 339.115 8.65137C340.986 8.65137 342.817 9.40906 344.148 10.7371C345.476 12.0778 346.224 13.887 346.23 15.7744C346.223 17.6615 345.476 19.4705 344.148 20.8117C342.817 22.134 340.986 22.9006 339.115 22.9006C337.226 22.8924 335.416 22.1422 334.075 20.8117V20.8117ZM35.7169 88.5658C34.6399 87.4842 34.0352 86.0201 34.0352 84.4937C34.0352 82.9792 34.6394 81.4993 35.7169 80.4282C36.7997 79.3523 38.2626 78.7464 39.789 78.7415C41.3035 78.7415 42.7866 79.3571 43.8594 80.4282C44.9348 81.5083 45.5398 82.9696 45.5428 84.4937C45.5399 86.0198 44.935 87.4832 43.8594 88.5658C42.7766 89.6409 41.3148 90.2478 39.789 90.2556C38.2627 90.2474 36.8006 89.6407 35.7169 88.5658V88.5658Z" fill="#75C1C2"/>
<path d="M35.717 54.5848C34.6438 53.5007 34.0397 52.0382 34.0352 50.5128C34.0352 48.9949 34.6458 47.5135 35.717 46.4407C36.7987 45.3668 38.2598 44.762 39.7841 44.7573C41.3036 44.7573 42.7802 45.3712 43.8594 46.4407C44.9352 47.5232 45.5402 48.9866 45.5428 50.5128C45.5383 52.0385 44.9336 53.5012 43.8594 54.5848C42.7737 55.6576 41.3104 56.2615 39.7841 56.2666C38.2602 56.2614 36.7994 55.6574 35.717 54.5848V54.5848Z" fill="black"/>
<path d="M35.7186 20.603C34.6483 19.519 34.0447 18.0592 34.0368 16.5359C34.0368 15.0148 34.6539 13.5334 35.7186 12.4574C36.8014 11.3863 38.2626 10.785 39.7857 10.7837C41.3099 10.7843 42.7724 11.3856 43.8561 12.4574C44.9337 13.5416 45.5398 15.0073 45.5428 16.5359C45.5375 18.0607 44.9315 19.522 43.8561 20.603C42.7732 21.677 41.3109 22.2812 39.7857 22.2848C38.272 22.2848 36.7889 21.6709 35.7186 20.603V20.603ZM35.5675 37.4323C34.5328 36.3145 33.9845 34.8315 34.0432 33.3094C34.0993 31.7815 34.7597 30.3383 35.8793 29.2972C37.0033 28.2664 38.4888 27.7209 40.0127 27.7794C41.5339 27.838 42.9698 28.4974 44.0056 29.613C45.0323 30.7318 45.6025 32.227 45.5387 33.7529C45.4725 35.2762 44.8094 36.7122 43.693 37.7506C42.571 38.7818 41.0891 39.3314 39.566 39.2813C38.0417 39.2157 36.6048 38.5513 35.5675 37.4323V37.4323ZM35.7186 71.5747C34.646 70.49 34.0416 69.028 34.0352 67.5027C34.0352 65.9849 34.6523 64.505 35.7186 63.4323C36.8006 62.3567 38.2632 61.7512 39.789 61.7473C41.3035 61.7473 42.7866 62.3612 43.8561 63.4323C44.9328 64.5137 45.539 65.9766 45.5428 67.5027C45.5428 69.0189 44.9289 70.4987 43.8561 71.5747C42.7725 72.6455 41.3124 73.2493 39.789 73.2565C38.2644 73.2501 36.803 72.6463 35.7186 71.5747V71.5747Z" fill="#75C1C2"/>
<path d="M52.7081 54.5846C51.6353 53.5 51.0304 52.0381 51.0231 50.5126C51.0231 48.9948 51.6403 47.5133 52.7081 46.4406C53.791 45.3663 55.2532 44.7616 56.7785 44.7572C58.304 44.7634 59.7661 45.3678 60.8506 46.4406C61.9263 47.5233 62.5317 48.9864 62.5356 50.5126C62.5298 52.0384 61.9246 53.5008 60.8506 54.5846C59.7654 55.6562 58.3036 56.26 56.7785 56.2664C55.2536 56.2619 53.7915 55.6578 52.7081 54.5846V54.5846ZM52.7081 37.5914C51.6356 36.5103 51.032 35.0503 51.028 33.5274C51.028 32.0048 51.6403 30.5298 52.7081 29.4506C53.7939 28.3819 55.2551 27.7811 56.7785 27.7769C58.2931 27.7769 59.7746 28.3859 60.8506 29.4506C61.9261 30.5353 62.5314 31.9999 62.5356 33.5274C62.5356 35.0388 61.9217 36.5235 60.8506 37.5914C59.7676 38.6676 58.3053 39.2756 56.7785 39.2845C55.2523 39.2752 53.7907 38.6673 52.7081 37.5914V37.5914ZM52.7081 71.5746C51.6333 70.4914 51.0279 69.0286 51.0231 67.5026C51.0231 65.9848 51.637 64.5049 52.7081 63.4322C53.7904 62.3568 55.2529 61.7514 56.7785 61.7472C58.298 61.7472 59.7778 62.3611 60.8506 63.4322C61.9262 64.5143 62.5316 65.9769 62.5356 67.5026C62.5356 69.0188 61.9217 70.4987 60.8506 71.5746C59.7652 72.6458 58.3035 73.2495 56.7785 73.2564C55.2539 73.25 53.7926 72.6462 52.7081 71.5746ZM69.6982 54.5846C68.625 53.5005 68.0209 52.038 68.0164 50.5126C68.0164 48.9948 68.627 47.5133 69.6982 46.4406C70.7811 45.3665 72.2433 44.7618 73.7685 44.7572C75.2847 44.7572 76.7678 45.3711 77.8406 46.4406C78.9127 47.525 79.5151 48.9877 79.5175 50.5126C79.5133 52.0371 78.9112 53.4992 77.8406 54.5846C76.7565 55.6579 75.294 56.2619 73.7685 56.2664C72.2436 56.2616 70.7817 55.6575 69.6982 54.5846V54.5846ZM18.7225 54.5846C17.6501 53.4999 17.0457 52.0379 17.0391 50.5126C17.0391 48.9948 17.6546 47.5133 18.7225 46.4406C19.8086 45.3644 21.2751 44.7595 22.8042 44.7572C24.3091 44.7572 25.7905 45.3711 26.8665 46.4406C27.9398 47.5247 28.5444 48.987 28.5499 50.5126C28.5425 52.0378 27.9382 53.4994 26.8665 54.5846C25.7846 55.6551 24.3262 56.2589 22.8042 56.2664C21.2755 56.2638 19.8092 55.6597 18.7225 54.5846V54.5846Z" fill="black"/>
<path d="M18.7306 37.5914C17.6501 36.5146 17.0417 35.0528 17.0391 33.5274C17.0391 32.0048 17.6506 30.5298 18.7306 29.4506C19.8124 28.379 21.2734 27.7775 22.7961 27.7769C24.3091 27.7769 25.7905 28.3859 26.8649 29.4506C27.9392 30.5362 28.5443 32.0002 28.5499 33.5274C28.5441 35.0509 27.9388 36.5108 26.8649 37.5914C25.7831 38.6675 24.3219 39.2755 22.7961 39.2845C21.2707 39.2783 19.8094 38.6698 18.7306 37.5914V37.5914ZM18.7241 71.5746C17.6536 70.4894 17.0525 69.0269 17.0504 67.5026C17.0504 65.9848 17.6562 64.5049 18.7241 63.4322C19.8075 62.3556 21.272 61.7501 22.7993 61.7472C24.3139 61.7472 25.8002 62.3611 26.8697 63.4322C27.9467 64.5136 28.5531 65.9764 28.5572 67.5026C28.5522 69.0291 27.946 70.4921 26.8697 71.5746C25.7848 72.6456 24.3238 73.2493 22.7993 73.2564C21.2731 73.2513 19.8097 72.6474 18.7241 71.5746V71.5746Z" fill="#75C1C2"/>
<path d="M1.7381 54.5848C0.662543 53.5021 0.0576022 52.0388 0.0546875 50.5128C0.0556712 48.9863 0.660904 47.5223 1.7381 46.4407C2.82127 45.367 4.28331 44.7623 5.80849 44.7573C7.33331 44.7618 8.79504 45.3666 9.87728 46.4407C10.9506 47.5247 11.5544 48.9873 11.5583 50.5128C11.5525 52.0378 10.949 53.4998 9.87728 54.5848C8.79448 55.6579 7.33298 56.262 5.80849 56.2666C4.28366 56.2614 2.82188 55.6574 1.7381 54.5848V54.5848Z" fill="black"/>
</g>
<defs>
<clipPath id="clip0">
<rect width="400" height="99.36" fill="white"/>
</clipPath>
</defs>
</svg>
