<svg width="140" height="47" viewBox="0 0 140 47" fill="none" xmlns="http://www.w3.org/2000/svg">
<path d="M20.3996 7.64984C20.3996 9.11691 19.1421 10.3744 17.675 10.3744C16.208 10.3744 14.9505 9.11691 14.9505 7.64984C14.9505 6.18278 16.208 4.92529 17.675 4.92529C19.1421 4.92529 20.3996 6.18278 20.3996 7.64984ZM17.675 12.6099C16.0682 12.6099 14.8108 13.8674 14.8108 15.4742C14.8108 17.081 16.0682 18.3385 17.675 18.3385C19.2818 18.3385 20.5393 17.081 20.5393 15.4742C20.5393 13.7975 19.2818 12.6099 17.675 12.6099ZM17.675 20.2247C16.0682 20.2247 14.7409 21.552 14.7409 23.1588C14.7409 24.7656 16.0682 26.093 17.675 26.093C19.2818 26.093 20.6092 24.7656 20.6092 23.1588C20.679 21.552 19.2818 20.2247 17.675 20.2247ZM17.675 27.9792C16.0682 27.9792 14.8108 29.2367 14.8108 30.8435C14.8108 32.4502 16.0682 33.7077 17.675 33.7077C19.2818 33.7077 20.5393 32.4502 20.5393 30.8435C20.5393 29.3065 19.2818 27.9792 17.675 27.9792ZM17.675 35.8734C16.208 35.8734 14.9505 37.1309 14.9505 38.5979C14.9505 40.065 16.208 41.3225 17.675 41.3225C19.1421 41.3225 20.3996 40.065 20.3996 38.5979C20.3996 37.1309 19.212 35.8734 17.675 35.8734ZM25.2199 12.2606C23.4734 12.2606 22.0064 13.7277 22.0064 15.4742C22.0064 17.2207 23.4734 18.6878 25.2199 18.6878C26.9665 18.6878 28.4335 17.2207 28.4335 15.4742C28.4335 13.7277 26.9665 12.2606 25.2199 12.2606ZM25.2199 19.8754C23.4036 19.8754 21.8667 21.3425 21.8667 23.2287C21.8667 25.0451 23.3337 26.582 25.2199 26.582C27.0363 26.582 28.5732 25.1149 28.5732 23.2287C28.5732 21.3425 27.0363 19.8754 25.2199 19.8754ZM25.2199 27.6299C23.4734 27.6299 22.0064 29.0969 22.0064 30.8435C22.0064 32.59 23.4734 34.057 25.2199 34.057C26.9665 34.057 28.4335 32.59 28.4335 30.8435C28.4335 29.0969 26.9665 27.6299 25.2199 27.6299ZM32.9744 19.4562C31.0184 19.4562 29.2718 21.063 29.2718 23.1588C29.2718 25.1149 30.8786 26.8614 32.9744 26.8614C35.0702 26.8614 36.677 25.2546 36.677 23.1588C36.5373 21.063 34.9305 19.4562 32.9744 19.4562ZM10.0603 12.9592C8.73292 12.9592 7.61515 14.077 7.61515 15.4043C7.61515 16.7317 8.73292 17.8494 10.0603 17.8494C11.3876 17.8494 12.5054 16.7317 12.5054 15.4043C12.5054 14.077 11.4575 12.9592 10.0603 12.9592ZM10.0603 20.574C8.5932 20.574 7.47543 21.6918 7.47543 23.1588C7.47543 24.6259 8.5932 25.7437 10.0603 25.7437C11.5273 25.7437 12.6451 24.6259 12.6451 23.1588C12.6451 21.6918 11.5273 20.574 10.0603 20.574ZM10.0603 28.3285C8.73292 28.3285 7.61515 29.4463 7.61515 30.7736C7.61515 32.1009 8.73292 33.2187 10.0603 33.2187C11.3876 33.2187 12.5054 32.1009 12.5054 30.7736C12.5054 29.4463 11.4575 28.3285 10.0603 28.3285ZM2.44549 20.9932C1.18801 20.9932 0.209961 21.9712 0.209961 23.2287C0.209961 24.4862 1.18801 25.4642 2.44549 25.4642C3.70298 25.4642 4.68102 24.4862 4.68102 23.2287C4.68102 21.9712 3.70298 20.9932 2.44549 20.9932Z" fill="white" fill-opacity="0.3"/>
<path d="M64.4812 18.4082C64.2018 18.4082 63.9922 18.6876 63.9922 18.8972V38.2485C63.9922 38.528 64.2716 38.7376 64.4812 38.7376H66.7866C67.066 38.7376 67.2756 38.4581 67.2756 38.2485V18.8972C67.2756 18.6178 66.9962 18.4082 66.7866 18.4082H64.4812Z" fill="white"/>
<path d="M65.7385 10.2349C64.481 10.2349 63.5029 11.2129 63.5029 12.4704C63.5029 13.7279 64.481 14.7059 65.7385 14.7059C66.9959 14.7059 67.974 13.7279 67.974 12.4704C67.974 11.2129 66.9261 10.2349 65.7385 10.2349Z" fill="white"/>
<path d="M114.082 18.4082C113.802 18.4082 113.593 18.6876 113.593 18.8972V38.2485C113.593 38.528 113.872 38.7376 114.082 38.7376H116.387C116.667 38.7376 116.876 38.4581 116.876 38.2485V18.8972C116.876 18.6178 116.597 18.4082 116.387 18.4082H114.082Z" fill="white"/>
<path d="M115.199 10.2349C113.942 10.2349 112.964 11.2129 112.964 12.4704C112.964 13.7279 113.942 14.7059 115.199 14.7059C116.457 14.7059 117.435 13.7279 117.435 12.4704C117.435 11.2129 116.457 10.2349 115.199 10.2349Z" fill="white"/>
<path d="M138.603 36.8515C138.742 36.7118 138.742 36.572 138.742 36.5022C138.742 36.3625 138.742 36.3625 138.742 36.3625C138.742 36.3625 138.742 36.2227 138.603 36.2227C138.603 36.2227 138.463 36.083 138.323 36.083C138.184 36.083 138.184 36.083 138.044 36.083H137.415V37.8295H137.694V37.2008H138.044L138.533 37.8295H138.812L138.184 37.0611C138.463 37.1309 138.603 36.9912 138.603 36.8515ZM137.764 36.9912V36.3625H138.253C138.393 36.3625 138.533 36.3625 138.603 36.5022C138.742 36.5022 138.742 36.6419 138.742 36.7816C138.742 36.9213 138.742 37.0611 138.603 37.0611C138.463 37.0611 138.323 37.2008 138.253 37.2008H137.764V36.9912Z" fill="white"/>
<path d="M138.114 35.3843C137.275 35.3843 136.507 36.1527 136.507 36.9911C136.507 37.8294 137.275 38.5979 138.114 38.5979C138.952 38.5979 139.72 37.8294 139.72 36.9911C139.72 36.0829 139.022 35.3843 138.114 35.3843ZM138.114 38.4581C137.275 38.4581 136.647 37.8294 136.647 36.9911C136.647 36.1527 137.275 35.524 138.114 35.524C138.952 35.524 139.581 36.1527 139.581 36.9911C139.581 37.8294 138.882 38.4581 138.114 38.4581Z" fill="white"/>
<path d="M83.6923 21.5522C83.9717 21.5522 84.1813 21.2727 84.1813 21.0631V18.7577C84.1813 18.4783 83.9019 18.2687 83.6923 18.2687H78.7322V10.8635C78.7322 10.5841 78.4528 10.3745 78.2432 10.3745H75.9378C75.6584 10.3745 75.4488 10.654 75.4488 10.8635V18.2687H73.0037C72.7242 18.2687 72.5146 18.5482 72.5146 18.7577V21.0631C72.5146 21.3426 72.7941 21.5522 73.0037 21.5522H75.4488V32.7298C75.4488 36.153 77.7542 38.3885 81.1075 38.3885H83.5526C83.832 38.3885 84.0416 38.109 84.0416 37.8995V35.5941C84.0416 35.3146 83.7622 35.1051 83.5526 35.1051H81.4568C79.85 35.1051 78.7322 33.9873 78.7322 32.2408V21.4823L83.6923 21.5522Z" fill="white"/>
<path d="M132.734 21.5522C133.014 21.5522 133.223 21.2727 133.223 21.0631V18.7577C133.223 18.4783 132.944 18.2687 132.734 18.2687H127.774V10.8635C127.774 10.5841 127.495 10.3745 127.285 10.3745H124.98C124.7 10.3745 124.491 10.654 124.491 10.8635V18.2687H122.046C121.766 18.2687 121.557 18.5482 121.557 18.7577V21.0631C121.557 21.3426 121.836 21.5522 122.046 21.5522H124.491V32.7298C124.491 36.153 126.796 38.3885 130.149 38.3885H132.595C132.874 38.3885 133.084 38.109 133.084 37.8995V35.5941C133.084 35.3146 132.804 35.1051 132.595 35.1051H130.359C128.752 35.1051 127.634 33.9873 127.634 32.2408V21.4823L132.734 21.5522Z" fill="white"/>
<path d="M49.8101 21.5521V38.0391C49.8101 38.3185 50.0895 38.5281 50.2991 38.5281H52.6045C52.884 38.5281 53.0935 38.2487 53.0935 38.0391V21.5521H58.5426C58.8221 21.5521 59.0317 21.2726 59.0317 21.063V18.7577C59.0317 18.4782 58.7522 18.2686 58.5426 18.2686H53.0935V13.9373C53.0935 12.1908 54.351 11.0032 55.8181 11.0032H58.5426C58.8221 11.0032 59.0317 10.7237 59.0317 10.5141V8.20875C59.0317 7.92931 58.7522 7.71973 58.5426 7.71973H55.9578C52.5347 7.71973 49.8101 10.584 49.8101 13.8674V18.2686H47.365C47.0856 18.2686 46.876 18.5481 46.876 18.7577V21.063C46.876 21.3425 47.1554 21.5521 47.365 21.5521H49.8101Z" fill="white"/>
<path d="M106.257 20.7138C104.441 18.7577 101.856 17.64 99.1312 17.64C96.5463 17.64 93.9615 18.7577 92.3547 20.3645V8.0691C92.3547 7.78966 92.0753 7.58008 91.8657 7.58008H89.5603C89.2809 7.58008 89.0713 7.85952 89.0713 8.0691V28.3984C89.0713 35.9433 94.1012 39.2268 99.0613 39.2268C103.952 39.2268 109.051 35.8735 109.051 28.3984C109.051 25.3944 108.073 22.6699 106.257 20.7138ZM99.0613 36.0831C94.1012 36.0831 92.2849 32.1709 92.2849 28.4683C92.2849 23.9274 95.0094 20.9234 99.0613 20.9234C103.113 20.9234 105.838 23.9972 105.838 28.4683C105.768 32.1709 104.021 36.0831 99.0613 36.0831Z" fill="white"/>
</svg>
