<svg width="140" height="47" viewBox="0 0 140 47" fill="none" xmlns="http://www.w3.org/2000/svg">
<path d="M20.3991 8.15082C20.3991 9.61789 19.1416 10.8754 17.6745 10.8754C16.2075 10.8754 14.95 9.61789 14.95 8.15082C14.95 6.68375 16.2075 5.42627 17.6745 5.42627C19.1416 5.42627 20.3991 6.68375 20.3991 8.15082ZM17.6745 13.1109C16.0678 13.1109 14.8103 14.3684 14.8103 15.9752C14.8103 17.582 16.0678 18.8394 17.6745 18.8394C19.2813 18.8394 20.5388 17.582 20.5388 15.9752C20.5388 14.2985 19.2813 13.1109 17.6745 13.1109ZM17.6745 20.7257C16.0678 20.7257 14.7404 22.053 14.7404 23.6598C14.7404 25.2666 16.0678 26.5939 17.6745 26.5939C19.2813 26.5939 20.6087 25.2666 20.6087 23.6598C20.6785 22.053 19.2813 20.7257 17.6745 20.7257ZM17.6745 28.4802C16.0678 28.4802 14.8103 29.7376 14.8103 31.3444C14.8103 32.9512 16.0678 34.2087 17.6745 34.2087C19.2813 34.2087 20.5388 32.9512 20.5388 31.3444C20.5388 29.8075 19.2813 28.4802 17.6745 28.4802ZM17.6745 36.3744C16.2075 36.3744 14.95 37.6319 14.95 39.0989C14.95 40.566 16.2075 41.8235 17.6745 41.8235C19.1416 41.8235 20.3991 40.566 20.3991 39.0989C20.3991 37.6319 19.2115 36.3744 17.6745 36.3744ZM25.2195 12.7616C23.4729 12.7616 22.0059 14.2287 22.0059 15.9752C22.0059 17.7217 23.4729 19.1887 25.2195 19.1887C26.966 19.1887 28.433 17.7217 28.433 15.9752C28.433 14.2287 26.966 12.7616 25.2195 12.7616ZM25.2195 20.3764C23.4031 20.3764 21.8662 21.8434 21.8662 23.7297C21.8662 25.546 23.3332 27.083 25.2195 27.083C27.0358 27.083 28.5728 25.6159 28.5728 23.7297C28.5728 21.8434 27.0358 20.3764 25.2195 20.3764ZM25.2195 28.1309C23.4729 28.1309 22.0059 29.5979 22.0059 31.3444C22.0059 33.0909 23.4729 34.558 25.2195 34.558C26.966 34.558 28.433 33.0909 28.433 31.3444C28.433 29.5979 26.966 28.1309 25.2195 28.1309ZM32.9739 19.9572C31.0179 19.9572 29.2714 21.564 29.2714 23.6598C29.2714 25.6159 30.8781 27.3624 32.9739 27.3624C35.0698 27.3624 36.6765 25.7556 36.6765 23.6598C36.5368 21.564 34.93 19.9572 32.9739 19.9572ZM10.0598 13.4602C8.73243 13.4602 7.61466 14.578 7.61466 15.9053C7.61466 17.2327 8.73243 18.3504 10.0598 18.3504C11.3871 18.3504 12.5049 17.2327 12.5049 15.9053C12.5049 14.578 11.457 13.4602 10.0598 13.4602ZM10.0598 21.075C8.59271 21.075 7.47494 22.1927 7.47494 23.6598C7.47494 25.1269 8.59271 26.2446 10.0598 26.2446C11.5268 26.2446 12.6446 25.1269 12.6446 23.6598C12.6446 22.1927 11.5268 21.075 10.0598 21.075ZM10.0598 28.8295C8.73243 28.8295 7.61466 29.9472 7.61466 31.2746C7.61466 32.6019 8.73243 33.7197 10.0598 33.7197C11.3871 33.7197 12.5049 32.6019 12.5049 31.2746C12.5049 29.9472 11.457 28.8295 10.0598 28.8295ZM2.445 21.4941C1.18752 21.4941 0.209473 22.4722 0.209473 23.7297C0.209473 24.9871 1.18752 25.9652 2.445 25.9652C3.70249 25.9652 4.68053 24.9871 4.68053 23.7297C4.68053 22.4722 3.70249 21.4941 2.445 21.4941Z" fill="#21325B"/>
<path d="M64.4812 18.9092C64.2018 18.9092 63.9922 19.1886 63.9922 19.3982V38.7495C63.9922 39.0289 64.2716 39.2385 64.4812 39.2385H66.7866C67.066 39.2385 67.2756 38.9591 67.2756 38.7495V19.3982C67.2756 19.1188 66.9962 18.9092 66.7866 18.9092H64.4812Z" fill="#21325B"/>
<path d="M65.7389 10.7358C64.4815 10.7358 63.5034 11.7139 63.5034 12.9714C63.5034 14.2289 64.4815 15.2069 65.7389 15.2069C66.9964 15.2069 67.9745 14.2289 67.9745 12.9714C67.9745 11.7139 66.9266 10.7358 65.7389 10.7358Z" fill="#21325B"/>
<path d="M114.082 18.9092C113.803 18.9092 113.593 19.1886 113.593 19.3982V38.7495C113.593 39.0289 113.873 39.2385 114.082 39.2385H116.388C116.667 39.2385 116.877 38.9591 116.877 38.7495V19.3982C116.877 19.1188 116.597 18.9092 116.388 18.9092H114.082Z" fill="#21325B"/>
<path d="M115.2 10.7358C113.942 10.7358 112.964 11.7139 112.964 12.9714C112.964 14.2289 113.942 15.2069 115.2 15.2069C116.457 15.2069 117.435 14.2289 117.435 12.9714C117.435 11.7139 116.457 10.7358 115.2 10.7358Z" fill="#21325B"/>
<path d="M138.603 37.3525C138.743 37.2127 138.743 37.073 138.743 37.0031C138.743 36.8634 138.743 36.8634 138.743 36.8634C138.743 36.8634 138.743 36.7237 138.603 36.7237C138.603 36.7237 138.463 36.584 138.324 36.584C138.184 36.584 138.184 36.584 138.044 36.584H137.416V38.3305H137.695V37.7018H138.044L138.533 38.3305H138.813L138.184 37.562C138.463 37.6319 138.603 37.4922 138.603 37.3525ZM137.765 37.4922V36.8634H138.254C138.394 36.8634 138.533 36.8634 138.603 37.0031C138.743 37.0031 138.743 37.1429 138.743 37.2826C138.743 37.4223 138.743 37.562 138.603 37.562C138.463 37.562 138.324 37.7018 138.254 37.7018H137.765V37.4922Z" fill="#21325B"/>
<path d="M138.114 35.8853C137.276 35.8853 136.507 36.6537 136.507 37.492C136.507 38.3304 137.276 39.0988 138.114 39.0988C138.952 39.0988 139.721 38.3304 139.721 37.492C139.721 36.5839 139.022 35.8853 138.114 35.8853ZM138.114 38.9591C137.276 38.9591 136.647 38.3304 136.647 37.492C136.647 36.6537 137.276 36.025 138.114 36.025C138.952 36.025 139.581 36.6537 139.581 37.492C139.581 38.3304 138.883 38.9591 138.114 38.9591Z" fill="#21325B"/>
<path d="M83.6928 22.0531C83.9722 22.0531 84.1818 21.7737 84.1818 21.5641V19.2587C84.1818 18.9793 83.9024 18.7697 83.6928 18.7697H78.7327V11.3645C78.7327 11.0851 78.4533 10.8755 78.2437 10.8755H75.9383C75.6588 10.8755 75.4493 11.1549 75.4493 11.3645V18.7697H73.0042C72.7247 18.7697 72.5151 19.0491 72.5151 19.2587V21.5641C72.5151 21.8436 72.7946 22.0531 73.0042 22.0531H75.4493V33.2308C75.4493 36.6539 77.7547 38.8895 81.108 38.8895H83.5531C83.8325 38.8895 84.0421 38.61 84.0421 38.4004V36.0951C84.0421 35.8156 83.7626 35.606 83.5531 35.606H81.4573C79.8505 35.606 78.7327 34.4883 78.7327 32.7418V21.9833L83.6928 22.0531Z" fill="#21325B"/>
<path d="M132.735 22.0531C133.014 22.0531 133.224 21.7737 133.224 21.5641V19.2587C133.224 18.9793 132.944 18.7697 132.735 18.7697H127.775V11.3645C127.775 11.0851 127.495 10.8755 127.286 10.8755H124.98C124.701 10.8755 124.491 11.1549 124.491 11.3645V18.7697H122.046C121.767 18.7697 121.557 19.0491 121.557 19.2587V21.5641C121.557 21.8436 121.837 22.0531 122.046 22.0531H124.491V33.2308C124.491 36.6539 126.797 38.8895 130.15 38.8895H132.595C132.874 38.8895 133.084 38.61 133.084 38.4004V36.0951C133.084 35.8156 132.805 35.606 132.595 35.606H130.36C128.753 35.606 127.635 34.4883 127.635 32.7418V21.9833L132.735 22.0531Z" fill="#21325B"/>
<path d="M49.8106 22.053V38.5401C49.8106 38.8195 50.09 39.0291 50.2996 39.0291H52.605C52.8844 39.0291 53.094 38.7497 53.094 38.5401V22.053H58.5431C58.8226 22.053 59.0321 21.7736 59.0321 21.564V19.2586C59.0321 18.9792 58.7527 18.7696 58.5431 18.7696H53.094V14.4383C53.094 12.6918 54.3515 11.5041 55.8186 11.5041H58.5431C58.8226 11.5041 59.0321 11.2247 59.0321 11.0151V8.70973C59.0321 8.43028 58.7527 8.2207 58.5431 8.2207H55.9583C52.5351 8.2207 49.8106 11.085 49.8106 14.3684V18.7696H47.3655C47.086 18.7696 46.8765 19.049 46.8765 19.2586V21.564C46.8765 21.8435 47.1559 22.053 47.3655 22.053H49.8106Z" fill="#21325B"/>
<path d="M106.258 21.2148C104.442 19.2587 101.857 18.1409 99.1321 18.1409C96.5473 18.1409 93.9625 19.2587 92.3557 20.8655V8.57008C92.3557 8.29064 92.0763 8.08105 91.8667 8.08105H89.5613C89.2818 8.08105 89.0723 8.3605 89.0723 8.57008V28.8994C89.0723 36.4443 94.1022 39.7278 99.0623 39.7278C103.952 39.7278 109.052 36.3745 109.052 28.8994C109.052 25.8954 108.074 23.1709 106.258 21.2148ZM99.0623 36.584C94.1022 36.584 92.2858 32.6719 92.2858 28.9693C92.2858 24.4284 95.0104 21.4244 99.0623 21.4244C103.114 21.4244 105.839 24.4982 105.839 28.9693C105.769 32.6719 104.022 36.584 99.0623 36.584Z" fill="#21325B"/>
</svg>
