<svg width="314" height="79" viewBox="0 0 314 79" fill="none" xmlns="http://www.w3.org/2000/svg">
<path d="M191.135 22.7377C186.105 22.7377 182.154 23.8168 178.201 25.9708C178.201 14.4724 178.201 4.05303 178.562 0.460938L154.484 4.77103V6.92711L156.999 7.28611C160.23 8.00412 161.313 9.79912 162.025 14.1134C162.749 22.7377 162.386 68.7335 162.025 76.2808C168.493 77.7189 175.322 78.7979 182.152 78.7979C201.198 78.7979 212.696 66.9384 212.696 48.2517C212.696 33.5202 203.354 22.7377 191.135 22.7377V22.7377ZM182.87 74.8427C181.432 74.8427 179.633 74.8427 178.558 74.4858C178.197 69.4556 177.84 48.2517 178.197 29.567C180.353 28.8469 181.789 28.4879 183.588 28.4879C191.498 28.4879 195.81 37.8303 195.81 49.3266C195.808 63.7054 190.417 74.8427 182.87 74.8427V74.8427ZM63.9242 1.89694H0.677734V5.13003L4.2719 5.48903C8.94099 6.20704 10.7401 9.08112 11.4561 15.9084C12.5372 28.8449 12.1762 52.2049 11.4561 63.3401C10.7381 70.1695 8.94306 73.4046 4.2719 73.7595L0.677734 74.4816V77.3557H41.2843V74.4816L36.9721 73.7595C32.301 73.4025 30.5039 70.1695 29.7859 63.3401C29.4248 58.6669 29.0658 51.1196 29.0658 41.7793L37.6901 42.1383C43.0814 42.1383 45.5944 46.4505 46.6735 52.5576H49.9086V27.0519H46.6735C45.5923 33.1612 43.0814 37.4713 37.6901 37.4713L29.0679 37.8324C29.0679 25.6139 29.4269 14.1154 29.788 7.28819H42.3634C52.0689 7.28819 57.099 13.3954 60.6911 24.1779L64.2853 23.0988L63.9242 1.89694V1.89694Z" fill="#231F20"/>
<path d="M84.408 22.0201C102.377 22.0201 111.36 34.2386 111.36 50.4082C111.36 65.8597 101.298 78.8004 83.3289 78.8004C65.3622 78.8004 56.3789 66.5798 56.3789 50.4082C56.3789 34.9566 66.4392 22.0201 84.408 22.0201V22.0201ZM83.3289 25.6143C75.4226 25.6143 73.2665 36.3947 73.2665 50.4082C73.2665 64.0627 76.8607 75.2021 84.049 75.2021C92.3081 75.2021 94.4683 64.4217 94.4683 50.4082C94.4683 36.7537 90.8783 25.6143 83.3289 25.6143ZM217.365 50.7692C217.365 36.0357 226.707 22.0201 245.035 22.0201C260.124 22.0201 267.314 33.1616 267.314 47.8931H233.894C233.533 61.1886 240.001 70.892 252.939 70.892C258.69 70.892 261.564 69.458 265.16 66.9409L266.594 68.7359C263 73.7661 255.095 78.8004 245.035 78.8004C228.863 78.7983 217.365 67.2999 217.365 50.7692V50.7692ZM233.894 43.942L250.783 43.5809C250.783 36.3947 249.704 25.6143 243.597 25.6143C237.49 25.6143 234.251 35.6746 233.894 43.942V43.942ZM310.083 24.8963C305.771 23.0971 300.022 22.0201 293.554 22.0201C280.261 22.0201 271.991 29.9243 271.991 39.2688C271.991 48.6132 278.094 52.5642 286.729 55.4404C295.71 58.6714 298.227 61.1886 298.227 65.5007C298.227 69.8129 294.992 73.764 289.242 73.764C282.417 73.764 277.383 69.8129 273.431 59.0304L270.914 59.7526L271.275 75.5631C275.588 77.3582 283.492 78.7983 290.321 78.7983C304.337 78.7983 313.322 71.6079 313.322 60.4706C313.322 52.9232 309.367 48.6132 300.025 45.0169C289.96 41.0658 286.37 38.5507 286.37 33.8775C286.37 29.2063 289.609 25.9712 293.922 25.9712C300.386 25.9712 304.698 29.9243 307.937 39.6278L310.45 38.9097L310.083 24.8963V24.8963ZM158.074 23.4582C151.967 19.8682 141.184 21.6611 135.436 34.5997L135.793 22.0222L111.719 26.6933V28.8494L114.234 29.2084C117.471 29.5695 118.905 31.3645 119.266 36.0377C119.984 44.6621 119.625 59.7567 119.266 67.302C118.905 71.61 117.471 73.7661 114.234 74.1271L111.719 74.4882V77.3623H145.137V74.4882L140.825 74.1271C137.233 73.7661 136.154 71.61 135.793 67.302C135.075 60.4726 135.075 46.8182 135.436 38.1938C137.231 35.6767 145.137 33.5227 152.324 38.1938L158.074 23.4582V23.4582Z" fill="#231F20"/>
</svg>
