<svg width="400" height="340" viewBox="0 0 400 340" fill="none" xmlns="http://www.w3.org/2000/svg">
<path d="M342.447 5.32184e-06H231.392C230.242 5.32184e-06 229.132 0.42029 228.267 1.17805L203.125 19.0316C202.26 19.7891 201.15 20.2068 200 20.2068C198.85 20.2068 197.74 19.7891 196.875 19.0316L171.736 1.17805C170.872 0.41908 169.762 0.000359955 168.612 5.32184e-06H57.5564C56.2439 5.32184e-06 54.9784 0.539032 54.0816 1.49678C20.7197 37.0772 0.224215 84.8647 0.0148534 137.436C-0.413243 246.562 88.02 336.684 197.138 338.212C308.898 339.773 399.987 249.646 399.987 138.244C399.987 85.3506 379.449 37.26 345.917 1.49678C345.472 1.02333 344.934 0.646241 344.337 0.388798C343.74 0.131356 343.097 -0.000967183 342.447 5.32184e-06V5.32184e-06ZM299.345 51.4747C319.625 74.6669 331.937 105.01 331.937 138.244C331.937 213.483 268.953 274.008 192.843 269.987C124.974 266.401 70.5008 210.848 68.1478 142.926C66.9323 107.874 79.4221 75.7653 100.644 51.4825C102.272 49.6186 102.153 46.8094 100.408 45.0595L59.5703 4.09036L194.058 100.596C195.743 101.951 197.839 102.689 200.001 102.689C202.162 102.689 204.259 101.951 205.943 100.596L340.341 4.18098L299.593 45.0548C297.853 46.8047 297.722 49.6155 299.345 51.4763V51.4747Z" fill="#FF6B6B"/>
</svg>
