<svg width="400" height="400" viewBox="0 0 400 400" fill="none" xmlns="http://www.w3.org/2000/svg">
<path d="M0 200C0 144.792 19.5312 97.6562 58.5941 58.5937C97.6561 19.5312 144.792 0 200 0C255.208 0 302.343 19.5312 341.406 58.5937C380.468 97.6562 400 144.792 400 200C400 255.208 380.469 302.343 341.406 341.406C302.344 380.468 255.208 400 200 400C144.792 400 97.6561 380.469 58.5941 341.406C19.5312 302.344 0 255.208 0 200ZM21.875 200C21.875 248.958 39.3229 290.885 74.2187 325.781C109.114 360.677 151.042 378.125 200 378.125C248.958 378.125 290.886 360.677 325.781 325.781C360.677 290.886 378.125 248.958 378.125 200C378.125 151.042 360.678 109.114 325.781 74.2187C290.886 39.3229 248.958 21.875 200 21.875C151.042 21.875 109.115 39.3229 74.2187 74.2187C39.3229 109.114 21.875 151.042 21.875 200ZM78.1253 242.968C77.0837 241.927 77.0837 240.885 78.1253 239.843C80.2082 237.76 82.8128 236.979 85.9374 237.5C89.0624 238.021 90.8853 238.541 91.4062 239.062C95.052 240.625 99.0886 244.14 103.515 249.609C107.942 255.078 111.458 258.854 114.062 260.937C126.562 271.354 139.322 272.135 152.343 263.281C153.385 259.635 155.078 256.51 157.421 253.906C159.764 251.301 161.979 249.479 164.062 248.437C166.146 247.395 169.791 245.833 175 243.749C157.812 242.187 143.88 239.192 133.203 234.765C122.526 230.338 114.062 224.739 107.812 217.968C99.4787 208.593 94.4003 196.354 92.5774 181.249C90.7541 166.145 91.9262 152.343 96.0933 139.843C99.2182 132.031 103.645 125 109.374 118.749C105.207 105.729 105.989 90.8849 111.718 74.2183C128.384 75.2599 143.489 80.9891 157.03 91.4058C183.072 84.6349 210.155 84.3745 238.28 90.6245C241.926 88.0203 247.525 84.7653 255.076 80.8587C262.629 76.9524 272.134 74.7387 283.592 74.2179C285.676 79.947 287.108 86.7179 287.889 94.5304C288.671 102.343 288.28 109.635 286.718 116.405C298.696 128.905 304.946 145.572 305.467 166.405C305.467 183.072 302.603 196.874 296.874 207.811C291.145 218.749 280.988 227.864 266.405 235.155C256.509 239.843 243.489 242.707 227.343 243.749C234.635 247.394 239.973 251.171 243.359 255.077C246.744 258.983 248.958 265.103 250 273.436V298.046L250.781 321.874C252.343 324.478 254.166 326.692 256.25 328.515C258.333 330.338 260.156 331.64 261.718 332.421C263.281 333.203 263.802 334.375 263.281 335.937C262.76 337.5 260.676 338.281 257.031 338.281C248.176 338.281 241.146 335.156 235.937 328.906C234.375 326.301 233.594 323.177 233.594 319.531V282.031C233.594 277.864 232.552 274.869 230.469 273.046C228.385 271.223 226.302 270.051 224.219 269.53V318.749C224.219 327.603 225.26 333.332 227.344 335.936C229.427 338.541 230.729 341.145 231.25 343.749C231.771 344.27 231.38 344.66 230.078 344.921C228.776 345.181 226.563 344.791 223.437 343.749C216.666 342.186 211.979 338.671 209.375 333.202C206.771 327.733 205.469 321.873 205.469 315.623V267.187H195.312V315.625C195.312 321.875 194.01 327.865 191.406 333.593C187.76 340.885 180.989 344.791 171.094 345.312C169.531 344.791 168.75 344.27 168.75 343.75C169.271 343.229 170.833 340.625 173.437 335.938C173.958 334.896 174.609 332.813 175.391 329.688C176.172 326.563 176.563 322.917 176.563 318.75V269.531C174.479 270.052 172.526 271.223 170.703 273.047C168.88 274.87 167.969 277.865 167.969 282.031V319.531C167.969 323.177 167.187 326.302 165.625 328.906C160.937 335.156 153.906 338.282 144.532 338.282C140.886 338.282 138.802 337.5 138.282 335.938C137.76 334.896 137.891 333.985 138.672 333.203C139.454 332.422 140.626 331.51 142.188 330.469C143.751 329.427 144.792 328.645 145.313 328.125C147.396 326.563 148.959 324.479 150.001 321.875C151.563 319.792 151.954 314.323 151.172 305.469C150.391 296.615 150.261 290.886 150.781 288.281C137.239 292.969 123.438 290.625 109.375 281.25C105.208 277.083 101.042 271.093 96.8749 263.281C93.7499 257.552 87.4999 250.781 78.1253 242.968V242.968Z" fill="black"/>
</svg>
