<svg width="120" height="120" viewBox="0 0 120 120" fill="none" xmlns="http://www.w3.org/2000/svg">
<g clip-path="url(#clip0)">
<path d="M60 115.3L82.1 47.3H37.9L60 115.3Z" fill="#E24329"/>
<path d="M60 115.3L37.9 47.3H6.89999L60 115.3Z" fill="#FC6D26"/>
<path d="M6.9 47.3L0.199997 67.9C-0.400004 69.8 0.299996 71.8 1.9 73L60 115.3L6.9 47.3Z" fill="#FCA326"/>
<path d="M6.89999 47.3H37.9L24.6 6.29998C23.9 4.19998 20.9 4.19998 20.2 6.29998L6.89999 47.3Z" fill="#E24329"/>
<path d="M60 115.3L82.1 47.3H113.1L60 115.3Z" fill="#FC6D26"/>
<path d="M113.1 47.3L119.8 68C120.4 69.9 119.7 71.9 118.1 73.1L60 115.3L113.1 47.3Z" fill="#FCA326"/>
<path d="M113.1 47.3H82.1L95.4 6.29998C96.1 4.19998 99.1 4.19998 99.8 6.29998L113.1 47.3Z" fill="#E24329"/>
</g>
<defs>
<clipPath id="clip0">
<rect width="120" height="120" fill="white"/>
</clipPath>
</defs>
</svg>
