<svg width="400" height="400" viewBox="0 0 400 400" fill="none" xmlns="http://www.w3.org/2000/svg">
<g clip-path="url(#clip0)">
<path fill-rule="evenodd" clip-rule="evenodd" d="M318.558 109.758C334.196 109.758 346.875 97.0798 346.875 81.4418C346.875 65.8038 334.196 53.1257 318.558 53.1257C302.92 53.1257 290.242 65.8038 290.242 81.4418C290.242 97.0798 302.92 109.758 318.558 109.758ZM117.958 101.114L204.825 14.2476C211.452 7.62108 220.654 3.57249 230.777 3.57249H359.616C364.455 3.5556 369.25 4.4962 373.723 6.34012C378.197 8.18404 382.262 10.8949 385.684 14.3164C389.105 17.738 391.816 21.8027 393.66 26.2764C395.504 30.7501 396.445 35.5445 396.428 40.3833V169.222C396.428 179.346 392.379 188.549 385.568 195.174L298.834 281.992L117.958 101.114Z" fill="#4285F4"/>
<path fill-rule="evenodd" clip-rule="evenodd" d="M298.834 281.992L191.786 389.14C184.975 395.766 175.773 400 165.651 400C155.528 400 146.324 395.766 139.698 389.14L10.8587 260.302C4.04859 253.676 0 244.473 0 234.35C0 224.043 4.23301 214.84 10.8587 208.214L117.959 101.114L298.834 281.992Z" fill="#34A853"/>
<path fill-rule="evenodd" clip-rule="evenodd" d="M73.3814 322.824L10.8588 260.301C4.04859 253.677 0 244.473 0 234.351C0 224.044 4.23301 214.841 10.8588 208.215L117.959 101.115L206.524 189.682L73.3814 322.824Z" fill="#FBBC05"/>
<path fill-rule="evenodd" clip-rule="evenodd" d="M383.716 12.4887C377.021 6.70821 368.462 3.54173 359.616 3.57249H230.777C220.654 3.57249 211.452 7.62108 204.825 14.2476L117.958 101.115L206.524 189.681L296.728 99.4772C292.527 94.407 290.232 88.0264 290.242 81.4418C290.242 65.8038 302.92 53.1257 318.558 53.1257C325.143 53.1154 331.523 55.4099 336.594 59.6112L383.716 12.4887Z" fill="#EA4335"/>
<path d="M206.473 257.238C238.238 257.238 263.99 231.487 263.99 199.721C263.99 167.955 238.238 142.204 206.473 142.204C174.707 142.204 148.956 167.955 148.956 199.721C148.956 231.487 174.707 257.238 206.473 257.238Z" fill="#4285F4"/>
<path fill-rule="evenodd" clip-rule="evenodd" d="M284.837 182.801H208.339V215.623H252.372C248.267 236.474 231.103 248.444 208.339 248.444C181.471 248.444 159.828 226.048 159.828 198.247C159.828 170.445 181.471 148.049 208.339 148.049C219.907 148.049 230.356 152.297 238.565 159.248L262.448 134.535C247.894 121.406 229.236 113.297 208.339 113.297C162.813 113.297 126.244 151.139 126.244 198.247C126.244 245.354 162.813 283.196 208.339 283.196C249.387 283.196 286.703 252.305 286.703 198.247C286.703 193.227 285.956 187.821 284.837 182.801V182.801Z" fill="white"/>
</g>
<defs>
<clipPath id="clip0">
<rect width="400" height="400" fill="white"/>
</clipPath>
</defs>
</svg>
