<svg width="400" height="131" viewBox="0 0 400 131" fill="none" xmlns="http://www.w3.org/2000/svg">
<g clip-path="url(#clip0)">
<path d="M49.2618 0.0115356H52.8188C65.1678 0.279992 77.3154 5.24643 86.0403 14.0384C82.8188 17.327 79.5302 20.4813 76.3758 23.7699C71.4765 19.3404 65.5705 15.9176 59.1275 14.7095C49.5973 12.6961 39.3289 14.5082 31.3423 19.9444C22.6175 25.6491 16.7114 35.3135 15.4362 45.6491C14.0268 55.8505 16.9128 66.5887 23.557 74.5082C29.9329 82.2263 39.6644 87.0585 49.7315 87.3941C59.1275 87.931 68.9262 85.0451 75.7718 78.4679C81.1409 73.837 83.6242 66.7901 84.4295 59.9444C73.2886 59.9444 62.1477 60.0115 51.0067 59.9444V46.1189H97.9195C100.336 60.9511 96.8456 77.6625 85.5705 88.2666C78.0537 95.7833 67.651 100.213 57.047 101.085C46.7785 102.092 36.1745 100.146 27.047 95.1793C16.1074 89.3404 7.38255 79.4746 3.08725 67.8639C-0.939598 57.1927 -1.00671 45.1122 2.75168 34.374C6.1745 24.5753 12.7517 15.9176 21.2081 9.87731C29.3289 3.90415 39.1946 0.615562 49.2618 0.0115356Z" fill="#3780FF"/>
<path d="M318.389 3.50147H332.752V99.3404C327.987 99.3404 323.154 99.4075 318.389 99.2733C318.456 67.3941 318.389 35.4478 318.389 3.50147V3.50147Z" fill="#38B137"/>
<path d="M129.866 36.723C138.725 35.0451 148.322 36.9243 155.638 42.2263C162.282 46.9243 166.913 54.3068 168.322 62.3605C170.134 71.6894 167.852 81.8907 161.812 89.2733C155.302 97.5283 144.631 101.958 134.228 101.287C124.698 100.75 115.436 95.9847 109.799 88.1994C103.423 79.6088 101.879 67.7968 105.369 57.7297C108.859 46.9243 118.725 38.6693 129.866 36.723V36.723ZM131.879 49.4746C128.255 50.4142 124.899 52.4948 122.483 55.4478C115.973 63.233 116.376 75.9176 123.557 83.1659C127.651 87.327 133.826 89.2733 139.53 88.1323C144.832 87.1927 149.463 83.6357 152.013 78.9377C156.443 70.9511 155.168 59.9444 148.389 53.7028C144.027 49.676 137.651 47.9981 131.879 49.4746Z" fill="#FA3913"/>
<path d="M201.007 36.7229C211.141 34.7766 222.215 37.5954 229.799 44.7095C242.148 55.7833 243.49 76.5216 232.953 89.2733C226.577 97.3269 216.242 101.756 206.04 101.287C196.309 101.018 186.711 96.186 180.94 88.1994C174.43 79.4075 173.02 67.327 176.711 57.0585C180.403 46.5887 190.067 38.6021 201.007 36.7229V36.7229ZM203.02 49.4746C199.396 50.4142 196.04 52.4948 193.624 55.3807C187.181 63.0317 187.45 75.5149 194.362 82.8303C198.456 87.1927 204.832 89.3404 210.738 88.1323C215.973 87.1256 220.671 83.6357 223.221 78.9377C227.584 70.884 226.309 59.8773 219.463 53.6357C215.101 49.6088 208.725 47.9981 203.02 49.4746Z" fill="#FCBD06"/>
<path d="M261.342 40.6156C269.06 35.7834 279.329 34.4411 287.651 38.6021C290.268 39.7431 292.416 41.6894 294.497 43.6357C294.564 41.8236 294.497 39.9444 294.564 38.0652C299.06 38.1323 303.557 38.0652 308.121 38.1323V97.327C308.054 106.253 305.772 115.716 299.329 122.226C292.282 129.407 281.477 131.622 271.745 130.146C261.342 128.602 252.282 121.018 248.255 111.421C252.282 109.475 256.51 107.931 260.671 106.119C263.02 111.622 267.785 116.32 273.758 117.394C279.732 118.468 286.644 116.991 290.537 112.025C294.698 106.924 294.698 99.9444 294.497 93.7028C291.409 96.7229 287.852 99.4075 283.557 100.414C274.228 103.032 263.96 99.8102 256.779 93.5015C249.53 87.1927 245.235 77.4612 245.638 67.7968C245.839 56.8572 252.013 46.3203 261.342 40.6156V40.6156ZM275.235 49.2062C271.141 49.8773 267.315 52.1592 264.698 55.3136C258.389 62.8303 258.389 74.8438 264.765 82.2263C268.389 86.5887 274.228 89.0048 279.866 88.4008C285.168 87.8639 290.067 84.5082 292.685 79.8773C297.114 72.025 296.376 61.3538 290.403 54.5082C286.711 50.28 280.805 48.1995 275.235 49.2062V49.2062Z" fill="#3780FF"/>
<path d="M350 44.0384C358.054 36.5216 370.47 33.9713 380.806 37.931C390.604 41.6223 396.846 50.9511 400 60.5485C385.436 66.5887 370.94 72.5619 356.376 78.6021C358.389 82.4276 361.477 85.9176 365.638 87.327C371.477 89.4075 378.457 88.6693 383.356 84.7766C385.302 83.3001 386.846 81.3538 388.322 79.4746C392.014 81.9579 395.705 84.374 399.396 86.8572C394.161 94.7095 385.369 100.213 375.906 101.085C365.436 102.361 354.295 98.3337 347.517 90.1458C336.376 77.2599 337.45 55.6491 350 44.0384V44.0384ZM357.181 56.4545C354.899 59.7431 353.96 63.7699 354.027 67.7297C363.759 63.7028 373.49 59.676 383.222 55.582C381.611 51.8236 377.718 49.5418 373.759 48.9377C367.383 47.7968 360.738 51.2196 357.181 56.4545V56.4545Z" fill="#FA3913"/>
</g>
<defs>
<clipPath id="clip0">
<rect width="400" height="130.56" fill="white"/>
</clipPath>
</defs>
</svg>
