<svg width="400" height="367" viewBox="0 0 400 367" fill="none" xmlns="http://www.w3.org/2000/svg">
<g clip-path="url(#clip0)">
<path d="M8.25439 266.729L141.259 36.3423L256.509 102.885L123.521 333.272L8.25439 266.729Z" fill="#FBBC04"/>
<path d="M390.627 265.926L257.541 35.4579C240.361 2.96438 200.104 -9.45 167.611 7.73032C135.117 24.9106 122.719 65.1673 139.883 97.6608C140.636 99.0857 141.439 100.478 142.29 101.854L275.376 332.322C293.327 364.39 333.878 375.838 365.946 357.888C398.013 339.938 409.461 299.386 391.511 267.319C391.217 266.794 390.922 266.287 390.627 265.779V265.926Z" fill="#4285F4"/>
<path d="M66.543 366.028C103.294 366.028 133.086 336.235 133.086 299.485C133.086 262.734 103.294 232.942 66.543 232.942C29.7923 232.942 0 262.734 0 299.485C0 336.235 29.7923 366.028 66.543 366.028Z" fill="#34A853"/>
</g>
<defs>
<clipPath id="clip0">
<rect width="400" height="366.361" fill="white"/>
</clipPath>
</defs>
</svg>
