<svg width="400" height="388" viewBox="0 0 400 388" fill="none" xmlns="http://www.w3.org/2000/svg">
<g clip-path="url(#clip0)">
<path d="M200.5 9.5C133 9.5 66.25 6.25 2.66212e-05 0C-3.74997 78 68.75 151.75 160 169.75L175 171.75C179.25 143 200 34.75 207.5 9.25C205.25 9.5 203 9.5 200.5 9.5Z" fill="#A49DFF"/>
<path d="M207.75 9.5C207.75 9.5 315.5 87.5 356.75 192C375.75 129.5 389.75 64.5 400.25 0C335.25 6.25 271.5 9.5 207.75 9.5Z" fill="#28289A"/>
<path d="M175 172L172.75 187C172.75 187 153.25 343 290 387.5C315.5 323.75 337.75 258.5 356.75 191.75C274.75 185.75 175 172 175 172Z" fill="#5ADCEE"/>
<path d="M207.75 9.50012C200.25 35.0001 179.5 142.75 175.25 172C175.25 172 275 185.75 356.75 191.75C315 87.5001 207.75 9.50012 207.75 9.50012Z" fill="#7878FF"/>
</g>
<defs>
<clipPath id="clip0">
<rect width="400" height="387.5" fill="white"/>
</clipPath>
</defs>
</svg>
