<svg width="227" height="88" viewBox="0 0 227 88" fill="none" xmlns="http://www.w3.org/2000/svg">
<path d="M78.6 45.8C78.5 46 78.3 46.4 78 47.2C77.7 48 77.4 49 77 50.2C76.6 51.4 76.2 52.7 75.8 54.2C75.4 55.7 74.9 57.2 74.4 58.7C73.9 60.2 73.5 61.8 73.1 63.2C72.7 64.7 72.3 66 71.9 67.2C71.6 68.4 71.3 69.4 71 70.2C70.8 71 70.6 71.5 70.6 71.6C70.5 72.1 70.3 72.6 70 73.2C69.7 73.8 69.4 74.3 69 74.9C68.6 75.4 68.2 75.9 67.7 76.2C67.2 76.5 66.8 76.7 66.3 76.7C65.5 76.7 64.9 76.4 64.5 75.9C64.1 75.4 63.9 74.4 63.9 72.9V72.3C63.9 72.1 63.9 71.9 63.9 71.6C63.9 71.1 64.1 70.2 64.5 68.9C64.9 67.6 65.3 66.1 65.8 64.4C66.3 62.7 66.8 61 67.4 59.2C68 57.4 68.5 55.8 68.9 54.4C67.6 55.9 66.1 57.4 64.5 58.9C62.9 60.4 61.3 61.7 59.7 62.9C58.1 64.1 56.4 65.1 54.7 65.8C53 66.5 51.4 66.9 49.9 66.9C48.1 66.9 46.6 66.5 45.3 65.7C44 64.9 43 63.9 42.1 62.6C41.2 61.3 40.6 59.9 40.2 58.3C40.2 57 40 55.4 40 53.8V53.2C40 53 40 52.8 40 52.7C40.2 49.8 40.6 46.9 41.2 43.8C41.9 40.8 42.7 37.8 43.8 34.8C44.9 31.8 46.1 28.9 47.6 26C49 23.1 50.6 20.4 52.3 17.9C54 15.4 55.8 13 57.7 10.9C59.6 8.8 61.5 6.9 63.5 5.4C65.5 3.9 67.5 2.7 69.5 1.8C71.5 0.9 73.6 0.5 75.5 0.5C77.8 0.5 80 1.1 82.2 2.4C84.3 3.7 86.4 5.7 88.2 8.5C88.6 9.1 88.9 9.8 89 10.4C89.1 11 89.2 11.7 89.2 12.2C89.2 13.5 88.9 14.6 88.2 15.4C87.6 16.2 86.8 16.6 85.9 16.6C85.1 16.6 84.3 16.2 83.6 15.3C82.9 14.4 82.1 13.2 81.3 11.6C80.5 10.2 79.6 9.1 78.6 8.5C77.6 7.9 76.6 7.5 75.4 7.5C73.6 7.5 71.7 8.2 69.7 9.7C67.7 11.2 65.7 13.1 63.7 15.5C61.7 17.9 59.8 20.7 58 23.8C56.2 26.9 54.6 30.1 53.2 33.3C51.8 36.5 50.7 39.8 49.9 42.9C49.1 46.1 48.7 48.9 48.7 51.4C48.7 52.2 48.8 53.1 48.9 54C49 54.9 49.2 55.7 49.5 56.4C49.8 57.1 50.2 57.7 50.8 58.2C51.3 58.7 52 58.9 52.9 58.9C53.8 58.9 54.9 58.6 56.1 58C57.3 57.4 58.5 56.5 59.8 55.5C61.1 54.5 62.4 53.3 63.7 52C65 50.7 66.2 49.4 67.3 48.1C68.4 46.8 69.4 45.5 70.3 44.3C71.2 43.1 71.8 42 72.2 41.1L75.7 30.5C76.1 29.4 76.7 28.6 77.4 28.1C78.1 27.6 78.8 27.4 79.5 27.4C79.9 27.4 80.2 27.5 80.6 27.6C81 27.7 81.3 27.9 81.5 28.2C81.8 28.5 82 28.8 82.2 29.2C82.4 29.6 82.4 30.1 82.4 30.6C82.4 32 82.3 33.4 82 34.6C81.7 35.9 81.4 37.1 81 38.3C80.6 39.5 80.2 40.7 79.7 41.9C79.5 43.2 79.1 44.4 78.6 45.8ZM126.5 54.6C125.4 56.1 124.1 57.6 122.6 59C121.1 60.4 119.6 61.7 118 62.8C116.4 63.9 114.9 64.8 113.4 65.5C111.9 66.2 110.5 66.5 109.3 66.5C108.1 66.5 107.1 66.1 106.3 65.3C105.5 64.5 105.2 63.1 105.2 61.2C105.2 59.8 105.4 58.2 105.8 56.4C105.1 57.6 104.3 58.8 103.3 59.9C102.3 61.1 101.2 62.2 99.9 63.2C98.6 64.2 97.2 65 95.7 65.6C94.1 66.2 92.4 66.5 90.6 66.5C89.8 66.5 89 66.4 88.2 66.2C87.4 66 86.8 65.6 86.2 65.1C85.6 64.6 85.2 63.9 84.8 63.1C84.4 62.2 84.3 61.2 84.3 59.9C84.3 59.9 84.4 59.4 84.5 58.5C84.6 57.6 84.9 56.2 85.5 54.3C86 52.4 86.9 49.9 88 46.9C89.1 43.9 90.7 40.2 92.8 35.9C93.3 34.8 93.9 33.9 94.6 33.5C95.3 33 96 32.8 96.9 32.8C97.3 32.8 97.6 32.9 98 33C98.4 33.1 98.7 33.3 99.1 33.5C99.4 33.7 99.7 34 99.9 34.4C100.1 34.7 100.2 35.1 100.2 35.6C100.2 35.9 100.2 36.2 100.1 36.5C100 37 99.7 37.7 99.3 38.5C98.7 39 98.2 40 97.6 41C97 42.1 96.5 43.2 95.8 44.4C95.2 45.6 94.6 46.9 94.1 48.2C93.6 49.5 93.1 50.9 92.7 52.2C92.3 53.6 92.1 54.9 92.1 56.2C92.1 56.7 92.2 57.2 92.5 57.7C92.8 58.1 93.2 58.4 93.8 58.4C95.4 58.4 97 57.9 98.5 56.8C100 55.7 101.4 54.4 102.6 52.8C103.9 51.2 105 49.5 106 47.6C107 45.8 107.9 44.1 108.6 42.5C109.1 41.5 109.5 40.4 109.9 39.2C110.3 38 110.7 37 111.1 36C111.5 35 112 34.2 112.6 33.5C113.2 32.8 113.9 32.5 114.7 32.5C115.6 32.5 116.3 32.8 116.9 33.5C117.5 34.2 117.7 35 117.7 36C117.7 36.5 117.5 37.3 117.2 38.2C116.9 39.1 116.4 40.2 115.9 41.4C115.4 42.6 114.8 43.9 114.2 45.3C113.6 46.7 113 48.1 112.5 49.5C112 50.9 111.6 52.3 111.2 53.7C110.9 55.1 110.7 56.3 110.7 57.5C110.7 58.6 111.3 59.1 112.4 59.1C113.2 59.1 114.2 58.8 115.3 58.3C116.5 57.8 117.7 57 119 56C120.3 55 121.6 53.9 122.8 52.6C124.1 51.3 125.2 49.9 126.2 48.3L126.5 54.6Z" fill="#BDC5D1"/>
<path d="M127.6 52.3C127.3 53 127 53.8 126.8 54.7C126.5 55.6 126.4 56.4 126.4 57.1C126.4 57.5 126.5 57.9 126.6 58.2C126.7 58.5 127 58.6 127.5 58.6C128 58.6 128.7 58.4 129.5 58C130.3 57.6 131.2 57.1 132.1 56.5C133 55.9 134 55.2 135 54.4C136 53.6 137 52.8 138 51.9C139 51 139.9 50.2 140.8 49.3C141.7 48.4 142.5 47.7 143.2 46.9C143.4 46.7 143.6 46.5 143.9 46.5C144.2 46.4 144.4 46.4 144.6 46.4C145.1 46.4 145.5 46.6 145.9 47C146.2 47.4 146.4 48 146.4 48.7C146.4 49.3 146.2 50 145.9 50.8C145.5 51.6 144.9 52.3 144 53.1C142.4 54.9 140.8 56.5 139.1 58.1C137.5 59.7 135.8 61.1 134.2 62.3C132.6 63.5 131 64.5 129.3 65.2C127.7 65.9 126.1 66.3 124.6 66.3C123.6 66.3 122.7 66.1 122 65.8C121.3 65.5 120.7 65 120.3 64.5C119.9 63.9 119.6 63.3 119.4 62.5C119.2 61.7 119.1 60.9 119.1 60C119.1 58.5 119.3 57 119.7 55.5C120.1 54 120.5 52.5 121 51.3C121.9 49 122.8 46.6 123.7 44.3C124.6 42 125.4 39.9 126.2 38L137.7 8.99999C138.2 7.79999 138.8 6.99999 139.5 6.49999C140.3 5.99999 141 5.79999 141.8 5.79999C142.6 5.79999 143.3 6.09999 143.9 6.59999C144.5 7.09999 144.9 7.89999 144.9 9.09999C144.9 9.59999 144.8 10.2 144.6 10.8C144.4 11.4 144.1 12 143.8 12.7C143.2 14.1 142.4 15.8 141.5 17.9C140.6 19.9 139.7 22.2 138.7 24.5C137.7 26.8 136.7 29.4 135.6 32C134.6 34.6 133.5 37.1 132.5 39.6C131.5 42.1 130.6 44.4 129.7 46.6C129 48.8 128.3 50.7 127.6 52.3Z" fill="#BDC5D1"/>
<path d="M181.4 44.2C181.8 44 182.1 43.8 182.4 43.6C182.7 43.4 183 43.4 183.3 43.4C183.9 43.4 184.3 43.6 184.6 44.1C184.9 44.6 185 45.2 185 45.9C185 46.7 184.8 47.5 184.5 48.3C184.2 49.1 183.6 49.8 183 50.3C180.3 52.7 177.9 54.9 175.8 56.9C173.7 58.9 171.7 60.6 169.8 62C167.9 63.4 166.1 64.5 164.3 65.3C162.5 66.1 160.6 66.5 158.5 66.5C156.6 66.5 155.1 66.1 154 65.2C153 64.4 152.4 63.2 152.4 61.7V61.4C152.4 61.3 152.4 61.2 152.4 61C152.5 60.1 152.9 59.1 153.6 57.9C154.3 56.7 155.1 55.5 156.1 54.3C157.1 53.1 158.1 51.8 159.2 50.5C160.3 49.2 161.3 48 162.2 46.8C163.1 45.6 163.9 44.6 164.5 43.6C165.1 42.6 165.4 41.9 165.4 41.3C165.4 40.9 165.3 40.7 165 40.4C164.7 40.2 164.3 40.1 163.7 40.1C162.7 40.1 161.6 40.4 160.6 40.9C159.6 41.4 158.5 42.1 157.4 43C156.4 43.9 155.3 44.9 154.3 46C153.3 47.1 152.4 48.3 151.5 49.5C150.6 50.7 149.8 52 149.1 53.2C148.4 54.4 147.8 55.6 147.3 56.6C147.1 56.9 146.9 57.4 146.7 58C146.4 58.6 146.1 59.3 145.8 60C145.5 60.7 145.1 61.5 144.8 62.3C144.4 63.1 144.1 63.8 143.8 64.5C143.5 65.2 143.2 65.8 143 66.4C142.8 67 142.6 67.3 142.5 67.5C142.4 67.8 142.2 68.3 141.9 69C141.6 69.7 141.3 70.6 140.9 71.6C140.5 72.6 140.1 73.7 139.7 74.8C139.3 75.9 138.9 77 138.5 77.9C138.1 78.9 137.8 79.8 137.5 80.5C137.2 81.2 137 81.8 137 82C136.7 82.8 136.4 83.5 136.1 84.2C135.8 84.9 135.4 85.5 134.9 86C134.5 86.5 134 86.9 133.4 87.3C132.8 87.6 132.2 87.8 131.5 87.8C130.6 87.8 129.8 87.6 129.2 87.2C128.6 86.8 128.3 85.9 128.3 84.7C128.3 84.1 128.4 83.5 128.5 82.9C128.7 82.3 128.8 81.6 129.1 81C129.3 80.4 129.6 79.8 129.8 79.2C130 78.6 130.3 78.1 130.5 77.5C131.9 74.5 133.3 71.5 134.7 68.5C136.1 65.5 137.5 62.5 138.8 59.6C140.1 56.7 141.3 53.8 142.4 50.9C143.5 48.1 144.4 45.3 145.2 42.7C145.4 42.2 145.7 41.4 146 40.4C146.4 39.4 146.8 38.4 147.2 37.5C147.7 36.5 148.2 35.7 148.7 35C149.3 34.3 149.9 33.9 150.5 33.9C151.5 33.9 152.2 34.1 152.7 34.6C153.2 35.1 153.4 35.7 153.4 36.6C153.4 36.8 153.4 37.1 153.3 37.5C153.2 37.9 153 38.6 153 39C152.9 39.4 152.8 39.8 152.8 40.2C152.7 40.6 152.6 40.9 152.6 41.1C153.5 40.1 154.5 39.1 155.6 38.1C156.7 37.1 157.8 36.2 159 35.4C160.2 34.6 161.3 33.9 162.6 33.4C163.8 32.9 165 32.6 166.2 32.6C167 32.6 167.9 32.7 168.7 33C169.5 33.2 170.3 33.6 170.9 34.1C171.5 34.6 172.1 35.1 172.5 35.9C172.9 36.6 173.1 37.4 173.1 38.3C173.1 39.5 172.8 40.8 172.2 42.2C171.6 43.6 170.8 45 169.9 46.4C169 47.8 168 49.2 166.9 50.5C165.8 51.8 164.8 53 163.8 54.1C162.9 55.2 162.1 56.1 161.4 56.9C160.8 57.7 160.4 58.2 160.4 58.4C160.4 58.8 160.5 59 160.7 59.3C160.9 59.5 161.3 59.6 161.8 59.6C162.2 59.6 162.9 59.4 163.7 58.9C164.5 58.4 165.7 57.6 167.2 56.4C168.7 55.2 170.6 53.6 172.9 51.6C175.1 49.7 178 47.2 181.4 44.2Z" fill="#BDC5D1"/>
</svg>
