<svg width="201" height="67" viewBox="0 0 201 67" fill="none" xmlns="http://www.w3.org/2000/svg">
<g clip-path="url(#clip0)">
<path d="M126.8 1.1C124.6 0.399998 121.7 0.299998 119.4 0.0999978C116.8 -0.100002 115.3 0.299998 113.2 0.399998C110.6 0.499998 101.1 10 94.2 17.8C94.2 17.8 89.2 13.9 85.5 11.7C81.8 9.5 80.9 9.2 78.5 10.8C76.1 12.4 62.3 18.6 63.7 18.9C65.1 19.2 71.2 19.8 73.6 19.4C76 19.1 79.9 16.8 79.9 16.8L86.2 20.7C85.7 21 85.2 21.2 84.7 21.5C84.4 21.7 84.1 21.8 83.8 22C83.2 22.4 82.8 23.2 82.4 23.7C82.3 23.8 81.7 24.1 81.6 24.2C80.9 24.7 80.2 25.3 80.1 25.6C80 26.3 80.4 26.7 81.1 26.4C82.6 26 84.2 25.6 84.2 25.6L87.5 26.6C87.5 26.6 90.9 27.6 95.7 27.2C96.6 27.1 106.5 24.8 106.5 24.8C106.5 24.8 112.4 26.5 113.1 26.8C113.8 27.1 117 26.5 118.3 25.8C119.6 25 122.5 21.7 122.5 20.9C122.5 20.2 115.5 19.4 114.6 19.3C112.3 19.1 108.1 19.1 108.1 19.1C108.1 19.1 112 9.1 115 6C118 2.9 132.2 6.1 135.9 5C139.5 4.2 131.3 2.6 126.8 1.1ZM21.9 65.9C22.4 65.9 22.8 65.5 22.8 65V52.2C22.8 51.7 23.2 51.3 23.7 51.3H27C27.5 51.3 27.9 51.7 27.9 52.2V65C27.9 65.5 28.3 65.9 28.8 65.9H31.8C32.3 65.9 32.7 65.5 32.7 65V33.7C32.7 33.2 32.3 32.8 31.8 32.8H28.8C28.3 32.8 27.9 33.2 27.9 33.7V45.3C27.9 45.8 27.5 46.2 27 46.2H23.7C23.2 46.2 22.8 45.8 22.8 45.3V33.7C22.8 33.2 22.4 32.8 21.9 32.8H18.9C18.4 32.8 18 33.2 18 33.7V65C18 65.5 18.4 65.9 18.9 65.9H21.9ZM44.3 57.8C44.3 60.3 45 61.5 46.9 61.5C48.8 61.5 49.5 60.3 49.5 57.8V41C49.5 38.5 48.8 37.3 46.9 37.3C44.9 37.3 44.3 38.5 44.3 41V57.8ZM39.4 40.8C39.4 36.1 41.8 32.3 47 32.3C52.2 32.3 54.6 36.1 54.6 40.8V57.9C54.6 62.6 52.2 66.4 47 66.4C41.8 66.4 39.4 62.6 39.4 57.9V40.8ZM67.4 61C66.9 61 66.5 60.6 66.5 60.1V33.7C66.5 33.2 66.1 32.8 65.6 32.8H62.6C62.1 32.8 61.6 33.2 61.6 33.7V65C61.6 65.5 62 65.9 62.6 65.9H73.4C73.9 65.9 74.3 65.5 74.3 65V62C74.3 61.5 73.9 61.1 73.4 61.1H67.4V61ZM90.8 65.9C91.3 65.9 91.8 65.5 91.8 65V62C91.8 61.5 91.4 61.1 90.8 61.1H85C84.5 61.1 84.1 60.7 84.1 60.2V33.7C84.1 33.2 83.7 32.8 83.2 32.8H80.2C79.7 32.8 79.3 33.2 79.3 33.7V65C79.3 65.5 79.7 65.9 80.2 65.9H90.8ZM101.4 65.9C101.9 65.9 102.3 65.5 102.3 65V33.7C102.3 33.2 101.9 32.8 101.4 32.8H98.4C97.9 32.8 97.5 33.2 97.5 33.7V65C97.5 65.5 97.9 65.9 98.4 65.9H101.4ZM108.7 58.7C109.4 63 111.9 66.4 116 66.4C120.6 66.4 123.8 63.4 123.8 57.9C123.8 48.9 113.8 46.2 113.8 40.5C113.8 38.4 114.5 37.1 116 37C117.4 36.9 118.8 37.9 118.9 39.9C118.9 39.9 119.1 40.8 119.8 40.8L122.5 40.4C123 40.3 123.3 39.6 123.1 39.1C123.1 39.1 122.3 32.2 116.6 32.2C111.7 32.2 108.9 35.2 108.9 40.5C108.9 50 118.9 51.8 118.9 58.3C118.9 60.3 117.7 61.3 116 61.3C113.4 61.3 113.2 57.6 113.2 57.6C113.1 57.1 112.4 56.4 111.9 56.5L109.2 57C109.3 57.2 108.4 57.2 108.7 58.7ZM132.4 65C132.4 65.5 132.8 65.9 133.4 65.9H136.4C136.9 65.9 137.3 65.5 137.3 65V38.7C137.3 38.2 137.7 37.8 138.2 37.8H141.1C141.6 37.8 142 37.4 142 36.8V33.8C142 33.3 141.6 32.9 141.1 32.9H128.5C128 32.9 127.6 33.3 127.6 33.8V36.8C127.6 37.3 128 37.8 128.5 37.8H131.4C131.9 37.8 132.3 38.2 132.3 38.7L132.4 65ZM159.9 65.9C160.4 65.9 160.8 65.5 160.8 65V62C160.8 61.5 160.4 61.1 159.9 61.1H153C152.5 61.1 152.1 60.7 152.1 60.2V52.4C152.1 51.9 152.5 51.5 153 51.5H157.5C158 51.5 158.4 51.1 158.4 50.6V47.6C158.4 47.1 158 46.7 157.5 46.7H153C152.5 46.7 152.1 46.3 152.1 45.8V39.2C152.1 38.7 152.5 38.3 153 38.3H159.4C159.9 38.3 160.3 37.9 160.3 37.3V34.3C160.3 33.8 159.9 33.4 159.4 33.4H148C147.5 33.4 147.1 33.8 147.1 34.3V65.6C147.1 66.1 147.5 66.5 148 66.5H159.9V65.9ZM171.6 46.7C171.6 47.2 172 47.6 172.5 47.6C173 47.6 173.8 47.5 174.3 47.3C174.3 47.3 177.1 46.4 177.1 42.5C177.1 38.6 176.1 37.4 173.4 37.4H172.6C172.1 37.4 171.7 37.8 171.7 38.3V46.7H171.6ZM171.6 65C171.6 65.5 171.2 65.9 170.7 65.9H167.7C167.2 65.9 166.8 65.5 166.8 65V33.7C166.8 33.2 167.2 32.8 167.7 32.8H172.7C177.4 32.8 182 35.5 182 42.6C182 47.9 180.2 50.1 178.5 51L182.4 65.1C182.5 65.6 182.2 66 181.7 66H178.6C178.1 66 177.5 65.6 177.4 65.1L174.4 53.2C174.3 52.7 173.8 52.3 173.3 52.3C172.8 52.3 172.5 52.3 172.5 52.3C172 52.3 171.6 52.8 171.6 53.3V65Z" fill="#21325B"/>
</g>
<defs>
<clipPath id="clip0">
<rect width="200.4" height="66.5" fill="white"/>
</clipPath>
</defs>
</svg>
