<svg width="400" height="117" viewBox="0 0 400 117" fill="none" xmlns="http://www.w3.org/2000/svg">
<g clip-path="url(#clip0)">
<path d="M0.046875 21.6611H13.9938V52.6471H43.4086V21.6611H57.3734V97.7221H43.4086V66.0854H13.9938V97.7221H0.046875V21.6611ZM101.557 72.9479C101.557 79.315 96.3695 84.4963 90.0039 84.4963C83.6359 84.4963 78.4516 79.315 78.4516 72.9479V40.201H65.225V72.9479C65.225 86.6096 76.3414 97.7221 90.0039 97.7221C103.663 97.7221 114.779 86.6096 114.779 72.9479V40.201H101.557V72.9479ZM151.702 40.5846C145.141 40.5846 140.562 42.4885 136.139 46.8299V21.6611H122.87V68.3057C122.87 85.765 135.493 97.7221 149.675 97.7221C165.441 97.7221 179.255 85.5518 179.255 69.1541C179.255 52.9643 166.517 40.5846 151.702 40.5846V40.5846ZM152.032 85.4463C143.041 85.4463 136.165 77.9369 136.165 69.1541C136.165 60.3697 143.041 52.858 152.032 52.858C159.651 52.858 166.53 60.3697 166.53 69.1541C166.53 77.9369 159.651 85.4463 152.032 85.4463V85.4463ZM201.542 43.9275C201.542 37.2572 205.987 35.1424 210.852 35.1424C214.77 35.1424 219.953 38.1049 223.336 41.7033L232.01 31.5463C227.675 25.7275 218.895 21.7057 211.699 21.7057C197.308 21.7057 186.938 30.065 186.938 43.9275C186.938 69.6385 218.577 61.4885 218.577 75.8822C218.577 80.3213 214.24 84.24 209.27 84.24C201.437 84.24 198.896 80.4307 195.3 76.4088L185.67 86.3533C191.81 93.8666 199.426 97.6775 208.527 97.6775C222.175 97.6775 233.18 89.2127 233.18 75.9846C233.18 47.4174 201.542 56.3064 201.542 43.9275V43.9275ZM268.112 39.8393C253.932 39.8393 241.307 51.7893 241.307 69.2525V116.017H254.576V90.7291C258.999 95.0674 263.577 96.9744 270.14 96.9744C284.954 96.9744 297.694 84.5963 297.694 68.4064C297.694 52.0064 283.876 39.8393 268.112 39.8393V39.8393ZM270.47 84.7025C261.48 84.7025 254.603 77.183 254.603 68.4064C254.603 59.6221 261.48 52.1104 270.47 52.1104C278.087 52.1104 284.968 59.6221 284.968 68.4064C284.968 77.183 278.087 84.7025 270.47 84.7025V84.7025ZM395.366 85.4463C387.54 85.4463 385.318 82.0619 385.318 76.8752V53.9158H397.484V42.2783H385.318V26.9346L371.884 32.9643V79.7322C371.884 91.69 380.134 97.7221 391.451 97.7221C393.144 97.7221 395.474 97.6127 396.745 97.2994L400.026 85.2385C398.545 85.3408 396.852 85.4463 395.366 85.4463" fill="#45535E"/>
<path d="M360.373 54.5925C357.83 50.2159 354.252 46.7073 349.778 44.0659C346.435 42.1198 342.969 40.8847 339.063 40.3542V26.4479C342.969 24.7894 345.393 21.1183 345.393 16.8354C345.393 10.9979 340.712 6.26748 334.879 6.26748C329.041 6.26748 324.278 10.9979 324.278 16.8354C324.278 21.1183 326.563 24.7894 330.469 26.4479V40.3604C327.344 40.812 324.103 41.7862 321.144 43.2831C315.099 38.6925 295.279 23.6323 283.684 14.8362C283.959 13.8448 284.171 12.8229 284.171 11.7448C284.171 5.2792 278.935 0.0385742 272.467 0.0385742C265.999 0.0385742 260.766 5.2792 260.766 11.7448C260.766 18.2097 266.005 23.4519 272.473 23.4519C274.679 23.4519 276.72 22.8065 278.48 21.7456L280.927 23.6019L314.549 47.8269C312.772 49.4589 311.116 51.3151 309.792 53.398C307.109 57.644 305.469 62.3159 305.469 67.412V68.4753C305.469 72.0526 306.148 75.43 307.306 78.6026C308.326 81.373 309.816 83.8917 311.663 86.169L300.504 97.355C298.887 96.7531 297.13 96.6296 295.445 96.9992C293.76 97.3688 292.216 98.2159 290.999 99.4394C290.157 100.278 289.489 101.275 289.035 102.373C288.58 103.472 288.348 104.649 288.352 105.838C288.353 108.254 289.295 110.525 291.004 112.234C291.842 113.077 292.839 113.746 293.937 114.201C295.035 114.656 296.212 114.889 297.401 114.885C298.59 114.888 299.768 114.656 300.866 114.201C301.964 113.745 302.962 113.077 303.8 112.234C304.642 111.396 305.31 110.399 305.764 109.301C306.219 108.203 306.451 107.026 306.448 105.838C306.448 104.903 306.304 103.99 306.032 103.123L317.566 91.5878C319.147 92.68 320.855 93.5995 322.691 94.3925C326.312 95.9581 330.309 96.912 334.683 96.912H335.484C340.32 96.912 344.882 95.7761 349.17 93.4526C353.689 90.9972 357.226 87.6394 359.898 83.3526C362.584 79.0542 364.063 74.305 364.063 69.08V68.819C364.063 63.6792 362.873 58.937 360.373 54.5925V54.5925ZM346.281 78.7901C343.151 82.269 339.552 84.412 335.484 84.412H334.814C332.491 84.412 330.218 83.7698 327.993 82.6019C325.485 81.3159 323.579 79.4815 322.019 77.1589C320.406 74.8792 319.531 72.3901 319.531 69.7511V68.9495C319.531 66.355 320.029 63.8948 321.284 61.5714C322.625 59.0315 324.437 57.0565 326.846 55.4862C329.212 53.9269 331.738 53.162 334.552 53.162H334.814C337.366 53.162 339.781 53.6651 342.061 54.8315C344.384 56.0753 346.281 57.7745 347.752 60.0097C349.181 62.2456 350.031 64.6573 350.305 67.2847C350.348 67.8308 350.37 68.3901 350.37 68.9245C350.37 72.4901 349.007 75.7925 346.281 78.7901Z" fill="#F8761F"/>
</g>
<defs>
<clipPath id="clip0">
<rect width="400" height="116.48" fill="white"/>
</clipPath>
</defs>
</svg>
