<svg width="400" height="400" viewBox="0 0 400 400" fill="none" xmlns="http://www.w3.org/2000/svg">
<path d="M363.656 42.849H191.67C191.67 63.4397 199.85 83.1869 214.41 97.7467C228.97 112.306 248.717 120.486 269.307 120.486H300.989V151.075C301.017 193.914 335.737 228.635 378.576 228.663V57.7688C378.576 49.5312 371.898 42.849 363.656 42.849Z" fill="#2684FF"/>
<path d="M278.558 128.543H106.573C106.6 171.382 141.32 206.103 184.16 206.131H215.842V236.818C215.896 279.657 250.64 314.355 293.479 314.355V143.466C293.479 135.225 286.798 128.545 278.558 128.545V128.543Z" fill="url(#paint0_linear)"/>
<path d="M193.41 214.188H21.4243C21.4243 257.066 56.1849 291.825 99.0613 291.825H130.842V322.413C130.87 365.213 165.53 399.919 208.331 400V229.11C208.331 220.869 201.65 214.188 193.41 214.188Z" fill="url(#paint1_linear)"/>
<defs>
<linearGradient id="paint0_linear" x1="289.798" y1="128.842" x2="217.083" y2="204.718" gradientUnits="userSpaceOnUse">
<stop offset="0.18" stop-color="#0052CC"/>
<stop offset="1" stop-color="#2684FF"/>
</linearGradient>
<linearGradient id="paint1_linear" x1="209.574" y1="215.034" x2="125.461" y2="297.791" gradientUnits="userSpaceOnUse">
<stop offset="0.18" stop-color="#0052CC"/>
<stop offset="1" stop-color="#2684FF"/>
</linearGradient>
</defs>
</svg>
