<svg width="140" height="47" viewBox="0 0 140 47" fill="none" xmlns="http://www.w3.org/2000/svg">
<g clip-path="url(#clip0)">
<path d="M121.067 23.2288C121.067 24.2068 121.417 37.8995 116.946 42.3007C112.475 46.7717 97.8738 46.4224 97.8738 46.4224C97.8738 46.4224 83.2032 46.7717 78.802 42.3007C74.3309 37.8296 74.6802 24.137 74.6802 23.2288C74.6802 22.2508 74.3309 8.55814 78.802 4.15694C83.273 -0.314114 97.8738 0.0351874 97.8738 0.0351874C97.8738 0.0351874 112.544 -0.314114 116.946 4.15694C121.417 8.628 121.067 22.3206 121.067 23.2288Z" fill="white" fill-opacity="0.3"/>
<path d="M23.6133 29.1671V6.74191C23.6133 5.41457 22.6352 4.43652 21.3079 4.43652C19.9805 4.43652 18.9326 5.41457 18.9326 6.74191V29.2369C18.9326 31.8217 21.0284 33.9176 23.6133 33.9176C24.9406 33.9176 25.9186 32.9395 25.9186 31.6122C25.9186 30.215 24.8707 29.1671 23.6133 29.1671Z" fill="white"/>
<path d="M45.8978 12.8198C44.7801 12.8198 43.9417 13.5883 43.7322 14.7061C42.1254 13.5883 40.2391 12.8198 38.1433 12.8198C35.2791 12.8198 32.7641 14.0074 31.0176 15.9635C29.2012 17.8498 28.1533 20.5045 28.1533 23.3687C28.1533 26.233 29.2012 28.8178 31.0176 30.7739C32.834 32.6601 35.2791 33.8478 38.1433 33.8478C40.2391 33.8478 42.1254 33.1492 43.7322 32.0314C44.0116 33.0094 44.8499 33.8478 45.8978 33.8478C47.0854 33.8478 48.1334 32.8697 48.1334 31.6122V15.0554C48.1334 13.7979 47.0854 12.8198 45.8978 12.8198ZM41.9857 27.7001C41.0076 28.748 39.5405 29.3767 38.0735 29.3767C36.5366 29.3767 35.1393 28.8178 34.1613 27.7001C33.1833 26.5823 32.5545 25.1152 32.5545 23.3687C32.5545 21.6222 33.1134 20.0853 34.1613 19.0374C35.1393 17.9196 36.5366 17.2909 38.0735 17.2909C39.5405 17.2909 41.0076 17.8498 41.9857 19.0374C42.9637 20.0853 43.6623 21.6222 43.6623 23.3687C43.6623 25.1152 43.0336 26.6522 41.9857 27.7001Z" fill="white"/>
<path d="M67.9039 12.8198C66.6464 12.8198 65.7382 13.7979 65.7382 15.0554V24.9755C65.7382 27.4206 63.7821 29.237 61.4069 29.237C59.0316 29.237 57.0057 27.3508 57.0057 24.9755V15.0554C57.0057 13.7979 56.0975 12.8198 54.7702 12.8198C53.6524 12.8198 52.6045 13.7979 52.6045 15.0554V24.9755C52.6045 29.7959 56.5865 33.8478 61.4069 33.8478C62.8041 33.8478 64.2013 33.4985 65.3889 32.8697C64.6903 35.0354 62.5945 36.6422 60.1494 36.712C59.3111 36.712 58.4728 36.5025 57.7043 36.1532C56.7262 35.5943 55.2592 36.0833 54.7003 37.0613C54.2113 38.249 54.6304 39.5763 55.8181 40.0653C57.0755 40.6941 58.6125 41.1132 60.1494 41.1132C65.7382 41.1132 70.2093 36.712 70.2093 31.0534V15.0554C70.1394 13.7979 69.0915 12.8198 67.9039 12.8198Z" fill="white"/>
<path d="M114.291 17.3607C111.078 17.3607 108.143 21.1332 108.143 24.3468V31.5424C108.143 32.7999 107.095 33.8478 105.838 33.8478C104.581 33.8478 103.533 32.7999 103.533 31.5424V15.1252C103.533 13.8677 104.581 12.8198 105.838 12.8198C107.095 12.8198 108.143 13.8677 108.143 15.1252V15.2649C109.541 13.728 111.567 12.8198 113.732 12.8198H114.221C115.479 12.8198 116.527 13.8677 116.527 15.1252C116.596 16.3827 115.549 17.3607 114.291 17.3607ZM96.8959 12.8198C95.7781 12.8198 94.9398 13.5883 94.7302 14.7061C93.1234 13.5883 91.2372 12.8198 89.1414 12.8198C86.2771 12.8198 83.7621 14.0074 82.0156 15.9635C80.1993 17.8498 79.1514 20.5045 79.1514 23.3687C79.1514 26.233 80.1993 28.8178 82.0156 30.7739C83.832 32.6601 86.2771 33.8478 89.1414 33.8478C91.2372 33.8478 93.1234 33.1492 94.7302 32.0314C95.0097 33.0094 95.848 33.8478 96.8959 33.8478C98.0835 33.8478 99.1314 32.8697 99.1314 31.6122V15.0554C99.1314 13.7979 98.1534 12.8198 96.8959 12.8198ZM93.0536 27.7001C92.0755 28.748 90.6085 29.3767 89.1414 29.3767C87.6045 29.3767 86.2073 28.8178 85.2292 27.7001C84.2512 26.5823 83.6224 25.1152 83.6224 23.3687C83.6224 21.6222 84.1813 20.0853 85.2292 19.0374C86.2073 17.9196 87.6045 17.2909 89.1414 17.2909C90.6085 17.2909 92.0755 17.8498 93.0536 19.0374C94.0316 20.0853 94.7302 21.6222 94.7302 23.3687C94.6604 25.1152 94.0316 26.6522 93.0536 27.7001Z" fill="white"/>
</g>
<defs>
<clipPath id="clip0">
<rect width="140" height="46.4571" fill="white" transform="translate(0 0.0351562)"/>
</clipPath>
</defs>
</svg>
