<svg width="140" height="47" viewBox="0 0 140 47" fill="none" xmlns="http://www.w3.org/2000/svg">
<path d="M121.068 23.7298C121.068 24.7078 121.417 38.4004 116.946 42.8016C112.475 47.2727 97.8743 46.9234 97.8743 46.9234C97.8743 46.9234 83.2036 47.2727 78.8025 42.8016C74.3314 38.3306 74.6807 24.638 74.6807 23.7298C74.6807 22.7517 74.3314 9.05912 78.8025 4.65792C83.2735 0.186863 97.8743 0.536164 97.8743 0.536164C97.8743 0.536164 112.545 0.186863 116.946 4.65792C121.417 9.12898 121.068 22.8216 121.068 23.7298Z" fill="#21325B"/>
<path d="M23.6128 29.668V7.24289C23.6128 5.91554 22.6347 4.9375 21.3074 4.9375C19.98 4.9375 18.9321 5.91554 18.9321 7.24289V29.7379C18.9321 32.3227 21.0279 34.4185 23.6128 34.4185C24.9401 34.4185 25.9182 33.4405 25.9182 32.1131C25.9182 30.7159 24.8703 29.668 23.6128 29.668Z" fill="#21325B"/>
<path d="M45.8983 13.3208C44.7806 13.3208 43.9422 14.0893 43.7326 15.207C42.1259 14.0893 40.2396 13.3208 38.1438 13.3208C35.2796 13.3208 32.7646 14.5084 31.0181 16.4645C29.2017 18.3507 28.1538 21.0054 28.1538 23.8697C28.1538 26.734 29.2017 29.3188 31.0181 31.2749C32.8344 33.1611 35.2796 34.3487 38.1438 34.3487C40.2396 34.3487 42.1259 33.6501 43.7326 32.5324C44.0121 33.5104 44.8504 34.3487 45.8983 34.3487C47.0859 34.3487 48.1338 33.3707 48.1338 32.1132V15.5563C48.1338 14.2988 47.0859 13.3208 45.8983 13.3208ZM41.9861 28.201C41.0081 29.2489 39.541 29.8777 38.074 29.8777C36.537 29.8777 35.1398 29.3188 34.1618 28.201C33.1837 27.0833 32.555 25.6162 32.555 23.8697C32.555 22.1232 33.1139 20.5863 34.1618 19.5384C35.1398 18.4206 36.537 17.7919 38.074 17.7919C39.541 17.7919 41.0081 18.3507 41.9861 19.5384C42.9642 20.5863 43.6628 22.1232 43.6628 23.8697C43.6628 25.6162 43.034 27.1531 41.9861 28.201Z" fill="#21325B"/>
<path d="M67.9044 13.3208C66.6469 13.3208 65.7387 14.2988 65.7387 15.5563V25.4765C65.7387 27.9216 63.7826 29.738 61.4074 29.738C59.0321 29.738 57.0062 27.8517 57.0062 25.4765V15.5563C57.0062 14.2988 56.098 13.3208 54.7706 13.3208C53.6529 13.3208 52.605 14.2988 52.605 15.5563V25.4765C52.605 30.2969 56.587 34.3487 61.4074 34.3487C62.8046 34.3487 64.2018 33.9994 65.3894 33.3707C64.6908 35.5364 62.595 37.1432 60.1499 37.213C59.3116 37.213 58.4732 37.0034 57.7048 36.6541C56.7267 36.0953 55.2597 36.5843 54.7008 37.5623C54.2118 38.7499 54.6309 40.0773 55.8186 40.5663C57.076 41.1951 58.613 41.6142 60.1499 41.6142C65.7387 41.6142 70.2098 37.213 70.2098 31.5543V15.5563C70.1399 14.2988 69.092 13.3208 67.9044 13.3208Z" fill="#21325B"/>
<path d="M114.292 17.8617C111.078 17.8617 108.144 21.6342 108.144 24.8477V32.0433C108.144 33.3008 107.096 34.3487 105.838 34.3487C104.581 34.3487 103.533 33.3008 103.533 32.0433V15.6262C103.533 14.3687 104.581 13.3208 105.838 13.3208C107.096 13.3208 108.144 14.3687 108.144 15.6262V15.7659C109.541 14.229 111.567 13.3208 113.733 13.3208H114.222C115.479 13.3208 116.527 14.3687 116.527 15.6262C116.597 16.8837 115.549 17.8617 114.292 17.8617ZM96.8964 13.3208C95.7786 13.3208 94.9403 14.0893 94.7307 15.207C93.1239 14.0893 91.2377 13.3208 89.1419 13.3208C86.2776 13.3208 83.7626 14.5084 82.0161 16.4645C80.1998 18.3507 79.1519 21.0054 79.1519 23.8697C79.1519 26.734 80.1998 29.3188 82.0161 31.2749C83.8325 33.1611 86.2776 34.3487 89.1419 34.3487C91.2377 34.3487 93.1239 33.6501 94.7307 32.5324C95.0101 33.5104 95.8485 34.3487 96.8964 34.3487C98.084 34.3487 99.1319 33.3707 99.1319 32.1132V15.5563C99.1319 14.2988 98.1538 13.3208 96.8964 13.3208ZM93.054 28.201C92.076 29.2489 90.6089 29.8777 89.1419 29.8777C87.6049 29.8777 86.2077 29.3188 85.2297 28.201C84.2517 27.0833 83.6229 25.6162 83.6229 23.8697C83.6229 22.1232 84.1818 20.5863 85.2297 19.5384C86.2077 18.4206 87.6049 17.7919 89.1419 17.7919C90.6089 17.7919 92.076 18.3507 93.054 19.5384C94.0321 20.5863 94.7307 22.1232 94.7307 23.8697C94.6608 25.6162 94.0321 27.1531 93.054 28.201Z" fill="white"/>
</svg>
