<svg width="201" height="67" viewBox="0 0 201 67" fill="none" xmlns="http://www.w3.org/2000/svg">
<g clip-path="url(#clip0)">
<path d="M173.3 33.2C173.3 34.6 173.8 54.2 167.4 60.5C161 66.9 140.1 66.4 140.1 66.4C140.1 66.4 119.1 66.9 112.8 60.5C106.4 54.1 106.9 34.5 106.9 33.2C106.9 31.8 106.4 12.2 112.8 5.90001C119.2 -0.499994 140.1 5.99585e-06 140.1 5.99585e-06C140.1 5.99585e-06 161.1 -0.499994 167.4 5.90001C173.8 12.3 173.3 31.9 173.3 33.2Z" fill="#7B878D"/>
<path d="M33.8 41.7V9.59999C33.8 7.69999 32.4 6.29999 30.5 6.29999C28.6 6.29999 27.1 7.69999 27.1 9.59999V41.8C27.1 45.5 30.1 48.5 33.8 48.5C35.7 48.5 37.1 47.1 37.1 45.2C37.1 43.2 35.6 41.7 33.8 41.7Z" fill="#7B878D"/>
<path d="M65.7 18.3C64.1 18.3 62.9 19.4 62.6 21C60.3 19.4 57.6 18.3 54.6 18.3C50.5 18.3 46.9 20 44.4 22.8C41.8 25.5 40.3 29.3 40.3 33.4C40.3 37.5 41.8 41.2 44.4 44C47 46.7 50.5 48.4 54.6 48.4C57.6 48.4 60.3 47.4 62.6 45.8C63 47.2 64.2 48.4 65.7 48.4C67.4 48.4 68.9 47 68.9 45.2V21.5C68.9 19.7 67.4 18.3 65.7 18.3ZM60.1 39.6C58.7 41.1 56.6 42 54.5 42C52.3 42 50.3 41.2 48.9 39.6C47.5 38 46.6 35.9 46.6 33.4C46.6 30.9 47.4 28.7 48.9 27.2C50.3 25.6 52.3 24.7 54.5 24.7C56.6 24.7 58.7 25.5 60.1 27.2C61.5 28.7 62.5 30.9 62.5 33.4C62.5 35.9 61.6 38.1 60.1 39.6Z" fill="#7B878D"/>
<path d="M97.2 18.3C95.4 18.3 94.1 19.7 94.1 21.5V35.7C94.1 39.2 91.3 41.8 87.9 41.8C84.5 41.8 81.6 39.1 81.6 35.7V21.5C81.6 19.7 80.3 18.3 78.4 18.3C76.8 18.3 75.3 19.7 75.3 21.5V35.7C75.3 42.6 81 48.4 87.9 48.4C89.9 48.4 91.9 47.9 93.6 47C92.6 50.1 89.6 52.4 86.1 52.5C84.9 52.5 83.7 52.2 82.6 51.7C81.2 50.9 79.1 51.6 78.3 53C77.6 54.7 78.2 56.6 79.9 57.3C81.7 58.2 83.9 58.8 86.1 58.8C94.1 58.8 100.5 52.5 100.5 44.4V21.5C100.4 19.7 98.9 18.3 97.2 18.3Z" fill="#7B878D"/>
<path d="M163.6 24.8C159 24.8 154.8 30.2 154.8 34.8V45.1C154.8 46.9 153.3 48.4 151.5 48.4C149.7 48.4 148.2 46.9 148.2 45.1V21.6C148.2 19.8 149.7 18.3 151.5 18.3C153.3 18.3 154.8 19.8 154.8 21.6V21.8C156.8 19.6 159.7 18.3 162.8 18.3H163.5C165.3 18.3 166.8 19.8 166.8 21.6C166.9 23.4 165.4 24.8 163.6 24.8ZM138.7 18.3C137.1 18.3 135.9 19.4 135.6 21C133.3 19.4 130.6 18.3 127.6 18.3C123.5 18.3 119.9 20 117.4 22.8C114.8 25.5 113.3 29.3 113.3 33.4C113.3 37.5 114.8 41.2 117.4 44C120 46.7 123.5 48.4 127.6 48.4C130.6 48.4 133.3 47.4 135.6 45.8C136 47.2 137.2 48.4 138.7 48.4C140.4 48.4 141.9 47 141.9 45.2V21.5C141.9 19.7 140.5 18.3 138.7 18.3ZM133.2 39.6C131.8 41.1 129.7 42 127.6 42C125.4 42 123.4 41.2 122 39.6C120.6 38 119.7 35.9 119.7 33.4C119.7 30.9 120.5 28.7 122 27.2C123.4 25.6 125.4 24.7 127.6 24.7C129.7 24.7 131.8 25.5 133.2 27.2C134.6 28.7 135.6 30.9 135.6 33.4C135.5 35.9 134.6 38.1 133.2 39.6Z" fill="white"/>
</g>
<defs>
<clipPath id="clip0">
<rect width="200.4" height="66.5" fill="white"/>
</clipPath>
</defs>
</svg>
