<svg width="201" height="67" viewBox="0 0 201 67" fill="none" xmlns="http://www.w3.org/2000/svg">
<g clip-path="url(#clip0)">
<path d="M149.6 60.3C149.1 60 148.6 59.9 148 59.9C147.4 59.9 146.9 60 146.4 60.3C145.9 60.6 145.5 61 145.2 61.5C144.9 62 144.8 62.6 144.8 63.2C144.8 63.8 144.9 64.3 145.2 64.8C145.5 65.3 145.9 65.7 146.4 66C146.9 66.3 147.4 66.4 148 66.4C148.6 66.4 149.1 66.3 149.6 66C150.1 65.7 150.5 65.3 150.8 64.8C151.1 64.3 151.2 63.7 151.2 63.2C151.2 62.6 151.1 62.1 150.8 61.5C150.5 61 150.1 60.6 149.6 60.3ZM150.3 64.6C150 65 149.7 65.4 149.3 65.6C148.9 65.8 148.4 66 148 66C147.5 66 147.1 65.9 146.7 65.6C146.3 65.4 145.9 65 145.7 64.6C145.5 64.2 145.4 63.7 145.4 63.2C145.4 62.7 145.5 62.3 145.7 61.8C145.9 61.4 146.3 61 146.7 60.8C147.1 60.6 147.6 60.4 148 60.4C148.4 60.4 148.9 60.5 149.3 60.8C149.7 61 150 61.4 150.3 61.8C150.5 62.2 150.6 62.7 150.6 63.2C150.6 63.7 150.5 64.2 150.3 64.6ZM148.5 63.6C148.4 63.5 148.3 63.5 148.2 63.4C148.5 63.4 148.8 63.3 148.9 63.1C149.1 62.9 149.2 62.7 149.2 62.4C149.2 62.2 149.1 62 149 61.9C148.9 61.7 148.7 61.6 148.6 61.6C148.4 61.5 148.1 61.5 147.7 61.5H146.5V65H147.1V63.5H147.4C147.6 63.5 147.7 63.5 147.8 63.6C147.9 63.7 148.1 64 148.4 64.4L148.7 65H149.4L149 64.3C148.8 64 148.7 63.8 148.5 63.6ZM147.8 63H147.1V62H147.7C148 62 148.2 62 148.2 62.1C148.3 62.2 148.4 62.2 148.4 62.3C148.5 62.4 148.5 62.5 148.5 62.6C148.5 62.8 148.4 62.9 148.3 63C148.3 63 148.1 63 147.8 63ZM80.3 20.9C78.2 20.9 77.4 22.9 77.4 24.9H83.2C83.2 22.6 82.5 20.9 80.3 20.9ZM32.8 0L45.7 61L46.7 60.5C60.4 53.3 74.1 53.7 83.2 55.4C93.1 57.2 99.8 60.7 99.8 60.7L100.2 60.9L100.6 60.7C116.8 53.5 130.2 53.9 138.6 55.5C147.7 57.3 153 60.8 153 60.8L154 61.5L154.3 60.3L167.6 0H32.8ZM68.5 37.2H49.5V17.2H57V32.1H68.4V37.2H68.5ZM80.7 37.9C72.9 37.9 68.8 33.9 68.8 27.2C68.8 20.5 73.1 16.5 80.2 16.5C87.8 16.5 91.6 21.4 91.6 27.2C91.6 27.7 91.6 28.1 91.5 28.4H77.1C77.1 31.2 78.7 33 81.2 33C83.4 33 85 32.4 85.4 30.6H91.7C91 35.2 87.7 37.9 80.7 37.9ZM105.7 37.3H99.5L89.6 17H98.3L103.6 28.7H103.7L109 17H115.3L105.7 37.3ZM124.1 37.2H116.5V17H124.1V37.2ZM131.1 18.6L128.5 21.8H127.4L128.6 18.4H126.2V13.8H131.1V18.6ZM140.9 37.7C134 37.7 131.4 34.6 131.4 31V30.9H137.7C137.7 32.7 139.1 33.5 141 33.5C142.7 33.5 143.6 32.9 143.6 31.8C143.6 28.9 131.5 31.7 131.5 23.5C131.5 19.1 135.6 16.6 141.9 16.6C147.6 16.6 151 19.4 151 22.8H145.2C145.2 21.8 144 20.9 141.9 20.9C139.8 20.9 139 21.6 139 22.3C139 25.5 151.6 22.4 151.6 30.7C151.8 34.6 148.8 37.7 140.9 37.7Z" fill="#21325B"/>
</g>
<defs>
<clipPath id="clip0">
<rect width="200.4" height="66.5" fill="white"/>
</clipPath>
</defs>
</svg>
