<svg width="400" height="400" viewBox="0 0 400 400" fill="none" xmlns="http://www.w3.org/2000/svg">
<path d="M200 400C89.5 400 0 310.5 0 200C0 89.5 89.5 0 200 0C310.5 0 400 89.5 400 200C400 310.5 310.5 400 200 400Z" fill="#FFE01B"/>
<path d="M146.5 241C146.75 241.25 146.75 241.75 146.5 242.25C145.5 244 143.5 245 141.5 244.75C137.75 244.25 135 241.25 135.25 237.5C135.25 235 135.75 232.75 136.5 230.25C137.75 227.25 136.5 224 134 222.25C132.5 221.25 130.5 221 128.75 221.25C127 221.5 125.5 222.75 124.5 224.25C123.75 225.5 123.25 226.75 123 228C123 228.25 122.75 228.5 122.75 228.5C122.25 230 121.25 230.5 120.5 230.5C120.25 230.5 119.75 230.25 119.5 229.5C118.75 225.25 120.25 221 123 217.75C125.5 215 129 213.75 132.75 214.25C136.5 214.75 140 217.25 141.5 220.75C143.25 225 142.75 229.75 140.5 233.75C140.25 234 140.25 234.5 140 234.75C139.25 236.25 139 238.25 140 239.75C140.75 240.75 141.75 241.25 143 241.25C143.5 241.25 144 241.25 144.5 241C145.5 240.5 146.25 240.5 146.5 241ZM311.75 245C311.5 252.75 309.75 260.25 307 267.5C293 301.25 259.5 320 219.5 318.75C182.25 317.75 150.5 298 136.75 265.75C128 265.5 119.5 262 113.25 256.25C106.5 250.5 102.25 242.5 101.25 233.75C100.5 227.75 101.25 221.75 103.5 216L95.75 209.5C59.75 179.5 171.5 55 207 86.25C207.25 86.5 219.25 98.25 219.25 98.25C219.25 98.25 225.75 95.5 226 95.5C257.25 82.5 282.75 88.75 282.75 109.5C282.75 120.25 276 132.75 265 144.25C269.5 148.75 272.5 154.25 274 160.25C275.25 164.5 275.75 168.75 276 173.25C276.25 177.75 276.5 188 276.5 188C276.75 188 280 189 281 189.25C287.5 190.75 293.25 193.5 298.25 197.75C301 200.25 302.5 203.75 303.25 207.25C304 212 302.75 216.75 300 220.5C300.75 222.25 301.25 223.75 302 225.5C303 228.5 303.5 231 303.75 231.25C306.5 231.75 311.75 235.75 311.75 245ZM154.25 226.5C151.75 210.75 141.25 205.25 134 204.75C132.25 204.75 130.5 204.75 128.5 205.25C115.75 207.75 108.25 218.75 109.75 233C112 246.25 122.75 256.25 136 257C137.25 257 138.5 257 139.75 256.75C153 254.75 156.25 240.5 154.25 226.5ZM176.25 126.5C187.25 117.5 198.75 109.5 211 102.5C211 102.5 201.25 91.25 198.25 90.25C180.25 85.25 141.25 112.25 116.25 148C106.25 162.5 91.75 188 98.75 201C101.25 204 104 206.5 107 209C111.5 202.5 118.5 198 126.5 196.5C136.25 169.25 153.5 145 176.25 126.5ZM215.25 251.25C216.25 255.5 219.5 259 223.75 260C226 260.75 228 261.5 230.5 261.75C259 266.75 285.75 250.25 291.75 246.25C292.25 246 292.5 246.25 292.25 246.75C292 247 291.75 247.25 291.75 247.5C284.5 257 264.75 268 239 268C227.75 268 216.5 264 212.5 258C206 248.5 212.25 234.75 222.75 236.25C222.75 236.25 226.5 236.75 227.5 236.75C244 238.25 260.75 235.75 276 229C290.5 222.25 296 214.75 295.25 208.75C295 207 294 205.25 292.75 203.75C288.75 200.5 284 198.25 279 197.25C276.75 196.5 275.25 196.25 273.5 195.75C270.5 194.75 269 194 268.75 188.25C268.5 185.75 268.25 177.25 268 173.5C267.75 167.25 267 158.75 261.75 155.25C260.5 154.25 258.75 153.75 257.25 153.75C256.25 153.75 255.5 153.75 254.5 154C251.75 154.5 249.5 156 247.5 158C242.5 162.5 236 164.75 229.25 164.25C225.5 164 221.75 163.5 217.25 163.25C216.5 163.25 215.5 163.25 214.75 163C202.75 163.25 193 172.25 191.5 184.25C189 202 201.75 211 205.5 216.5C206 217.25 206.5 218 206.5 219C206.5 220 206 221 205.25 221.5C195 233 191.25 249 195.25 264C195.75 265.75 196.25 267.5 197 269.25C206.25 291 235.25 301.25 263.5 292C267.25 290.75 270.75 289.25 274.25 287.5C280.5 284.5 286 280.25 290.75 275.25C298 268 302.75 258.5 304.5 248.25C305.25 242.5 304 240.5 302.5 239.5C301.25 238.75 300 238.5 298.5 238.75C297.75 234.25 296.5 230 294.75 226C286.75 232 277.5 236.75 267.75 239.5C256 242.75 244 244 231.75 243.5C224 242.75 218.75 240.5 216.75 247C228.5 251 241 252.25 253.5 250.75C253.75 250.75 254.25 251 254.25 251.25C254.25 251.5 254 251.75 253.75 252C252.75 251.75 238.25 258.5 215.25 251.25ZM173 148.5C182.5 141.75 193.5 137 204.75 134.5C217.75 131.5 231 131.5 244 134.5C244.5 134.5 244.75 133.75 244.25 133.5C237.5 130 230.25 128 222.5 127.75C222.25 127.75 222 127.5 222 127.25V127C223.25 125.5 224.5 124 226 123C226.25 122.75 226.25 122.5 226 122.5L225.75 122.25C216.5 123.25 207.75 126.25 199.75 131.5C199.5 131.5 199.25 131.5 199.25 131.5V131.25C199.75 129 200.75 126.75 202 124.5C202 124.25 202 124 201.75 124H201.5C190.25 130.25 180.25 138.5 172 148.25C171.75 148.5 171.75 148.75 172 148.75C172.5 148.75 172.75 148.75 173 148.5ZM248 208.75C249.5 209.75 251.75 209.5 253 208C253.75 206.5 252.75 204.75 250.75 203.75C249.25 202.75 247 203 245.75 204.5C245 205.75 246 207.75 248 208.75ZM254.25 186C254.75 188.5 255.75 191 257.25 193C258.75 192.75 260.5 192.75 262 193C263 190.25 263 187.25 262.25 184.5C261 179.25 259.5 176.25 256.5 176.75C253.25 177.25 253 181 254.25 186ZM261 198C259 197.5 256.75 198.5 256 200.75C255.5 202.75 256.5 205 258.75 205.75C261 206.5 263 205.25 263.75 203C263.75 202.75 264 202.25 264 202C264 200 262.75 198.25 261 198Z" fill="black"/>
<path d="M208.25 197.5C207.75 197.5 207.5 197.25 207.5 197C207.25 196 208.75 194.75 210 193.5C214.25 190.25 220 189.75 224.75 191.75C227 192.75 229 194.25 230.25 196.25C230.75 197 230.75 197.75 230.5 198C230 198.5 228.75 198 226.5 197C224 195.75 221 195 218.25 195.25C215 195.75 211.5 196.5 208.25 197.5ZM229.75 202C227.75 200 225 199 222.5 199.5C220.5 199.75 218.75 200.5 217.25 201.75C216.5 202.25 216 203 216 204C216 204.25 216 204.5 216.25 204.5C216.5 204.5 216.5 204.75 216.75 204.75C217.5 204.75 218.25 204.5 218.75 204.25C221.75 203.25 224.75 202.75 227.75 203.25C229.25 203.5 229.75 203.5 230.25 203C230 202.5 230 202.25 229.75 202Z" fill="black"/>
</svg>
