<svg width="140" height="47" viewBox="0 0 140 47" fill="none" xmlns="http://www.w3.org/2000/svg">
<path d="M135.04 31.4023C137.974 31.4023 140 29.3763 140 26.5819C140 25.1847 139.581 23.8574 138.882 22.9492C138.114 21.9712 136.996 21.4123 135.669 21.4123C133.922 21.4123 132.246 22.7396 130.639 25.534L130.499 25.7436L130.429 25.534C130.01 24.3464 129.661 23.3684 129.451 22.8095C129.311 22.3903 129.242 22.2506 129.242 22.1807C129.172 21.9013 128.892 21.6917 128.543 21.6917C128.333 21.6917 128.124 21.7616 127.914 21.9013C127.705 22.041 127.565 22.1807 127.565 22.3903C125.958 27.4203 124.631 29.8654 123.513 29.8654C123.373 29.8654 123.234 29.7955 123.164 29.7256C122.884 29.3763 122.954 28.6079 123.024 27.56C123.094 26.7915 123.164 25.8833 123.164 24.9751C123.094 23.1588 122.116 22.041 120.509 22.041C118.483 22.041 117.156 24.2067 116.527 25.4642L116.317 25.8135L116.247 25.3943C116.108 23.7875 115.549 21.9013 113.872 21.9013C111.916 21.9013 110.379 24.2067 109.471 26.1628L109.261 26.6518V26.0929C109.401 23.5081 109.471 21.9712 109.541 21.552C109.611 21.1328 109.541 20.8534 109.401 20.6438C109.261 20.5041 109.052 20.4342 108.633 20.4342C108.004 20.5041 107.655 20.8534 107.166 22.1109C106.397 24.2067 104.371 29.1668 102.695 29.1668C102.345 29.1668 102.136 29.027 101.926 28.8175C101.228 28.049 101.507 25.9532 101.926 23.0191V22.8095C102.136 21.4123 101.786 21.1328 101.018 20.9931C100.948 20.9931 100.878 20.9931 100.808 20.9931C100.18 20.9931 99.9002 21.552 99.3413 23.1588C98.3633 26.023 97.0359 28.9572 95.5689 28.9572C95.499 28.9572 95.4291 28.9572 95.4291 28.9572C94.6607 28.8175 94.6607 27.6298 94.6607 26.1628C94.6607 25.3244 94.6607 24.4163 94.5908 23.6478C94.3812 22.1807 93.4731 21.2725 92.2854 21.2027C89.9102 21.2027 88.3733 24.2067 87.6048 26.023L87.4651 26.4422L87.3952 26.023C87.2555 24.8354 87.1856 23.7177 87.1158 22.53V22.4602C91.517 16.9412 93.4731 12.8893 93.5429 9.46616C93.5429 7.30049 92.5649 5.97314 90.8184 5.97314C89.5609 5.97314 86.6267 7.02105 85.5788 16.6618C85.3693 18.4781 85.2994 20.2945 85.2994 22.1109C83.2735 25.045 78.9421 30.0749 74.7505 30.0749C70.9082 30.0749 67.9042 27.0011 67.9042 21.552C67.9042 14.2865 73.0739 9.81546 76.9162 9.81546C77.7545 9.81546 78.4531 10.025 79.012 10.5141C79.5709 11.0031 79.8503 11.6318 79.8503 12.3304C79.8503 13.3085 79.501 13.8674 79.2216 14.3564C79.1517 14.4961 79.0818 14.6358 79.012 14.7755C78.9421 14.9153 78.8723 15.1248 78.9421 15.2646C79.012 15.4741 79.2914 15.544 79.6407 15.544C80.5489 15.544 81.9461 14.2167 81.9461 12.1907C81.9461 10.0949 80.1996 7.92923 76.986 7.92923C72.1657 7.92923 65.7385 13.1688 65.7385 21.7616C65.7385 27.7696 69.511 31.9612 74.6806 31.9612C78.3134 31.9612 81.9461 29.3763 85.0898 24.9751L85.2994 24.6957V25.045C85.3693 26.6518 85.509 27.9093 85.5788 28.8175C85.6487 29.3763 85.6487 29.8654 85.6487 30.0749C85.6487 30.564 85.7186 30.9831 85.9281 31.1927C86.1377 31.4023 86.4172 31.542 86.8363 31.542C87.5349 31.542 87.6747 31.053 87.9541 29.8654L88.0239 29.5161C88.3733 28.049 89.7006 23.2985 91.6567 23.2985C92.006 23.2985 92.2156 23.3684 92.4252 23.5779C92.8443 24.067 92.7745 24.9751 92.7745 26.0929C92.7745 26.7915 92.7046 27.4901 92.7745 28.1887C92.984 30.0051 93.7525 30.9133 95.2196 30.9831C96.6866 30.9831 98.2934 29.3763 99.1317 27.9093L99.2715 27.6298L99.3413 27.9791C99.481 28.7476 100.18 31.4023 102.275 31.4023C104.232 31.4023 105.838 29.3763 107.655 25.1847L107.864 24.6258V25.2546C107.794 26.8614 107.725 28.7476 107.725 30.2845C107.725 31.4722 107.864 31.8913 108.353 31.8913H108.493C108.982 31.8913 109.331 31.6119 109.541 30.9831C110.938 26.2326 112.056 23.9971 113.244 23.9971C114.361 23.9971 114.501 26.0929 114.571 29.7955V30.0749C114.571 31.3324 114.641 31.9612 115.479 31.9612C116.108 31.9612 116.248 31.4722 116.527 30.2845C116.597 30.0749 116.667 29.7955 116.737 29.5161C117.854 25.6737 118.762 24.1368 119.88 24.1368C120.858 24.1368 120.928 25.1149 120.928 25.4642C120.998 26.1628 120.928 26.9312 120.788 27.6298C120.719 28.3284 120.649 28.9572 120.649 29.6558C120.719 31.1229 121.557 31.9612 122.954 32.031C124.84 32.031 126.447 29.8654 127.914 25.6039L127.984 25.3244L128.124 25.6039C128.403 26.3025 128.752 27.2107 129.032 28.2586V28.3284V28.3983C127.635 31.542 126.587 35.035 126.587 36.9213C126.587 39.3664 127.705 40.9732 129.451 41.043C130.429 41.043 132.595 40.6937 132.665 37.1308C132.665 35.6638 132.315 33.6378 131.617 31.053L131.547 30.7735L131.826 30.9133C133.014 31.053 134.062 31.4023 135.04 31.4023ZM87.2555 19.3863C87.3253 18.4781 87.3952 17.6398 87.4651 16.8015C88.1637 11.562 89.5609 7.85937 90.9581 7.85937C91.5868 7.85937 91.9361 8.34839 91.9361 9.32644C91.9361 11.7017 90.3992 15.1248 87.4651 19.4562L87.2555 19.8055V19.3863ZM130.778 38.3185C130.569 38.5979 130.289 38.7376 129.87 38.7376C129.451 38.7376 129.102 38.5979 128.892 38.3185C128.263 37.4801 128.473 35.524 129.451 31.9612C129.591 31.542 129.731 31.1229 129.87 30.7037L130.01 30.3544L130.08 30.7037C131.267 34.7556 131.547 37.3404 130.778 38.3185ZM131.198 27.7696L131.128 27.56V27.4901C132.455 24.6957 134.062 23.0889 135.389 23.0889C136.926 23.0889 137.974 24.4861 137.974 26.4422C137.974 27.7696 137.415 28.4682 136.926 28.8873C136.367 29.3763 135.669 29.5859 134.9 29.5859C133.084 29.6558 131.896 28.6777 131.198 27.7696ZM44.99 30.9133C47.0858 30.7735 48.7625 27.9093 49.3214 26.7217L49.4611 26.3724L49.5309 26.7217C49.8104 28.3983 50.7884 31.2626 53.6527 31.3324C54.9102 31.3324 56.3074 30.564 57.7744 29.0969L57.9142 28.9572L57.984 29.0969C58.9621 30.7037 60.2196 31.6119 61.6168 31.4722C63.6427 31.3324 64.9002 29.9352 64.9701 28.9572C64.9701 28.6777 64.9002 28.4682 64.7605 28.3284C64.5509 28.1189 64.3413 28.1189 64.1317 28.2586L64.0619 28.3284C63.5729 28.8175 62.7345 29.6558 61.7565 29.6558C60.5689 29.7256 59.7305 29.027 59.1717 27.56V27.4901L59.2415 27.4203C62.4551 23.1588 64.7605 16.7316 64.5509 12.4003C64.481 10.3743 63.8523 7.99909 61.6866 7.99909H61.477C60.6387 8.06895 59.8703 8.41826 59.2415 9.18672C57.2156 11.4921 56.1677 17.0809 56.517 23.4382C56.5868 24.7656 56.7964 26.023 57.2156 27.1408V27.2107L57.1457 27.2805C55.9581 28.6777 54.7705 29.4462 53.7924 29.4462C51.487 29.4462 51.5569 25.6039 51.7665 22.3903C51.8363 21.6917 51.8363 21.2725 51.6267 20.9931C51.487 20.7835 51.2076 20.7137 50.8583 20.7137H50.7884C49.9501 20.7137 49.8104 20.8534 49.3912 22.1109C48.5529 24.6258 46.8064 28.8175 45.0599 28.8175C44.5709 28.8175 44.2216 28.6777 43.9421 28.3284C43.1038 27.2805 43.7325 24.6258 44.2216 22.4602C44.2914 22.1109 44.4311 21.6917 44.501 21.3424C44.6407 20.8534 44.5709 20.4342 44.4311 20.2246C44.2216 20.0151 43.8723 19.8753 43.4531 19.9452C42.6846 20.0151 42.2655 20.2945 41.986 21.6917L41.9162 21.9712V22.041C41.5669 21.552 40.9381 20.9931 39.8204 20.9931C39.7505 20.9931 39.6108 20.9931 39.4711 20.9931C38.2136 21.063 36.8164 21.9712 35.7685 23.2286C34.5808 24.7656 33.9521 26.6518 34.1617 28.6079C34.1617 28.6777 34.1617 28.8175 34.2315 28.8873V28.9572L34.1617 29.027C33.4631 29.7955 32.6946 30.2147 31.996 30.2147C30.8782 30.2147 30.2495 29.3763 30.2495 27.9791C30.2495 25.6039 31.8563 18.548 31.8563 15.9632C31.8563 13.2386 30.6687 11.7715 28.503 11.7017C25.4291 11.7017 22.984 15.1947 20.6786 22.3903C20.4691 23.0889 20.2595 23.7875 20.0499 24.4861L19.7006 25.6039L19.7705 24.4861C19.98 22.041 20.1198 19.6658 20.1896 17.2207C20.3293 13.7276 19.8403 11.4921 18.7226 10.3743C18.1637 9.7456 17.3952 9.46616 16.3473 9.46616C12.5749 9.46616 10.7585 15.8234 9.43114 20.3644C9.01198 21.6917 8.24351 24.7656 7.75449 26.8614L8.03393 26.3724C8.24351 23.7177 8.94212 17.1508 8.87226 13.5879C8.80239 9.7456 7.54491 7.99909 4.7505 7.99909C3.21357 7.99909 2.23553 8.76756 1.60679 9.3963C0.558882 10.3045 0 11.7715 0 13.029C0 13.7975 0.489022 14.4961 0.838323 14.4961C1.0479 14.4961 1.18762 14.1468 1.25749 14.0071C2.16567 11.1428 3.28343 9.7456 4.68064 9.7456C5.30938 9.7456 5.72854 9.95518 6.07784 10.3045C7.19561 11.4921 6.98603 14.7755 6.63673 20.7835C6.56687 22.5999 6.42715 24.8354 6.28743 27.2805C6.28743 27.6997 6.21756 28.1189 6.21756 28.538C6.07784 30.2845 6.00798 31.6119 6.63673 31.6817C7.47505 31.8215 8.03393 31.4722 8.31337 30.6338C8.73253 29.3763 9.64072 25.9532 11.4571 19.7356C13.2036 13.7975 14.5309 11.562 16.2076 11.562C18.1637 11.562 18.3034 14.9153 17.9541 21.9712C17.8842 23.4382 17.7445 25.1847 17.6747 27.0011C17.6747 27.2805 17.6747 27.4901 17.6747 27.7696C17.6048 29.3065 17.5349 30.4941 17.9541 30.9831C18.0938 31.1228 18.3034 31.1927 18.513 31.1927C19.3513 31.1927 19.6307 30.4242 20.0499 29.2366C20.1198 29.027 20.1896 28.8175 20.2595 28.538C23.1238 20.5739 25.2894 13.6578 28.1537 13.6578C28.992 13.6578 29.6906 14.3564 29.6906 15.7536C29.6906 18.8973 28.1537 24.9751 28.1537 28.049C28.1537 29.1668 28.503 30.1448 29.0619 30.8434C29.6906 31.542 30.5289 31.9612 31.5768 31.9612C32.5549 31.9612 33.5329 31.4722 34.5808 30.564L34.6507 30.4941L34.7206 30.564C35.4192 31.4722 36.4671 31.9612 37.6547 31.8215C39.4711 31.6817 40.9381 30.0749 41.497 28.6079L41.6367 28.3284L41.7764 28.6079C42.1956 29.7256 43.1038 31.1229 44.99 30.9133ZM61.4072 10.0949C61.6168 10.0949 61.8263 10.1648 61.9661 10.3743C62.6647 11.3524 62.6647 14.8454 61.477 18.8274C60.7784 21.1328 59.8703 23.2286 58.7525 25.045L58.5429 25.3244L58.4731 24.9751C58.3333 23.9971 58.2635 23.0191 58.2635 22.1807C58.0539 16.1727 59.8703 10.1648 61.4072 10.0949ZM41.6367 24.1368C41.008 26.6518 39.8204 29.6558 37.6547 29.8654H37.4451C36.5369 29.8654 36.0479 29.3065 35.978 28.1189C35.8383 26.6518 36.4671 24.9751 37.5848 23.7875C38.2834 23.0191 39.0519 22.5999 39.7505 22.5999C40.7285 22.6698 41.3573 23.3684 41.6367 24.1368ZM51.6267 14.9153C50.8583 14.9153 50.1597 15.544 50.1597 16.3125C50.1597 17.0809 50.7884 17.7097 51.5569 17.7097V17.8494V17.7097C52.3254 17.7097 52.9541 17.0809 53.024 16.3125C53.0938 15.544 52.4651 14.9153 51.6267 14.9153ZM101.717 14.9153C100.948 14.9153 100.25 15.544 100.25 16.3125C100.25 17.0809 100.878 17.7097 101.647 17.7097V17.8494V17.7097C102.415 17.7097 103.114 17.0809 103.114 16.3125C103.184 15.544 102.555 14.9153 101.717 14.9153Z" fill="white"/>
</svg>
