<svg width="200" height="67" viewBox="0 0 200 67" fill="none" xmlns="http://www.w3.org/2000/svg">
<path d="M192.914 45.0629C197.106 45.0629 200 42.1687 200 38.1767C200 36.1807 199.401 34.2845 198.403 32.9871C197.305 31.5899 195.709 30.7915 193.812 30.7915C191.317 30.7915 188.922 32.6877 186.627 36.6797L186.427 36.9791L186.327 36.6797C185.729 34.9831 185.23 33.5859 184.93 32.7875C184.731 32.1887 184.631 31.9891 184.631 31.8893C184.531 31.4901 184.132 31.1907 183.633 31.1907C183.333 31.1907 183.034 31.2905 182.735 31.4901C182.435 31.6897 182.236 31.8893 182.236 32.1887C179.94 39.3743 178.044 42.8673 176.447 42.8673C176.248 42.8673 176.048 42.7675 175.948 42.6677C175.549 42.1687 175.649 41.0709 175.749 39.5739C175.848 38.4761 175.948 37.1787 175.948 35.8813C175.848 33.2865 174.451 31.6897 172.156 31.6897C169.261 31.6897 167.365 34.7835 166.467 36.5799L166.168 37.0789L166.068 36.4801C165.868 34.1847 165.07 31.4901 162.675 31.4901C159.88 31.4901 157.685 34.7835 156.387 37.5779L156.088 38.2765V37.4781C156.287 33.7855 156.387 31.5899 156.487 30.9911C156.587 30.3923 156.487 29.9931 156.287 29.6937C156.088 29.4941 155.788 29.3943 155.19 29.3943C154.291 29.4941 153.792 29.9931 153.094 31.7895C151.996 34.7835 149.102 41.8693 146.707 41.8693C146.208 41.8693 145.908 41.6697 145.609 41.3703C144.611 40.2725 145.01 37.2785 145.609 33.0869V32.7875C145.908 30.7915 145.409 30.3923 144.311 30.1927C144.212 30.1927 144.112 30.1927 144.012 30.1927C143.114 30.1927 142.715 30.9911 141.916 33.2865C140.519 37.3783 138.623 41.5699 136.527 41.5699C136.427 41.5699 136.327 41.5699 136.327 41.5699C135.23 41.3703 135.23 39.6737 135.23 37.5779C135.23 36.3803 135.23 35.0829 135.13 33.9851C134.83 31.8893 133.533 30.5919 131.836 30.4921C128.443 30.4921 126.248 34.7835 125.15 37.3783L124.95 37.9771L124.85 37.3783C124.651 35.6817 124.551 34.0849 124.451 32.3883V32.2885C130.739 24.4043 133.533 18.6158 133.633 13.7256C133.633 10.6318 132.236 8.7356 129.741 8.7356C127.944 8.7356 123.752 10.2326 122.255 24.0051C121.956 26.5999 121.856 29.1947 121.856 31.7895C118.962 35.9811 112.774 43.1667 106.786 43.1667C101.297 43.1667 97.006 38.7755 97.006 30.9911C97.006 20.6118 104.391 14.2246 109.88 14.2246C111.078 14.2246 112.076 14.524 112.874 15.2226C113.673 15.9212 114.072 16.8194 114.072 17.8174C114.072 19.2146 113.573 20.013 113.174 20.7116C113.074 20.9112 112.974 21.1108 112.874 21.3104C112.774 21.51 112.675 21.8094 112.774 22.009C112.874 22.3084 113.273 22.4083 113.772 22.4083C115.07 22.4083 117.066 20.512 117.066 17.6178C117.066 14.6238 114.571 11.53 109.98 11.53C103.094 11.53 93.9122 19.015 93.9122 31.2905C93.9122 39.8733 99.3014 45.8613 106.687 45.8613C111.876 45.8613 117.066 42.1687 121.557 35.8813L121.856 35.4821V35.9811C121.956 38.2765 122.156 40.0729 122.255 41.3703C122.355 42.1687 122.355 42.8673 122.355 43.1667C122.355 43.8653 122.455 44.4641 122.754 44.7635C123.054 45.0629 123.453 45.2625 124.052 45.2625C125.05 45.2625 125.25 44.5639 125.649 42.8673L125.749 42.3683C126.248 40.2725 128.144 33.4861 130.938 33.4861C131.437 33.4861 131.737 33.5859 132.036 33.8853C132.635 34.5839 132.535 35.8813 132.535 37.4781C132.535 38.4761 132.435 39.4741 132.535 40.4721C132.834 43.0669 133.932 44.3643 136.028 44.4641C138.124 44.4641 140.419 42.1687 141.617 40.0729L141.816 39.6737L141.916 40.1727C142.116 41.2705 143.114 45.0629 146.108 45.0629C148.902 45.0629 151.198 42.1687 153.792 36.1807L154.092 35.3823V36.2805C153.992 38.5759 153.892 41.2705 153.892 43.4661C153.892 45.1627 154.092 45.7615 154.79 45.7615H154.99C155.689 45.7615 156.188 45.3623 156.487 44.4641C158.483 37.6777 160.08 34.4841 161.776 34.4841C163.373 34.4841 163.573 37.4781 163.673 42.7675V43.1667C163.673 44.9631 163.772 45.8613 164.97 45.8613C165.868 45.8613 166.068 45.1627 166.467 43.4661C166.567 43.1667 166.667 42.7675 166.766 42.3683C168.363 36.8793 169.661 34.6837 171.257 34.6837C172.655 34.6837 172.755 36.0809 172.755 36.5799C172.854 37.5779 172.754 38.6757 172.555 39.6737C172.455 40.6717 172.355 41.5699 172.355 42.5679C172.455 44.6637 173.653 45.8613 175.649 45.9611C178.343 45.9611 180.639 42.8673 182.735 36.7795L182.834 36.3803L183.034 36.7795C183.433 37.7775 183.932 39.0749 184.331 40.5719V40.6717V40.7715C182.335 45.2625 180.838 50.2526 180.838 52.9472C180.838 56.4402 182.435 58.7356 184.93 58.8354C186.327 58.8354 189.421 58.3364 189.521 53.2466C189.521 51.1508 189.022 48.2566 188.024 44.5639L187.924 44.1647L188.323 44.3643C190.02 44.5639 191.517 45.0629 192.914 45.0629ZM124.651 27.8973C124.751 26.5999 124.85 25.4023 124.95 24.2047C125.948 16.7196 127.944 11.4302 129.94 11.4302C130.838 11.4302 131.337 12.1288 131.337 13.526C131.337 16.9192 129.142 21.8094 124.95 27.9971L124.651 28.4961V27.8973ZM186.826 54.9432C186.527 55.3424 186.128 55.542 185.529 55.542C184.93 55.542 184.431 55.3424 184.132 54.9432C183.234 53.7456 183.533 50.9512 184.93 45.8613C185.13 45.2625 185.329 44.6637 185.529 44.0649L185.729 43.5659L185.828 44.0649C187.525 49.8534 187.924 53.546 186.826 54.9432ZM187.425 39.8733L187.325 39.5739V39.4741C189.222 35.4821 191.517 33.1867 193.413 33.1867C195.609 33.1867 197.106 35.1827 197.106 37.9771C197.106 39.8733 196.307 40.8713 195.609 41.4701C194.81 42.1687 193.812 42.4681 192.715 42.4681C190.12 42.5679 188.423 41.1707 187.425 39.8733ZM64.2715 44.3643C67.2655 44.1647 69.6607 40.0729 70.4591 38.3763L70.6587 37.8773L70.7585 38.3763C71.1577 40.7715 72.5549 44.8633 76.6467 44.9631C78.4431 44.9631 80.4391 43.8653 82.5349 41.7695L82.7345 41.5699L82.8343 41.7695C84.2315 44.0649 86.0279 45.3623 88.0239 45.1627C90.9182 44.9631 92.7146 42.9671 92.8144 41.5699C92.8144 41.1707 92.7146 40.8713 92.515 40.6717C92.2156 40.3723 91.9162 40.3723 91.6168 40.5719L91.517 40.6717C90.8184 41.3703 89.6208 42.5679 88.2236 42.5679C86.5269 42.6677 85.3293 41.6697 84.5309 39.5739V39.4741L84.6307 39.3743C89.2216 33.2865 92.515 24.1049 92.2156 17.9172C92.1158 15.023 91.2176 11.6298 88.1238 11.6298H87.8244C86.6267 11.7296 85.5289 12.2286 84.6307 13.3264C81.7365 16.6198 80.2395 24.6039 80.7385 33.6857C80.8383 35.5819 81.1377 37.3783 81.7365 38.9751V39.0749L81.6367 39.1747C79.9401 41.1707 78.2435 42.2685 76.8463 42.2685C73.5529 42.2685 73.6527 36.7795 73.9521 32.1887C74.0519 31.1907 74.0519 30.5919 73.7525 30.1927C73.5529 29.8933 73.1537 29.7935 72.6547 29.7935H72.5549C71.3573 29.7935 71.1577 29.9931 70.5589 31.7895C69.3613 35.3823 66.8663 41.3703 64.3713 41.3703C63.6727 41.3703 63.1737 41.1707 62.7745 40.6717C61.5769 39.1747 62.4751 35.3823 63.1737 32.2885C63.2735 31.7895 63.4731 31.1907 63.5729 30.6917C63.7725 29.9931 63.6727 29.3943 63.4731 29.0949C63.1737 28.7955 62.6747 28.5959 62.0759 28.6957C60.978 28.7955 60.3792 29.1947 59.98 31.1907L59.8802 31.5899V31.6897C59.3812 30.9911 58.483 30.1927 56.8862 30.1927C56.7864 30.1927 56.5868 30.1927 56.3872 30.1927C54.5908 30.2925 52.5948 31.5899 51.0978 33.3863C49.4012 35.5819 48.503 38.2765 48.8024 41.0709C48.8024 41.1707 48.8024 41.3703 48.9022 41.4701V41.5699L48.8024 41.6697C47.8044 42.7675 46.7066 43.3663 45.7086 43.3663C44.1118 43.3663 43.2136 42.1687 43.2136 40.1727C43.2136 36.7795 45.509 26.6997 45.509 23.0071C45.509 19.1148 43.8124 17.019 40.7186 16.9192C36.3273 16.9192 32.8343 21.9092 29.5409 32.1887C29.2415 33.1867 28.9421 34.1847 28.6427 35.1827L28.1437 36.7795L28.2435 35.1827C28.5429 31.6897 28.7425 28.2965 28.8423 24.8035C29.0419 19.8134 28.3433 16.6198 26.7465 15.023C25.9481 14.1248 24.8503 13.7256 23.3533 13.7256C17.9641 13.7256 15.3693 22.8075 13.4731 29.2945C12.8743 31.1907 11.7764 35.5819 11.0778 38.5759L11.477 37.8773C11.7764 34.0849 12.7745 24.7037 12.6747 19.6138C12.5749 14.1248 10.7784 11.6298 6.78643 11.6298C4.59082 11.6298 3.19361 12.7276 2.29541 13.6258C0.798403 14.9232 0 17.019 0 18.8154C0 19.9132 0.698603 20.9112 1.1976 20.9112C1.49701 20.9112 1.69661 20.4122 1.79641 20.2126C3.09381 16.1208 4.69062 14.1248 6.68663 14.1248C7.58483 14.1248 8.18363 14.4242 8.68263 14.9232C10.2794 16.6198 9.98004 21.3104 9.48104 29.8933C9.38124 32.4881 9.18164 35.6817 8.98204 39.1747C8.98204 39.7735 8.88224 40.3723 8.88224 40.9711C8.68263 43.4661 8.58283 45.3623 9.48104 45.4621C10.6786 45.6617 11.477 45.1627 11.8762 43.9651C12.475 42.1687 13.7725 37.2785 16.3673 28.3963C18.8623 19.9132 20.7585 16.7196 23.1537 16.7196C25.9481 16.7196 26.1477 21.51 25.6487 31.5899C25.5489 33.6857 25.3493 36.1807 25.2495 38.7755C25.2495 39.1747 25.2495 39.4741 25.2495 39.8733C25.1497 42.0689 25.0499 43.7655 25.6487 44.4641C25.8483 44.6637 26.1477 44.7635 26.4471 44.7635C27.6447 44.7635 28.0439 43.6657 28.6427 41.9691C28.7425 41.6697 28.8423 41.3703 28.9421 40.9711C33.0339 29.5939 36.1277 19.7136 40.2196 19.7136C41.4172 19.7136 42.4152 20.7116 42.4152 22.7077C42.4152 27.1987 40.2196 35.8813 40.2196 40.2725C40.2196 41.8693 40.7186 43.2665 41.517 44.2645C42.4152 45.2625 43.6128 45.8613 45.1098 45.8613C46.507 45.8613 47.9042 45.1627 49.4012 43.8653L49.501 43.7655L49.6008 43.8653C50.5988 45.1627 52.0958 45.8613 53.7924 45.6617C56.3872 45.4621 58.483 43.1667 59.2814 41.0709L59.481 40.6717L59.6806 41.0709C60.2794 42.6677 61.5769 44.6637 64.2715 44.3643ZM87.7246 14.6238C88.024 14.6238 88.3233 14.7236 88.523 15.023C89.521 16.4202 89.521 21.4102 87.8244 27.0989C86.8263 30.3923 85.5289 33.3863 83.9321 35.9811L83.6327 36.3803L83.5329 35.8813C83.3333 34.4841 83.2335 33.0869 83.2335 31.8893C82.9341 23.3065 85.5289 14.7236 87.7246 14.6238ZM59.481 34.6837C58.5828 38.2765 56.8862 42.5679 53.7924 42.8673H53.493C52.1956 42.8673 51.497 42.0689 51.3972 40.3723C51.1976 38.2765 52.0958 35.8813 53.6926 34.1847C54.6906 33.0869 55.7884 32.4881 56.7864 32.4881C58.1836 32.5879 59.0818 33.5859 59.481 34.6837ZM73.7525 21.51C72.6547 21.51 71.6567 22.4082 71.6567 23.5061C71.6567 24.6039 72.5549 25.5021 73.6527 25.5021V25.7017V25.5021C74.7505 25.5021 75.6487 24.6039 75.7485 23.5061C75.8483 22.4082 74.9501 21.51 73.7525 21.51ZM145.309 21.51C144.212 21.51 143.214 22.4082 143.214 23.5061C143.214 24.6039 144.112 25.5021 145.21 25.5021V25.7017V25.5021C146.307 25.5021 147.305 24.6039 147.305 23.5061C147.405 22.4082 146.507 21.51 145.309 21.51Z" fill="#377dff"/>
</svg>
