<svg width="400" height="90" viewBox="0 0 400 90" fill="none" xmlns="http://www.w3.org/2000/svg">
<g clip-path="url(#clip0)">
<path d="M-0.000186371 44.8989C-0.0395371 20.108 20.0293 0.0784425 44.9383 -0.000258939C69.8473 -0.0789604 90.0343 20.108 89.9949 44.9383C89.9949 69.8079 69.8473 89.9555 44.9777 89.9161C20.1474 89.9161 -0.000186371 69.7686 -0.000186371 44.8989ZM22.6265 56.1532C22.8232 58.8684 22.9019 61.623 23.2167 64.3382C23.5315 66.9353 22.9413 66.3451 25.5384 66.6205C31.7952 67.3682 38.17 67.2501 44.3874 66.227C51.1951 65.0858 57.5699 62.8428 63.1577 58.6717C69.0997 54.225 72.5625 48.3618 72.5625 40.8458C72.5625 33.0937 69.2964 26.8369 63.1577 22.1148C55.6417 16.3303 45.4499 15.74 37.6191 20.6195C32.6609 23.7282 29.4341 28.411 27.0338 33.6053C23.8463 40.8064 22.7445 48.3618 22.6265 56.1532Z" fill="#4264FA"/>
<path d="M120.216 29.749C126.788 21.446 139.026 23.8464 143.433 31.874C144.181 30.7722 145.007 29.7097 145.834 28.7259C149.69 24.6334 155.435 23.4529 160.826 25.6172C166.099 27.7422 169.523 32.5823 169.562 38.0914C169.601 46.2763 169.601 54.4219 169.601 62.6069C169.601 63.8268 169.208 64.1809 168.027 64.1809H162.164C160.866 64.1809 160.511 63.7874 160.511 62.4495V41.0033C160.511 38.3275 159.606 36.0452 157.521 34.3137C153.271 30.8115 147.447 32.661 145.519 38.1307C145.125 39.1932 144.929 40.3344 144.929 41.4756C144.889 48.3226 144.968 55.1696 145.007 62.0166C145.007 63.9055 144.771 64.1416 142.961 64.1416H137.727C136.311 64.1416 135.996 63.8268 135.996 62.4495V41.2001C135.996 39.0358 135.445 37.0683 134.068 35.3762C130.29 30.8509 123.679 31.8346 121.279 37.3831C120.649 38.8391 120.334 40.3737 120.295 41.9871C120.177 48.7554 120.256 55.5631 120.256 62.3314C120.256 63.9448 120.02 64.1809 118.367 64.1809H112.818C111.677 64.1809 111.284 63.7874 111.284 62.6462V26.9945C111.284 25.8927 111.677 25.5385 112.74 25.5385C114.747 25.5385 116.793 25.5385 118.8 25.5385C119.862 25.5385 120.216 25.932 120.256 26.9945V28.3324C120.216 28.3324 120.216 29.1981 120.216 29.749Z" fill="#4364FA"/>
<path d="M285.253 30.0247C286.631 29.0016 287.85 27.9785 289.228 27.1521C297.334 22.3513 307.486 24.3976 313.31 31.9529C320.63 41.3971 318.505 55.4846 308.824 62.0169C301.741 66.8176 292.297 66.1093 286.04 60.2461L285.253 59.4984V62.4104C285.253 63.827 284.899 64.1811 283.561 64.1811H277.895C276.596 64.1811 276.203 63.7876 276.203 62.4891V41.6332V11.8053C276.203 10.192 276.478 9.9165 278.091 9.9165H283.64C284.899 9.9165 285.253 10.2707 285.253 11.5299V28.8442C285.253 29.2377 285.253 29.6312 285.253 30.0247ZM308.706 44.8993C308.588 43.9942 308.549 43.0892 308.352 42.1841C306.857 34.9042 299.183 30.7724 292.494 33.645C286.749 36.1241 283.837 42.9711 285.962 49.0705C287.811 54.3041 292.533 57.3341 297.413 57.0587C303.945 56.6652 308.628 51.4315 308.706 44.8993ZM236.695 30.0641L237.363 29.4738C246.611 21.4069 259.715 23.4925 266.05 34.0385C271.677 43.3646 269.119 55.7207 260.305 61.8988C253.419 66.6996 244.132 66.188 237.796 60.6789C237.442 60.3641 237.088 60.0887 236.616 59.6558C236.576 60.2067 236.576 60.5609 236.576 60.915V77.9145C236.576 79.6066 236.34 79.8427 234.648 79.8427H229.021C227.919 79.8427 227.565 79.4492 227.565 78.3868V27.0341C227.565 25.9716 227.959 25.5781 229.06 25.5781C231.067 25.5781 233.035 25.5781 235.042 25.5781C236.222 25.5781 236.576 25.9716 236.616 27.1915C236.616 28.0572 236.616 28.9623 236.655 29.828C236.655 29.9067 236.655 29.9854 236.695 30.0641ZM236.537 44.8993C236.616 45.7257 236.695 46.5914 236.852 47.4177C237.914 53.7139 243.935 57.9637 250.231 56.9013C251.805 56.6258 253.3 56.0355 254.638 55.1698C259.872 51.7463 261.564 44.309 258.377 38.7212C255.347 33.4482 249.287 31.3626 243.856 33.645C239.488 35.4945 236.616 39.9411 236.537 44.8993ZM208.087 30.2608V26.9554C208.087 26.0109 208.559 25.5781 209.464 25.5781H215.721C216.626 25.5781 217.098 26.0503 217.098 26.9554V62.0956C217.098 64.0631 216.901 64.2598 214.973 64.2598H209.818C208.401 64.2598 208.087 63.945 208.087 62.5678V59.7345C207.968 59.7739 207.85 59.8132 207.732 59.8919C198.406 68.9819 183.374 66.2274 177.55 53.8319C172.946 44.0336 176.685 32.0316 185.893 26.916C192.74 23.099 201.24 24.0828 207.063 29.3558C207.378 29.5919 207.654 29.828 208.087 30.2608ZM208.087 44.6238C208.047 44.2697 208.008 43.6007 207.929 42.9318C207.142 36.2028 200.413 31.4807 193.802 33.0154C187.034 34.5894 183.02 42.066 185.342 48.8737C187.034 53.8713 191.874 57.3735 196.675 57.0587C203.168 56.6652 208.008 51.5496 208.087 44.6238ZM363.364 44.8599C363.404 55.9962 354.117 65.1649 342.745 65.2043C331.372 65.2436 321.967 56.1536 321.928 44.9386C321.889 33.7237 331.176 24.555 342.587 24.555C353.999 24.555 363.325 33.645 363.364 44.8599ZM354.392 44.8599C354.235 43.8368 354.156 42.7744 353.881 41.7906C352.346 35.6125 346.208 31.6381 340.305 32.976C333.261 34.5501 329.208 41.9873 331.569 48.9524C333.3 53.95 338.101 57.4128 342.941 57.098C349.356 56.6652 354.392 51.3135 354.392 44.8599Z" fill="#4365FA"/>
<path d="M382.765 37.7765C384.929 34.1562 387.054 30.6933 389.021 27.1911C389.73 25.9319 390.595 25.4203 392.012 25.499C394.137 25.6171 396.262 25.499 398.387 25.5384C398.898 25.5384 399.371 25.7745 399.725 26.1286C399.921 26.4041 399.685 27.1124 399.449 27.4666C395.868 32.9757 392.248 38.4848 388.588 43.9545C388.195 44.4267 388.195 45.0957 388.588 45.5285C392.209 50.9589 395.829 56.4287 399.41 61.8984C399.607 62.1345 399.764 62.41 399.882 62.6461C400.197 63.4331 399.803 64.1021 398.938 64.1414C396.341 64.1808 393.743 64.2201 391.146 64.1021C390.595 64.0627 389.887 63.4725 389.572 62.9216C387.447 59.5374 385.401 56.0745 383.355 52.6117C383.197 52.3362 383.04 52.1001 382.804 51.746L378.239 59.4193C377.492 60.6392 376.744 61.8197 376.036 63.079C375.642 63.866 374.855 64.3382 373.989 64.2595C371.628 64.2201 369.267 64.2595 366.906 64.2201C366.473 64.2201 365.844 63.984 365.647 63.6692C365.49 63.3544 365.647 62.6855 365.922 62.3313C369.543 56.7828 373.163 51.2738 376.823 45.7647C377.255 45.0957 377.295 44.6628 376.823 43.9939C373.242 38.6028 369.661 33.2118 366.159 27.7814C365.883 27.3485 365.647 26.6009 365.844 26.168C366.001 25.8532 366.788 25.6564 367.3 25.6564C369.464 25.6171 371.628 25.6564 373.793 25.6171C374.973 25.5777 375.721 26.0499 376.311 27.0731C378.239 30.3785 380.207 33.6053 382.174 36.8714C382.332 37.1075 382.528 37.3829 382.765 37.7765Z" fill="#4364FA"/>
<path d="M63.6301 39.744C60.7575 41.1606 58.0817 42.4198 55.4452 43.7578C54.8943 44.0726 54.4614 44.5054 54.1859 45.0563C52.848 47.6928 51.5494 50.3687 50.2115 53.1626C49.7787 52.2575 49.3852 51.5099 48.9916 50.7228C48.4014 49.503 47.6931 48.3618 47.2602 47.0632C46.5126 44.7809 44.9385 43.443 42.7349 42.6166C40.7673 41.8689 38.9179 40.8065 36.8323 39.8227C37.1864 39.6259 37.4225 39.4292 37.6586 39.3505C40.0197 38.2093 42.3807 37.0288 44.7418 35.927C45.4501 35.6122 46.001 35.0613 46.3158 34.3529C47.5357 31.7558 48.8342 29.1586 50.1722 26.3647C51.1559 28.3323 52.1791 30.1031 52.8874 31.9919C53.6744 34.3923 55.5632 36.2811 58.003 37.0681C59.8524 37.7371 61.6232 38.7602 63.6301 39.744Z" fill="#4365FA"/>
</g>
<defs>
<clipPath id="clip0">
<rect width="400" height="89.9164" fill="white"/>
</clipPath>
</defs>
</svg>
