<svg width="400" height="400" viewBox="0 0 400 400" fill="none" xmlns="http://www.w3.org/2000/svg">
<path d="M0 200C0 310.547 89.4531 400 200 400C310.547 400 400 310.547 400 200C400 89.4531 310.547 0 200 0C89.4531 0 0 89.4531 0 200Z" fill="black"/>
<path d="M291.797 108.203C251.953 68.75 189.062 67.1875 150.781 105.078C82.4217 173.828 104.297 295.703 104.297 295.703C104.297 295.703 226.562 317.578 294.922 249.219C332.812 210.938 331.64 147.656 291.797 108.203ZM242.578 196.484L223.047 236.719L203.515 196.484L163.281 176.953L203.515 157.422L223.047 117.188L242.578 157.422L282.812 176.953L242.578 196.484Z" fill="white"/>
</svg>
