<svg width="201" height="67" viewBox="0 0 201 67" fill="none" xmlns="http://www.w3.org/2000/svg">
<g clip-path="url(#clip0)">
<path fill-rule="evenodd" clip-rule="evenodd" d="M136 0H112.2L111.5 1.2L123.4 1.8C123.5 1.8 123.5 2 123.3 2L110.7 2.4L109.5 4.5L121.3 5.2C121.5 5.2 121.4 5.4 121.3 5.4L108.7 5.8L107.5 7.8L119.3 8.5C119.6 8.5 119.6 8.7 119.3 8.7L106.7 9.1L105.5 11.2L117.3 11.9C117.6 11.9 117.5 12.2 117.3 12.2L105 12.8L103.8 14.9L115.6 15.6C115.8 15.6 115.8 15.8 115.6 15.8L79.3 17L113.7 18.9C113.9 18.9 113.9 19.2 113.7 19.2L77.4 20.5L111.8 22.4C112 22.4 112 22.7 111.8 22.7L75.4 24L109.8 25.9C109.9 25.9 110.1 26.2 109.8 26.2L73.5 27.5L107.9 29.4C108 29.4 108.1 29.7 107.9 29.7L89.6 30.4L89.7 32L106 32.9C106.1 32.9 106.2 33.2 106 33.2L89.8 33.8L89.9 35.6L104 36.4C104.1 36.4 104.2 36.7 104 36.7L90 37.2L90.1 39.2L102.1 39.9C102.2 39.9 102.3 40.2 102 40.2L90.1 40.6L90.2 42.8L100.1 43.4C100.2 43.4 100.2 43.7 100 43.7L90 43.9V44.9H122.1C130.6 44.9 138.2 38.7 139.7 33.8C141.1 28.9 141.1 24.4 134.3 22.2C138.1 21.3 144.8 17 146.1 11.1C147.3 5.5 145.3 0 136 0ZM119.9 34.5H110L115.6 24.6H122.9C130.5 24.7 126.8 34.5 119.9 34.5ZM132.6 13.4C132.3 14.6 129.9 17.6 126.9 17.6H119.6L124.3 9.3H128C132.8 9.5 133 12.2 132.6 13.4ZM172.1 59.1C172.1 55.3 168.9 52.1 165.1 52.1C161.2 52.1 158 55.4 158 59.3C158 63.2 161.2 66.4 165.1 66.4C165.1 66.4 165.1 66.4 165.2 66.4C168.1 66.4 170.9 64.4 171.7 61.7H168C167.3 62.8 166.3 63.4 165 63.4C163.4 63.4 161.9 62.3 161.4 60.7H172C172.1 60 172.1 59.6 172.1 59.1ZM161.4 58.2C161.9 56.3 163.4 55.1 165.2 55.1C167 55.1 168.5 56.3 168.9 58.2H161.4ZM125.1 52.8V53.9C124.1 52.8 122.5 52.1 120.9 52.1C117.3 52.1 114.3 55.2 114.3 59.1C114.3 62.8 117 66.2 121 66.2C122.8 66.2 124.1 65.8 125.4 64.4V66.2H128.4V52.8H125.1ZM121.4 63.4C119.1 63.4 117.2 61.5 117.2 59.2C117.2 56.9 119.1 55 121.4 55C123.7 55 125.6 56.9 125.6 59.2C125.6 61.6 123.7 63.4 121.4 63.4ZM34.9 52.1C33.5 52.1 32.5 52.6 31.4 53.7V52.4H28.3V66.1H31.6V59.6C31.6 57.8 31.7 55 34.2 55C36.5 55 36.7 57.6 36.7 59.3V66H40V58.6C40 56.7 39.9 55.7 39.3 54.7C38.5 53.2 36.7 52.1 34.9 52.1ZM55.4 59.1C55.4 55.3 52.2 52.1 48.4 52.1C44.5 52.1 41.3 55.4 41.3 59.3C41.3 63.2 44.5 66.4 48.4 66.4C48.4 66.4 48.4 66.4 48.5 66.4C51.4 66.4 54.2 64.4 55 61.7H51.4C50.7 62.8 49.7 63.4 48.4 63.4C46.8 63.4 45.3 62.3 44.8 60.7H55.3C55.3 60 55.4 59.6 55.4 59.1ZM44.6 58.2C45.1 56.3 46.6 55.1 48.4 55.1C50.2 55.1 51.7 56.3 52.1 58.2H44.6ZM109.7 66.2H113V47.8H109.7V66.2ZM137.1 52.1C135.7 52.1 134.7 52.6 133.6 53.7V52.4H130.5V66.1H133.8V59.6C133.8 57.8 133.9 55 136.4 55C138.7 55 138.9 57.6 138.9 59.3V66H142.2V58.6C142.2 56.7 142.1 55.7 141.5 54.7C140.8 53.2 139 52.1 137.1 52.1ZM150.5 55.1C152 55.1 152.9 55.6 153.7 57H157.4C156.4 54 153.8 52.1 150.6 52.1C146.6 52.1 143.4 55.3 143.4 59.2C143.4 63.2 146.7 66.4 150.6 66.4C152.7 66.4 154.6 65.5 156 64C156.7 63.2 156.9 62.8 157.4 61.6H153.7C152.9 62.8 151.9 63.4 150.7 63.4C148.4 63.4 146.7 61.6 146.7 59.2C146.6 56.9 148.3 55.1 150.5 55.1ZM68 60.8L65.7 52.4H63L60.6 60.8L57.8 52.4H54.9L59.5 66.1H61.6L64.3 57.2L66.9 66.1H69.1L73.5 52.4H70.8L68 60.8ZM85.7 52.1C84.1 52.1 82.6 52.7 81.5 53.9V47.9H78.2V66.2H81.2V64.4C82.5 65.8 83.8 66.2 85.6 66.2C89.6 66.2 92.3 62.8 92.3 59.1C92.3 55.2 89.2 52.1 85.7 52.1ZM85.2 63.4C82.9 63.4 81 61.5 81 59.2C81 56.9 82.9 55 85.2 55C87.5 55 89.4 56.9 89.4 59.2C89.4 61.6 87.5 63.4 85.2 63.4ZM104.2 52.8V53.9C103.2 52.8 101.6 52.1 100 52.1C96.4 52.1 93.4 55.2 93.4 59.1C93.4 62.8 96.1 66.2 100.1 66.2C101.9 66.2 103.2 65.8 104.5 64.4V66.2H107.5V52.8H104.2ZM100.5 63.4C98.2 63.4 96.3 61.5 96.3 59.2C96.3 56.9 98.2 55 100.5 55C102.8 55 104.7 56.9 104.7 59.2C104.6 61.6 102.8 63.4 100.5 63.4Z" fill="#21325B"/>
</g>
<defs>
<clipPath id="clip0">
<rect width="200.4" height="66.5" fill="white"/>
</clipPath>
</defs>
</svg>
