<svg width="201" height="67" viewBox="0 0 201 67" fill="none" xmlns="http://www.w3.org/2000/svg">
<g clip-path="url(#clip0)">
<path fill-rule="evenodd" clip-rule="evenodd" d="M57.8 40.7C56.8 40.7 56 41.4 56 42.4C56 43.4 56.8 44.1 57.8 44.1C58.8 44.1 59.6 43.4 59.6 42.4C59.6 41.4 58.8 40.7 57.8 40.7ZM57.8 43.7C57.1 43.7 56.5 43.2 56.5 42.5C56.5 41.8 57 41.3 57.8 41.3C58.5 41.3 59.1 41.8 59.1 42.5C59.1 43.1 58.5 43.7 57.8 43.7ZM75.4 34.6H66.6L67.6 19.3L61.9 34.6H53.7L66.7 0H75.4L74.4 15.5L80.2 0H88.4L75.4 34.6ZM76.5 34.6L89.4 0H97.6L84.6 34.6H76.5Z" fill="#21325B"/>
<path fill-rule="evenodd" clip-rule="evenodd" d="M52.8 22.7C41.4 36.1 30.6 53.9 40.1 62.1C49.3 70.1 60.8 65.3 68.7 62.2C76.6 59.1 163.4 21.3 163.4 21.3C164.2 20.9 164.1 20.4 163 20.6C162.6 20.7 68.5 46.2 68.5 46.2C56.6 49.7 42.9 42.3 52.8 22.7Z" fill="#21325B"/>
<path fill-rule="evenodd" clip-rule="evenodd" d="M140.3 1.8C140.6 1.8 140.8 1.7 140.8 1.3C140.8 0.8 140.5 0.7 140 0.7H139.3V2.6H139.8V1.8H139.9L140.3 2.6H140.8L140.3 1.8ZM140 1.5H139.7V1H139.9C140 1 140.2 1 140.2 1.2C140.2 1.4 140.1 1.5 140 1.5ZM134.6 5.8L136.8 0H111.9L103.3 10.4L107.3 0H99L86.1 34.6H94.3L99.8 20.1L100.2 34.6L125.3 34.5L127.7 27.9H118.2L121.3 19.5H129.2L131.6 13.1H123.7L126.4 5.8H134.6ZM108.2 32.3L107.7 14.3L120.1 0.7L108.2 32.3Z" fill="#21325B"/>
</g>
<defs>
<clipPath id="clip0">
<rect width="200.4" height="66.5" fill="white"/>
</clipPath>
</defs>
</svg>
