<svg width="400" height="400" viewBox="0 0 400 400" fill="none" xmlns="http://www.w3.org/2000/svg">
<g clip-path="url(#clip0)">
<path d="M127.346 386.446L134.276 342.434L118.841 342.076H45.1374L96.3574 17.3073C96.5099 16.315 97.0139 15.4105 97.7775 14.7588C98.5411 14.107 99.5136 13.7514 100.518 13.7567H224.792C266.048 13.7567 294.52 22.3419 309.385 39.2872C316.354 47.2365 320.793 55.5435 322.939 64.6852C325.191 74.2773 325.231 85.7376 323.032 99.7151L322.873 100.735V109.691L329.842 113.64C335.162 116.335 339.944 119.981 343.952 124.398C349.914 131.194 353.769 139.833 355.399 150.074C357.081 160.607 356.525 173.14 353.769 187.33C350.589 203.652 345.449 217.868 338.506 229.501C332.381 239.921 324.145 248.947 314.327 255.998C305.106 262.543 294.149 267.512 281.762 270.691C269.758 273.818 256.072 275.395 241.061 275.395H231.39C224.474 275.395 217.756 277.885 212.483 282.35C207.218 286.863 203.725 293.098 202.626 299.945L201.898 303.906L189.656 381.478L189.099 384.327C188.953 385.227 188.702 385.678 188.331 385.983C187.971 386.277 187.523 386.44 187.059 386.446H127.346Z" fill="#253B80"/>
<path d="M336.44 101.769C336.069 104.14 335.645 106.565 335.168 109.056C318.779 193.199 262.71 222.267 191.1 222.267H154.639C145.882 222.267 138.502 228.626 137.137 237.265L118.47 355.656L113.183 389.216C112.973 390.547 113.053 391.908 113.419 393.205C113.785 394.502 114.428 395.704 115.303 396.729C116.178 397.754 117.265 398.577 118.488 399.142C119.712 399.707 121.044 399.999 122.391 400H187.059C194.717 400 201.222 394.436 202.428 386.884L203.064 383.598L215.239 306.331L216.021 302.091C217.213 294.513 223.732 288.948 231.39 288.948H241.061C303.715 288.948 352.762 263.511 367.097 189.9C373.086 159.15 369.986 133.473 354.14 115.415C349.118 109.829 343.12 105.205 336.44 101.769V101.769Z" fill="#179BD7"/>
<path d="M319.295 94.9324C314.063 93.4186 308.739 92.2371 303.357 91.3949C292.723 89.7606 281.975 88.9764 271.215 89.0499H173.81C170.103 89.047 166.517 90.3704 163.701 92.7809C160.885 95.1913 159.024 98.5298 158.455 102.193L137.733 233.436L137.137 237.265C137.783 233.087 139.902 229.278 143.113 226.527C146.323 223.776 150.411 222.265 154.639 222.267H191.1C262.71 222.267 318.779 193.186 335.168 109.056C335.658 106.565 336.069 104.14 336.439 101.769C332.115 99.5009 327.608 97.5997 322.965 96.085C321.748 95.6812 320.525 95.2969 319.295 94.9324V94.9324Z" fill="#222D65"/>
<path d="M158.455 102.193C159.019 98.5287 160.879 95.1887 163.697 92.7795C166.515 90.3702 170.103 89.0516 173.81 89.0631H271.216C282.755 89.0631 293.527 89.8183 303.357 91.4082C310.01 92.4537 316.57 94.0174 322.979 96.085C327.815 97.6881 332.306 99.5827 336.453 101.769C341.328 70.6737 336.413 49.5021 319.6 30.331C301.065 9.22565 267.612 0.189941 224.805 0.189941H100.531C91.7866 0.189941 84.3275 6.54938 82.9761 15.2009L31.2129 343.308C30.9718 344.832 31.0635 346.389 31.4818 347.874C31.9 349.358 32.6349 350.734 33.6358 351.908C34.6367 353.081 35.8799 354.024 37.2799 354.671C38.6799 355.318 40.2034 355.654 41.7457 355.656H118.47L137.734 233.436L158.455 102.193Z" fill="#253B80"/>
</g>
<defs>
<clipPath id="clip0">
<rect width="400" height="400" fill="white"/>
</clipPath>
</defs>
</svg>
