<svg width="400" height="400" viewBox="0 0 400 400" fill="none" xmlns="http://www.w3.org/2000/svg">
<path d="M200 200C172.5 200 150 177.5 150 150C150 122.5 172.25 100 200 100C227.5 100 250 122.25 250 150C250 177.75 227.75 200 200 200ZM200 0C117.25 0 50 67.25 50 150C50 233 117.25 300 200 300C282.75 300 350 233 350 150.25C350 150.25 350 150.25 350 150C350 67.25 283 0 200 0Z" fill="#5C54FF"/>
<path fill-rule="evenodd" clip-rule="evenodd" d="M100 300C72.5 300 50 322.25 50 350C50 377.5 72.25 400 100 400C127.5 400 150 377.75 150 350C150 322.25 127.75 300 100 300Z" fill="#5C54FF"/>
</svg>
