<svg width="201" height="67" viewBox="0 0 201 67" fill="none" xmlns="http://www.w3.org/2000/svg">
<g clip-path="url(#clip0)">
<path fill-rule="evenodd" clip-rule="evenodd" d="M109.2 0.499998L110 2.2C112.5 2.4 115 3 117.1 4.2C118.7 5 120.1 6.2 121.8 6.8C121.8 7 121.8 7.2 121.8 7.4H122.2L129.7 13.3C131.1 14.6 132.5 15.9 134.1 16.8V17.5H134.6C137.9 19.8 141.6 21.7 146 20.9C148.4 20.4 150.8 18.4 151.8 16.1L155.6 7.8C156.9 5.2 159.5 2.7 162 1.1C162.9 0.699998 164.1 0.199998 165.1 0.799998C165.9 1.3 166.2 2.2 166.2 3.2C166.1 4.7 164.9 6.2 163.5 6.7C161.7 7.8 159.6 8.3 158 9.9C157.2 11.1 156 12.2 155.4 13.4C154.5 15.2 153.9 17 153.1 18.9H153L152.3 20.4C151.3 21.7 150 23 148.6 23.8L148.5 24.2C150.3 27 151 30.3 151.5 33.7C151.6 35.4 151.2 37.3 151.8 38.8C151.9 39.1 152.2 39.5 152.4 39.8V40.4L154.7 42.2C155.3 44.5 156.7 46.5 156.4 49.1C156.1 50.2 156 51.6 156.2 52.8C155.9 53.2 155.4 53 155 53C153.7 52.8 152.2 52.1 151.9 50.7C151.7 48.8 151.7 46.8 151.6 44.9L147 40.9C145.9 39.6 145.2 38.1 144 36.8L143.3 35.6L140.4 28.8C139.4 27.2 137.7 26.1 135.8 25.9L129.3 25.3C126.7 24.7 124.3 23.6 122.1 22.1C120.3 20.8 118.8 18.9 117 17.6H116.3C115 19 113.2 19.5 111.3 19.3C108.5 19.1 106.3 17.4 103.6 16.9C103.4 17.4 103.3 18 103.1 18.6C102.1 18.7 100.8 19 100 18.1C99.4 17.4 99.3 16.4 99.5 15.6C100.2 13.8 102.2 13.1 104 13C105.4 12.9 106.8 13.3 108.2 13.2L108.4 13.1L108.1 11.7L107 10.7L104 11L101.1 8.8L100.6 8.2V6.7L101.8 5.3L102.4 3.9L104.4 2.2L105.3 0.499998C106 0.299998 106.4 0.799998 107 1.1L107.7 0.899998L108.5 0.0999985H109.2V0.499998ZM52.1 34.1C53.5 34.3 55.1 34.5 55.6 36L55.7 36.7V54.2C55.6 55.6 55.2 57.2 53.7 57.8C53 58.1 52.2 58.2 51.3 58.2H43.3V65.9H34.1V34.1H52.1ZM67.4 53.1L67.2 54.5V60.3C67.2 60.9 67.4 61.4 68 61.7C68.5 61.9 69 61.8 69.4 61.5C69.9 61.1 70 60.5 70 59.8V34.1H79V45.4L78.8 47V62.3C78.7 63.5 78.5 64.8 77.3 65.4C76.4 65.8 75.3 65.9 74.2 65.9H62.1C61 65.8 59.7 65.7 59 64.6C58.5 63.7 58.4 62.6 58.4 61.4V34.1H67.6L67.4 53.1ZM110.3 34.1C111.6 34.2 113.1 35 113.4 36.4C113.7 37.4 113.7 38.8 113.4 39.8V46.3L113.6 47.5V65.9H104.7V49.4L104.9 48.6V41C104.8 40.4 104.6 39.8 104.7 39.1C104.6 38.7 104.3 38.4 104 38.3C103.5 38.1 102.9 38.2 102.6 38.5C101.9 39 102.3 40 102.2 40.8L101.9 41.2V50.1L102.1 50.9V66H93.3V54.4L93.6 53.3V42.4L93.3 41.7V38.9C93.2 38.5 92.8 38.1 92.4 38C91.9 38 91.3 38 90.9 38.4C90.6 38.7 90.7 39.2 90.7 39.7C90.7 40.8 90.8 41.9 90.4 42.8V55.4L90.6 56.5V65.8H81.9V45L81.7 44V36.4C81.8 35.4 82.7 34.6 83.6 34.4C84.2 34.2 84.7 34.1 85.3 34.1H110.3Z" fill="#21325B"/>
<path fill-rule="evenodd" clip-rule="evenodd" d="M133.2 34.1C134.4 34.3 135.6 34.5 136.2 35.6L136.3 36.2C136.3 38 136.2 40.3 136.6 41.8V65.8H127.7V58.1H125.3V65.8H116.1V46.8L116.3 46V39.5C116 38.5 116.2 37.3 116.1 36.3C116.5 35.1 117.8 34 119 34H133.2V34.1Z" fill="#21325B"/>
<path fill-rule="evenodd" clip-rule="evenodd" d="M46.1 38.3C46.3 38.7 46.4 39.2 46.4 39.7V52.4C46.3 53 46.1 53.6 45.5 53.9C44.9 54.2 44.1 54.2 43.4 54.2V37.5C44.4 37.4 45.6 37.3 46.1 38.3ZM127.9 38.7L128 39C128 40.7 128.1 42.9 127.7 44.2V54.2H125.3V44.8L124.9 43.6V39.3C124.9 38.8 125.5 38.3 126 38.1C126.8 37.9 127.5 38.1 127.9 38.7ZM63 65.1C63.2 65.1 63.4 64.9 63.4 64.7V59.7C63.4 59.5 63.2 59.3 63 59.3C62.8 59.3 62.6 59.5 62.6 59.7V64.7C62.6 64.9 62.8 65.1 63 65.1ZM61.4 65.1C61.6 65.1 61.8 64.9 61.8 64.7V62.8C61.8 62.6 61.6 62.4 61.4 62.4C61.2 62.4 61 62.6 61 62.8V64.7C61 64.9 61.1 65.1 61.4 65.1ZM67.8 65.1C68 65.1 68.2 64.9 68.2 64.7V62.8C68.2 62.6 68 62.4 67.8 62.4C67.6 62.4 67.4 62.6 67.4 62.8V64.7C67.4 64.9 67.6 65.1 67.8 65.1ZM69.6 65.1C69.8 65.1 70 64.9 70 64.7V62.8C70 62.6 69.8 62.4 69.6 62.4C69.4 62.4 69.2 62.6 69.2 62.8V64.7C69.2 64.9 69.4 65.1 69.6 65.1ZM64.5 65.1C64.7 65.1 64.9 64.9 64.9 64.7V57.4C64.9 57.2 64.7 57 64.5 57C64.3 57 64.1 57.2 64.1 57.4V64.7C64.1 64.9 64.3 65.1 64.5 65.1ZM66 65.1C66.2 65.1 66.4 64.9 66.4 64.7V55C66.4 54.8 66.2 54.6 66 54.6C65.8 54.6 65.6 54.8 65.6 55V64.7C65.6 64.9 65.8 65.1 66 65.1ZM71.4 65.1C71.6 65.1 71.8 64.9 71.8 64.7V55C71.8 54.8 71.6 54.6 71.4 54.6C71.2 54.6 71 54.8 71 55V64.7C71 64.9 71.2 65.1 71.4 65.1ZM73 65.1C73.2 65.1 73.4 64.9 73.4 64.7V50.2C73.4 50 73.2 49.8 73 49.8C72.8 49.8 72.6 50 72.6 50.2V64.7C72.6 64.9 72.8 65.1 73 65.1ZM74.5 65.1C74.7 65.1 74.9 64.9 74.9 64.7V49.5C74.9 49.3 74.7 49.1 74.5 49.1C74.3 49.1 74.1 49.3 74.1 49.5V64.7C74.1 64.9 74.3 65.1 74.5 65.1ZM76 65.1C76.2 65.1 76.4 64.9 76.4 64.7V48.5C76.4 48.3 76.2 48.1 76 48.1C75.8 48.1 75.6 48.3 75.6 48.5V64.7C75.6 64.9 75.8 65.1 76 65.1ZM77.5 65.1C77.7 65.1 77.9 64.9 77.9 64.7V47.8C77.9 47.6 77.7 47.4 77.5 47.4C77.3 47.4 77.1 47.6 77.1 47.8V64.7C77.1 64.9 77.2 65.1 77.5 65.1ZM83 65.1C83.2 65.1 83.4 64.9 83.4 64.7V45C83.4 44.8 83.2 44.6 83 44.6C82.8 44.6 82.6 44.8 82.6 45V64.7C82.6 64.9 82.8 65.1 83 65.1ZM84.5 65.1C84.7 65.1 84.9 64.9 84.9 64.7V44.6C84.9 44.4 84.7 44.2 84.5 44.2C84.3 44.2 84.1 44.4 84.1 44.6V64.7C84.1 64.9 84.3 65.1 84.5 65.1ZM86.1 65.1C86.3 65.1 86.5 64.9 86.5 64.7V44.1C86.5 43.9 86.3 43.7 86.1 43.7C85.9 43.7 85.7 43.9 85.7 44.1V64.7C85.7 64.9 85.9 65.1 86.1 65.1ZM87.6 57.8C87.8 57.8 88 57.6 88 57.4V43.7C88 43.5 87.8 43.3 87.6 43.3C87.4 43.3 87.2 43.5 87.2 43.7V57.4C87.2 57.6 87.4 57.8 87.6 57.8ZM89.2 56.6C89.4 56.6 89.6 56.4 89.6 56.2V43.6C89.6 43.4 89.4 43.2 89.2 43.2C89 43.2 88.8 43.4 88.8 43.6V56.2C88.8 56.4 88.9 56.6 89.2 56.6ZM94.5 53.2C94.7 53.2 94.9 53 94.9 52.8V42.6C94.9 42.4 94.7 42.2 94.5 42.2C94.3 42.2 94.1 42.4 94.1 42.6V52.8C94.1 53.1 94.3 53.2 94.5 53.2ZM96.1 52.8C96.3 52.8 96.5 52.6 96.5 52.4V42.4C96.5 42.2 96.3 42 96.1 42C95.9 42 95.7 42.2 95.7 42.4V52.4C95.7 52.6 95.8 52.8 96.1 52.8ZM97.6 52.1C97.8 52.1 98 51.9 98 51.7V41.9C98 41.7 97.8 41.5 97.6 41.5C97.4 41.5 97.2 41.7 97.2 41.9V51.7C97.2 51.9 97.4 52.1 97.6 52.1ZM99.1 51.4C99.3 51.4 99.5 51.2 99.5 51V41.7C99.5 41.5 99.3 41.3 99.1 41.3C98.9 41.3 98.7 41.5 98.7 41.7V51C98.7 51.2 98.9 51.4 99.1 51.4ZM100.7 50.7C100.9 50.7 101.1 50.5 101.1 50.3V41.5C101.1 41.3 100.9 41.1 100.7 41.1C100.5 41.1 100.3 41.3 100.3 41.5V50.3C100.3 50.5 100.5 50.7 100.7 50.7ZM106 48.8C106.2 48.8 106.4 48.6 106.4 48.4V40.8C106.4 40.6 106.2 40.4 106 40.4C105.8 40.4 105.6 40.6 105.6 40.8V48.4C105.6 48.6 105.8 48.8 106 48.8ZM107.7 48.6C107.9 48.6 108.1 48.4 108.1 48.2V40.6C108.1 40.4 107.9 40.2 107.7 40.2C107.5 40.2 107.3 40.4 107.3 40.6V48.2C107.3 48.4 107.4 48.6 107.7 48.6ZM109.3 48.1C109.5 48.1 109.7 47.9 109.7 47.7V40.3C109.7 40.1 109.5 39.9 109.3 39.9C109.1 39.9 108.9 40.1 108.9 40.3V47.7C108.9 47.9 109 48.1 109.3 48.1ZM110.9 47.7C111.1 47.7 111.3 47.5 111.3 47.3V40.2C111.3 40 111.1 39.8 110.9 39.8C110.7 39.8 110.5 40 110.5 40.2V47.3C110.5 47.5 110.6 47.7 110.9 47.7ZM112.5 47.2C112.7 47.2 112.9 47 112.9 46.8V39.7C112.9 39.5 112.7 39.3 112.5 39.3C112.3 39.3 112.1 39.5 112.1 39.7V46.8C112.1 47 112.3 47.2 112.5 47.2ZM117.6 46.1C117.8 46.1 118 45.9 118 45.7V39.7C118 39.5 117.8 39.3 117.6 39.3C117.4 39.3 117.2 39.5 117.2 39.7V45.7C117.2 45.9 117.4 46.1 117.6 46.1ZM119.1 45.6C119.3 45.6 119.5 45.4 119.5 45.2V39.4C119.5 39.2 119.3 39 119.1 39C118.9 39 118.7 39.2 118.7 39.4V45.2C118.7 45.4 118.9 45.6 119.1 45.6ZM120.6 45.1C120.8 45.1 121 44.9 121 44.7V39.2C121 39 120.8 38.8 120.6 38.8C120.4 38.8 120.2 39 120.2 39.2V44.7C120.2 45 120.4 45.1 120.6 45.1ZM122.1 44.7C122.3 44.7 122.5 44.5 122.5 44.3V39C122.5 38.8 122.3 38.6 122.1 38.6C121.9 38.6 121.7 38.8 121.7 39V44.3C121.7 44.5 121.9 44.7 122.1 44.7ZM123.6 44.4C123.8 44.4 124 44.2 124 44V38.7C124 38.5 123.8 38.3 123.6 38.3C123.4 38.3 123.2 38.5 123.2 38.7V44C123.2 44.3 123.4 44.4 123.6 44.4ZM129.3 43C129.5 43 129.7 42.8 129.7 42.6V38.3C129.7 38.1 129.5 37.9 129.3 37.9C129.1 37.9 128.9 38.1 128.9 38.3V42.6C128.9 42.8 129.1 43 129.3 43ZM130.8 42.5C131 42.5 131.2 42.3 131.2 42.1V38C131.2 37.8 131 37.6 130.8 37.6C130.6 37.6 130.4 37.8 130.4 38V42.1C130.4 42.4 130.6 42.5 130.8 42.5ZM132.3 42.1C132.5 42.1 132.7 41.9 132.7 41.7V37.8C132.7 37.6 132.5 37.4 132.3 37.4C132.1 37.4 131.9 37.6 131.9 37.8V41.7C131.9 41.9 132.1 42.1 132.3 42.1ZM133.8 41.7C134 41.7 134.2 41.5 134.2 41.3V37.6C134.2 37.4 134 37.2 133.8 37.2C133.6 37.2 133.4 37.4 133.4 37.6V41.3C133.4 41.5 133.6 41.7 133.8 41.7ZM135.3 41C135.5 41 135.7 40.8 135.7 40.6V37.3C135.7 37.1 135.5 36.9 135.3 36.9C135.1 36.9 134.9 37.1 134.9 37.3V40.6C134.9 40.8 135.1 41 135.3 41Z" fill="white"/>
<path fill-rule="evenodd" clip-rule="evenodd" d="M145.4 60.9C146 61.5 146.3 62.2 146.3 63C146.3 63.8 146 64.5 145.4 65.1C144.8 65.7 144.1 66 143.3 66C142.5 66 141.8 65.7 141.2 65.1C140.6 64.5 140.3 63.8 140.3 63C140.3 62.2 140.6 61.5 141.1 60.9C141.7 60.3 142.4 60 143.2 60C144.2 60 144.8 60.3 145.4 60.9ZM145.9 60.4C145.2 59.7 144.4 59.4 143.4 59.4C142.5 59.4 141.7 59.7 141 60.4C140.3 61.1 139.9 62 139.9 63C139.9 64 140.2 64.8 140.9 65.5C141.6 66.2 142.4 66.5 143.4 66.5C144.4 66.5 145.2 66.2 145.9 65.5C146.6 64.8 147 64 147 63C146.9 62 146.6 61.1 145.9 60.4ZM143.8 62.7C143.7 62.8 143.5 62.8 143.2 62.8H142.8V61.7H143C143.3 61.7 143.5 61.7 143.6 61.8C143.8 61.9 143.9 62 143.9 62.2C144 62.4 143.9 62.6 143.8 62.7ZM142.8 63.5H143H143.2C143.4 63.5 143.5 63.5 143.6 63.6C143.7 63.6 143.8 63.8 143.9 63.9C143.9 64 144 64.1 144 64.4C144 64.6 144 64.8 144.1 64.9H145.1V64.8V64.7V64.6V64.2C145.1 63.8 145 63.5 144.8 63.3C144.7 63.2 144.5 63.1 144.2 63.1C144.5 63.1 144.7 63 144.9 62.8C145.1 62.7 145.2 62.4 145.2 62.1C145.2 61.7 145 61.4 144.7 61.2C144.5 61.1 144.2 61 143.9 61C143.6 61 143.4 61 143.1 61C142.6 61 142.2 61 142 61V64.9H143L142.8 63.5Z" fill="#21325B"/>
</g>
<defs>
<clipPath id="clip0">
<rect width="200.4" height="66.5" fill="white"/>
</clipPath>
</defs>
</svg>
