<svg width="227" height="88" viewBox="0 0 227 88" fill="none" xmlns="http://www.w3.org/2000/svg">
<path d="M155.1 50.7C151 50.7 147.5 51.7 144.5 53.1C143.4 50.9 142.3 49 142.1 47.6C142 46 141.7 45 142 43C142.3 41 143.4 38.3 143.4 38C143.4 37.8 143.1 36.8 140.8 36.8C138.5 36.8 136.4 37.2 136.2 37.9C136 38.5 135.5 39.9 135.2 41.4C134.8 43.5 130.5 51.1 128.1 55.1C127.3 53.5 126.6 52.2 126.5 51.1C126.3 49.5 126 48.5 126.3 46.5C126.6 44.5 127.7 41.8 127.7 41.5C127.7 41.3 127.4 40.3 125.1 40.3C122.8 40.3 120.7 40.7 120.5 41.4C120.3 42 120 43.5 119.5 44.9C119 46.3 113.3 59 111.8 62.3C111 64 110.4 65.3 109.9 66.2C109.9 66.2 109.9 66.3 109.8 66.4C109.4 67.2 109.2 67.6 109.2 67.6C108.9 68.2 108.5 68.7 108.4 68.7C108.3 68.7 108 67.2 108.4 65.1C109.3 60.7 111.3 53.8 111.3 53.6C111.3 53.5 111.7 52.3 110 51.7C108.3 51.1 107.7 52.1 107.6 52.1C107.5 52.1 107.3 52.5 107.3 52.5C107.3 52.5 109.2 44.8 103.8 44.8C100.4 44.8 95.8001 48.5 93.5001 51.8C92.1001 52.6 89.0001 54.3 85.7001 56.1C84.4001 56.8 83.1001 57.5 81.9001 58.2C81.8001 58.1 81.7001 58 81.6001 57.9C75.0001 50.8 63.0001 45.8 63.5001 36.5C63.7001 33.1 64.9001 24.2 86.6001 13.3C104.5 4.49999 118.8 6.89999 121.3 12.3C124.8 20.1 113.7 34.4 95.1001 36.5C88.0001 37.3 84.3001 34.6 83.4001 33.5C82.4001 32.4 82.3001 32.4 81.9001 32.6C81.3001 32.9 81.7001 33.9 81.9001 34.4C82.5001 35.8 84.7001 38.4 88.6001 39.7C92.0001 40.8 100.3 41.4 110.3 37.5C121.5 33.2 130.3 21.1 127.7 11C125.2 0.799994 108.1 -2.50001 92.0001 3.19999C82.4001 6.59999 72.0001 12 64.6001 18.9C55.7001 27.2 54.3001 34.4 54.9001 37.4C57.0001 48.1 71.8001 55.1 77.7001 60.3C77.4001 60.5 77.1001 60.6 76.9001 60.7C73.9001 62.2 62.7001 68.1 59.8001 74.3C56.6001 81.4 60.3001 86.4 62.8001 87.1C70.4001 89.2 78.2001 85.4 82.4001 79.2C86.6001 72.9 86.1001 64.8 84.1001 61.1C84.1001 61.1 84.1001 61 84.0001 61C84.8001 60.6 85.6001 60.1 86.3001 59.6C87.8001 58.7 89.3001 57.9 90.6001 57.2C89.9001 59.2 89.3001 61.5 89.1001 65C88.8001 69 90.4001 74.2 92.6001 76.2C93.6001 77.1 94.7001 77.1 95.4001 77.1C97.9001 77.1 99.0001 75 100.3 72.5C101.8 69.5 103.2 66 103.2 66C103.2 66 101.5 75.5 106.2 75.5C107.9 75.5 109.6 73.3 110.4 72.2C110.4 72.2 110.4 72.1 110.5 72C110.7 71.7 110.8 71.6 110.8 71.6C111.5 70.4 113 67.7 115.3 63.2C118.2 57.4 121.1 50.2 121.1 50.2C121.1 50.2 121.4 52 122.2 54.9C122.7 56.6 123.8 58.5 124.6 60.4C123.9 61.4 123.5 61.9 123.5 61.9C122.9 62.6 122.4 63.4 121.7 64.2C119.4 67 116.6 70.1 116.2 71.1C115.8 72.2 115.9 73 116.7 73.6C117.3 74.1 118.4 74.1 119.6 74.1C121.7 74 123.2 73.4 123.9 73.1C125 72.7 126.3 72.1 127.6 71.2C129.9 69.5 131.3 67.1 131.1 63.9C131 62.2 130.5 60.4 129.8 58.8C130 58.5 130.2 58.2 130.4 57.9C134 52.6 136.8 46.9 136.8 46.9C136.8 46.9 137.1 48.7 137.9 51.6C138.3 53.1 139.2 54.7 140 56.3C136.6 59 134.5 62.2 133.8 64.3C132.5 68.2 133.5 69.9 135.5 70.3C136.4 70.5 137.7 70.1 138.6 69.7C139.8 69.3 141.2 68.7 142.5 67.7C144.8 66 147 63.7 146.8 60.5C146.7 59.1 146.4 57.6 145.8 56.2C148.7 55 152.4 54.3 157.1 54.9C167.2 56.1 169.2 62.4 168.9 65.1C168.5 67.8 166.4 69.2 165.7 69.7C165 70.1 164.8 70.3 164.8 70.6C164.9 71.1 165.2 71 165.8 71C166.6 70.9 171.1 68.8 171.3 64C171.6 57.4 165.7 50.6 155.1 50.7ZM76.9001 77C73.5001 80.7 68.9001 82 66.8001 80.9C64.6001 79.6 65.5001 74.2 69.6001 70.4C72.1001 68 75.3001 65.8 77.5001 64.5C78.0001 64.2 78.7001 63.8 79.6001 63.2C79.7001 63.1 79.8001 63.1 79.8001 63.1C80.0001 63 80.1001 62.9 80.3001 62.8C81.9001 68.3 80.5001 73.2 76.9001 77ZM101.4 60.4C100.2 63.3 97.8001 70.6 96.3001 70.2C95.0001 69.9 94.2001 64.3 96.0001 58.9C96.9001 56.2 98.9001 52.9 100 51.6C101.8 49.6 103.9 48.9 104.3 49.7C105 50.7 102.1 58.6 101.4 60.4ZM121.6 70C121.1 70.3 120.6 70.4 120.4 70.3C120.3 70.2 120.6 69.9 120.6 69.9C120.6 69.9 123.1 67.2 124.1 65.9C124.7 65.2 125.4 64.3 126.1 63.4C126.1 63.5 126.1 63.6 126.1 63.7C126.2 66.9 123 69.1 121.6 70ZM137.2 66.5C136.8 66.2 136.9 65.4 138.1 62.7C138.6 61.7 139.7 59.9 141.6 58.2C141.8 58.9 142 59.5 141.9 60.2C141.9 64.3 139 65.8 137.2 66.5Z" fill="#BDC5D1"/>
</svg>
