<svg width="400" height="360" viewBox="0 0 400 360" fill="none" xmlns="http://www.w3.org/2000/svg">
<g clip-path="url(#clip0)">
<path d="M392.515 293.513C401.553 309.207 402.428 325.711 394.918 338.758C387.418 351.815 372.744 359.293 354.657 359.293H320.571C320.976 352.937 321.244 346.528 321.244 340.072C321.244 332.841 320.908 325.7 320.415 318.582L342.836 318.56C348.348 318.56 352.804 314.081 352.804 308.556C352.803 306.891 352.391 305.252 351.604 303.786L208.704 55.4055C207.841 53.8688 206.584 52.5899 205.062 51.7001C203.541 50.8104 201.81 50.342 200.048 50.3432C198.33 50.3437 196.641 50.7886 195.146 51.6345C193.651 52.4805 192.4 53.6988 191.515 55.1711L168.826 94.6117C237.782 146.594 284.14 227.126 290.483 318.56C290.977 325.666 291.313 332.808 291.313 340.048C291.313 346.504 291.044 352.904 290.65 359.269H179.333C179.939 352.937 180.288 346.539 180.288 340.048C180.288 332.785 179.861 325.622 179.075 318.56C173.575 268.24 148.942 223.645 112.667 192.175L97.038 219.324C124.443 244.83 143.149 279.568 148.234 318.56C149.156 325.599 149.672 332.763 149.672 340.048C149.672 346.539 149.245 352.96 148.516 359.269H45.3261C27.2394 359.269 12.565 351.781 5.06532 338.723C-2.4453 325.677 -1.57034 309.186 7.46835 293.478L28.655 257.17C40.758 263.681 51.6954 272.156 61.0208 282.251L48.3916 303.762C47.6069 305.231 47.1938 306.869 47.1886 308.534C47.1861 309.845 47.4422 311.144 47.9422 312.356C48.4422 313.568 49.1762 314.67 50.1024 315.598C51.0286 316.526 52.1286 317.262 53.3397 317.764C54.5507 318.267 55.8489 318.526 57.16 318.526L107.209 318.549C103.011 294.556 91.9414 272.91 76.0889 255.766C66.7471 245.696 55.8351 237.173 43.6871 230.651L99.5754 133.546C111.442 140.18 122.714 147.825 133.268 156.395C181.433 195.476 213.958 253.196 219.852 318.538H249.807C243.698 242.148 205.313 174.785 148.347 130.19C137.65 121.811 126.33 114.26 114.486 107.602L162.19 24.7224C171.216 9.01525 185.023 0 200.048 0C215.058 0 228.856 9.01525 237.895 24.7224L392.515 293.513V293.513Z" fill="#FB2D26"/>
</g>
<defs>
<clipPath id="clip0">
<rect width="400" height="359.36" fill="white"/>
</clipPath>
</defs>
</svg>
