<svg width="400" height="115" viewBox="0 0 400 115" fill="none" xmlns="http://www.w3.org/2000/svg">
<g clip-path="url(#clip0)">
<path d="M45.2 3.99914C46 3.99914 46.4 4.39914 47.2 4.79914C42.4 6.79914 37.6 11.9991 35.2 23.1991L26.4 25.5991C29.2 17.5991 34.8 3.99914 45.2 3.99914ZM49.6 7.99914C50.4 10.3991 51.2 13.1991 51.2 17.5991C51.2 17.9991 51.2 17.9991 51.2 18.3991L39.6 21.5991C42 13.1991 46 9.59914 49.6 7.99914ZM60 15.1991L54.8 16.7991C54.8 16.3991 54.8 15.9991 54.8 15.5991C54.8 11.9991 54.4 9.19914 53.6 6.79914C56.4 7.59914 58.8 11.1991 60 15.1991ZM86 21.5991C86 21.1991 85.6 20.7991 85.2 20.7991C84.4 20.7991 76 19.9991 76 19.9991C76 19.9991 70 13.9991 69.2 13.5991C68.4 12.7991 67.2 13.1991 66.8 13.1991C66.8 13.1991 65.6 13.5991 63.6 14.3991C61.6 8.79913 58 3.59914 52 3.59914H51.6C50 1.19914 47.6 0.399135 45.6 0.399135C31.2 -0.000864784 24.4 17.9991 22 27.1991C18.8 27.9991 15.6 29.1991 12 30.3991C8.8 31.1991 8.8 31.5991 8.4 34.3991C8 36.3991 0 99.5991 0 99.5991L63.6 111.599L98 103.999C98 103.999 86 22.3991 86 21.5991Z" fill="#8DB849"/>
<path d="M84.7996 20.7992C84.3996 20.7992 75.9996 19.9992 75.9996 19.9992C75.9996 19.9992 69.9996 13.9992 69.1996 13.5992C68.7996 13.1992 68.7996 13.1992 68.3996 13.1992L63.5996 111.599L97.9996 103.999C97.9996 103.999 85.9996 22.3992 85.9996 21.5992C85.9996 21.1992 85.1996 20.7992 84.7996 20.7992Z" fill="#5A863E"/>
<path d="M52.0008 39.9986L47.6008 52.7986C47.6008 52.7986 44.0008 50.7986 39.2008 50.7986C32.4008 50.7986 32.0008 54.7986 32.0008 55.9986C32.0008 61.5986 47.2008 63.9986 47.2008 77.5986C47.2008 88.3986 40.4008 95.1986 31.2008 95.1986C20.4008 95.1986 14.8008 88.3986 14.8008 88.3986L17.6008 78.7986C17.6008 78.7986 23.2008 83.5986 28.0008 83.5986C31.2008 83.5986 32.4008 81.1986 32.4008 79.1986C32.4008 71.5986 20.0008 71.1986 20.0008 58.7986C20.0008 48.3986 27.6008 38.3986 42.4008 38.3986C49.2008 37.9986 52.0008 39.9986 52.0008 39.9986Z" fill="#FFFFFE"/>
<path d="M138.4 63.6C134.8 61.6 133.2 60 133.2 58C133.2 55.2 135.6 53.6 139.6 53.6C144 53.6 148 55.6 148 55.6L151.2 46C151.2 46 148.4 43.6 140 43.6C128 43.6 120 50.4 120 60C120 65.6 124 69.6 128.8 72.4C132.8 74.8 134.4 76.4 134.4 78.8C134.4 81.2 132.4 83.6 128.4 83.6C122.8 83.6 117.2 80.8 117.2 80.8L114 90.4C114 90.4 118.8 93.6 127.2 93.6C139.2 93.6 148 87.6 148 76.8C148 70.8 143.6 66.4 138.4 63.6ZM186.8 43.2C180.8 43.2 176 46 172.4 50.4L177.6 23.2H164L150.8 92.4H164.4L168.8 68.8C170.4 60 175.2 54.4 179.6 54.4C182.8 54.4 184 56.4 184 59.6C184 61.6 184 63.6 183.6 65.6L178.4 92.8H192L197.2 64.8C197.6 62 198 58.4 198 56C198 48 194 43.2 186.8 43.2ZM221.6 82.8C216.8 82.8 215.2 78.8 215.2 74C215.2 66.4 219.2 53.6 226.4 53.6C231.2 53.6 232.8 57.6 232.8 61.6C232.8 70.4 228.8 82.8 221.6 82.8ZM228.4 43.2C212 43.2 201.2 58 201.2 74.4C201.2 84.8 207.6 93.2 220 93.2C236 93.2 246.8 78.8 246.8 62C246.8 52.4 241.2 43.2 228.4 43.2ZM268.4 83.2C264.8 83.2 262.8 81.2 262.8 81.2L265.2 68.4C266.8 60 271.2 54.4 276 54.4C280 54.4 281.6 58.4 281.6 62C281.2 70.8 276 83.2 268.4 83.2ZM281.6 43.2C272.4 43.2 267.2 51.2 267.2 51.2L268 44H256C255.6 48.8 254.4 56.4 253.2 62L243.6 111.6H257.2L260.8 91.6H261.2C261.2 91.6 264 93.2 269.2 93.2C285.2 93.2 295.6 76.8 295.6 60.4C295.6 51.6 291.6 43.2 281.6 43.2ZM314.8 24C310.4 24 307.2 27.6 307.2 32C307.2 36 309.6 38.8 313.6 38.8C318 38.8 321.6 36 321.6 30.8C321.6 26.8 318.8 24 314.8 24ZM296 92.4H309.6L318.8 44.4H305.2L296 92.4ZM353.2 44.4H343.6L344 42C344.8 37.2 347.6 33.2 352 33.2C354.4 33.2 356.4 34 356.4 34L359.2 23.2C359.2 23.2 356.8 22 352 22C347.2 22 342.4 23.2 338.8 26.4C334 30.4 332 36 330.8 41.6L330.4 44H324L322 54.4H328.4L321.2 92.4H334.8L342 54.4H351.2L353.2 44.4ZM385.6 44.4C385.6 44.4 377.2 65.6 373.2 77.2C372.8 73.6 370 44.4 370 44.4H355.6L363.6 88.4C363.6 89.2 363.6 90 363.2 90.8C361.6 94 358.8 96.8 356 98.8C353.6 100.8 350.4 102 348.4 102.8L352 114.4C354.8 114 360.4 111.6 365.2 107.2C371.2 101.6 377.2 92.4 382.8 80.4L399.2 44.8L385.6 44.4Z" fill="#1A1919"/>
</g>
<defs>
<clipPath id="clip0">
<rect width="400" height="114.4" fill="white"/>
</clipPath>
</defs>
</svg>
