<svg width="400" height="457" viewBox="0 0 400 457" fill="none" xmlns="http://www.w3.org/2000/svg">
<path d="M349.633 89.5848C349.319 87.3038 347.32 86.0414 345.669 85.9024C344.021 85.7649 309.137 83.1792 309.137 83.1792C309.137 83.1792 284.909 59.1269 282.25 56.4647C279.59 53.804 274.393 54.6133 272.376 55.207C272.079 55.2945 267.083 56.8365 258.818 59.3941C250.725 36.1058 236.442 14.7048 211.315 14.7048C210.622 14.7048 209.908 14.7329 209.194 14.7735C202.047 5.32291 193.195 1.21707 185.549 1.21707C127.016 1.21707 99.0514 74.3895 90.2836 111.573C67.539 118.621 51.3812 123.631 49.3173 124.28C36.6217 128.262 36.2202 128.662 34.5532 140.625C33.2986 149.682 0.0800781 406.577 0.0800781 406.577L258.926 455.075L399.178 424.734C399.178 424.734 349.944 91.8658 349.634 89.5848H349.633ZM244.512 63.8186L222.609 70.5976C222.617 69.0541 222.625 67.5355 222.625 65.8747C222.625 51.4011 220.616 39.7476 217.393 30.5095C230.34 32.1343 238.962 46.8656 244.512 63.8186ZM201.332 33.3795C204.931 42.3989 207.272 55.3429 207.272 72.8099C207.272 73.7036 207.264 74.5207 207.256 75.3472C193.012 79.7592 177.534 84.5494 162.022 89.3552C170.732 55.7398 187.058 39.5039 201.332 33.3795V33.3795ZM183.941 16.9171C186.468 16.9171 189.013 17.7748 191.448 19.4512C172.689 28.2784 152.582 50.5106 144.091 94.9077L108.335 105.982C118.281 72.1178 141.897 16.9171 183.94 16.9171H183.941Z" fill="#95BF46"/>
<path d="M345.668 85.9024C344.02 85.7649 309.136 83.1792 309.136 83.1792C309.136 83.1792 284.908 59.1269 282.249 56.4647C281.254 55.4741 279.912 54.9664 278.509 54.7477L258.938 455.072L399.177 424.734C399.177 424.734 349.941 91.8658 349.632 89.5848C349.317 87.3038 347.319 86.0414 345.668 85.9024" fill="#5E8E3E"/>
<path d="M211.314 163.398L194.02 214.839C194.02 214.839 178.869 206.753 160.295 206.753C133.067 206.753 131.697 223.84 131.697 228.146C131.697 251.64 192.941 260.643 192.941 315.675C192.941 358.972 165.479 386.852 128.452 386.852C84.0186 386.852 61.2959 359.198 61.2959 359.198L73.1931 319.89C73.1931 319.89 96.5502 339.943 116.259 339.943C129.138 339.943 134.376 329.803 134.376 322.394C134.376 291.747 84.1311 290.38 84.1311 240.021C84.1311 197.636 114.553 156.62 175.963 156.62C199.624 156.62 211.314 163.398 211.314 163.398" fill="white"/>
</svg>
