<svg width="400" height="401" viewBox="0 0 400 401" fill="none" xmlns="http://www.w3.org/2000/svg">
<g clip-path="url(#clip0)">
<path fill-rule="evenodd" clip-rule="evenodd" d="M146.658 0C124.547 0.0163425 106.651 17.9604 106.668 40.0719C106.651 62.1834 124.563 80.1275 146.674 80.1438H186.681V40.0882C186.697 17.9768 168.786 0.0326851 146.658 0C146.674 0 146.674 0 146.658 0V0ZM146.658 106.88H40.0066C17.8951 106.897 -0.0162979 124.841 4.46621e-05 146.952C-0.0326404 169.064 17.8788 187.008 39.9902 187.04H146.658C168.769 187.024 186.681 169.08 186.665 146.968C186.681 124.841 168.769 106.897 146.658 106.88V106.88Z" fill="#36C5F0"/>
<path fill-rule="evenodd" clip-rule="evenodd" d="M400.001 146.952C400.017 124.841 382.105 106.897 359.994 106.88C337.883 106.897 319.971 124.841 319.987 146.952V187.04H359.994C382.105 187.024 400.017 169.08 400.001 146.952ZM293.333 146.952V40.0719C293.349 17.9768 275.454 0.0326851 253.343 0C231.231 0.0163425 213.32 17.9604 213.336 40.0719V146.952C213.303 169.064 231.215 187.008 253.326 187.04C275.438 187.024 293.349 169.08 293.333 146.952Z" fill="#2EB67D"/>
<path fill-rule="evenodd" clip-rule="evenodd" d="M253.326 400.801C275.437 400.785 293.349 382.841 293.332 360.729C293.349 338.618 275.437 320.673 253.326 320.657H213.319V360.729C213.303 382.824 231.214 400.768 253.326 400.801ZM253.326 293.904H359.994C382.105 293.888 400.017 275.944 400 253.832C400.033 231.721 382.121 213.777 360.01 213.744H253.342C231.231 213.761 213.319 231.705 213.336 253.816C213.319 275.944 231.214 293.888 253.326 293.904V293.904Z" fill="#ECB22E"/>
<path fill-rule="evenodd" clip-rule="evenodd" d="M1.11744e-05 253.832C-0.0163314 275.944 17.8951 293.888 40.0065 293.904C62.118 293.888 80.0294 275.944 80.0131 253.832V213.76H40.0065C17.8951 213.777 -0.0163314 231.721 1.11744e-05 253.832ZM106.668 253.832V360.713C106.635 382.824 124.547 400.768 146.658 400.801C168.769 400.784 186.681 382.84 186.664 360.729V253.865C186.697 231.753 168.786 213.809 146.674 213.777C124.546 213.777 106.651 231.721 106.668 253.832C106.668 253.849 106.668 253.832 106.668 253.832Z" fill="#E01E5A"/>
</g>
<defs>
<clipPath id="clip0">
<rect width="400" height="400.801" fill="white"/>
</clipPath>
</defs>
</svg>
