<svg width="400" height="443" viewBox="0 0 400 443" fill="none" xmlns="http://www.w3.org/2000/svg">
<g clip-path="url(#clip0)">
<path d="M346.088 224.677C346.088 261.043 316.607 290.523 280.24 290.523H121.57C85.2035 290.523 55.723 261.043 55.723 224.677V67.0927C55.723 30.7274 85.2035 1.24683 121.57 1.24683H280.242C316.608 1.24683 346.089 30.7274 346.089 67.0927V224.677H346.088Z" fill="#EEE312" stroke="#1A1A1A" stroke-width="5.02362" stroke-linecap="round" stroke-linejoin="round"/>
<path d="M200.139 246.286C219.977 246.286 234.821 231.678 234.821 231.678C236.125 230.588 237.608 229.545 237.608 229.545C249.484 221.743 268.737 227.367 268.737 227.367C275.732 229.024 275.935 223.739 275.935 223.739L276.474 217.751C276.985 211.879 286.009 211.942 286.009 211.942C297.893 211.476 302.896 206.61 304.957 203.177C307.169 199.885 302.988 198.954 302.988 198.954C274.312 190.947 260.399 163.73 260.399 163.73C253.921 152.359 262.798 147.76 262.798 147.76C265.198 146.066 276.952 142.195 276.952 142.195C286.652 138.305 283.43 131.549 283.43 131.549C279.832 124.289 271.435 129.13 271.435 129.13C267.466 131.236 264.478 131.064 264.478 131.064C257.847 131.191 257.049 129.77 257.049 129.77L257.277 98.2784C257.277 69.4797 231.876 46.1338 200.542 46.1338H199.999C168.663 46.1338 143.264 69.4797 143.264 98.2784L143.491 129.77C143.491 129.77 142.694 131.191 136.063 131.064C136.063 131.064 133.075 131.236 129.105 129.13C129.105 129.13 120.711 124.29 117.111 131.549C117.111 131.549 113.886 138.305 123.589 142.195C123.589 142.195 135.344 146.066 137.742 147.76C137.742 147.76 146.62 152.357 140.142 163.73C140.142 163.73 126.232 190.947 97.554 198.954C97.554 198.954 93.3721 199.883 95.5869 203.177C97.6479 206.61 102.652 211.476 114.532 211.942C114.532 211.942 123.557 211.879 124.068 217.751L124.609 223.739C124.609 223.739 124.811 229.024 131.806 227.367C131.806 227.367 151.058 221.743 162.933 229.545C162.933 229.545 164.418 230.588 165.723 231.678C165.723 231.678 180.567 246.286 200.404 246.286H200.139Z" fill="white" stroke="#1A1A1A" stroke-width="5.10256" stroke-linecap="round" stroke-linejoin="round"/>
<path d="M0.155146 403.571C4.24018 405.619 13.4507 408.732 19.9284 408.732C26.9043 408.732 30.5908 405.904 30.5908 401.614C30.5908 397.518 27.4024 395.178 19.332 392.349C8.17006 388.546 0.896714 382.5 0.896714 372.943C0.896714 361.729 10.4631 353.147 26.3079 353.147C33.8801 353.147 39.4611 354.707 43.4479 356.462L43.5689 369.609C40.8788 368.34 32.5849 365.337 26.009 365.337C19.4317 365.337 16.2433 368.262 16.2433 371.675C16.2433 375.867 20.0309 377.72 28.6991 380.938C40.5585 385.23 46.1395 391.276 46.1395 400.539C46.1395 411.559 37.4684 421.019 19.0345 421.019C11.3598 421.019 3.78613 418.97 0 416.922L0.155146 403.571ZM176.499 373.019V380.413C179.312 375.205 183.371 372.185 192.126 372.185C202.561 372.185 210.769 380.257 210.769 395.469C210.769 412.827 200.384 421.019 189.755 421.019C184.001 421.019 179.516 418.677 177.371 415.557L176.291 414.161V441.035H162.354V373.121L176.499 373.019ZM176.236 399.811C176.236 401.026 176.337 402.141 176.54 403.049C177.552 407.201 181.096 410.338 185.553 410.338C192.236 410.338 196.185 404.771 196.185 396.368C196.185 388.472 192.643 382.498 185.755 382.498C181.4 382.498 177.552 385.738 176.54 390.296C176.337 391.105 176.236 392.117 176.236 393.028V399.811ZM256.055 418.849C253.421 420.019 248.448 421.093 242.793 421.093C227.385 421.093 217.536 411.993 217.536 396.977C217.536 383.031 227.092 372.209 244.841 372.209C248.741 372.209 253.033 372.891 256.153 374.062L256.076 385.416C253.262 383.75 249.423 383.032 245.523 383.032C236.703 383.032 231.916 388.59 232.016 396.393C232.016 405.17 236.91 409.753 245.815 409.753C249.326 409.753 253.729 408.059 255.972 407.083L256.055 418.849ZM293.51 372.188C305.323 372.188 310.316 377.685 310.186 392.056V419.947H295.695V393.714C295.695 387.473 293.218 383.183 287.659 383.183C283.759 383.183 280.959 385.718 279.886 388.351C279.496 389.328 279.398 390.594 279.398 391.668V419.947H265.503V350.709H279.529V380.033C284.046 371.712 293.51 372.188 293.51 372.188V372.188ZM389.37 359.292V373.23H400V383.967H389.37V401.492C389.37 407.72 390.407 409.878 395.22 409.878C397.269 409.878 398.147 409.781 399.609 409.489L399.707 419.658C397.757 420.438 394.245 421.023 390.052 421.023C385.275 421.023 381.717 419.268 379.376 416.83C376.646 414.002 375.281 409.418 375.281 402.689V383.97H368.067V373.232H375.281V363.293L389.37 359.292ZM83.5026 371.188C76.5253 371.188 71.8595 374.612 69.4341 377.494V372.078H54.738V384.258C54.7181 385.302 54.7053 386.367 54.7053 387.474V419.947H54.738V419.995L54.7608 419.947H69.8512V392.448C69.8512 391.083 70.0519 389.718 70.449 388.741C71.4453 386.011 73.9376 383.183 78.1223 383.183C83.6037 383.183 85.7956 387.376 85.7956 393.521V419.947H100.943V391.668C100.94 377.625 94.9976 371.188 83.5026 371.188V371.188ZM150.573 419.997V391.764C150.573 380.55 145.578 371.188 129.683 371.188C121.886 371.188 115.843 373.074 112.287 374.802V386.148C115.515 384.221 122.293 381.837 127.049 381.837C134.363 381.837 135.925 386.82 135.925 389.355V390.036C119.054 389.94 107.741 394.006 107.741 406.391C107.741 413.997 113.494 421.019 123.147 421.019C128.804 421.019 133.679 418.97 136.8 415.167H137.093L136.987 419.945H148.025L150.573 419.997ZM135.753 403.141C135.753 404.015 135.652 404.885 135.452 405.659C134.449 408.66 131.339 411.081 127.524 411.081C124.114 411.081 121.505 409.242 121.505 405.467C121.505 399.757 127.725 397.918 135.753 398.016V403.141ZM360.873 419.997V391.764C360.873 380.55 355.879 371.188 339.984 371.188C332.187 371.188 326.143 373.074 322.588 374.802V386.148C325.816 384.221 332.594 381.837 337.35 381.837C344.664 381.837 346.226 386.82 346.226 389.355V390.036C329.355 389.94 318.042 394.006 318.042 406.391C318.042 413.997 323.795 421.019 333.448 421.019C339.105 421.019 343.98 418.97 347.101 415.167H347.394L347.287 419.945H358.326L360.873 419.997ZM346.053 403.141C346.053 404.015 345.952 404.885 345.753 405.659C344.75 408.66 341.64 411.081 337.825 411.081C334.415 411.081 331.806 409.242 331.806 405.467C331.806 399.757 338.026 397.918 346.053 398.016V403.141Z" fill="#1A1A1A"/>
</g>
<defs>
<clipPath id="clip0">
<rect width="400" height="442.282" fill="white"/>
</clipPath>
</defs>
</svg>
