<svg width="400" height="400" viewBox="0 0 400 400" fill="none" xmlns="http://www.w3.org/2000/svg">
<path d="M200 0C89.5394 0 0 89.5394 0 200C0 310.461 89.5394 400 200 400C310.461 400 400 310.461 400 200C400 89.5531 310.461 0.0136472 200 0ZM291.723 288.448C288.134 294.343 280.45 296.186 274.582 292.596C227.622 263.896 168.502 257.414 98.8877 273.313C92.1733 274.855 85.4862 270.652 83.9577 263.937C82.4156 257.223 86.6053 250.536 93.3333 249.007C169.512 231.607 234.869 239.099 287.588 271.307C293.456 274.923 295.326 282.579 291.723 288.448V288.448ZM316.192 234.009C311.675 241.351 302.068 243.644 294.739 239.14C240.996 206.1 159.031 196.534 95.4487 215.831C87.2057 218.328 78.4988 213.675 75.9877 205.445C73.5039 197.202 78.1576 188.509 86.3869 185.998C159.017 163.958 249.321 174.63 311.047 212.569C318.39 217.086 320.71 226.68 316.192 234.009ZM318.294 177.291C253.825 139.011 147.486 135.49 85.9365 154.159C76.056 157.161 65.6022 151.58 62.6134 141.699C59.6247 131.818 65.1928 121.365 75.087 118.362C145.739 96.9226 263.173 101.058 337.387 145.111C346.271 150.392 349.191 161.87 343.924 170.74C338.669 179.638 327.165 182.572 318.294 177.291Z" fill="#2EBD59"/>
</svg>
