<svg width="400" height="400" viewBox="0 0 400 400" fill="none" xmlns="http://www.w3.org/2000/svg">
<g clip-path="url(#clip0)">
<path d="M237.167 380.016C206.971 380.17 177.324 371.944 151.524 356.254C125.725 340.563 104.784 318.022 91.0315 291.139C77.6554 264.486 72.1883 234.561 75.2761 204.899C78.3639 175.238 89.8776 147.081 108.457 123.754C102.285 121.083 95.8481 119.07 89.254 117.748C79.5465 115.662 69.5196 115.541 59.7644 117.391C50.0092 119.241 40.7231 123.026 32.4535 128.521C24.2976 133.919 17.3425 140.94 12.0227 149.147C6.70284 157.354 3.13265 166.57 1.53515 176.219C0.525146 184.178 0.0124356 192.192 0 200.215C0.131296 233.952 8.87919 267.096 25.4139 296.503C41.9486 325.91 65.7219 350.605 94.4789 368.247C123.595 386.239 156.702 396.766 190.862 398.895C225.023 401.023 259.18 394.686 290.304 380.447C291.863 379.896 293.215 378.88 294.179 377.536C295.142 376.193 295.67 374.586 295.691 372.933C295.69 371.713 295.394 370.512 294.829 369.432C276.395 376.377 256.865 379.962 237.167 380.016V380.016Z" fill="url(#paint0_linear)"/>
<path d="M290.629 365.338C263.375 371.414 234.867 368.104 209.73 355.946C184.593 343.788 164.3 323.495 152.142 298.357C142.342 277.495 138.879 254.215 142.182 231.403C145.485 208.591 155.41 187.25 170.726 170.024C168.032 167.062 165.339 164.019 162.242 161.029C146.877 144.83 128.314 132 107.731 123.351C83.9568 150.424 70.2727 184.883 68.9965 220.89C67.7204 256.897 78.9307 292.238 100.728 320.927C145.705 380.366 226.691 401.724 296.123 372.287C295.983 370.719 295.389 369.227 294.413 367.992C293.437 366.758 292.122 365.836 290.629 365.338V365.338Z" fill="url(#paint1_linear)"/>
<path d="M112.201 125.317C110.639 124.563 109.158 123.916 107.676 123.351C83.7699 150.684 70.1332 185.492 69.1108 221.791C68.0884 258.09 79.7443 293.611 102.074 322.246C80.829 293.255 70.2489 257.815 72.1236 221.922C73.9983 186.028 88.2126 151.883 112.363 125.263L112.201 125.317Z" fill="url(#paint2_linear)"/>
<path d="M287.907 364.853C271.606 364.93 255.611 360.426 241.745 351.855C227.879 343.284 216.699 330.99 209.48 316.375C202.425 301.913 199.716 285.715 201.681 269.744C203.646 253.773 210.2 238.715 220.549 226.394C204.201 208.538 188.526 189.146 170.509 169.674C151.42 188.491 139.318 213.254 136.199 239.875C133.08 266.497 139.131 293.386 153.353 316.106C167.934 339.042 189.641 356.558 215.141 365.963C240.641 375.368 268.523 376.142 294.505 368.166C293.736 367.142 292.74 366.31 291.595 365.735C290.45 365.16 289.188 364.858 287.907 364.853V364.853Z" fill="url(#paint3_linear)"/>
<path d="M139.455 255.858C139.489 224.893 151.685 195.18 173.417 173.122L170.508 169.917C157.175 183.145 147.186 199.361 141.369 217.22C135.552 235.078 134.074 254.066 137.058 272.61C140.164 291.232 147.616 308.859 158.809 324.063C170.002 339.266 184.621 351.617 201.48 360.113C182.772 349.86 167.151 334.783 156.244 316.448C145.336 298.114 139.539 277.192 139.455 255.858V255.858Z" fill="url(#paint4_linear)"/>
<path opacity="0.2" d="M220.603 226.474C201.535 205.871 183.705 183.14 162.24 161.029C125.774 123.323 89.2534 117.64 89.2534 117.64C70.2668 113.54 50.4294 117.008 33.9612 127.309C25.9235 132.33 18.9649 138.899 13.4903 146.634C8.01581 154.37 4.1348 163.117 2.07324 172.367C11.2445 161.209 23.4271 152.92 37.1726 148.484C50.9181 144.049 65.6483 143.654 79.6116 147.347C110.907 155.427 136.17 176.461 157.446 199.353C173.794 216.994 188.876 235.577 205.117 253.218C208.517 243.457 213.735 234.428 220.495 226.609L220.603 226.474Z" fill="url(#paint5_linear)"/>
<path d="M220.603 226.474C230.341 237.33 242.24 246.03 255.537 252.018C268.834 258.005 283.236 261.148 297.818 261.244C314.991 261.279 331.9 257.017 347.005 248.846C362.109 240.675 374.93 228.855 384.298 214.463C393.491 200.255 398.846 183.909 399.842 167.016C400.838 150.123 397.44 133.261 389.981 118.072C352.437 35.82 263.075 -11.6079 172.017 2.45079C80.9585 16.5095 10.9073 88.5267 1.13086 178.077C2.46262 168.193 5.8579 158.7 11.0963 150.214C16.3347 141.728 23.2992 134.438 31.5375 128.818C39.8819 123.104 49.3037 119.151 59.2273 117.201C69.1509 115.252 79.3678 115.346 89.2537 117.479C89.2537 117.479 125.774 123.243 162.24 160.867C183.813 183.14 201.535 205.871 220.603 226.474V226.474Z" fill="url(#paint6_linear)"/>
<path d="M301.642 254.996C287.046 255.226 272.561 252.411 259.113 246.731C245.665 241.05 233.549 232.629 223.538 222.004C203.985 201.751 185.617 179.397 163.533 158.093C126.204 121.196 89.6033 116.375 89.6033 116.375C84.4513 115.363 79.2048 114.911 73.9556 115.028C60.83 115.317 48.0189 119.101 36.8428 125.99C48.0154 119.558 60.6867 116.186 73.5786 116.213C78.829 116.206 84.0653 116.757 89.1994 117.856C89.1994 117.856 125.72 123.593 162.186 161.244C183.732 183.383 201.481 206.087 220.549 226.69C230.31 237.515 242.226 246.181 255.532 252.132C268.838 258.082 283.242 261.186 297.818 261.244C347.293 261.244 389.63 226.475 398.249 178.858C392.678 200.362 380.216 219.449 362.77 233.199C345.323 246.949 323.852 254.605 301.642 254.996V254.996Z" fill="url(#paint7_linear)"/>
</g>
<defs>
<linearGradient id="paint0_linear" x1="151.899" y1="35.7858" x2="151.899" y2="400.711" gradientUnits="userSpaceOnUse">
<stop stop-color="#1631B0"/>
<stop offset="1" stop-color="#D9BDFF"/>
</linearGradient>
<linearGradient id="paint1_linear" x1="-4.53742e+06" y1="-6.21954e+06" x2="-4.53742e+06" y2="-6.18209e+06" gradientUnits="userSpaceOnUse">
<stop stop-color="#1631B0"/>
<stop offset="1" stop-color="#D9BDFF"/>
</linearGradient>
<linearGradient id="paint2_linear" x1="-134852" y1="-3.55217e+06" x2="-134852" y2="-3.52852e+06" gradientUnits="userSpaceOnUse">
<stop stop-color="#1631B0"/>
<stop offset="1" stop-color="#D9BDFF"/>
</linearGradient>
<linearGradient id="paint3_linear" x1="-2.17799e+06" y1="-3.73178e+06" x2="-2.17799e+06" y2="-3.70734e+06" gradientUnits="userSpaceOnUse">
<stop stop-color="#1631B0"/>
<stop offset="1" stop-color="#D9BDFF"/>
</linearGradient>
<linearGradient id="paint4_linear" x1="-339308" y1="-3.2418e+06" x2="-339308" y2="-3.21955e+06" gradientUnits="userSpaceOnUse">
<stop stop-color="#1631B0"/>
<stop offset="1" stop-color="#D9BDFF"/>
</linearGradient>
<linearGradient id="paint5_linear" x1="39.6423" y1="153.357" x2="191.307" y2="281.133" gradientUnits="userSpaceOnUse">
<stop stop-color="#0000CD" stop-opacity="0"/>
<stop offset="0.3" stop-color="#0000CD"/>
<stop offset="0.7" stop-color="#0000CD"/>
<stop offset="1" stop-color="#0000CD" stop-opacity="0"/>
</linearGradient>
<linearGradient id="paint6_linear" x1="347.563" y1="243.179" x2="185.411" y2="-25.278" gradientUnits="userSpaceOnUse">
<stop stop-color="#72FFC9"/>
<stop offset="1" stop-color="#6EAFFC"/>
</linearGradient>
<linearGradient id="paint7_linear" x1="346.479" y1="247.014" x2="292.525" y2="15.0714" gradientUnits="userSpaceOnUse">
<stop stop-color="#A6FFD2"/>
<stop offset="1" stop-color="#80F0FF"/>
</linearGradient>
<clipPath id="clip0">
<rect width="400" height="399.3" fill="white"/>
</clipPath>
</defs>
</svg>
