<svg width="400" height="400" viewBox="0 0 400 400" fill="none" xmlns="http://www.w3.org/2000/svg">
<path fill-rule="evenodd" clip-rule="evenodd" d="M0 0H400V400H0V0Z" fill="white"/>
<path fill-rule="evenodd" clip-rule="evenodd" d="M137.052 140.91V150.537L114.437 154.193V144.697L137.052 140.91ZM137.052 154.794V272.378L114.437 261.589V158.557L137.052 154.794ZM263.525 272.394V212.092C263.525 183.25 243.862 164.957 212.866 164.957C178.834 164.957 166.71 188.427 162.413 197.628C174.125 189.288 184.386 186.354 198.794 187.306C217.056 188.516 230.901 199.871 230.901 213.373V264.142L263.525 272.394ZM158.238 80.9416L149.654 79.5369H137.052V136.664L114.437 140.478V96.2504L126.598 78.4059L133.686 60.4226L144.306 34.0431L137.062 75.8306L149.606 75.8348L157.148 77.055L148.579 46.3198L164.534 23.0572L209.681 5.88106L158.238 80.9416ZM209.718 54.278C199.878 48.6834 202.45 57.9905 202.45 43.9271C202.45 42.4143 202.71 40.1026 202.982 39.7498C203.034 39.6792 203.026 39.534 203.058 39.3618L200.967 40.115C200.621 40.1938 200.311 41.6216 200.374 43.7777C200.527 49.0195 201.949 52.2007 207.464 55.1682L209.718 54.278ZM276.123 131.709V97.7032C276.123 94.7392 274.506 92.5336 272.466 92.5336C270.426 92.5336 268.794 94.9616 268.794 97.9288L269.977 97.952C269.977 96.5432 270.483 95.64 271.197 95.64C271.906 95.64 272.49 96.7728 272.49 98.184L272.473 131.713H276.123V131.709Z" fill="#CC2229"/>
<path fill-rule="evenodd" clip-rule="evenodd" d="M146.006 131.709L146.023 98.18C146.023 96.7688 145.446 95.636 144.732 95.636C144.018 95.636 143.51 96.5408 143.51 97.948L142.33 97.9248C142.33 94.9592 143.962 92.5296 146.002 92.5296C148.04 92.5296 149.667 94.7352 149.667 97.6984L149.642 131.705H146.006V131.709Z" fill="#CC2229"/>
<path fill-rule="evenodd" clip-rule="evenodd" d="M137.1 136.658V140.91H283.629L287.559 136.749H263.554L263.594 79.5368H276.167L283.706 80.7528L287.601 77.721L276.123 75.8346L263.598 75.8492L270.821 34.043L255.181 73.0851L213.368 11.4569L212.21 11.3262L208.983 16.2339L211.359 16.7506L255.258 82.8968L255.249 136.658H137.1Z" fill="#CC2229"/>
<path fill-rule="evenodd" clip-rule="evenodd" d="M240.148 131.708V104.378C240.148 94.8928 236.172 87.5344 231.028 87.5344C226.326 87.5344 222.382 96.368 222.382 106.9V131.708H240.148ZM215.477 131.708V86.5344C215.477 77.0506 211.484 69.69 206.342 69.69C201.639 69.69 197.694 78.5261 197.694 89.0576L197.684 131.708H215.477ZM190.894 131.708V104.378C190.894 94.8928 186.902 87.5344 181.759 87.5344C177.057 87.5344 173.114 96.368 173.114 106.9L173.11 131.708H190.894Z" fill="#CC2229"/>
<path fill-rule="evenodd" clip-rule="evenodd" d="M179.526 87.9928C178.968 88.08 178.107 88.78 177.839 89.2552C182.863 91.7824 184.714 95.9848 184.714 104.314V133.482H187.632V106.796C187.63 95.3808 184.476 89.172 179.526 87.9928ZM204.106 70.1488C203.55 70.236 202.687 70.9353 202.418 71.4085C207.443 73.9381 209.29 78.1382 209.29 86.468V133.478H212.208V88.9496C212.21 77.5385 209.056 71.3275 204.106 70.1488ZM228.795 87.9928C228.238 88.08 227.375 88.78 227.106 89.2552C232.132 91.7824 233.978 95.9848 233.978 104.314V133.482H236.896V106.796C236.896 95.3808 233.744 89.172 228.795 87.9928Z" fill="white"/>
<path fill-rule="evenodd" clip-rule="evenodd" d="M137.1 150.536V154.766H283.629L287.559 150.536H137.1Z" fill="#CC2229"/>
<path fill-rule="evenodd" clip-rule="evenodd" d="M56.2202 308.255H60.2129C63.5954 308.255 64.4503 308.583 64.4503 309.884C64.4503 310.237 64.4006 310.654 64.3072 311.134L64.2532 311.418H65.2016L66.237 305.885H65.4298C65.2286 306.238 64.7346 306.485 64.0457 306.574C62.9915 306.711 59.2147 306.834 54.639 306.875L53.5184 306.879C48.0981 306.879 45.2011 306.68 44.5434 306.258C44.4022 306.17 44.342 306.084 44.2818 305.885H43.4206L42.3831 311.418H43.2298C43.8586 309.014 45.4294 308.257 49.7831 308.257H53.0556V329.731C53.0556 331.976 52.4373 332.766 50.6838 332.766H50.2894V333.558C51.6778 333.416 52.0803 333.4 54.639 333.4C57.1935 333.4 57.5961 333.416 58.9865 333.558V332.766H58.5901C56.8366 332.766 56.2182 331.976 56.2182 329.731V308.255H56.2202ZM74.5377 320.114H88.7688V329.729C88.7688 331.962 88.1424 332.765 86.3976 332.765H86.0032V333.555C87.3936 333.414 87.7936 333.398 90.3528 333.398C92.9088 333.398 93.312 333.414 94.7024 333.555V332.765H94.308C92.5544 332.765 91.9336 331.974 91.9336 329.729V310.5C91.9336 308.255 92.552 307.464 94.308 307.464H94.7024V306.674C93.312 306.815 92.9088 306.831 90.3528 306.831C87.796 306.831 87.3936 306.815 86.0032 306.674V307.464H86.3976C88.1424 307.464 88.7688 308.267 88.7688 310.5V318.93H74.5377V310.5C74.5377 308.255 75.1561 307.464 76.9096 307.464H77.3039V306.674C75.9135 306.815 75.511 306.831 72.9544 306.831C70.3998 306.831 69.9973 306.815 68.6069 306.674V307.464H69.0012C70.7547 307.464 71.3731 308.255 71.3731 310.5V329.729C71.3731 331.974 70.7547 332.765 69.0012 332.765H68.6069V333.555C69.9973 333.414 70.3998 333.398 72.9544 333.398C75.511 333.398 75.9135 333.414 77.3039 333.555V332.765H76.9096C75.1561 332.765 74.5377 331.974 74.5377 329.729V320.114ZM98.8128 333.554H110.182C112.214 333.554 112.621 333.528 113.042 333.379C113.692 333.153 113.997 332.665 114.433 331.158C114.501 330.924 114.624 330.554 114.796 330.061L114.852 329.903L113.966 329.588L113.893 329.778C113.283 331.407 111.592 331.976 107.365 331.976H104.738V320.117H107.827C110.965 320.117 112.011 320.66 112.011 322.285V322.489H112.804V316.56H112.011V316.73C112.011 318.33 110.814 318.934 107.632 318.934H104.738V308.257H109.558C111.725 308.257 112.277 308.508 112.7 309.681L112.804 309.969L113.53 309.786L113.04 306.678H98.8112V307.469H99.2072C100.961 307.469 101.579 308.259 101.579 310.505V329.733C101.579 331.978 100.961 332.769 99.2072 332.769H98.8112V333.554H98.8128ZM42.0946 389.438L40.9637 390.253C42.5865 392.992 44.8878 394.119 48.8762 394.119C53.2528 394.119 57.2433 392.656 60.9495 389.689C66.401 385.33 69.5366 380.75 73.6081 371.198L73.8135 370.718C81.5312 365.922 87.3352 357.436 87.3352 350.943C87.3352 349.127 86.2352 347.787 84.7472 347.787C81.18 347.787 77.1338 353.186 72.9315 363.55L69.3706 372.318L69.2689 372.56L69.0697 372.682C65.351 374.911 64.1723 375.471 61.045 376.476C65.129 373.521 67.2145 369.974 67.2145 365.982C67.2145 361.431 64.4442 358.426 60.2523 358.426C53.342 358.426 46.8862 364.664 46.8862 371.34C46.8862 376.086 49.6606 379.15 53.9562 379.15C58.5092 379.15 65.1165 376.829 68.6733 373.975C63.9544 385.83 56.2638 392.936 48.1603 392.936C45.4647 392.932 43.3978 391.738 42.0946 389.438Z" fill="black"/>
<path fill-rule="evenodd" clip-rule="evenodd" d="M74.2328 369.149L74.4071 368.674L75.9324 364.239C79.7777 353.064 82.1912 348.833 84.7224 348.833C85.5608 348.833 86.1504 349.667 86.1504 350.86C86.148 356.295 81.0248 364.154 74.2328 369.149ZM49.7293 372.998C49.7293 369.302 51.3542 365.442 54.0332 362.797C56.0855 360.763 58.3786 359.594 60.3271 359.594C62.8526 359.594 64.4713 361.394 64.4713 364.195C64.4713 367.458 62.8547 371.434 60.3271 374.384C58.4533 376.574 56.1457 377.744 53.7115 377.744C51.3894 377.744 49.7293 375.766 49.7293 372.998Z" fill="white"/>
<path fill-rule="evenodd" clip-rule="evenodd" d="M325.222 308.255H329.21C332.599 308.255 333.45 308.583 333.45 309.884C333.45 310.237 333.402 310.654 333.309 311.134C333.296 311.198 333.275 311.291 333.253 311.418H334.205L335.238 305.885H334.431C334.228 306.238 333.734 306.485 333.045 306.574C331.99 306.711 328.214 306.834 323.638 306.875L322.52 306.879C317.098 306.879 314.202 306.68 313.546 306.258C313.402 306.17 313.343 306.084 313.283 305.885H312.424L311.386 311.418H312.233C312.862 309.014 314.43 308.257 318.786 308.257H322.057V329.731C322.057 331.976 321.441 332.767 319.685 332.767H319.293V333.558C320.679 333.417 321.084 333.4 323.638 333.4C326.195 333.4 326.598 333.417 327.988 333.558V332.767H327.596C325.84 332.767 325.224 331.976 325.224 329.731V308.255H325.222ZM236.888 333.554H248.258C250.292 333.554 250.698 333.529 251.12 333.379C251.767 333.153 252.072 332.666 252.51 331.158C252.578 330.924 252.705 330.554 252.875 330.061L252.931 329.903L252.043 329.588L251.974 329.778C251.362 331.408 249.674 331.976 245.442 331.976H242.819V320.117H245.911C249.045 320.117 250.09 320.66 250.09 322.286V322.489H250.885V316.56H250.09V316.73C250.09 318.33 248.895 318.934 245.714 318.934H242.819V308.257H247.642C249.806 308.257 250.354 308.508 250.779 309.681L250.885 309.969L251.611 309.786L251.122 306.678H236.892V307.469H237.289C239.04 307.469 239.661 308.259 239.661 310.505V329.733C239.661 331.978 239.04 332.769 237.289 332.769H236.892V333.554H236.888ZM131.617 307.464H132.011C133.765 307.464 134.382 308.255 134.382 310.5V325.651C134.382 330.895 137.898 334.378 143.193 334.378C145.375 334.378 147.695 333.806 151.232 332.387C152.421 331.91 152.649 331.796 153.342 331.325L153.975 333.554C154.78 333.433 155.594 333.378 156.407 333.391C157.493 333.391 157.984 333.421 159.29 333.554V332.762H158.895C157.142 332.762 156.523 331.972 156.523 329.726V310.498C156.523 308.253 157.142 307.462 158.895 307.462H159.29V306.672C157.899 306.813 157.497 306.83 154.94 306.83C152.386 306.83 151.981 306.813 150.59 306.672V307.462H150.985C152.738 307.462 153.358 308.253 153.358 310.498V329.6C152.593 330.171 152.306 330.314 150.827 330.841C148.303 331.742 146.668 332.086 144.942 332.086C140.262 332.086 137.546 329.722 137.546 325.649V310.498C137.546 308.253 138.164 307.462 139.918 307.462H140.312V306.672C138.924 306.813 138.522 306.83 135.965 306.83C133.408 306.83 133.007 306.813 131.617 306.672V307.464ZM186.723 328.021L168.935 306.674C167.65 306.802 167.182 306.831 166.169 306.831C165.156 306.831 164.683 306.802 163.402 306.674V307.464H163.591C164.631 307.464 165.15 307.699 165.884 308.494L166.169 308.801V329.726C166.169 331.972 165.55 332.762 163.797 332.762H163.402V333.554C164.724 333.421 165.216 333.396 166.959 333.396C168.702 333.396 169.196 333.421 170.518 333.554V332.762H170.124C168.37 332.762 167.752 331.972 167.752 329.726V310.629L188.306 334.74V310.498C188.306 308.253 188.925 307.462 190.678 307.462H191.073V306.672C189.753 306.809 189.259 306.83 187.516 306.83C185.77 306.83 185.277 306.809 183.959 306.672V307.462H184.354C186.107 307.462 186.726 308.253 186.726 310.498V328.021H186.723ZM194.555 307.464H194.947C196.702 307.464 197.321 308.255 197.321 310.5V329.729C197.321 331.974 196.702 332.765 194.947 332.765H194.555V333.555C195.941 333.414 196.346 333.398 198.902 333.398C201.457 333.398 201.862 333.414 203.252 333.555V332.765H202.855C201.102 332.765 200.483 331.974 200.483 329.729V310.5C200.483 308.255 201.102 307.464 202.855 307.464H203.252V306.674C201.862 306.815 201.457 306.831 198.902 306.831C196.348 306.831 195.943 306.815 194.555 306.674V307.464ZM299.682 307.464H300.079C301.834 307.464 302.451 308.255 302.451 310.5V329.729C302.451 331.974 301.834 332.765 300.079 332.765H299.682V333.555C301.073 333.414 301.474 333.398 304.032 333.398C306.59 333.398 306.991 333.414 308.382 333.555V332.765H307.986C306.234 332.765 305.614 331.974 305.614 329.729V310.5C305.614 308.255 306.234 307.464 307.986 307.464H308.382V306.674C306.991 306.815 306.59 306.831 304.032 306.831C301.474 306.831 301.073 306.815 299.682 306.674V307.464ZM226.89 307.464H227.081C227.897 307.464 228.569 308.21 228.569 309.11C228.569 309.658 228.386 310.436 228.038 311.364L221.493 328.82L214.282 311.364C213.889 310.415 213.694 309.674 213.694 309.13C213.694 308.259 214.429 307.464 215.238 307.464H215.425V306.674C215.289 306.684 215.152 306.693 215.016 306.698C214.31 306.723 212.945 306.74 210.914 306.74C209.598 306.748 208.282 306.733 206.966 306.693L206.732 306.676V307.466H206.89C208.251 307.466 209.509 308.354 210.083 309.728L220.565 334.745L229.826 310.97C230.63 308.906 230.885 308.469 231.549 307.99C231.982 307.678 232.538 307.466 232.931 307.466H233.215V306.676C232.558 306.729 231.898 306.749 231.238 306.736L230.592 306.732L227.09 306.69L226.89 306.674V307.464ZM280.448 327.118L281.473 332.374C283.062 333.37 285.606 334.046 287.783 334.046C292.924 334.046 296.202 330.989 296.202 326.207C296.202 322.418 294.582 320.445 289.138 317.618C285.03 315.487 283.894 314.238 283.894 311.855C283.894 309.338 285.754 307.624 288.487 307.624C291.238 307.624 292.845 308.823 293.671 311.498L293.7 311.6H294.588L294.175 306.574H293.694C293.567 306.757 293.43 306.809 293.11 306.809C292.664 306.809 292.442 306.775 290.658 306.431C289.923 306.277 289.175 306.194 288.425 306.184C284.186 306.184 281.033 309.025 281.033 312.847C281.033 315.037 282.062 316.95 283.938 318.258C284.81 318.862 285.933 319.546 287.298 320.303C292.47 323.17 293.575 324.41 293.575 327.324C293.575 330.42 291.458 332.58 288.429 332.58C284.916 332.58 282.646 330.79 281.315 326.958L280.448 327.118ZM265.204 332.767H264.807C263.056 332.767 262.44 331.976 262.44 329.731V321.304H262.568C264.596 321.304 265.353 321.734 266.557 323.562L273.11 333.555L273.293 333.539C274.407 333.442 275.334 333.394 276.082 333.394C276.839 333.394 277.594 333.437 278.676 333.539L278.842 333.555V332.765H278.651C277.541 332.765 275.746 331.541 274.793 330.13L270.086 323.174C269.007 321.574 268.45 321.005 267.714 320.77C271.322 320.106 273.834 317.098 273.834 313.443C273.834 311.579 273.295 309.913 272.303 308.722C270.883 307.025 269.819 306.676 265.992 306.676H256.509V307.466H256.901C258.657 307.466 259.273 308.257 259.273 310.502V329.731C259.273 331.976 258.657 332.767 256.901 332.767H256.509V333.558C257.895 333.417 258.3 333.4 260.854 333.4C263.411 333.4 263.814 333.417 265.204 333.558V332.767Z" fill="black"/>
<path fill-rule="evenodd" clip-rule="evenodd" d="M262.439 308.259L262.618 308.234L263.63 308.077C264.347 307.961 265.07 307.894 265.795 307.878C268.87 307.878 270.508 309.807 270.508 313.422C270.508 318.129 268.481 320.118 263.678 320.118H262.438V308.259H262.439Z" fill="white"/>
<path fill-rule="evenodd" clip-rule="evenodd" d="M358.626 307.541V306.754C358.03 306.802 357.498 306.81 355.635 306.81C354.326 306.81 353.423 306.798 352.922 306.769L352.728 306.753V307.539H352.918C353.815 307.539 354.199 307.79 354.199 308.39C354.198 308.539 354.176 308.688 354.134 308.832C354.098 308.991 354.043 309.146 353.973 309.294L348.656 318.094L343.379 309.294C343.242 309.034 343.162 308.746 343.145 308.452C343.145 307.921 343.582 307.541 344.182 307.541H344.373V306.754L343.964 306.779C343.462 306.809 342.242 306.821 340.312 306.821C338.803 306.821 337.714 306.805 337.046 306.774L336.807 306.757V307.543H337.44C338.349 307.543 339.009 308.062 339.876 309.465L346.243 319.73V329.778C346.243 332.011 345.626 332.798 343.883 332.798H343.491V333.584C344.878 333.443 345.274 333.426 347.82 333.426C350.362 333.426 350.758 333.443 352.145 333.584V332.798H351.748C350.005 332.798 349.393 332.011 349.393 329.778V319.73L355.643 309.465C356.474 308.095 357.174 307.543 358.079 307.543H358.626V307.541ZM305.775 353.462H309.768C313.152 353.462 314.007 353.786 314.007 355.091C314.007 355.44 313.959 355.857 313.862 356.337C313.844 356.433 313.826 356.529 313.81 356.625H314.758L315.792 351.088H314.985C314.786 351.441 314.291 351.688 313.602 351.778C312.549 351.914 308.772 352.037 304.196 352.078L303.074 352.086C297.655 352.086 294.76 351.883 294.104 351.462C293.959 351.373 293.901 351.287 293.841 351.088H292.982L291.944 356.625H292.791C293.42 354.218 294.989 353.465 299.34 353.465H302.614V374.938C302.614 377.179 301.994 377.974 300.242 377.974H299.846V378.765C301.237 378.619 301.638 378.607 304.196 378.607C306.754 378.607 307.155 378.619 308.546 378.765V377.974H308.149C306.398 377.974 305.777 377.179 305.777 374.938V353.462H305.775ZM229.382 365.318H243.616V374.936C243.616 377.169 242.987 377.972 241.24 377.972H240.847V378.762C242.238 378.618 242.638 378.605 245.197 378.605C247.75 378.605 248.156 378.618 249.546 378.762V377.972H249.15C247.394 377.972 246.778 377.178 246.778 374.936V355.703C246.778 353.462 247.394 352.672 249.15 352.672H249.546V351.877C248.156 352.022 247.751 352.038 245.197 352.038C242.64 352.038 242.238 352.022 240.847 351.877V352.672H241.24C242.987 352.672 243.616 353.47 243.616 355.703V364.133H229.382V355.703C229.382 353.462 230.002 352.672 231.754 352.672H232.15V351.877C230.764 352.022 230.359 352.038 227.801 352.038C225.249 352.038 224.846 352.022 223.455 351.877V352.672H223.848C225.603 352.672 226.224 353.462 226.224 355.703V374.936C226.224 377.178 225.603 377.972 223.848 377.972H223.455V378.762C224.846 378.618 225.246 378.605 227.801 378.605C230.358 378.605 230.764 378.618 232.15 378.762V377.972H231.754C230.002 377.972 229.382 377.178 229.382 374.936V365.318ZM254.288 378.761H265.658C267.692 378.761 268.098 378.736 268.52 378.586C269.167 378.356 269.472 377.873 269.914 376.362C269.982 376.127 270.101 375.762 270.275 375.264L270.331 375.106L269.443 374.791L269.374 374.982C268.762 376.61 267.074 377.183 262.846 377.183H260.219V365.32H263.311C266.445 365.32 267.494 365.863 267.494 367.488V367.696H268.286V361.767H267.494V361.933C267.494 363.533 266.295 364.137 263.114 364.137H260.219V353.465H265.042C267.206 353.465 267.758 353.711 268.179 354.888L268.286 355.172L269.011 354.99L268.522 351.881H254.293V352.676H254.689C256.44 352.676 257.061 353.466 257.061 355.708V374.94C257.061 377.182 256.44 377.976 254.689 377.976H254.293V378.761H254.288ZM318.164 378.761H329.534C331.566 378.761 331.97 378.736 332.395 378.586C333.042 378.356 333.348 377.873 333.786 376.362C333.854 376.127 333.977 375.762 334.151 375.264L334.202 375.106L333.318 374.791L333.25 374.982C332.638 376.61 330.949 377.183 326.718 377.183H324.094V365.32H327.186C330.32 365.32 331.366 365.863 331.366 367.488V367.696H332.157V361.767H331.366V361.933C331.366 363.533 330.17 364.137 326.99 364.137H324.094V353.465H328.918C331.082 353.465 331.63 353.711 332.055 354.888L332.157 355.172L332.887 354.99L332.398 351.881H318.168V352.676H318.56C320.316 352.676 320.932 353.466 320.932 355.708V374.94C320.932 377.182 320.316 377.976 318.56 377.976H318.168V378.761H318.164ZM186.696 373.226L168.906 351.879C167.623 352.012 167.152 352.041 166.139 352.041C165.127 352.041 164.658 352.012 163.374 351.879V352.674H163.562C164.602 352.674 165.121 352.904 165.855 353.699L166.139 354.006V374.936C166.139 377.178 165.521 377.972 163.768 377.972H163.374V378.762C164.695 378.626 165.187 378.605 166.93 378.605C168.675 378.605 169.167 378.626 170.489 378.762V377.972H170.095C168.342 377.972 167.723 377.178 167.723 374.936V355.834L188.278 379.946V355.703C188.278 353.462 188.898 352.672 190.651 352.672H191.046V351.877C189.724 352.014 189.232 352.038 187.489 352.038C185.746 352.038 185.25 352.014 183.93 351.877V352.672H184.324C186.078 352.672 186.698 353.462 186.698 355.703V373.226H186.696ZM273.811 372.326L274.841 377.582C276.43 378.578 278.97 379.253 281.151 379.253C286.283 379.253 289.57 376.191 289.57 371.41C289.57 367.621 287.946 365.648 282.502 362.822C278.395 360.694 277.258 359.441 277.258 357.062C277.258 354.542 279.118 352.827 281.85 352.827C284.602 352.827 286.213 354.026 287.034 356.702L287.063 356.807H287.951L287.538 351.778H287.062C286.933 351.96 286.794 352.016 286.474 352.016C286.028 352.016 285.806 351.978 284.022 351.634C283.286 351.483 282.538 351.402 281.788 351.391C277.549 351.391 274.398 354.228 274.398 358.05C274.398 360.244 275.424 362.158 277.3 363.461C278.171 364.064 279.29 364.749 280.659 365.506C285.835 368.377 286.941 369.614 286.941 372.531C286.941 375.623 284.822 377.783 281.79 377.783C278.282 377.783 276.007 375.992 274.673 372.166L273.811 372.326ZM99.5744 377.972V378.762C100.762 378.622 101.174 378.605 103.034 378.605C104.934 378.605 105.381 378.622 106.606 378.762V377.972H106.439C104.842 377.972 104.026 376.972 104.026 375.009C104.026 374.413 104.057 373.768 104.122 373.074L105.678 356.307L114.558 379.288L123.153 356.307L124.813 374.53C124.84 374.822 124.854 375.117 124.854 375.414C124.854 377.161 124.134 377.97 122.584 377.97H122.37V378.761L122.742 378.748L127.39 378.607L130.885 378.744L131.192 378.761V377.97H130.97C129.216 377.97 128.388 377.09 128.187 375.011L126.305 355.594C126.274 355.3 126.258 355.005 126.255 354.71C126.255 353.522 126.878 352.946 128.162 352.946H128.432V351.875L128.185 351.883C126.174 351.947 125.27 351.977 124.879 351.977C124.248 351.977 123.935 351.956 123.261 351.875L115.331 373.34L107.442 351.858C106.672 352.058 106.437 352.08 105.385 352.08C105.111 352.08 104.838 352.072 104.563 352.055L102.11 351.914L101.945 351.906V352.81H102.19C103.451 352.81 104.254 353.512 104.254 354.618C104.254 354.822 104.242 355.06 104.213 355.332L102.316 374.114C102.046 376.794 101.251 377.968 99.716 377.968H99.5744V377.972ZM218.594 376.175L218.946 372.276H218.112C217.062 375.681 213.561 377.825 209.05 377.825C202.691 377.825 197.942 372.297 197.942 364.884C197.942 357.604 202.285 352.693 208.72 352.693C213.053 352.693 216.607 354.811 217.305 357.812H218.206L217.832 351.879H217.025C216.952 352.176 216.728 352.265 216.068 352.265C215.338 352.265 214.532 352.192 213.665 352.058L211.982 351.786C210.758 351.59 209.534 351.493 208.326 351.493C199.93 351.493 193.97 357.37 193.97 365.658C193.97 373.651 199.734 379.155 208.108 379.155C211.306 379.155 215.761 377.891 218.594 376.175ZM134.514 378.761L134.753 378.744L137.631 378.603L140.92 378.761H141.062V377.97H140.682C139.916 377.97 139.39 377.329 139.39 376.397C139.39 375.951 139.498 375.389 139.669 374.922L141.455 370.07H151.244L153.211 375.067C153.373 375.476 153.521 376.278 153.521 376.742C153.511 377.065 153.378 377.373 153.149 377.601C152.919 377.83 152.611 377.962 152.288 377.97H152.066V378.761L152.232 378.744C153.478 378.638 154.727 378.591 155.978 378.603C157.584 378.603 159.03 378.646 160.31 378.744L160.526 378.761V377.97H160.201C159.086 377.97 157.841 376.937 157.243 375.517L147.306 351.875H142.421V352.67H142.61C143.591 352.67 144.232 353.23 144.902 354.668L145.431 355.807L137.818 374.718C137.042 376.648 135.875 377.868 134.736 377.954L134.514 377.97V378.761Z" fill="black"/>
<path fill-rule="evenodd" clip-rule="evenodd" d="M141.891 368.877L146.202 357.32L150.778 368.877H141.891Z" fill="white"/>
<path fill-rule="evenodd" clip-rule="evenodd" d="M345.401 377.991H345.004C343.249 377.991 342.632 377.2 342.632 374.955V366.528H342.765C344.793 366.528 345.55 366.953 346.75 368.79L353.302 378.779L353.49 378.762C354.6 378.67 355.531 378.618 356.278 378.618C357.036 378.618 357.791 378.661 358.872 378.762L359.034 378.779V377.989H358.847C357.738 377.989 355.942 376.764 354.99 375.354L350.283 368.398C349.204 366.798 348.642 366.229 347.911 365.994C351.514 365.33 354.031 362.322 354.031 358.671C354.031 356.803 353.491 355.142 352.495 353.946C351.08 352.249 350.011 351.9 346.189 351.9H336.702V352.69H337.098C338.849 352.69 339.47 353.481 339.47 355.726V374.955C339.47 377.2 338.849 377.991 337.098 377.991H336.702V378.782C338.092 378.64 338.492 378.624 341.051 378.624C343.61 378.624 344.01 378.64 345.401 378.782V377.991Z" fill="black"/>
<path fill-rule="evenodd" clip-rule="evenodd" d="M342.632 353.483L342.814 353.458L343.827 353.301C344.543 353.185 345.266 353.118 345.992 353.102C349.063 353.102 350.705 355.031 350.705 358.65C350.705 363.353 348.673 365.342 343.871 365.342H342.63V353.483H342.632Z" fill="white"/>
</svg>
