<svg width="201" height="67" viewBox="0 0 201 67" fill="none" xmlns="http://www.w3.org/2000/svg">
<g clip-path="url(#clip0)">
<path fill-rule="evenodd" clip-rule="evenodd" d="M121.6 3.7V0H106.6V20.5H121.6V17.1H110.8V11.5H120.3V7.9H110.8V3.7H121.6ZM117.4 22.6V30.5H109.2V22.6H105V43.1H109.2V33.9H117.4V43.1H121.6V22.6H117.4ZM121.6 48.9V45.2H106.6V66H121.6V62.3H110.8V56.8H120.3V53.4H110.8V48.9H121.6ZM104.3 0H100.1V7.9H91.9V0H87.7V20.5H91.9V11.3H100.1V20.5H104.3V0ZM69.8 0V3.7H76.1V20.5H80.3V3.7H86.6V0H69.8ZM56.7 22.1C50.1 22.1 46.7 25.8 46.7 32.9C46.7 40.3 50.2 44 56.7 44C63.2 44 66.6 40.3 66.6 32.9C66.7 25.8 63.3 22.1 56.7 22.1ZM51.2 32.9C51.2 28.2 53 25.8 56.7 25.8C60.6 25.8 62.5 28.1 62.5 32.9C62.5 37.9 60.7 40.3 56.7 40.3C53.1 40.3 51.2 37.9 51.2 32.9ZM40.7 22.6V37.1L32.5 22.6H28.1V43.1H32V28.7L40.4 43.1H44.8V22.6H40.7ZM60.1 53.7V48.9H70.6V45.2H55.9V66H60.1V57.3H69.3V53.6L60.1 53.7ZM103.5 26.3V22.6H86.7V26.3H93V43.1H97.2V26.3H103.5ZM77.5 35.3C78.8 35.3 79.9 35.5 80.4 36.1L81.2 43.2H85.9V42.7C85.4 42.4 85.1 41.1 85.1 38.7C85.1 35.8 84 34.3 82.5 33.5C84.6 32.7 85.7 31.1 85.7 28.5C85.7 24.8 83.6 22.7 79.1 22.7H68.8V43.2H73V35.4H77.5V35.3ZM73 31.8V26.3H78.2C80.3 26.3 81.4 27.1 81.4 28.9C81.4 30.7 80.3 31.8 78 31.8H73ZM80.3 45.2H75.3L68 66H72.4L74 61.5H81.6L83 66H87.5L80.3 45.2ZM77.7 49.9L80.3 58.1H75.1L77.7 49.9ZM100.9 52H105.1C104.9 50.2 104.3 48.6 103.1 47.3C101.3 45.7 99.2 44.7 96.3 44.7C93.4 44.7 91.3 45.8 89.5 47.6C87.9 49.4 86.9 52 86.9 55.5C86.9 62.8 90 66.5 96.1 66.5C101.4 66.5 104.3 63.9 105.3 58.9H101.1C100.5 61.3 98.7 62.6 96.4 62.6C92.9 62.6 91.4 60.3 91.4 55.8C91.4 50.9 93 48.5 96.4 48.5C98.5 48.4 99.8 49.7 100.9 52ZM48.6 65.7C49.3 65.7 49.9 65.4 50.3 65.1C50.7 64.7 50.9 64.1 50.9 63.3C50.9 62.5 50.6 61.9 50.3 61.5C49.9 61.1 49.3 60.9 48.6 60.9H48.5C47.7 60.9 47.1 61.1 46.7 61.5C46.3 61.9 46.1 62.4 46.1 63.3V63.4C46.1 64.1 46.3 64.7 46.7 65.1C47.1 65.4 47.7 65.7 48.6 65.7ZM48.5 66.3C47.5 66.3 46.8 65.9 46.3 65.5C45.8 65 45.6 64.3 45.6 63.5V63.4C45.6 62.4 45.8 61.7 46.3 61.2C46.8 60.7 47.5 60.5 48.5 60.5H48.6C49.4 60.5 50.2 60.7 50.6 61.2C51.1 61.7 51.4 62.4 51.4 63.4C51.4 64.3 51 65 50.6 65.5C50.1 66 49.4 66.3 48.5 66.3ZM48.8 63C49.2 63 49.3 62.9 49.3 62.5V62.4C49.3 62.4 49.2 62.4 49.2 62.3C49.1 62.2 49 62.2 48.8 62.2H48V63H48.8ZM49.3 63.5L49.9 64.2C50 64.3 49.9 64.5 49.8 64.6C49.7 64.7 49.4 64.7 49.4 64.6L48.7 63.6H48V64.4C48 64.5 47.9 64.7 47.7 64.7C47.5 64.7 47.4 64.6 47.4 64.4V62.1C47.4 62 47.5 61.8 47.7 61.8H48.8C49.1 61.8 49.4 61.9 49.5 62C49.6 62.1 49.6 62.1 49.6 62.1C49.7 62.2 49.7 62.4 49.7 62.5C49.9 63.1 49.7 63.4 49.3 63.5ZM124.5 0C137.6 0 149 4.8 158.1 14C167.5 23.4 172.3 34.7 172.3 47.9V66H153.1V47.3C153.1 40 150.5 33.6 145.2 28.4C143.9 27.1 142.6 26 141 24.9C136.8 22 131.8 20.7 126.5 20.7H124.4L124.5 0ZM151.3 66H136.3V51.6C136.3 49.2 135.5 47.4 133.9 45.8C132.3 44.2 130.2 43.4 128.1 43.4H124.4V22.6H126.5C132 22.6 136.7 24.2 141 27.3C142.1 27.8 143.1 28.9 143.9 29.6C148.9 34.6 151.2 40.4 151.2 47.2V66H151.3ZM134.5 66H124.5V45.2H128.2C129.8 45.2 131.4 45.8 132.7 47C133.8 48.1 134.5 49.7 134.5 51.5V66Z" fill="#21325B"/>
</g>
<defs>
<clipPath id="clip0">
<rect width="200.4" height="66.5" fill="white"/>
</clipPath>
</defs>
</svg>
