<svg width="400" height="400" viewBox="0 0 400 400" fill="none" xmlns="http://www.w3.org/2000/svg">
<g clip-path="url(#clip0)">
<path d="M199.781 347.35C118.523 347.35 52.65 281.477 52.65 200.22C52.65 118.963 118.523 53.0906 199.781 53.0906C281.037 53.0906 346.909 118.963 346.909 200.22C346.909 281.477 281.037 347.35 199.781 347.35V347.35ZM199.781 0.439056C89.4453 0.439056 0 89.886 0 200.22C0 310.556 89.4453 400 199.781 400C310.116 400 399.561 310.556 399.561 200.22C399.561 89.886 310.116 0.439056 199.78 0.439056H199.781Z" fill="#CF272D"/>
<path d="M207.994 150.464C207.994 127.523 226.593 108.925 249.535 108.925C272.477 108.925 291.074 127.523 291.074 150.464C291.074 173.408 272.477 192.005 249.535 192.005C226.593 192.005 207.994 173.408 207.994 150.464V150.464ZM207.994 249.973C207.994 227.033 226.593 208.433 249.535 208.433C272.477 208.433 291.074 227.033 291.074 249.973C291.074 272.916 272.477 291.514 249.535 291.514C226.593 291.514 207.994 272.916 207.994 249.973V249.973ZM108.486 249.973C108.486 227.033 127.086 208.433 150.027 208.433C172.969 208.433 191.568 227.033 191.568 249.973C191.568 272.916 172.969 291.514 150.027 291.514C127.086 291.514 108.486 272.916 108.486 249.973ZM108.486 150.466C108.486 127.523 127.086 108.927 150.027 108.927C172.969 108.927 191.568 127.523 191.568 150.466C191.568 173.409 172.969 192.006 150.027 192.006C127.086 192.006 108.486 173.409 108.486 150.466Z" fill="#CF272D"/>
</g>
<defs>
<clipPath id="clip0">
<rect width="400" height="400" fill="white"/>
</clipPath>
</defs>
</svg>
