<svg width="400" height="270" viewBox="0 0 400 270" fill="none" xmlns="http://www.w3.org/2000/svg">
<g clip-path="url(#clip0)">
<path d="M152.833 269.44C264.778 269.44 325.997 176.663 325.997 96.2108C325.997 93.576 325.944 90.9533 325.825 88.3414C337.737 79.719 348.017 69.0431 356.184 56.8142C345.278 61.6641 333.544 64.9284 321.233 66.4002C333.799 58.8629 343.445 46.9388 347.996 32.7253C336.049 39.8151 322.979 44.8131 309.35 47.5037C298.244 35.6694 282.433 28.2678 264.925 28.2678C231.315 28.2678 204.06 55.5335 204.06 89.1427C204.06 93.9209 204.595 98.5671 205.639 103.025C155.056 100.479 110.203 76.252 80.1851 39.4136C74.7786 48.705 71.9348 59.2648 71.9443 70.0147C71.9443 91.1378 82.6885 109.785 99.0279 120.694C89.3629 120.399 79.9101 117.787 71.4643 113.079C71.4553 113.335 71.4553 113.584 71.4553 113.857C71.4553 143.342 92.4336 167.96 120.282 173.538C115.052 174.963 109.654 175.684 104.234 175.681C100.319 175.681 96.5034 175.295 92.7954 174.583C100.544 198.774 123.011 216.378 149.649 216.87C128.819 233.203 102.579 242.931 74.0593 242.931C69.2079 242.935 64.3604 242.653 59.542 242.087C86.4773 259.358 118.46 269.436 152.836 269.436" fill="#1DA1F2"/>
</g>
<defs>
<clipPath id="clip0">
<rect width="400" height="269.44" fill="white"/>
</clipPath>
</defs>
</svg>
