<svg width="400" height="130" viewBox="0 0 400 130" fill="none" xmlns="http://www.w3.org/2000/svg">
<g clip-path="url(#clip0)">
<path d="M173.4 127.6H140.8L161.2 2.2H193.8L173.4 127.6ZM113.4 2.2L82.2 88.4L78.6 69.8L67.6 13.6C67.6 13.6 66.2 2.4 52.2 2.4H0.6L0 4.4C0 4.4 15.8 7.6 34.2 18.8L62.6 127.8H96.6L148.6 2.4L113.4 2.2ZM370 127.6H400L373.8 2.2H347.6C335.4 2.2 332.6 11.6 332.6 11.6L284 127.6H318L324.8 109H366.2L370 127.6ZM334.2 83.2L351.4 36.2L361 83.2H334.2ZM286.4 32.4L291 5.4C291 5.4 276.6 0 261.6 0C245.4 0 207 7 207 41.6C207 74 252.2 74.4 252.2 91.4C252.2 108.4 211.8 105.4 198.4 94.6L193.6 122.8C193.6 122.8 208.2 129.8 230.4 129.8C252.6 129.8 286.2 118.2 286.2 86.8C286.2 54.2 240.6 51.2 240.6 37C240.6 22.8 272.4 24.6 286.4 32.4Z" fill="#2566AF"/>
<path d="M78.6 70L67.6 13.6C67.6 13.6 66.2 2.39999 52.2 2.39999H0.6L0 4.39999C0 4.39999 24.8 9.59999 48.4 28.8C71.2 47 78.6 70 78.6 70Z" fill="#E6A540"/>
</g>
<defs>
<clipPath id="clip0">
<rect width="400" height="129.8" fill="white"/>
</clipPath>
</defs>
</svg>
