<svg width="400" height="408" viewBox="0 0 400 408" fill="none" xmlns="http://www.w3.org/2000/svg">
<g clip-path="url(#clip0)">
<path d="M101.02 382.659C84.4637 373.807 69.348 362.673 55.9277 349.771V290.573L115.381 236.885V290.437L354.164 74.7761C367.22 90.7511 377.776 108.796 385.525 128.278L101.02 382.659Z" fill="#FF4B19"/>
<path d="M226.272 329.512L397.891 175.578C399.134 184.667 400.001 193.876 400.001 203.307C400.001 223.623 396.934 243.207 391.387 261.72L230.198 403.618C219.277 405.432 208.138 406.607 196.702 406.607C186.521 406.607 176.597 405.615 166.819 404.17V2.44643C176.597 1.00111 186.521 0.00892639 196.702 0.00892639C206.772 0.00892639 216.593 0.983927 226.272 2.39799V329.512Z" fill="#00D2FF"/>
<path d="M166.819 182.546L321.628 43.1496C305.247 30.3511 286.863 20.087 267.009 12.7558L0 253.876C5.14907 273.994 13.3708 293.197 24.375 310.807L166.819 182.546Z" fill="#556991"/>
<path d="M55.9277 282.395V296.734L115.381 243.045V17.0386C93.1996 26.737 73.1371 40.3011 55.9277 56.8433V282.395Z" fill="#FF4B19"/>
</g>
<defs>
<clipPath id="clip0">
<rect width="400" height="407.83" fill="white"/>
</clipPath>
</defs>
</svg>
