<svg xmlns="http://www.w3.org/2000/svg" width="56" height="56" fill="none" xmlns:v="https://vecta.io/nano"><rect width="56" height="56" rx="28" fill="#6366f1"/><path d="M31.916 43.75a2.67 2.67 0 0 1-2.665-2.411l-.344-3.439a.91.91 0 0 0-.907-.821.91.91 0 0 0-.907.821l-.344 3.439a2.68 2.68 0 0 1-5.156.718c-1.366-3.572-2.397-7.262-3.079-11.025-.133-.733-.112-1.485.061-2.209a5.38 5.38 0 0 1 .944-1.999c.45-.594 1.017-1.088 1.667-1.451s1.369-.588 2.11-.659a5.28 5.28 0 0 1 2.182.242 5.29 5.29 0 0 1 1.895 1.108l.33.312c.08.077.186.119.296.119a.43.43 0 0 0 .296-.119l.329-.311a5.29 5.29 0 0 1 1.896-1.109 5.28 5.28 0 0 1 2.183-.242c.737.073 1.46.296 2.11.659s1.218.857 1.667 1.451a5.39 5.39 0 0 1 .944 1.999c.173.725.194 1.477.061 2.209-.682 3.763-1.713 7.453-3.079 11.025a2.69 2.69 0 0 1-2.491 1.693zM28 35.954a2.03 2.03 0 0 1 2.027 1.834l.344 3.439c.035.346.185.67.426.921s.559.413.904.462.695-.02.996-.194.535-.445.664-.768A61.59 61.59 0 0 0 36.38 30.83a4.26 4.26 0 0 0-3.785-4.996 4.11 4.11 0 0 0-3.209 1.061 12.53 12.53 0 0 0-.304.287 1.56 1.56 0 0 1-2.164 0 13.33 13.33 0 0 0-.304-.288 4.1 4.1 0 0 0-1.49-.875 4.12 4.12 0 0 0-1.718-.185 4.26 4.26 0 0 0-3.735 3.248 4.26 4.26 0 0 0-.05 1.747 61.48 61.48 0 0 0 3.021 10.818c.129.323.363.593.664.768s.651.243.996.194.663-.211.904-.462.391-.575.426-.921l.344-3.439A2.03 2.03 0 0 1 28 35.954zm4.5-13.579h-9a.56.56 0 0 1-.534-.384l-2.25-6.75c-.037-.111-.038-.231-.004-.343s.103-.21.196-.282.206-.111.323-.115a.56.56 0 0 1 .33.094l2.932 1.955 3.056-4.074a.58.58 0 0 1 .9 0l3.056 4.074 2.932-1.955a.56.56 0 0 1 .85.303.56.56 0 0 1-.004.343l-2.25 6.75a.56.56 0 0 1-.534.384zm-8.595-1.125h8.189l1.604-4.81-2.011 1.34a.56.56 0 0 1-.762-.131L28 13.75l-2.925 3.9a.56.56 0 0 1-.355.217c-.142.024-.287-.007-.407-.086l-2.011-1.34 1.604 4.81zM28 20.125c-.334 0-.66-.099-.937-.284a1.69 1.69 0 0 1-.622-.757c-.128-.308-.161-.648-.096-.975a1.69 1.69 0 0 1 1.326-1.326c.327-.065.667-.032.975.096s.572.344.757.622.284.604.284.938A1.69 1.69 0 0 1 28 20.125zm0-2.25a.56.56 0 0 0-.519.347.56.56 0 0 0 .735.735.56.56 0 0 0 .347-.519.56.56 0 0 0-.563-.563z" fill="#fff"/></svg>