<svg xmlns="http://www.w3.org/2000/svg" width="56" height="56" fill="none" xmlns:v="https://vecta.io/nano"><rect width="56" height="56" rx="28" fill="#6366f1"/><path d="M30.99 27.937c-.566.002-1.112-.208-1.532-.587a2.27 2.27 0 0 1-.738-1.465l-.279-2.792c-.016-.156-.089-.302-.206-.407s-.268-.164-.426-.164a.63.63 0 0 0-.426.164c-.117.106-.19.251-.206.407l-.279 2.792a2.28 2.28 0 0 1-4.39.611 50.15 50.15 0 0 1-2.505-8.969 4.48 4.48 0 0 1 .836-3.499c.374-.494.846-.905 1.386-1.207a4.48 4.48 0 0 1 1.755-.548c.613-.061 1.231.008 1.815.201a4.39 4.39 0 0 1 1.576.922l.271.255c.045.043.105.067.167.067s.122-.024.167-.067l.27-.255c.455-.414.992-.729 1.577-.922a4.4 4.4 0 0 1 1.816-.202 4.5 4.5 0 0 1 3.165 1.787l.013.017c.361.49.618 1.05.756 1.643s.152 1.209.044 1.808a50.2 50.2 0 0 1-2.505 8.97 2.29 2.29 0 0 1-2.121 1.441zm-3.179-6.541c.437-.001.858.16 1.182.453a1.75 1.75 0 0 1 .569 1.131l.279 2.792c.026.257.137.498.317.685s.416.307.672.343a1.16 1.16 0 0 0 .741-.144 1.15 1.15 0 0 0 .494-.571c1.081-2.84 1.9-5.774 2.447-8.763.081-.445.07-.902-.031-1.342a3.34 3.34 0 0 0-.557-1.222l-.011-.015a3.37 3.37 0 0 0-2.381-1.351 3.22 3.22 0 0 0-2.523.834l-.244.23a1.37 1.37 0 0 1-.952.384c-.355 0-.697-.138-.952-.384l-.244-.23a3.23 3.23 0 0 0-1.172-.689c-.435-.144-.896-.193-1.352-.145a3.35 3.35 0 0 0-2.352 1.313 3.35 3.35 0 0 0-.628 2.619 49.88 49.88 0 0 0 2.447 8.763 1.15 1.15 0 0 0 .494.57 1.16 1.16 0 0 0 1.413-.199 1.15 1.15 0 0 0 .317-.685l.279-2.792c.042-.434.245-.838.569-1.131a1.75 1.75 0 0 1 1.182-.453zM24.998 43.75h-7.875a.56.56 0 0 1-.563-.563v-2.441a1.7 1.7 0 0 0-.493-1.194L13.215 36.7a3.92 3.92 0 0 1-.857-1.278 3.91 3.91 0 0 1-.298-1.51V21.346A2.35 2.35 0 0 1 14.406 19a2.34 2.34 0 0 1 2.325 2.086l.714 6.435c.412-.097.841-.089 1.249.025a2.5 2.5 0 0 1 1.082.625l4.961 4.961a2.83 2.83 0 0 1 .823 1.99v8.066a.56.56 0 0 1-.165.398c-.106.105-.249.165-.398.165zm-7.312-1.125h6.75v-7.504a1.7 1.7 0 0 0-.493-1.194l-4.961-4.961a1.36 1.36 0 0 0-.814-.377c-.306-.03-.613.045-.871.213l-.021.014a1.07 1.07 0 0 0-.123.095 1.33 1.33 0 0 0-.158 1.831l3.944 4.957c.046.058.08.124.101.195s.026.145.018.219a.56.56 0 0 1-.067.209c-.036.065-.084.121-.142.167a.56.56 0 0 1-.414.119c-.073-.008-.144-.031-.209-.067a.56.56 0 0 1-.168-.142l-3.943-4.956c-.39-.487-.58-1.104-.531-1.726s.333-1.202.794-1.622l-.764-6.884c-.032-.297-.173-.573-.395-.773a1.21 1.21 0 0 0-.812-.313 1.22 1.22 0 0 0-1.221 1.221v12.566a2.8 2.8 0 0 0 .825 1.993l2.852 2.852a2.83 2.83 0 0 1 .823 1.99v1.879zm20.812 1.125h-7.875a.56.56 0 0 1-.563-.563v-8.066a2.83 2.83 0 0 1 .823-1.99l4.961-4.961a2.5 2.5 0 0 1 1.081-.625c.408-.114.837-.122 1.249-.024l.714-6.435a2.34 2.34 0 0 1 .764-1.488 2.32 2.32 0 0 1 1.562-.599 2.35 2.35 0 0 1 2.346 2.346v12.566c.002.518-.1 1.031-.298 1.51a3.91 3.91 0 0 1-.857 1.279l-2.852 2.852a1.7 1.7 0 0 0-.494 1.194v2.441a.56.56 0 0 1-.165.398c-.105.105-.249.165-.398.165zm-7.312-1.125h6.75v-1.879a2.83 2.83 0 0 1 .823-1.99l2.852-2.852a2.8 2.8 0 0 0 .612-.914c.142-.342.214-.709.213-1.079V21.346a1.22 1.22 0 0 0-1.221-1.221 1.2 1.2 0 0 0-.809.309 1.22 1.22 0 0 0-.398.777l-.765 6.883a2.45 2.45 0 0 1 .794 1.623 2.46 2.46 0 0 1-.532 1.727L35.563 36.4a.56.56 0 0 1-.799.101.56.56 0 0 1-.187-.606.56.56 0 0 1 .106-.196l3.943-4.956a1.33 1.33 0 0 0-.153-1.828 1.13 1.13 0 0 0-.127-.099l-.021-.014a1.35 1.35 0 0 0-1.685.163l-4.961 4.961a1.7 1.7 0 0 0-.494 1.194v7.504z" fill="#fff"/></svg>