<svg xmlns="http://www.w3.org/2000/svg" width="56" height="56" fill="none" xmlns:v="https://vecta.io/nano"><rect width="56" height="56" rx="28" fill="#6366f1"/><g fill="#fff"><path d="M32.873 32.5a.56.56 0 0 1-.252-.06c-.078-.039-.146-.096-.198-.166s-.088-.151-.103-.237a.56.56 0 0 1 .014-.258l2.439-8.279h-1.9c-.089 0-.177-.021-.256-.062s-.148-.099-.2-.172a.56.56 0 0 1-.077-.507l3.375-10.125c.037-.112.109-.209.205-.278s.211-.106.329-.106h5.063c.093 0 .186.023.268.068s.152.109.203.187.082.168.09.261-.008.187-.046.273l-2.868 6.524h1.79a.56.56 0 0 1 .496.297c.048.09.071.191.066.293a.56.56 0 0 1-.094.285l-7.875 11.812c-.051.077-.121.14-.203.184a.56.56 0 0 1-.265.067zm.781-10.125h1.871c.087 0 .174.02.252.06s.146.096.198.166.088.151.103.237a.56.56 0 0 1-.014.258l-1.605 5.448 5.238-7.856h-1.601c-.094 0-.186-.023-.268-.068s-.152-.109-.203-.187-.082-.168-.09-.261.008-.187.046-.272l2.868-6.524h-3.795l-3 9z"/><path d="M32.086 43.75c-.862.003-1.694-.317-2.332-.896s-1.038-1.375-1.119-2.233l-.473-4.724c-.04-.363-.211-.7-.48-.948a1.47 1.47 0 0 0-1.511-.274c-.253.098-.473.265-.637.481s-.265.473-.292.743l-.472 4.723a3.47 3.47 0 0 1-2.972 3.094 3.47 3.47 0 0 1-3.708-2.158c-1.867-4.901-3.281-9.963-4.226-15.122a6.98 6.98 0 0 1-.116-1.289c-.003-1.533.489-3.025 1.404-4.255.6-.813 1.364-1.492 2.243-1.991s1.853-.808 2.858-.907a7.05 7.05 0 0 1 5.445 1.805l.449.42c.15.144.349.225.557.225s.408-.08.558-.224c.136-.136.283-.272.431-.409 1.297-1.193 2.996-1.854 4.758-1.853.665 0 1.326.092 1.966.274.144.041.265.137.337.268a.56.56 0 0 1 .049.428c-.041.143-.137.265-.268.337a.56.56 0 0 1-.428.049 6.04 6.04 0 0 0-1.657-.231 5.89 5.89 0 0 0-3.985 1.546l-.415.393c-.36.348-.842.543-1.343.544s-.983-.192-1.344-.539l-.405-.38c-.613-.568-1.34-.999-2.132-1.263a5.86 5.86 0 0 0-2.463-.269 6.09 6.09 0 0 0-2.413.765c-.742.421-1.387.994-1.893 1.68a5.99 5.99 0 0 0-1.184 3.587 5.86 5.86 0 0 0 .097 1.084 84.77 84.77 0 0 0 4.167 14.917 2.35 2.35 0 0 0 2.182 1.476 2.34 2.34 0 0 0 2.332-2.114l.473-4.726a2.59 2.59 0 0 1 1.645-2.16c.447-.173.933-.218 1.404-.132a2.59 2.59 0 0 1 1.266.623 2.65 2.65 0 0 1 .843 1.664l.473 4.73c.052.523.277 1.014.641 1.394s.845.626 1.366.699 1.051-.031 1.506-.295.807-.674 1.001-1.163c1.84-4.833 3.235-9.825 4.166-14.912a6.11 6.11 0 0 0-.201-2.964c-.046-.142-.034-.296.033-.429s.185-.234.327-.28.296-.034.429.033.234.185.28.327c.367 1.134.449 2.341.238 3.514-.945 5.16-2.359 10.222-4.226 15.124-.256.647-.701 1.203-1.277 1.594s-1.257.599-1.953.598z"/></g></svg>