<svg xmlns="http://www.w3.org/2000/svg" xmlns:xlink="http://www.w3.org/1999/xlink" width="56" height="56" fill="none" xmlns:v="https://vecta.io/nano"><rect width="56" height="56" rx="28" fill="#6366f1"/><g fill="#fff"><path d="M41.659 26.875H14.341a.56.56 0 0 1-.549-.438l-.882-4.28c-.203-1.122-.176-2.274.08-3.385s.736-2.158 1.41-3.078l.012-.018c.702-.951 1.596-1.744 2.624-2.327a8.45 8.45 0 0 1 3.343-1.06c1.149-.113 2.308.017 3.404.38s2.103.951 2.958 1.727l.528.498a1.05 1.05 0 0 0 1.458.001l.529-.499c.854-.776 1.862-1.365 2.958-1.728s2.255-.492 3.404-.38c1.176.116 2.315.477 3.343 1.06s1.922 1.376 2.625 2.327l.013.018a8.4 8.4 0 0 1 1.489 6.462l-.882 4.28c-.028.124-.098.235-.198.315s-.223.123-.351.123zM14.79 25.75h26.419l.774-3.796a7.27 7.27 0 0 0-1.3-5.607l-.012-.018a7.32 7.32 0 0 0-5.161-2.92c-.992-.104-1.995.005-2.942.318s-1.817.825-2.551 1.5l-.504.475a2.18 2.18 0 0 1-3.027-.001l-.503-.474c-.735-.675-1.604-1.186-2.551-1.5s-1.95-.422-2.942-.318a7.32 7.32 0 0 0-5.161 2.921l-.012.017a7.27 7.27 0 0 0-1.3 5.607l.774 3.796z"/><path d="M34.75 30.25h-13.5a.56.56 0 0 1-.533-.384l-1.125-3.375c-.028-.085-.036-.175-.023-.263s.048-.172.1-.244.121-.131.2-.172a.56.56 0 0 1 .256-.062h15.75a.56.56 0 0 1 .256.062c.079.041.148.1.2.172s.086.156.1.244a.56.56 0 0 1-.023.263l-1.125 3.375a.56.56 0 0 1-.533.384zm-13.095-1.125h12.689l.75-2.25H20.906l.75 2.25z"/><path d="M31.375 43.75h-6.75a.56.56 0 0 1-.562-.562v-13.5a.56.56 0 0 1 .563-.562h6.75a.56.56 0 0 1 .563.563v13.5a.56.56 0 0 1-.562.563zm-6.187-1.125h5.625V30.25h-5.625v12.375z"/><use xlink:href="#B"/><use xlink:href="#B" y="-2.25"/><use xlink:href="#B" y="2.25"/><path d="M32.5 41.5h-5.062a.56.56 0 0 1-.562-.562.56.56 0 0 1 .563-.562H32.5a.56.56 0 0 1 .563.563.56.56 0 0 1-.562.563z"/></g><defs ><path id="B" d="M32.5 37h-9a.56.56 0 0 1-.562-.562.56.56 0 0 1 .563-.562h9a.56.56 0 0 1 .563.563.56.56 0 0 1-.562.563z"/></defs></svg>