<svg xmlns="http://www.w3.org/2000/svg" width="56" height="56" fill="none" xmlns:v="https://vecta.io/nano"><rect width="56" height="56" rx="28" fill="#6366f1"/><g fill="#fff"><path d="M21.239 44.075a.56.56 0 0 1-.398-.165l-8.751-8.75a.56.56 0 0 1-.125-.19c-.028-.071-.042-.147-.04-.224a.56.56 0 0 1 .187-.404l21.085-18.866c.536-.479 1.235-.735 1.953-.715s1.402.314 1.911.822l3.354 3.354c.508.509.802 1.192.822 1.911s-.236 1.417-.715 1.953h0L21.658 43.888c-.051.057-.113.103-.183.135s-.145.05-.221.052h-.015zm-7.932-9.29l7.91 7.909 18.469-20.643a1.69 1.69 0 0 0-.064-2.319l-3.354-3.354a1.69 1.69 0 0 0-2.318-.064l-20.642 18.47z"/><path d="M39.933 19.813a.56.56 0 0 1-.397-.165l-3.181-3.182a.56.56 0 0 1 0-.796l3.579-3.58a.56.56 0 0 1 .796 0l3.182 3.182a.56.56 0 0 1 0 .795l-3.58 3.58a.56.56 0 0 1-.398.165zm-2.386-3.745l2.386 2.387 2.784-2.784-2.387-2.387-2.784 2.784zM22.742 42.397a.56.56 0 0 1-.398-.165l-8.575-8.575a.56.56 0 1 1 .795-.795l8.576 8.575a.56.56 0 0 1 .154.288c.022.109.011.222-.032.325a.56.56 0 0 1-.207.252c-.092.061-.201.095-.312.095zm2.872-8.266a.56.56 0 0 1-.398-.165l-3.182-3.182c-.105-.105-.165-.249-.165-.398a.56.56 0 0 1 .165-.398l8.75-8.75a.58.58 0 0 1 .795 0l3.182 3.182c.105.105.165.249.165.398a.56.56 0 0 1-.165.398l-8.75 8.75a.56.56 0 0 1-.398.165zm-2.387-3.744l2.387 2.386 7.955-7.955-2.386-2.387-7.955 7.955z"/></g></svg>