<svg xmlns="http://www.w3.org/2000/svg" width="56" height="56" fill="none" xmlns:v="https://vecta.io/nano"><rect width="56" height="56" rx="28" fill="#6366f1"/><path d="M32.902 43.75a3.47 3.47 0 0 1-3.465-3.134l-.475-4.746a1.47 1.47 0 0 0-1.465-1.325 1.47 1.47 0 0 0-1.464 1.325l-.474 4.746a3.48 3.48 0 0 1-.956 2.067 3.49 3.49 0 0 1-2.029 1.035 3.48 3.48 0 0 1-3.719-2.167c-1.872-4.918-3.291-9.997-4.238-15.173-.175-.963-.151-1.952.069-2.906a7.2 7.2 0 0 1 1.211-2.642l.01-.014a7.25 7.25 0 0 1 2.252-1.997 7.24 7.24 0 0 1 2.869-.909 7.07 7.07 0 0 1 5.461 1.808c.152.139.302.281.45.425s.35.225.558.225.408-.081.558-.225l.45-.425a7.08 7.08 0 0 1 5.462-1.809 7.24 7.24 0 0 1 2.869.91c.882.501 1.649 1.181 2.252 1.997l.01.014a7.2 7.2 0 0 1 1.279 5.547A84.85 84.85 0 0 1 36.14 41.55a3.5 3.5 0 0 1-1.282 1.596c-.577.392-1.258.602-1.956.604zm-5.404-10.33a2.59 2.59 0 0 1 2.584 2.339l.475 4.745a2.36 2.36 0 0 0 4.536.636c1.846-4.851 3.245-9.861 4.179-14.967.148-.814.127-1.65-.059-2.456a6.06 6.06 0 0 0-1.028-2.232l-.009-.014a6.12 6.12 0 0 0-4.316-2.443 5.88 5.88 0 0 0-4.593 1.519 18.32 18.32 0 0 0-.424.4c-.361.348-.843.542-1.344.542s-.983-.194-1.344-.542h0c-.139-.136-.28-.269-.424-.4a5.88 5.88 0 0 0-4.593-1.519 6.12 6.12 0 0 0-4.317 2.444l-.009.013a6.06 6.06 0 0 0-1.027 2.232 6.08 6.08 0 0 0-.06 2.456c.934 5.106 2.333 10.116 4.179 14.967a2.36 2.36 0 0 0 4.536-.636l.474-4.745a2.59 2.59 0 0 1 2.584-2.338zm17.94-12.17H41.5a.56.56 0 1 1 .001-1.124h3.938a.56.56 0 1 1 .001 1.126zm-5.092-2.785a.56.56 0 0 1-.312-.095.57.57 0 0 1-.207-.252.56.56 0 0 1-.032-.325c.022-.109.075-.209.154-.288l3.909-3.909a.56.56 0 0 1 .4-.171c.075 0 .148.014.217.042a.56.56 0 0 1 .184.123c.053.053.095.116.123.184s.042.143.042.218a.56.56 0 0 1-.171.399l-3.91 3.909a.56.56 0 0 1-.398.165zm-2.783-1.152A.56.56 0 0 1 37 16.75v-3.937a.56.56 0 1 1 1.126.001v3.938a.56.56 0 0 1-.562.563z" fill="#fff"/></svg>