<svg xmlns="http://www.w3.org/2000/svg" width="60" height="60" fill="none" xmlns:v="https://vecta.io/nano"><path d="M50.625 7.5H9.375c-4.13635 0-7.5 3.3646-7.5 7.5v30c0 4.1354 3.36365 7.5 7.5 7.5h41.25c4.1364 0 7.5-3.3646 7.5-7.5V15c0-4.1354-3.3636-7.5-7.5-7.5z" fill="url(#A)"/><path d="M11.25 44.9999c-.4797 0-.9595-.1831-1.32568-.5493-.73243-.7324-.73243-1.9189 0-2.6513L22.9358 28.7878c1.8274-1.8274 4.801-1.8274 6.6284 0l5.398 5.3979c.2362.2353.5163.271.6628.271s.4266-.0357.6628-.271l1.648-1.6479c1.8274-1.8274 4.801-1.8274 6.6284 0l5.5115 5.5115c.7324.7324.7324 1.9189 0 2.6513s-1.919.7324-2.6514 0l-5.5115-5.5115c-.3588-.3588-.9668-.3588-1.3256 0l-1.648 1.648c-1.8274 1.8274-4.801 1.8274-6.6284 0l-5.398-5.398c-.3588-.3588-.9668-.3588-1.3256 0L12.5757 44.4506c-.3662.3662-.846.5493-1.3257.5493z" fill="url(#B)"/><path d="M41.25 26.25c3.1066 0 5.625-2.5184 5.625-5.625S44.3566 15 41.25 15s-5.625 2.5184-5.625 5.625 2.5184 5.625 5.625 5.625z" fill="url(#C)"/><defs><linearGradient id="A" x1="1.875" y1="30" x2="58.125" y2="30" gradientUnits="userSpaceOnUse"><stop stop-color="#dedff1"/><stop offset="1" stop-color="#aeb1f0"/></linearGradient><linearGradient id="B" x1="46.5578" y1="27.4172" x2="16.9781" y2="27.4172" gradientUnits="userSpaceOnUse"><stop stop-color="#4e54c8"/><stop offset="1" stop-color="#8a8edb"/></linearGradient><linearGradient id="C" x1="45.7658" y1="15" x2="37.6986" y2="15" gradientUnits="userSpaceOnUse"><stop stop-color="#4e54c8"/><stop offset="1" stop-color="#8a8edb"/></linearGradient></defs></svg>