<svg xmlns="http://www.w3.org/2000/svg" width="60" height="60" fill="none" xmlns:v="https://vecta.io/nano"><path d="M54.375 17.8821V16.875c0-4.1364-3.3636-7.5-7.5-7.5h-37.5c-4.13544 0-7.5 3.3636-7.5 7.5v33.75c0 4.1364 3.36456 7.5 7.5 7.5h41.25c4.1364 0 7.5-3.3636 7.5-7.5v-26.25c0-2.7704-1.5106-5.1947-3.75-6.4929z" fill="url(#A)"/><path d="M54.375 16.875v1.0126c-1.106-.6372-2.3804-1.0126-3.75-1.0126H11.25c-1.0309 0-1.875-.8441-1.875-1.875s.8441-1.875 1.875-1.875h39.375c1.0126 0 2.0068.1318 2.9443.3937.5237 1.0126.8057 2.157.8057 3.3563z" fill="url(#B)"/><path d="M46.875 30c-4.1364 0-7.5 3.3636-7.5 7.5s3.3636 7.5 7.5 7.5h11.25V30h-11.25z" fill="url(#C)"/><path d="M49.8 16.875H16.3311L38.344 2.19356c.412-.28198.9375-.37537 1.4246-.28198.4879.11352.9191.41382 1.2002.84411L49.8 16.875z" fill="url(#D)"/><defs><linearGradient id="A" x1="1.875" y1="33.75" x2="58.125" y2="33.75" gradientUnits="userSpaceOnUse"><stop stop-color="#dedff1"/><stop offset="1" stop-color="#aeb1f0"/></linearGradient><linearGradient id="B" x1="49.9381" y1="13.125" x2="17.6693" y2="13.125" gradientUnits="userSpaceOnUse"><stop stop-color="#4e54c8"/><stop offset="1" stop-color="#8a8edb"/></linearGradient><linearGradient id="C" x1="56.2763" y1="30" x2="42.831" y2="30" gradientUnits="userSpaceOnUse"><stop stop-color="#4e54c8"/><stop offset="1" stop-color="#8a8edb"/></linearGradient><linearGradient id="D" x1="46.5" y1="1.87659" x2="22.5" y2="1.87659" gradientUnits="userSpaceOnUse"><stop stop-color="#4e54c8"/><stop offset="1" stop-color="#8a8edb"/></linearGradient></defs></svg>