<?xml version="1.0" standalone="no"?>
<!DOCTYPE svg PUBLIC "-//W3C//DTD SVG 20010904//EN"
 "http://www.w3.org/TR/2001/REC-SVG-20010904/DTD/svg10.dtd">
<svg version="1.0" xmlns="http://www.w3.org/2000/svg"
 width="260.000000pt" height="260.000000pt" viewBox="0 0 260.000000 260.000000"
 preserveAspectRatio="xMidYMid meet">
<metadata>
Created by potrace 1.11, written by Peter Selinger 2001-2013
</metadata>
<g transform="translate(0.000000,260.000000) scale(0.100000,-0.100000)"
fill="#000000" stroke="none">
<path d="M340 2586 c-132 -37 -238 -127 -298 -253 l-37 -78 -3 -307 -3 -308
23 0 c13 0 33 7 44 15 10 8 28 15 39 15 11 0 45 9 75 21 93 35 131 41 233 36
70 -4 103 -10 116 -21 10 -9 23 -16 29 -16 7 0 12 -4 12 -10 0 -5 6 -10 13
-10 7 0 27 -17 44 -37 56 -65 123 -152 123 -160 0 -5 23 -33 50 -63 28 -30 50
-59 50 -65 0 -5 18 -28 40 -50 21 -22 39 -45 40 -50 0 -6 23 -34 50 -63 28
-29 50 -56 50 -59 0 -3 17 -26 38 -51 20 -25 39 -52 42 -59 3 -7 45 -53 94
-103 l88 -90 54 0 c49 0 163 28 206 51 10 5 27 9 38 9 11 0 37 6 57 14 21 7
56 18 78 24 79 22 161 45 203 58 23 8 64 14 91 14 68 0 93 -24 99 -95 4 -53 3
-57 -32 -90 -21 -19 -47 -35 -59 -35 -12 0 -65 -14 -117 -31 -52 -17 -117 -37
-145 -44 -84 -22 -189 -54 -210 -64 -34 -17 -136 -32 -217 -32 -83 -1 -133 12
-188 46 -38 24 -170 157 -170 171 0 5 -23 33 -50 63 -28 29 -50 59 -50 65 0 6
-22 34 -50 61 -27 28 -49 54 -50 59 0 6 -18 31 -40 57 -22 26 -40 51 -40 56 0
4 -18 27 -40 51 -22 24 -40 47 -40 52 0 6 -4 10 -10 10 -5 0 -10 6 -10 13 0 6
-18 31 -40 55 -22 24 -40 45 -40 48 0 13 -56 84 -66 84 -6 0 -17 7 -24 15 -21
25 -65 17 -236 -40 -90 -30 -171 -55 -179 -55 -13 0 -15 -63 -15 -494 0 -288
4 -516 10 -547 23 -122 118 -252 227 -312 106 -57 98 -57 1063 -57 965 0 957
0 1063 57 110 61 205 191 227 314 7 37 10 377 8 970 l-3 914 -37 78 c-61 128
-168 217 -303 253 -71 19 -1847 19 -1915 0z m1751 -356 c45 -24 98 -78 116
-121 7 -17 20 -72 28 -122 17 -102 54 -305 80 -439 9 -49 21 -88 26 -88 5 0 9
-27 9 -60 0 -33 -4 -60 -8 -60 -4 0 -14 -16 -21 -36 -16 -45 -63 -98 -104
-119 -45 -23 -141 -59 -292 -110 -307 -104 -371 -127 -379 -136 -6 -5 -29 -9
-53 -9 -58 0 -102 39 -109 95 -9 77 17 99 188 156 103 34 312 106 343 119 11
4 60 20 108 36 48 15 93 34 99 41 8 10 5 48 -15 151 -14 75 -33 180 -42 232
-16 97 -30 178 -43 239 -4 19 -15 39 -24 45 -19 11 -44 3 -513 -159 -121 -42
-233 -80 -250 -85 -16 -5 -102 -34 -190 -66 -198 -70 -239 -76 -283 -39 -28
23 -32 33 -32 74 0 85 -17 77 545 266 72 24 146 49 165 56 19 7 64 22 100 34
36 12 94 32 130 45 36 12 79 26 95 30 17 5 44 13 60 19 98 36 123 41 173 36
30 -3 71 -14 93 -25z m135 -1570 c19 -12 34 -28 34 -35 0 -7 5 -15 11 -17 15
-5 29 -78 23 -119 -7 -44 -67 -111 -114 -127 -49 -18 -85 -15 -133 10 -74 38
-111 152 -72 218 8 14 18 33 21 43 3 9 12 17 19 17 7 0 18 6 25 14 26 32 132
29 186 -4z m-735 -174 c76 -32 114 -117 90 -203 -12 -49 -54 -103 -78 -103 -8
0 -16 -7 -19 -15 -7 -18 -114 -21 -131 -4 -6 6 -22 17 -35 23 -12 6 -33 32
-45 56 -77 153 63 311 218 246z"/>
</g>
</svg>
