<svg xmlns="http://www.w3.org/2000/svg" width="336" height="60" fill="none" xmlns:v="https://vecta.io/nano"><g clip-path="url(#A)"><g fill="#eff2fc"><path d="M40.843 22.91v-6.662a12.8 12.8 0 0 1-7.184-5.661h-7.317c-1.61 2.699-4.166 4.722-7.184 5.661v6.662h21.685zM19.157 37.074v6.639L30 48.843l10.843-5.13v-6.639H19.157z"/></g><path d="M58.038 35.387l1.911-6.278a1.17 1.17 0 0 0-1.121-1.513h-11.44v-16.31a1.17 1.17 0 0 0-1.411-1.147c-.422.088-.858.133-1.294.133a6.28 6.28 0 0 1-6.214-5.263 1.17 1.17 0 0 0-1.156-.979H22.687a1.17 1.17 0 0 0-1.156.979 6.28 6.28 0 0 1-6.214 5.263c-.436 0-.871-.045-1.294-.133a1.17 1.17 0 0 0-1.412 1.147v16.31H1.172a1.17 1.17 0 0 0-1.121 1.513l1.912 6.278-1.912 6.278a1.17 1.17 0 0 0 1.121 1.513h11.44v.582a6.51 6.51 0 0 0 3.708 5.861l13.179 6.235a1.17 1.17 0 0 0 1.002 0l13.179-6.235a6.51 6.51 0 0 0 3.707-5.861v-.582h11.44a1.17 1.17 0 0 0 1.121-1.513l-1.911-6.278zM14.956 24.082h30.088v11.82H14.956v-11.82zm.361-11.466c3.902 0 7.25-2.571 8.304-6.242h12.758c1.054 3.671 4.402 6.242 8.304 6.242a8.54 8.54 0 0 0 .361-.008v9.129H14.956v-9.129a8.88 8.88 0 0 0 .361.008zM2.754 40.834l1.302-4.276h3.931a1.17 1.17 0 1 0 0-2.344H4.055L2.754 29.94h9.858v10.895H2.754zm39.925 6.667L30 53.5l-12.678-5.998c-1.437-.68-2.366-2.149-2.366-3.742v-5.515h30.088v5.515c0 1.593-.929 3.062-2.366 3.742zm4.709-6.667V29.94h9.858l-1.302 4.276h-3.931a1.17 1.17 0 1 0 0 2.344h3.931l1.302 4.276h-9.858z" fill="#b4b7c9"/></g><g clip-path="url(#B)"><g fill="#b4b7c9"><path d="M144.393 35.293c.634.181 1.431.34 2.268.34.851 0 1.743-.165 2.546-.64 2.475-1.465 2.766-5.084 2.791-5.492.029-.479-.237-.928-.672-1.133-.37-.174-3.688-1.655-6.161-.191a4.31 4.31 0 0 0-.69.508 1.17 1.17 0 0 0-2.1.829 17.02 17.02 0 0 1-.336 5.57 17.06 17.06 0 0 1-14.889 13.189 1.17 1.17 0 0 0-1.045 1.286 1.17 1.17 0 0 0 1.164 1.051 1.2 1.2 0 0 0 .122-.006 19.41 19.41 0 0 0 7.399-2.319c.55 1.379 1.688 3.47 3.704 4.231.576.217 1.17.306 1.755.306 2.512 0 4.869-1.632 4.99-1.717a1.17 1.17 0 0 0 .465-1.233c-.042-.178-1.081-4.365-4.129-5.515a4.85 4.85 0 0 0-1.547-.302 18.91 18.91 0 0 0 .788-.964c.934.642 2.529 1.525 4.243 1.525.385 0 .776-.044 1.167-.146 2.949-.767 4.311-4.381 4.456-4.79.161-.453.029-.958-.332-1.275-.327-.286-3.278-2.77-6.223-2.01l.197-.792.069-.312zm3.739 4.372c-.484.942-1.374 2.246-2.497 2.538s-2.531-.404-3.422-.998c.484-.942 1.373-2.246 2.496-2.538s2.532.404 3.423.998zm-1.774-9.471c.886-.524 2.248-.289 3.181-.001-.195.956-.642 2.259-1.526 2.783s-2.247.289-3.18.001c.194-.956.641-2.259 1.525-2.783zm-3.187 19.427c-1.02.543-2.644 1.159-3.849.704s-2.017-1.99-2.424-3.07c1.021-.543 2.644-1.159 3.85-.704s2.017 1.99 2.423 3.07zm-26.321-1.348a17.06 17.06 0 0 1-14.889-13.189c-.419-1.839-.532-3.713-.336-5.57a1.17 1.17 0 0 0-1.042-1.288c-.424-.044-.819.143-1.058.459a4.35 4.35 0 0 0-.689-.508c-2.474-1.464-5.791.017-6.161.191a1.17 1.17 0 0 0-.672 1.133c.025.408.316 4.027 2.791 5.492.803.475 1.695.64 2.546.64.837 0 1.634-.159 2.268-.34l.068.311a19.71 19.71 0 0 0 .198.792c-2.945-.761-5.896 1.724-6.223 2.01a1.17 1.17 0 0 0-.332 1.275c.145.409 1.507 4.023 4.456 4.79a4.6 4.6 0 0 0 1.166.146c1.714 0 3.309-.883 4.243-1.525a18.87 18.87 0 0 0 .788.964 4.86 4.86 0 0 0-1.547.302c-3.048 1.15-4.087 5.337-4.129 5.515a1.17 1.17 0 0 0 .465 1.233c.121.085 2.478 1.717 4.99 1.717a4.94 4.94 0 0 0 1.754-.306c2.017-.761 3.154-2.852 3.705-4.231 2.238 1.237 4.742 2.044 7.399 2.319a1.2 1.2 0 0 0 .122.006 1.17 1.17 0 0 0 1.164-1.051 1.17 1.17 0 0 0-1.045-1.286zm-18.486-6.071c-1.127-.293-2.011-1.585-2.497-2.537.892-.595 2.296-1.292 3.423-.999s2.011 1.585 2.498 2.537c-.892.595-2.296 1.292-3.424.999zm-2.378-9.227c-.884-.524-1.331-1.827-1.526-2.782.926-.285 2.297-.523 3.18 0s1.331 1.827 1.526 2.782c-.925.284-2.297.523-3.18 0zm8.691 17.349c-1.206.455-2.83-.161-3.849-.704.407-1.081 1.218-2.615 2.423-3.07s2.83.162 3.849.704c-.407 1.081-1.218 2.615-2.423 3.07zm34.055-15.026V14.175a1.17 1.17 0 0 0-.432-.909c-.273-.222-.634-.31-.979-.238a6.04 6.04 0 0 1-1.232.127c-2.943 0-5.431-2.103-5.916-4.999a1.17 1.17 0 0 0-1.156-.978h-14.035c-.572 0-1.061.414-1.156.978-.485 2.897-2.973 4.999-5.916 4.999a6.03 6.03 0 0 1-1.231-.127 1.17 1.17 0 0 0-1.412 1.147v21.123c0 2.409 1.408 4.63 3.586 5.658l12.647 5.971a1.17 1.17 0 0 0 1 0l12.647-5.971c2.178-1.028 3.585-3.249 3.585-5.658zM122 44.571l-12.147-5.735a3.93 3.93 0 0 1-2.242-3.538V15.493l.299.005c3.754 0 6.975-2.461 8.004-5.978h12.172a8.31 8.31 0 0 0 8.003 5.978l.3-.005v19.805a3.93 3.93 0 0 1-2.243 3.538L122 44.571z"/></g><path d="M111.595 35.253V18.927c2.897-.899 5.349-2.837 6.894-5.422h7.021a12.28 12.28 0 0 0 6.894 5.422v16.326L122 40.165l-10.405-4.913z" fill="#eff2fc"/><path d="M124.158 24.239a1.17 1.17 0 0 0-1.171-1.172h-1.997a1.17 1.17 0 0 0-1.172 1.172 1.17 1.17 0 0 0 .998 1.159v3.199c-.564.084-.998.571-.998 1.159a1.17 1.17 0 0 0 1.172 1.172h1.997a1.17 1.17 0 0 0 1.171-1.172 1.17 1.17 0 0 0-.998-1.159v-3.199a1.17 1.17 0 0 0 .998-1.159z" fill="#9397ad"/></g><g clip-path="url(#C)"><path d="M213.988 44.13A14.14 14.14 0 0 0 228.133 30a14.14 14.14 0 0 0-28.289 0 14.14 14.14 0 0 0 14.144 14.129z" fill="#eff2fc"/><path d="M243.385 31.727c-.171-.092-4.21-2.236-7.263-.653l-.239.133.033-1.207-.007-.541.73.024c1.436 0 3.29-.283 4.584-1.508 2.354-2.229 1.69-6.47 1.661-6.649a1.17 1.17 0 0 0-.906-.955c-.178-.039-4.381-.926-6.734 1.302a4.65 4.65 0 0 0-.666.792c-3.082-8.375-11.149-14.366-20.59-14.366-9.432 0-17.493 5.98-20.581 14.344a4.68 4.68 0 0 0-.651-.77c-2.353-2.228-6.556-1.341-6.734-1.302-.469.102-.828.481-.906.955-.029.179-.693 4.42 1.66 6.649 1.295 1.226 3.149 1.508 4.585 1.508.25 0 .487-.009.707-.022l-.007.54a22.48 22.48 0 0 0 .032 1.193 4.64 4.64 0 0 0-.215-.119c-3.053-1.582-7.093.561-7.263.653a1.17 1.17 0 0 0-.607 1.169c.023.192.593 4.727 3.646 6.31.819.424 1.708.581 2.574.581 1.472 0 2.878-.451 3.761-.808a21.77 21.77 0 0 0 .859 1.7c-.66-.161-1.355-.221-2.063-.123-3.584.495-5.755 4.801-5.846 4.984-.213.431-.141.948.181 1.305.128.142 2.985 3.261 6.286 3.261a5.07 5.07 0 0 0 .693-.047c2.461-.34 4.255-2.475 5.167-3.84 3.895 3.53 9.061 5.684 14.722 5.684 5.668 0 10.84-2.159 14.736-5.697.91 1.365 2.708 3.513 5.177 3.853a5.05 5.05 0 0 0 .693.047c3.301 0 6.157-3.12 6.286-3.261.322-.357.393-.874.18-1.305-.091-.183-2.261-4.489-5.846-4.984-.717-.099-1.421-.035-2.09.13a21.74 21.74 0 0 0 .867-1.715c.882.359 2.298.816 3.78.816.866 0 1.756-.157 2.574-.581 3.054-1.583 3.624-6.118 3.646-6.31a1.17 1.17 0 0 0-.606-1.169zm-6.529-8.354c.927-.878 2.648-.938 3.79-.834.044 1.145-.109 2.856-1.034 3.733s-2.649.938-3.791.834c-.043-1.145.109-2.856 1.035-3.733zm-48.468 2.899c-.926-.877-1.078-2.589-1.034-3.733 1.143-.105 2.864-.044 3.79.834s1.078 2.589 1.035 3.733c-1.143.104-2.864.044-3.791-.834zm.345 10.853c-1.271-.659-1.952-2.469-2.243-3.683 1.163-.462 3.037-.947 4.309-.288s1.95 2.464 2.242 3.677c-1.05.418-2.963.99-4.308.293zm5.046 10.611c-1.559.215-3.313-.988-4.316-1.876.649-1.011 1.992-2.756 3.643-2.983 1.557-.215 3.312.988 4.316 1.877-.649 1.011-1.992 2.756-3.643 2.983zm20.209 1.822c-10.798 0-19.583-8.774-19.583-19.558s8.785-19.559 19.583-19.559S233.572 19.215 233.572 30s-8.785 19.559-19.584 19.559zm20.906-6.682c1.56.215 2.924 1.852 3.648 2.979-1.004.89-2.762 2.095-4.321 1.881s-2.924-1.852-3.648-2.979c1.004-.89 2.762-2.096 4.321-1.881zm4.373-5.751c-1.27.658-3.142.175-4.304-.286.262-1.098.894-2.988 2.238-3.685 1.27-.659 3.142-.175 4.304.286-.262 1.098-.895 2.988-2.238 3.685z" fill="#b4b7c9"/><path d="M216.159 27.241a1.17 1.17 0 0 0-1.172-1.172h-1.997a1.17 1.17 0 0 0-1.172 1.172c0 .588.434 1.075.999 1.159V31.6c-.565.084-.999.571-.999 1.159a1.17 1.17 0 0 0 1.172 1.172h1.997a1.17 1.17 0 0 0 1.172-1.172c0-.588-.434-1.075-.999-1.159V28.4c.565-.084.999-.571.999-1.159z" fill="#9397ad"/></g><g clip-path="url(#D)"><path d="M297.687 31.761l-5.543-7.218 8.718-2.575L306 14.456l5.138 7.512 8.718 2.575-5.543 7.218.25 9.103L306 37.813l-8.563 3.051.25-9.103z" fill="#eff2fc"/><path d="M332.584 34.499l3.338-8.653c.139-.36.091-.766-.127-1.085s-.58-.509-.967-.509h-5.626a3.21 3.21 0 0 0-1.665-4.993l-11.887-3.511-7.006-10.243a3.2 3.2 0 0 0-5.288 0l-7.006 10.243-11.886 3.511c-1.014.299-1.814 1.079-2.141 2.085-.322.991-.144 2.074.475 2.908h-5.626a1.17 1.17 0 0 0-.966.509c-.219.319-.267.724-.127 1.085l3.337 8.653-3.337 8.653c-.14.36-.092.766.127 1.085a1.17 1.17 0 0 0 .966.509h12.924l-.05 1.804a3.21 3.21 0 0 0 1.323 2.686 3.2 3.2 0 0 0 2.956.425l7.337-2.614-2.318 6.501h-2.65a1.17 1.17 0 1 0 0 2.344h18.612a1.17 1.17 0 1 0 0-2.344h-2.65l-2.317-6.5 7.336 2.614c.35.125.714.186 1.075.186a3.2 3.2 0 0 0 1.881-.611 3.21 3.21 0 0 0 1.323-2.686l-.05-1.804h12.924a1.17 1.17 0 0 0 .966-.509c.219-.319.267-.724.127-1.085l-3.337-8.653zm-2.06-1.172h-8.29l5.169-6.731h5.717l-2.596 6.731zm-45.927-6.731l5.169 6.731h-8.29l-2.596-6.731h5.717zm-5.717 15.806l2.596-6.731h8.869l-.185 6.731h-11.28zm31.288 11.145h-8.336l2.681-7.516 1.487-.53 1.489.53 2.679 7.516zm9.086-6.208a.85.85 0 0 1-.792.114l-12.069-4.3a1.17 1.17 0 0 0-.786 0l-12.069 4.3a.85.85 0 0 1-.792-.114.86.86 0 0 1-.357-.725l.352-12.83c.008-.269-.078-.532-.241-.746l-7.812-10.172a.86.86 0 0 1-.136-.797c.042-.13.183-.446.575-.562l12.287-3.629c.258-.076.483-.24.635-.462l7.241-10.587c.232-.339.574-.375.71-.375s.478.037.71.375l7.241 10.587c.153.223.377.386.636.462l12.286 3.629c.393.116.533.431.576.562s.114.47-.137.797l-7.811 10.172c-.164.213-.249.477-.242.746l.352 12.83a.86.86 0 0 1-.357.725zm2.586-4.937l-.185-6.731h8.869l2.596 6.731h-11.28z" fill="#b4b7c9"/><path d="M308.058 26.661a1.17 1.17 0 0 0-1.172-1.172h-1.771a1.17 1.17 0 0 0-1.172 1.172c0 .548.377 1.009.885 1.137v2.639c-.508.128-.885.588-.885 1.137a1.17 1.17 0 0 0 1.172 1.172h1.771a1.17 1.17 0 0 0 1.172-1.172c0-.549-.377-1.009-.886-1.137v-2.639c.509-.128.886-.588.886-1.137z" fill="#9397ad"/></g><defs><clipPath id="A"><path fill="#fff" d="M0 0h60v60H0z"/></clipPath><clipPath id="B"><path fill="#fff" transform="translate(92)" d="M0 0h60v60H0z"/></clipPath><clipPath id="C"><path fill="#fff" transform="translate(184)" d="M0 0h60v60H0z"/></clipPath><clipPath id="D"><path fill="#fff" transform="translate(276)" d="M0 0h60v60H0z"/></clipPath></defs></svg>