<svg xmlns="http://www.w3.org/2000/svg" xmlns:xlink="http://www.w3.org/1999/xlink" width="1296" height="568" fill="none" xmlns:v="https://vecta.io/nano"><g style="mix-blend-mode:screen" clip-path="url(#O)" fill-rule="evenodd"><path opacity=".1" d="M-20.465 422.45c-.002 0-.003.001-.19-1.44l-.008-.065-.177-1.376.005-.001.022-.003.092-.014.374-.057 1.479-.248 5.639-1.12c4.858-1.058 11.79-2.784 20.059-5.455 16.544-5.343 38.412-14.456 59.746-29.532 42.598-30.102 83.156-84.023 74.807-179.608-8.33-95.376-73.794-143.367-137.523-167.558-31.856-12.092-63.206-18.202-86.602-21.287-11.695-1.542-21.395-2.328-28.166-2.727l-7.844-.357-2.055-.049-.522-.007-.118-.001h-.012-.04c-.001 0-.001 0 .001-.744l.003-.71.009-1.454h.009.036l.138.001.244.003.296.004 2.091.049c1.829.054 4.508.159 7.922.36 6.827.403 16.592 1.194 28.36 2.746 23.53 3.103 55.097 9.251 87.209 21.44 64.206 24.372 130.877 73.036 139.349 170.027 8.453 96.781-32.704 151.666-76.02 182.277-21.624 15.281-43.764 24.502-60.488 29.903-8.365 2.702-15.383 4.45-20.315 5.524-2.466.537-4.412.906-5.744 1.141l-1.528.256-.397.061c-.023.003-.043.006-.06.009l-.043.006-.027.004-.008.001z" fill="url(#A)"/><path opacity=".1" d="M702.001 485.489c23.349 34.236 97.528 102.916 208.907 105.985l.092-3.634c-110.17-3.035-183.448-71.086-206.22-104.559l-.073-.107-.087-.096c-39.902-43.643-74.202-60.483-103.335-60.716-29.163-.235-52.652 16.171-70.913 37.817s-31.455 48.713-40.079 70.302c-4.316 10.807-7.498 20.268-9.601 27.031l-2.355 7.956-.585 2.147-.146.561-.038.145-.009.038-.003.01c-.001.002-.001.004 1.689.465l1.69.459.002-.007.008-.033.035-.134.04-.155.101-.383.572-2.1c.512-1.834 1.284-4.507 2.324-7.85a365.52 365.52 0 0 1 9.503-26.755c8.558-21.424 21.581-48.083 39.479-69.3s40.498-36.802 68.259-36.58c27.77.223 61.197 16.268 100.743 59.493z" fill="url(#B)"/><path opacity=".1" d="M577.947 572.108l-1.35.892-1.475.974-.008-.013-.023-.037-.085-.142-.321-.541-1.182-2.053-3.975-7.451c-3.156-6.243-7.068-14.805-10.056-24.035-2.98-9.205-5.086-19.209-4.52-28.292.57-9.14 3.867-17.482 11.79-22.98 4.12-2.858 9.213-3.677 14.779-3.107s11.734 2.538 18.182 5.424c12.898 5.774 27.221 15.372 40.538 25.541 13.335 10.182 25.736 20.996 34.8 29.26l10.804 10.098 2.969 2.876.778.765.2.198.067.068a160.62 160.62 0 0 1-1.208 1.313l-1.21 1.311-.063-.063-.194-.192-.766-.754-2.942-2.851-10.738-10.035c-9.019-8.223-21.339-18.965-34.564-29.064-13.243-10.112-27.316-19.52-39.852-25.132-6.268-2.806-12.072-4.626-17.143-5.145s-9.267.271-12.498 2.513c-6.779 4.704-9.722 11.845-10.242 20.191-.524 8.403 1.428 17.888 4.345 26.897 2.909 8.985 6.732 17.361 9.836 23.504 1.551 3.067 2.918 5.569 3.896 7.302l1.148 1.994.306.515.077.128.019.032.005.007v.001l-.124.083z" fill="url(#C)"/><path opacity=".1" d="M462.117 354.572c8.256 14.883 19.787 23.365 35.444 22.278 15.99-1.11 27.097-8.109 34.829-18.318 7.78-10.273 12.233-23.922 14.614-38.426 4.278-26.065 1.784-54.29.463-69.243l-.395-4.575-.021-.257c-1.061-13.093-3.477-42.882 2.057-72.906 5.571-30.226 19.284-61.082 50.896-75.142 31.689-14.094 65.471 1.057 90.972 19.232 12.804 9.126 23.655 19.108 31.3 26.802a245.52 245.52 0 0 1 8.926 9.453l2.378 2.717.617.728.131.158.001.001c10.132 9.324 28.339 23.124 50.034 34.202 21.776 11.12 46.901 19.412 70.821 17.842 11.912-.782 18.208-4.701 21.086-9.95 2.919-5.324 2.704-12.681.128-21.279-5.133-17.133-19.111-37.404-30.565-50.916-7.773-7.92-15.69-18.269-21.398-29.821-5.715-11.567-9.271-24.46-8.112-37.374 2.345-26.114 23.724-50.923 81.052-65.123 28.859-7.148 49.415-3.054 63.428 8.848 13.971 11.866 21.04 31.16 23.639 53.467 5.195 44.585-7.308 102.489-20.36 142.135-2.24 6.803-6.183 14.815-10.349 23.28l-2.147 4.373c-4.962 10.159-9.939 20.874-12.826 31.3-2.888 10.433-3.608 20.319-.338 28.945 3.249 8.571 10.593 16.295 24.633 22.069 15.186 6.247 27.087 4.419 37.435-1.607 10.48-6.102 19.45-16.552 28.6-27.834l2.76-3.411c8.2-10.163 16.65-20.643 26.41-28.394 10.93-8.686 23.59-14.031 39.51-11.885 30.62 4.128 80.29 2.625 114.34-28.759 33.85-31.198 52.97-92.633 21.15-210.136l3.35-1.075c31.99 118.111 13.17 181.482-22.24 214.112-35.21 32.445-86.14 33.796-117.03 29.631-14.85-2-26.63 2.929-37.02 11.182-9.42 7.487-17.61 17.638-25.86 27.854l-2.74 3.396c-9.11 11.229-18.47 22.2-29.58 28.671-11.243 6.547-24.196 8.444-40.322 1.812-14.626-6.016-22.898-14.337-26.628-24.177-3.709-9.784-2.772-20.673.223-31.491 2.997-10.825 8.127-21.836 13.086-31.989l2.174-4.43c4.179-8.493 7.974-16.207 10.118-22.72 12.992-39.463 25.274-96.685 20.183-140.374-2.544-21.83-9.386-39.96-22.322-50.948-12.892-10.95-32.238-15.138-60.501-8.138-56.915 14.097-76.233 38.224-78.349 61.784-1.07 11.924 2.202 24.052 7.712 35.204 5.507 11.144 13.189 21.191 20.754 28.891l.047.048.043.051c11.552 13.617 25.984 34.412 31.364 52.368 2.684 8.958 3.249 17.66-.45 24.406-3.739 6.82-11.459 10.983-23.878 11.798-24.742 1.624-50.482-6.943-72.517-18.195-22.052-11.26-40.561-25.295-50.897-34.826l-.093-.085-.081-.099.057-.055-.057.055-.001-.002-.009-.01-.036-.043-.147-.177-.593-.701-2.325-2.656c-2.037-2.281-5.02-5.514-8.793-9.311-7.55-7.599-18.246-17.435-30.842-26.413-25.302-18.033-57.741-32.232-87.733-18.893-30.067 13.373-43.331 42.746-48.791 72.37-5.435 29.485-3.056 58.832-1.997 71.892l.016.189.391 4.526c1.32 14.905 3.869 43.671-.501 70.295-2.436 14.84-7.047 29.203-15.357 40.176-8.359 11.036-20.37 18.519-37.305 19.695-17.268 1.199-29.906-8.331-38.659-24.109-8.701-15.684-13.664-37.668-15.82-61.944-4.315-48.578 2.541-107.166 14.176-145.158l6.579-20.582c4.193-12.86 8.527-26.15 12.087-39.592 5.485-20.713 9.03-41.45 7.268-60.818-1.755-19.298-8.78-37.277-24.548-52.578C443.05-39.482 418.324-52.242 381-60.776l.719-3.722c37.658 8.611 63.036 21.574 79.474 37.525 16.486 15.998 23.867 34.892 25.7 55.042 1.826 20.08-1.858 41.364-7.388 62.246-3.585 13.536-7.989 27.045-12.207 39.984l-6.501 20.34c-11.479 37.483-18.282 95.537-14.013 143.589 2.135 24.039 7.024 45.367 15.333 60.345z" fill="url(#D)"/><path opacity=".1" d="M442.858 572.161c0 .001 0 .002-1.687-.502l-1.687-.503.001-.001.001-.004.005-.024.025-.106.1-.437.363-1.741 1.096-6.627c.788-5.697 1.545-13.779 1.415-23.289-.259-19.032-4.066-43.68-18.179-66.408-5.642-9.085-13.188-19.095-21.593-30.244l-6.792-9.04c-11.058-14.808-22.964-31.415-33.405-50.03-20.897-37.256-35.973-82.643-26.756-137.996 4.61-27.684 14.846-50.929 26.181-71.651 5.281-9.654 10.812-18.782 16.121-27.543l1.15-1.898c5.667-9.356 11.032-18.294 15.581-27.104 9.099-17.625 14.797-34.497 13.08-52.692C406.162 46.136 397 26.25 375.616 2.719L378.087 0c21.701 23.879 31.438 44.538 33.268 63.924 1.828 19.376-4.283 37.101-13.518 54.988-4.619 8.947-10.052 17.994-15.711 27.338l-1.143 1.885c-5.316 8.774-10.805 17.832-16.042 27.407-11.22 20.512-21.233 43.307-25.738 70.36-9.012 54.118 5.68 98.535 26.292 135.283 10.313 18.387 22.097 34.832 33.131 49.609l6.72 8.942c8.421 11.17 16.108 21.365 21.851 30.613 14.62 23.544 18.522 49.008 18.788 68.521.133 9.762-.643 18.06-1.454 23.925a123.48 123.48 0 0 1-1.136 6.862l-.384 1.842-.111.485-.03.129-.009.035-.002.01-.001.003z" fill="url(#E)"/><path opacity=".1" d="M541.613-13.367c-.001-.001-.002-.002 1.375-1.12l1.378-1.118.012.016.026.035.017.023.179.233.717.916 2.8 3.413c2.447 2.898 6.019 6.927 10.504 11.439 8.982 9.037 21.567 19.953 36.069 27.619s30.779 12.011 47.246 8.16c16.431-3.842 33.381-15.921 49.111-41.793L694-3.6c-16.08 26.447-33.727 39.288-51.298 43.396-17.536 4.1-34.667-.575-49.595-8.466s-27.8-19.075-36.915-28.247c-4.564-4.592-8.201-8.695-10.7-11.653l-2.871-3.5-.748-.955-.159-.207-.034-.045-.032-.043-.018-.024-.017-.023z" fill="url(#F)"/><path opacity=".1" d="M214.5 323.626c10.942-13.825 10.76-32.095.436-40.939s-27.595-5.525-38.538 8.3-10.761 32.095-.436 40.939 27.595 5.524 38.538-8.3zm2.213-43.184c11.911 10.203 11.508 30.423-.055 45.032s-30.563 18.9-42.473 8.696-11.509-30.423.055-45.032 30.562-18.899 42.473-8.696z" fill="url(#G)"/><path opacity=".1" d="M309.934 533.361c10.38-31.39 13.073-69.216-16.515-96.742-14.935-13.893-29.232-20.233-43.113-21.453-13.903-1.222-27.551 2.679-41.2 9.57-13.659 6.896-27.23 16.741-40.97 27.308l-9.857 7.649c-10.502 8.184-21.124 16.463-31.905 23.777-28.61 19.41-71.321 24.49-106.638 24.791-17.701.151-33.627-.9-45.127-1.988-5.751-.544-10.398-1.097-13.61-1.515l-3.7-.508-.965-.143-.248-.038-.064-.01-.021-.003c-.001-.001-.002-.001.215-1.477l.203-1.381.015-.096.018.003.059.009.239.037.947.141 3.659.501c3.183.415 7.798.965 13.513 1.505 11.433 1.082 27.261 2.125 44.844 1.976 35.251-.3 77.226-5.4 105.091-24.305 10.695-7.256 21.212-15.453 31.697-23.624l9.927-7.703c13.751-10.576 27.505-20.566 41.423-27.593 13.927-7.031 28.107-11.142 42.698-9.86 14.614 1.284 29.478 7.962 44.787 22.204 30.901 28.746 27.826 68.158 17.317 99.939-5.265 15.921-12.428 30.052-18.268 40.194-2.921 5.074-5.515 9.157-7.381 11.974l-2.204 3.245-.599.847-.158.219-.041.056-.014.02c-.001.001-.001.002-1.144-.904l-1.143-.906.011-.014.036-.05.148-.206.58-.819 2.161-3.182c1.836-2.773 4.396-6.802 7.282-11.814 5.775-10.03 12.836-23.967 18.016-39.631z" fill="url(#H)"/><path opacity=".1" d="M270.996 170.431c13.943-13.908 24.367-37.363 29.477-68.777 5.082-31.22-1.843-66.408-10.11-93.901-4.126-13.725-8.574-25.487-11.989-33.817-1.707-4.164-3.156-7.468-4.176-9.729l-1.189-2.585-.313-.662-.08-.166-.024-.05-.001-.002c0 0-.001 0 1.246-.657l1.248-.655.002.003.006.012.021.045.084.175.323.681 1.207 2.626a310.32 310.32 0 0 1 4.217 9.824 377.56 377.56 0 0 1 12.086 34.09c8.309 27.632 15.391 63.351 10.198 95.256-5.164 31.745-15.759 55.886-30.298 70.39-14.615 14.578-33.126 19.317-53.679 12.362-10.261-3.472-17.413-8.797-22.257-15.266-4.837-6.459-7.302-13.965-8.34-21.692-1.855-13.804.827-28.557 2.855-39.709l.66-3.666c2.081-11.845 2.213-33.672-11.567-58.673S139.052-7.432 85.096-32.098l1.125-2.662c54.351 24.846 82.656 53.523 96.807 79.199s14.075 48.22 11.892 60.644l-.001.001-.661 3.678c-2.034 11.209-4.622 25.473-2.835 38.769.989 7.361 3.314 14.349 7.777 20.308 4.456 5.951 11.112 10.97 20.917 14.288 19.577 6.625 37.012 2.137 50.879-11.696z" fill="url(#I)"/><path opacity=".1" d="M853.194 417.343c27.662 8.022 55.095 5.325 90.62 1.654 17.589-1.817 27.682-6.947 32.334-13.337 4.546-6.245 4.218-14.185-.255-22.661-4.482-8.493-13.02-17.242-24.282-24.575-11.241-7.321-25.099-13.165-40.101-15.916-30.52-5.598-47.93-20.819-64.668-35.453l-.592-.517c-16.891-14.764-33.231-28.794-62.111-32.478-11.396-1.454-19.598 1.303-25.28 6.378-5.716 5.107-9.083 12.743-10.428 21.415-1.344 8.666-.645 18.241 1.655 27.024 2.303 8.794 6.176 16.666 11.068 22.001 36.407 39.701 64.429 58.457 92.04 66.465zm-.86 3.209c-28.389-8.233-56.889-27.455-93.497-67.375-5.356-5.84-9.44-14.257-11.841-23.424-2.403-9.179-3.153-19.236-1.727-28.431 1.425-9.189 5.047-17.643 11.504-23.411 6.491-5.799 15.646-8.702 27.756-7.158 29.883 3.812 46.848 18.433 63.781 33.235l.498.434c16.738 14.633 33.587 29.363 63.258 34.805 15.421 2.828 29.664 8.832 41.244 16.373 11.561 7.528 20.565 16.653 25.39 25.796 4.835 9.161 5.577 18.616.001 26.275-5.47 7.514-16.694 12.794-34.571 14.641-35.407 3.659-63.456 6.459-91.796-1.76z" fill="url(#J)"/><path opacity=".1" d="M1206.46 496.147c-34.08 16.704-60.67 50.635-74.71 76.877l-2.8-1.62c14.23-26.589 41.25-61.163 76.15-78.27 17.48-8.569 36.97-12.768 57.8-9.338s42.87 14.464 65.48 36.128l-2.17 2.451c-22.24-21.309-43.72-31.981-63.81-35.289s-38.93.725-55.94 9.061z" fill="url(#K)"/><path opacity=".1" d="M1039.62 507.577c-79.759 7.555-101.973 46.959-103.429 64.777l-3.191-.282c1.639-20.049 25.71-60.176 106.33-67.813 49.71-4.708 73.91-21.884 95.61-40.215l6.99-5.993c19.24-16.581 38.62-33.279 74.29-41.542 39.88-9.239 78.26-3.537 106.32 9.22 14.03 6.377 25.55 14.547 33.4 23.567 7.83 9.012 12.1 19.005 11.29 28.946l-3.19-.282c.71-8.716-3.01-17.837-10.48-26.429-7.46-8.585-18.57-16.509-32.3-22.75-27.45-12.478-65.14-18.103-104.35-9.02-34.89 8.082-53.71 24.298-72.93 40.853l-7.03 6.016c-22.02 18.607-46.81 36.161-97.33 40.947z" fill="url(#L)"/><path opacity=".1" d="M1277.86 295.258c8.98 5.25 20.37 7.699 28.14 8.322l-.23 3.307c-8.02-.644-19.87-3.165-29.35-8.711-9.5-5.552-16.98-14.414-15.14-27.697 2.15-15.499 5.88-28.377 9.2-39.029l1.4-4.458c2.72-8.613 4.88-15.446 5.38-21.033.14-1.534.06-3.851-.13-6.86l-.37-5.112-.38-5.304c-.54-7.784-.95-17.019-.13-25.956.82-8.919 2.89-17.717 7.44-24.513 4.61-6.874 11.66-11.546 22.09-12.338l.21 3.307c-9.59.728-15.79 4.948-19.83 10.981-4.09 6.112-6.07 14.234-6.87 22.892-.79 8.639-.4 17.637.13 25.382l.38 5.242.38 5.189c.19 2.984.29 5.564.12 7.413-.54 6.008-2.84 13.281-5.54 21.838l-1.39 4.393c-3.3 10.593-6.96 23.253-9.07 38.461-1.57 11.282 4.6 19.041 13.56 24.284z" fill="url(#M)"/><path opacity=".1" d="M1075.77 128.328c6.97 10.803 19.62 17.197 44.66 15.261 19.85-1.535 33.99-9.83 43.87-22.234 9.93-12.454 15.66-29.168 18.42-47.647 5.53-36.974-.9-80.454-8.56-109.228l3.09-.89c7.73 29.019 14.26 73.012 8.63 110.63-2.81 18.818-8.69 36.179-19.11 49.26-10.47 13.131-25.42 21.831-46.1 23.43-25.63 1.982-39.68-4.523-47.56-16.727-3.87-6.008-6.16-13.263-7.68-21.227-1.53-7.96-2.32-16.753-3.14-25.86-1.64-18.299-3.41-37.97-11.26-55.971-7.81-17.908-21.7-34.25-47.79-45.718l1.25-3.069c26.82 11.788 41.31 28.725 49.46 47.41 8.08 18.517 9.88 38.663 11.51 56.815l.02.223c.82 9.148 1.6 17.76 3.09 25.518 1.48 7.754 3.66 14.528 7.2 20.023z" fill="url(#N)"/></g><defs><linearGradient id="A" x1="145.277" y1="214.554" x2="-121.502" y2="214.554" xlink:href="#P"><stop stop-color="#6366f1"/><stop offset=".5" stop-color="#8b5cf6"/><stop offset="1" stop-color="#d946ef"/></linearGradient><linearGradient id="B" x1="911" y1="506.512" x2="477.556" y2="506.512" xlink:href="#P"><stop stop-color="#6366f1"/><stop offset=".5" stop-color="#8b5cf6"/><stop offset="1" stop-color="#d946ef"/></linearGradient><linearGradient id="C" x1="689.859" y1="529.351" x2="554.86" y2="529.351" xlink:href="#P"><stop stop-color="#6366f1"/><stop offset=".5" stop-color="#8b5cf6"/><stop offset="1" stop-color="#d946ef"/></linearGradient><linearGradient id="D" x1="1253" y1="157.059" x2="381" y2="157.059" xlink:href="#P"><stop stop-color="#6366f1"/><stop offset=".5" stop-color="#8b5cf6"/><stop offset="1" stop-color="#d946ef"/></linearGradient><linearGradient id="E" x1="446" y1="284.712" x2="333" y2="284.712" xlink:href="#P"><stop stop-color="#6366f1"/><stop offset=".5" stop-color="#8b5cf6"/><stop offset="1" stop-color="#d946ef"/></linearGradient><linearGradient id="F" x1="694" y1="12.718" x2="541.613" y2="12.718" xlink:href="#P"><stop stop-color="#6366f1"/><stop offset=".5" stop-color="#8b5cf6"/><stop offset="1" stop-color="#d946ef"/></linearGradient><linearGradient id="G" x1="216.612" y1="280.355" x2="172.066" y2="332.356" xlink:href="#P"><stop stop-color="#6366f1"/><stop offset=".5" stop-color="#8b5cf6"/><stop offset="1" stop-color="#d946ef"/></linearGradient><linearGradient id="H" x1="320" y1="500.993" x2="-44" y2="500.993" xlink:href="#P"><stop stop-color="#6366f1"/><stop offset=".5" stop-color="#8b5cf6"/><stop offset="1" stop-color="#d946ef"/></linearGradient><linearGradient id="I" x1="305" y1="73.19" x2="85.096" y2="73.19" xlink:href="#P"><stop stop-color="#6366f1"/><stop offset=".5" stop-color="#8b5cf6"/><stop offset="1" stop-color="#d946ef"/></linearGradient><linearGradient id="J" x1="982.609" y1="347.746" x2="744.549" y2="347.746" xlink:href="#P"><stop stop-color="#6366f1"/><stop offset=".5" stop-color="#8b5cf6"/><stop offset="1" stop-color="#d946ef"/></linearGradient><linearGradient id="K" x1="1328.38" y1="527.595" x2="1128.95" y2="527.595" xlink:href="#P"><stop stop-color="#6366f1"/><stop offset=".5" stop-color="#8b5cf6"/><stop offset="1" stop-color="#d946ef"/></linearGradient><linearGradient id="L" x1="1367.33" y1="491.772" x2="933" y2="491.772" xlink:href="#P"><stop stop-color="#6366f1"/><stop offset=".5" stop-color="#8b5cf6"/><stop offset="1" stop-color="#d946ef"/></linearGradient><linearGradient id="M" x1="1306" y1="215.948" x2="1261" y2="215.948" xlink:href="#P"><stop stop-color="#6366f1"/><stop offset=".5" stop-color="#8b5cf6"/><stop offset="1" stop-color="#d946ef"/></linearGradient><linearGradient id="N" x1="1188" y1="54.987" x2="1003.24" y2="54.987" xlink:href="#P"><stop stop-color="#6366f1"/><stop offset=".5" stop-color="#8b5cf6"/><stop offset="1" stop-color="#d946ef"/></linearGradient><clipPath id="O"><path fill="#fff" transform="matrix(-1 0 0 -1 1296 568)" d="M0 0h1296v568H0z"/></clipPath><linearGradient id="P" gradientUnits="userSpaceOnUse"/></defs></svg>