<svg xmlns="http://www.w3.org/2000/svg" xmlns:xlink="http://www.w3.org/1999/xlink" viewBox="0 0 72 88" xmlns:v="https://vecta.io/nano"><linearGradient id="A" gradientUnits="userSpaceOnUse" x1="-3.116" y1="44" x2="61.841" y2="44"><stop offset="0" stop-color="#ff9aa1"/><stop offset="1" stop-color="#f23c49"/></linearGradient><path d="M36 80c19.9 0 36-16.1 36-36S55.9 8 36 8 0 24.1 0 44s16.1 36 36 36z" fill="url(#A)"/><path d="M36 8l-2.8.1c8.3.6 15.7 4.1 21.5 9.4l-1.3 1.3c-1.1 1.1-1.6 2.8-1.2 4.3l1.1 4.6-18 18.1-1.8-1.8v4.5a2.34 2.34 0 0 0 2.4 2.4c.6 0 1.3-.2 1.7-.7l17.7-17.7 4.6 1.1c1.5.4 3.2-.1 4.3-1.2h0c1.2 3.6 1.9 7.5 1.9 11.6 0 18.9-14.6 34.4-33.2 35.9 1.2.1 2.1.1 3.1.1 19.9 0 36-16.1 36-36S55.9 8 36 8z" opacity=".1" enable-background="new"/><linearGradient id="B" gradientUnits="userSpaceOnUse" x1="10.446" y1="44.002" x2="60.723" y2="44.002"><stop offset="0" stop-color="#f2fbff"/><stop offset=".593" stop-color="#faf7f7"/><stop offset="1" stop-color="#f3eae6"/></linearGradient><path d="M36,48.2c2.3,0,4.2-1.9,4.2-4.2s-1.9-4.2-4.2-4.2c-2.3,0-4.2,1.9-4.2,4.2S33.7,48.2,36,48.2z" fill="url(#B)"/><linearGradient id="C" gradientUnits="userSpaceOnUse" x1="10.446" y1="44.002" x2="60.723" y2="44.002"><stop offset="0" stop-color="#fff"/><stop offset=".416" stop-color="#f5f4f8"/><stop offset="1" stop-color="#efecf3"/></linearGradient><path d="M36 18.6C22 18.6 10.6 30 10.6 44S22 69.4 36 69.4 61.4 58 61.4 44 50 18.6 36 18.6zm0 40.2A14.77 14.77 0 0 1 21.2 44 14.77 14.77 0 0 1 36 29.2 14.77 14.77 0 0 1 50.8 44 14.77 14.77 0 0 1 36 58.8z" fill="url(#C)"/><linearGradient id="D" gradientUnits="userSpaceOnUse" x1="29.226" y1="44.9" x2="60.871" y2="44.9"><stop offset="0" stop-color="#f3eae6"/><stop offset="1" stop-color="#cdbfba"/></linearGradient><path d="M35.3 45.8L33.5 44v3.4c.7.5 1.5.8 2.5.8a4.23 4.23 0 0 0 4.2-4.2c0-.9-.3-1.7-.8-2.4l-4.1 4.2z" fill="url(#D)"/><path d="M52.7 24.8l.7 2.9L47 34c1.1 1.2 2.1 2.7 2.7 4.3l5.8-5.8 3.6.9c-1.5-3.3-3.7-6.2-6.4-8.6z" opacity=".1" enable-background="new"/><linearGradient id="E" gradientUnits="userSpaceOnUse" x1="48.752" y1="18.645" x2="63.811" y2="18.645"><stop offset="0" stop-color="#fff9df"/><stop offset=".593" stop-color="#ffe177"/><stop offset="1" stop-color="#feb137"/></linearGradient><use xlink:href="#J" fill="url(#E)"/><use xlink:href="#J" fill="url(#E)"/><linearGradient id="F" gradientUnits="userSpaceOnUse" x1="48.752" y1="17.116" x2="63.811" y2="17.116"><stop offset="0" stop-color="#fff9df"/><stop offset=".593" stop-color="#ffe177"/><stop offset="1" stop-color="#feb137"/></linearGradient><path d="M70.5 17.7L64 16l-1.6-6.5a2.04 2.04 0 0 0-3.4-.9l-3.9 3.9c-1.1 1.1-1.6 2.8-1.2 4.3l1.8 7.4 7.4 1.8c1.5.4 3.2-.1 4.3-1.2l3.9-3.9c1.2-1 .7-2.9-.8-3.2z" fill="url(#F)"/><linearGradient id="G" gradientUnits="userSpaceOnUse" x1="48.752" y1="15.587" x2="63.811" y2="15.587"><stop offset="0" stop-color="#fff9df"/><stop offset=".593" stop-color="#ffe177"/><stop offset="1" stop-color="#feb137"/></linearGradient><path d="M70.5 17.7L64 16l-1.6-6.5a2.04 2.04 0 0 0-3.4-.9l-.9.9c-1.1 1.1-1.6 2.8-1.2 4.3l1.8 7.4 7.4 1.8c1.5.4 3.2-.1 4.3-1.2l.9-.9c1.2-1 .7-2.9-.8-3.2z" fill="url(#G)"/><linearGradient id="H" gradientUnits="userSpaceOnUse" x1="33.631" y1="30.1" x2="65.796" y2="30.1"><stop offset="0" stop-color="#3bcffe"/><stop offset="1" stop-color="#3c76f2"/></linearGradient><path d="M36 46.5c-.6 0-1.3-.2-1.7-.7-1-1-1-2.5 0-3.5l27.8-27.8c1-1 2.5-1 3.5 0s1 2.5 0 3.5L37.7 45.7c-.4.5-1.1.8-1.7.8z" fill="url(#H)"/><defs ><path id="J" d="M70.5 17.7L64 16l-1.6-6.5a2.04 2.04 0 0 0-3.4-.9l-7 7c-1.1 1.1-1.6 2.8-1.2 4.3l1.8 7.4 7.4 1.8c1.5.4 3.2-.1 4.3-1.2l7-7c1.2-1 .7-2.9-.8-3.2z"/></defs></svg>