<svg xmlns="http://www.w3.org/2000/svg" viewBox="0 0 72 88"  xmlns:v="https://vecta.io/nano"><style><![CDATA[.L{enable-background:new}]]></style><linearGradient id="A" gradientUnits="userSpaceOnUse" x1="36" y1="72.499" x2="36" y2="95.499"><stop offset="0" stop-color="#fff"/><stop offset=".416" stop-color="#f5f4f8"/><stop offset="1" stop-color="#efecf3"/></linearGradient><path d="M69.3 87.9c2.1 0 3.4-2.4 2.2-4.1-1.7-2.6-4.7-4.3-8-4.3-.9 0-1.7.1-2.5.3-2.2-4-6.4-6.7-11.2-6.7-.5 0-.9 0-1.4.1v-4.5H23.6v5.6c-4.6 0-8.5 2.5-10.6 6.2-1.3-.7-2.9-1.1-4.5-1.1-3.4 0-6.3 1.7-8 4.3-1.2 1.8.1 4.1 2.2 4.1h66.6z" fill="url(#A)"/><path d="M49.8 73.1c-.5 0-.9 0-1.4.1v-4.5H23.6v5.6h21c4.3 0 8.3 2.5 10.1 6.5.1.1.1.2.1.4.1.1.1.3.2.4.3.8 1.3 1.1 2 .5 1.1-1.1 2.5-1.9 4.1-2.3-2.2-4-6.4-6.7-11.3-6.7zM10.9 85.4c.3 0 .6-.2.7-.6.2-1.5.7-3 1.4-4.3-1.3-.7-2.9-1.1-4.5-1.1-1.2 0-2.4.2-3.4.6 2.3.9 4.2 2.7 5.3 4.9 0 .4.2.5.5.5z" opacity=".07" class="L"/><linearGradient id="B" gradientUnits="userSpaceOnUse" x1="4.538" y1="51.534" x2="19.812" y2="51.534"><stop offset="0" stop-color="#ff9aa1"/><stop offset="1" stop-color="#f23c49"/></linearGradient><path d="M14.1 42.5l-2.9 2.9c-3.8 3.8-5.9 8.9-5.9 14.3a3.37 3.37 0 0 0 3.4 3.4h13.6V39.9h-1.7c-2.5 0-4.8 1-6.5 2.6z" fill="url(#B)"/><linearGradient id="C" gradientUnits="userSpaceOnUse" x1="49.07" y1="51.534" x2="64.343" y2="51.534"><stop offset="0" stop-color="#ff9aa1"/><stop offset="1" stop-color="#f23c49"/></linearGradient><path d="M57.9 42.5l2.9 2.9c3.8 3.8 5.9 8.9 5.9 14.3a3.37 3.37 0 0 1-3.4 3.4H49.8V39.9h1.7c2.4 0 4.7 1 6.4 2.6z" fill="url(#C)"/><linearGradient id="D" gradientUnits="userSpaceOnUse" x1="17.482" y1="30.025" x2="53.924" y2="30.025"><stop offset="0" stop-color="#fff"/><stop offset=".416" stop-color="#f5f4f8"/><stop offset="1" stop-color="#efecf3"/></linearGradient><path d="M54.4 30.9V60H17.6V30.9c0-9.5 3.8-18.6 10.5-25.3l3.8-3.8a5.98 5.98 0 0 1 8.4 0l3.8 3.8c6.6 6.7 10.3 15.8 10.3 25.3z" fill="url(#D)"/><path d="M43.9 5.6l-3.8-3.8C38-.3 34.8-.5 32.5 1.2c.3.2.5.4.7.6L37 5.6c6.7 6.7 10.5 15.8 10.5 25.3V60h6.9V30.9c0-9.5-3.7-18.6-10.5-25.3z" opacity=".07" class="L"/><linearGradient id="E" gradientUnits="userSpaceOnUse" x1="17.836" y1="10.039" x2="48.002" y2="10.039"><stop offset="0" stop-color="#ff9aa1"/><stop offset="1" stop-color="#f23c49"/></linearGradient><path d="M31.8 1.8L28 5.6c-4 4.1-7 9-8.7 14.4h33.4C51 14.6 48 9.7 43.9 5.6l-3.8-3.8c-2.2-2.3-6-2.3-8.3 0z" fill="url(#E)"/><linearGradient id="F" gradientUnits="userSpaceOnUse" x1="19.501" y1="39.107" x2="49.538" y2="39.348"><stop offset="0" stop-color="#fff3d9"/><stop offset=".606" stop-color="#ffcc60"/><stop offset="1" stop-color="#fdbc31"/></linearGradient><path d="M36 52.9c7.6 0 13.7-6.1 13.7-13.7S43.6 25.5 36 25.5s-13.7 6.1-13.7 13.7S28.4 52.9 36 52.9z" fill="url(#F)"/><path d="M36 25.6c-1.2 0-2.3.2-3.4.4 5.9 1.5 10.2 6.9 10.2 13.2 0 6.4-4.3 11.7-10.2 13.2 1.1.3 2.3.4 3.4.4 7.6 0 13.7-6.1 13.7-13.7 0-7.4-6.1-13.5-13.7-13.5z" opacity=".05" class="L"/><linearGradient id="G" gradientUnits="userSpaceOnUse" x1="28.188" y1="39.244" x2="43.635" y2="39.244"><stop offset="0" stop-color="#3bcffe"/><stop offset="1" stop-color="#3c76f2"/></linearGradient><path d="M36,47.1c4.3,0,7.9-3.5,7.9-7.9s-3.5-7.9-7.9-7.9s-7.9,3.5-7.9,7.9S31.7,47.1,36,47.1z" fill="url(#G)"/><path d="M36 31.4a8.33 8.33 0 0 0-2.2.3c3.3.9 5.7 4 5.7 7.6s-2.4 6.6-5.7 7.6c.7.2 1.4.3 2.2.3a7.92 7.92 0 0 0 7.9-7.9 7.92 7.92 0 0 0-7.9-7.9z" opacity=".1" class="L"/><linearGradient id="H" gradientUnits="userSpaceOnUse" x1="15.989" y1="64.031" x2="49.225" y2="64.031"><stop offset="0" stop-color="#ff9aa1"/><stop offset="1" stop-color="#f23c49"/></linearGradient><path d="M17.6,58v7.9c0,2.3,1.8,4.1,4.1,4.1h28.6c2.3,0,4.1-1.8,4.1-4.1V58H17.6z" fill="url(#H)"/><path d="M47.5 70h2.8c2.3 0 4.1-1.8 4.1-4.1V58h-6.9v12zM43.9 5.6l-3.8-3.8C38-.3 34.8-.5 32.5 1.2c.3.2.5.4.7.6L37 5.6c4.1 4.1 7.1 9 8.8 14.4h6.9C51 14.6 48 9.7 43.9 5.6z" opacity=".1" class="L"/></svg>