<svg xmlns="http://www.w3.org/2000/svg" xmlns:xlink="http://www.w3.org/1999/xlink" width="86" height="86" fill="none" xmlns:v="https://vecta.io/nano"><mask id="A" mask-type="alpha" maskUnits="userSpaceOnUse" x="0" y="21" width="86" height="64"><path d="M0 31.001c0-5.523 4.477-10 10-10h66c5.523 0 10 4.477 10 10v43.29c0 5.523-4.477 10-10 10H10c-5.523 0-10-4.477-10-10v-43.29z" fill="url(#B)"/></mask><g mask="url(#A)"><path d="M0 29.001a8 8 0 0 1 8-8h70a8 8 0 0 1 8 8v47.29a8 8 0 0 1-8 8H8a8 8 0 0 1-8-8v-47.29z" fill="url(#B)"/><path opacity=".07" d="M5.191 78.869V26.785a5.62 5.62 0 0 1 5.602-5.602H5.602A5.62 5.62 0 0 0 0 26.785v52.085a5.62 5.62 0 0 0 5.602 5.602h5.191a5.62 5.62 0 0 1-5.602-5.602z" fill="#000"/><path d="M80.398 21.183H5.602A5.62 5.62 0 0 0 0 26.785v8.017c0 2.9 1.665 5.543 4.28 6.795l32.752 15.685a6.21 6.21 0 0 1 11.936 0L81.72 41.597c2.615-1.253 4.28-3.895 4.28-6.795v-8.017a5.62 5.62 0 0 0-5.602-5.602z" fill="url(#C)"/><path opacity=".07" d="M80.398 21.001H5.602A5.62 5.62 0 0 0 0 26.603v8.017c0 2.9 1.665 5.543 4.28 6.795L37.032 57.1a6.21 6.21 0 0 1 11.936 0L81.72 41.415C84.335 40.162 86 37.52 86 34.62v-8.017a5.62 5.62 0 0 0-5.602-5.602z" fill="#000"/><path opacity=".07" d="M4.28 41.596l.911.437V26.785a5.62 5.62 0 0 1 5.602-5.602H5.602A5.62 5.62 0 0 0 0 26.785v8.017c0 2.9 1.665 5.543 4.28 6.795z" fill="#1f1b2d"/></g><path d="M58.68 1.528H26.331a8.56 8.56 0 0 0-8.547 8.547v8.331h6.057v-8.331c0-1.373 1.117-2.49 2.49-2.49H58.68c1.373 0 2.49 1.117 2.49 2.49v8.331h6.057v-8.331a8.56 8.56 0 0 0-8.547-8.547z" fill="url(#D)"/><path opacity=".5" d="M30.96 1.528h-4.629a8.56 8.56 0 0 0-8.547 8.547v8.331h4.629v-8.331a8.56 8.56 0 0 1 8.547-8.547z" fill="#f23c49"/><path opacity=".07" d="M63.31 7.584h-4.629c1.373 0 2.49 1.117 2.49 2.49v8.331H65.8v-8.331c0-1.373-1.117-2.49-2.49-2.49z" fill="#000"/><path d="M43 52.612a6.39 6.39 0 0 0-6.381 6.381A6.39 6.39 0 0 0 43 65.374a6.39 6.39 0 0 0 6.381-6.381A6.39 6.39 0 0 0 43 52.612z" fill="url(#E)"/><g opacity=".12" fill="#fd5631"><path d="M41.811 58.993c0-2.594 1.557-4.83 3.785-5.827-.794-.355-1.672-.554-2.596-.554a6.39 6.39 0 0 0-6.381 6.381A6.39 6.39 0 0 0 43 65.374c.924 0 1.802-.199 2.596-.554a6.39 6.39 0 0 1-3.785-5.827z"/><path d="M43.549 60.289h-1.097a1.3 1.3 0 0 1-1.298-1.298 1.3 1.3 0 0 1 1.298-1.298h1.097a1.3 1.3 0 0 1 1.298 1.298 1.3 1.3 0 0 1-1.298 1.298z"/></g><path d="M27.051 17.886H16.553a2.43 2.43 0 0 0-2.423 2.423v1.75a2.43 2.43 0 0 0 2.423 2.423h10.498a2.43 2.43 0 0 0 2.423-2.423v-1.75a2.43 2.43 0 0 0-2.423-2.423z" fill="url(#F)"/><path d="M69.447 17.886H58.949a2.43 2.43 0 0 0-2.423 2.423v1.75a2.43 2.43 0 0 0 2.423 2.423h10.498a2.43 2.43 0 0 0 2.423-2.423v-1.75a2.43 2.43 0 0 0-2.423-2.423z" fill="url(#G)"/><g fill="#f23c49"><use xlink:href="#H" opacity=".5"/><use xlink:href="#H" x="42.397" opacity=".5"/></g><defs><linearGradient id="B" x1="43" y1="26.156" x2="43" y2="84.744" xlink:href="#I"><stop stop-color="#fff"/><stop offset=".416" stop-color="#f5f4f8"/><stop offset="1" stop-color="#efecf3"/></linearGradient><linearGradient id="C" x1="42.998" y1="28.319" x2="42.998" y2="71.561" xlink:href="#I"><stop stop-color="#fff"/><stop offset=".416" stop-color="#f5f4f8"/><stop offset="1" stop-color="#efecf3"/></linearGradient><linearGradient id="D" x1="15.644" y1="9.967" x2="60.251" y2="9.967" xlink:href="#I"><stop stop-color="#ff9aa1"/><stop offset="1" stop-color="#f23c49"/></linearGradient><linearGradient id="E" x1="37.514" y1="58.993" x2="52.137" y2="59.125" xlink:href="#I"><stop stop-color="#fdbc31"/><stop offset=".517" stop-color="#ffcc60"/><stop offset="1" stop-color="#fff3d9"/></linearGradient><linearGradient id="F" x1="13.466" y1="21.184" x2="27.309" y2="21.184" xlink:href="#I"><stop stop-color="#ff9aa1"/><stop offset="1" stop-color="#f23c49"/></linearGradient><linearGradient id="G" x1="55.862" y1="21.184" x2="69.705" y2="21.184" xlink:href="#I"><stop stop-color="#ff9aa1"/><stop offset="1" stop-color="#f23c49"/></linearGradient><path id="H" d="M19.321 22.058v-1.75a2.43 2.43 0 0 1 2.423-2.423h-5.191a2.43 2.43 0 0 0-2.423 2.423v1.75a2.43 2.43 0 0 0 2.423 2.423h5.191a2.43 2.43 0 0 1-2.423-2.423z"/><linearGradient id="I" gradientUnits="userSpaceOnUse"/></defs></svg>