<svg xmlns="http://www.w3.org/2000/svg" width="108" height="37" fill="none" xmlns:v="https://vecta.io/nano"><path d="M3.876 31.536H0V36a1 1 0 0 0 1 1h106a1 1 0 0 0 1-1V2.454l-3.842 3.676a1 1 0 0 1-1.628-.373l-1.531-4.106a1 1 0 0 0-.937-.651h-5.224a1 1 0 0 0-.607.206l-3.585 2.74a1 1 0 0 1-.933.151L85.85 2.764a1 1 0 0 0-1.254.572l-3.048 7.571a1 1 0 0 1-1.615.353l-2.824-2.672c-.377-.357-.984-.291-1.275.138a.84.84 0 0 1-1.104.264l-1.203-.664a1 1 0 0 0-1.281.273l-2.398 3.178a1 1 0 0 1-.979.381l-2.53-.466a1 1 0 0 0-1.113.622l-3.476 8.955a1 1 0 0 1-.639.594l-4.785 1.468a1 1 0 0 1-1.099-.363l-3.022-4.106a1 1 0 0 0-1.633.031l-.974 1.434a1 1 0 0 1-.561.402l-3.145.868a1 1 0 0 0-.645.551l-1.902 4.199a1 1 0 0 1-.708.567l-4.476.927a1 1 0 0 0-.506.273l-2.755 2.765a1 1 0 0 1-1.36.053l-1.755-1.507a1 1 0 0 0-1.099-.136l-7.177 3.589a1 1 0 0 1-.916-.011l-2.03-1.077a1 1 0 0 0-.952.008l-1.935 1.068a1 1 0 0 1-.483.124H12.52a1 1 0 0 1-.605-.203L7.597 29.51a1 1 0 0 0-1.299.077l-1.727 1.668a1 1 0 0 1-.695.281z" fill="url(#A)"/><path d="M.645 31.536h3.234a1 1 0 0 0 .695-.281L6.3 29.587a1 1 0 0 1 1.299-.077l4.317 3.277a1 1 0 0 0 .605.203h4.674a1 1 0 0 0 .483-.124l1.801-.994a1 1 0 0 1 1.135.117l1.881 1.616a1 1 0 0 0 1.177.092l6.987-4.32a1 1 0 0 1 1.177.092l1.704 1.463a1 1 0 0 0 1.36-.053l2.755-2.765a1 1 0 0 1 .506-.273l4.476-.927a1 1 0 0 0 .708-.567l1.902-4.199a1 1 0 0 1 .645-.551l3.145-.868a1 1 0 0 0 .561-.402l.974-1.434a1 1 0 0 1 1.633-.031l3.022 4.106a1 1 0 0 0 1.099.363l4.785-1.468a1 1 0 0 0 .639-.594l3.476-8.955a1 1 0 0 1 1.113-.622l2.53.466a1 1 0 0 0 .979-.381l2.398-3.178a1 1 0 0 1 1.281-.273l1.203.664a.84.84 0 0 0 1.104-.264h0c.292-.429.898-.495 1.275-.138l2.824 2.672a1 1 0 0 0 1.615-.353l3.048-7.571a1 1 0 0 1 1.254-.572l3.862 1.333a1 1 0 0 0 .933-.151l3.585-2.74A1 1 0 0 1 94.84 1h5.223a1 1 0 0 1 .937.651l1.489 3.992a1 1 0 0 0 1.677.323l3.193-3.512" stroke="#22c55e" stroke-linecap="round"/><defs><linearGradient id="A" x1="54" y1="-51" x2="54" y2="37" gradientUnits="userSpaceOnUse"><stop stop-color="#22c55e"/><stop offset="1" stop-color="#131022" stop-opacity="0"/></linearGradient></defs></svg>