<svg xmlns="http://www.w3.org/2000/svg" width="109" height="36" fill="none" xmlns:v="https://vecta.io/nano"><path d="M4.232 32.311H1V35a1 1 0 0 0 1 1h106a1 1 0 0 0 1-1V8.743l-3.975 11.22c-.344.97-1.753.851-1.928-.164l-1.043-6.04a1 1 0 0 0-1.579-.635L99.1 14.138a1 1 0 0 1-1.476-.336l-1.414-2.66a1 1 0 0 0-1.625-.202l-5.758 6.365a1 1 0 0 1-1.186.225l-.65-.322a1 1 0 0 0-1.373.524l-2.867 7.15c-.344.859-1.571.829-1.873-.046l-2.38-6.89a1.01 1.01 0 0 0-.067-.152l-3.122-5.723a1 1 0 0 0-1.701-.09l-1.112 1.61a1 1 0 0 1-1.422.232l-3.501-2.623a1 1 0 0 0-1.577.589l-1.277 5.915a1 1 0 0 1-.122.306l-1.459 2.413a1 1 0 0 1-1.645.096l-1.814-2.334a1 1 0 0 0-.646-.376l-1.593-.231a1 1 0 0 1-.816-.706l-3.15-10.638a1 1 0 0 0-1.792-.269l-.902 1.358a1 1 0 0 1-1.794-.277L47.73 2.683c-.26-.902-1.507-.982-1.879-.12l-2.572 5.956a1 1 0 0 1-.918.604h-4.003a1 1 0 0 0-.876.518l-1.137 2.068a1 1 0 0 1-1.753 0l-.164-.298c-.442-.804-1.642-.639-1.85.255l-4.879 20.939a1 1 0 0 1-.539.674l-2.569 1.24a1 1 0 0 1-1.353-.504l-1.96-4.538a1 1 0 0 0-1.622-.313l-4.739 4.703a1 1 0 0 1-1.645-.371l-1.069-2.972a.99.99 0 0 0-.106-.213l-3.094-4.685a1 1 0 0 0-1.777.218l-2.049 5.801a1 1 0 0 1-.943.667z" fill="url(#A)"/><path d="M1 32.311h3.232a1 1 0 0 0 .943-.667l2.049-5.8a1 1 0 0 1 1.777-.218l3.094 4.685a.99.99 0 0 1 .106.213l1.069 2.972a1 1 0 0 0 1.645.371l4.739-4.703a1 1 0 0 1 1.622.313l1.96 4.538a1 1 0 0 0 1.353.504l2.569-1.24a1 1 0 0 0 .539-.674l4.879-20.939c.208-.893 1.409-1.059 1.85-.255l.164.298a1 1 0 0 0 1.753 0l1.137-2.068a1 1 0 0 1 .876-.518h4.003a1 1 0 0 0 .918-.604l2.572-5.956c.372-.862 1.619-.782 1.879.12l1.256 4.363a1 1 0 0 0 1.794.277l.902-1.358a1 1 0 0 1 1.792.269l3.15 10.638a1 1 0 0 0 .816.706l1.593.231a1 1 0 0 1 .646.376l1.814 2.334a1 1 0 0 0 1.645-.096l1.459-2.413a1 1 0 0 0 .122-.306l1.277-5.915a1 1 0 0 1 1.577-.589l3.501 2.623a1 1 0 0 0 1.422-.232l1.112-1.61a1 1 0 0 1 1.701.09l3.122 5.723a1 1 0 0 1 .067.152l2.38 6.89c.302.875 1.529.905 1.873.046l2.867-7.15a1 1 0 0 1 1.373-.524l.65.322a1 1 0 0 0 1.186-.225l5.758-6.365a1 1 0 0 1 1.625.202l1.414 2.66a1 1 0 0 0 1.476.336l1.375-1.013a1 1 0 0 1 1.579.635l.987 5.715c.179 1.035 1.628 1.13 1.94.127l3.376-10.858" stroke="#22c55e" stroke-linecap="round"/><defs><linearGradient id="A" x1="55" y1="-52" x2="55" y2="36" gradientUnits="userSpaceOnUse"><stop stop-color="#22c55e"/><stop offset="1" stop-color="#131022" stop-opacity="0"/></linearGradient></defs></svg>