<svg xmlns="http://www.w3.org/2000/svg" width="109" height="36" fill="none" xmlns:v="https://vecta.io/nano"><path d="M3.363 32.598L.801 30.71V35a1 1 0 0 0 1 1H108a1 1 0 0 0 1-1V18.588l-1.707 4.529a1 1 0 0 1-.412.5l-1.921 1.179a1 1 0 0 1-1.473-.54l-2.303-7.001a1 1 0 0 0-.95-.688h-1.457a1 1 0 0 1-.957-.711l-1.044-3.462a1 1 0 0 0-1.756-.313l-.341.452a1 1 0 0 1-.799.398h-4.952a1 1 0 0 1-.688-.274l-1.288-1.221a1 1 0 0 0-1.583.281l-2.31 4.643c-.401.807-1.581.713-1.85-.148l-2.808-9.003a1 1 0 0 0-.402-.536l-3.023-2.005a1 1 0 0 0-.734-.15l-3.321.612a1 1 0 0 1-1.029-.453l-2.09-3.337a1 1 0 0 0-1.69-.007l-2.64 4.135a1 1 0 0 1-1.713-.046l-.112-.198a1 1 0 0 0-1.753.022l-1.807 3.396a1 1 0 0 1-1.806-.084l-2.565-6.144c-.354-.847-1.566-.81-1.867.057l-2.562 7.364a1 1 0 0 1-.945.671h-1.15a1 1 0 0 0-.939.655l-4.444 12.094a1 1 0 0 1-.197.326l-5.025 5.555a1 1 0 0 1-1.437.048l-1.742-1.685a1 1 0 0 0-1.017-.228l-3.606 1.227a1 1 0 0 0-.665.784l-.496 3.016a1 1 0 0 1-.987.838h-2.661a1 1 0 0 1-.81-.414l-3.316-4.582a1 1 0 0 0-1.592-.037l-3.98 4.986a1 1 0 0 1-1.473.098l-3.95-3.784a1 1 0 0 0-1.433.051l-2.724 3.011a1 1 0 0 1-1.335.134z" fill="url(#A)"/><path d="M.801 30.71l2.562 1.888a1 1 0 0 0 1.335-.134l2.724-3.011a1 1 0 0 1 1.433-.051l3.95 3.784a1 1 0 0 0 1.473-.098l3.98-4.986a1 1 0 0 1 1.592.037l3.316 4.582a1 1 0 0 0 .81.414h2.661a1 1 0 0 0 .987-.838l.496-3.016a1 1 0 0 1 .665-.784l3.606-1.227a1 1 0 0 1 1.017.228l1.742 1.685a1 1 0 0 0 1.437-.048l5.025-5.555a1 1 0 0 0 .197-.326l4.444-12.093a1 1 0 0 1 .939-.655h1.15a1 1 0 0 0 .945-.671l2.562-7.364c.302-.867 1.514-.904 1.867-.057l2.565 6.144a1 1 0 0 0 1.806.084l1.807-3.396a1 1 0 0 1 1.753-.022l.112.198a1 1 0 0 0 1.713.046l2.64-4.135a1 1 0 0 1 1.69.007l2.09 3.337a1 1 0 0 0 1.029.453l3.321-.612a1 1 0 0 1 .734.15l3.023 2.005a1 1 0 0 1 .402.536l2.808 9.003c.268.86 1.448.955 1.85.148l2.31-4.643a1 1 0 0 1 1.583-.28l1.288 1.221a1 1 0 0 0 .688.274h4.952a1 1 0 0 0 .799-.398l.341-.452a1 1 0 0 1 1.756.313l1.044 3.462a1 1 0 0 0 .957.711h1.457a1 1 0 0 1 .95.688l2.303 7.001a1 1 0 0 0 1.473.54l1.86-1.142a1 1 0 0 0 .449-.618l1.087-4.521" stroke="#ef4444" stroke-linecap="round"/><defs><linearGradient id="A" x1="54.9" y1="-52" x2="54.9" y2="36" gradientUnits="userSpaceOnUse"><stop stop-color="#ef4444"/><stop offset="1" stop-color="#131022" stop-opacity="0"/></linearGradient></defs></svg>