<?xml version="1.0" encoding="utf-8"?>
<!-- Generator: Adobe Illustrator 23.0.1, SVG Export Plug-In . SVG Version: 6.00 Build 0)  -->
<svg version="1.1" id="Layer_1" xmlns:v="https://vecta.io/nano"
	 xmlns="http://www.w3.org/2000/svg" xmlns:xlink="http://www.w3.org/1999/xlink" x="0px" y="0px" viewBox="0 0 84 58"
	 style="enable-background:new 0 0 84 58;" xml:space="preserve">
<style type="text/css">
	.st0{fill-rule:evenodd;clip-rule:evenodd;fill:#3498D8;}
	.st1{fill-rule:evenodd;clip-rule:evenodd;fill:#FFFFFF;}
</style>
<path class="st0" d="M78.8,1.6H5.2C2.4,1.6,0,3.9,0,6.8v44.1c0,2.9,2.4,5.2,5.2,5.2h73.5c2.9,0,5.2-2.3,5.2-5.2V6.8
	C84,3.9,81.6,1.6,78.8,1.6z"/>
<path class="st1" d="M17.6,29.6h4.2l-2.1-5.2L17.6,29.6z M76.1,19.7H65.4l-2.6,2.9l-2.4-2.9H37.5l-2.1,4.7l-2.1-4.7h-9.2v2.1l-1-2.1
	h-7.9L7.6,37.9h9.2l1-2.9h2.6l1,2.9h10.2v-2.1l0.8,2.1h5.2l0.8-2.3v2.3h21l2.6-2.9l2.4,2.9h10.8l-6.8-9.1L76.1,19.7z M44.4,35.3
	h-2.9V25.2L37,35.3h-2.6l-4.5-10.1v10.1h-6l-1-2.9h-6.3l-1,2.9h-3.4l5.5-13h4.5l5,12.2V22.3h5l3.9,8.8l3.7-8.8h5v13H44.4z
	 M70.3,35.3h-3.9L63,30.9l-3.9,4.4H47.2v-13h12.1l3.7,4.2l3.9-4.2h3.7l-5.8,6.5C64.8,28.8,70.4,35.3,70.3,35.3z M50.1,24.9v2.3h6.6
	v2.6h-6.6v2.6h7.3l3.4-3.9l-3.2-3.6C57.7,24.9,50.1,24.9,50.1,24.9z"/>
</svg>
