<svg xmlns="http://www.w3.org/2000/svg" width="84" height="58" fill="none" xmlns:v="https://vecta.io/nano"><rect x=".5" y=".5" width="83" height="57" rx="7.5" fill="#fff" stroke="#e2e5f1"/><path d="M61.402 33.837a20 20 0 0 1-24.238 14.564c-10.72-2.672-17.237-13.533-14.565-24.237 2.672-10.72 13.518-17.237 24.238-14.564 10.705 2.657 17.237 13.517 14.565 24.237z" fill="url(#A)"/><path d="M51.523 26.508c.391-2.656-1.625-4.094-4.406-5.047l.906-3.609-2.187-.547-.875 3.516-1.766-.406.875-3.531-2.187-.547-.891 3.594-1.406-.328v-.016l-3.031-.75-.578 2.344 1.594.391c.891.219 1.047.813 1.016 1.281l-1.031 4.109c.063.016.141.031.234.078-.078-.016-.156-.031-.234-.062l-1.437 5.75c-.109.266-.391.672-1 .516.016.031-1.594-.391-1.594-.391l-1.094 2.516 2.859.719 1.563.406-.906 3.641 2.188.547.906-3.609 1.75.453-.891 3.594 2.188.547.906-3.641c3.75.703 6.563.422 7.734-2.969.953-2.719-.047-4.297-2.016-5.328 1.453-.328 2.531-1.281 2.813-3.219zm-5.016 7.031c-.672 2.719-5.266 1.25-6.75.875l1.203-4.828c1.484.375 6.266 1.109 5.547 3.953zm.688-7.078c-.625 2.484-4.437 1.219-5.672.906l1.094-4.375c1.234.313 5.219.891 4.578 3.469z" fill="#fff"/><defs><linearGradient id="A" x1="41.989" y1="8.991" x2="41.989" y2="48.996" gradientUnits="userSpaceOnUse"><stop stop-color="#f9aa4b"/><stop offset="1" stop-color="#f7931a"/></linearGradient></defs></svg>