<svg xmlns="http://www.w3.org/2000/svg" width="84" height="58" fill="none" xmlns:v="https://vecta.io/nano"><rect x=".5" y=".5" width="83" height="57" rx="7.5" fill="#fff" stroke="#e2e5f1"/><path d="M49.691 42.016H34.699V15.243h14.991v26.773z" fill="#ff5f00"/><path d="M35.66 28.627c0-5.431 2.559-10.269 6.544-13.387-2.914-2.28-6.592-3.641-10.588-3.641-9.462 0-17.132 7.623-17.132 17.027s7.67 17.027 17.132 17.027c3.997 0 7.675-1.361 10.588-3.641-3.985-3.118-6.544-7.956-6.544-13.387z" fill="#eb001b"/><path d="M69.909 28.627c0 9.404-7.67 17.027-17.132 17.027a17.13 17.13 0 0 1-10.59-3.641c3.986-3.118 6.545-7.956 6.545-13.387s-2.559-10.269-6.545-13.387c2.915-2.28 6.593-3.641 10.59-3.641 9.462 0 17.132 7.623 17.132 17.027z" fill="#f79e1b"/></svg>