<svg xmlns="http://www.w3.org/2000/svg" width="84" height="58" fill="none" xmlns:v="https://vecta.io/nano"><rect x=".5" y=".5" width="83" height="57" rx="7.5" fill="#fff" stroke="#e2e5f1"/><g fill="#15195a"><path d="M37.296 39.778h-5.593l3.498-20.301h5.592l-3.498 20.301zm20.273-19.805c-1.103-.411-2.853-.864-5.016-.864-5.523 0-9.412 2.764-9.436 6.716-.046 2.916 2.785 4.535 4.901 5.508 2.164.993 2.899 1.642 2.899 2.527-.022 1.36-1.748 1.987-3.359 1.987-2.233 0-3.429-.323-5.247-1.08l-.736-.324L40.793 39c1.312.561 3.728 1.059 6.237 1.08 5.868 0 9.688-2.721 9.734-6.933.022-2.311-1.472-4.082-4.694-5.529-1.956-.929-3.154-1.555-3.154-2.506.023-.864 1.013-1.749 3.221-1.749 1.818-.043 3.154.367 4.166.777l.506.216.761-4.384z"/><path d="M67.579 19.477h4.326l4.512 20.301h-5.178l-.667-3.045h-7.18l-1.174 3.045H56.35l8.307-18.616c.576-1.317 1.589-1.684 2.923-1.684zm-.345 7.429l-2.233 5.68h4.648l-1.289-5.874-.391-1.749-.563 1.487-.173.456zM7.471 19.477h8.998c1.22.043 2.209.41 2.531 1.706l1.955 9.328.599 2.809 5.477-13.843h5.914l-8.791 20.279H18.24l-4.985-17.64c-1.72-.944-3.683-1.703-5.877-2.23l.092-.41z" fill-rule="evenodd"/></g></svg>