<svg xmlns="http://www.w3.org/2000/svg" width="28" height="28" fill="none" xmlns:v="https://vecta.io/nano"><g clip-path="url(#A)"><path d="M28 9.257c0 3.829-2.727 7.039-4.777 9.12a1.09 1.09 0 0 1-1.547.011c-.43-.424-.435-1.117-.011-1.547 2.83-2.872 4.148-5.282 4.148-7.585 0-3.39-2.204-5.757-5.359-5.757-2.052 0-3.567.772-4.503 2.294-.743 1.208-.859 2.466-.86 2.479A1.09 1.09 0 0 1 14 9.28c-.572 0-1.047-.442-1.09-1.012-.001-.008-.117-1.266-.86-2.474C11.114 4.272 9.599 3.5 7.547 3.5c-3.155 0-5.359 2.367-5.359 5.757 0 1.529.58 3.101 1.771 4.798h2.596l1.815-3.707c.187-.381.579-.622 1.002-.613s.806.26.979.648l2.235 5.009 1.423-2.815c.185-.365.558-.597.967-.6h.009c.406 0 .778.225.968.584l.786 1.494h2.457c.604 0 1.094.49 1.094 1.094s-.49 1.094-1.094 1.094h-3.117c-.406 0-.779-.225-.968-.584l-.106-.202-1.504 2.975c-.186.369-.564.6-.976.6-.009 0-.018 0-.027 0-.422-.01-.8-.262-.972-.648L9.306 13.41l-1.086 2.22c-.184.375-.565.613-.982.613H1.094C.49 16.242 0 15.753 0 15.148s.49-1.094 1.094-1.094h.277C.451 12.427 0 10.845 0 9.257c0-2.323.763-4.323 2.206-5.784 1.376-1.393 3.272-2.16 5.341-2.16 3.617 0 5.487 1.861 6.419 3.422l.034.058.034-.058c.932-1.561 2.802-3.422 6.419-3.422 2.069 0 3.966.767 5.341 2.16C27.237 4.934 28 6.934 28 9.257zM17.818 20.384l-.025.022c-1.39 1.22-2.719 2.387-3.793 3.53-1.073-1.143-2.403-2.31-3.793-3.53l-2.248-2.003c-.445-.409-1.137-.38-1.545.065s-.38 1.136.065 1.545c.761.7 1.536 1.38 2.286 2.038 1.713 1.503 3.332 2.923 4.384 4.229a.54.54 0 0 0 .019.022c.02.023.04.046.061.067a1.03 1.03 0 0 0 .084.075c.028.023.053.041.078.058s.054.034.079.048a1.05 1.05 0 0 0 .08.04c.006.003.013.005.019.008a1.1 1.1 0 0 0 .062.025c.04.014.064.021.088.027.009.003.019.005.028.007a1.14 1.14 0 0 0 .059.012c.008.001.015.003.023.004.023.004.046.006.069.009l.025.002a.99.99 0 0 0 .075.003H14h.001c.028 0 .053-.002.078-.003l.025-.002a1.07 1.07 0 0 0 .069-.009c.008-.001.016-.003.024-.004.019-.004.039-.008.058-.012.009-.002.019-.005.028-.007a1.15 1.15 0 0 0 .071-.021 1.18 1.18 0 0 0 .078-.031l.02-.009c.025-.011.05-.023.074-.037a1.17 1.17 0 0 0 .079-.048c.031-.02.056-.039.08-.058a1.2 1.2 0 0 0 .084-.075 1.18 1.18 0 0 0 .065-.071l.015-.018c1.055-1.311 2.674-2.731 4.387-4.234l.025-.022c.454-.398.499-1.089.101-1.543s-1.09-.499-1.544-.101z" fill="#b4b7c9"/></g><defs><clipPath id="A"><path fill="#fff" d="M0 0h28v28H0z"/></clipPath></defs></svg>