<svg xmlns="http://www.w3.org/2000/svg" width="28" height="28" fill="none" xmlns:v="https://vecta.io/nano"><g clip-path="url(#A)"><path d="M27.045 22.34c-.605-.034-1.121.429-1.154 1.032l-.207 2.089-.035.297c-1.19-.006-2.938-.144-4.378-.515-1.609-.415-1.957-.896-1.957-.993V9.224c0-.067.026-.129.073-.177.092-.092.169-.091.257-.062.755.255 1.974 1.078 3.13 2.623.933 1.249 2.17 3.44 2.763 6.788.105.595.674.991 1.27.887s.994-.673.888-1.268c-.529-2.984-1.623-5.652-3.165-7.715-1.255-1.68-2.781-2.915-4.185-3.388a2.4 2.4 0 0 0-2.508.586 2.42 2.42 0 0 0-.716 1.724v4.331c-1.029-.611-1.671-1.238-1.969-1.919l-.003-.058V7.601c0-.604-.491-1.094-1.096-1.094s-1.096.49-1.096 1.094v3.705c-.029.085-.047.173-.055.263-.379.794-1.012 1.458-1.918 2.005V9.169a2.42 2.42 0 0 0-.716-1.724 2.4 2.4 0 0 0-2.508-.586c-1.753.591-3.627 2.33-5.014 4.652-1.241 2.078-2.72 5.686-2.72 11.072 0 .817.09 2.007.268 3.535.121 1.041 1.015 1.825 2.081 1.825.643 0 2.904-.042 5.01-.585.964-.249 1.742-.569 2.311-.953 1.066-.719 1.289-1.57 1.289-2.157v-8.212c1.291-.575 2.298-1.297 3.036-2.179.873.982 2.06 1.675 3.101 2.178v8.215c0 .587.224 1.438 1.289 2.157.569.384 1.347.705 2.311.953 2.106.543 4.367.585 5.01.585 1.065 0 1.96-.785 2.081-1.825l.047-.401c.084-.705.179-1.504.219-2.226.033-.603-.43-1.119-1.034-1.152zM8.794 24.248c0 .097-.348.578-1.957.993-1.44.371-3.188.509-4.378.515-.157-1.373-.24-2.469-.24-3.173 0-4.889 1.311-8.11 2.412-9.952 1.329-2.225 2.895-3.384 3.833-3.7.032-.011.063-.018.094-.018.053 0 .105.021.164.079.047.047.074.11.074.177v15.079zm4.164-19.982c0-.604.491-1.094 1.096-1.094s1.096.49 1.096 1.094-.491 1.094-1.096 1.094-1.096-.49-1.096-1.094zm0-3.226c0-.604.491-1.094 1.096-1.094s1.096.49 1.096 1.094-.491 1.094-1.096 1.094-1.096-.49-1.096-1.094z" fill="#b4b7c9"/></g><defs><clipPath id="A"><path fill="#fff" d="M0 0h28v28H0z"/></clipPath></defs></svg>