<svg xmlns="http://www.w3.org/2000/svg" width="28" height="28" fill="none" xmlns:v="https://vecta.io/nano"><g clip-path="url(#A)"><path d="M25.262 3.049a2.41 2.41 0 0 1 .611 1.84 2.56 2.56 0 0 1-.966 1.789 1.09 1.09 0 0 0-.183 1.536c.374.474 1.063.556 1.539.182 1.028-.808 1.682-2.019 1.793-3.32.111-1.294-.303-2.533-1.166-3.49a4.84 4.84 0 0 0-.718-.65 4.77 4.77 0 0 0-3.56-.882 4.76 4.76 0 0 0-3.131 1.874L.263 26.224a1.09 1.09 0 0 0-.126 1.155c.183.377.566.617.986.617l.417.002.527.003c1.978 0 5.205-.146 8.472-2.095 2.318-1.383 3.686-3.969 3.57-6.748v-.101c.01-.397.135-.765.394-1.161.19-.291.438-.558.738-.793l6.892-5.474a1.09 1.09 0 0 0 .175-1.537 1.1 1.1 0 0 0-1.54-.175l-6.885 5.469c-.237.187-.456.388-.655.601l-1.284-.997 9.271-11.72.021-.028c.413-.558 1.018-.922 1.705-1.025s1.373.067 1.932.479a2.63 2.63 0 0 1 .391.354zM12.101 17.885c-.113.365-.176.738-.185 1.116l.002.247c.083 1.977-.877 3.809-2.505 4.78-2.16 1.289-4.302 1.653-6.006 1.751l7.176-9.072 1.517 1.178zm3.923 9.017c0 .604-.491 1.093-1.096 1.093h-1.644c-.605 0-1.096-.489-1.096-1.093s.491-1.094 1.096-1.094h1.644c.605 0 1.096.49 1.096 1.094zm6.026 0c0 .604-.491 1.093-1.096 1.093h-1.643c-.605 0-1.096-.489-1.096-1.093s.49-1.094 1.096-1.094h1.643c.605 0 1.096.49 1.096 1.094zm6.026 0c0 .604-.491 1.093-1.096 1.093h-1.644c-.605 0-1.096-.489-1.096-1.093s.491-1.094 1.096-1.094h1.644c.605 0 1.096.49 1.096 1.094z" fill="#b4b7c9"/></g><defs><clipPath id="A"><path fill="#fff" d="M0 0h28v28H0z"/></clipPath></defs></svg>