<svg xmlns="http://www.w3.org/2000/svg" width="28" height="28" fill="none" xmlns:v="https://vecta.io/nano"><path d="M18.156 20.453c-.604 0-1.094.49-1.094 1.094a4.27 4.27 0 0 1-4.266 4.266 4.27 4.27 0 0 1-4.266-4.266v-3.143l3.888-5.642c.024-.035.045-.071.065-.107l.219-.212c1.401-1.424 2.172-3.415 2.172-5.606l-.002-.056.002-4.237C14.875 1.141 13.734 0 12.332 0h-2.051c-.604 0-1.094.49-1.094 1.094v1.094c0 .604.49 1.094 1.094 1.094s1.094-.49 1.094-1.094h.957c.196 0 .355.159.355.355l-.002 4.293.001.053c-.024 3.205-2.224 5.526-5.25 5.526-3.042 0-5.25-2.346-5.25-5.578a1.13 1.13 0 0 0-.005-.101l.005-.101V2.543c0-.196.159-.355.355-.355h.904c.029.579.507 1.039 1.092 1.039.604 0 1.094-.49 1.094-1.094V1.094C5.633.49 5.143 0 4.539 0H2.543C1.141 0 0 1.141 0 2.543v4.091c0 .034.002.068.005.101L0 6.836c0 2.191.771 4.182 2.172 5.606l.133.131c.028.065.062.128.104.188l3.935 5.71v3.076c0 3.558 2.895 6.453 6.453 6.453s6.453-2.895 6.453-6.453c0-.604-.49-1.094-1.094-1.094zM7.438 14.602a7.82 7.82 0 0 0 1.111-.079l-1.135 1.647-1.14-1.655a7.81 7.81 0 0 0 1.164.087zm18.375-2.874V4.375A4.38 4.38 0 0 0 21.438 0a4.38 4.38 0 0 0-4.375 4.375v11.703c0 .604.49 1.094 1.094 1.094s1.094-.49 1.094-1.094V4.375a2.19 2.19 0 0 1 2.188-2.187 2.19 2.19 0 0 1 2.188 2.188v7.352c-1.273.451-2.187 1.667-2.187 3.093 0 1.809 1.472 3.281 3.281 3.281S28 16.63 28 14.82c0-1.426-.915-2.642-2.187-3.093zm-1.094 4.187c-.603 0-1.094-.491-1.094-1.094s.491-1.094 1.094-1.094 1.094.491 1.094 1.094-.491 1.094-1.094 1.094z" fill="#b4b7c9"/></svg>