<svg xmlns="http://www.w3.org/2000/svg" width="28" height="28" fill="none" xmlns:v="https://vecta.io/nano"><path d="M25.028 15.349c.109 1.409-.254 3.066-.598 4.259-.138.479-.576.791-1.05.791-.1 0-.202-.014-.303-.043-.58-.168-.915-.773-.748-1.354.443-1.536.621-2.899.49-3.739-.041-.265.017-.537.162-.763.028-.043 2.832-4.422 2.832-7.445 0-2.764-2.353-4.856-5.472-4.867-2.924 0-5.098 1.281-6.838 4.03-.323.511-.999.663-1.509.34s-.663-.999-.34-1.509c.355-.561.729-1.073 1.123-1.54-.686-.166-1.273-.388-1.822-.595-1.023-.387-1.909-.722-3.329-.726-2.704.014-5.438 1.688-5.438 4.867 0 3.023 2.804 7.402 2.833 7.445.146.226.204.497.162.762-.168 1.077.174 2.988.893 4.988.738 2.052 1.743 3.875 2.688 4.874.515.544.867.687 1.009.687h.004l.027-.002c-.021-.325-.142-.855-.229-1.236-.292-1.284-.656-2.882-.28-4.553.451-2.007 1.881-3.575 4.249-4.662.285-.131.613-.133.9-.006 2.383 1.056 3.82 2.61 4.271 4.62.375 1.67.008 3.279-.287 4.572l-.242 1.265.023.003c.214.016.983-.332 2.079-2.105.318-.514.992-.672 1.506-.355s.672.992.355 1.506c-1.291 2.087-2.608 3.142-3.919 3.142-.062 0-.124-.003-.186-.008-.716-.012-1.265-.25-1.631-.708-.664-.833-.411-1.942-.118-3.226.512-2.242 1.089-4.772-2.288-6.491-3.381 1.772-2.808 4.29-2.3 6.522.289 1.27.539 2.367-.122 3.196-.366.458-.916.696-1.635.708l-.182.008c-.861 0-1.732-.461-2.594-1.372-1.158-1.225-2.309-3.279-3.157-5.636-.782-2.172-1.153-4.193-1.045-5.641C2.257 14.173 0 10.211 0 7.055 0 3.066 3.25.043 7.569 0h.03.033c1.824.008 3.031.464 4.096.867.983.372 1.838.694 3.159.717C16.455.522 18.264 0 20.344 0c2.032.007 3.925.689 5.335 1.92C27.176 3.226 28 5.05 28 7.055c0 3.155-2.256 7.116-2.972 8.294zm-1.427-8.294c0-.75-.276-1.373-.819-1.85-.608-.534-1.474-.831-2.438-.837-.608 0-1.097.485-1.1 1.087s.483 1.097 1.087 1.1c.5.003.848.153 1.007.293.06.052.076.066.076.207 0 .604.49 1.094 1.094 1.094s1.094-.49 1.094-1.094z" fill="#b4b7c9"/></svg>