<svg xmlns="http://www.w3.org/2000/svg" width="28" height="28" fill="none" xmlns:v="https://vecta.io/nano"><path d="M15.039 15.586v2.301h1.39l.105-.001c2.518-.04 4.734.532 6.582 1.702.51.323.662.999.339 1.509-.208.329-.563.509-.925.509-.2 0-.402-.055-.584-.17-1.482-.938-3.292-1.396-5.378-1.363l-.14.002h-1.389v2.457c0 .604-.49 1.094-1.094 1.094s-1.094-.49-1.094-1.094v-2.457h-1.335c-.036 0-.083-.001-.14-.002-2.086-.033-3.895.425-5.378 1.363-.511.323-1.186.171-1.509-.339s-.171-1.186.339-1.509c1.848-1.17 4.065-1.74 6.582-1.702l.105.001h1.335v-2.301h-1.335c-.036 0-.083-.001-.14-.002-2.053-.034-3.841.426-5.323 1.363-.511.323-1.186.171-1.509-.34s-.171-1.186.339-1.509c1.848-1.169 4.043-1.742 6.528-1.702l.105.001h1.335v-2.292h-1.2c-.031 0-.073-.001-.125-.002-2.719-.04-4.035.74-4.66 1.403-.414.439-1.106.46-1.546.045s-.46-1.107-.046-1.546c.927-.983 2.771-2.144 6.286-2.09l.091.001h1.2V6.667h-1.586c-.43 0-1.829.267-2.577.897a1.09 1.09 0 0 1-1.541-.132c-.389-.462-.33-1.152.132-1.541 1.266-1.066 3.232-1.411 3.986-1.411h5.414c.823 0 2.729.296 4.044 1.414.46.391.516 1.082.125 1.542s-1.081.516-1.542.125c-.786-.668-2.134-.893-2.628-.893h-1.641v2.252h1.296.043c1.662 0 4.647.278 6.307 2.103.406.447.373 1.139-.074 1.545a1.09 1.09 0 0 1-1.545-.074c-.802-.882-2.508-1.387-4.684-1.387h-.041-.047-1.255v2.292h1.39l.105-.001c2.518-.04 4.734.532 6.582 1.702.51.323.662.999.339 1.509-.208.329-.563.509-.925.509a1.09 1.09 0 0 1-.584-.17c-1.482-.938-3.292-1.397-5.378-1.363l-.14.002h-1.389zm11.867 3.664c.604 0 1.094-.49 1.094-1.094V4.375A4.38 4.38 0 0 0 23.625 0H4.375A4.38 4.38 0 0 0 0 4.375v19.25A4.38 4.38 0 0 0 4.375 28h19.25A4.38 4.38 0 0 0 28 23.625c0-.604-.49-1.094-1.094-1.094s-1.094.49-1.094 1.094a2.19 2.19 0 0 1-2.187 2.188H4.375a2.19 2.19 0 0 1-2.187-2.187V4.375a2.19 2.19 0 0 1 2.188-2.187h19.25a2.19 2.19 0 0 1 2.188 2.188v13.781c0 .604.49 1.094 1.094 1.094z" fill="#b4b7c9"/></svg>