<svg xmlns="http://www.w3.org/2000/svg" width="40" height="40" fill="#fff" xmlns:v="https://vecta.io/nano"><path d="M38.828 27.031h-1.172V7.109a3.52 3.52 0 0 0-3.516-3.516H5.859c-1.938 0-3.508 1.577-3.508 3.516v19.922H1.18A1.18 1.18 0 0 0 0 28.203v2.344a5.87 5.87 0 0 0 5.859 5.859H34.14A5.87 5.87 0 0 0 40 30.547v-2.344a1.17 1.17 0 0 0-1.172-1.172zM4.688 7.109c0-.646.526-1.172 1.172-1.172h28.281a1.18 1.18 0 0 1 1.18 1.172v19.922H27.11c-.647 0-1.164.525-1.164 1.172v.002 1.17H14.063v-1.172a1.17 1.17 0 0 0-1.172-1.172H4.688V7.109zm32.977 23.438a3.53 3.53 0 0 1-3.524 3.516H5.859a3.52 3.52 0 0 1-3.516-3.516v-1.172h9.383v1.172c0 .647.517 1.172 1.164 1.172h14.219a1.17 1.17 0 0 0 1.172-1.172v-1.172h9.383v1.172zm-4.696-7.031a1.17 1.17 0 0 0-1.172-1.172H11.049l6.604-6.549 3.862 3.862a1.17 1.17 0 0 0 1.651.006l4.765-4.697c.46.222.977.347 1.522.347a3.52 3.52 0 0 0 3.516-3.516 3.52 3.52 0 0 0-3.516-3.516 3.52 3.52 0 0 0-3.516 3.516c0 .539.122 1.051.34 1.508l-3.928 3.872-3.865-3.865a1.17 1.17 0 0 0-1.654-.004l-7.456 7.394V9.453a1.172 1.172 0 0 0-2.344 0v14.062c0 .653.534 1.172 1.172 1.172h.001 23.593a1.17 1.17 0 0 0 1.172-1.172zm-3.516-12.891c.646 0 1.172.526 1.172 1.172s-.526 1.172-1.172 1.172-1.172-.526-1.172-1.172.526-1.172 1.172-1.172z"/></svg>