<svg xmlns="http://www.w3.org/2000/svg" width="32" height="32" fill="#9397ad" xmlns:v="https://vecta.io/nano"><path d="M16.221 18.245a8.91 8.91 0 0 0 6.302-15.211 8.91 8.91 0 0 0-15.211 6.3 8.92 8.92 0 0 0 8.91 8.91zm0-16.071a7.16 7.16 0 0 1 5.064 12.224A7.16 7.16 0 0 1 9.062 9.335a7.17 7.17 0 0 1 7.16-7.16zm.607 9.278h-2.754c-.216 0-.422.086-.575.238a.81.81 0 0 0 .575 1.388h1.271v.891a.81.81 0 1 0 1.625.001v-.905a2.22 2.22 0 0 0-.141-4.436h-1.236c-.093.001-.186-.017-.272-.052a.7.7 0 0 1-.231-.153.72.72 0 0 1-.155-.23.7.7 0 0 1-.054-.272.72.72 0 0 1 .054-.272c.035-.086.088-.164.155-.23a.71.71 0 0 1 .231-.153c.086-.035.179-.053.272-.052h2.776c.215 0 .422-.086.575-.238a.81.81 0 0 0 .238-.575c0-.216-.086-.422-.238-.575a.81.81 0 0 0-.575-.238H16.97v-.89a.81.81 0 1 0-1.624 0v.915c-.593.062-1.139.35-1.526.803s-.585 1.038-.553 1.633.291 1.155.724 1.565 1.007.637 1.603.636h1.235a.6.6 0 0 1 0 1.2h0zm10.796 9.166a2.17 2.17 0 0 0-.787-.721c-.318-.171-.674-.261-1.035-.26h-1.193c-.593-.001-1.173.174-1.666.504a2.99 2.99 0 0 0-1.102 1.348 2.25 2.25 0 0 1-1.539 1.326l.001-.333a2.83 2.83 0 0 0-2.833-2.844h-2.592c-.527-.002-1.049.101-1.536.302s-.93.496-1.302.869l-.069.068c-.516.515-1.204.822-1.932.86v-.609c0-.496-.198-.971-.548-1.322a1.87 1.87 0 0 0-1.322-.549H4.625c-.232 0-.455.092-.619.256s-.256.387-.256.619v10.401c0 .232.092.455.256.619s.387.256.619.256h3.544c.496-.001.971-.198 1.322-.549s.548-.826.549-1.322v-.104h9.873a7.57 7.57 0 0 0 6.962-4.586l.931-2.167c.143-.332.201-.694.17-1.053s-.152-.706-.351-1.007zM8.289 29.536c0 .032-.013.063-.035.085s-.053.035-.085.035H5.5v-8.651h2.669a.12.12 0 0 1 .085.035c.023.023.035.053.035.085v8.409zm17.909-7.549l-.931 2.168c-.45 1.047-1.197 1.94-2.148 2.567a5.82 5.82 0 0 1-3.207.96h-9.873v-4.196a4.69 4.69 0 0 0 3.165-1.369l.069-.068a2.26 2.26 0 0 1 1.605-.663h2.592c.142 0 .284.028.415.083a1.08 1.08 0 0 1 .667 1.005l-.002.414h-2.83-.596c-.232 0-.455.092-.619.256s-.256.387-.256.619.092.455.256.619.387.256.619.256h4.298.002.326a4 4 0 0 0 3.707-2.481 1.24 1.24 0 0 1 1.149-.77h1.193a.43.43 0 0 1 .396.601h0z"/></svg>