<svg xmlns="http://www.w3.org/2000/svg" width="48" height="48" fill="#9397ad" xmlns:v="https://vecta.io/nano"><path d="M36 36V12c0-1.654-1.346-3-3-3H15c-1.654 0-3 1.346-3 3v24c0 1.654 1.346 3 3 3h18c1.654 0 3-1.346 3-3zm-22 0V12a1 1 0 0 1 1-1h18a1 1 0 0 1 1 1v24a1 1 0 0 1-1 1H15a1 1 0 0 1-1-1zm16-23H18c-1.103 0-2 .897-2 2v2c0 1.103.897 2 2 2h12c1.103 0 2-.897 2-2v-2c0-1.103-.897-2-2-2zm-12 4v-2h12l.001 2H18zm3 6h-1v-1a1 1 0 1 0-2 0v1h-1a1 1 0 1 0 0 2h1v1a1 1 0 1 0 2 0v-1h1a1 1 0 1 0 0-2zm10 0h-4a1 1 0 1 0 0 2h4a1 1 0 1 0 0-2zm0 6.5h-4a1 1 0 1 0 0 2h4a1 1 0 1 0 0-2zm0 3h-4a1 1 0 1 0 0 2h4a1 1 0 1 0 0-2zm-9.879-2.621a1 1 0 0 0-1.414 0l-.707.707-.707-.707a1 1 0 0 0-1.414 1.414l.707.707-.707.707a1 1 0 0 0 0 1.414c.195.195.451.293.707.293s.512-.098.707-.293l.707-.707.707.707c.195.195.451.293.707.293s.512-.098.707-.293a1 1 0 0 0 0-1.414L20.414 32l.707-.707a1 1 0 0 0 0-1.414z"/></svg>