<svg xmlns="http://www.w3.org/2000/svg" width="48" height="48" fill="none" xmlns:v="https://vecta.io/nano"><g clip-path="url(#A)" fill="#9397ad"><path d="M38.419 25.948c-.566 0-1.024.458-1.024 1.024v3.906h-1.951c-.474 0-.885.325-.996.785C34.06 33.277 32.561 34 31.249 34c-.535 0-.98.411-1.021.945-.115 1.493-1.427 3.008-2.094 3.008-.358 0-.49-.394-.53-.564l-.148-.714c.399-.219.779-.486 1.123-.811.411-.388.429-1.036.041-1.448s-1.037-.428-1.448-.04c-.309.293-.707.536-1.175.727-.043.014-.085.03-.125.049-.836.315-1.881.468-3.047.431-1.287-.041-2.415-.302-3.227-.638l-.067-.028c-.482-.207-.846-.44-1.058-.667-.386-.414-1.034-.436-1.447-.051s-.436 1.034-.051 1.447c.267.287.614.551 1.022.787l-.183.796c-.062.236-.224.422-.433.497-.317.112-.752-.015-1.226-.362-.533-.387-2.799-3.216-3.322-6.932-.393-2.795.304-5.363 2.072-7.632.348-.446.268-1.09-.178-1.437s-1.09-.268-1.437.178a12.65 12.65 0 0 0-1.846 3.218c-.325.167-.662.259-.766.221-.001-.001-.057-.052-.109-.241-.153-.544-.715-.862-1.262-.71a1.02 1.02 0 0 0-.71 1.262c.287 1.027.911 1.444 1.384 1.613.252.09.508.127.758.127l.088-.002a12.27 12.27 0 0 0-.023 3.688c.578 4.11 3.024 7.486 4.143 8.301.843.616 1.598.794 2.188.794.39 0 .709-.078.934-.159a2.75 2.75 0 0 0 1.726-1.911l.126-.532c.869.239 1.838.386 2.84.418l.386.006a11 11 0 0 0 2.363-.247l.104.475c.234.986 1.035 2.138 2.522 2.138 1.812 0 3.473-2.031 3.988-4.02 1.647-.253 3.31-1.23 4.065-3.055h2.233c.566 0 1.025-.458 1.025-1.024v-4.93c0-.566-.459-1.024-1.025-1.024zM31.28 21.55l.527.722a1.03 1.03 0 0 0 .931.474c.374-.024.704-.25.862-.589.465-.996 1.236-1.41 1.959-1.504l-1.42 2.398a1.02 1.02 0 0 0 .019 1.073c.277.433.991 1.793.968 2.87a1.02 1.02 0 0 0 1.002 1.045c.008.001.015.001.023.001.555 0 1.011-.444 1.024-1.002.029-1.344-.572-2.71-.968-3.457l1.89-3.195a1.02 1.02 0 0 0 .091-.841 1.03 1.03 0 0 0-.573-.623 4.53 4.53 0 0 0-5.025 1.103c-.352-.201-.806-.18-1.143.087-.444.351-.519.995-.168 1.438zm-14.266 1.62c-.193.148-.367.309-.518.482-.371.427-.325 1.074.102 1.444a1.02 1.02 0 0 0 1.444-.103c.509-.587 2.3-1.25 4.616-1.323 2.264-.072 4.23.454 5.133 1.37.397.403 1.045.408 1.448.012s.408-1.045.011-1.448c-.157-.159-.325-.305-.501-.44 1.748-1.661 2.79-4.004 2.79-6.422 0-4.82-3.922-8.742-8.742-8.742s-8.741 3.922-8.742 8.742c0 2.376 1.104 4.724 2.958 6.428zm5.783-13.122c3.691 0 6.693 3.003 6.693 6.694 0 2.104-1.028 4.136-2.713 5.416-1.608-.526-3.309-.561-4.184-.533-1.128.036-2.413.209-3.556.564-1.796-1.331-2.934-3.421-2.934-5.446 0-3.691 3.002-6.694 6.693-6.694zm.29 11.047c2.173 0 3.69-1.06 3.69-2.579 0-2.178-2.628-2.641-3.617-2.816-1.576-.277-1.922-.63-1.922-.742 0-.144.505-.523 1.642-.523 1.062 0 1.558.523 1.632.776.159.543.727.854 1.27.697s.855-.727.697-1.27c-.299-1.025-1.252-1.811-2.471-2.114v-.487c0-.565-.459-1.024-1.024-1.024s-1.024.458-1.024 1.024v.413c-1.905.272-2.77 1.394-2.77 2.508 0 2.124 2.627 2.585 3.615 2.759 1.205.212 1.924.511 1.924.799 0 .09-.448.531-1.642.531-1.45 0-2.197-.596-2.235-.822a1.02 1.02 0 0 0-1.183-.835c-.557.096-.931.625-.835 1.182.256 1.485 2.005 2.523 4.254 2.523zm7.5 3.976a1.42 1.42 0 0 0-.404.982c0 .367.15.721.404.982a1.42 1.42 0 0 0 .982.404 1.42 1.42 0 0 0 .982-.404c.26-.261.404-.616.404-.982a1.38 1.38 0 0 0-.404-.982c-.516-.516-1.448-.516-1.964 0z"/></g><defs><clipPath id="A"><path fill="#fff" transform="translate(8 8)" d="M0 0h32v32H0z"/></clipPath></defs></svg>