<svg xmlns="http://www.w3.org/2000/svg" width="48" height="48" fill="#b4b7c9" xmlns:v="https://vecta.io/nano"><path d="M9 37h30v2H9v-2zm3-3a2.99 2.99 0 0 0 2.189-5.037l5.119-8.052c.663.17 1.365.095 1.977-.212l4.015 4.016A2.95 2.95 0 0 0 25 26a3 3 0 1 0 6 0 2.97 2.97 0 0 0-.7-1.908l5.2-9.142c.703.123 1.427-.008 2.044-.368s1.085-.927 1.324-1.599a3.02 3.02 0 0 0-.02-2.076c-.252-.668-.731-1.226-1.354-1.574s-1.349-.465-2.05-.329-1.331.515-1.779 1.071-.685 1.252-.669 1.966.285 1.398.757 1.933l-5.176 9.085a3.03 3.03 0 0 0-.578-.059 2.95 2.95 0 0 0-1.285.3L22.7 19.285A2.95 2.95 0 0 0 23 18a3 3 0 1 0-6 0 2.97 2.97 0 0 0 .632 1.82l-5.227 8.221c-.134-.023-.269-.037-.405-.041a3 3 0 1 0 0 6zm16-7a1 1 0 0 1-.707-1.707A1 1 0 0 1 29 26a1 1 0 0 1-1 1zm8-16a1 1 0 0 1 .707 1.707A1 1 0 0 1 35 12a1 1 0 0 1 1-1zm-16 6a1 1 0 0 1 .707 1.707A1 1 0 0 1 19 18a1 1 0 0 1 1-1zm-8 13a1 1 0 0 1 .707 1.707A1 1 0 0 1 11 31a1 1 0 0 1 1-1z"/></svg>