<svg xmlns="http://www.w3.org/2000/svg" width="40" height="40" fill="#fff" xmlns:v="https://vecta.io/nano"><path d="M36.484 1.25H3.516A3.52 3.52 0 0 0 0 4.766v23.437a3.52 3.52 0 0 0 3.516 3.516h10.171l-1.562 4.687H8.281a1.172 1.172 0 1 0 0 2.344h23.438a1.172 1.172 0 1 0 0-2.344h-3.843l-1.562-4.687h10.171A3.52 3.52 0 0 0 40 28.203V4.766a3.52 3.52 0 0 0-3.516-3.516zm-21.89 35.156l1.563-4.687h7.686l1.563 4.687H14.595zm23.062-8.203c0 .646-.526 1.172-1.172 1.172H3.516c-.646 0-1.172-.526-1.172-1.172v-1.172h35.312v1.172zM12.78 17.952l-1.066-1.066 1.657-1.657 1.066 1.066a1.17 1.17 0 0 0 1.424.181c.659-.388 1.362-.681 2.089-.869a1.17 1.17 0 0 0 .878-1.134V12.97h2.344v1.503a1.17 1.17 0 0 0 .878 1.134 8.13 8.13 0 0 1 2.089.87 1.17 1.17 0 0 0 1.424-.181l1.066-1.066 1.657 1.657-1.066 1.066a1.17 1.17 0 0 0-.181 1.424 8.09 8.09 0 0 1 .869 2.09 1.17 1.17 0 0 0 1.134.878h1.503v2.344h-4.806a5.88 5.88 0 0 0 .118-1.172A5.87 5.87 0 0 0 20 17.656a5.87 5.87 0 0 0-5.859 5.859 5.88 5.88 0 0 0 .118 1.172H9.453v-2.344h1.503a1.17 1.17 0 0 0 1.135-.878c.188-.728.481-1.431.869-2.09a1.17 1.17 0 0 0-.181-1.424zm10.736 5.563a3.53 3.53 0 0 1-.201 1.172h-6.628a3.53 3.53 0 0 1-.201-1.172A3.52 3.52 0 0 1 20 20a3.52 3.52 0 0 1 3.516 3.516zm14.141 1.172h-4.766v-3.516A1.17 1.17 0 0 0 31.719 20h-1.81a10.5 10.5 0 0 0-.418-1.003l1.282-1.282a1.17 1.17 0 0 0 0-1.657l-3.314-3.315a1.17 1.17 0 0 0-1.657 0l-1.282 1.282c-.328-.157-.663-.296-1.003-.418v-1.811a1.17 1.17 0 0 0-1.172-1.172h-4.688a1.17 1.17 0 0 0-1.172 1.172v1.811a10.3 10.3 0 0 0-1.003.418L14.2 12.743a1.17 1.17 0 0 0-1.657 0l-3.314 3.315a1.17 1.17 0 0 0 0 1.657l1.281 1.282A10.46 10.46 0 0 0 10.092 20H8.281a1.17 1.17 0 0 0-1.172 1.172v3.516H2.344V4.766c0-.646.526-1.172 1.172-1.172h32.969c.646 0 1.172.526 1.172 1.172v19.922zM31.719 5.938a3.52 3.52 0 0 0-3.516 3.516 3.52 3.52 0 0 0 3.516 3.516 3.52 3.52 0 0 0 3.516-3.516 3.52 3.52 0 0 0-3.516-3.516zm0 4.688c-.646 0-1.172-.526-1.172-1.172s.526-1.172 1.172-1.172 1.172.526 1.172 1.172-.526 1.172-1.172 1.172z"/></svg>