<svg xmlns="http://www.w3.org/2000/svg" width="48" height="48" fill="#b4b7c9" xmlns:v="https://vecta.io/nano"><path d="M38.291 32.246v-3.015a.94.94 0 0 0-.937-.937h-4.802v-4.995h4.802a.94.94 0 0 0 .938-.937v-3.015a2.69 2.69 0 0 0-.977-5.187 2.69 2.69 0 0 0-.898 5.217v2.047h-3.864v-.734a2.54 2.54 0 0 0-2.536-2.536h-1.068v-2.638c0-2.728-2.22-4.948-4.948-4.948s-4.948 2.22-4.948 4.948v2.638h-1.068a2.54 2.54 0 0 0-2.536 2.536v.734h-3.864v-2.047a2.69 2.69 0 0 0-.898-5.217 2.69 2.69 0 0 0-.977 5.187v3.015a.94.94 0 0 0 .937.938h4.802v4.995h-4.802a.94.94 0 0 0-.937.938v3.015a2.69 2.69 0 0 0 .977 5.187 2.69 2.69 0 0 0 .898-5.217v-2.047h3.864v.733a2.54 2.54 0 0 0 2.536 2.536h12.031a2.54 2.54 0 0 0 2.536-2.536v-.733h3.864v2.047a2.69 2.69 0 0 0 .898 5.217 2.69 2.69 0 0 0 .977-5.187zm-.977-16.211a.811.811 0 0 1 0 1.622.811.811 0 1 1 0-1.622zm-26.628 0a.811.811 0 1 1 0 1.622.811.811 0 0 1 0-1.622zm0 19.523a.811.811 0 1 1 0-1.622.811.811 0 1 1 0 1.622zm10.241-20.042A3.08 3.08 0 0 1 24 12.443c1.694 0 3.073 1.378 3.073 3.073v2.638h-6.146v-2.638zm9.75 15.387a.66.66 0 0 1-.661.661H17.984a.66.66 0 0 1-.661-.661V20.69a.66.66 0 0 1 .661-.661h12.031a.66.66 0 0 1 .661.661v10.212zm6.637 4.656a.811.811 0 1 1 0-1.622.811.811 0 1 1 0 1.622zM24 22.947a1.7 1.7 0 0 0-1.698 1.698c0 .59.303 1.111.761 1.415v1.627a.94.94 0 0 0 .938.938.94.94 0 0 0 .938-.937v-1.627A1.7 1.7 0 0 0 24 22.947z"/></svg>