<svg xmlns="http://www.w3.org/2000/svg" width="48" height="48" fill="none" xmlns:v="https://vecta.io/nano"><path d="M35.882 24.711c-1.362 0-2.518.894-2.915 2.125h-6.974v-5.672h6.974c.397 1.231 1.553 2.125 2.915 2.125 1.689 0 3.063-1.374 3.063-3.063s-1.374-3.063-3.063-3.063c-1.362 0-2.518.894-2.915 2.125h-6.974v-5.813h2.493c.397 1.231 1.553 2.125 2.915 2.125 1.689 0 3.063-1.374 3.063-3.063s-1.374-3.063-3.063-3.063c-1.362 0-2.518.894-2.915 2.125h-2.493V8.938A.94.94 0 0 0 25.055 8h-1.989a1.84 1.84 0 0 0-1.837 1.807c-1.225.329-2.404.818-3.505 1.453a1.84 1.84 0 0 0-2.577.02l-2.813 2.813c-.347.347-.538.808-.538 1.299 0 .481.184.934.518 1.278a14.62 14.62 0 0 0-1.453 3.505 1.84 1.84 0 0 0-1.807 1.837v3.978a1.84 1.84 0 0 0 1.807 1.837 14.62 14.62 0 0 0 1.453 3.505c-.334.345-.518.797-.518 1.278 0 .491.191.952.538 1.299l2.813 2.813a1.84 1.84 0 0 0 2.577.02c1.101.635 2.28 1.123 3.505 1.453A1.84 1.84 0 0 0 23.066 40h1.989a.94.94 0 0 0 .938-.937v-2.663h2.493c.397 1.231 1.554 2.125 2.915 2.125 1.689 0 3.063-1.374 3.063-3.063s-1.374-3.063-3.063-3.063c-1.362 0-2.518.894-2.915 2.125h-2.493v-5.813h6.974c.397 1.232 1.553 2.125 2.915 2.125 1.689 0 3.063-1.374 3.063-3.063s-1.374-3.062-3.063-3.062zm0 4.25a1.19 1.19 0 0 1-1.188-1.188 1.19 1.19 0 0 1 1.188-1.188 1.19 1.19 0 0 1 1.188 1.188 1.19 1.19 0 0 1-1.188 1.188zM13.954 30.42c-.565-.975-.998-2.02-1.288-3.107a1.84 1.84 0 0 0-1.736-1.362v-3.902a1.84 1.84 0 0 0 1.736-1.362 12.75 12.75 0 0 1 1.288-3.107c.409-.706.298-1.6-.267-2.188l2.759-2.759c.588.565 1.482.675 2.188.267.975-.565 2.02-.998 3.107-1.288a1.84 1.84 0 0 0 1.362-1.736h1.014v5.329A8.86 8.86 0 0 0 16.21 24a8.86 8.86 0 0 0 7.908 8.796v5.329h-1.014a1.84 1.84 0 0 0-1.362-1.736c-1.087-.29-2.132-.723-3.107-1.288-.705-.409-1.599-.298-2.188.267l-2.759-2.76c.565-.588.675-1.482.267-2.188zm10.164.487c-3.402-.459-6.033-3.381-6.033-6.907s2.631-6.448 6.033-6.907v13.814zm12.952-10.681a1.19 1.19 0 0 1-1.188 1.188 1.19 1.19 0 0 1-1.188-1.188 1.19 1.19 0 0 1 1.188-1.188 1.19 1.19 0 0 1 1.188 1.188zm-4.481-7.688a1.19 1.19 0 0 1-1.188 1.188 1.19 1.19 0 0 1-1.188-1.188 1.19 1.19 0 0 1 1.188-1.188 1.19 1.19 0 0 1 1.188 1.188zm0 22.924a1.19 1.19 0 0 1-1.188 1.188 1.19 1.19 0 0 1-1.188-1.188 1.19 1.19 0 0 1 1.188-1.188 1.19 1.19 0 0 1 1.188 1.188z" fill="#b4b7c9"/></svg>