<svg xmlns="http://www.w3.org/2000/svg" width="48" height="48" fill="none" xmlns:v="https://vecta.io/nano"><path d="M34 16h-4v-1c0-1.654-1.346-3-3-3h-6c-1.654 0-3 1.346-3 3v1h-4c-1.654 0-3 1.346-3 3v4c0 .883.391 1.67 1 2.22V31a5.01 5.01 0 0 0 5 5h14a5.01 5.01 0 0 0 5-5v-5.78c.609-.549 1-1.337 1-2.22v-4c0-1.654-1.346-3-3-3zm-14-1a1 1 0 0 1 1-1h6a1 1 0 0 1 1 1v1h-8v-1zm-7 4a1 1 0 0 1 1-1h20a1 1 0 0 1 1 1v4a1 1 0 0 1-1 1h-7v-1a1 1 0 0 0-1-1h-4a1 1 0 0 0-1 1v1h-7a1 1 0 0 1-1-1v-4zm12 5v2h-2v-2h2zm9 7c0 1.654-1.346 3-3 3H17c-1.654 0-3-1.346-3-3v-5h7v1a1 1 0 0 0 1 1h4a1 1 0 0 0 1-1v-1h7v5z" fill="#9397ad"/></svg>