<svg xmlns="http://www.w3.org/2000/svg" width="48" height="48" fill="none" xmlns:v="https://vecta.io/nano"><g clip-path="url(#A)" fill="#9397ad"><path d="M37.593 16.682l-.001-.025-.029-.994c-.026-1.764-1.429-3.224-3.193-3.322-3.679-.205-6.525-1.405-8.957-3.775l-.021-.02a2.05 2.05 0 0 0-2.783 0l-.021.02c-2.432 2.37-5.278 3.57-8.957 3.776-1.764.098-3.167 1.558-3.193 3.323l-.029.994-.001.058c-.072 3.752-.16 8.421 1.402 12.659.859 2.33 2.16 4.356 3.866 6.022 1.943 1.896 4.489 3.402 7.565 4.475.1.035.204.063.31.084A2.3 2.3 0 0 0 24 40a2.28 2.28 0 0 0 .45-.045 2.33 2.33 0 0 0 .311-.085c3.073-1.075 5.616-2.581 7.557-4.477 1.706-1.666 3.006-3.692 3.866-6.023 1.568-4.251 1.479-8.929 1.408-12.687zm-3.17 12.038c-1.648 4.467-5.01 7.534-10.281 9.378a.5.5 0 0 1-.059.016c-.055.011-.11.011-.165 0a.46.46 0 0 1-.059-.016c-5.276-1.84-8.641-4.906-10.288-9.373-1.44-3.907-1.358-8.193-1.286-11.974l.001-.021c.015-.325.024-.665.03-1.039a1.51 1.51 0 0 1 1.421-1.475c2.082-.116 3.911-.518 5.592-1.23s3.169-1.712 4.557-3.061c.07-.06.162-.06.232 0 1.388 1.35 2.879 2.351 4.557 3.061s3.51 1.114 5.592 1.23c.785.044 1.409.692 1.42 1.476l.03 1.039c.072 3.786.151 8.075-1.292 11.99zM24 16.025c-4.398 0-7.975 3.578-7.975 7.975s3.577 7.975 7.975 7.975 7.975-3.578 7.975-7.975-3.578-7.975-7.975-7.975zm0 14.072c-3.362 0-6.097-2.735-6.097-6.097s2.735-6.097 6.097-6.097 6.097 2.735 6.097 6.097-2.735 6.097-6.097 6.097zm2.292-8.572l-3.704 3.704-1.005-1.005a.94.94 0 0 0-1.328 0 .94.94 0 0 0 0 1.328l1.669 1.669c.183.183.424.275.664.275s.481-.092.664-.275l4.368-4.368a.94.94 0 0 0 0-1.328.94.94 0 0 0-1.328 0z"/></g><defs><clipPath id="A"><path fill="#fff" transform="translate(8 8)" d="M0 0h32v32H0z"/></clipPath></defs></svg>