<svg xmlns="http://www.w3.org/2000/svg" width="48" height="48" fill="none" xmlns:v="https://vecta.io/nano"><g clip-path="url(#A)"><path d="M39.985 35.907c-.088-1.001-.561-1.907-1.331-2.551l-8.085-6.791c1.145-1.856 1.806-4.041 1.806-6.378a12.17 12.17 0 0 0-.372-2.99l1.972-1.972c.367.176.778.275 1.212.275 1.551 0 2.813-1.262 2.813-2.812s-1.262-2.812-2.812-2.812-2.812 1.262-2.812 2.813c0 .434.099.845.275 1.212l-1.33 1.33C29.417 10.973 25.143 8 20.188 8 13.467 8 8 13.467 8 20.188s5.467 12.188 12.188 12.188c2.336 0 4.521-.661 6.378-1.806l6.794 8.089c.144.169.304.33.464.463a3.73 3.73 0 0 0 2.408.878 3.83 3.83 0 0 0 .338-.015c1.001-.088 1.907-.561 2.552-1.331s.952-1.746.863-2.746zM35.188 11.75a.94.94 0 0 1 .938.938.94.94 0 0 1-.937.938.94.94 0 0 1-.937-.937.94.94 0 0 1 .938-.937zm-15 18.763A10.34 10.34 0 0 1 9.863 20.2 10.36 10.36 0 0 1 20.188 9.863c4.451 0 8.252 2.847 9.694 6.805l-2.857 2.857c-.367-.176-.778-.275-1.212-.275s-.845.099-1.212.275l-1.875-1.876c.176-.367.275-.778.275-1.212 0-1.551-1.262-2.812-2.813-2.812s-2.813 1.262-2.813 2.813c0 .434.099.845.275 1.212l-1.875 1.876c-.367-.176-.778-.275-1.212-.275-1.551 0-2.813 1.262-2.813 2.813s1.262 2.813 2.813 2.813 2.813-1.262 2.813-2.812c0-.434-.099-.845-.275-1.212l1.875-1.876c.367.176.778.275 1.212.275s.845-.099 1.212-.275l1.875 1.876c-.176.367-.275.778-.275 1.212 0 1.551 1.262 2.813 2.813 2.813s2.813-1.262 2.813-2.812c0-.434-.099-.845-.275-1.212l2.055-2.056c.062.456.094.92.094 1.392 0 5.686-4.626 10.325-10.313 10.325zm6.563-8.45a.94.94 0 0 1-.937.938.94.94 0 0 1-.937-.937.94.94 0 0 1 .938-.937.94.94 0 0 1 .938.938zm-5.625-5.625a.94.94 0 0 1-.937.938.94.94 0 0 1-.937-.937.94.94 0 0 1 .938-.937.94.94 0 0 1 .938.938zM15.5 22.063a.94.94 0 0 1-.937.938.94.94 0 0 1-.937-.937.94.94 0 0 1 .938-.937.94.94 0 0 1 .938.938zm13.789 8.834l-1.205-1.434a12.3 12.3 0 0 0 1.378-1.378l1.434 1.204c-.492.578-1.029 1.116-1.608 1.608zm8.395 6.553c-.323.386-.778.623-1.28.668s-.991-.109-1.377-.433a2.08 2.08 0 0 1-.236-.236l-4.296-5.115c.661-.562 1.276-1.176 1.838-1.838l5.116 4.297c.386.323.623.778.668 1.28s-.109.991-.433 1.377z" fill="#b4b7c9"/></g><defs><clipPath id="A"><path fill="#fff" transform="translate(8 8)" d="M0 0h32v32H0z"/></clipPath></defs></svg>