<svg xmlns="http://www.w3.org/2000/svg" xmlns:xlink="http://www.w3.org/1999/xlink" width="40" height="40" fill="none" xmlns:v="https://vecta.io/nano"><g fill="#fff"><path d="M29.375 40a3.52 3.52 0 0 0 3.516-3.516V3.516A3.52 3.52 0 0 0 29.375 0h-18.75a3.52 3.52 0 0 0-3.516 3.516v32.969A3.52 3.52 0 0 0 10.625 40h18.75zM9.453 3.516c0-.646.526-1.172 1.172-1.172h18.75c.646 0 1.172.526 1.172 1.172v1.172H9.453V3.516zm0 3.516h21.094V32.97H9.453V7.031zm0 29.453v-1.172h21.094v1.172c0 .646-.526 1.172-1.172 1.172h-18.75c-.646 0-1.172-.526-1.172-1.172zM20 9.453c-4.523 0-8.203 3.68-8.203 8.203 0 4.516 3.673 8.203 8.203 8.203s8.203-3.689 8.203-8.203c0-4.523-3.68-8.203-8.203-8.203zm0 14.062a5.82 5.82 0 0 1-2.922-.784c.643-.958 1.732-1.56 2.922-1.56s2.279.602 2.922 1.56a5.82 5.82 0 0 1-2.922.784zm-1.172-5.859c0-.646.526-1.172 1.172-1.172s1.172.526 1.172 1.172-.526 1.172-1.172 1.172-1.172-.526-1.172-1.172zm5.858 3.514a5.89 5.89 0 0 0-1.765-1.559 3.49 3.49 0 0 0 .595-1.955A3.52 3.52 0 0 0 20 14.141a3.52 3.52 0 0 0-3.516 3.516c0 .723.219 1.395.595 1.955a5.89 5.89 0 0 0-1.765 1.559c-.737-.98-1.174-2.197-1.174-3.514a5.87 5.87 0 0 1 5.86-5.86 5.87 5.87 0 0 1 5.859 5.859c0 1.317-.437 2.534-1.174 3.514z"/><use xlink:href="#B"/><use xlink:href="#B" x="4.687"/><use xlink:href="#B" x="-4.688"/></g><defs ><path id="B" d="M21.172 29.375a1.17 1.17 0 1 1-2.344 0 1.17 1.17 0 1 1 2.344 0z"/></defs></svg>