<svg xmlns="http://www.w3.org/2000/svg" width="48" height="48" fill="none" xmlns:v="https://vecta.io/nano"><g clip-path="url(#A)"><path d="M24 14.825A9.19 9.19 0 0 0 14.825 24 9.19 9.19 0 0 0 24 33.175 9.19 9.19 0 0 0 33.175 24 9.19 9.19 0 0 0 24 14.825zm0 16.349c-3.956 0-7.175-3.219-7.175-7.175s3.219-7.175 7.175-7.175 7.175 3.219 7.175 7.175-3.219 7.175-7.175 7.175zm15-10.79h-2.159c-.285-1.014-.688-1.987-1.206-2.907l1.528-1.528a1 1 0 0 0 0-1.414l-3.698-3.698a1 1 0 0 0-1.414 0l-1.528 1.528a13.21 13.21 0 0 0-2.907-1.205V9a1 1 0 0 0-1-1h-5.23a1 1 0 0 0-1 1v2.16a13.21 13.21 0 0 0-2.907 1.205l-1.528-1.528a1 1 0 0 0-1.414 0l-3.698 3.698a1 1 0 0 0 0 1.414l1.528 1.528a13.2 13.2 0 0 0-1.206 2.908H9a1 1 0 0 0-1 1v5.23a1 1 0 0 0 1 1h2.159c.285 1.014.688 1.987 1.206 2.907l-1.528 1.528a1 1 0 0 0 0 1.414l3.698 3.698a1 1 0 0 0 1.414 0l1.528-1.528c.92.517 1.893.921 2.907 1.205V39a1 1 0 0 0 1 1h5.23a1 1 0 0 0 1-1v-2.16a13.2 13.2 0 0 0 2.907-1.205l1.528 1.528a1 1 0 0 0 1.414 0l3.698-3.698a1 1 0 0 0 0-1.414l-1.528-1.528c.517-.92.921-1.893 1.206-2.907H39a1 1 0 0 0 1-1v-5.23a1 1 0 0 0-1-1zm-1 5.23h-1.941a1 1 0 0 0-.977.789c-.287 1.329-.807 2.584-1.547 3.731a1 1 0 0 0 .133 1.249l1.374 1.374-2.284 2.284-1.374-1.374a1 1 0 0 0-1.249-.133c-1.146.739-2.402 1.26-3.731 1.546a1 1 0 0 0-.789.977V38h-3.23v-1.941a1 1 0 0 0-.789-.977c-1.329-.287-2.584-.807-3.731-1.547a1 1 0 0 0-1.249.133l-1.374 1.374-2.284-2.284 1.374-1.374a1 1 0 0 0 .133-1.249c-.739-1.146-1.26-2.402-1.547-3.731a1 1 0 0 0-.977-.789H10v-3.23h1.941a1 1 0 0 0 .977-.789c.287-1.329.807-2.584 1.547-3.731a1 1 0 0 0-.133-1.249l-1.374-1.374 2.284-2.284 1.374 1.374a1 1 0 0 0 1.249.133 11.24 11.24 0 0 1 3.731-1.546 1 1 0 0 0 .789-.978V10h3.23v1.941a1 1 0 0 0 .789.978c1.329.287 2.584.807 3.731 1.546a1 1 0 0 0 1.249-.133l1.374-1.374 2.284 2.284-1.374 1.374a1 1 0 0 0-.133 1.249c.739 1.146 1.26 2.402 1.547 3.731a1 1 0 0 0 .977.789H38v3.23zm-10.969.232c0 1.22-.84 2.261-2.012 2.65l.005.191a1 1 0 0 1-.976 1.024h-.025a1 1 0 0 1-.999-.976l-.005-.219c-.599-.191-1.021-.547-1.405-.909a1 1 0 0 1 1.372-1.455c.447.422.618.507 1.013.507.559 0 1.031-.373 1.031-.814s-.472-.814-1.031-.814c-1.671 0-3.031-1.262-3.031-2.814 0-1.22.841-2.262 2.013-2.651l-.006-.258a1 1 0 0 1 .976-1.024c.008 0 .016 0 .024 0a1 1 0 0 1 .999.976l.008.322c.634.205 1.308.583 1.654 1.109a1 1 0 1 1-1.665 1.108c-.142-.161-.719-.397-.973-.397-.559 0-1.031.373-1.031.814s.472.814 1.031.814c1.671 0 3.031 1.262 3.031 2.814z" fill="#9397ad"/></g><defs><clipPath id="A"><path fill="#fff" transform="translate(8 8)" d="M0 0h32v32H0z"/></clipPath></defs></svg>