<svg xmlns="http://www.w3.org/2000/svg" width="48" height="48" fill="#9397ad" xmlns:v="https://vecta.io/nano"><path d="M39.947 26.133l-2.429-13.776a3.45 3.45 0 0 0-3.993-2.796l-20.833 3.674a3.45 3.45 0 0 0-2.796 3.993l.179 1.012A3.45 3.45 0 0 0 8 21.4v13.644a3.45 3.45 0 0 0 3.447 3.447h20.681a3.45 3.45 0 0 0 3.447-3.447v-4.641l1.576-.278a3.42 3.42 0 0 0 2.225-1.418c.528-.755.731-1.669.571-2.575zm-2.111 1.497a1.55 1.55 0 0 1-1.011.644l-1.249.22v-1.072-4.265V21.4a3.45 3.45 0 0 0-3.447-3.447H11.932l-.186-1.053c-.073-.412.019-.828.259-1.171a1.55 1.55 0 0 1 1.011-.644l20.834-3.673a1.59 1.59 0 0 1 .273-.024 1.57 1.57 0 0 1 1.542 1.295l2.429 13.776c.073.412-.02.828-.26 1.171zm-5.708 8.982H11.447a1.57 1.57 0 0 1-1.567-1.567v-6.682h23.815v6.682a1.57 1.57 0 0 1-1.567 1.567zM11.447 19.833h20.681a1.57 1.57 0 0 1 1.567 1.567v.818H9.88V21.4a1.57 1.57 0 0 1 1.567-1.567zm22.248 4.265v2.385H9.88v-2.385h23.815zm-16.648 8.738h-4.265a.94.94 0 1 0 0 1.88h4.265a.94.94 0 1 0 0-1.88z"/></svg>