<svg xmlns="http://www.w3.org/2000/svg" width="40" height="40" fill="none" xmlns:v="https://vecta.io/nano"><g clip-path="url(#A)" fill="#fff"><path d="M29.699 18.609a5.87 5.87 0 0 0 0-8.286c-2.29-2.29-5.996-2.29-8.286 0a5.87 5.87 0 0 0 0 8.286c2.29 2.29 5.996 2.29 8.286 0zM23.07 11.98c1.374-1.374 3.598-1.374 4.972 0a3.52 3.52 0 0 1 0 4.972c-1.374 1.374-3.598 1.374-4.972 0a3.52 3.52 0 0 1 0-4.972zM.054 38.476a1.17 1.17 0 0 0 1.467 1.471c1.017-.318 10.012-3.172 12.434-5.594.649-.649 1.177-1.382 1.567-2.167a1.15 1.15 0 0 0 .602-.124l2.839-1.427.43 5.754c.002.875.925 1.433 1.699 1.044.292-.194 3.324-1.302 5.461-4.766 1.186-1.923 1.805-4.134 1.805-6.394v-.805c1.764-1.141 3.406-2.36 4.752-3.66 5.823-5.621 7.137-12.54 6.856-20.64-.021-.615-.515-1.109-1.131-1.131-8.098-.281-15.018 1.033-20.64 6.856-1.274 1.32-2.471 2.868-3.593 4.593h-.975c-4.561 0-8.803 2.607-10.879 6.762l-.281.56a1.17 1.17 0 0 0 1.044 1.699c.665.002-.361-.045 5.868.512l-1.437 2.86a1.17 1.17 0 0 0-.124.633c-.777.389-1.504.913-2.147 1.557C3.247 28.487.373 37.461.054 38.476zm15.765-8.889l-5.406-5.406 1.106-2.208 6.508 6.509-2.208 1.106zm5.798 4.883l-.395-4.977A102.77 102.77 0 0 0 26 26.911c-.197 3.096-1.816 5.873-4.383 7.559zM37.65 2.35c.039 2.56-.109 4.825-.466 6.863a7.51 7.51 0 0 1-6.397-6.397c2.037-.357 4.303-.505 6.862-.466zM19.88 8.519c2.455-2.543 5.194-4.229 8.616-5.187a9.84 9.84 0 0 0 2.771 5.401 9.84 9.84 0 0 0 5.401 2.771c-.959 3.422-2.644 6.161-5.187 8.616-2.837 2.74-7.2 5.175-11.251 7.249l-7.598-7.599c2.074-4.051 4.509-8.413 7.249-11.251zM5.415 18.297c1.715-2.623 4.567-4.26 7.738-4.409-.939 1.61-1.819 3.271-2.641 4.879l-5.096-.47zm3.905 8.106l1.32 1.32-2.486 2.486a1.172 1.172 0 1 0 1.657 1.657l2.486-2.486 1.32 1.32c-.281.723-.729 1.404-1.32 1.994-1.343 1.343-6.052 3.17-9.274 4.286 1.122-3.215 2.957-7.913 4.302-9.257a5.81 5.81 0 0 1 1.994-1.32zm10.415-6.138a1.172 1.172 0 1 0-1.657 1.657 1.172 1.172 0 1 0 1.657-1.657z"/></g><defs><clipPath id="A"><path fill="#fff" d="M0 0h40v40H0z"/></clipPath></defs></svg>