<svg xmlns="http://www.w3.org/2000/svg" width="40" height="40" fill="#fff" xmlns:v="https://vecta.io/nano"><path d="M20 9.531A12.91 12.91 0 0 0 7.109 22.422 12.91 12.91 0 0 0 20 35.313c7.127 0 12.891-5.799 12.891-12.891A12.91 12.91 0 0 0 20 9.531zm9.375 14.062h1.106a10.5 10.5 0 0 1-2.245 5.408l-.779-.779c-.458-.457-1.2-.457-1.657 0a1.17 1.17 0 0 0 0 1.657l.779.779c-1.517 1.215-3.376 2.019-5.407 2.245v-1.106a1.172 1.172 0 1 0-2.344 0v1.106c-2.031-.226-3.89-1.03-5.407-2.245l.779-.779a1.17 1.17 0 0 0 0-1.657c-.457-.457-1.2-.457-1.657 0l-.779.779a10.5 10.5 0 0 1-2.245-5.408h1.106a1.172 1.172 0 1 0 0-2.344H9.519c.226-2.031 1.03-3.89 2.245-5.407l.779.779a1.172 1.172 0 1 0 1.657-1.657l-.779-.779c1.517-1.215 3.376-2.019 5.407-2.245v1.106a1.172 1.172 0 1 0 2.344 0V11.94c2.031.226 3.89 1.03 5.407 2.245l-.779.779a1.17 1.17 0 0 0 0 1.657c.457.457 1.2.457 1.657 0l.779-.779a10.5 10.5 0 0 1 2.245 5.408h-1.106a1.172 1.172 0 1 0 0 2.343zm-8.203-1.657v-4.202a1.172 1.172 0 1 0-2.344 0v4.688a1.17 1.17 0 0 0 .343.828l2.344 2.344a1.172 1.172 0 1 0 1.657-1.657l-2-2.001zM34.891 9.188a1.172 1.172 0 1 0-1.657-1.657l-1.661 1.66c-2.315-2.031-5.079-3.396-8.058-3.997V1.172A1.17 1.17 0 0 0 22.344 0h-4.688a1.17 1.17 0 0 0-1.172 1.172v4.022a17.41 17.41 0 0 0-7.968 3.918L6.724 7.49a1.172 1.172 0 1 0-1.572 1.738l1.695 1.533c-2.86 3.218-4.425 7.318-4.425 11.66a17.578 17.578 0 1 0 35.156 0c0-4.302-1.536-8.368-4.348-11.573l1.661-1.661zM18.828 2.344h2.344v2.539A18.25 18.25 0 0 0 20 4.844a18.25 18.25 0 0 0-1.172.039V2.344zm16.406 20.078c0 8.4-6.834 15.234-15.234 15.234S4.766 30.822 4.766 22.422 11.6 7.188 20 7.188s15.234 6.834 15.234 15.234z"/></svg>