<svg xmlns="http://www.w3.org/2000/svg" width="40" height="40" fill="none" xmlns:v="https://vecta.io/nano"><g clip-path="url(#A)" fill="#fff"><path d="M35.653 4.378a15.31 15.31 0 0 0-21.592 0C8.965 9.464 8.232 17.279 11.86 23.151L1.069 33.921c-1.374 1.371-1.374 3.602 0 4.973s3.609 1.371 4.983 0l4.983-4.973 5.809-5.797c5.9 3.631 13.726 2.877 18.809-2.196 5.953-5.941 5.953-15.608 0-21.549zM4.391 37.236a1.18 1.18 0 0 1-1.661 0 1.17 1.17 0 0 1 0-1.658l.83-.829 1.661 1.658-.83.829zm2.491-2.487l-1.661-1.658 1.661-1.657 1.661 1.657-1.661 1.658zm3.322-3.315l-1.661-1.658 4.719-4.71c.254.294.52.582.799.86s.567.545.862.797l-4.719 4.71zm23.788-7.165c-5.037 5.027-13.233 5.027-18.27 0s-5.037-13.207 0-18.234 13.233-5.027 18.27 0 5.037 13.207 0 18.234zM32.331 7.693a10.59 10.59 0 0 0-14.948 0c-4.125 4.117-4.125 10.801 0 14.919a10.59 10.59 0 0 0 14.948 0 10.54 10.54 0 0 0 0-14.919zM30.67 20.955c-3.205 3.199-8.421 3.199-11.626 0s-3.205-8.405 0-11.603 8.421-3.199 11.626 0 3.205 8.404 0 11.603zm-.816-8.968c-.58-.289-1.285-.055-1.576.524l-1.298 2.592-1.298-2.592c-.199-.397-.606-.648-1.051-.648s-.851.251-1.05.648l-1.298 2.592-1.299-2.592c-.29-.579-.996-.814-1.576-.524a1.17 1.17 0 0 0-.525 1.573l2.349 4.688c.199.397.606.648 1.051.648s.851-.251 1.05-.648l1.299-2.592 1.298 2.592c.199.397.605.648 1.05.648s.852-.251 1.051-.648l2.349-4.688a1.17 1.17 0 0 0-.525-1.573z"/></g><defs><clipPath id="A"><path fill="#fff" d="M0 0h40v40H0z"/></clipPath></defs></svg>