<svg xmlns="http://www.w3.org/2000/svg" width="416" height="478" fill="none" xmlns:v="https://vecta.io/nano"><rect opacity=".04" x="131" y="341" width="118" height="137" rx="12" fill="#fff"/><g fill-rule="evenodd"><path d="M231.807 444.607c-3.385-4.885-8.372-8.436-14.1-10.04l-13.304-3.726-.004-9.542c5.621-4.214 9.31-10.846 9.534-18.351a6.37 6.37 0 0 0 2.568.543c3.52.002 6.373-2.845 6.371-6.359s-2.857-6.363-6.377-6.365c-.908 0-1.769.191-2.55.532v-1.806c-.007-13.176-10.714-23.862-23.914-23.868s-23.898 10.669-23.891 23.845l.001 1.805a6.38 6.38 0 0 0-2.55-.534c-3.521-.001-6.373 2.845-6.371 6.359s2.857 6.363 6.377 6.365c.914.001 1.782-.195 2.568-.54.23 7.505 3.926 14.141 9.551 18.36l.005 9.542-13.3 3.713c-5.726 1.598-10.71 5.145-14.09 10.027l-2.468 5.501c-2.554 5.691-3.873 11.86-3.87 18.1l97.142-1.247a35.76 35.76 0 0 0-4.695-17.694l-2.633-4.62z" fill="#f5cdd3"/><path d="M190.059 426.063c-2.947-.002-5.768-.539-8.376-1.514a23.82 23.82 0 0 0 12.839 3.743 23.85 23.85 0 0 0 9.879-2.13l-.003-4.863c-3.993 2.993-8.957 4.766-14.339 4.764z" fill="#f48c9d"/><path d="M162.104 393.585c.458-.193.961-.3 1.489-.299 2.112.001 3.825 1.711 3.826 3.819 0 .35-.047.69-.136 1.012-.046.169-.222.269-.392.222a.32.32 0 0 1-.223-.391c.074-.268.114-.551.113-.844 0-1.756-1.428-3.181-3.188-3.182-.441 0-.86.089-1.241.249-.162.068-.349-.007-.417-.169s.007-.349.169-.417zm54.393.363a3.18 3.18 0 0 0-3.186 3.179c0 .293.04.576.114.844.046.17-.053.345-.223.391a.32.32 0 0 1-.392-.223c-.089-.322-.136-.662-.136-1.012-.001-2.108 1.71-3.816 3.822-3.815.528 0 1.031.107 1.489.3a.32.32 0 0 1 .17.417c-.068.162-.255.238-.418.169a3.18 3.18 0 0 0-1.24-.25z" fill="#1f1b2d"/><path d="M196.429 411.432c.001 3.513-2.851 6.36-6.371 6.358s-6.376-2.851-6.377-6.365l12.748.007z" fill="#fff"/><path d="M200.562 399.321c.81.001 1.56.254 2.178.683.234-.385.371-.834.371-1.318a2.55 2.55 0 0 0-2.551-2.546c-1.408 0-2.549 1.138-2.548 2.544a2.53 2.53 0 0 0 .372 1.318c.618-.429 1.368-.681 2.178-.681zm-21.034-.012c.81 0 1.56.253 2.178.682a2.52 2.52 0 0 0 .371-1.317 2.55 2.55 0 0 0-2.551-2.546c-1.408-.001-2.549 1.138-2.548 2.543 0 .484.138.933.372 1.318.618-.428 1.368-.681 2.178-.68zm9.75-4.074c.162-.071.35.003.42.164l4.467 10.181a.32.32 0 0 1-.223.438l-5.736 1.27a.32.32 0 0 1-.38-.242c-.038-.172.07-.342.242-.38l5.358-1.185-4.312-9.827c-.07-.161.003-.349.164-.419z" fill="#1f1b2d"/><path d="M182.503 379.757c-3.314 5.655-8.333 10.185-14.348 12.912a6.36 6.36 0 0 0-4.133-1.905l.834-5.29h0a25.25 25.25 0 0 1 3.45-9.317 25.52 25.52 0 0 1 6.009-6.71c.93-.727 1.91-1.394 2.937-1.989a25.38 25.38 0 0 1 9.584-3.224c1.046-.131 2.111-.201 3.193-.2 4.658.002 9.021 1.257 12.78 3.436a25.65 25.65 0 0 1 8.955 8.708 25.29 25.29 0 0 1 3.458 9.32l.839 5.285c-1.69.113-3.196.886-4.27 2.06-11.325-.881-21.546-5.698-29.288-13.086zm-6.788 41.519c-5.619-4.219-9.321-10.849-9.551-18.352-.786.346-1.653.541-2.568.541a6.36 6.36 0 0 1-1.547-.198l-3.859 24.458 17.529.009-.004-6.458zm40.785-17.785c-.914-.001-1.782-.197-2.568-.543-.223 7.502-3.918 14.128-9.534 18.342l.003 6.458 17.529.008-3.883-24.461a6.41 6.41 0 0 1-1.547.196z" fill="#9b5921"/><path d="M240.812 474.224a50.6 50.6 0 0 0-9.003-29.617c-3.384-4.885-8.372-8.437-14.1-10.041l-13.303-3.726c.004 7.906-6.414 14.312-14.335 14.308s-14.344-6.416-14.348-14.321l-13.3 3.712c-5.726 1.599-10.711 5.146-14.09 10.027-6.029 8.709-9.337 19.013-9.504 29.608l-.053 3.351 101.983.05.053-3.351z" fill="#5d3cf2"/></g></svg>