<svg xmlns="http://www.w3.org/2000/svg" xmlns:xlink="http://www.w3.org/1999/xlink" width="416" height="478" fill="none" xmlns:v="https://vecta.io/nano"><g fill="#fff"><path d="M98.141 335.357c-.386-2.973-2.511-5.438-4.83-7.316-6.645-5.204-15.648-6.964-23.955-5.595-3.091.509-6.22 1.448-8.809 3.247-5.332 3.717-7.65 11.19-5.564 17.411a5.98 5.98 0 0 0 1.314 1.8c-2.589 4.969-4.096 8.646-6.298 13.772a94.32 94.32 0 0 1 16.498-10.173l.734.391c6.955 4.304 16.15 2.191 23.182-1.995 4.173-2.543 8.345-6.651 7.727-11.542z" fill-opacity=".2"/><use xlink:href="#B"/><use xlink:href="#B" x="9.43"/><path d="M84.056 338.766c1.429 0 2.62-1.164 2.62-2.62a2.6 2.6 0 0 0-2.62-2.619c-1.429 0-2.62 1.164-2.62 2.619a2.6 2.6 0 0 0 2.62 2.62zm3.444 3.367c1.573-4.685 6.452-7.381 11.171-8.858 10.914-3.402 22.663-2.728 33.128 1.862 4.847 2.15 9.534 5.392 11.621 10.238 1.861 4.204 1.444 9.243-.675 13.319-2.086 4.076-5.778 7.253-9.951 9.179 1.445 3.723 3.66 8.28 5.136 12.003l-8.892-5.231c-1.476-.931-3.081-1.734-4.751-2.311-2.311-.706-4.751-.674-7.158-.803-6.709-.385-13.45-2.375-18.94-6.29s-9.695-9.789-10.914-16.4c-.417-2.214-.482-4.557.225-6.708z"/></g><path d="M99.83 344.572h31.908a1.3 1.3 0 0 0 1.316-1.316c0-.738-.61-1.316-1.316-1.316H99.83a1.316 1.316 0 1 0 0 2.632zm0 6.326h21.443a1.316 1.316 0 1 0 0-2.632H99.83a1.316 1.316 0 1 0 0 2.632zm0 6.292h14.028a1.316 1.316 0 1 0 0-2.632H99.83a1.316 1.316 0 1 0 0 2.632zm29.304-2.632h-8.796a1.3 1.3 0 0 0-1.316 1.316c0 .738.61 1.316 1.316 1.316h8.796a1.3 1.3 0 0 0 1.316-1.316c0-.739-.61-1.316-1.316-1.316z" fill="#d5d2dc"/><defs ><path id="B" d="M66.242 338.766c1.429 0 2.62-1.164 2.62-2.62a2.6 2.6 0 0 0-2.62-2.619c-1.429 0-2.62 1.164-2.62 2.619.04 1.456 1.191 2.62 2.62 2.62z"/></defs></svg>