<svg xmlns="http://www.w3.org/2000/svg" width="416" height="478" fill="none" xmlns:v="https://vecta.io/nano"><g fill="#fff"><rect opacity=".04" x="210" y="92" width="205" height="144" rx="12"/><path opacity=".5" d="M134.321 141.125l.169.039.683.338 4.991 2.591c.085.019.117.072.15.124a.6.6 0 0 1 .088.199c.032.053.013.138-.007.222s-.03.128-.092.203c-.019.085-.072.117-.124.15a.6.6 0 0 1-.199.088c-.094.023-.138.013-.222-.007s-.128-.03-.203-.092l-4.949-2.581-.682-.337c-.117-.072-.225-.187-.248-.282-.055-.147-.026-.274.046-.391a.71.71 0 0 1 .239-.258c.137-.013.232-.036.36-.006zm11.13 6.209l.255.059a44.26 44.26 0 0 1 5.13 3.921c.033.052.108.114.14.167s.056.147.046.189c-.02.085.013.137-.049.212-.02.085-.072.118-.092.203-.052.032-.115.107-.167.14s-.147.055-.189.045c-.085-.019-.137.013-.213-.049-.084-.02-.117-.072-.159-.082-1.599-1.4-3.27-2.683-5.023-3.806-.117-.072-.183-.177-.205-.271a.83.83 0 0 1-.006-.36c.03-.128.134-.192.196-.267.114-.108.209-.131.336-.101zm9.489 8.467l.212.05c.085.019.118.072.15.124 1.35 1.701 2.534 3.541 3.476 5.46.032.052.055.147.045.19-.02.085.013.137-.049.212-.02.085-.072.117-.092.202-.052.033-.114.108-.167.141-.104.065-.284.068-.411.038s-.235-.144-.3-.248c-.952-1.877-2.06-3.655-3.378-5.304a.59.59 0 0 1-.088-.199c-.033-.052-.013-.137.007-.222l.049-.212c.02-.085.072-.118.124-.151.147-.055.285-.068.422-.081zm5.595 11.366c.084.02.212.05.287.112a.53.53 0 0 1 .163.261c.543 2.095.844 4.268.923 6.434.023.094.013.137-.007.222s-.072.117-.092.202a.59.59 0 0 1-.166.14.33.33 0 0 1-.232.036c-.085-.02-.137.013-.213-.049-.084-.02-.117-.072-.192-.135-.033-.052-.108-.114-.13-.209a.33.33 0 0 1-.036-.232c-.047-2.113-.367-4.201-.878-6.244-.032-.052-.013-.137.007-.222s.03-.127.092-.202c.019-.085.072-.118.124-.15a.6.6 0 0 1 .199-.088c.013.137.108.114.151.124zm-4.163 6.371c1.176.139 2.342.32 3.478.629.127.029.245.101.3.248.065.105.078.242.039.412-.02.085-.03.127-.092.202-.052.033-.114.108-.167.141s-.104.065-.199.088c-.052.032-.137.012-.222-.007a29.45 29.45 0 0 0-3.351-.6l-2.835-.121c-.137.013-.255-.059-.372-.131-.108-.115-.173-.219-.143-.347-.023-.095-.013-.137.006-.222s.073-.117.135-.192c.052-.033.114-.108.166-.141s.147-.055.19-.045c1.088-.061 2.071-.056 3.067.086zm9.351 2.888l.17.039c1.93.94 3.787 1.998 5.624 3.141a.39.39 0 0 1 .196.314c.013.137-.017.264-.089.382s-.176.182-.323.238-.275.025-.392-.047c-1.795-1.132-3.62-2.138-5.507-3.068-.117-.072-.192-.134-.248-.281a.34.34 0 0 1-.006-.36.5.5 0 0 1 .206-.31c.147-.055.242-.078.369-.048zm-18.475-1.741c.084.019.169.039.244.101s.15.125.173.219c.033.053.056.147.046.19l-.049.212c-.02.085-.073.118-.125.15s-.114.108-.157.098c-.996.44-1.971.974-2.837 1.623-.762.583-1.448 1.229-2.027 1.99-.115.107-.22.172-.347.143-.137.013-.264-.017-.372-.131-.118-.072-.183-.177-.196-.314s.017-.265.089-.382a13.2 13.2 0 0 1 2.224-2.258c.928-.724 1.955-1.291 3.046-1.753.118.072.203.092.288.112zm13.545 5.249l.085.019c.085.02.128.03.203.092.032.052.117.072.14.167a.6.6 0 0 1 .088.199c.033.053.013.138-.007.222-.502 2.165-1.334 4.209-2.486 6.089-.072.118-.177.183-.324.238-.137.013-.274.026-.392-.046s-.183-.177-.238-.324c-.013-.137-.026-.274.089-.382 1.122-1.753 1.892-3.721 2.365-5.759a.7.7 0 0 1 .216-.352c-.003-.18.144-.235.261-.163zm15.907 2.978l.213.05c.62.412 1.292.792 1.932 1.12l3.565 1.991c.084.019.117.072.15.124l.098.157c.032.052.012.137.045.189l-.049.213c-.02.085-.072.117-.125.15l-.156.098c-.053.032-.138.013-.19.045l-.212-.049-3.65-2.011-1.932-1.12c-.117-.072-.183-.177-.205-.271-.066-.105-.036-.232-.007-.36s.135-.192.197-.267c.104-.066.199-.088.326-.059zm29.996 5.312c.085.019.17.039.245.101s.15.125.173.219c.032.053.055.147.045.19-.02.085.013.137-.049.212-.02.085-.072.118-.092.203-.052.032-.114.107-.167.14-1.97.974-4.085 1.601-6.215 1.912-.137.013-.264-.017-.382-.089s-.173-.219-.185-.356a.61.61 0 0 1 .088-.382c.072-.117.219-.173.356-.186 2.036-.288 4.055-.893 5.921-1.801.082-.16.177-.183.262-.163zm-18.662.408l.128.029c1.988.686 4.016 1.202 6.103 1.463.127.029.245.101.352.216.066.104.121.251.091.379s-.101.245-.216.352-.251.121-.379.091c-2.129-.271-4.242-.806-6.272-1.501-.128-.03-.235-.144-.301-.249s-.068-.284-.038-.412.134-.192.206-.31c.147-.055.242-.078.326-.058zm-48.17-4.298c.127.029.254.059.362.173.065.105.121.252.133.389-.162 1.663.352 3.303 1.337 4.65.206.272.421.501.679.74.107.114.173.219.186.356s-.06.255-.132.372c-.114.108-.219.173-.356.186s-.255-.059-.372-.131l-.786-.854a7.79 7.79 0 0 1-1.486-5.356c.029-.127.059-.255.173-.362-.013-.138.124-.151.262-.163zm14.054 5.948l.212.05c.043.01.108.114.183.176.033.053.065.105.088.2.033.052.013.137-.007.222s-.029.127-.091.202c-.053.033-.115.108-.167.14-1.883 1.174-4.049 1.834-6.31 1.935l-.212-.049c-.085-.02-.118-.072-.15-.124s-.108-.115-.098-.157c-.033-.053-.055-.147-.046-.19l.05-.212c.019-.085.072-.118.124-.15s.114-.108.167-.141.147-.055.189-.045c2.039-.108 4.058-.713 5.784-1.788.052-.033.189-.046.284-.069zM216.43 56.255c-.065 0-.162-.065-.227-.097l-1.888-1.431-3.546-2.472c-.065-.032-.13-.098-.195-.163-.033-.065-.098-.13-.098-.195-.032-.065-.032-.163 0-.228 0-.065.033-.163.065-.228s.098-.13.163-.163.13-.065.228-.098h.227c.065.033.163.065.196.098l3.611 2.505 1.887 1.431c.098.098.163.195.196.325a.45.45 0 0 1-.066.358c-.065.13-.162.195-.26.26-.065.098-.195.13-.293.097zm-31.007-8.848c-.13-.032-.228-.098-.293-.195s-.13-.195-.13-.325.032-.26.098-.325c.065-.098.162-.195.26-.228A22.94 22.94 0 0 1 192.125 45c.163 0 .293.032.391.163.13.098.195.228.195.391s-.032.293-.13.39a.51.51 0 0 1-.39.195c-2.18.098-4.36.521-6.41 1.269-.13 0-.228.033-.358 0zm19.652 1.659c-.033 0-.098-.032-.13-.032-1.985-.943-4.067-1.659-6.215-2.179-.065 0-.13-.032-.195-.098-.065-.032-.097-.098-.13-.163l-.098-.195v-.228a.52.52 0 0 1 .261-.325.62.62 0 0 1 .423-.065c2.212.553 4.392 1.301 6.442 2.277a.46.46 0 0 1 .26.293c.065.13.065.26.033.39s-.13.26-.261.293a.54.54 0 0 1-.39.032z"/></g><path d="M226.711 53.686c-.162-.032-5.205 3.448-5.205 3.448l11.81 10.767-14.251-8.523-5.433 5.79 27.851 8.197-14.772-19.68z" fill="#9178ff"/><path d="M221.115 60.613l.358-3.513 11.811 10.767-12.169-7.254z" fill="#5d3cf2"/><rect opacity=".04" y="30" width="185" height="113" rx="12" fill="#fff"/></svg>