<svg xmlns="http://www.w3.org/2000/svg" width="416" height="478" fill="none" xmlns:v="https://vecta.io/nano"><g clip-path="url(#A)"><path opacity=".6" d="M237.739 263.204c-17.984 0-32.6-14.68-32.601-32.794s14.546-32.794 32.596-32.794c17.984 0 32.6 14.68 32.601 32.794s-14.613 32.794-32.596 32.794z" fill="#e8ebff"/><g fill="#3c76f2"><path d="M198.742 244.75c3.839-2.357 8.823-1.145 11.18 2.761 2.358 3.838 1.146 8.889-2.693 11.246l-49.839 30.571c-3.839 2.357-8.823 1.145-11.181-2.76-2.357-3.839-1.145-8.889 2.694-11.246l49.839-30.572z"/><path d="M272.018 209.403c4.109 6.801 6.198 14.747 5.862 22.693-.337 8.013-3.03 15.69-7.677 22.154-4.715 6.465-11.18 11.381-18.589 14.142a39.9 39.9 0 0 1-23.304 1.346c-7.745-1.885-14.683-5.993-20.071-11.919-5.389-5.858-8.892-13.198-10.172-21.144-1.213-7.879-.068-15.959 3.232-23.232a40.67 40.67 0 0 1 15.49-17.508c4.512-2.761 9.496-4.579 14.682-5.454 5.186-.808 10.507-.606 15.626.673s9.968 3.502 14.212 6.599a39.27 39.27 0 0 1 10.709 11.65zm-62.096 38.046c3.368 5.522 8.285 9.966 14.077 12.66 5.86 2.693 12.393 3.636 18.724 2.626s12.258-3.906 17.04-8.283c4.714-4.377 8.082-10.1 9.563-16.363 1.549-6.33 1.144-12.929-1.079-18.989s-6.197-11.381-11.383-15.219-11.383-5.993-17.849-6.263-12.797 1.415-18.32 4.782c-7.341 4.511-12.661 11.784-14.681 20.269-1.953 8.484-.538 17.373 3.908 24.78z"/></g><path d="M224.538 211.154c-3.3 3.03-4.31 6.936-3.569 9.764.808 3.097-4.109 2.424-4.917-.404-.674-2.357-.607-4.781.134-7.138.808-2.29 2.29-4.243 4.31-5.657a18.5 18.5 0 0 1 7.678-2.963 18.87 18.87 0 0 1 8.217.606c.27.068.539.135.741.337.202.135.404.404.539.606.135.27.202.539.202.808s-.067.539-.202.808c-1.212 1.414-2.694.943-6.398.943-2.492 0-4.85.808-6.735 2.29z" fill="#fff"/></g><defs><clipPath id="A"><path fill="#fff" transform="matrix(-1 0 .000063 1 277.912 190)" d="M0 0h132.912v100.53H0z"/></clipPath></defs></svg>