<svg xmlns="http://www.w3.org/2000/svg" width="416" height="478" fill="none" fill-rule="evenodd" xmlns:v="https://vecta.io/nano"><path d="M355.219 202.122a29.71 29.71 0 0 0-16.451-11.712l-15.53-4.333.01-11.152c6.57-4.932 10.889-12.689 11.162-21.46.917.403 1.93.631 2.998.63 4.111-.003 7.447-3.334 7.45-7.441s-3.326-7.432-7.437-7.428c-1.06.001-2.066.226-2.978.625l.002-2.11c.013-15.398-12.474-27.87-27.89-27.857s-27.924 12.506-27.937 27.904l-.002 2.11c-.912-.398-1.918-.621-2.977-.62-4.111.003-7.446 3.335-7.45 7.441s3.326 7.432 7.437 7.428c1.068 0 2.081-.23 3-.635.257 8.77 4.563 16.52 11.125 21.441l-.009 11.152-15.537 4.36a29.84 29.84 0 0 0-16.47 11.739l-.563.813c-6.706 9.684-10.599 21.035-11.245 32.789l119.097-.101a52.53 52.53 0 0 0-9.244-32.771l-.561-.812z" fill="#b5683c"/><path d="M306.495 180.515c-3.442.002-6.736-.621-9.779-1.756 4.327 2.759 9.468 4.358 14.987 4.353a27.84 27.84 0 0 0 11.54-2.504l.005-5.683a27.86 27.86 0 0 1-16.753 5.59z" fill="#a3420b"/><path d="M273.898 142.603a4.46 4.46 0 0 1 1.739-.351c2.466-.003 4.464 1.993 4.462 4.457 0 .409-.056.806-.16 1.183-.055.198-.259.315-.458.26a.37.37 0 0 1-.26-.456 3.69 3.69 0 0 0 .134-.987c.002-2.053-1.663-3.716-3.719-3.714-.514 0-1.004.105-1.449.293a.37.37 0 0 1-.487-.197c-.08-.189.009-.407.198-.488zm63.52.34c-2.056.002-3.724 1.667-3.725 3.721a3.69 3.69 0 0 0 .131.986c.054.198-.062.402-.261.457a.37.37 0 0 1-.457-.26c-.103-.377-.158-.774-.158-1.183.002-2.463 2.004-4.462 4.47-4.465a4.47 4.47 0 0 1 1.738.349.37.37 0 0 1 .198.487c-.08.19-.298.278-.488.199a3.71 3.71 0 0 0-1.448-.291z" fill="#1f1b2d"/><path d="M313.953 163.415c-.004 4.106-3.339 7.438-7.45 7.441s-7.441-3.322-7.438-7.428l14.888-.013z" fill="#fff"/><path d="M321.782 147.792a2.98 2.98 0 0 1-2.98 2.976 2.97 2.97 0 0 1-2.974-2.971c.001-1.642 1.335-2.975 2.98-2.977a2.97 2.97 0 0 1 2.974 2.972zm-24.564.021c-.001 1.643-1.336 2.975-2.98 2.977a2.97 2.97 0 0 1-2.975-2.972c.002-1.642 1.336-2.975 2.98-2.976a2.97 2.97 0 0 1 2.975 2.971zm9.111-3.33c.192-.075.408.02.482.211l3.625 9.328c.852 2.193-.77 4.559-3.126 4.561l-2.346.002a.37.37 0 0 1-.372-.371c0-.206.167-.372.372-.373l2.347-.002a2.61 2.61 0 0 0 2.431-3.547h0l-3.625-9.328c-.074-.191.021-.407.212-.481zm31.091-5.254a7.41 7.41 0 0 1 2.256.348 4.41 4.41 0 0 0 .497-2.026c.002-1.659-.906-3.103-2.251-3.87 1.989-1.162 3.33-3.312 3.333-5.778.002-3.355-2.469-6.123-5.691-6.604a6.3 6.3 0 0 0 .809-3.084c.003-3.49-2.828-6.317-6.322-6.314a6.31 6.31 0 0 0-3.518 1.07l.003-.134a8.17 8.17 0 0 0-8.181-8.171c-1.96.002-3.76.693-5.171 1.842-1.23-2.407-3.73-4.058-6.624-4.056s-5.397 1.658-6.631 4.068a8.14 8.14 0 0 0-5.168-1.834c-4.522.004-8.191 3.669-8.195 8.185 0 .045.002.089.003.134-1.005-.673-2.214-1.065-3.516-1.064a6.34 6.34 0 0 0-6.333 6.325c0 1.12.293 2.17.804 3.082-3.223.487-5.699 3.259-5.702 6.613-.002 2.466 1.336 4.614 3.323 5.773-1.346.77-2.257 2.215-2.258 3.874a4.42 4.42 0 0 0 .492 2.025 7.43 7.43 0 0 1 2.259-.352 7.42 7.42 0 0 1 6.134 3.225c3.812-1.442 6.632-4.905 7.144-9.08 1.202.644 2.576 1.009 4.037 1.007 3.491-.002 6.493-2.093 7.828-5.087a8.33 8.33 0 0 0 5.754 2.288 8.36 8.36 0 0 0 5.759-2.298c1.33 2.992 4.328 5.078 7.819 5.075 1.46-.002 2.835-.369 4.039-1.014.505 4.174 3.318 7.632 7.128 9.068 1.343-1.952 3.591-3.234 6.14-3.236z" fill="#1f1b2d"/><path d="M366.651 229.574c-.419-7.744-2.975-15.217-7.383-21.59l-4.052-5.859c-3.944-5.702-9.764-9.846-16.451-11.711l-13.669-3.815.007-7.955c.001-1.027-.831-1.858-1.859-1.857l-.002 1.859c-4.668 3.504-10.468 5.584-16.753 5.59s-12.081-2.066-16.743-5.562l.002-1.859c-1.028.001-1.862.833-1.863 1.86l-.007 7.955-13.675 3.838a29.84 29.84 0 0 0-16.471 11.74l-4.531 6.542a42.08 42.08 0 0 0-7.306 20.074l-.659 7.128 121.795.654-.38-7.032z" fill="#07c98b"/><path d="M287.6 186.383c.137-.153.372-.166.525-.03a27.41 27.41 0 0 0 18.356 6.991c3.421-.003 6.695-.628 9.717-1.769.193-.072.408.024.48.216s-.025.407-.217.48c-3.105 1.171-6.469 1.813-9.98 1.816-7.245.006-13.852-2.709-18.853-7.179a.37.37 0 0 1-.028-.525z" fill="#1f1b2d"/></svg>