<svg xmlns="http://www.w3.org/2000/svg" width="416" height="478" fill="none" xmlns:v="https://vecta.io/nano"><path d="M373.018 403.285c-.089 1.471-1.382 2.576-2.849 2.433l-.134-.013c-.419-.025-.364-.869.047-.785a2.02 2.02 0 0 0 2.161-1.867c.007-.12.057-.215.127-.28.153-.142.427-.116.569.037.031.033.054.07.07.109.047.114.016.243.009.366zm-7.293 2.029c-.016.005-.146.016-.163.014l-4.229-.382c-.418-.025-.363-.869.047-.785l4.312.39c.031.001.06.006.088.013.344.089.288.658-.055.75zm-8.645-.86c-.053.015-.108.019-.162.014l-4.229-.382c-.418-.025-.364-.869.047-.785l4.311.39a.46.46 0 0 1 .134.028c.298.115.208.653-.101.735zm-8.804-.816c-.053.014-.109.019-.163.014l-4.229-.383c-.418-.025-.364-.869.047-.785l4.312.39c.035.002.068.008.099.017.334.096.269.657-.066.747zm-8.725-.839c-.016.004-.146.016-.163.014l-4.229-.382c-.418-.025-.363-.869.047-.785l4.312.39c.047.002.091.012.131.027.307.115.219.651-.098.736zm-8.725-.838c-.053.015-.108.019-.163.014l-.35-.034a2.4 2.4 0 0 1-2.155-2.62l.042-.433c.025-.418.869-.363.785.047a2.02 2.02 0 0 0 1.867 2.161c.262.016.406.235.369.416-.096.283-.234.406-.395.449zm-1.708-7.011c-.053.015-.108.023-.162.01-.209-.052-.32-.243-.287-.404l.391-4.311c.025-.418.869-.364.785.047l-.346 3.826c-.029.311-.079.751-.381.832zm.76-8.701a.33.33 0 0 1-.162.009c-.21-.051-.321-.242-.287-.404l.39-4.311c.025-.418.869-.363.785.047l-.39 4.311c-.037.182-.176.305-.336.348zm.839-8.724a.32.32 0 0 1-.162.01c-.209-.052-.32-.243-.287-.404l.39-4.311c.026-.419.87-.364.786.047l-.346 3.817c-.029.325-.066.757-.381.841zm.818-8.803a.33.33 0 0 1-.162.009c-.209-.051-.32-.242-.287-.404l.39-4.31c.025-.419.87-.364.786.047l-.391 4.31c-.015.262-.176.305-.336.348zm.861-8.641c-.014.004-.147.012-.162.009-.209-.051-.32-.242-.287-.404.152-1.558 1.538-2.698 3.096-2.546.418.025.363.869-.048.785l-.836-.061a1.18 1.18 0 0 0-1.264 1.091l-.022.309c-.023.316-.171.735-.477.817zm37.556 1.097c-.053.014-.108.019-.162.014l-4.229-.382c-.418-.025-.364-.869.047-.785l4.312.39c.261.015.406.234.369.416s-.176.304-.337.347zm-8.724-.838a1.76 1.76 0 0 1-.163.014l-4.229-.382c-.418-.026-.363-.87.047-.786l4.312.39c.261.016.406.235.369.416s-.176.305-.336.348zm-8.725-.838a.47.47 0 0 1-.163.014l-4.229-.383c-.418-.025-.363-.869.048-.785l4.311.39c.262.016.406.234.369.416s-.176.305-.336.348zm-8.725-.839c-.016.005-.146.016-.162.014l-4.23-.382c-.418-.025-.363-.869.048-.785l4.311.389c.262.016.407.235.369.417s-.176.304-.336.347zm32.743 5.56a.32.32 0 0 1-.162.01c-.21-.051-.32-.243-.287-.404a2.02 2.02 0 0 0-1.867-2.161c-.418-.025-.363-.869.047-.785l.433.042a2.4 2.4 0 0 1 2.156 2.619l-.004.038c-.026.261-.062.573-.316.641zm-3.336 34.974a.32.32 0 0 1-.162.01c-.21-.052-.32-.243-.287-.404l.39-4.311c.025-.418.87-.364.785.047l-.345 3.817c-.03.325-.066.757-.381.841zm.818-8.803a1.1 1.1 0 0 1-.162.009c-.21-.051-.32-.242-.287-.404l.39-4.311c.025-.418.869-.363.785.048l-.39 4.31c-.037.182-.176.305-.336.348zm.861-8.643a1.1 1.1 0 0 1-.162.009c-.21-.051-.321-.242-.287-.404l.39-4.311c.025-.418.869-.363.785.047l-.346 3.818c-.029.325-.065.756-.38.841zm.818-8.803a.33.33 0 0 1-.162.009c-.21-.051-.321-.242-.288-.404l.391-4.311c.025-.418.869-.363.785.047l-.39 4.311c-.037.182-.176.305-.336.348z" opacity=".5" fill="#fff"/><path d="M379.514 338.002c-.391-.126-.832-.116-1.244.046s-.728.47-.894.853l-14.945 28.987a2.76 2.76 0 0 0 .966.271c.353.013.683-.062.982-.186l45.027-19.021c.322-.139.598-.352.819-.597s.393-.564.502-.875l-31.213-9.478z" fill="#d5d2dc"/><path d="M380.112 345.324c.4.087.825.053 1.197-.118.387-.147.696-.415.917-.765l15.342-27.626c-.056-.033-.111-.066-.176-.059l-.04-.008-.04-.009c-.159-.034-.304-.044-.448-.055.064-.007.144.01.224.028-.408-.046-.818.012-1.205.159l-45.052 19.036a2.44 2.44 0 0 0-1.22 1.201l30.501 8.216z" fill="#fff"/><path d="M374.896 343.91l-25.292-6.865-.116.247a2.53 2.53 0 0 0 .063 1.749l11.616 27.531c.233.573.675 1.045 1.224 1.309l12.505-23.971zm22.674-27.095l-12.713 22.901 25.872 7.764c-.05.135-.085.295-.175.422a2.64 2.64 0 0 0 .297-1.086 2.36 2.36 0 0 0-.2-1.11l-11.641-27.515c-.14-.323-.328-.615-.573-.835-.237-.26-.555-.433-.867-.541z" fill="#efecf3"/><path d="M362.239 334.703c2.211-1.427 2.848-4.385 1.421-6.595a4.78 4.78 0 0 0-6.596-1.42c-2.211 1.428-2.848 4.385-1.421 6.595s4.386 2.847 6.596 1.42z" fill="#f23c49"/></svg>