<svg xmlns="http://www.w3.org/2000/svg" xmlns:xlink="http://www.w3.org/1999/xlink" width="416" height="478" fill="none" xmlns:v="https://vecta.io/nano"><g fill-rule="evenodd"><path d="M130.787 121.123a24.66 24.66 0 0 0-13.633-9.703l-12.865-3.596v-9.227c5.438-4.077 9.01-10.492 9.23-17.749a6.15 6.15 0 0 0 2.484.524 6.16 6.16 0 0 0 6.165-6.152 6.16 6.16 0 0 0-6.165-6.152c-.878 0-1.711.186-2.466.515v-1.746c0-12.741-10.351-23.069-23.12-23.069S67.298 55.096 67.298 67.837v1.746a6.15 6.15 0 0 0-2.466-.515 6.16 6.16 0 0 0-6.165 6.152 6.16 6.16 0 0 0 6.165 6.152 6.15 6.15 0 0 0 2.484-.524c.219 7.257 3.791 13.672 9.23 17.749v9.227L63.68 111.42c-5.539 1.549-10.362 4.981-13.633 9.703l-3.738 5.395a29.29 29.29 0 0 0-5.213 16.679h98.641c0-5.961-1.818-11.779-5.213-16.679l-3.738-5.395z" fill="#f5cdd3"/><path d="M90.417 103.21a23.1 23.1 0 0 1-8.101-1.46 23.02 23.02 0 0 0 12.417 3.613c3.409 0 6.642-.742 9.556-2.064v-4.703a23.05 23.05 0 0 1-13.872 4.614z" fill="#f48c9d"/><g fill="#1f1b2d"><path d="M63.393 71.818a3.7 3.7 0 0 1 1.44-.29c2.043 0 3.699 1.653 3.699 3.691a3.69 3.69 0 0 1-.132.979c-.045.164-.215.26-.379.215s-.261-.214-.216-.378a3.09 3.09 0 0 0 .11-.816 3.08 3.08 0 0 0-4.283-2.834.31.31 0 0 1-.404-.164c-.066-.157.007-.337.164-.403zm52.61.326a3.08 3.08 0 0 0-3.083 3.076c0 .283.038.557.11.816.045.164-.052.333-.216.378a.31.31 0 0 1-.379-.215 3.68 3.68 0 0 1-.131-.979c0-2.038 1.656-3.691 3.699-3.691a3.7 3.7 0 0 1 1.44.29c.156.066.23.247.164.403a.31.31 0 0 1-.404.164 3.09 3.09 0 0 0-1.2-.242zM94.455 90.033c.144.091.187.281.096.424a4.93 4.93 0 0 1-8.259.128c-.096-.141-.058-.332.082-.427a.31.31 0 0 1 .428.082c.776 1.145 2.089 1.896 3.577 1.896 1.536 0 2.885-.8 3.65-2.008a.31.31 0 0 1 .425-.096z"/><use xlink:href="#B"/><use xlink:href="#B" x="-20.345"/><path d="M90.325 73.386a.31.31 0 0 1 .383.208l3.082 10.458c.025.086.012.178-.036.253s-.127.126-.216.138l-4.315.615c-.169.024-.325-.093-.349-.261s.093-.324.262-.348l3.963-.565-2.982-10.117c-.048-.163.045-.334.209-.382z"/></g><path d="M115.076 69.144v-1.307a24.45 24.45 0 0 0-3.644-12.874c-2.14-3.471-5.121-6.367-8.657-8.416-3.635-2.106-7.855-3.317-12.36-3.317s-8.725 1.211-12.359 3.317c-3.536 2.048-6.517 4.945-8.657 8.416a24.45 24.45 0 0 0-3.644 12.874v1.307c1.286.194 2.441.78 3.338 1.637 2.84-2.845 5.128-6.239 6.684-10.012a30.74 30.74 0 0 0 14.639 3.684c5.298 0 10.284-1.334 14.639-3.684a30.8 30.8 0 0 0 6.684 10.012 6.15 6.15 0 0 1 3.338-1.637z" fill="#6a2405"/><path d="M139.738 143.198c0-5.961-1.818-11.779-5.213-16.679l-3.738-5.395a24.66 24.66 0 0 0-13.633-9.703l-12.865-3.596c0 7.644-6.21 13.842-13.872 13.842s-13.871-6.198-13.871-13.842l-12.866 3.596c-5.539 1.549-10.362 4.981-13.633 9.703l-3.738 5.395a29.29 29.29 0 0 0-5.213 16.679h98.641z" fill="#f23c49"/></g><defs ><path id="B" d="M103.054 76.142c0 1.359-1.104 2.461-2.466 2.461s-2.466-1.102-2.466-2.461 1.104-2.461 2.466-2.461 2.466 1.102 2.466 2.461z"/></defs></svg>