<svg xmlns="http://www.w3.org/2000/svg" width="416" height="478" fill="#fff" xmlns:v="https://vecta.io/nano"><path opacity=".15" d="M106.796 17.885c2.698-7.754 9.627-14.01 17.879-16.543s17.614-1.396 25.177 2.688c3.703 2.016 7.035 4.756 9.098 8.271s2.751 7.858 1.217 11.631c-1.851 4.549-6.453 7.548-11.108 9.719-5.025 2.275-11.849 3.825-18.196 2.275l-15.762 9.46c.952-3.515 3.861-10.494 3.967-10.494l-.688-.052c-3.808-1.292-7.247-3.619-9.733-6.617-1.216-1.447-2.221-3.153-2.538-5.014s.105-3.619.687-5.325z"/><path d="M133.584 25.331c-.054.431-.163.861 0 1.292.108.377.271.7.542.969.216.215.433.377.704.431a1.21 1.21 0 0 0 .867.161c.379 0 .759-.108 1.084-.269 0 0 .054 0 .054-.054-.163.054-.379.162-.542.215h.054c-.216.054-.379.054-.596.054h.055c.216-.054.379-.054.596-.054.162-.054.379-.162.541-.215.163-.108.326-.269.488-.377.108-.162.271-.323.379-.485.055-.162.163-.377.217-.538.054-.215.054-.377.054-.592-.054-.215-.054-.377-.054-.592-.054-.269-.217-.538-.433-.754a1.65 1.65 0 0 0-.434-.431c-.162-.162-.325-.269-.487-.269a1.05 1.05 0 0 0-.542-.161 1.12 1.12 0 0 0-.596 0 .92.92 0 0 0-.542.161c-.163.054-.379.162-.488.269-.162.108-.325.269-.433.431-.271.269-.434.538-.488.807zm-4.987-12.373c.834-1.254 3.075-1.956 4.587-1.806.73.05 2.189.451 2.607 1.103.312.451.364-.05-.157.451-.313.301-.886.502-1.251.702-2.398 1.555-4.952 5.918-1.303 7.673 1.407.702 3.284-.15 3.284-1.805 0-.752-.261-1.254.156-1.906.261-.401.939-.752 1.356-1.003 1.146-.803 2.189-1.605 2.45-3.009.417-2.508-1.929-4.464-4.171-5.266-2.45-.903-5.213-.602-7.35.853-1.147.802-3.44 3.31-1.303 4.313.365.201.834.1 1.095-.301z"/></svg>