<svg xmlns="http://www.w3.org/2000/svg" width="526" height="353" fill="none" xmlns:v="https://vecta.io/nano"><path d="M284.826 274.063l.411-.069c.481-.103.995-.034 1.441.206s.79.617.961 1.098l2.917 8.166c.034.103.069.206.069.343a7.16 7.16 0 0 1-3.432 1.579c-1.132.206-2.299.103-3.397-.206 0-.103-.034-.206-.034-.309l-.652-8.647c-.035-.515.137-.995.446-1.372.343-.412.789-.687 1.27-.789z" fill="#fff"/><path d="M284.688 261.71a1.06 1.06 0 0 0-.275-.275c-.102-.068-.24-.103-.377-.103s-.24.035-.377.103a1.06 1.06 0 0 0-.275.275l-1.475 2.813c-.79 1.339-1.133 4.564-.755 6.005.48 1.51 1.201 2.951 2.127 4.255a.63.63 0 0 0 .343.24 3.81 3.81 0 0 0 2.059.034c1.338-.309 1.476-1.201 1.476-1.201s.755-2.985.652-4.769c-.138-1.784-1.098-4.152-1.51-4.564-.584-.892-1.133-1.818-1.613-2.813z" fill="#b5683c"/><path d="M295.6 316.199l-4.873-31.842-.103-.515a7.17 7.17 0 0 1-3.397 1.544 7.78 7.78 0 0 1-3.329-.206c0 .206.035.412.103.583l7.55 31.293c.171.481.514.858.96 1.099a2.09 2.09 0 0 0 1.442.205 2.22 2.22 0 0 0 1.235-.755c.24-.411.412-.892.412-1.406z" fill="#07c98b"/><g fill="#fff"><path opacity=".5" d="M294.198 318.357a1 1 0 0 0 .925 1.07l7.887.575a1 1 0 0 0 1.071-.925l4.247-58.429a1 1 0 0 0-.925-1.07l-7.888-.575a1 1 0 0 0-1.07.925l-4.247 58.429z"/><path d="M302.944 280.787l-.069.721 3.397.24.069-.72-3.397-.241zm-.481 6.76l-.068.721 3.397.24.068-.721-3.397-.24zm-.515 6.758l-.069.721 3.397.24.069-.721-3.397-.24zm-.481 6.762l-.069.72 3.398.24.068-.72-3.397-.24z"/></g><path d="M300.266 327.451l6.313 1.098 8.304-47.728-6.313-1.098-8.304 47.728z" fill="#fdbc31"/><path d="M308.602 279.723l6.313 1.098-.995-9.127-1.304-.241-4.014 8.27z" fill="#ebdbcd"/><path d="M313.51 275.915l-.926-.618-.755.103-.927-.48 1.647-3.431 1.304.24.412 3.671-.755.515z" fill="#fdbc31"/><path d="M312.999 296.778h-27.623a1.09 1.09 0 0 0-.48.103.93.93 0 0 0-.412.308c-.103.138-.206.275-.24.446s-.069.344-.034.515l3.671 29.68c.069.652.412 1.27.892 1.716.515.446 1.133.686 1.819.686h17.294c.652 0 1.304-.24 1.819-.686a2.63 2.63 0 0 0 .892-1.716l3.569-29.68a1.11 1.11 0 0 0-.034-.48c-.035-.172-.138-.309-.241-.446a.93.93 0 0 0-.411-.309c-.138-.103-.309-.137-.481-.137z" fill="#f23c49"/></svg>