<svg xmlns="http://www.w3.org/2000/svg" width="526" height="353" fill="none" xmlns:v="https://vecta.io/nano"><path opacity=".04" d="M80.001 275.002c9.948 0 18.001-8.079 18.001-18.002s-8.053-18.002-18.001-18.002S62 247.078 62 257s8.053 18.002 18.001 18.002z" fill="#fff"/><path d="M74.93 247.88c-.521.142-.947.473-1.232.898-.284.472-.332.992-.237 1.512.142.519.474.945.9 1.228.237.142.474.237.71.284.284.047.521.047.805-.047l1.942-.473-.474-1.937a2.05 2.05 0 0 0-.948-1.229c-.426-.236-.995-.331-1.468-.236zm1.326 5.245l-5.211 1.323c-.521.142-.947.472-1.232.898-.284.472-.379.992-.237 1.511s.474.945.9 1.229c.474.283 1.042.378 1.516.236l5.211-1.323c.521-.141.948-.472 1.232-.897.284-.473.332-.993.237-1.512s-.474-.946-.9-1.229c-.474-.284-.995-.378-1.516-.236z" fill="#36c5f0"/><path d="M89.145 251.948c-.047-.283-.189-.519-.332-.708-.189-.237-.379-.379-.568-.52-.237-.142-.474-.236-.758-.284s-.521-.047-.805.047c-.284.048-.521.19-.711.331-.237.142-.379.378-.521.614s-.237.473-.237.757c-.047.283 0 .519.047.803l.474 1.937 1.942-.472c.521-.142.947-.473 1.232-.898.237-.52.332-1.087.237-1.607zm-5.211 1.323l-1.326-5.244c-.047-.237-.19-.52-.332-.709-.142-.236-.332-.378-.569-.52s-.474-.236-.758-.283-.521-.048-.805.047c-.237.047-.474.189-.711.331s-.379.378-.521.567c-.142.236-.237.472-.284.756s0 .519.047.803l1.279 5.244a1.98 1.98 0 0 0 .616.993c.284.283.663.425 1.042.52.379.047.805 0 1.137-.189.379-.189.663-.426.853-.804.379-.472.426-.992.332-1.512z" fill="#2eb67d"/><path d="M85.065 266.167c.284-.047.521-.189.711-.331s.379-.378.521-.567c.284-.472.379-.992.237-1.512-.047-.236-.189-.52-.332-.709-.142-.236-.332-.378-.568-.519s-.474-.236-.758-.284-.521-.047-.805.047l-1.942.473.474 1.937c.047.236.189.52.332.709a1.97 1.97 0 0 0 .568.52c.237.141.474.236.758.283.284 0 .568 0 .805-.047zm-1.326-5.245l5.211-1.323c.521-.141.9-.472 1.184-.945.237-.472.332-.992.189-1.465-.142-.519-.474-.945-.9-1.228s-.948-.378-1.469-.284l-5.211 1.324c-.521.141-.947.472-1.232.897-.284.473-.332.993-.237 1.512.047.237.189.52.332.709.142.236.332.378.568.52s.474.236.711.283c.284.095.569.047.853 0z" fill="#ecb22e"/><path d="M70.858 262.055c.047.237.189.52.332.709.189.236.379.378.569.52.474.283 1.042.378 1.516.236a2.05 2.05 0 0 0 1.232-.945c.142-.236.237-.472.284-.756s0-.52-.047-.803l-.474-1.937-1.942.472c-.521.142-.947.473-1.232.898-.284.567-.379 1.087-.237 1.606zm5.211-1.275l1.374 5.245c.142.519.474.944.9 1.228.474.283.995.331 1.516.236.521-.142.947-.472 1.232-.898.284-.472.379-.992.237-1.511l-1.326-5.245c-.047-.237-.19-.52-.332-.709a2.02 2.02 0 0 0-.569-.52c-.237-.142-.474-.236-.711-.283s-.521 0-.805.047a1.95 1.95 0 0 0-.711.331c-.237.142-.426.378-.568.567a2.08 2.08 0 0 0-.284.756c0 .189 0 .472.047.756z" fill="#e01e5a"/></svg>