<svg xmlns="http://www.w3.org/2000/svg" width="526" height="353" fill="none" xmlns:v="https://vecta.io/nano"><path d="M134.397 260.836c-3.594-1.658-7.619-2.193-11.482-1.605-3.917.642-7.565 2.354-10.463 5.083-2.897 2.675-4.936 6.153-5.902 10.005-.912 3.852-.697 7.865.698 11.61s3.809 6.955 7.029 9.256 7.029 3.638 10.945 3.799c3.971.16 7.888-.856 11.214-2.943 3.381-2.087 6.063-5.083 7.727-8.667 2.253-4.816 2.414-10.326.59-15.302-1.771-4.976-5.527-9.042-10.356-11.236z" fill="#fff"/><path d="M135.31 286.895l-14.701-6.795-6.117 4.494 14.487 6.688 6.331-4.387z" fill="#537abd"/><path d="M127.208 267.684l-12.931 8.667.269 8.239 13.252-9.844" fill="#2eb672"/><path d="M133.86 270.787l-6.653-3.103 1.341 16.05 6.868 3.157-1.556-16.104z" fill="#fed14b"/></svg>