<svg xmlns="http://www.w3.org/2000/svg" width="526" height="353" fill="none" xmlns:v="https://vecta.io/nano"><g clip-path="url(#A)"><path opacity=".6" d="M355.77 168.122c-15.859 2.38-30.693-8.616-33.094-24.572s8.483-30.811 24.401-33.199c15.858-2.38 30.693 8.616 33.094 24.572s-8.543 30.82-24.401 33.199z" fill="#e8ebff"/><g fill="#3c76f2"><path d="M318.933 157.028c3.073-2.584 7.629-2.176 10.226.952 2.587 3.069 2.188 7.678-.886 10.262l-39.9 33.524c-3.073 2.584-7.629 2.176-10.226-.953-2.587-3.068-2.188-7.677.885-10.261l39.901-33.524z"/><path d="M378.869 116.196c4.525 5.447 7.419 12.17 8.175 19.213.765 7.103-.593 14.221-3.834 20.53-3.301 6.318-8.352 11.504-14.519 14.916-6.227 3.421-13.292 4.906-20.373 4.27a35.44 35.44 0 0 1-19.279-7.842c-5.528-4.448-9.59-10.45-11.771-17.279-2.114-6.78-2.175-14.049-.228-20.891a36.22 36.22 0 0 1 11.34-17.472c3.614-3.029 7.768-5.29 12.225-6.747 4.467-1.398 9.186-1.924 13.869-1.475s9.255 1.766 13.407 3.933c4.281 2.208 7.946 5.176 10.988 8.844zm-49.72 41.729c3.702 4.418 8.627 7.683 14.092 9.289 5.524 1.597 11.41 1.563 16.86-.165s10.292-5.062 13.929-9.55c3.578-4.48 5.789-9.967 6.265-15.679.528-5.781-.703-11.54-3.467-16.584s-6.972-9.204-12.055-11.899-10.832-3.772-16.569-3.154-11.098 2.939-15.522 6.636c-5.876 4.945-9.605 12.055-10.262 19.796-.598 7.732 1.827 15.374 6.729 21.31z"/></g><path d="M337.232 124.02c-2.509 3.106-2.882 6.68-1.854 9.073 1.123 2.622-3.302 2.679-4.39.295-.906-1.987-1.168-4.131-.827-6.305.409-2.124 1.457-4.04 3.052-5.553 1.814-1.667 3.996-2.905 6.378-3.626a16.84 16.84 0 0 1 7.327-.553c.246.023.493.047.698.198.196.092.409.303.555.463.155.219.25.447.285.685a1.59 1.59 0 0 1-.071.738c-.881 1.406-2.251 1.187-5.517 1.677-2.198.33-4.17 1.354-5.636 2.908z" fill="#fff"/></g><defs><clipPath id="A"><path fill="#fff" transform="matrix(-.988928 .148394 .148794 .988868 381.496 98.3252)" d="M0 0h118.522v89.546H0z"/></clipPath></defs></svg>