<svg xmlns="http://www.w3.org/2000/svg" width="526" height="353" fill="none" xmlns:v="https://vecta.io/nano"><path d="M480.275 271.484c-.154-.331-.427-.613-.782-.783s-.748-.191-1.097-.069l-27.937 7.763c.086.288.229.562.409.794a2.05 2.05 0 0 0 .714.527l39.64 17.872c.286.126.591.178.884.173s.606-.084.874-.201l-12.705-26.076z" fill="#d5d2dc"/><path d="M475.862 276.297a1.71 1.71 0 0 0 .802.709c.33.163.691.203 1.053.136l27.29-6.682c-.012-.056-.025-.112-.068-.15l-.019-.031-.018-.031c-.075-.125-.155-.226-.236-.326.044.038.081.1.118.163-.217-.294-.503-.526-.833-.69l-39.664-17.878c-.479-.202-1.028-.236-1.522-.071l13.097 24.851z" fill="#fff"/><path d="M473.632 272.038L462.806 251.4l-.231.074a2.25 2.25 0 0 0-1.102 1.097l-10.918 24.203a2.22 2.22 0 0 0-.113 1.588l23.19-6.324zm31.377-1.58L482.389 276l10.592 21.559c-.119.049-.244.124-.381.142.343-.098.649-.259.887-.463a2.09 2.09 0 0 0 .602-.801l10.893-24.209c.126-.286.202-.585.197-.877.027-.312-.053-.624-.17-.893z" fill="#efecf3"/><path d="M471.976 258.226c2.267.58 4.581-.791 5.158-3.057a4.25 4.25 0 0 0-3.065-5.158c-2.268-.58-4.581.791-5.159 3.057a4.25 4.25 0 0 0 3.066 5.158z" fill="#f23c49"/></svg>