<svg xmlns="http://www.w3.org/2000/svg" width="526" height="353" fill="none" xmlns:v="https://vecta.io/nano"><path opacity=".5" d="M458 189V316H353" stroke="#fff" stroke-linecap="round" stroke-dasharray="8 8"/><g fill="#fff"><rect opacity=".04" x="324" width="202" height="189" rx="12"/><rect opacity=".04" x="242" y="237" width="111" height="116" rx="12"/><rect opacity=".04" y="62" width="180" height="132" rx="12"/></g><path d="M207.241 49.062s1.907-6.436 1.581-6.6L165.32 22.997l41.921 26.065z" fill="#5d3cf2"/><path d="M219.218 35.326l-42.067-10.605 37.75 2.202-4.71-9.132-44.871 5.207 61.796 27.639-7.898-15.311z" fill="#9178ff"/><path d="M211.198 33.29l3.663-6.415-37.749-2.202 34.086 8.617z" fill="#5d3cf2"/><path opacity=".5" d="M136 197v70h102" stroke="#fff" stroke-linecap="round" stroke-dasharray="8 8"/><path opacity=".5" d="M310.56 65.254l-.182-.007-.767-.213-5.635-1.687c-.091-.004-.134-.051-.178-.098s-.088-.095-.13-.188c-.043-.047-.04-.138-.036-.23s.005-.137.054-.226c.004-.091.051-.135.098-.178s.095-.087.188-.129.138-.04.229-.036a.41.41 0 0 1 .226.055l5.589 1.685.767.213c.135.051.268.148.31.24.086.14.081.277.03.412a.73.73 0 0 1-.195.311c-.138.04-.231.082-.368.076zm-12.651-4.204l-.273-.011c-2.064-.859-4.078-1.852-6.038-3.025-.044-.047-.133-.097-.177-.144s-.086-.14-.084-.186c.003-.091-.04-.138.009-.228.003-.091.051-.135.054-.226.047-.044.097-.133.144-.177s.14-.086.186-.084c.091.004.138-.04.227.009.091.004.135.051.181.053 1.917 1.126 3.885 2.118 5.905 2.929.135.051.222.146.264.239a.85.85 0 0 1 .077.368c-.005.137-.1.224-.149.313a.34.34 0 0 1-.326.169zm-11.407-6.844l-.228-.009c-.091-.004-.135-.051-.179-.098-1.72-1.483-3.297-3.143-4.641-4.93-.044-.047-.086-.14-.084-.186.003-.091-.041-.138.008-.228.004-.091.051-.135.055-.226.047-.044.096-.133.144-.177.094-.087.278-.126.415-.12s.269.102.357.197c1.346 1.742 2.833 3.352 4.51 4.788.044.047.088.095.13.188.044.047.04.139.037.229l-.009.228c-.004.091-.051.135-.098.178-.141.086-.279.126-.417.166zm-7.979-10.582c-.091-.004-.228-.009-.317-.058a.55.55 0 0 1-.219-.237c-.969-2.046-1.705-4.218-2.212-6.428-.042-.093-.04-.138-.036-.23s.051-.135.054-.226c.049-.089.097-.133.144-.177a.35.35 0 0 1 .231-.082c.091.003.139-.04.228.009.091.004.135.051.224.1.044.047.133.097.175.19.044.047.086.14.082.231.463 2.162 1.203 4.244 2.128 6.242.044.047.04.138.037.229s-.006.137-.055.226c-.003.091-.051.135-.098.178s-.094.087-.187.129c-.041-.138-.133-.097-.179-.098zm3.023-7.356c-1.234.087-2.467.128-3.695.033-.137-.005-.271-.057-.357-.197-.088-.095-.128-.233-.121-.415.004-.091.006-.137.055-.226.047-.044.096-.133.143-.177a.62.62 0 0 1 .188-.129c.047-.044.138-.04.229-.036 1.184.048 2.37.05 3.559-.039l2.935-.429c.139-.04.274.011.408.062.133.097.221.191.216.328.042.093.04.138.036.229s-.051.135-.1.224c-.047.044-.096.133-.143.177s-.14.086-.186.084c-1.105.275-2.116.462-3.167.511zm-10.171-1.14l-.182-.007c-2.166-.589-4.281-1.313-6.393-2.128a.41.41 0 0 1-.262-.284.63.63 0 0 1 .016-.41c.051-.135.145-.222.285-.308s.277-.08.412-.029c2.066.813 4.138 1.49 6.258 2.077.135.051.224.1.31.241.087.095.128.233.077.368a.52.52 0 0 1-.151.359c-.14.085-.233.127-.37.122zm19.317-1.819c-.092-.004-.183-.007-.272-.056s-.178-.099-.22-.191c-.044-.047-.086-.14-.084-.186l.008-.228c.004-.091.051-.135.099-.178s.096-.133.142-.131c.937-.646 1.832-1.385 2.594-2.221.668-.748 1.246-1.546 1.692-2.44.096-.133.191-.22.327-.215.139-.04.275-.034.408.062a.41.41 0 0 1 .263.284c.04.138.035.275-.016.41a13.81 13.81 0 0 1-1.84 2.753c-.812.925-1.754 1.708-2.785 2.396-.134-.051-.225-.055-.316-.058zm-14.943-2.746l-.091-.004c-.091-.004-.137-.005-.226-.055-.044-.047-.135-.051-.177-.144-.043-.047-.087-.095-.129-.188-.044-.047-.04-.138-.037-.229.091-2.322.544-4.584 1.358-6.739.05-.135.145-.222.285-.308.139-.04.277-.08.412-.029s.222.146.308.286c.04.138.08.277-.016.41-.809 2.019-1.213 4.192-1.298 6.377-.005.137-.056.271-.152.404.038.184-.102.27-.237.218zm-16.921.047l-.228-.009c-.718-.303-1.483-.561-2.204-.773l-4.052-1.349c-.091-.004-.135-.051-.179-.098l-.131-.142c-.044-.047-.04-.138-.084-.186l.009-.228c.004-.091.051-.135.098-.178l.142-.131c.047-.044.138-.04.186-.084l.227.009 4.143 1.353 2.205.773c.135.051.222.146.264.239.088.095.082.231.077.368s-.1.224-.149.313c-.095.087-.187.129-.324.124zm-31.848.401c-.091-.004-.182-.007-.271-.057s-.179-.098-.221-.191c-.044-.047-.086-.14-.084-.186.004-.091-.04-.138.009-.228.004-.091.051-.135.054-.226.048-.044.097-.133.144-.177 1.833-1.385 3.881-2.443 6.007-3.177.138-.04.275-.034.41.017s.22.191.261.33.035.275-.016.41-.191.22-.33.26c-2.033.693-3.988 1.709-5.726 3.006-.053.18-.146.222-.237.218zm19.085-4.063l-.137-.006c-2.177-.316-4.361-.45-6.555-.31-.137-.006-.271-.056-.404-.153-.088-.095-.174-.235-.168-.372a.74.74 0 0 1 .152-.404c.096-.133.235-.173.372-.167 2.24-.138 4.514 0 6.737.318.136.006.269.102.357.197s.126.279.12.415-.1.224-.15.359c-.141.085-.233.127-.324.124zm50.314-4.991c-.137-.006-.273-.011-.406-.108a.99.99 0 0 1-.214-.373c-.16-1.739-1.01-3.324-2.286-4.515-.265-.239-.531-.432-.842-.627-.133-.097-.221-.191-.261-.33s.01-.273.061-.408c.097-.133.191-.22.33-.26s.273.011.408.062l.975.723c1.453 1.335 2.383 3.197 2.578 5.211-.005.137-.01.273-.107.406.041.138-.098.178-.236.218zm-15.602-3.366l-.228-.009c-.046-.002-.133-.097-.222-.146-.044-.047-.088-.095-.13-.188-.044-.047-.04-.138-.037-.229s.006-.137.055-.226c.047-.044.096-.133.144-.177 1.703-1.573 3.798-2.674 6.099-3.219l.228.009c.091.004.135.051.179.098s.133.097.131.142c.044.047.086.14.084.186l-.009.228c-.004.091-.051.135-.098.178s-.097.133-.144.176-.14.086-.186.084c-2.072.509-4.027 1.525-5.588 2.966-.047.044-.186.084-.278.126zm39.013 50.292c-.136-.005-.273-.011-.36-.106a10.52 10.52 0 0 0-2.725-1.478c-.134-.051-.222-.146-.308-.286a.64.64 0 0 1 .016-.41c.051-.135.146-.222.286-.308.138-.04.277-.08.41.017 1.033.406 2.061.95 2.946 1.624.09.049.132.142.172.28.042.093.037.23-.013.319a.96.96 0 0 1-.192.266c-.046-.002-.139.04-.232.082z" fill="#fff"/></svg>