<svg xmlns="http://www.w3.org/2000/svg" xmlns:xlink="http://www.w3.org/1999/xlink" width="526" height="353" fill="none" xmlns:v="https://vecta.io/nano"><g fill="#fff"><path opacity=".4" d="M478.026 36H372.004c-3.755 0-6.824 3.065-6.824 6.848v67.304c0 3.783 3.069 6.848 6.824 6.848h106.022c3.755 0 6.825-3.065 6.825-6.848V42.848c0-3.783-3.037-6.848-6.825-6.848z"/><path d="M478.517 40.338H371.515c-1.013 0-1.796.815-1.796 1.826v67.239c0 1.011.816 1.826 1.796 1.826h107.002c1.012 0 1.795-.815 1.795-1.826V42.164c0-1.011-.816-1.826-1.795-1.826z"/></g><path opacity=".15" d="M478.517 40.337H371.515c-1.013 0-1.796.815-1.796 1.826v67.239c0 1.011.816 1.827 1.796 1.827h107.002c1.012 0 1.795-.816 1.795-1.827V42.163c0-1.011-.816-1.826-1.795-1.826z" fill="#3c76f2"/><path opacity=".5" d="M497.911 149.543H352.118c-.718 0-1.404-.196-2.024-.522-.621-.359-1.143-.848-1.502-1.467a4.41 4.41 0 0 1-.588-2.022c-.033-.718.131-1.402.457-2.054l14.792-22.892c.555-1.076 1.436-1.989 2.449-2.608 1.045-.62 2.22-.946 3.428-.946h111.639c1.208 0 2.416.326 3.461.946s1.894 1.532 2.449 2.608l14.791 22.892a4.03 4.03 0 0 1 .457 2.054c-.032.717-.228 1.402-.587 2.022s-.882 1.108-1.502 1.467c-.523.326-1.208.522-1.927.522z" fill="#fff"/><path d="M501.993 145.304c.033.555-.065 1.109-.261 1.631s-.49.978-.881 1.369-.849.718-1.339.913c-.49.229-1.045.327-1.6.327H352.119c-.555 0-1.078-.098-1.6-.327-.49-.228-.98-.521-1.339-.913-.392-.391-.685-.88-.881-1.369-.196-.522-.294-1.076-.262-1.631v3.653c0 1.076.458 2.119 1.209 2.869a4.08 4.08 0 0 0 2.873 1.174h145.793c1.077 0 2.09-.424 2.873-1.206.751-.75 1.208-1.794 1.208-2.87v-3.62z" fill="#454056"/><path opacity=".4" d="M453.409 146.543h-56.75a1.5 1.5 0 0 1-.653-.163c-.196-.098-.359-.261-.49-.457a1.18 1.18 0 0 1-.196-.652c0-.228.033-.457.164-.652l2.253-7.337c.196-.359.457-.652.783-.848s.719-.293 1.11-.293h50.808c.391 0 .783.097 1.11.293s.62.489.783.848l2.221 7.337a1.48 1.48 0 0 1 .163.652c0 .228-.065.456-.196.652s-.294.359-.49.457c-.196.13-.392.163-.62.163z" fill="#fff"/><path opacity=".4" d="M474.205 133.631h-98.381a1.52 1.52 0 0 1-.751-.195 1.5 1.5 0 0 1-.555-.555c-.131-.228-.229-.489-.229-.75s.065-.521.196-.782l4.147-8.674c.228-.424.522-.75.914-.978s.849-.359 1.306-.359h88.358c.457 0 .914.13 1.306.359s.718.586.947.978l4.146 8.674a1.63 1.63 0 0 1 .196.782c0 .261-.065.555-.228.783-.131.228-.327.424-.588.554a2.24 2.24 0 0 1-.784.163z" fill="#1f1b2d"/><path d="M369.719 46.63h110.626v62.772c0 .228-.033.489-.131.684-.098.229-.228.424-.391.587s-.36.294-.588.392-.457.13-.686.13H371.515c-.49 0-.947-.195-1.274-.522a1.86 1.86 0 0 1-.522-1.271V46.63z" fill="#fff"/><g opacity=".2" fill="#3c76f2"><path d="M403.969 52.403h-11.493c-.294 0-.523.228-.523.522v11.543c0 .293.229.522.523.522h11.493c.294 0 .523-.228.523-.522V52.925a.54.54 0 0 0-.523-.522z"/><use xlink:href="#B"/><use xlink:href="#C"/><use xlink:href="#D"/><path d="M403.969 72.913h-11.493c-.294 0-.523.228-.523.522v11.543c0 .293.229.522.523.522h11.493c.294 0 .523-.228.523-.522V73.435c0-.294-.229-.522-.523-.522z"/><use xlink:href="#B" y="20.512"/><use xlink:href="#C" y="20.511"/><use xlink:href="#D" y="20.51"/><path d="M403.969 93.423h-11.493c-.294 0-.523.228-.523.522v11.543c0 .294.229.522.523.522h11.493c.294 0 .523-.228.523-.522V93.945c0-.294-.229-.522-.523-.522zm52.962 10.306h-41.534c-.621 0-1.143.521-1.143 1.141 0 .652.522 1.141 1.143 1.141h41.534c.62 0 1.142-.522 1.142-1.141 0-.652-.522-1.141-1.142-1.141z"/><use xlink:href="#C" y="41.021"/><use xlink:href="#D" y="41.02"/></g><path d="M373.769 44.642a1.17 1.17 0 1 0 0-2.348 1.17 1.17 0 0 0-1.175 1.174c.032.652.555 1.174 1.175 1.174z" fill="#f23c49"/><path d="M378.144 44.642a1.17 1.17 0 1 0 0-2.348 1.17 1.17 0 1 0 0 2.348z" fill="#fdbc31"/><path d="M382.488 44.642a1.17 1.17 0 1 0 0-2.348 1.17 1.17 0 1 0 0 2.348z" fill="#07c98b"/><defs ><path id="B" d="M456.931 62.706h-41.534c-.621 0-1.143.522-1.143 1.141 0 .652.522 1.141 1.143 1.141h41.534c.62 0 1.142-.522 1.142-1.141s-.522-1.141-1.142-1.141z"/><path id="C" d="M445.274 57.555h-29.877c-.621 0-1.143.522-1.143 1.141 0 .652.522 1.141 1.143 1.141h29.877c.62 0 1.142-.522 1.142-1.141s-.522-1.141-1.142-1.141z"/><path id="D" d="M451.086 52.403h-35.689c-.621 0-1.143.522-1.143 1.141 0 .652.522 1.141 1.143 1.141h35.721c.621 0 1.143-.522 1.143-1.141s-.522-1.141-1.175-1.141z"/></defs></svg>