<svg xmlns="http://www.w3.org/2000/svg" width="526" height="353" fill="none" xmlns:v="https://vecta.io/nano"><path d="M51.188 138.062v25.876a5.75 5.75 0 0 0 5.75 5.75h66.125a5.75 5.75 0 0 0 4.066-1.685c1.079-1.078 1.684-2.541 1.684-4.065v-25.876H51.188z" fill="#8d5f45"/><path d="M125.938 103.562H54.063a5.75 5.75 0 0 0-5.75 5.75v28.75h83.375v-28.75c0-1.524-.606-2.987-1.685-4.065s-2.541-1.685-4.065-1.685z" fill="#6a4d3c"/><path d="M107.25 89.188c0-.763-.303-1.494-.842-2.033s-1.271-.842-2.033-.842h-28.75c-.763 0-1.494.303-2.033.842s-.842 1.27-.842 2.033v2.875h34.5v-2.875z" fill="#fd5631"/><path d="M90 145.25a7.19 7.19 0 0 0 7.188-7.188A7.19 7.19 0 0 0 90 130.875a7.19 7.19 0 0 0-7.187 7.187A7.19 7.19 0 0 0 90 145.25z" fill="#fdbc31"/><g fill="#fff"><path d="M91.438 139.5v-2.875c0-.381-.151-.747-.421-1.016s-.635-.421-1.016-.421-.747.151-1.016.421-.421.635-.421 1.016v2.875c0 .381.151.747.421 1.016s.635.422 1.016.422.747-.152 1.016-.422.421-.635.421-1.016z"/><path opacity=".4" d="M104.375 92.063h2.875v11.499h-2.875V92.063zm-31.625 0h2.875v11.499H72.75V92.063z"/></g></svg>