<svg xmlns="http://www.w3.org/2000/svg" viewBox="0 0 196 80" fill="#e61a27" xmlns:v="https://vecta.io/nano"><path d="M84.1 54.3c-4.5-2.9-10.5-3.4-20.3-.7-10.4 2.4-13.9 4-18.4.9-1.8-1.5-2.4-4-1.9-7.6 1.1-5.8 4-11.5 9.3-17.7 2.9-3.2 5.6-6 9.2-7.2 2.7-.7 2.5 1.4 2.1 1.8-.3 0-.9.1-1.4.4-.4.3-1.4 1.2-1.4 2.4-.1 1.9 1.9 1.5 2.7.5.9-1.2 2.3-3.4 1.2-5.5-.4-.7-1.2-1.3-2.2-1.4-3.3-.2-6.3 1.4-9.1 3.1-6.2 4.1-11.1 10-13.9 16.5-1.6 3.9-3.1 9.5-.9 14.1 1.7 3.2 5.2 4.8 9.3 4.5 2.9-.3 6.5-1.3 8.8-1.8 2.4-.6 14.5-4.8 18.5 2.5 0 0 1.3-2.6 4.7-2.6 2.7-.3 6.7.8 9.5 2.9-.8-1.5-3.5-3.7-5.8-5.1zM65 29.9c-2.3-1.5-6.8 1.4-10.5 6.3-3.3 4.4-4.8 9.5-3.2 11.9 2.3 2.8 6.7-1.3 8.5-3.4l.2-.3c1.3-1.3 2.2-3 3.2-4.5 0 0 .9-1.4.9-1.5.5-.1 1.2-.3 1.9-.5 0 0-2.8 4.7-2.5 7 .1.7 0 3.3 2.5 4.1 3.3.6 6-2 8.4-4.3l.6-.6v.3c-1 3.4.3 4.1 1.2 4.4 2.5.7 5.5-2.9 5.5-2.9-.1 1.1-.3 2.1.9 2.8 1.1.4 2.3-.2 3.2-.8 3.1-2.2 5.7-5.7 7.7-8.7h-1.3s-3.2 4.6-5.3 5.7c0 0-.4.2-.6 0-.3-.2-.2-.7 0-1l8-13.9h-3.8l-.4.7s-.1-.1-.1-.2c-2.3-3.2-7.7 1.7-11.7 7.5-1.5 2.2-3.5 4.7-5.5 6.5 0 0-3 2.8-4.3.8-.5-.8-.3-2.1-.1-2.9 1.5-4.3 4.1-8.1 7-10.5.8-.6 1.7-.8 2.2-.6a.95.95 0 0 1 .2 1.3 2.52 2.52 0 0 0-1.7.6c-.9.9-1.2 1.8-.9 2.6 1.4 1.9 4.1-1.9 3.9-4.2 0-.8-.5-1.6-1.2-2-1-.6-2.5-.4-3.5 0-1.3.5-3.4 2.2-4.6 3.6-1.5 1.7-4.1 3.5-4.9 3.3.3-.4 2.5-5 .1-6.6h0zm18.3 6.6c.7-1 2.9-3.8 3.4-4.2 1.8-1.5 2.5-.9 2.5-.4-1.6 2.9-3.6 6.3-5.4 9.3l-.6.9c-.8 1.2-1.6 2.3-2.9 3-.2.1-.5.1-.7-.1s-.3-.4-.3-.7c.1-.9 1.1-3.8 4-7.8h0zm-20.6 1.8v.1L61 41.1c-1 1.3-2.2 3-3.8 3.8-.5.2-1.1.3-1.4-.2-.7-.8-.3-2 0-2.9l.1-.3c.8-2.2 2.1-4.2 3.4-6h.1c.8 1.5 2.3 2.2 3.4 2.6 0 .1-.1.1-.1.2h0zm1.6-3.2l-.7 1.7c-.1.1-.3 0-.5 0l-.3-.1c-1-.3-1.8-1-2-1.8-.3-1.6 1-2.8 1.6-3.3.6-.4 1.5-.6 2-.2.3.4.4.9.4 1.4-.1.8-.3 1.6-.5 2.3zm47.9 5.1A2.14 2.14 0 0 0 110 39c-3 .3-5.9 2.7-7.5 6.3-.8 1.8-1.3 3.3-1.5 5.7.9-1.1 2.8-2.8 5-3.8 0 0 .3-2.3 1.8-4.3.6-.8 1.7-2.2 3-1.8 1.1.4.7 3.5-.8 6.4-1.1 2.2-2.8 4.4-4.5 5.9-1.5 1.3-3.7 2.8-5.7 1.6-1.2-.7-1.8-2.2-1.7-4.2.6-5.5 3.1-10.3 6.7-15.6 3.7-5 7.8-10.1 13.4-12.9 1.1-.6 2.2-.7 3.1-.4 0 0-5.2 2.9-7.7 8.1-.6 1.3-1.5 3.1-.6 4.8.5.8 1.3.9 1.9.9 3-.7 5-3.5 6.6-6.1.9-2 1.8-3.9 1.8-6.1v-.9c1.4-.8 4.4.6 4.4.6 2.3.8 7.3 4.6 8.9 5.3.8-.9 2.1-2.4 2.9-3.1l-1.1-.7c-1.7-1.1-3.6-2.1-5.4-3.1-4.1-2.2-7.5-1.5-9.2-.8-.7.2-1.3.4-1.3.4-1.3-1.4-3.3-1.3-4.9-.9-5.5 1.6-10.6 5.4-16.1 12.1-4 5.2-6.5 9.8-7.9 14.2-1 3-1.3 7.4 1.2 10.1 2.1 2.2 5 1.7 7 .9 4.3-2.1 8.2-6.7 10.1-12 .6-1.5 1.1-3.7.3-5.4h0zm9.9-16.5c-.6 6.6-5.7 10.4-6.9 10.7-.8.2-2.1-.2-.9-2.9 1.7-3.7 4.6-6.9 7.8-8.5v.7h0zm30.3.8c-2.7 1.6-5.6 2.6-9 2.2a39.16 39.16 0 0 0-2.7 3.3c4.8 1.2 10-1.5 12.8-4.1 3-2.6 4.6-5.9 4.6-5.9s-2.4 2.6-5.7 4.5zM100.5 30h-3.6l-2 3.3h3.6l2-3.3zm42.8 24.6c-.4.3-.9.1-.7-.5.5-1.5 2.5-4.7 2.5-4.7l5.6-9.9h-3.8l-.6 1c-.2-.3-.7-1-.9-1.1-.9-.6-2.3-.3-3.3.2-4.1 2.4-7.1 7.2-9.5 10.9 0 0-2.5 4.1-3.9 4.4-1.1.1-1-1.4-.9-1.7.4-2.5 1.4-4.8 2.4-6.9 2-1.4 4.3-3.2 6.3-5.2 4.5-4.3 8.3-9.2 8.8-10.2 0 0-.6.1-1.3.1-3.5 4.8-10.5 11.8-12.7 12.9.9-2.3 7.1-13.2 12.3-18.4l.8-.8c1.3-1.2 2.6-2.5 3.6-2.7.1 0 .2 0 .4.3 0 1-.3 1.7-.7 2.5l-.6 1.2s.8-.2 1.4-.3c.6-1.2 1.3-2.5 1.1-4.1-.1-.5-.5-.9-.9-1-1.6-.3-3.3.9-4.6 1.8h-.1c-7 5.5-12.9 13.4-18.1 24.2-.4.3-1.8.6-2.1.5.5-1.1 1.2-2.5 1.5-4 .1-.4.1-.9.1-1.3 0-.9-.2-1.8-1.1-2.4-1-.5-2.2-.3-3 .1-3.7 1.5-6.5 5.3-8.5 8.5-1.1 2-2.1 4.1-2.4 6.6-.2 1.9.2 3.1 1.3 3.8 1.1.6 2.5 0 3.1-.3 3.8-2 6.4-5.9 8.4-9.6.1 0 1.2 0 2.1-.3 0 .2-.5 1.5-.5 1.5-1.3 3.8-1.9 6.5-.7 8 1.8 2.2 4.7-.1 7.1-3.1-.5 3.6 1.3 4.1 2.8 3.9 1.6-.4 3.4-2.2 4.3-3.1-.3 1-.2 2.9 1.3 3.1 1 .2 1.8-.4 2.6-.8 3.1-1.7 6.9-7.4 7.9-9.1h-1.3c-1.5 1.9-3.2 4.7-5.5 6h0zm-28.2-.4a1.69 1.69 0 0 1-.3-1c0-2.2 2.3-6 3.9-8.1h0c.7 1.5 2.2 2.5 3.2 2.9-1.1 2.6-5.1 8.1-6.8 6.2h0zm7.5-7.4c-.1.1-2.1-.6-2.4-2.4-.3-1.6.8-2.8 1.8-3.4.4-.4 1.1-.5 1.6-.3.5.3.6.9.6 1.4 0 .4 0 .7-.1 1.1v.1c-.4 1.3-.9 2.4-1.5 3.5h0zm15.7 6.7l-.4.3c-.5.5-1.1 1-1.7.7a.55.55 0 0 1-.3-.5c0-1.3.6-2.6 1.2-3.8l.2-.3c1.7-2.8 3.7-6.2 6.6-8.5.5-.4 1-.6 1.6-.4.1.1.3.3.3.5 0 .1-.1.2-.1.3-.8 1.3-1.6 2.7-2.3 4-1.7 2.7-3.2 5.3-5.1 7.7z"/></svg>