<svg xmlns="http://www.w3.org/2000/svg" viewBox="0 0 196 80" fill="#bbb7c5" xmlns:v="https://vecta.io/nano"><path d="M52.8 20h1.1a15.07 15.07 0 0 1 10 4.2L61 27.1c-1.5-1.3-3.2-2.4-5.2-2.7-2.9-.6-5.9-.1-8.3 1.6-2.6 1.7-4.4 4.6-4.8 7.7s.4 6.3 2.4 8.7c1.9 2.3 4.8 3.8 7.9 3.9 2.8.2 5.8-.7 7.8-2.7 1.6-1.4 2.4-3.5 2.6-5.6h-10v-4.1h14.1c.7 4.4-.3 9.5-3.7 12.6-2.3 2.3-5.4 3.6-8.6 3.8-3.1.3-6.3-.3-9-1.8-3.3-1.8-5.9-4.7-7.2-8.2-1.2-3.2-1.2-6.8-.1-10 1-2.9 3-5.5 5.5-7.3 2.4-1.8 5.4-2.8 8.4-3zm80.7 1h4.3v28.8h-4.3V21zM77 31c2.7-.5 5.5.1 7.7 1.7 2 1.4 3.4 3.6 3.8 6 .5 2.8-.1 5.9-2 8.1-2 2.5-5.2 3.8-8.3 3.6-2.9-.2-5.6-1.6-7.3-3.9-1.9-2.6-2.4-6.1-1.3-9.1 1.1-3.3 4-5.8 7.4-6.4zm.6 3.8c-1.1.3-2.1.9-2.8 1.8-2 2.3-1.8 6.1.3 8.3 1.2 1.2 3.1 1.8 4.8 1.5 1.6-.3 3-1.3 3.7-2.8 1.3-2.4.9-5.7-1.1-7.6-1.3-1.1-3.2-1.6-4.9-1.2zM98.3 31c3-.6 6.4.3 8.6 2.4 3.7 3.3 4.1 9.5.9 13.4-1.9 2.4-5 3.7-8.1 3.6-2.9-.1-5.8-1.5-7.5-3.9-2-2.6-2.4-6.3-1.3-9.3 1.2-3.2 4.1-5.6 7.4-6.2zm.6 3.8c-1.1.3-2.1.9-2.8 1.8-1.9 2.3-1.9 6 .2 8.2 1.2 1.3 3.1 2 4.9 1.6 1.6-.3 3-1.3 3.7-2.8 1.3-2.4.9-5.7-1.1-7.6-1.3-1.1-3.2-1.6-4.9-1.2zm17.5-2.6c2.3-1.4 5.4-1.9 7.9-.6.8.3 1.4.9 2.1 1.5v-1.7h4.1v17.8c0 2.7-.7 5.5-2.6 7.5-2.1 2.2-5.4 2.8-8.3 2.4-3.1-.5-5.8-2.7-7-5.6 1.2-.6 2.5-1 3.7-1.6.7 1.7 2.1 3.1 3.9 3.4s3.9-.1 5-1.6c1.2-1.5 1.2-3.6 1.2-5.5-.9.9-2 1.7-3.3 2-2.8.8-5.9-.2-8-2.1-2.2-1.9-3.5-4.8-3.3-7.7 0-3.3 1.8-6.5 4.6-8.2zm4.2 2.6c-1.2.2-2.4.9-3.2 1.8-1.9 2.3-1.9 5.9 0 8.1 1.1 1.3 2.8 2 4.5 1.9 1.6-.2 3.1-1.2 3.8-2.6 1.3-2.4 1.1-5.6-.7-7.6-1-1.3-2.8-1.9-4.4-1.6zm22.4-1.6c2.4-2.3 6.1-3 9.2-1.8 2.9 1.1 4.8 3.9 5.8 6.8l-13.1 5.4c.6 1.1 1.5 2.2 2.8 2.6 1.8.6 3.8.4 5.3-.8.6-.4 1-1 1.5-1.6l3.3 2.2c-1.6 2.4-4.2 4-7 4.3-3.1.4-6.5-.8-8.5-3.3-3.4-3.8-3.1-10.3.7-13.8zm2.2 3.7c-.7 1-1 2.2-.9 3.4l8.8-3.6c-.5-1.1-1.7-1.8-2.8-2-2.1-.4-4.1.7-5.1 2.2z"/></svg>