<svg xmlns="http://www.w3.org/2000/svg" viewBox="0 0 196 80" xmlns:v="https://vecta.io/nano"><path d="M154.8 29.4h.5c.3 0 .4 0 .5-.1s.1-.2.1-.3 0-.2-.1-.2c0-.1-.1-.1-.2-.1h-.4-.5l.1.7zm-.4 1.5v-2.7h.9c.3 0 .5 0 .7.1.1 0 .3.1.3.3.1.1.1.3.1.4 0 .2-.1.4-.2.5s-.3.2-.6.2c.1 0 .2.1.2.1.1.1.2.3.4.5l.3.5h-.5l-.2-.4c-.2-.3-.3-.5-.5-.6-.1-.1-.2-.1-.3-.1h-.3v1.1h-.3zm1.1-3.5a1.69 1.69 0 0 0-1 .3c-.3.2-.6.4-.8.8a1.93 1.93 0 0 0-.3 1 1.69 1.69 0 0 0 .3 1c.2.3.4.6.8.8a1.93 1.93 0 0 0 1 .3 1.69 1.69 0 0 0 1-.3c.3-.2.6-.4.8-.8a1.93 1.93 0 0 0 .3-1 1.69 1.69 0 0 0-.3-1c-.2-.3-.5-.6-.8-.8a1.93 1.93 0 0 0-1-.3m0-.4c.4 0 .8.1 1.2.3a1.96 1.96 0 0 1 .9.9c.2.4.3.8.3 1.3 0 .4-.1.8-.3 1.2a1.96 1.96 0 0 1-.9.9c-.4.2-.8.3-1.2.3s-.9-.1-1.2-.3a1.96 1.96 0 0 1-.9-.9c-.2-.4-.3-.8-.3-1.2a3.08 3.08 0 0 1 .3-1.3 1.96 1.96 0 0 1 .9-.9c.4-.2.8-.3 1.2-.3" fill="gray"/><path d="M51.7 23.9c-1.3 0-2.5.3-3.7.7-4.7 1.9-7.9 6.2-9.4 11.3l-.6 2.9s-.1 1 .1.7c.1-.2.2-.6.3-.8.7-2.4 1.6-4.6 2.9-6.6 3.2-4.7 8.3-7.7 13.7-6 1 .3 1.9.8 2.8 1.4.2.1 1.4 1.1 1.1.2-.2-.7-.8-1.3-1.3-1.8-1.8-1.5-3.8-2-5.9-2h0zm39.4 4.7c-.7 0-1.3.2-1.7.8-.4.5-.6 1.2-.6 2.2v7c-.9-1-1.8-1.7-2.8-2.2-.6-.3-1.3-.5-2.1-.6-.5-.1-.9-.1-1.4-.1-2.4 0-4.3.8-5.7 2.5-1.5 1.7-2.2 4-2.2 7a16 16 0 0 0 .5 3.9c.4 1.2.9 2.3 1.6 3.1.7.9 1.5 1.6 2.5 2.1s2 .7 3.2.7c.5 0 1 0 1.5-.1.3 0 .6-.1.9-.2.7-.2 1.4-.6 2-1 .6-.5 1.2-1.1 1.9-1.8v.5c0 .9.2 1.5.6 2s1 .7 1.6.7 1.2-.2 1.6-.7.6-1.1.6-2.1v-21c0-.9-.2-1.6-.6-2-.2-.5-.7-.7-1.4-.7h0zm58.2 0c-.7 0-1.3.2-1.7.8-.4.5-.6 1.2-.6 2.2v7c-.9-1-1.8-1.7-2.8-2.2-.6-.3-1.3-.5-2.1-.6-.5-.1-.9-.1-1.4-.1-2.4 0-4.3.8-5.7 2.5s-2.2 4-2.2 7c0 1.4.2 2.7.6 3.9s.9 2.3 1.6 3.1c.7.9 1.5 1.6 2.5 2.1s2 .7 3.2.7c.5 0 1 0 1.5-.1.3 0 .6-.1.9-.2.7-.2 1.4-.6 2-1 .6-.5 1.3-1.1 1.9-1.8v.5c0 .9.2 1.5.6 2s1 .7 1.6.7c.7 0 1.2-.2 1.6-.7s.6-1.1.6-2.1v-21c0-.9-.2-1.6-.6-2-.3-.5-.8-.7-1.5-.7h0zm-98.9 1.3c-.7 0-1.3.1-1.9.4a3.94 3.94 0 0 0-1.7 5.3 3.94 3.94 0 0 0 5.3 1.7 3.94 3.94 0 0 0 1.7-5.3c-.6-1.3-1.9-2.1-3.4-2.1h0zm53.8 5.7c-1.4 0-2.6.2-3.8.7s-2.2 1.1-3 2-1.4 1.9-1.8 3.1-.6 2.5-.6 3.9c0 3 .9 5.3 2.6 7.1 1.6 1.7 3.8 2.5 6.6 2.6h.5c1.3 0 2.5-.2 3.5-.5 1-.4 1.9-.8 2.6-1.3s1.2-1.1 1.5-1.7.5-1.1.5-1.5c0-.5-.2-.9-.4-1.1-.3-.3-.7-.4-1.2-.4s-.8.1-1 .3c-.5.5-1 .9-1.4 1.3l-1.2.9c-.4.3-.9.5-1.4.6s-1 .2-1.6.2h-.4c-.7 0-1.4-.2-2-.6-.7-.4-1.3-1-1.7-1.8s-.6-1.8-.7-2.9h9.3c1.2 0 2.2-.2 2.9-.5.7-.4 1-1.1 1-2.3 0-1.3-.3-2.6-1-3.8s-1.7-2.3-3-3c-1.3-.8-2.9-1.2-4.8-1.2v-.1zm19 0c-1.4 0-2.6.2-3.8.7s-2.2 1.1-3 2-1.4 1.9-1.8 3.1-.6 2.5-.6 3.9c0 3 .8 5.3 2.5 7.1 1.6 1.7 3.8 2.5 6.6 2.6h.5c1.3 0 2.5-.2 3.5-.5 1-.4 1.9-.8 2.6-1.3s1.2-1.1 1.5-1.7.5-1.1.5-1.5c0-.5-.2-.9-.5-1.1-.3-.3-.7-.4-1.2-.4-.4 0-.8.1-1 .3-.6.6-1.1 1-1.4 1.3l-1.2.9c-.4.3-.9.5-1.4.6s-1 .2-1.6.2h-.4c-.7 0-1.4-.2-2-.6-.7-.4-1.3-1-1.7-1.8s-.6-1.8-.6-2.9h9.3c1.2 0 2.2-.2 2.9-.5.7-.4 1-1.1 1-2.3 0-1.3-.3-2.6-1-3.8s-1.7-2.3-3-3c-1.3-.8-2.9-1.2-4.8-1.2l.1-.1zm-64.7.1c-.7 0-1.2.2-1.6.7-.4.4-.6 1.1-.6 2v13.7c0 .9.2 1.7.7 2.1.4.5 1 .8 1.7.8s1.3-.2 1.7-.7.7-1.2.7-2.2v-5.9c0-2 .1-3.3.3-4 .3-.9.8-1.6 1.5-2.1s1.5-.8 2.3-.8c1.3 0 2.2.4 2.6 1.2s.6 2 .6 3.6V52c0 .9.2 1.7.7 2.1.4.5 1 .8 1.7.8s1.3-.2 1.7-.7.7-1.2.7-2.2v-8.8c0-1 0-1.9-.1-2.6s-.3-1.3-.6-1.9c-.5-1-1.2-1.8-2.2-2.3s-2.1-.8-3.4-.8-2.4.3-3.4.8-1.9 1.3-2.7 2.4v-.6c0-.6-.1-1-.3-1.4a2.36 2.36 0 0 0-.8-.9c-.5-.1-.8-.2-1.2-.2h0zm45.7 3.2h0c1.2 0 2.3.4 3 1.2.8.8 1.2 2 1.3 3.7h-8.6c.2-1.6.6-2.8 1.4-3.6.7-.9 1.7-1.3 2.9-1.3h0zm19 0h0c1.2 0 2.3.4 3 1.2.8.8 1.2 2 1.3 3.7h-8.6c.2-1.6.6-2.8 1.4-3.6.8-.9 1.7-1.3 2.9-1.3h0zm-39.3.3h0c.9 0 1.6.2 2.3.7s1.3 1.2 1.7 2.1.6 2 .6 3.3c0 1.4-.2 2.5-.6 3.4s-1 1.6-1.7 2-1.5.6-2.3.6h0c-.8 0-1.6-.2-2.3-.7s-1.2-1.1-1.6-2-.6-2-.6-3.3c0-1.2.2-2.3.6-3.2s.9-1.6 1.6-2.1 1.5-.8 2.3-.8h0zm58.2 0h0c.9 0 1.6.2 2.3.7s1.2 1.2 1.7 2.1c.4.9.6 2 .6 3.3 0 1.4-.2 2.5-.6 3.4s-1 1.6-1.7 2-1.5.7-2.3.6h0c-.8 0-1.6-.2-2.3-.7s-1.2-1.1-1.6-2-.6-2-.6-3.3c0-1.2.2-2.3.6-3.2s.9-1.6 1.6-2.1 1.5-.8 2.3-.8h0zm-89 .2c-1.2.7-2.7 1.2-4.2 1.2h-1V52c0 1 .2 1.8.7 2.4.5.5 1.1.8 1.9.8s1.4-.3 1.9-.8.7-1.3.7-2.4V39.4h0z" fill-rule="evenodd" fill="#2164f3"/></svg>