<svg xmlns="http://www.w3.org/2000/svg" viewBox="0 0 196 80" fill="#bbb7c5" xmlns:v="https://vecta.io/nano"><path d="M158 38.6v-2.1h-2.6v-3.3h-.1l-2.5.8h0v2.5h-3.9v-1.4c0-.6.1-1.1.4-1.5.3-.3.7-.5 1.2-.5.4 0 .8.1 1.1.3h.1v-2.2h0c-.4-.1-.8-.2-1.5-.2a4.65 4.65 0 0 0-2.1.5 3.16 3.16 0 0 0-1.4 1.4 4.65 4.65 0 0 0-.5 2.1v1.5h-1.8v2.1h1.8v8.9h2.6v-8.9h3.9v5.6c0 2.3 1.1 3.5 3.3 3.5.4 0 .7 0 1.1-.1s.7-.2.8-.3h0v-2.1l-.1.1c-.1.1-.3.2-.5.2-.2.1-.4.1-.5.1-.5 0-.9-.1-1.1-.4s-.4-.7-.4-1.4v-5.2h2.7zm-19.4 7c-1 0-1.7-.3-2.2-.9s-.8-1.5-.8-2.6c0-1.2.3-2.1.8-2.7s1.3-1 2.2-1 1.6.3 2.1.9.8 1.5.8 2.7-.2 2.1-.7 2.7-1.2.9-2.2.9h0zm.1-9.4c-1.8 0-3.3.5-4.3 1.6-1 1-1.5 2.5-1.5 4.3 0 1.7.5 3.1 1.5 4.1s2.4 1.5 4.1 1.5c1.8 0 3.2-.5 4.2-1.6s1.5-2.5 1.5-4.3c0-1.7-.5-3.1-1.5-4.1-.9-1-2.3-1.5-4-1.5h0zm-10 0c-1.2 0-2.3.3-3 .9-.8.6-1.2 1.4-1.2 2.4 0 .5.1 1 .3 1.4s.4.7.8 1c.3.3.9.6 1.6.9.6.2 1 .5 1.3.6.3.2.5.3.6.5s.2.4.2.6c0 .7-.6 1.1-1.7 1.1-.4 0-.9-.1-1.4-.3s-1-.4-1.5-.7l-.1-.1V47h0c.4.2.8.3 1.4.4s1 .2 1.5.2c1.3 0 2.4-.3 3.2-.9s1.2-1.5 1.2-2.5c0-.7-.2-1.4-.6-1.9s-1.2-1-2.2-1.4c-.8-.3-1.3-.6-1.6-.8-.2-.2-.3-.5-.3-.8s.1-.6.4-.8.6-.3 1.1-.3c.4 0 .9.1 1.3.2s.8.3 1.2.5l.1.1v-2.4h0c-.3-.1-.7-.2-1.2-.3-.6 0-1.1-.1-1.4-.1h0zm-11.1 9.4c-1 0-1.7-.3-2.2-.9s-.8-1.5-.8-2.6c0-1.2.3-2.1.8-2.7s1.3-1 2.2-1 1.6.3 2.1.9.8 1.5.8 2.7-.2 2.1-.7 2.7-1.2.9-2.2.9h0zm.1-9.4c-1.8 0-3.3.5-4.3 1.6-1 1-1.5 2.5-1.5 4.3 0 1.7.5 3.1 1.5 4.1s2.4 1.5 4.1 1.5c1.8 0 3.2-.5 4.2-1.6s1.5-2.5 1.5-4.3c0-1.7-.5-3.1-1.5-4.1-.9-1-2.3-1.5-4-1.5h0zm-9.8 2.2v-1.9h-2.6v11h2.6v-5.6c0-1 .2-1.7.6-2.3s1-.9 1.7-.9c.2 0 .5 0 .8.1s.5.2.6.2l.1.1v-2.6h0c-.2-.1-.6-.2-1-.2a2.52 2.52 0 0 0-1.7.6c-.5.4-.8.9-1.1 1.5h0zm-7.2-2.2c-1.2 0-2.2.3-3.1.8s-1.6 1.2-2.1 2.1-.7 2-.7 3.2c0 1 .2 2 .7 2.8s1.1 1.5 1.9 2 1.8.7 2.8.7c1.2 0 2.3-.2 3.1-.7h0v-2.4l-.1.1c-.4.3-.8.5-1.3.7s-.9.2-1.2.2c-1 0-1.8-.3-2.4-.9s-.9-1.5-.9-2.6.3-2 .9-2.7 1.4-1 2.4-1c.9 0 1.7.3 2.5.9l.1.1V37h0c-.3-.2-.7-.3-1.2-.4-.4-.3-.9-.4-1.4-.4h0zm-7.7.3h-2.6v11H93v-11h0zm-1.3-4.7c-.4 0-.8.1-1.1.4s-.5.7-.5 1.1.2.8.5 1.1.7.4 1.1.4.8-.1 1.1-.4.5-.6.5-1.1c0-.4-.2-.8-.5-1.1s-.6-.4-1.1-.4zm-6.4 3.9v11.8h2.6V32.1h-3.7l-4.6 11.4-4.5-11.4h-3.8v15.4h2.5V35.7h.1l4.8 11.8h1.9l4.7-11.8h0 0zm-35.1 3.5H38V27h12.2v12.2zm13.4 0H51.4V27h12.2v12.2zM50.2 52.6H38V40.4h12.2v12.2zm13.4 0H51.4V40.4h12.2v12.2z"/></svg>