<svg xmlns="http://www.w3.org/2000/svg" viewBox="0 0 196 80" fill="#bbb7c5" xmlns:v="https://vecta.io/nano"><path d="M76.4 48.9l1.5-3.5c1.6 1.2 3.8 1.8 5.9 1.8 1.6 0 2.6-.6 2.6-1.5 0-2.6-9.4-.6-9.5-7 0-3.3 2.9-5.8 7-5.8 2.4 0 4.9.6 6.6 2l-1.4 3.6c-1.6-1-3.6-1.7-5.5-1.7-1.3 0-2.1.6-2.1 1.4 0 2.5 9.5 1.1 9.6 7.3 0 3.3-2.8 5.7-6.9 5.7-3-.1-5.7-.8-7.8-2.3zm57.5-4.7c-.7 1.3-2.2 2.2-3.8 2.2-2.4 0-4.3-1.9-4.3-4.3s1.9-4.3 4.3-4.3c1.6 0 3 .9 3.8 2.2l4.1-2.3c-1.5-2.8-4.5-4.6-7.9-4.6-5 0-9.1 4.1-9.1 9.1s4.1 9.1 9.1 9.1c3.4 0 6.4-1.9 7.9-4.6l-4.1-2.5zM93.1 25.5h5.2v25.3h-5.2V25.5zm47 0v25.3h5.2v-7.6l6.1 7.6h6.6l-7.8-9 7.2-8.4h-6.3l-5.9 7V25.5h-5.1z" fill-rule="evenodd"/><path d="M113.7 44.2c-.7 1.2-2.3 2.2-4 2.2-2.4 0-4.3-1.9-4.3-4.3s1.9-4.3 4.3-4.3c1.7 0 3.3 1 4 2.2v4.2zm0-10.9v2.1c-.8-1.4-2.9-2.4-5.2-2.4-4.5 0-8.1 4-8.1 9s3.6 9.1 8.1 9.1c2.2 0 4.3-1 5.2-2.4v2.1h5.2V33.3h-5.2z"/><path d="M44.4 44.2c0 1.8-1.4 3.2-3.2 3.2S38 46 38 44.2s1.4-3.2 3.2-3.2h3.2v3.2zm1.6 0c0-1.8 1.4-3.2 3.2-3.2s3.2 1.4 3.2 3.2v8c0 1.8-1.4 3.2-3.2 3.2S46 53.9 46 52.2v-8zm3.2-12.8c-1.8 0-3.2-1.4-3.2-3.2s1.4-3.2 3.2-3.2 3.2 1.4 3.2 3.2v3.2h-3.2zm0 1.6c1.8 0 3.2 1.4 3.2 3.2s-1.4 3.2-3.2 3.2h-8c-1.8 0-3.2-1.4-3.2-3.2s1.4-3.2 3.2-3.2h8zM62 36.2c0-1.8 1.4-3.2 3.2-3.2s3.2 1.4 3.2 3.2-1.4 3.2-3.2 3.2H62v-3.2zm-1.6 0c0 1.8-1.4 3.2-3.2 3.2S54 38 54 36.2v-8c0-1.8 1.4-3.2 3.2-3.2s3.2 1.4 3.2 3.2v8zM57.2 49c1.8 0 3.2 1.4 3.2 3.2s-1.4 3.2-3.2 3.2-3.2-1.5-3.2-3.2V49h3.2zm0-1.6c-1.8 0-3.2-1.4-3.2-3.2s1.4-3.2 3.2-3.2h8c1.8 0 3.2 1.4 3.2 3.2s-1.4 3.2-3.2 3.2h-8z" fill-rule="evenodd"/></svg>