<svg xmlns="http://www.w3.org/2000/svg" viewBox="0 0 196 80" xmlns:v="https://vecta.io/nano"><path d="M143.4 35.6c.7 0 1.2-.3 1.3-.8l.7-7.5c0-.7-.9-1.3-2-1.3s-1.9.6-1.9 1.3l.7 7.5c0 .5.5.8 1.2.8h0zm-4 2.3c.3-.6.3-1.2 0-1.5l-6.1-4.3c-.6-.4-1.6.1-2.1 1s-.4 2 .2 2.4l6.8 3.2c.3.1.8-.2 1.2-.8h0zm8 0c.3.6.9.9 1.3.7l6.8-3.2c.6-.4.7-1.4.2-2.4-.5-.9-1.5-1.4-2.1-1l-6.1 4.3c-.4.4-.4 1.1-.1 1.6h0zm-4 7c.7 0 1.2.3 1.3.8l.7 7.5c0 .7-.9 1.3-2 1.3s-1.9-.6-1.9-1.3l.7-7.5c0-.4.5-.8 1.2-.8h0zm4-2.3c.3-.6.9-.9 1.3-.7l6.8 3.2c.6.4.7 1.4.2 2.4-.5.9-1.5 1.4-2.1 1l-6.1-4.3c-.4-.4-.4-1-.1-1.6h0 0zm-8 0c.3.6.3 1.2 0 1.5l-6.1 4.3c-.6.4-1.6-.1-2.1-1s-.4-2 .2-2.4l6.8-3.2c.3-.1.8.2 1.2.8h0" fill="#fdbb30"/><path d="M104.7 44.1c0 .2 0 .5-.1.7-.3.9-1.2 1.6-2.3 1.6-.9 0-1.7-.5-1.7-1.6 0-1.7 1.9-2.2 4-2.2l.1 1.5h0zm3.4-3c0-2.8-1.2-5.3-5.3-5.3-2.1 0-3.7.6-4.7 1.1l.7 2.3c.8-.5 2.1-1 3.4-1 2.1 0 2.4 1.2 2.4 1.9v.2c-4.5 0-7.3 1.6-7.3 4.7 0 1.9 1.4 3.8 4 3.8 1.5 0 2.8-.6 3.6-1.6h.1s.5 2.1 3.3 1.3l-.2-3v-4.4h0zM38 32l3.4 14c.5 2.3 1.5 3.1 4.4 2.6l1.8-7.5 1.1-5.1h.1c.2 1.9.5 3.2.9 5.1l1.1 5.2c.4 1.8 1.5 2.9 4.2 2.3L59.4 32h-3.5l-1.5 7.2-1 5.6h0l-1-5.5-1.7-7.3H47l-1.7 7.1-1.2 5.7H44l-1.1-6-1.3-6.8H38zm28.1 12.1c0 .2 0 .5-.1.7-.3.9-1.2 1.6-2.3 1.6-.9 0-1.7-.5-1.7-1.6 0-1.7 1.9-2.2 4-2.2l.1 1.5h0zm3.3-3c0-2.8-1.2-5.3-5.3-5.3-2.1 0-3.7.6-4.7 1.1l.7 2.3c.8-.5 2.1-1 3.4-1 2.1 0 2.4 1.2 2.4 1.9v.2c-4.5 0-7.3 1.6-7.3 4.7 0 1.9 1.4 3.8 4 3.8 1.5 0 2.8-.6 3.6-1.6h.1s.5 2.1 3.3 1.3l-.2-3v-4.4zM75 45V32h-3.4v16.6H75V45zm44-13v12.2c0 1.7.3 2.9 1 3.6.6.6 1.6 1 2.7 1 1 0 2-.2 2.4-.4v-2.6c-.3.1-.7.2-1.3.2-1.1 0-1.5-.7-1.5-2.2v-4.7h2.9v-3.2h-2.9V32H119zm-8.7 4.1v12.4h3.5v-6.4c0-.3 0-.6.1-.9.3-1.3 1.3-2.2 2.7-2.2.4 0 .7 0 1 .1v-3.3c-.3-.1-.4-.1-.8-.1-1.3 0-2.8.8-3.4 2.6h-.1V36h-3zm-32.9 0v12.4h3.4v-7.3c0-.3 0-.7.2-1 .3-.7 1-1.6 2.1-1.6 1.4 0 2 1.2 2 2.8v7.1h3.4v-7.4c0-.3 0-.7.1-1 .3-.8 1-1.5 2-1.5 1.4 0 2 1.1 2 3.1v6.8H96v-7.3c0-3.9-2-5.4-4.2-5.4-1 0-1.8.2-2.5.7-.6.4-1.1.9-1.6 1.5h0c-.5-1.3-1.8-2.2-3.4-2.2-2.1 0-3 1.1-3.6 2h-.1v-1.7h-3.2" fill="#1a75cf"/><path d="M157.3 47.9h0c.1 0 .2 0 .2-.1 0 0 0-.1-.1-.1h-.1v.2h0 0zm0 .4h-.2v-.6h.3.2l.1.1c0 .1-.1.1-.1.1h0c.1 0 .1.1.1.2v.1h-.2v-.1c0-.1 0-.1-.1-.1h-.1v.3zm0-.8a.47.47 0 0 0-.5.5.47.47 0 1 0 1 0 .47.47 0 0 0-.5-.5h0zm.1-.2c.4 0 .6.3.6.6 0 .4-.3.6-.7.6s-.7-.3-.7-.6c.1-.3.4-.6.8-.6h0" fill="#fdbb30"/></svg>