<svg xmlns="http://www.w3.org/2000/svg" width="341" height="320" fill="none" xmlns:v="https://vecta.io/nano"><g fill="#fff"><path d="M301.72 125.285L170.755 33.461 38.453 124.43l130.329 54.889 132.938-54.034z"/><path d="M38.958 124.345h.094l54.089 23.036 74.005 31.517c.29.122.6.185.914.186s.624-.058.915-.176l76.352-31.593 55.418-22.932.085-.038h.094c.874.001 1.713.348 2.331.965a3.29 3.29 0 0 1 .967 2.325V270.49a3.29 3.29 0 0 1-.967 2.325c-.618.617-1.457.964-2.331.965H38.958c-.875-.001-1.713-.348-2.331-.965a3.29 3.29 0 0 1-.967-2.325V127.635a3.29 3.29 0 0 1 .967-2.325c.618-.617 1.457-.964 2.331-.965z"/></g><path d="M38.72 125.285a.47.47 0 0 0 .269-.084l130.305-90.508c.396-.274.867-.421 1.35-.42a2.37 2.37 0 0 1 1.349.424L301.357 125.2c.103.071.229.099.352.077s.232-.091.304-.193a.47.47 0 0 0-.115-.654L172.533 33.928c-.554-.386-1.213-.593-1.889-.594s-1.335.204-1.89.588L38.45 124.429a.47.47 0 0 0-.18.527.47.47 0 0 0 .171.238c.081.059.179.091.279.091h0z" fill="#1f1b2d"/><path d="M293.966 128.493l-123.451-91.25-124.386 97.743 118.026 69.783 64.078-14.567 65.733-61.709z" fill="#efecf3"/><path d="M222.827 247.871h60.988a2.85 2.85 0 0 0 2.013-.83 2.84 2.84 0 0 0 .006-4.017c-.532-.534-1.256-.835-2.011-.836h-60.996a2.85 2.85 0 0 0-2.014.83 2.84 2.84 0 0 0-.006 4.017c.533.533 1.257.834 2.012.836h.008zm39.103-12.218h21.881a2.85 2.85 0 0 0 2.014-.83 2.84 2.84 0 0 0 .006-4.017c-.533-.533-1.256-.834-2.011-.836h-21.89a2.85 2.85 0 0 0-2.014.83 2.84 2.84 0 0 0-.836 2.007c-.001.753.298 1.476.83 2.01a2.85 2.85 0 0 0 2.012.836h.008z" fill="#fd5631"/><path d="M168.782 179.318c.463.001.922-.089 1.351-.264l76.136-31.507V48.923a3.29 3.29 0 0 0-.967-2.325c-.618-.617-1.457-.964-2.331-.965H96.91c-.874.001-1.713.348-2.331.965a3.29 3.29 0 0 0-.967 2.325v98.693l.143.061 73.634 31.362a3.58 3.58 0 0 0 1.393.279z" fill="#fff"/><g fill="#1f1b2d"><path d="M167.297 179.255l-73.92-31.484V48.923c.001-.934.374-1.83 1.036-2.491s1.561-1.032 2.498-1.033h146.06c.937.001 1.835.373 2.498 1.033s1.035 1.556 1.036 2.491v98.781l-76.281 31.568a3.84 3.84 0 0 1-2.927-.017h0zm78.266-130.332c-.001-.685-.274-1.342-.76-1.827a2.6 2.6 0 0 0-1.832-.758H96.911c-.687.001-1.346.273-1.831.758s-.759 1.141-.76 1.827v98.227l73.345 31.24a2.89 2.89 0 0 0 2.199.013l75.699-31.327V48.923z"/><path d="M36.365 127.635V270.49a3.29 3.29 0 0 0 .967 2.325c.618.617 1.457.964 2.331.965H301.63c.874-.001 1.713-.348 2.331-.965a3.29 3.29 0 0 0 .967-2.325V127.635a3.29 3.29 0 0 0-.967-2.325c-.618-.617-1.457-.964-2.331-.965h-.094l-.085.038-55.418 22.932-76.352 31.593c-.291.118-.602.178-.915.176s-.624-.064-.913-.186l-74.006-31.517-54.089-23.036h-.094c-.874.001-1.713.348-2.331.965a3.29 3.29 0 0 0-.967 2.325zm.942 0a2.35 2.35 0 0 1 .658-1.627c.421-.438.995-.697 1.603-.723L93.847 148.4l73.633 31.363a3.36 3.36 0 0 0 2.563.014l75.99-31.447 55.686-23.045c.609.024 1.185.283 1.607.72a2.35 2.35 0 0 1 .66 1.63V270.49a2.35 2.35 0 0 1-.691 1.661c-.441.441-1.04.689-1.665.689H39.663a2.36 2.36 0 0 1-1.666-.689c-.442-.44-.69-1.038-.69-1.661V127.635z"/></g><path d="M109.696 82.499h51.828a3.77 3.77 0 0 0 2.665-1.101c.707-.705 1.105-1.661 1.105-2.658s-.398-1.953-1.105-2.658a3.77 3.77 0 0 0-2.665-1.101h-51.828c-.999 0-1.958.396-2.665 1.101s-1.104 1.661-1.104 2.658.397 1.953 1.104 2.658 1.666 1.101 2.665 1.101zm.031-15.977h24.971c1 0 1.959-.396 2.666-1.101s1.104-1.661 1.104-2.658-.397-1.953-1.104-2.658-1.666-1.101-2.666-1.101h-24.971a3.77 3.77 0 0 0-2.665 1.101c-.707.705-1.104 1.661-1.104 2.658s.397 1.953 1.104 2.658a3.77 3.77 0 0 0 2.665 1.101z" fill="#fd5631"/><path d="M131.177 120.093h79.155c.999 0 1.958-.396 2.665-1.101s1.104-1.661 1.104-2.658-.397-1.954-1.104-2.659-1.666-1.101-2.665-1.101h-79.155c-1 0-1.959.396-2.666 1.101s-1.104 1.662-1.104 2.659.397 1.953 1.104 2.658 1.666 1.101 2.666 1.101zm0 17.387h79.155c.999 0 1.958-.396 2.665-1.101s1.104-1.661 1.104-2.658-.397-1.953-1.104-2.658-1.666-1.102-2.665-1.102h-79.155c-1 0-1.959.397-2.666 1.102s-1.104 1.661-1.104 2.658.397 1.953 1.104 2.658 1.666 1.101 2.666 1.101z" fill="#bbb7c5"/></svg>