<svg xmlns="http://www.w3.org/2000/svg" width="416" height="375" fill="none" xmlns:v="https://vecta.io/nano"><style><![CDATA[.B{fill:#454056}.C{fill:#fd5631}.D{fill:#efecf3}.E{fill:#666276}.F{fill:#facdc6}.G{fill:#d5d2dc}.H{fill:#f9f8fa}.I{fill-rule:evenodd}]]></style><path d="M299.371 237.518c-13.694-11.962-14.986-31.561-12.541-48.779.408-2.875.425-5.959 2.064-8.339s5.03-3.771 7.476-2.277c2.03 1.243 2.697 3.832 3.669 6.029a17.03 17.03 0 0 0 6.071 7.193c1.734 1.147 3.937 1.981 5.854 1.173 2.601-1.103 3.304-4.517 3.59-7.384l1.63-16.063c.287-2.866.599-5.803 1.778-8.426s3.426-4.943 6.236-5.421 6.01 1.468 6.279 4.344a26.33 26.33 0 0 1-.304 3.579c-.043 1.199.365 2.606 1.457 3.032s2.342-.226 3.296-.973c3.27-2.607 5.672-6.082 7.953-9.609s4.501-7.114 7.528-9.981 6.998-4.978 11.127-4.77 8.23 3.223 8.828 7.367-2.185 8.01-5.108 11.007a64.28 64.28 0 0 1-14.683 11.293 5.34 5.34 0 0 0-2.489 2.164c-.824 1.841.781 3.944 2.602 4.769 2.056.947 4.397.973 6.6 1.477s4.527 1.737 5.143 3.961c.867 3.058-1.925 5.873-4.553 7.628a55.19 55.19 0 0 1-17.224 7.627c-2.186.539-4.484.982-6.34 2.276s-3.165 3.77-2.35 5.907 3.374 3.067 5.629 2.893 4.336-1.164 6.539-1.737c4.102-1.06 9.158-.244 11.274 3.475 1.422 2.415 1.232 5.551.104 8.131-1.243 2.529-2.98 4.783-5.108 6.628-7.048 6.835-15.781 11.674-25.307 14.022-9.47 2.18-18.03 2.128-26.746-2.172" fill="#f5f4f8"/><g fill="#000"><path opacity=".2" d="M304.992 227.155c3.879-9.106 8.274-17.981 13.165-26.583l3.816-6.794c1.258-2.224 2.498-4.43 3.851-6.515a128.44 128.44 0 0 1 8.49-11.572c2.862-3.535 5.707-6.784 8.395-9.808s5.247-5.777 7.693-8.2a102.76 102.76 0 0 1 12.359-10.547c1.552-1.129 2.784-1.963 3.625-2.519l.962-.625a2.74 2.74 0 0 1 .339-.2c-.09.094-.192.176-.304.243l-.937.669c-.823.582-2.029 1.451-3.564 2.606-4.333 3.239-8.418 6.799-12.22 10.651-2.419 2.432-4.952 5.212-7.632 8.226s-5.489 6.29-8.343 9.826a131.3 131.3 0 0 0-8.386 11.51c-1.344 2.068-2.602 4.257-3.833 6.49l-3.799 6.793c-4.887 8.583-9.288 17.435-13.182 26.514"/><path opacity=".2" d="M325.968 187.253c-.093-.41-.143-.83-.147-1.251l-.165-3.475c-.095-2.901-.095-6.906-.078-11.293s0-8.427-.174-11.293l-.19-3.423c-.046-.422-.046-.847 0-1.268a6.3 6.3 0 0 1 .225 1.242c.122.808.243 1.972.364 3.423.235 2.892.347 6.949.33 11.345l-.078 11.294v3.474a5.03 5.03 0 0 1-.087 1.225zm37.589-2.875c-.496.046-.996.046-1.492 0-.954 0-2.333-.052-4.041 0-3.417 0-8.126.165-13.321.573a190.44 190.44 0 0 0-13.261 1.52l-3.989.643c-.487.114-.984.181-1.483.2.468-.173.949-.306 1.439-.399a64.3 64.3 0 0 1 3.981-.817c3.365-.617 8.066-1.26 13.269-1.677a129.75 129.75 0 0 1 13.373-.425c1.735 0 3.088.13 4.042.208.498.013.995.071 1.483.174zm-58.045 42.151a1.74 1.74 0 0 1-.199-.478l-.486-1.407-1.639-5.213c-1.318-4.422-2.958-10.581-4.666-17.374l-4.519-17.436-1.465-5.255-.399-1.434c-.113-.391-.122-.504-.096-.512.086.15.153.311.2.477l.486 1.408c.416 1.216.98 2.997 1.639 5.212 1.318 4.413 2.957 10.581 4.666 17.375l4.518 17.435 1.466 5.212.399 1.434c.112.382.121.547.095.556z"/><path opacity=".2" d="M356.168 216.009a2.06 2.06 0 0 1-.503.147l-1.475.322-5.429 1.138-17.865 3.918-17.901 3.761-5.464.965-1.491.226a2.23 2.23 0 0 1-.529 0c.163-.072.335-.121.511-.148l1.475-.321 5.42-1.139 17.866-3.917 17.909-3.762 5.455-.964 1.492-.226a2.23 2.23 0 0 1 .529 0z"/></g><path d="M13.913 88.983s-5.403 2.189.824 13.683 10.503 17.157 10.503 17.157 1.119 2.685-1.145 3.162-7.285-.191-8.222 2.606 1.188 5.586 5.498 7.862 13.564 7.628 14.405 8.114 1.657 1.738.173 2.294-12.714 2.041-11.699 7.332 14.058 9.73 15.481 10.199 1.734 1.094 1.674 1.867-3.92.913-7.094 1.46-6.765 1.737-5.923 4.743 8.673 9.165 27.31 10.512l8.673.052 4.562-7.463c8.673-16.557 7.641-26.461 5.533-28.763s-5.004.113-7.155 2.519-4.276 5.586-4.987 5.256-1.015-.938-.694-2.406 3.469-14.882-.434-18.548-11.136 5.108-12.41 6.081-1.873-.408-1.847-1.355.399-11.667.746-16.506-.772-8.122-3.755-8.834-4.969 3.944-6.574 5.612-3.278-.704-3.278-.704-2.541-6.611-8.985-17.991-11.274-7.819-11.274-7.819" class="D"/><g fill="#000"><path opacity=".3" d="M64.873 182.059L45.056 145.79l-18.048-32.908-5.524-9.938-1.5-2.71-.382-.704c-.045-.079-.086-.16-.121-.243l.147.234.408.687 1.544 2.684 5.594 9.904 18.117 32.863 19.748 36.304"/><path opacity=".3" d="M22.859 126.825a2.6 2.6 0 0 1 .607.156l1.63.522 5.282 1.946 5.204 2.05 1.587.616a2.92 2.92 0 0 1 .581.244 2.78 2.78 0 0 1-.616-.148l-1.622-.53-5.273-1.981-5.256-2.015-1.596-.608a2.88 2.88 0 0 1-.529-.252zm15.507 4.97c-.069 0 1.179-3.953 2.784-8.774l3.027-8.688c.069 0-1.171 3.944-2.775 8.766l-3.035 8.696zm9.896 20.241c.088-.197.202-.381.338-.547l.989-1.434 3.183-4.795 2.957-4.926.867-1.511a2.38 2.38 0 0 1 .347-.539c-.07.204-.157.401-.26.591l-.798 1.555-2.897 4.977c-1.162 1.903-2.376 3.571-3.252 4.761l-1.058 1.381a3.17 3.17 0 0 1-.416.487zm-15.011-1.399a2.77 2.77 0 0 1 .59 0l1.605.086 5.299.383 5.29.469 1.605.174c.197.009.392.041.581.095a2.77 2.77 0 0 1-.59 0l-1.604-.087-5.299-.391-5.29-.46-1.605-.174c-.197-.007-.392-.039-.581-.095zm6.46 18.973a4.42 4.42 0 0 1 .763 0l2.055.104 6.799.435 6.782.521 2.055.191a4.68 4.68 0 0 1 .755.104 4.14 4.14 0 0 1-.755 0l-2.064-.104-6.799-.443-6.782-.513-2.055-.191a4.68 4.68 0 0 1-.755-.104zm18.762 1.199c.114-.246.251-.482.408-.703l1.197-1.86 3.833-6.211 3.616-6.333 1.067-1.937c.123-.243.265-.475.425-.695a5.23 5.23 0 0 1-.33.747l-.989 1.981-3.556 6.376-3.911 6.177-1.266 1.815c-.145.229-.31.444-.494.643z"/></g><path d="M307.193 271.808l-9.513 49.069 72.68 14.139 9.513-49.07-72.68-14.138z" class="G"/><path d="M380 286.593c-.254.196-.524.37-.807.521l-2.385 1.381-8.776 4.978-29.149 16.254-.243.13-.173-.208-.434-.504-21.838-25.853-6.556-7.888-1.735-2.164c-.218-.244-.412-.509-.581-.79a5.84 5.84 0 0 1 .685.704l1.848 2.076 6.73 7.749 21.985 25.723.433.512-.416-.078 29.244-16.071 8.881-4.796 2.428-1.268a5.58 5.58 0 0 1 .859-.408z" class="H"/><path d="M297.802 321.524c-.113-.139 6.652-5.803 15.117-12.648s15.428-12.267 15.55-12.119-6.652 5.803-15.125 12.649-15.455 12.231-15.542 12.118z" class="D"/><path d="M352.743 300.84c.165-.087 4.276 7.644 9.167 17.261s8.742 17.479 8.578 17.566-4.276-7.645-9.176-17.262-8.733-17.479-8.569-17.565z" class="H"/><g class="D"><path d="M348.257 58.1c-.41.066-.825.095-1.241.087l-3.555.07-13.096.13-43.181.122h-3.469V58.1l.121-41.204.13-12.379.07-3.353c-.014-.39.015-.78.086-1.164a6.77 6.77 0 0 1 .079 1.164l.069 3.353.13 12.379.121 41.204-.399-.408h3.079l43.181.122 13.096.13 3.556.078a7.63 7.63 0 0 1 1.223.078zm-7.128-43.992a16.48 16.48 0 0 1-1.908 1.824l-5.42 4.769-18.065 15.472-1.076.869-.277.235-.26-.243-8.04-7.48h.477l-11.777 9.799-3.426 2.736c-.388.355-.816.664-1.275.921a7.95 7.95 0 0 1 1.127-1.103l3.287-2.91 11.613-9.982.252-.217.242.235 8.075 7.436h-.538l1.075-.869 18.213-15.298 5.585-4.569a16.16 16.16 0 0 1 2.116-1.624z"/><path d="M341.131 27.555a20.58 20.58 0 0 1-.278-4.005l-.13-9.773.408.408h-.694c-3.989 0-7.597-.043-10.216-.122a21.51 21.51 0 0 1-4.233-.287 22.47 22.47 0 0 1 4.233-.287c2.601-.069 6.227-.122 10.216-.122h1.101v.408l-.121 9.773a20.05 20.05 0 0 1-.286 4.005zm-329.89 244.72a15.99 15.99 0 0 1 3.92-1.737l.806-3.883 6.548-.122.945 3.857a16.18 16.18 0 0 1 3.972 1.564l3.313-2.172 4.709 4.561-2.081 3.423a16.01 16.01 0 0 1 1.734 3.909l3.877.808.113 6.559-3.842.947a16.09 16.09 0 0 1-1.561 3.979l2.168 3.318-4.553 4.726-3.382-2.059a15.99 15.99 0 0 1-3.92 1.738l-.807 3.883-6.548.121-.945-3.857a16 16 0 0 1-3.972-1.563l-3.313 2.171-4.718-4.56 2.055-3.389c-.752-1.224-1.335-2.545-1.735-3.926l-3.877-.808-.121-6.559 3.859-.964a16.24 16.24 0 0 1 1.561-3.979l-2.168-3.319 4.553-4.725 3.382 2.058h.026zm3.469 8.74a7.04 7.04 0 0 0-1.326 7.687 7.03 7.03 0 0 0 2.653 3.09 7.01 7.01 0 0 0 3.918 1.099 7.02 7.02 0 0 0 3.869-1.261c1.137-.794 2.015-1.906 2.522-3.198a7.05 7.05 0 0 0 .329-4.062 7.04 7.04 0 0 0-4.29-5.053 7.01 7.01 0 0 0-2.71-.483 7.03 7.03 0 0 0-2.687.596 7.02 7.02 0 0 0-2.252 1.585h-.026z"/><path d="M14.737 281.015a5.35 5.35 0 0 1 1.292-1.147c1.354-.885 2.973-1.269 4.579-1.086 1.196.129 2.341.559 3.326 1.25a7.14 7.14 0 0 1 2.311 2.703c.631 1.283.87 2.725.685 4.144a7.2 7.2 0 0 1-1.956 4.062c-1.07 1.109-2.467 1.844-3.985 2.097a6.69 6.69 0 0 1-2.16 0 6.94 6.94 0 0 1-1.995-.573 7.12 7.12 0 0 1-2.78-2.215 7.14 7.14 0 0 1-1.366-3.284 6.96 6.96 0 0 1 .928-4.631 5.23 5.23 0 0 1 1.101-1.355s-.425.469-.971 1.434c-.752 1.374-1.024 2.961-.772 4.508a6.77 6.77 0 0 0 1.206 2.928 6.84 6.84 0 0 0 2.801 2.276 6.64 6.64 0 0 0 1.899.53 6.48 6.48 0 0 0 2.047-.044 6.8 6.8 0 0 0 3.755-1.988c1.008-1.048 1.655-2.39 1.847-3.832a6.24 6.24 0 0 0 0-2.05 6.42 6.42 0 0 0-.59-1.877 6.84 6.84 0 0 0-2.376-2.727 6.68 6.68 0 0 0-2.975-1.069c-1.551-.203-3.125.124-4.466.93-.963.582-1.353 1.059-1.388 1.016zm-3.497-8.739l-.217-.113-.65-.374-2.55-1.511h.078l-4.527 4.743v-.121l2.246 3.301v.06.061a16.33 16.33 0 0 0-1.535 3.962v.078h-.078l-3.842.955.113-.139.13 6.559-.13-.156 3.885.799h.095v.096a16.07 16.07 0 0 0 1.691 3.883l.052.087-.052.087-2.064 3.431v-.226l4.718 4.552h-.234l3.304-2.18.104-.061.095.052a15.77 15.77 0 0 0 3.877 1.555h.113v.113l.945 3.849-.2-.148 6.557-.122-.2.165.807-3.883v-.121h.121a15.69 15.69 0 0 0 3.859-1.686l.104-.061.104.061 3.382 2.059h-.252l4.553-4.726v.252l-2.168-3.318-.069-.105.061-.104c.722-1.225 1.273-2.543 1.639-3.918v-.121h.121l3.842-.939-.147.192-.104-6.568.147.182-3.859-.842h-.104v-.105c-.381-1.364-.944-2.67-1.674-3.883l-.061-.095.061-.087 2.055-3.388v.208l-4.701-4.569h.191l-3.365 2.172-.069.052-.078-.044c-1.237-.695-2.561-1.22-3.937-1.563h-.078v-.079l-.928-3.857.113.087-6.548.087.087-.07-.867 3.875a17 17 0 0 0-3.001 1.155l-.703.365-.234.122.217-.148a9.67 9.67 0 0 1 .694-.399 15.47 15.47 0 0 1 2.992-1.217l-.052.044.789-3.883v-.07h.078l6.548-.139h.095v.087l.963 3.848-.104-.095a16.07 16.07 0 0 1 4.015 1.572h-.147l3.304-2.18.104-.07.087.087 4.726 4.552.095.096-.069.113-2.047 3.396v-.182a16.52 16.52 0 0 1 1.734 3.961l-.139-.121 3.885.799h.139v.243l.121 6.559v.157h-.147l-3.851.946.147-.147a16.55 16.55 0 0 1-1.578 4.031v-.2l2.168 3.31.087.139-.113.113-4.544 4.726-.113.112-.139-.086-3.382-2.051h.199a16.01 16.01 0 0 1-3.963 1.738l.147-.157-.807 3.884v.156h-.165l-6.548.113h-.156v-.156l-.937-3.858.147.148a16.25 16.25 0 0 1-4.024-1.59h.199l-3.313 2.172-.13.087-.104-.104-4.709-4.57-.104-.095.078-.122 2.055-3.388v.174a16.4 16.4 0 0 1-1.735-3.97l.13.121-3.877-.816H.095v-.131L0 283.231v-.113h.104l3.781-1.008-.095.095a16.52 16.52 0 0 1 1.578-4.004v.121l-2.159-3.327v-.061l.052-.061 4.579-4.699 2.498 1.555.642.408.26.139z"/></g><path d="M58.41 253.876a9.49 9.49 0 0 1 2.342-1.017l.486-2.328 3.92-.069.564 2.311a9.44 9.44 0 0 1 2.385.938l1.977-1.303 2.819 2.728-1.223 2.032c.442.733.784 1.522 1.015 2.346l2.307.443.069 3.927-2.307.564c-.201.833-.517 1.634-.937 2.381l1.301 1.989-2.723 2.823-2.029-1.225c-.733.44-1.52.782-2.342 1.017l-.486 2.328-3.92.07-.564-2.311a9.29 9.29 0 0 1-2.376-.939l-1.986 1.304-2.819-2.728 1.223-2.033c-.439-.734-.78-1.523-1.015-2.346l-2.307-.477-.069-3.927 2.307-.565c.203-.835.518-1.639.937-2.389l-1.301-1.98 2.723-2.824 2.029 1.26zm2.09 5.212c-.578.6-.965 1.357-1.113 2.177a4.22 4.22 0 0 0 .282 2.43c.332.764.882 1.412 1.582 1.863a4.21 4.21 0 0 0 2.349.669c.832-.015 1.64-.276 2.324-.751a4.21 4.21 0 0 0 1.516-1.917 4.22 4.22 0 0 0-.991-4.575 4.2 4.2 0 0 0-1.381-.89 4.21 4.21 0 0 0-1.616-.293 4.22 4.22 0 0 0-1.604.349c-.507.221-.965.54-1.349.938z" class="G"/><path d="M60.502 259.088c.22-.273.483-.508.78-.694.815-.525 1.786-.752 2.749-.643.665.067 1.305.294 1.865.66.648.434 1.169 1.034 1.509 1.737.185.373.314.771.382 1.182a4.04 4.04 0 0 1 0 1.294c-.125.914-.536 1.764-1.176 2.428a4.33 4.33 0 0 1-2.38 1.264 4 4 0 0 1-1.292 0c-.414-.048-.819-.162-1.197-.339-.696-.321-1.294-.822-1.735-1.45-.384-.548-.633-1.179-.728-1.842a4.2 4.2 0 0 1 .555-2.771c.171-.306.394-.579.659-.808 0 0-.252.269-.581.869-.448.824-.61 1.775-.46 2.701a4.08 4.08 0 0 0 .802 1.865c.42.544.971.972 1.6 1.245a3.76 3.76 0 0 0 1.128.322c.408.065.823.065 1.231 0a4.08 4.08 0 0 0 2.245-1.188c.604-.625.993-1.426 1.111-2.287.065-.406.065-.819 0-1.225a4.08 4.08 0 0 0-.356-1.129 4.23 4.23 0 0 0-1.422-1.634c-.657-.435-1.423-.674-2.211-.691a4.17 4.17 0 0 0-2.238.596c-.291.162-.572.341-.841.538z" fill="#f5f4f8"/><path d="M58.409 253.876l-.13-.069-.39-.226-1.526-.869-2.706 2.841v-.079l1.31 1.981a9.78 9.78 0 0 0-.919 2.372v.043l-2.298.574.061-.087.078 3.926-.069-.095 2.316.486h.052v.061a9.63 9.63 0 0 0 1.015 2.32v.052.052l-1.232 2.033v-.131l2.827 2.728h-.139l1.977-1.303h.061.061a9.74 9.74 0 0 0 2.35.921h.069v.069l.564 2.303-.113-.087 3.92-.07-.113.096.477-2.328v-.07h.069a9.29 9.29 0 0 0 2.316-1.008h.069.061l2.021 1.225h-.147l2.723-2.832v.148l-1.301-1.981v-.061-.06c.416-.739.728-1.531.928-2.355v-.069h.069l2.307-.565-.087.113-.069-3.927.087.105-2.316-.487h-.069v-.069a9.26 9.26 0 0 0-1.006-2.32v-.052-.061l1.24-2.024v.122l-2.81-2.728h.113l-1.986 1.294c-.741-.414-1.535-.727-2.359-.929v-.044l-.555-2.31.069.052-3.92.052.052-.044-.494 2.329c-.617.172-1.215.404-1.787.695l-.425.217-.139.069.13-.087.416-.234a9.54 9.54 0 0 1 1.787-.739l.468-2.328v-.043l3.92-.087h.052v.052l.572 2.302-.061-.052c.839.205 1.647.52 2.402.938h-.191l1.977-1.303h.061l.052.052 2.827 2.728.061.052v.07l-1.223 2.033v-.113a9.72 9.72 0 0 1 1.032 2.38l-.078-.078 2.324.477h.087v.087l.069 3.936v.087h-.087l-2.298.564.078-.087c-.204.845-.522 1.657-.945 2.415v-.121l1.301 1.981.052.078-.069.069-2.723 2.832-.069.07-.078-.052-2.029-1.234h.121a9.39 9.39 0 0 1-2.368 1.025l.087-.087-.486 2.32v.095h-.095l-3.929.07h-.095v-.087l-.564-2.311.087.087c-.841-.211-1.651-.529-2.411-.947h.121l-2.064 1.39-.069.044-.069-.061-2.819-2.728-.061-.061v-.078L55 267.107v.104a9.67 9.67 0 0 1-1.023-2.372l.078.07-2.324-.487h-.069v-.121l-.052-3.927v-.069h.069l2.307-.556-.061.06c.21-.838.531-1.644.954-2.397v.069l-1.292-1.989v-.044l2.741-2.806 1.5.93.382.243.2.061z" class="G"/><g class="D"><path d="M71.011 356.742l-1.787-7.298c-2.629-.642-5.158-1.638-7.519-2.962l-6.288 4.126-8.959-8.687 3.885-6.42a30.32 30.32 0 0 1-3.217-7.419l-7.363-1.537-.217-12.467 7.285-1.789c.663-2.647 1.678-5.192 3.018-7.567l-4.12-6.298 8.673-8.974 6.409 3.901a30.63 30.63 0 0 1 7.415-3.232l1.526-7.367 12.445-.226 1.778 7.298c2.629.649 5.16 1.646 7.528 2.962l6.279-4.126 8.95 8.687-3.886 6.42a30.4 30.4 0 0 1 3.218 7.427l7.363 1.538.217 12.457-7.285 1.79c-.651 2.63-1.645 5.163-2.958 7.532l4.12 6.29-8.673 8.965-6.435-3.805A30.29 30.29 0 0 1 85 349.184l-1.526 7.375-12.463.183zm-9.314-10.33c2.366 1.323 4.897 2.322 7.528 2.972l1.787 7.288 12.393-.217 1.526-7.358c2.608-.741 5.104-1.827 7.424-3.232l6.409 3.892 8.603-8.93-4.111-6.29c1.319-2.373 2.317-4.912 2.966-7.549l7.285-1.738-.217-12.414-7.267-1.624a30.48 30.48 0 0 0-3.227-7.437l3.886-6.419-8.924-8.618-6.279 4.118c-2.368-1.317-4.899-2.313-7.528-2.963l-1.812-7.349-12.393.217-1.526 7.358a29.91 29.91 0 0 0-7.432 3.232l-6.435-3.857-8.603 8.93 4.102 6.298a30.6 30.6 0 0 0-2.966 7.55l-7.285 1.789.217 12.414 7.354 1.529c.743 2.611 1.828 5.111 3.226 7.436l-3.877 6.412 8.915 8.626 6.262-4.066zm15.281-13.804a13.34 13.34 0 0 1-7.37-2.224c-2.186-1.45-3.897-3.513-4.92-5.93a13.4 13.4 0 0 1-.836-7.665c.478-2.582 1.705-4.966 3.526-6.854 1.218-1.265 2.673-2.277 4.282-2.977a13.3 13.3 0 0 1 5.094-1.106h.243c3.486.054 6.813 1.472 9.269 3.95a13.39 13.39 0 0 1 .158 18.691 13.35 13.35 0 0 1-9.202 4.107l-.243.008zm-9.54-22.656a13.34 13.34 0 0 0-3.503 6.822c-.475 2.568-.187 5.22.829 7.626a13.32 13.32 0 0 0 4.886 5.906c2.171 1.447 4.719 2.224 7.327 2.233h.243c3.473-.113 6.765-1.583 9.171-4.094a13.35 13.35 0 0 0-.158-18.63 13.3 13.3 0 0 0-9.239-3.937h-.26c-1.748.024-3.474.395-5.078 1.093a13.19 13.19 0 0 0-4.263 2.972l.043.009z"/><path d="M67.394 309.952c.701-.859 1.539-1.596 2.48-2.18 2.567-1.669 5.631-2.396 8.673-2.059a13.49 13.49 0 0 1 6.31 2.369c1.869 1.311 3.378 3.075 4.383 5.128.59 1.183.999 2.448 1.214 3.753a13.05 13.05 0 0 1 .069 4.109 13.62 13.62 0 0 1-3.708 7.707 13.58 13.58 0 0 1-7.566 3.968c-2.673.455-5.421.101-7.892-1.016a13.53 13.53 0 0 1-5.265-4.202 13.56 13.56 0 0 1-2.592-6.223c-.45-3.04.163-6.143 1.734-8.783a10.1 10.1 0 0 1 2.09-2.562 31.99 31.99 0 0 0-1.83 2.71c-1.434 2.604-1.953 5.614-1.474 8.548a13.04 13.04 0 0 0 2.546 5.91 13.01 13.01 0 0 0 5.06 3.968c2.346 1.043 4.948 1.364 7.476.921a12.92 12.92 0 0 0 7.13-3.771 12.95 12.95 0 0 0 3.511-7.271 13.05 13.05 0 0 0-1.18-7.445 13.03 13.03 0 0 0-4.135-4.928c-1.768-1.27-3.826-2.076-5.986-2.343-2.942-.387-5.928.225-8.482 1.737l-2.567 1.955zm-6.624-16.575l-.416-.225-1.232-.713-4.839-2.858h.156l-8.586 9.009v-.243l4.145 6.28.069.113-.061.113c-1.301 2.362-2.284 4.886-2.923 7.506v.148h-.147l-7.294 1.815.208-.269.252 12.44-.243-.286 7.389 1.511h.191l.052.191a30.59 30.59 0 0 0 3.209 7.358l.104.165-.104.174-3.885 6.437-.052-.425 8.907 8.687h-.442l6.27-4.135.191-.122.191.113a30.22 30.22 0 0 0 7.45 2.928l.217.052.052.217 1.795 7.306-.373-.287 12.428-.217-.364.304 1.526-7.367.052-.234.217-.061a30.34 30.34 0 0 0 7.337-3.188l.2-.113.2.122 6.418 3.891-.468.061 8.672-8.948-.043.469-4.111-6.289-.121-.191.104-.2c1.306-2.346 2.295-4.855 2.94-7.462l.052-.218.217-.052 7.293-1.781-.277.357-.2-12.449.278.339-7.354-1.538-.2-.043-.061-.2a30.24 30.24 0 0 0-3.182-7.367l-.105-.174.105-.174 3.902-6.419.052.39-8.924-8.687h.364l-6.288 4.109-.139.087-.148-.078a30.09 30.09 0 0 0-7.467-2.971h-.147v-.148l-1.734-7.314.225.173-12.428.165.165-.139-1.578 7.359v.078h-.069a30.29 30.29 0 0 0-5.681 2.189l-1.344.695a2.65 2.65 0 0 1-.442.234c.128-.11.267-.206.416-.286l1.31-.756a29.12 29.12 0 0 1 5.672-2.311l-.087.087 1.483-7.375v-.131h.139l12.428-.269h.173v.174l1.813 7.297-.182-.182a30.62 30.62 0 0 1 7.615 2.979h-.286l6.27-4.144.199-.121.165.156 8.959 8.635.182.174-.13.217-3.885 6.437v-.338a30.75 30.75 0 0 1 3.27 7.514l-.261-.243 7.355 1.529.277.052v.287l.226 12.449v.286l-.286.07-7.294 1.798.269-.269c-.651 2.671-1.657 5.242-2.992 7.644v-.39l4.119 6.289.165.252-.208.217-8.63 8.965-.208.218-.26-.157-6.426-3.9h.39a30.83 30.83 0 0 1-7.519 3.275l.269-.296-1.526 7.367-.069.304H83.5l-12.419.217h-.303l-.069-.286-1.787-7.306.278.269a31.11 31.11 0 0 1-7.632-3.014h.373l-6.279 4.117-.243.157-.199-.191-8.933-8.688-.2-.191.147-.234 3.903-6.42v.339c-1.416-2.354-2.509-4.887-3.252-7.532l.234.226-7.389-1.495-.234-.052v-.234l-.191-12.449v-.295l.208-.053 7.302-1.737-.182.182a31.23 31.23 0 0 1 3.009-7.601v.235l-4.085-6.307-.087-.131.104-.113 8.673-8.904.061-.07.087.053 4.727 2.945 1.223.773a2.43 2.43 0 0 1 .425.286z"/></g><path d="M310.951 30.035l-240.457.842c-5.602.02-10.129 4.585-10.11 10.196l1.018 313.039c.018 5.612 4.575 10.145 10.176 10.125l240.456-.842c5.602-.019 10.129-4.584 10.111-10.196l-1.019-313.039a10.15 10.15 0 0 0-10.176-10.125z" fill="#fff"/><path d="M310.953 30.67l-240.457.842c-5.252.018-9.496 4.298-9.478 9.559l1.018 313.039c.017 5.261 4.289 9.511 9.541 9.492l240.456-.842c5.252-.018 9.496-4.298 9.479-9.558l-1.019-313.039c-.017-5.261-4.288-9.51-9.54-9.492zm-240.459.207l240.457-.842a10.15 10.15 0 0 1 10.176 10.125l1.019 313.039c.018 5.612-4.509 10.177-10.111 10.196l-240.456.842c-5.602.02-10.158-4.513-10.176-10.125L60.384 41.072c-.018-5.611 4.508-10.176 10.11-10.196z" class="E I"/><path d="M297.185 42.855l-70.248.246.014 4.517 70.249-.246-.015-4.517zm-3.268 34.437l-.43.048-1.246.043-4.562.096-15.081.19-15.071.051-4.569-.053-1.241-.035a2.06 2.06 0 0 1-.432-.031c.14-.037.284-.054.429-.048l1.247-.051 4.562-.087 15.107-.197 15.062-.06 4.57.052 1.241.035a1.29 1.29 0 0 1 .414.047z" class="C"/><path d="M296.908 94.529c-.009.13-15.322.286-34.22.355s-34.23.014-34.23-.108 15.322-.277 34.228-.345l34.222.098zm-.374 21.685c-.009.13-15.322.286-34.219.354s-34.196.026-34.187-.104 15.322-.278 34.227-.346l34.179.096zm.762-10.798c-.009.122-15.321.278-34.219.346s-34.196.026-34.187-.096 15.322-.286 34.228-.354l34.178.104z" class="B"/><path d="M143.696 246.599c-.008.121-7.947.257-17.748.289s-17.751-.034-17.75-.164 7.946-.25 17.748-.289l17.75.164zm-16.226 19.722c-.009.13-10.643.268-23.774.316s-23.769-.022-23.769-.144 10.634-.26 23.774-.308l23.769.136z" class="C"/><path d="M213.522 274.16c-.009.121-29.897.329-66.769.461l-66.782.017c0-.122 29.889-.338 66.779-.47l66.772-.008z" class="B"/><path d="M127.537 286.573c-.009.121-10.643.259-23.766.309s-23.778-.015-23.777-.145 10.643-.26 23.774-.308l23.769.144z" class="C"/><path d="M213.57 294.403c-.009.13-29.897.338-66.77.47l-66.781.008c0-.122 29.888-.33 66.778-.461l66.773-.017z" class="B"/><path d="M127.607 306.817c-.009.122-10.643.259-23.766.309s-23.777-.015-23.777-.137 10.643-.268 23.775-.316l23.768.144z" class="C"/><path d="M213.64 314.648c-.009.13-29.897.337-66.77.47l-66.78.007c.001-.13 29.888-.329 66.777-.46l66.773-.017z" class="B"/><path d="M129.455 327.44c-.008.121-10.651.259-23.774.308s-23.743-.012-23.734-.142 10.643-.259 23.774-.308l23.734.142z" class="C"/><path d="M215.489 335.27c-.01.13-29.906.337-66.782.513l-66.781.007c.001-.13 29.897-.328 66.778-.46l66.785-.06z" class="B"/><g class="C"><path d="M99.793 239.474l-16.305.057.034 10.373 16.305-.057-.034-10.373z"/><path d="M94.939 249.87l-6.548.023.011 3.249 6.548-.023-.011-3.249z"/><path d="M97.479 252.987a33.42 33.42 0 0 1-5.484.336 32.64 32.64 0 0 1-5.495-.127c1.816-.257 3.65-.366 5.483-.327 1.832-.107 3.669-.068 5.495.118zm134.202-15.995l10.532-4.856 9.716 4.5-9.768 5.232-10.48-4.876zm2.265 2.503l-.04 6.355 15.721-.275-.105-6.139-7.524 3.858-8.052-3.799zm61.781 3.254c-.01.13-7.948.257-17.748.289s-17.751-.034-17.752-.156 7.948-.257 17.749-.297l17.751.164z"/></g><path d="M257.968 261.943c-.008.122-5.468.241-12.19.263s-12.212-.051-12.211-.182 5.468-.241 12.191-.272 12.211.061 12.21.191zm44.177 8.604c-.009.13-15.348.284-34.272.351s-34.282.019-34.282-.103 15.348-.284 34.28-.35l34.274.102zm-43.947 14.02c-.009.13-5.46.251-12.191.272s-12.168-.049-12.202-.182 5.459-.241 12.191-.272 12.202.06 12.202.182zm44.173 8.639c-.009.13-15.348.284-34.271.351s-34.274.02-34.283-.103 15.348-.284 34.28-.35l34.274.102zm-44.359 13.696c-.009.13-5.469.25-12.191.272s-12.168-.058-12.211-.183 5.468-.241 12.191-.271 12.211.06 12.211.182zm44.172 8.647c-.009.13-15.348.284-34.271.351s-34.282.019-34.283-.103 15.348-.284 34.28-.35l34.274.102zm-43.358 15.046c-.008.121-5.459.242-12.191.272s-12.168-.057-12.202-.182 5.46-.25 12.191-.272 12.202.06 12.202.182zm44.175 8.647c-.009.121-15.348.276-34.271.351s-34.274.02-34.274-.111 15.339-.276 34.271-.342l34.274.102z" class="B"/><path d="M237.678 72.661c.707-.316 1.305-.833 1.722-1.486a3.97 3.97 0 0 0 .624-2.189c.036-.51-.034-1.021-.204-1.502s-.437-.922-.785-1.296a3.72 3.72 0 0 0-1.235-.876c-.467-.204-.972-.31-1.481-.31a3.72 3.72 0 0 0-1.483.306c-.468.203-.889.5-1.238.872s-.617.813-.788 1.294a3.74 3.74 0 0 0-.21 1.501 3.97 3.97 0 0 0 .632 2.176 3.95 3.95 0 0 0 1.719 1.473c-5.704.878-5.422 7.098-5.422 7.098l13.501.012s.301-6.232-5.352-7.075z" class="C"/><path d="M253.4 161.574c-.009.13-5.504.247-12.296.273s-12.298-.058-12.298-.18 5.504-.247 12.296-.273 12.298.058 12.298.18zm.161 10.888c-.008.122-5.503.248-12.295.274s-12.299-.058-12.298-.189 5.504-.247 12.295-.264 12.298.057 12.298.179z" class="B"/><path d="M301.951 162.674l-40.003.147a1.35 1.35 0 0 1-1.357-1.35 1.36 1.36 0 0 1 .393-.959 1.35 1.35 0 0 1 .955-.4l40.004-.147a1.34 1.34 0 0 1 .96.391c.126.125.226.275.294.439s.103.341.102.52-.032.355-.099.52-.166.315-.291.441a1.34 1.34 0 0 1-.439.295c-.164.068-.341.103-.519.103z" class="D"/><path d="M296.105 162.697l-34.185.122a1.35 1.35 0 0 1-.957-.393c-.255-.254-.399-.598-.4-.957a1.36 1.36 0 0 1 .393-.959 1.35 1.35 0 0 1 .955-.4l34.186-.122c.358-.001.702.141.957.394s.398.597.399.956-.143.702-.395.956a1.36 1.36 0 0 1-.953.403z" class="C"/><path d="M301.982 172.909l-40.003.139a1.35 1.35 0 0 1-.957-.394c-.255-.253-.398-.597-.4-.956a1.37 1.37 0 0 1 .396-.957c.252-.254.594-.399.952-.402l40.003-.139c.178-.001.355.032.519.1s.315.166.441.291.226.275.295.44a1.34 1.34 0 0 1 .102.519c.001.359-.14.704-.393.959a1.35 1.35 0 0 1-.955.4z" class="D"/><path d="M290.044 172.947l-28.089.099a1.35 1.35 0 0 1-.957-.394c-.255-.253-.398-.597-.4-.956a1.37 1.37 0 0 1 .396-.956 1.36 1.36 0 0 1 .952-.403l28.089-.099c.359-.001.703.14.958.393s.398.597.399.956-.14.705-.393.959-.596.399-.955.401z" class="C"/><path d="M253.959 183.594c-.008.122-5.503.248-12.295.265s-12.298-.058-12.298-.18 5.504-.247 12.296-.273 12.298.058 12.297.188zm.161 10.881c-.009.13-5.504.247-12.296.273s-12.298-.058-12.298-.18 5.503-.247 12.295-.273 12.299.058 12.299.18z" class="B"/><path d="M302.51 184.686l-40.004.147c-.358.001-.702-.141-.957-.394s-.398-.597-.399-.956.14-.704.393-.959a1.35 1.35 0 0 1 .955-.4l40.003-.147a1.35 1.35 0 0 1 .958.394c.254.253.398.597.399.956.002.178-.032.355-.099.52a1.33 1.33 0 0 1-.292.441 1.32 1.32 0 0 1-.439.295c-.164.069-.34.103-.518.103z" class="D"/><path d="M296.656 184.708l-34.177.123a1.35 1.35 0 0 1-.957-.394c-.254-.253-.398-.597-.399-.956s.14-.704.393-.959a1.35 1.35 0 0 1 .955-.4l34.176-.123c.359-.001.703.141.958.394s.398.597.399.956c.002.178-.032.355-.099.52s-.166.315-.292.442a1.36 1.36 0 0 1-.438.295 1.34 1.34 0 0 1-.519.102z" class="C"/><path d="M302.577 194.924l-40.004.147a1.35 1.35 0 0 1-.957-.394c-.255-.253-.398-.597-.4-.956a1.36 1.36 0 0 1 .393-.959 1.35 1.35 0 0 1 .955-.4l40.004-.147a1.35 1.35 0 0 1 .957.394c.254.253.398.597.399.956s-.14.704-.393.959a1.35 1.35 0 0 1-.954.4z" class="D"/><path d="M290.601 194.967l-28.089.099a1.35 1.35 0 0 1-.958-.394c-.254-.253-.398-.597-.399-.956s.14-.704.393-.959a1.35 1.35 0 0 1 .955-.4l28.092-.134a1.35 1.35 0 0 1 .957.394c.254.253.398.597.399.956a1.37 1.37 0 0 1-.091.53c-.066.168-.164.322-.29.452a1.35 1.35 0 0 1-.443.304 1.34 1.34 0 0 1-.526.108z" class="C"/><path d="M254.703 206.107c-.01.13-5.513.247-12.305.272s-12.298-.058-12.298-.18 5.504-.247 12.296-.273 12.306.059 12.307.181z" class="B"/><path d="M303.251 207.208l-40.003.138a1.35 1.35 0 0 1-.957-.394c-.255-.253-.398-.597-.4-.956.004-.358.147-.7.399-.954s.592-.399.949-.405l40.003-.138a1.36 1.36 0 0 1 .961.393c.256.253.401.597.405.957-.002.36-.145.705-.399.959s-.599.398-.958.4z" class="D"/><path d="M285.423 207.264l-22.21.079c-.359.001-.703-.141-.958-.394a1.35 1.35 0 0 1-.399-.956 1.37 1.37 0 0 1 1.348-1.359l22.176-.081c.358.001.701.143.954.396a1.36 1.36 0 0 1 .402.953c.002.354-.134.695-.38.949a1.35 1.35 0 0 1-.933.413zm-44.489-57.647l-1.228-2.569c.985-1.341 1.432-3.004 1.255-4.659a6.66 6.66 0 0 0-2.214-4.285 6.64 6.64 0 0 0-4.521-1.663 6.65 6.65 0 0 0-4.458 1.829 6.67 6.67 0 0 0-2.056 4.364 6.66 6.66 0 0 0 1.423 4.609c1.032 1.305 2.515 2.174 4.156 2.438s3.321-.097 4.71-1.011l2.933.947zm51.802-5.795c-.009.13-9.279.268-20.73.279s-20.733-.026-20.733-.148 9.277-.26 20.729-.279l20.734.148z" class="C"/><path d="M73.619 31.187a8 8 0 0 0-7.952 8.11l2.487 180.984c.06 4.387 3.643 7.907 8.031 7.89l130.596-.515c4.436-.018 8.011-3.642 7.968-8.077L213 38.334a8 8 0 0 0-8.046-7.923l-131.335.775z" class="D"/><path d="M206.911 24.943l-124.928-.056c-5.602-.002-10.147 4.544-10.151 10.156l-.121 177.291c-.004 5.612 4.534 10.163 10.137 10.165l124.927.056c5.602.003 10.147-4.544 10.151-10.156l.12-177.291c.004-5.612-4.534-10.163-10.136-10.165z" class="H"/><path d="M206.91 25.578l-124.927-.056c-5.252-.002-9.512 4.26-9.516 9.521l-.121 177.291c-.004 5.26 4.251 9.527 9.503 9.529l124.928.056c5.252.003 9.512-4.26 9.516-9.521l.121-177.291c.003-5.261-4.252-9.527-9.504-9.53zm-124.927-.691l124.928.056c5.602.003 10.14 4.554 10.136 10.165l-.12 177.291c-.004 5.612-4.549 10.159-10.151 10.156l-124.927-.056c-5.602-.002-10.14-4.553-10.137-10.165l.121-177.29c.004-5.612 4.548-10.158 10.151-10.156z" class="E I"/><path d="M185.601 51.48a2.08 2.08 0 0 1-.037-.334c.017-.243-.038-.569-.07-.98l-.212-3.777-.316-5.988a31.12 31.12 0 0 0-.305-3.697c-.104-.657-.327-1.29-.659-1.867a3.13 3.13 0 0 0-1.506-1.334 4.25 4.25 0 0 0-2.177-.177 4.26 4.26 0 0 0-1.979.928 7.76 7.76 0 0 0-2.4 4.185 30.97 30.97 0 0 0-.453 10.863l.721 5.912a18.92 18.92 0 0 0 1.716 5.878c.934 1.898 2.505 3.405 4.438 4.258a5.91 5.91 0 0 0 3.107.446 5.76 5.76 0 0 0 2.907-1.275c1.661-1.413 2.774-3.366 3.145-5.517.347-2.105.442-4.244.285-6.372l-.494-12.227-.226-5.668-.337-5.327c-.16-1.646-.547-3.261-1.148-4.801a10.15 10.15 0 0 0-2.528-3.714 10.95 10.95 0 0 0-7.146-2.725 9.07 9.07 0 0 0-5.567 1.645 7.24 7.24 0 0 0-2.292 2.904l-.461 1.239a5.99 5.99 0 0 1 .376-1.271 7.18 7.18 0 0 1 2.265-3.01c1.647-1.198 3.644-1.816 5.679-1.759a11.16 11.16 0 0 1 7.354 2.74 10.36 10.36 0 0 1 2.643 3.818 18.5 18.5 0 0 1 1.202 4.892l.361 5.355.243 5.669.515 12.176a26.98 26.98 0 0 1-.284 6.485 9.77 9.77 0 0 1-3.303 5.785 6.26 6.26 0 0 1-3.131 1.364c-1.132.14-2.282-.022-3.331-.47a9.54 9.54 0 0 1-4.666-4.475 19.58 19.58 0 0 1-1.74-6.019l-.712-5.937a31.33 31.33 0 0 1 .475-11.035 8.17 8.17 0 0 1 2.548-4.331 4.57 4.57 0 0 1 2.146-.988 4.56 4.56 0 0 1 2.352.217c.69.301 1.264.818 1.634 1.474a5.74 5.74 0 0 1 .679 1.964c.166 1.242.258 2.493.275 3.747l.238 5.982.134 3.78c-.03.416.017.741.017.985.021.127.029.256.025.385zm-58.847-11.145l-11.101-5.565c-3.228 1.749-8.653 6.809-10.464 12.76-1.031 3.258-1.564 6.652-1.58 10.069-.069 3.679-.671 7.538-2.912 10.454-1.598 2.073-4.059 3.807-4.287 6.421-.255 3.004 2.667 5.814 1.828 8.716-.677 2.321-3.382 3.323-4.889 5.211-2.193 2.737-1.51 6.739-.442 10.08 2.578 8.064-4.879 18.876.558 25.356 6.123-4.349 23.857-11.963 29.981-16.312a11.07 11.07 0 0 0 3.555-3.442c1.16-2.139.795-4.733.443-7.136a211.85 211.85 0 0 1-.691-56.613zm58.852 140.071l-5.237-6.117-61.501 12.781s-5.187 26.318-4.969 28.041-.463 6.551-.463 6.551l83.674-.627s2.539-22.542-11.504-40.629z" class="B"/><path d="M134.347 199.99a2.42 2.42 0 0 1-.394.651l-1.255 1.653a13.62 13.62 0 0 1-2.218 2.108c-1.032.732-2.197 1.253-3.43 1.535-2.209.538-4.491.715-6.757.524a18.29 18.29 0 0 1-2.033-.265 2.18 2.18 0 0 1-.735-.191c.005-.07 1.073.075 2.79.136 2.229.09 4.459-.127 6.628-.647a9.76 9.76 0 0 0 3.288-1.51 15.22 15.22 0 0 0 2.227-1.994l1.889-2zm18.423 21.434c-.095-.271-.154-.553-.175-.84l-.298-2.311-.58-7.67-.031-7.701.122-2.334a2.77 2.77 0 0 1 .113-.863 27.09 27.09 0 0 1 .088 3.185l.162 7.676.442 7.66c.125 1.061.177 2.13.157 3.198zm5.86-.979c-.13-.009-.323-4.534-.433-10.124s-.155-10.131.011-10.136.323 4.534.433 10.124.111 10.136-.011 10.136zm31.424-28.926c-.177.238-.382.455-.61.645-.411.398-1.015.956-1.853 1.611-.921.774-1.916 1.456-2.969 2.037a11.34 11.34 0 0 1-4.233 1.339 8.31 8.31 0 0 1-4.36-.804 13.44 13.44 0 0 1-2.996-2.023c-.607-.534-1.183-1.104-1.723-1.707-.214-.206-.402-.439-.559-.692.056-.057.93.867 2.456 2.15a13.78 13.78 0 0 0 2.962 1.89c1.294.605 2.725.857 4.148.728 1.425-.152 2.807-.578 4.07-1.254a20.6 20.6 0 0 0 2.979-1.924l2.688-1.996zm3.426 17.137c-.258.172-.537.31-.829.412l-2.305 1.004-7.479 3.592-7.246 4.13-2.137 1.33c-.251.185-.524.335-.815.447a4.5 4.5 0 0 1 .712-.594l2.068-1.456c4.648-3.092 9.607-5.687 14.796-7.743.992-.392 1.787-.693 2.374-.878.274-.121.564-.204.861-.244zm-54.505-10.961c-.061-.004-.239-.435-.464-1.191-.287-.993-.471-2.012-.55-3.043a7.94 7.94 0 0 1 .392-3.09c.113-.422.322-.813.61-1.141a13.91 13.91 0 0 0-.548 4.202c.076 1.007.212 2.008.406 2.998a3.81 3.81 0 0 1 .154 1.265zm3.621.473c-.18-.402-.294-.83-.337-1.269-.208-1.041-.322-2.098-.342-3.159.005-.582.075-1.161.209-1.727.127-.473.32-.926.573-1.345.432-.709.846-1.02.878-.983a8.85 8.85 0 0 1-.602 1.134 6.97 6.97 0 0 0-.609 2.961c-.006 1.202.151 2.301.216 3.107.075.423.08.856.014 1.281zm22.425-.525a16.07 16.07 0 0 0-.872-6.377 16.05 16.05 0 0 0-3.305-5.518c.549.347 1.03.791 1.42 1.311 1.012 1.2 1.799 2.575 2.322 4.056a12.89 12.89 0 0 1 .726 4.615c.017.65-.081 1.298-.291 1.913zm4.101-1.121c-.253-1.976-.649-3.931-1.186-5.849-.692-1.858-1.518-3.663-2.471-5.4.436.403.802.877 1.083 1.4a17.58 17.58 0 0 1 2.628 8.102 5.66 5.66 0 0 1-.054 1.747zm-15.107-4.071s.172-.223.636-.4a2.8 2.8 0 0 1 2.039.066c.458.187.857.495 1.154.891a2.6 2.6 0 0 1 .486 1.611c-.02.631-.23 1.241-.601 1.751-.202.279-.457.515-.75.695a2.61 2.61 0 0 1-.959.352 2.97 2.97 0 0 1-1.887-.378c-.57-.331-1.013-.844-1.261-1.455-.182-.542-.196-1.126-.038-1.675.101-.488.334-.939.674-1.302a2.87 2.87 0 0 1 1.904-.737.93.93 0 0 1 .381.042.94.94 0 0 1 .333.191c-.235-.036-.472-.053-.71-.05a2.8 2.8 0 0 0-1.682.805 2.42 2.42 0 0 0-.533 1.146c-.126.478-.107.983.054 1.45.226.512.611.937 1.097 1.213s1.048.388 1.603.319c.545-.115 1.035-.41 1.39-.839a2.47 2.47 0 0 0 .568-1.523 2.28 2.28 0 0 0-.372-1.385c-.254-.346-.59-.624-.977-.809-.581-.276-1.24-.344-1.865-.192-.442.099-.618.252-.684.213z" class="E"/><path d="M106.054 104.521c-.517.547-15.019 8.424-17.506 13.979s-.772 29.051-.476 33.112 7.097 19.8 7.097 19.8-2.115 6.435-.237 10.626c1.229 2.597 3.191 4.776 5.644 6.268l14.485-6.668-5.883-39.832-3.124-37.285z" class="C"/><path opacity=".4" d="M104.659 145.824c.438-.535 1-.861 1.359-1.263s1.081-.542 1.39-.11-.082 1.161-.555 1.58c1.398.151 2.598-1.698 3.929-1.22a1.73 1.73 0 0 1 .84 1.032c.065.219.087.449.063.676a1.72 1.72 0 0 1-.2.649 4.34 4.34 0 0 1-2.096 1.742c-.868.33-1.662.827-2.338 1.464-.321.36-.552.927-.258 1.314.501.662 1.816.015 2.253.716.289.473-.143 1.052-.545 1.442l-4.398 4.175c-.357.404-.813.708-1.323.882a1.06 1.06 0 0 1-.771-.068c-.24-.118-.426-.322-.523-.572-.02-.263.043-.526.181-.751s.343-.4.586-.501c.495-.179.973-.402 1.429-.666a1.01 1.01 0 0 0 .348-1.36c-.425-.5-1.231-.165-1.753.207l-5.023 3.408c-.348.285-.767.469-1.211.533-.221.021-.442-.044-.616-.181a.87.87 0 0 1-.323-.556c.022-.232.11-.452.254-.635a11.96 11.96 0 0 1 3.73-3.578 6.13 6.13 0 0 0 1.619-1.139c.232-.237.383-.541.432-.869a1.58 1.58 0 0 0-.155-.958c-.997.816-2.085 1.513-3.242 2.079-.406.206-.99.357-1.259-.019s.061-.867.409-1.234l5.331-5.442a2.47 2.47 0 0 1 .722-.636c.28-.163.589-.268.91-.311l.805.17z" fill="#fff"/><path d="M115.323 92.425l-1.608 6.775-10.823 7.492s-3.514 15.306-2.314 31.189l12.377 43.546c.45 3.35 6.311 6.542 6.311 6.542s22.85 1.83 30.785 1.249 27.745-11.245 29.675-12.711 4.52-8.982 4.52-8.982l-11.213-40.208 1.16-27.647-20.513-6.847-6.706-5.995-31.651 5.596z" class="C"/><path opacity=".4" d="M174.916 125.387c.437-.535 1-.861 1.35-1.263s1.09-.541 1.398-.11-.082 1.161-.563 1.58c1.406.151 2.606-1.697 3.937-1.22a1.73 1.73 0 0 1 .84 1.032c.066.219.087.449.064.676a1.74 1.74 0 0 1-.201.649 4.34 4.34 0 0 1-2.096 1.742c-.867.33-1.661.827-2.338 1.464-.321.369-.552.927-.258 1.314.493.662 1.816.015 2.254.716.288.473-.144 1.053-.545 1.442l-4.399 4.175c-.357.404-.813.708-1.323.882-.256.077-.532.054-.772-.065s-.427-.324-.521-.575a1.23 1.23 0 0 1 .179-.747c.138-.224.343-.398.587-.497.494-.185.972-.41 1.43-.674a1.02 1.02 0 0 0 .348-1.36c-.426-.5-1.232-.165-1.754.207l-5.057 3.406a2.41 2.41 0 0 1-1.202.533.87.87 0 0 1-.617-.181c-.174-.137-.29-.336-.322-.556.021-.231.109-.452.253-.635a11.96 11.96 0 0 1 3.73-3.577c.598-.29 1.145-.675 1.619-1.14a1.58 1.58 0 0 0 .277-1.827c-.997.816-2.085 1.514-3.242 2.079-.414.206-.99.357-1.259-.019s.061-.867.409-1.234l5.331-5.441c.196-.258.441-.475.721-.637a2.46 2.46 0 0 1 .911-.311l.831.172z" fill="#fff"/><path d="M173.845 99.777s11.28 4.881 13.819 12.027 11.807 40.894 10.652 46.909-3.573 12.811-8.837 12.753-10.892-5.829-10.892-5.829l-4.165-8.001.818-8.015-3.837-21.765 2.442-28.079z" class="C"/><path d="M115.529 95.811c-.003.052 21.825 31.01 21.825 31.01l5.159-26.894 5.466-13.034-31.687 5.506-.763 3.412z" class="F"/><path opacity=".09" d="M164.989 97.184c-1.36-.81-3.095-.367-4.57.2-8.35 3.251-17.458 7.268-20.437 15.723l-.462 5.192c.523 3.19 3.613 5.481 6.803 5.985s6.432-.47 9.407-1.723a49.14 49.14 0 0 0 7.675-4.039c1.348-.872 2.746-1.957 3.109-3.526.473-2.143-1.21-4.161-1.465-6.338-.248-2.03.75-3.98 1.289-5.953s.412-4.483-1.349-5.521z" fill="#1f1b2d"/><g class="B"><path d="M100.551 137.923c.088.164.155.339.198.519l.484 1.515 1.665 5.613c1.403 4.749 3.102 11.357 5.048 18.645l2.842 10.242 1.295 4.445c.408 1.274.935 2.507 1.574 3.682.942 1.694 2.234 3.166 3.791 4.317 1.117.802 1.815 1.13 1.786 1.171-.176-.057-.346-.133-.505-.227-.48-.232-.94-.5-1.378-.803-1.631-1.114-2.987-2.586-3.965-4.303a20.73 20.73 0 0 1-1.66-3.714c-.467-1.391-.883-2.884-1.346-4.449l-2.868-10.244-4.928-18.636-1.522-5.655-.404-1.544a2.86 2.86 0 0 1-.107-.574zm36.625-10.183c-.08-.084-.149-.176-.207-.276l-.559-.832-2.127-3.111a95.47 95.47 0 0 0-8.345-10.256l.357-.123-1.238 13.098-.085 1.213-.066.928-.336-.895-8.017-19.952-2.366-6.019-.614-1.646a3.95 3.95 0 0 1-.194-.58 2.69 2.69 0 0 1 .274.551l.695 1.608 2.5 5.968 8.16 19.901-.431.065.086-1.213 1.271-13.096.033-.459.307.335c3.005 3.254 5.762 6.729 8.247 10.397.905 1.344 1.567 2.436 2.036 3.183l.504.863a1.41 1.41 0 0 1 .115.348zm32.52 23.571c.089.094-7.455 7.077-16.75 15.6l-17.057 15.265c-.081-.084 7.411-7.071 16.75-15.6l17.057-15.265z"/><path d="M154.069 188.083c-.223-.908-.385-1.83-.483-2.76l-1.325-6.608-1.917-6.466c-.34-.874-.629-1.767-.864-2.674.47.813.861 1.668 1.168 2.556a52.43 52.43 0 0 1 2.047 6.467 51.48 51.48 0 0 1 1.208 6.669 13.97 13.97 0 0 1 .166 2.816zm-55.21-51.725a52.31 52.31 0 0 1-5.546-4.084 52.16 52.16 0 0 1-5.278-4.431 51.76 51.76 0 0 1 5.555 4.076c1.852 1.362 3.612 2.845 5.269 4.439zm90.615 35.055l-.303-.021-.865-.061a8.19 8.19 0 0 1-1.411-.213 11.67 11.67 0 0 1-1.857-.549 12.6 12.6 0 0 1-4.28-2.915c-1.544-1.618-2.719-3.552-3.443-5.669L175.412 151l-3.204-19.151-.929-5.813-.227-1.584a2.55 2.55 0 0 1-.048-.552 2.17 2.17 0 0 1 .144.542l.307 1.563 1.061 5.788 3.345 19.134 1.833 10.989a15.49 15.49 0 0 0 3.303 5.555 12.5 12.5 0 0 0 4.142 2.904c1.396.525 2.852.873 4.335 1.038zm-84.531-5.425a16 16 0 0 1-1.757.259 11.8 11.8 0 0 0-7.073 4.125c-.336.481-.697.944-1.08 1.387a4.42 4.42 0 0 1 .824-1.579 10.29 10.29 0 0 1 3.195-2.892c1.25-.741 2.643-1.204 4.087-1.358a4.19 4.19 0 0 1 1.804.058z"/><path d="M105.167 165.011a12.79 12.79 0 0 1-4.166 1.256c-1.43.331-2.907.41-4.364.232.009-.13 1.923-.265 4.265-.674l4.265-.814z"/></g><path d="M105.857 116.681c.447-.534 1.009-.861 1.359-1.263s1.082-.55 1.399-.11-.082 1.153-.563 1.572c1.406.16 2.605-1.689 3.937-1.212.201.108.378.255.522.433a1.76 1.76 0 0 1 .318.6c.066.219.087.448.063.676a1.73 1.73 0 0 1-.2.649c-.494.791-1.229 1.401-2.097 1.741-.863.333-1.654.831-2.329 1.465-.321.36-.552.927-.258 1.314.493.662 1.816.015 2.245.716.297.474-.135 1.053-.544 1.433l-4.391 4.184c-.357.404-.813.708-1.323.882-.256.075-.531.051-.771-.067a1.07 1.07 0 0 1-.522-.573 1.25 1.25 0 0 1 .766-1.252 10.09 10.09 0 0 0 1.43-.666c.222-.138.381-.357.444-.611a1.01 1.01 0 0 0-.105-.749c-.416-.509-1.223-.165-1.753.198l-5.031 3.416a2.4 2.4 0 0 1-1.203.533c-.221.021-.442-.043-.616-.18a.87.87 0 0 1-.323-.556 1.18 1.18 0 0 1 .254-.636c.979-1.456 2.268-2.676 3.774-3.574a6.3 6.3 0 0 0 1.61-1.14 1.58 1.58 0 0 0 .437-.867 1.59 1.59 0 0 0-.151-.96 17.43 17.43 0 0 1-3.242 2.08c-.415.205-.99.348-1.259-.02s.061-.866.401-1.243l5.339-5.432a2.48 2.48 0 0 1 1.633-.956l.752.175zm35.521 14.334c.438-.535 1-.862 1.358-1.263s1.082-.551 1.391-.111-.082 1.153-.563 1.572c1.405.16 2.605-1.689 3.937-1.212.201.108.378.255.522.433a1.75 1.75 0 0 1 .318.6c.065.219.086.448.063.676a1.74 1.74 0 0 1-.2.649c-.496.787-1.23 1.395-2.096 1.733s-1.66.836-2.339 1.472c-.321.361-.552.928-.258 1.314.502.654 1.817.015 2.254.717.288.473-.144 1.052-.545 1.433l-4.399 4.183c-.355.411-.811.721-1.324.9a1.07 1.07 0 0 1-.773-.071c-.239-.121-.425-.327-.52-.578-.02-.262.044-.523.181-.746a1.24 1.24 0 0 1 .585-.497c.492-.186.97-.409 1.429-.666.422-.31.686-.962.349-1.36s-1.232-.165-1.753.199l-5.023 3.416a2.6 2.6 0 0 1-1.212.533c-.22.021-.441-.044-.616-.181a.87.87 0 0 1-.323-.556c.02-.232.109-.453.254-.635a11.79 11.79 0 0 1 3.73-3.578c.596-.292 1.142-.677 1.619-1.139.232-.238.383-.541.433-.869a1.58 1.58 0 0 0-.156-.958c-.999.813-2.087 1.51-3.242 2.079-.405.198-.989.348-1.259-.019s.061-.867.409-1.243l5.331-5.441c.402-.515.986-.855 1.632-.948l.806.162zm-16.282 33.52c.446-.535 1.008-.861 1.358-1.263s1.082-.542 1.399-.11-.082 1.161-.563 1.571c1.406.16 2.606-1.688 3.937-1.211a1.73 1.73 0 0 1 .84 1.032c.066.219.087.449.064.676a1.74 1.74 0 0 1-.201.649 4.34 4.34 0 0 1-2.096 1.742c-.864.333-1.654.83-2.329 1.464-.321.361-.552.928-.258 1.315.492.661 1.816.015 2.245.715.297.474-.135 1.053-.545 1.434l-4.39 4.184c-.357.404-.813.708-1.323.882a1.06 1.06 0 0 1-.771-.068 1.07 1.07 0 0 1-.523-.572c-.02-.263.043-.526.181-.751a1.25 1.25 0 0 1 .586-.501c.495-.179.973-.402 1.429-.666.222-.138.382-.358.445-.612a1.01 1.01 0 0 0-.105-.749c-.417-.508-1.223-.164-1.753.199l-5.032 3.416a2.41 2.41 0 0 1-1.202.533.87.87 0 0 1-.617-.181c-.174-.137-.29-.336-.323-.556.02-.232.109-.453.254-.635a11.96 11.96 0 0 1 3.73-3.577 5.94 5.94 0 0 0 1.611-1.141c.232-.236.385-.539.436-.867a1.58 1.58 0 0 0-.151-.959c-.999.814-2.086 1.511-3.242 2.079-.414.206-.99.357-1.259-.019s.061-.867.4-1.235l5.34-5.44c.396-.522.983-.866 1.632-.956l.796.178zm41.539-.116c.438-.535 1.008-.861 1.358-1.263s1.082-.55 1.399-.11-.124 1.149-.563 1.571c1.406.161 2.606-1.688 3.937-1.211a1.73 1.73 0 0 1 .523.432 1.74 1.74 0 0 1 .38 1.277c-.023.227-.091.447-.2.648a4.34 4.34 0 0 1-2.096 1.734c-.862.339-1.653.838-2.329 1.473-.321.36-.553.927-.258 1.314.493.653 1.816.015 2.244.716.297.473-.143 1.052-.544 1.433l-4.399 4.183a3.05 3.05 0 0 1-1.323.882 1.07 1.07 0 0 1-.772-.074c-.239-.12-.425-.324-.521-.574a1.24 1.24 0 0 1 .183-.749c.14-.224.347-.397.592-.494.49-.185.965-.408 1.42-.666.422-.31.685-.962.348-1.361s-1.223-.164-1.752.199l-5.023 3.416a2.51 2.51 0 0 1-1.212.533c-.221.021-.441-.044-.616-.181a.87.87 0 0 1-.323-.556c.02-.233.111-.455.262-.634.977-1.458 2.266-2.679 3.774-3.575.592-.295 1.135-.679 1.61-1.14a1.58 1.58 0 0 0 .437-.867 1.59 1.59 0 0 0-.151-.959c-1.001.811-2.088 1.508-3.242 2.079-.415.206-.998.348-1.268-.02s.061-.866.409-1.242l5.339-5.432a2.46 2.46 0 0 1 .721-.642c.28-.164.59-.271.912-.314l.744.174zm31.77-6.448c-.046.65-3.135 1.8-3.77 1.685l-.737-.287c-.519.46-1.127.696-1.534 1.041s-1.156.372-1.401-.098.296-1.12.799-1.468c-1.365-.366-2.837 1.271-4.075.583-.366-.28-.605-.693-.666-1.15a1.74 1.74 0 0 1 .342-1.285 4.34 4.34 0 0 1 2.341-1.394c.905-.195 1.763-.563 2.529-1.084.37-.314.684-.823.454-1.266-.383-.723-1.788-.291-2.11-1.019-.216-.512.298-1.016.763-1.331l5.597-3.916c.003-.043 1.617 8.022 1.468 10.989z" opacity=".5" fill="#fff"/><path d="M150.526 167.943a1.6 1.6 0 0 1-.209-.372l-.53-1.109-1.822-4.117c-1.492-3.502-3.415-8.41-5.261-13.914a207.61 207.61 0 0 1-4.208-14.283c-.461-1.853-.807-3.349-1.027-4.427l-.237-1.201a1.53 1.53 0 0 1-.056-.431 1.78 1.78 0 0 1 .145.411c.081.319.193.711.325 1.181l1.162 4.35a268.9 268.9 0 0 0 4.29 14.237c1.837 5.52 3.709 10.407 5.104 13.928l1.687 4.178.45 1.137a1.61 1.61 0 0 1 .187.432z" class="B"/><path opacity=".09" d="M136.147 181.707c13.028-5.97 25.002-16.22 31.989-28.747l-31.989 28.747zm-41.091-9.946c2.83-5.113 7.768-6.219 12.462-5.826a1.13 1.13 0 0 0-.103-.803c-.132-.246-.35-.434-.612-.528-.53-.186-1.101-.226-1.652-.117a18.48 18.48 0 0 0-6.646 1.77 6.5 6.5 0 0 0-2.366 2.229c-.587.932-.929 1.998-.992 3.099m18.312-72.106c2.363 11.937 6.536 23.442 12.372 34.115 2.684-3.589 4.029-8.004 3.802-12.482 1.652 2.498 4.023 4.433 6.799 5.549-3.007-4.82-6.16-9.423-10.228-13.376l-1.374 14.299-11.389-28.106" fill="#1f1b2d"/><path d="M154.464 61.266c-1.586 4.112-3.648 7.215-7.831 8.583-3.657 1.196-7.661.635-11.361-.401-12.029-3.383-24.381-10.804-30.109-21.92l3.994-7.312c4.066-5.504 13.493-11.702 23.636-7.59a17.27 17.27 0 0 1 8.637.385c2.8.859 5.336 2.416 7.371 4.525 7.48 7.347 5.663 23.731 5.663 23.731z" class="B"/><path d="M126.636 37.975c-7.068-1.37-16.884 6.647-17.979 13.789-1.22 7.926-2.393 17.649-1.993 23.678.822 12.129 9.838 14.472 9.838 14.472l-.872 6.078 27.673-3.325 4.199-42.751.42-3.855-21.286-8.086z" class="F"/><g class="B"><path d="M112.483 60.725a1.54 1.54 0 0 0 .326 1.111c.249.314.61.517 1.007.568.194.034.393.029.585-.015s.373-.126.532-.242.295-.262.397-.43a1.47 1.47 0 0 0 .199-.551c.041-.399-.076-.798-.325-1.111s-.611-.517-1.008-.568c-.194-.034-.393-.029-.584.015s-.373.126-.533.242a1.47 1.47 0 0 0-.596.981z"/><path d="M110.547 59.811c.168.212 1.403-.537 3.053-.386s2.785 1.068 2.98.898-.064-.457-.553-.91a4.28 4.28 0 0 0-2.366-.968 4.08 4.08 0 0 0-2.457.558c-.538.363-.771.703-.657.807zm17.291 2.599c-.038.398.079.796.328 1.109s.609.517 1.005.57a1.47 1.47 0 0 0 .582-.018c.191-.045.371-.127.53-.242s.293-.261.394-.429a1.46 1.46 0 0 0 .198-.549 1.54 1.54 0 0 0-1.332-1.687c-.194-.033-.393-.026-.584.019a1.47 1.47 0 0 0-.531.245 1.48 1.48 0 0 0-.395.432 1.47 1.47 0 0 0-.195.552z"/><path d="M126.709 61.578c.176.213 1.412-.536 3.061-.385s2.777 1.067 2.971.898-.063-.457-.553-.91a4.25 4.25 0 0 0-2.357-.968 4.05 4.05 0 0 0-2.456.558c-.522.364-.746.705-.666.806zm-6.904 8.956c-.847-.343-1.732-.584-2.636-.717-.411-.081-.803-.205-.834-.494a2.13 2.13 0 0 1 .399-1.226L118.266 65c.995-2.078 1.166-2.894.989-2.976s-.642.591-1.637 2.669l-1.481 3.126c-.315.481-.446 1.059-.368 1.629a1.04 1.04 0 0 0 .239.417c.111.118.248.209.4.264.226.083.462.138.702.163a10.58 10.58 0 0 0 2.695.242z"/></g><path d="M116.498 89.947c5.744.608 11.545-.364 16.778-2.813 0 0-4.952 7.959-17.203 5.753l.425-2.94z" fill="#dda198"/><g class="B"><path d="M124.547 72.114c-.268-.019-.425 1.712-2.073 2.884s-3.532.77-3.55 1.021c-.007.104.391.385 1.193.476a4.45 4.45 0 0 0 2.974-.748 3.9 3.9 0 0 0 1.623-2.428c.122-.74-.037-1.204-.167-1.205zm1.674-17.957c.116.461 1.781.396 3.691.8s3.399 1.111 3.724.698c.135-.182-.103-.626-.695-1.12a6.38 6.38 0 0 0-2.695-1.227 6.23 6.23 0 0 0-2.954.088c-.738.235-1.124.539-1.071.76zm-15.244.015c.25.401 1.428.101 2.786.197s2.505.481 2.8.111c.135-.182-.012-.567-.487-.975-.634-.497-1.407-.783-2.212-.818a3.94 3.94 0 0 0-2.291.553c-.556.37-.756.739-.596.933zm35.919-9.385c-.818-2.087-3.121-3.085-5.16-3.996l-8.619-3.909a18.08 18.08 0 0 0-9.277-1.221c-3.212.54-6.084 2.314-8.651 4.319-3.386 2.644-6.507 5.959-7.617 10.113l-.102 1.447c6.998-1.466 14.33-8.168 19.657-12.939 3.861 6.282 10.24 17.4 16.372 20.445.64-3.029 3.124-7.313 3.584-10.372a7.9 7.9 0 0 0-.187-3.889z"/><path d="M166.557 94.77c-.298-2.425-2.558-4.038-4.535-5.467s-4.062-3.422-3.769-5.848 3.149-4.333 3.094-6.888-3.099-4.129-4.621-6.335c-2.21-3.187-2.544-5.1-2.272-8.965.534-7.565-1.788-17.657-8.186-21.732l-9.201 6.692c2.027 7.241 4.067 14.805 2.658 22.204-.84 4.382-2.873 8.558-2.936 13.022-.069 4.794 2.142 9.322 2.667 14.079.499 4.511-.525 9.046-.62 13.585s1.066 9.533 4.721 12.204l14.928-5.914c1.619-.643 3.453-1.498 3.8-3.215s-1.076-3.351-1.378-5.114c-.718-4.605 6.211-7.687 5.65-12.307z"/></g><path d="M154.538 56.769c-.707.263-1.44.451-2.187.56a27.95 27.95 0 0 1-5.449.582 16.24 16.24 0 0 1-5.391-.973 7.81 7.81 0 0 1-2.053-.972c.056-.179 3.208 1.48 7.45 1.492a37.16 37.16 0 0 0 5.39-.49c.739-.136 1.489-.203 2.24-.199zm.081 2.801a7.4 7.4 0 0 1-2.021.928 14.42 14.42 0 0 1-5.314.757c-1.797-.111-3.569-.483-5.26-1.103-.71-.214-1.389-.517-2.023-.901a14.93 14.93 0 0 1 2.123.594 22.41 22.41 0 0 0 5.149.956 16.62 16.62 0 0 0 5.198-.608 21.01 21.01 0 0 1 2.148-.623zm-50.408-8.059a19.6 19.6 0 0 1 2.306-.029 19.77 19.77 0 0 1 2.309-.203c-.699.392-1.48.617-2.28.657a5.2 5.2 0 0 1-2.335-.425zm-.528 1.339c.085-.099.957.599 2.199 1.122s2.342.679 2.333.818c-.859.147-1.741.005-2.511-.404a3.87 3.87 0 0 1-2.021-1.536z" class="E"/><path d="M139.927 115.22a2.3 2.3 0 0 1-.61-.226c-.571-.29-1.073-.7-1.471-1.201a5.17 5.17 0 0 1-1.108-2.787 4.34 4.34 0 0 1 .273-1.888 7.99 7.99 0 0 1 1.042-1.842 16.55 16.55 0 0 0 1.255-1.889 6.16 6.16 0 0 0 .658-2.305c.065-1.804-.346-3.592-1.19-5.187-.967-1.766-2.031-3.478-3.185-5.128a13.81 13.81 0 0 1-2.378-6.099c-.175-2.204.112-4.42.842-6.507.667-1.922 1.482-3.789 2.437-5.585l2.373-4.927c.632-1.454 1.109-2.97 1.424-4.524.515-2.239.539-4.564.072-6.814a9.86 9.86 0 0 0-.904-2.346 2.87 2.87 0 0 1 .371.54 7.82 7.82 0 0 1 .742 1.794 15.66 15.66 0 0 1 .069 6.92 22.71 22.71 0 0 1-1.395 4.604c-.652 1.6-1.489 3.239-2.35 4.972a38.8 38.8 0 0 0-2.382 5.536c-.708 2.026-.987 4.177-.82 6.317a13.45 13.45 0 0 0 2.305 5.91c1.159 1.666 2.224 3.395 3.19 5.18.863 1.665 1.271 3.53 1.184 5.405a6.5 6.5 0 0 1-.72 2.431 17.46 17.46 0 0 1-1.306 1.876 8.34 8.34 0 0 0-1.037 1.756c-.211.548-.306 1.135-.278 1.722.063.972.408 1.905.993 2.683.496.681 1.149 1.232 1.904 1.606z" class="B"/><path d="M133.26 32.529c-1.325.49-2.553 1.211-3.628 2.13a12.18 12.18 0 0 0-2.333 3.493c-.019-.434.074-.866.271-1.252a7.28 7.28 0 0 1 1.751-2.572 7.25 7.25 0 0 1 2.665-1.602c.401-.175.84-.242 1.274-.197z" class="E"/><path d="M173.355 117.221l-5.236-9.714.239-9.171 2.751-6.094s1.874-.312 2.023 1.885a12.06 12.06 0 0 1-1.027 4.822l.95 4.526s.382.506.901-1.312.811-15.549.868-16.486.294-3.175 1.672-2.869 1.688 2.2 1.621 3.145.306 10.202.306 10.202.271.846.608.748.401-9.874.449-11.412-.057-4.977 1.742-4.85 1.677 1.86 1.65 3.722.395 12.508.395 12.508.231.678.553-.187 1.45-12.299 1.687-12.822 1.343-1.159 2.064.198.317 4.377-.171 9.698c-.444 4.802-.731 6.785-.213 7.205s2.779-2.417 2.779-2.417 2.904-6.17 4.973-5.797.553 1.894.095 3.342c-.391 1.227-4.557 8.387-4.641 8.477s-4.599 13.052-4.599 13.052l6.839 15.697a14.24 14.24 0 0 1 .924 8.705c-.704 3.198-2.61 6.687-7.446 7.826-3.538.848-6.023-.895-7.624-2.855a11.53 11.53 0 0 1-2.384-6.003l-2.764-23.787.016.018z" class="F"/><path d="M179.709 110.964c-.078-.005.05-.71-.065-1.798a7.19 7.19 0 0 0-1.658-3.854c-.728-.886-1.738-1.495-2.86-1.725-.702-.134-1.428-.023-2.057.316l-.09.046.005-.078c-.095-.251-.137-.393-.111-.4s.107.095.255.332l-.121-.009c.313-.233.669-.401 1.047-.494s.771-.109 1.156-.047c1.236.184 2.359.822 3.152 1.79a6.87 6.87 0 0 1 1.639 4.122 3.69 3.69 0 0 1-.292 1.799zm5.469-6.677c.07.118-.775.747-1.625 1.706a18.36 18.36 0 0 1-1.518 1.8 5.56 5.56 0 0 1 3.143-3.506z" fill="#dda198"/><path d="M99.402 181.43c-.162 3.87 1.076 7.669 3.488 10.697a82.58 82.58 0 0 0 5.702 6.428l14.425 7.742s3.842.863 8.013-2.666a13.03 13.03 0 0 0 3.303-3.686s4.322 2.317 6.075 2.362c2.951.078 2.63-2.035 2.63-2.035s-9.453-6.119-11.641-8.381-8.822-4.106-13.64-3.827l-2.73-.742-.741-3.797s-4.83-8.431-10.014-5.932-4.87 3.837-4.87 3.837z" class="F"/></svg>