<svg xmlns="http://www.w3.org/2000/svg" xmlns:xlink="http://www.w3.org/1999/xlink" width="289" height="250" fill="none" xmlns:v="https://vecta.io/nano"><style><![CDATA[.B{fill:#1f1b2d}.C{fill:#fd5631}.D{fill:#ffbe9d}.E{fill:#eb996e}.F{fill:#454056}]]></style><g fill="#07c98b"><path opacity=".2" d="M231.379 238.557c-12.364-8.658-15.173-24.729-14.681-39.182.084-2.406-.18-4.952.961-7.069s3.817-3.562 6.002-2.546c1.8.843 2.562 2.931 3.565 4.651 1.332 2.304 3.288 4.181 5.642 5.416 1.53.794 3.421 1.281 4.933.445 2.077-1.143 2.323-4.019 2.305-6.42l-.078-13.412c0-2.407 0-4.843.72-7.124s2.401-4.386 4.664-5.03 5.09.68 5.57 3.009c.204.974 0 1.991.072 3.008s.528 2.1 1.47 2.407 1.915-.397 2.629-1.101c2.467-2.407 4.142-5.542 5.708-8.647s3.085-6.275 5.33-8.917 5.342-4.735 8.763-4.927 7.082 1.925 7.947 5.294-1.099 6.812-3.242 9.549c-3.196 4.048-6.96 7.611-11.175 10.578-.751.541-1.573 1.119-1.861 2.01-.516 1.594.996 3.182 2.569 3.712 1.801.602 3.715.409 5.582.602s3.913 1.101 4.615 2.84c.985 2.473-1.062 5.018-3.103 6.684-4.032 3.367-8.612 6.013-13.54 7.822-1.765.65-3.601 1.204-5.036 2.455s.786 5.626 1.645 7.317 0 0 1.842-.343 3.493-1.348 5.252-2.01c3.283-1.245 7.533-1.017 9.639 1.805 1.381 1.871 1.507 4.483.805 6.715s-2.119 4.152-3.602 5.927c-5.269 6.197-12.004 11.185-19.644 13.839s-14.693 3.369-22.274.601"/><path d="M231.187 249.267c.671-6.698 1.979-13.317 3.907-19.765a215.9 215.9 0 0 1 8.511-23.141l2.545-5.957c.84-1.949 1.668-3.887 2.599-5.728 1.785-3.531 3.765-6.96 5.93-10.271 2.052-3.177 4.111-6.119 6.056-8.856s3.823-5.241 5.624-7.461c2.831-3.509 5.936-6.786 9.285-9.802l2.767-2.407.738-.601a1.55 1.55 0 0 1 .264-.199 1.45 1.45 0 0 1-.234.229l-.708.638-2.713 2.46a90.88 90.88 0 0 0-9.141 9.886c-1.801 2.226-3.601 4.741-5.564 7.479s-3.979 5.686-6.002 8.863a108.19 108.19 0 0 0-5.906 10.229c-.924 1.805-1.747 3.748-2.581 5.71l-2.539 5.944a220.12 220.12 0 0 0-8.553 23.099 107.32 107.32 0 0 0-3.985 19.681"/><path d="M248.875 194.665a4.6 4.6 0 0 1-.234-1.023l-.444-2.822-1.069-9.356-1.152-9.339-.462-2.816c-.083-.34-.127-.69-.132-1.04.134.323.234.66.3 1.004l.6 2.798c.45 2.371.906 5.68 1.278 9.338l.949 9.369.3 2.834a4.76 4.76 0 0 1 .066 1.053zm30.76-5.765c-.394.087-.796.137-1.2.15l-3.343.331c-2.815.301-6.693.861-10.942 1.661s-8.067 1.709-10.804 2.443l-3.241.884a6.53 6.53 0 0 1-1.2.295 6.45 6.45 0 0 1 1.152-.463c.751-.265 1.843-.602 3.205-1.023 2.731-.812 6.549-1.757 10.804-2.575s8.163-1.312 10.996-1.541a54.98 54.98 0 0 1 3.361-.186c.404-.028.81-.02 1.212.024zm-44.162 40.03s-.09-.12-.216-.373l-.523-1.119-1.8-4.158c-1.483-3.531-3.379-8.477-5.402-13.959l-5.276-14.001-1.68-4.212-.451-1.149c-.061-.13-.106-.268-.132-.409.086.115.157.24.211.373l.528 1.113c.45.975 1.068 2.407 1.8 4.164 1.483 3.532 3.379 8.477 5.402 13.965l5.276 13.995 1.68 4.212.451 1.149a2.1 2.1 0 0 1 .132.409z"/><path d="M276.352 215.724c-.127.075-.264.132-.408.168l-1.2.403-4.382 1.42-14.405 4.814-14.446 4.705-4.418 1.288-1.2.318c-.138.048-.281.074-.426.079.126-.074.261-.131.402-.169l1.2-.397 4.376-1.42 14.404-4.813 14.435-4.706 4.424-1.287 1.2-.319c.145-.044.294-.073.444-.084z"/></g><path opacity=".7" d="M72.387 26.632a4 4 0 0 1 5.236 2.182l35.447 86.776a4 4 0 0 1-2.209 5.223l-61.663 24.823a4 4 0 0 1-5.201-2.209L9.083 57.198a4 4 0 0 1 2.174-5.196l61.13-25.371z" class="C"/><path d="M76.101 25.09L7.581 53.442c-.049.003-.07.036-.057.066l.007.015 37.879 93.618.008.02c.016.043.058.071.104.071.014 0 .028-.002.042-.008l.483-.195 68.576-27.623c.054-.003.078-.039.064-.072l-.006-.016L76.101 25.09l38.379 94.196c.009.022.041.022.05 0s-.013-.044-.035-.035l-68.532 27.582-.437.176c-.025.01-.025.045 0 .055s.049-.014.039-.039L7.692 53.541c-.008-.019-.035-.019-.043.001s.012.038.031.03L76.101 25.09z" fill="#efecf3"/><path d="M77.431 17.638a4 4 0 0 1 5.236 2.182l35.447 86.777a4 4 0 0 1-2.209 5.223l-61.662 24.83a4 4 0 0 1-5.202-2.21L14.127 48.204a4 4 0 0 1 2.174-5.196l61.13-25.371z" fill="#fff"/><path d="M82.205 20.009a3.5 3.5 0 0 0-4.582-1.909L16.493 43.47a3.5 3.5 0 0 0-1.903 4.546l34.914 86.236a3.5 3.5 0 0 0 4.552 1.933l61.662-24.83a3.5 3.5 0 0 0 1.933-4.57L82.205 20.009z" stroke="#1f1b2d" stroke-opacity=".4"/><path d="M81.136 16.096L12.62 44.446c-.008.003-.016.005-.024.005-.035 0-.064.029-.064.065 0 .008.002.017.005.024l37.91 93.635.001.004c.018.051.076.075.124.052l.504-.203 68.591-27.62c.047-.019.07-.072.051-.119l-.002-.007-38.579-94.186 38.387 94.189c.009.022.04.022.049 0s-.013-.044-.035-.035l-68.532 27.589-.44.171c-.023.009-.024.042-.001.053s.047-.013.038-.037L12.736 44.544c-.008-.021-.038-.02-.046.001s.013.039.033.031l68.413-28.481zM29.132 58.849c.063.161 12.041-4.374 26.754-10.129l26.537-10.69c-.035-.175-12.041 4.374-26.754 10.13L29.132 58.85zm2.643 8.624c.063.154 12.042-4.381 26.754-10.129l26.537-10.697c-.035-.182-12.041 4.381-26.754 10.137l-26.537 10.69zm8.936 26.119c.056.154 12.042-4.381 26.754-10.13l26.53-10.697c-.042-.182-12.034 4.381-26.754 10.129l-26.53 10.697zm4.217 8.825c.056.154 12.041-4.381 26.754-10.13l26.53-10.697c-.042-.182-12.034 4.374-26.754 10.13l-26.53 10.697zm3.504 8.91c.063.154 12.041-4.381 26.754-10.129l26.53-10.698c-.042-.182-12.034 4.381-26.754 10.13l-26.53 10.697zm3.502 8.908c.063.155 12.041-4.381 26.754-10.129l26.531-10.697c-.042-.182-12.035 4.381-26.754 10.129l-26.53 10.697z" fill="#efecf3"/><path d="M72.188 50.041c.552-.215 1.222.156 1.459.698.254.582-.076 1.136-.663 1.375L46.182 63.012a1.32 1.32 0 1 1-.977-2.453l26.983-10.517zm14.424 3.748c.699-.263 1.522.137 1.844.811.367.767-.042 1.594-.837 1.897l-51.81 19.779a1.572 1.572 0 1 1-1.114-2.939L86.613 53.79zm3.182 8.871a1.43 1.43 0 1 1 1.014 2.675L38.984 85.121a1.571 1.571 0 1 1-1.113-2.938L89.794 62.66z" class="C"/><path d="M35.942 248.308c0 .091 56.657.159 126.52.159L289 248.308c0-.092-56.645-.16-126.538-.16l-126.52.16z" class="B"/><use xlink:href="#C" class="C"/><use xlink:href="#C" opacity=".4" fill="#000"/><path d="M252.267 9.009a4 4 0 0 1 4.258 3.741l9.524 152.056a4 4 0 0 1-3.768 4.244l-109.115 6.127a4 4 0 0 1-4.217-3.756l-8.981-150.934a4 4 0 0 1 3.727-4.229l108.572-7.25z" fill="#d5d2dc"/><path d="M266.337 5.262a4 4 0 0 1 3.996 4.019l-.742 152.359a4 4 0 0 1-4.046 3.98l-109.281-1.277a4 4 0 0 1-3.953-4.032l1.206-151.195a4 4 0 0 1 4.004-3.968l108.816.114z" fill="#f5f4f8"/><path d="M280.737 15.625a5 5 0 0 1 4.278 5.645l-20.753 148.902a5 5 0 0 1-5.679 4.257l-106.151-15.6a5 5 0 0 1-4.222-5.653L169.264 5.467a5 5 0 0 1 5.624-4.249l105.849 14.407z" fill="#fff"/><path d="M285.707 16.303L169.983.396h-.008a.12.12 0 0 0-.12.12l-22.481 157.549c-.001.007-.001.014-.001.021 0 .081.066.148.148.148.007 0 .014.001.021.002l.832.12 115.165 16.951c.095.002.156-.059.156-.135v-.01l21.969-158.878-22.265 158.735c-.006.039.038.064.069.04s.018-.072-.02-.077l-115.111-16.925-.737-.112c-.041-.006-.07.04-.045.074s.078.02.084-.021L170.037.639c.005-.033-.033-.055-.06-.035s-.016.063.018.068l115.712 15.631z" class="C"/><path d="M177.257 53.113c-.043.263 19.852 3.61 44.433 7.482l44.549 6.534c0-.257-19.852-3.609-44.433-7.482l-44.549-6.534zm-8.501 42.666c-.037.257 19.858 3.609 44.433 7.476l44.55 6.533c0-.263-19.846-3.609-44.434-7.475l-44.549-6.534zm-1.239 15.355c-.036.263 19.858 3.609 44.434 7.475l44.549 6.534c0-.263-19.846-3.609-44.433-7.476l-44.55-6.533zm14.256-91.723c0 .239 13.353 2.325 29.842 4.662l29.903 3.799c0-.239-13.353-2.331-29.848-4.662l-29.897-3.799zm-1.886 8.503c0 .239 13.353 2.331 29.842 4.662l29.903 3.799c0-.239-13.346-2.325-29.842-4.662l-29.903-3.799zm-2.282 8.975c0 .245 13.353 2.331 29.848 4.668l29.903 3.793c.036-.239-13.371-2.325-29.848-4.631l-29.903-3.83zm-12.364 89.16c-.042.257 19.852 3.609 44.433 7.476l44.55 6.533c0-.263-19.852-3.609-44.434-7.476l-44.549-6.533zm-2.282 14.915c-.043.257 19.852 3.609 44.427 7.476l44.586 6.533c.036-.263-19.852-3.609-44.44-7.476l-44.573-6.533z" class="B"/><path d="M246.056 61.506c.921.146 1.54 1.17 1.435 2.097-.113.998-1.007 1.506-2.001 1.364l-45.104-6.48a2.08 2.08 0 0 1-1.748-2.435 2.08 2.08 0 0 1 2.368-1.674l45.05 7.128zm16.656 16.571c1.165.198 1.975 1.413 1.88 2.592-.105 1.323-1.308 2.119-2.617 1.902l-86.193-14.267c-1.275-.211-2.173-1.368-2.06-2.656.126-1.44 1.454-2.466 2.879-2.223l86.111 14.652zm-2.707 14.596c1.167.198 1.978 1.415 1.884 2.595-.106 1.325-1.31 2.122-2.621 1.905l-86.187-14.266a2.48 2.48 0 0 1-2.063-2.659 2.48 2.48 0 0 1 2.883-2.226l86.104 14.651zm-3.712 14.819c1.244.227 1.994 1.304 1.75 2.545-.272 1.381-1.592 2.288-2.981 2.061l-40.531-6.61c-1.427-.232-2.436-1.521-2.32-2.961.132-1.638 1.65-2.803 3.266-2.507l40.816 7.472zm11.401-81.026a4 4 0 0 1 3.428 4.512l-2.978 21.541a4 4 0 0 1-4.519 3.413l-18.917-2.657a4 4 0 0 1-3.413-4.454l2.666-21.478a4 4 0 0 1 4.505-3.471l19.228 2.594z" class="C"/><mask id="A" mask-type="alpha" maskUnits="userSpaceOnUse" x="241" y="23" width="31" height="33"><path d="M267.693 26.466a4 4 0 0 1 3.428 4.512l-2.978 21.541a4 4 0 0 1-4.519 3.413l-18.916-2.657a4 4 0 0 1-3.413-4.454l2.666-21.478a4 4 0 0 1 4.504-3.471l19.228 2.594z" fill="#5d3cf2"/></mask><g mask="url(#A)"><path d="M258.318 51.426l-8.092-2.19c.128-.973.891-4.668.891-4.668s-3.314-1.169-2.716-4.595 2.643-11.159 2.643-11.159c2.089-.467 4.264-.367 6.302.289s3.865 1.844 5.293 3.443l.433.483-4.754 18.396z" class="D"/><path d="M250.757 34.834a.5.5 0 0 0 .26-.314c.019-.068.023-.138.013-.208a.49.49 0 0 0-.217-.345.5.5 0 0 0-.4-.069.5.5 0 0 0-.187.092.49.49 0 0 0-.145.132.48.48 0 0 0-.083.178.5.5 0 0 0-.007.197.51.51 0 0 0 .387.404.5.5 0 0 0 .379-.067zm-.684-.936c.043.074.428-.122.897-.037s.763.392.824.343 0-.141-.128-.281a1.13 1.13 0 0 0-.647-.349 1.21 1.21 0 0 0-.726.104c-.171.092-.238.19-.22.22zm5.334 1.426a.5.5 0 0 0-.281.263c-.027.06-.042.125-.044.191a.51.51 0 0 0 .032.194.5.5 0 0 0 .65.29.5.5 0 0 0 .166-.105c.048-.046.087-.1.114-.161a.51.51 0 0 0 .043-.192c.002-.066-.01-.132-.033-.194-.048-.124-.143-.224-.264-.278a.5.5 0 0 0-.383-.01z" class="B"/><path d="M255.108 35.268c.043.067.427-.129.891-.043s.769.398.83.343 0-.135-.128-.281a1.22 1.22 0 0 0-.652-.337c-.247-.043-.501-.008-.727.099-.177.092-.25.165-.214.22zm-2.618 3.531a2.37 2.37 0 0 0-.726-.306c-.122-.037-.214-.08-.214-.147.022-.124.076-.241.159-.336l.549-.887a13.9 13.9 0 0 0 1.269-2.361 12.7 12.7 0 0 0-1.501 2.221l-.531.899a.8.8 0 0 0-.165.495.33.33 0 0 0 .059.141c.031.042.072.075.118.097a.84.84 0 0 0 .202.067c.252.083.516.122.781.116z" class="B"/><path d="M253.887 39.606c.543-.202-1.483.465-2.441.239a1.32 1.32 0 0 0 .578.652c.26.146.562.198.856.15 1.135-.184 1.007-1.04 1.007-1.04z" fill="#fff"/><path d="M251.135 44.517c1.569.326 3.199.174 4.681-.434 0 0-1.507 2.264-4.882 1.315l.201-.881z" class="E"/><path d="M262.511 36.332c.079 0 2.575.288 1.629 3.059s-3.454.918-3.436.838 1.807-3.897 1.807-3.897z" class="D"/><path d="M261.894 39.569s.037.049.11.116c.099.087.228.133.36.128.33 0 .738-.392.921-.893a1.71 1.71 0 0 0 .098-.746.6.6 0 0 0-.059-.279.61.61 0 0 0-.179-.222c-.05-.034-.111-.049-.171-.042s-.117.035-.158.079c-.068.067-.068.128-.086.128s-.043-.067 0-.177c.04-.063.1-.11.171-.135.046-.02.096-.03.146-.03s.101.01.147.03c.107.063.196.152.259.259a.73.73 0 0 1 .101.353c.038.283.007.571-.092.838-.07.255-.214.484-.414.657s-.446.283-.708.316c-.082-.004-.162-.026-.234-.065a.53.53 0 0 1-.181-.161c-.049-.086-.043-.153-.031-.153z" class="E"/><path d="M251.093 28.716c.445 2.514 3.661 4.075 6.139 4.68-.971-1.223-.293-.887-.879-1.737a10.76 10.76 0 0 0 6.457 3.885c.3-.543.489-1.141.554-1.759s.006-1.242-.175-1.836a4.62 4.62 0 0 0-.876-1.622 4.61 4.61 0 0 0-1.438-1.151c-.726-.373-1.532-.551-2.282-.875-.611-.275-1.221-.661-1.868-.887-1.953-.673-5.108-1.835-5.632 1.303z" class="B"/><path d="M261.516 33.989c.067.355.061 4.368.061 4.368l1.568-3.579-1.629-.789z" class="B"/><path d="M274.356 65.71l-6.78-10.015c-1.289-1.986-3.026-3.64-5.072-4.827-1.082-.637-2.258-1.099-3.484-1.37-3.011.368-6.063-.203-8.739-1.633a21.31 21.31 0 0 0-7.256.691l-13.426 2.741 1.941 11.807 7.091-.973-1.538 10.474-4.223 15.294 25.851 5.114 2.294-14.175 1.88-10.211 3.051 4.344 8.41-7.262z" class="F"/></g><g class="C"><path d="M112.831 246.165l.03-5.652-10.551-.122-.135 8.261.656.05c2.91.196 14.81.798 16.765.227 2.175-.633-6.765-2.764-6.765-2.764z"/><path d="M105.999 248.616c-.145-.894-.614-1.703-1.317-2.273-.688-.564-1.563-.849-2.451-.798l-.037 2.955 3.805.116z"/><path d="M117.201 247.363s3.131.946 2.732 1.462-12.451.363-17.769-.172v-.239l14.056.301s.362-1.333.981-1.352z"/></g><g class="B"><path d="M102.029 248.408h.184l.521.043 1.912.105 6.335.19h6.336l1.918-.055h.521.184-.705-1.924-6.33c-2.475 0-4.712-.105-6.329-.16l-1.918-.061h-.521l-.184-.062z"/><path d="M116.244 248.88a4.26 4.26 0 0 1 .368-.915c.192-.266.414-.51.662-.725-.333.118-.609.357-.772.67a1.43 1.43 0 0 0-.258.97zm-3.093-1.627c.03 0 .177-.16.337-.399a1.17 1.17 0 0 0 .232-.473c-.03 0-.183.16-.337.405s-.263.449-.232.467zm-.852-.46s.196-.086.379-.246.313-.313.288-.337-.189.079-.373.245-.313.314-.294.338zm-.527-1.008a1.19 1.19 0 0 0 .551.08c.185.021.373.005.552-.05a1.18 1.18 0 0 0-.552-.079 1.35 1.35 0 0 0-.551.049z"/><path d="M111.593 245.078c.181.124.394.191.613.191a1.04 1.04 0 0 0 .613-.08c-.202-.035-.408-.052-.613-.049-.202-.038-.407-.058-.613-.062zm1.925 1.258a2.04 2.04 0 0 0 .68 0 4.45 4.45 0 0 0 .723-.153 1.95 1.95 0 0 0 .417-.166c.081-.046.142-.121.171-.209.01-.05.006-.103-.013-.15s-.05-.09-.091-.12c-.256-.134-.55-.172-.831-.109a1.22 1.22 0 0 0-.707.453 1.18 1.18 0 0 0-.227.448.44.44 0 0 0 0 .184c.074-.208.182-.404.319-.577.157-.174.358-.301.582-.369a1.08 1.08 0 0 1 .411-.047c.139.012.274.051.398.115.11.08.061.209-.055.276-.123.066-.253.12-.386.16-.228.077-.462.134-.699.172l-.692.092z"/><path d="M113.695 246.375a.72.72 0 0 0 .086-.473 1.13 1.13 0 0 0-.184-.498.7.7 0 0 0-.233-.25c-.098-.062-.209-.099-.325-.106a.27.27 0 0 0-.214.313.78.78 0 0 0 .11.307c.088.151.195.289.319.412.101.127.234.224.386.282 0 0-.135-.122-.319-.344-.11-.125-.205-.263-.282-.411-.092-.141-.153-.399 0-.43s.343.16.448.295a1.11 1.11 0 0 1 .183.442c.022.153.03.307.025.461zm-11.415-.86l.778.036a3.32 3.32 0 0 1 1.692.726c.485.396.848.922 1.047 1.517.153.46.166.761.19.761.01-.071.01-.143 0-.215a3.18 3.18 0 0 0-.11-.571c-.181-.625-.547-1.18-1.049-1.592a3.21 3.21 0 0 0-1.764-.718 2.83 2.83 0 0 0-.582 0 .76.76 0 0 0-.202.056z"/><path d="M103.45 241.153c-.128 1.444-.165 2.895-.111 4.343.119-1.444.156-2.894.111-4.343zm3.891 6.45c1.009.203 2.046.226 3.064.067 0-.037-.693 0-1.545 0s-1.513-.104-1.519-.067zm-2.053-.031l.123.307c.067.16.104.301.141.295s.055-.166 0-.35-.264-.276-.264-.252zm-.777-.982c-.031 0 .036.135.147.245s.214.185.238.16-.036-.135-.147-.246-.214-.184-.238-.159zm-1.109-.462c0 .037.147.037.3.092s.263.142.294.117-.061-.166-.251-.233-.356-.006-.343.024zm-.798-.221c0 .037.049.092.135.123s.172.043.184 0-.049-.086-.135-.123-.165-.03-.184 0z"/></g><g class="C"><path d="M58.897 243.247l1.722-5.381 10.067 3.164-2.451 7.893-.613-.153c-2.831-.719-14.326-3.852-16.011-5.001-1.875-1.277 7.286-.522 7.286-.522z"/><path d="M64.633 247.7c.412-.807 1.109-1.431 1.955-1.751a3.55 3.55 0 0 1 2.586 0l-.882 2.82-3.658-1.069z"/><path d="M54.374 243.026s-3.272-.074-3.064.541 11.722 4.214 16.936 5.356l.049-.227-13.45-4.091s.104-1.37-.472-1.579z"/></g><g class="B"><path d="M68.474 248.74l-.184-.037-.502-.129-1.838-.492-6.078-1.787-6.017-1.99-1.808-.651-.49-.185c-.058-.018-.113-.042-.165-.073l.178.049.496.159 1.838.615 6.023 1.953 6.066 1.843 1.838.534.496.148a.95.95 0 0 1 .147.043z"/><path d="M54.816 244.764c.011-.329-.014-.658-.074-.982-.099-.314-.235-.615-.404-.897a1.39 1.39 0 0 1 .533.866 1.48 1.48 0 0 1-.055 1.013zm3.444-.583c-.037 0-.123-.209-.203-.485s-.105-.51-.068-.522a1.29 1.29 0 0 1 .197.491 1.18 1.18 0 0 1 .074.516zm.949-.171c-.031 0-.159-.142-.282-.351s-.202-.399-.172-.417.153.141.282.35.202.399.172.418zm.809-.793c-.187.005-.372-.028-.545-.098a1.38 1.38 0 0 1-.509-.222 1.12 1.12 0 0 1 .545.099c.294.086.521.184.508.221z"/><path d="M60.404 242.595a.99.99 0 0 1-.613 0 1.08 1.08 0 0 1-.582-.27 3.32 3.32 0 0 1 .613.148c.197.024.392.066.582.122zm-2.212.597a1.78 1.78 0 0 1-.65-.203 4.26 4.26 0 0 1-.643-.368 2.01 2.01 0 0 1-.343-.289c-.061-.069-.096-.159-.098-.252a.27.27 0 0 1 .059-.14c.033-.041.076-.071.125-.087.285-.048.578.006.827.153a1.23 1.23 0 0 1 .534.652c.057.161.082.332.074.503a.37.37 0 0 1-.037.179c-.002-.221-.044-.439-.123-.645a1.23 1.23 0 0 0-.441-.535 1.07 1.07 0 0 0-.376-.174 1.05 1.05 0 0 0-.414-.016c-.123.049-.123.178-.031.282s.203.192.319.271c.194.144.399.273.613.387l.607.282z"/><path d="M58.014 243.174c-.038-.16-.016-.328.061-.473.071-.165.183-.308.325-.418.081-.075.179-.13.286-.159a.68.68 0 0 1 .327-.007c.031.017.058.04.08.067a.26.26 0 0 1 .048.093c.01.033.013.069.008.104a.27.27 0 0 1-.032.099.72.72 0 0 1-.196.258 2.3 2.3 0 0 1-.429.295.92.92 0 0 1-.453.147s.165-.074.41-.227a2.49 2.49 0 0 0 .392-.301c.129-.111.27-.338.116-.418a.62.62 0 0 0-.515.141 1.12 1.12 0 0 0-.312.363 1.88 1.88 0 0 0-.116.436zm11.122 2.734s-.282-.117-.754-.203c-.614-.122-1.249-.066-1.833.16a3.3 3.3 0 0 0-1.463 1.118c-.288.387-.392.676-.417.663a.73.73 0 0 1 .061-.202 2.77 2.77 0 0 1 .282-.51 3.22 3.22 0 0 1 1.49-1.187c.605-.235 1.266-.282 1.898-.134.189.046.374.11.552.19a.66.66 0 0 1 .184.105zm.257-4.527a35.3 35.3 0 0 1-1.226 4.165 20.12 20.12 0 0 1 .564-2.101 17.96 17.96 0 0 1 .662-2.064zm-5.722 4.937c-.517-.041-1.028-.146-1.52-.313a6.09 6.09 0 0 1-1.434-.583c0-.031.662.215 1.471.46l1.483.436z"/><path d="M65.643 246.933l-.208.252c-.11.129-.196.252-.227.239s0-.172.129-.325.294-.197.306-.166zm1.042-.695c0 .031-.08.117-.221.191s-.263.104-.276.074.08-.117.214-.191.282-.104.282-.074zm1.189-.09c0 .03-.147 0-.313 0s-.3.055-.319 0 .11-.142.313-.148.355.117.319.148zm.82.036c0 .037-.073.068-.165.074s-.172 0-.172-.049.067-.068.166-.074.171.012.171.049zm51.319-112.19l-4.926 109.74-16.434.344 2.727-91.871-29.78 92.964-13.432-3.685 29.97-107.492"/></g><g class="F"><path d="M72.304 244.551l-.766 1.474-14.234-4.159.864-2.395 14.136 5.08zm-12.495-5.627c-.086 0-.214.153-.288.393s-.061.467 0 .491.208-.153.282-.399.092-.461.006-.485zm1.067-3.565c-.086 0-.276.351-.423.842s-.196.915-.11.94.27-.35.417-.848.202-.909.116-.934zm1.066-3.561c-.086 0-.276.35-.423.841s-.196.916-.11.94.27-.356.417-.847.202-.91.116-.934zm1.067-3.545c-.086 0-.276.35-.423.841s-.196.916-.11.94.27-.356.417-.847.202-.934.116-.934zm1.066-3.581c-.086 0-.276.35-.423.841s-.196.916-.11.94.27-.356.417-.847.196-.91.117-.934zm1.066-3.563c-.086-.031-.276.35-.423.842s-.196.909-.11.94.27-.357.417-.848.196-.909.116-.934zm1.066-3.569c-.086 0-.276.356-.423.848s-.196.909-.11.94.27-.357.417-.848.196-.909.116-.94zm1.091-3.562c-.086 0-.276.356-.423.847s-.196.909-.11.934.27-.35.417-.842.171-.909.116-.939zm1.042-3.54c-.086 0-.276.357-.423.848s-.196.909-.11.934.27-.35.416-.842.196-.94.116-.94zm1.066-3.586c-.086 0-.276.356-.423.847s-.196.909-.11.934.27-.35.417-.842.196-.915.116-.939zm1.059-3.563c-.08 0-.27.356-.417.848s-.196.909-.116.933.276-.35.423-.841.196-.915.11-.94zm1.067-3.561c-.08 0-.27.35-.417.847s-.196.909-.116.934.276-.35.423-.842.165-.915.11-.939zm1.066-3.565c-.08 0-.27.35-.417.842s-.196.915-.116.939.276-.35.423-.847.196-.909.11-.934zm1.066-3.537c-.08 0-.27.35-.417.842s-.196.915-.116.939.276-.356.423-.847.196-.934.11-.934zm1.066-3.587c-.08 0-.27.35-.417.842s-.196.915-.117.939.276-.356.423-.847.196-.909.11-.934zm1.067-3.564c-.086 0-.27.35-.417.841s-.202.916-.116.94.276-.356.423-.848.19-.909.11-.933zm1.066-3.563c-.086-.031-.27.35-.417.841s-.202.91-.116.94.276-.356.423-.847.196-.91.11-.934zm1.067-3.568c-.086 0-.27.356-.417.847s-.202.91-.116.94.276-.356.423-.847.196-.91.11-.94zm1.065-3.532c-.086 0-.269.356-.417.847s-.202.909-.116.934.276-.35.423-.842.196-.939.11-.939zm1.067-3.593c-.086 0-.27.356-.417.847s-.202.909-.116.934.276-.35.423-.841.214-.916.11-.94zm1.066-3.564c-.086 0-.27.357-.417.848s-.202.909-.116.934.27-.351.423-.842.196-.915.11-.94zm1.066-3.562c-.086 0-.27.356-.417.847s-.202.91-.116.934.27-.35.417-.841.202-.916.116-.94zm1.035-3.563c-.086 0-.27.35-.417.848s-.202.909-.116.934.27-.35.417-.842.233-.915.116-.94zm1.098-3.532c-.086 0-.27.35-.423.842s-.196.915-.11.939.27-.35.417-.847.202-.934.117-.934zm1.065-3.594c-.086 0-.276.35-.423.842s-.196.915-.11.94.27-.357.417-.848.202-.909.116-.934zm1.066-3.561c-.086 0-.276.35-.423.841s-.196.916-.11.94.27-.356.417-.848.202-.909.117-.933zm1.061-3.564c-.086 0-.276.35-.423.842s-.196.915-.11.94.27-.357.417-.848.208-.909.116-.934zm1.072-3.563c-.086-.031-.276.35-.423.841s-.196.909-.11.94.27-.356.417-.848.202-.909.117-.933zm1.066-3.569c-.086 0-.276.357-.423.848s-.196.909-.11.94.27-.356.417-.848.196-.903.116-.94zm.797-2.66c-.086 0-.215.148-.288.393s-.061.461 0 .486.208-.148.282-.393.092-.461.006-.486zm11.029 106.692c-.086 0-.165.196-.184.448s.049.467.141.473.166-.196.178-.454-.043-.461-.135-.467z"/><path d="M101.612 239.526c-.086 0-.178.4-.196.909s.037.916.129.916.171-.4.19-.903-.013-.922-.123-.922zm.135-3.655c-.086 0-.172.399-.184.909s.043.915.135.915.171-.405.183-.909-.043-.915-.134-.915zm.092-3.662c-.086 0-.166.405-.178.909s.049.915.135.922.171-.406.184-.91-.049-.921-.141-.921zm.092-3.661c-.092 0-.172.405-.184.915s.049.915.135.915.171-.405.184-.909-.049-.915-.135-.921zm.092-3.66c-.086 0-.172.405-.184.915s.049.915.135.915.172-.405.184-.909-.049-.915-.135-.921zm.122-3.656c-.092 0-.178.4-.196.91s.043.915.128.921.178-.405.19-.909-.043-.922-.122-.922zm.153-3.655c-.092 0-.178.399-.203.903s.037.922.123.922.178-.4.202-.91-.036-.915-.122-.915zm.142-3.66c-.086 0-.178.405-.196.909s.036.915.128.921.172-.405.19-.909-.037-.915-.122-.921zm.128-3.655c-.092 0-.178.405-.19.909s.037.915.129.921.171-.405.19-.909-.043-.915-.129-.921zm.11-3.662c-.086 0-.171.405-.184.909s.043.915.129.921.171-.405.19-.909-.049-.915-.135-.921zm.098-3.656c-.092 0-.172.406-.184.909s.049.916.135.916.171-.406.184-.909-.074-.916-.135-.916zm.062-3.66c-.086 0-.166.406-.178.915s.055.916.141.916.172-.406.178-.909-.037-.922-.141-.922zm.073-3.655c-.086 0-.166.405-.172.909s.055.915.147.915.166-.405.172-.909-.055-.915-.147-.915zm.048-3.66c-.091 0-.165.405-.171.915s.061.915.147.915.165-.411.172-.915-.062-.915-.148-.915zm.026-3.643c-.092 0-.166.412-.166.915s.068.916.153.916.16-.406.166-.916-.068-.915-.153-.915zm.005-3.685c-.085 0-.159.405-.159.915s.067.909.159.915.16-.411.16-.915-.074-.915-.16-.915zm-.012-3.65c-.086 0-.153.412-.153.915s.074.916.165.916.154-.412.154-.916-.074-.915-.166-.915zm-.025-3.661c-.092 0-.159.412-.153.915s.08.916.166.916.159-.412.153-.916-.08-.915-.166-.915zm-.049-3.655c-.085 0-.153.411-.147.915s.086.915.172.915.153-.411.147-.921-.086-.909-.172-.909zm-.066-3.66c-.086 0-.147.417-.141.921s.092.909.177.909.154-.411.141-.915-.085-.915-.177-.915zm-.08-3.662c-.085 0-.147.417-.134.921s.091.915.177.909.153-.411.141-.915-.104-.915-.184-.915zm-.129-3.661c-.086 0-.141.418-.123.922s.104.915.196.909.141-.412.123-.922-.111-.909-.196-.909zm-.214-3.649c-.086 0-.129.418-.098.922s.129.909.221.903.128-.418.098-.928-.129-.909-.221-.897zm-.332-3.648c-.092 0-.116.423-.067.927s.165.903.251.897.117-.424.068-.928-.166-.903-.252-.896zm-.355-2.697c-.085 0-.128.228-.091.473s.134.449.22.437.129-.228.098-.48-.141-.466-.227-.43zm13.787 91.569l-17.377.283.135-2.905 17.243.092v2.53zm-11.397-108.885a2.86 2.86 0 0 0-.104.669l-.165 1.843-.417 6.069-.196 3.342c.01.901-.097 1.799-.319 2.672a2.26 2.26 0 0 1-1.109 1.321c-.199.078-.404.139-.613.184.059.014.12.014.178 0a1.41 1.41 0 0 0 .502-.092c.294-.127.559-.313.778-.546a2.33 2.33 0 0 0 .497-.812c.259-.888.393-1.808.398-2.733l.215-3.342.331-6.069.061-1.843c.018-.222.005-.445-.037-.663zm-1.685 1.456c0 .043.135.154.153.412a.5.5 0 0 1-.026.2.51.51 0 0 1-.102.174.41.41 0 0 1-.206.094c-.076.01-.153-.001-.223-.032a.41.41 0 0 1-.27-.344.51.51 0 0 1 .049-.196c.03-.061.071-.116.123-.16.19-.179.386-.142.392-.191s-.202-.184-.527 0c-.092.058-.17.136-.228.229a.72.72 0 0 0-.103.306.72.72 0 0 0 .122.399c.08.118.193.209.325.262a.71.71 0 0 0 .415.035.72.72 0 0 0 .364-.205c.069-.084.118-.184.141-.291a.68.68 0 0 0-.007-.323c-.122-.357-.392-.406-.392-.369zm-15.466 2.604a3.16 3.16 0 0 0 1.366.522c1.179.238 2.403.102 3.502-.391a5.79 5.79 0 0 0 2.626-2.355c.281-.408.461-.878.527-1.369-.055 0-.221.516-.717 1.228a6 6 0 0 1-2.562 2.187 5.99 5.99 0 0 1-3.333.461c-.858-.105-1.391-.332-1.409-.283zm27.329-4.06a2.41 2.41 0 0 0 .061 1.192c.222.953.737 1.812 1.471 2.457s1.66 1.045 2.635 1.142c.396.069.803.035 1.183-.098 0-.055-.46 0-1.159-.129a4.99 4.99 0 0 1-2.451-1.155 5.12 5.12 0 0 1-1.464-2.285c-.208-.67-.221-1.124-.276-1.124z"/></g><path d="M116.741 87.671s16.373 6.941 16.894 6.677.888-13.483.888-13.483h8.144s1.544 19.608-3.364 22.728c-6.71 4.3-22.954-4.644-22.954-4.644l.392-11.278z" class="D"/><path d="M168.702 56.673l2.821 7.276-7.783 3.106s-3.207 1.224-5.817 6.417l-3.581 7.468-9.619-26.848 6.696 3.449a13.26 13.26 0 0 0 4.225 1.312c1.804.251 4.196.486 5.476.234 2.577-.636 5.11-1.442 7.582-2.413z" class="B"/><path d="M82.906 102.057l71.436-21.118-9.619-26.848-68.435 27.555c-.737.296-1.335.861-1.673 1.581a3.16 3.16 0 0 0-.151 2.3l4.555 14.453a3.18 3.18 0 0 0 1.526 1.823c.725.387 1.571.478 2.361.254zm92.357-45.987a.32.32 0 0 1 .153-.013c.051.008.1.029.141.061s.074.072.096.12.032.099.029.151a42.86 42.86 0 0 1-.495 5.019c-.106.46-4.087 1.443-4.087 1.443l-1.822-4.698 5.985-2.082z" class="C"/><path d="M87.373 91.671l-1.765-4.307 45.732-16.497 1.617 4.355-45.584 16.45z" class="B"/><path d="M97.899 85.846l10.147-.817c.067-1.186 0-5.78 0-5.78s4.222-.657 4.289-4.914-.68-13.944-.68-13.944a14.63 14.63 0 0 0-7.618-1.087c-2.591.324-5.049 1.335-7.119 2.93l-.613.485 1.593 23.127z" class="D"/><g class="B"><path d="M110.65 67.683c-.11-.112-.172-.261-.176-.418a.61.61 0 0 1 .565-.624c.156-.012.31.035.432.133a.62.62 0 0 1 .144.193.61.61 0 0 1 .023.473c-.028.077-.07.147-.124.206-.11.119-.263.19-.425.197a.61.61 0 0 1-.439-.16zm1.023-.982c-.067.074-.484-.246-1.06-.246s-1.005.295-1.072.221.037-.166.221-.307a1.46 1.46 0 0 1 .851-.27 1.4 1.4 0 0 1 .846.295c.184.16.245.307.214.307zm-6.697.527a.61.61 0 0 1 .294.382.62.62 0 0 1 .013.246.6.6 0 0 1-.253.41.62.62 0 0 1-.225.099.6.6 0 0 1-.246.002c-.082-.016-.158-.048-.226-.095a.61.61 0 0 1-.274-.379c-.038-.158-.012-.324.072-.463a.62.62 0 0 1 .38-.278.61.61 0 0 1 .465.075z"/><path d="M105.356 67.234c-.061.074-.478-.246-1.06-.252s-1.005.301-1.066.227.031-.166.214-.307c.249-.181.551-.276.858-.27s.602.105.846.289c.178.147.245.282.208.313zm2.334 4.804a2.89 2.89 0 0 1 .938-.197c.153 0 .269-.049.282-.135a.82.82 0 0 0-.105-.436l-.465-1.186a16.37 16.37 0 0 1-.993-3.108 16.15 16.15 0 0 1 1.305 2.992l.435 1.228a1 1 0 0 1 .086.614.4.4 0 0 1-.104.15.41.41 0 0 1-.159.089 1.19 1.19 0 0 1-.258.037 2.72 2.72 0 0 1-.962-.049z"/></g><path d="M105.803 72.683c-.613-.362 1.667.891 2.849.829-.201.302-.498.527-.843.639a1.6 1.6 0 0 1-1.056-.025c-1.262-.436-.95-1.444-.95-1.444z" fill="#fff"/><path d="M108.033 79.188a9.79 9.79 0 0 1-5.515-1.566s1.299 3.071 5.515 2.666v-1.1z" class="E"/><path d="M96.244 66.847c-.092-.031-3.144-.233-2.641 3.329s3.934 1.88 3.928 1.775-1.287-5.105-1.287-5.105z" class="D"/><path d="M96.263 70.852s-.055.055-.153.117a.61.61 0 0 1-.466.074c-.251-.112-.467-.29-.626-.515a1.53 1.53 0 0 1-.275-.763c-.051-.305-.037-.617.043-.915.018-.116.064-.225.133-.319s.16-.17.266-.221c.069-.029.145-.033.217-.011s.133.066.175.128c.061.092.049.166.067.172s.067-.067 0-.215c-.031-.086-.092-.158-.172-.203a.49.49 0 0 0-.355-.043c-.138.048-.262.129-.361.236a.9.9 0 0 0-.209.378 2.19 2.19 0 0 0-.074 1.026 1.63 1.63 0 0 0 .35.878c.201.252.471.438.778.535.099.015.201.006.296-.025s.183-.083.255-.153c.116-.068.122-.154.11-.16z" class="E"/><g class="B"><path d="M111.612 60.287c-1.097 2.905-5.3 4.054-8.389 4.226 1.428-1.259.546-.995 1.428-1.88-2.383 2.066-5.428 3.202-8.579 3.2-.236-.718-.327-1.475-.266-2.229s.272-1.487.62-2.157a5.65 5.65 0 0 1 1.409-1.745 5.63 5.63 0 0 1 1.975-1.057c.95-.289 1.961-.313 2.929-.541.815-.19 1.599-.516 2.451-.614 2.488-.368 6.526-1.044 6.459 2.819"/><path d="M97.936 64.243c-.159.412-1.048 5.215-1.048 5.215l-1.078-4.632 2.126-.584z"/></g><path d="M67.757 123.649a10.3 10.3 0 0 1 .049-13.551l16.385-18.624 4.387 12.285c-.3.197-12.757 13.588-12.757 13.588l10.705 13.379c.813 1.014 1.356 2.218 1.579 3.499s.118 2.599-.305 3.829l-2.861 7.021-7.837-3.52.613-.915h5.876l.349-1.413-16.183-15.578z" class="D"/><path d="M75.521 99.348l10.349-10.443c1.994-2.089 4.447-3.684 7.163-4.656 1.44-.516 2.951-.806 4.479-.86 3.519 1.118 7.296 1.118 10.815 0a26.03 26.03 0 0 1 8.53 2.457l15.447 6.284-4.957 13.698-8.291-2.795-.49 12.9 1.642 19.27-32.077.294.417-17.482v-12.642l-4.632 4.515-8.395-10.541z" class="F"/><g fill="#07c98b"><path opacity=".2" d="M35.313 240.745c8.387-5.873 10.292-16.774 9.958-26.578-.057-1.632.122-3.359-.651-4.795s-2.589-2.417-4.071-1.727c-1.221.572-1.738 1.988-2.418 3.155-.904 1.563-2.231 2.836-3.827 3.673-1.038.539-2.321.87-3.347.302-1.409-.775-1.576-2.726-1.563-4.354l.053-9.098c0-1.632 0-3.285-.488-4.832s-1.629-2.976-3.163-3.412-3.453.461-3.778 2.04c-.139.662 0 1.351-.049 2.041s-.358 1.424-.997 1.633-1.299-.27-1.783-.747c-1.673-1.633-2.809-3.759-3.872-5.865s-2.093-4.257-3.615-6.049-3.624-3.212-5.944-3.343-4.804 1.307-5.39 3.592.745 4.62 2.199 6.477a36.22 36.22 0 0 0 7.581 7.175c.509.368 1.067.76 1.262 1.364.35 1.081-.676 2.159-1.742 2.518-1.221.408-2.52.277-3.786.408s-2.654.747-3.131 1.926c-.668 1.678.721 3.404 2.105 4.535 2.735 2.284 5.842 4.078 9.185 5.306 1.197.44 2.443.816 3.416 1.665s-.533 3.816-1.116 4.963 0 0-1.25-.233-2.37-.914-3.562-1.363c-2.227-.845-5.11-.69-6.539 1.224-.936 1.27-1.022 3.041-.546 4.555s1.437 2.816 2.443 4.02c3.575 4.204 8.143 7.588 13.325 9.388s9.967 2.285 15.109.408"/><path d="M35.443 248.01c-.455-4.543-1.343-9.033-2.65-13.407a146.46 146.46 0 0 0-5.773-15.697l-1.726-4.041c-.57-1.322-1.132-2.636-1.763-3.885-1.211-2.395-2.554-4.721-4.023-6.967-1.392-2.155-2.789-4.151-4.108-6.008s-2.593-3.555-3.815-5.061a57.79 57.79 0 0 0-6.298-6.649l-1.877-1.632-.501-.408a1.04 1.04 0 0 0-.179-.135.95.95 0 0 0 .159.155l.48.433 1.84 1.669a61.68 61.68 0 0 1 6.201 6.706c1.221 1.51 2.443 3.216 3.774 5.073a131.66 131.66 0 0 1 4.071 6.012c1.46 2.238 2.798 4.554 4.006 6.938.627 1.225 1.185 2.543 1.751 3.874l1.722 4.032c2.225 5.11 4.162 10.341 5.802 15.669 1.316 4.355 2.221 8.825 2.703 13.35"/><path d="M23.445 210.972a3.16 3.16 0 0 0 .159-.694l.301-1.914.725-6.347.782-6.334.313-1.911a3.17 3.17 0 0 0 .09-.706 3.48 3.48 0 0 0-.204.682l-.407 1.898c-.305 1.608-.615 3.853-.867 6.334l-.643 6.355-.204 1.922c-.041.236-.057.476-.045.715zm-20.866-3.91c.268.059.54.093.814.102l2.268.224 7.422 1.127 7.328 1.657 2.198.6a4.47 4.47 0 0 0 .814.2 4.41 4.41 0 0 0-.782-.315l-2.174-.694c-1.852-.55-4.442-1.191-7.328-1.746l-7.459-1.045-2.28-.127a4.61 4.61 0 0 0-.822.017zm29.957 27.153s.061-.082.147-.253l.354-.76 1.221-2.82c1.006-2.396 2.292-5.75 3.664-9.469l3.579-9.497 1.14-2.857.305-.78c.042-.088.072-.181.09-.277a1.15 1.15 0 0 0-.142.253l-.358.755a88.95 88.95 0 0 0-1.221 2.824c-1.006 2.396-2.292 5.751-3.664 9.473l-3.579 9.494-1.14 2.857-.305.779a1.36 1.36 0 0 0-.09.278z"/><path d="M4.806 225.256a1.03 1.03 0 0 0 .277.114l.814.274 2.972.963 9.771 3.265 9.8 3.192 2.996.873.814.216a.95.95 0 0 0 .289.053c-.086-.05-.177-.088-.273-.114l-.814-.269-2.968-.963-9.771-3.266-9.791-3.191-3.001-.874-.814-.216c-.098-.03-.199-.049-.301-.057z"/></g><defs ><path id="C" d="M264.91 7.554l3.85 159.361c.043 1.819-.634 3.581-1.882 4.901s-2.968 2.092-4.782 2.147l-113.655 3.481a6.87 6.87 0 0 1-2.658-.449 6.86 6.86 0 0 1-2.282-1.438c-.658-.625-1.187-1.375-1.555-2.206s-.569-1.728-.59-2.637l-1.77-80.35-9.624-.159c-1.138-.019-2.224-.482-3.028-1.291a4.39 4.39 0 0 1-1.274-3.041l-.739-64.732c-.011-1.158.435-2.274 1.241-3.104a4.37 4.37 0 0 1 3.062-1.326l8.714-.171-.067-6.258a6.87 6.87 0 0 1 1.932-4.852c1.258-1.298 2.976-2.046 4.781-2.08L257.965.904c1.797-.03 3.534.652 4.834 1.896s2.058 2.953 2.111 4.754z"/></defs></svg>