<svg xmlns="http://www.w3.org/2000/svg" xmlns:xlink="http://www.w3.org/1999/xlink" width="416" height="299" fill="none" xmlns:v="https://vecta.io/nano"><style><![CDATA[.B{fill:#454056}.C{fill:#fd5631}.D{fill:#666276}.E{fill:#f5f4f8}.F{fill:#d5d2dc}.G{fill:#efecf3}.H{fill:#db9374}.I{fill:#b66346}]]></style><path d="M269.972 112.428v31.132a10.16 10.16 0 0 0 3.055 7.085 10.17 10.17 0 0 0 7.155 2.899h111.683c1.342.002 2.671-.259 3.912-.77s2.368-1.262 3.319-2.209a10.21 10.21 0 0 0 2.219-3.31c.514-1.239.78-2.566.781-3.907v-26.316l13.905-14.602-135.805-.424c-1.359.005-2.703.279-3.955.807s-2.386 1.299-3.337 2.268-1.7 2.119-2.203 3.38a10.24 10.24 0 0 0-.729 3.967z" class="E"/><path d="M385.603 120.872l-101.382-.473.014-3.114 101.375.473-.007 3.114zm0 10.245l-101.382-.473.014-3.114 101.375.473-.007 3.114zm-40.109 6.672l-.015 3.114 40.11.196.015-3.114-40.11-.196z" class="F"/><path d="M79.538 271.133C95.16 260.224 98.7 239.98 98.085 221.777c-.106-3.036.226-6.242-1.215-8.904s-4.819-4.49-7.546-3.205c-2.254 1.059-3.236 3.686-4.501 5.853a17.77 17.77 0 0 1-7.129 6.807c-1.936 1.003-4.331 1.617-6.239.565-2.628-1.448-2.932-5.07-2.918-8.092l.106-16.89c0-3.022 0-6.107-.912-8.974s-3.017-5.529-5.892-6.355-6.43.848-7.065 3.806c-.254 1.229 0 2.507-.092 3.764s-.664 2.64-1.858 2.993-2.416-.501-3.321-1.412c-3.123-3.05-5.236-6.976-7.214-10.888s-3.9-7.908-6.733-11.234-6.748-5.966-11.079-6.213-8.945 2.429-10.033 6.679 1.413 8.579 4.091 12.004c4.013 5.125 8.746 9.644 14.053 13.416.954.706 1.985 1.412 2.353 2.52.65 2.02-1.258 4.018-3.243 4.682-2.254.748-4.706.515-7.065.791s-4.946 1.32-5.801 3.53c-1.244 3.086 1.342 6.355 3.886 8.473a57.95 57.95 0 0 0 17.113 9.885c2.219.812 4.564 1.525 6.359 3.086s2.876 4.279 1.795 6.404-3.865 2.824-6.196 2.38-4.409-1.695-6.634-2.528c-4.154-1.568-9.517-1.285-12.181 2.309-1.745 2.358-1.901 5.648-1.018 8.473s2.678 5.232 4.586 7.463c6.656 7.81 15.184 14.122 24.821 17.434s18.568 4.236 28.149.748" class="E"/><g class="F"><path d="M79.772 284.622c-.847-8.438-2.503-16.775-4.946-24.896-3.02-9.915-6.611-19.647-10.754-29.148l-3.208-7.498c-1.06-2.457-2.12-4.893-3.286-7.216a135.11 135.11 0 0 0-7.51-12.943c-2.593-4.004-5.193-7.711-7.659-11.156s-4.826-6.602-7.065-9.398a107 107 0 0 0-11.707-12.364c-1.491-1.349-2.685-2.358-3.533-3.029l-.954-.77a2.06 2.06 0 0 0-.325-.24 2.45 2.45 0 0 0 .29.283l.897.805 3.427 3.099a113.23 113.23 0 0 1 11.552 12.456c2.247 2.824 4.585 5.966 7.03 9.419s5.031 7.16 7.602 11.163a136.29 136.29 0 0 1 7.461 12.915c1.166 2.309 2.204 4.723 3.264 7.188l3.208 7.491a277.05 277.05 0 0 1 10.775 29.077c2.452 8.088 4.139 16.388 5.038 24.791"/><path d="M57.42 215.843c.149-.416.248-.847.297-1.285l.558-3.531c.431-3.008.876-7.181 1.357-11.785s.982-8.762 1.456-11.756l.579-3.53c.105-.428.162-.866.17-1.307-.173.407-.301.83-.382 1.264-.212.819-.473 2.027-.756 3.531-.572 2.986-1.145 7.152-1.618 11.77l-1.194 11.792-.381 3.573c-.072.417-.1.841-.085 1.264z"/><path d="M18.559 208.567a7.6 7.6 0 0 0 1.547.184l4.239.416c3.533.389 8.479 1.088 13.834 2.119s10.195 2.153 13.657 3.071l4.098 1.123c.492.167.998.29 1.512.367-.452-.236-.925-.43-1.413-.579-.954-.332-2.332-.791-4.063-1.292-3.441-1.017-8.267-2.217-13.657-3.241a135.95 135.95 0 0 0-13.891-1.942c-1.788-.155-3.243-.219-4.239-.233-.541-.05-1.085-.048-1.625.007zm55.8 50.443a2.21 2.21 0 0 0 .261-.473l.664-1.412 2.289-5.246c1.879-4.449 4.275-10.676 6.825-17.582l6.67-17.652 2.12-5.303.565-1.412a1.63 1.63 0 0 0 .162-.523c-.107.149-.195.31-.261.481a55.09 55.09 0 0 0-.664 1.412c-.572 1.228-1.356 3.015-2.289 5.246-1.879 4.448-4.275 10.676-6.825 17.589l-6.67 17.652-2.12 5.303-.565 1.447a1.7 1.7 0 0 0-.163.473zm-51.68-16.636a2.4 2.4 0 0 0 .516.205l1.498.509 5.532 1.786 18.194 6.079 18.257 5.932 5.582 1.616 1.533.403a2.46 2.46 0 0 0 .544.106c-.162-.093-.335-.164-.516-.212l-1.498-.501-5.532-1.794-18.194-6.079-18.257-5.931-5.582-1.617-1.512-.417c-.183-.057-.373-.086-.565-.085z"/></g><path d="M115.578 80.208v24.127c0 2.097-.833 4.107-2.315 5.59a7.92 7.92 0 0 1-5.591 2.319H21.106c-2.097-.002-4.108-.836-5.591-2.319s-2.315-3.493-2.315-5.59V83.951L2.425 72.653l105.225-.36a7.91 7.91 0 0 1 3.036.597c.962.397 1.837.98 2.574 1.715s1.32 1.609 1.718 2.571a7.89 7.89 0 0 1 .6 3.033z" class="G"/><path d="M25.961 86.923l78.554-.36-.007-2.415-78.554.36.007 2.415zm0 7.938l78.554-.36-.007-2.415-78.554.367.007 2.408zm31.061 5.178l-31.08.152.012 2.415 31.081-.152-.012-2.415z" class="E"/><path d="M73.162 124.73v165.931a8.16 8.16 0 0 0 8.161 8.155h245.382a8.16 8.16 0 0 0 8.161-8.155V124.73a8.16 8.16 0 0 0-8.161-8.155H81.323a8.16 8.16 0 0 0-8.161 8.155z" class="B"/><path d="M91.066 122.32v170.753h218.556V122.32H91.066z" fill="#fff"/><path d="M328.548 209.321c.884-3.758-1.448-7.521-5.208-8.405s-7.526 1.447-8.41 5.205 1.448 7.521 5.208 8.405 7.526-1.447 8.41-5.205zM80.695 181.112v53.169a.86.86 0 0 0 .862.861h1.166a.86.86 0 0 0 .862-.861v-53.169a.86.86 0 0 0-.862-.861h-1.166a.86.86 0 0 0-.862.861z" class="D"/><use xlink:href="#B" class="C"/><use xlink:href="#B" opacity=".2" fill="#fff"/><path d="M132.195 208.378c.664-.057 1.272.706 1.357 1.652s-.403 1.786-1.074 1.843-1.272-.706-1.35-1.645.424-1.794 1.067-1.85zm11.247-.228c-.664 0-1.244.706-1.286 1.708s.473 1.773 1.144 1.801 1.251-.706 1.286-1.702-.473-1.779-1.144-1.807zm1.928 8.181c0 .205-3.292.374-7.348.374s-7.355-.169-7.355-.374 3.292-.381 7.355-.381 7.348.162 7.348.381zm-11.764-9.976c-.042.212-.883.205-1.865.36s-1.78.41-1.886.226.636-.79 1.773-.967 1.978.184 1.978.381zm13.022.854c-.127.169-.89-.226-1.872-.523s-1.83-.402-1.851-.621.939-.452 2.07-.099 1.787 1.095 1.653 1.243z" class="B"/><use xlink:href="#C" class="C"/><use xlink:href="#C" opacity=".1" fill="#000"/><path d="M259.816 206.755c.706-.056 1.328.706 1.413 1.709s-.41 1.857-1.102 1.913-1.329-.706-1.413-1.708.409-1.857 1.102-1.914zm11.638-.241c-.707 0-1.293.763-1.335 1.766s.494 1.835 1.187 1.864 1.293-.763 1.335-1.766-.488-1.835-1.187-1.864zm1.999 8.477c-.077.099-.841-.445-2.119-1.115a11.83 11.83 0 0 0-5.448-1.342 13.6 13.6 0 0 0-5.461 1.412l-2.184 1.045c-.063-.099.629-.706 1.936-1.511 1.723-1.041 3.683-1.626 5.695-1.701a10.74 10.74 0 0 1 5.723 1.631c1.265.805 1.908 1.511 1.858 1.581zm-12.236-10.34c.063.078-.057.311-.36.572-.399.359-.887.603-1.414.706-.535.103-1.089.041-1.589-.176-.375-.17-.544-.367-.502-.459s.954.092 1.957-.106 1.774-.706 1.908-.537zm13.545.891c0 .092-.17.268-.579.395-.539.153-1.113.133-1.64-.056a3.29 3.29 0 0 1-1.349-.897c-.269-.31-.368-.558-.297-.628s.897.466 1.887.812 1.907.162 1.978.374z" class="B"/><path d="M231.061 262.126l4.239-2.097 4.141 2.301-.693-4.681 3.469-3.22-4.67-.791-1.992-4.293-2.19 4.195-4.699.564 3.307 3.383-.912 4.639z" class="F"/><path d="M213.765 262.126l4.24-2.097 4.14 2.301-.692-4.681 3.469-3.22-4.671-.791-1.992-4.293-2.19 4.195-4.699.564 3.307 3.383-.912 4.639zm-17.296 0l4.24-2.097 4.133 2.301-.685-4.681 3.469-3.22-4.671-.791-1.992-4.293-2.19 4.195-4.699.564 3.307 3.383-.912 4.639zm-17.296 0l4.24-2.097 4.133 2.301-.685-4.681 3.469-3.22-4.67-.791-1.993-4.293-2.19 4.195-4.699.564 3.307 3.383-.912 4.639zm-17.299 0l4.239-2.097 4.133 2.301-.685-4.681 3.469-3.22-4.67-.791-1.993-4.293-2.19 4.195-4.698.564 3.306 3.383-.911 4.639z" class="C"/><path d="M242.414 158.085c0 .106-18.978.191-42.392.191s-42.393-.085-42.393-.191 18.971-.183 42.393-.183l42.392.183zm-20.843-5.082c0 .106-9.369.191-20.928.191s-20.935-.085-20.935-.191 9.369-.19 20.935-.19l20.928.19z" class="B"/><path d="M226.61 214.562c4.083-12.664-2.88-26.238-15.552-30.319s-26.256 2.878-30.339 15.542 2.879 26.239 15.552 30.319 26.255-2.877 30.339-15.542z" class="C"/><g class="B"><path d="M195.333 201.078c.911-.07 1.738.933 1.851 2.253s-.544 2.443-1.455 2.521-1.745-.932-1.851-2.246.544-2.45 1.455-2.528zm15.321-.281c-.911-.043-1.703 1.002-1.752 2.323s.643 2.422 1.554 2.457 1.703-1.003 1.76-2.323-.643-2.457-1.562-2.457zm2.629 7.871c.042.042-.156.29-.544.706-.554.596-1.159 1.142-1.809 1.631-.974.729-2.047 1.316-3.186 1.744a11.23 11.23 0 0 1-4.423.706c-1.496-.079-2.966-.418-4.346-1.002-1.118-.453-2.19-1.013-3.2-1.674-1.71-1.144-2.615-2.033-2.565-2.118s1.102.636 2.826 1.638c1.017.579 2.078 1.077 3.173 1.49 1.322.514 2.716.817 4.133.897a11.38 11.38 0 0 0 4.154-.6 14.34 14.34 0 0 0 3.116-1.526l1.915-1.412c.431-.374.721-.515.756-.48zm-16.864-13.005c-.043.212-1.194.134-2.565.353s-2.445.636-2.551.445.912-.953 2.438-1.186 2.748.19 2.678.388z"/><path d="M215.825 196.786c-.134.169-1.151-.438-2.522-.847s-2.551-.495-2.558-.706 1.265-.481 2.784 0 2.43 1.405 2.296 1.553zm-22.216 10.154c.091 0 .247.233.268.706a2.75 2.75 0 0 1-.523 1.666c-.343.495-.839.862-1.413 1.045-.438.127-.706.064-.742 0 0-.212.89-.522 1.526-1.454s.672-1.928.884-1.963zm21.717 2.218c0 .091-.184.24-.558.268-.493.022-.977-.128-1.371-.424a2.12 2.12 0 0 1-.813-1.193c-.077-.367 0-.6.099-.607.212 0 .453.706 1.159 1.193s1.434.551 1.484.763z"/></g><path d="M233.122 206.94s0-.163-.042-.488l-.092-1.412c0-.311-.035-.664-.057-1.045s-.127-.798-.19-1.25l-.234-1.454a16.44 16.44 0 0 0-.388-1.638c-.7-2.798-1.82-5.474-3.321-7.937a29.79 29.79 0 0 0-7.581-8.473l-1.293-.953-1.413-.861s-.94-.608-1.456-.841l-1.547-.741-.784-.374-.827-.297-1.682-.614c-.565-.191-1.165-.311-1.752-.466-.591-.177-1.192-.313-1.801-.41-1.244-.232-2.502-.378-3.766-.437-.643 0-1.293-.085-1.943-.071l-1.972.099c-.332 0-.664 0-.996.063l-.996.156-2 .324c-1.348.298-2.675.687-3.97 1.165a31.35 31.35 0 0 0-3.886 1.702l-1.851 1.109-.919.579-.876.656a34.07 34.07 0 0 0-3.377 2.867l-1.512 1.666-.382.424-.346.452-.707.911-.706.911-.601.981-.6.989-.297.494-.254.515-1.011 2.119-.805 2.203a29.44 29.44 0 0 0 0 18.775l.812 2.203s.672 1.412 1.011 2.118l.254.522.297.495.6.981.601.982.706.917.707.911.339.452.382.417 1.512 1.666a33.87 33.87 0 0 0 3.377 2.874l.883.65c.29.225.615.388.919.586l1.851 1.108c2.486 1.286 5.126 2.249 7.857 2.867l2.006.325.989.155c.332.042.664.042.996.064l1.972.098 1.943-.07a27.39 27.39 0 0 0 3.766-.438c.608-.1 1.21-.237 1.801-.41l1.76-.466 1.674-.614.827-.296.784-.375 1.547-.741c.5-.255.986-.535 1.456-.84l1.413-.862 1.286-.96a29.79 29.79 0 0 0 7.588-8.473 28.67 28.67 0 0 0 3.314-7.972c.157-.536.287-1.081.388-1.631l.234-1.454.19-1.25s.043-.706.057-1.045l.092-1.412.042-.488v.488l-.056 1.412-.043 1.052-.169 1.257-.219 1.468-.375 1.639a28.34 28.34 0 0 1-3.271 8.028 29.85 29.85 0 0 1-7.603 8.558l-1.3.974-1.413.876s-.946.614-1.469.847l-1.555.755-.791.403-.834.303-1.688.622c-.58.197-1.18.318-1.774.48-.598.178-1.207.319-1.823.424a27.83 27.83 0 0 1-3.808.444l-1.957.085-1.993-.099c-.339 0-.706 0-1.01-.063l-1.003-.156-2.028-.324c-1.364-.304-2.707-.696-4.02-1.173-1.347-.483-2.659-1.056-3.929-1.715l-1.879-1.123c-.322-.178-.633-.373-.933-.586l-.89-.664c-1.203-.888-2.345-1.855-3.42-2.895l-1.533-1.687-.388-.424-.347-.459-.706-.918-.707-.932-.607-.988-.608-.996-.304-.501-.254-.53-1.025-2.118-.819-2.231a29.84 29.84 0 0 1 0-19.008l.819-2.231 1.025-2.119.261-.529.304-.502.608-.995.607-.989.707-.925.706-.925.347-.459.381-.423 1.533-1.681c1.077-1.04 2.219-2.009 3.42-2.902l.89-.664c.297-.218.622-.388.933-.586l1.879-1.115a31.93 31.93 0 0 1 3.929-1.716 32.44 32.44 0 0 1 4.02-1.172l2.028-.325 1.003-.155c.332-.043.671-.043 1.003-.064l1.993-.099 1.964.085a27.99 27.99 0 0 1 3.808.445c.615.106 1.223.245 1.823.417l1.767.48 1.695.621.834.311.791.381 1.562.748c.523.24.982.579 1.462.855a23.57 23.57 0 0 1 1.413.875l1.3.975c3.062 2.331 5.644 5.232 7.603 8.543 1.495 2.486 2.601 5.187 3.278 8.007.127.586.318 1.123.375 1.646s.148 1.009.219 1.468.134.869.169 1.257 0 .706.043 1.045c0 .622.042 1.095.056 1.412s-.007.488-.007.488z" class="C"/><path d="M309.622 122.325H91.066v10.895h218.556v-10.895z" class="G"/><path d="M98.116 127.471a1.48 1.48 0 0 1-.912 1.364c-.27.111-.567.141-.853.084a1.48 1.48 0 0 1-1.16-1.16c-.057-.286-.028-.583.084-.853a1.48 1.48 0 0 1 1.364-.911c.392 0 .767.156 1.044.433s.433.652.433 1.043zm4.904 0a1.48 1.48 0 0 1-.249.82c-.162.243-.393.432-.663.544s-.567.141-.853.084a1.48 1.48 0 0 1-.756-.404c-.207-.207-.347-.47-.404-.756s-.028-.583.084-.853a1.48 1.48 0 0 1 1.364-.911c.392 0 .767.156 1.044.433s.433.652.433 1.043zm4.912 0a1.48 1.48 0 0 1-.249.82c-.162.243-.393.432-.663.544a1.48 1.48 0 0 1-.853.084c-.286-.057-.549-.198-.756-.404s-.347-.47-.404-.756-.028-.583.084-.853a1.48 1.48 0 0 1 2.841.565z" fill="#fff"/><path d="M285.513 166.678c0 .106-37.92.191-84.693.191s-84.701-.085-84.701-.191 37.92-.183 84.701-.183l84.693.183zm0 4.203c0 .099-37.92.183-84.693.183s-84.701-.084-84.701-.183 37.92-.191 84.701-.191l84.693.191z" class="F"/><g class="D"><path d="M174.374 117.725l-1.774-4.124c-.756-2.026-5.652-15.604-4.472-17.652 5.419-9.511 9.623-16.24 20.313-16.24l18.886-.127s17.89-3.643 30.501 37.027l-63.454 1.116z"/><path d="M134.537 121.129l24.729-5.324 29.068-15.273.105-20.85c-4.359-1.2-12.717 1.822-27.731 9.469l-22.32 11.517c-1.787.92-3.341 2.236-4.542 3.847s-2.019 3.476-2.39 5.451-.287 4.008.247 5.945a13.2 13.2 0 0 0 2.834 5.233v-.014z"/></g><path d="M190.185 161.489c-.361-1.172-.114-1.928 1.596-1.349 3.773 1.264 7.143.847 7.963.12s.071-2.118-1.159-2.012a14.88 14.88 0 0 1-3.97-.551 9.71 9.71 0 0 1-2.961-1.25l-2.07-1.412s-3.483-2.514-4.571-4.533l-11.934 5.105 1.922 5.973c.228 1.048.718 2.02 1.423 2.828a6.36 6.36 0 0 0 2.611 1.79c3.413 1.109 8.839.706 8.839.706.996-.649 4.833 4.901 5.999 6.857s2.543 2.203 2.995 1.009c.304-.819-3.108-6.898-4.295-8.812a23.15 23.15 0 0 1-2.388-4.483" class="H"/><path d="M182.106 166.908c0 .042-.297 0-.706-.17a2.95 2.95 0 0 1-1.251-1.214c-.292-.518-.427-1.109-.389-1.702.043-.452.184-.706.226-.706-.053.767.12 1.532.496 2.202a3.94 3.94 0 0 0 1.624 1.568v.022zm3.784.173c0 .042-.283 0-.664-.191-.495-.277-.9-.692-1.166-1.193-.273-.498-.4-1.063-.367-1.631.042-.431.162-.706.212-.656.021.731.187 1.451.487 2.118.397.608.905 1.135 1.498 1.553z" class="I"/><path d="M133.833 120.305l37.835 42.789c-.049-.721 16.957-13.416 16.957-13.416l-37.114-44.201-17.678 14.828z" class="D"/><g class="B"><path d="M156.808 111.771a2.99 2.99 0 0 0 .268.254l.707.791 2.543 2.938 8.288 9.779 8.21 9.885 2.452 3.015.657.833.205.304c-.098-.073-.186-.159-.262-.254l-.706-.791-2.544-2.937-8.295-9.78-8.21-9.885-2.451-3.015-.65-.833a1.55 1.55 0 0 1-.212-.304zm67.017 5.001c.256-.921.407-1.869.452-2.824.023-1.131-.184-2.256-.609-3.304s-1.059-2.001-1.864-2.797l-2.706-2.676a8.16 8.16 0 0 1-1.696-2.64c-.266-.673-.373-1.398-.311-2.119a1.97 1.97 0 0 1 .198-.755c-.126.933-.002 1.884.361 2.753.413.931.99 1.78 1.702 2.507l2.72 2.648c.918.92 1.615 2.035 2.042 3.262a8.34 8.34 0 0 1 .431 3.107c-.032.708-.168 1.407-.402 2.076-.063.27-.171.528-.318.762z"/><path d="M172.727 83.305l.551-.261c.361-.162.919-.367 1.64-.593a14.14 14.14 0 0 1 2.713-.551c1.23-.133 2.475-.018 3.66.339 1.436.456 2.726 1.284 3.737 2.401 1.15 1.305 1.935 2.891 2.275 4.597.427 1.851.549 3.759.361 5.649-.225 2.03-.954 3.971-2.12 5.649a15.52 15.52 0 0 1-4.529 4.017c-1.66 1.045-3.328 1.893-4.91 2.726l-8.415 4.42-5.653 2.944-1.554.784a2.99 2.99 0 0 1-.558.247c.167-.117.342-.223.523-.317l1.519-.848 5.652-3.05 8.366-4.484 4.882-2.739c1.714-1.008 3.216-2.339 4.423-3.919 1.127-1.635 1.827-3.526 2.035-5.501.184-1.842.071-3.701-.332-5.507a9.62 9.62 0 0 0-2.12-4.441 8.21 8.21 0 0 0-3.589-2.358 9.19 9.19 0 0 0-3.533-.388 14.57 14.57 0 0 0-2.692.487l-1.653.522a2.89 2.89 0 0 1-.679.177z"/><path d="M160.979 115.762c-.127.035-.438-2.5-2.12-5.049s-3.829-3.89-3.744-3.989c.517.204.995.496 1.413.861a12.13 12.13 0 0 1 4.239 6.553 4.75 4.75 0 0 1 .212 1.624z"/></g><path d="M216.654 111.033c-.261.097-.531.17-.805.219-.787.151-1.592.187-2.389.105a8.88 8.88 0 0 1-3.589-1.179 8.25 8.25 0 0 1-3.313-3.721c-.858-1.886-1.021-4.014-.46-6.009a4.95 4.95 0 0 1 2-2.767 2.48 2.48 0 0 1 1.809-.374 2.67 2.67 0 0 1 1.568 1.045 8.74 8.74 0 0 1 1.284 3.671c.147 1.304-.002 2.624-.436 3.863-.422 1.326-1.148 2.535-2.12 3.531a8.17 8.17 0 0 1-3.681 2.118c-1.371.378-2.816.403-4.2.072s-2.661-1.007-3.713-1.964c-.937-.922-1.641-2.053-2.053-3.301s-.519-2.576-.314-3.873c.18-1.209.666-2.351 1.413-3.319.373-.473.859-.844 1.413-1.08.557-.23 1.182-.23 1.738 0 .502.235.935.594 1.258 1.044a3.23 3.23 0 0 1 .586 1.526c.078.995-.12 1.991-.572 2.881-.75 1.509-1.77 2.868-3.01 4.01-.928.861-1.966 1.595-3.087 2.182a13.27 13.27 0 0 1-2.205.925c-.254.085-.459.127-.593.163-.069.023-.14.037-.212.042.061-.036.128-.062.198-.078l.586-.204a14.8 14.8 0 0 0 2.155-.975 14.6 14.6 0 0 0 3.017-2.21 13.71 13.71 0 0 0 2.911-3.961 5.23 5.23 0 0 0 .523-2.74 2.96 2.96 0 0 0-.538-1.374 2.95 2.95 0 0 0-1.137-.942c-.48-.198-1.018-.198-1.498 0-.5.217-.938.557-1.271.989a6.74 6.74 0 0 0-1.357 3.17c-.192 1.24-.086 2.508.309 3.699a7.9 7.9 0 0 0 1.966 3.15c1.008.904 2.228 1.539 3.547 1.847a8.05 8.05 0 0 0 3.999-.089c1.333-.333 2.552-1.015 3.533-1.977.936-.943 1.64-2.091 2.056-3.354.403-1.22.545-2.512.417-3.791-.054-.619-.185-1.228-.389-1.815-.17-.576-.438-1.118-.791-1.603a2.36 2.36 0 0 0-1.371-.925c-.543-.099-1.103.017-1.562.325-.914.597-1.586 1.501-1.893 2.549-.555 1.923-.415 3.981.396 5.811.66 1.516 1.773 2.791 3.186 3.651 1.065.65 2.258 1.064 3.497 1.214 1.067.119 2.147.059 3.194-.176z" class="E"/><g class="I"><path d="M219.508 68.666c-.805-.979-1.381-2.125-1.689-3.354-.127-.395-.141-.818-.042-1.221.051-.203.168-.383.333-.511s.369-.197.578-.195c.424 0 .707.431.94.791a18.25 18.25 0 0 1 1.738 3.304 2.49 2.49 0 0 1 .205 1.003c-.002.172-.047.341-.133.49a1 1 0 0 1-.355.364c-.173.075-.365.102-.553.077s-.365-.1-.513-.218c-.285-.241-.524-.53-.707-.854"/><path d="M221.324 67.882l-1.865-3.912c-.211-.374-.344-.787-.389-1.215a1.06 1.06 0 0 1 .137-.616c.107-.187.269-.336.464-.429.18-.052.371-.054.552-.007s.347.142.479.275a2.94 2.94 0 0 1 .629.918l.883 1.716a5.49 5.49 0 0 1 .58 1.454 1.88 1.88 0 0 1 .015.783c-.05.259-.154.505-.305.721a1.15 1.15 0 0 1-1.413.332"/></g><path d="M213.025 79.979s-2.6-3.368-2.826-5.14 1.943-4.943 6.613-5.649a11.42 11.42 0 0 0 4.804-1.638c.287-.195.498-.482.597-.814s.08-.688-.053-1.008c-.614-1.49-1.717-4.236-1.632-4.625.219-.953.841-.932 2.452 1.412s3.483 4.759 3.123 5.846-6.055 4.455-6.055 4.455l1.554 2.507-8.577 4.653z" class="H"/><path d="M228.467 114.605l-17.925-35.1 11.545-6.461 24.248 38.411 3.067 5.331h-20.327" class="D"/><path d="M221.925 73.045s-.063.056-.197.141l-.608.367-2.318 1.349-8.337 4.745.064-.212c1.745 3.53 4.013 7.661 6.295 12.131 3.399 6.602 6.359 12.653 8.408 17.059l2.409 5.233.629 1.412c.084.162.15.332.198.508-.106-.15-.196-.311-.268-.48-.17-.353-.403-.819-.707-1.412l-2.515-5.183-8.479-17.002-6.253-12.152-.063-.141.134-.078 8.401-4.625 2.367-1.278.628-.325a.83.83 0 0 1 .212-.056zm-47.55 44.679c-1.547-2.517-2.564-5.323-2.988-8.247.113 0 .6 1.878 1.413 4.145l1.575 4.102zm39.484-51.741a7.07 7.07 0 0 0 8.227-2.201 7.06 7.06 0 0 0 1.493-4.233c.023-1.536-.455-3.037-1.362-4.277 4.049-1.024 6.571-5.691 5.751-9.786s-4.472-7.287-8.556-8.169a9.19 9.19 0 0 0-4.734.12 5.83 5.83 0 0 0-2.082 1.146 5.8 5.8 0 0 0-1.45 1.883" class="B"/><path d="M213.284 56.832c0 .042-.523.141-1.378.586-1.203.64-2.156 1.664-2.706 2.909a5.98 5.98 0 0 0 .452 5.691c.31.483.691.916 1.13 1.285a5.63 5.63 0 0 0 1.512.939 5.94 5.94 0 0 0 3.679.34c1.232-.281 2.341-.947 3.168-1.901a5.76 5.76 0 0 0 .954-1.504 5.88 5.88 0 0 0 .459-1.645c.102-.83.031-1.672-.209-2.473a6.04 6.04 0 0 0-3.148-3.701 6.05 6.05 0 0 0-2.409-.604c-.967-.035-1.497.12-1.504.071a1.47 1.47 0 0 1 .381-.106 5.14 5.14 0 0 1 1.123-.113 6.2 6.2 0 0 1 3.373 1.006c1.003.654 1.795 1.585 2.28 2.679.456 1.028.624 2.16.487 3.276-.062.603-.221 1.192-.473 1.744-.245.586-.584 1.127-1.003 1.603-.875 1.017-2.053 1.728-3.362 2.026a6.28 6.28 0 0 1-3.909-.367c-.582-.25-1.121-.591-1.596-1.01a5.83 5.83 0 0 1-1.187-1.363 6.35 6.35 0 0 1-.983-3.163c-.039-1.19.266-2.365.879-3.386s1.508-1.843 2.576-2.368c.34-.171.698-.301 1.067-.388a1.56 1.56 0 0 1 .347-.063z" class="C"/><path d="M216.349 45.705a6.95 6.95 0 0 0 4.024-1.573c1.139-.939 1.95-2.216 2.314-3.646a6.94 6.94 0 0 0-3.073-7.61c.608-1.704.664-3.555.161-5.293s-1.54-3.273-2.965-4.389a8.63 8.63 0 0 0-4.972-1.829c-1.809-.073-3.594.424-5.105 1.421a11.44 11.44 0 0 0-4.998-4.684 11.45 11.45 0 0 0-12.912 2.065c-1.683 1.621-2.83 3.718-3.286 6.009a11.07 11.07 0 0 0-6.54-.594c-2.19.468-4.186 1.589-5.725 3.215s-2.548 3.68-2.894 5.891-.012 4.475.958 6.493c-2.266.193-4.362 1.277-5.827 3.015a8.56 8.56 0 0 0-1.988 6.249c.193 2.264 1.278 4.359 3.017 5.823s3.988 2.179 6.253 1.986c-.458 1.494-.441 3.093.049 4.577s1.427 2.78 2.683 3.709 2.771 1.446 4.335 1.48a7.56 7.56 0 0 0 4.393-1.293c.828 1.333 2.018 2.404 3.431 3.087s2.991.951 4.551.772a8.28 8.28 0 0 0 4.257-1.783 8.27 8.27 0 0 0 2.641-3.784" class="B"/><path d="M207.844 78.836l.333-6.552s7.694-.967 8.026-8.812-.452-25.906-.452-25.906l-14.131-6.793-15.233 12.258 2.388 36.011c.167 2.495 1.306 4.825 3.172 6.491a9.57 9.57 0 0 0 6.811 2.42c2.379-.114 4.63-1.112 6.311-2.798a9.54 9.54 0 0 0 2.775-6.317z" class="H"/><path d="M215.376 50.995c-.128.134-.862-.48-1.915-.523s-1.837.494-1.943.353.071-.304.41-.558a2.49 2.49 0 0 1 1.561-.445 2.53 2.53 0 0 1 1.519.586c.318.282.424.53.368.586zm-11.672 0c-.128.134-.855-.48-1.915-.523s-1.83.494-1.943.353.07-.304.41-.558a2.49 2.49 0 0 1 1.561-.445 2.53 2.53 0 0 1 1.519.586c.318.282.424.53.368.586zm4.246 7.825c.563-.231 1.158-.406 1.769-.518.282-.049.54-.151.566-.308-.01-.235-.11-.456-.287-.637l-1.103-1.582-2.568-4.188c.12-.055 1.458 1.734 2.991 3.984l1.046 1.603a1.11 1.11 0 0 1 .28.858c-.03.082-.083.16-.156.228a.86.86 0 0 1-.265.166 2.2 2.2 0 0 1-.469.121 9.35 9.35 0 0 1-1.804.271z" class="B"/><path d="M208.176 72.289c-3.646-.095-7.185-1.254-10.181-3.333 0 0 2.395 5.712 10.047 5.26l.134-1.928z" class="I"/><g class="B"><path d="M197.254 31.209a10.36 10.36 0 0 0-1.845 6.024c.025 2.151.719 4.24 1.986 5.979 1.145 1.497 2.869 2.718 4.755 2.648s3.71-1.85 3.307-3.693c-.184.578-.229 1.192-.134 1.791s.33 1.168.684 1.661.819.896 1.356 1.178 1.134.434 1.742.445 1.208-.12 1.756-.382 1.026-.649 1.398-1.129.626-1.04.743-1.635a3.89 3.89 0 0 0-.07-1.795c.147.847.446 1.66.883 2.401.224.369.544.671.926.873a2.38 2.38 0 0 0 1.243.271c1.18-.155 1.866-1.412 2.12-2.591a10.63 10.63 0 0 0-.243-5.285c-.525-1.713-1.474-3.266-2.76-4.515a12.87 12.87 0 0 0-4.54-2.752c-1.689-.592-3.483-.826-5.267-.686-3.588.316-6.973 1.805-9.63 4.236"/><path d="M198.249 33.976c.995 2.224 1.533 4.625 1.583 7.061a9.44 9.44 0 0 1-2.544 6.609 6.42 6.42 0 0 1-3.106 1.768c-1.182.284-2.42.227-3.571-.165a7.43 7.43 0 0 1-.975 6.263c-1.314 1.744-3.9 2.577-5.815 1.525-1.738-.946-2.487-3.05-2.727-5.013-.289-2.383-.039-4.799.73-7.073s2.039-4.346 3.715-6.064a16.07 16.07 0 0 1 5.971-3.866 16.08 16.08 0 0 1 7.057-.91"/></g><path d="M188.541 52.664c-1.045-.65-2.473-.12-3.306.791-.657.72-1.062 1.633-1.156 2.603a4.51 4.51 0 0 0 2.805 4.62 4.52 4.52 0 0 0 2.844.177" class="H"/><path d="M188.302 58.505c0 .042-.346.092-.89-.056a2.38 2.38 0 0 1-.973-.515c-.28-.245-.498-.553-.638-.897a1.74 1.74 0 0 1 .043-1.257c.142-.311.367-.577.65-.77.487-.318.855-.311.862-.268s-.318.148-.707.48c-.247.197-.427.466-.517.769a1.55 1.55 0 0 0 .015.926 2.37 2.37 0 0 0 .539.793c.233.225.508.399.811.513.516.177.812.226.805.282z" class="I"/><path d="M204.353 47.725c-.099.304-1.251.191-2.614.254s-2.502.233-2.622-.064.989-1.01 2.579-1.066 2.763.586 2.657.875zm10.997-.219c-.12.106-.354 0-.629-.035a2.73 2.73 0 0 0-.961-.056c-.41 0-.862.113-1.208.106s-.587-.078-.629-.233.113-.339.403-.537a3.07 3.07 0 0 1 1.335-.466 1.78 1.78 0 0 1 .824.087 1.77 1.77 0 0 1 .695.45c.262.318.283.586.17.685zm-5.665 15.319s-.254.219-.756.325a3.39 3.39 0 0 1-1.993-.191c-.628-.265-1.163-.71-1.54-1.278-.282-.431-.339-.748-.297-.77s.198.247.509.614a4.09 4.09 0 0 0 1.47 1.087 4.02 4.02 0 0 0 1.809.275c.48-.035.777-.12.798-.063z" class="B"/><path d="M193.755 65.496c-.049 0 0-.551-.268-1.483a6.06 6.06 0 0 0-2.233-3.276 5.95 5.95 0 0 0-2.522-1.101 6.08 6.08 0 0 0-3.13.268c-.541.195-1.048.471-1.505.819a5.46 5.46 0 0 0-1.251 1.264 5.92 5.92 0 0 0 0 7.011c.345.487.768.914 1.251 1.264.457.348.964.624 1.505.819.786.285 1.623.403 2.457.348s1.648-.284 2.389-.67a6.03 6.03 0 0 0 1.918-1.575c.523-.652.905-1.405 1.121-2.213.247-.932.219-1.483.268-1.476a2.29 2.29 0 0 1 0 .388 4.77 4.77 0 0 1-.134 1.123 6.08 6.08 0 0 1-2.218 3.453c-.77.601-1.671 1.012-2.629 1.2-1.105.212-2.247.124-3.306-.254a5.92 5.92 0 0 1-1.597-.854 5.84 5.84 0 0 1-1.336-1.335c-.802-1.076-1.235-2.382-1.235-3.725s.433-2.648 1.235-3.725a5.84 5.84 0 0 1 1.336-1.334 5.92 5.92 0 0 1 1.597-.854c.988-.358 2.051-.459 3.089-.293a6.21 6.21 0 0 1 2.846 1.239 6.08 6.08 0 0 1 2.218 3.453 4.77 4.77 0 0 1 .134 1.123c.011.132.011.264 0 .395z" class="C"/><path d="M215.339 30.389c.068.005.135.021.198.049.184.072.352.18.494.318a2.28 2.28 0 0 1 .574.952 2.27 2.27 0 0 1 .055 1.11 2.95 2.95 0 0 1-.896 1.448c-.435.384-.973.632-1.548.712a6.14 6.14 0 0 1-4.141-.989l-1.455-.84 1.597.522c.274.097.52.262.714.479s.33.48.395.764a2.18 2.18 0 0 1 .057.866 2.2 2.2 0 0 1-.283.821c-.324.507-.829.871-1.413 1.017a3.35 3.35 0 0 1-1.788-.042 6.09 6.09 0 0 1-3.08-2.655l-1.074-1.469 1.3 1.264a2.83 2.83 0 0 1 .706 2.669 2.88 2.88 0 0 1-.556 1.172c-.272.343-.618.621-1.012.812a3.79 3.79 0 0 1-2.081.338c-.712-.086-1.384-.373-1.939-.826-.733-.595-1.274-1.394-1.555-2.295a4.77 4.77 0 0 1-.169-.706 1.35 1.35 0 0 1 0-.254c.035 0 .077.339.303.925a4.88 4.88 0 0 0 1.548 2.118c.525.405 1.153.656 1.813.724s1.327-.048 1.924-.336c.349-.174.654-.424.892-.732a2.6 2.6 0 0 0 .486-1.047c.103-.409.101-.837-.007-1.244a2.48 2.48 0 0 0-.608-1.086l.276-.233a5.79 5.79 0 0 0 2.876 2.5c.495.183 1.036.204 1.544.059a2.49 2.49 0 0 0 1.282-.864c.508-.833.205-2.118-.657-2.408l.141-.318a5.9 5.9 0 0 0 3.9 1.01 2.73 2.73 0 0 0 1.445-.628c.41-.346.708-.806.858-1.321a2.23 2.23 0 0 0-.02-1.03c-.087-.337-.252-.649-.481-.911a2.7 2.7 0 0 0-.615-.416zm-18.851 12.616s0 .049-.092.134a3.12 3.12 0 0 1-.332.353c-.456.415-.992.735-1.575.939-.913.318-1.904.332-2.826.042-.611-.191-1.177-.504-1.663-.921a4.74 4.74 0 0 1-1.164-1.501l.297-.042a4.56 4.56 0 0 1-.825 1.977c-.429.584-.989 1.058-1.637 1.383s-1.363.491-2.088.486a4.57 4.57 0 0 1-2.079-.519c-.643-.335-1.196-.818-1.615-1.409a4.56 4.56 0 0 1-.794-1.989c-.104-.717-.035-1.448.2-2.133s.629-1.304 1.151-1.807l.247.261c-.834.693-1.883 1.074-2.967 1.08-.984.019-1.953-.246-2.791-.763a4.24 4.24 0 0 1-1.675-1.963 4.99 4.99 0 0 1-.346-2.182c.06-1.057.467-2.065 1.159-2.867a3.07 3.07 0 0 1 .862-.706s-.318.24-.763.798c-.632.81-.993 1.798-1.032 2.824a4.78 4.78 0 0 0 .375 2.062 3.98 3.98 0 0 0 1.582 1.801c.788.483 1.698.728 2.622.706 1.001-.014 1.968-.368 2.741-1.003l.24.261a4.37 4.37 0 0 0-.897 4.752 4.32 4.32 0 0 0 1.951 2.003c.854.433 1.828.571 2.769.391a4.4 4.4 0 0 0 2.161-1.232c.587-.61.984-1.376 1.145-2.207l.078-.494.219.452c.258.539.62 1.022 1.067 1.42s.967.702 1.533.896a4.31 4.31 0 0 0 2.72 0 4.71 4.71 0 0 0 1.569-.833l.473-.452zm-13.98 12.558a1.77 1.77 0 0 1-.615.367c-.619.257-1.29.361-1.957.304-1.033-.076-1.997-.547-2.692-1.313-.439-.485-.762-1.063-.947-1.69s-.226-1.288-.12-1.933l.325.141a7.26 7.26 0 0 1-2.65 2.168 5.65 5.65 0 0 1-2.579.544c-.829-.023-1.641-.246-2.366-.65a4.18 4.18 0 0 1-2.254-3.34 4 4 0 0 1 .706-2.648 2.93 2.93 0 0 1 .53-.537.72.72 0 0 1 .226-.141s-.275.24-.636.763a3.98 3.98 0 0 0-.579 2.542c.073.656.311 1.283.692 1.822a3.92 3.92 0 0 0 1.484 1.264 5.07 5.07 0 0 0 4.614.063 6.95 6.95 0 0 0 2.522-2.041l.459-.593-.134.706a4.08 4.08 0 0 0 .095 1.779 4.06 4.06 0 0 0 .845 1.568 3.88 3.88 0 0 0 2.487 1.299 4.4 4.4 0 0 0 1.886-.191l.658-.254zm40.01-15.296a2.43 2.43 0 0 1 .156 1.306 4.71 4.71 0 0 1-1.295 2.896c-.754.787-1.757 1.288-2.838 1.419-.437.092-.89.058-1.308-.099 0-.064.502 0 1.265-.162a4.86 4.86 0 0 0 2.611-1.416 4.85 4.85 0 0 0 1.296-2.672c.128-.77.05-1.264.113-1.271zm4.355 7.395a1.34 1.34 0 0 1 .177.537 3.06 3.06 0 0 1-.149 1.546 2.41 2.41 0 0 1-1.709 1.575c-.474.097-.965.053-1.413-.127a1.97 1.97 0 0 1-1.124-1.087l.353-.12c.065.23.096.468.092.706a2.82 2.82 0 0 1-.514 1.519 2.83 2.83 0 0 1-1.259.995c-.453.166-.947.188-1.413.063a2.7 2.7 0 0 1-1.06-.586 2.53 2.53 0 0 1-.855-1.483c-.064-.403 0-.628 0-.621s0 .219.12.593a2.65 2.65 0 0 0 .883 1.306 2.21 2.21 0 0 0 1.034.494c.382.071.776.039 1.142-.091a2.49 2.49 0 0 0 1.079-.878c.269-.389.422-.846.44-1.318a1.92 1.92 0 0 0-.077-.579l.36-.12a1.92 1.92 0 0 0 2.12 1.017 2.18 2.18 0 0 0 .936-.476c.268-.233.476-.527.604-.859.187-.446.272-.929.247-1.412-.014-.395-.077-.586-.014-.593z" class="D"/><path d="M407.167 298.816c0 .106-91.144.184-203.569.184S0 298.944 0 298.816s91.144-.183 203.598-.183l203.569.183z" class="B"/><use xlink:href="#D" class="G"/><use xlink:href="#D" opacity=".04" fill="#1f1b2d"/><path d="M367.092 273.416c-2.964-1.395-6.298-1.801-9.51-1.158-1.717.289-3.533.805-4.685 2.118s-1.413 3.566-.049 4.674c.866.588 1.911.852 2.953.749 2.508 0 5.292-.466 7.292 1.038 1.144.861 1.907 2.295 3.271 2.718a3.24 3.24 0 0 0 2.028-.206c.637-.285 1.164-.767 1.505-1.375a5.53 5.53 0 0 0 .403-4.075c-.153-.943-.523-1.839-1.079-2.617a6.2 6.2 0 0 0-2.129-1.866zm11.453-9.142c-1.922-2.266-2.282-5.578-1.413-8.423a16.24 16.24 0 0 1 4.995-7.245c2.61-2.323 5.648-4.115 8.945-5.274 1.274-.528 2.649-.769 4.027-.707a4.25 4.25 0 0 1 1.937.606 4.23 4.23 0 0 1 1.433 1.435c.947 1.794.043 3.968-.932 5.748a68.19 68.19 0 0 1-5.893 8.988c-1.759 2.274-3.78 4.512-6.465 5.536s-5.468.904-6.896-.953" class="G"/><g fill="#bbb7c5"><path d="M373.833 298.638c-.095-.375-.149-.758-.162-1.144l-.304-3.121c-.157-1.536-.393-3.064-.707-4.576a35.47 35.47 0 0 0-1.667-5.408 19.76 19.76 0 0 0-2.763-4.886c-.933-1.215-2.125-2.206-3.49-2.902a9.76 9.76 0 0 0-2.939-.918 5.54 5.54 0 0 1-1.138-.163c.385-.046.774-.046 1.159 0 1.061.083 2.099.353 3.066.798a10.36 10.36 0 0 1 3.681 2.93c1.195 1.512 2.159 3.192 2.862 4.985.708 1.781 1.261 3.618 1.653 5.494a37.89 37.89 0 0 1 .608 4.639l.155 3.142c.035.376.03.755-.014 1.13z"/><path d="M373.599 296.237a2.93 2.93 0 0 1 0-.53v-1.518l-.07-5.578c-.113-4.709-.523-11.206-1.307-18.358s-1.837-13.571-2.784-18.182c-.226-1.158-.452-2.196-.707-3.107s-.374-1.701-.544-2.337-.261-1.087-.353-1.476a1.83 1.83 0 0 1-.092-.529c.078.16.14.328.184.501l.438 1.455c.198.628.396 1.412.629 2.323s.487 1.941.706 3.099c1.301 6.012 2.28 12.088 2.932 18.203.785 7.16 1.138 13.677 1.166 18.394l-.077 5.592-.099 1.518c.02.177.013.356-.022.53z"/><path d="M373.57 283.672c-.043-.529-.043-1.06 0-1.589.064-1.017.205-2.493.488-4.293a57.6 57.6 0 0 1 1.413-6.263c.692-2.527 1.561-5.002 2.6-7.407 1.818-4.421 4.422-8.476 7.687-11.968a20.05 20.05 0 0 1 1.816-1.681c.276-.233.523-.466.77-.649l.707-.488a10.35 10.35 0 0 1 1.335-.854 49.37 49.37 0 0 0-4.373 3.905 41.45 41.45 0 0 0-7.497 11.961c-1.039 2.385-1.919 4.836-2.635 7.336-.707 2.302-1.138 4.42-1.484 6.2s-.516 3.241-.636 4.236a9.79 9.79 0 0 1-.191 1.554z"/></g><path d="M125.409.002c-.163.03-.328.051-.494.064l-1.413.12a15.67 15.67 0 0 0-2.318.332c-.459.099-.961.141-1.469.297l-1.633.473a27.22 27.22 0 0 0-7.772 3.961 27.72 27.72 0 0 0-7.581 8.628 29.64 29.64 0 0 0-3.596 17.186c.042.65.184 1.292.276 1.949s.22 1.313.396 1.956a27.61 27.61 0 0 0 3.038 7.668c2.96 5.171 7.534 9.231 13.022 11.559 2.891 1.206 5.982 1.865 9.114 1.942 3.226.128 6.446-.381 9.475-1.497l.926-.353.12-.042.113.049 13.424 6.623-.388.346-4.282-12.773-.05-.162.113-.12c3.206-3.295 5.565-7.316 6.875-11.721a29.23 29.23 0 0 0 .876-12.406 28.53 28.53 0 0 0-9.736-17.779c-2.013-1.649-4.234-3.026-6.606-4.095a28.68 28.68 0 0 0-5.561-1.68L128.2.2l-1.533-.092-.94-.064a1.58 1.58 0 0 1-.318-.035 1.35 1.35 0 0 1 .318 0h.94l1.547.042 2.12.289c1.935.34 3.83.882 5.652 1.617 2.414 1.051 4.675 2.424 6.719 4.081 2.482 2.082 4.591 4.57 6.239 7.357 1.924 3.254 3.194 6.851 3.738 10.591.628 4.218.339 8.522-.848 12.618a28.86 28.86 0 0 1-6.974 11.961l.05-.282 4.296 12.766.219.642-.608-.297-13.424-6.616h.233l-.947.36a24.99 24.99 0 0 1-9.687 1.504 25.78 25.78 0 0 1-9.312-1.984 27.81 27.81 0 0 1-13.262-11.82 28.08 28.08 0 0 1-3.087-7.767c-.178-.653-.308-1.319-.389-1.991-.092-.664-.24-1.313-.276-1.977a28.88 28.88 0 0 1-.099-3.898 29.93 29.93 0 0 1 1.123-7.28c.646-2.177 1.543-4.271 2.671-6.242a27.88 27.88 0 0 1 7.772-8.692 26.94 26.94 0 0 1 7.878-3.912l1.66-.452c.487-.115.98-.204 1.477-.268.77-.158 1.553-.252 2.338-.282l1.449-.071.473-.007z" class="D"/><path d="M131.727 24.63h-1.957l-4.338-5.896-.042-3.905s-3.024-.148-2.615 4.943 0 3.806 0 3.806-6.415.099-6.945.664c-.382.41-.488 6.786-.509 10.238-.038.847.212 1.682.71 2.368a3.75 3.75 0 0 0 2.032 1.41 2.94 2.94 0 0 0 .706.085c1.604 0 9.765-1.412 9.765-1.412l3.384-.042-.191-12.258zm5.587-1.136l-1.053 13.38-3.349.042-.148-13.098 4.55-.325z" class="C"/><defs ><path id="B" d="M153.063 222.509c5.361-8.14 3.104-19.082-5.042-24.44s-19.095-3.101-24.456 5.039-3.103 19.083 5.042 24.44 19.095 3.102 24.456-5.039z"/><path id="C" d="M284.217 214.251c1.59-9.975-5.212-19.348-15.193-20.937s-19.361 5.209-20.95 15.184 5.212 19.348 15.193 20.936 19.36-5.209 20.95-15.183z"/><path id="D" d="M373.7 260.667c-1.766 2.513-5.193 1.68-6.783.148s-2.261-3.764-2.875-5.889c-1.413-4.851-2.827-9.942-1.767-14.884a8.25 8.25 0 0 1 1.908-4.046 4.3 4.3 0 0 1 1.862-1.232c.718-.239 1.487-.284 2.229-.131 1.731.452 2.826 2.118 3.582 3.756a35.53 35.53 0 0 1 3.533 15.224c0 2.457-.283 5.027-1.668 7.061"/></defs></svg>