<svg xmlns="http://www.w3.org/2000/svg" width="634" height="486" fill="none" xmlns:v="https://vecta.io/nano"><path d="M351.694 416.6c-83.211-.623-284.013 11.958-311.48-94.484S246.497-44.422 426.745 124.739c67.702 63.53 177.632 148.422 169.286 194.948-13.951 77.169-192.393 97.286-244.337 96.913z" fill="#f9f8fa"/><path d="M148.149 361.229H76.647v84.519h71.502v-84.519zm81.901-52.006h-71.501v136.525h71.501V309.223zm81.906-36.437h-71.501v172.961h71.501V272.786zm81.902-40.296h-71.501v213.258h71.501V232.49zm81.964-36.997h-71.501v250.255h71.501V195.493zm81.903-43.412h-71.502V445.81h71.502V152.081z" fill="#d5d2dc"/><path d="M148.149 429.243H76.647v16.567h71.502v-16.567zm81.901 0h-71.501v16.567h71.501v-16.567zm81.906 0h-71.501v16.567h71.501v-16.567zm81.902 0h-71.501v16.567h71.501v-16.567zm81.964 0h-71.501v16.567h71.501v-16.567zm81.903 0h-71.502v16.567h71.502v-16.567z" fill="#666276"/><path d="M166.088 432.793a1.25 1.25 0 0 1-1.245-1.246V319.001a1.25 1.25 0 0 1 1.245-1.246 1.25 1.25 0 0 1 1.246 1.246v112.546a1.25 1.25 0 0 1-1.246 1.246zm82.338-.001a1.25 1.25 0 0 1-1.245-1.245V287.236a1.25 1.25 0 0 1 1.245-1.246 1.25 1.25 0 0 1 1.246 1.246v144.311a1.25 1.25 0 0 1-1.246 1.245zm82.399.001a1.25 1.25 0 0 1-1.246-1.246V246.752a1.25 1.25 0 0 1 1.246-1.246 1.25 1.25 0 0 1 1.245 1.246v184.795a1.25 1.25 0 0 1-1.245 1.246zm82.406-.001a1.25 1.25 0 0 1-1.245-1.245V208.074a1.25 1.25 0 0 1 1.245-1.246 1.25 1.25 0 0 1 1.246 1.246v223.473a1.25 1.25 0 0 1-1.246 1.245zm82.399.001a1.25 1.25 0 0 1-1.246-1.246V166.656a1.25 1.25 0 0 1 1.246-1.246 1.25 1.25 0 0 1 1.245 1.246v264.891a1.25 1.25 0 0 1-1.245 1.246zm-411.942 0a1.25 1.25 0 0 1-1.246-1.246v-60.975a1.25 1.25 0 0 1 1.246-1.246 1.25 1.25 0 0 1 1.246 1.246v60.975a1.25 1.25 0 0 1-1.246 1.246z" fill="#9691a4"/><path d="M147.59 111.037l39.55 37.681a2.94 2.94 0 0 1 .124 4.111l-22.359 23.418a2.94 2.94 0 0 1-4.111.125l-39.55-37.682a2.94 2.94 0 0 1-.125-4.11l22.36-23.419c1.121-1.183 2.99-1.246 4.111-.124z" fill="#fd5631"/><g fill="#1f1b2d"><path d="M175.056 135.576a1.23 1.23 0 0 1-.871-.374 1.26 1.26 0 0 1-.063-1.744l2.242-2.366c.997-.997 1.246-2.367.748-4.049-.934-3.176-4.422-6.54-7.661-7.287-1.682-.374-2.99-.062-3.986.934l-2.492 2.616a1.26 1.26 0 0 1-1.743.062 1.26 1.26 0 0 1-.063-1.744l2.492-2.615c1.619-1.682 3.861-2.243 6.353-1.62 4.11.997 8.283 4.983 9.467 9.031.747 2.492.249 4.796-1.308 6.478l-2.243 2.367c-.186.186-.498.311-.872.311z"/><path d="M157.928 120.753c.063-.124.187-.249.249-.373.748-.81 2.056-.81 2.865-.063l3.364 3.177c.809.747.809 2.055.062 2.865-.125.124-.311.249-.436.374m6.604 6.166c.062-.125.187-.249.249-.374.747-.81 2.055-.872 2.865-.062l3.363 3.176c.81.748.81 2.056.063 2.865-.125.125-.25.249-.436.312m-16.882-.997c.809.747.872 2.055.062 2.865l-3.239 3.363c-.747.81-2.055.872-2.865.062-.81-.747-.872-2.055-.062-2.865l3.239-3.363c.747-.81 2.055-.81 2.865-.062z"/><path d="M178.668 159.182c-.125 0-.249 0-.374-.063-4.983-1.183-39.238-33.82-40.733-38.802-.187-.561 0-.872.187-1.059l2.678-2.803a.6.6 0 1 1 .872.872l-2.554 2.678c.374 1.495 6.914 8.969 18.685 20.18s19.557 17.439 21.114 17.689l2.305-2.367a.6.6 0 1 1 .872.872l-2.367 2.491c-.125.125-.312.312-.685.312z"/></g><path d="M224.137 90.982c-9.093 2.118-35.252 17.44-39.55 26.907-.311 1.744-1.37 8.097-2.803 9.778-2.429 1.246-2.491-3.487-2.491-3.487s-6.727 4.297-9.654 1.121c-6.041-6.727 7.287-14.699 11.647-17.128 8.408-10.215 23.481-27.592 40.36-30.27 1.868 2.865 2.429 8.034 2.491 13.079z" fill="#fff"/><g fill="#1f1b2d"><path d="M173.126 127.605c-1.495 0-2.803-.623-3.924-1.807-1.37-1.557-1.93-3.238-1.619-5.107.81-4.983 7.661-9.778 13.329-12.955 10.027-12.207 22.297-25.162 36.996-28.775.311-.062.685.124.747.436s-.124.685-.436.748c-14.387 3.488-26.47 16.318-36.435 28.463-.063.062-.125.125-.187.125-7.723 4.297-12.27 8.657-12.831 12.145-.249 1.495.187 2.803 1.308 4.048 2.554 2.865 6.166.81 8.658-1.37.249-.249.622-.187.872.062s.186.623-.063.872c-2.242 2.118-4.484 3.115-6.415 3.115z"/><path d="M180.913 128.6c-.312 0-.561-.062-.748-.186-.872-.499-1.37-1.994-1.432-4.672 0-.373.249-.623.623-.623s.623.25.623.623c.124 2.99.685 3.55.809 3.613s.249 0 .499-.063c.685-.436 1.868-5.294 2.615-9.467v-.124c2.741-7.786 23.544-20.678 33.509-25.1.311-.125.685 0 .81.311s0 .685-.312.81c-5.543 2.491-13.204 6.913-19.432 11.335-7.474 5.294-12.27 9.903-13.391 13.017-.498 2.866-1.744 9.53-3.239 10.277a1.91 1.91 0 0 1-.934.249z"/></g><path d="M236.655 243.887l-7.723 18.747s29.149 9.53 30.083 8.658c1.246-1.121-11.834-6.229-15.509-18.685l2.554-4.983" fill="#fff"/><path d="M258.83 271.977c-1.121 0-4.36-.685-15.384-4.11l-14.699-4.672c-.187-.062-.311-.186-.374-.311a.69.69 0 0 1 0-.498l6.665-16.194c.124-.311.498-.498.809-.311.312.124.499.498.312.809l-6.415 15.571c9.591 3.114 24.103 7.661 28.089 8.409-.435-.312-.996-.748-1.494-1.122-3.8-2.802-10.838-7.91-13.453-16.692-.125-.311.062-.685.435-.747.312-.125.686.062.748.436 2.491 8.346 9.342 13.391 13.017 16.069 1.806 1.308 2.616 1.931 2.616 2.616 0 .249-.062.498-.311.685-.063-.062-.187.062-.561.062z" fill="#1f1b2d"/><path d="M170.698 220.281l-15.384 11.834s12.27 24.042 13.391 24.042c1.495.062-1.308-12.021 2.429-24.665l4.485-2.865" fill="#fff"/><path d="M168.767 256.78c-.062 0-.062 0 0 0-.56 0-1.121 0-7.661-12.394l-6.29-12.021c-.125-.249-.063-.623.186-.747l13.267-10.215c.249-.187.685-.187.872.125.187.249.187.685-.125.872l-12.892 9.903c4.11 7.972 10.463 20.117 12.456 22.796.063-.748 0-2.056 0-3.364-.124-4.609-.311-12.394 2.056-20.429.124-.311.436-.498.747-.436.311.125.498.436.436.748-2.305 7.847-2.118 15.446-1.993 20.055.062 3.176.062 4.298-.436 4.858-.187.187-.436.249-.623.249z" fill="#1f1b2d"/><path d="M242.384 75.162l6.228-.187 2.803-9.031c-1.62-2.616-1.308-2.305-1.495-5.294l-2.118-.623-.685-2.242.997-2.055.809-.498-.187-3.986 14.762 1.744.747.623 1.183 4.173.187 4.484-1.619 3.488c-2.118 1.993-2.055 1.993-4.796 2.99l-.872-.249-2.429 8.346 6.228 2.055-6.913 4.297-12.519-2.118-.311-5.917z" fill="#fff"/><path d="M245.687 75.784c-.312 0-.623-.249-.623-.561 0-.374.249-.623.56-.685l2.429-.124c.623-2.554 1.495-5.356 2.554-8.346-1.308-1.868-1.432-2.491-1.432-4.858-1.371-.311-2.305-1.121-2.679-2.305a3.56 3.56 0 0 1 1.059-3.612c.997-.872 2.367-.934 3.799-.249.312.125.436.498.312.81s-.498.436-.81.311c-.934-.436-1.806-.436-2.429.062-.623.561-.872 1.495-.623 2.304.249.872 1.059 1.433 2.18 1.557.312.062.561.311.561.623v.187c0 2.616 0 2.803 1.37 4.733.125.187.125.374.062.561l-2.74 8.969c-.062.249-.312.436-.561.498l-2.989.125h0zm13.824 2.804c-.062 0-.125 0-.249-.062l-3.55-1.308c-.312-.124-.436-.436-.374-.747l1.993-8.097c.062-.311.311-.498.623-.498 2.242.062 4.36-1.059 5.668-3.114 1.619-2.491 1.806-5.792.498-8.657-.125-.311 0-.685.311-.81s.685 0 .81.311c1.495 3.239 1.308 7.038-.561 9.903-1.494 2.304-3.737 3.612-6.29 3.675l-1.744 7.1 2.99 1.121c.311.124.498.498.373.81 0 .249-.249.374-.498.374zm-7.658-23.73c-.062 0-.187 0-.249-.062-.81-.374-1.744-.436-2.678-.249-.312.062-.686-.124-.748-.498-.062-.311.125-.685.498-.747 1.122-.249 2.367-.125 3.426.311.312.125.436.498.312.81s-.312.436-.561.436zm-3.303-2.057a9.46 9.46 0 0 1 4.173.187l.872-1.557c1.619 3.239 5.169 4.048 10.588 2.429 10.277-4.173-.249-21.425-10.713-10.028-5.543-.623-5.792 3.301-4.92 8.969z" fill="#1f1b2d"/><path d="M284.241 111.784l-3.176-7.287-11.461 6.789 5.544 10.027s.124 5.668 5.543 3.862c3.986 1.557 31.515-17.128 31.515-17.128l1.869-1.682c5.419-2.927 9.405-6.353 11.958-10.214 3.8-5.792-2.989-5.792-6.477-3.924s-5.855 5.045-6.851 6.602c-.81 1.557-2.056 2.803-3.488 3.799-4.796 2.056-19.869 6.54-24.976 9.156z" fill="#fff"/><path d="M278.822 126.172c-.374 0-.686 0-.997-.063-2.429-.436-3.114-3.799-3.176-4.546l-2.928-4.672c-.187-.311-.062-.685.187-.871.311-.187.685-.063.872.186l2.99 4.796c.062.062.062.187.062.249.124.935.685 3.301 2.18 3.613 3.176.56 10.027-2.242 19.806-8.097 7.225-4.298 13.578-8.844 14.076-9.156l1.869-1.681c.062-.063.062-.063.124-.063 5.356-2.865 9.28-6.228 11.709-10.027.623-.934 1.495-2.554.748-3.426-.997-1.121-4.36-.747-6.353.374-3.488 1.868-5.792 5.107-6.602 6.415-.872 1.557-2.18 2.99-3.675 3.986l-.062.062c-1.993.872-6.353 2.429-10.962 4.049-6.54 2.304-13.952 4.92-16.879 6.415-.311.187-.685.062-.81-.249-.186-.312-.062-.685.25-.81 2.989-1.557 10.463-4.173 17.003-6.477l10.837-3.986c1.37-.872 2.492-2.118 3.239-3.551.934-1.432 3.363-4.858 7.1-6.851 2.18-1.183 6.229-1.869 7.91-.125.685.747 1.184 2.242-.623 4.92-2.553 3.924-6.664 7.412-12.145 10.401l-1.806 1.62s-.062 0-.062.062c-1.121.623-24.789 17.502-33.882 17.502zM250.858 251.05l22.982-59.729-15.944-48.146-32.388-14.823c-4.048-1.059-8.221 1.37-9.28 5.419-.062.249-.124.56-.187.809l-6.975 39.799-39.737 42.851 8.969 16.319 48.207-42.851 10.09-19.993 12.83 21.425-18.062 50.761 19.495 8.159z" fill="#1f1b2d"/><path d="M308.158 101.445a71.19 71.19 0 0 0-16.07 5.917c-13.017 6.976-12.581-16.443-15.57-21.986-4.173-3.426-13.267-7.474-15.634-7.287-2.802 5.419-14.698 4.235-17.688-3.488-8.844-2.491-25.661 1.744-40.796 11.273-7.785 4.92-20.429 19.059-20.678 19.869s4.485 10.525 5.294 10.65 40.858-34.131 38.242-20.18c-.934 4.921-8.532 35.626-8.532 35.626 17.439 12.27 21.3 12.893 43.1 12.768l9.84-31.453.187-.124c.685 3.363 2.554 10.463 6.727 13.578 5.543 4.11 36.249-17.128 36.249-17.128l-4.671-8.035z" fill="#fd5631"/><path d="M222.144 110.601h-.124c-.312-.062-.561-.436-.436-.747l3.363-13.827c.062-.311.436-.561.747-.436.312.062.561.436.436.747l-3.363 13.827c-.062.25-.311.436-.623.436zm44.596 14.263h-.187a.62.62 0 0 1-.374-.81c2.927-9.093 5.792-23.107 5.855-23.294.062-.311.373-.56.747-.498.312.062.561.374.498.748 0 .124-2.927 14.262-5.854 23.418-.187.312-.436.436-.685.436zm-23.11 9.778h-.312c-.374 0-.623-.311-.623-.623s.312-.623.623-.623c2.99.063 4.858-.872 6.789-1.93 2.118-1.122 4.36-2.243 7.91-1.994.374 0 .623.312.561.686 0 .373-.312.622-.685.56-3.239-.187-5.17.81-7.288 1.869-1.868 1.058-3.861 2.055-6.975 2.055z" fill="#1f1b2d"/><path d="M312.703 101.632c5.107-1.931 7.848-3.612 8.097-4.92s-.997-1.619-3.924-.872c-4.422 1.059-6.602 5.356-4.173 5.792z" fill="#fff"/><path d="M312.7 102.255c-.249 0-.498-.125-.56-.374-.125-.311.062-.685.373-.809 6.665-2.554 7.661-3.987 7.724-4.485 0-.125.062-.311 0-.374s-.623-.436-3.177.187c-.311.062-.685-.124-.747-.436s.124-.685.436-.747c2.304-.56 3.612-.56 4.297.125.249.249.561.747.374 1.495-.187.997-1.308 2.678-8.533 5.419h-.187z" fill="#1f1b2d"/></svg>