<svg xmlns="http://www.w3.org/2000/svg" width="32" height="32" fill="none" xmlns:v="https://vecta.io/nano"><g clip-path="url(#A)"><path d="M9.286 18.449a1.25 1.25 0 0 0 .839 2.176H14a1.25 1.25 0 1 0 0-2.5h-.895c1.826-2.07 2.065-3.09 2.065-3.75a3.13 3.13 0 0 0-3.125-3.125l-.022.001L12 11.25a3.13 3.13 0 0 0-3.125 3.125 1.25 1.25 0 1 0 2.5 0c0-.339.286-.625.625-.625.008 0 .015-.001.022-.001l.022.001c.335 0 .618.279.625.612-.012.064-.166.708-1.637 2.33l-1.747 1.757z" fill="#6366f1"/><g fill="#b4b7c9"><path d="M22.984 27.557c-2.1 1.272-4.514 1.944-6.984 1.944a1.25 1.25 0 1 0 0 2.5 15.97 15.97 0 0 0 8.279-2.306 1.25 1.25 0 1 0-1.295-2.138zm4.33-22.871C24.292 1.664 20.274 0 16 0S7.708 1.664 4.686 4.686 0 11.726 0 16c0 3.021.846 5.962 2.447 8.508A16.06 16.06 0 0 0 7.408 29.5h-3.47a1.25 1.25 0 1 0 0 2.5h3.816c2.206 0 4-1.794 4-4v-3.687a1.25 1.25 0 0 0-2.5 0v3.384C5.069 25.285 2.5 20.872 2.5 16A13.52 13.52 0 0 1 16 2.5 13.52 13.52 0 0 1 29.5 16a13.45 13.45 0 0 1-2.289 7.493 1.25 1.25 0 0 0 2.078 1.389A15.93 15.93 0 0 0 32 16c0-4.274-1.664-8.292-4.686-11.314z"/></g><path d="M18.313 11.25a1.25 1.25 0 0 0-1.25 1.25v1.531a3.41 3.41 0 0 0 3.406 3.406c.314 0 .617-.044.906-.123v2.061a1.25 1.25 0 1 0 2.5 0V12.5a1.25 1.25 0 1 0-2.5 0v1.531a.91.91 0 0 1-.906.906.91.91 0 0 1-.906-.906V12.5a1.25 1.25 0 0 0-1.25-1.25z" fill="#6366f1"/></g><defs><clipPath id="A"><path fill="#fff" d="M0 0h32v32H0z"/></clipPath></defs></svg>