<svg xmlns="http://www.w3.org/2000/svg" width="32" height="32" fill="none" xmlns:v="https://vecta.io/nano"><g clip-path="url(#A)"><path d="M31.685 24.81c-.038-.086-.085-.168-.141-.243l-2.765-3.733a1.25 1.25 0 0 0-1.155-.771H5.626V6.938c0-1.378 1.121-2.5 2.5-2.5h15.749c1.378 0 2.5 1.121 2.5 2.5v8.124a1.25 1.25 0 0 0 1.25 1.25 1.25 1.25 0 0 0 1.25-1.25V6.938c0-2.757-2.243-5-5-5H8.126c-2.757 0-4.999 2.243-4.999 5v14.024l-2.67 3.605a1.25 1.25 0 0 0-.141.244 3.74 3.74 0 0 0 .298 3.554 3.74 3.74 0 0 0 3.138 1.697h24.498c1.27 0 2.442-.634 3.138-1.697s.807-2.391.298-3.554zm-2.39 2.186a1.23 1.23 0 0 1-1.046.566h-7.874a1.25 1.25 0 0 0-1.25-1.25h-6.249a1.25 1.25 0 0 0-1.25 1.25H3.751a1.23 1.23 0 0 1-1.046-.566c-.213-.326-.263-.712-.142-1.074l2.442-3.297h21.989l2.443 3.297c.121.363.071.748-.142 1.074z" fill="#b4b7c9"/><g fill="#6366f1"><path d="M12.626 12.501v.063 3.687.063a1.25 1.25 0 1 0 2.5 0v-.062-3.687-.062a1.25 1.25 0 1 0-2.5 0zM8.25 11.25v.063 4.937.063a1.25 1.25 0 1 0 2.5 0v-.062-4.937-.062a1.25 1.25 0 1 0-2.5-.002zM17 8.126v.063 8.062.063a1.25 1.25 0 1 0 2.5 0v-.062V8.19v-.062a1.25 1.25 0 1 0-2.5-.002zm4.375 6.312v.063 1.75.063a1.25 1.25 0 1 0 2.5 0v-.062-1.75-.062a1.25 1.25 0 1 0-2.5 0z"/></g></g><defs><clipPath id="A"><path fill="#fff" d="M0 0h32v32H0z"/></clipPath></defs></svg>