<svg xmlns="http://www.w3.org/2000/svg" width="100" height="48" fill="none" xmlns:v="https://vecta.io/nano"><g clip-path="url(#A)" fill="#b4b7c9"><path d="M58.904 20.349c-.7-.055-1.408 0-2.11-.038-.518-.027-.674.19-.662.679l.006 2.852-.002 1.161c0 2.624 0 2.624 2.63 2.484 2.152-.114 3.296-1.34 3.317-3.556.019-2.125-1.114-3.419-3.18-3.581zm.674 5.211c-.621.609-1.778.438-1.778.438v-4.044s1.173-.216 1.778.535a1.58 1.58 0 0 1 .399.723c.262.729.154 1.795-.399 2.349zm13.295.991l-1.715-5.414c-.144-.465-.372-.645-.892-.645l-.655.013.019 1.588.49 1.894c.044.188.144.476-.114.543-.125.032-.26.051-.395.055a1.86 1.86 0 0 1-.395-.055c-.258-.068-.159-.355-.114-.543l.49-1.894c.006.008.019-1.588.019-1.588l-.655-.013c-.52 0-.748.18-.892.645l-1.715 5.414c-.355 1.133-.345 1.135.92 1.127.751 0 .926-.059 1.063-.825.146-.795.44-.681 1.279-.672.839-.008 1.133-.123 1.279.672.137.765.313.825 1.063.825 1.264.008 1.275.006.92-1.127zm-26.408-.786c.012-.073.086-.123.158-.103.715.194 1.37.485 2.078.475.374-.005.749-.043.83-.473.074-.39-.267-.514-.56-.655l-1.493-.774c-1.341-.814-1.306-2.668.064-3.454 1.165-.668 2.366-.476 3.578-.116.428.127.317.232.206.615-.329.952-.261 1.012-.791.884l-1.332-.284c-.269-.031-.585.029-.651.392-.057.316.197.42.413.533l1.404.723c.796.471 1.314 1.149 1.138 2.182-.177 1.038-.802 1.566-1.786 1.825-.972.256-1.892.114-2.788-.232-.845-.326-.691-.237-.468-1.537zm-8.939-.001c.013-.073.086-.123.158-.103.715.194 1.37.485 2.078.475.374-.005.749-.043.83-.473.074-.39-.267-.514-.56-.655l-1.493-.774c-1.341-.814-1.306-2.668.065-3.454 1.165-.668 2.366-.476 3.578-.116.427.127.317.232.206.615-.329.952-.261 1.012-.791.884l-1.332-.284c-.269-.031-.585.029-.651.392-.058.316.197.421.413.533l1.404.723c.796.471 1.313 1.149 1.138 2.182-.176 1.039-.802 1.566-1.786 1.825-.972.256-1.892.114-2.788-.232-.845-.326-.691-.237-.468-1.537z"/><path d="M31.452 20.505c.181.021.434.029.718.086.407.075 1.229.268 1.017.795-.231.575-.283 1.225-1.243.798-.979-.434-1.75-.031-2.052.982-.254.852-.367 1.78.271 2.513.517.594 1.198.511 1.913.358.373-.065.849-.597.962.088.087.524.289 1.159-.569 1.464-2.582.917-4.849-.707-4.752-3.465.08-2.281 1.37-3.603 3.735-3.62zm38.895-.013h-1.413v1.586h1.413v-1.586zm11.599 11.141H19v1.01h13.517l7.764.059c.648-.002 1.115.177 1.572.646l5.802 5.854c.57.596.867.522 1.399-.018L55 33.326c.272-.266.586-.684 1.034-.683h4.081L44.781 47.87c-.042.042-.011.114.049.114h.783l13.738.018c1.059 0 .996.005 1.741-.74l13.59-13.607c.477-.482.812-.822 1.375-1.012h5.89v-1.01h0zM59.858 15.32c-.029 0-.058-.006-.084-.02-.313-.164-.591-.413-.865-.694l-6.03-6.072c-.443-.453-.677-.491-1.141-.003l-5.974 6.126c-.148.15-.274.421-.443.609a.17.17 0 0 1-.127.054h-3.623c-.156 0-.234-.188-.123-.297L56.187.338c.119-.117.035-.318-.131-.318h-.471C50.689.016 45.794.026 40.898 0c-.58-.003-.893.302-1.244.652L25.662 14.601c-.274.275-.549.529-.858.698-.027.014-.056.021-.086.021h-5.544c-.096 0-.174.078-.174.174v.661c0 .096.078.174.174.174h62.597c.096 0 .174-.078.174-.174v-.661c0-.096-.078-.174-.174-.174H59.858h0z"/></g><defs><clipPath id="A"><path fill="#fff" d="M0 0h100v48H0z"/></clipPath></defs></svg>