<svg xmlns="http://www.w3.org/2000/svg" width="100" height="48" fill="none" xmlns:v="https://vecta.io/nano"><path d="M79.142 15.655a1.78 1.78 0 0 1 .852.216c.557.303.935.893.935 1.571v5.077h4.914c.987 0 1.787.8 1.787 1.787a1.79 1.79 0 0 1-1.787 1.787h-4.914v4.818c0 .987-.8 1.787-1.787 1.787-.208 0-13.687-.005-13.687-.005a1.79 1.79 0 0 1-1.787-1.787v-6.681h.004c.043-.949.823-1.706 1.783-1.706h11.9v-3.29H63.619L57.1 31.325c-.104.535-.449 1.017-.978 1.272-.249.12-.513.177-.772.177a1.79 1.79 0 0 1-1.544-.887c-.066-.101-.122-.207-.166-.318l-5.148-10.105-5.208 9.88c-.225.529-.555.998-1.084 1.253-.249.12-.513.177-.772.177a1.79 1.79 0 0 1-1.544-.887c-.066-.101-.122-.208-.167-.319l-6.286-12.34H22.931v3.29h8.489c.987 0 1.787.8 1.787 1.787a1.79 1.79 0 0 1-1.787 1.787h-8.489v4.915c0 .987-.8 1.787-1.787 1.787a1.79 1.79 0 0 1-1.787-1.787v-4.914h-4.914a1.79 1.79 0 0 1-1.787-1.787c0-.987.8-1.787 1.787-1.787h4.914v-5.077c0-.678.378-1.269.935-1.571a1.78 1.78 0 0 1 .852-.216h13.322c.29 0 .563.071.805.193a1.78 1.78 0 0 1 .884.857l5.269 10.343 5.286-9.878c.266-.541.413-1.027.984-1.301.249-.12.513-.177.772-.177.442 0 .872.165 1.202.463.325.255.476.427.7.86l4.98 10.033 5.589-10.371a1.78 1.78 0 0 1 .575-.611 1.78 1.78 0 0 1 1.141-.412h16.49 0zM67.161 29.118h10.194v-3.025H67.16v3.025h0zM79.142 12h-16.49c-1.197 0-2.366.398-3.314 1.125-.645.458-1.189 1.058-1.579 1.745l-.021.037-.02.037-2.28 4.231s-2.647-5.183-3.416-5.815c-.99-.854-2.247-1.322-3.557-1.322a5.47 5.47 0 0 0-2.356.538c-1.419.682-2.203 1.932-2.872 3.405l-1.722 3.195-2.09-4.102a5.45 5.45 0 0 0-2.587-2.527C36.1 12.188 35.282 12 34.466 12H21.144c-.905 0-1.803.228-2.596.659a5.44 5.44 0 0 0-2.846 4.783v1.421h-1.259A5.45 5.45 0 0 0 9 24.306a5.45 5.45 0 0 0 5.443 5.442h1.259v1.259a5.45 5.45 0 0 0 5.443 5.442 5.45 5.45 0 0 0 5.442-5.442v-1.259h4.833a5.41 5.41 0 0 0 2.854-.81l2.131 4.183c.107.239.231.471.372.694a5.46 5.46 0 0 0 4.651 2.614 5.47 5.47 0 0 0 2.356-.538c1.328-.638 2.481-1.716 3.07-3.096l1.548-3.457 1.928 3.784c.106.238.23.469.37.69a5.46 5.46 0 0 0 4.651 2.617c.81 0 1.624-.186 2.356-.538 1.244-.598 2.212-1.657 2.709-2.929.813 1.984 2.766 3.386 5.039 3.386l13.687.004c3.001 0 5.442-2.343 5.442-5.344v-1.259h1.259a5.45 5.45 0 0 0 5.442-5.442 5.45 5.45 0 0 0-5.442-5.442h-1.259v-1.421a5.44 5.44 0 0 0-2.846-4.783A5.46 5.46 0 0 0 79.142 12z" fill="#b4b7c9"/></svg>