<svg xmlns="http://www.w3.org/2000/svg" width="100" height="48" fill="#b4b7c9" xmlns:v="https://vecta.io/nano"><path d="M9 26.735v3.652c28.261-1.681 7.243-2.554 0-3.652zm0 6.035v3.586l.236.059c21.53-1.987 15.35-2.712-.236-3.646zM9 1v11.793c17.719-.599 17.807-1.604 8.618-2.821l1.653-2.007c11.345 1.741 10.626 4.593 2.479 6.021 2.73.96 12.406 2.739.708 6.257 1.904.517 12.639 3.174-.708 5.548 2.115.955 13.335 2.325.472 5.784 3.331.547 11.889 2.372.59 6.021 4.272.447 4.755.595 5.902 2.597v7.673h5.194V1H9zm0 20.188v3.66c5.316-1.046 29.58-1.47 0-3.66zm0-6.238v3.876c16.612-.894 22.224-2.051 0-3.876zm31.01-1.451h-2.834v-.557h6.272v.557h-2.834v7.573h-.604v-7.573zm4.971-.558h.604v3.763h5.203v-3.763h.604v8.13h-.604v-3.81h-5.203v3.81h-.604v-8.13zm8.527 0h5.784v.557h-5.18v3.194h4.657v.558h-4.657v3.264h5.238v.557h-5.842v-8.13h0zm-15.91 12.804h2.698l1.606 5.331 1.777-5.357h2.198l1.776 5.357 1.606-5.331h2.646l-3.08 9.28H46.6l-1.843-5.304-1.856 5.304h-2.225l-3.08-9.28zm14.304 4.53v-.035c0-2.769 1.981-4.96 4.785-4.96 3.26 0 4.767 2.401 4.767 5.188l-.017.684h-6.345c.263 1.034 1.017 1.559 2.05 1.559.807 0 1.42-.298 2.104-.964l1.84 1.525c-.911 1.156-2.225 1.928-4.101 1.928-2.979 0-5.083-1.998-5.083-4.925zm6.45-.823c-.123-1.052-.753-1.718-1.664-1.718-.877 0-1.472.666-1.648 1.718h3.312zm4.914-3.706h4.725c1.159 0 1.974.29 2.514.816.368.381.592.869.592 1.5v.026c0 1.066-.606 1.698-1.422 2.054 1.119.368 1.83 1 1.83 2.251v.026c0 1.58-1.29 2.541-3.488 2.541h-4.752v-9.214h0zm5.318 2.843c0-.513-.407-.79-1.158-.79h-1.672v1.619h1.606c.777 0 1.224-.263 1.224-.803v-.026zm-.882 2.619h-1.948v1.698h1.974c.79 0 1.225-.303 1.225-.842v-.026c0-.5-.396-.83-1.251-.83zm5.775-5.462h4.725c1.159 0 1.974.29 2.514.816.368.381.592.869.592 1.5v.026c0 1.066-.606 1.698-1.422 2.054 1.119.368 1.829 1 1.829 2.251v.026c0 1.58-1.289 2.541-3.487 2.541h-4.752v-9.214h0zm5.318 2.843c0-.513-.407-.79-1.158-.79h-1.672v1.619h1.606c.776 0 1.224-.263 1.224-.803v-.026zm-.882 2.619h-1.948v1.698h1.974c.79 0 1.224-.303 1.224-.842v-.026c0-.5-.395-.83-1.251-.83zm7.32.304l-3.514-5.766h2.909l1.895 3.356 1.908-3.356h2.857l-3.502 5.726v3.488h-2.553v-3.449h0zm-43.47 7.386h.581l3.786 8.189h-.662l-1.034-2.277h-4.797l-1.034 2.277h-.627l3.786-8.189zm2.416 5.366l-2.137-4.704-2.149 4.704h4.286zm1.907-5.311h.674l2.555 7.236 2.382-7.26h.464l2.382 7.26 2.555-7.236h.627l-2.95 8.189h-.488l-2.381-7.062-2.381 7.062h-.488l-2.95-8.189zm15.575-.05h.581l3.786 8.188h-.662l-1.034-2.276h-4.797l-1.034 2.276h-.627l3.786-8.188zm2.416 5.366l-2.137-4.704-2.149 4.704h4.286zm3.345-5.316h3.415c.999 0 1.801.313 2.289.801.383.384.615.929.615 1.51v.023c0 1.359-1.01 2.138-2.382 2.323l2.683 3.473h-.767l-2.59-3.368h-2.66v3.368h-.604v-8.131zm3.345 4.216c1.359 0 2.369-.685 2.369-1.858v-.024c0-1.092-.859-1.777-2.334-1.777h-2.776v3.659h2.741zm4.772-4.216h2.706c2.555 0 4.321 1.754 4.321 4.042v.023c0 2.289-1.766 4.066-4.321 4.066h-2.706v-8.131zm.604.557v7.016h2.102c2.265 0 3.693-1.545 3.693-3.484v-.024c0-1.928-1.428-3.508-3.693-3.508h-2.102 0zm7.537 6.392l.395-.453c.895.825 1.72 1.208 2.916 1.208 1.219 0 2.055-.685 2.055-1.614v-.023c0-.859-.452-1.359-2.299-1.73-1.951-.395-2.742-1.057-2.742-2.289v-.023c0-1.208 1.104-2.137 2.614-2.137 1.186 0 1.963.325 2.787.987l-.383.476c-.767-.662-1.534-.918-2.427-.918-1.196 0-1.986.685-1.986 1.533v.023c0 .859.442 1.382 2.368 1.777 1.881.383 2.672 1.057 2.672 2.242v.023c0 1.312-1.127 2.218-2.695 2.218-1.301 0-2.3-.429-3.276-1.3z"/></svg>