<svg xmlns="http://www.w3.org/2000/svg" width="166" height="166" fill="none" xmlns:v="https://vecta.io/nano"><path d="M103.322 56.555h-11V46.5a5.5 5.5 0 1 1 11 0v10.055h0z" fill="#6366f1"/><path d="M91.501 107.497h-54.67V56.84a8.07 8.07 0 0 1 8.066-8.066h38.537a8.07 8.07 0 0 1 8.066 8.066v50.657h0z" fill="#f3f6ff"/><path d="M127.076 107.496H91.501V52.859h11.351c3.96 0 7.596 2.036 9.451 5.291l12.559 22.046c1.454 2.552 2.214 5.395 2.214 8.283v19.016z" fill="#eff2fc"/><path d="M126.826 85.632c-.332-1.891-.992-3.727-1.963-5.431l-12.56-22.046c-1.649-2.896-4.71-4.826-8.153-5.217v32.693h22.676z" fill="#fff"/><g fill="#131022"><path opacity=".1" d="M124.863 80.196l-12.56-22.046c-1.855-3.256-5.491-5.291-9.451-5.291h-4.759c1.93.736 3.562 2.042 4.579 3.754l10.957 18.431c1.268 2.133 1.931 4.511 1.931 6.925v9.023c0 3.797-3.213 6.876-7.175 6.876h-23.86-47.693v9.629h54.67 2.377 33.198V88.479c0-2.888-.76-5.732-2.213-8.283h0z"/><path opacity=".1" d="M112.303 58.155c-1.649-2.896-4.71-4.825-8.153-5.216v6.164l9.479 15.945c1.268 2.133 1.931 4.511 1.931 6.925v3.658h11.266c-.332-1.891-.992-3.727-1.963-5.431l-12.56-22.046z"/></g><path d="M91.501 109.45a1.95 1.95 0 0 1-1.952-1.952V54.359c0-1.078.874-1.952 1.952-1.952s1.952.874 1.952 1.952v53.139c0 1.078-.874 1.952-1.952 1.952z" fill="#e2e5f1"/><path d="M124.917 116.897H41.083c-3.36 0-6.083-2.724-6.083-6.083s2.724-6.084 6.083-6.084h83.834c3.359 0 6.083 2.724 6.083 6.084s-2.724 6.083-6.083 6.083z" fill="#d4d7e5"/><path d="M107.53 125.24a11.33 11.33 0 0 0 11.329-11.329c0-6.257-5.072-11.33-11.329-11.33s-11.33 5.073-11.33 11.33a11.33 11.33 0 0 0 11.33 11.329zm-50.999 0a11.33 11.33 0 0 0 11.33-11.329c0-6.257-5.073-11.33-11.33-11.33s-11.33 5.073-11.33 11.33a11.33 11.33 0 0 0 11.33 11.329z" fill="#b4b7c9"/><path d="M107.529 117.297c1.871 0 3.387-1.516 3.387-3.387a3.39 3.39 0 0 0-3.387-3.387 3.39 3.39 0 0 0-3.387 3.387 3.39 3.39 0 0 0 3.387 3.387zm-50.998 0a3.39 3.39 0 0 0 3.387-3.387 3.39 3.39 0 0 0-3.387-3.387 3.39 3.39 0 0 0-3.387 3.387 3.39 3.39 0 0 0 3.387 3.387z" fill="#fff"/><path d="M74.609 63.332h-6.461v-6.461a1.61 1.61 0 0 0-1.61-1.61h-4.806a1.61 1.61 0 0 0-1.61 1.61v6.461h-6.461a1.61 1.61 0 0 0-1.61 1.61v4.806a1.61 1.61 0 0 0 1.61 1.61h6.461v6.461a1.61 1.61 0 0 0 1.61 1.61h4.806a1.61 1.61 0 0 0 1.61-1.61v-6.461h6.461a1.61 1.61 0 0 0 1.61-1.61v-4.806a1.61 1.61 0 0 0-1.61-1.61h0z" fill="#6366f1"/></svg>