<svg xmlns="http://www.w3.org/2000/svg" width="166" height="166" fill="none" xmlns:v="https://vecta.io/nano"><path d="M106.988 127.699v-6.759c0-13.806-11.193-24.999-24.999-24.999S56.99 107.134 56.99 120.94v6.759h49.998z" fill="#e2e5f1"/><path d="M98.676 127.698v-6.386a16.69 16.69 0 0 0-16.687-16.687 16.69 16.69 0 0 0-16.687 16.687v6.386h33.374z" fill="#eff2fc"/><path d="M81.684 127.698c1.23-2.383 9.574-17.899 9.931-20.062-2.777-2.065-5.9-3.011-9.627-3.011-3.996 0-7.664 1.407-10.537 3.75 1.999 3.676 9.055 16.399 10.1 19.323h.132z" fill="#b4b7c9"/><path opacity=".1" d="M83.82 104.711c2.737 1.254 5.007 3.469 6.448 6.255.753-1.606 1.266-2.826 1.348-3.328-2.31-1.717-4.861-2.658-7.797-2.927h0zm-4.225 18.825l1.957 4.168h.133l2.195-4.168h-4.285z" fill="#585c7b"/><g fill="#eff2fc"><path d="M124.147 91.854a8.28 8.28 0 0 0 0-11.706 8.28 8.28 0 0 0-11.706 0 8.28 8.28 0 0 0 0 11.706 8.28 8.28 0 0 0 11.706 0zm-76.905 2.259a8.28 8.28 0 0 0 6.573-9.686 8.28 8.28 0 0 0-9.686-6.573 8.28 8.28 0 0 0-6.573 9.686 8.28 8.28 0 0 0 9.686 6.573z"/><path d="M89.045 106.456H74.935c-17.533 0-31.746-14.213-31.746-31.745s14.213-31.746 31.746-31.746h14.109c17.532 0 31.745 14.213 31.745 31.746s-14.213 31.745-31.745 31.745z"/></g><path opacity=".1" d="M90.325 40.656h-4.071c14.214 0 25.737 9.972 25.737 24.186v2.186c0 14.214-12.804 29.593-27.018 29.593H68.926c-13.602 0-24.738-10.553-25.672-23.918-.041.663-.065 1.331-.065 2.005h0c0 17.533 14.213 31.746 31.746 31.746h14.109c18.424 0 31.467-15.149 32.747-31.475.108-1.381.195-2.982.03-4.334-1.966-16.153-15.318-29.988-31.496-29.988h0z" fill="#585c7b"/><path d="M117.753 87.194c2.574-2.168 4.551-5.239 4.858-9.822v-3.48C122.611 54.622 106.989 39 87.718 39H76.261C56.99 39 41.368 54.622 41.368 73.893v3.48c.183 4.551 2.257 7.521 4.372 9.623.94.934 2.533.55 2.93-.714l6.261-19.92 8.391 5.885 9.149-6.94 9.518 6.997 9.884-7.576 10.135 7.628 6.865-6.321 6.066 20.308c.362 1.21 1.847 1.666 2.813.853h0z" fill="#b4b7c9"/><path d="M66.089 50.638a2.02 2.02 0 0 1-.877-3.834c.434-.209 1.448-.653 2.18-.837a2.02 2.02 0 0 1 2.448 1.463c.272 1.08-.383 2.176-1.463 2.448-.298.075-1.006.363-1.416.56-.282.136-.58.2-.873.2h0zm-10.015 7.064a2.01 2.01 0 0 1-1.304-.479 2.02 2.02 0 0 1-.232-2.843 25.09 25.09 0 0 1 5.842-5.023c.947-.586 2.19-.294 2.776.653s.294 2.19-.653 2.776c-1.27.786-3.149 2.154-4.89 4.204a2.01 2.01 0 0 1-1.538.711h0z" fill="#fff"/><path d="M122.331 72.301h-81a3.22 3.22 0 0 1-3.221-3.221v-2.908a3.22 3.22 0 0 1 3.221-3.221h81a3.22 3.22 0 0 1 3.221 3.221v2.908a3.22 3.22 0 0 1-3.221 3.221z" fill="#e2e5f1"/><path d="M94.329 65.261c1.268-6.809-3.225-13.357-10.034-14.624s-13.357 3.225-14.624 10.034 3.225 13.357 10.034 14.624 13.357-3.225 14.624-10.034z" fill="#6366f1"/><path d="M81.989 69.44a6.49 6.49 0 0 0 6.489-6.489 6.49 6.49 0 0 0-6.489-6.489A6.49 6.49 0 0 0 75.5 62.95a6.49 6.49 0 0 0 6.489 6.489z" fill="#fff"/></svg>