<svg xmlns="http://www.w3.org/2000/svg" width="166" height="166" fill="none" xmlns:v="https://vecta.io/nano"><path d="M125.674 97.494c-1.017-.565-2.159-.694-3.21-.45-2.196.511-4.5.267-6.472-.828l-3.894-2.161c-1.979-1.098-3.05-3.351-2.593-5.569a26.9 26.9 0 0 0 .54-4.607c.071-2.3 1.651-4.277 3.873-4.87l1.114-.297c2.086-.557 4.33-.394 6.242.608a4.13 4.13 0 0 0 3.016.327c2.216-.605 3.482-2.945 2.89-5.165l-1.648-6.177a4.15 4.15 0 0 0-5.077-2.94c-1.045.279-1.889.933-2.428 1.778-1.161 1.823-3.027 3.083-5.115 3.64l-1.096.293c-2.219.592-4.585-.318-5.788-2.274a26.88 26.88 0 0 0-3.384-4.409c-1.576-1.664-1.911-4.148-.799-6.153l2.16-3.895c1.094-1.973 2.919-3.399 5.053-4.129 1.021-.349 1.921-1.063 2.485-2.082 1.21-2.181.423-4.93-1.758-6.14l-6.174-3.426c-2.18-1.21-4.928-.423-6.138 1.758a4.5 4.5 0 0 0-.45 3.212c.511 2.197.266 4.501-.827 6.474l-2.159 3.894c-1.098 1.98-3.352 3.052-5.569 2.594a26.88 26.88 0 0 0-4.607-.543c-2.298-.071-4.273-1.652-4.866-3.874l-.559-2.095c-.481-1.803-.422-3.73.296-5.452.357-.855.431-1.835.14-2.795-.662-2.186-3.018-3.385-5.213-2.756l-6.034 1.729c-2.199.63-3.578 2.971-2.944 5.17.321 1.111 1.065 1.983 2.007 2.493 2.045 1.107 3.608 2.929 4.207 5.176l.168.631c.592 2.22-.317 4.587-2.273 5.792a26.91 26.91 0 0 0-4.406 3.386c-1.664 1.577-4.148 1.913-6.152.801l-3.894-2.161c-1.972-1.094-3.398-2.92-4.127-5.054a4.5 4.5 0 0 0-2.081-2.487c-2.18-1.21-4.929-.423-6.138 1.758l-3.424 6.176a4.52 4.52 0 0 0 1.758 6.14c1.018.565 2.16.695 3.211.45 2.196-.511 4.5-.267 6.472.828l3.894 2.161c1.979 1.098 3.05 3.351 2.594 5.569-.315 1.529-.494 3.07-.541 4.607-.07 2.3-1.651 4.277-3.873 4.87l-1.109.296c-2.088.557-4.334.395-6.248-.608a4.13 4.13 0 0 0-2.991-.332 4.15 4.15 0 0 0-2.939 5.079l1.672 6.27a4.15 4.15 0 0 0 5.077 2.94 4.13 4.13 0 0 0 2.428-1.779c1.161-1.823 3.027-3.083 5.115-3.64l1.096-.293c2.219-.592 4.585.318 5.788 2.274.965 1.57 2.095 3.049 3.384 4.409 1.576 1.664 1.911 4.149.799 6.153l-2.228 4.018c-1.067 1.925-2.861 3.299-4.949 3.994a4.5 4.5 0 0 0-2.545 2.137c-1.186 2.192-.307 4.938 1.872 6.148l5.992 3.325c2.179 1.209 4.974.501 6.205-1.666a4.5 4.5 0 0 0 .465-3.29c-.516-2.14-.3-4.39.768-6.314l2.228-4.017c1.098-1.981 3.352-3.052 5.569-2.594a26.91 26.91 0 0 0 4.607.543c2.298.071 4.273 1.651 4.866 3.874l.559 2.095c.481 1.803.422 3.73-.296 5.452-.357.855-.431 1.835-.14 2.794.662 2.187 3.018 3.385 5.214 2.756l6.034-1.729c2.199-.629 3.579-2.971 2.944-5.169a4.13 4.13 0 0 0-2.008-2.493c-2.177-1.178-3.702-3.284-4.34-5.676l-.035-.132c-.592-2.22.317-4.587 2.273-5.792 1.568-.966 3.046-2.097 4.406-3.387 1.663-1.577 4.148-1.913 6.152-.801l3.894 2.161c1.972 1.094 3.398 2.92 4.127 5.055a4.5 4.5 0 0 0 2.081 2.486c2.181 1.21 4.929.423 6.138-1.758l3.425-6.176c1.21-2.181.423-4.93-1.758-6.14h0z" fill="#e2e5f1"/><path d="M125.674 97.494a4.49 4.49 0 0 0-3.21-.45c-2.197.511-4.5.267-6.472-.828l-3.894-2.161c-1.979-1.098-3.05-3.352-2.593-5.569.315-1.529.493-3.07.54-4.607.071-2.3 1.651-4.277 3.873-4.87l1.115-.297c2.085-.557 4.329-.394 6.241.608a4.13 4.13 0 0 0 3.016.327c2.216-.605 3.482-2.945 2.89-5.165l-1.647-6.177a4.15 4.15 0 0 0-5.078-2.94 4.13 4.13 0 0 0-2.427 1.779c-1.161 1.823-3.028 3.083-5.116 3.64l-1.096.293c-2.219.592-4.584-.317-5.788-2.274-.965-1.569-2.095-3.049-3.383-4.409-1.576-1.664-1.911-4.149-.8-6.153l2.161-3.895c1.093-1.973 2.918-3.399 5.052-4.129a4.5 4.5 0 0 0 2.486-2.082 4.52 4.52 0 0 0-1.758-6.14l-6.174-3.426c-2.18-1.21-4.929-.423-6.138 1.758a4.5 4.5 0 0 0-.45 3.212c.511 2.197.267 4.501-.827 6.474l-1.732 3.123c-.039.935-.136 1.65-.318 1.978l-1.826 3.293c-.94 1.694-.656 3.794.676 5.201 1.089 1.15 1.927 2.48 2.86 3.727 3.397 4.543 3.455 10.801 3.396 12.745-.04 1.299-.208 2.599-.457 3.894-.899 4.682-2.264 8.145-6.669 11.987-1.193 1.041-2.399 2.046-3.724 2.863-1.654 1.018-6.303 3.683-12.738 3.397-1.299-.057-2.602-.192-3.895-.459-1.874-.387-3.779.519-4.707 2.193l-1.883 3.396c-.179.321-.732.779-1.503 1.306l-1.748 3.153c-1.068 1.925-2.861 3.299-4.949 3.994a4.5 4.5 0 0 0-2.545 2.137c-1.186 2.192-.307 4.938 1.872 6.147l5.992 3.326c2.179 1.209 4.974.501 6.205-1.666a4.5 4.5 0 0 0 .465-3.29c-.516-2.14-.3-4.39.768-6.315l2.228-4.017c1.098-1.98 3.352-3.052 5.569-2.594a26.81 26.81 0 0 0 4.607.543c2.298.072 4.273 1.652 4.866 3.875l.559 2.095c.481 1.803.422 3.73-.296 5.452-.357.855-.431 1.834-.14 2.794.662 2.186 3.018 3.385 5.213 2.756l6.034-1.729c2.199-.63 3.578-2.971 2.943-5.17-.32-1.11-1.065-1.983-2.007-2.493-2.177-1.178-3.702-3.283-4.34-5.675l-.035-.133c-.592-2.22.317-4.587 2.273-5.792 1.568-.965 3.047-2.097 4.406-3.386 1.664-1.577 4.148-1.913 6.153-.801l3.893 2.161c1.972 1.094 3.399 2.92 4.128 5.054.349 1.022 1.063 1.922 2.081 2.487 2.18 1.21 4.928.423 6.138-1.759l3.425-6.176c1.21-2.181.423-4.93-1.758-6.14h0z" fill="#080032" fill-opacity=".1"/><path d="M83.744 80.378c3.385-2.585 4.033-7.426 1.449-10.811a7.71 7.71 0 0 0-10.808-1.45c-3.385 2.585-4.034 7.426-1.449 10.811a7.71 7.71 0 0 0 10.808 1.45zm5.508 18.784a4.47 4.47 0 1 0-2.459-8.596 4.47 4.47 0 1 0 2.459 8.596z" fill="#6366f1"/><path d="M65.398 84.61c-.021 0-.042 0-.063-.001-1.178-.034-2.105-1.017-2.071-2.195l.094-1.441c.119-1.173 1.169-2.025 2.339-1.907s2.026 1.167 1.907 2.34l-.073 1.133c-.034 1.157-.982 2.072-2.132 2.072h0zm4.384 12.158a2.13 2.13 0 0 1-1.605-.728 19.78 19.78 0 0 1-3.516-5.76c-.434-1.096.102-2.336 1.197-2.771s2.336.102 2.77 1.197c.659 1.663 1.587 3.183 2.758 4.519.777.886.688 2.235-.198 3.012a2.13 2.13 0 0 1-1.406.53h0z" fill="#fff"/><path d="M94.361 76.416a1.28 1.28 0 0 1-1.28-1.281V72.56a1.28 1.28 0 1 1 2.561 0v2.575a1.28 1.28 0 0 1-1.28 1.281zm7.292 4.263a1.28 1.28 0 0 1-1.28-1.281v-2.575a1.28 1.28 0 1 1 2.56 0v2.575a1.28 1.28 0 0 1-1.28 1.281zm-4.267 6.828a1.28 1.28 0 0 1-1.28-1.281v-2.575a1.28 1.28 0 1 1 2.56 0v2.575a1.28 1.28 0 0 1-1.28 1.281z" fill="#6366f1"/></svg>