<?xml version="1.0" standalone="no"?>
<!DOCTYPE svg PUBLIC "-//W3C//DTD SVG 20010904//EN"
 "http://www.w3.org/TR/2001/REC-SVG-20010904/DTD/svg10.dtd">
<svg version="1.0" xmlns="http://www.w3.org/2000/svg"
 width="512.000000pt" height="512.000000pt" viewBox="0 0 512.000000 512.000000"
 preserveAspectRatio="xMidYMid meet">
<metadata>
Created by potrace 1.14, written by Peter Selinger 2001-2017
</metadata>
<g transform="translate(0.000000,512.000000) scale(0.100000,-0.100000)"
fill="#000000" stroke="none">
<path d="M1490 4284 c-553 -360 -1011 -658 -1018 -662 -15 -9 -454 -1540 -449
-1563 3 -12 1254 -1535 1311 -1596 7 -8 387 -64 1006 -147 547 -74 1009 -136
1027 -138 30 -3 48 16 438 457 224 253 500 565 614 693 113 129 218 250 233
270 19 26 89 234 244 719 l217 683 -244 496 c-134 272 -248 499 -254 504 -20
17 -2071 933 -2095 936 -19 3 -264 -152 -1030 -652z m1928 -736 l-3 -323 -67
-3 -68 -3 -2 261 -3 260 -35 -23 c-19 -13 -52 -33 -72 -46 l-38 -23 0 64 0 63
73 47 c69 45 75 47 145 47 l72 1 -2 -322z m582 112 l0 -210 40 0 40 0 0 -54 0
-55 -37 -3 -38 -3 -3 -57 -3 -58 -64 0 -65 0 0 60 0 60 -155 0 -155 0 0 56 c0
55 3 61 133 265 l132 209 88 0 87 0 0 -210z m-1625 -220 c185 -21 329 -83 436
-191 94 -93 148 -213 149 -327 l0 -42 -186 2 -185 3 -18 53 c-22 65 -67 113
-135 144 -44 20 -67 23 -171 23 -105 0 -126 -3 -167 -24 -118 -58 -157 -172
-93 -271 38 -60 120 -95 360 -155 261 -64 369 -112 468 -205 240 -224 202
-610 -78 -796 -59 -39 -159 -78 -259 -101 -98 -22 -363 -22 -464 0 -306 69
-486 254 -509 525 l-6 72 190 0 190 0 12 -54 c32 -143 159 -226 346 -226 111
0 175 15 232 53 150 101 133 265 -36 341 -33 14 -154 51 -269 81 -115 29 -239
66 -276 81 -144 57 -244 145 -299 262 -28 60 -32 78 -35 179 -4 95 -1 121 18
177 71 215 288 368 560 395 121 12 125 12 225 1z m1173 -1232 l2 -648 -180 0
-180 0 0 643 c0 354 3 647 7 651 4 3 84 5 177 4 l171 -3 3 -647z"/>
<path d="M3783 3584 l-82 -129 81 -3 c44 -2 82 -1 85 1 2 2 2 62 1 133 l-3
128 -82 -130z"/>
</g>
</svg>
