<?xml version="1.0" encoding="utf-8"?>
<!-- Generator: Adobe Illustrator 23.0.1, SVG Export Plug-In . SVG Version: 6.00 Build 0)  -->
<svg version="1.1" id="Layer_1" xmlns="http://www.w3.org/2000/svg" xmlns:xlink="http://www.w3.org/1999/xlink" x="0px" y="0px"
	 viewBox="0 0 2 655.9" style="enable-background:new 0 0 2 655.9;" xml:space="preserve">
<style type="text/css">
	.st0{opacity:0.15;fill-rule:evenodd;clip-rule:evenodd;fill:#FFFFFF;enable-background:new    ;}
	.st1{opacity:0.15;}
	.st2{fill:#FFFFFF;}
</style>
<g>
	<path class="st0" d="M2,335.1V354H0l0-18.9H2z M2,368.6v18.9H0l0-18.9H2z M2,402.1v18.9H0l0-18.9H2z M2,435.7v18.9H0l0-18.9H2z
		 M2,469.2v18.9H0l0-18.9H2z M2,502.8v18.9H0l0-18.9H2z M2,536.3v18.9H0l0-18.9H2z M2,569.9v18.9H0l0-18.9H2z M2,603.4l0,18.9H0
		l0-18.9H2z M2,637v9.5v9.5H0L0,637H2z"/>
	<g class="st1">
		<path class="st2" d="M2,18.9H0L0,0h2V18.9z"/>
		<path class="st2" d="M2,52.5H0l0-18.9h2V52.5z"/>
		<path class="st2" d="M2,86H0l0-18.9h2V86z"/>
		<path class="st2" d="M2,119.6H0l0-18.9h2V119.6z"/>
		<path class="st2" d="M2,153.1H0l0-18.9h2V153.1z"/>
		<path class="st2" d="M2,186.7H0l0-18.9h2V186.7z"/>
		<path class="st2" d="M2,220.2H0l0-18.9h2V220.2z"/>
		<path class="st2" d="M2,253.8H0l0-18.9h2V253.8z"/>
		<path class="st2" d="M2,287.3H0l0-18.9h2L2,287.3z"/>
		<path class="st2" d="M2,320.8H0l0-18.9h2v9.5V320.8z"/>
	</g>
</g>
</svg>
