<?xml version="1.0" standalone="no"?>
<!DOCTYPE svg PUBLIC "-//W3C//DTD SVG 20010904//EN"
 "http://www.w3.org/TR/2001/REC-SVG-20010904/DTD/svg10.dtd">
<svg version="1.0" xmlns="http://www.w3.org/2000/svg"
 width="512.000000pt" height="512.000000pt" viewBox="0 0 512.000000 512.000000"
 preserveAspectRatio="xMidYMid meet">
<metadata>
Created by potrace 1.11, written by Peter Selinger 2001-2013
</metadata>
<g transform="translate(0.000000,512.000000) scale(0.100000,-0.100000)"
fill="#000000" stroke="none">
<path d="M2400 5054 c-534 -48 -995 -228 -1390 -542 -118 -94 -313 -289 -400
-400 -274 -351 -448 -755 -517 -1202 -22 -144 -25 -527 -5 -670 43 -301 122
-553 259 -823 283 -556 783 -998 1373 -1210 256 -93 488 -136 776 -144 221 -7
363 5 574 47 707 141 1323 591 1685 1230 273 482 376 1100 275 1657 -194 1071
-1039 1883 -2122 2038 -102 15 -422 27 -508 19z m430 -1129 c518 -103 915
-513 1006 -1039 12 -67 15 -131 11 -246 -5 -177 -29 -288 -99 -462 l-40 -100
265 -267 c281 -284 298 -305 319 -420 29 -153 -56 -327 -192 -396 -69 -35
-154 -49 -222 -36 -112 20 -145 46 -430 328 l-266 265 -104 -40 c-188 -74
-327 -102 -497 -102 -336 0 -648 129 -892 369 -268 264 -404 635 -369 1006 56
605 504 1072 1105 1154 91 13 309 5 405 -14z"/>
<path d="M2489 3639 c-275 -23 -543 -180 -699 -409 -56 -83 -107 -189 -137
-287 -24 -80 -26 -103 -27 -258 -1 -147 2 -181 22 -253 92 -339 354 -600 691
-690 133 -35 343 -37 475 -4 280 70 510 256 636 516 79 160 94 230 94 426 -1
192 -16 263 -87 414 -177 371 -547 580 -968 545z"/>
</g>
</svg>
