<svg xmlns="http://www.w3.org/2000/svg" width="116" height="32" fill="none"  xmlns:v="https://vecta.io/nano"><path d="M42.013 24.396a1.09 1.09 0 0 1-.31-.791V8.224c0-.3.103-.585.3-.826s.482-.344.8-.344h9.772a1.01 1.01 0 0 1 .757.31 1.01 1.01 0 0 1 .31.757 1.01 1.01 0 0 1-.31.757 1.01 1.01 0 0 1-.757.31h-8.602v5.54h7.708a1.01 1.01 0 0 1 .757.31 1.01 1.01 0 0 1 .31.757 1.01 1.01 0 0 1-.31.757 1.01 1.01 0 0 1-.757.31h-7.708v6.7c0 .3-.103.585-.344.8a1.17 1.17 0 0 1-.826.31c-.344 0-.585-.07-.8-.275zM56.36 8.8a1.25 1.25 0 0 1-.379-.895V7.8a1.25 1.25 0 0 1 .379-.895 1.25 1.25 0 0 1 .895-.378h.138a1.25 1.25 0 0 1 .895.378 1.25 1.25 0 0 1 .379.895v.103a1.25 1.25 0 0 1-.379.895 1.25 1.25 0 0 1-.895.378h-.138c-.344 0-.62-.138-.895-.378zm.172 15.587a1.09 1.09 0 0 1-.31-.791v-10.77c0-.3.103-.585.3-.826s.482-.344.8-.344c.344 0 .62.103.826.3s.3.482.3.826v10.77c0 .3-.103.585-.344.8a1.17 1.17 0 0 1-.826.31c-.275.034-.55-.07-.757-.275zm6.228-.001a1.09 1.09 0 0 1-.31-.791v-10.77c0-.3.103-.585.3-.826s.482-.344.8-.344a1.12 1.12 0 0 1 .826.344c.24.24.344.482.344.826v1.032c.62-.688 1.308-1.273 2.064-1.686.723-.413 1.617-.62 2.615-.62.93 0 1.72.206 2.4.654s1.204 1.032 1.548 1.8.55 1.583.55 2.477v7.123c0 .3-.103.585-.344.8a1.17 1.17 0 0 1-.826.31 1.09 1.09 0 0 1-1.101-1.101v-6.882c0-2.03-.93-3.062-2.753-3.062-.826 0-1.583.207-2.237.654s-1.273 1.032-1.858 1.755v7.535c0 .3-.103.585-.344.8a1.17 1.17 0 0 1-.826.31c-.378 0-.62-.103-.86-.3zm17.3-.346c-.93-.516-1.686-1.308-2.27-2.305s-.86-2.202-.86-3.544.275-2.546.86-3.544 1.342-1.8 2.27-2.305 1.927-.8 2.96-.8c1.652 0 3.062.62 4.3 1.893v-6.16c0-.344.103-.62.344-.826a1.17 1.17 0 0 1 .826-.31c.3 0 .585.103.8.344a1.17 1.17 0 0 1 .31.826v16.275a1.09 1.09 0 0 1-1.101 1.101c-.3 0-.585-.103-.826-.3s-.344-.482-.344-.8v-.654c-1.204 1.273-2.65 1.893-4.3 1.893-1.067 0-2.03-.275-2.96-.8zm5.436-1.858c.688-.344 1.273-.8 1.8-1.376v-5.264c-.516-.585-1.1-1.032-1.8-1.376a4.79 4.79 0 0 0-2.168-.516c-1.24 0-2.237.38-2.994 1.17s-1.135 1.893-1.135 3.338.38 2.546 1.135 3.338 1.755 1.17 2.994 1.17c.757.034 1.48-.138 2.168-.482zm8.98.896c-1.136-1.17-1.72-2.787-1.72-4.886 0-1.17.206-2.27.654-3.27s1.1-1.824 1.996-2.443 2.03-.93 3.338-.93c1.24 0 2.306.275 3.2.86s1.583 1.342 2.065 2.305.688 1.996.688 3.13c0 .3-.103.585-.3.8s-.48.3-.826.3h-8.5c.138 1.17.585 2.065 1.308 2.718s1.755.963 3.097.963c.688 0 1.307-.07 1.858-.206.516-.138 1.032-.3 1.548-.585a.94.94 0 0 1 .448-.103.96.96 0 0 1 .688.275c.206.172.3.413.3.688 0 .378-.206.688-.653.93-.654.378-1.308.654-1.927.826s-1.445.275-2.443.275c-2.1.103-3.682-.482-4.817-1.652zm7.982-5.953c-.034-.826-.275-1.514-.653-2.065s-.826-.963-1.377-1.204c-.55-.275-1.1-.378-1.686-.378s-1.136.138-1.686.378c-.55.275-.998.654-1.376 1.204s-.585 1.24-.62 2.065h7.398zm5.61 7.26c-.206-.207-.3-.482-.3-.8v-10.77a1.25 1.25 0 0 1 .31-.826c.207-.24.482-.344.792-.344s.585.103.825.344a1.07 1.07 0 0 1 .345.826V13.9c1.17-1.583 2.477-2.374 3.922-2.374h.138a1.09 1.09 0 0 1 .791.31c.207.207.3.482.3.8s-.103.585-.3.8-.482.3-.826.3h-.172a4.39 4.39 0 0 0-2.202.585c-.654.378-1.24.93-1.686 1.617v7.64c0 .3-.103.585-.344.8a1.17 1.17 0 0 1-.826.31c-.275.034-.55-.07-.757-.275z" fill="#fff"/><path d="M16 32c8.837 0 16-7.163 16-16S24.837 0 16 0 0 7.163 0 16s7.163 16 16 16z" fill="#fd5631"/><path opacity=".55" d="M31.656 19.303l-9.67-9.67a8.1 8.1 0 0 0-11.458 0l-.034.034a8.1 8.1 0 0 0 0 11.458L20.68 31.312c5.505-1.686 9.772-6.297 10.976-12.01z" fill="#be1e2d"/><path d="M26.392 22.194l-3.166-3.166c.585-1.135.963-2.477.963-3.82 0-4.473-3.613-8.12-8.12-8.12s-8.086 3.647-8.086 8.155a8.09 8.09 0 0 0 8.12 8.121c1.342 0 2.684-.38 3.82-.963l3.166 3.166c.963.963 2.374.963 3.338 0 .826-.963.826-2.41-.034-3.372zm-10.288-.757c-3.44 0-6.194-2.753-6.194-6.194s2.753-6.194 6.194-6.194 6.194 2.753 6.194 6.194-2.753 6.194-6.194 6.194z" fill="#fff"/></svg>