<?xml version="1.0" encoding="utf-8"?>
<!-- Generator: Adobe Illustrator 23.0.1, SVG Export Plug-In . SVG Version: 6.00 Build 0)  -->
<svg version="1.1" id="Layer_1" xmlns:v="https://vecta.io/nano"
	 xmlns="http://www.w3.org/2000/svg" xmlns:xlink="http://www.w3.org/1999/xlink" x="0px" y="0px" viewBox="0 0 116 32"
	 style="enable-background:new 0 0 116 32;" xml:space="preserve">
<style type="text/css">
	.st0{fill:#201D2D;}
	.st1{fill:#FD5631;}
	.st2{opacity:0.55;fill:#BE1E2D;enable-background:new    ;}
	.st3{fill:#FFFFFF;}
</style>
<path class="st0" d="M42,24.4c-0.2-0.2-0.3-0.5-0.3-0.8V8.2c0-0.3,0.1-0.6,0.3-0.8s0.5-0.3,0.8-0.3h9.8c0.3,0,0.6,0.1,0.8,0.3
	c0.2,0.2,0.3,0.5,0.3,0.8c0,0.3-0.1,0.6-0.3,0.8c-0.2,0.2-0.5,0.3-0.8,0.3H44v5.5h7.7c0.3,0,0.6,0.1,0.8,0.3
	c0.2,0.2,0.3,0.5,0.3,0.8c0,0.3-0.1,0.6-0.3,0.8c-0.2,0.2-0.5,0.3-0.8,0.3H44v6.7c0,0.3-0.1,0.6-0.3,0.8c-0.2,0.2-0.5,0.3-0.8,0.3
	C42.5,24.7,42.2,24.6,42,24.4L42,24.4z M56.4,8.8C56.1,8.6,56,8.2,56,7.9V7.8c0-0.3,0.1-0.7,0.4-0.9c0.2-0.2,0.6-0.4,0.9-0.4h0.1
	c0.3,0,0.7,0.1,0.9,0.4c0.2,0.2,0.4,0.6,0.4,0.9v0.1c0,0.3-0.1,0.7-0.4,0.9c-0.2,0.2-0.6,0.4-0.9,0.4h-0.1C56.9,9.2,56.6,9,56.4,8.8
	L56.4,8.8z M56.5,24.4c-0.2-0.2-0.3-0.5-0.3-0.8V12.8c0-0.3,0.1-0.6,0.3-0.8s0.5-0.3,0.8-0.3c0.3,0,0.6,0.1,0.8,0.3s0.3,0.5,0.3,0.8
	v10.8c0,0.3-0.1,0.6-0.3,0.8c-0.2,0.2-0.5,0.3-0.8,0.3C57,24.7,56.7,24.6,56.5,24.4L56.5,24.4z M62.8,24.4c-0.2-0.2-0.3-0.5-0.3-0.8
	V12.8c0-0.3,0.1-0.6,0.3-0.8s0.5-0.3,0.8-0.3c0.3,0,0.6,0.1,0.8,0.3c0.2,0.2,0.3,0.5,0.3,0.8v1c0.6-0.7,1.3-1.3,2.1-1.7
	c0.7-0.4,1.6-0.6,2.6-0.6c0.9,0,1.7,0.2,2.4,0.7s1.2,1,1.5,1.8s0.6,1.6,0.6,2.5v7.1c0,0.3-0.1,0.6-0.3,0.8c-0.2,0.2-0.5,0.3-0.8,0.3
	c-0.6,0-1.1-0.5-1.1-1.1c0,0,0,0,0,0v-6.9c0-2-0.9-3.1-2.8-3.1c-0.8,0-1.6,0.2-2.2,0.7s-1.3,1-1.9,1.8v7.5c0,0.3-0.1,0.6-0.3,0.8
	c-0.2,0.2-0.5,0.3-0.8,0.3C63.2,24.7,63,24.6,62.8,24.4L62.8,24.4z M80.1,24c-0.9-0.5-1.7-1.3-2.3-2.3s-0.9-2.2-0.9-3.5
	s0.3-2.5,0.9-3.5s1.3-1.8,2.3-2.3s1.9-0.8,3-0.8c1.7,0,3.1,0.6,4.3,1.9V7.3c0-0.3,0.1-0.6,0.3-0.8c0.2-0.2,0.5-0.3,0.8-0.3
	c0.3,0,0.6,0.1,0.8,0.3c0.2,0.2,0.3,0.5,0.3,0.8v16.3c0,0.6-0.5,1.1-1.1,1.1c0,0,0,0,0,0c-0.3,0-0.6-0.1-0.8-0.3s-0.3-0.5-0.3-0.8
	v-0.7c-1.2,1.3-2.7,1.9-4.3,1.9C82,24.8,81,24.5,80.1,24L80.1,24z M85.5,22.2c0.7-0.3,1.3-0.8,1.8-1.4v-5.3c-0.5-0.6-1.1-1-1.8-1.4
	c-0.7-0.3-1.4-0.5-2.2-0.5c-1.2,0-2.2,0.4-3,1.2s-1.1,1.9-1.1,3.3s0.4,2.5,1.1,3.3s1.8,1.2,3,1.2C84.1,22.7,84.8,22.5,85.5,22.2
	L85.5,22.2z M94.5,23.1c-1.1-1.2-1.7-2.8-1.7-4.9c0-1.2,0.2-2.3,0.7-3.3s1.1-1.8,2-2.4s2-0.9,3.3-0.9c1.2,0,2.3,0.3,3.2,0.9
	s1.6,1.3,2.1,2.3s0.7,2,0.7,3.1c0,0.3-0.1,0.6-0.3,0.8s-0.5,0.3-0.8,0.3h-8.5c0.1,1.2,0.6,2.1,1.3,2.7s1.8,1,3.1,1
	c0.7,0,1.3-0.1,1.9-0.2c0.5-0.1,1-0.3,1.5-0.6c0.1-0.1,0.3-0.1,0.4-0.1c0.3,0,0.5,0.1,0.7,0.3c0.2,0.2,0.3,0.4,0.3,0.7
	c0,0.4-0.2,0.7-0.7,0.9c-0.7,0.4-1.3,0.7-1.9,0.8s-1.4,0.3-2.4,0.3C97.2,24.8,95.6,24.2,94.5,23.1L94.5,23.1z M102.5,17.1
	c0-0.8-0.3-1.5-0.7-2.1s-0.8-1-1.4-1.2c-0.6-0.3-1.1-0.4-1.7-0.4s-1.1,0.1-1.7,0.4c-0.6,0.3-1,0.7-1.4,1.2s-0.6,1.2-0.6,2.1
	C95.1,17.1,102.5,17.1,102.5,17.1z M108.1,24.4c-0.2-0.2-0.3-0.5-0.3-0.8V12.8c0-0.3,0.1-0.6,0.3-0.8c0.2-0.2,0.5-0.3,0.8-0.3
	s0.6,0.1,0.8,0.3c0.2,0.2,0.4,0.5,0.3,0.8v1.1c1.2-1.6,2.5-2.4,3.9-2.4h0.1c0.3,0,0.6,0.1,0.8,0.3c0.2,0.2,0.3,0.5,0.3,0.8
	s-0.1,0.6-0.3,0.8s-0.5,0.3-0.8,0.3h-0.2c-0.8,0-1.5,0.2-2.2,0.6c-0.7,0.4-1.2,0.9-1.7,1.6v7.6c0,0.3-0.1,0.6-0.3,0.8
	c-0.2,0.2-0.5,0.3-0.8,0.3C108.6,24.7,108.3,24.6,108.1,24.4L108.1,24.4z"/>
<path class="st1" d="M16,32c8.8,0,16-7.2,16-16S24.8,0,16,0S0,7.2,0,16S7.2,32,16,32z"/>
<path class="st2" d="M31.7,19.3L22,9.6c-3.2-3.2-8.3-3.2-11.5,0c0,0,0,0,0,0l0,0c-3.2,3.2-3.2,8.3,0,11.5c0,0,0,0,0,0l10.2,10.2
	C26.2,29.6,30.5,25,31.7,19.3L31.7,19.3z"/>
<path class="st3" d="M26.4,22.2L23.2,19c0.6-1.1,1-2.5,1-3.8c0-4.5-3.6-8.1-8.1-8.1S8,10.7,8,15.2c0,4.5,3.6,8.1,8.1,8.1
	c0,0,0,0,0.1,0c1.3,0,2.7-0.4,3.8-1l3.2,3.2c1,1,2.4,1,3.3,0C27.3,24.6,27.3,23.2,26.4,22.2L26.4,22.2z M16.1,21.4
	c-3.4,0-6.2-2.8-6.2-6.2S12.7,9,16.1,9s6.2,2.8,6.2,6.2S19.5,21.4,16.1,21.4z"/>
</svg>
