<?xml version="1.0" encoding="utf-8"?>
<!-- Generator: Adobe Illustrator 23.0.1, SVG Export Plug-In . SVG Version: 6.00 Build 0)  -->
<svg version="1.1" id="Layer_1" xmlns="http://www.w3.org/2000/svg" xmlns:xlink="http://www.w3.org/1999/xlink" x="0px" y="0px"
	 viewBox="0 0 196 80" style="enable-background:new 0 0 196 80;" xml:space="preserve">
<style type="text/css">
	.st0{fill:#117ACA;}
	.st1{fill:#211E1E;}
</style>
<g id="layer1" transform="translate(620.34041,-56.426733)">
	<g id="logotype" transform="translate(0.4494891,0.3945659)">
		<g id="g17202">
			<g id="logo">
				<path id="logo-ne" class="st0" d="M-477.1,85c-0.4,0-0.8,0.4-0.8,0.8v5.5h14.6L-470,85L-477.1,85"/>
				<path id="logo-se" class="st0" d="M-462.8,93c0-0.4-0.3-0.8-0.8-0.8h-5.5v14.6l6.3-6.6L-462.8,93"/>
				<path id="logo-sw" class="st0" d="M-470.8,107.3c0.4,0,0.8-0.4,0.8-0.8V101h-14.6l6.6,6.3L-470.8,107.3"/>
				<path id="logo-nw" class="st0" d="M-485.1,99.4c0,0.4,0.4,0.8,0.8,0.8h5.5V85.6l-6.3,6.6L-485.1,99.4"/>
			</g>
			<g id="type">
				<path id="H" class="st1" d="M-551.9,87.7v6.7h-9.4v-6.7l-3.4,0v17h3.4v-7.3h9.4v7.3h3.4v-17H-551.9"/>
				<path id="E" class="st1" d="M-506.5,87.7v17h15l-1.9-3h-9.7v-4.3h9.4v-2.9h-9.4v-3.9h9.7l1.9-2.9H-506.5"/>
				<path id="C" class="st1" d="M-577.4,87.7c-3.6,0-5.4,2.2-5.4,5.3v6.3c0,3.6,2.3,5.3,5.3,5.3l10.7,0l-2-3.1h-8.1
					c-1.7,0-2.5-0.6-2.5-2.5v-5.8c0-1.9,0.6-2.6,2.5-2.6h8.1l1.9-3H-577.4"/>
				<path id="S" class="st1" d="M-521.5,87.7c-2.1,0-4.2,1.2-4.2,4.4v0.8c0,3.3,2,4.6,4.1,4.6h7.1c0.7,0,1.3,0.1,1.3,1.4l0,1.4
					c0,1.1-0.6,1.4-1.4,1.4h-9.4l-1.9,3h11.5c2.8,0,4.7-1.4,4.7-4.6v-1.2c0-3.1-1.7-4.5-4.5-4.5h-6.8c-0.8,0-1.3-0.2-1.3-1.3v-1.2
					c0-0.9,0.4-1.3,1.2-1.3l8.9,0l1.9-2.9L-521.5,87.7"/>
				<path id="A" class="st1" d="M-538.6,87.7l-8.1,17h3.8l1.6-3.5h8.7l1.6,3.5h3.8l-8.1-17H-538.6z M-536.9,91.2l3.1,7.1h-6.2
					L-536.9,91.2"/>
			</g>
		</g>
	</g>
</g>
</svg>
