<?xml version="1.0" encoding="utf-8"?>
<!-- Generator: Adobe Illustrator 23.0.1, SVG Export Plug-In . SVG Version: 6.00 Build 0)  -->
<svg version="1.1" id="Layer_1" xmlns="http://www.w3.org/2000/svg" xmlns:xlink="http://www.w3.org/1999/xlink" x="0px" y="0px"
	 viewBox="0 0 196 80" style="enable-background:new 0 0 196 80;" xml:space="preserve">
<style type="text/css">
	.st0{fill:#BBB7C5;}
</style>
<path class="st0" d="M143.7,29c-0.2,0-0.4,0.1-0.6,0.2c-0.1,0.1-0.2,0.3-0.2,0.6v5.5h14.6l-6.6-6.3L143.7,29z M158,37
	c0-0.1,0-0.2-0.1-0.3c0-0.1-0.1-0.2-0.2-0.3c-0.1-0.1-0.2-0.1-0.3-0.2c-0.1,0-0.2-0.1-0.3-0.1h-5.5v14.6l6.3-6.6L158,37z M150,51.3
	c0.2,0,0.4-0.1,0.6-0.2c0.1-0.1,0.2-0.3,0.2-0.6V45h-14.6l6.6,6.3L150,51.3z M135.7,43.3c0,0.1,0,0.2,0.1,0.3c0,0.1,0.1,0.2,0.2,0.3
	c0.1,0.1,0.2,0.1,0.3,0.2c0.1,0,0.2,0.1,0.3,0.1h5.5V29.5l-6.3,6.6L135.7,43.3"/>
<path class="st0" d="M68.9,31.7v6.7h-9.4v-6.7l-3.4,0v17h3.4v-7.3h9.4v7.3h3.4v-17H68.9z M114.3,31.7v17l15,0l-1.9-3h-9.7v-4.3h9.4
	v-2.9h-9.4v-3.9h9.7l1.9-2.9H114.3L114.3,31.7z M43.4,31.7c-3.6,0-5.4,2.2-5.4,5.3v6.3c0,3.6,2.3,5.3,5.3,5.3l10.7,0l-2-3.1H44
	c-1.7,0-2.5-0.6-2.5-2.5v-5.8c0-1.9,0.6-2.6,2.5-2.6h8.1l1.9-3L43.4,31.7L43.4,31.7z M99.3,31.7c-2.1,0-4.2,1.2-4.2,4.4v0.8
	c0,3.3,2,4.6,4,4.6h7.1c0.7,0,1.3,0.1,1.3,1.4v1.4c0,1.1-0.6,1.4-1.4,1.4h-9.4l-1.9,3h11.5c2.8,0,4.7-1.4,4.7-4.6v-1.2
	c0-3.1-1.7-4.5-4.5-4.5h-6.8c-0.8,0-1.3-0.2-1.3-1.3l0-1.2c0-0.9,0.4-1.3,1.2-1.3l8.9,0l1.9-2.9L99.3,31.7L99.3,31.7z M82.2,31.7
	l-8.1,17H78l1.6-3.5h8.7l1.6,3.5h3.8l-8.1-17L82.2,31.7L82.2,31.7z M83.9,35.2l3.1,7.1h-6.2L83.9,35.2z"/>
</svg>
