<?xml version="1.0" encoding="utf-8"?>
<!-- Generator: Adobe Illustrator 23.0.1, SVG Export Plug-In . SVG Version: 6.00 Build 0)  -->
<svg version="1.1" id="Layer_1" xmlns="http://www.w3.org/2000/svg" xmlns:xlink="http://www.w3.org/1999/xlink" x="0px" y="0px"
	 viewBox="0 0 196 80" style="enable-background:new 0 0 196 80;" xml:space="preserve">
<style type="text/css">
	.st0{fill:#BBB7C5;}
</style>
<g id="g10" transform="matrix(1.3333333,0,0,-1.3333333,-435.12799,222.70399)">
	<g id="g3716">
		<g id="g12">
			<g>
				<g id="g14">
					<g id="g28" transform="translate(472.755,111.922)">
						<path id="path30" class="st0" d="M-54.7,16.4c-0.3,0-1.4,0-1.8,0.1c-1,0.2-1.7,0.7-1.7,1.9v6.5h3.9c-0.6-1.3-1-2.7-1-4.2
							c0-1.5,0.4-2.9,1-4.2C-54.5,16.5-54.7,16.4-54.7,16.4 M-29.2,16.4c-0.3,0-1.4,0-1.8,0.1c-1,0.2-1.7,0.7-1.7,1.9v16.2h-5.4
							v-8.1c-1.8,2.3-4.5,3.7-7.6,3.7c-3.3,0-6.2-1.7-8-4.2v3.5h-4.6v5h-5.4V18c0-4.5,2.6-6.2,7.4-6.2c1.1,0,1.9,0,2.6,0.2v3.4
							c1.7-2.5,4.7-4.2,8-4.2c2.4,0,4.7,0.9,6.4,2.4l-3,4.2c-0.8-0.9-2.1-1.6-3.4-1.6c-2.5,0-4.5,2-4.5,4.6c0,2.5,2,4.6,4.5,4.6
							c0.8,0,1.5-0.2,2.2-0.6l-4.7-3.3l2.4-3.3l7.7,5.3V18c0-4.5,2.6-6.2,7.4-6.2c1.1,0,1.9,0,2.6,0.2v4.7
							C-28.4,16.5-29,16.4-29.2,16.4"/>
					</g>
					<g id="g32" transform="translate(449.214,126.982)">
						<path id="path34" class="st0" d="M-41.3,7.9c0,4-3.3,7.3-7.3,7.3h0c-3.1,0-5.8-1.9-6.8-4.7c-1.7,2.8-4.7,4.7-8.2,4.7
							c-2.5,0-4.8-1-6.6-2.6c0,0.2,0,0.4,0,0.5c0,6.6-5.4,12-12,12c-6.6,0-12-5.4-12-12V-3.3h6.3v16.5c0,3.2,2.6,5.8,5.7,5.8
							c3.2,0,5.7-2.5,5.7-5.8c0-3.2-2.5-5.7-5.7-5.7c-1.8,0-3.4,0.8-4.5,2.1V2c1.4-0.6,2.9-0.9,4.5-0.9c2.6,0,5,0.8,7,2.2v0
							c0.7,0.5,1.4,1.1,2,1.8c0.2-5.1,4.4-9.2,9.6-9.2c2.4,0,4.7,0.9,6.4,2.4l-3,4.2c-0.8-0.9-2-1.5-3.4-1.5c-2.5,0-4.5,2-4.5,4.5
							c0,2.5,2,4.5,4.5,4.5c0.8,0,1.5-0.2,2.2-0.6l-4.7-3.3l2.4-3.3l7.9,5.5c0-0.2,0-0.4,0-0.5v0c0-0.1,0-0.2,0-0.2V-3.3h5.4V8.3
							c0,1.5,1.2,2,1.9,2c0.7,0,1.9-0.5,1.9-2V-3.3h5.4V7.6C-41.3,7.7-41.3,7.8-41.3,7.9L-41.3,7.9"/>
					</g>
				</g>
			</g>
		</g>
	</g>
</g>
</svg>
