<?xml version="1.0" encoding="utf-8"?>
<!-- Generator: Adobe Illustrator 23.0.1, SVG Export Plug-In . SVG Version: 6.00 Build 0)  -->
<svg version="1.1" id="Layer_1" xmlns="http://www.w3.org/2000/svg" xmlns:xlink="http://www.w3.org/1999/xlink" x="0px" y="0px"
	 viewBox="0 0 196 80" style="enable-background:new 0 0 196 80;" xml:space="preserve">
<style type="text/css">
	.st0{fill-rule:evenodd;clip-rule:evenodd;fill:#BBB7C5;}
</style>
<path class="st0" d="M59.1,20l10,10.1l-10,10L49.1,30L59.1,20z M48,31.2l10,10.1l-10,10L38,41.2L48,31.2z M70.1,31l10,10.1l-10,10
	l-10-10.1L70.1,31z"/>
<path class="st0" d="M99.8,49.7l-3.4-8.1c2.2-1,3.3-2.5,3.3-4.9c0-1.8-0.7-3.5-2.3-4.5c-1.4-0.9-3.2-1.1-4.8-1.1h-9.5v18.7h5.8v-7.1
	h1.8l2.7,7.1L99.8,49.7L99.8,49.7z M88.9,38.6V35h2.3c0.5,0,1.1,0,1.6,0.2c0.6,0.3,0.9,0.9,0.9,1.5c0,1.6-1.5,1.8-2.7,1.8L88.9,38.6
	L88.9,38.6z M134.3,49.7h5.8l-5.8-18.7h-6l-5.8,18.7h4.7l1.1-3.7h5L134.3,49.7z M129.2,42l1.5-5.4l1.5,5.4H129.2z M158,45.2h-7.3
	V31.1h-5.8v18.7H158V45.2z M118.6,45.3h-8.4v-3h6.8v-4.2h-6.8v-2.7h8.4v-4.3h-14v18.7h14V45.3z"/>
<path class="st0" d="M52.2,53.4c0-3.9,3.2-7.1,7.1-7.1c3.9,0,7.1,3.2,7.1,7.1c0,3.9-3.2,7.1-7.1,7.1C55.4,60.5,52.2,57.3,52.2,53.4z
	"/>
<path class="st0" d="M146.6,53.7c0.7,0.5,1.1,1.2,1.1,2.1c0,0.9-0.4,1.7-1.3,2.3c-1,0.7-2.4,1.1-4.2,1.1c-1.7,0-3-0.3-4-0.9
	c-0.9-0.6-1.3-1.4-1.3-2.3c0-0.8,0.4-1.5,1.1-2.1c1-0.8,2.4-1.1,4.2-1.1C144.2,52.6,145.6,53,146.6,53.7z M131.5,55.6
	c0.7,0,1.3-0.1,1.7-0.2c0.4-0.2,0.6-0.4,0.6-0.8c0-0.4-0.3-0.7-0.9-0.9c-0.3-0.1-0.7-0.1-1.2-0.1h-3.6v2.1L131.5,55.6L131.5,55.6z
	 M145.3,57.6c0.6-0.5,0.9-1.1,0.9-1.8c0-0.7-0.3-1.3-1-1.7c-0.7-0.4-1.6-0.7-2.8-0.7c-1.1,0-2.1,0.2-2.8,0.7
	c-0.7,0.4-1.1,1.1-1.1,1.9c0,0.7,0.3,1.2,0.9,1.7c0.6,0.5,1.6,0.7,3,0.7C143.7,58.4,144.7,58.1,145.3,57.6z M126.6,52.8h5.1
	c0.8,0,1.5,0.1,2.1,0.2c1,0.3,1.6,0.7,1.6,1.4c0,0.4-0.1,0.7-0.4,0.9c-0.3,0.2-0.7,0.4-1.1,0.6c0.4,0.6,2,3,2,3h-1.4
	c0-0.1-1.4-2.1-1.7-2.6c-0.3-0.1-0.5,0-1.1,0h-3.4v2.6h-1.5L126.6,52.8L126.6,52.8z M150.4,57c0,0.3,0.2,0.6,0.4,0.8
	c0.5,0.4,1.4,0.6,2.6,0.6c0.6,0,1.1,0,1.5-0.1c0.9-0.2,1.3-0.5,1.3-0.9c0-0.3-0.2-0.6-0.6-0.7c-0.4-0.1-1-0.3-1.8-0.4l-1.5-0.2
	c-1-0.1-1.7-0.3-2.1-0.4c-0.7-0.3-1.1-0.6-1.1-1.1c0-0.6,0.3-1,1-1.4c0.7-0.4,1.7-0.5,2.9-0.5c1.2,0,2.1,0.2,2.9,0.5
	c0.8,0.3,1.2,0.8,1.2,1.5h-1.4c-0.1-0.3-0.2-0.6-0.5-0.8c-0.5-0.3-1.2-0.5-2.3-0.5c-0.9,0-1.5,0.1-1.9,0.3c-0.4,0.2-0.6,0.4-0.6,0.7
	c0,0.3,0.2,0.5,0.7,0.7c0.3,0.1,1,0.2,2,0.3l1.5,0.2c0.7,0.1,1.3,0.2,1.7,0.4c0.7,0.3,1.1,0.7,1.1,1.2c0,0.7-0.4,1.2-1.3,1.5
	c-0.9,0.3-1.9,0.4-3.1,0.4c-1.4,0-2.4-0.2-3.2-0.6c-0.8-0.4-1.2-0.9-1.1-1.6L150.4,57L150.4,57z M116.9,52.8v3.8
	c0,0.4,0.2,0.8,0.4,1.1c0.4,0.4,1.2,0.7,2.3,0.7c1.3,0,2.1-0.2,2.6-0.7c0.2-0.3,0.4-0.6,0.4-1.1v-3.8h1.5v3.4c0,0.8-0.2,1.3-0.5,1.7
	c-0.7,0.7-1.9,1.1-3.8,1.1c-1.9,0-3.1-0.4-3.8-1.1c-0.4-0.4-0.5-1-0.5-1.7v-3.4L116.9,52.8L116.9,52.8z M110.8,53
	c1.1,0.3,1.8,0.9,2,1.7h-1.5c-0.2-0.4-0.6-0.8-1.1-1c-0.6-0.2-1.3-0.3-2.1-0.3c-1,0-1.9,0.2-2.6,0.6c-0.7,0.4-1,1.1-1,1.9
	c0,0.7,0.3,1.3,0.9,1.8c0.6,0.5,1.5,0.7,2.8,0.7c1,0,1.8-0.2,2.5-0.5c0.7-0.3,1-0.8,1-1.6h-3.5v-0.7h4.8v3.3h-1l-0.4-0.8
	c-0.5,0.3-1,0.5-1.3,0.6c-0.7,0.2-1.5,0.3-2.5,0.3c-1.3,0-2.4-0.2-3.4-0.7c-1-0.6-1.5-1.4-1.5-2.4c0-1,0.5-1.8,1.5-2.4
	c1-0.6,2.2-0.9,3.7-0.9C109.1,52.6,110,52.8,110.8,53z M93.2,52.8h8v0.8h-6.6v1.9h6.1v0.7h-6.1v2.1h6.7v0.7h-8.2V52.8z M83.8,57
	c0,0.3,0.2,0.6,0.4,0.8c0.5,0.4,1.4,0.6,2.6,0.6c0.6,0,1.1,0,1.5-0.1c0.9-0.2,1.3-0.5,1.3-0.9c0-0.3-0.2-0.6-0.6-0.7
	c-0.4-0.1-1-0.3-1.8-0.4l-1.5-0.2c-1-0.1-1.7-0.3-2.1-0.4c-0.7-0.3-1.1-0.6-1.1-1.1c0-0.6,0.3-1,1-1.4c0.7-0.4,1.7-0.5,2.9-0.5
	c1.2,0,2.1,0.2,2.9,0.5c0.8,0.3,1.2,0.8,1.2,1.5h-1.4c-0.1-0.3-0.2-0.6-0.5-0.8c-0.5-0.3-1.2-0.5-2.3-0.5c-0.9,0-1.5,0.1-1.9,0.3
	c-0.4,0.2-0.6,0.4-0.6,0.7c0,0.3,0.2,0.5,0.7,0.7c0.3,0.1,1,0.2,2,0.3l1.5,0.2c0.7,0.1,1.3,0.2,1.7,0.4c0.7,0.3,1.1,0.7,1.1,1.2
	c0,0.7-0.4,1.2-1.3,1.5c-0.9,0.3-1.9,0.4-3.1,0.4c-1.4,0-2.4-0.2-3.2-0.6c-0.8-0.4-1.2-0.9-1.1-1.6L83.8,57L83.8,57z"/>
</svg>
