<?xml version="1.0" encoding="utf-8"?>
<!-- Generator: Adobe Illustrator 23.0.1, SVG Export Plug-In . SVG Version: 6.00 Build 0)  -->
<svg version="1.1" id="Layer_1" xmlns="http://www.w3.org/2000/svg" xmlns:xlink="http://www.w3.org/1999/xlink" x="0px" y="0px"
	 viewBox="0 0 196 80" style="enable-background:new 0 0 196 80;" xml:space="preserve">
<style type="text/css">
	.st0{fill:#BBB7C5;}
</style>
<path class="st0" d="M72.4,34.8c5.5,0,7.6,1.4,7.7,4.8c0,0.7-0.1,1.4-0.3,2.3l-2.4,11.7c-0.4,2.1-0.6,3.6-0.5,4.8h-6.6
	c0-0.1,0-0.1,0-0.2c0-1,0.1-2.5,0.1-2.5H70l-0.1,0.2C68.7,57.8,66,59,63.7,59c-4,0-5.6-2.2-4.7-6.4c0.9-4.4,2.9-6.2,7.9-7.3l3.3-0.8
	c2-0.4,2.9-1.3,3.3-3c0.4-1.8-0.4-2.8-2.1-2.8c-1.8,0-2.7,0.9-3.3,3.2h-5.9C63.7,35.7,69.2,34.8,72.4,34.8z M72.3,46.8
	c0,0-0.1,0.1-0.4,0.2c-0.4,0.2-1.3,0.3-1.9,0.5c-0.4,0.1-0.9,0.2-1.5,0.5c-1.4,0.6-2.2,1.6-2.6,3.5c-0.4,1.9,0.4,3.2,1.9,3.2
	c2.6,0,3.4-2.5,3.8-4.3L72.3,46.8L72.3,46.8l-0.7,3.5L72.3,46.8z M96.1,56.3c-1.4-1.7-1.7-4.4-0.7-9.2c2.1-10.5,6.1-12.3,9.5-12.3
	c1.6,0,4.1,0.6,4.4,3.5l0,0.4h0.5l0.7-3.3h6.4l-4.8,23c-1.1,5.5-4.7,8.2-11.1,8.2c-6,0-6.9-3.5-7-4.6c-0.1-0.4,0.1-1.6,0.1-1.6h6.3
	v0c0,0.6,0,1.4,0.2,1.6c0.3,0.3,0.5,0.7,1.5,0.7c1.3,0,2.6-0.4,3.2-3.4l1.1-5.2h-0.5l-0.1,0.2c-1.3,2.2-3.7,3.3-6.2,3.3
	C98,57.7,96.8,57.3,96.1,56.3z M102.4,46.6c-0.7,3.4-0.7,4.7,0,5.6c0.3,0.4,0.9,0.6,1.6,0.6c2,0,2.9-1.2,3.9-6
	c0.7-3.4,0.8-5.6,0.1-6.5c-0.3-0.4-0.8-0.6-1.5-0.6C104.5,39.7,103.4,41.8,102.4,46.6z M127.3,35.4c-0.2,1.1-4.6,22.2-4.8,23h-7
	l4.8-23H127.3z M140.1,27.8l-6.3,30.6h-7l6.3-30.6H140.1z M151.3,27.8c-0.2,1.1-6.2,29.9-6.3,30.6h-7c0.2-1.1,6.2-29.9,6.3-30.6
	H151.3z M97,34.8c-2.3,0-5,1.6-6.3,4.2l-0.1,0.3h-0.5l0.8-3.8h-0.6v0h-6.6c0.2,0.9,0.1,2.1-0.2,3.5l-4,19.5h7L89,45.7
	c0.7-3.2,2.5-4.6,5.8-4.6c0.6,0,1.1,0,1.6,0.1l1.3-6.4H97z M39.4,57.2c-1.7-2.1-1.8-6.1-0.3-13.6c2.5-12,6.1-16,14.2-16
	c6.5,0,9,3,7.7,9.4l-0.3,1.6h-6.9c0,0,0.5-3.3,0.5-4c0-0.8,0-1.2-0.3-1.7c-0.2-0.2-0.4-0.4-0.7-0.6c-0.3-0.1-0.6-0.2-0.9-0.2
	c-3,0-4,2.9-5.8,11.2c-1.3,6.5-1.8,9.5-0.8,10.7c0.4,0.5,1,0.7,1.8,0.7c2.4,0,3.3-2,4.5-7.7h6.9l-0.4,1.8c-1.5,7-5.6,10.6-12.2,10.6
	C42.9,59.5,40.6,58.7,39.4,57.2z M152.7,27.7h2.1l-0.1,0.3h-0.9l-0.6,3h-0.4l0.6-3h-0.9L152.7,27.7z M157.4,27.7h0.6l-0.7,3.3h-0.4
	l0.7-3.2h0c-0.1,0.3-1.5,3.2-1.5,3.2h-0.4c0,0-0.1-2.9-0.1-3.2h0c-0.1,0.3-0.6,3.2-0.6,3.2h-0.4l0.7-3.3h0.7l0.1,2.6
	c0,0.2,0,0.3,0,0.5h0C156.1,30.5,157.4,27.7,157.4,27.7z"/>
<path class="st0" d="M127.9,32.7c0.5-12.6-14.7-22.1-28.9-19.2c-14.2,2.9-21.1,15.3-22.9,19.1h2.3c3.1-5.2,6.3-9.3,11.6-10.8
	c3.4-1,6.1-0.7,12.7,2.9c3,1.7,9.9,6.8,17.3,7.8C123.2,33.1,127.9,32.7,127.9,32.7z"/>
</svg>
