<?xml version="1.0" encoding="utf-8"?>
<!-- Generator: Adobe Illustrator 23.0.1, SVG Export Plug-In . SVG Version: 6.00 Build 0)  -->
<svg version="1.1" id="Layer_1" xmlns="http://www.w3.org/2000/svg" xmlns:xlink="http://www.w3.org/1999/xlink" x="0px" y="0px"
	 viewBox="0 0 196 80" style="enable-background:new 0 0 196 80;" xml:space="preserve">
<style type="text/css">
	.st0{fill-rule:evenodd;clip-rule:evenodd;fill:#76787A;}
	.st1{fill-rule:evenodd;clip-rule:evenodd;fill:#298547;}
</style>
<path class="st0" d="M38,30.4h4.7c2,0,3.7,0,5.4,1.5c1.2,1.1,1.8,2.5,1.8,4.3c0,1.7-0.6,3.2-1.8,4.3c-1.8,1.5-3.5,1.5-5.4,1.5h-1.2
	v7.1H38V30.4z M41.4,38.6h1.1c1.5,0,3.9-0.1,3.9-2.5c0-2.4-2.4-2.5-3.8-2.5h-1.2V38.6z M54,30.4h5.7c2.1,0,3.5,0.4,4.5,1.3
	c1.1,0.9,2.2,2.4,2.2,4.5c0,1.2-0.5,3.2-1.8,4.4c-1.1,1.1-2.2,1.3-3.1,1.5l5,6.8h-4.2l-4.9-7.1h0v7.1H54L54,30.4L54,30.4L54,30.4z
	 M57.4,39.2h2.2c2.8,0,3.3-1.9,3.3-2.9c0-1-0.6-2.8-3.3-2.8h-2.2V39.2z M79.3,30c5.3,0,9.7,4.2,9.7,9.7c0,5.3-4.4,9.6-9.7,9.6
	s-9.7-4.3-9.7-9.6C69.6,34.2,74.1,30,79.3,30L79.3,30z M79.3,46.1c3.5,0,6.3-3,6.3-6.4c0-3.6-2.8-6.5-6.3-6.5
	c-3.5,0-6.3,2.9-6.3,6.5C73,43.1,75.8,46.1,79.3,46.1z M116.5,30.4h10v3.2h-6.5v4.5h6.3v3.2h-6.3v4.4h6.5v3.2h-10L116.5,30.4
	L116.5,30.4z M131.6,30.4h5.7c2.1,0,3.5,0.4,4.5,1.3c1.1,0.9,2.2,2.4,2.2,4.5c0,1.2-0.5,3.2-1.8,4.4c-1.1,1.1-2.2,1.3-3.1,1.5l5,6.8
	H140l-4.9-7.1h0v7.1h-3.4L131.6,30.4L131.6,30.4z M135,39.2h2.2c2.8,0,3.3-1.9,3.3-2.9c0-1-0.6-2.8-3.3-2.8H135V39.2z M151.1,33.6
	h-3.4v-3.2H158v3.2h-3.5v15.3h-3.4V33.6z"/>
<path class="st1" d="M95.9,33.1h2.7l3.7,10.6h0l3.7-10.6h2.7L103.4,47h-2.1L95.9,33.1z M92.9,30.3v18.6h18.6V30.3H92.9z"/>
</svg>
