<?xml version="1.0" encoding="utf-8"?>
<!-- Generator: Adobe Illustrator 23.0.1, SVG Export Plug-In . SVG Version: 6.00 Build 0)  -->
<svg version="1.1" id="Layer_1" xmlns="http://www.w3.org/2000/svg" xmlns:xlink="http://www.w3.org/1999/xlink" x="0px" y="0px"
	 viewBox="0 0 196 80" style="enable-background:new 0 0 196 80;" xml:space="preserve">
<style type="text/css">
	.st0{fill-rule:evenodd;clip-rule:evenodd;}
	.st1{fill-rule:evenodd;clip-rule:evenodd;fill:#F2CA30;}
	.st2{fill:none;stroke:#000000;stroke-width:0.594;stroke-linejoin:bevel;stroke-miterlimit:2.613;}
</style>
<g>
	<path class="st0" d="M79.4,45H81c1.8,0,3.9,0.2,3.9,2.4c0,2-2,2.3-3.9,2.3h-1.6L79.4,45L79.4,45L79.4,45z M74.5,53.3h8.3
		c3.5,0,7.7-1,7.7-5.7c0-2.4-1.4-3.8-4-4.4v-0.1c2.2-0.7,3.5-2.1,3.5-4.6c0-3.4-2.7-5-6.4-5h-9V53.3z M79.4,37.3h1.5
		c1.7,0,3.4,0.2,3.4,2c0,1.7-1.8,2.1-3.5,2.1h-1.5V37.3z M110.4,45.8c0,5.4-3.5,7.8-8.6,7.8c-5.1,0-8.6-2.4-8.6-7.8V33.6h5.2V45
		c0,2.6,0.7,4.8,3.4,4.8c2.7,0,3.4-2.2,3.4-4.8V33.6h5.2L110.4,45.8L110.4,45.8z M114.4,33.6h5.2v19.8h-5.2V33.6z M124.4,33.6h5.2
		v15.9h8.1v3.9h-13.4V33.6z M144.6,37.5h2c3.8,0,6.1,2,6.1,6c0,3.9-2.2,6-6.1,6h-2V37.5z M139.3,53.3h7.2c6.7,0,11.6-2.6,11.6-10
		c0-7.6-4.8-9.8-11.6-9.8h-7.2V53.3z"/>
	<g>
		<path class="st1" d="M47.5,23.8l12.8,1.7l2.4,38.7c0,0-14.7,4.5-15.5,4.3L47.5,23.8L47.5,23.8z"/>
		<path class="st2" d="M47.5,23.8l12.8,1.7l2.4,38.7c0,0-14.7,4.5-15.5,4.3"/>
		<path class="st0" d="M47.1,68.6l-9.6-5.3l1.6-35.2l8.4-4.3L47.1,68.6z"/>
		<path class="st2" d="M47.1,68.6l-9.6-5.3l1.6-35.2l8.4-4.3L47.1,68.6z"/>
		<path class="st1" d="M59.9,21.9l-12.7-2.1l0.2-8.9l11.8,2.8L59.9,21.9z"/>
		<path class="st2" d="M59.9,21.9l-12.7-2.1l0.2-8.9l11.8,2.8L59.9,21.9z"/>
		<path class="st0" d="M39.4,24.4l7.7-4.5l0.2-8.9l-7.4,5.3L39.4,24.4L39.4,24.4z"/>
		<path class="st2" d="M39.4,24.4l7.7-4.5l0.2-8.9l-7.4,5.3L39.4,24.4L39.4,24.4z"/>
	</g>
</g>
</svg>
