<?xml version="1.0" encoding="utf-8"?>
<!-- Generator: Adobe Illustrator 23.0.1, SVG Export Plug-In . SVG Version: 6.00 Build 0)  -->
<svg version="1.1" id="Layer_1" xmlns="http://www.w3.org/2000/svg" xmlns:xlink="http://www.w3.org/1999/xlink" x="0px" y="0px"
	 viewBox="0 0 196 80" style="enable-background:new 0 0 196 80;" xml:space="preserve">
<style type="text/css">
	.st0{fill-rule:evenodd;clip-rule:evenodd;fill:#BBB7C5;}
	.st1{fill-rule:evenodd;clip-rule:evenodd;fill:#F5F4F8;}
</style>
<path class="st0" d="M79.7,45h1.6c1.8,0,3.8,0.2,3.8,2.3c0,2-2,2.3-3.9,2.3h-1.5L79.7,45L79.7,45z M74.5,53.3h8.2
	c3.5,0,7.6-1,7.6-5.7c0-2.4-1.3-3.8-3.9-4.3v-0.1c2.2-0.7,3.4-2.1,3.4-4.6c0-3.4-2.7-5-6.4-5h-9V53.3z M79.7,37.4h1.5
	c1.7,0,3.4,0.2,3.4,2c0,1.7-1.8,2.1-3.5,2.1h-1.5V37.4z M110.5,45.8c0,5.4-3.5,7.8-8.6,7.8c-5.1,0-8.6-2.4-8.6-7.8V33.6h5.2V45
	c0,2.6,0.7,4.8,3.4,4.8c2.7,0,3.4-2.2,3.4-4.8V33.6h5.2L110.5,45.8L110.5,45.8z M114.5,33.6h5.2v19.6h-5.2V33.6z M124.5,33.6h5.2
	v15.8h8.1v3.9h-13.3V33.6z M144.5,37.5h2c3.8,0,6.1,2,6.1,5.9c0,3.9-2.2,5.9-6.1,5.9h-2V37.5z M139.3,53.3h7.1
	c6.7,0,11.6-2.6,11.6-9.9c0-7.6-4.8-9.7-11.6-9.7h-7.1V53.3z"/>
<path class="st1" d="M47.9,24.1L60,25.7l2.2,38.2c0,0-14,4.5-14.7,4.3L47.9,24.1z"/>
<path class="st0" d="M59.6,26.1l-11.8-1.6l0.1-0.8L60,25.3l0.4,0.4l2.2,38.2l-0.3,0.4l-0.1-0.4c0.1,0.4,0.1,0.4,0.1,0.4l-0.2,0.1
	c-0.1,0-0.3,0.1-0.4,0.1c-0.4,0.1-0.9,0.3-1.6,0.5c-1.3,0.4-3.1,1-4.9,1.5c-1.8,0.5-3.6,1.1-5,1.5c-0.7,0.2-1.3,0.4-1.8,0.5
	c-0.2,0.1-0.4,0.1-0.6,0.1c-0.1,0-0.2,0-0.2,0c-0.1,0-0.1,0-0.2,0l0.2-0.8c0,0,0,0,0,0c0,0,0,0,0,0c0,0,0.1,0,0.1,0
	c0.1,0,0.3-0.1,0.5-0.1c0.4-0.1,1-0.3,1.7-0.5c1.4-0.4,3.2-0.9,5-1.5c1.8-0.5,3.6-1.1,4.9-1.5c0.7-0.2,1.2-0.4,1.6-0.5
	c0.1,0,0.2-0.1,0.3-0.1L59.6,26.1z M47.5,67.8C47.5,67.8,47.5,67.8,47.5,67.8L47.5,67.8z"/>
<path class="st1" d="M47.5,68.2L38.4,63l1.5-34.6l7.9-4.3L47.5,68.2z"/>
<path class="st0" d="M40.3,28.6l-1.5,34.2l8.3,4.7l0.4-42.7L40.3,28.6z M39.7,28l7.9-4.3l0.6,0.4l-0.4,44.1l-0.6,0.4l-9.1-5.2L38,63
	l1.5-34.6L39.7,28z"/>
<path class="st1" d="M59.6,22.2l-12-2.1l0.2-8.7l11.2,2.8L59.6,22.2z"/>
<path class="st0" d="M47.5,11.1c0.1-0.1,0.2-0.1,0.3-0.1L59,13.8c0.2,0,0.3,0.2,0.3,0.4l0.7,8l-0.4,0l-0.1,0.4l-12-2.1
	c-0.2,0-0.3-0.2-0.3-0.4l0.2-8.7C47.3,11.3,47.4,11.2,47.5,11.1z M59.1,21.7l-0.6-7.2l-10.4-2.6L48,19.8L59.1,21.7z"/>
<path class="st1" d="M40.2,24.6l7.3-4.5l0.2-8.7l-7,5.2L40.2,24.6z"/>
<path class="st0" d="M40.4,16.3l7-5.2l0.7,0.3L48,20.2l-0.2,0.3L40.4,25l-0.2-0.3l-0.4,0l0.5-8L40.4,16.3z M40.7,23.9l6.5-3.9
	l0.1-7.7l-6.2,4.6L40.7,23.9z"/>
</svg>
