<svg xmlns="http://www.w3.org/2000/svg" width="144" height="56" fill="none" xmlns:v="https://vecta.io/nano"><path d="M47.7703 5.90674h7.6104v1.27857h-2.9965v7.20749h-1.6424V7.18531h-2.984l.0125-1.27857zm7.2844 2.34216h1.4042v1.18805h.0251c.0502-.16972.1379-.32813.2633-.48654s.2758-.3055.4639-.42996c.1755-.13578.3761-.23761.6018-.31681.2131-.07921.4388-.12447.6645-.12447l.3636.01132c.0627.01132.1379.02263.2006.02263v1.3012c-.1003-.02263-.2132-.03395-.326-.04526l-.326-.02263c-.2507 0-.4889.04526-.7146.13578s-.4138.22629-.5893.39601c-.163.18108-.3009.39598-.4012.65628s-.1504.5657-.1504.9052v2.9192h-1.5046l.0251-6.11zm10.8827 6.1439h-1.4795v-.8599h-.025c-.1881.3168-.4639.5544-.8275.7468s-.7397.2828-1.1159.2828c-.8901 0-1.5421-.1923-1.9433-.5996-.4012-.3961-.6018-1.0071-.6018-1.8104V8.2489h1.5045v3.7678c0 .5431.1129.9278.3511 1.1428.2256.2263.5516.3395.9654.3395.3134 0 .5767-.0453.7898-.1358s.3887-.2037.5141-.3508c.1379-.1471.2257-.3281.2883-.5318s.0878-.4299.0878-.6675V8.2489h1.5045v6.1439h-.0125zm2.5577-1.9687c.0501.396.2131.6675.5015.8372.2883.1585.6394.2377 1.0406.2377.1379 0 .3009-.0114.4764-.034s.3511-.0566.5015-.1131c.163-.0566.2884-.1358.3887-.249s.1505-.2489.1379-.4186-.0752-.3168-.2131-.43-.3009-.1923-.5015-.2715c-.2006-.0679-.4388-.1245-.7021-.1697l-.8024-.1585-.815-.2036c-.2633-.0792-.489-.1811-.7021-.3281-.2006-.1358-.3761-.3055-.489-.5205-.1253-.215-.188-.4639-.188-.78075 0-.33944.0877-.611.2758-.83729.1755-.2263.4137-.40733.6896-.54311s.5892-.23761.9278-.29419.6644-.0792.9653-.0792c.3511 0 .6896.03395 1.0031.10184s.6143.16972.8651.32812c.2632.1471.4764.35076.6394.58837.1755.23761.2758.5318.326.87124h-1.5673c-.0752-.32813-.2382-.54311-.4889-.65626-.2633-.11314-.5517-.16972-.8902-.16972-.1003 0-.2382.01131-.3761.02263-.1505.02263-.2758.04526-.4138.09052-.1253.04526-.2382.11315-.3259.19235s-.138.19235-.138.32813c0 .16972.0627.29422.1881.39602s.2884.181.5015.2602c.2006.0679.4388.1245.7021.1698l.815.1584.8024.2036c.2633.0792.5015.1811.7021.3282.2006.1357.3761.3055.5015.5091s.1881.4639.1881.7581c0 .3621-.0878.6676-.2759.9278-.188.249-.4262.4639-.7146.6223s-.6269.2716-.978.3508c-.3635.0679-.7146.1131-1.0657.1131-.4262 0-.8274-.0452-1.191-.1357s-.6896-.2263-.9529-.396c-.2633-.1811-.4764-.3961-.6269-.6676-.1504-.2603-.2382-.5771-.2507-.9505h1.517v.0114h.0126zm4.9523-4.1752h1.141V6.39327h1.5045v1.84431h1.354V9.2446h-1.354v3.2813c0 .1471.0125.2602.0251.3734.0125.1018.0501.1923.0877.2602.0502.0679.1254.1245.2132.1584.1003.034.2256.0566.4012.0566l.3134-.0113.3134-.0453v1.0523l-.4889.0453c-.163.0226-.3135.0226-.489.0226-.4012 0-.7146-.034-.9529-.1018s-.4262-.1698-.5641-.2942c-.138-.1358-.2257-.2942-.2759-.4866s-.0752-.4299-.0877-.6789V9.25591h-1.141V8.22627v.02263zm5.0527 0h1.4168v.83729h.025c.2132-.36207.5015-.611.8777-.7694s.7773-.23762 1.2287-.23762c.5391 0 1.003.07921 1.4042.26025.4012.16972.7272.39601.9904.70151.2633.29419.4639.64495.5893 1.04097s.2006.826.2006 1.2672c0 .4187-.0627.8147-.1755 1.1994-.1254.3847-.3009.7355-.5391 1.0297s-.5391.5318-.9153.7128-.8024.2715-1.3039.2715c-.2131 0-.4388-.0226-.6519-.0565s-.4263-.0905-.6269-.1697-.3887-.1811-.5517-.3055c-.1755-.1245-.3134-.2716-.4263-.43h-.025v3.0663h-1.5046V8.2489h-.0125zm5.2533 3.0776c0-.2715-.0376-.5431-.1254-.8033-.0752-.2603-.2006-.4866-.3636-.69023s-.3636-.36208-.5893-.48654c-.2382-.12446-.514-.18104-.8149-.18104-.6269 0-1.1033.19236-1.4293.58838-.3134.39603-.4764.92783-.4764 1.58403 0 .3168.0376.5997.1253.86s.2006.4865.3762.6788c.163.1924.3636.3395.6018.4526s.5015.1698.8149.1698c.3511 0 .6269-.0679.8651-.1924s.4263-.2942.5893-.4865c.1504-.2037.2633-.43.326-.6902.0627-.2716.1003-.5318.1003-.8034h0zm2.6454-5.41976h1.5045v1.27857h-1.5045V5.90674zm0 2.34216h1.5045v6.1439h-1.5045V8.2489zm2.8461-2.34216h1.5045v8.48606h-1.5045V5.90674zm6.0933 8.65576c-.5392 0-1.0281-.0792-1.4544-.2489s-.7773-.3847-1.0782-.6675c-.2884-.2829-.5141-.6337-.6645-1.0297s-.2383-.8373-.2383-1.3012.0753-.8939.2383-1.2899c.1504-.396.3761-.73544.6645-1.02963.2883-.28287.6519-.50916 1.0782-.66757s.9152-.24893 1.4544-.24893 1.028.07921 1.4543.24893c.4263.15841.7774.3847 1.0783.66757.2883.28287.514.63363.6645 1.02963s.2382.826.2382 1.2899c0 .4752-.0753.9052-.2382 1.3012s-.3762.7355-.6645 1.0297c-.2884.2828-.652.5091-1.0783.6675s-.9027.2489-1.4543.2489zm0-1.0749c.3259 0 .6268-.0678.8651-.1923.2507-.1245.4388-.2942.6018-.4979s.2758-.4412.351-.6902c.0752-.2602.1129-.5204.1129-.792 0-.2602-.0377-.5205-.1129-.7807s-.1881-.4866-.351-.69022-.3636-.36207-.6018-.48653c-.2508-.12447-.5392-.19236-.8651-.19236s-.6269.06789-.8651.19236c-.2508.12446-.4389.29418-.6018.48653-.163.20362-.2759.42992-.3511.69022s-.1128.5205-.1128.7807c0 .2716.0376.5318.1128.792s.1881.4866.3511.6902.3635.3734.6018.4979c.2507.1358.5391.1923.8651.1923zm3.8866-5.2387h1.1412V6.39327h1.504v1.84431h1.354V9.2446h-1.354v3.2813c0 .1471.013.2602.025.3734.013.1018.05.1923.088.2602.05.0679.125.1245.213.1584.101.034.226.0566.401.0566l.314-.0113.313-.0453v1.0523l-.489.0453c-.163.0226-.313.0226-.489.0226-.401 0-.714-.034-.952-.1018s-.427-.1698-.565-.2942c-.138-.1358-.225-.2942-.275-.4866s-.076-.4299-.088-.6789V9.25591h-1.1412V8.22627v.02263z" fill="#000"/><path d="M46.0166 5.90632h-6.8832L37.0146 0l-2.1314 5.90632L28 5.895l5.5667 3.65468-2.1314 5.90632 5.5667-3.6547 5.5667 3.6547-2.1188-5.90632 5.5667-3.64336z" fill="#00b67a"/><path d="M40.9274 10.8845l-.4765-1.33518-3.4353 2.25168 3.9118-.9165z" fill="#005128"/><path d="M0 28.0078h27v27.9851H0V28.0078zm29.25 0h27v27.9851h-27V28.0078zm29.25 0h27v27.9851h-27V28.0078zm29.25 0h27v27.9851h-27V28.0078zm29.25 0h27v27.9851h-27V28.0078z" fill="#00b67a"/><path d="M13.5008 46.8688l4.1062-1.0786 1.7157 5.4804-5.8219-4.4018zm9.45-7.0838h-7.2281l-2.2219-7.0545-2.2219 7.0545H4.05078l5.85 4.3727-2.22187 7.0546 5.84999-4.3727 3.6-2.6819 5.8219-4.3727zm19.8 7.0838l4.1062-1.0786 1.7157 5.4804-5.8219-4.4018zm9.45-7.0838h-7.2281l-2.2219-7.0545-2.2219 7.0545h-7.2281l5.85 4.3727-2.2219 7.0546 5.85-4.3727 3.6-2.6819 5.8219-4.3727zm19.8 7.0838l4.1062-1.0786 1.7157 5.4804-5.8219-4.4018zm9.45-7.0838h-7.2282l-2.2218-7.0545-2.2219 7.0545h-7.2281l5.85 4.3727-2.2219 7.0546 5.85-4.3727 3.6-2.6819 5.8219-4.3727zm19.8002 7.0838l4.106-1.0786 1.716 5.4804-5.822-4.4018zm9.45-7.0838h-7.228l-2.222-7.0545-2.2221 7.0545h-7.2281l5.85 4.3727-2.2219 7.0546 5.8501-4.3727 3.6-2.6819 5.822-4.3727zm19.8 7.0838l4.106-1.0786 1.716 5.4804-5.822-4.4018zm9.45-7.0838h-7.228l-2.222-7.0545-2.222 7.0545h-7.228l5.85 4.3727-2.222 7.0546 5.85-4.3727 3.6-2.6819 5.822-4.3727z" fill="#fff"/></svg>