<svg xmlns="http://www.w3.org/2000/svg" xmlns:xlink="http://www.w3.org/1999/xlink" width="48" height="48" fill="none" xmlns:v="https://vecta.io/nano"><g fill-rule="evenodd"><path d="M18.421 9.042L8.277 27.603c-.634 1.236-.144 2.753 1.091 3.386.193.096.401.177.61.217 3.531.834 10.272-1.236 15.768.834s8.041 6.307 11.371 8.554a4.43 4.43 0 0 0 2.552.835h.016c.193 0 .369-.008.546-.032a4.38 4.38 0 0 0 2.303-1.011c.369-.321.682-.706.931-1.132a4.31 4.31 0 0 0 .08-4.373L29.422 9.058a6.27 6.27 0 0 0-8.506-2.488 6.07 6.07 0 0 0-2.496 2.472z" fill="url(#A)"/><path d="M11.527 34.817c-1.164-1.91-3.651-2.52-5.569-1.356-1.91 1.163-2.52 3.651-1.356 5.569a4.05 4.05 0 1 0 6.933-4.197z" fill="url(#B)"/><path d="M12.113 36.968c-.032 2.239-1.87 4.028-4.109 3.996-2.247-.032-4.036-1.87-4.004-4.109.016-1.051.433-2.046 1.172-2.793-1.051 1.878-.425 3.402.329 3.972 1.164.891 4.044.706 6.612-1.067z" fill="url(#C)"/><path d="M11.158 27.86a1.64 1.64 0 0 1-1.998-1.156c-.04-.136-.056-.281-.056-.417 0-.209.04-.409.112-.602l-1.051 1.918c-.634 1.236-.144 2.752 1.099 3.386a2.62 2.62 0 0 0 .61.217c3.531.835 10.271-1.236 15.768.835 7.663 2.881 9.678 9.878 14.501 9.365 2.423-.313 4.133-2.528 3.82-4.943-.072-.554-.249-1.091-.514-1.581l-6.452-11.756c-2.745-5.023-9.951-3.94-14.372-1.982s-9.389 6.091-11.467 6.717z" fill="url(#D)"/><path d="M8.759 26.52l-.594 1.083c-.634 1.236-.144 2.753 1.091 3.386.193.096.401.177.61.217 3.531.835 10.272-1.236 15.768.835 5.104 1.918 7.664 5.713 10.665 8.049.433.401 1.003.618 1.597.618a2.31 2.31 0 0 0 2.311-2.311c0-.851-.618-1.749-1.027-2.488-8.619-15.568-17.767-9.983-28.15-6.524-.168.056-.353.08-.53.072-1.099-.008-1.982-.899-1.982-1.99a2.15 2.15 0 0 1 .241-.947z" fill="url(#E)"/></g><defs><linearGradient id="A" x1="15.414" y1="17.612" x2="33.372" y2="25.135" xlink:href="#F"><stop stop-color="#5f6ded"/><stop offset="1" stop-color="#49b9d9"/></linearGradient><linearGradient id="B" x1="5.67" y1="37.382" x2="11.352" y2="36.29" xlink:href="#F"><stop stop-color="#5f6eed"/><stop offset="1" stop-color="#45c8d4"/></linearGradient><linearGradient id="C" x1="5.597" y1="37.813" x2="10.766" y2="36.579" xlink:href="#F"><stop stop-color="#578be5"/><stop offset="1" stop-color="#43ced3"/></linearGradient><linearGradient id="D" x1="12.281" y1="24.071" x2="42.375" y2="32.443" xlink:href="#F"><stop stop-color="#5788e6"/><stop offset="1" stop-color="#3fddcf"/></linearGradient><linearGradient id="E" x1="36.707" y1="34.367" x2="11.467" y2="26.965" xlink:href="#F"><stop stop-color="#4452cf"/><stop offset="1" stop-color="#0bd3b9"/></linearGradient><linearGradient id="F" gradientUnits="userSpaceOnUse"/></defs></svg>