<svg xmlns="http://www.w3.org/2000/svg" width="48" height="48" fill="none" xmlns:v="https://vecta.io/nano"><path fill-rule="evenodd" d="M16.234 20.808l7.768-7.768 7.775 7.775 4.52-4.52L24.002 4 11.714 16.288l4.52 4.52zM4 24.001l4.519-4.519 4.519 4.519-4.519 4.519L4 24.001zm20.002 10.965l-7.768-7.768-4.526 4.513.007.007 12.288 12.288 12.295-12.295-4.52-4.52-7.775 7.775zm10.961-10.962l4.519-4.519L44 24.005l-4.519 4.519-4.519-4.519zm-10.961-4.588l4.586 4.586-4.586 4.593-4.586-4.586v-.013l.805-.805.393-.386 3.388-3.388z" fill="#f3ba2f"/></svg>