<svg xmlns="http://www.w3.org/2000/svg" width="48" height="48" fill="none" xmlns:v="https://vecta.io/nano"><path d="M13.61 8.044l3.305.801 3.305.801c.301.1.401 0 .501-.3l1.202-5.008c.1-.3.2-.401.501-.3 1.002.3 1.903.501 2.904.701.3.1.3.2.2.401l-1.202 4.908c0 .1 0 .2-.1.401l2.504.601c.1 0 .2-.2.3-.301l1.002-3.806.3-1.202c0-.2.1-.3.3-.2l3.105.801c.1 0 .1.1.2.1l-.901 3.706c-.1.501-.2 1.002-.401 1.502-.1.3 0 .401.301.501l3.305 1.502c1.002.601 1.903 1.402 2.604 2.404.901 1.502 1.002 3.105.601 4.707-.3 1.102-.701 2.103-1.502 2.904-.601.601-1.402 1.002-2.203 1.302-.1 0-.2.1-.401.1.401.3.801.501 1.202.801 1.202.901 2.003 2.003 2.404 3.405.2 1.102.1 2.304-.2 3.405-.401 1.402-.901 2.604-1.803 3.706-1.102 1.302-2.504 2.003-4.106 2.203-2.103.3-4.106.1-6.11-.2-.3-.1-.501 0-.601.3l-1.202 4.908c-.1.401-.1.501-.601.3l-2.804-.701c-.3-.1-.3-.2-.2-.401l1.302-5.008c0-.2.1-.3-.1-.401l-2.504-.601-.701 2.704-.701 2.704c-.1.2-.1.3-.401.2-1.002-.3-2.003-.501-3.005-.701-.3-.1-.3-.2-.2-.401l1.302-5.008c0-.1.1-.2.1-.401L7.4 34.085l.501-1.102 1.102-2.604c.1-.3.2-.3.501-.3.701.2 1.502.401 2.203.501.801.2 1.402-.2 1.502-.901l3.806-15.424c.2-.801-.3-1.703-1.202-2.003s-1.803-.501-2.604-.701c-.2 0-.3-.1-.2-.301l.901-3.405c-.401.3-.401.3-.3.2zm5.108 24.739c.1 0 .2.1.2.1 1.603.401 3.305.901 5.008 1.002 1.202.1 2.304.1 3.405-.3 1.903-.601 2.704-3.105 1.603-4.707-.501-.801-1.302-1.302-2.103-1.803-1.803-1.002-3.906-1.402-5.909-1.803-.3-.1-.3 0-.401.3l-.701 2.904-1.102 4.307zm8.413-10.216c.2 0 .701-.1 1.102-.2 1.903-.401 2.905-2.604 1.903-4.307-.501-.901-1.402-1.502-2.304-1.903-1.402-.601-2.804-.901-4.307-1.302-.301-.1-.401 0-.501.3l-1.602 6.21c-.1.2 0 .3.2.401l1.102.3c1.502.2 2.804.501 4.407.501z" fill="#f5b300"/></svg>