<svg xmlns="http://www.w3.org/2000/svg" width="48" height="48" fill="none" xmlns:v="https://vecta.io/nano"><path d="M41.567 18.133c3.244 3.244 3.244 8.49 0 11.7l-11.7 11.734c-3.244 3.244-8.49 3.244-11.7 0l-11.734-11.7c-3.244-3.244-3.244-8.49 0-11.7l11.7-11.734a8.29 8.29 0 0 1 11.734 0l11.7 11.7zm-8.766 8.801c1.622-1.622 1.622-4.245 0-5.867l-5.867-5.867c-1.622-1.622-4.245-1.622-5.867 0l-5.867 5.867c-1.622 1.622-1.622 4.245 0 5.867l5.867 5.867c1.622 1.622 4.245 1.622 5.867 0l5.867-5.867z" fill="#004bef"/></svg>