<svg xmlns="http://www.w3.org/2000/svg" width="48" height="48" fill="none" xmlns:v="https://vecta.io/nano"><path d="M10.586 20.183c.395.845 1.374 2.515 1.374 2.515L23.27 4l-11.039 7.709a4.82 4.82 0 0 0-1.571 1.729 8 8 0 0 0-.074 6.745z" fill="url(#A)"/><path d="M6.104 26.34c.125 1.789.63 3.53 1.482 5.107s2.032 2.955 3.459 4.039L23.255 44S15.616 32.991 9.172 22.036A11.06 11.06 0 0 1 7.878 18.3a5.98 5.98 0 0 1 0-1.794l-.494.949c-.653 1.332-1.098 2.757-1.319 4.225a25.83 25.83 0 0 0 .04 4.66z" fill="#a0a8d4"/><path d="M37.254 27.817c-.395-.845-1.374-2.515-1.374-2.515L24.57 44l11.039-7.703a4.82 4.82 0 0 0 1.571-1.73 8 8 0 0 0 .074-6.75z" fill="url(#B)"/><path d="M41.736 21.66c-.125-1.789-.63-3.53-1.482-5.107s-2.032-2.955-3.459-4.039L24.584 4s7.634 11.009 14.083 21.964c.651 1.158 1.087 2.423 1.29 3.736a5.98 5.98 0 0 1 0 1.794l.494-.949c.653-1.332 1.098-2.757 1.319-4.225a25.83 25.83 0 0 0-.035-4.66z" fill="#a0a8d4"/><path style="mix-blend-mode:color" d="M10.66 13.438c.374-.697.913-1.291 1.571-1.729L23.27 4 11.959 22.703l-1.374-2.515a8 8 0 0 1 .074-6.75zM6.104 26.34c.125 1.789.63 3.53 1.482 5.107s2.032 2.955 3.459 4.039L23.255 44S15.616 32.991 9.172 22.036c-.652-1.157-1.091-2.423-1.295-3.736a5.98 5.98 0 0 1 0-1.794l-.494.949c-.653 1.332-1.098 2.757-1.319 4.225-.127 1.551-.114 3.111.04 4.66zm31.13 1.482c-.395-.845-1.374-2.515-1.374-2.515L24.57 44l11.039-7.703a4.82 4.82 0 0 0 1.571-1.73 8 8 0 0 0 .074-6.75l-.02.005zm4.482-6.157c-.125-1.788-.63-3.53-1.482-5.107s-2.032-2.954-3.459-4.039L24.584 4s7.634 11.009 14.083 21.964c.651 1.158 1.087 2.423 1.29 3.736a5.98 5.98 0 0 1 0 1.794l.494-.949c.653-1.332 1.098-2.757 1.319-4.225a25.83 25.83 0 0 0-.035-4.66l-.02.005z" fill="url(#C)"/><defs><linearGradient id="A" x1="23.764" y1="4.46" x2="9.246" y2="20.198" gradientUnits="userSpaceOnUse"><stop offset=".58" stop-color="#a0a8d4"/><stop offset=".73" stop-color="#8791c7"/><stop offset=".91" stop-color="#6470b4"/></linearGradient><linearGradient id="B" x1="594.777" y1="1552.18" x2="1128.88" y2="1137.54" gradientUnits="userSpaceOnUse"><stop offset=".58" stop-color="#a0a8d4"/><stop offset=".73" stop-color="#8791c7"/><stop offset=".91" stop-color="#6470b4"/></linearGradient><linearGradient id="C" x1="23.917" y1="3.802" x2="23.917" y2="44.124" gradientUnits="userSpaceOnUse"><stop stop-color="#513eff"/><stop offset=".18" stop-color="#5157ff"/><stop offset=".57" stop-color="#5298ff"/><stop offset="1" stop-color="#52e5ff"/></linearGradient></defs></svg>