<svg xmlns="http://www.w3.org/2000/svg" width="48" height="48" fill="none" fill-rule="evenodd" xmlns:v="https://vecta.io/nano"><path d="M11.329 6.777L4.033 22.1c-.029.055-.039.119-.029.181s.041.118.087.161l19.696 18.883a.31.31 0 0 0 .413 0l19.708-18.883c.046-.043.076-.099.087-.161s.001-.125-.028-.181L36.672 6.777a.27.27 0 0 0-.261-.177H11.588c-.056.002-.11.019-.157.05s-.083.075-.105.127h.003z" fill="#50af95"/><path d="M26.535 23.668c-.141.012-.872.059-2.499.059-1.296 0-2.216-.035-2.546-.059-5.009-.224-8.746-1.096-8.746-2.134s3.737-1.921 8.746-2.145v3.406l2.558.082 2.475-.082v-3.406c4.998.224 8.734 1.096 8.734 2.133s-3.726 1.922-8.722 2.145zm0-4.62v-3.053h6.978v-4.656H14.513v4.656h6.978v3.053c-5.67.261-9.936 1.379-9.936 2.734s4.267 2.464 9.936 2.734v9.772h5.045v-9.772c5.658-.261 9.913-1.379 9.913-2.723s-4.255-2.487-9.913-2.745h0z" fill="#fff"/></svg>