<svg xmlns="http://www.w3.org/2000/svg" xmlns:xlink="http://www.w3.org/1999/xlink" viewBox="0 0 116 233" xmlns:v="https://vecta.io/nano"><path d="M97.6 178.8l-.8-3.1v-.2-.2l.1-.1s.1 0 .1-.1h.2.2l.1.1s0 .1.1.2l.6 2.2 2.3-.6h.4c.1 0 .2.2.2.3v.4c0 .1-.1.2-.3.2l-3.2.9zm-1.8-8.1c-.1 0-.2 0-.2-.1-.1 0-.1-.1-.1-.2l-1.3-5.2v-.2-.2l.1-.1s.1 0 .1-.1h.2.2l.1.1s0 .1.1.2l1.3 5.3v.2.2l-.1.1s-.1 0-.1.1c-.2-.1-.2-.1-.3-.1zm-2.7-10.5c-.1 0-.2 0-.2-.1-.1 0-.1-.1-.1-.2l-1.3-5.3v-.2-.2l.1-.1s.1-.1.2-.1h.2c.1 0 .1 0 .2.1l.1.1v.2l1.3 5.2v.4c0 .1-.1.2-.3.2h-.2zm-2.6-10.5c-.1 0-.2 0-.2-.1-.1 0-.1-.1-.1-.2l-1.3-5.2v-.2-.2l.1-.1s.1 0 .1-.1h.2.2l.1.1s0 .1.1.2l1.3 5.3v.4c0 .1-.1.2-.3.2-.1-.1-.2-.1-.2-.1zm-2.7-10.5c-.1 0-.2 0-.2-.1-.1 0-.1-.1-.1-.2l-.8-3.1 3.2-.8c.1 0 .2 0 .3.1.1 0 .1.2.2.3v.3c0 .1-.1.2-.3.2l-2.3.6.6 2.2v.2s0 .1-.1.2l-.1.1h-.4 0zm-59.6-22.4c-.1 0-.1-.1-.2-.2v-.3c0-.1.1-.2.2-.2h.3l2.3.4.4-2.2c0-.1.1-.2.2-.3s.2-.1.4-.1c.1 0 .2.1.3.2s.1.2.1.4l-.6 3.1-3.3-.6c0-.2-.1-.2-.1-.2zm10.1-39.5c-.1 0-.1-.1-.2-.2v-.3l.4-2.2-2.3-.4H36l-.1-.1s-.1-.1-.1-.2v-.2s0-.1.1-.2l.1-.1s.1 0 .1-.1h.2l3.2.6-.6 3.1c0 .1-.1.2-.2.3h-.4 0zm-5.9 31.9c-.1 0-.1-.1-.2-.2v-.3l1-5.3s0-.1.1-.2l.1-.1s.1 0 .2-.1h.2c.1 0 .2.1.3.2s.1.2.1.4l-1 5.3v.2l-.1.1s-.1 0-.2.1h-.2c-.2 0-.2 0-.3-.1zm2-10.6c-.1 0-.1-.1-.2-.2v-.3l1-5.3v-.2l.1-.1s.1 0 .1-.1h.2.2l.1.1s0 .1.1.2v.2l-.9 5.3c0 .1-.1.2-.2.3s-.2.1-.4.1h-.1zm1.9-10.7c-.1 0-.1-.1-.2-.2v-.3l1-5.3s0-.1.1-.2l.1-.1s.1 0 .2-.1h.2.2l.1.1s0 .1.1.2v.2l-1 5.3c0 .1-.1.2-.2.3-.1.2-.2.2-.4.2-.1 0-.2-.1-.2-.1z" fill="#5d3cf2"/><path d="M100.4 3.9H15.6c-6 0-10.9 4.8-10.9 10.6V218c0 5.9 4.9 10.6 10.9 10.6h84.8c6.1 0 10.9-4.8 10.9-10.6V14.5c0-5.8-4.9-10.6-10.9-10.6z" fill="#fff"/><path d="M101.4 0H14.6C10.7 0 7 1.5 4.3 4.1 1.6 6.8 0 10.4 0 14.1v204.7c0 3.8 1.6 7.3 4.3 10s6.4 4.1 10.3 4.1h86.8c3.9 0 7.6-1.5 10.3-4.1 2.7-2.7 4.3-6.2 4.3-10V14.1c0-3.8-1.6-7.3-4.3-10C109 1.5 105.3 0 101.4 0zm9.9 218.2a10.29 10.29 0 0 1-3.2 7.5c-2.1 2-4.9 3.1-7.7 3.1H15.6c-2.9 0-5.7-1.1-7.7-3.1a10.29 10.29 0 0 1-3.2-7.5V14.8c0-2.8 1.2-5.5 3.2-7.5s4.8-3.1 7.7-3.1h10.7c.6 0 1.1.2 1.5.6s.6.9.6 1.5v.9c0 1.5.6 2.8 1.6 3.9 1 1 2.5 1.6 4 1.6h47.8c.8 0 1.5-.1 2.2-.4s1.3-.7 1.8-1.2.9-1.1 1.2-1.8c.3-.6.4-1.4.4-2.1v-1c0-.6.2-1.1.6-1.5s.9-.6 1.5-.6h10.7c2.9 0 5.7 1.1 7.7 3.1a10.29 10.29 0 0 1 3.2 7.5l.2 203.5h0z" fill="#454056"/><path d="M4.7 14.8v25.9h106.7V14.8a10.29 10.29 0 0 0-3.2-7.5c-2.1-2-4.9-3.1-7.7-3.1H89.7c-.6 0-1.1.2-1.5.6s-.6.9-.6 1.5v.9c0 .7-.1 1.4-.4 2.1-.3.6-.7 1.3-1.2 1.8s-1.1.9-1.8 1.2-1.4.4-2.2.4H34.1c-1.5 0-2.9-.6-4-1.6s-1.7-2.4-1.7-3.9v-.9c0-.6-.2-1.1-.6-1.5s-.9-.6-1.5-.6H15.6c-2.9 0-5.7 1.1-7.7 3.1a10.29 10.29 0 0 0-3.2 7.5z" fill="#efecf3"/><path d="M73.8 24.2h-34A2.73 2.73 0 0 0 37 27c0 1.5 1.3 2.8 2.8 2.8h34a2.73 2.73 0 0 0 2.8-2.8c0-1.5-1.3-2.8-2.8-2.8z" fill="#d5d2dc"/><path d="M95.7 32.3c3 0 5.5-2.4 5.5-5.4s-2.4-5.4-5.5-5.4c-3 0-5.5 2.4-5.5 5.4 0 3.1 2.5 5.4 5.5 5.4z" fill="#fff"/><path d="M95,25.1l1.9,1.8L95,28.8" fill="none" stroke="#5d3cf2" stroke-width=".917" stroke-linecap="round" stroke-linejoin="round"/><path d="M17.3 32.3c3 0 5.5-2.4 5.5-5.4s-2.5-5.4-5.5-5.4-5.5 2.4-5.5 5.4c0 3.1 2.5 5.4 5.5 5.4z" fill="#fff"/><path d="M17.9,25.1L16.1,27l1.9,1.8" fill="none" stroke="#5d3cf2" stroke-width=".917" stroke-linecap="round" stroke-linejoin="round"/><use xlink:href="#B" fill="#ffcbce"/><path d="M23 92h-9.2c-1 0-1.8.8-1.8 1.7 0 1 .8 1.7 1.8 1.7H23c1 0 1.8-.8 1.8-1.7S24 92 23 92z" fill="#efecf3"/><path d="M28.6 112.5h2.2V96.8h-2.2c-.5 0-.9.2-1.3.6s-.5.8-.5 1.3v11.9c0 .2 0 .5.1.7s.2.5.4.6c.2.2.4.3.6.4s.5.2.7.2z" fill="#f23c49"/><use xlink:href="#B" y="64.6" fill="#fdbc31" fill-opacity=".2"/><use xlink:href="#C" fill="#efecf3"/><path d="M28.6 177h2.2v-15.8h-2.2c-.5 0-.9.2-1.3.6s-.5.8-.5 1.3v12c0 .3 0 .5.1.7s.2.5.4.6c.2.2.4.3.6.4.2.2.5.2.7.2z" fill="#fdbc31"/><g fill="#efecf3"><use xlink:href="#C" y="29"/><path d="M99.6 190.3H29c-1.1 0-1.9.9-1.9 1.9v18.5c0 1.1.9 1.9 1.9 1.9h70.6c1.1 0 1.9-.8 1.9-1.9v-18.5c0-1-.8-1.9-1.9-1.9z"/></g><path d="M28.6 212.6h2.2v-22.3h-2.2c-.5 0-.9.2-1.3.6s-.5.8-.5 1.3v18.5c0 .2 0 .5.1.7s.2.5.4.6c.2.2.4.3.6.4.2.2.5.2.7.2z" fill="#fd5631"/><path d="M99.6 57.8H29c-1.1 0-1.9.8-1.9 1.9v25.1c0 1.1.9 1.9 1.9 1.9h70.6c1.1 0 1.9-.8 1.9-1.9V59.7c0-1-.8-1.9-1.9-1.9z" fill="#f5f4f8"/><path d="M23 53.2h-9.2c-1 0-1.8.8-1.8 1.7 0 1 .8 1.7 1.8 1.7H23c1 0 1.8-.8 1.8-1.7 0-1-.8-1.7-1.8-1.7z" fill="#efecf3"/><path d="M28.6 86.8h2.2v-29h-2.2c-.5 0-.9.2-1.3.6s-.5.8-.5 1.3v25.1c0 .2 0 .5.1.7s.2.5.4.6.4.3.6.4a1.08 1.08 0 0 0 .7.3z" fill="#fd5631"/><path d="M23 119.6h-9.2c-1 0-1.8.8-1.8 1.7s.8 1.7 1.8 1.7H23c1 0 1.8-.8 1.8-1.7s-.8-1.7-1.8-1.7z" fill="#efecf3"/><path d="M99.6 124.3H29c-1.1 0-1.9.8-1.9 1.9v21.5c0 1.1.9 1.9 1.9 1.9h70.6c1.1 0 1.9-.8 1.9-1.9v-21.5c0-1.1-.8-1.9-1.9-1.9z" fill="#f5f4f8"/><path d="M28.6 149.5h2.2v-25.3h-2.2c-.5 0-.9.2-1.3.5-.4.4-.5.8-.5 1.3v21.5c0 .2 0 .5.1.7s.2.5.4.6c.2.2.4.3.6.4.2.3.5.3.7.3z" fill="#fd5631"/><g fill="#5d3cf2"><path d="M33.7 66.9h-.2v-.1-.1-.1c.2-.5.5-1 .8-1.5 0 0 .1-.1.2-.1h.2s.1.1.1.2v.2c-.3.4-.6.9-.8 1.4 0 0 0 .1-.1.1h-.2zm45.9 14.9s-.1 0 0 0l-.5-.1-2.9-1-.1-.1v-.2c0-.1.1-.1.1-.1h.2l2.9 1 .4.1h.1l.1.1v.1.1s0 .1-.1.1h-.2zm-6.4-2.3h-.1L70 77.9l-.1-.1v-.1-.1-.1s.1-.1.2-.1h.2c.9.6 1.9 1.1 3 1.6.1 0 .1.1.1.1v.2s0 .1-.1.1c0 .1-.1.1-.1.1zm-5.8-3.7h-.1-.1c-.9-.8-1.7-1.6-2.3-2.6v-.1-.1-.1l.1-.1h.1.1.1l.1.1a26.22 26.22 0 0 0 2.2 2.5l.1.1v.1s0 .1-.1.1c-.1.1-.2.1-.2.1zm-4-5.4h-.1l-.1-.1c-.5-1.1-.8-2.2-1-3.3v-.2s.1-.1.2-.1h.1.1l.1.1v.1a15.83 15.83 0 0 0 .9 3.1v.1.1.1h-.1l-.1.1zm1.8-3.7h-1.9-.1l-.1-.1v-.2c0-.1 0-.1.1-.2h.2c.6 0 1.2.1 1.8 0 .5 0 1-.1 1.5-.1h.1.1l.1.1v.1.1.1l-.1.1h-.1c-.6.1-1.1.1-1.6.1zm-5.3-.7s-.1 0 0 0c-1.2-.3-2.3-.7-3.3-1.2h-.1l-.1-.1v-.1-.1l.1-.1h.1.1.1l3.2 1.1h.1v.1.1.1s0 .1-.1.1 0 .1-.1.1zm10-.6h-.1s-.1 0-.1-.1v-.2c0-.1 0-.1.1-.2a6.73 6.73 0 0 0 1.4-1.1c.4-.4.7-.8.9-1.2l.1-.1h.2s.1.1.1.2v.2a6.42 6.42 0 0 1-1 1.3c-.4.5-.9.8-1.6 1.2h0zm-7.7-1.6s-.1 0 0 0c-.1 0-.2-.1-.2-.1v-.1-.1c.1-1.1.4-2.3.8-3.3l.1-.1h.2l.1.1v.2c-.4 1-.7 2.1-.8 3.1 0 .1 0 .1-.1.2.1.1 0 .1-.1.1zm-8.8-.3h-.1l-1.1-.5c-.7-.3-1.4-.6-2.1-.7H50l-.1-.1v-.1-.1-.1h.1.1.1c.7.2 1.4.5 2.1.8l1.1.5h.1v.1.1.1c0-.1 0-.1-.1 0 .2-.1.1 0 0 0zm-16.5-.4h-.1l-.1-.1v-.2s0-.1.1-.1c1-.6 2.1-1.1 3.2-1.5h.1.1.1v.1.1.1l-.1.1h-.1c-1.1.3-2.1.8-3 1.4 0 .1-.1.1-.2.1zm10-1.7h0a21.59 21.59 0 0 0-3.5-.3h-.1-.1V61v-.1c0-.1 0-.1.1-.2 0 0 .1-.1.2-.1 1.2 0 2.4.1 3.5.3h.1l.1.1v.1.1c-.1.1-.2.1-.3.2h0zm26.2-1.5c-.1 0-.1 0-.2-.1 0 0-.1-.1-.1-.2 0-.9-.4-1.7-1.1-2.3-.1-.1-.3-.2-.4-.3 0 0-.1-.1-.1-.2v-.2s.1-.1.2-.1h.2c.2.1.3.2.5.4.8.7 1.2 1.7 1.3 2.7 0 .1 0 .1-.1.2 0 0-.1.1-.2.1zm-8-2H65s-.1 0-.1-.1v-.1-.1-.1l.1-.1c.9-.7 2-1.3 3.2-1.5h.2c.1 0 .1.1.1.2v.2c0 .1-.1.1-.2.1-1.1.2-2.1.7-3 1.4-.1 0-.2 0-.2.1zm19.3 25.9h-.2c-.4-.3-.9-.6-1.4-.8l-.1-.1v-.2l.1-.1h.2c.6.2 1 .5 1.5.9v.1.1.1.1c0-.1-.1-.1-.1-.1z"/><path d="M82.5 77.1h-.6a.78.78 0 0 0-.4.4l-6.7 12.3c.1 0 .3.1.4.1s.3 0 .4-.1l19.9-7.9a.76.76 0 0 0 .4-.2c.1-.1.2-.2.2-.4l-13.6-4.2z" fill-opacity=".5"/></g><path d="M82.8 80.3h.5c.1 0 .3-.2.4-.3l6.9-11.7h-.1 0-.2.1-.5L70 76.2c-.2.1-.4.3-.5.5l13.3 3.6z" fill="#fff"/><g fill="#efecf3"><path d="M80.5 79.6l-11.1-3v.1c-.1.2-.1.5 0 .7l5 11.8c.1.2.3.5.5.6l5.6-10.2zm15.6 1.9l-.1.1c.1.1.1 0 .1-.1z"/><path d="M90.5 68.1l-5.7 9.7 11.4 3.4s0 .1-.1.2c.1-.1.1-.3.1-.5s0-.3-.1-.5l-5-11.8a.76.76 0 0 0-.2-.4c0 .1-.2 0-.4-.1zm.1.1h0 0z"/></g><path d="M62.9 161.3c.2 2.4 1.4 4.6 3.2 6.2s4.2 2.5 6.6 2.5c2.5 0 4.8-.9 6.6-2.5s3-3.8 3.2-6.2H62.9z" fill="#fdbc31"/><path d="M74.2 131.6H40.1c-1 0-1.8.8-1.8 1.7 0 1 .8 1.7 1.8 1.7h34.1c1 0 1.8-.8 1.8-1.7s-.8-1.7-1.8-1.7zm-14.3 7.1H40.1c-1 0-1.8.8-1.8 1.7 0 1 .8 1.7 1.8 1.7h19.7c1 0 1.8-.8 1.8-1.7.1-.9-.7-1.7-1.7-1.7zm19.6 57.5H40.1c-1 0-1.8.8-1.8 1.7 0 1 .8 1.7 1.8 1.7h39.4c1 0 1.8-.8 1.8-1.7s-.8-1.7-1.8-1.7zm-12.1 7.1H40.1c-1 0-1.8.8-1.8 1.7 0 1 .8 1.7 1.8 1.7h27.3c1 0 1.8-.8 1.8-1.7s-.8-1.7-1.8-1.7z" fill="#d5d2dc"/><path d="M52.5 108.4H49c-1.1 0-2.2-.4-3.1-1.2-.8-.8-1.3-1.8-1.4-2.9l-.6-10V94c0-.1.1-.1.1-.2.1 0 .1-.1.2-.1h.3 12.2.2c.1 0 .1.1.2.1 0 0 .1.1.1.2v.3l-.6 10c0 1.1-.6 2.2-1.4 2.9-.5.7-1.7 1.2-2.7 1.2zm4.8-12.6l-.1 1.5c.8.1 1.4.6 1.8 1.1.5.6.7 1.3.7 2.1 0 .7-.4 1.4-.9 2s-1.2.9-2 .9l-.1 1.5c1.2 0 2.3-.5 3.1-1.3s1.4-1.9 1.4-3-.3-2.2-1-3.2c-.7-.8-1.7-1.4-2.9-1.6z" fill="#f23c49"/><path d="M51.6 91.2s-3-2.7-2.9-4.6c.1-3 2.9-4.2 1.9-7C50.1 78.3 48 74 48 74s3.4 3.3 4.7 5.4c1.1 1.9.9 4.8-.2 6.2-2.7 2.9-.9 5.6-.9 5.6z" fill="#d5d2dc"/><path d="M60.4 163.7c-1.2 0-2.3.3-3.3.9s-1.8 1.4-2.4 2.3c-.4.8-.6 1.8-.3 2.7.1.3.5 1.8 1.1 1.2 1.5-1.4 3.3-2.5 5.2-3.3 1-.2.9-3.8-.3-3.8zm5.4 6.3c-1.2 1.8-2.2 3.9-2.7 6-.2 1-.1 2 .2 2.9.2.5.8 1 1.3.4.6-.9.9-1.9 1.3-3l1.1-3a4.47 4.47 0 0 0 0-2.8c-.3-.4-.8-1.2-1.2-.5zm17.4-.4l4.9 4.5c.8.6 1.1-.3 1.2-1 .1-.9 0-2.5-.7-3.1l-4.9-4.1c-.7-.6-1 .3-1.1.9-.1.7 0 2.2.6 2.8zm-8.9 3.1c-.1 2.2.6 4.6 1.3 6.8.2.7.9 2 1.6 1s.6-2.7.3-3.8c-.2-.9-.6-1.8-.8-2.7-.3-.9-.5-2.1-1.3-2.8-.7-.8-1 1.2-1.1 1.5z" fill="#fdbc31"/><defs ><path id="B" d="M99.6 96.7H29c-1.1 0-1.9.8-1.9 1.9v12c0 1.1.9 1.9 1.9 1.9h70.6c1.1 0 1.9-.8 1.9-1.9v-12c0-1-.8-1.9-1.9-1.9z"/><path id="C" d="M23 156.6h-9.2c-1 0-1.8.8-1.8 1.7 0 1 .8 1.7 1.8 1.7H23c1 0 1.8-.8 1.8-1.7s-.8-1.7-1.8-1.7z"/></defs></svg>