<svg width="40" height="40" viewBox="0 0 40 40" fill="none" xmlns="http://www.w3.org/2000/svg">
<path d="M33.3332 20V36.6667H6.6665V20" stroke="#0AAD0A" stroke-width="2" stroke-linecap="round" stroke-linejoin="round"/>
<path d="M36.6668 11.6665H3.3335V19.9998H36.6668V11.6665Z" stroke="#0AAD0A" stroke-width="2" stroke-linecap="round" stroke-linejoin="round"/>
<path d="M20 36.6665V11.6665" stroke="#0AAD0A" stroke-width="2" stroke-linecap="round" stroke-linejoin="round"/>
<path d="M20.0002 11.6668H12.5002C11.3951 11.6668 10.3353 11.2278 9.55388 10.4464C8.77248 9.66504 8.3335 8.60523 8.3335 7.50016C8.3335 6.39509 8.77248 5.33529 9.55388 4.55388C10.3353 3.77248 11.3951 3.3335 12.5002 3.3335C18.3335 3.3335 20.0002 11.6668 20.0002 11.6668Z" stroke="#0AAD0A" stroke-width="2" stroke-linecap="round" stroke-linejoin="round"/>
<path d="M20 11.6668H27.5C28.6051 11.6668 29.6649 11.2278 30.4463 10.4464C31.2277 9.66504 31.6667 8.60523 31.6667 7.50016C31.6667 6.39509 31.2277 5.33529 30.4463 4.55388C29.6649 3.77248 28.6051 3.3335 27.5 3.3335C21.6667 3.3335 20 11.6668 20 11.6668Z" stroke="#0AAD0A" stroke-width="2" stroke-linecap="round" stroke-linejoin="round"/>
</svg>
