<svg xmlns="http://www.w3.org/2000/svg" width="48" height="48" fill="none" xmlns:v="https://vecta.io/nano"><g clip-path="url(#B)" fill="url(#A)"><path d="M1.875 18.75c1.036 0 1.875-.839 1.875-1.875S2.911 15 1.875 15 0 15.839 0 16.875.839 18.75 1.875 18.75z"/><path d="M46.125 18.75c1.036 0 1.875-.839 1.875-1.875S47.161 15 46.125 15s-1.875.839-1.875 1.875.84 1.875 1.875 1.875z"/><path d="M2.44 26.268c.939.438 2.054.032 2.492-.907s.032-2.054-.907-2.492-2.054-.032-2.492.907-.032 2.054.907 2.492z"/><path d="M43.069 8.387c-.438.939-.032 2.054.907 2.492s2.054.032 2.492-.907.032-2.054-.907-2.492-2.054-.032-2.492.907z"/><path d="M45.561 26.271c.939-.438 1.345-1.553.907-2.492s-1.553-1.345-2.492-.907-1.345 1.553-.907 2.492 1.553 1.345 2.492.907z"/><path d="M4.931 8.387c-.438-.939-1.553-1.345-2.492-.907s-1.345 1.553-.907 2.492 1.553 1.345 2.492.907 1.345-1.553.907-2.492z"/><path d="M25.875 42.375A1.88 1.88 0 0 1 24 44.25a1.88 1.88 0 0 1-1.875-1.875c0-1.034-.84-1.875-1.875-1.875s-1.875.839-1.875 1.875C18.375 45.477 20.898 48 24 48s5.625-2.523 5.625-5.625c0-1.036-.84-1.875-1.875-1.875s-1.875.839-1.875 1.875z"/><path d="M24 0C14.695 0 7.125 7.57 7.125 16.875c0 4.819 2.042 9.191 5.401 12.299 1.516 1.403 1.866 2.61 2.008 3.605.385 2.691 2.766 4.721 5.541 4.721h7.842c2.797 0 5.18-2.029 5.543-4.72.133-.985.476-2.184 2.014-3.606 2.492-2.306 4.21-5.248 4.968-8.51a16.75 16.75 0 0 0 .433-3.788C40.875 7.57 33.305 0 24 0zm12.79 19.814c-.588 2.528-1.924 4.813-3.862 6.607-1.865 1.726-2.877 3.587-3.183 5.857-.111.825-.914 1.472-1.827 1.472h-7.842c-.92 0-1.706-.645-1.828-1.501-.325-2.273-1.333-4.124-3.174-5.827-2.707-2.505-4.198-5.895-4.198-9.546C10.875 9.638 16.763 3.75 24 3.75s13.125 5.888 13.125 13.125c0 .994-.113 1.983-.335 2.939z"/><path d="M26.424 15.549L24 17.973l-2.424-2.424c-.732-.732-1.919-.732-2.652 0s-.732 1.919 0 2.652l3.201 3.201v2.973c0 1.036.839 1.875 1.875 1.875s1.875-.839 1.875-1.875v-2.973l3.201-3.201c.732-.732.732-1.919 0-2.652s-1.919-.732-2.652 0z"/></g><defs><linearGradient id="A" x1="0" y1="24.115" x2="48" y2="24.115" gradientUnits="userSpaceOnUse"><stop stop-color="#6366f1"/><stop offset=".5" stop-color="#8b5cf6"/><stop offset="1" stop-color="#d946ef"/></linearGradient><clipPath id="B"><path fill="#fff" d="M0 0h48v48H0z"/></clipPath></defs></svg>