<svg xmlns="http://www.w3.org/2000/svg" width="212" height="62" fill="none" xmlns:v="https://vecta.io/nano"><rect width="212" height="61" rx="30.5" fill="#6366f1"/><path d="M141.284 31.371c-.564.15-1.146.226-1.73.226-1.78 0-3.45-.692-4.705-1.947-1.674-1.673-2.333-4.139-1.72-6.436.076-.287-.006-.594-.216-.804s-.516-.295-.805-.215a8.34 8.34 0 0 0-3.741 2.152 8.35 8.35 0 0 0 0 11.786 8.28 8.28 0 0 0 5.893 2.442c2.226 0 4.319-.867 5.892-2.441 1.03-1.031 1.775-2.326 2.152-3.742.077-.288-.006-.594-.216-.804a.83.83 0 0 0-.804-.216zm-2.31 3.584a6.62 6.62 0 0 1-4.713 1.953c-1.781 0-3.455-.694-4.715-1.953a6.68 6.68 0 0 1 0-9.428 6.61 6.61 0 0 1 1.717-1.236c-.185 2.404.678 4.81 2.408 6.54a8.31 8.31 0 0 0 6.54 2.409c-.318.633-.736 1.213-1.237 1.716zM149.26 37h4.059l.666-.009c.33-.006.645-.03.945-.072 1.014-.132 1.866-.495 2.556-1.089.696-.6 1.221-1.359 1.575-2.277.354-.924.531-1.935.531-3.033 0-1.104-.177-2.115-.531-3.033-.354-.924-.879-1.683-1.575-2.277-.69-.6-1.542-.963-2.556-1.089-.3-.042-.615-.066-.945-.072l-.666-.009h-4.059V37zm1.926-1.791v-9.378h2.133l.72.018c.288.006.54.03.756.072.648.12 1.176.402 1.584.846.414.438.72.984.918 1.638.198.648.297 1.353.297 2.115 0 .738-.096 1.434-.288 2.088s-.495 1.206-.909 1.656c-.408.444-.942.729-1.602.855a5.08 5.08 0 0 1-.747.081l-.729.009h-2.133zm13.247 2.061c1.548 0 2.715-.561 3.501-1.683V37h1.665v-5.985l-.054-1.143a2.95 2.95 0 0 0-.288-1.008c-.3-.642-.774-1.11-1.422-1.404-.642-.3-1.398-.45-2.268-.45-1.122 0-2.022.246-2.7.738s-1.134 1.155-1.368 1.989l1.755.54c.168-.54.465-.93.891-1.17a2.81 2.81 0 0 1 1.404-.36c.756 0 1.302.162 1.638.486.342.318.528.813.558 1.485l-2.322.342c-.756.114-1.416.252-1.98.414-.75.24-1.32.597-1.71 1.071s-.585 1.077-.585 1.809c0 .528.123 1.014.369 1.458.252.438.621.792 1.107 1.062.492.264 1.095.396 1.809.396zm.333-1.539c-.6 0-1.044-.138-1.332-.414-.282-.276-.423-.603-.423-.981 0-.384.126-.687.378-.909.258-.222.579-.399.963-.531a12.01 12.01 0 0 1 1.44-.315l1.935-.297-.045.765c-.024.282-.075.534-.153.756-.072.318-.225.624-.459.918a2.6 2.6 0 0 1-.927.729c-.384.186-.843.279-1.377.279zm7.17 1.269h1.899v-4.905c0-.57.09-1.098.27-1.584s.498-.876.954-1.17c.324-.21.681-.333 1.071-.369s.741-.012 1.053.072V27.28c-.438-.084-.903-.081-1.395.009-.486.09-.912.27-1.278.54-.36.24-.66.573-.9.999V27.28h-1.674V37zm6.952 0h1.917v-4.68l4.068 4.68h2.556l-4.446-4.86 4.032-4.86h-2.394l-3.816 4.68v-7.92h-1.908L178.888 37z" fill="#fff"/><g filter="url(#A)"><rect x="8" y="8" width="100" height="45" rx="22.5" fill="#fff"/><path d="M29.828 30.5A4.18 4.18 0 0 0 34 34.673a4.18 4.18 0 0 0 4.172-4.173A4.18 4.18 0 0 0 34 26.328a4.18 4.18 0 0 0-4.172 4.172zM34 27.995a2.51 2.51 0 0 1 2.506 2.506A2.51 2.51 0 0 1 34 33.006a2.51 2.51 0 0 1-2.506-2.506A2.51 2.51 0 0 1 34 27.995zm-.835 8.339h1.667v2.5h-1.667v-2.5zm0-14.167h1.667v2.5h-1.667v-2.5zm-7.5 7.5h2.5v1.667h-2.5v-1.667zm14.167 0h2.5v1.667h-2.5v-1.667z" fill="#3e4265"/><path d="M27.517 35.804l1.767-1.768 1.179 1.178-1.767 1.768-1.179-1.178z" fill="#3e4265"/><path d="M37.533 25.786l1.768-1.768 1.179 1.178-1.768 1.768-1.178-1.178z" fill="#3e4265"/><path d="M29.285 26.966l-1.767-1.768 1.179-1.178 1.767 1.768-1.179 1.178z" fill="#3e4265"/><path d="M40.48 35.804l-1.178 1.178-1.768-1.768 1.178-1.178 1.768 1.768z" fill="#3e4265"/><path d="M49.44 37h7.749v-1.773h-5.868V24.04H49.44V37zm9.457-11.313h1.881V23.86h-1.881v1.827zm0 11.313h1.881v-9.72h-1.881V37zm8.445.27c.552 0 1.05-.084 1.494-.252.444-.162.837-.393 1.179-.693v.918c.012.834-.204 1.464-.648 1.89-.438.432-1.059.648-1.863.648-.432 0-.843-.096-1.233-.288s-.69-.495-.9-.909l-1.737.882c.396.69.942 1.215 1.638 1.575a4.69 4.69 0 0 0 2.214.549c1.134 0 2.082-.237 2.844-.711.762-.468 1.245-1.194 1.449-2.178.048-.228.081-.462.099-.702l.027-.738V27.28H70.24v.873a3.63 3.63 0 0 0-1.242-.837c-.48-.204-1.02-.306-1.62-.306-.912 0-1.701.225-2.367.675-.66.444-1.17 1.053-1.53 1.827-.36.768-.54 1.641-.54 2.619 0 .972.177 1.845.531 2.619.36.774.87 1.389 1.53 1.845.66.45 1.44.675 2.34.675zm.261-1.701c-.6 0-1.098-.153-1.494-.459s-.69-.717-.882-1.233c-.192-.522-.288-1.104-.288-1.746 0-.636.096-1.212.288-1.728.198-.516.498-.927.9-1.233s.915-.459 1.539-.459c.888 0 1.539.318 1.953.954s.621 1.458.621 2.466-.207 1.833-.621 2.475-1.086.963-2.016.963zM74.423 37h1.908v-5.058c0-.768.111-1.38.333-1.836.228-.462.528-.795.9-.999a2.52 2.52 0 0 1 1.233-.306c.516 0 .936.105 1.26.315a2.11 2.11 0 0 1 .747.828c.174.342.291.714.351 1.116.066.396.099.783.099 1.161V37h1.908v-5.4c0-.3-.027-.648-.081-1.044s-.156-.801-.306-1.215-.369-.795-.657-1.143c-.282-.354-.651-.639-1.107-.855s-1.02-.324-1.692-.324c-.702 0-1.326.126-1.872.378-.54.252-.987.6-1.341 1.044V24.04h-1.683V37zm16.645 0v-1.593c-.636.096-1.191.117-1.665.063-.468-.06-.81-.273-1.026-.639-.114-.198-.177-.441-.189-.729l-.009-1.017v-4.293h2.889V27.28h-2.889v-2.7h-1.89v2.7h-1.863v1.512h1.863v4.383l.018 1.422c.018.414.132.822.342 1.224a2.19 2.19 0 0 0 1.053.99c.462.21.987.324 1.575.342s1.185-.033 1.791-.153z" fill="#3e4265"/></g><defs><filter id="A" x="1.492" y="3.119" width="113.017" height="58.017" filterUnits="userSpaceOnUse" color-interpolation-filters="sRGB"><feFlood flood-opacity="0" result="A"/><feColorMatrix in="SourceAlpha" values="0 0 0 0 0 0 0 0 0 0 0 0 0 0 0 0 0 0 127 0"/><feOffset dy="1.62712"/><feGaussianBlur stdDeviation="3.254"/><feColorMatrix values="0 0 0 0 0.223529 0 0 0 0 0.270588 0 0 0 0 0.352941 0 0 0 0.3 0"/><feBlend in2="A"/><feBlend in="SourceGraphic"/></filter></defs></svg>