<svg xmlns="http://www.w3.org/2000/svg" xmlns:xlink="http://www.w3.org/1999/xlink" viewBox="0 0 416 400" xmlns:v="https://vecta.io/nano"><style><![CDATA[.B{fill:#454056}.C{fill:#efecf3}.D{fill:#1f1b2d}.E{fill:#fff}.F{fill:#d3735d}.G{fill:#d5d2dc}.H{fill:#bbb7c5}.I{fill:#fdbc31}.J{fill:#666276}]]></style><path d="M294.73 191.23h54.683v-87.806H294.73v87.806z" class="E"/><path d="M280.71 144.66h11.268v-6.582H280.71v6.582z" class="G"/><path d="M69.211 247.64c.356 5.373-.335 10.764-2.035 15.874-.796 2.367-1.795 4.661-2.986 6.857-1.493 2.853-3.033 5.564-2.967 8.779.295.228-.761.114-.77-.2-8.149-5.507-19.017-7.238-24.96-15.684-2.852-3.994-4.013-8.883-4.393-13.705-.409-5.25-.181-11.014 1.55-16.026 1.455-4.233 4.307-8.208 8.558-10.016s9.841-1.255 14.149.457c9.271 3.7 13.217 14.343 13.854 23.664z" class="C"/><path d="M68.718 311.09l-2.624-11.889c-1.75-7.761-3.604-15.503-5.705-23.169a345.75 345.75 0 0 0-4.079-13.667 78.66 78.66 0 0 1 1.654-8.17c.951-3.244 2.244-6.363 3.461-9.512.076-.19-.238-.323-.333-.142-2.263 4.308-5.201 9.825-5.705 15.094-1.702-5.117-3.547-10.187-5.572-15.218a62.96 62.96 0 0 1 1.322-12.193c.001-.034-.01-.067-.031-.094s-.049-.047-.082-.056a.16.16 0 0 0-.173.074 43.57 43.57 0 0 0-1.664 10.719 183.43 183.43 0 0 0-4.992-11.157c-.162-.333-.618-.047-.485.276 2.729 6.42 5.211 12.945 7.512 19.545-3.664-3.704-7.997-6.68-12.77-8.769-.209-.095-.39.2-.181.305a48.83 48.83 0 0 1 13.721 10.69 422.97 422.97 0 0 1 4.64 14.571c-4.916-5.612-11.943-9.616-18.855-12.003-.238-.076-.333.285-.105.371 7.978 3.091 13.968 8.218 19.759 14.267l1.673 5.935 5.819 22.617 2.567 10.909c.894 3.919 1.521 8.028 2.786 11.832.124.371.761.333.713-.095a110.92 110.92 0 0 0-2.273-11.071zm-8.694-71.67c-1.697 2.208-2.941 4.729-3.661 7.419 0 .066.086.123.114.047a67.24 67.24 0 0 1 3.908-7.247c.152-.238-.2-.428-.361-.219zm-16.58 16.6a22.35 22.35 0 0 0-7.445-3.167c-.066 0-.124.085 0 .114 1.189.608 2.453 1.065 3.661 1.636l3.613 1.797c.046.006.093-.004.133-.027a.22.22 0 0 0 .106-.236.22.22 0 0 0-.068-.117zm-2.634-21.71a15.64 15.64 0 0 0-2.339-1.712c-.028-.017-.061-.023-.093-.017s-.061.024-.081.05-.03.058-.028.09.016.063.04.086a15.98 15.98 0 0 0 2.301 1.76c.152.104.352-.143.2-.257z" class="G"/><path d="M95.558 264.12l-18.703 4.604c-.532.143-10.155-20.202-6-30.322 3.803-9.378 12.076-16.168 21.689-19.022 4.45-1.322 9.898-2.368 14.5-1.16 4.089 1.075 6.875 4.565 8.063 8.503 1.617 5.345.761 11.613-.437 16.958-.988 5.028-3.262 9.713-6.599 13.601-3.413 3.747-7.664 5.612-12.513 6.838z" class="C"/><path d="M105.21 245.53c-3.962 1.75-8.058 3.181-12.247 4.28a50.4 50.4 0 0 0-8.168 2.606c2.853-5.706 5.905-11.261 9.147-16.758 4.022-.999 8.273-2.635 11.411-5.327.028-.029.044-.068.046-.109s-.011-.082-.036-.114-.062-.054-.102-.062-.082-.001-.118.019c-3.366 2.188-7.036 3.434-10.725 4.86l2.662-4.432c.247-.409-.314-.846-.609-.456-3.416 4.575-6.529 9.369-9.318 14.352-.487-4.481-.522-8.999-.105-13.487-.006-.019-.018-.036-.035-.047s-.036-.018-.056-.018-.04.006-.056.018-.028.028-.035.047a44.92 44.92 0 0 0-.428 14.79 165.27 165.27 0 0 0-6.399 12.964c-.599-2.711-1.407-5.393-1.902-8.123-.797-3.912-.954-7.927-.466-11.889 0-.114-.152-.133-.181 0a41.86 41.86 0 0 0 1.731 21.876 194.79 194.79 0 0 0-3.223 7.98 161.54 161.54 0 0 0-9.832 42.324c.003.063.028.124.072.17a.27.27 0 0 0 .165.082c.063.007.126-.009.179-.045s.09-.089.107-.15A211.76 211.76 0 0 1 77.5 269.032c1.997-5.298 4.25-10.462 6.656-15.446 3.68-.951 7.35-2.254 10.973-3.348 3.61-.937 7.043-2.457 10.165-4.499.013-.018.021-.039.024-.062s-.001-.045-.009-.066a.14.14 0 0 0-.04-.053c-.018-.015-.039-.024-.061-.028zm5.96-5.57c-3.804 1.189-7.446 2.92-11.258 4.138-.181.057-.095.332.086.304 4.013-.666 8.006-1.741 11.315-4.223.124-.095-.009-.266-.142-.219zm-30.396-9.32c0-.2-.238-.323-.304-.124-1.17 3.434-2.025 7.086-1.16 10.672 0 .143.257.152.266 0 .323-3.576.257-7.057 1.198-10.548zm15.862-7.41c-1.289 1.669-1.961 3.732-1.902 5.84 0 .133.209.219.247.057.532-1.969 1.369-3.747 2.054-5.649.007-.05-.001-.1-.022-.145s-.055-.083-.097-.109a.25.25 0 0 0-.141-.038c-.05.001-.098.016-.139.044z" class="G"/><path d="M115.15 278.32c-1.807 5.706-6.095 13.648-12.885 13.715-4.402 0-8.833-.485-13.254-.543-4.754-.076-9.508-.066-14.177.219-.39 0 .57-14.162 11.924-21.067 3.185-1.902 7.074-2.549 10.688-3.329 4.135-.977 8.379-1.418 12.627-1.312 2.605.104 4.754.656 5.705 3.329s.238 6.258-.627 8.988z" class="C"/><path d="M110.26 271.15l-8.31 2.407c.72-.786 1.482-1.532 2.282-2.235 1.198-.952 2.501-1.779 3.803-2.645.105-.076 0-.285-.095-.228-2.689 1.117-5.012 2.965-6.703 5.336-3.452 1.113-6.875 2.34-10.165 3.69a37.71 37.71 0 0 0-6.504 3.434 25.62 25.62 0 0 1 2.349-4.1c1.512-1.959 3.547-3.043 5.524-4.432.031-.028.051-.065.057-.107s-.002-.083-.023-.119-.054-.063-.093-.077a.18.18 0 0 0-.121-.001 16.16 16.16 0 0 0-5.441 3.873 16.17 16.17 0 0 0-3.412 5.743 36.9 36.9 0 0 0-6.447 5.849c-7.521 8.56-13.436 19.897-13.455 31.491 0 .276.437.362.495.067a64.27 64.27 0 0 1 14.339-30.797 35.82 35.82 0 0 1 1.654-1.798 52.01 52.01 0 0 1 6.209-.466c2.415 0 4.821.362 7.227.552 3.965.323 8.349.371 11.924-1.627.161-.085.057-.361-.124-.294-7.968 2.901-16.335-.78-24.332.951a37.45 37.45 0 0 1 11.791-7.609l.732-.295c5.116.618 10.526 1.95 15.508.285.143-.047.086-.275-.067-.228-4.82 1.198-9.432-.314-14.186-.552 5.173-2.016 10.459-3.623 15.641-5.621.409-.171.419-.57-.057-.447zm2.31 5.04c-2.473.32-4.961.507-7.454.561-.057 0-.076.095 0 .104a15.49 15.49 0 0 0 7.511-.475c.026-.008.047-.025.059-.048s.015-.051.008-.076a.1.1 0 0 0-.124-.066zm-16.879-4.92c-1.377.617-2.626 1.488-3.68 2.568a.15.15 0 0 0 .181.238l1.902-1.303a18.26 18.26 0 0 0 1.797-1.132c.19-.142.01-.437-.2-.371z" class="G"/><path d="M55.586 289.73c.076.19-.19.361-.295.161-.021.031-.047.057-.078.076s-.066.033-.102.038a113.06 113.06 0 0 1-13.854 2.416c-3.756.333-8.092.542-11.41-1.636-4.46-2.958-7.388-10.861-4.982-15.874 2.852-5.963 11.41-2.729 15.746-.608 6.642 3.232 11.941 8.691 14.976 15.427z" class="C"/><g class="G"><path d="M58.913 292.48a44.27 44.27 0 0 0-8.282-6.287 28.45 28.45 0 0 0-8.425-8.56c-.162-.104-.304.152-.152.267a37.67 37.67 0 0 1 7.074 7.447 77.59 77.59 0 0 0-10.393-4.756c-1.278-2.369-3.217-4.315-5.581-5.602 0 0-.105.048-.057.076a22.94 22.94 0 0 1 5.04 5.298 170.11 170.11 0 0 0-6.38-2.226c-.19-.066-.257.229-.076.295 3.803 1.484 7.673 3.053 11.41 4.851a43.91 43.91 0 0 1-13.844 0c-.025-.004-.051.001-.073.015s-.037.035-.044.059-.005.051.006.074.03.042.054.052c4.788 1.412 9.872 1.488 14.7.218a70.31 70.31 0 0 1 6.97 3.9 17.49 17.49 0 0 0-5.639.466c-3.234.738-6.543 1.099-9.86 1.075-.124 0-.162.199 0 .218 5.705.952 11.172-1.616 16.868-.951a45.24 45.24 0 0 1 5.924 4.841c3.548 3.554 6.473 7.679 8.653 12.203 2.396 4.879 3.689 10.053 5.629 15.094.013.047.043.087.085.111s.092.03.138.018.086-.044.11-.085.031-.092.018-.139c-1.683-9.929-6.637-20.896-13.873-27.972zM41.59 278.86a6.5 6.5 0 0 0-1.464-1.789 5.84 5.84 0 0 0-1.721-1.274c-.057 0-.086.057-.057.095.475.542 1.132.951 1.636 1.446s.951 1.113 1.455 1.617c.013.02.033.034.056.04a.09.09 0 0 0 .068-.012c.02-.012.035-.033.04-.056s.001-.047-.011-.067z"/><path d="M32.118 281.94c-.846-.219-1.75-.2-2.615-.381a20.99 20.99 0 0 1-2.539-.761c-.025-.009-.052-.008-.076.002s-.044.03-.055.054-.012.051-.004.076.026.046.049.058a8.43 8.43 0 0 0 5.239 1.218.14.14 0 0 0 .091-.133c0-.029-.009-.057-.025-.081s-.039-.042-.066-.052zM86.231 303l-4.117 46.566H53.988L48.844 303h37.388z"/></g><path d="M86.231 303l-.941 10.643H50.013L48.843 303h37.388z" class="H"/><path d="M89.018 300.1h-42.96v8.636h42.96V300.1z" class="G"/><g class="C"><path d="M251.29 47.084h-30.322v7.362h30.322v-7.362z"/><path d="M239.8 65.927V35.596h-7.36v30.331h7.36zM85.26 65.08H54.937v7.362H85.26V65.08zm-15.158-4.129a3.681 3.681 0 1 0 0-7.362 3.681 3.681 0 1 0 0 7.362zm0 22.969a3.681 3.681 0 1 0 0-7.362 3.681 3.681 0 1 0 0 7.362zM148.67 0l-21.441 21.447 5.204 5.205 21.441-21.447L148.67 0z"/><path d="M153.87 21.453L132.429.006l-5.204 5.205 21.441 21.447 5.204-5.205zM54.323 150.87H24v7.362h30.323v-7.362zm0-13.67H24v7.362h30.323V137.2zM409.53 380.58c0 10.728-84.417 19.422-188.56 19.422-104.15 0-188.56-8.694-188.56-19.422s84.417-19.422 188.56-19.422c104.15 0 188.56 8.741 188.56 19.422z"/></g><path d="M27.926 349.39l48.265-.228 144.777-.238L414 349.39l-48.256.238-144.776.237-144.777-.237-48.265-.238z" class="D"/><path d="M361.89 81.824h-169.3c-6.302 0-11.41 5.11-11.41 11.413v275.94c0 6.303 5.108 11.413 11.41 11.413h169.3c6.302 0 11.41-5.11 11.41-11.413V93.237c0-6.303-5.108-11.413-11.41-11.413z" class="E"/><path d="M361.89 82.49h-169.3a10.75 10.75 0 0 0-10.745 10.748v275.94a10.75 10.75 0 0 0 10.745 10.747h169.3a10.75 10.75 0 0 0 10.745-10.747V93.238A10.75 10.75 0 0 0 361.89 82.49zm-169.3-.666h169.3c6.302 0 11.41 5.11 11.41 11.413v275.94c0 6.303-5.108 11.413-11.41 11.413h-169.3c-6.302 0-11.41-5.11-11.41-11.413V93.237c0-6.303 5.108-11.413 11.41-11.413z" fill-rule="evenodd" class="D"/><g class="C"><path d="m229.21 158.05h-29.512c-2.052 0-3.715 1.662-3.715 3.713v29.524c0 2.051 1.663 3.714 3.715 3.714h29.512c2.051 0 3.714-1.663 3.714-3.714v-29.524c0-2.051-1.663-3.713-3.714-3.713z"/><use xlink:href="#B"/></g><g class="I"><use xlink:href="#B" x="41.87"/><path d="m354.78 158.05h-29.512c-2.051 0-3.714 1.662-3.714 3.713v29.524c0 2.051 1.663 3.714 3.714 3.714h29.512c2.051 0 3.714-1.663 3.714-3.714v-29.524c0-2.051-1.663-3.713-3.714-3.713z"/></g><g class="B"><use xlink:href="#C"/><use xlink:href="#D"/><use xlink:href="#D" x="41.87"/></g><use xlink:href="#E" class="C"/><g class="B"><use xlink:href="#C" y="42.38"/><use xlink:href="#D" y="42.38"/><use xlink:href="#D" x="41.87" y="42.38"/></g><path d="m354.78 242.81h-29.512c-2.051 0-3.714 1.662-3.714 3.713v29.524c0 2.051 1.663 3.713 3.714 3.713h29.512c2.051 0 3.714-1.662 3.714-3.713v-29.524c0-2.051-1.663-3.713-3.714-3.713z" class="C"/><g class="B"><path d="m229.21 285.19h-29.512c-2.052 0-3.715 1.663-3.715 3.714v29.524c0 2.05 1.663 3.713 3.715 3.713h29.512c2.051 0 3.714-1.663 3.714-3.713v-29.524c0-2.051-1.663-3.714-3.714-3.714z"/><use xlink:href="#F"/><use xlink:href="#F" x="41.87"/></g><use xlink:href="#E" y="84.5" class="C"/><g class="B"><path d="m229.21 327.57h-29.512c-2.052 0-3.715 1.663-3.715 3.714v29.523c0 2.051 1.663 3.714 3.715 3.714h29.512c2.051 0 3.714-1.663 3.714-3.714v-29.523c0-2.051-1.663-3.714-3.714-3.714z"/><use xlink:href="#G"/></g><g class="C"><use xlink:href="#G" x="41.87"/><path d="m354.78 327.57h-29.512c-2.051 0-3.714 1.663-3.714 3.714v29.523c0 2.051 1.663 3.714 3.714 3.714h29.512c2.051 0 3.714-1.663 3.714-3.714v-29.523c0-2.051-1.663-3.714-3.714-3.714z"/></g><path d="M208.96 172.93a2.6 2.6 0 0 1 .149-1.031 2.58 2.58 0 0 1 .543-.89c.239-.257.527-.463.848-.605a2.59 2.59 0 0 1 1.018-.222c.347.004.689.079 1.006.22s.602.345.837.599.418.554.534.881.165.674.143 1.02a2.61 2.61 0 0 1-.691 1.925 2.61 2.61 0 0 1-.848.607c-.321.143-.668.22-1.019.226-.347-.006-.69-.082-1.006-.224s-.602-.346-.838-.602a2.57 2.57 0 0 1-.533-.882c-.116-.328-.165-.675-.143-1.022zm3.709 0c0-.856-.495-1.569-1.189-1.569s-1.151.713-1.151 1.541c0 .884.495 1.569 1.189 1.569s1.151-.713 1.151-1.541zm-1.902 7.181l7.065-9.644c.053-.089.13-.162.223-.211a.57.57 0 0 1 .3-.065c.079-.001.158.013.232.043a.59.59 0 0 1 .197.129c.057.056.102.122.133.196a.61.61 0 0 1 .046.231.71.71 0 0 1-.133.4l-7.065 9.644c-.059.086-.139.156-.232.205s-.196.072-.3.071a.59.59 0 0 1-.231-.043.6.6 0 0 1-.196-.13.57.57 0 0 1-.129-.196c-.03-.073-.045-.151-.043-.23-.01-.14.024-.279.095-.4h.038zm4.754-1.674a2.6 2.6 0 0 1 .149-1.031c.119-.331.303-.633.542-.89a2.59 2.59 0 0 1 1.867-.827c.346.005.688.081 1.004.222a2.58 2.58 0 0 1 .836.6 2.56 2.56 0 0 1 .534.879c.117.326.166.673.146 1.019a2.62 2.62 0 0 1-.148 1.031 2.6 2.6 0 0 1-.54.89c-.238.258-.525.465-.845.608a2.6 2.6 0 0 1-1.016.229 2.58 2.58 0 0 1-1.884-.805 2.56 2.56 0 0 1-.55-.889c-.121-.331-.173-.684-.152-1.036h.057zm3.708 0c0-.856-.494-1.569-1.179-1.569s-1.16.713-1.16 1.541c0 .884.495 1.569 1.189 1.569s1.093-.713 1.093-1.541h.057z" class="B"/><path d="M288.81 175.5c.028-1.478.634-2.887 1.688-3.924a5.65 5.65 0 0 1 3.951-1.621 5.71 5.71 0 0 1 3.556 1.208c.165.149.268.355.288.577s-.044.442-.18.619a.88.88 0 0 1-.551.332c-.219.038-.445-.009-.631-.13a3.86 3.86 0 0 0-2.482-.846 4.08 4.08 0 0 0-2.767 1.103c-.714.71-1.118 1.675-1.122 2.682a3.72 3.72 0 0 0 .29 1.45c.193.46.476.875.832 1.223.749.706 1.738 1.103 2.767 1.113a3.88 3.88 0 0 0 2.482-.847c.19-.124.418-.175.643-.146a.95.95 0 0 1 .738.954.95.95 0 0 1-.307.59 5.76 5.76 0 0 1-3.556 1.199 5.62 5.62 0 0 1-3.956-1.61c-1.055-1.036-1.66-2.447-1.683-3.926zm12.33 4.69v-9.074a.85.85 0 0 1 .059-.327.83.83 0 0 1 .183-.277c.079-.079.174-.141.278-.183a.81.81 0 0 1 .326-.059h5.021a.85.85 0 0 1 .546.279c.141.157.22.361.22.572a.86.86 0 0 1-.22.573c-.141.157-.336.256-.546.278h-4.165v2.854h3.585c.227 0 .445.09.605.25a.86.86 0 0 1 .251.606c0 .227-.09.444-.251.605s-.378.251-.605.251h-3.585v2.853h4.165a.87.87 0 0 1 .846.866c-.005.222-.095.435-.253.593a.87.87 0 0 1-.593.253h-4.982c-.121.007-.242-.011-.354-.055s-.215-.111-.299-.198a.84.84 0 0 1-.232-.66zm34.09-4.69c.028-1.478.634-2.887 1.688-3.924a5.65 5.65 0 0 1 3.951-1.621 5.71 5.71 0 0 1 3.556 1.208c.165.149.268.355.288.577s-.044.442-.18.619a.88.88 0 0 1-.551.332c-.219.038-.445-.009-.631-.13a3.88 3.88 0 0 0-2.482-.846 4.08 4.08 0 0 0-2.767 1.103c-.714.71-1.118 1.675-1.122 2.682a3.72 3.72 0 0 0 .29 1.45c.193.46.476.875.832 1.223.749.706 1.738 1.103 2.767 1.113.9.013 1.777-.286 2.482-.847.19-.124.418-.175.643-.146a.95.95 0 0 1 .738.954.95.95 0 0 1-.307.59c-1.019.784-2.27 1.205-3.556 1.199a5.62 5.62 0 0 1-3.956-1.61c-1.055-1.036-1.66-2.447-1.683-3.926zm-117.41 39.16l-3.803 9.092a.81.81 0 0 1-.78.514c-.111 0-.221-.023-.323-.067-.205-.088-.368-.252-.455-.458a.86.86 0 0 1-.011-.645l3.328-7.894h-3.975a.87.87 0 0 1-.597-.263c-.157-.161-.247-.377-.249-.603s.089-.439.248-.598.374-.248.598-.248h5.278a.43.43 0 0 1 .152 0 1.35 1.35 0 0 1 .323.124v.047s.048 0 .057.057.048.048.067.067 0 .047 0 .057v.076l.057.086v.076c.005.025.005.051 0 .076a.98.98 0 0 1 0 .333.46.46 0 0 1 .085.171zm41.85 5.91a3.68 3.68 0 0 1-1.786 3.166c-.546.328-1.168.509-1.805.524a3.69 3.69 0 0 1-3.765-3.514c-.028-.636.109-1.269.398-1.837a3.68 3.68 0 0 1 1.253-1.402 2.54 2.54 0 0 1-.468-1.093c-.067-.396-.04-.803.081-1.186a2.55 2.55 0 0 1 .612-1.02c.282-.287.627-.502 1.009-.629s.787-.161 1.184-.101.775.215 1.101.45.591.544.775.902.279.753.28 1.155a2.49 2.49 0 0 1-.514 1.522c.505.336.919.791 1.206 1.326a3.68 3.68 0 0 1 .439 1.737zm-1.683 0c0-.528-.207-1.034-.577-1.409a2 2 0 0 0-1.401-.598 2.02 2.02 0 0 0-1.419.59c-.377.375-.591.884-.596 1.417.007.529.223 1.033.601 1.404a2 2 0 0 0 1.414.574 1.98 1.98 0 0 0 1.978-1.978zm-2.852-4.585c0 .23.091.45.253.612a.86.86 0 0 0 .612.254c.229 0 .449-.091.612-.254s.253-.382.253-.612c-.002-.223-.092-.437-.25-.595a.85.85 0 0 0-.596-.251.87.87 0 0 0-.342.058.89.89 0 0 0-.292.188c-.083.082-.15.18-.194.288s-.067.224-.066.341l.01-.029zm39.115 1.235a3.74 3.74 0 0 1 1.053-2.527c.658-.679 1.548-1.083 2.492-1.131a3.74 3.74 0 0 1 3.9 3.278v.875a8.85 8.85 0 0 1-.542 3.148 5.36 5.36 0 0 1-1.987 2.634 4.36 4.36 0 0 1-2.301.723c-.113.005-.225-.012-.331-.05s-.203-.097-.286-.173-.15-.168-.197-.27a.85.85 0 0 1-.08-.325c-.003-.225.082-.443.236-.608a.87.87 0 0 1 .591-.276 2.85 2.85 0 0 0 1.446-.438c.4-.275.726-.644.95-1.074a2.62 2.62 0 0 0 .2-.4c-.464.204-.967.308-1.474.304-.973-.012-1.902-.405-2.588-1.095a3.72 3.72 0 0 1-1.082-2.595zm1.712 0c-.019.277.019.555.112.817s.238.501.428.704a2.02 2.02 0 0 0 2.96 0c.19-.203.336-.442.429-.704s.131-.54.112-.817c-.035-.512-.264-.992-.639-1.342s-.869-.545-1.382-.545-1.007.195-1.382.545-.603.83-.638 1.342z" class="E"/><path d="M336.72 219.17c0-.252.1-.494.278-.673a.95.95 0 0 1 .673-.278h4.754a.95.95 0 0 1 .701.918.95.95 0 0 1-.701.917h-4.754c-.242.001-.474-.09-.65-.254s-.284-.39-.301-.63z" class="B"/><path d="M218.57 263.52c0 .112-.023.224-.067.328a.83.83 0 0 1-.188.277.84.84 0 0 1-.281.182.83.83 0 0 1-.33.059h-.152v1.17a.85.85 0 0 1-.248.599c-.158.158-.374.247-.598.247s-.44-.089-.598-.247a.85.85 0 0 1-.248-.599v-1.208h-4.84a.73.73 0 0 1-.523-.19.82.82 0 0 1-.22-.246.81.81 0 0 1-.105-.313.83.83 0 0 1 .182-.621l5.705-7.076v-.066c.028.005.056.003.082-.005s.051-.023.071-.043l.057-.047c.057-.048 0 0 .095 0s0-.048.057-.048h.095c.021.008.045.008.066 0h.257a.11.11 0 0 0 .076 0h.152l.086.057.076.048c.076.047 0 0 0 0h.047l.067.066v.057c.027.021.049.047.067.076-.008.022-.008.045 0 .067.006.028.006.057 0 .086v.066c.01.028.01.058 0 .086v6.344h.152c.127-.024.259-.018.384.017s.24.098.337.184a.85.85 0 0 1 .223.313c.05.12.071.25.064.38zm-2.71-4.651l-3.062 3.804h3.062v-3.804zm42.48.981a3.8 3.8 0 0 1 .832 1.243 3.81 3.81 0 0 1 .29 1.468 3.87 3.87 0 0 1-1.122 2.71 3.81 3.81 0 0 1-1.234.83c-.462.192-.957.292-1.457.293a3.72 3.72 0 0 1-1.45-.291 3.73 3.73 0 0 1-1.222-.832c-.084-.08-.15-.175-.195-.282a.84.84 0 0 1-.069-.336c0-.115.023-.23.069-.336a.86.86 0 0 1 .195-.282c.163-.161.384-.251.613-.251a.87.87 0 0 1 .613.251c.192.196.42.351.672.458a2.04 2.04 0 0 0 .797.161 2.06 2.06 0 0 0 .797-.161c.252-.106.481-.262.673-.458.389-.385.611-.908.618-1.455 0-.551-.219-1.079-.607-1.47a2.08 2.08 0 0 0-2.268-.462c-.254.103-.486.255-.682.448-.08.081-.176.145-.281.189a.88.88 0 0 1-.332.066.88.88 0 0 1-.332-.066c-.105-.044-.201-.108-.281-.189-.067-.057-.105-.133-.171-.2s0-.047 0-.047c.008-.025.008-.052 0-.076v-.105a.63.63 0 0 1 0-.266l.466-3.985c.017-.123.06-.24.125-.345a.88.88 0 0 1 .255-.264h.104a.94.94 0 0 1 .4-.095h4.545a.87.87 0 0 1 .362.038c.116.038.223.1.314.182s.164.182.214.294a.87.87 0 0 1 0 .712c-.05.112-.122.212-.214.294s-.198.144-.314.182a.87.87 0 0 1-.362.038h-3.803l-.191 1.522c.339-.086.687-.131 1.037-.133.961-.004 1.889.356 2.596 1.008zm43.38 2.8c-.017.946-.391 1.85-1.048 2.53s-1.548 1.087-2.493 1.136a3.74 3.74 0 0 1-2.597-.869c-.725-.608-1.192-1.468-1.307-2.407v-.875a9.08 9.08 0 0 1 .532-3.149c.372-1.063 1.067-1.984 1.988-2.634a4.4 4.4 0 0 1 2.31-.723.84.84 0 0 1 .329.051.83.83 0 0 1 .284.173c.083.076.149.168.196.27s.072.212.076.324a.9.9 0 0 1-.238.61c-.154.166-.364.267-.59.284a2.76 2.76 0 0 0-1.445.428 3.25 3.25 0 0 0-.951 1.075c-.076.123-.133.266-.199.399.464-.204.966-.307 1.473-.304.972.015 1.899.407 2.586 1.094a3.74 3.74 0 0 1 1.094 2.587zm-1.711 0c.019-.277-.02-.555-.112-.817a2.02 2.02 0 0 0-2.716-1.18 2.02 2.02 0 0 0-.673.475c-.19.203-.336.443-.428.705a2.03 2.03 0 0 0-.113.817c.036.512.264.991.639 1.342a2.02 2.02 0 0 0 1.382.545c.513 0 1.007-.195 1.382-.545a2.03 2.03 0 0 0 .639-1.342z" class="E"/><path d="M337.05 261.76a.8.8 0 0 1-.799-.799.8.8 0 0 1 .799-.799h6.218a.8.8 0 0 1 .799.799.8.8 0 0 1-.799.799h-6.218zm4.164-4.042v.076c-.025.264-.147.509-.343.687s-.452.278-.717.278a1.06 1.06 0 0 1-.716-.278c-.196-.178-.319-.423-.344-.687v-.076a1.07 1.07 0 0 1 .344-.688c.196-.178.451-.277.716-.277s.521.099.717.277.318.424.343.688zm0 6.41v.086c-.025.264-.147.509-.343.687s-.452.278-.717.278a1.06 1.06 0 0 1-.716-.278c-.196-.178-.319-.423-.344-.687v-.086c.025-.264.148-.509.344-.687a1.06 1.06 0 0 1 .716-.277c.265 0 .521.098.717.277s.318.423.343.687z" class="B"/><path d="M216.07 298.83v9.083a.85.85 0 0 1-.069.327c-.044.103-.108.197-.188.276a.88.88 0 0 1-.28.182c-.104.042-.216.063-.328.062a.87.87 0 0 1-.324-.062.83.83 0 0 1-.455-.46.82.82 0 0 1-.058-.325v-7.609l-.618.352c-.127.083-.276.126-.428.124a.86.86 0 0 1-.509-.177.85.85 0 0 1-.303-.446.86.86 0 0 1 .024-.539c.066-.172.185-.318.341-.417l1.902-1.132h.057s.047 0 .076-.047h.152a.22.22 0 0 1 .114 0h.162c.021.008.045.008.066 0h.095c.019-.008.039-.008.057 0 0 0 .067.047.096.047l.057.048.066.047c.025.012.046.032.057.057v.057l.067.067v.2a.48.48 0 0 0 0 .076.16.16 0 0 0 0 .114l.171.095zm43.65 9.08c.001.112-.02.223-.062.326s-.104.197-.183.276-.173.141-.276.183-.214.063-.325.062h-5.477c-.118.001-.235-.023-.343-.071a.85.85 0 0 1-.285-.205c-.153-.167-.234-.387-.225-.614s.107-.44.273-.594l4.555-4.118a1.99 1.99 0 0 0 .6-1.016c.093-.391.065-.801-.08-1.176a1.99 1.99 0 0 0-.734-.925c-.332-.226-.725-.347-1.127-.345a2.06 2.06 0 0 0-1.341.504l-.475.437a.85.85 0 0 1-1.144-.115c-.142-.158-.221-.363-.22-.575a.86.86 0 0 1 .223-.575l.475-.428c.679-.616 1.565-.956 2.482-.951.516.001 1.026.11 1.497.32s.895.515 1.241.898a3.63 3.63 0 0 1 .951 2.482 3.72 3.72 0 0 1-.319 1.498 3.71 3.71 0 0 1-.898 1.241l-2.9 2.625h3.271a.86.86 0 0 1 .846.856zm40.59-5.69c.357.351.641.77.834 1.232a3.75 3.75 0 0 1 .288 1.46 3.81 3.81 0 0 1-2.343 3.554c-.7.291-1.471.367-2.214.216a3.8 3.8 0 0 1-1.957-1.06.87.87 0 0 1 0-1.226c.163-.163.383-.255.613-.255a.87.87 0 0 1 .614.255c.192.192.42.344.672.447a2.05 2.05 0 0 0 .792.152 2.12 2.12 0 0 0 1.474-.599 2.07 2.07 0 0 0 .459-.68c.106-.255.16-.528.159-.804s-.052-.542-.158-.792a1.98 1.98 0 0 0-.46-.663 2.06 2.06 0 0 0-.67-.456 2.07 2.07 0 0 0-.794-.163.74.74 0 0 1-.347-.062.75.75 0 0 1-.281-.213.87.87 0 0 1-.189-.282.88.88 0 0 1-.066-.332.88.88 0 0 1 .066-.332c.044-.105.108-.201.189-.281l1.569-1.598h-2.491a.87.87 0 0 1-.334-.07c-.106-.046-.202-.111-.282-.193a.89.89 0 0 1-.187-.286.9.9 0 0 1-.063-.336.87.87 0 0 1 .066-.33c.044-.104.108-.199.188-.278a.85.85 0 0 1 .281-.185c.105-.043.218-.064.331-.063h4.535c.151-.001.298.037.43.11s.241.179.318.308.121.275.125.425a.87.87 0 0 1-.103.432 1.81 1.81 0 0 1-.152.218l-1.901 1.998a3.39 3.39 0 0 1 .989.732z" class="E"/><path d="M342.68 302.42l-1.901 2.53 1.825 2.54a.79.79 0 0 1 .148.582.8.8 0 0 1-.3.521c-.143.105-.316.165-.494.171a1.01 1.01 0 0 1-.675-.342l-1.455-2.102-1.54 2.102c-.076.099-.172.181-.282.241s-.231.093-.356.101a.84.84 0 0 1-.484-.171c-.086-.06-.159-.136-.214-.225s-.093-.187-.109-.29a.77.77 0 0 1 .015-.31c.026-.101.073-.196.136-.278l1.845-2.54-1.864-2.53c-.063-.081-.109-.174-.135-.274s-.03-.204-.014-.305.053-.199.108-.286a.74.74 0 0 1 .213-.219c.084-.064.18-.11.282-.136a.8.8 0 0 1 .312-.017c.104.015.205.051.295.105s.17.125.233.21l1.54 2.063 1.531-2.063a.86.86 0 0 1 .553-.312c.217-.03.437.024.616.15a.78.78 0 0 1 .309.507c.032.203-.017.41-.138.577z" class="B"/><path d="M215.08 348.97c.305.002.596.124.811.339a1.16 1.16 0 0 1 .34.811 1.15 1.15 0 0 1-1.151 1.142c-.15.001-.299-.028-.438-.084a1.12 1.12 0 0 1-.371-.248 1.13 1.13 0 0 1-.247-.371c-.057-.139-.086-.288-.085-.439a1.15 1.15 0 0 1 1.141-1.15zm36.77-3.21c-.019-1.303.345-2.582 1.046-3.681a3.24 3.24 0 0 1 1.192-1.243c.502-.3 1.076-.458 1.661-.458s1.158.158 1.66.458a3.25 3.25 0 0 1 1.192 1.243 7.09 7.09 0 0 1 1.027 3.676c0 1.297-.355 2.568-1.027 3.677-.275.517-.686.949-1.189 1.251a3.23 3.23 0 0 1-1.663.461 3.24 3.24 0 0 1-2.853-1.712c-.699-1.096-1.063-2.372-1.046-3.672zm6.076 0a5.1 5.1 0 0 0-.741-2.739c-.139-.266-.342-.493-.591-.659a1.78 1.78 0 0 0-.836-.292 1.9 1.9 0 0 0-.847.297c-.255.166-.467.39-.617.654a5.39 5.39 0 0 0 0 5.459c.15.264.362.488.617.654s.545.267.847.298a1.82 1.82 0 0 0 .833-.297c.248-.166.452-.391.594-.655a5.09 5.09 0 0 0 .741-2.72z" class="E"/><path d="M294.91 344.62a.95.95 0 0 1 .951-.894h4.754c.117 0 .233.023.341.068a.88.88 0 0 1 .288.194.89.89 0 0 1 .256.632.88.88 0 0 1-.062.341.87.87 0 0 1-.192.29c-.082.083-.181.148-.289.191a.87.87 0 0 1-.342.062h-4.754c-.121.008-.243-.009-.357-.05s-.22-.105-.309-.187-.16-.183-.209-.294a.9.9 0 0 1-.076-.353zm0 2.853c0-.252.1-.494.279-.672s.42-.279.672-.279h4.754c.202.055.38.174.506.34a.95.95 0 0 1 .196.578c0 .209-.069.412-.196.577a.95.95 0 0 1-.506.341h-4.754a.95.95 0 0 1-.951-.894v.009zm44.37-.913h-2.187a.85.85 0 0 1-.846-.846.87.87 0 0 1 .253-.593.86.86 0 0 1 .593-.253h2.187v-2.131c-.002-.116.018-.231.061-.339a.88.88 0 0 1 .189-.289.87.87 0 0 1 .625-.257c.233.003.455.097.619.263s.256.389.256.622v2.131h2.187a.86.86 0 0 1 .593.253.87.87 0 0 1 .253.593.85.85 0 0 1-.846.846h-2.187v2.14c0 .233-.092.455-.256.619s-.387.257-.619.257a.86.86 0 0 1-.336-.065.84.84 0 0 1-.285-.189.86.86 0 0 1-.19-.285.88.88 0 0 1-.064-.337v-2.14zM261.6 171.3c0 .174-.069.341-.192.464s-.29.192-.464.192h-1.902c-.808 2.235-2.852 8.085-3.299 9.739-.07.198-.184.377-.333.524-.125.106-.282.167-.447.171a.81.81 0 0 1-.618-.267s-2.054-2.006-2.691-2.72c-.951-1.008-.523-1.483-.39-1.569.112-.072.239-.115.371-.124.209.021.41.097.58.219l.666.694a10.6 10.6 0 0 0 .551.562l.523.532.59.59c.485-1.56 2.653-7.685 3.233-9.216.049-.081.11-.155.18-.219a.69.69 0 0 1 .224-.166.65.65 0 0 1 .271-.062h2.453c.089-.006.179.008.263.038a.64.64 0 0 1 .378.358.66.66 0 0 1 .053.26z" class="B"/><path d="M350.51 97.632H203.98c-4.418 0-8 3.582-8 8v22.9a8 8 0 0 0 8 8h146.53a8 8 0 0 0 8-8v-22.9c0-4.418-3.582-8-8-8z" class="J"/><path d="M285.13 109.29v15.151a1.43 1.43 0 0 1-.428 1c-.269.263-.631.41-1.008.407a1.38 1.38 0 0 1-.542-.102c-.172-.069-.328-.173-.459-.304s-.235-.288-.304-.46-.105-.356-.102-.541V111.81l-1.027.599a1.32 1.32 0 0 1-.723.2 1.43 1.43 0 0 1-1.348-1.048c-.083-.296-.069-.611.04-.898a1.44 1.44 0 0 1 .566-.698l3.157-1.902s.076 0 .105-.048.076-.057.123-.076h.153c.033-.013.071-.013.104 0 .06-.014.121-.014.181 0h.38c.059.001.115.021.162.057h.095c.019 0 .105.076.162.076.023.035.056.061.095.076 0 0 .085.057.104.086s.076.076.105.095c.03.031.055.067.076.105l.104.104v.133c0 .029.058.076.058.124v.124c-.003.044-.003.088 0 .133-.005.032-.003.064.005.095s.022.06.042.086l.124.057zm14.86 15.16a1.38 1.38 0 0 1-.102.542c-.069.172-.173.328-.304.459a1.39 1.39 0 0 1-.459.305c-.172.07-.356.104-.542.102h-9.157a1.36 1.36 0 0 1-.579-.117c-.182-.08-.345-.199-.476-.349a1.42 1.42 0 0 1 .076-1.998l7.607-6.886a3.2 3.2 0 0 0 .815-1.111 3.19 3.19 0 0 0 .269-1.352c.001-.824-.3-1.619-.846-2.235-.313-.344-.695-.618-1.121-.803a3.29 3.29 0 0 0-1.352-.272 3.38 3.38 0 0 0-2.225.847l-.798.723c-.138.126-.3.224-.476.287a1.39 1.39 0 0 1-.549.081c-.187-.009-.37-.056-.539-.137a1.43 1.43 0 0 1-.443-.336c-.25-.281-.38-.649-.361-1.025s.187-.729.466-.982l.799-.713c1.123-1.037 2.598-1.608 4.126-1.598.863.001 1.715.182 2.503.533a6.17 6.17 0 0 1 2.071 1.502c1.031 1.126 1.598 2.601 1.588 4.128a6.19 6.19 0 0 1-.53 2.501 6.2 6.2 0 0 1-1.495 2.074l-4.85 4.385h5.468a1.41 1.41 0 0 1 .548.11c.174.073.332.18.464.315a1.43 1.43 0 0 1 .305.469c.07.175.103.363.099.551zm13.28-9.45a6.24 6.24 0 0 1 1.408 2.05 6.25 6.25 0 0 1 .493 2.439 6.37 6.37 0 0 1-7.612 6.264c-1.237-.246-2.374-.854-3.265-1.746-.136-.135-.244-.295-.317-.471s-.112-.365-.112-.557a1.43 1.43 0 0 1 .112-.556 1.46 1.46 0 0 1 .317-.471c.273-.269.642-.42 1.026-.42s.754.151 1.027.42c.319.321.699.575 1.117.748a3.4 3.4 0 0 0 1.318.26 3.52 3.52 0 0 0 2.462-1.008c.328-.321.587-.704.764-1.127s.266-.878.263-1.336a3.34 3.34 0 0 0-.261-1.324 3.32 3.32 0 0 0-.766-1.111c-.317-.325-.695-.583-1.113-.759s-.867-.268-1.321-.268c-.2.01-.4-.027-.583-.108a1.29 1.29 0 0 1-.472-.358c-.135-.134-.241-.294-.314-.469a1.44 1.44 0 0 1-.11-.554c0-.19.038-.378.11-.553s.179-.335.314-.469l2.614-2.673h-4.155c-.364-.029-.704-.195-.952-.464s-.385-.621-.385-.986a1.46 1.46 0 0 1 1.337-1.451h7.607a1.44 1.44 0 0 1 1.284 1.351c-.005.242-.067.48-.181.694a1.87 1.87 0 0 1-.257.362l-3.233 3.338A5.71 5.71 0 0 1 313.27 115zm19.66 6.09c0 .187-.037.373-.11.545a1.42 1.42 0 0 1-.312.461c-.134.131-.293.234-.467.303a1.42 1.42 0 0 1-.547.099h-.228v1.959c0 .378-.15.741-.418 1.009s-.63.418-1.008.418a1.43 1.43 0 0 1-1.427-1.427v-1.959h-8.082c-.319.011-.631-.098-.875-.305a1.38 1.38 0 0 1-.364-.415c-.092-.162-.15-.34-.172-.525a1.37 1.37 0 0 1 .048-.551c.053-.179.141-.344.26-.487l9.556-11.86a.34.34 0 0 0 .076-.105c.052-.011.098-.037.133-.076 0 0 .076 0 .095-.076.049-.031.105-.048.162-.048 0-.057.048-.076.095-.076s.076 0 .162-.057.076 0 .095 0h.437c.044.013.09.013.133 0 0 0 .105 0 .153.057h.104c.048.057.105.076.124.105l.133.076s.085 0 .085.047l.096.105c.028.033.053.068.076.105a.51.51 0 0 1 .104.123c.005.041.026.079.057.105 0 .057 0 .076.048.152s0 .076 0 .105a.39.39 0 0 1 0 .152v10.595h.257c.196-.013.394.015.579.082a1.44 1.44 0 0 1 .498.307c.143.135.256.3.333.482a1.42 1.42 0 0 1 .111.575zm-4.517-7.752l-5.106 6.335h5.106v-6.335zM345.72 115c.603.587 1.082 1.29 1.409 2.066a6.27 6.27 0 0 1 .492 2.452c-.006.836-.177 1.663-.503 2.434a6.39 6.39 0 0 1-1.398 2.055 6.3 6.3 0 0 1-2.052 1.404c-.771.326-1.599.496-2.436.498h-.057a6.21 6.21 0 0 1-2.423-.498c-.766-.327-1.459-.804-2.037-1.404a1.39 1.39 0 0 1-.332-.467 1.4 1.4 0 0 1-.117-.56c0-.193.04-.384.117-.561a1.39 1.39 0 0 1 .332-.467c.272-.269.64-.419 1.022-.419a1.46 1.46 0 0 1 1.023.419 3.44 3.44 0 0 0 1.123.761 3.45 3.45 0 0 0 1.33.267c.456 0 .908-.091 1.33-.267a3.44 3.44 0 0 0 1.123-.761 3.5 3.5 0 0 0 1.027-2.434c.001-.456-.088-.907-.261-1.328a3.46 3.46 0 0 0-.75-1.127c-.321-.322-.703-.578-1.124-.753a3.45 3.45 0 0 0-1.326-.264 3.47 3.47 0 0 0-2.472.951 1.42 1.42 0 0 1-1.023.428 1.43 1.43 0 0 1-1.022-.428c-.104-.095-.181-.228-.285-.333s0-.076 0-.076c.016-.04.016-.084 0-.124v-.237c-.019-.142-.019-.286 0-.428l.77-6.658c.072-.414.304-.783.647-1.027h.104c.029 0 .048 0 .076-.048a1.38 1.38 0 0 1 .666-.162h7.607a1.45 1.45 0 0 1 1.028.427c.273.273.427.643.427 1.029s-.154.756-.427 1.029a1.45 1.45 0 0 1-1.028.426h-6.476l-.304 2.539c.561-.154 1.14-.234 1.721-.237a6.24 6.24 0 0 1 2.43.489c.769.323 1.466.797 2.049 1.394z" class="E"/><path d="M306.84 85.921l-.38.095c.01-.044.034-.084.067-.114l.313.019z" class="D"/><path d="M317.78 360.7h-.171v-.123l.171.123z" class="I"/><path d="M114.74 90.6c1.654 12.232 10.764 41.269 17.562 43.124 6.333 1.712 34.164-6.582 37.749-12.108 1.902-2.958 9.508-30.122 6.114-28.533-4.298 2.045-35.819 17.985-37.083 17.662-2.739-.685-8.073-11.47-12.694-17.5-10.079-13.106-12.418-8.351-11.648-2.644z" class="F"/><path d="M133.75 102.75l-14.263 13.077s-5.049-18.679-5.619-27.325 6.494-7.675 19.882 14.248z" class="D"/><path d="M79.472 223.92s-13.797 23.483-29.039 12.821 2.158-31.653 2.158-31.653l26.881 18.832z" fill="#ff98b9"/><path d="m51.983 205.92 26.877 18.881 110.03-156.71-26.876-18.88-110.03 156.71z" class="D"/><path d="m51.983 205.92 26.877 18.881 110.03-156.71-26.876-18.88-110.03 156.71z" class="I"/><path d="M49.13 205.18l31.382 22.046 4.372-6.227-31.382-22.045-4.372 6.226zm4.844-6.88l31.382 22.045 4.372-6.227-31.382-22.045-4.372 6.227z" class="B"/><path d="M162.02 49.208l23.666-12.203 7.797-4.061-1.112 8.75-3.471 26.45-5.467 1.997.085-5.773-5.467 1.988.086-5.773-5.401 2.035v-5.811l-5.401 2.035v-5.821l-5.315 1.997v-5.811z" class="G"/><path d="M185.68 36.968l7.797-4.061-1.122 8.75-6.675-4.689z" class="B"/><path d="M89.285 196.32l20.605-30.055 20.843-29.893 21.033-29.76 10.592-14.828 10.688-14.761-10.26 15.066-10.345 14.999-20.852 29.894-21.043 29.75-21.261 29.589zm-7.433-4.37l20.605-30.055 20.842-29.903 21.043-29.751 10.592-14.827 10.678-14.761-10.25 15.056-10.355 14.999-20.843 29.903-21.042 29.751-21.27 29.589zm-7.438-4.36l20.605-30.065 20.843-29.893 21.042-29.751 10.593-14.828 10.716-14.771-10.251 15.066-10.354 14.999-20.833 29.893-21.043 29.761-21.318 29.589z" opacity=".1" class="E"/><g class="F"><path d="M175.06 91.086c.513 4.061 3.29 9.806 2.691 12.792a3.5 3.5 0 0 1-1.013 1.945 3.49 3.49 0 0 1-1.973.956s2.396 2.368 1.407 4.984c-.504 1.351-3.109 1.722-3.109 1.722.515.566.865 1.263 1.009 2.015s.078 1.529-.191 2.246c-.808 1.807-3.29 1.902-3.29 1.902s.875 2.72-.542 4.308c-2.853 3.205-19.093-2.102-19.645-8.893-.256-3.167 3.633-1.655 3.633-1.655s-5.069-3.528-4.061-6.895 5.943-1.103 5.943-1.103-4.878-3.462-3.48-6.848 6-.409 6-.409-2.853-3.624-1.141-5.973c2.748-3.881 7.797 3.804 11.638 4.099l3.889-5.231 2.235.038z"/><path d="M176.64 97.258c-.162-3.89 5.534-6.762 5.924-10.462.523-5.06-6.314-2.169-9.737 4.308l-1.778 5.497 5.591.656z"/></g><path d="M170.2 119.75c.057 0 0 .095 0 .086-5.986-.442-11.697-2.694-16.373-6.458-.143-.124 0-.419.18-.314a60.52 60.52 0 0 0 16.193 6.686zm2.94-6.21c.057 0 0 .123 0 .123a27.74 27.74 0 0 1-17.458-8.179c-.152-.172-.123-.485.067-.305 3.3 3.072 12.019 7.105 17.391 8.361zm-14.93-15.844c4.583 4.565 10.174 7.19 16.298 9.074.085 0 0 .133 0 .133-3.243-.105-7.027-1.712-9.861-3.206-2.657-1.342-4.919-3.355-6.56-5.839-.096-.105.038-.266.123-.162z" class="D"/><path d="M180.96 385.94c-2.178.704-64.335-.105-66.683-1.636-.951-.57-1.312-9.635-1.493-20.601v-.342l-.076-6.953v-.951l.171-32.262 41.581.419-1.55 39.832v.685s23.657 10.947 26.053 12.907 4.174 8.208 1.997 8.902z" class="F"/><path d="M180.97 385.94c-2.177.704-64.335-.105-66.683-1.636-.951-.57-1.312-9.635-1.493-20.601v-.342l-.076-6.953v-.951l40.497.114-.048 1.265-.247 6.61v.685s23.657 10.947 26.053 12.907 4.174 8.208 1.997 8.902z" class="C"/><path d="M180.96 385.94c-1.35.438-25.425.295-44.281-.237-11.771-.324-21.498-.809-22.402-1.398s-1.302-9.378-1.483-20.145v-.808l40.107.076v.684s23.657 10.948 26.053 12.907 4.184 8.227 2.006 8.921z" class="B"/><path d="M180.29 383.52c-10.459-.4-52.753-.952-63.146-.59-.076 0-.076.066 0 .066 10.374.619 52.668.875 63.146.695.219-.01.219-.162 0-.171z" fill="#f5f4f8"/><path d="M136.68 385.7c-11.771-.324-21.498-.809-22.402-1.398s-1.302-9.378-1.483-20.145L136.68 385.7z" class="B"/><path d="M100.37 144.08l10.849 113.08c.352 1.826.571 11.755.713 24.519v82.1h43.816s-1.17-91.05-3.11-107.07L138.3 144.079h-37.93z" class="J"/><path d="M153.77 356.14c-6.837-.142-4.878-.19-11.715-.256-3.347 0-25.34-.229-28.459.285-.014.005-.027.015-.036.028s-.013.028-.013.043.005.031.013.044a.09.09 0 0 0 .036.028c3.129.523 25.112.323 28.459.294l11.715-.266c.124 0 .124-.19 0-.2zm-33.37-53.78l-.143-19.07c-.047-6.163 0-12.364-.332-18.47-.59-12.46-3.119-24.729-4.916-37.017s-3.29-24.729-4.65-37.094l-4.298-41.687c0-.086-.152-.086-.143 0 2.064 24.805 4.365 49.61 7.797 74.272l2.853 18.366c1.017 6.192 2.035 12.365 2.52 18.633s.561 12.269.618 18.404l.19 19.022.276 53.966c0 .266.428.257.428 0l-.2-49.325z" class="D"/><path d="M91.129 144.08l20.091 113.08c.352 1.826.571 11.755.714 24.519l20.918-137.64-41.723.038z" class="B"/><path d="M129.4 389.65c-2.225.542-64.164-4.66-66.398-6.363-.856-.628-.628-9.701 0-20.658v-.342l.418-6.934c0-.323 0-.647.057-.951l2.453-32.167 41.438 3.367-4.365 39.624-.066.675s22.82 12.602 25.074 14.723 3.575 8.484 1.388 9.026z" class="F"/><path d="M129.4 389.65c-2.225.542-64.164-4.661-66.398-6.363-.856-.628-.628-9.702 0-20.659v-.342l.418-6.933c0-.324 0-.647.057-.952l40.383 2.977-.133 1.265-.723 6.582-.066.675s22.82 12.603 25.074 14.724 3.575 8.483 1.388 9.026z" class="C"/><path d="M129.4 389.65c-2.225.542-64.164-4.661-66.398-6.363-.856-.628-.628-9.702 0-20.658v-.343l40.002 2.92-.066.675s22.82 12.603 25.074 14.724 3.575 8.503 1.388 9.045z" class="B"/><path d="M128.9 387.18c-10.459-1.132-52.554-4.756-62.946-5.06-.086 0-.086.057 0 .067 10.298 1.35 52.468 4.603 62.927 5.164.228.01.238-.152.019-.171z" fill="#f5f4f8"/><path d="M104.72 364.65l-43.739-1.855 11.458-104.52c.58-15.323 10.754-114.24 10.754-114.24h53.466s-3.376 22.827-9.147 37.312a67.73 67.73 0 0 0-11.135 5.108l-3.385 77.287c-.418 16.121-8.272 100.9-8.272 100.9z" class="J"/><g class="D"><path d="M103.55 356.63c-6.817-.428-4.859-.399-11.686-.761-3.338-.171-25.302-1.293-28.45-.903-.066 0-.076.123 0 .133 3.109.656 25.084 1.388 28.43 1.503l11.705.228c.016.005.033.006.049.003s.031-.009.045-.019.023-.022.031-.037.011-.031.011-.047-.004-.033-.011-.047-.018-.028-.031-.037a.12.12 0 0 0-.045-.019c-.016-.003-.033-.002-.049.003zM87.108 149.91l-6.295 74.709c-2.273 24.891-11.41 110.77-13.54 124.6 0 .095.124.133.143 0 4.412-24.596 6.979-57.647 9.746-82.48s5.011-49.724 7.017-74.615l3.242-42.267c.019-.153-.295-.143-.314.057zm42.312 30.46c-4.517 1.651-8.882 3.691-13.046 6.097-.035.016-.063.046-.076.083s-.012.077.005.112.046.063.082.076.077.012.113-.005c4.412-1.902 8.909-3.699 13.207-5.839a.3.3 0 0 0 .119-.405.3.3 0 0 0-.178-.143c-.075-.022-.157-.013-.226.024zm1.41-30.28c0-.153-.286-.191-.286 0a147.52 147.52 0 0 1-.732 14.742c-.209 2.273-2.035 14.837-5.981 13.924-.656-.162-.951-.808-1.093-1.797.014-1.301.19-2.595.523-3.852.437-2.635.789-5.27 1.008-7.923.463-4.947.412-9.929-.152-14.866-.008-.028-.025-.053-.048-.071s-.052-.027-.081-.027-.057.01-.08.027-.04.043-.048.071c.115 6.856-.285 13.71-1.198 20.506-.495 3.272-2.14 8.189 1.274 8.693s5.705-7.723 6.152-9.977c1.088-6.424 1.338-12.962.742-19.45z"/><path d="M123.98 179.06c-.348.85-.643 1.72-.885 2.606a5.7 5.7 0 0 0-.361 2.14c0 .133.19.152.266.057.419-.643.739-1.345.951-2.083l.884-2.416c.041-.113.034-.238-.017-.347s-.145-.193-.258-.233-.239-.034-.347.018a.45.45 0 0 0-.233.258z"/></g><path d="M79.926 162.55c.143.162 62.918-1.398 63.479-2.064.77-.951-16.279-65.408-20.833-74.976-1.902-4.071-12.038-5.079-16.165-1.493-10.459 8.988-18.722 39.147-20.586 48.221-3.128 14.989-6.437 29.779-5.895 30.312z" fill="#9691a4"/><path d="M113.46 104.36c.275.646.454 1.329.532 2.026a8.12 8.12 0 0 1-1.569-3.804 7.28 7.28 0 0 1 1.037 1.778zm5.011 24.368a7.61 7.61 0 0 0 .532 2.026 7.24 7.24 0 0 0 1.037 1.816c-.083-.693-.262-1.372-.533-2.016-.259-.654-.608-1.268-1.036-1.826zm5.876 28.476c.083.694.262 1.372.533 2.016a7.25 7.25 0 0 0 1.036 1.826 8.03 8.03 0 0 0-1.569-3.804v-.038zm-27.441-35.61a6.92 6.92 0 0 0 .532 2.026c.252.653.598 1.265 1.027 1.817-.186-1.381-.723-2.691-1.559-3.805v-.038zm-9.917 17.976c.186 1.381.723 2.691 1.559 3.805a7.22 7.22 0 0 0-.523-2.026c-.262-.638-.611-1.236-1.036-1.779zm24.209 11.29a8.15 8.15 0 0 0 1.559 3.805c-.073-.696-.253-1.376-.532-2.017a7.23 7.23 0 0 0-1.027-1.788zm19.968-32.528c.079.697.258 1.38.532 2.026a7.2 7.2 0 0 0 1.027 1.817 7.2 7.2 0 0 0-.523-2.026c-.247-.649-.583-1.26-.998-1.817h-.038zm-26.757-4.48a7.16 7.16 0 0 0 2.016-.532 7.23 7.23 0 0 0 1.825-1.027 6.9 6.9 0 0 0-2.025.532 7.21 7.21 0 0 0-1.778 1.027h-.038zm-6.656 22.646c.697-.081 1.379-.261 2.025-.532.654-.26 1.268-.609 1.826-1.037a8.11 8.11 0 0 0-3.804 1.569h-.048zm1.902 25.68h1.112l.428-.161a7.65 7.65 0 0 0 1.826-1.037 8.56 8.56 0 0 0-3.367 1.227v-.029zm24.322-20.553a8.03 8.03 0 0 0 3.804-1.57 8.03 8.03 0 0 0-3.804 1.57zm-18.703-47.556a8.02 8.02 0 0 0 3.803-1.569c-1.382.184-2.693.725-3.803 1.569zm-5.753 3.082c-.433.551-.788 1.159-1.055 1.807a7.11 7.11 0 0 0-.552 2.016 7.06 7.06 0 0 0 1.055-1.807c.286-.639.481-1.314.58-2.007l-.028-.01zm-9.661 28.876a7.05 7.05 0 0 0-1.055 1.807 7.45 7.45 0 0 0-.561 2.016c.435-.549.791-1.158 1.055-1.807.288-.639.486-1.314.59-2.007l-.028-.009zm-.428 26.355c-.431.553-.786 1.16-1.055 1.807a7.62 7.62 0 0 0-.552 2.016 7.05 7.05 0 0 0 1.055-1.807 7.44 7.44 0 0 0 .58-2.007l-.028-.009zm31.483-37.388c-.431.554-.783 1.165-1.046 1.816a7.08 7.08 0 0 0-.561 2.017c.435-.55.79-1.158 1.055-1.807.281-.645.467-1.328.552-2.026zm-10.146 23.264c-.859 1.106-1.413 2.418-1.607 3.804.429-.554.783-1.161 1.056-1.807.274-.637.459-1.309.551-1.997zm24.361 10.719a7.09 7.09 0 0 0-1.056 1.807c-.281.642-.469 1.321-.561 2.016a7.06 7.06 0 0 0 1.056-1.807c.279-.643.468-1.321.561-2.016zm-14.491-54.213c-.433.549-.785 1.158-1.046 1.807a7.14 7.14 0 0 0-.561 2.016 8.02 8.02 0 0 0 1.607-3.804v-.019zm7.607 14.095c-.552-.433-1.159-.788-1.807-1.056a7.09 7.09 0 0 0-2.016-.551c.548.437 1.157.793 1.807 1.055s1.343.432 2.044.504l-.028.048zm-26.995 40.089a7.41 7.41 0 0 0-1.807-1.055c-.643-.279-1.321-.468-2.016-.562a8.15 8.15 0 0 0 3.803 1.617h.019zm33.993-16.235a8.01 8.01 0 0 0-3.803-1.607c.553.428 1.161.783 1.806 1.055.637.274 1.309.46 1.997.552zM92.37 109.496c.475.334.985.615 1.521.837a7.44 7.44 0 0 0 2.016.561 7.24 7.24 0 0 0-1.807-1.055c-.537-.232-1.098-.401-1.674-.504a1.08 1.08 0 0 0-.057.161zm28.316 40.299a7.4 7.4 0 0 0-1.806-1.056c-.642-.283-1.321-.472-2.016-.561.547.439 1.155.795 1.807 1.056a7.43 7.43 0 0 0 2.015.561zm-8.31-26.08c-.549-.435-1.158-.791-1.807-1.055-.641-.283-1.32-.472-2.015-.562a7.04 7.04 0 0 0 1.806 1.056c.642.281 1.321.47 2.016.561z" class="E"/><path d="M119.38 94.681c-3.594.571-9.984-5.792-12.047-10.339-.143-.314.561-3.443 1.227-7.276.399-2.33.789-4.936.951-7.343 0-.495 1.645.542 1.645.542l3.042.951 10.089 3.272c-1.083 2.939-1.805 5.999-2.149 9.112-.027.316-.027.635 0 .951v.171c.219 1.969.713 9.406-2.758 9.958z" class="F"/><path d="M122.18 84.628v.171c-.516.042-1.034.042-1.55 0-10.126-.951-10.459-13.981-10.459-13.981l3.993.475 10.089 3.272c-1.083 2.939-1.805 5.998-2.149 9.112a5.61 5.61 0 0 0 .076.951z" class="D"/><path d="M108.21 53.536c-1.76 5.326.713 20.858 4.44 24.396 5.41 5.127 14.434 5.811 18.836-.732 4.26-6.334.685-26.526-3.499-29.76-6.152-4.727-17.182-1.75-19.777 6.097z" class="F"/><g class="D"><path d="M123.2 63.932s-.076.067-.066.105c.2 1.046.247 2.273-.647 2.758v.057c1.151-.361 1.065-1.959.713-2.92z"/><path d="M122.08 62.981c-1.702.133-1.312 3.529.266 3.414s1.179-3.519-.266-3.414zm7.07.076s.085 0 .085.076c.095 1.056.371 2.254 1.36 2.492v.067c-1.179-.038-1.531-1.626-1.445-2.635z"/><path d="M129.96 61.848c1.683-.323 2.206 3.053.647 3.357s-2.044-3.091-.647-3.357zm-9.37-.266a12.63 12.63 0 0 0 1.255-.618 2.25 2.25 0 0 0 1.17-.865.71.71 0 0 0 .043-.464.72.72 0 0 0-.252-.392 1.78 1.78 0 0 0-.908-.249c-.32 0-.634.086-.908.249-.607.246-1.1.711-1.379 1.303-.063.139-.084.294-.058.445a.77.77 0 0 0 .59.624.77.77 0 0 0 .447-.033zm10.5-1.598a11.49 11.49 0 0 1-1.398-.152 2.22 2.22 0 0 1-1.379-.466c-.108-.119-.172-.272-.183-.432a.71.71 0 0 1 .126-.452c.214-.236.488-.409.792-.503a1.78 1.78 0 0 1 .939-.029c.653.048 1.264.34 1.711.818.081.114.13.248.141.387s-.017.279-.079.404a.77.77 0 0 1-.67.426zm-8.19 13.477c.285.219.57.523.95.514.388-.052.761-.185 1.094-.39 0 0 .076 0 .057.047a1.43 1.43 0 0 1-1.274.723 1.14 1.14 0 0 1-.604-.273 1.13 1.13 0 0 1-.347-.564c-.008-.016-.008-.035-.002-.052s.019-.031.035-.038.035-.008.052-.002.031.019.039.035zm.75-3.28a3.59 3.59 0 0 0 2.567 1.322 4.49 4.49 0 0 0 1.293-.086 1.05 1.05 0 0 0 .248-.057l.228-.067c.054-.017.101-.051.134-.098s.049-.103.046-.159a.37.37 0 0 0 0-.105v-.095c-.066-.808-.285-2.035-.285-2.035.314.114 1.902.628 1.826.2a53.5 53.5 0 0 0-2.634-10.681.09.09 0 0 0-.035-.047c-.016-.012-.035-.018-.055-.018s-.04.006-.056.018-.028.028-.035.047c.447 3.367 1.493 6.658 2.007 10.006a6.51 6.51 0 0 0-1.75-.314c-.114.048.466 2.359.466 2.72-.65.139-1.322.147-1.975.022a4.98 4.98 0 0 1-1.828-.745c-.162.019-.238.095-.162.171z"/><path d="M126.99 71.055c-.377.629-.911 1.15-1.55 1.512-.35.194-.754.267-1.15.209-.866-.124-.951-.894-.894-1.569.041-.361.127-.716.257-1.056a5.53 5.53 0 0 0 3.337.903z"/></g><path d="M125.44 72.568c-.35.194-.754.267-1.15.209-.866-.124-.951-.894-.894-1.569.444-.035.886.08 1.257.326s.648.611.787 1.034z" fill="#ff98b9"/><path d="M131.02 54.268c-4.973 3.719-12.19-1.294-12.19-1.294-.391 1.136-1.137 2.115-2.129 2.792s-2.177 1.015-3.377.964c0 0-.646 8.703-2.928 8.788-3.48.124-5.049-11.651-4.041-14.019s3.927-3.082 3.927-3.082c.265-1.422 1.06-2.69 2.225-3.548 2.291-1.902 10.602.19 10.602.19a7.61 7.61 0 0 1 1.977-2.92c.212-.2.461-.354.734-.455s.563-.145.853-.131a2.16 2.16 0 0 1 .837.214c.262.127.495.305.686.525a5.13 5.13 0 0 0-.742 2.169c-.304 2.559 1.759 2.473 1.645.171a3.54 3.54 0 0 0-.903-2.34c.951-1.541 2.605-2.102 3.66-1.341 1.893 1.389 3.3 10.224-.836 13.316z" class="D"/><path d="M111.22 66.224s-3.48-5.012-5.752-3.804.332 8.503 2.995 9.511a2.71 2.71 0 0 0 2.124.051c.339-.135.647-.337.907-.594a2.72 2.72 0 0 0 .601-.903l-.875-4.261z" class="F"/><path d="M106.27 64.512c-.047 0-.047.057 0 .076 1.902.761 2.853 2.492 3.537 4.29a1.5 1.5 0 0 0-.437-.469c-.177-.124-.379-.207-.592-.246a1.51 1.51 0 0 0-.64.022c-.21.053-.406.15-.575.285-.047 0 0 .105.057.095.328-.104.68-.103 1.007.003a1.65 1.65 0 0 1 .819.587c.346.461.639.958.875 1.484.085.171.39.086.333-.114.019-2.425-1.826-5.764-4.384-6.011z" class="D"/><g class="C"><path d="M122.34 211l-24.36-25.423 43.986-19.393 24.361 25.423L122.34 211z"/><path d="m124.01 212.74-24.37-25.423 43.986-19.393 24.37 25.423-43.986 19.393z"/></g><g class="H"><path d="M146.21 170.63a3.1 3.1 0 0 1-2.367.18c-.362-.114-.105-.485.247-.361a2.3 2.3 0 0 0 1.54-.067l.238-.114a1.72 1.72 0 0 0 .656-.552.6.6 0 0 0 .086-.361v-.105a.44.44 0 0 0-.181-.161c-.144-.074-.304-.113-.466-.114a2.34 2.34 0 0 0-.589.076c-.095 0-.191 0-.295.066h-.209l-.343-.361a3.74 3.74 0 0 1 .951-.257c.271-.053.549-.046.817.02a1.9 1.9 0 0 1 .733.36c.137.144.214.335.214.533s-.077.389-.214.533c-.205.299-.488.535-.818.685z"/><path d="M148.12 172.62a3.13 3.13 0 0 1-2.377.19c-.361-.124-.105-.495.247-.371a2.33 2.33 0 0 0 1.55-.067c.081-.028.157-.066.228-.114.268-.12.498-.311.666-.551.066-.109.096-.235.086-.362v-.047a.48.48 0 0 0-.191-.172.94.94 0 0 0-.466-.104c-.195-.008-.391.014-.58.066-.095 0-.19.048-.294.067h-.209l-.352-.361a3.69 3.69 0 0 1 .951-.257 1.91 1.91 0 0 1 1.559.38.78.78 0 0 1 .21.533c0 .198-.075.388-.21.532a2.04 2.04 0 0 1-.818.638z"/><path d="M150.02 174.61a3.15 3.15 0 0 1-2.368.181c-.361-.124-.104-.485.247-.371a2.36 2.36 0 0 0 1.541-.057l.238-.114a1.67 1.67 0 0 0 .656-.561.48.48 0 0 0 .085-.352l-.047-.057c-.038-.075-.103-.133-.181-.162-.143-.077-.303-.117-.466-.114a1.89 1.89 0 0 0-.58.066l-.295.076h-.218l-.343-.361c.305-.127.624-.213.951-.257a1.91 1.91 0 0 1 .817.02 1.9 1.9 0 0 1 .733.361.77.77 0 0 1 .218.537c0 .201-.078.394-.218.537-.204.267-.468.482-.77.628z"/><path d="M151.94 176.6a3.13 3.13 0 0 1-2.377.18c-.362-.114-.105-.485.247-.361a2.33 2.33 0 0 0 1.55-.067l.237-.114a1.66 1.66 0 0 0 .656-.561.59.59 0 0 0 .086-.352c-.002-.016-.002-.032 0-.048v-.057a.42.42 0 0 0-.181-.161 1.07 1.07 0 0 0-.475-.114 2.27 2.27 0 0 0-.58.076c-.1.014-.198.036-.295.066h-.057a.17.17 0 0 0-.095 0h-.057l-.342-.361a3.57 3.57 0 0 1 .951-.266c.272-.053.553-.046.822.022a1.91 1.91 0 0 1 .737.367.78.78 0 0 1 0 1.066 2.15 2.15 0 0 1-.827.685z"/><path d="M153.84 178.59a3.1 3.1 0 0 1-1.166.326c-.406.031-.814-.018-1.201-.145-.362-.114-.105-.485.247-.362a2.3 2.3 0 0 0 1.54-.066l.238-.114a1.73 1.73 0 0 0 .656-.552.5.5 0 0 0 .086-.362v-.104c-.05-.068-.115-.124-.191-.162-.144-.074-.303-.114-.465-.114a2.27 2.27 0 0 0-.58.076c-.101.012-.2.034-.295.067h-.057c-.032-.006-.064-.006-.095 0h-.057l-.352-.362a3.77 3.77 0 0 1 .951-.257c.272-.054.552-.048.821.018s.522.19.738.363a.77.77 0 0 1 0 1.065 1.9 1.9 0 0 1-.818.685z"/><path d="M155.75 180.62c-.362.186-.758.298-1.164.331s-.815-.015-1.203-.141c-.371-.123-.114-.494.238-.371a2.32 2.32 0 0 0 1.549-.066 1.37 1.37 0 0 0 .238-.114 1.64 1.64 0 0 0 .656-.552.6.6 0 0 0 .086-.361v-.095c-.041-.075-.104-.135-.181-.172-.147-.075-.31-.111-.475-.104a1.99 1.99 0 0 0-.58.066c-.095 0-.19.048-.295.067h-.209l-.343-.362a3.57 3.57 0 0 1 .951-.256c.272-.054.553-.048.822.017a1.92 1.92 0 0 1 .738.363.78.78 0 0 1 0 1.065c-.21.298-.496.535-.828.685z"/><path d="M157.66 182.57c-.739.366-1.591.431-2.377.18-.361-.123-.104-.485.247-.371.506.155 1.048.134 1.541-.057l.237-.114a1.66 1.66 0 0 0 .657-.561c.072-.102.105-.227.095-.352v-.057c-.045-.073-.111-.129-.191-.162-.143-.077-.303-.116-.465-.114a1.89 1.89 0 0 0-.58.067l-.295.076h-.209l-.352-.361a3.69 3.69 0 0 1 .951-.257 1.91 1.91 0 0 1 .821.017c.27.066.522.19.738.363a.78.78 0 0 1 0 1.075 2.13 2.13 0 0 1-.818.628z"/><path d="M159.56 184.56a3.1 3.1 0 0 1-1.166.326c-.406.031-.814-.018-1.201-.145-.362-.114-.114-.485.247-.362a2.3 2.3 0 0 0 1.54-.066l.238-.114c.264-.127.49-.32.656-.562.065-.105.095-.228.086-.352v-.104c-.041-.072-.105-.129-.181-.162-.145-.073-.304-.112-.466-.114a2.4 2.4 0 0 0-.59.076c-.099.014-.198.037-.294.067h-.057c-.031-.01-.064-.01-.095 0h-.057l-.343-.362c.303-.134.623-.224.951-.266.271-.051.55-.043.818.024s.517.192.732.366a.77.77 0 0 1 0 1.065 2.14 2.14 0 0 1-.818.685z"/><path d="M161.47 186.55c-.738.372-1.592.437-2.377.181-.362-.115-.105-.485.247-.362a2.3 2.3 0 0 0 1.54-.066c.083-.031.163-.069.238-.115.263-.123.49-.313.656-.551.073-.106.106-.234.095-.362a.37.37 0 0 0 0-.047v-.057a.54.54 0 0 0-.19-.162 1.01 1.01 0 0 0-.466-.114 2.27 2.27 0 0 0-.58.076 1.88 1.88 0 0 0-.295.067h-.057c-.031-.006-.063-.006-.095 0h-.057l-.352-.362c.305-.127.624-.213.951-.257a1.9 1.9 0 0 1 .822.018c.269.066.521.19.737.363.138.143.214.334.214.532s-.076.39-.214.533c-.203.3-.486.537-.817.685z"/><path d="M163.37 188.54c-.362.186-.758.298-1.164.331s-.815-.015-1.203-.141c-.362-.123-.105-.494.247-.371a2.3 2.3 0 0 0 1.54-.066c.083-.031.163-.069.238-.114a1.64 1.64 0 0 0 .656-.552c.066-.108.096-.235.086-.362v-.047a.4.4 0 0 0-.181-.171c-.144-.074-.304-.11-.466-.105-.195-.008-.391.015-.58.067a2.73 2.73 0 0 0-.295.066h-.218l-.343-.361a3.74 3.74 0 0 1 .951-.257c.271-.053.549-.046.817.02a1.9 1.9 0 0 1 .733.36.76.76 0 0 1 0 1.066c-.211.281-.493.501-.818.637z"/><path d="M165.29 190.53c-.739.366-1.591.431-2.377.18-.361-.123-.104-.485.247-.371.509.154 1.054.134 1.55-.057l.228-.114c.269-.123.499-.317.666-.561a.59.59 0 0 0 .086-.352v-.057c-.045-.073-.111-.129-.191-.162-.143-.077-.303-.116-.465-.114a1.89 1.89 0 0 0-.58.067l-.295.076h-.209l-.352-.362a3.73 3.73 0 0 1 .951-.256 1.91 1.91 0 0 1 .821.017c.27.066.522.19.738.363a.78.78 0 0 1 0 1.065c-.217.276-.497.495-.818.638z"/><path d="M167.19 192.52c-.363.185-.76.296-1.166.327a3.1 3.1 0 0 1-1.202-.146c-.361-.114-.104-.485.248-.361a2.3 2.3 0 0 0 1.54-.067l.238-.114a1.67 1.67 0 0 0 .656-.561.48.48 0 0 0 .085-.352v-.057c-.047-.071-.113-.127-.19-.162a1.06 1.06 0 0 0-.466-.114 2.27 2.27 0 0 0-.58.076 1.5 1.5 0 0 0-.295.067h-.218l-.343-.352c.303-.135.623-.224.951-.266a1.88 1.88 0 0 1 .818.024c.268.067.518.192.732.365.139.143.218.334.218.533s-.079.39-.218.533c-.212.274-.49.489-.808.627z"/></g><g class="F"><path d="M99.258 90.448c-13.569 18.538-21.927 43.666-21.252 49.278.742 6.22 8.472 27.468 17.02 37.093 2.254 2.53 21.08-16.511 18.789-19.317-4.431-5.403-12.979-21.115-13.226-24.624-.229-3.234 5.419-23.778 7.197-35.458 1.712-11.252-2.186-15.589-8.529-6.972z"/><path d="M113.28 156.85l15.613 8.113c3.394 1.902 8.928 5.649 10.792 8.179 2.786 3.805 12 21.391 7.787 23.711-3.803 2.112-9.822-14.019-9.822-14.019s7.493 15.741 2.425 17.434-9.433-17.424-9.433-17.424 7.341 16.349 1.845 17.262c-4.155.695-9.081-16.406-9.081-16.406s6.209 14.095 1.969 14.989c-4.688.951-10.222-14.504-10.222-14.504-11.172.466-16.678-3.881-20.234-7.438-.846-.875 18.361-19.897 18.361-19.897z"/></g><path d="M135.39 177.23l2.701 5.545a58.26 58.26 0 0 1 2.101 5.783c.846 2.542 1.388 5.176 1.617 7.846-.771-4.755-3.462-11.537-4.251-13.429s-1.464-3.805-2.244-5.707c-.009-.057.076-.076.076-.038zm-6.88 2.7l3.3 7.114c.998 2.425 1.74 4.756 2.567 7.257.067.19-.057.162-.123 0l-2.938-7.048-2.853-7.266c-.029-.067.028-.086.047-.057zm-6.33 1.25a58.84 58.84 0 0 1 4.222 11.261c.047.19-.105.133-.171-.057-1.332-3.805-2.349-6.734-4.175-11.138-.028-.066.086-.133.124-.066zM86.164 109.5l20.063 4.85s3.081-14.095 2.444-22.769-5.705-7.228-10.812-.495S86.164 109.5 86.164 109.5z" class="D"/><g class="H"><path d="M157.36 363.6c-4.117-.818-9.166-.257-12.361 2.644-.123.114 0 .285.172.247 3.954-1.221 8.028-2.015 12.151-2.368.063-.006.121-.035.164-.079a.27.27 0 0 0 .075-.167.26.26 0 0 0-.05-.175c-.037-.051-.09-.087-.151-.102zm2.94 1.83c-4.108-.827-9.157-.257-12.361 2.644-.124.105 0 .286.171.247a57.63 57.63 0 0 1 12.161-2.368c.062-.008.119-.037.162-.083a.26.26 0 0 0 .07-.166.27.27 0 0 0-.203-.274z"/><path d="M163.26 367.27c-4.117-.827-9.166-.257-12.361 2.635-.124.114 0 .285.171.247 3.956-1.216 8.029-2.01 12.152-2.368.068.005.135-.017.187-.062s.083-.108.089-.176a.26.26 0 0 0-.062-.187c-.045-.052-.108-.084-.176-.089zm-23.72-4.31c3.375 1.494 7.283 1.475 10.897 1.903.37 0 .561-.352.494-.666.016-.005.03-.014.043-.025s.022-.025.028-.04a.12.12 0 0 0 .008-.049c0-.017-.005-.033-.012-.048a22.06 22.06 0 0 0-8.454-7.609c-2.025-.951-5.191-1.227-6.228 1.332s1.246 4.337 3.224 5.202zm-1.826-2.967c-1.806-4.214 3.48-3.082 4.945-2.302a24.36 24.36 0 0 1 2.69 1.769c1.754 1.358 3.436 2.806 5.04 4.337-1.759-.304-3.537-.447-5.306-.684-2.082-.286-6.38-.828-7.369-3.12z"/><path d="M162.83 354.68c-1.588-2.254-4.621-1.293-6.361.133a22.09 22.09 0 0 0-6.476 9.369c-.006.015-.008.032-.006.049s.008.033.017.047.022.025.036.034.032.012.049.012c0 .314.285.657.646.524 3.414-1.208 7.227-2.093 10.174-4.319 1.721-1.303 3.423-3.718 1.921-5.849zm-7.293 7.267c-1.664.637-3.357 1.189-5.002 1.902a65.96 65.96 0 0 1 3.87-5.364c.684-.83 1.424-1.612 2.216-2.34 1.236-1.094 6.123-3.405 5.344 1.103-.4 2.464-4.441 3.938-6.428 4.699zm-48.097 3.743c-4.042-1.113-9.119-.904-12.514 1.759-.124.105 0 .286.162.257a58.05 58.05 0 0 1 12.295-1.503c.058-.008.113-.035.154-.077a.27.27 0 0 0 .075-.157.27.27 0 0 0-.038-.169c-.032-.051-.079-.09-.134-.11zm2.81 2.03c-4.041-1.112-9.119-.951-12.504 1.76-.133.105 0 .285.152.257 4.033-.936 8.155-1.436 12.295-1.494.063-.003.123-.028.17-.072s.075-.102.082-.165-.009-.126-.045-.179a.27.27 0 0 0-.15-.107zm2.82 2.04c-4.041-1.113-9.118-.903-12.504 1.76-.133.104 0 .295.153.256a58.16 58.16 0 0 1 12.294-1.493c.064-.003.124-.028.17-.072s.076-.102.082-.165a.27.27 0 0 0-.044-.179c-.036-.052-.09-.09-.151-.107z"/><path d="M113.52 357.18c-1.427-2.368-4.517-1.617-6.352-.323-3.112 2.285-5.568 5.348-7.122 8.883-.007.016-.011.034-.011.052s.005.035.013.05.021.03.035.04.031.017.049.02c-.01.08-.002.161.025.237a.52.52 0 0 0 .13.2.53.53 0 0 0 .206.12c.077.023.158.028.238.013 3.499-.951 7.359-1.578 10.459-3.595 1.816-1.179 3.689-3.443 2.33-5.697zm-7.788 6.734c-1.702.514-3.432.951-5.115 1.531 1.334-1.772 2.759-3.473 4.269-5.098a23.35 23.35 0 0 1 2.377-2.168c1.312-1.008 6.352-2.968 5.249 1.474-.599 2.454-4.697 3.633-6.77 4.261h-.01z"/><path d="M89.752 363.79c3.271 1.731 7.169 1.988 10.735 2.635.371.067.589-.304.551-.618.017-.003.033-.011.047-.022s.023-.025.03-.041.009-.034.007-.051-.007-.034-.017-.048a22.01 22.01 0 0 0-7.892-8.208c-1.902-1.122-5.087-1.588-6.295.894s.932 4.451 2.834 5.459zm-1.607-3.081c-1.502-4.337 3.699-2.854 5.097-1.902a23.13 23.13 0 0 1 2.558 1.902 62.45 62.45 0 0 1 4.754 4.689c-1.73-.428-3.489-.704-5.239-1.065-2.168-.438-6.39-1.237-7.217-3.624h.047z"/></g><defs ><path id="B" d="m271.06 158.05h-29.512c-2.051 0-3.714 1.662-3.714 3.713v29.524c0 2.051 1.663 3.714 3.714 3.714h29.512c2.052 0 3.715-1.663 3.715-3.714v-29.524c0-2.051-1.663-3.713-3.715-3.713z"/><path id="C" d="m229.21 200.43h-29.512c-2.052 0-3.715 1.662-3.715 3.713v29.524c0 2.051 1.663 3.713 3.715 3.713h29.512c2.051 0 3.714-1.662 3.714-3.713v-29.524c0-2.051-1.663-3.713-3.714-3.713z"/><path id="D" d="m271.06 200.43h-29.512c-2.051 0-3.714 1.662-3.714 3.713v29.524c0 2.051 1.663 3.713 3.714 3.713h29.512c2.052 0 3.715-1.662 3.715-3.713v-29.524c0-2.051-1.663-3.713-3.715-3.713z"/><path id="E" d="m354.78 200.69h-29.512c-2.051 0-3.714 1.663-3.714 3.714v29.524c0 2.05 1.663 3.713 3.714 3.713h29.512c2.051 0 3.714-1.663 3.714-3.713v-29.524c0-2.051-1.663-3.714-3.714-3.714z"/><path id="F" d="m271.06 285.19h-29.512c-2.051 0-3.714 1.663-3.714 3.714v29.524c0 2.05 1.663 3.713 3.714 3.713h29.512c2.052 0 3.715-1.663 3.715-3.713v-29.524c0-2.051-1.663-3.714-3.715-3.714z"/><path id="G" d="m271.06 327.57h-29.512c-2.051 0-3.714 1.663-3.714 3.714v29.523c0 2.051 1.663 3.714 3.714 3.714h29.512c2.052 0 3.715-1.663 3.715-3.714v-29.523c0-2.051-1.663-3.714-3.715-3.714z"/></defs></svg>