<svg xmlns="http://www.w3.org/2000/svg" xmlns:xlink="http://www.w3.org/1999/xlink" width="526" height="500" fill="none" xmlns:v="https://vecta.io/nano"><style><![CDATA[.B{fill:#fff}.C{fill:#1f1b2d}.D{fill:#d5d2dc}.E{fill:#efecf3}.F{fill:#f5f4f8}.G{fill:#e3a59d}.H{opacity:.2}.I{fill:#bbb7c5}.J{fill:#fdbc31}.K{fill:#454056}]]></style><path d="M473.789 226.508h-36.378v44.184h-9.363v-25.017h-46.267v39.608h-6.122v-92.955h-40.208v25.522h-20.608v31.738h-6.239v-19.967h-36.557v59.586h-10.688v-48.445h-33.433v-36.778h-22.733v-20.945h-26.29v92.913h-8.837v-38.777h-43.321v55.503h-5.986v-45.299H76.828v-40.817H52.211v190.096h421.578v-170.15z" class="F"/><g class="B"><use xlink:href="#B"/><path d="M452.507 240.51h6.155v-8.448h-6.155v8.448z"/><use xlink:href="#B" x="-21.345"/><use xlink:href="#B" y="12.708"/><path d="M452.507 253.218h6.155v-8.448h-6.155v8.448z"/><use xlink:href="#B" x="-21.345" y="12.708"/><use xlink:href="#B" y="25.416"/><path d="M452.507 265.926h6.155v-8.448h-6.155v8.448z"/><use xlink:href="#B" x="-21.345" y="25.416"/><use xlink:href="#B" y="38.135"/><path d="M452.507 278.645h6.155v-8.448h-6.155v8.448z"/><use xlink:href="#B" x="-21.345" y="38.135"/><use xlink:href="#C"/><use xlink:href="#C" x="-10.667"/><use xlink:href="#C" x="-21.345"/><use xlink:href="#C" y="10.594"/><use xlink:href="#C" x="-10.667" y="10.594"/><use xlink:href="#C" x="-21.345" y="10.594"/><use xlink:href="#C" y="21.198"/><use xlink:href="#C" x="-10.667" y="21.198"/><use xlink:href="#C" x="-21.345" y="21.198"/><use xlink:href="#C" y="31.802"/><use xlink:href="#C" x="-10.667" y="31.802"/><use xlink:href="#C" x="-21.345" y="31.802"/><use xlink:href="#D"/><use xlink:href="#D" x="-10.667"/><use xlink:href="#D" x="-21.345"/><use xlink:href="#D" y="10.867"/><use xlink:href="#D" x="-10.667" y="10.867"/><use xlink:href="#D" x="-21.345" y="10.867"/><use xlink:href="#C" y="64.393"/><use xlink:href="#C" x="-10.667" y="64.393"/><use xlink:href="#C" x="-21.345" y="64.393"/><use xlink:href="#D" y="32.591"/><use xlink:href="#D" x="-10.667" y="32.591"/><use xlink:href="#D" x="-21.345" y="32.591"/><use xlink:href="#E"/><use xlink:href="#E" y="10.257"/><use xlink:href="#E" y="20.503"/><use xlink:href="#E" y="30.75"/><path d="M387.357 297.381h35.431V292.1h-35.431v5.281z"/><use xlink:href="#E" y="51.253"/><use xlink:href="#E" y="61.51"/><use xlink:href="#E" y="71.746"/><use xlink:href="#F"/><use xlink:href="#F" y="10.257"/><use xlink:href="#F" y="20.514"/><use xlink:href="#F" y="30.761"/><use xlink:href="#F" y="41.007"/><use xlink:href="#F" y="51.264"/><use xlink:href="#F" y="61.511"/><use xlink:href="#F" y="71.768"/><use xlink:href="#F" y="81.499"/><use xlink:href="#F" y="91.24"/><use xlink:href="#F" y="100.982"/><use xlink:href="#F" y="110.713"/><use xlink:href="#F" y="120.454"/><use xlink:href="#G"/><use xlink:href="#G" y="10.257"/><use xlink:href="#G" y="20.514"/><use xlink:href="#G" y="30.761"/><use xlink:href="#G" y="41.007"/><use xlink:href="#G" y="51.264"/><use xlink:href="#G" y="61.511"/><use xlink:href="#G" y="71.768"/><use xlink:href="#G" y="80.941"/><use xlink:href="#G" y="90.115"/><use xlink:href="#G" y="99.288"/><use xlink:href="#H"/><use xlink:href="#I"/><use xlink:href="#H" y="19.799"/><use xlink:href="#H" y="29.698"/><use xlink:href="#I" y="29.698"/><use xlink:href="#H" y="49.497"/><use xlink:href="#H" y="59.396"/><use xlink:href="#I" y="59.396"/><use xlink:href="#H" x="-14.886"/><use xlink:href="#I" x="-14.886"/><use xlink:href="#H" x="-14.886" y="19.799"/><use xlink:href="#H" x="-14.886" y="29.698"/><use xlink:href="#I" x="-14.886" y="29.698"/><use xlink:href="#H" x="-14.886" y="49.497"/><use xlink:href="#H" x="-14.886" y="59.396"/><use xlink:href="#I" x="-14.886" y="59.396"/><use xlink:href="#J"/><use xlink:href="#J" x="-16.99"/><use xlink:href="#K"/><use xlink:href="#K" x="-16.99"/><use xlink:href="#K" y="11.824"/><use xlink:href="#K" x="-16.99" y="11.824"/><use xlink:href="#K" y="23.638"/><use xlink:href="#K" x="-16.99" y="23.638"/><use xlink:href="#J" y="47.277"/><use xlink:href="#J" x="-16.99" y="47.277"/><use xlink:href="#K" y="47.287"/><use xlink:href="#K" x="-16.99" y="47.287"/><use xlink:href="#K" y="59.101"/><use xlink:href="#K" x="-16.99" y="59.101"/><use xlink:href="#J" y="82.74"/><use xlink:href="#J" x="-16.99" y="82.74"/><use xlink:href="#L"/><use xlink:href="#L" y="11.814"/><path d="M320.092 253.007h11.404v-8.047h-11.404v8.047z"/><use xlink:href="#L" y="35.463"/><use xlink:href="#L" y="47.277"/><path d="M320.092 288.47h11.404v-8.047h-11.404v8.047zm38.062 11.678h11.403V292.1h-11.403v8.048zm-16.99 0h11.403V292.1h-11.403v8.048zm-21.072 0h11.404V292.1h-11.404v8.048z"/><use xlink:href="#K" y="94.269"/><use xlink:href="#K" x="-16.99" y="94.269"/><use xlink:href="#L" y="82.445"/><use xlink:href="#J" y="117.761"/><use xlink:href="#J" x="-16.99" y="117.761"/><path d="M320.092 323.491h11.404v-8.047h-11.404v8.047z"/><use xlink:href="#K" y="117.624"/><use xlink:href="#K" x="-16.99" y="117.624"/><use xlink:href="#L" y="105.8"/><use xlink:href="#K" y="129.301"/><use xlink:href="#K" x="-16.99" y="129.301"/><use xlink:href="#L" y="117.477"/><use xlink:href="#C" x="-32.938" y="-37.651"/><use xlink:href="#C" x="-43.605" y="-37.651"/><use xlink:href="#D" x="-32.938" y="-69.716"/><use xlink:href="#D" x="-43.605" y="-69.716"/><use xlink:href="#D" x="-32.938" y="-59.112"/><use xlink:href="#D" x="-43.605" y="-59.112"/><use xlink:href="#C" x="-32.938" y="-5.828"/><use xlink:href="#C" x="-43.605" y="-5.828"/><use xlink:href="#D" x="-32.938" y="-37.63"/><use xlink:href="#D" x="-43.605" y="-37.63"/><use xlink:href="#C" x="-32.938" y="15.896"/><use xlink:href="#C" x="-43.605" y="15.896"/><use xlink:href="#C" x="-32.938" y="26.763"/><use xlink:href="#C" x="-43.605" y="26.763"/><use xlink:href="#D" x="-32.938" y="-5.039"/><use xlink:href="#D" x="-43.605" y="-5.039"/><use xlink:href="#C" x="-32.938" y="48.613"/><use xlink:href="#C" x="-43.605" y="48.613"/><use xlink:href="#D" x="-32.938" y="16.916"/><use xlink:href="#D" x="-43.605" y="16.916"/><use xlink:href="#D" x="-32.938" y="27.899"/><use xlink:href="#D" x="-43.605" y="27.899"/><use xlink:href="#C" x="-32.938" y="81.562"/><use xlink:href="#C" x="-43.605" y="81.562"/><use xlink:href="#M"/><use xlink:href="#M" x="-10.657"/><use xlink:href="#N"/><use xlink:href="#N" x="-10.657"/><use xlink:href="#M" y="24.985"/><use xlink:href="#M" x="-10.657" y="24.985"/><use xlink:href="#M" y="37.483"/><use xlink:href="#M" x="-10.657" y="37.483"/><use xlink:href="#N" y="37.788"/><use xlink:href="#N" x="-10.657" y="37.788"/><use xlink:href="#M" y="63.088"/><use xlink:href="#M" x="-10.657" y="63.088"/><use xlink:href="#M" y="75.881"/><use xlink:href="#M" x="-10.657" y="75.881"/><use xlink:href="#M" y="88.694"/><use xlink:href="#M" x="-10.657" y="88.694"/><use xlink:href="#N" y="89.136"/><use xlink:href="#N" x="-10.657" y="89.136"/><use xlink:href="#M" y="114.563"/><use xlink:href="#M" x="-10.657" y="114.563"/><use xlink:href="#M" y="127.502"/><use xlink:href="#M" x="-10.657" y="127.502"/><use xlink:href="#M" y="140.442"/><use xlink:href="#M" x="-10.657" y="140.442"/><use xlink:href="#C" x="-55.766" y="-37.651"/><use xlink:href="#C" x="-66.434" y="-37.651"/><use xlink:href="#C" x="-55.766" y="-48.518"/><use xlink:href="#C" x="-66.434" y="-48.518"/><use xlink:href="#C" x="-55.766" y="-59.385"/><use xlink:href="#C" x="-66.434" y="-59.385"/><use xlink:href="#D" x="-55.766" y="-69.716"/><use xlink:href="#D" x="-66.434" y="-69.716"/><use xlink:href="#D" x="-55.766" y="-59.112"/><use xlink:href="#D" x="-66.434" y="-59.112"/><use xlink:href="#C" x="-55.766" y="-5.828"/><use xlink:href="#C" x="-66.434" y="-5.828"/><use xlink:href="#D" x="-55.766" y="-37.63"/><use xlink:href="#D" x="-66.434" y="-37.63"/><use xlink:href="#C" x="-55.766" y="15.896"/><use xlink:href="#C" x="-66.434" y="15.896"/><use xlink:href="#C" x="-55.766" y="26.763"/><use xlink:href="#C" x="-66.434" y="26.763"/><use xlink:href="#D" x="-55.766" y="-5.039"/><use xlink:href="#D" x="-66.434" y="-5.039"/><use xlink:href="#C" x="-55.766" y="48.613"/><use xlink:href="#C" x="-66.434" y="48.613"/><use xlink:href="#D" x="-55.766" y="16.916"/><use xlink:href="#D" x="-66.434" y="16.916"/><use xlink:href="#D" x="-55.766" y="27.899"/><use xlink:href="#D" x="-66.434" y="27.899"/><use xlink:href="#C" x="-55.766" y="81.562"/><use xlink:href="#C" x="-66.434" y="81.562"/></g><path d="M469.308 167.89H356.039s11.235-30.676 28.52-30.676 22.691 21.177 22.691 21.177 11.667-11.509 21.251-11.509 17.884 15.201 17.884 15.201 13.56-8.174 22.923 5.807zm-63.394-60.669h-52.936s11.824-17.137 21.145-17.137 12.077 11.425 12.077 11.425 6.575-5.334 12.624-4.376 7.09 10.088 7.09 10.088zm-246.115 51.538H56.703s14.118-31.56 29.225-33.496 22.324 23.418 22.324 23.418 9.741-8.974 17.4-8.974 13.581 11.824 13.581 11.824 15.307-8.1 20.567 7.228zm97.994-78.027H188.14s11.961-22.839 24.943-23.144 19.798 17.284 19.798 17.284 20.188-16.232 24.912 5.86zm47.561 370.599c94.727 0 171.518-5.082 171.518-11.352s-76.791-11.351-171.518-11.351-171.518 5.082-171.518 11.351 76.791 11.352 171.518 11.352z" class="E"/><path d="M509.526 396.658l-61.637.253-61.626.094-123.263.169-123.263-.169-61.626-.094-61.637-.253 61.637-.263 61.626-.095L263 396.132l123.263.168 61.626.095 61.637.263z" class="C"/><path d="M255.311 233.945c17.799 18.516 71.272 100.919 75.438 103.38 0 0 0 53.894-29.782 43.132s-57.081-107.451-62.909-138.275c-3.072-16.274 2.714-23.343 17.253-8.237z" class="G"/><path d="M250.776 297.654l54.578-6.206s-33.853-44.91-51.348-60.943c-18.242-16.706-27.184-14.36-18.726 17.285 8.501 31.833 15.496 49.864 15.496 49.864z" class="J"/><path d="M248.21 267.925c-.6 1.506-.983 3.089-1.137 4.702a18.69 18.69 0 0 0 3.44-8.942 16.33 16.33 0 0 0-2.303 4.24zm30.655 1.231a16.91 16.91 0 0 0-4.692-1.136 18.6 18.6 0 0 0 8.931 3.44c-1.29-.976-2.719-1.753-4.239-2.304zm-8.132 21.229a17.04 17.04 0 0 0-2.525-4.113 17.04 17.04 0 0 0 1.389 4.618c.621 1.493 1.465 2.883 2.503 4.124-.235-1.6-.696-3.158-1.367-4.629zm-32.023-68.38l-.863-1.715c-.374-.036-.751-.036-1.125 0l.852 2.241a16.56 16.56 0 0 0 2.514 4.124c-.237-1.607-.701-3.173-1.378-4.65zm62.899 64.53l-1.052.421a17.3 17.3 0 0 0-4.134 2.514 17.18 17.18 0 0 0 4.639-1.378l1.241-.61-.694-.947zm-42.08-43.353a17.24 17.24 0 0 0-4.124 2.504 16.87 16.87 0 0 0 4.64-1.368c1.486-.638 2.875-1.485 4.123-2.514-1.612.231-3.181.695-4.66 1.378h.021zm-3.661.094l-.179.137h.19s-.032-.105-.032-.137h.021z" class="B"/><g class="C"><path d="M253.396 287.839c1.273-.294 2.609-.41 3.903-.589l4.018-.557 8.132-1.052 16.296-1.831 4.492-.41 4.734-.232c.095 0 .095.137 0 .148l-3.998.715s-2.756.4-4.134.568l-8.143.968-16.064 1.662-4.481.379-4.734.357c-.012-.004-.023-.012-.031-.022s-.014-.022-.016-.035-.001-.025.003-.038.013-.023.023-.031z"/><path opacity=".1" d="M277.255 294.646l-26.468 3.008s-6.996-18.031-15.507-49.864c-3.587-13.424-4.039-21.577-1.977-25.248l43.952 72.104z"/></g><path d="M265.915 409.903h-83.014l-2.009-7.89-2.22-8.711-.484-1.883-1.609-6.312-.936-3.703-.937-3.65-.242-.937-.252-1.052-.316-1.23-.326-1.273-.6-2.357-.852-3.335-.357-1.409-.568-2.22-.358-1.42-1.368-5.365-.336-1.294-.526-2.104-.316-1.231-.989-3.882-.231-.884-.516-2.03-.179-.684-.168-.663c0-.147-.074-.294-.105-.421l-.147-.568a.52.52 0 0 0-.063-.252l-.19-.747h80.804l6.922 23.965 2.799 9.709 9.689 33.833z" class="K"/><g class="C"><path d="M196.493 409.903h-2.104l-8.931-38.219-2.104-9.321-.19-.873c-.003-.03.004-.061.021-.086s.043-.043.073-.051.061-.004.088.009.049.037.06.065c0 .094.053.189.084.284l2.788 10.025 10.215 38.167z"/><path d="M243.886 342.406l-3.566 17.884-2.925 14.644-4.976 24.954-.515 2.556-.853 4.261-.662 3.198h-47.498l-1.999-7.89-2.22-8.711-.484-1.883-1.609-6.312-.936-3.703-.937-3.65-.242-.937-.252-1.052-.316-1.23-.326-1.273-.6-2.357-.852-3.335-.357-1.409-.568-2.22-.358-1.42-1.368-5.365-.336-1.294-.526-2.104-.316-1.231-.989-3.882-.231-.884-.516-2.03-.179-.684-.168-.663c0-.147-.074-.294-.105-.421l-.147-.568a.52.52 0 0 0-.063-.252l-.19-.747 78.185.01z"/></g><path d="M243.896 342.375c0 .442-.336 5.26-1.115 12.624l-.789 7.027c-.473 3.987-1.052 8.416-1.788 13.035-1.242 8.111-2.862 16.958-4.966 25.605a193.15 193.15 0 0 1-2.44 9.216H128.492l3.251-41.607 2.104-25.932h94.616l15.433.032z" class="K"/><path d="M243.675 351.959l-.515 11.172c-.253 4.029-.621 8.048-1.147 12.066 0 .148 0 .295-.052.442a291.44 291.44 0 0 1-1.694 11.267c-.6 3.493-1.052 7.259-2.588 10.52-.584 1.251-1.414 2.371-2.441 3.293-.939.86-2.09 1.455-3.335 1.725-.203.051-.411.087-.62.105h-.179c.038.022.07.055.09.094s.03.083.026.127c0 1.252 0 2.525-.148 3.766v.158c-.126 1.052-.326 2.157-.526 3.23h-1.788v-.063c.316-1.179.579-2.367.873-3.556s.716-2.399 1-3.629c.015-.047.045-.087.084-.116a5.57 5.57 0 0 1-5.387-3.377c-.448-1.6-.477-3.288-.084-4.902l.968-6.407c.61-3.924 1.399-7.806 2.104-11.709l.316-1.778c1.399-7.942 2.861-15.885 4.618-23.754.063-.326.137-.652.21-.978s.4-.158.379.052l-.168 1.589-1.052 9.026c-.505 3.524-.852 7.069-1.347 10.594l-.515 3.598-2.641 17.368c-.463 2.683-2.104 7.49 1.726 8.321a3.93 3.93 0 0 0 2.619-.326 8.22 8.22 0 0 0 3.587-4.534c.948-3.157 1.634-6.387 2.052-9.657a259.94 259.94 0 0 0 1.683-10.615l1.978-13.266 1.052-6.753.505-3.156c.01-.221.357-.158.357.063zm-92.302 27.73a52.58 52.58 0 0 0 12.866-1.736l5.754-1.735c1.887-.521 3.653-1.407 5.197-2.609 2.925-2.525 4.282-6.491 5.555-10.026a96.97 96.97 0 0 0 3.356-12.171c0-.2.336-.127.347.063.101 4.665-.491 9.32-1.757 13.812-1.052 3.819-2.462 8.069-5.544 10.741s-7.638 3.809-11.793 4.314c-4.659.542-9.37.478-14.013-.19a.23.23 0 0 1-.159-.079c-.04-.046-.06-.107-.056-.168s.032-.119.079-.159a.23.23 0 0 1 .168-.057zm-7.248-28.151l-.737 17.526-1.967 40.839h-1.957l2.83-40.902 1.326-17.474c.001-.067.029-.13.077-.177a.25.25 0 0 1 .18-.07c.067.001.131.029.177.078s.072.113.071.18z" class="C"/><path d="M261.854 385.581L120.349 374.85s28.467-112.827 84.676-154.307c14.37-10.594 30.098-3.798 37.178 4.124 17.989 20.177 20.072 160.461 19.651 160.914z" class="J"/><path d="M211.568 225.677a17.52 17.52 0 0 0-1.136 4.692c.969-1.285 1.748-2.702 2.315-4.208a17.52 17.52 0 0 0 1.136-4.692 17.16 17.16 0 0 0-2.315 4.208zm-15.359 60.868a16.46 16.46 0 0 0-1.126 4.703c1.896-2.635 3.077-5.716 3.43-8.942a16.97 16.97 0 0 0-2.304 4.239zm-50.559 26.1a17.17 17.17 0 0 0-1.136 4.703 18.7 18.7 0 0 0 3.44-8.942c-.958 1.301-1.733 2.728-2.304 4.239zm40.807 38.451c-.611 1.499-.994 3.08-1.136 4.692 1.895-2.635 3.076-5.716 3.429-8.942a16.84 16.84 0 0 0-2.293 4.25zm61.752-83.192a17.13 17.13 0 0 0-1.136 4.702 18.69 18.69 0 0 0 3.44-8.942 16.35 16.35 0 0 0-2.304 4.261v-.021zm-25.184 76.533c-.612 1.499-.999 3.08-1.147 4.692.967-1.284 1.743-2.702 2.304-4.208a17.13 17.13 0 0 0 1.136-4.692 16.6 16.6 0 0 0-2.293 4.208zm-50.991-79.395c-.6 1.502-.982 3.082-1.136 4.692a18.54 18.54 0 0 0 3.43-8.942c-.969 1.297-1.742 2.729-2.294 4.25zm56.535-20.198a16.54 16.54 0 0 0-4.692-1.136 16.84 16.84 0 0 0 4.208 2.293 16.43 16.43 0 0 0 4.702 1.136c-1.288-.964-2.709-1.736-4.218-2.293zm16.032 50.717c-1.501-.604-3.081-.986-4.692-1.136 1.283.965 2.701 1.738 4.208 2.293a16.77 16.77 0 0 0 4.692 1.147 16.44 16.44 0 0 0-4.208-2.262v-.042zm4.303 60.616c-1.502-.6-3.082-.982-4.692-1.136a16.49 16.49 0 0 0 4.208 2.304c1.503.597 3.082.98 4.692 1.136a17.14 17.14 0 0 0-4.208-2.262v-.042zm-100.729-4.986a16.91 16.91 0 0 0-4.692-1.136 18.6 18.6 0 0 0 8.931 3.44 16.8 16.8 0 0 0-4.239-2.262v-.042zm36.41-38.924c-1.502-.603-3.082-.99-4.692-1.147 1.285.968 2.702 1.747 4.208 2.314a17.52 17.52 0 0 0 4.692 1.137c-1.288-.954-2.705-1.719-4.208-2.273v-.031zm54.125-90.293l-.452-.926-1.631-1.136c.26.881.577 1.746.947 2.588a16.55 16.55 0 0 0 2.514 4.123c-.24-1.596-.704-3.151-1.378-4.618v-.031zm-41.354 32.717c-.635-1.489-1.481-2.878-2.514-4.124a18.48 18.48 0 0 0 3.892 8.753 16.64 16.64 0 0 0-1.378-4.629zm36.515 124.483c-.635-1.487-1.478-2.875-2.504-4.124.233 1.6.693 3.159 1.368 4.629.599 1.383 1.373 2.684 2.303 3.871h.169c-.243-1.513-.692-2.985-1.336-4.376zm-13.434-73.314a17.21 17.21 0 0 0-2.515-4.124c.523 3.202 1.86 6.216 3.882 8.753-.233-1.6-.693-3.159-1.367-4.629zm-96.385 55.903l-.199.653.389.452c-.042-.361-.106-.719-.19-1.073v-.032zm42.08-28.067a16.97 16.97 0 0 0-2.514-4.113 18.51 18.51 0 0 0 3.893 8.742c-.251-1.591-.726-3.139-1.41-4.598l.031-.031zm9.027 40.502c-.639-1.487-1.485-2.875-2.515-4.124a18.86 18.86 0 0 0 3.893 8.763 16.83 16.83 0 0 0-1.41-4.597l.032-.042zm70.768-48.729c-1.486.641-2.874 1.487-4.124 2.515a16.99 16.99 0 0 0 4.629-1.379 16.81 16.81 0 0 0 4.134-2.514c-1.617.241-3.191.716-4.671 1.41l.032-.032zm-111.618 6.144l-.536 1.452c1.134-.548 2.195-1.237 3.156-2.052a13.12 13.12 0 0 0-2.651.632l.031-.032zm72.147 35.053a16.9 16.9 0 0 0-4.124 2.503c1.603-.234 3.165-.694 4.639-1.367 1.486-.645 2.874-1.495 4.124-2.525a16.44 16.44 0 0 0-4.671 1.42l.032-.031zm-64.52 9.383l-.725.348 2.472.189a14.57 14.57 0 0 0 2.882-1.915 17.24 17.24 0 0 0-4.66 1.41l.031-.032zm24.786-86.506c-1.482.648-2.87 1.494-4.124 2.515 3.206-.518 6.225-1.855 8.763-3.882a16.81 16.81 0 0 0-4.671 1.399l.032-.032zm36.273 40.292c-1.488.642-2.876 1.492-4.124 2.525a18.73 18.73 0 0 0 8.763-3.893 17.14 17.14 0 0 0-4.671 1.4l.032-.032zm18.936-55.388c-1.484.645-2.872 1.491-4.124 2.515 3.206-.509 6.223-1.847 8.752-3.882a17.04 17.04 0 0 0-4.692 1.399l.064-.032z" class="B"/><path d="M234.186 248.242c-8.163-1.21-16.453-17.684-17.884-28.919-.094-.779 12.624-25.049 14.613-30.109.41-1.052 28.772 20.367 28.772 20.367s-7.364 9.384-10.804 18.252c-.242.737-6.807 21.566-14.697 20.409z" class="G"/><path opacity=".4" d="M259.729 209.581s-7.364 9.384-10.815 18.242l-1.178 3.345c-14.581-7.364-20.524-20.514-22.923-29.193l6.144-12.761c.41-1.041 28.772 20.367 28.772 20.367z" class="C"/><path d="M237.469 149.796c-8.301 9.605-16.601 44.247-11.856 54.893 6.89 15.422 25.248 24.691 40.102 14.833 14.444-9.562 24.459-54.904 18.494-65.297-8.774-15.317-34.495-18.61-46.74-4.429z" class="G"/><g class="C"><path d="M259.645 177.937c-1.052.084-2.104 0-3.156 0-1.117.152-2.253-.07-3.23-.631-.273-.237-.459-.557-.532-.911a1.64 1.64 0 0 1 .132-1.046 4.05 4.05 0 0 1 1.628-1.369 4.03 4.03 0 0 1 2.096-.356c1.476-.087 2.931.378 4.082 1.304.244.23.416.524.497.849a1.75 1.75 0 0 1-.04.983c-.108.317-.304.597-.566.805s-.578.338-.911.372zm-.926 5.081c0-.095-.21.074-.231.179-.39 2.367-1.242 5.018-3.525 5.376-.073 0-.094.126 0 .136 2.662.148 3.756-3.377 3.756-5.691z"/><path d="M257.099 180.136c-3.735-1.052-5.544 6.511-2.104 7.469s5.228-6.596 2.104-7.469zm15.191 5.796c0-.084.158.158.136.253-.631 2.314-.967 5.081.958 6.312.063 0 0 .157-.053.126-2.493-.926-2.009-4.587-1.041-6.691z"/><path d="M274.962 183.996c3.829.611 2.325 8.216-1.22 7.648s-1.989-8.163 1.22-7.648zm3.882-3.745c-.967-.449-1.908-.951-2.82-1.504-1.069-.395-1.976-1.136-2.577-2.104-.132-.339-.147-.711-.045-1.06a1.64 1.64 0 0 1 .613-.865c1.294-.842 2.788-.453 4.113.2 1.352.615 2.428 1.709 3.02 3.071.124.321.152.67.08 1.006a1.76 1.76 0 0 1-.487.884c-.245.241-.556.404-.893.471a1.76 1.76 0 0 1-1.004-.099zm-27.952 23.018c.421.684.8 1.567 1.631 1.841.877.189 1.784.189 2.661 0 .018-.002.036.002.051.011s.027.023.034.04.009.034.005.052-.013.033-.027.044c-.442.379-.979.63-1.553.728a3.22 3.22 0 0 1-1.708-.17c-.448-.236-.815-.601-1.055-1.047s-.341-.953-.291-1.457c0-.137.189-.147.252-.042zm4.124-6.407a8.22 8.22 0 0 0 1.735 2.869c.769.828 1.701 1.487 2.736 1.939.9.406 1.852.682 2.83.821.183.041.37.062.557.063.179.011.358.011.537 0a.58.58 0 0 0 .589-.411 2.12 2.12 0 0 0 0-.252v-.211c.473-1.788.957-4.565.957-4.565.579.484 3.567 2.798 3.745 1.841 1.4-7.89 2.946-16.664 2.673-24.817 0-.058-.024-.115-.065-.156a.22.22 0 0 0-.313 0c-.041.041-.064.098-.064.156-1.641 7.532-1.947 15.307-3.482 22.902a14.06 14.06 0 0 0-3.398-2.062c-.274 0-.831 5.386-1.116 6.165.003.028.003.056 0 .084-3.156-.337-5.175-1.799-7.627-4.523-.157-.179-.389-.064-.294.157z"/><path d="M261.475 201.323a9.73 9.73 0 0 1-4.481 2.02c-.899.125-1.815-.033-2.62-.453-1.746-.936-1.388-2.661-.694-4.05a10.51 10.51 0 0 1 1.378-2.041c1.601 2.155 3.85 3.74 6.417 4.524z"/></g><path d="M256.994 203.343c-.899.125-1.815-.033-2.62-.453-1.746-.936-1.388-2.661-.694-4.05 1.957.684 3.608 2.525 3.314 4.503z" fill="#ff548a"/><path d="M287.386 167.711c-14.728 6.165-29.624-10.888-29.624-10.888a14.34 14.34 0 0 1-7.067 5.627 14.33 14.33 0 0 1-9.029.285s-7.069 21.324-12.834 20.041c-8.763-1.873-5.26-32.233-1.294-37.514s11.751-5.26 11.751-5.26 1.483-4.429 7.774-7.448c6.943-3.346 26.3 7.143 26.3 7.143 1.757-2.52 4.081-4.592 6.785-6.049a5.53 5.53 0 0 1 2.118-.678c.745-.08 1.498-.009 2.214.211a5.52 5.52 0 0 1 1.952 1.065 5.53 5.53 0 0 1 1.375 1.748c-1.437 1.382-2.541 3.073-3.23 4.944-2.367 6.186 2.862 7.269 4.029 1.452.508-2.159.224-4.429-.799-6.396 3.366-3.262 7.837-3.619 9.973-1.052 3.924 4.702 1.862 27.657-10.394 32.769z" class="C"/><g class="K"><path d="M251.26 194.727c-1.812-.581-3.425-1.66-4.654-3.112a10.17 10.17 0 0 1-2.3-5.105c-.273-1.883-.013-3.805.753-5.548a10.16 10.16 0 0 1 3.576-4.307c1.572-1.073 3.414-1.682 5.316-1.759a10.16 10.16 0 0 1 5.44 1.322c1.654.942 3.01 2.329 3.914 4.003s1.32 3.57 1.2 5.469a10.16 10.16 0 0 1-1.315 4.384 10.17 10.17 0 0 1-3.103 3.365c-1.277.871-2.735 1.439-4.265 1.663a10.16 10.16 0 0 1-4.562-.375zm5.807-18.042c-.682-.221-1.388-.359-2.104-.41-2.242-.16-4.46.543-6.203 1.964a8.82 8.82 0 0 0-3.171 5.681c-.295 2.228.271 4.485 1.583 6.31s3.271 3.082 5.477 3.512a8.83 8.83 0 0 0 10.234-6.45c.564-2.176.276-4.485-.805-6.457s-2.873-3.455-5.011-4.15zm16.611 22.292c-3.64-1.368-5.533-6.312-4.208-11.477a12.07 12.07 0 0 1 3.798-6.376 6.31 6.31 0 0 1 6.001-1.681 6.32 6.32 0 0 1 2.826 1.549c.792.752 1.375 1.696 1.693 2.741a12.18 12.18 0 0 1 .368 7.417c-1.346 5.428-5.733 9.037-9.783 8.027a4.09 4.09 0 0 1-.695-.2zm5.692-18.042l-.495-.147c-.85-.172-1.728-.136-2.562.104a5.39 5.39 0 0 0-2.224 1.274c-1.681 1.491-2.854 3.47-3.356 5.66-1.168 4.713.568 9.215 3.903 10.036s6.974-2.336 8.142-7.038c.586-2.171.475-4.471-.315-6.575a5.57 5.57 0 0 0-1.194-1.986 5.56 5.56 0 0 0-1.899-1.328z"/><path d="M263.947 186.784l-.652-1.189c1.757-.978 5.586-1.988 7.511 1.052l-1.157.716c-1.715-2.725-5.544-.674-5.702-.579zm-44.899-6.207l-1.052-.841c.4-.495 3.945-4.839 7.006-4.734 2.872.105 20.399 5.26 21.146 5.523l-.39 1.304c-5.028-1.494-18.578-5.397-20.798-5.47-2.041-.074-4.955 3.019-5.912 4.218z"/></g><path d="M232.587 180.798s-2.83-13.55-8.679-12.971-6.838 18.01-2.156 22.46c.559.612 1.236 1.104 1.99 1.448a6.15 6.15 0 0 0 2.399.55 6.16 6.16 0 0 0 2.422-.436c.77-.307 1.47-.767 2.057-1.351l1.967-9.7z" class="G"/><path d="M223.751 172.835c-.085-.053-.158.063-.095.136 3.23 3.24 3.724 7.733 3.566 12.088-.547-1.936-1.788-3.409-4.313-2.851-.126 0-.095.221 0 .252.779.072 1.516.386 2.108.897s1.01 1.194 1.195 1.954c.309 1.269.481 2.567.516 3.872 0 .431.736.515.778 0-.005-.035-.005-.071 0-.106 2.251-4.86 1.368-13.465-3.755-16.242z" class="C"/><path d="M304.712 275.899c2.662-7.006 64.372 5.681 61.911 16.422-9.037 39.345-34.222 74.502-40.587 82.54-8.352 10.52-24.974 8.184-31.034 1.809-8.784-9.247 7.08-93.828 9.71-100.771z" class="G"/><path d="M300.368 295.214a80.05 80.05 0 0 0-3.251 11.572c-.894 3.892-1.673 7.806-2.304 11.74-1.248 7.959-1.951 15.994-2.104 24.049-.116 4.502 0 8.994 0 13.497 0 .105.168.095.168 0 0-3.987.242-8.006.568-11.982s.726-8.027 1.242-12.014c.999-7.837 2.104-15.664 3.524-23.439l1.231-6.522c.452-2.251.968-4.492 1.262-6.775 0-.168-.263-.316-.336-.126z" class="C"/><path d="M289.827 165.008c-.407 5.357-1.208 10.677-2.399 15.916l-.642 2.715c-.883 3.597-1.935 7.216-3.156 10.698-.28.842-.575 1.673-.883 2.494-3.735 10.088-8.669 18.767-14.223 22.449-1.411.946-2.908 1.756-4.471 2.42a54.32 54.32 0 0 1-26.932-45.289l-1.683-.462.8-1.273a43.82 43.82 0 0 0 .873-1.526 54.29 54.29 0 0 1 15.338-36.157c13.224-3.556 29.056 1.525 35.715 13.129 1.621 2.872 2.115 8.279 1.663 14.886z" class="G"/><g class="C"><path d="M262.106 175.233c-1.117.058-2.238.058-3.355 0-1.294 0-2.325.095-3.43-.673-.297-.252-.501-.597-.577-.979a1.73 1.73 0 0 1 .156-1.125c.81-1.431 2.388-1.799 3.945-1.831 1.562-.092 3.103.399 4.324 1.379a1.84 1.84 0 0 1 .559.902c.095.349.085.718-.028 1.062a1.85 1.85 0 0 1-.608.871c-.283.225-.625.362-.986.394zm-.978 5.439c0-.095-.221.084-.242.179-.41 2.514-1.315 5.323-3.735 5.702-.073 0-.094.136 0 .147 2.82.105 3.977-3.629 3.977-6.028z"/><path d="M259.413 177.569c-3.955-1.105-5.87 6.89-2.209 7.911s5.523-6.986 2.209-7.911zm16.096 6.133c0-.084.168.168.137.273-.674 2.451-1.052 5.376 1.052 6.733.063 0 0 .168-.053.137-2.672-1.042-2.167-4.913-1.136-7.143z"/><path d="M278.339 181.65c4.05.653 2.451 8.711-1.305 8.111s-2.093-8.658 1.305-8.111zm4.103-3.966c-1.052-.452-1.968-1.052-2.978-1.588-1.127-.414-2.088-1.187-2.735-2.199a1.73 1.73 0 0 1-.045-1.117c.108-.367.335-.688.645-.913 1.378-.894 2.956-.484 4.355.21a6.31 6.31 0 0 1 3.156 3.251c.12.333.141.693.062 1.038s-.255.66-.507.908a1.86 1.86 0 0 1-.917.491 1.85 1.85 0 0 1-1.036-.081zm-29.604 24.386c.453.715.852 1.651 1.736 1.946a6.49 6.49 0 0 0 2.809 0c.018-.001.037.004.053.014s.028.024.036.04.01.036.008.054a.1.1 0 0 1-.023.05 3.41 3.41 0 0 1-1.65.772c-.609.104-1.235.041-1.812-.183a2.71 2.71 0 0 1-1.112-1.11c-.253-.472-.36-1.008-.308-1.541-.01-.148.19-.148.263-.042zm4.377-6.796a8.66 8.66 0 0 0 1.827 3.045c.813.878 1.799 1.579 2.896 2.057.953.43 1.963.72 2.998.863a3.03 3.03 0 0 0 .6.073c.186.012.372.012.557 0 .139.009.276-.028.39-.107s.2-.192.242-.324c.011-.084.011-.169 0-.252v-.221l1.052-4.84c.61.516 3.776 2.967 3.955 1.957 1.484-8.416 3.156-17.663 2.841-26.3 0-.061-.025-.12-.068-.164s-.102-.067-.164-.067a.23.23 0 0 0-.163.067c-.044.044-.068.103-.068.164-1.747 7.974-2.104 16.211-3.693 24.196-1.126-.871-2.369-1.579-3.692-2.104-.284 0-.884 5.702-1.179 6.533.005.028.005.056 0 .084-3.292-.358-5.48-1.893-8.068-4.797-.127-.21-.369-.095-.263.137z"/><path d="M264.053 200.008c-1.374 1.098-3.009 1.823-4.745 2.104-.95.136-1.919-.033-2.767-.484-1.862-.989-1.472-2.82-.736-4.282.397-.777.884-1.504 1.452-2.167a13.34 13.34 0 0 0 6.796 4.829z"/></g><path d="M259.298 202.143c-.951.137-1.92-.033-2.767-.484-1.862-.988-1.473-2.819-.737-4.281 2.062.726 3.819 2.661 3.504 4.765z" fill="#ff548a"/><g class="C"><path d="M291.489 164.408l-1.662.6c-15.065 4.671-29.719-12.14-29.719-12.14-1.78 2.75-4.401 4.85-7.473 5.988a15.18 15.18 0 0 1-9.57.324 99.18 99.18 0 0 1-5.986 14.002c.283-8.946 2.771-17.683 7.241-25.437a54.36 54.36 0 0 1 18.386-19.01c4.799 1.684 9.468 3.716 13.971 6.08 1.865-2.668 4.329-4.862 7.195-6.406.691-.389 1.453-.634 2.241-.72a5.86 5.86 0 0 1 2.344.22c.758.231 1.462.613 2.068 1.124a5.86 5.86 0 0 1 1.458 1.848c3.57-3.43 8.301-3.807 10.52-1.042 4.145 4.861 1.978 29.151-11.014 34.569zm-28.099 10.099a10.71 10.71 0 0 0-6.196-2.461c-.685-.045-1.372-.02-2.052.073a10.76 10.76 0 0 0-4.745 1.826 10.74 10.74 0 0 0-3.376 3.802 8.72 8.72 0 0 0-.589 1.326 10.28 10.28 0 0 0-.642 3.03c-.147 2.387.504 4.755 1.85 6.732a10.78 10.78 0 0 0 5.587 4.187 11.27 11.27 0 0 0 2.63.495h.674c2.579.005 5.074-.915 7.033-2.592s3.252-4.001 3.645-6.55c0-.305.073-.61.094-.926s0-.463 0-.684c-.003-1.579-.356-3.139-1.032-4.567s-1.661-2.688-2.881-3.691zm-7.448 17.569a9.32 9.32 0 0 1-8.707-8.708c-.144-2.262.541-4.499 1.926-6.292a9.32 9.32 0 0 1 5.602-3.452 9.14 9.14 0 0 1 2.346-.148c.773.051 1.536.196 2.273.432a9.2 9.2 0 0 1 2.619 1.336c1.635 1.184 2.841 2.867 3.437 4.796a9.31 9.31 0 0 1-3.791 10.53c-1.689 1.107-3.691 1.636-5.705 1.506zm31.675-10.699l-.189-.453a7.44 7.44 0 0 0-3.156-3.503c-.453-.252-.938-.443-1.441-.568-.733-.178-1.493-.221-2.241-.126a7.9 7.9 0 0 0-4.113 1.883c-.87.741-1.622 1.61-2.23 2.577a12.84 12.84 0 0 0-1.168 2.273 10.94 10.94 0 0 0-.526 1.578 2.83 2.83 0 0 0-.095.326c-.624 2.385-.558 4.899.189 7.248a7.65 7.65 0 0 0 1.609 2.943 7.63 7.63 0 0 0 2.715 1.97 7.2 7.2 0 0 0 .673.21c.872.198 1.774.22 2.653.065a6.73 6.73 0 0 0 2.471-.969c2.679-1.751 4.567-4.481 5.26-7.606.686-2.595.543-5.339-.411-7.848zm-1.052 7.501c-.478 2.052-1.499 3.937-2.956 5.46a6.02 6.02 0 0 1-2.563 1.755c-.993.351-2.061.435-3.096.243-3.535-.873-5.376-5.638-4.135-10.625a11.46 11.46 0 0 1 3.545-5.996 5.77 5.77 0 0 1 2.363-1.35c.884-.254 1.816-.293 2.719-.113.175.042.347.095.515.158a5.94 5.94 0 0 1 2.012 1.41 5.93 5.93 0 0 1 1.27 2.104 8.98 8.98 0 0 1 .505 1.715c.336 1.735.29 3.523-.136 5.239h-.043z"/><path d="M266.662 184.606l-.684-1.262c1.862-1.052 5.923-2.104 7.953 1.157l-1.22.758c-1.82-2.925-5.871-.747-6.049-.653zm-18.863-6.627l-.41 1.378-.957-.284-9.342-2.672-1.683-.463.799-1.273.852.242 9.963 2.84.778.232z"/></g><g opacity=".3" class="B"><path opacity=".54" d="M302.977 227.791c-10.482 2.308-21.412 1.457-31.409-2.447s-18.612-10.684-24.756-19.485-9.539-19.224-9.758-29.954a54.27 54.27 0 0 1 8.53-30.328 54.26 54.26 0 0 1 55.223-24.202c10.567 1.88 20.339 6.85 28.08 14.283s13.105 16.996 15.412 27.477c1.533 6.959 1.68 14.151.433 21.167a54.25 54.25 0 0 1-7.701 19.721c-3.837 6.004-8.82 11.193-14.663 15.271a54.23 54.23 0 0 1-19.391 8.497z"/><path opacity=".5" d="M243.717 200.849c6.874 12.547 18.422 21.874 32.135 25.954a54.29 54.29 0 0 0 41.095-4.167l-73.23-21.787zm1.557-54.735l100.298 29.845c.087-4.309-.337-8.614-1.262-12.824-1.049-4.829-2.767-9.489-5.103-13.844l-74.039-22.04c-8.135 4.483-14.985 10.978-19.894 18.863zm-7.827 35.021l95.533 28.404c2.276-2.734 4.281-5.683 5.985-8.805l-101.728-30.277c-.293 3.557-.223 7.135.21 10.678zm4.356-28.457l103.096 30.687.273-1.957L242.623 150.9l-.82 1.778zm40.533-31.381l45.762 13.613-3.734-3.156-37.167-11.046c-1.63.113-3.252.31-4.861.589z"/></g><path d="M310.445 294.869l13.932-3.068-13.492-61.263-13.931 3.068 13.491 61.263z" class="E"/><path d="M350.232 161.831c-2.565-11.652-8.528-22.28-17.135-30.543s-19.469-13.787-31.215-15.875a60.32 60.32 0 0 0-61.388 26.906c-6.425 10.052-9.724 21.784-9.481 33.712a60.32 60.32 0 0 0 38.364 54.96c11.113 4.34 23.263 5.288 34.915 2.723 15.621-3.445 29.236-12.952 37.851-26.431s11.524-29.828 8.089-45.452zm-47.255 65.96a54.26 54.26 0 0 1-31.41-2.441c-9.999-3.903-18.615-10.682-24.76-19.482s-9.542-19.223-9.762-29.954 2.746-21.285 8.525-30.329 14.11-16.172 23.94-20.481 20.716-5.606 31.283-3.727 20.34 6.848 28.082 14.281a54.27 54.27 0 0 1 15.414 27.477c1.533 6.958 1.68 14.15.434 21.165a54.27 54.27 0 0 1-7.699 19.72 54.25 54.25 0 0 1-14.659 15.272 54.24 54.24 0 0 1-19.388 8.499z" fill="#666276"/><path d="M316.2 337.978l21.072-4.64-11.951-54.315-21.082 4.64 11.961 54.315z" class="K"/><g class="B"><path d="M325.395 180.094c-.023.062-.04.125-.053.189-.252.905.274-.873.084-.284l-.726 2.104a45.97 45.97 0 0 1-3.366 7.049l-.558.947c-.063.105.463-.737 0-.074l-.368.568-1.494 2.104c-1.139 1.54-2.38 3.002-3.713 4.376l-.968.968c-.442.432.515-.473-.095.084l-.61.558-2.44 1.978-2.799 1.925-1.336.789c-.778.452.337-.158-.242.137l-.831.42c-2.513 1.237-5.142 2.224-7.848 2.946h-.137l-.294.063-1.21.263-2.367.41-5.039.463c-.468.053-.922.198-1.334.427s-.776.535-1.069.904c-.593.745-.866 1.695-.758 2.641a3.59 3.59 0 0 0 3.971 3.161 45.24 45.24 0 0 0 28.993-11.709c5.292-4.956 9.43-11.014 12.119-17.747.616-1.503 1.129-3.046 1.536-4.618.146-.94-.087-1.9-.647-2.668s-1.401-1.285-2.341-1.435c-.937-.126-1.886.114-2.65.671s-1.285 1.386-1.452 2.316l.042.074z" class="H"/><path d="M326.868 178.263c.106.692.416 1.336.889 1.852a3.54 3.54 0 0 0 1.77 1.044c.68.165 1.394.125 2.051-.116s1.228-.672 1.64-1.238.647-1.241.675-1.94a3.54 3.54 0 0 0-.518-1.988 3.53 3.53 0 0 0-1.537-1.364c-.636-.293-1.344-.39-2.035-.279a3.53 3.53 0 0 0-2.935 4.029z"/></g><g class="G"><path d="M362.478 304.619s15.064-24.764-3.693-48.392c-7.721-9.721-25.942-27.152-62.909-24.722-8.774.578-20.862 7.616-6.197 11.877 10.415 3.029 17.937 1.799 23.681 4.66 0 0-14.318 10.783-13.392 19.546.41 3.914.715 12.466 2.977 20.609 0 0 2.967 2.104 5.376 1.746 0 0 6.491 18.726 29.835 24.48l24.322-9.804z"/><path d="M350.864 253.05c-6.039-2.409-18.936-7.291-30.877-7.627-13.265-.369-38.924 2.503-39.081 12.297-.127 7.186 9.762 6.944 9.762 6.944s-10.352 3.419-9.036 9.931c1.188 5.933 8.826 5.26 8.826 5.26s-5.923 3.156-3.672 8.647c2.704 6.607 14.665-1.052 23.144 3.24 1.957 1.01 40.934-38.692 40.934-38.692z"/></g><path d="M321.913 259.498c-6.049-1.325-20.578-.82-31.119 4.934-.242.127-.273.379 0 .305 10.129-2.953 20.578-4.67 31.119-5.112.094 0 .094-.053 0-.127zm-.737 13.382c-5.344-.61-20.293.578-30.771 6.775-.242.136-.252.389 0 .305a139.68 139.68 0 0 1 30.792-6.954c.017-.003.032-.012.042-.026s.014-.031.011-.048-.012-.031-.026-.041-.031-.014-.048-.011zm21.535 43.153c-5.356-1.271-10.525-3.226-15.381-5.818a42.8 42.8 0 0 1-12.739-10.52c-1.052-1.315-2.104-2.682-3.02-4.081s-1.925-2.988-3.008-4.377c-.084-.105-.284 0-.221.095 1.219 2.92 2.72 5.714 4.481 8.342a34.19 34.19 0 0 0 5.618 6.68 38.39 38.39 0 0 0 14.728 8.164c3.096.862 6.266 1.436 9.468 1.715.158.042.221-.169.074-.2z" class="C"/><g class="G"><path d="M189.15 236.786c-27.099 36.388-72.325 131.226-78.973 145.176-4.513 9.468 44.962 34.4 47.056 27.52 2.693-8.816 46.929-125.188 53.126-167.615 3.387-23.26-11.835-17.674-21.209-5.081z"/><path d="M158.569 404.748c-1.147 8.574-6.975 25.848-11.309 28.488s-27.11 2.104-38.588 2.104-13.676-3.208-13.539-7.153 24.27-4.703 24.27-4.703-32.171 9.174-40.26 10.72-26.721 6.207-29.456-.494c-1.21-3.03 3.892-6.092 3.892-6.092s-7.816 2.283-9.068-1.599c-1.41-4.429 4.808-6.859 4.808-6.859s-4.892.979-5.007-2.63c-.21-8.1 30.382-12.056 30.382-12.056s-23.417 11.404-24.196 4.819c-1.052-9.1 46.961-19.084 51.958-23.05a93.69 93.69 0 0 0 10.173-9.878l45.941 28.383z"/></g><path d="M95.301 430.143c-.081-.558-.028-1.129.155-1.663a3.56 3.56 0 0 1 .897-1.409 10 10 0 0 1 2.798-1.809 37.51 37.51 0 0 1 6.575-2.104c4.523-1.147 9.163-1.957 13.781-3.156a56.57 56.57 0 0 0-14.139 1.578 25.92 25.92 0 0 0-6.764 2.588 9.15 9.15 0 0 0-2.83 2.42 3.66 3.66 0 0 0-.473 3.555zm-41.648-2.567c3.314-.81 6.575-1.735 9.826-2.682l9.731-2.914 9.689-3.03c3.23-1.052 6.459-2.02 9.72-2.998a75.38 75.38 0 0 0-10.047 1.799c-3.324.757-6.586 1.704-9.836 2.693s-6.47 2.104-9.647 3.282-6.386 2.42-9.437 3.85zm31.16-19.672a62.79 62.79 0 0 0-9.279 1.283 84.5 84.5 0 0 0-9.079 2.336 82.3 82.3 0 0 0-8.784 3.282 64.83 64.83 0 0 0-8.321 4.292l8.774-3.156 8.816-2.893 8.889-2.672 8.984-2.472zm-4.734-7.659a57.79 57.79 0 0 0-14.728 3.156 57.52 57.52 0 0 0-13.581 6.586l14.107-5.06 14.202-4.682z" class="C"/><path d="M200.67 299.159l-54.915-1.515s29.93-47.635 45.962-65.108c16.737-18.2 25.848-16.633 20.135 15.611-5.754 32.465-11.182 51.012-11.182 51.012z" class="J"/><path d="M166.69 289.575c-1.482.648-2.869 1.494-4.124 2.514a18.85 18.85 0 0 0 8.763-3.882 16.86 16.86 0 0 0-4.639 1.368zm30.666-34.884a16.73 16.73 0 0 0-2.514-4.124 18.48 18.48 0 0 0 3.892 8.753c-.231-1.602-.696-3.162-1.378-4.629zm-25.322 10.351c-.6 1.502-.982 3.082-1.136 4.692a18.54 18.54 0 0 0 3.43-8.942c-.969 1.297-1.742 2.729-2.294 4.25zm24.196 21.503c-.605 1.504-.984 3.088-1.125 4.703 1.895-2.635 3.076-5.716 3.429-8.942a16.99 16.99 0 0 0-2.325 4.239h.021zm16.096-62.541l-.737 1.673a17.52 17.52 0 0 0-1.136 4.692c.969-1.285 1.748-2.702 2.315-4.208l.136-.4c-.15-.602-.35-1.189-.599-1.757h.021z" class="B"/><path d="M197.23 289.607c-1.305-.19-2.641-.19-3.945-.253l-4.051-.221-8.195-.326-16.39-.431h-4.513l-4.734.168c-.095 0-.084.147 0 .147l4.05.369 4.156.22 8.205.263 16.138.284h4.566l4.734-.052c.042-.032.063-.158-.021-.168zm14.086-26.164c0-.105-.126-.168-.179-.063a41.39 41.39 0 0 0-2.609 5.839l.589-2.883 1.757-9.299c-.007-.019-.019-.035-.035-.046a.09.09 0 0 0-.054-.018c-.02 0-.039.006-.055.018a.1.1 0 0 0-.035.046c-1.42 5.323-3.072 10.593-4.334 15.959l-3.714 16.116c-.641 2.977-1.22 6.691-1.872 9.658-1.589.189-3.63 0-5.344.22-.148 0-.106.263 0 .263 1.809.053 3.966.463 5.87.348.242 0 4.849-19.136 6.764-28.299 1.178-2.609 2.272-5.218 3.251-7.859zm39.061-29.75l-2.641 7.427c-.834 2.189-1.859 4.301-3.061 6.312-2.273 3.587-5.765 6.554-10.194 6.543-4.208 0-8.058-2.44-10.752-5.554-2.945-3.398-4.902-7.659-6.659-11.762-1.052-2.535-2.104-5.123-2.945-7.742-.432-1.326-.884-2.651-1.263-3.998s-.705-2.704-1.167-4.019c0-.105-.232-.094-.2 0 .778 3.03 3.04 12.624 3.945 15.065 1.662 4.471 3.534 9.089 6.533 12.856 2.84 3.555 6.701 6.248 11.319 6.69s8.574-1.988 11.12-5.649c1.497-2.306 2.665-4.809 3.471-7.438.979-2.882 1.799-5.838 2.546-8.794.042.042-.052.031-.052.063z" class="C"/><g class="E"><path d="M422.756 437.886h-75.439l-3.366-66.318h78.805v66.318z"/><path d="M422.756 371.568l27.1-33.927 21.566 33.927-3.366 66.318h-45.3v-66.318z"/></g><path d="M370.283 326.868h80.53l29.046 47.382h-9.352l-19.694-32.801-22.712 36.715h-90.799l32.981-51.296z" class="I"/><path d="M379.614 341.859h-17.316l-9.237 11.068h19.988l6.565-11.068z" class="D"/><g class="E"><path d="M366.496 351.033v13.476h-9.637v-13.476l4.818-6.028 4.819 6.028z"/><path d="M366.495 351.022h7.575l-7.575 13.487v-13.487z"/></g><path d="M364.171 351.243h-5.481v9.247h5.481v-9.247z" class="B"/><path d="M361.13 351.885h-1.767v2.977h1.767v-2.977zm2.357 0h-1.768v2.977h1.768v-2.977zm-2.357 3.514h-1.767v4.408h1.767v-4.408zm2.357 0h-1.768v4.408h1.768v-4.408z" class="F"/><path d="M422.009 341.859h-17.315l-8.669 11.068h19.378l6.606-11.068z" class="D"/><g class="E"><path d="M408.891 351.033v13.476h-9.636v-13.476l4.818-6.028 4.818 6.028z"/><path d="M408.891 351.022h7.585l-7.585 13.487v-13.487z"/></g><path d="M406.566 351.243h-5.481v9.247h5.481v-9.247z" class="B"/><path d="M403.526 351.885h-1.767v2.977h1.767v-2.977zm2.367 0h-1.767v2.977h1.767v-2.977zm-2.367 3.514h-1.767v4.408h1.767v-4.408zm2.367 0h-1.767v4.408h1.767v-4.408z" class="F"/><g class="E"><path d="M436.369 324.954h-9.636v12.687h9.636v-12.687z"/><path d="M436.369 324.954h7.575v2.041l-7.575 10.646v-12.687z"/></g><path d="M436.369 320.641h-10.72v4.313h10.72v-4.313z" class="I"/><path d="M444.775 320.641h-8.406v4.313h8.406v-4.313z" class="D"/><path d="M367.221 383.592h-11.929v20.146h11.929v-20.146z" class="B"/><g class="F"><use xlink:href="#O"/><use xlink:href="#O" x="5.145"/><use xlink:href="#P"/><use xlink:href="#P" x="5.145"/></g><path d="M411.532 383.592h-11.93v20.146h11.93v-20.146z" class="B"/><g class="F"><use xlink:href="#O" x="44.311"/><use xlink:href="#O" x="49.455"/><use xlink:href="#P" x="44.311"/><use xlink:href="#P" x="49.455"/></g><path d="M367.221 411.586h-11.929v20.146h11.929v-20.146z" class="B"/><g class="F"><use xlink:href="#O" y="27.994"/><use xlink:href="#O" x="5.145" y="27.994"/><use xlink:href="#P" y="27.994"/><use xlink:href="#P" x="5.145" y="27.994"/></g><path d="M411.532 411.586h-11.93v20.146h11.93v-20.146z" class="B"/><g class="F"><use xlink:href="#O" x="44.311" y="27.994"/><use xlink:href="#O" x="49.455" y="27.994"/><use xlink:href="#P" x="44.311" y="27.994"/><use xlink:href="#P" x="49.455" y="27.994"/></g><path d="M389.313 383.592h-11.929v20.146h11.929v-20.146z" class="B"/><g class="F"><use xlink:href="#O" x="22.092"/><use xlink:href="#O" x="27.247"/><use xlink:href="#P" x="22.092"/><use xlink:href="#P" x="27.247"/></g><path d="M389.313 411.723h-11.929v20.146h11.929v-20.146z" class="B"/><g class="F"><use xlink:href="#O" x="22.092" y="28.12"/><use xlink:href="#O" x="27.247" y="28.12"/><use xlink:href="#P" x="22.092" y="28.131"/><use xlink:href="#P" x="27.247" y="28.131"/></g><path d="M444.196 403.738h11.93v-20.146h-11.93v20.146z" class="B"/><g class="F"><use xlink:href="#O" x="94.049"/><use xlink:href="#O" x="88.894"/><use xlink:href="#P" x="94.049"/><use xlink:href="#P" x="88.894"/></g><path d="M444.196 372.599h11.93v-17.053h-11.93v17.053z" class="B"/><g class="F"><path d="M454.653 356.935h-3.84v6.49h3.84v-6.49zm-5.155 0h-3.84v6.49h3.84v-6.49z"/><use xlink:href="#O" x="94.049" y="-20.324"/><use xlink:href="#O" x="88.894" y="-20.324"/></g><path d="M442.499 438.009l14.465.069.123-26.269-14.464-.068-.124 26.268z" class="B"/><g class="F"><path d="M448.277 413.56l-.018 3.934 3.114.015.018-3.934-3.114-.015zm-4.069-.021l-.019 3.934 3.114.015.019-3.935-3.114-.014z"/><path d="M446.47 431.779l6.575.031.005-.946-6.575-.031-.005.946zm3.754-20.224v3.934h3.114v-3.934h-3.114zm-1.957 6.973l-.019 3.934 3.114.015.018-3.934-3.113-.015zm-4.101-.032l-.019 3.935 3.114.014.018-3.934-3.113-.015zm8.18.053l-.018 3.935 3.114.014.018-3.934-3.114-.015zm-4.101 4.957l-.018 3.935 3.114.014.018-3.934-3.114-.015zm-4.09-.021l-.019 3.934 3.114.015.019-3.934-3.114-.015zm8.17.042l-.018 3.935 3.114.014.018-3.934-3.114-.015z"/></g><g class="E"><path d="M215.134 438.065h-67.013l-2.998-32.475h70.011v32.475z"/><path d="M215.113 405.548l24.069-30.13 19.168 30.13-2.998 32.475h-40.239v-32.475z"/></g><path d="M168.12 365.887h72.788l26.962 45.562h-7.353l-20.598-34.295-19.788 34.295h-80.647l28.636-45.562z" class="I"/><path d="M165.963 417.646h-10.604v15.148h10.604v-15.148z" class="B"/><g class="E"><use xlink:href="#Q"/><use xlink:href="#Q" x="4.576"/><use xlink:href="#Q" y="6.859"/><use xlink:href="#Q" x="4.576" y="6.859"/></g><path d="M204.908 417.646h-10.604v15.148h10.604v-15.148z" class="B"/><g class="E"><use xlink:href="#Q" x="38.945"/><use xlink:href="#Q" x="43.521"/><use xlink:href="#Q" x="38.945" y="6.859"/><use xlink:href="#Q" x="43.521" y="6.859"/></g><path d="M185.499 416.835h-11.688v21.23h11.688v-21.23z" class="B"/><g class="E"><use xlink:href="#R"/><use xlink:href="#R" x="3.303"/><path d="M182.311 432.237h-5.312v.768h5.312v-.768z"/><use xlink:href="#R" x="-3.303"/><use xlink:href="#R" y="4.018"/><use xlink:href="#R" x="3.303" y="4.018"/><use xlink:href="#R" x="-3.303" y="4.018"/><use xlink:href="#R" y="8.037"/><use xlink:href="#R" x="3.303" y="8.037"/><use xlink:href="#R" x="-3.303" y="8.037"/><path d="M183.521 364.067h-8.563v11.267h8.563v-11.267z"/><path d="M183.521 364.067h6.733v1.81l-6.733 9.457v-11.267z"/></g><path d="M183.521 360.227h-9.52v3.83h9.52v-3.83z" class="I"/><path d="M190.99 360.227h-7.469v3.83h7.469v-3.83z" class="D"/><g class="E"><path d="M241.623 438.075h21.734l2.073-22.397h-23.807v22.397z"/><path d="M241.623 415.678l-10.741-4.849.242 27.246h10.499v-22.397z"/></g><path d="M258.266 421.475h-9.142v16.59h9.142v-16.59z" class="B"/><path d="M254.678 422.611h-1.967v2.483h1.967v-2.483zm2.578 0h-1.967v2.483h1.967v-2.483zm-1.484 9.784h-4.155v.599h4.155v-.599zm-3.671-9.784h-1.967v2.483h1.967v-2.483z" class="E"/><path d="M229.241 409.714h31.581l10.204 7.763h-30.318l-11.467-7.763z" class="I"/><path d="M240.708 417.477h-11.467v-7.763l11.467 7.763z" class="E"/><path d="M233.922 398.362c0 1.072.318 2.12.914 3.011a5.42 5.42 0 0 0 2.433 1.996c.991.41 2.081.516 3.132.306s2.017-.727 2.774-1.485a5.42 5.42 0 0 0 1.168-5.908 5.42 5.42 0 0 0-2-2.429c-.893-.595-1.941-.91-3.013-.908a5.41 5.41 0 0 0-3.824 1.59 5.42 5.42 0 0 0-1.584 3.827z" class="B"/><path d="M235.132 398.362a4.21 4.21 0 0 0 1.233 2.976c.789.789 1.859 1.232 2.975 1.232.355.003.709-.043 1.052-.136.98-.266 1.831-.878 2.395-1.722s.805-1.863.677-2.87-.616-1.935-1.374-2.61-1.734-1.055-2.75-1.067c-.355-.002-.709.044-1.052.137a3.82 3.82 0 0 0-1.357.631 4.22 4.22 0 0 0-1.799 3.429z" class="E"/><g class="B"><path d="M238.751 403.307h1.168v-9.973h-1.168v9.973z"/><path d="M244.327 398.899v-1.168h-9.973v1.168h9.973z"/></g><path d="M272.594 438.075H238.73l-2.314-25.048h36.178v25.048z" class="D"/><path d="M272.594 438.075H238.73l-2.314-25.048h36.178v25.048z" class="C H"/><g class="D"><path d="M272.594 413.027l18.568-23.249 14.78 23.249-2.304 25.048h-31.044v-25.048z"/><use xlink:href="#S"/></g><use xlink:href="#S" opacity=".4" class="C"/><path d="M321.207 349.855h-9.573v12.603h9.573v-12.603z" class="D"/><path d="M321.207 349.855h-9.573v12.603h9.573v-12.603z" class="C H"/><path d="M328.739 349.855h-7.532v12.603h7.532v-12.603zm-7.532-4.293h-10.646v4.282h10.646v-4.282z" class="D"/><path opacity=".5" d="M321.207 345.562h-10.646v4.282h10.646v-4.282z" class="C"/><path d="M329.56 345.562h-8.353v4.282h8.353v-4.282z" class="D"/><path opacity=".4" d="M329.56 345.562h-8.353v4.282h8.353v-4.282z" class="C"/><path d="M354.85 438.044h-74.955l-3.356-36.326h78.311v36.326z" class="D"/><path d="M354.85 438.044h-74.955l-3.356-36.326h78.311v36.326z" class="C H"/><g class="D"><path d="M354.85 401.718l26.921-33.716 21.439 33.716-3.356 36.326H354.85v-36.326z"/><use xlink:href="#T"/></g><use xlink:href="#T" opacity=".5" fill="#000"/><path d="M374.775 406.821h11.856v-16.948h-11.856v16.948z" class="B"/><g class="D"><path d="M385.168 391.251h-3.818v6.449h3.818v-6.449z"/><use xlink:href="#U"/><path d="M385.168 398.93h-3.818v6.449h3.818v-6.449z"/><use xlink:href="#U" y="7.679"/></g><path d="M299.841 415.194h-11.856v16.948h11.856v-16.948z" class="B"/><g class="D"><use xlink:href="#U" x="-86.79" y="25.332"/><use xlink:href="#U" x="-81.667" y="25.332"/><use xlink:href="#V"/><use xlink:href="#V" x="5.123"/></g><path d="M321.628 415.194h-11.856v16.948h11.856v-16.948z" class="B"/><g class="D"><use xlink:href="#U" x="-65.014" y="25.332"/><path d="M320.165 416.583h-3.818v6.449h3.818v-6.449z"/><use xlink:href="#V" x="21.776"/><path d="M320.165 424.263h-3.818v6.448h3.818v-6.448z"/></g><path d="M343.404 415.194h-11.856v16.948h11.856v-16.948z" class="B"/><g class="D"><use xlink:href="#U" x="-43.227" y="25.332"/><use xlink:href="#U" x="-38.114" y="25.332"/><use xlink:href="#V" x="43.563"/><use xlink:href="#V" x="48.676"/></g><path d="M374.164 438.033h13.077V414.29h-13.077v23.743z" class="B"/><g class="D"><use xlink:href="#W"/><path d="M378.425 415.931h-2.819v3.556h2.819v-3.556zm-.694 16.453h5.944v-.863h-5.944v.863z"/><use xlink:href="#W" x="3.682"/><use xlink:href="#W" y="4.492"/><path d="M378.425 420.423h-2.819v3.556h2.819v-3.556z"/><use xlink:href="#W" x="3.682" y="4.492"/><use xlink:href="#W" y="8.984"/><path d="M378.425 424.915h-2.819v3.556h2.819v-3.556z"/><use xlink:href="#W" x="3.682" y="8.984"/><path d="M333.242 369.506h-17.211l-8.847 11.046h19.483l6.575-11.046z"/></g><path opacity=".4" d="M333.242 369.506h-17.211l-8.847 11.046h19.483l6.575-11.046z" class="C"/><path d="M320.207 378.616v13.392h-9.583v-13.392l4.797-5.986 4.786 5.986z" class="D"/><path d="M320.207 378.616v13.392h-9.583v-13.392l4.797-5.986 4.786 5.986z" class="C H"/><path d="M320.207 378.616h7.533l-7.533 13.392v-13.392z" class="D"/><path d="M317.883 378.827h-5.439v9.184h5.439v-9.184z" class="B"/><path d="M314.874 379.458h-1.757v2.956h1.757v-2.956zm2.346 0h-1.757v2.956h1.757v-2.956zm-2.346 3.503h-1.757v4.387h1.757v-4.387zm2.346 0h-1.757v4.387h1.757v-4.387z" class="D"/><path d="M433.025 241.604a33.18 33.18 0 0 1 10.068 15.042c1.897 5.85 2.131 12.113.675 18.088s-4.543 11.429-8.918 15.751a33.19 33.19 0 0 1-15.859 8.726l-7.364 15.075-7.143-14.97c-5.341-1.144-10.313-3.603-14.465-7.153-3.32-2.825-6.05-6.275-8.037-10.155a33.21 33.21 0 0 1-3.539-12.458 33.19 33.19 0 0 1 7.805-24.175c5.704-6.704 13.838-10.868 22.613-11.576a33.19 33.19 0 0 1 24.175 7.805h-.011z" class="B"/><path d="M433.025 241.604c4.684 3.985 8.176 9.188 10.089 15.033a36.37 36.37 0 0 1 1.157 4.439c.252 1.511.41 3.036.473 4.566a32.92 32.92 0 0 1-.852 9.131c-.696 2.997-1.804 5.882-3.293 8.574-.752 1.342-1.6 2.629-2.535 3.85a29.62 29.62 0 0 1-2.988 3.514c-4.387 4.419-9.922 7.523-15.979 8.963l.326-.252-7.28 15.117-.526 1.105-.526-1.105-7.196-14.938.442.347a33.58 33.58 0 0 1-16.565-9.008c-4.549-4.524-7.706-10.255-9.099-16.516a33.58 33.58 0 0 1 1.237-18.816c2.201-6.025 6.081-11.294 11.182-15.182a33.99 33.99 0 0 1 13.676-6.123c4.956-1.003 10.074-.867 14.969.397s9.439 3.626 13.288 6.904zm0 0c-3.823-3.264-8.344-5.606-13.215-6.847a32.85 32.85 0 0 0-14.881-.308c-4.918 1.038-9.532 3.191-13.487 6.294s-7.145 7.072-9.323 11.602a32.75 32.75 0 0 0-3.283 14.37 34.29 34.29 0 0 0 3.325 14.307c2.158 4.451 5.298 8.354 9.184 11.414 3.892 3.047 8.418 5.182 13.244 6.249l.316.074.126.284 7.101 14.991h-1.052l7.48-15.023.095-.21h.221c5.947-1.302 11.412-4.238 15.78-8.479a29.79 29.79 0 0 0 2.998-3.409 31.39 31.39 0 0 0 2.556-3.755c1.525-2.632 2.673-5.465 3.409-8.416a31.24 31.24 0 0 0 .967-9.047c-.054-1.522-.198-3.04-.431-4.545-.284-1.498-.66-2.977-1.125-4.429-1.875-5.866-5.338-11.099-10.005-15.117z" fill="#666276"/><path d="M420.538 258.457c-.368-.375-.777-.707-1.221-.989-.586-.38-1.202-.714-1.841-.999a14.66 14.66 0 0 0-4.891-1.263v9.468l.873.179a42.09 42.09 0 0 1 4.45 1.326 12.76 12.76 0 0 1 3.356 1.777 7.31 7.31 0 0 1 2.104 2.578c.527 1.169.782 2.442.747 3.724a9.02 9.02 0 0 1-.863 4.124c-.563 1.129-1.385 2.11-2.399 2.861a10.76 10.76 0 0 1-3.566 1.704 17.33 17.33 0 0 1-4.355.621v4.797h-2.367v-4.892c-2.155-.13-4.28-.565-6.312-1.294-1.958-.704-3.79-1.716-5.429-2.998l2.325-4.376a8.2 8.2 0 0 0 1.463 1.189 17.33 17.33 0 0 0 2.23 1.23 20.24 20.24 0 0 0 2.809 1.053c1.031.305 2.087.52 3.156.641v-9.468l-.568-.158a4.42 4.42 0 0 1-.568-.157 39 39 0 0 1-4.208-1.347 10.5 10.5 0 0 1-2.988-1.715 6.56 6.56 0 0 1-1.799-2.346c-.443-1.032-.655-2.149-.621-3.271-.029-1.363.237-2.716.779-3.966.505-1.142 1.252-2.162 2.188-2.988.968-.858 2.088-1.525 3.303-1.967 1.354-.493 2.771-.791 4.208-.884v-4.618h2.367v4.618c1.88.096 3.731.497 5.481 1.189a19.99 19.99 0 0 1 4.429 2.409l-2.272 4.208zm-15.065 1.178c-.037.555.067 1.111.302 1.615a3.3 3.3 0 0 0 1.045 1.268 13.04 13.04 0 0 0 4.081 1.683v-8.995c-1.478-.036-2.926.423-4.113 1.305-.438.39-.783.873-1.01 1.413s-.332 1.125-.305 1.711zm13.224 15.159c.028-.601-.106-1.2-.387-1.732s-.7-.981-1.212-1.297a16.82 16.82 0 0 0-4.482-1.852v9.037c1.57.076 3.13-.288 4.503-1.052.512-.334.927-.796 1.204-1.341s.406-1.152.374-1.763z" class="J"/><defs ><path id="B" d="M463.175 240.51h6.154v-8.448h-6.154v8.448z"/><path id="C" d="M250.071 253.859h6.154v-7.048h-6.154v7.048z"/><path id="D" d="M250.071 296.529h6.154v-7.049h-6.154v7.049z"/><path id="E" d="M387.357 256.374h35.431v-5.281h-35.431v5.281z"/><path id="F" d="M132.237 247.379h32.58v-5.281h-32.58v5.281z"/><path id="G" d="M79.574 259.761h34.411v-5.281h-34.41v5.281z"/><path id="H" d="M286.965 239.51h10.941v-5.102h-10.941v5.102z"/><path id="I" d="M286.965 249.41h10.941v-5.103h-10.941v5.103z"/><path id="J" d="M358.154 205.73h11.403v-8.047h-11.403v8.047z"/><path id="K" d="M358.154 217.545h11.403v-8.048h-11.403v8.048z"/><path id="L" d="M320.092 229.369h11.404v-8.048h-11.404v8.048z"/><path id="M" d="M66.813 218.607h6.154v-8.3h-6.154v8.3z"/><path id="N" d="M66.813 231.105h6.154v-8.301h-6.154v8.301z"/><path id="O" d="M360.604 384.991h-3.84v6.491h3.84v-6.491z"/><path id="P" d="M360.604 392.65h-3.84v9.615h3.84v-9.615z"/><path id="Q" d="M160.072 418.887h-3.408v5.765h3.408v-5.765z"/><path id="R" d="M180.912 418.298h-2.514v3.177h2.514v-3.177z"/><path id="S" d="M274.835 416.089h-45.952l27.952-35.148h34.516l20.746 35.148h-5.271l-15.475-24.081-16.516 24.081z"/><path id="T" d="M381.444 370.137l22.134 34.232h7.733l-29.204-47.066h-79.731l-40.397 50.969h97.384l22.081-38.135z"/><path id="U" d="M380.056 391.251h-3.819v6.449h3.819v-6.449z"/><path id="V" d="M293.266 424.263h-3.819v6.448h3.819v-6.448z"/><path id="W" d="M382.118 415.931h-2.82v3.556h2.82v-3.556z"/></defs></svg>