<svg xmlns="http://www.w3.org/2000/svg" xmlns:xlink="http://www.w3.org/1999/xlink" width="526" height="460" fill="none" xmlns:v="https://vecta.io/nano"><style><![CDATA[.B{fill:#fff}.C{fill:#f5f4f8}.D{fill:#d5d2dc}.E{fill:#1f1b2d}.F{fill:#fdbc31}.G{fill:#efecf3}.H{fill:#e7a793}.I{fill:#bbb7c5}.J{fill:#f9f8fa}.K{fill:#9691a4}.L{fill:#666276}]]></style><path d="M480.447 129.3H361.059s11.842-32.3342 30.06-32.3342 23.918 22.3212 23.918 22.3212 12.297-12.131 22.398-12.131 18.851 16.023 18.851 16.023 14.292-8.616 24.161 6.121zm-78.014-58.1653h-55.796s12.463-18.0629 22.287-18.0629 12.73 12.042 12.73 12.042 6.93-5.6219 13.306-4.6128 7.473 10.6337 7.473 10.6337zM154.217 119.674H45.5508s14.8806-33.2653 30.8035-35.3055 23.5295 24.6825 23.5295 24.6825 10.2682-9.4582 18.3402-9.4582 14.315 12.4632 14.315 12.4632 16.134-8.538 21.678 7.618zm103.289-71.565H184.09s12.607-24.0729 26.29-24.3944 20.869 18.2182 20.869 18.2182 21.278-17.1094 26.257 6.1762zM208.84 406.342c-97.622 0-176.7612-5.237-176.7612-11.698s79.1392-11.698 176.7612-11.698 176.762 5.238 176.762 11.698-79.139 11.698-176.762 11.698z" class="C"/><path d="M28.9994 338.882l58.5051.239 58.4955.09 117 .16 117-.16 58.495-.09 58.505-.239-58.505-.25-58.495-.09-117-.16-117 .16-58.4955.09-58.5051.25z" class="E"/><path d="M270.298 184.437c-16.895 17.574-67.651 95.79-71.606 98.127 0 0 0 51.156 28.269 40.941s54.182-101.992 59.714-131.25c2.915-15.447-2.577-22.158-16.377-7.818z" class="H"/><path d="M274.603 244.908l-51.805-5.891s32.133-42.628 48.739-57.846c17.315-15.857 25.803-13.63 17.774 16.406-8.068 30.216-14.708 47.331-14.708 47.331z" class="F"/><path d="M277.041 216.69c.57 1.429.933 2.932 1.079 4.464-1.808-2.498-2.933-5.423-3.266-8.488.925 1.226 1.662 2.582 2.187 4.024zm-29.098 1.168c1.426-.57 2.926-.933 4.454-1.078-2.493 1.809-5.415 2.935-8.478 3.265 1.225-.926 2.581-1.663 4.024-2.187zm7.719 20.151c.61-1.408 1.417-2.723 2.397-3.904-.23 1.516-.673 2.992-1.318 4.384-.59 1.417-1.392 2.737-2.377 3.914.224-1.518.661-2.998 1.298-4.394zm30.396-64.906l.819-1.627c.355-.035.713-.035 1.068 0l-.809 2.127c-.599 1.414-1.403 2.733-2.386 3.914.225-1.526.665-3.012 1.308-4.414zm-59.703 61.252l.998.399c1.413.608 2.734 1.411 3.925 2.386-1.523-.225-3.005-.666-4.404-1.308l-1.178-.579.659-.898zm39.942-41.151c1.41.605 2.727 1.405 3.914 2.377-1.523-.219-3.006-.656-4.404-1.298-1.411-.606-2.729-1.41-3.914-2.387 1.53.22 3.02.661 4.424 1.308h-.02zm3.475.09c.059.04.115.084.169.13h-.179s.03-.1.03-.13h-.02z" class="B"/><path d="M272.115 235.593c-1.208-.28-2.477-.39-3.705-.559l-3.814-.53-7.719-.998-15.468-1.738-4.263-.389-4.494-.22c-.09 0-.09.13 0 .14l3.795.679s2.616.379 3.924.539l7.729.919 15.248 1.578 4.253.359 4.494.34c.011-.005.022-.012.03-.021s.013-.021.015-.034 0-.024-.004-.036-.012-.021-.021-.029z" class="E"/><path opacity=".1" d="M249.47 242.053l25.124 2.856s6.64-17.115 14.718-47.331c3.405-12.742 3.835-20.48 1.878-23.965l-41.72 68.44z" fill="#000"/><g class="E"><path d="M260.234 351.454h78.795l1.907-7.489 2.107-8.268.46-1.787 1.527-5.991.889-3.515.889-3.465.23-.889.239-.999.3-1.168.309-1.208.569-2.237.809-3.165.34-1.338.539-2.107.34-1.348 1.298-5.093.319-1.228.499-1.997.3-1.169.939-3.684.219-.839.49-1.927.169-.649.16-.629c0-.14.07-.28.1-.4l.14-.539c0-.086.02-.166.06-.24l.179-.709h-76.698l-6.571 22.747-2.656 9.217-9.196 32.113z"/><path d="M326.129 351.454h1.997l8.478-36.278 1.997-8.847.179-.829c.004-.028-.003-.057-.02-.081s-.04-.041-.068-.048-.058-.005-.084.008-.046.035-.057.062c0 .089-.05.179-.08.269l-2.646 9.516-9.696 36.228z"/><path d="M281.143 287.387l3.385 16.976 2.776 13.9 4.723 23.685.49 2.427.808 4.044.63 3.035h45.084l1.897-7.489 2.107-8.268.46-1.787 1.527-5.991.889-3.515.889-3.465.23-.889.239-.999.3-1.168.309-1.208.569-2.237.809-3.165.34-1.338.539-2.107.34-1.348 1.298-5.093.319-1.228.499-1.997.3-1.169.939-3.684.219-.839.49-1.927.169-.649.16-.629c0-.14.07-.28.1-.4l.14-.539c0-.086.02-.166.06-.24l.179-.709-74.212.01z"/><path d="M281.131 287.358c0 .419.319 4.992 1.058 11.982l.749 6.671c.45 3.784.999 7.988 1.698 12.372 1.178 7.698 2.716 16.096 4.713 24.304.709 2.996 1.488 5.882 2.317 8.748h99.006l-3.086-39.493-1.997-24.614H295.78l-14.649.03z"/><path d="M281.342 296.454c.11 3.545.259 7.08.489 10.605.24 3.824.589 7.639 1.088 11.453 0 .14 0 .28.05.42.466 3.574 1.002 7.139 1.608 10.694.569 3.315.999 6.89 2.456 9.986.555 1.187 1.342 2.25 2.317 3.125.892.816 1.984 1.381 3.166 1.638.193.048.39.082.589.1h.169c-.036.02-.066.051-.085.088s-.028.079-.024.121c0 1.189 0 2.397.139 3.575v.15c.12.998.31 2.047.5 3.065h1.697v-.06c-.299-1.118-.549-2.246-.829-3.375s-.679-2.276-.948-3.445c-.015-.043-.043-.082-.08-.109 1.077.051 2.145-.228 3.059-.801s1.631-1.412 2.053-2.405c.427-1.518.454-3.121.08-4.653l-.918-6.081c-.579-3.725-1.328-7.409-1.997-11.114l-.3-1.688c-1.328-7.539-2.716-15.078-4.384-22.547-.06-.309-.129-.619-.199-.929s-.38-.149-.36.05l.16 1.508.999 8.568c.479 3.345.808 6.71 1.278 10.055l.489 3.415 2.506 16.486c.44 2.547 1.997 7.11-1.637 7.899-.84.186-1.718.077-2.487-.31-1.618-.975-2.828-2.504-3.405-4.304-.899-2.997-1.55-6.062-1.947-9.166-.599-3.329-1.132-6.687-1.598-10.076l-1.877-12.591-.998-6.411-.48-2.996c-.01-.209-.339-.149-.339.06zm87.614 26.322c-4.123-.043-8.225-.597-12.212-1.648-1.837-.469-3.655-1.058-5.462-1.648-1.791-.494-3.467-1.335-4.933-2.476-2.776-2.397-4.064-6.161-5.272-9.516-1.312-3.778-2.376-7.637-3.186-11.553 0-.19-.319-.12-.329.059-.096 4.429.466 8.848 1.667 13.111.999 3.625 2.337 7.659 5.263 10.196s7.249 3.614 11.194 4.094c4.422.514 8.893.454 13.3-.18.058-.004.113-.031.151-.075s.058-.101.054-.16-.031-.112-.075-.151-.102-.057-.16-.053zm6.878-26.722l.699 16.636 1.868 38.764h1.857l-2.686-38.824-1.258-16.586c-.002-.063-.028-.124-.074-.168s-.107-.068-.171-.066-.124.027-.168.073-.068.108-.067.171z"/></g><path d="M264.087 328.368l134.315-10.185s-27.02-107.095-80.373-146.468c-13.64-10.055-28.568-3.604-35.289 3.915-17.075 19.152-19.052 152.309-18.653 152.738z" class="F"/><path d="M311.819 176.589c.564 1.427.926 2.926 1.078 4.453-.919-1.219-1.659-2.564-2.196-3.994-.564-1.427-.927-2.926-1.079-4.453.916 1.222 1.655 2.566 2.197 3.994zm14.579 57.776c.574 1.427.934 2.931 1.068 4.463-1.799-2.501-2.92-5.425-3.255-8.487.917 1.23 1.653 2.585 2.187 4.024zm47.99 24.774c.568 1.429.931 2.932 1.079 4.463-1.808-2.497-2.933-5.422-3.266-8.487.909 1.235 1.645 2.589 2.187 4.024zm-38.734 36.497c.58 1.422.944 2.923 1.079 4.453-1.799-2.501-2.92-5.425-3.255-8.487.915 1.233 1.648 2.592 2.176 4.034zm-58.615-78.965c.57 1.429.933 2.932 1.079 4.463-1.807-2.497-2.933-5.423-3.265-8.488.926 1.232 1.663 2.595 2.186 4.045v-.02zm23.906 72.644c.581 1.423.947 2.924 1.088 4.454-.918-1.219-1.654-2.565-2.187-3.995-.568-1.426-.931-2.925-1.078-4.453.915 1.219 1.648 2.564 2.177 3.994zm48.4-75.36c.569 1.425.932 2.925 1.078 4.453-1.81-2.495-2.932-5.422-3.255-8.488.919 1.231 1.653 2.59 2.177 4.035zm-53.663-19.173c1.424-.575 2.925-.938 4.454-1.078-1.221.912-2.566 1.645-3.994 2.177-1.427.577-2.931.941-4.464 1.078 1.223-.915 2.572-1.648 4.004-2.177zm-15.218 48.14c1.425-.572 2.925-.936 4.454-1.078-1.218.917-2.564 1.65-3.994 2.177-1.424.576-2.924.943-4.454 1.088 1.22-.906 2.566-1.629 3.994-2.147v-.04zm-4.084 57.537c1.426-.569 2.926-.933 4.454-1.079-1.218.92-2.563 1.657-3.994 2.187-1.427.567-2.926.93-4.454 1.079 1.225-.899 2.569-1.622 3.994-2.147v-.04zm95.612-4.733c1.425-.571 2.925-.934 4.453-1.079-2.492 1.81-5.415 2.935-8.478 3.266 1.232-.905 2.587-1.628 4.025-2.147v-.04zm-34.56-36.947c1.425-.572 2.925-.939 4.453-1.088-1.22.919-2.565 1.658-3.994 2.197-1.427.563-2.926.926-4.453 1.078 1.222-.905 2.567-1.631 3.994-2.157v-.03zm-51.376-85.705l.43-.879 1.548-1.078c-.248.837-.548 1.657-.899 2.456-.6 1.415-1.404 2.733-2.387 3.914.228-1.515.668-2.991 1.308-4.383v-.03zm39.253 31.055c.602-1.414 1.406-2.732 2.387-3.915-.48 3.046-1.755 5.912-3.695 8.308.22-1.52.661-3 1.308-4.393zM290.65 322.287c.602-1.411 1.402-2.729 2.376-3.914-.221 1.519-.658 2.998-1.298 4.394-.569 1.313-1.304 2.548-2.187 3.674h-.159c.23-1.436.657-2.834 1.268-4.154zm12.751-69.589c.608-1.41 1.411-2.728 2.387-3.914-.497 3.039-1.765 5.9-3.685 8.308.221-1.519.658-2.999 1.298-4.394zm91.487 53.063l.19.619-.369.43c.04-.343.1-.683.179-1.019v-.03zm-39.942-26.641c.607-1.408 1.41-2.723 2.387-3.904-.483 3.042-1.757 5.903-3.695 8.297.238-1.51.689-2.979 1.338-4.363l-.03-.03zm-8.567 38.444c.606-1.411 1.409-2.729 2.386-3.914-.494 3.044-1.767 5.91-3.694 8.318.235-1.511.685-2.981 1.338-4.364l-.03-.04zm-67.173-46.253c1.41.609 2.728 1.412 3.915 2.387-1.52-.225-2.999-.665-4.394-1.308-1.416-.603-2.738-1.407-3.924-2.387 1.535.228 3.028.679 4.433 1.338l-.03-.03zm105.947 5.832l.509 1.378c-1.077-.52-2.084-1.174-2.996-1.947.857.112 1.701.312 2.516.599l-.029-.03zm-68.481 33.271c1.412.601 2.73 1.402 3.914 2.377-1.522-.222-3.004-.659-4.403-1.298-1.411-.612-2.728-1.419-3.915-2.397 1.537.227 3.031.681 4.434 1.348l-.03-.03zm61.241 8.908l.689.329-2.347.18c-.98-.495-1.899-1.105-2.736-1.818 1.531.234 3.02.685 4.424 1.338l-.03-.029zm-23.526-82.111c1.407.615 2.724 1.417 3.915 2.386-3.044-.491-5.909-1.76-8.318-3.684 1.534.225 3.028.672 4.433 1.328l-.03-.03zm-34.43 38.244c1.412.61 2.73 1.417 3.914 2.397-3.046-.489-5.912-1.763-8.317-3.695 1.533.229 3.026.676 4.433 1.328l-.03-.03zm-17.974-52.573c1.408.612 2.726 1.415 3.915 2.386-3.044-.483-5.908-1.753-8.308-3.685 1.54.227 3.04.674 4.453 1.329l-.06-.03z" class="B"/><path d="M290.352 198.007c7.749-1.149 15.618-16.786 16.976-27.45.089-.739-11.983-23.776-13.87-28.579-.39-.999-27.311 19.332-27.311 19.332s6.99 8.907 10.256 17.325c.229.699 6.46 20.47 13.949 19.372z" class="H"/><path opacity=".4" d="M266.108 161.311s6.99 8.907 10.265 17.315l1.119 3.175c13.839-6.99 19.481-19.472 21.758-27.71l-5.832-12.112c-.389-.989-27.31 19.332-27.31 19.332z" class="E"/><path d="M287.236 104.563c7.878 9.116 15.757 41.999 11.253 52.104-6.54 14.639-23.965 23.436-38.065 14.079-13.71-9.076-23.216-52.114-17.554-61.98 8.328-14.5384 32.742-17.6639 44.366-4.203z" class="H"/><g class="E"><path d="M266.188 131.274c.998.08 1.997 0 2.995 0 1.06.144 2.138-.066 3.066-.599.259-.225.436-.529.505-.864s.024-.685-.126-.994c-.39-.563-.923-1.011-1.544-1.299s-1.309-.405-1.991-.338c-1.4-.083-2.781.359-3.874 1.238-.231.218-.395.498-.472.806s-.063.632.039.933.288.566.537.764.549.321.865.353zm.875 4.823c0-.09.199.07.219.17.37 2.246 1.178 4.763 3.345 5.102.07 0 .09.12 0 .13-2.526.14-3.564-3.205-3.564-5.402z"/><path d="M268.601 133.361c3.545-.999 5.262 6.181 1.997 7.089s-4.963-6.261-1.997-7.089zm-14.417 5.502c0-.08-.15.15-.13.24.599 2.197.919 4.823-.909 5.991-.06 0 0 .15.05.12 2.367-.879 1.908-4.354.989-6.351z"/><path d="M251.645 137.026c-3.635.579-2.207 7.798 1.158 7.259s1.888-7.749-1.158-7.259zm-3.682-3.556c.917-.426 1.811-.903 2.676-1.428 1.015-.375 1.876-1.077 2.446-1.997.125-.321.14-.675.043-1.005s-.302-.62-.582-.822c-1.228-.799-2.646-.429-3.904.19-1.283.584-2.304 1.623-2.866 2.915-.118.304-.144.636-.076.955s.229.611.462.839.527.384.848.447.651.03.953-.094zm26.532 21.849c-.4.649-.759 1.488-1.548 1.748-.833.179-1.694.179-2.526 0-.017-.002-.034.002-.049.01s-.026.022-.032.038-.009.032-.005.049.013.031.026.042c.42.36.93.598 1.474.691s1.105.038 1.621-.161c.425-.224.774-.57 1.002-.994s.324-.905.276-1.383c0-.13-.179-.14-.239-.04zm-3.918-6.082c-.356 1.012-.917 1.939-1.647 2.724s-1.614 1.411-2.597 1.84c-.854.385-1.758.647-2.686.779-.174.039-.351.059-.529.06-.17.01-.34.01-.51 0-.123.007-.245-.027-.347-.098s-.176-.174-.212-.292c-.005-.08-.005-.16 0-.24v-.199c-.449-1.698-.909-4.334-.909-4.334-.549.459-3.385 2.656-3.554 1.747-1.328-7.489-2.796-15.817-2.537-23.555 0-.056.022-.109.062-.149s.092-.061.148-.061.109.022.148.061.062.093.062.149c1.557 7.149 1.847 14.529 3.305 21.738.977-.802 2.063-1.461 3.225-1.957.26 0 .789 5.113 1.059 5.851-.003.027-.003.054 0 .08 2.995-.319 4.913-1.707 7.239-4.293.15-.17.37-.06.28.149z"/><path d="M264.448 153.472c1.23.993 2.695 1.653 4.254 1.917.853.119 1.722-.031 2.486-.429 1.658-.889 1.318-2.527.659-3.845-.358-.694-.798-1.344-1.308-1.937-1.519 2.046-3.654 3.55-6.091 4.294z"/></g><path d="M268.702 155.389c.853.119 1.722-.031 2.486-.429 1.658-.889 1.318-2.527.659-3.845-1.857.649-3.425 2.397-3.145 4.274z" fill="#ff97b8"/><path d="M239.856 121.569c13.979 5.851 28.119-10.335 28.119-10.335 1.602 2.457 3.955 4.33 6.708 5.341s5.758 1.106 8.57.271c0 0 6.71 20.24 12.182 19.022 8.318-1.777 4.993-30.595 1.228-35.608s-11.154-4.9929-11.154-4.9929-1.408-4.2039-7.379-7.0697c-6.59-3.1754-24.964 6.7801-24.964 6.7801-1.667-2.3917-3.874-4.3583-6.44-5.7416-.62-.3483-1.304-.5671-2.011-.6433s-1.421-.0081-2.101.2001-1.31.5522-1.853 1.0111-.986 1.0233-1.305 1.6588c1.364 1.3122 2.412 2.9169 3.066 4.6932 2.247 5.8712-2.716 6.9002-3.825 1.378-.481-2.0493-.212-4.2034.759-6.0712-3.195-3.0955-7.439-3.435-9.466-.9985-3.725 4.4635-1.767 26.2519 9.866 31.1049z" class="E"/><g class="F"><path d="M274.143 147.211c1.72-.551 3.251-1.575 4.418-2.953s1.923-3.058 2.183-4.846.012-3.612-.715-5.266-1.903-3.07-3.395-4.088-3.24-1.597-5.045-1.67-3.594.362-5.164 1.255-2.857 2.211-3.715 3.8-1.253 3.388-1.139 5.191c.094 1.464.521 2.887 1.248 4.161s1.734 2.367 2.946 3.194 2.596 1.366 4.048 1.578 2.932.09 4.33-.356zm-5.512-17.125c.647-.209 1.318-.34 1.997-.389 2.128-.151 4.234.515 5.888 1.864s2.73 3.277 3.01 5.392-.257 4.258-1.502 5.991-3.105 2.924-5.2 3.333-4.265.002-6.07-1.136-3.108-2.921-3.643-4.987-.262-4.257.764-6.128 2.727-3.28 4.756-3.94zm-15.769 21.159c3.455-1.298 5.252-5.991 3.994-10.894-.536-2.346-1.797-4.463-3.605-6.051-.73-.736-1.638-1.27-2.637-1.55s-2.052-.296-3.058-.046-1.931.756-2.683 1.47-1.306 1.61-1.607 2.602c-.846 2.253-.969 4.714-.35 7.04 1.278 5.152 5.442 8.577 9.287 7.619.225-.044.445-.107.659-.19zm-5.402-17.125l.469-.14c.807-.163 1.641-.129 2.432.099s1.515.642 2.111 1.209c1.596 1.416 2.709 3.294 3.186 5.372 1.108 4.474-.539 8.748-3.705 9.527s-6.62-2.217-7.729-6.681c-.555-2.06-.451-4.243.3-6.241.241-.701.627-1.343 1.133-1.885s1.12-.971 1.803-1.26z"/><path d="M262.104 139.671l.619-1.128c-1.668-.929-5.303-1.887-7.13.999l1.098.679c1.628-2.587 5.263-.64 5.413-.55zm42.616-5.891l.999-.799c-.38-.469-3.745-4.593-6.651-4.493-2.726.099-19.362 4.992-20.07 5.242l.369 1.238c4.773-1.418 17.634-5.122 19.741-5.192 1.938-.07 4.704 2.866 5.612 4.004z"/></g><path d="M291.872 133.99s2.686-12.861 8.238-12.312 6.49 17.095 2.047 21.319c-.531.58-1.174 1.048-1.89 1.374s-1.49.503-2.276.522-1.569-.122-2.3-.414-1.394-.728-1.952-1.282l-1.867-9.207z" class="H"/><path d="M300.255 126.431c.08-.05.15.059.09.129-3.066 3.076-3.535 7.34-3.385 11.474.519-1.838 1.697-3.236 4.094-2.706.12 0 .09.209 0 .239-.74.069-1.439.366-2.001.851s-.959 1.134-1.135 1.855c-.292 1.204-.456 2.436-.489 3.675 0 .409-.699.489-.739 0 .005-.033.005-.067 0-.1-2.137-4.613-1.298-12.781 3.565-15.417z" class="E"/><path d="M223.406 224.259c-2.527-6.65-61.102 5.392-58.765 15.587 8.578 37.346 32.483 70.718 38.524 78.347 7.929 9.985 23.706 7.768 29.457 1.717 8.338-8.777-6.72-89.061-9.216-95.651z" class="H"/><path d="M227.529 242.593c1.302 3.579 2.334 7.25 3.086 10.984.849 3.694 1.588 7.409 2.187 11.143 1.184 7.555 1.851 15.182 1.997 22.827.11 4.274 0 8.538 0 12.812 0 .1-.16.09-.16 0 0-3.785-.23-7.599-.539-11.374s-.689-7.619-1.178-11.403c-.949-7.439-1.998-14.869-3.346-22.248l-1.168-6.191c-.429-2.137-.919-4.264-1.198-6.431 0-.159.249-.299.319-.119z" class="E"/><path d="M237.539 119.002c.385 5.085 1.146 10.135 2.277 15.108l.609 2.576c.839 3.415 1.837 6.85 2.996 10.155.266.799.545 1.588.838 2.367 3.545 9.576 8.228 17.814 13.501 21.309 1.339.898 2.76 1.667 4.244 2.297 7.558-4.408 13.87-10.667 18.342-18.187s6.956-16.055 7.22-24.801l1.598-.439-.759-1.208c-.249-.42-.559-.949-.829-1.448-.4-12.856-5.593-25.098-14.558-34.3206-12.552-3.3751-27.58 1.4479-33.901 12.4616-1.538 2.726-2.007 7.859-1.578 14.13z" class="H"/><g class="E"><path d="M263.847 128.707c1.061.055 2.124.055 3.185 0 1.228 0 2.207.09 3.255-.639.283-.239.476-.566.548-.929s.021-.739-.148-1.068c-.769-1.358-2.267-1.707-3.745-1.737-1.483-.088-2.945.378-4.104 1.308-.257.227-.441.525-.531.857s-.08.681.028 1.007.307.614.576.827.594.344.936.374zm.928 5.164c0-.09.209.08.229.169.39 2.387 1.249 5.053 3.545 5.413.07 0 .09.129 0 .139-2.676.1-3.774-3.445-3.774-5.721z"/><path d="M266.405 130.925c3.754-1.049 5.572 6.54 2.097 7.509s-5.243-6.63-2.097-7.509zm-15.276 5.822c0-.08-.159.16-.129.26.639 2.326.998 5.102-.999 6.39-.06 0 0 .16.05.13 2.536-.988 2.057-4.663 1.078-6.78z"/><path d="M248.44 134.799c-3.845.619-2.327 8.268 1.238 7.699s1.987-8.218-1.238-7.699zm-3.895-3.765c.999-.429 1.868-.998 2.826-1.508 1.071-.393 1.983-1.126 2.596-2.087.131-.339.147-.711.044-1.06s-.319-.653-.613-.867c-1.308-.849-2.806-.459-4.134.2-1.346.622-2.413 1.722-2.995 3.085-.114.316-.134.658-.059.986s.242.626.481.861.542.397.87.466.67.043.984-.076zm28.099 23.147c-.429.679-.809 1.568-1.647 1.848-.878.194-1.788.194-2.666 0-.018-.001-.035.004-.05.013s-.027.023-.035.039-.01.033-.007.051.01.033.022.046c.446.382.987.635 1.565.734s1.173.038 1.72-.174c.448-.239.816-.606 1.056-1.054s.342-.957.292-1.463c.01-.139-.18-.139-.25-.04zm-4.153-6.451c-.372 1.073-.963 2.057-1.735 2.891s-1.707 1.498-2.748 1.952c-.905.408-1.863.684-2.846.819-.187.042-.378.066-.569.07-.177.011-.353.011-.53 0-.131.008-.261-.028-.37-.102s-.189-.182-.229-.308c-.01-.079-.01-.16 0-.239v-.21l-.998-4.593c-.58.489-3.585 2.816-3.755 1.857-1.408-7.988-2.996-16.766-2.696-24.964 0-.058.023-.114.064-.155s.097-.064.156-.064.114.023.155.064.064.097.064.155c1.658 7.569 1.997 15.388 3.505 22.967 1.069-.827 2.249-1.499 3.505-1.997.27 0 .839 5.412 1.119 6.201-.005.026-.005.053 0 .08 3.125-.34 5.202-1.798 7.658-4.554.12-.199.35-.09.25.13z"/><path d="M262.002 152.224c1.304 1.042 2.855 1.73 4.503 1.997.902.13 1.822-.031 2.627-.459 1.767-.939 1.398-2.676.699-4.064-.377-.738-.84-1.428-1.378-2.057-1.606 2.177-3.866 3.784-6.451 4.583z"/></g><path d="M266.517 154.251c.902.129 1.822-.031 2.626-.459 1.768-.939 1.398-2.676.699-4.064-1.957.689-3.624 2.526-3.325 4.523z" fill="#ff97b8"/><path d="M235.957 118.432l1.577.57c14.299 4.433 28.209-11.524 28.209-11.524 1.689 2.61 4.177 4.604 7.093 5.684s6.102 1.188 9.084.308c1.55 4.569 3.45 9.012 5.682 13.29-.269-8.491-2.63-16.784-6.873-24.144s-10.238-13.5577-17.452-18.0444c-4.555 1.5983-8.987 3.5273-13.261 5.7716-1.77-2.533-4.109-4.6157-6.83-6.0812-.655-.3693-1.379-.6018-2.127-.6833s-1.505-.0105-2.225.2088-1.387.5825-1.962 1.0674-1.047 1.0815-1.385 1.7537c1.441 1.4009 2.55 3.1069 3.246 4.9927 2.376 6.211-2.876 7.2995-4.045 1.4579-.516-2.1731-.232-4.4594.799-6.4406-3.385-3.2653-7.878-3.6248-9.985-.9986-3.935 4.6133-1.878 27.67 10.455 32.812z" class="E"/><g opacity=".3"><path opacity=".3" d="M211.906 184.356c10.482 2.309 21.412 1.457 31.409-2.447s18.612-10.684 24.756-19.484 9.539-19.225 9.758-29.955-2.75-21.284-8.529-30.327-14.112-16.1696-23.941-20.4776-20.717-5.6043-31.283-3.7249-20.339 6.85-28.08 14.2832-13.105 16.9953-15.412 27.4763c-1.533 6.959-1.68 14.152-.433 21.167s3.864 13.717 7.701 19.721 8.82 11.193 14.663 15.272 12.432 6.965 19.391 8.496z" class="B"/><path opacity=".3" d="M271.168 157.415c-6.874 12.547-18.422 21.874-32.134 25.953s-28.481 2.583-41.096-4.167l73.23-21.786zm-1.559-54.736l-100.297 29.845c-.087-4.309.336-8.614 1.262-12.823 1.049-4.83 2.766-9.49 5.102-13.845l74.04-22.0391c8.135 4.4827 14.985 10.977 19.893 18.8621zm7.827 35.021l-95.532 28.404c-2.276-2.734-4.281-5.683-5.986-8.805l101.729-30.277c.293 3.557.223 7.135-.211 10.678zm-4.354-28.457L169.986 139.93l-.273-1.957 102.548-30.508.821 1.778zm-40.535-31.3809l-45.762 13.6128 3.735-3.156 37.167-11.046c1.629.1129 3.251.3096 4.86.5892z" class="C"/></g><path d="M217.966 242.265l-13.224-2.912 12.807-58.151 13.223 2.913-12.806 58.15z" class="C"/><path d="M180.201 115.986c2.435-11.059 8.095-21.1478 16.264-28.9903s18.48-13.0866 29.63-15.069 22.636-.6142 33.008 3.9317 19.162 12.0652 25.261 21.6071 9.23 20.6775 8.999 31.9995-3.813 22.321-10.295 31.607-15.571 16.441-26.12 20.561-22.081 5.019-33.14 2.584c-14.828-3.27-27.751-12.294-35.928-25.088s-10.939-28.313-7.679-43.143zm44.855 62.609c9.948 2.193 20.324 1.387 29.814-2.317s17.669-10.139 23.501-18.492 9.058-18.246 9.267-28.432-2.607-20.203-8.092-28.788-13.393-15.3499-22.724-19.44-19.664-5.3215-29.694-3.5384-19.306 6.5008-26.655 13.5561-12.44 16.1313-14.63 26.0803c-1.456 6.605-1.596 13.431-.413 20.09s3.667 13.019 7.308 18.718 8.37 10.624 13.915 14.496 11.798 6.613 18.403 8.067z" class="L"/><path d="M212.506 283.183l-20.001-4.403 11.343-51.555 20.011 4.403-11.353 51.555z" fill="#454056"/><path d="M203.777 121.548c.021-.058.038-.118.05-.18.24-.858-.26.829-.08.27l.689-1.997c.874-2.317 1.943-4.555 3.196-6.69l.529-.899c.06-.1-.44.699 0 .07l.349-.539 1.418-1.997c1.082-1.462 2.259-2.849 3.525-4.154l.919-.919c.419-.409-.49.449.09-.08l.579-.529 2.316-1.877 2.657-1.828 1.268-.7487c.739-.4294-.32.1498.229-.1298l.789-.3994c2.386-1.1738 4.881-2.1103 7.449-2.796h.13l.28-.0599 1.148-.2496 2.247-.3895c1.586-.2269 3.182-.3735 4.783-.4393.444-.0505.875-.1881 1.266-.4048s.736-.5085 1.015-.8585c.563-.707.822-1.6085.72-2.5063s-.557-1.7182-1.264-2.281-1.608-.8216-2.506-.7196c-10.203.3156-19.959 4.2558-27.52 11.1139-5.023 4.7035-8.95 10.4545-11.503 16.8455-.585 1.427-1.072 2.891-1.458 4.384-.138.892.083 1.802.614 2.532s1.33 1.22 2.222 1.362c.889.12 1.79-.108 2.516-.637s1.219-1.316 1.378-2.199l-.04-.07zm-1.402 10.035c-.101.657-.395 1.269-.845 1.758s-1.034.834-1.679.991-1.323.119-1.947-.11-1.166-.638-1.557-1.175-.614-1.178-.641-1.842.145-1.32.492-1.887.855-1.017 1.459-1.294 1.276-.37 1.932-.265c.875.14 1.66.621 2.182 1.337s.739 1.611.604 2.487z" class="B"/><g class="H"><path d="M168.578 251.52s-14.299-23.506 3.505-45.934c7.329-9.226 24.624-25.772 59.713-23.466 8.328.55 19.802 7.23 5.882 11.274-9.886 2.876-17.026 1.708-22.478 4.424 0 0 13.591 10.235 12.712 18.553-.39 3.714-.679 11.832-2.826 19.561 0 0-2.816 1.997-5.103 1.658 0 0-6.161 17.774-28.318 23.236l-23.087-9.306z"/><path d="M179.599 202.57c5.732-2.286 17.974-6.92 29.308-7.239 12.591-.35 36.946 2.376 37.096 11.673.12 6.82-9.267 6.59-9.267 6.59s9.826 3.246 8.578 9.427c-1.129 5.632-8.378 4.992-8.378 4.992s5.622 2.996 3.485 8.209c-2.566 6.27-13.92-.999-21.968 3.075-1.858.959-38.854-36.727-38.854-36.727z"/></g><path d="M207.08 208.692c5.742-1.258 19.532-.779 29.537 4.683.23.12.26.36 0 .29-9.614-2.804-19.532-4.434-29.537-4.853-.09 0-.09-.05 0-.12zm.7 12.701c5.073-.579 19.262.55 29.208 6.431.23.13.24.369 0 .29-9.462-3.298-19.267-5.512-29.228-6.601-.015-.002-.03-.011-.039-.024s-.013-.03-.01-.046.011-.03.024-.039.03-.013.045-.011zm-20.441 40.961c5.083-1.207 9.989-3.063 14.598-5.522 4.641-2.512 8.749-5.903 12.093-9.986.998-1.248 1.997-2.546 2.866-3.874s1.827-2.836 2.855-4.154c.08-.1.27 0 .21.09-1.157 2.771-2.581 5.424-4.254 7.918-1.499 2.333-3.291 4.464-5.332 6.341-4.029 3.585-8.804 6.232-13.98 7.749-2.939.818-5.947 1.363-8.987 1.627-.149.04-.209-.159-.069-.189z" class="E"/><g class="H"><path d="M333.095 187.132c25.722 34.54 68.65 124.56 74.961 137.8 4.284 8.987-42.678 32.653-44.665 26.122-2.556-8.367-44.545-118.827-50.427-159.099-3.215-22.078 11.234-16.775 20.131-4.823z"/><path d="M362.126 346.562c1.088 8.138 6.62 24.534 10.734 27.04s25.733 1.997 36.627 1.997 12.981-3.045 12.851-6.79-23.036-4.463-23.036-4.463 30.535 8.707 38.214 10.175 25.363 5.891 27.96-.469c1.148-2.876-3.695-5.782-3.695-5.782s7.419 2.167 8.608-1.518c1.338-4.204-4.564-6.51-4.564-6.51s4.643.928 4.753-2.497c.2-7.689-28.838-11.443-28.838-11.443s22.228 10.824 22.967 4.573c.998-8.637-44.576-18.113-49.319-21.878-3.451-2.877-6.679-6.011-9.656-9.376l-43.606 26.941z"/></g><path d="M422.178 370.667c.077-.53.027-1.071-.147-1.578s-.465-.966-.851-1.338c-.783-.717-1.681-1.297-2.656-1.717-2.015-.856-4.104-1.525-6.241-1.997-4.294-1.089-8.698-1.857-13.081-2.996 4.518-.068 9.028.436 13.42 1.498 2.245.515 4.406 1.342 6.421 2.456 1.043.574 1.957 1.356 2.686 2.297.358.477.588 1.038.666 1.629s.004 1.192-.217 1.746zm39.533-2.437l-9.327-2.546-9.236-2.766-9.197-2.876-9.226-2.846c3.213.354 6.399.924 9.536 1.708l9.336 2.556 9.157 3.116 8.957 3.654zm-29.575-18.673c2.962.186 5.906.593 8.807 1.218 2.911.579 5.788 1.319 8.617 2.217 2.837.88 5.62 1.92 8.338 3.116 2.728 1.165 5.368 2.527 7.899 4.074l-8.328-2.996-8.368-2.746-8.438-2.536-8.527-2.347zm4.493-7.269c4.771.384 9.471 1.391 13.98 2.996 4.553 1.508 8.887 3.61 12.891 6.251l-13.391-4.803-13.48-4.444z" class="E"/><path d="M322.161 246.337l52.124-1.438s-28.409-45.215-43.627-61.8c-15.886-17.275-24.534-15.788-19.112 14.818 5.462 30.815 10.615 48.42 10.615 48.42z" class="F"/><path d="M354.418 237.24c1.406.615 2.723 1.418 3.914 2.387-3.044-.492-5.909-1.761-8.318-3.685 1.523.218 3.006.656 4.404 1.298zm-29.108-33.112c.602-1.413 1.406-2.732 2.387-3.914-.481 3.046-1.755 5.911-3.695 8.308.22-1.521.66-3.001 1.308-4.394zm24.035 9.826c.569 1.426.933 2.925 1.079 4.453-1.81-2.495-2.933-5.422-3.256-8.487.92 1.23 1.653 2.59 2.177 4.034zm-22.967 20.41c.575 1.427.935 2.931 1.069 4.464-1.799-2.501-2.92-5.425-3.255-8.488.923 1.229 1.667 2.585 2.206 4.024h-.02zM311.101 175l.699 1.588c.563 1.428.926 2.927 1.078 4.454-.919-1.22-1.659-2.565-2.197-3.994l-.13-.38c.143-.571.333-1.129.57-1.668h-.02z" class="B"/><path d="M325.429 237.27c1.238-.179 2.507-.179 3.745-.239l3.844-.21 7.779-.31 15.557-.409h4.284l4.494.16c.089 0 .079.14 0 .14l-3.845.349-3.944.21-7.789.249-15.318.27h-4.333c-1.488 0-2.996.08-4.494-.05-.04-.03-.06-.15.02-.16zm-13.371-24.834c0-.099.12-.159.17-.059.967 1.78 1.794 3.633 2.476 5.541l-.559-2.736-1.668-8.827c.006-.017.018-.033.033-.043s.034-.017.052-.017.037.006.052.017.027.026.033.043c1.348 5.053 2.916 10.056 4.114 15.148l3.525 15.298c.609 2.826 1.158 6.351 1.777 9.167 1.508.18 3.445 0 5.073.209.14 0 .1.25 0 .25-1.717.05-3.764.439-5.572.33-.23 0-4.603-18.164-6.421-26.861-1.118-2.477-2.156-4.953-3.085-7.46zm-37.073-28.239l2.507 7.05c.792 2.078 1.764 4.083 2.905 5.992 2.157 3.405 5.473 6.22 9.676 6.211 3.995 0 7.649-2.317 10.206-5.273 2.796-3.225 4.653-7.269 6.32-11.164.999-2.406 1.998-4.863 2.796-7.349.41-1.258.839-2.516 1.199-3.794s.669-2.567 1.108-3.815c0-.1.22-.09.19 0-.739 2.876-2.886 11.983-3.745 14.299-1.578 4.244-3.355 8.628-6.201 12.203-2.696 3.375-6.361 5.931-10.744 6.35s-8.138-1.887-10.555-5.362c-1.421-2.189-2.53-4.565-3.295-7.06-.929-2.736-1.708-5.542-2.417-8.347-.04.039.05.029.05.059z" class="E"/><path d="M87.8442 392.486h77.7448l3.47-68.345H87.8442v68.345z" class="G"/><path d="M87.8477 324.141l-27.928-34.964-22.2253 34.964 3.4693 68.345h46.684v-68.345z" class="D"/><path d="M141.926 278.074H58.9332l-29.9336 48.831h9.6381l20.2955-33.804 23.407 37.837h93.5738l-33.988-52.864z" class="I"/><path d="M132.308 293.525h17.845l9.519 11.405h-20.599l-6.765-11.405z" class="D"/><path d="M145.827 302.978v13.888h9.931v-13.888l-4.966-6.212-4.965 6.212z" class="G"/><path d="M145.824 302.968h-7.806l7.806 13.899v-13.899z" class="D"/><path d="M148.223 303.194h5.648v9.53h-5.648v-9.53z" class="B"/><path d="M151.354 303.856h1.822v3.068h-1.822v-3.068zm-2.429 0h1.821v3.068h-1.821v-3.068zm2.429 3.622h1.822v4.543h-1.822v-4.543zm-2.429 0h1.821v4.543h-1.821v-4.543z" class="C"/><path d="M88.6158 293.525h17.8452l8.934 11.405H95.4243l-6.8085-11.405z" class="D"/><path d="M102.136 302.978v13.888h9.93v-13.888l-4.965-6.212-4.965 6.212z" class="G"/><path d="M102.137 302.968h-7.8171l7.8171 13.899v-13.899z" class="D"/><path d="M104.531 303.194h5.649v9.53h-5.649v-9.53z" class="B"/><path d="M107.663 303.856h1.821v3.068h-1.821v-3.068zm-2.438 0h1.822v3.068h-1.822v-3.068zm2.438 3.622h1.821v4.543h-1.821v-4.543zm-2.438 0h1.822v4.543h-1.822v-4.543z" class="C"/><path d="M73.8191 276.102H83.75v13.075h-9.9309v-13.075z" class="G"/><g class="D"><path d="M73.8164 276.102h-7.806v2.103l7.806 10.972v-13.075z"/><path d="M73.8196 271.657h11.0476v4.445H73.8196v-4.445z"/></g><path d="M65.1539 271.657h8.6625v4.445h-8.6625v-4.445z" class="I"/><path d="M145.077 336.534h12.294v20.761h-12.294v-20.761z" class="J"/><g class="C"><use xlink:href="#B"/><use xlink:href="#B" x="-5.304"/><use xlink:href="#C"/><use xlink:href="#C" x="-5.304"/></g><path d="M99.4166 336.534h12.2944v20.761H99.4166v-20.761z" class="B"/><g class="C"><use xlink:href="#B" x="-45.664"/><path d="M100.933 337.975h3.958v6.689h-3.958v-6.689z"/><use xlink:href="#C" x="-45.664"/><path d="M100.933 345.868h3.958v9.909h-3.958v-9.909z"/></g><path d="M145.077 365.381h12.294v20.762h-12.294v-20.762z" class="J"/><g class="C"><use xlink:href="#B" y="28.849"/><use xlink:href="#B" x="-5.304" y="28.849"/><path d="M151.898 374.716h3.957v9.91h-3.957v-9.91zm-5.304 0h3.957v9.91h-3.957v-9.91z"/></g><path d="M99.4166 365.381h12.2944v20.762H99.4166v-20.762z" class="B"/><g class="C"><use xlink:href="#B" x="-45.664" y="28.849"/><path d="M100.933 366.824h3.958v6.689h-3.958v-6.689zm5.301 7.892h3.957v9.91h-3.957v-9.91zm-5.301 0h3.958v9.91h-3.958v-9.91z"/></g><path d="M122.311 336.534h12.294v20.761h-12.294v-20.761z" class="J"/><g class="C"><use xlink:href="#B" x="-22.765"/><use xlink:href="#B" x="-28.082"/><use xlink:href="#C" x="-22.765"/><use xlink:href="#C" x="-28.082"/></g><path d="M122.307 365.523h12.295v20.762h-12.295v-20.762z" class="J"/><g class="C"><use xlink:href="#B" x="-22.765" y="28.979"/><use xlink:href="#B" x="-28.082" y="28.979"/><use xlink:href="#C" x="-22.765" y="28.99"/><use xlink:href="#C" x="-28.082" y="28.99"/></g><path d="M65.7514 357.294H53.457v-20.761h12.2944v20.761z" class="B"/><path d="M54.9725 337.975h3.9572v6.689h-3.9572v-6.689zm5.3125 0h3.9572v6.689H60.285v-6.689zm-5.3125 7.893h3.9572v9.909h-3.9572v-9.909zm5.3125 0h3.9572v9.909H60.285v-9.909z" class="C"/><path d="M65.7514 325.204H53.457V307.63h12.2944v17.574z" class="B"/><path d="M54.9725 309.061h3.9572v6.689h-3.9572v-6.689zm5.3125 0h3.9572v6.689H60.285v-6.689zm-5.3125 7.969h3.9572v6.689h-3.9572v-6.689zm5.3125 0h3.9572v6.689H60.285v-6.689z" class="C"/><path d="M67.4969 392.613l-14.9071.07-.1275-27.071 14.907-.07.1276 27.071z" class="B"/><g class="C"><path d="M61.5473 367.416l.0191 4.055-3.2091.015-.0191-4.054 3.2091-.016zm4.1914-.022l.0191 4.055-3.2091.015-.0191-4.054 3.2091-.016z"/><path d="M63.4048 386.193l-6.7759.032-.0046-.976 6.7759-.032.0046.976zm-3.8696-20.843v4.055H56.326v-4.055h3.2092zm2.0199 7.187l.0191 4.054-3.209.015-.0192-4.054 3.2091-.015zm4.2266-.033l.0191 4.055-3.2091.015-.0191-4.055 3.2091-.015zm-8.4297.055l.0191 4.054-3.2091.015-.0191-4.054 3.2091-.015zm4.2265 5.107l.0192 4.055-3.2091.015-.0192-4.054 3.2091-.016zm4.2149-.02l.0191 4.055-3.2091.015-.0191-4.055 3.2091-.015zm-8.418.042l.0191 4.055-3.209.015-.0191-4.054 3.209-.016z"/></g><path d="M301.814 392.671h69.061l3.09-33.468h-72.151v33.468z" class="G"/><path d="M301.836 359.158l-24.806-31.05-19.753 31.05 3.09 33.468h41.469v-33.468z" class="D"/><path d="M350.267 318.286h-75.013l-27.788 46.955h7.579l21.228-35.344 20.393 35.344h83.111l-29.51-46.955z" class="I"/><path d="M352.49 371.626h10.928v15.612H352.49v-15.612z" class="B"/><path d="M358.562 372.906h3.512v5.941h-3.512v-5.941zm-4.715 0h3.512v5.941h-3.512v-5.941zm4.715 7.069h3.512v5.941h-3.512v-5.941zm-4.715 0h3.512v5.941h-3.512v-5.941z" class="G"/><path d="M312.349 371.626h10.928v15.612h-10.928v-15.612z" class="B"/><path d="M318.425 372.906h3.513v5.941h-3.513v-5.941zm-4.719 0h3.513v5.941h-3.513v-5.941zm4.719 7.069h3.513v5.941h-3.513v-5.941zm-4.719 0h3.513v5.941h-3.513v-5.941z" class="G"/><path d="M332.357 370.792h12.045v21.879h-12.045v-21.879z" class="B"/><path d="M337.085 372.299h2.591v3.274h-2.591v-3.274zm-3.407 0h2.592v3.274h-2.592v-3.274zm1.964 14.365h5.475v.791h-5.475v-.791zm4.849-14.365h2.591v3.274h-2.591v-3.274zm-3.406 4.142h2.591v3.275h-2.591v-3.275zm-3.407 0h2.592v3.275h-2.592v-3.275zm6.813 0h2.591v3.275h-2.591v-3.275zm-3.406 4.142h2.591v3.274h-2.591v-3.274zm-3.407 0h2.592v3.274h-2.592v-3.274zm6.813 0h2.591v3.274h-2.591v-3.274zm-6.093-64.172h8.825v11.612h-8.825v-11.612z" class="G"/><path d="M334.395 316.411h-6.939v1.865l6.939 9.747v-11.612zm0-3.958h9.812v3.947h-9.812v-3.947z" class="D"/><path d="M326.697 312.453h7.698v3.947h-7.698v-3.947z" class="I"/><path d="M274.52 392.683h-22.399l-2.136-23.081h24.535v23.081z" class="D"/><path d="M274.513 369.6l11.069-4.998-.249 28.079h-10.82V369.6z" class="G"/><path d="M257.368 375.573h9.421v17.097h-9.421v-17.097z" class="J"/><path d="M261.063 376.745h2.027v2.559h-2.027v-2.559zm-2.657 0h2.028v2.559h-2.028v-2.559zm1.526 10.081h4.283v.618h-4.283v-.618zm3.787-10.081h2.027v2.559h-2.027v-2.559z" class="G"/><path d="M287.277 363.452h-32.546l-10.516 8.001h31.245l11.817-8.001z" class="K"/><path d="M275.46 371.453h11.817v-8.001l-11.817 8.001z" class="D"/><path d="M282.457 351.754c0 1.105-.328 2.185-.942 3.103s-1.486 1.635-2.507 2.057-2.144.532-3.228.316-2.078-.749-2.858-1.531-1.312-1.778-1.526-2.862-.102-2.207.322-3.227 1.142-1.891 2.062-2.503 2-.938 3.104-.936c1.479.003 2.897.592 3.942 1.639s1.631 2.465 1.631 3.944z" class="J"/><path d="M281.203 351.754c0 1.15-.457 2.253-1.27 3.066s-1.916 1.271-3.067 1.271c-.366.002-.73-.045-1.084-.141-1.01-.274-1.886-.904-2.468-1.774s-.83-1.921-.698-2.959.635-1.993 1.417-2.689 1.787-1.087 2.833-1.1c.367-.001.731.046 1.085.141.504.123.979.344 1.398.651.57.397 1.035.926 1.358 1.541s.493 1.299.496 1.993z" class="D"/><g class="J"><path d="M277.481 356.85h-1.204v-10.278h1.204v10.278z"/><path d="M271.73 352.307v-1.203h10.278v1.203H271.73z"/></g><path d="M242.599 392.681h34.899l2.385-25.813h-37.284v25.813z" class="G"/><path d="M242.598 366.868l-19.136-23.96-15.232 23.96 2.374 25.813h31.994v-25.813z" class="I"/><path d="M240.288 370.023h47.357l-28.807-36.222h-35.571l-21.38 36.222h5.432l15.948-24.817 17.021 24.817z" class="K"/><path d="M192.501 301.764h9.866v12.988h-9.866v-12.988z" class="D"/><path d="M184.737 301.764h7.763v12.988h-7.763v-12.988zm7.764-4.423h10.972v4.412h-10.972v-4.412z" class="K"/><path d="M183.892 297.341h8.608v4.412h-8.608v-4.412z" class="L"/><path d="M157.826 392.649h77.247l3.458-37.436h-80.705v37.436z" class="D"/><path d="M157.832 355.213l-27.744-34.748-22.095 34.748 3.459 37.436h46.38v-37.436z" class="I"/><path d="M130.422 322.667l-22.811 35.278h-7.9684l30.0964-48.505h82.168l41.632 52.528H153.178l-22.756-39.301z" class="L"/><path d="M137.297 360.47h-12.219v-17.466h12.219v17.466z" class="B"/><g class="F"><path d="M126.58 344.425h3.936v6.646h-3.936v-6.646z"/><use xlink:href="#D"/><path d="M126.58 352.339h3.936v6.646h-3.936v-6.646z"/><use xlink:href="#D" y="7.914"/></g><path d="M214.516 369.101h12.218v17.466h-12.218v-17.466z" class="B"/><g class="F"><path d="M221.291 370.532h3.936v6.646h-3.936v-6.646z"/><use xlink:href="#D" x="84.164" y="26.107"/><path d="M221.291 378.447h3.936v6.646h-3.936v-6.646z"/><use xlink:href="#D" x="84.164" y="34.022"/></g><path d="M192.067 369.101h12.218v17.466h-12.218v-17.466z" class="B"/><g class="F"><use xlink:href="#D" x="67" y="26.107"/><path d="M193.576 370.532h3.936v6.646h-3.936v-6.646z"/><use xlink:href="#D" x="67" y="34.022"/><path d="M193.576 378.447h3.936v6.646h-3.936v-6.646z"/></g><path d="M169.621 369.101h12.219v17.466h-12.219v-17.466z" class="B"/><g class="F"><path d="M176.4 370.532h3.936v6.646H176.4v-6.646z"/><use xlink:href="#D" x="39.277" y="26.107"/><path d="M176.4 378.447h3.936v6.646H176.4v-6.646z"/><use xlink:href="#D" x="39.277" y="34.022"/></g><path d="M137.925 392.638h-13.476v-24.469h13.476v24.469z" class="B"/><g class="F"><use xlink:href="#E"/><use xlink:href="#E" x="3.801"/><path d="M134.247 386.815h-6.126v-.889h6.126v.889z"/><use xlink:href="#E" x="-3.797"/><path d="M129.727 374.49h2.906v3.664h-2.906v-3.664zm3.801 0h2.906v3.664h-2.906v-3.664zm-7.598 0h2.906v3.664h-2.906v-3.664z"/><use xlink:href="#E" y="9.259"/><use xlink:href="#E" x="3.801" y="9.259"/><use xlink:href="#E" x="-3.797" y="9.259"/></g><path d="M180.099 322.015h17.736l9.118 11.384h-20.079l-6.775-11.384z" class="K"/><path d="M193.533 331.406v13.802h9.877v-13.802l-4.944-6.169-4.933 6.169z" class="D"/><path d="M193.531 331.404h-7.762l7.762 13.802v-13.802z" class="I"/><path d="M195.926 331.622h5.605v9.464h-5.605v-9.464z" class="B"/><path d="M199.025 332.272h1.811v3.047h-1.811v-3.047zm-2.418 0h1.811v3.047h-1.811v-3.047zm2.418 3.611h1.811v4.521h-1.811v-4.521zm-2.418 0h1.811v4.521h-1.811v-4.521z" class="F"/><path d="M79.3084 181.346c-4.4472 3.782-7.7558 8.725-9.5566 14.278s-2.0226 11.497-.6409 17.169 4.3127 10.848 8.4656 14.951 9.3644 6.97 15.0526 8.283l6.9899 14.309 6.78-14.209c5.07-1.087 9.789-3.42 13.73-6.79 3.151-2.681 5.743-5.957 7.629-9.64s3.026-7.7 3.359-11.824c.671-8.329-1.994-16.583-7.408-22.947s-13.135-10.316-21.464-10.988-16.5826 1.994-22.9466 7.408h.01z" class="B"/><path d="M79.3085 181.346c-4.4464 3.783-7.7605 8.721-9.5761 14.269-.4548 1.38-.8217 2.788-1.0984 4.214-.2391 1.434-.3892 2.881-.4494 4.334-.1359 2.912.1364 5.83.8088 8.667.661 2.844 1.7129 5.583 3.1255 8.138.7144 1.274 1.5186 2.495 2.4065 3.655.8577 1.183 1.8058 2.298 2.8359 3.335 4.1641 4.194 9.4178 7.141 15.168 8.508l-.3096-.24 6.91 14.349.4993 1.049.499-1.049 6.83-14.179-.419.329c5.95-1.289 11.407-4.257 15.724-8.55s7.314-9.734 8.636-15.677.915-12.141-1.174-17.859-5.772-10.72-10.614-14.412c-3.841-2.878-8.276-4.864-12.981-5.811s-9.5624-.823-14.2088.377-8.9592 3.441-12.6127 6.553zm0 0c3.6287-3.098 7.9203-5.321 12.544-6.499s9.4555-1.277 14.1245-.292 9.048 3.029 12.802 5.974 6.781 6.712 8.849 11.012c2.062 4.251 3.128 8.916 3.116 13.64-.058 4.702-1.135 9.335-3.156 13.581-2.048 4.224-5.029 7.928-8.717 10.834-3.695 2.891-7.991 4.918-12.572 5.931l-.299.07-.12.27-6.7403 14.229h.9983l-7.0995-14.259-.0898-.2h-.2097c-5.6449-1.236-10.8325-4.023-14.9783-8.048-1.0298-1.005-1.9811-2.086-2.8458-3.236-.8937-1.128-1.7046-2.319-2.4265-3.564-1.4477-2.498-2.5368-5.187-3.2353-7.989-.7241-2.802-1.0336-5.695-.9187-8.587.0518-1.445.1884-2.885.4094-4.314.2701-1.422.6269-2.826 1.0684-4.204 1.7793-5.568 5.0662-10.535 9.4963-14.349z" fill="#454056"/><path d="M108.376 197.343c-.349-.356-.738-.671-1.159-.939-.557-.361-1.141-.678-1.747-.949-1.467-.665-3.038-1.07-4.643-1.198v8.987l.828.17c1.431.341 2.841.761 4.224 1.258 1.14.401 2.214.969 3.186 1.688.845.65 1.529 1.488 1.997 2.446.5 1.11.743 2.318.709 3.535.04 1.351-.241 2.692-.819 3.914-.534 1.072-1.314 2.003-2.277 2.716-1.019.743-2.166 1.292-3.385 1.618-1.347.371-2.736.569-4.134.589v4.553h-2.2465v-4.643c-2.0453-.123-4.0626-.537-5.9914-1.228-1.858-.668-3.5974-1.629-5.1525-2.846l2.2068-4.154c.4177.429.8834.807 1.388 1.128.6762.441 1.3837.832 2.1169 1.169.8629.398 1.7541.732 2.6662.998.9789.29 1.9813.494 2.9956.609v-8.986l-.5392-.15c-.1828-.038-.3629-.088-.5392-.15-1.3545-.35-2.688-.777-3.9942-1.278-1.0283-.383-1.9865-.933-2.8359-1.628-.7311-.603-1.3151-1.364-1.7075-2.227-.4209-.979-.622-2.039-.5892-3.105-.0275-1.293.2246-2.578.739-3.765.4797-1.084 1.1882-2.051 2.077-2.835.9185-.814 1.9822-1.448 3.1354-1.868 1.2848-.468 2.6297-.75 3.9942-.839v-4.383h2.2465v4.383c1.784.091 3.541.472 5.203 1.129 1.492.582 2.904 1.35 4.204 2.286l-2.157 3.995zm-14.2995 1.118c-.0355.527.0632 1.054.2867 1.533s.5646.892.9914 1.203c1.1911.749 2.5014 1.29 3.8744 1.598v-8.538c-1.4031-.034-2.7775.402-3.9043 1.238-.4154.371-.743.829-.9589 1.342s-.3148 1.068-.2893 1.624zm12.5515 14.389c.027-.571-.1-1.139-.367-1.645s-.664-.93-1.151-1.231c-1.325-.788-2.758-1.38-4.253-1.757v8.577c1.49.073 2.97-.273 4.273-.998.487-.316.881-.755 1.144-1.272s.385-1.095.354-1.674z" class="F"/><defs ><path id="B" d="M151.898 337.975h3.957v6.689h-3.957v-6.689z"/><path id="C" d="M151.898 345.868h3.957v9.909h-3.957v-9.909z"/><path id="D" d="M131.854 344.425h3.935v6.646h-3.935v-6.646z"/><path id="E" d="M129.727 369.86h2.906v3.665h-2.906v-3.665z"/></defs></svg>