<svg xmlns="http://www.w3.org/2000/svg" xmlns:xlink="http://www.w3.org/1999/xlink" fill="none" viewBox="0 0 241 238" xmlns:v="https://vecta.io/nano"><style><![CDATA[.B{fill:#5d3cf2}.C{fill:#efecf3}.D{fill:#fff}.E{fill:#fdbc31}.F{fill:#fd5631}.G{fill:#d5d2dc}.H{stroke-linecap:round}.I{stroke-linejoin:round}.J{stroke-width:.917}.K{fill:#f23c49}.L{fill:#f5f4f8}.M{stroke:#fd5631}.N{fill:#3c76f2}.O{color-interpolation-filters:sRGB}]]></style><g clip-path="url(#E)"><g filter="url(#A)"><path d="M218.4 241.03l-.919-3.676c0-.054-.054-.162 0-.216 0-.055.054-.163.054-.217l.162-.162c.054-.054.108-.054.162-.108h.216c.054 0 .163.054.217.054l.162.162c.054.054.054.108.108.216l.648 2.596 2.594-.649c.162-.054.27 0 .432.054.108.054.216.216.216.324.054.163 0 .271-.054.433-.054.108-.162.216-.324.27l-3.674.919z" class="B"/><path d="M216.4 231.57c-.108 0-.216-.054-.27-.162-.108-.054-.162-.162-.162-.27l-1.513-6.164c0-.054-.054-.163 0-.217 0-.054.054-.162.054-.216l.162-.162c.054-.054.108-.054.162-.108h.216c.054 0 .162.054.216.054l.162.162c.054.054.054.108.109.216l1.512 6.218c0 .054.054.162 0 .217 0 .054-.054.162-.054.216l-.162.162c-.054.054-.108.054-.162.108-.162-.054-.216-.054-.27-.054zm-3.08-12.382c-.108 0-.216-.054-.27-.108-.108-.054-.162-.162-.162-.27l-1.513-6.218c0-.054-.054-.162 0-.216 0-.054 0-.162.054-.217l.162-.162a.41.41 0 0 1 .216-.108h.216a.41.41 0 0 1 .216.108l.162.162c.054.055.054.163.054.217l1.514 6.163c.054.163 0 .271-.055.433-.054.108-.162.216-.324.27-.108-.054-.162-.054-.27-.054zm-3.08-12.381c-.108 0-.216-.055-.27-.163-.108-.054-.162-.162-.162-.27l-1.513-6.164v-.216c0-.054.054-.162.054-.216l.162-.163c.054-.054.108-.054.162-.108h.216c.054 0 .162.054.216.054l.162.163c.055.054.055.108.109.216l1.513 6.218c.054.162-.001.27-.055.432-.054.108-.162.217-.324.271-.108-.054-.162-.054-.27-.054z" class="B"/><path d="M207.21 194.43c-.108 0-.216-.054-.27-.162-.108-.054-.162-.162-.162-.27l-.919-3.677 3.675-.919c.162 0 .27 0 .378.108.108.054.162.216.216.325s0 .27-.054.378-.162.216-.324.27l-2.594.649.648 2.595v.217c0 .054-.053.162-.108.216l-.162.162c-.054.054-.162.054-.216.108h-.108z" class="B"/><path d="M138.86 167.99c-.108-.054-.162-.162-.216-.27a.46.46 0 0 1 0-.378.65.65 0 0 1 .27-.271c.108-.054.217-.054.379-.054l2.647.487.486-2.65c0-.162.109-.27.217-.378s.27-.108.432-.108a.87.87 0 0 1 .378.216c.108.108.108.27.108.433l-.648 3.676-3.729-.649c-.216 0-.27-.054-.324-.054z" class="B"/><path d="M150.42 121.38c-.108-.054-.162-.162-.216-.216-.054-.108-.054-.217-.054-.325l.486-2.649-2.648-.487c-.108 0-.162-.054-.216-.054l-.162-.162c-.054-.054-.108-.108-.108-.216v-.217a.41.41 0 0 1 .108-.216l.162-.162c.054-.054.108-.054.162-.108h.216l3.675.649-.649 3.676c0 .163-.108.271-.216.379s-.27.108-.432.108c0 .054-.054.054-.108 0z" class="B"/><path d="M143.72 159.06c-.108-.054-.162-.162-.216-.216-.054-.108-.054-.216-.054-.324l1.135-6.272a.41.41 0 0 1 .108-.216l.162-.163c.054-.054.162-.054.216-.108h.216c.162.054.27.108.324.217.109.108.108.27.108.432l-1.134 6.272c0 .054-.054.162-.054.216l-.162.162c-.054.055-.163.055-.217.109h-.216c-.108 0-.162-.054-.216-.109zm2.215-12.543c-.108-.055-.162-.163-.216-.217-.054-.108-.054-.216-.054-.324l1.135-6.272c0-.054.054-.162.054-.216l.162-.163c.054-.054.108-.054.162-.108h.217c.054 0 .162.054.216.054l.162.163c.054.054.054.108.108.216s0 .162 0 .216l-1.081 6.272a.88.88 0 0 1-.216.379c-.108.108-.27.108-.432.108-.108-.054-.162-.054-.217-.108zm2.216-12.544c-.108-.054-.162-.163-.216-.217-.054-.108-.054-.216-.054-.324l1.135-6.272a.41.41 0 0 1 .108-.216l.162-.163c.054-.054.162-.054.216-.108s.162 0 .216 0c.108 0 .162.054.216.054l.162.163c.054.054.054.108.108.216v.216l-1.134 6.272a.88.88 0 0 1-.216.379c-.109.108-.271.108-.433.108-.162-.054-.216-.108-.27-.108z" class="B"/><path d="M221.64 34.924h-97.207c-6.917 0-12.536 5.623-12.536 12.544v239.79c0 6.921 5.619 12.544 12.536 12.544h97.207c6.97 0 12.536-5.623 12.536-12.544V47.468c0-6.921-5.62-12.544-12.536-12.544z" class="D"/><path d="M222.77 30.328h-99.531c-4.43 0-8.699 1.784-11.779 4.866-3.134 3.136-4.917 7.353-4.917 11.787v241.31c0 4.433 1.783 8.651 4.917 11.787a16.59 16.59 0 0 0 11.779 4.866h99.531c4.431 0 8.7-1.73 11.834-4.866s4.917-7.354 4.917-11.787V46.981c0-4.434-1.783-8.651-4.917-11.787s-7.403-4.866-11.834-4.866zm11.402 257.21c0 3.298-1.297 6.488-3.675 8.867-2.377 2.325-5.565 3.677-8.861 3.677h-97.208c-3.35 0-6.538-1.298-8.861-3.677-2.378-2.325-3.675-5.515-3.675-8.867v-239.8c0-3.298 1.351-6.488 3.675-8.867a12.55 12.55 0 0 1 8.861-3.677h12.266c.649 0 1.297.27 1.729.703s.703 1.081.703 1.73v1.081c0 1.73.702 3.352 1.891 4.542s2.864 1.892 4.593 1.892h54.79c.865 0 1.675-.162 2.486-.486.756-.324 1.513-.811 2.107-1.406a6.26 6.26 0 0 0 1.405-2.109c.324-.757.486-1.622.486-2.487v-1.027c0-.649.27-1.243.703-1.73a2.5 2.5 0 0 1 1.729-.703h12.266c3.35 0 6.538 1.298 8.861 3.677 2.378 2.325 3.675 5.515 3.675 8.867l.054 239.8z" fill="url(#C)"/><path d="M111.9 47.738v30.495h122.28V47.738a12.53 12.53 0 0 0-3.674-8.867c-2.378-2.325-5.566-3.677-8.862-3.677h-12.266c-.648 0-1.243.27-1.729.703-.432.432-.702 1.081-.702 1.73v1.081c0 .865-.162 1.676-.487 2.487-.324.757-.81 1.514-1.404 2.109s-1.297 1.081-2.108 1.406c-.756.324-1.621.487-2.485.487h-54.791c-1.729 0-3.35-.703-4.593-1.892s-1.891-2.866-1.891-4.542v-1.027c0-.649-.27-1.243-.703-1.73-.432-.433-1.08-.703-1.729-.703h-12.319a12.42 12.42 0 0 0-8.862 3.677 12.32 12.32 0 0 0-3.674 8.759z" class="C"/><path d="M191.11 58.876h-39.012c-1.784 0-3.243 1.46-3.243 3.244s1.459 3.244 3.243 3.244h39.012c1.783 0 3.242-1.46 3.242-3.244s-1.459-3.244-3.242-3.244z" class="G"/><path d="M215.81 68.446c3.512 0 6.376-2.866 6.376-6.326 0-3.514-2.81-6.326-6.376-6.326-3.512 0-6.376 2.866-6.376 6.326.054 3.515 2.864 6.326 6.376 6.326z" class="D"/><path d="M215.05 59.958l2.161 2.163-2.161 2.163" class="H I J M"/><path d="M126.7 68.446c3.513 0 6.376-2.866 6.376-6.326 0-3.514-2.863-6.326-6.376-6.326s-6.376 2.866-6.376 6.326c0 3.515 2.864 6.326 6.376 6.326z" class="D"/><path d="M127.46 59.958l-2.161 2.163 2.161 2.163" stroke="#5d3cf2" class="H I J"/><use xlink:href="#F" fill="#fff2d6"/><path d="M132.97 138.79h-10.59c-1.135 0-2.054.919-2.054 2.055s.919 2.054 2.054 2.054h10.59c1.135 0 2.054-.919 2.054-2.054s-.919-2.055-2.054-2.055z" class="C"/><path d="M139.51 162.9h2.702v-18.545h-2.702c-.594 0-1.134.216-1.567.649s-.648.973-.648 1.568v14.058c0 .27.054.594.162.865a2.28 2.28 0 0 0 .486.757 1.84 1.84 0 0 0 .757.486c.216.054.54.162.81.162z" class="K"/><path d="M220.61 220.43h-81.106a2.19 2.19 0 0 0-2.215 2.216v14.112c0 1.244 1.027 2.217 2.215 2.217h81.106a2.19 2.19 0 0 0 2.215-2.217v-14.112c0-1.189-.972-2.216-2.215-2.216z" opacity=".2" class="N"/><path d="M132.97 214.92h-10.59c-1.135 0-2.054.92-2.054 2.055s.919 2.055 2.054 2.055h10.59c1.135 0 2.054-.919 2.054-2.055s-.919-2.055-2.054-2.055z" class="C"/><path d="M139.51 238.98h2.702v-18.6h-2.702c-.594 0-1.134.216-1.567.649s-.648.973-.648 1.568v14.112c0 .324.054.594.162.865a2.28 2.28 0 0 0 .486.757 1.84 1.84 0 0 0 .757.486c.216.108.486.163.81.163z" class="E"/><path d="M220.61 98.508h-81.106a2.19 2.19 0 0 0-2.215 2.217v29.629c0 1.244 1.027 2.217 2.215 2.217h81.106a2.19 2.19 0 0 0 2.215-2.217v-29.629a2.19 2.19 0 0 0-2.215-2.217z" class="L"/><path d="M132.97 92.993h-10.59c-1.135 0-2.054.919-2.054 2.055s.919 2.055 2.054 2.055h10.59c1.135 0 2.054-.919 2.054-2.055s-.919-2.055-2.054-2.055z" class="C"/><path d="M139.51 132.57h2.702V98.507h-2.702c-.594 0-1.134.216-1.567.649s-.648.973-.648 1.568v29.629c0 .271.054.595.162.865a2.26 2.26 0 0 0 .486.757c.217.217.433.379.703.487.27.054.594.108.864.108z" class="F"/><path d="M132.97 171.23h-10.59c-1.135 0-2.054.919-2.054 2.055s.919 2.054 2.054 2.054h10.59c1.135 0 2.054-.919 2.054-2.054 0-1.082-.919-2.055-2.054-2.055z" class="C"/><path d="M220.61 176.8h-81.106a2.19 2.19 0 0 0-2.215 2.217v25.304c0 1.243 1.027 2.217 2.215 2.217h81.106a2.19 2.19 0 0 0 2.215-2.217v-25.304a2.19 2.19 0 0 0-2.215-2.217z" class="L"/><path d="M139.51 206.54h2.702v-29.791h-2.702c-.594 0-1.134.216-1.567.648a2.17 2.17 0 0 0-.648 1.568v25.305c0 .27.054.594.162.865a2.28 2.28 0 0 0 .486.757 1.84 1.84 0 0 0 .757.486c.216.108.54.162.81.162z" class="F"/><path d="M145.23 109.16h-.108c-.054 0-.108-.054-.108-.054-.054-.054-.054-.054-.054-.108s-.054-.108-.054-.108c0-.054 0-.108.054-.108.216-.595.541-1.19.919-1.784.054-.054.108-.108.216-.163.108 0 .162 0 .27.054.054.055.108.109.162.217 0 .108 0 .162-.054.27-.324.487-.648 1.082-.864 1.622 0 .054-.054.108-.108.108-.108.054-.163.054-.271.054z" class="B"/><path d="M208.44 228.73l-12.698-3.569c-.054.054-.054.108-.054.108-.108.27-.108.595 0 .865l5.727 13.95c.108.27.325.541.595.649l6.43-12.003z" class="N"/><path d="M216.72 126.41l-.162.161c.108 0 .162-.107.162-.161z" class="C"/><path d="M210.35 215.16l-6.538 11.462 13.022 4.055c0 .054-.054.162-.108.217a1.05 1.05 0 0 0 .162-.541c0-.216 0-.379-.108-.541l-5.728-13.895a1.17 1.17 0 0 0-.27-.433c-.054-.162-.27-.27-.432-.324z" class="N"/><path d="M210.45 110.67l-.108-.054.108.054z" class="C"/><path d="M191.6 185.45h-39.067c-1.135 0-2.107.919-2.107 2.055s.918 2.054 2.107 2.054H191.6c1.134 0 2.107-.919 2.107-2.054-.054-1.136-.973-2.055-2.107-2.055z" fill="#a998f5"/><path d="M175.17 193.78h-22.64c-1.135 0-2.107.919-2.107 2.054s.918 2.055 2.107 2.055h22.64c1.135 0 2.108-.919 2.108-2.055-.054-1.135-.973-2.054-2.108-2.054z" fill="#a998f5"/><ellipse cx="194.8" cy="115.4" rx="6.457" ry="6.462" class="F"/><ellipse cx="175.43" cy="115.4" rx="6.457" ry="6.462" class="F"/><ellipse cx="154.98" cy="115.4" rx="6.457" ry="6.462" class="F"/></g><g filter="url(#B)"><path d="M124.34 241.44l-1.021-4.087c0-.06-.06-.18 0-.24 0-.06.06-.181.06-.241l.18-.18c.06-.06.12-.06.18-.12h.24c.06 0 .181.06.241.06l.18.18c.06.06.06.121.12.241l.721 2.885 2.883-.721c.18-.061.3-.001.48.06.121.06.241.24.241.36.06.181 0 .301-.061.481-.06.12-.179.241-.36.301l-4.084 1.021z" class="B"/><path d="M122.12 230.92a.33.33 0 0 1-.3-.181.33.33 0 0 1-.18-.3l-1.682-6.852c0-.06-.06-.181 0-.241 0-.06.06-.18.06-.24l.18-.18c.06-.06.12-.06.18-.12h.241c.06 0 .18.06.24.06l.18.18c.06.06.06.12.12.24l1.682 6.912c0 .06.06.181 0 .241 0 .06-.06.18-.06.24l-.18.18c-.06.06-.12.061-.18.121-.181-.06-.241-.06-.301-.06zm-3.424-13.764c-.12 0-.24-.06-.3-.121a.33.33 0 0 1-.18-.3l-1.682-6.912c0-.06-.06-.18 0-.24 0-.06 0-.181.06-.241l.18-.18c.06-.06.181-.12.241-.12h.24c.06 0 .18.06.24.12l.18.18c.06.06.06.181.06.241l1.682 6.851c.06.181 0 .301-.06.481-.06.121-.18.241-.36.301-.12-.06-.18-.06-.301-.06zm-3.423-13.764a.33.33 0 0 1-.301-.18c-.12-.061-.18-.181-.18-.301l-1.682-6.852v-.24c0-.06.06-.181.06-.241l.181-.18c.06-.06.12-.06.18-.12h.24c.06 0 .18.06.24.06l.181.18c.06.06.06.121.12.241l1.681 6.912c.061.18 0 .3-.06.481-.06.12-.18.24-.36.3-.12-.06-.18-.06-.3-.06z" class="B"/><path d="M111.9 189.63a.33.33 0 0 1-.3-.18c-.12-.06-.181-.18-.181-.301l-1.021-4.087 4.085-1.021c.18 0 .3 0 .42.12.12.06.18.24.24.36s0 .301-.06.421-.18.241-.36.301l-2.883.721.72 2.885v.24c0 .06-.059.181-.119.241l-.181.18c-.06.06-.18.06-.24.12h-.12z" class="B"/><path d="M35.918 160.24c-.12-.06-.181-.18-.24-.3s-.06-.301 0-.421.18-.24.3-.3.24-.06.421-.06l2.943.541.541-2.946c0-.18.12-.3.24-.42s.3-.121.48-.121a.98.98 0 0 1 .421.241c.12.12.12.3.12.481l-.721 4.087-4.145-.721c-.24 0-.3-.061-.36-.061z" class="B"/><path d="M48.775 108.43c-.12-.06-.18-.18-.24-.24-.06-.12-.06-.241-.06-.361l.541-2.945-2.943-.541c-.12 0-.18-.06-.24-.06l-.18-.18c-.06-.06-.12-.12-.12-.24v-.241c0-.06.06-.18.12-.24l.18-.181c.06-.06.12-.06.18-.12h.24l4.085.721-.721 4.087c0 .181-.12.301-.24.421s-.3.12-.481.12c0 .06-.06.06-.12 0z" class="B"/><path d="M41.324 150.32c-.12-.06-.181-.18-.24-.24-.06-.121-.06-.241-.06-.361l1.261-6.972c0-.06.06-.18.12-.241l.18-.18c.06-.06.18-.06.24-.12h.24c.18.06.3.12.361.24.12.121.12.301.12.481l-1.261 6.972c0 .06-.06.181-.06.241l-.18.18c-.06.06-.18.06-.24.12h-.24c-.12 0-.18-.06-.24-.12zm2.462-13.944c-.12-.06-.18-.18-.24-.24-.06-.121-.06-.241-.06-.361l1.261-6.972c0-.06.06-.181.06-.241l.18-.18c.06-.06.12-.06.18-.12h.24c.06 0 .18.06.24.06l.18.18c.06.06.06.121.12.241s0 .18 0 .24l-1.201 6.972c-.06.181-.12.301-.24.421s-.3.12-.48.12c-.12-.06-.18-.06-.24-.12zm2.463-13.944c-.12-.06-.18-.18-.24-.241-.06-.12-.06-.24-.06-.36l1.261-6.972c0-.06.06-.181.12-.241l.18-.18c.06-.06.18-.06.24-.12s.18 0 .24 0c.12 0 .18.06.24.06l.18.18c.06.06.06.12.12.241v.24l-1.261 6.972a.97.97 0 0 1-.24.421c-.12.12-.3.12-.481.12-.18-.06-.24-.12-.3-.12z" class="B"/><path d="M127.94 12.322H19.88c-7.688 0-13.935 6.251-13.935 13.944v266.56c0 7.693 6.247 13.944 13.935 13.944h108.06c7.749 0 13.936-6.251 13.936-13.944V26.266c0-7.693-6.247-13.944-13.936-13.944z" class="D"/><path d="M129.2 7.212H18.56c-4.925 0-9.67 1.983-13.094 5.409C1.982 16.107 0 20.795 0 25.724v268.24c0 4.928 1.982 9.617 5.466 13.103s8.169 5.409 13.094 5.409H129.2c4.925 0 9.67-1.923 13.154-5.409s5.466-8.175 5.466-13.103V25.724c0-4.929-1.982-9.617-5.466-13.103s-8.229-5.409-13.154-5.409zm12.674 285.92a13.93 13.93 0 0 1-4.085 9.857c-2.643 2.584-6.187 4.087-9.851 4.087H19.878c-3.724 0-7.268-1.443-9.851-4.087-2.643-2.585-4.085-6.131-4.085-9.857V26.572c0-3.666 1.502-7.212 4.085-9.857 2.583-2.585 6.127-4.087 9.851-4.087h13.635c.721 0 1.441.3 1.922.781s.781 1.202.781 1.923v1.202c0 1.923.781 3.726 2.102 5.049s3.183 2.104 5.105 2.104h60.906a7.3 7.3 0 0 0 2.763-.541c.841-.361 1.682-.902 2.342-1.563s1.202-1.442 1.562-2.344c.361-.841.541-1.803.541-2.765v-1.142c0-.721.3-1.382.78-1.923a2.78 2.78 0 0 1 1.923-.781h13.634c3.724 0 7.269 1.442 9.851 4.087 2.643 2.584 4.085 6.13 4.085 9.857l.06 266.56z" fill="url(#D)"/><path d="M5.945 26.566v33.899h135.93V26.566c0-3.666-1.442-7.212-4.085-9.857-2.643-2.585-6.187-4.087-9.851-4.087h-13.634c-.721 0-1.382.3-1.923.781-.48.481-.78 1.202-.78 1.923v1.202c0 .962-.181 1.863-.541 2.765-.36.841-.901 1.683-1.562 2.344s-1.441 1.202-2.342 1.563c-.841.361-1.802.541-2.763.541H43.487c-1.922 0-3.724-.781-5.105-2.104s-2.102-3.186-2.102-5.049v-1.142c0-.721-.3-1.382-.781-1.923a2.78 2.78 0 0 0-1.922-.781H19.882c-3.724 0-7.208 1.443-9.851 4.087-2.583 2.524-4.085 6.07-4.085 9.737z" class="C"/><path d="M94.002 38.947H50.635c-1.982 0-3.604 1.623-3.604 3.606s1.622 3.606 3.604 3.606h43.367c1.982 0 3.604-1.623 3.604-3.606s-1.622-3.606-3.604-3.606z" class="G"/><path d="M121.45 49.585c3.904 0 7.088-3.185 7.088-7.032 0-3.907-3.123-7.032-7.088-7.032-3.904 0-7.088 3.186-7.088 7.032.06 3.907 3.184 7.032 7.088 7.032z" class="D"/><path d="M120.61 40.149l2.403 2.404-2.403 2.404" class="H I J M"/><path d="M22.404 49.585c3.904 0 7.088-3.185 7.088-7.032 0-3.907-3.183-7.032-7.088-7.032s-7.088 3.186-7.088 7.032c0 3.907 3.184 7.032 7.088 7.032z" class="D"/><path d="M23.246 40.149l-2.403 2.404 2.403 2.404" class="H I J M"/><path d="M126.8 133.91H36.641c-1.382 0-2.463 1.081-2.463 2.464v15.687c0 1.382 1.141 2.464 2.463 2.464H126.8c1.381 0 2.463-1.082 2.463-2.464v-15.687c0-1.322-1.082-2.464-2.463-2.464z" fill="#ffcbce"/><use xlink:href="#G" class="C"/><path d="M36.642 154.59h3.003v-20.615h-3.003c-.661 0-1.261.24-1.742.721a2.41 2.41 0 0 0-.721 1.743v15.627c0 .301.06.661.18.962a2.52 2.52 0 0 0 .541.841c.24.241.48.421.841.541.24.06.601.18.901.18z" class="K"/><path d="M126.8 218.54H36.641c-1.382 0-2.463 1.082-2.463 2.464v15.688c0 1.382 1.141 2.464 2.463 2.464H126.8c1.381 0 2.463-1.082 2.463-2.464v-15.688c0-1.322-1.082-2.464-2.463-2.464z" fill-opacity=".2" class="E"/><path d="M29.372 212.41H17.599c-1.261 0-2.283 1.022-2.283 2.284s1.021 2.284 2.283 2.284h11.773c1.261 0 2.283-1.022 2.283-2.284s-1.021-2.284-2.283-2.284z" class="C"/><path d="M36.642 239.15h3.003v-20.676h-3.003c-.661 0-1.261.24-1.742.721a2.41 2.41 0 0 0-.721 1.743v15.687a2.49 2.49 0 0 0 .18.962c.12.301.3.601.541.842s.48.42.841.54c.24.121.541.181.901.181z" class="E"/><path d="M126.8 83.003H36.641c-1.382 0-2.463 1.082-2.463 2.464v32.937c0 1.383 1.141 2.464 2.463 2.464H126.8c1.381 0 2.463-1.081 2.463-2.464V85.467c0-1.382-1.082-2.464-2.463-2.464z" class="L"/><path d="M29.372 76.872H17.599c-1.261 0-2.283 1.022-2.283 2.284s1.021 2.284 2.283 2.284h11.773c1.261 0 2.283-1.022 2.283-2.284s-1.021-2.284-2.283-2.284z" class="C"/><path d="M36.642 120.87h3.003V83.005h-3.003c-.661 0-1.261.241-1.742.721s-.721 1.082-.721 1.743v32.937c0 .301.06.661.18.962a2.52 2.52 0 0 0 .541.841c.24.241.48.421.781.541.3.06.661.12.961.12z" class="F"/><path d="M29.372 163.84H17.599c-1.261 0-2.283 1.022-2.283 2.284s1.021 2.284 2.283 2.284h11.773c1.261 0 2.283-1.022 2.283-2.284 0-1.202-1.021-2.284-2.283-2.284z" class="C"/><path d="M126.8 170.03H36.641c-1.382 0-2.463 1.082-2.463 2.465v28.128c0 1.383 1.141 2.464 2.463 2.464H126.8c1.381 0 2.463-1.081 2.463-2.464v-28.128c0-1.383-1.082-2.465-2.463-2.465z" class="L"/><path d="M36.642 203.09h3.003v-33.117h-3.003c-.661 0-1.261.24-1.742.721a2.41 2.41 0 0 0-.721 1.743v28.129a2.72 2.72 0 0 0 .18.961c.12.301.3.601.541.842s.48.42.841.541c.24.12.601.18.901.18z" class="F"/><path d="M43.005 94.843h-.12c-.06 0-.12-.06-.12-.06-.06-.06-.06-.06-.06-.12s-.06-.12-.06-.12c0-.06 0-.12.06-.12.24-.661.601-1.322 1.021-1.983.06-.06.12-.12.24-.18.12 0 .18 0 .3.06a.83.83 0 0 1 .18.24c0 .12 0 .18-.06.3-.36.541-.721 1.202-.961 1.803a.13.13 0 0 1-.12.12.54.54 0 0 1-.3.06z" class="B"/><path d="M101.45 114.38h-.12l-.48-.18-3.664-1.262c-.06-.06-.18-.121-.18-.181-.06-.06-.06-.18 0-.3 0-.12.12-.18.18-.18.06-.061.18-.061.24 0l3.664 1.262.481.18c.06 0 .06.06.12.06l.12.12c0 .06.06.121.06.121v.12c0 .06-.06.12-.12.18-.18.06-.241.06-.301.06zm-8.168-3.065h-.18a34.94 34.94 0 0 1-3.904-2.104c-.06 0-.06-.06-.12-.12 0-.06-.06-.06-.06-.12v-.12c0-.061.06-.121.06-.121.06-.06.12-.12.24-.18a.54.54 0 0 1 .3.06c1.201.782 2.463 1.503 3.784 2.104.12.06.18.12.18.18.06.06.06.18 0 .301-.06.06-.06.12-.12.12h-.18zm-7.388-4.748h-.18c-.06 0-.06-.06-.12-.06-1.141-1.022-2.102-2.104-2.943-3.366-.06-.06-.06-.06-.06-.121v-.18c0-.06 0-.12.06-.12 0-.06.06-.06.12-.12s.12-.06.18-.06h.18c.06 0 .12.06.18.06l.12.12c.841 1.202 1.802 2.284 2.823 3.306.06.06.12.12.12.18v.18c-.06.06-.06.121-.12.181h-.361zm-5.045-7.153c-.06 0-.12 0-.18-.06s-.12-.12-.12-.18c-.601-1.382-1.021-2.825-1.261-4.267 0-.12 0-.18.06-.3.06-.06.12-.12.24-.18h.18c.06 0 .12.06.12.06.06 0 .06.06.12.12 0 .06.06.06.06.12.24 1.382.661 2.765 1.201 4.087 0 .06.06.12.06.12s0 .12-.06.12c0 .06-.06.06-.06.12s-.06.06-.12.06l-.24.18zm2.222-4.748c-.841.06-1.622 0-2.463-.06-.06 0-.12 0-.12-.06-.06 0-.06-.06-.12-.12s-.06-.18-.06-.24c0-.12.06-.18.12-.24s.18-.06.24-.06c.781.06 1.562.12 2.343.06l1.922-.18h.12c.06 0 .12 0 .12.06.06 0 .06.06.12.12 0 .06.06.06.06.12v.12c0 .06-.06.12-.06.12l-.12.12c-.06 0-.06.06-.12.06l-1.982.18zm-6.727-1.022h-.12c-1.442-.421-2.823-.962-4.144-1.563-.06 0-.12-.06-.12-.06l-.12-.12v-.24c0-.06.06-.06.12-.12 0-.06.06-.06.12-.06h.3l4.085 1.503c.06 0 .12.06.12.06.06 0 .06.06.06.12.06.06.06.06.06.12s0 .12-.06.12c0 .06-.06.12-.12.18s-.12.06-.18.06zm12.794-.721c-.06 0-.12 0-.18-.06s-.12-.06-.18-.12-.06-.18-.06-.3.06-.18.18-.24c.661-.361 1.201-.841 1.802-1.382.481-.481.841-1.022 1.141-1.563l.18-.18h.3c.06.06.18.12.18.24.06.12 0 .18 0 .301a7.42 7.42 0 0 1-1.321 1.743c-.541.601-1.201 1.082-1.922 1.503 0 .06-.06.06-.12.06zm-9.851-2.104c-.06 0-.12 0-.12-.06-.06 0-.12-.06-.12-.06-.06-.06-.06-.06-.06-.12v-.12c.12-1.503.481-3.005 1.081-4.388.06-.06.12-.18.18-.18s.18-.06.3 0c.06.06.18.12.18.18.06.12 0 .18 0 .3-.541 1.322-.901 2.705-1.021 4.087 0 .12 0 .18-.12.24a.46.46 0 0 1-.3.12zm-11.172-.421h-.18l-1.442-.601-2.643-.962c-.06 0-.06-.06-.12-.06l-.12-.12c0-.06-.06-.06-.06-.12v-.12c0-.06.06-.06.06-.12s.06-.06.12-.06.06-.06.12-.06h.12l2.703 1.022 1.442.601c.06 0 .06.06.12.06 0 .06.06.06.06.12v.24c-.06.06-.06.12-.12.12.12 0 .06.06-.06.06zm-21.083-.541c-.06 0-.18 0-.18-.06l-.18-.18v-.24c.06-.06.06-.12.18-.18 1.261-.841 2.643-1.503 4.085-1.923h.12c.06 0 .12 0 .18.06.06 0 .06.06.12.06 0 .06.06.06.06.12s.06.12 0 .12c0 .06 0 .12-.06.12 0 .06-.06.06-.12.12s-.06.06-.12.06c-1.382.421-2.703 1.022-3.844 1.863 0 .06-.12.06-.24.06zm12.734-2.164h-.12c-1.442-.24-2.883-.421-4.325-.361h-.18c-.06 0-.06-.06-.12-.06-.06-.06-.06-.06-.06-.12s-.06-.06-.06-.12c0-.12.06-.18.12-.24s.18-.12.24-.12a27.16 27.16 0 0 1 4.445.361c.06 0 .12 0 .12.06.06 0 .06.06.12.12s.06.06.06.12v.12c0 .06-.06.12-.12.18.06 0 0 .06-.12.06zm33.396-2.043c-.12 0-.18 0-.24-.12-.06-.06-.12-.18-.12-.24-.06-1.142-.54-2.224-1.381-3.005-.18-.18-.36-.3-.541-.421-.06-.06-.12-.12-.12-.24 0-.06 0-.18.06-.24s.12-.12.24-.12h.24c.24.18.421.3.601.481.961.902 1.502 2.164 1.622 3.486 0 .12-.06.18-.12.24 0 .12-.12.18-.24.18zM82.95 83.066c-.06 0-.12 0-.18-.06a.13.13 0 0 1-.12-.12c-.06-.06-.06-.06-.06-.12v-.12c0-.06 0-.12.06-.12 0-.06.06-.06.12-.12 1.141-.962 2.583-1.683 4.084-1.983.12 0 .18 0 .24.06.12.06.12.12.18.24 0 .12 0 .18-.06.3s-.12.12-.24.12c-1.382.3-2.703.901-3.784 1.803-.12.06-.18.06-.24.12z" class="B"/><path d="M107.52 117.02c-.12 0-.18 0-.24-.06-.541-.42-1.142-.781-1.742-1.021-.06-.061-.181-.121-.181-.181v-.3c.061-.06.121-.181.181-.181.06-.06.18-.06.24 0 .721.301 1.322.662 1.922 1.142 0 .06.06.06.06.121v.24c0 .06-.06.06-.06.12-.06.06-.12.06-.18.12z" class="B"/><path d="M105.17 108.25c-.24-.06-.481-.06-.721 0-.24.12-.42.241-.48.481l-8.53 16.168c.18.06.361.12.541.12s.36 0 .541-.12l25.347-10.398a1.31 1.31 0 0 0 .481-.3 1.32 1.32 0 0 0 .3-.481l-17.479-5.47z" fill-opacity=".5" class="B"/><path d="M105.47 112.39c.24.06.48.06.66-.06.181-.06.421-.241.481-.421l8.769-15.387h-.42c-.12-.06-.361 0-.541.06L89.072 106.98a1.19 1.19 0 0 0-.661.661l17.059 4.748z" class="D"/><path d="M102.53 111.55l-14.115-3.967c-.06.061-.06.121-.06.121-.12.3-.12.661 0 .961l6.367 15.507c.12.301.361.601.661.721l7.147-13.343z" class="C"/><path d="M122.47 114.02l-.18.18c.12 0 .18-.12.18-.18z" class="C"/><path d="M115.38 96.466l-7.268 12.742 14.476 4.508c0 .06-.06.18-.12.24a1.16 1.16 0 0 0 .18-.601c0-.24 0-.421-.12-.601l-6.367-15.447a1.31 1.31 0 0 0-.3-.481c-.06-.18-.301-.3-.481-.361z" class="C"/><path d="M115.51 96.526l-.12-.06.12.06z" class="C"/><path d="M80.125 218.54a12.47 12.47 0 0 0 4.085 8.114 12.64 12.64 0 0 0 16.938 0c2.342-2.103 3.784-4.988 4.085-8.114H80.125z" class="E"/><path d="M94.543 179.65H51.116c-1.261 0-2.343 1.022-2.343 2.284s1.021 2.284 2.343 2.284h43.427c1.261 0 2.343-1.021 2.343-2.284-.06-1.262-1.082-2.284-2.343-2.284z" class="G"/><path d="M76.283 188.91H51.116c-1.261 0-2.343 1.021-2.343 2.284s1.021 2.284 2.343 2.284h25.167c1.261 0 2.343-1.022 2.343-2.284-.06-1.263-1.081-2.284-2.343-2.284z" class="G"/><path d="M66.852 149.18h-4.445c-1.442 0-2.823-.541-3.904-1.563s-1.682-2.344-1.802-3.786l-.721-13.103c0-.12 0-.24.06-.36s.12-.181.18-.301c.12-.06.18-.18.3-.18.12-.06.24-.06.361-.06h15.557c.12 0 .24 0 .3.06.12.06.18.12.3.18.06.06.12.18.18.301s.06.24.06.36l-.721 13.103c-.06 1.442-.721 2.825-1.742 3.786-1.141.962-2.583 1.563-3.964 1.563z" class="K"/><path d="M73.041 132.77l-.12 1.983c.961.18 1.802.721 2.343 1.503.601.781.841 1.743.841 2.704-.06.962-.481 1.864-1.141 2.585a3.72 3.72 0 0 1-2.523 1.202l-.12 1.983c1.502-.06 2.943-.661 3.964-1.683 1.081-1.021 1.742-2.464 1.802-3.967s-.42-2.945-1.321-4.147c-.901-1.142-2.223-1.923-3.724-2.163z" class="K"/><path d="M65.772 126.76s-3.784-3.486-3.664-6.071c.18-3.966 3.724-5.469 2.403-9.136-.661-1.743-3.304-7.452-3.304-7.452s4.385 4.327 5.947 7.032c1.382 2.464 1.201 6.251-.3 8.114-3.364 3.967-1.081 7.513-1.081 7.513z" class="G"/><path d="M77.005 221.66c-1.502 0-2.883.42-4.205 1.202a8.33 8.33 0 0 0-3.063 3.065c-.541 1.082-.721 2.344-.421 3.546.12.421.661 2.344 1.442 1.623 1.922-1.803 4.144-3.306 6.667-4.268 1.201-.48 1.081-5.108-.42-5.168z" class="E"/><path d="M83.792 229.96c-1.562 2.404-2.763 5.049-3.484 7.814-.3 1.262-.18 2.645.3 3.847.3.661 1.021 1.322 1.622.48.721-1.202 1.201-2.524 1.622-3.906l1.442-3.967c.42-1.202.42-2.464 0-3.606-.24-.541-.901-1.623-1.502-.662z" class="E"/><path d="M106.08 229.42l6.186 5.891c.961.841 1.442-.421 1.562-1.263.18-1.142.06-3.305-.901-4.087l-6.247-5.409c-.901-.781-1.321.361-1.381 1.142-.12 1.022-.06 2.945.781 3.726z" class="E"/><path d="M94.722 233.44c-.12 2.885.781 6.07 1.622 8.895.3.902 1.141 2.585 2.102 1.263s.781-3.487.421-4.989c-.3-1.202-.721-2.404-1.081-3.546-.36-1.202-.601-2.765-1.622-3.667-.961-.901-1.382 1.743-1.442 2.044z" class="E"/></g></g><defs><filter id="A" x="90.547" y="22.328" width="164.98" height="306.62" filterUnits="userSpaceOnUse" class="O"><feFlood flood-opacity="0" result="A"/><feColorMatrix in="SourceAlpha" values="0 0 0 0 0 0 0 0 0 0 0 0 0 0 0 0 0 0 127 0"/><feOffset dy="8"/><feGaussianBlur stdDeviation="8"/><feColorMatrix values="0 0 0 0 0.121569 0 0 0 0 0.105882 0 0 0 0 0.176471 0 0 0 0.16 0"/><feBlend in2="A" result="B"/><feColorMatrix in="SourceAlpha" values="0 0 0 0 0 0 0 0 0 0 0 0 0 0 0 0 0 0 127 0"/><feMorphology in="SourceAlpha" radius="6"/><feOffset dy="4"/><feGaussianBlur stdDeviation="6"/><feColorMatrix values="0 0 0 0 0.121569 0 0 0 0 0.105882 0 0 0 0 0.176471 0 0 0 0.2 0"/><feBlend in2="B"/><feBlend in="SourceGraphic"/></filter><filter id="B" x="-16" y="-.788" width="179.82" height="337.27" filterUnits="userSpaceOnUse" class="O"><feFlood flood-opacity="0" result="A"/><feColorMatrix in="SourceAlpha" values="0 0 0 0 0 0 0 0 0 0 0 0 0 0 0 0 0 0 127 0"/><feOffset dy="8"/><feGaussianBlur stdDeviation="8"/><feColorMatrix values="0 0 0 0 0.121569 0 0 0 0 0.105882 0 0 0 0 0.176471 0 0 0 0.16 0"/><feBlend in2="A" result="B"/><feColorMatrix in="SourceAlpha" values="0 0 0 0 0 0 0 0 0 0 0 0 0 0 0 0 0 0 127 0"/><feMorphology in="SourceAlpha" radius="6"/><feOffset dy="4"/><feGaussianBlur stdDeviation="6"/><feColorMatrix values="0 0 0 0 0.121569 0 0 0 0 0.105882 0 0 0 0 0.176471 0 0 0 0.2 0"/><feBlend in2="B"/><feBlend in="SourceGraphic"/></filter><linearGradient id="C" x1="106.55" x2="287" y1="198.36" y2="6" gradientUnits="userSpaceOnUse"><stop stop-color="#454056" offset="0"/><stop stop-color="#8d8a97" offset="1"/></linearGradient><linearGradient id="D" x1="0" x2="148" y1="194" y2="20.999" gradientUnits="userSpaceOnUse"><stop stop-color="#454056" offset="0"/><stop stop-color="#8d8a97" offset="1"/></linearGradient><clipPath id="E"><path d="M0 0h241v238H0z" class="D"/></clipPath><path id="F" d="M220.61 144.3h-81.106a2.19 2.19 0 0 0-2.215 2.216v14.112c0 1.244 1.027 2.217 2.215 2.217h81.106a2.19 2.19 0 0 0 2.215-2.217v-14.112c0-1.189-.972-2.216-2.215-2.216z"/><path id="G" d="M29.372 127.78H17.599c-1.261 0-2.283 1.022-2.283 2.284s1.021 2.284 2.283 2.284h11.773c1.261 0 2.283-1.022 2.283-2.284s-1.021-2.284-2.283-2.284z"/></defs></svg>