<svg xmlns="http://www.w3.org/2000/svg" viewBox="0 0 225 177"  xmlns:v="https://vecta.io/nano"><g fill="#fff"><path d="M167.41 87h-13.997V64.392c.001-.634.262-1.242.726-1.691a2.52 2.52 0 0 1 1.75-.702h9.046a2.52 2.52 0 0 1 1.749.702c.464.449.725 1.057.726 1.691V87z"/><path d="M175.96 87h-13.997V64.392c.001-.634.262-1.242.726-1.691a2.52 2.52 0 0 1 1.749-.702h9.046a2.52 2.52 0 0 1 1.75.702c.464.449.725 1.057.726 1.691V87z"/></g><path d="M91.424 97c14.356 0 25.995-11.641 25.995-26S105.78 45 91.424 45 65.43 56.641 65.43 71s11.638 26 25.994 26z" fill="#f5f4f8"/><path d="M160.97 58c-2.338-.073-4.419-2.189-4.436-4.51s2.034-4.467 4.371-4.573c5.202-.236 9.462-5.777 8.317-10.819s-7.388-8.235-12.19-6.233c-3.684 1.535-7.406-3.302-6.472-7.157s4.466-6.444 7.735-8.724 6.766-4.956 7.555-8.843S162.6-1.402 159.041.4" fill="#d5d2dc"/><path d="M173.02 176H70.82c-.634-.001-1.241-.251-1.689-.695s-.7-1.048-.701-1.677v-69.256c.001-.629.253-1.232.701-1.677s1.055-.694 1.689-.695h102.2c.634.001 1.241.251 1.689.695a2.37 2.37 0 0 1 .701 1.677v69.256a2.37 2.37 0 0 1-.701 1.677c-.448.444-1.055.694-1.689.695z" fill="#fff"/><path d="M173.02 176H70.82c-.634-.001-1.241-.251-1.689-.695s-.7-1.048-.701-1.677v-69.256c.001-.629.253-1.232.701-1.677s1.055-.694 1.689-.695h102.2c.634.001 1.241.251 1.689.695a2.37 2.37 0 0 1 .701 1.677v69.256a2.37 2.37 0 0 1-.701 1.677c-.448.444-1.055.694-1.689.695zm-102.2-73.473a1.87 1.87 0 0 0-1.314.541 1.84 1.84 0 0 0-.545 1.304v69.256a1.84 1.84 0 0 0 .545 1.304 1.87 1.87 0 0 0 1.314.541h102.2a1.87 1.87 0 0 0 1.314-.541c.348-.346.544-.815.545-1.304v-69.256c-.001-.489-.197-.958-.545-1.304a1.87 1.87 0 0 0-1.314-.541H70.82z" fill="#454056"/><path d="M133.42 176h-22.995v-39.469c.001-.936.36-1.834.998-2.496A3.35 3.35 0 0 1 113.83 133h16.184c.903.001 1.769.373 2.407 1.035a3.6 3.6 0 0 1 .999 2.496V176z" fill="#d5d2dc"/><path d="M100.42 145H80.438c-.797-.001-1.561-.325-2.125-.902s-.881-1.358-.882-2.173v-16.85c.001-.815.318-1.597.882-2.173s1.328-.901 2.125-.902h19.982c.797.001 1.561.325 2.125.902s.88 1.358.881 2.173v16.85c-.001.815-.318 1.597-.881 2.173s-1.328.901-2.125.902z" fill="#fdbc31"/><path d="M164.4 145h-19.982a2.97 2.97 0 0 1-2.124-.902c-.564-.576-.881-1.358-.882-2.173v-16.85c.001-.815.318-1.597.882-2.173a2.97 2.97 0 0 1 2.124-.902H164.4c.797.001 1.561.325 2.125.902s.881 1.358.882 2.173v16.85c-.001.815-.318 1.597-.882 2.173s-1.328.901-2.125.902z" fill="#d5d2dc"/><path d="M167.41 87h-13.997V64.392c.001-.634.262-1.242.726-1.691a2.52 2.52 0 0 1 1.75-.702h9.046a2.52 2.52 0 0 1 1.749.702c.464.449.725 1.057.726 1.691V87zm-13.447-.532h12.897V64.392c-.001-.493-.204-.966-.565-1.315a1.96 1.96 0 0 0-1.36-.546h-9.046a1.96 1.96 0 0 0-1.361.546c-.361.349-.564.822-.565 1.315v22.076z" fill="#454056"/><path d="M60.434 103.34V92.641c0-.822.218-1.629.631-2.34s1.007-1.3 1.721-1.708l59.527-33.976c.739-.422 1.58-.634 2.43-.613s1.68.273 2.398.73l53.108 33.827a4.67 4.67 0 0 1 1.584 1.689 4.66 4.66 0 0 1 .575 2.242v10.849c0 1.236-.492 2.422-1.368 3.296a4.67 4.67 0 0 1-3.301 1.366H65.099a4.67 4.67 0 0 1-3.301-1.366c-.876-.874-1.367-2.06-1.367-3.296z" fill="#f9f8fa"/><path d="M61.134 92.639v10.699a3.96 3.96 0 0 0 1.162 2.801c.744.743 1.754 1.161 2.807 1.161h112.64c1.053 0 2.062-.418 2.807-1.161a3.96 3.96 0 0 0 1.162-2.801V92.489c0-.666-.168-1.321-.489-1.905s-.783-1.078-1.346-1.436l-53.108-33.827c-.61-.389-1.315-.603-2.038-.621s-1.438.163-2.067.521L63.137 89.198c-.608.347-1.112.848-1.463 1.452a3.96 3.96 0 0 0-.536 1.988zm-.7 0v10.699c0 1.236.492 2.422 1.367 3.296A4.67 4.67 0 0 0 65.103 108h112.64a4.67 4.67 0 0 0 3.301-1.366c.876-.874 1.368-2.06 1.368-3.296V92.489a4.66 4.66 0 0 0-.575-2.242 4.67 4.67 0 0 0-1.584-1.689l-53.108-33.827c-.718-.457-1.547-.709-2.398-.73s-1.691.191-2.43.613L62.79 88.59c-.715.408-1.308.997-1.721 1.708s-.631 1.518-.631 2.34z" fill="#454056" fill-rule="evenodd"/><path d="M177.74 103.72H65.1c-1.238 0-2.426-.497-3.301-1.382a4.74 4.74 0 0 1-1.367-3.335v4.283a4.74 4.74 0 0 0 1.367 3.335c.876.885 2.063 1.382 3.301 1.382h112.64c1.238 0 2.426-.497 3.301-1.382a4.74 4.74 0 0 0 1.368-3.335v-4.283a4.74 4.74 0 0 1-1.368 3.335c-.875.885-2.063 1.382-3.301 1.382z" fill="#1f1b2d" opacity=".2"/><path d="M202.14 133c-.065 0-.128-.027-.177-.075l-6.473-6.429c-.025-.025-.046-.056-.061-.09s-.023-.07-.024-.108.003-.075.015-.11.03-.068.053-.095.051-.05.083-.066.065-.025.099-.027.069.004.102.017.062.033.087.058l6.473 6.43c.039.038.067.089.079.145a.31.31 0 0 1-.011.168.28.28 0 0 1-.096.132c-.044.033-.096.05-.149.05z" fill="#454056"/><path d="M187.41 139.98c0-8.295 6.715-27.98 14.997-27.98s14.997 19.685 14.997 27.98a15.03 15.03 0 0 1-4.393 10.621c-2.812 2.817-6.627 4.399-10.604 4.399s-7.792-1.582-10.604-4.399a15.03 15.03 0 0 1-4.393-10.621z" fill="#f5f4f8"/><g fill="#454056"><path d="M201.9 176c-.132 0-.259-.028-.353-.078s-.147-.117-.147-.187v-53.47c0-.07.053-.138.147-.187s.221-.078.353-.078.26.028.354.078.146.117.146.187v53.47c0 .07-.053.138-.146.187s-.221.078-.354.078z"/><path d="M201.7 146a.33.33 0 0 1-.162-.041.27.27 0 0 1-.109-.111c-.023-.045-.029-.095-.019-.143s.037-.093.077-.128l8.409-7.499c.026-.024.058-.043.094-.057s.073-.02.112-.021.077.005.113.017.069.029.097.052a.25.25 0 0 1 .066.08c.016.03.024.062.025.095s-.005.066-.019.097-.035.058-.062.082l-8.409 7.499c-.027.025-.06.044-.097.058a.35.35 0 0 1-.116.02z"/></g><path d="M191.79 175.94l.076.056h21.174c.415-1.705.561-3.411-.058-4.893-.884-2.112-3.497-3.43-5.574-2.523a3.18 3.18 0 0 0-1.246 1c-.812-1.474-2.269-2.585-3.95-2.584-2.106.002-3.857 1.748-4.428 3.765-.92-1.575-2.738-2.675-4.515-2.202-2.971.792-3.91 5.476-1.479 7.381z" fill="#d5d2dc"/><path d="M5.445 123.34c0-11.961 9.848-40.343 21.995-40.343s21.995 28.382 21.995 40.343c0 5.744-2.317 11.252-6.442 15.314s-9.72 6.343-15.553 6.343-11.428-2.282-15.553-6.343-6.442-9.57-6.442-15.314z" fill="#f5f4f8"/><g fill="#454056"><path d="M27.941 176c-.133 0-.26-.028-.354-.077s-.146-.115-.146-.184V98.261c0-.069.053-.136.146-.185s.221-.076.354-.076.26.028.354.076.146.115.146.185v77.478c0 .069-.053.135-.146.184s-.221.077-.354.077z"/><path d="M27.714 132c-.053 0-.106-.015-.15-.043s-.079-.068-.101-.115-.027-.099-.018-.149.034-.096.071-.133l11.452-11.479a.28.28 0 0 1 .386-.009.25.25 0 0 1 .084.182c.001.069-.025.136-.075.186l-11.452 11.479c-.025.026-.056.046-.09.06a.28.28 0 0 1-.107.021zm.438-19c-.072 0-.141-.026-.194-.074l-10.423-9.432c-.056-.051-.09-.122-.093-.197s.024-.149.075-.205.123-.088.199-.092a.29.29 0 0 1 .207.074l10.423 9.432a.28.28 0 0 1 .086.145c.013.056.009.114-.012.168s-.058.099-.106.131-.104.05-.162.05h0z"/></g><path d="M7.278 176.88l.154.117h43.269c.848-3.599 1.147-7.201-.119-10.33-1.804-4.458-7.144-7.24-11.39-5.326-1.006.466-1.882 1.192-2.546 2.11-1.659-3.111-4.635-5.457-8.07-5.454-4.304.003-7.882 3.69-9.05 7.949-1.88-3.325-5.595-5.649-9.225-4.649-6.072 1.672-7.99 11.561-3.022 15.583z" fill="#d5d2dc"/><path d="M225 175.73l-225 .425.001.529 225-.425-.001-.529z" fill="#454056"/><path d="M194.2 87.451c-3.453-3.587-7.589-6.447-12.165-8.414a37.4 37.4 0 0 0-29.01-.218 37.35 37.35 0 0 0-12.291 8.23c-14.138 14.231-14.378 37.402-.55 51.924 6.074 6.388 14.216 10.423 22.985 11.391a37.39 37.39 0 0 0 24.92-6.103l27.002 28.034a1.82 1.82 0 0 0 .582.406c.218.096.454.147.693.152a1.81 1.81 0 0 0 .698-.124c.223-.087.426-.217.598-.383l6.728-6.46a1.81 1.81 0 0 0 .407-.58c.095-.219.147-.454.152-.693s-.038-.475-.125-.697-.217-.425-.382-.597l-27.002-28.034a37.26 37.26 0 0 0 7.096-24.506A37.27 37.27 0 0 0 194.2 87.451zm-8.411 45.079c-3.808 3.658-8.616 6.106-13.818 7.035a26.75 26.75 0 0 1-15.403-1.817 26.7 26.7 0 0 1-11.797-10.055 26.65 26.65 0 0 1 .576-29.636 26.71 26.71 0 0 1 12.178-9.591 26.75 26.75 0 0 1 15.462-1.219c5.162 1.129 9.872 3.762 13.535 7.564a26.67 26.67 0 0 1 5.622 8.766 26.63 26.63 0 0 1 1.835 10.246c-.068 3.502-.826 6.957-2.231 10.167a26.66 26.66 0 0 1-5.959 8.541zm-36.549-32.48c-2.924-.694-4.005 3.84-1.076 4.536s4.003-3.841 1.076-4.536zm23.82-9.686c-7.825-2.045-15.922.197-21.142 5.254-1.703 1.645 1.418 4.198 3.111 2.56 4.321-4.178 11.057-5.894 17.489-4.184 6.748 1.782 12.006 7.127 14 13.285.758 2.337 4.448 1.252 3.697-1.071-2.419-7.477-9.07-13.729-17.155-15.843z" fill="#1f1b2d"/><defs /></svg>