<svg xmlns="http://www.w3.org/2000/svg" fill="none" viewBox="0 0 225 177"  xmlns:v="https://vecta.io/nano"><path d="M188.13 140.29c0-8.031 6.6-27.087 14.741-27.087s14.742 19.056 14.742 27.087c0 3.856-1.553 7.554-4.318 10.281s-6.514 4.259-10.424 4.259-7.659-1.532-10.423-4.259-4.318-6.425-4.318-10.281z" fill="#f5f4f8"/><g fill="#454056"><path d="M203.21 175.64c-.089 0-.174-.019-.237-.052s-.098-.077-.098-.124v-52.018c0-.047.035-.091.098-.124s.148-.051.237-.051.174.018.237.051.098.077.098.124v52.018c0 .047-.035.091-.098.124s-.148.052-.237.052z"/><path d="M203.05 146.1c-.036 0-.071-.01-.101-.029s-.053-.046-.067-.077-.018-.067-.012-.1.023-.065.048-.09l7.675-7.707c.033-.033.079-.053.128-.054s.095.016.13.048.056.076.057.123a.17.17 0 0 1-.051.125l-7.675 7.707c-.017.017-.037.03-.06.04s-.047.014-.072.014zm.3-12.76c-.048 0-.094-.018-.13-.05l-6.986-6.332c-.037-.035-.06-.082-.062-.133a.19.19 0 0 1 .05-.137c.034-.037.083-.06.134-.062s.101.016.138.05l6.986 6.332a.19.19 0 0 1 .058.098c.008.037.006.076-.008.112s-.039.067-.071.089a.2.2 0 0 1-.109.033z"/></g><path d="M189.36 176.23l.104.079h28.999c.568-2.416.769-4.835-.08-6.935-1.209-2.993-4.788-4.862-7.634-3.576-.674.313-1.261.8-1.706 1.417-1.112-2.089-3.107-3.664-5.409-3.662-2.885.002-5.283 2.477-6.065 5.337-1.261-2.233-3.75-3.793-6.183-3.122-4.07 1.123-5.355 7.762-2.026 10.462z" fill="#d5d2dc"/><path d="M96.424 97.172c14.356 0 25.995-11.661 25.995-26.046S110.78 45.08 96.424 45.08 70.43 56.741 70.43 71.126s11.638 26.046 25.994 26.046z" fill="#f5f4f8"/><path d="M165.52 58.103c-2.338-.073-4.42-2.193-4.436-4.518s2.033-4.474 4.37-4.581c5.203-.237 9.463-5.787 8.318-10.839s-7.388-8.249-12.19-6.244c-3.684 1.538-7.406-3.308-6.473-7.17s4.467-6.455 7.736-8.739 6.766-4.965 7.555-8.859-3.25-8.558-6.809-6.753" fill="#d5d2dc"/><path d="M178.02 176.31H75.82c-.634-.001-1.241-.252-1.689-.697a2.37 2.37 0 0 1-.701-1.679v-69.38c.001-.629.253-1.233.701-1.679a2.4 2.4 0 0 1 1.689-.696h102.2c.634 0 1.241.251 1.689.696s.7 1.05.701 1.679v69.38a2.37 2.37 0 0 1-.701 1.679 2.4 2.4 0 0 1-1.689.697z" fill="#fff"/><path d="M178.02 176.31H75.82c-.634-.001-1.241-.252-1.689-.697a2.37 2.37 0 0 1-.701-1.679v-69.38c.001-.629.253-1.233.701-1.679a2.4 2.4 0 0 1 1.689-.696h102.2c.634 0 1.241.251 1.689.696s.7 1.05.701 1.679v69.38a2.37 2.37 0 0 1-.701 1.679 2.4 2.4 0 0 1-1.689.697zm-102.2-73.603c-.493 0-.965.195-1.314.541s-.544.817-.545 1.306v69.38c.001.49.197.959.545 1.306a1.87 1.87 0 0 0 1.314.542h102.2a1.87 1.87 0 0 0 1.314-.542 1.85 1.85 0 0 0 .545-1.306v-69.38a1.85 1.85 0 0 0-.545-1.306c-.349-.346-.821-.541-1.314-.541H75.82z" fill="#454056"/><path d="M138.42 176.31h-22.995v-39.539c.001-.937.36-1.836.998-2.499s1.505-1.037 2.407-1.038h16.184c.903.001 1.769.374 2.407 1.037s.998 1.563.999 2.5v39.539zm-33-31.05H85.438c-.797-.001-1.561-.326-2.125-.904a3.12 3.12 0 0 1-.882-2.177v-16.88c.001-.816.318-1.599.882-2.177s1.328-.902 2.125-.903h19.982c.797.001 1.561.326 2.125.903a3.12 3.12 0 0 1 .881 2.177v16.88c-.001.817-.318 1.6-.881 2.177s-1.328.903-2.125.904z" fill="#d5d2dc"/><path d="M169.4 145.26h-19.982a2.97 2.97 0 0 1-2.124-.904 3.12 3.12 0 0 1-.882-2.177v-16.88c.001-.816.318-1.599.882-2.177s1.327-.902 2.124-.903H169.4c.797.001 1.561.326 2.125.903s.881 1.361.882 2.177v16.88a3.12 3.12 0 0 1-.882 2.177c-.564.578-1.328.903-2.125.904z" fill="#fdbc31"/><path d="M172.41 87.154h-13.997V64.506c.001-.635.262-1.245.726-1.694a2.52 2.52 0 0 1 1.75-.703h9.046a2.52 2.52 0 0 1 1.749.703c.464.449.725 1.059.726 1.694v22.648zm-13.447-.533h12.897V64.506a1.84 1.84 0 0 0-.565-1.318c-.36-.349-.85-.546-1.36-.547h-9.046a1.96 1.96 0 0 0-1.361.547 1.84 1.84 0 0 0-.565 1.318v22.115z" fill="#454056"/><path d="M65.43 103.52V92.802a4.67 4.67 0 0 1 2.352-4.055l59.528-34.036c.738-.422 1.579-.635 2.43-.614a4.67 4.67 0 0 1 2.397.731l53.108 33.887c.662.422 1.207 1.004 1.584 1.692s.575 1.46.575 2.246v10.868a4.67 4.67 0 0 1-1.368 3.302c-.875.876-2.063 1.368-3.301 1.368H70.095c-1.238 0-2.426-.492-3.301-1.368a4.67 4.67 0 0 1-1.368-3.302z" fill="#f9f8fa"/><path d="M66.13 92.803v10.718a3.97 3.97 0 0 0 1.162 2.807c.744.745 1.754 1.163 2.806 1.163h112.64c1.052 0 2.062-.418 2.806-1.163a3.97 3.97 0 0 0 1.163-2.807V92.653a3.97 3.97 0 0 0-.489-1.909c-.321-.585-.784-1.08-1.346-1.439l-53.109-33.887a3.96 3.96 0 0 0-2.037-.622c-.724-.018-1.438.163-2.066.522L68.133 89.355a3.97 3.97 0 0 0-2 3.447zm-.7 0v10.718a4.67 4.67 0 0 0 1.368 3.302c.876.876 2.063 1.368 3.301 1.368h112.64c1.238 0 2.426-.492 3.301-1.368a4.67 4.67 0 0 0 1.368-3.302V92.653c0-.785-.198-1.557-.575-2.246s-.922-1.27-1.584-1.692l-53.108-33.887a4.67 4.67 0 0 0-2.397-.731c-.851-.021-1.692.192-2.43.614L67.786 88.747a4.67 4.67 0 0 0-2.352 4.055z" fill="#454056" fill-rule="evenodd"/><path d="M182.74 103.9H70.1a4.64 4.64 0 0 1-3.301-1.384c-.876-.886-1.368-2.088-1.368-3.341v4.29c0 1.254.492 2.455 1.368 3.342a4.64 4.64 0 0 0 3.301 1.384h112.64a4.64 4.64 0 0 0 3.301-1.384c.876-.887 1.368-2.088 1.368-3.342v-4.29c0 1.253-.492 2.455-1.368 3.341a4.64 4.64 0 0 1-3.301 1.384z" fill="#1f1b2d" opacity=".2"/><path d="M225 176.04l-225 .426.001.53 225-.426-.001-.53z" fill="#454056"/><path d="m32.602 102.63 20.363 21.346 23.04-21.346" stroke="#666276" stroke-miterlimit="10"/><path d="M19.746 91.816H8.886c-.774 0-1.401.629-1.401 1.404v82.31c0 .775.627 1.404 1.401 1.404h10.86c.774 0 1.401-.629 1.401-1.404V93.22c0-.775-.627-1.404-1.401-1.404z" fill="#bbb7c5"/><path d="M19.374 93.436H9.256a.7.7 0 0 0-.701.702v79.119a.7.7 0 0 0 .701.702h10.118a.7.7 0 0 0 .701-.702V94.138a.7.7 0 0 0-.701-.702z" fill="#efecf3"/><path d="M84.581 95.333H5.401c-.774 0-1.401.629-1.401 1.404v12.054c0 .775.627 1.404 1.401 1.404h79.18c.774 0 1.401-.629 1.401-1.404V96.737c0-.775-.627-1.404-1.401-1.404z" fill="#bbb7c5"/><path d="M5.074 97.65v10.214a.7.7 0 0 0 .701.702h78.438a.7.7 0 0 0 .701-.702V97.65a.7.7 0 0 0-.701-.702H5.775a.7.7 0 0 0-.701.702z" fill="#efecf3"/><path d="M14.45 105.06c1.332 0 2.411-1.089 2.411-2.432s-1.08-2.432-2.411-2.432-2.411 1.089-2.411 2.432 1.079 2.432 2.411 2.432z" fill="#bbb7c5"/><path d="M14.449 104.52c1.036 0 1.875-.847 1.875-1.891s-.839-1.892-1.875-1.892-1.875.847-1.875 1.892.839 1.891 1.875 1.891zm64.567 0c1.036 0 1.875-.847 1.875-1.891s-.84-1.892-1.875-1.892-1.875.847-1.875 1.892.84 1.891 1.875 1.891z" fill="#666276"/><path d="M76.122 123.03H25.961a2 2 0 0 0-2 2v32.225a2 2 0 0 0 2 2h50.161a2 2 0 0 0 2-2V125.03a2 2 0 0 0-2-2z" fill="#1f1b2d"/><path d="M69.585 128.32H32.641a1 1 0 0 0-1 1v.518a1 1 0 0 0 1 1h36.944a1 1 0 0 0 1-1v-.518a1 1 0 0 0-1-1zm-5.027 7.55H40.176a1 1 0 0 0-1 1v.518a1 1 0 0 0 1 1h24.382a1 1 0 0 0 1-1v-.518a1 1 0 0 0-1-1zm2.515 7.56H36.41a1 1 0 0 0-1 1v.517a1 1 0 0 0 1 1h30.663a1 1 0 0 0 1-1v-.517a1 1 0 0 0-1-1zm2.512 7.55H32.641a1 1 0 0 0-1 1v.518a1 1 0 0 0 1 1h36.944a1 1 0 0 0 1-1v-.518a1 1 0 0 0-1-1z" fill="#fff"/><defs /></svg>