<svg xmlns="http://www.w3.org/2000/svg" xmlns:xlink="http://www.w3.org/1999/xlink" width="432" height="320" fill="none" xmlns:v="https://vecta.io/nano"><style><![CDATA[.B{fill:#fff}.C{fill:#454056}.D{fill:#1f1b2d}.E{fill:#d5d2dc}.F{fill:#fd5631}.G{fill:#eda79e}.H{fill:#666276}]]></style><path d="M215.999 293.684c-113.343 0-205.226-10.213-205.226-22.811s91.883-22.811 205.226-22.811 205.226 10.213 205.226 22.811-91.883 22.811-205.226 22.811z" fill="#efecf3"/><path d="M405.421 229.982l-47.356-.208-47.356-.078-94.711-.139-94.712.139-47.356.078-47.356.208 47.356.217 47.356.079 94.712.139 94.711-.139 47.356-.079 47.356-.217z" class="D"/><path d="M73.082 50.093h287.28V243.15H73.082V50.093z" class="E"/><path d="M75.172 52.445h283.099v188.343H75.172V52.445z" class="H"/><g class="E"><path d="M35.671 257.619h362.111v13.246H35.671v-13.246z"/><path d="M397.782 257.619l-37.42-14.47H73.082l-37.411 14.47h362.111z"/></g><path d="M357.019 252.489l-24.141-9.34H100.566l-24.14 9.34h280.593z" class="H"/><path d="M91.174 66.759h251.105v159.726H91.174V66.759z" class="B"/><path d="M91.166 66.759h251.32v6.145H91.166v-6.145z" fill="#bbb7c5"/><path d="M337.622 69.831c0 .302.089.597.256.849s.405.447.682.563.584.146.879.087a1.52 1.52 0 0 0 .779-.418c.212-.214.357-.486.416-.782a1.53 1.53 0 0 0-.087-.883c-.115-.279-.31-.518-.56-.686s-.544-.257-.845-.257c-.2-.001-.398.038-.583.114s-.353.189-.494.331a1.51 1.51 0 0 0-.33.497 1.53 1.53 0 0 0-.113.586z" class="E"/><path d="M332.948 71.359c-.84 0-1.521-.684-1.521-1.528s.681-1.528 1.521-1.528 1.52.684 1.52 1.528-.681 1.528-1.52 1.528z" class="B"/><path d="M325.232 69.831c0 .302.089.597.256.849s.405.447.683.563a1.51 1.51 0 0 0 .878.087 1.52 1.52 0 0 0 .779-.418c.213-.214.358-.486.416-.782a1.53 1.53 0 0 0-.086-.883c-.115-.279-.31-.518-.56-.686s-.544-.257-.845-.257c-.2-.001-.398.038-.583.114a1.51 1.51 0 0 0-.495.331c-.141.142-.253.311-.329.497a1.53 1.53 0 0 0-.114.586z" class="F"/><path d="M286.319 53.435c9.15 12.152 9.729 30.145 9.729 30.145s7.724 19.096 3.516 28.27c-1.138 2.613-2.89 4.91-5.105 6.693a17.53 17.53 0 0 1-7.613 3.55l1.728-5.156s-4.389 6.319-16.226 7.438-26.473-4.591-33.782-9.721a30.57 30.57 0 0 1-10.126-11.874l1.866 8.124s-11.059-1.979-15.975-14.755 16.416-27.177 18.576-30.622 7.957-29.945 35.354-21.318c.018-.035 11.759.851 18.058 9.227z" class="D"/><path d="M290.983 121.98c3.387-1.051 6.471-3.915 8.519-6.744 2.202-2.972 3.349-6.6 3.257-10.303-.164-4.444-1.901-8.593-3.586-12.638-1.728-4.184-3.793-8.254-5.46-12.455-.086-.234.259-.365.389-.174 2.079 3.294 3.969 6.705 5.659 10.216 1.78 3.243 3.178 6.683 4.164 10.251a17.95 17.95 0 0 1-.103 10.042 17.17 17.17 0 0 1-4.554 6.944c-2.427 2.292-5.296 3.576-8.173 5.156-.019.007-.04.011-.06.01s-.041-.005-.06-.013-.036-.021-.05-.036-.026-.033-.033-.052a.16.16 0 0 1-.01-.061c0-.021.005-.041.013-.06s.021-.036.036-.05.032-.026.052-.033z" class="C"/><g class="D"><path d="M213.707 83.563c4.76-9.383 14.472-14.382 21.056-22.212 3.568-4.244 6.549-9.079 10.903-12.586.121-.087.277.113.164.208-3.62 3.203-6.048 7.317-8.873 11.171a72.04 72.04 0 0 1-9.988 10.416c-6.506 5.902-14.282 12.872-14.334 22.429 0 4.418 1.849 9.548 6.048 11.553.156.069 0 .338-.138.243a13.97 13.97 0 0 1-4.214-3.751 14.06 14.06 0 0 1-2.395-5.12 17.9 17.9 0 0 1 1.771-12.351z"/><path d="M212.922 86.158c.231-3.778 1.619-7.392 3.974-10.346 2.385-2.908 5.755-4.765 9.081-6.371 3.845-1.849 7.854-3.541 10.61-6.944.112-.148.311.052.199.191-4.398 5.625-11.526 7.525-16.805 12.03-6.048 5.156-7.258 13.74-4.631 20.996a30.16 30.16 0 0 0 7.923 11.579c.06.052 0 .148-.087.087-6.013-5.312-10.903-12.855-10.264-21.222z"/></g><g class="G"><path d="M260.923 128.689c-9.098 9.6-55.849 55.013-76.257 50.777-24.736-5.13-53.464-20.25-64.679-30.996-6.29-6.015 24.028-36.455 30.353-31.759 9.961 7.413 33.963 19.738 38.188 21.474s39.969-16.778 60.809-24.017c18.766-6.562 17.988 7.76 11.586 14.521z"/><path d="M102.89 134.817c5.486 7.352 22.568 17.967 27.648 18.939s24.036-27.601 22.334-32.679-22.092-28.374-31.104-30.709-24.572 36.837-18.878 44.449z"/><path d="M150.118 116.485s-3.24-11.5-2.592-22.003c.57-8.836 2.41-21.891-2.307-22.377-9.686-.998-14.265 31.56-14.265 31.56s.285 14.695 9.789 16.492c5.988 1.206 9.375-3.672 9.375-3.672z"/><path d="M134.944 96.765c.484 4.843-5.477 2.647-5.477 2.647s7.776 5.208 6.393 10.416c-1.382 4.991-8.484 2.074-9.003 1.875.415.286 7.474 5.294 5.504 10.355-2.048 5.26-8.64 1.111-9.107.868.312.382 4.26 5.581 1.893 9.087-4.061 6.024-14.533-6.943-20.382-7.36l-1.875 10.173s-10.213-12.152-9.271-20.077c.121-1.152.629-2.228 1.441-3.05a5.05 5.05 0 0 1 3.026-1.472s-3.724-3.559-2.307-7.595c.734-2.074 4.692-2.734 4.692-2.734s-2.869-2.969-1.383-6.484c1.184-2.804 4.96-3.029 4.96-3.029s-1.426-4.14.7-6.614c4.294-5.008 29.168 2.621 30.196 12.994z"/></g><g class="C"><path d="M104.644 90.246a.07.07 0 0 1-.049-.02c-.013-.013-.02-.031-.02-.049s.007-.036.02-.049.031-.02.049-.02c8.787.504 18.291 3.767 25.151 9.383.225.191 0 .634-.259.477-8.165-4.435-15.777-7.708-24.892-9.721zm-4.285 9.557c-.095 0-.061-.182 0-.182 9.054.572 19.647 4.539 26.784 11.952.242.251.207.729-.095.46-5.063-4.566-18.473-10.459-26.689-12.23zm23.189 23.8c-7.128-6.84-15.724-10.702-25.116-13.384-.121 0-.06-.209.052-.209 4.95.061 10.765 2.396 15.128 4.601a26.15 26.15 0 0 1 10.178 8.74c.13.148-.06.399-.242.252z"/><path d="M129.596 99.369c.268.217-.354.373-.086.599 1.106.972 7.258 7.369 5.746 10.147-1.227 2.23-5.055 2.126-6.506 1.51l-3.664-1.554 2.903 2.734c1.295 1.208 2.386 2.618 3.232 4.175a5.85 5.85 0 0 1 .826 2.301c.11.817.046 1.648-.187 2.439-.225.727-.69 1.355-1.318 1.781s-1.383.624-2.138.562a10 10 0 0 1-4.709-1.788l-3.931-2.604 2.877 3.759c.798 1.036 1.46 2.171 1.97 3.376a6.33 6.33 0 0 1 .536 3.611c-.102.55-.355 1.06-.731 1.472a2.98 2.98 0 0 1-1.395.863 6.65 6.65 0 0 1-3.663-.582 52.79 52.79 0 0 1-7.137-3.975c-1.175-.721-2.358-1.441-3.577-2.109-1.179-.741-2.501-1.224-3.879-1.415 1.33.334 2.582.924 3.689 1.736 1.149.746 2.264 1.553 3.379 2.369a45.19 45.19 0 0 0 7.084 4.436 7.7 7.7 0 0 0 4.364.868 4.26 4.26 0 0 0 2.134-1.171c.583-.591.982-1.339 1.149-2.154.262-1.52.069-3.085-.553-4.496-.547-1.353-1.267-2.628-2.143-3.793l-1.071 1.137c1.63 1.195 3.541 1.943 5.547 2.17a4.85 4.85 0 0 0 3.145-.868 5.49 5.49 0 0 0 1.9-2.604c.296-1 .377-2.051.239-3.085s-.494-2.027-1.042-2.913c-.95-1.702-2.176-3.234-3.629-4.53l-.76 1.18c1.875.729 6.143 1.311 8.467-1.91 2.436-4.678-5.512-10.684-7.068-11.674z"/><path d="M129.468 99.412c.988.152 1.993.152 2.981 0a2.24 2.24 0 0 0 1.09-.448c.318-.244.565-.569.715-.941.213-.861.174-1.765-.112-2.604-.268-.946-.605-1.918-.985-2.916.828.698 1.501 1.561 1.979 2.535a4.61 4.61 0 0 1 .388 3.472c-.242.615-.668 1.139-1.218 1.502a3.33 3.33 0 0 1-1.728.477c-1.125-.014-2.215-.391-3.11-1.076z"/></g><g class="F"><path d="M157.591 119.879l-35.122 39.875s52.134 25.64 69.12 21.7 52.056-30.501 67.392-49.475 6.048-24.252-15.318-17.152-51.573 20.962-54.64 20.832-31.432-15.78-31.432-15.78z"/><path d="M122.467 159.755s52.134 25.631 69.12 21.699c10.575-2.439 28.149-13.662 43.615-26.378.065-.039.126-.086.181-.139 9.314-7.673 17.851-15.866 23.605-22.993 4.985-6.154 7.361-10.867 7.586-14.182.055-.62.012-1.244-.13-1.849-1.192-5.208-9.737-5.434-22.775-1.103-21.393 7.092-51.572 20.954-54.648 20.832s-31.424-15.763-31.424-15.763l-35.13 39.876z"/></g><g class="B"><path d="M217.448 155.805c-.656-.227-1.362-.266-2.039-.113-.37.139-.689.387-.917.71s-.354.708-.362 1.104a1.55 1.55 0 0 1-.177.756 1.53 1.53 0 0 1-.523.572c-.242.161-.522.254-.812.269l-.976.183c.661.235 1.379.262 2.056.078a1.99 1.99 0 0 0 .877-.738c.214-.327.326-.711.324-1.102.007-.262.08-.517.212-.743s.317-.415.54-.551c.261-.156.559-.239.864-.243l.933-.182zm45.923-36.716a3.53 3.53 0 0 0 2.047.087c.29-.118.546-.306.746-.546a1.92 1.92 0 0 0 .403-.834c.056-.619.012-1.243-.129-1.849a2 2 0 0 0-.579 1.363c.004.264-.059.524-.183.756s-.305.429-.526.572a1.67 1.67 0 0 1-.803.269l-.976.182zm-95.309 22.976c-.661-.22-1.369-.256-2.048-.104-.37.137-.69.384-.916.708a1.96 1.96 0 0 0-.354 1.106 1.58 1.58 0 0 1-.186.755c-.123.232-.303.429-.523.573a1.61 1.61 0 0 1-.812.26l-.968.191a3.44 3.44 0 0 0 2.048.078c.361-.154.668-.412.883-.741s.329-.714.327-1.108a1.52 1.52 0 0 1 .204-.739c.13-.225.316-.413.539-.545a1.63 1.63 0 0 1 .864-.243l.942-.191zm-34.145 14.495c-.658-.219-1.363-.255-2.04-.104a1.96 1.96 0 0 0-.917.704c-.228.322-.354.706-.361 1.102.006.264-.055.525-.178.759a1.54 1.54 0 0 1-.522.577c-.243.159-.523.249-.812.261l-.977.191a3.58 3.58 0 0 0 2.057.078 1.99 1.99 0 0 0 .879-.742c.214-.329.326-.714.322-1.107.007-.262.08-.517.211-.743s.317-.415.54-.55a1.73 1.73 0 0 1 .864-.235c.251-.069.579-.104.934-.191zm66.415 9.4c-.661-.219-1.368-.255-2.048-.104-.376.138-.702.388-.934.717a1.98 1.98 0 0 0-.362 1.123 1.55 1.55 0 0 1-.178.755c-.123.233-.302.43-.521.573-.243.158-.524.248-.813.261l-.976.191a3.5 3.5 0 0 0 2.056.078c.36-.155.666-.413.88-.742a1.99 1.99 0 0 0 .321-1.107c.008-.261.08-.515.212-.74a1.54 1.54 0 0 1 .54-.545 1.64 1.64 0 0 1 .864-.243l.959-.217zm37.462-47.687c-.661-.219-1.368-.255-2.048-.104-.368.139-.686.387-.913.711a1.98 1.98 0 0 0-.357 1.103c.002.263-.061.523-.185.755s-.304.429-.523.573a1.62 1.62 0 0 1-.812.269l-.977.182a3.44 3.44 0 0 0 2.057.079 1.99 1.99 0 0 0 .877-.738c.213-.328.326-.711.324-1.103.005-.261.077-.518.209-.744a1.54 1.54 0 0 1 .542-.549 1.72 1.72 0 0 1 .864-.243l.942-.191zm-80.946 45.812c.306.627.778 1.156 1.366 1.528.358.165.757.217 1.146.151a1.96 1.96 0 0 0 1.031-.524c.183-.189.41-.328.661-.406a1.56 1.56 0 0 1 .773-.037c.283.061.546.195.76.391l.821.555c-.371-.529-.648-1.18-1.399-1.51a1.97 1.97 0 0 0-1.144-.102c-.383.08-.734.273-1.008.553-.187.181-.417.311-.668.378a1.52 1.52 0 0 1-.766.004c-.282-.073-.54-.216-.752-.416-.276-.191-.535-.426-.821-.565zm41.056-16.352a3.72 3.72 0 0 0 1.374 1.528 1.94 1.94 0 0 0 1.142.149 1.96 1.96 0 0 0 1.027-.523c.183-.188.41-.328.66-.405a1.56 1.56 0 0 1 .774-.037c.283.06.545.195.76.39l.821.556c-.372-.53-.648-1.181-1.391-1.511a1.98 1.98 0 0 0-1.144-.102c-.383.081-.733.273-1.007.554a1.56 1.56 0 0 1-.673.376c-.252.067-.517.069-.77.006-.282-.073-.54-.217-.752-.417-.277-.156-.527-.356-.821-.564zm-19.967 8.957c.308.625.78 1.154 1.365 1.528.359.165.759.217 1.148.148a1.95 1.95 0 0 0 1.03-.53 1.53 1.53 0 0 1 .661-.404c.251-.076.517-.086.773-.03a1.56 1.56 0 0 1 .76.391c.277.182.527.39.864.555-.371-.529-.648-1.18-1.4-1.51-.362-.146-.759-.181-1.141-.103a1.99 1.99 0 0 0-1.01.546 1.5 1.5 0 0 1-1.434.382 1.73 1.73 0 0 1-.76-.417l-.856-.556zm-25.825-29.485a3.84 3.84 0 0 0 1.374 1.528c.358.164.757.217 1.146.15a1.95 1.95 0 0 0 1.031-.524c.183-.189.41-.329.661-.406s.517-.09.773-.036c.282.064.544.198.761.39.268.183.527.391.864.556-.38-.53-.648-1.181-1.4-1.51-.363-.147-.761-.183-1.144-.102a1.98 1.98 0 0 0-1.007.553 1.54 1.54 0 0 1-.669.376 1.53 1.53 0 0 1-.766.006 1.84 1.84 0 0 1-.812-.417l-.812-.564z"/><use xlink:href="#B"/><path d="M146.425 150.094c-.218.664-.254 1.374-.103 2.057a1.95 1.95 0 0 0 .706.919c.322.228.705.352 1.099.357a1.51 1.51 0 0 1 .754.182 1.52 1.52 0 0 1 .568.53c.159.239.249.519.26.807l.19.981a3.49 3.49 0 0 0 .077-2.058c-.153-.362-.409-.67-.737-.887s-.711-.33-1.103-.328a1.51 1.51 0 0 1-.737-.21 1.53 1.53 0 0 1-.542-.545c-.153-.248-.236-.533-.242-.824l-.19-.981zm29.267 21.586c-.219.664-.255 1.375-.104 2.057a1.95 1.95 0 0 0 .705.921 1.93 1.93 0 0 0 1.101.355 1.55 1.55 0 0 1 .751.187 1.57 1.57 0 0 1 .571.525c.157.244.247.526.259.816l.19.981a3.54 3.54 0 0 0 .078-2.066 1.99 1.99 0 0 0-.739-.884c-.327-.214-.711-.327-1.102-.323a1.53 1.53 0 0 1-.736-.212 1.54 1.54 0 0 1-.542-.543 1.64 1.64 0 0 1-.242-.868l-.19-.946zm5.112-36.472c-.218.663-.254 1.374-.103 2.057.136.371.382.692.705.92a1.94 1.94 0 0 0 1.1.356c.262-.003.521.061.752.186a1.56 1.56 0 0 1 .57.525c.158.244.247.526.259.816l.19.972a3.48 3.48 0 0 0 .078-2.057c-.153-.362-.41-.671-.737-.887s-.711-.33-1.103-.328a1.51 1.51 0 0 1-.736-.205 1.52 1.52 0 0 1-.543-.541 1.66 1.66 0 0 1-.242-.868l-.19-.946zm33.784-2.916c-.223.663-.258 1.374-.104 2.057.136.37.381.69.702.918a1.94 1.94 0 0 0 1.095.358c.263-.003.523.062.755.186a1.58 1.58 0 0 1 .576.525c.157.244.247.526.259.816l.19.972a3.58 3.58 0 0 0 .078-2.057c-.154-.361-.411-.669-.738-.885a1.99 1.99 0 0 0-1.102-.33c-.261-.003-.516-.074-.741-.204s-.414-.318-.547-.542c-.152-.264-.233-.564-.233-.868-.069-.261-.104-.617-.19-.946zm20.607 22.819a1.06 1.06 0 0 0 .181-.139c0-.113-.043-.226-.078-.347-.026.173-.069.329-.103.486z"/><use xlink:href="#C"/></g><g class="C"><path d="M133.052 164.441c1.806-2.647 4.156-4.999 6.212-7.456l6.558-7.429c4.32-4.774 8.761-9.409 13.228-14.027 2.592-2.691 5.296-5.269 7.932-7.933.095-.096.259.06.172.165l-12.813 14.851c-4.363 4.878-8.64 9.547-13.124 14.13-1.279 1.32-2.592 2.604-3.905 3.889a50.6 50.6 0 0 1-4.078 3.984c-.095.087-.251-.061-.182-.174z"/><path opacity=".1" d="M172.875 179.536c7.586 1.996 14.317 2.96 18.706 1.953 10.575-2.439 28.149-13.662 43.615-26.378.065-.039.126-.086.181-.139 9.314-7.673 17.85-15.867 23.604-22.993 4.986-6.154 7.362-10.867 7.586-14.183.056-.619.012-1.243-.129-1.849-.553-2.395-2.679-3.741-6.048-4.062l-87.515 67.651z"/></g><path d="M226.173 179.909l-8.182 46.576h98.012c-2.791-45.535-29.091-95.339-40.686-109.531-5.806-7.109-17.28-8.628-25.98-2.829-2.065 1.371-26.11 37.01-28.08 42.21-3.923 10.25 4.916 23.574 4.916 23.574z" class="F"/><g class="B"><path d="M258.679 145.129a3.83 3.83 0 0 0-2.047-.104 1.97 1.97 0 0 0-.912.711c-.227.323-.351.707-.359 1.103.005.41-.15.807-.433 1.104s-.67.47-1.079.484l-.976.191c.662.235 1.379.262 2.056.078a1.98 1.98 0 0 0 .878-.738c.213-.327.326-.711.323-1.102.006-.262.078-.518.21-.744a1.55 1.55 0 0 1 .542-.549 1.72 1.72 0 0 1 .864-.243c.285-.087.588-.131.933-.191zm-6.394 40.795c-.661-.219-1.368-.255-2.048-.104-.368.139-.686.387-.913.71a1.98 1.98 0 0 0-.357 1.104c.003.263-.061.523-.185.755s-.304.429-.523.573a1.61 1.61 0 0 1-.812.26l-.968.191c.659.234 1.373.261 2.048.078a1.96 1.96 0 0 0 .882-.739c.214-.33.325-.716.319-1.109.007-.261.08-.515.211-.74a1.55 1.55 0 0 1 .54-.545 1.64 1.64 0 0 1 .864-.243c.32-.026.64-.069.942-.191zm24.046-27.202c-.66-.227-1.368-.266-2.048-.113a1.97 1.97 0 0 0-.912.711 1.99 1.99 0 0 0-.358 1.103c.004.263-.058.524-.182.756a1.54 1.54 0 0 1-.527.572c-.238.162-.516.255-.803.269l-.977.182c.659.234 1.373.261 2.048.078a1.97 1.97 0 0 0 .882-.736 1.99 1.99 0 0 0 .328-1.104 1.55 1.55 0 0 1 .208-.745 1.54 1.54 0 0 1 .543-.548c.249-.149.532-.233.821-.243l.977-.182zm13.019 41.836a3.8 3.8 0 0 0-2.039-.104 1.94 1.94 0 0 0-.918.707c-.227.324-.35.71-.352 1.107a1.59 1.59 0 0 1-.185.755 1.57 1.57 0 0 1-.524.573 1.61 1.61 0 0 1-.812.26l-.976.191a3.49 3.49 0 0 0 2.056.078 1.98 1.98 0 0 0 .88-.741c.214-.329.325-.715.321-1.107.008-.261.08-.515.212-.74a1.54 1.54 0 0 1 .54-.545 1.64 1.64 0 0 1 .864-.243c.285-.07.613-.07.933-.191zm-58.604 20.32c-.661-.22-1.369-.256-2.048-.104a1.95 1.95 0 0 0-.913.71c-.227.324-.351.708-.357 1.104a1.58 1.58 0 0 1-.186.755c-.123.232-.303.429-.523.573a1.61 1.61 0 0 1-.812.26l-.976.191a3.49 3.49 0 0 0 2.056.078 1.98 1.98 0 0 0 .88-.741c.213-.329.325-.715.321-1.108a1.54 1.54 0 0 1 .212-.739c.131-.225.317-.412.54-.545a1.63 1.63 0 0 1 .864-.243l.942-.191zm80.092-14.869a3.49 3.49 0 0 0 2.056.078c.143-.054.277-.13.398-.225l-.165-.868a1.5 1.5 0 0 1-.501.546 1.6 1.6 0 0 1-.812.261c-.328.087-.648.087-.976.208zm-41.662-90.391c-.659-.227-1.368-.266-2.047-.113a1.97 1.97 0 0 0-.912.711 1.99 1.99 0 0 0-.359 1.103 1.53 1.53 0 0 1-.177.756c-.122.232-.302.429-.522.572a1.62 1.62 0 0 1-.813.269l-.976.182c.659.234 1.373.261 2.048.078.36-.151.668-.407.883-.735a1.98 1.98 0 0 0 .326-1.105 1.55 1.55 0 0 1 .209-.745c.131-.226.318-.415.543-.548a1.72 1.72 0 0 1 .864-.243l.933-.182zm-34.837 59.022a3.82 3.82 0 0 0 1.365 1.528c.359.165.759.216 1.148.148a1.95 1.95 0 0 0 1.03-.53c.182-.189.41-.328.661-.404s.517-.087.773-.03c.284.057.548.192.76.39l.821.556c-.372-.53-.648-1.18-1.4-1.51a1.98 1.98 0 0 0-1.141-.103c-.383.079-.734.268-1.01.545-.186.183-.416.314-.667.381a1.49 1.49 0 0 1-.767.001c-.283-.069-.543-.213-.752-.416-.276-.217-.536-.426-.821-.556zm62.996-13.072c.313.624.788 1.152 1.374 1.528a1.89 1.89 0 0 0 .777.166 1.9 1.9 0 0 0 .778-.166l-.285-.703a1.6 1.6 0 0 1-1.063.13 1.82 1.82 0 0 1-.76-.425l-.821-.53zm-.001 28.097a3.78 3.78 0 0 0 1.374 1.528 1.94 1.94 0 0 0 1.142.149c.387-.066.744-.249 1.027-.523.183-.188.41-.328.661-.405a1.56 1.56 0 0 1 .773-.037c.283.06.546.195.76.39l.821.556c-.371-.53-.648-1.181-1.391-1.51-.363-.147-.761-.183-1.144-.102s-.733.272-1.007.553a1.56 1.56 0 0 1-.673.376c-.252.067-.517.069-.77.006a1.73 1.73 0 0 1-.752-.425l-.821-.556zm-27.172 28.374a3.84 3.84 0 0 0 1.374 1.528c.359.165.759.216 1.147.148a1.95 1.95 0 0 0 1.03-.53 1.54 1.54 0 0 1 .661-.404c.251-.076.517-.087.773-.03.284.059.547.194.761.39l.821.556c-.381-.53-.648-1.181-1.4-1.51-.363-.146-.76-.182-1.142-.103a2 2 0 0 0-1.01.545 1.51 1.51 0 0 1-.667.38 1.5 1.5 0 0 1-.767.002 1.73 1.73 0 0 1-.76-.416l-.821-.556zm-2.041-34.432c.314.623.788 1.151 1.374 1.527.358.163.756.214 1.143.146a1.95 1.95 0 0 0 1.026-.528 1.6 1.6 0 0 1 1.087-.464c.408-.01.804.138 1.107.412l.821.564c-.371-.529-.639-1.18-1.391-1.51-.361-.15-.76-.188-1.143-.109a1.96 1.96 0 0 0-1.008.552 1.56 1.56 0 0 1-.673.376c-.252.067-.517.069-.77.006-.282-.073-.54-.217-.752-.417-.242-.191-.527-.391-.821-.555zm-23.032 28.617a3.97 3.97 0 0 0 1.373 1.527c.359.165.759.217 1.148.149a1.95 1.95 0 0 0 1.03-.531c.182-.189.41-.328.661-.404s.517-.086.773-.03c.285.057.548.192.76.391.277.182.527.382.864.555-.371-.529-.648-1.18-1.399-1.51a1.99 1.99 0 0 0-1.142-.102c-.383.078-.734.268-1.01.545a1.5 1.5 0 0 1-1.434.382 1.72 1.72 0 0 1-.76-.417l-.864-.555z"/><use xlink:href="#B"/><path d="M231.547 197.989c-.225.662-.264 1.374-.112 2.057.14.369.386.688.708.916a1.96 1.96 0 0 0 1.098.36c.262-.003.521.061.752.185a1.56 1.56 0 0 1 .57.527c.16.243.252.524.267.815l.182.973a3.5 3.5 0 0 0 .078-2.058c-.151-.362-.406-.671-.732-.887a1.96 1.96 0 0 0-1.1-.328 1.51 1.51 0 0 1-.741-.204c-.225-.131-.413-.317-.546-.542-.156-.263-.239-.562-.242-.868-.026-.295-.061-.616-.182-.946zm3.752-43.364c-.222.663-.258 1.374-.103 2.057a1.96 1.96 0 0 0 .702.916 1.95 1.95 0 0 0 1.095.36 1.55 1.55 0 0 1 .756.184 1.56 1.56 0 0 1 .574.527c.159.244.249.526.259.816l.19.972a3.58 3.58 0 0 0 .078-2.057c-.153-.362-.41-.671-.737-.887s-.711-.33-1.103-.328a1.53 1.53 0 0 1-.742-.209c-.225-.132-.413-.32-.545-.546-.146-.251-.226-.535-.234-.825l-.19-.98zm19.699 11.136c-.221.663-.26 1.374-.112 2.057.139.369.386.688.708.916a1.96 1.96 0 0 0 1.098.36c.409.002.802.161 1.098.445a1.61 1.61 0 0 1 .491 1.082l.19.973a3.48 3.48 0 0 0 .069-2.058 1.97 1.97 0 0 0-.731-.887 1.96 1.96 0 0 0-1.1-.328 1.51 1.51 0 0 1-.741-.204c-.225-.131-.414-.317-.547-.542a1.89 1.89 0 0 1-.241-.868l-.182-.946zm43.881 47.313c-.218.664-.254 1.375-.103 2.057.137.371.383.692.706.919s.705.352 1.099.357c.263-.004.522.06.753.184a1.55 1.55 0 0 1 .569.528c.158.24.248.519.259.807l.191.981c.226-.663.253-1.379.077-2.057-.153-.362-.41-.671-.737-.887s-.711-.331-1.103-.328a1.52 1.52 0 0 1-.742-.21 1.53 1.53 0 0 1-.545-.545c-.146-.251-.226-.535-.234-.825l-.19-.981z"/><use xlink:href="#D"/><path d="M284.72 173.399a3.91 3.91 0 0 0-.113 2.057c.14.37.387.689.709.916s.704.353 1.097.36c.409-.003.804.154 1.1.437a1.59 1.59 0 0 1 .49 1.082l.19.981a3.54 3.54 0 0 0 .069-2.066 1.97 1.97 0 0 0-.732-.884 1.96 1.96 0 0 0-1.099-.323c-.261-.007-.515-.08-.74-.212s-.413-.319-.548-.543c-.152-.263-.233-.563-.233-.868l-.19-.937zm-22.845 24.59c-.219.664-.255 1.374-.104 2.057.138.371.384.691.706.919s.706.352 1.1.357a1.56 1.56 0 0 1 .751.186c.231.124.427.305.571.526a1.63 1.63 0 0 1 .259.815l.19.973a3.5 3.5 0 0 0 .078-2.058 2 2 0 0 0-.738-.887c-.327-.216-.711-.33-1.103-.328a1.5 1.5 0 0 1-.736-.205 1.51 1.51 0 0 1-.542-.541 1.68 1.68 0 0 1-.242-.868l-.19-.946z"/><use xlink:href="#C"/><path d="M273.444 136.918a3.83 3.83 0 0 0-1.374-1.528 1.93 1.93 0 0 0-1.144-.149c-.387.068-.745.254-1.025.531a1.53 1.53 0 0 1-1.434.434 1.56 1.56 0 0 1-.76-.391l-.821-.555c.372.529.648 1.18 1.391 1.51.363.146.76.182 1.142.103a2 2 0 0 0 1.01-.545 1.52 1.52 0 0 1 .671-.38c.253-.067.518-.068.771-.002.283.069.543.213.752.416l.821.556z"/></g><path d="M280.208 121.407c13.029 10.806 59.84 50.829 57.024 65.038-2.834 14.391-13.677 26.039-22.015 17.967-6.912-6.623-37.429-55.776-42.967-68.918-5.279-12.516-4.847-24.711 7.958-14.087z" class="G"/><path d="M338.425 182.452c0 9.964-6.644 28.748-19.543 25.25-8.45-2.283-43.494-60.316-49.145-74.083-6.54-15.944-.864-22.211 11.232-12.811s57.439 47.418 57.456 61.644z" class="F"/><g class="B"><path d="M302.032 140.728a3.44 3.44 0 0 0 2.048.078c.103-.042.201-.094.294-.156-.17-.136-.331-.28-.484-.434l-.078.061c-.24.156-.518.246-.804.26l-.976.191z"/><use xlink:href="#E"/><path d="M313.559 203.362l.571.608a1.54 1.54 0 0 1 .252-.588 1.55 1.55 0 0 1 .465-.437c.262-.153.56-.234.864-.234l.976-.191c-.661-.219-1.368-.255-2.048-.104a1.83 1.83 0 0 0-.636.362c-.185.163-.336.361-.444.584z"/><use xlink:href="#F"/><path d="M282.765 123.429c-.219.661-.255 1.369-.104 2.049.134.371.378.693.699.921s.705.352 1.098.355a1.56 1.56 0 0 1 .756.185 1.58 1.58 0 0 1 .575.526c.157.244.247.526.259.816l.19.981c.226-.666.253-1.384.078-2.066-.154-.361-.411-.669-.738-.883s-.711-.327-1.103-.323c-.26-.008-.514-.081-.739-.213s-.413-.318-.548-.542a1.74 1.74 0 0 1-.233-.868l-.19-.938z"/><use xlink:href="#D"/><use xlink:href="#G"/><path d="M270.499 135.373l.32.685a1.52 1.52 0 0 1 1.054-.113c.283.07.542.214.751.417.277.182.527.391.864.556-.389-.539-.639-1.164-1.373-1.528-.252-.123-.527-.189-.806-.192s-.556.057-.81.175z"/></g><path d="M278.075 153.696l3.698 4.748.864 1.128-2.281-4.531c-1.136-2.18-2.154-4.42-3.05-6.709-.061-.148.164-.217.242-.096 1.166 1.84 2.099 3.802 3.205 5.677l3.223 5.676c2.125 3.793 4.32 7.569 6.558 11.284 4.501 7.43 9.296 14.695 14.256 21.83l4.225 5.963c1.46 1.953 2.834 4.071 4.32 6.032.052.07-.044.165-.104.096-1.4-1.736-2.843-3.359-4.268-5.035s-2.635-3.419-3.975-5.155c-2.669-3.472-5.184-7.014-7.655-10.616a261.71 261.71 0 0 1-13.659-22.454l-.303-.591a41.43 41.43 0 0 1-2.056-2.352c-1.236-1.545-2.307-3.203-3.387-4.861-.035-.043.095-.112.147-.034z" class="C"/><path d="M251.145 114.072s-2.86 11.77.553 13.393c6.367 3.03 17.746-6.379 18.489-8.063.182-.434 1.132-11.744 1.841-20.528l.864-10.277-22.335 8.897.501 15.467.087 1.111z" class="G"/><path opacity=".2" d="M250.555 97.494l.502 15.467c4.277-.74 8.351-2.377 11.956-4.804s6.662-5.59 8.97-9.283l.864-10.277-2.791 1.007-19.501 7.89z" class="C"/><path d="M246.462 79.909c-.337 6.328-5.089 11.206-10.61 10.902s-9.72-5.668-9.383-11.987 5.098-11.206 10.619-10.902 9.72 5.668 9.374 11.987z" class="H"/><path d="M249.692 80.49c-.38 7.031-5.668 12.456-11.811 12.152s-10.808-6.31-10.437-13.341 5.668-12.464 11.811-12.152 10.8 6.302 10.437 13.341z" class="E"/><path d="M230.926 75.308c-2.082 27.081 13.824 31.395 19.639 31.838 5.279.408 23.328 1.111 28.166-25.614s-7.015-36.256-19.008-37.827-26.706 4.514-28.797 31.603z" class="G"/><g class="D"><path d="M239.324 70.483l1.841-.33c.662-.029 1.296-.276 1.805-.703a.96.96 0 0 0 0-1.18 2.36 2.36 0 0 0-1.081-.634 2.35 2.35 0 0 0-1.251.009 3.51 3.51 0 0 0-2.238 1.181 1.04 1.04 0 0 0-.083 1.136c.098.177.246.32.425.413a1.02 1.02 0 0 0 .582.109zm18.5 1.449a18.5 18.5 0 0 1-1.806-.495 3.04 3.04 0 0 1-1.728-.868.96.96 0 0 1 .069-1.172 2.37 2.37 0 0 1 1.13-.538 2.36 2.36 0 0 1 1.246.113c.853.176 1.611.665 2.125 1.371.112.169.172.366.172.568a1.05 1.05 0 0 1-.168.57 1.02 1.02 0 0 1-1.04.45zm-4.675 6.597c0-.07.13.104.121.174-.216 1.84-.164 3.984 1.443 4.739.052 0 0 .113 0 .104-2.021-.469-2.065-3.316-1.564-5.017z"/><path d="M254.954 76.749c2.972 0 2.678 5.998-.078 5.963s-2.41-5.998.078-5.963z"/><path d="M256.104 77.123c.501.364.985.981 1.607 1.076s1.296-.486 1.797-1.068c.052-.061.095 0 .095.078 0 1.137-.536 2.291-1.728 2.404s-1.866-.955-2.091-2.118c-.043-.217.121-.521.32-.373zm-13.678.199c0-.078-.147.078-.147.156 0 1.849-.345 3.967-2.039 4.505-.052 0-.052.113 0 .104 2.057-.2 2.463-3.012 2.186-4.765z"/><path d="M240.862 75.317c-2.946-.347-3.456 5.607-.691 5.928s3.162-5.633.691-5.928z"/><path d="M239.601 75.612c-.493.278-1.002.816-1.564.807s-1.08-.694-1.451-1.345c0-.069-.087 0-.095.061-.121 1.128.155 2.344 1.226 2.656s1.789-.642 2.143-1.736c.069-.226-.06-.555-.259-.443z"/></g><g class="C"><path d="M251.472 92.842c-.44.434-.864 1.024-1.555 1.076a4.93 4.93 0 0 1-1.978-.469c-.013-.01-.029-.015-.045-.014s-.031.01-.042.022-.015.029-.013.045.009.031.022.042a2.47 2.47 0 0 0 1.028.827 2.46 2.46 0 0 0 1.305.179c.376-.093.716-.297.975-.587s.425-.651.476-1.037c.035-.113-.112-.148-.173-.087zm-7.275-7.144l-.631 4.036c0 .122.303.2.743.252h.052a6.12 6.12 0 0 0 3.332-.106 6.14 6.14 0 0 0 2.785-1.838c.095-.121-.06-.26-.181-.191-1.721 1.031-3.726 1.479-5.72 1.276-.069-.365 1.089-4.652.864-4.678a11.33 11.33 0 0 0-2.98.486c.967-5.729 2.851-11.284 3.741-16.969.002-.041-.009-.081-.032-.115s-.057-.058-.096-.07a.18.18 0 0 0-.119.004c-.038.015-.07.042-.09.077-2.376 5.65-3.646 12.213-4.804 18.106-.121.729 2.583-.078 3.136-.269z"/><path d="M245.209 89.335a6.84 6.84 0 0 0 2.454 2.43c.562.298 1.202.413 1.831.33 1.383-.191 1.556-1.415 1.435-2.5a7.33 7.33 0 0 0-.406-1.684 8.75 8.75 0 0 1-5.314 1.423z"/></g><path d="M247.663 91.766c.562.298 1.202.413 1.831.33 1.383-.191 1.556-1.415 1.435-2.5-1.443-.017-2.964.781-3.266 2.17z" fill="#ff548a"/><path d="M278.334 79.102c-2.946 0-10.999-7.742-11.958-21.969 0 0 1.728 12.716 2.791 14.539s-4.502-4.34-5.435-15.815c0 0-6.1 4.913-11.413 6.709s-8.64 1.918-9.038 1.545 7.413-3.29 9.435-5.894c0 0-14.023 7.447-20.615 8.289-.76.096.994-11.692 10.887-18.931s22.999-4.791 27.57-.79c0 0 5.184.469 11.102 7.812s-.155 24.564-3.326 24.503z" class="D"/><path d="M274.282 83.285s5.823-8.541 9.676-6.458-.475 14.409-4.959 16.136c-.56.26-1.166.404-1.783.423s-1.23-.088-1.804-.313-1.098-.565-1.539-.998-.789-.952-1.026-1.524l1.435-7.265z" class="G"/><path d="M282.628 80.334c.011.004.021.012.028.022s.01.022.01.034-.004.024-.01.034-.017.018-.028.022c-3.145 1.319-4.778 4.27-5.91 7.326.925-1.18 2.203-1.84 3.776-.729.078.061 0 .191-.086.165-.556-.17-1.15-.163-1.702.018a2.83 2.83 0 0 0-1.383.997 13.43 13.43 0 0 0-1.46 2.534c-.147.287-.657.139-.553-.191v-.069c-.069-4.045 3.007-9.721 7.318-10.164z" class="C"/><path d="M276.477 91.783c.005.189.066.372.175.526a.95.95 0 0 0 .437.34c.176.067.368.08.552.037a.95.95 0 0 0 .723-.775c.031-.187.006-.378-.072-.55a.96.96 0 0 0-.365-.417.95.95 0 0 0-1.194.159.96.96 0 0 0-.256.68zm2.591-1.736a.61.61 0 0 0 .193.416.59.59 0 0 0 .199.121.6.6 0 0 0 .23.035.59.59 0 0 0 .414-.188c.053-.057.094-.125.121-.198a.6.6 0 0 0 .036-.23c-.003-.079-.02-.156-.052-.228a.6.6 0 0 0-.562-.354.61.61 0 0 0-.414.195.62.62 0 0 0-.165.43z" class="B"/><path d="M283.691 82.209l1.857.391c.049.01.098.011.147.001s.094-.029.135-.056a.38.38 0 0 0 .104-.104c.028-.041.046-.088.055-.136.02-.097.002-.198-.052-.281a.37.37 0 0 0-.233-.162l-1.858-.391c-.048-.01-.098-.01-.146-.001a.36.36 0 0 0-.136.056c-.041.028-.076.063-.103.104s-.046.087-.055.136c-.021.097-.002.198.051.281a.37.37 0 0 0 .234.162zm.208-1.198l1.893.113a.37.37 0 0 0 .146-.019c.047-.016.09-.041.127-.075a.37.37 0 0 0 .088-.118.36.36 0 0 0 .036-.144.38.38 0 0 0-.354-.399l-1.884-.113a.38.38 0 0 0-.274.09c-.076.065-.123.157-.132.257s.029.2.096.276.158.124.258.132z" class="F"/><g class="E"><path d="M279.872 76.767s2.281-13.662-.976-21.7c-3.629-8.888-20.952-16.301-34.508-8.489 0 0 20.597-4.114 29.03 8.558 3.551 5.338 1.849 21.491 1.849 21.491l4.605.139z"/><path d="M276.053 96.323c-6.114-.674-10.451-6.895-9.686-13.895s6.34-12.128 12.454-11.455 10.451 6.895 9.687 13.895-6.341 12.128-12.455 11.455z"/></g><path d="M269.633 82.391c-.691 6.293 3.206 11.883 8.701 12.49s10.515-4.001 11.232-10.294-3.214-11.891-8.709-12.49-10.541 4.001-11.224 10.294z" class="H"/><path d="M254.996 100.888l9.012-1.615 8.502-6.675-1.028-1.319-8.174 6.423-8.597 1.536.285 1.649z" class="E"/><path d="M256.18 99.786c-.242-2.604-7.128-3.272-6.765.633s7.007 1.953 6.765-.633z" class="H"/><path d="M251.075 113.734l2.272 12.672 17.522-11.804 3.119 5.607s-19.008 20.58-18.861 19.495l-2.731-11.067-8.372 5.573 4.191-17.499 2.86-2.977z" class="B"/><g class="G"><path d="M314.06 203.136c8.018 9.834 21.065-1.397 22.551-10.146 3.499-20.546-1.002-58.225-6.964-76.079-1.918-5.746-39.899 5.208-39.995 11.674-.095 6.788 8.148 54.596 24.408 74.551z"/><path d="M330.667 127.24s-.57-18.862-7.248-31.43c-4.614-8.68-16.753-26.473-46-27.775-6.912-.295-17.029 4.218-5.875 8.845 7.923 3.281 13.928 2.96 18.196 5.711 0 0-12.165 7.274-12.191 14.261-.022 6.114.388 12.223 1.227 18.279a26.4 26.4 0 0 0 3.456.079s.172 6.544 7.447 13.332l40.988-1.302z"/><path d="M317.698 88.224c-4.804-1.831-15.051-5.546-24.486-5.65-10.48-.122-30.698 2.482-30.707 10.251 0 5.703 7.776 5.39 7.776 5.39s-8.13 2.847-7.015 7.995c1.019 4.695 7.041 4.088 7.041 4.088s-4.639 2.604-2.79 6.944c2.22 5.207 11.577-1.051 18.36 2.274 1.538.711 31.821-31.291 31.821-31.291z"/></g><g class="C"><path d="M294.931 93.719c-4.804-.981-16.269-.399-24.52 4.34-.19.104-.207.304 0 .243a102.48 102.48 0 0 1 24.538-4.453c.034-.035.034-.121-.018-.13zm-.432 10.615c-4.225-.417-16.018.711-24.192 5.763-.181.113-.19.321 0 .252a109.93 109.93 0 0 1 24.192-5.92c.009-.004.017-.011.023-.019s.008-.019.008-.029-.003-.02-.008-.028-.014-.015-.023-.019z"/><path d="M263.413 89.439c1.14-1.267 2.756-1.736 4.173-2.604.078-.043.147.087.069.121-2.497 1.05-5.115 3.533-4.7 6.475.501 3.541 4.726 4.444 7.655 4.522.147 0 .078.165-.069.191-3.257.573-7.854-.564-8.459-4.418a5.18 5.18 0 0 1 .175-2.297 5.16 5.16 0 0 1 1.156-1.99z"/><path d="M271.014 97.841c.078 0 .138.087.061.121-4.51 1.736-7.292 4.887-7.517 6.675-.162.865-.057 1.76.299 2.564a4.33 4.33 0 0 0 1.697 1.94 7.62 7.62 0 0 0 5.141.816c.146 0 .198.191.06.217-2.117.391-6.186.868-7.655-2.56-1.227-2.865.147-7.621 7.914-9.774z"/><path d="M267.69 112.319c.899-1.267 2.205-2.186 3.697-2.604.07 0 .121.096 0 .122-2.592 1.05-4.812 4.166-3.983 7.057.052.182-.216.234-.276.069-.267-.765-.356-1.582-.258-2.388a5.3 5.3 0 0 1 .82-2.256zm-1.418-40.196c.208-1.302 1.841-2.604 4.977-3.194-2.592.712-4.484 2.118-4.467 3.385s.951 2.604 3.698 4.088c.078 0 0 .078-.06.043-1.625-.755-4.51-1.988-4.148-4.323z"/></g><path d="M332.636 120.07l-47.001 15.902s17.124 52.99 25.211 64.369 19.302 9.331 25.773-4.782-3.983-75.489-3.983-75.489z" class="F"/><g class="B"><path d="M307.838 137.239a3.85 3.85 0 0 0-2.047-.104c-.369.139-.687.387-.914.71a1.98 1.98 0 0 0-.356 1.104 1.58 1.58 0 0 1-.186.755c-.124.232-.303.429-.523.573a1.61 1.61 0 0 1-.812.26l-.968.191c.659.234 1.373.261 2.048.078.361-.154.668-.411.883-.74a2.01 2.01 0 0 0 .327-1.108c.004-.26.074-.515.204-.74s.316-.413.539-.545c.261-.156.559-.24.864-.243l.941-.191z"/><use xlink:href="#E"/><path d="M313.499 203.492l.622.582c.03-.232.111-.453.239-.649s.296-.359.495-.48a1.66 1.66 0 0 1 .864-.234l.976-.191a3.85 3.85 0 0 0-2.047-.104 1.85 1.85 0 0 0-.694.41 1.86 1.86 0 0 0-.455.666z"/><use xlink:href="#F"/><path d="M329.336 164.91c.313.624.788 1.151 1.373 1.528.359.165.759.216 1.148.148a1.95 1.95 0 0 0 1.03-.53c.182-.189.41-.328.661-.404s.517-.087.773-.03a1.56 1.56 0 0 1 .76.39c.268.183.527.391.864.556-.38-.529-.648-1.18-1.399-1.51-.363-.146-.76-.182-1.142-.103a2 2 0 0 0-1.01.545 1.51 1.51 0 0 1-.667.38 1.5 1.5 0 0 1-.767.002 1.73 1.73 0 0 1-.76-.416l-.864-.556zm-5.228-34.788a3.77 3.77 0 0 0 1.374 1.527 1.95 1.95 0 0 0 2.169-.373c.183-.189.41-.328.661-.405a1.56 1.56 0 0 1 .773-.038c.283.061.546.196.76.391.277.182.536.39.864.555-.371-.529-.648-1.18-1.391-1.51a1.97 1.97 0 0 0-1.143-.102c-.383.08-.734.273-1.008.553-.189.181-.421.31-.673.377s-.517.068-.77.005a1.73 1.73 0 0 1-.752-.416l-.864-.564zm-4.69 17.611c-.221.663-.26 1.374-.112 2.057a1.98 1.98 0 0 0 .708.916c.322.227.704.353 1.098.36a1.51 1.51 0 0 1 .754.181c.232.124.427.307.568.531a1.5 1.5 0 0 1 .268.807l.19.981c.229-.663.253-1.38.069-2.057-.151-.363-.406-.672-.732-.888s-.709-.33-1.1-.328a1.52 1.52 0 0 1-1.287-.755 1.8 1.8 0 0 1-.242-.824l-.182-.981z"/><use xlink:href="#G"/></g><path d="M290.88 144.816a79.33 79.33 0 0 1 7.837-3.098l8.087-2.891c5.253-1.814 10.549-3.428 15.846-5.025 3.084-.938 6.186-1.736 9.27-2.604.113 0 .156.191 0 .234l-15.94 5.937c-5.349 1.866-10.515 3.594-15.82 5.165-1.512.451-3.042.868-4.562 1.276a39.81 39.81 0 0 1-4.718 1.249c-.077.018-.112-.182 0-.243zm-6.196-8.723c.13-.425 5.34-1.788 5.608-1.866.077 0 .112.104 0 .13-.251.087-4.666 1.936-4.649 1.971 2.592 6.943 4.96 13.957 7.448 20.935l7.387 21.031c1.322 3.95 1.236 4.34-.164.938s-2.834-6.197-4.121-9.652c-2.592-6.944-5.02-14.001-7.448-21.031l-4.061-12.456z" class="C"/><path d="M202.63 218.586h26.732c2.59-.002 5.074-1.037 6.904-2.878a9.84 9.84 0 0 0 2.859-6.939c.002-1.289-.25-2.566-.74-3.757s-1.209-2.274-2.116-3.187a9.78 9.78 0 0 0-3.168-2.131c-1.185-.494-2.455-.749-3.739-.75H202.63c-2.59.002-5.073 1.037-6.904 2.878a9.84 9.84 0 0 0-2.859 6.939c-.001 1.289.25 2.566.74 3.757s1.209 2.274 2.116 3.187a9.79 9.79 0 0 0 3.168 2.131 9.74 9.74 0 0 0 3.739.75z" fill="#9691a4"/><path d="M223.511 208.604a1.63 1.63 0 0 0-.294-.868c-.069-.121-.156-.234-.233-.355l-.519-.513-.596-.434c-.821-.524-1.737-.881-2.696-1.05-2.207-.442-4.48-.442-6.687 0a7.19 7.19 0 0 0-2.661 1.033l-.622.443-.493.503c-.132.19-.253.387-.362.59-.084.21-.156.425-.216.643h.155 4.251c.035.005.071-.002.102-.019s.056-.044.071-.077c.119-.234.297-.432.518-.573a1.48 1.48 0 0 1 .735-.234 29.66 29.66 0 0 1 3.818 0 1.47 1.47 0 0 1 .734.23c.22.14.399.336.519.569.008.03.026.057.051.076s.056.029.087.028h4.32l.018.008zm.009 2.491v-1.501c.005-.035.005-.07 0-.104h-4.32v.312 1.276c-.009.075-.002.152.022.224a.51.51 0 0 0 .118.191.5.5 0 0 0 .191.119.49.49 0 0 0 .222.022h3.232c.072.008.145 0 .214-.024s.131-.064.183-.116a.48.48 0 0 0 .138-.399zm-11.033.001l-.043-1.632h-4.268v.095 1.537c-.009.071-.001.144.023.212a.47.47 0 0 0 .113.181c.05.05.112.089.18.113a.47.47 0 0 0 .211.023h3.266c.07.007.141-.002.208-.026a.47.47 0 0 0 .287-.294.48.48 0 0 0 .023-.209z" class="B"/><g filter="url(#A)"><path d="M213.138 53.314c1.674-2.49 2.576-5.423 2.592-8.428 0-10.676-11.672-19.33-26.058-19.33s-26.05 8.68-26.05 19.33 11.664 19.339 26.05 19.339c6.393.102 12.664-1.763 17.971-5.347l8.977 2.291-3.482-7.855z" class="B"/><path d="M212.681 53.516l-.112-.252.154-.229c1.619-2.408 2.491-5.244 2.507-8.151 0-5.142-2.811-9.838-7.432-13.265s-11.03-5.563-18.126-5.563-13.501 2.141-18.121 5.572-7.429 8.127-7.429 13.257 2.809 9.828 7.429 13.262 11.025 5.577 18.121 5.577h0 .008c6.291.101 12.461-1.735 17.683-5.261l.186-.126.218.056 7.979 2.037-3.065-6.913z" stroke="#efecf3"/></g><g class="D"><use xlink:href="#H"/><path d="M189.68 47.603a2.71 2.71 0 1 1 0-5.434c1.494 0 2.705 1.216 2.705 2.717s-1.211 2.717-2.705 2.717z"/><use xlink:href="#H" x="24.149"/></g><defs><filter id="A" x="151.623" y="17.556" width="76.998" height="62.672" filterUnits="userSpaceOnUse" color-interpolation-filters="sRGB"><feFlood flood-opacity="0" result="A"/><feColorMatrix in="SourceAlpha" values="0 0 0 0 0 0 0 0 0 0 0 0 0 0 0 0 0 0 127 0"/><feOffset dy="4"/><feGaussianBlur stdDeviation="6"/><feColorMatrix values="0 0 0 0 0.121569 0 0 0 0 0.105882 0 0 0 0 0.176471 0 0 0 0.08 0"/><feBlend in2="A" result="C"/><feColorMatrix in="SourceAlpha" values="0 0 0 0 0 0 0 0 0 0 0 0 0 0 0 0 0 0 127 0"/><feMorphology radius="2" in="SourceAlpha"/><feOffset dy="2"/><feGaussianBlur stdDeviation="1"/><feColorMatrix values="0 0 0 0 0.121569 0 0 0 0 0.105882 0 0 0 0 0.176471 0 0 0 0.08 0"/><feBlend in2="C"/><feBlend in="SourceGraphic"/></filter><path id="B" d="M250.651 125.165c-.218.664-.254 1.375-.103 2.057.139.37.385.69.707.918a1.96 1.96 0 0 0 1.099.358 1.56 1.56 0 0 1 .751.186c.231.125.427.305.571.526.16.243.252.525.267.816l.182.981c.234-.665.261-1.386.078-2.066-.154-.36-.409-.667-.735-.881a1.97 1.97 0 0 0-1.097-.326c-.26-.007-.515-.08-.74-.212s-.413-.319-.548-.543a1.74 1.74 0 0 1-.241-.868c-.061-.312-.095-.642-.191-.946z"/><path id="C" d="M238.548 139.834c-.313-.624-.788-1.151-1.374-1.527-.359-.163-.759-.213-1.147-.145s-.747.251-1.03.526a1.57 1.57 0 0 1-2.186.044l-.864-.556c.38.53.648 1.181 1.4 1.511.362.145.759.181 1.141.102s.734-.268 1.01-.545a1.52 1.52 0 0 1 .672-.381c.252-.067.518-.067.771-.001.283.069.542.213.751.417l.856.555z"/><path id="D" d="M284.719 144.851c-.221.663-.26 1.374-.112 2.057.139.37.386.689.708.916a1.96 1.96 0 0 0 1.097.36c.409-.003.804.154 1.1.438a1.59 1.59 0 0 1 .49 1.081l.19.981a3.48 3.48 0 0 0 .069-2.057 1.98 1.98 0 0 0-.732-.888c-.326-.216-.709-.33-1.099-.327-.261-.005-.517-.077-.742-.21s-.413-.32-.546-.546a1.74 1.74 0 0 1-.233-.824l-.19-.981z"/><path id="E" d="M317.698 174.571c-.661-.219-1.369-.255-2.048-.104a1.94 1.94 0 0 0-.916.708 1.96 1.96 0 0 0-.354 1.106 1.59 1.59 0 0 1-.185.755c-.124.232-.304.429-.523.573-.243.158-.524.248-.813.26l-.967.191a3.43 3.43 0 0 0 2.047.078c.361-.154.668-.411.883-.74a2 2 0 0 0 .327-1.108c.004-.26.074-.515.204-.74a1.52 1.52 0 0 1 .539-.545c.261-.158.559-.242.864-.243l.942-.191z"/><path id="F" d="M297.334 161.568a3.83 3.83 0 0 0 1.374 1.528 1.93 1.93 0 0 0 2.169-.382c.182-.189.41-.328.661-.404s.517-.086.773-.03c.285.057.548.192.76.391l.821.555c-.371-.529-.648-1.18-1.391-1.51a1.99 1.99 0 0 0-1.142-.103c-.382.079-.733.269-1.009.546a1.53 1.53 0 0 1-.672.379c-.253.067-.518.068-.771.002-.283-.069-.543-.213-.752-.416l-.821-.556z"/><path id="G" d="M325.655 190.516c-.218.663-.254 1.374-.104 2.057.136.37.381.69.702.918a1.94 1.94 0 0 0 1.095.358c.264-.003.524.061.756.185a1.57 1.57 0 0 1 .575.526c.157.244.247.526.259.816l.19.981c.226-.666.253-1.384.078-2.066-.154-.361-.411-.668-.738-.883a1.97 1.97 0 0 0-1.102-.323c-.261-.008-.515-.081-.74-.213s-.413-.318-.548-.542a1.75 1.75 0 0 1-.233-.868l-.19-.946z"/><path id="H" d="M180.306 44.885c.002.538-.156 1.065-.452 1.513a2.71 2.71 0 0 1-1.213 1.004c-.495.207-1.039.261-1.565.157s-1.008-.363-1.386-.744a2.72 2.72 0 0 1-.741-1.393c-.104-.528-.05-1.075.156-1.572s.554-.921 1-1.219.97-.456 1.505-.454c.715.002 1.399.288 1.904.796a2.72 2.72 0 0 1 .792 1.912z"/></defs></svg>