<svg xmlns="http://www.w3.org/2000/svg" xmlns:xlink="http://www.w3.org/1999/xlink" width="416" height="240" fill="none" xmlns:v="https://vecta.io/nano"><style><![CDATA[.B{fill:#1f1b2d}.C{fill:#fdbc31}.D{fill:#fff}.E{fill:#ffc3b0}.F{opacity:.1}.G{opacity:.5}.H{fill:#fd5631}.I{fill:#5d3cf2}.J{fill:#455a64}.K{fill:#d5d2dc}.L{fill:#666276}]]></style><g opacity=".2"><path d="M54.262 55.689h26.751v32.4h6.881V69.745h34.014v29.046h4.501V30.632h29.56v18.71h15.153v23.272h4.589V57.98h26.87v43.685h7.864V66.148h24.578V39.177h16.71V23.811h19.333v68.138h6.497V63.517h31.842v40.697h4.408v-33.22h32.292V41.066h16.477v114.975H54.262V55.689z" class="I"/><g class="D"><use xlink:href="#B"/><use xlink:href="#B" x="7.847"/><use xlink:href="#B" x="15.687"/><use xlink:href="#B" y="9.32"/><use xlink:href="#B" x="7.847" y="9.32"/><use xlink:href="#B" x="15.687" y="9.32"/><use xlink:href="#B" y="18.636"/><use xlink:href="#B" x="7.847" y="18.636"/><use xlink:href="#B" x="15.687" y="18.636"/><use xlink:href="#B" y="27.957"/><use xlink:href="#B" x="7.847" y="27.957"/><use xlink:href="#B" x="15.687" y="27.957"/><use xlink:href="#C"/><use xlink:href="#D"/><use xlink:href="#D" x="7.844"/><use xlink:href="#C" y="7.778"/><use xlink:href="#D" y="7.778"/><use xlink:href="#D" x="7.844" y="7.778"/><use xlink:href="#C" y="15.553"/><use xlink:href="#D" y="15.553"/><use xlink:href="#D" x="7.844" y="15.553"/><path d="M218.749 93.9h-4.526v5.165h4.526V93.9zm7.84 0h-4.527v5.165h4.527V93.9zm7.844 0h-4.527v5.165h4.527V93.9z"/><use xlink:href="#C" y="31.297"/><use xlink:href="#D" y="31.297"/><use xlink:href="#D" x="7.844" y="31.297"/><use xlink:href="#C" y="39.264"/><use xlink:href="#D" y="39.264"/><use xlink:href="#D" x="7.844" y="39.264"/><use xlink:href="#C" y="47.231"/><use xlink:href="#D" y="47.231"/><use xlink:href="#D" x="7.844" y="47.231"/><path d="M218.749 125.773h-4.526v5.166h4.526v-5.166zm7.84 0h-4.527v5.166h4.527v-5.166zm7.844 0h-4.527v5.166h4.527v-5.166z"/><use xlink:href="#E"/><use xlink:href="#E" y="7.517"/><use xlink:href="#E" y="15.037"/><use xlink:href="#E" y="22.549"/><use xlink:href="#E" y="30.068"/><use xlink:href="#E" y="37.586"/><use xlink:href="#E" y="45.103"/><use xlink:href="#E" y="52.617"/><use xlink:href="#F"/><use xlink:href="#F" y="7.517"/><path d="M305.367 82.16h-23.953v3.875h23.953V82.16zm0 7.52h-23.953v3.875h23.953V89.68z"/><use xlink:href="#F" y="30.066"/><use xlink:href="#F" y="37.58"/><use xlink:href="#F" y="45.096"/><use xlink:href="#F" y="52.615"/><use xlink:href="#F" y="59.756"/><use xlink:href="#F" y="66.9"/><use xlink:href="#F" y="74.041"/><path d="M305.367 148.316h-23.953v3.876h23.953v-3.876z"/><use xlink:href="#G"/><path d="M344.1 83.725h-25.303V87.6H344.1v-3.875z"/><use xlink:href="#G" y="15.037"/><use xlink:href="#G" y="22.557"/><path d="M344.1 106.273h-25.303v3.876H344.1v-3.876z"/><use xlink:href="#G" y="37.588"/><use xlink:href="#G" y="45.104"/><use xlink:href="#G" y="52.617"/><use xlink:href="#G" y="59.346"/><use xlink:href="#G" y="66.076"/><use xlink:href="#G" y="72.803"/><use xlink:href="#H"/><use xlink:href="#H" y="7.26"/><use xlink:href="#H" y="14.52"/><use xlink:href="#H" y="21.78"/><use xlink:href="#H" y="29.038"/><use xlink:href="#H" y="36.295"/><use xlink:href="#H" y="43.555"/><use xlink:href="#H" y="50.817"/><use xlink:href="#I"/><use xlink:href="#I" y="7.262"/><use xlink:href="#I" y="14.52"/><use xlink:href="#I" y="21.78"/><path d="M202.564 90.52h-8.044v3.741h8.044V90.52z"/><use xlink:href="#I" y="36.297"/><use xlink:href="#I" y="43.555"/><use xlink:href="#I" y="50.817"/><use xlink:href="#J"/><use xlink:href="#K"/><use xlink:href="#J" y="8.668"/><use xlink:href="#K" y="8.668"/><use xlink:href="#J" y="17.332"/><use xlink:href="#K" y="17.332"/><use xlink:href="#J" y="26.002"/><use xlink:href="#K" y="26.002"/><use xlink:href="#J" y="34.67"/><use xlink:href="#K" y="34.67"/><use xlink:href="#J" y="43.334"/><use xlink:href="#K" y="43.334"/><use xlink:href="#J" y="52.002"/><use xlink:href="#K" y="52.004"/><use xlink:href="#J" y="60.668"/><use xlink:href="#K" y="60.668"/><use xlink:href="#K" x="15.488" y="17.332"/><use xlink:href="#K" x="15.488" y="26.002"/><use xlink:href="#K" x="15.488" y="34.67"/><use xlink:href="#K" x="15.488" y="43.334"/><use xlink:href="#K" x="15.488" y="52.004"/><use xlink:href="#K" x="15.488" y="60.668"/><use xlink:href="#J" y="69.232"/><use xlink:href="#K" y="69.232"/><use xlink:href="#K" x="15.488" y="69.232"/><path d="M139.275 112.354h-8.38v5.897h8.38v-5.897zm12.493 0h-8.381v5.897h8.381v-5.897zm15.488 0h-8.381v5.897h8.381v-5.897z"/><use xlink:href="#J" y="86.359"/><use xlink:href="#K" y="86.359"/><use xlink:href="#K" x="15.488" y="86.359"/><path d="M139.275 129.479h-8.38v5.897h8.38v-5.897zm12.493 0h-8.381v5.897h8.381v-5.897zm15.488 0h-8.381v5.897h8.381v-5.897z"/><use xlink:href="#J" y="103.484"/><use xlink:href="#K" y="103.484"/><use xlink:href="#K" x="15.488" y="103.484"/><use xlink:href="#C" x="24.215" y="-27.601"/><use xlink:href="#D" x="24.219" y="-27.601"/><path d="M242.964 50.75h-4.526v5.165h4.526V50.75zm7.844 0h-4.527v5.165h4.527V50.75z"/><use xlink:href="#C" x="24.215" y="-12.047"/><use xlink:href="#D" x="24.219" y="-12.047"/><use xlink:href="#C" x="24.215" y="-4.271"/><use xlink:href="#D" x="24.219" y="-4.271"/><use xlink:href="#C" x="24.215" y="3.696"/><use xlink:href="#D" x="24.219" y="3.696"/><use xlink:href="#C" x="24.215" y="11.662"/><use xlink:href="#D" x="24.219" y="11.662"/><use xlink:href="#C" x="24.215" y="19.629"/><use xlink:href="#D" x="24.219" y="19.629"/><use xlink:href="#C" x="24.215" y="27.598"/><use xlink:href="#D" x="24.219" y="27.598"/><use xlink:href="#C" x="24.215" y="35.653"/><use xlink:href="#D" x="24.219" y="35.653"/><use xlink:href="#C" x="24.215" y="43.705"/><use xlink:href="#D" x="24.219" y="43.705"/><use xlink:href="#C" x="24.215" y="51.754"/><use xlink:href="#D" x="24.219" y="51.754"/><use xlink:href="#C" x="24.215" y="59.811"/><use xlink:href="#D" x="24.219" y="59.811"/><use xlink:href="#L"/><use xlink:href="#L" x="7.84"/><use xlink:href="#L" y="9.161"/><use xlink:href="#L" x="7.84" y="9.161"/><use xlink:href="#L" y="18.325"/><use xlink:href="#L" x="7.84" y="18.325"/><use xlink:href="#L" y="27.483"/><use xlink:href="#L" x="7.84" y="27.483"/><use xlink:href="#L" y="36.87"/><use xlink:href="#L" x="7.84" y="36.87"/><path d="M353.468 90.07h-4.527v6.089h4.527V90.07zm7.84 0h-4.527v6.089h4.527V90.07z"/><use xlink:href="#L" y="55.641"/><use xlink:href="#L" x="7.84" y="55.641"/><path d="M353.468 108.848h-4.527v6.088h4.527v-6.088zm7.84 0h-4.527v6.088h4.527v-6.088z"/><use xlink:href="#L" y="74.516"/><use xlink:href="#L" x="7.84" y="74.516"/><use xlink:href="#L" y="84.004"/><use xlink:href="#L" x="7.84" y="84.004"/><path d="M353.468 137.307h-4.527v6.088h4.527v-6.088zm7.84 0h-4.527v6.088h4.527v-6.088z"/><use xlink:href="#L" y="102.979"/><use xlink:href="#L" x="7.84" y="102.979"/><use xlink:href="#D" x="33.149" y="-27.601"/><use xlink:href="#C" x="48.828" y="-27.601"/><use xlink:href="#D" x="33.149" y="-35.572"/><use xlink:href="#C" x="48.828" y="-35.572"/><use xlink:href="#D" x="33.149" y="-43.545"/><use xlink:href="#C" x="48.828" y="-43.545"/><path d="M259.738 50.75h-4.527v5.165h4.527V50.75zm7.839 0h-4.526v5.165h4.526V50.75z"/><use xlink:href="#D" x="33.149" y="-12.047"/><use xlink:href="#C" x="48.828" y="-12.047"/><use xlink:href="#D" x="33.149" y="-4.271"/><use xlink:href="#C" x="48.828" y="-4.271"/><use xlink:href="#D" x="33.149" y="3.696"/><use xlink:href="#C" x="48.828" y="3.696"/><use xlink:href="#D" x="33.149" y="11.662"/><use xlink:href="#C" x="48.828" y="11.662"/><use xlink:href="#D" x="33.149" y="19.629"/><use xlink:href="#C" x="48.828" y="19.629"/><use xlink:href="#D" x="33.149" y="27.596"/><use xlink:href="#C" x="48.828" y="27.596"/><use xlink:href="#D" x="33.149" y="35.651"/><use xlink:href="#C" x="48.828" y="35.651"/><use xlink:href="#D" x="33.149" y="43.705"/><use xlink:href="#C" x="48.828" y="43.705"/><use xlink:href="#D" x="33.149" y="51.756"/><use xlink:href="#C" x="48.828" y="51.756"/><use xlink:href="#D" x="33.149" y="59.811"/><use xlink:href="#C" x="48.828" y="59.811"/></g><path d="M109.498 50.252l-45.318-.067s2.256-2.926 4.739-3.287c0 0 4.853-14.34 12.933-14.448 7.522-.083 10.523 8.839 10.523 8.839s3.492-3.994 6.819-2.157 5.199 7.074 5.199 7.074 3.756 2.033 5.106 4.045zM303.137 33.6l57.315.088s0-3.653-7.889-4.381c0 0-7.186-15.996-18.195-13.844-6.855 1.3-10.372 10.681-10.372 10.681s-5.174-7.394-9.312-5.97-6.622 9.288-6.622 9.288-4.273 2.074-4.925 4.138zm-139.051-1.985l38.976.057s-3.673-3.421-5.308-3.421-6.405-11.471-12.488-10.996-9.343 9.009-9.343 9.009-7.404-2.327-11.837 5.351zm108.875 22.761l33.327.052s-1.656-2.157-3.482-2.425c0 0-3.534-10.557-9.483-10.64-5.53-.077-7.76 6.476-7.76 6.476s-2.555-2.946-5.002-1.605-3.849 5.191-3.849 5.191-2.753 1.476-3.751 2.952z" class="I"/></g><path opacity=".3" d="M206.352 198.745c78.526 0 142.184-5.367 142.184-11.987s-63.658-11.987-142.184-11.987-142.184 5.367-142.184 11.987 63.658 11.987 142.184 11.987z" class="I"/><path d="M39 158.414l42.354-.124 127.067-.134 127.068.134 42.354.124-42.354.129-42.354.047-84.714.082-127.067-.129L39 158.414z" class="B"/><path d="M377.843 152.961H39v5.459h338.843v-5.459z" fill="#c7c7c7"/><g class="B"><path d="M56.436 152.961a14.5 14.5 0 0 1 0 5.454 12.47 12.47 0 0 1-.259-2.724 12.82 12.82 0 0 1 .259-2.73zm20.261 0a12.81 12.81 0 0 1 .259 2.73c.014.914-.073 1.828-.259 2.724a12.79 12.79 0 0 1-.259-2.724 13.15 13.15 0 0 1 .259-2.73zm20.265 0a14.5 14.5 0 0 1 0 5.454 14.5 14.5 0 0 1 0-5.454zm20.269 0c.338 1.802.338 3.652 0 5.454a14.5 14.5 0 0 1 0-5.454z"/><use xlink:href="#M"/><path d="M157.76 152.961c.181.898.268 1.813.259 2.73a12.78 12.78 0 0 1-.259 2.724c-.186-.896-.273-1.81-.259-2.724-.009-.917.078-1.832.259-2.73z"/><use xlink:href="#N"/><use xlink:href="#M" x="60.793"/><use xlink:href="#M" x="81.063"/><path d="M238.819 152.961a14.5 14.5 0 0 1 0 5.454c-.186-.896-.273-1.81-.259-2.724-.012-.917.075-1.832.259-2.73zm20.265 0c.181.898.268 1.813.259 2.73.014.914-.073 1.828-.259 2.724a12.78 12.78 0 0 1-.259-2.724c-.009-.917.078-1.832.259-2.73zm20.265 0a14.54 14.54 0 0 1 0 5.454 14.5 14.5 0 0 1 0-5.454zm20.269 0c.338 1.802.338 3.652 0 5.454a14.5 14.5 0 0 1 0-5.454z"/><use xlink:href="#M" x="182.387"/><path d="M340.143 152.961c.181.898.268 1.813.259 2.73.011.914-.076 1.828-.259 2.724-.186-.896-.273-1.81-.259-2.724a12.83 12.83 0 0 1 .259-2.73z"/><use xlink:href="#N" x="182.383"/></g><path d="M364.042 144.507h-2.339l.647-53.933h1.045l.052 4.149.595 49.784z" class="C"/><path d="M363.445 94.723h-1.148l.052-4.149h1.045l.051 4.149z" class="B"/><g class="C"><path d="M357.039 75.474l.916 16.249 2.054.325V74.504l-2.08.681-.89.289z"/><path d="M358.054 77.373s-3.968.036-3.885.258 1.676.666 1.821.769 1.656 2.988 2.069 2.988-.005-4.014-.005-4.014zm.289 4.598s-3.962.041-3.885.263 1.681.666 1.821.769 1.661 2.983 2.069 2.983-.005-4.015-.005-4.015zm.297 4.603s-3.968.041-3.885.263 1.676.666 1.821.764 1.656 2.988 2.07 2.988-.006-4.014-.006-4.014z"/></g><path d="M357.93 75.185l1.102 16.708.977.155V74.504l-2.079.681z" class="B F"/><g class="C"><path d="M368.7 75.474l-.916 16.249-2.054.325V74.504l2.97.97z"/><path d="M367.692 77.373s3.962.036 3.88.258-1.677.666-1.821.769-1.656 2.988-2.07 2.988.011-4.014.011-4.014zm-.296 4.598s3.968.041 3.886.263-1.682.666-1.821.769-1.661 2.983-2.07 2.983.005-4.015.005-4.015zm-.29 4.603s3.962.041 3.88.263-1.676.666-1.821.764-1.656 2.988-2.07 2.988.011-4.014.011-4.014z"/></g><path d="M367.81 75.185l-1.102 16.708-.978.155V74.504l2.08.681z" class="B F"/><path d="M366.594 73.184l-.326 19.262h-6.798l-.325-19.262h7.449z" class="C"/><path d="M365.292 76.599c0 .478-.142.945-.409 1.342a2.42 2.42 0 0 1-1.086.889c-.443.183-.929.231-1.399.137s-.901-.323-1.24-.661-.569-.768-.662-1.237a2.4 2.4 0 0 1 .138-1.395c.183-.441.493-.818.891-1.084s.867-.407 1.345-.407c.642 0 1.258.254 1.712.707s.71 1.067.71 1.708z" fill="#f23c49"/><path d="M365.292 88.813c0 .478-.142.945-.409 1.342a2.42 2.42 0 0 1-1.086.889 2.43 2.43 0 0 1-1.399.137 2.42 2.42 0 0 1-1.24-.661c-.339-.338-.569-.768-.662-1.236a2.4 2.4 0 0 1 .138-1.395 2.42 2.42 0 0 1 2.236-1.491 2.43 2.43 0 0 1 1.712.707 2.41 2.41 0 0 1 .71 1.708zm-.001-6.053c-.001.477-.144.944-.41 1.34a2.42 2.42 0 0 1-1.088.887c-.442.182-.929.229-1.398.135a2.42 2.42 0 0 1-1.238-.662 2.41 2.41 0 0 1-.662-1.236c-.093-.468-.044-.954.139-1.395s.494-.818.892-1.083.866-.407 1.344-.407a2.44 2.44 0 0 1 .928.184 2.42 2.42 0 0 1 .786.525 2.43 2.43 0 0 1 .525.785 2.41 2.41 0 0 1 .182.926z" class="D"/><path d="M364.742 152.963h-3.746l.419-12.822h2.83l.497 12.822z" class="C"/><path d="M364.367 143.18h-3.047l.099-3.039h2.83l.118 3.039z" class="J"/><path d="M86.848 165.331h61.562s-6.725-28.685-30.776-28.685-29.752 22.281-30.786 28.685z" class="C"/><path opacity=".2" d="M86.848 165.331h61.562s-6.725-28.685-30.776-28.685-29.752 22.281-30.786 28.685z" class="B"/><path d="M265.484 168.429h61.563s-6.725-28.685-30.776-28.685-29.726 22.281-30.787 28.685z" class="C"/><path opacity=".2" d="M265.484 168.429h61.563s-6.725-28.685-30.776-28.685-29.726 22.281-30.787 28.685z" class="B"/><path d="M72.761 113.014c-1.319 2.064-3.621 25.125-3.771 25.929s-2.069 4.335-2.069 5.006-.517 11.052-.233 11.723c.623 1.225 1.332 2.404 2.121 3.53.336.402 9.059 7.889 10.036 7.992s10 .166 10.171 0 1.211-27.864 28.588-27.864 27.077 29.412 27.584 29.526 123.058 2.89 123.058 2.89c0-4.505.352-31.306 27.207-31.306 17.496 0 26.337 14.381 26.642 24.99.125 4.417-.615 9.288-.372 9.288.807 0 3.57.201 4.04 0s6.208-3.968 6.669-4.102 3.771-.202 4.578-.403 6.467-5.16 6.57-5.341.269-2.146.3-2.316 5.763-7.157 6.032-7.926.368-7.157.368-7.797-10.404-17.466-12.83-19.278-19.7-7.858-24.754-8.772l-33.844-5.743c-1.009-.701-48.449-27.838-56.7-29.856-6.669-1.61-83.855.604-87.895.805s-15.225 2.219-16.301 2.219-13.451-.067-14.211.268 0 3.292.941 3.829-29.633 19.082-31.925 22.709z" class="C"/><path d="M74.531 111.266c.29.268 5.117.387 5.624.186s30.905-20.372 30.926-20.96c0-.294-5.691-.217-6.395-.186s-30.714 20.454-30.155 20.96z" class="L"/><path d="M108.385 110.945c1.319 3.88 160.984 11.135 161.858 9.257.647-1.393-13.637-12.833-20.305-16.564s-25.763-14.51-35.179-15.619-28.453-1.032-45.06-.702c-16.472.299-35.866.702-42.737 3.612-6.006 2.58-19.622 16.93-18.577 20.016z" class="B"/><path d="M112.838 108.682c.398 1.46 35.66 5.242 76.984 7.157l62.235 2.012c.507-.201-1.417-11.182-2.121-12.09s-30.31-16.022-34.956-16.429-29.757-.454-42.421-.253-39.095 1.713-43.596 3.524c-3.968 1.6-16.534 14.618-16.125 16.079z" class="L"/><path d="M167.553 89.205l-23.668 23.607-11.635-1.099 21.93-21.868a412.49 412.49 0 0 1 13.373-.64zm84.423 26.318l-2.385 2.379c-2.414 0-6.579-.079-12.493-.238l12.312-12.275c.184.105.357.228.517.366.513.65 1.64 6.44 2.049 9.768zm-66.781-26.544l-25.169 25.118-5.928-.433 24.697-24.639 6.4-.047zm54.024 10.999l-17.247 17.214-6.136-.227 19.141-19.092 4.242 2.105zm-89.256-9.896l-21.288 21.244-1.624-.181 20.983-20.929 1.929-.134zm92.923 11.77l-15.52 15.511-1.749-.062 16.1-16.063 1.169.614zm-22.331-10.655l-24.961 24.897-1.739-.072 25.433-25.346 1.267.521zm-87.508.506l-17.817 17.751-1.464-.346 17.072-17.028 2.209-.377z" class="F D"/><path d="M134.959 91.434c.165 0 .243.217.098.604-.827 2.286-7.289 15.232-8.903 18.256a1.44 1.44 0 0 1-.916.64l11.382 1.212a.92.92 0 0 1-.564-1.032c.114-.717 4.34-15.934 5.69-19.675a1.6 1.6 0 0 1 .761-.795c.227 0-1.94.031-3.999.243-1.832.196-3.549.547-3.549.547zm15.002-1.351s.207.113.217.516c.073 3.581.476 21.512.13 22.492a.39.39 0 0 1-.166.238l2.152.17a1.03 1.03 0 0 1-.196-.516c-.244-3.029-.461-19.469-.42-22.508a.93.93 0 0 1 .202-.516l-1.919.124zm35.403-.366c.254.795.673 24.205.673 24.959s-.864.934-.864.934l13.342.619s-.864-.243-1.035-.645-4.345-25.645-4.32-25.975.683-.64.683-.64h-9.312a1.41 1.41 0 0 1 .833.748z" class="B"/><path d="M75.121 116.307c-1.64.207-5.323 4.03-5.592 4.835s-1.278 6.249-.74 7.054 2.493 2.822 4.175 2.889 9.902-3.828 10.641-4.499 1.278-4.763.404-6.079-6.803-4.468-8.888-4.2z" class="D"/><path d="M83.603 126.584c-.74.671-8.96 4.567-10.641 4.5-1.283-.052-2.726-1.239-3.575-2.157.956.69 2.11 1.052 3.29 1.032.905-.083 8.603-3.385 9.591-4.288s1.035-4.304.9-4.918-5.101-3.808-5.101-3.808c2.457.945 5.349 2.668 5.939 3.556.874 1.336.336 5.407-.404 6.083z" fill="#efecf3"/><path d="M68.315 146.705c-.455.454-.611 3.864-.135 4.164s3.233.268 3.771 0 1.919-2.823 1.816-3.695-4.915-1.006-5.453-.469zm245.873-18.881c1.454 2.348 12.126 6.502 16.115 7.157 2.514.413 11.216.96 11.723.516s-3.689-6.249-5.862-7.663-13.031-5.036-16.317-4.886-7.123 2.502-5.659 4.876z" class="D"/><path d="M342.026 135.487c-.517.454-9.208-.093-11.723-.516-3.988-.656-14.661-4.809-16.115-7.157s2.375-4.732 5.66-4.887c.255-.015.511-.015.766 0-3.058 1.125-3.684 3.509-1.821 4.871s7.832 4.546 10.217 5.212c2.297.645 10.864 1.976 11.609 1.393a1.48 1.48 0 0 0 .301-.577 1.49 1.49 0 0 0 .025-.651c.786 1.202 1.272 2.141 1.081 2.312z" fill="#efecf3"/><g class="B G"><path d="M109.21 127.277c.01 1.434-.548 2.814-1.552 3.839-1.02 1.047-2.414 1.646-3.877 1.668a5.53 5.53 0 0 1-3.925-1.554c-.531-.513-.952-1.127-1.24-1.805a5.49 5.49 0 0 1 0-4.29c.288-.678.71-1.292 1.24-1.805a5.52 5.52 0 0 1 1.806-1.169c.673-.267 1.393-.399 2.118-.389a5.54 5.54 0 0 1 2.105.45 5.51 5.51 0 0 1 1.772 1.221c1.004 1.024 1.562 2.402 1.552 3.834zm0 0a5.37 5.37 0 0 0-1.609-3.787 5.34 5.34 0 0 0-1.75-1.12c-.652-.255-1.347-.379-2.047-.366a5.29 5.29 0 0 0-3.684 1.599c-.958.985-1.494 2.304-1.494 3.677a5.27 5.27 0 0 0 1.494 3.676c.969.997 2.293 1.572 3.684 1.6.7.013 1.395-.111 2.047-.366a5.34 5.34 0 0 0 1.75-1.12 5.39 5.39 0 0 0 1.609-3.793zm-22.363 16.371l-1.552-3.685-1.428-3.72-1.33-3.756-1.221-3.803 1.552 3.679 1.433 3.725 1.33 3.757 1.216 3.803zm-18.956.002l7.957-.036 7.951.083 7.951.191 7.946.309-7.951.041-7.957-.087-7.951-.191-7.946-.31zm125.183-25.732l.911 6.445.393 3.23.16 1.625c.042.547 0 1.084 0 1.631l-.088 13.013-.186 11.394-.124 1.62-.517 6.491-.549 6.461.331-6.497.466-8.117v-1.625l.098-9.747.223-13.003v-1.621l-.13-1.615-.326-3.235-.662-6.45z" class="G"/><path d="M264.722 120.873l1.123 6.476.517 3.261.135.81c.058.27.091.545.098.821v1.646l-.279 13.137-.14 3.282c-.062 1.103-.274 2.194-.631 3.24l-2.044 6.254a47.78 47.78 0 0 1-2.628 6.037l-.408.723-.45.696c-.158.234-.331.456-.518.666l-.269.325c-.146.087-.311.136-.481.144-1.112.114-2.204.129-3.306.166-8.794.18-17.563.103-26.347.041l-26.348-.351-26.338-.722c-4.387-.181-8.794-.325-13.161-.718a10.07 10.07 0 0 1-1.665-.263c-.311-.118-.492-.263-.756-.376s-.486-.238-.734-.351c-.999-.449-2.023-.847-3.016-1.342-1.007-.476-1.939-1.095-2.768-1.837-.721-.841-1.388-1.727-1.997-2.652-2.473-3.612-4.837-7.317-7.196-11.006l-7.02-11.12-6.881-11.208-.838-1.414-.202-.371-.098-.186a.96.96 0 0 1-.026-.206l-.083-.816a69.38 69.38 0 0 1-.217-3.281v-.826a4.92 4.92 0 0 1 .176-.805c.15-.516.331-1.032.517-1.548.368-1.032.761-2.064 1.169-3.07a101.85 101.85 0 0 0-1.143 3.096l-.517 1.548c-.079.261-.136.529-.171.8v.82c.047 1.089.145 2.183.243 3.272l.088.815c.005.068.015.135.031.201l.098.176c.068.113.125.227.197.345l.848 1.409 6.974 11.146 14.279 22.074a25.9 25.9 0 0 0 1.955 2.58 11.41 11.41 0 0 0 2.701 1.78c.977.48 1.996.872 3.005 1.326.254.114.518.227.75.351s.518.289.719.361a10.72 10.72 0 0 0 1.584.238c4.361.382 8.758.516 13.145.676l26.332.65 26.343.428 26.337.036c1.092-.031 2.199-.046 3.275-.154.124 0 .285-.052.305-.057l.259-.31a5.36 5.36 0 0 0 .486-.645c.145-.227.305-.449.445-.681l.404-.707c1.03-1.941 1.924-3.951 2.674-6.016a99.39 99.39 0 0 0 2.07-6.229 12.18 12.18 0 0 0 .631-3.183l.15-3.282.393-13.132v-1.636c-.008-.274-.039-.547-.093-.815l-.13-.81-.517-3.241-1.04-6.486zm56.512 11.135a30.11 30.11 0 0 1-3.621 2.606l-3.813 2.353-3.885 2.224-3.958 2.095 3.782-2.4 3.828-2.312 3.859-2.254 1.935-1.125c.648-.358 1.273-.754 1.873-1.187z" class="G"/><path d="M136.375 144.82l17.103.449 51.319 1.559 51.31 1.79 17.097.671-17.108-.449-51.314-1.558-51.309-1.796-17.098-.666zm-1.007-24.452l-.673.036h-.165c-.037 0-.042.031-.062.082a2.18 2.18 0 0 0-.063.32 8.63 8.63 0 0 0-.025 1.316 5.23 5.23 0 0 0 .056.65c.013.097.038.192.073.284h.176l1.324.067 5.344.144 2.67.078h1.903a1.01 1.01 0 0 0 .073-.165c.027-.1.047-.202.062-.305.058-.431.077-.866.057-1.3-.006-.216-.025-.431-.057-.645-.014-.085-.038-.168-.072-.248-.078-.038-.162-.062-.249-.072-.864-.15-1.764-.201-2.649-.289.896-.025 1.792-.001 2.685.072.134.002.265.042.378.114.083.109.136.236.155.371.048.225.081.453.099.681a8.16 8.16 0 0 1 0 1.363c-.012.118-.031.235-.057.351-.024.162-.112.309-.243.407-.038.027-.083.042-.13.042h-1.961l-2.679-.037-5.344-.247-1.345-.134a.66.66 0 0 1-.197-.042c-.04-.007-.079-.02-.114-.041-.038-.031-.067-.072-.083-.119a1.24 1.24 0 0 1-.082-.361c-.024-.226-.033-.454-.026-.681a8.39 8.39 0 0 1 .129-1.342 2 2 0 0 1 .093-.33c.01-.029.024-.057.042-.082.012-.017.029-.031.048-.04s.039-.013.06-.012h.166l.683.114zm65.465 1.616l-.667.036H200c-.036 0-.046.031-.067.082-.029.105-.049.212-.057.32a8.63 8.63 0 0 0-.031 1.316c0 .222.026.439.057.65a1.22 1.22 0 0 0 .077.284s0 .026 0 0h.176l1.325.067 5.339.144 2.674.078h1.878a.56.56 0 0 0 .067-.16c.029-.1.051-.202.068-.305.055-.431.074-.866.057-1.3-.008-.216-.029-.431-.063-.645a1.05 1.05 0 0 0-.067-.247c-.078-.039-.162-.063-.248-.073-.869-.149-1.764-.201-2.649-.289a26.05 26.05 0 0 1 2.68.067c.135.003.266.045.378.119a.83.83 0 0 1 .16.372c.047.227.072.454.098.681a7.94 7.94 0 0 1 0 1.362c-.012.118-.031.235-.057.351-.051.118-.031.247-.243.407-.039.028-.086.043-.134.042h-1.961l-2.675-.036-5.349-.253-1.34-.129c-.069-.004-.137-.018-.201-.042a.53.53 0 0 1-.109-.041c-.037-.033-.067-.074-.088-.118-.044-.116-.07-.238-.078-.362-.023-.226-.033-.453-.031-.681a9 9 0 0 1 .135-1.341 1.9 1.9 0 0 1 .088-.331.44.44 0 0 1 .046-.082c.013-.017.029-.031.048-.04s.04-.013.061-.012h.165l.704.109z" class="G"/></g><path d="M135.083 184.635a25.35 25.35 0 0 0 0-35.91c-9.942-9.917-26.061-9.917-36.003 0a25.35 25.35 0 0 0 0 35.91c9.942 9.916 26.061 9.916 36.003 0z" class="B"/><path d="M130.224 179.789a18.51 18.51 0 0 0 0-26.219c-7.259-7.24-19.028-7.24-26.287 0s-7.26 18.979 0 26.219 19.028 7.241 26.287 0z" class="K"/><path d="M117.081 183.78c9.465 0 17.139-7.654 17.139-17.095s-7.674-17.095-17.139-17.095-17.14 7.654-17.14 17.095 7.674 17.095 17.14 17.095z" fill="#9691a4"/><g class="K"><path d="M119.772 162.395h-5.386c1.816-2.621-4.511-11.755-4.511-11.755l2.84-.939c1.883 3.225 2.825 4.169 4.377 4.169s2.488-.944 4.376-4.169l2.83.944s-6.342 9.129-4.526 11.75zm-5.837.325l-1.661 5.109c-1.935-2.534-12.602.65-12.602.65v-2.978c3.657-.789 4.847-1.393 5.328-2.863s-.134-2.653-2.622-5.444l1.774-2.389s6.725 8.828 9.783 7.915zm-1.488 5.635l4.355 3.158c-3.016 1.032-3.274 12.152-3.274 12.152l-2.846-.892c.373-3.716.171-5.031-1.086-5.94s-2.587-.696-6.001.805l-1.743-2.42s10.522-3.679 10.595-6.863zm4.924 3.158l4.356-3.158c.072 3.184 10.579 6.863 10.579 6.863l-1.733 2.425c-3.424-1.506-4.744-1.718-5.995-.81s-1.459 2.224-1.087 5.94l-2.845.892s-.274-11.099-3.275-12.152zm4.514-3.684l-1.666-5.109c3.057.913 9.829-7.915 9.829-7.915l1.78 2.394c-2.494 2.781-3.104 3.968-2.628 5.439s1.676 2.064 5.333 2.869l-.031 2.972s-10.683-3.184-12.617-.65z"/><path d="M117.082 171.522c2.749 0 4.977-2.223 4.977-4.964a4.97 4.97 0 0 0-4.977-4.964c-2.748 0-4.977 2.222-4.977 4.964s2.229 4.964 4.977 4.964z"/></g><path d="M304.113 189.005c13.216-4.768 20.055-19.32 15.275-32.503s-19.37-20.003-32.586-15.235-20.056 19.32-15.275 32.502 19.37 20.004 32.586 15.236z" class="B"/><path d="M313.201 171.427c2.62-9.9-3.302-20.045-13.227-22.659s-20.097 3.293-22.717 13.193 3.301 20.045 13.227 22.659 20.096-3.293 22.717-13.193z" class="K"/><path d="M295.217 183.78c9.466 0 17.14-7.654 17.14-17.095s-7.674-17.095-17.14-17.095-17.139 7.654-17.139 17.095 7.674 17.095 17.139 17.095z" fill="#9691a4"/><g class="K"><path d="M297.919 162.394h-5.396c1.821-2.621-4.511-11.754-4.511-11.754l2.83-.945c1.883 3.225 2.824 4.17 4.376 4.17s2.489-.945 4.382-4.17l2.825.945s-6.333 9.133-4.506 11.754zm-5.845.326l-1.661 5.109c-1.935-2.534-12.602.65-12.602.65l-.026-2.978c3.658-.789 4.848-1.393 5.329-2.863s-.135-2.653-2.623-5.444l1.774-2.389s6.751 8.828 9.809 7.915zm-1.491 5.635l4.356 3.158c-3.011 1.032-3.274 12.152-3.274 12.152l-2.846-.892c.378-3.716.171-5.031-1.081-5.94s-2.587-.696-6.001.805l-1.733-2.42s10.507-3.679 10.579-6.863zm4.917 3.158l4.356-3.158c.072 3.184 10.574 6.863 10.574 6.863l-1.733 2.425c-3.425-1.506-4.744-1.718-5.996-.81s-1.459 2.224-1.086 5.94l-2.845.892s-.259-11.099-3.27-12.152zm4.525-3.684l-1.666-5.109c3.058.913 9.83-7.915 9.83-7.915l1.774 2.394c-2.493 2.781-3.104 3.968-2.623 5.439s1.671 2.064 5.329 2.869l-.031 2.972s-10.678-3.184-12.613-.65z"/><path d="M295.219 171.522c2.749 0 4.977-2.223 4.977-4.964a4.97 4.97 0 1 0-9.954 0c0 2.741 2.228 4.964 4.977 4.964z"/></g><path d="M246.213 108.374c-.926.929-.844 9.205-.171 9.876s9.902 1.28 10.641-3.86-9.022-7.461-10.47-6.016z" class="C"/><path d="M279.884 113.323h-7.506c-19.535-12.854-46.343-25.573-46.343-25.573l4.449-1.068c16.229 7.833 47.523 25.753 48.345 26.316.338.149.692.259 1.055.325z" class="L"/><path d="M86.848 150.092c1.565-2.579 3.48-4.93 5.691-6.986a35.96 35.96 0 0 1 7.336-5.325 35.63 35.63 0 0 1 17.496-4.299l2.277.104 1.138.056 1.133.155 2.255.32 2.22.516c2.959.73 5.779 1.936 8.349 3.571 2.554 1.645 4.833 3.679 6.757 6.027a40.47 40.47 0 0 1 4.775 7.667c-1.396-2.662-3.073-5.169-5.003-7.476a28.86 28.86 0 0 0-6.777-5.826c-5.101-3.173-11.159-4.464-17.124-4.52a36.64 36.64 0 0 0-8.903.954 35.54 35.54 0 0 0-8.381 3.148 35.86 35.86 0 0 0-7.356 5.134 34.21 34.21 0 0 0-5.882 6.78zm178.367.002c1.565-2.579 3.48-4.93 5.691-6.986 2.216-2.078 4.688-3.868 7.356-5.325 5.368-2.909 11.398-4.39 17.507-4.299l2.276.104 1.138.056c.378.042.755.104 1.128.155l2.26.32c.74.155 1.48.351 2.22.516 2.959.73 5.779 1.936 8.35 3.571a29.14 29.14 0 0 1 6.756 6.027 40.47 40.47 0 0 1 4.775 7.667c-1.48-2.621-3.006-5.227-5.003-7.476a29.06 29.06 0 0 0-6.777-5.826c-5.101-3.173-11.159-4.463-17.129-4.52-2.994-.047-5.982.274-8.898.954a35.87 35.87 0 0 0-15.737 8.282c-2.263 1.989-4.252 4.269-5.913 6.78zM90.52 107.952c3.968-3.096 7.993-6.125 12.044-9.113s8.148-5.924 12.364-8.705a33.54 33.54 0 0 1 1.62-.991 11.07 11.07 0 0 1 .848-.464 5.19 5.19 0 0 1 .926-.346c1.221-.356 2.442-.666 3.663-.97 2.452-.604 4.904-1.182 7.382-1.662a43.69 43.69 0 0 1 7.543-.774c2.524-.052 5.044-.046 7.563.072a122.48 122.48 0 0 0-7.548.227 43.43 43.43 0 0 0-7.46.929l-7.341 1.739-3.621.991a4.4 4.4 0 0 0-.838.32c-.268.135-.543.289-.807.449l-1.593.991c-4.217 2.724-8.278 5.676-12.416 8.571l-12.329 8.736z" class="G D"/><path d="M288.013 141.209c-19.503 4.448-19.788 26.481-19.788 30.522l-123.058-2.89c-.409-.088-.284-19.376-14.749-26.729 6.498 3.205 14.822 10.965 17.972 22.297.342 1.207 18.19 3.096 48.697 4.071s57.025.361 62.08-.346 10.915-27.002 28.846-26.925zm61.879 13.391c-.269.774-6.002 7.74-6.027 7.925l-.306 2.322c-.103.207-5.763 5.16-6.57 5.336s-4.107.268-4.573.402-6.208 3.896-6.674 4.097-3.233 0-4.04 0c-.243 0 .517-4.855.373-9.288-.223-7.698-4.936-17.389-14.196-22.121 5.023 1.069 13.404 7.911 16.787 14.964s2.515 7.575 3.306 8.427 3.415-.867 4.625-1.172 5.173-.402 6.674-.701 1.759-3.024 2.798-3.612 6.322-4.799 7.823-6.579z" class="F B"/><path d="M221.354 36.755c-.641-6.44-5.09-12.849-12.933-12.849s-12.261 6.409-12.902 12.849c-.988 9.938 5.737 18.942 12.902 27.157 7.17-8.215 13.896-17.219 12.933-27.157zm-12.933 7.167c-1.399-.001-2.766-.416-3.928-1.192a7.06 7.06 0 0 1-2.602-3.168 7.03 7.03 0 0 1-.4-4.076c.274-1.368.949-2.625 1.938-3.61a7.08 7.08 0 0 1 3.623-1.928c1.372-.271 2.794-.131 4.085.404s2.396 1.44 3.172 2.6 1.19 2.525 1.189 3.92a7.03 7.03 0 0 1-.537 2.701c-.356.856-.877 1.634-1.535 2.289a7.06 7.06 0 0 1-2.297 1.527c-.858.353-1.779.534-2.708.532z" class="H"/><path opacity=".3" d="M167.482 217.028c-38.929 0-70.487-4.211-70.487-9.406s31.558-9.407 70.487-9.407 70.487 4.211 70.487 9.407-31.558 9.406-70.487 9.406z" class="I"/><path d="M190.888 209.587c-1.034.325-29.783-.046-30.869-.758-.419-.263-.605-4.448-.693-9.51v-.16l-.036-3.204v-.449l1.381-14.887 19.25.191-1.899 14.747-.026.583-.113 3.055v.315s10.946 5.052 12.059 5.96 1.955 3.823.946 4.117z" class="E"/><path d="M190.889 209.587c-1.035.326-29.783-.046-30.87-.758-.419-.263-.605-4.448-.693-9.51v-.16l-.036-3.204v-.449l18.748.051-.026.584-.114 3.054v.315s10.947 5.052 12.059 5.96 1.94 3.823.932 4.117z" fill="#ebebeb"/><path d="M190.888 209.582c-.517.17-8.334.149-15.975 0l-4.521-.104c-5.448-.149-9.954-.371-10.347-.645s-.605-4.329-.688-9.288v-.371l18.546.031v.32s10.952 5.051 12.059 5.954 1.935 3.783.926 4.103z" class="H"/><g class="B"><path d="M190.575 208.469c-4.852-.181-24.423-.454-29.229-.268-.041 0-.041.026 0 .031 4.801.283 24.377.402 29.224.32.104-.006.104-.078.005-.083zm-10.62-9.196c-1.904-.377-4.243-.119-5.691 1.223-.057.051 0 .129.077.113 1.832-.565 3.719-.931 5.629-1.094.028-.007.052-.024.069-.047s.025-.052.023-.08-.013-.056-.033-.077-.046-.035-.074-.038zm1.365.846c-1.904-.377-4.242-.119-5.717 1.217-.057.057 0 .134.078.114 1.831-.563 3.718-.928 5.628-1.089.029-.004.055-.019.074-.04a.12.12 0 0 0 .031-.077c.001-.029-.008-.057-.025-.08a.12.12 0 0 0-.069-.045zm1.373.847c-1.904-.381-4.242-.118-5.722 1.218-.057.052 0 .134.083.114a26.65 26.65 0 0 1 5.623-1.089c.029-.004.055-.017.075-.038s.031-.048.033-.077a.12.12 0 0 0-.023-.08.13.13 0 0 0-.069-.048z"/><path d="M174.91 209.578l-4.521-.104c-5.448-.149-9.954-.371-10.347-.645s-.605-4.329-.688-9.288v-.371c2.53 1.765 11.485 7.709 15.556 10.408z"/></g><path d="M179.153 199.257h-20.724l4.009-49.118c-.207-1.079-1.428-5.965-3.057-12.348l-1.63-6.362-4.734-18.277-3.968-15.207h17.59l4.625 14.892c4.206 13.684 9.829 32.508 10.377 37.1.87 7.39-2.488 49.32-2.488 49.32z" class="J"/><g class="B"><path d="M178.258 195.732l-5.422-.124c-1.552 0-11.728-.103-13.176.134-.031 0-.031.062 0 .068 1.448.237 11.624.149 13.176.134l5.422-.119c.036-.005.036-.093 0-.093zm-11.899-48.539c-.678-2.987-1.692-5.918-2.587-8.849l-5.422-17.869-2.731-8.927-1.402-4.499-1.402-4.402c-.166-.604-.259-.273-.041.516l1.319 4.644 2.695 9.133 5.432 18.153 2.747 9.092a38.14 38.14 0 0 1 1.118 4.402 19.92 19.92 0 0 1 .181 4.705l-.859 9.479-2.613 28.36-.207 2.394c0 .263.388.242.414 0l1.795-18.695 1.744-18.602.315-4.68c0-1.465-.166-2.926-.496-4.355z"/><path d="M164.621 97.945l-5.24 39.846-10.347-39.846h15.587z"/></g><path d="M168.947 209.861c-1.003.33-29.777.062-30.869-.645-.419-.258-.621-4.443-.724-9.505v-.16l-.047-3.204v-.449c-.067-7.307.461-14.892.461-14.892l18.81.124-.564 14.747v.583l-.109 3.055v.309s10.968 5.021 12.085 5.919 1.951 3.793.957 4.118z" class="E"/><path d="M168.947 209.861c-1.003.33-29.777.061-30.869-.645-.419-.258-.621-4.443-.724-9.505v-.16l-.047-3.204v-.449l18.707-.021v.583l-.109 3.055v.309s10.968 5.021 12.085 5.919 1.951 3.792.957 4.118z" fill="#ebebeb"/><path d="M168.949 209.862c-1.004.33-29.778.062-30.869-.645-.419-.258-.621-4.443-.725-9.505v-.16l18.562-.031v.31s10.968 5.021 12.085 5.919 1.94 3.787.947 4.112z" class="H"/><path d="M168.618 208.747c-4.848-.165-24.424-.366-29.23-.165-.036 0-.036.031 0 .031 4.806.269 24.382.315 29.23.212.103 0 .103-.047 0-.078zm-10.647-9.155c-1.909-.376-4.242-.103-5.691 1.239-.057.051 0 .129.083.113a26.67 26.67 0 0 1 5.623-1.114c.032-.002.061-.017.082-.041s.031-.054.029-.086-.016-.061-.04-.082-.055-.031-.086-.029zm1.366.842c-1.904-.377-4.242-.103-5.691 1.238-.057.052 0 .129.078.114 1.829-.572 3.714-.946 5.623-1.115.032-.001.061-.015.083-.038s.032-.054.031-.085-.015-.062-.039-.083-.054-.032-.085-.031zm1.367.837c-1.904-.372-4.242-.098-5.69 1.243-.057.052 0 .129.077.114 1.814-.569 3.684-.942 5.577-1.115.03 0 .059-.01.082-.03s.037-.046.042-.075-.002-.06-.018-.085-.041-.044-.07-.052z" class="B"/><path d="M166.043 97.945s-.404 8.385-2.328 15.021l-.517 1.605c-1.761.706-3.455 1.569-5.06 2.58l-.403 14.262-.414 19.773c.176 7.441-.931 48.36-.931 48.36l-20.694.082 3.72-48.416c-.036-4.381 1.003-23.736 1.81-37.869l.895-15.413 23.922.016z" class="J"/><g class="B"><path d="M155.699 195.877l-5.421-.103c-1.552 0-11.728-.052-13.177.196-.008 0-.016.003-.022.009s-.009.014-.009.022.003.016.009.022.014.009.022.009c1.449.232 11.63.103 13.177.077l5.421-.144c.009-.003.017-.009.023-.017s.008-.017.008-.027-.003-.019-.008-.027-.014-.014-.023-.017zm-11.842-94.942l-1.304 34.572c-.518 11.517-1.216 23.122-2.188 34.654l-1.749 21.94c0 .042.062.057.067 0 1.511-11.434 2.349-25.578 3.104-37.084s1.242-23.035 1.635-34.572l.59-19.562c-.011-.041-.15-.031-.155.052zm20.222 13.141a38.17 38.17 0 0 0-5.924 3.096c-.016.008-.029.023-.035.04a.07.07 0 0 0 .004.053c.008.016.023.029.04.035a.07.07 0 0 0 .053-.004l5.981-2.977c.032-.016.056-.044.068-.078s.009-.071-.006-.103-.044-.057-.078-.068-.071-.009-.103.006z"/><path d="M165.325 104.805l-.569 2.641-.518 2.488c-.182.783-.584 1.499-1.158 2.064-.326.299-.683.567-1.035.841l-.585.443.068-.356.17-1.006.362-2.244.74-4.412c0-.013-.005-.024-.013-.033s-.021-.014-.033-.014-.024.005-.033.014-.014.02-.014.033l-1.091 4.324c-.156.712-.714 4.231-.74 4.484l-.057.774c-.036.262-.036.527 0 .789 0 .062.093.052.119 0 .105-.246.18-.504.222-.768.068-.25.124-.504.166-.759l.046-.284c.347-.211.668-.49.994-.722l1.034-.779a3.96 3.96 0 0 0 1.268-1.977 13.93 13.93 0 0 0 .414-2.533l.336-3.003c0-.042-.093-.067-.093-.005z"/></g><path d="M179.551 58.623l-2.494 13.483c-.119.403.098.707.481.681l6.865-.439a1.13 1.13 0 0 0 .911-.769l2.493-13.488c.119-.397-.098-.702-.481-.676l-6.865.439c-.209.029-.405.117-.567.253a1.11 1.11 0 0 0-.343.516z" fill="#454056"/><path d="M180.368 58.535l-2.499 13.504c-.119.397.099.702.482.676l6.87-.439c.208-.03.404-.118.564-.254s.279-.315.341-.515l2.478-13.499c.119-.402-.098-.702-.481-.681l-6.87.444a1.11 1.11 0 0 0-.552.256c-.156.135-.272.311-.333.508z" class="J"/><path d="M182.289 59.019c.005.115-.025.23-.085.328a.58.58 0 0 1-.253.226c-.105.049-.223.065-.337.047s-.221-.069-.306-.148-.145-.18-.172-.293-.02-.23.02-.338a.58.58 0 0 1 .206-.27c.094-.068.205-.106.321-.11a.58.58 0 0 1 .225.035c.072.026.138.066.194.118a.57.57 0 0 1 .134.184c.032.07.05.145.053.221z" class="B"/><g class="E"><path d="M158.715 80.108c4.346 8.044 13.673 18.287 17.284 18.132 1.718-.072 4.812.17 6.959-1.925 4.681-4.567 8.339-13.014 8.913-17.766.207-1.687-8.158-4.866-9.286-3.437-2.643 3.349-5.582 9.804-6.084 9.804-1.852-.041-9.415-5.645-14.697-9.593-6.41-4.835-4.822 1.579-3.089 4.783zm32.879-10.219c-1.035-3.349-1.842-4.051-1.221-7.348.403-2.162-.807-3.349-2.23-1.548-2.328 2.941-1.878 7.549-1.262 9.097l4.713-.201z"/><path d="M191.554 80.03s1.257-4.819.492-8.498c-.518-2.544-2.308-7.957-9.669-10.454-1.749-.593-4.656-.201-2.157 1.801 1.774 1.419 3.331 1.785 4.216 2.802 0 0-3.647.934-4.175 2.704-.457 1.547-.802 3.125-1.035 4.721.284.109.574.2.869.273 0 0-.445 1.672.906 3.932l10.553 2.719z"/><path d="M191.152 69.184c-1.091-.826-3.43-2.528-5.825-3.261-2.664-.81-8.019-1.662-8.598.31-.424 1.44 1.588 1.945 1.588 1.945s-2.286.114-2.385 1.501c-.088 1.264 1.495 1.548 1.495 1.548s-1.376.31-1.226 1.548c.176 1.486 3.027.599 4.512 1.945.331.31 10.439-5.537 10.439-5.537z"/></g><path d="M184.934 68.877c-2.066-.905-4.36-1.162-6.576-.738-.057 0-.072.062 0 .062a27.48 27.48 0 0 1 6.591.702s0-.021-.015-.026zm-.903 2.645a12.54 12.54 0 0 0-6.606-.346c-.057 0-.072.067 0 .062a29.46 29.46 0 0 1 6.622.31s0-.026-.016-.026z" class="B"/><path d="M192.141 81.991s-5.97 13.54-9.773 15.279-6.146 1.548-7.605 1.388c-.557-.104-1.087-.326-1.552-.65-4.071-2.58-11.629-12.064-14.785-17.461-2.364-4.051-2.333-7.843.973-6.801 1.123.405 2.172.993 3.104 1.739 6.208 4.644 13.404 9.02 13.724 8.829s3.446-5.784 3.446-5.784l12.468 3.462z" class="H"/><path d="M176.738 87.15a3.6 3.6 0 0 0 .258 1.79c.042-.303.042-.61 0-.913a3.16 3.16 0 0 0-.258-.877zm7.791 3.352c-.041.303-.041.61 0 .913a3.16 3.16 0 0 0 .249.877c.041-.303.041-.61 0-.913a3.26 3.26 0 0 0-.249-.877zm-13.736 3.266c-.042.303-.042.61 0 .913a3.12 3.12 0 0 0 .248.877c.074-.609-.015-1.227-.259-1.79h.011zm-3.772-13.303c-.041.303-.041.61 0 .913a3.19 3.19 0 0 0 .249.877c.041-.303.041-.61 0-.913a3.19 3.19 0 0 0-.249-.877zm-1.215 5.453a3.63 3.63 0 0 0 1.796-.258 3.4 3.4 0 0 0-.916 0 3.19 3.19 0 0 0-.88.258zm15.898 1.6a3.42 3.42 0 0 0 .915 0 3.24 3.24 0 0 0 .885-.243 3.02 3.02 0 0 0-.916 0 3.19 3.19 0 0 0-.884.243zm-8.101 4.728a3.02 3.02 0 0 0 .916 0 3.14 3.14 0 0 0 .879-.242 3.56 3.56 0 0 0-1.795.253v-.01zm15.386-9.424a3.19 3.19 0 0 0 .915 0c.305-.038.603-.12.885-.243-.304-.041-.612-.041-.916 0s-.602.12-.884.243zm-7.871 13.86a3.58 3.58 0 0 0 1.8-.253 3.02 3.02 0 0 0-.916 0 3.24 3.24 0 0 0-.884.253zM157.75 74.19a3.04 3.04 0 0 1-.786.227 1.43 1.43 0 0 1 .144-.242c.214-.023.43-.018.642.015zm15.113 9.632a3.33 3.33 0 0 0-.636.655c-.189.241-.34.509-.45.795a3.05 3.05 0 0 0 .636-.655 2.91 2.91 0 0 0 .45-.795zm7.465 7.571a3.32 3.32 0 0 0-.641.655 3.21 3.21 0 0 0-.45.795 3.1 3.1 0 0 0 .641-.655 3.21 3.21 0 0 0 .45-.795zm4.258-10.032a3.32 3.32 0 0 0-.642.65 3.24 3.24 0 0 0-.45.795 3.08 3.08 0 0 0 .642-.655c.186-.241.337-.507.45-.79zm-16.441 9.088a3.31 3.31 0 0 0-.637.655c-.188.241-.34.509-.45.795.481-.383.855-.882 1.087-1.45zm-5.622-12.736a3.17 3.17 0 0 0-.641.65 3.21 3.21 0 0 0-.45.795 3.29 3.29 0 0 0 .641-.65 3.39 3.39 0 0 0 .45-.795zm-.367 6.229a3.49 3.49 0 0 0-1.448-1.089 3.18 3.18 0 0 0 .652.64 3.44 3.44 0 0 0 .796.449zm26.414 2.983a3.09 3.09 0 0 0-.657-.64 3.25 3.25 0 0 0-.796-.449 3.54 3.54 0 0 0 1.453 1.089zm-8.129-2.441a3.16 3.16 0 0 0-.651-.635 3.13 3.13 0 0 0-.797-.449c.187.241.406.454.652.635.242.187.51.338.796.449zm-8.949 5a3.14 3.14 0 0 0-.652-.635 3.11 3.11 0 0 0-.796-.449 3.29 3.29 0 0 0 .651.635 3.35 3.35 0 0 0 .797.449zm5.387 7.455a3.35 3.35 0 0 0-.657-.635 2.94 2.94 0 0 0-.797-.449 3.19 3.19 0 0 0 .657.635 3.12 3.12 0 0 0 .797.449z" class="D"/><g class="B"><path d="M173.188 98.007c-4.072-2.58-11.63-12.064-14.786-17.461-2.364-4.051-2.333-7.843.973-6.801l13.813 24.262z" class="F"/><path d="M190.617 84.483c-.455-.222-4.744-1.62-5.691-1.904l-5.747-1.692c-.007.003-.013.007-.017.013s-.006.013-.006.02.002.014.006.02.01.011.017.013c.931.392 4.78 1.61 5.732 1.919l5.69 1.677c.042.005.047-.052.016-.067zM169.983 108.2c-.414.516-29.602 2.332-29.762 2.157-.44-.465 6.373-32.452 12.612-38.107 1.34-1.213 5.427-.263 6.555.63.709.562 2.545 4.407 3.833 7.611 2.566 6.419 7.129 27.255 6.762 27.709z"/></g><path d="M158.635 71.646c1.252.722 2.643 5.021.083 5.918s-5.484-2.962-5.996-4.262 3.218-3.21 5.913-1.656z" class="H"/><path d="M158.461 76.987c-1.609.397-4.397-2.033-5.514-4.009-.073-.139.119-1.579.274-3.338l.155-3.354 6.886 1.594c-.378 1.371-.585 2.784-.616 4.205a2.07 2.07 0 0 0 .052.444.5.5 0 0 0 0 .078c.155.851.315 3.994-1.237 4.381z" class="E"/><path d="M153.701 66.361c.227 1.367 1.319 6.244 5.297 6.295a5.02 5.02 0 0 0 .709-.046c.003-.026.003-.052 0-.077-.031-.146-.048-.295-.052-.444.038-1.422.248-2.834.626-4.205l-6.58-1.522z" class="B"/><path d="M153.027 57.755c-.905 2.374-.088 9.469 1.552 11.146 2.354 2.43 6.446 2.921 8.577.041 2.07-2.786.839-12.013-.998-13.56-2.721-2.281-7.796-1.14-9.131 2.374z" class="E"/><g class="B"><path d="M159.459 62.486s-.036 0-.031.047c.067.475.067 1.032-.352 1.238v.026c.528-.129.523-.867.383-1.311z"/><path d="M158.976 62.033c-.776.031-.668 1.579.052 1.548s.605-1.569-.052-1.548zm3.176.28s.037 0 .042.041c0 .48.119 1.032.564 1.156v.031c-.538-.041-.668-.789-.606-1.228z"/><path d="M162.548 61.781c.771-.108.937 1.435.228 1.548s-.874-1.45-.228-1.548zm-4.234-.408c.207-.072.388-.165.584-.253a1.03 1.03 0 0 0 .549-.377c.032-.065.041-.138.027-.209a.33.33 0 0 0-.105-.183.83.83 0 0 0-.828 0 1.19 1.19 0 0 0-.651.568c-.021.06-.026.125-.012.188a.36.36 0 0 0 .086.167c.043.047.1.081.161.098s.127.018.189.001z"/><path d="M163.108 61.304l-.626-.114c-.228-.012-.445-.097-.621-.242a.33.33 0 0 1 0-.402.81.81 0 0 1 .37-.211c.14-.036.288-.035.427.005a1.21 1.21 0 0 1 .766.402c.041.054.066.12.071.188a.35.35 0 0 1-.387.375zm-3.733 4.227a1.65 1.65 0 0 0 .504.443c.197.112.414.182.639.207a2.26 2.26 0 0 0 .59 0h.114l.103-.026a.11.11 0 0 0 .064-.041c.016-.021.025-.046.024-.072.003-.015.003-.031 0-.046v-.041c0-.371-.093-.929-.093-.929.14.057.854.32.828.129a24.6 24.6 0 0 0-.983-4.902c-.003-.009-.009-.017-.017-.023s-.017-.009-.027-.009-.019.003-.027.009-.014.014-.017.023c.14 1.548.548 3.039.714 4.582a2.64 2.64 0 0 0-.792-.181c-.051 0 .166 1.078.161 1.243a2.29 2.29 0 0 1-.908-.026 2.28 2.28 0 0 1-.825-.377c-.047-.036-.083 0-.052.036z"/><path d="M160.828 66.083a1.9 1.9 0 0 1-.781.583.87.87 0 0 1-.517 0c-.378-.103-.383-.454-.311-.753.043-.158.104-.31.181-.454a2.51 2.51 0 0 0 1.428.624z"/></g><path d="M160.047 66.666a.87.87 0 0 1-.517 0c-.378-.103-.383-.454-.311-.753a.9.9 0 0 1 .546.233c.15.137.25.32.282.521z" fill="#f392b9"/><path d="M154.61 63.362s-1.479-2.343-2.54-1.827 0 3.865 1.174 4.37c.148.076.31.121.476.133s.332-.01.489-.064a1.24 1.24 0 0 0 .425-.25c.123-.111.222-.246.292-.397l-.316-1.966z" class="E"/><path d="M152.392 62.492v.031c.38.212.712.5.973.848a3.1 3.1 0 0 1 .543 1.17.68.68 0 0 0-.184-.223c-.076-.06-.165-.103-.26-.127a.68.68 0 0 0-.555.107v.046c.152-.041.312-.034.459.02a.77.77 0 0 1 .364.279 3.55 3.55 0 0 1 .367.692c.036.082.176.046.15-.041.073-1.089-.698-2.642-1.857-2.802zm10.595-4.015c-2.323 1.471-5.339-.986-5.339-.986-.212.492-.58.902-1.047 1.167s-1.007.372-1.54.303c0 0-.579 3.813-1.593 3.772-1.552-.062-1.831-5.304-1.309-6.311a2.75 2.75 0 0 1 1.842-1.228 2.53 2.53 0 0 1 1.102-1.486c1.081-.764 4.656.444 4.656.444.225-.477.56-.894.977-1.218.1-.081.215-.141.339-.177a.96.96 0 0 1 .381-.03.95.95 0 0 1 .362.122.94.94 0 0 1 .284.254c-.203.277-.341.596-.403.934-.223 1.115.698 1.146.724.129a1.6 1.6 0 0 0-.321-1.063c.476-.645 1.226-.836 1.661-.464.838.676 1.159 4.613-.776 5.836z" class="B"/><g class="E"><path d="M150.156 74.835c-8.743 9.076-21.49 32.059-23.062 35.356-1.071 2.24 10.657 8.137 11.153 6.507.637-2.064 10.864-27.807 13.565-37.513 1.5-5.351.15-6.228-1.656-4.35z"/><path d="M138.801 115.159c-.409 1.114-1.801 5.851-2.778 6.439s-6.084.465-8.66.465-3.104-.718-3.042-1.605 5.447-1.032 5.447-1.032l-9.032 2.404c-1.816.341-6.001 1.389-6.607-.113-.269-.676.875-1.362.875-1.362s-1.754.516-2.034-.361c-.32-.991 1.076-1.548 1.076-1.548s-1.096.216-1.122-.589c-.057-1.806 6.808-2.693 6.808-2.693s-5.256 2.554-5.422 1.083c-.238-2.064 10.538-4.272 11.661-5.16.733-.616 1.342-1.365 1.795-2.208l11.035 6.28z"/></g><path d="M124.364 120.908c-.018-.126-.006-.254.037-.373s.113-.227.206-.313c.186-.17.4-.308.631-.408.476-.202.97-.361 1.474-.475l3.104-.707a12.76 12.76 0 0 0-3.181.356 5.86 5.86 0 0 0-1.521.578 2 2 0 0 0-.631.547c-.088.111-.145.242-.165.382a.81.81 0 0 0 .046.413zm-9.358-.573l2.204-.599 2.188-.655 2.173-.681 2.183-.666a15.96 15.96 0 0 0-2.256.403l-2.209.598-2.162.738-2.121.862zm7.002-4.401a14.03 14.03 0 0 0-2.07.289c-.688.136-1.368.308-2.038.516a18.16 18.16 0 0 0-1.971.737c-.645.275-1.269.596-1.867.96l1.971-.702 1.976-.65 1.997-.598 2.002-.552zm-1.059-1.719c-2.271.202-4.457.957-6.368 2.198l3.166-1.135 3.202-1.063z" class="B"/><path d="M151.704 81.702c-2.069 8.896-11.987 33.231-11.987 33.231l-13.399-6.445s15.298-23.839 21.547-31.636c.487-.599.926-1.115 1.33-1.548 3.875-4.128 4.113-.465 2.509 6.398z" class="H"/><path d="M140.456 112.287c-5.24-3.039-11.21-5.434-12.219-5.924-.047 0-.078.057-.031.078 1.035.433 7.543 3.906 12.219 5.928.068.021.068-.082.031-.082z" class="B"/><path d="M142.339 86.93c-.041.303-.041.61 0 .913s.12.598.243.877a2.94 2.94 0 0 0 0-.908c-.038-.304-.12-.601-.243-.882zm4.121 7.812c-.041.303-.041.61 0 .913a3.22 3.22 0 0 0 .243.877c.047-.303.047-.611 0-.913a3.08 3.08 0 0 0-.243-.877zm-10.38 12.338c-.042.301-.042.607 0 .908a3.34 3.34 0 0 0 .248.883 3.33 3.33 0 0 0 0-.914 3.12 3.12 0 0 0-.248-.877zm.316-13.531a2.94 2.94 0 0 0 0 .908c.038.304.12.601.243.882.044-.303.044-.61 0-.913a3.15 3.15 0 0 0-.243-.877zm-3.147 5.701c-.041.303-.041.61 0 .913a3.26 3.26 0 0 0 .243.883 2.98 2.98 0 0 0 0-.914 3.19 3.19 0 0 0-.243-.882zm13.972-20.84a3.19 3.19 0 0 0 .915 0 3.15 3.15 0 0 0 .88-.243 3.39 3.39 0 0 0-.911 0 3.23 3.23 0 0 0-.884.243zm.085 8.865a3.63 3.63 0 0 0 1.796-.258 3.4 3.4 0 0 0-.916 0 3.19 3.19 0 0 0-.88.258zm-8.074 4.752a3.39 3.39 0 0 0 .911 0 3.23 3.23 0 0 0 .884-.248 3.19 3.19 0 0 0-.915 0c-.304.039-.6.123-.88.248zm-8.051 17.954a3.39 3.39 0 0 0 .911 0 3.45 3.45 0 0 0 .885-.243c-.304-.047-.613-.047-.916 0a3.13 3.13 0 0 0-.88.243zm8.407.296a3.3 3.3 0 0 0 .91 0 3.24 3.24 0 0 0 .885-.242c-.304-.047-.612-.047-.916 0-.303.038-.6.119-.879.242zm2.457-8.873a3.42 3.42 0 0 0 .915 0c.304-.04.6-.124.88-.248-.304-.041-.612-.041-.916 0a3.32 3.32 0 0 0-.879.248zm-7.986 2.42a3.3 3.3 0 0 0-.637.656 2.94 2.94 0 0 0-.45.794 3.19 3.19 0 0 0 .637-.655c.188-.241.34-.509.45-.795zm11.879-12.648a3.28 3.28 0 0 0-.637.65c-.187.242-.338.51-.45.795a3.13 3.13 0 0 0 .636-.65 3.01 3.01 0 0 0 .451-.795zm4.246-10.037a3.19 3.19 0 0 0-.637.655c-.188.241-.34.509-.45.795a3.19 3.19 0 0 0 .637-.655 2.96 2.96 0 0 0 .45-.795zm-12.278 16.668c-.244.185-.46.404-.641.65a3.43 3.43 0 0 0-.45.795 3.17 3.17 0 0 0 .641-.65c.186-.243.338-.51.45-.795zm3.653 7.822a3.35 3.35 0 0 0-.642.655 3.25 3.25 0 0 0-.45.795c.484-.381.86-.88 1.092-1.45zm-11.028.85a3.54 3.54 0 0 0-1.453-1.088 3.54 3.54 0 0 0 1.453 1.088zm7.375 6.431c-.187-.242-.408-.456-.657-.635-.24-.19-.509-.342-.796-.449.187.242.408.456.657.635a3.11 3.11 0 0 0 .796.449zm.742-9.345a3.53 3.53 0 0 0-1.453-1.088c.188.242.409.457.657.639s.511.338.796.449zm7.391-19.298a3.19 3.19 0 0 0-.652-.64 3.25 3.25 0 0 0-.796-.449 3.09 3.09 0 0 0 .657.64c.241.185.508.336.791.449zm6.145-7.405a3.2 3.2 0 0 0-.652-.64 3.38 3.38 0 0 0-.797-.449c.185.244.405.459.652.64a3.43 3.43 0 0 0 .797.449zm-9.707 19.862a3.35 3.35 0 0 0-.652-.64c-.245-.184-.513-.335-.797-.449a3.19 3.19 0 0 0 .652.64c.247.181.512.335.797.449z" class="D"/><defs ><path id="B" d="M62.07 59.766h-4.527v6.192h4.527v-6.192z"/><path id="C" d="M218.749 70.576h-4.526v5.165h4.526v-5.165z"/><path id="D" d="M226.589 70.576h-4.527v5.165h4.527v-5.165z"/><path id="E" d="M117.811 73.719H91.758v3.875h26.053v-3.875z"/><path id="F" d="M305.367 67.131h-23.953v3.875h23.953v-3.875z"/><path id="G" d="M344.1 76.205h-25.303v3.875H344.1v-3.875z"/><path id="H" d="M191.619 61.484h-8.045v3.741h8.045v-3.741z"/><path id="I" d="M202.564 61.484h-8.044v3.741h8.044v-3.741z"/><path id="J" d="M139.275 34.555h-8.38v5.898h8.38v-5.898z"/><path id="K" d="M151.768 34.555h-8.381v5.898h8.381v-5.898z"/><path id="L" d="M353.468 43.816h-4.527v6.089h4.527v-6.089z"/><path id="M" d="M137.493 152.961a14.5 14.5 0 0 1 0 5.454 14.5 14.5 0 0 1 0-5.454z"/><path id="N" d="M178.024 152.961c.184.898.271 1.813.259 2.73.014.914-.073 1.828-.259 2.724a14.5 14.5 0 0 1 0-5.454z"/></defs></svg>