<svg xmlns="http://www.w3.org/2000/svg" xmlns:xlink="http://www.w3.org/1999/xlink" width="56" height="32" fill="none" xmlns:v="https://vecta.io/nano"><rect width="56" height="32" rx="4" fill="#fff"/><path d="M10.104 12.016h1.509l-.754-1.92-.754 1.92z" fill="#2fabf7"/><path d="M28.824 10.369c-.137-.069-.343-.069-.549-.069h-1.371v1.097h1.371c.206 0 .412 0 .549-.069s.206-.274.206-.48c.069-.274-.069-.411-.206-.48z" fill="#228fe0"/><path d="M43.498 8.313v.823l-.411-.823h-3.223v.823l-.411-.823h-4.389c-.754 0-1.371.137-1.92.411v-.411h-3.086v.411c-.343-.274-.754-.411-1.303-.411h-11.04l-.754 1.714-.754-1.714h-3.497v.823l-.412-.823H9.349l-1.371 3.223L6.4 15.101h3.497l.411-1.097h.96l.411 1.097h3.977v-.823l.343.823h1.989l.343-.823v.823h9.531v-1.783H28c.137 0 .137 0 .137.206v1.509h4.937v-.411c.411.206 1.029.411 1.851.411h2.057l.412-1.097h.96l.411 1.097h3.977v-1.029l.617 1.029h3.223v-6.72h-3.086zm-23.177 5.76h-1.166v-3.771l-1.646 3.771H16.48l-1.646-3.771v3.771h-2.331l-.48-1.029H9.692l-.411 1.097H7.978l2.057-4.869h1.714l1.92 4.594V9.273h1.851l1.509 3.291L18.4 9.273h1.92v4.8zm4.663-3.771h-2.674v.891h2.606v.96h-2.606v.96h2.674v1.029h-3.84V9.273h3.84v1.029zm5.143 1.989c.137.274.206.48.206.892v.96h-1.166v-.617c0-.274 0-.686-.206-.96-.206-.206-.411-.206-.823-.206h-1.234v1.783h-1.166V9.273h2.606c.617 0 1.029 0 1.372.206s.549.549.549 1.097c0 .754-.48 1.166-.823 1.303.343.069.549.274.686.411zm2.057 1.783h-1.166V9.204h1.166v4.869zm13.509 0h-1.646l-2.194-3.634v3.634H39.52l-.412-1.029h-2.4l-.412 1.097h-1.303c-.549 0-1.234-.137-1.646-.549s-.617-.96-.617-1.851c0-.686.137-1.371.617-1.92.343-.411.96-.549 1.714-.549h1.097v1.029h-1.097c-.411 0-.617.069-.891.274-.206.206-.343.617-.343 1.097 0 .549.069.891.343 1.166.206.206.48.274.823.274h.48l1.577-3.771h1.714l1.92 4.594V9.341H42.4l1.989 3.36v-3.36h1.166v4.731h.137z" fill="#0571c1"/><path d="M37.119 12.016h1.577l-.754-1.92-.823 1.92zm-11.656 9.875v-3.909l-1.783 1.92 1.783 1.989z" fill="#228fe0"/><path d="M18.125 18.461v.892h2.537v.96h-2.537v1.029h2.811l1.303-1.44-1.234-1.44h-2.88z" fill="#2fabf7"/><path d="M28.069 18.461h-1.44v1.234h1.509c.411 0 .686-.206.686-.617-.069-.411-.343-.617-.754-.617z" fill="#228fe0"/><path d="M49.257 19.627v-3.086h-2.88c-.617 0-1.097.137-1.44.411v-.411h-3.154c-.48 0-1.097.137-1.371.411v-.411h-5.554v.411c-.411-.343-1.166-.411-1.509-.411h-3.703v.411c-.343-.343-1.166-.411-1.577-.411h-4.114l-.96 1.029-.891-1.029h-6.172v6.72h6.034l.96-1.029.892 1.029h3.703v-1.577H28c.48 0 1.097 0 1.577-.206v1.851h3.086v-1.783h.137c.206 0 .206 0 .206.206v1.577h9.326c.617 0 1.234-.137 1.577-.411v.411h2.949c.617 0 1.234-.069 1.646-.343.686-.411 1.097-1.166 1.097-2.057 0-.48-.137-.96-.343-1.303zM28 20.724h-1.371v1.646h-2.194l-1.371-1.577-1.44 1.577h-4.526v-4.869h4.594l1.371 1.577 1.44-1.577h3.634c.891 0 1.92.274 1.92 1.577-.069 1.371-1.029 1.646-2.057 1.646zm6.857-.274c.137.206.206.48.206.891v.96h-1.166v-.617c0-.274 0-.754-.206-.96-.137-.206-.411-.206-.823-.206h-1.234v1.783h-1.166v-4.869h2.606c.549 0 1.029 0 1.371.206a1.21 1.21 0 0 1 .617 1.097c0 .754-.48 1.166-.823 1.303.343.137.549.274.617.411zm4.731-1.989h-2.674v.891h2.606v.96h-2.606v.96h2.674v1.029h-3.84v-4.869h3.84v1.029zm2.88 3.84h-2.194v-1.029h2.194c.206 0 .343 0 .48-.137.069-.069.137-.206.137-.343s-.069-.274-.137-.343-.206-.137-.411-.137c-1.097-.069-2.4 0-2.4-1.509 0-.686.411-1.44 1.646-1.44h2.263v1.166H41.92c-.206 0-.343 0-.48.069s-.137.206-.137.343c0 .206.137.274.274.343s.274.069.411.069h.617c.617 0 1.029.137 1.303.412.206.206.343.549.343 1.029 0 1.029-.617 1.509-1.783 1.509zm5.897-.48c-.274.274-.754.48-1.44.48h-2.194v-1.029h2.194c.206 0 .343 0 .48-.137.069-.069.137-.206.137-.343s-.069-.274-.137-.343-.206-.137-.411-.137c-1.097-.069-2.4 0-2.4-1.509 0-.686.411-1.44 1.646-1.44h2.263v1.166h-2.057c-.206 0-.343 0-.48.069s-.137.206-.137.343c0 .206.069.274.274.343.137.069.274.069.411.069h.617c.617 0 1.029.137 1.303.412.069 0 .069.069.069.069.206.274.274.617.274.96 0 .412-.137.754-.411 1.029z" fill="#0571c1"/><g fill="#228fe0"><use xlink:href="#B"/><path d="M28.822 10.369c-.137-.069-.343-.069-.548-.069h-1.372v1.097h1.372c.206 0 .411 0 .548-.069s.206-.274.206-.48c.069-.274-.069-.411-.206-.48zm8.297 1.647h1.577l-.754-1.92-.823 1.92zm-11.656 9.875v-3.909l-1.783 1.92 1.783 1.989zm2.606-3.43h-1.44v1.234h1.509c.411 0 .686-.206.686-.617-.069-.411-.343-.617-.754-.617z"/><use xlink:href="#B"/></g><path d="M27.589 22.164l-.96-1.029v1.166h-2.263l-1.371-1.577-1.509 1.577H16.96v-4.8h4.594l1.44 1.577.686-.823-1.714-1.714h-6.034v6.72h6.034l1.029-1.029.891 1.029h3.703v-1.097zm-7.131-7.131l-.891-.96h-.411v-.411l-1.029-1.029-.686 1.44h-.96l-1.646-3.771v3.771h-2.331l-.48-1.029H9.692l-.48 1.029H7.978l2.057-4.8h1.714l1.92 4.594V9.273h1.028l-.96-.96h-1.029v.823l-.343-.823H9.349l-1.371 3.223L6.4 15.033h3.566l.411-1.029h.96l.48 1.029h3.84v-.823l.343.823h1.989l.343-.823v.823h2.126zm-3.154-3.155l-1.097-1.097.823 1.783.274-.686z" fill="#2fabf7"/><path d="M48.504 22.919a2.51 2.51 0 0 0 1.097-1.851l-.96-.96c.069.206.137.411.137.686 0 .411-.137.754-.411 1.029s-.754.48-1.44.48h-2.194v-1.029h2.194c.206 0 .343 0 .48-.137.069-.069.137-.206.137-.343a.53.53 0 0 0-.137-.343c-.068-.069-.206-.137-.411-.137-1.097-.069-2.4 0-2.4-1.509 0-.686.411-1.303 1.44-1.44l-.754-.754c-.137.069-.206.137-.274.137v-.412h-3.154c-.48 0-1.097.137-1.371.412v-.412H34.86v.412c-.411-.343-1.166-.412-1.509-.412h-3.703v.412c-.343-.343-1.166-.412-1.577-.412h-4.114l-.96 1.029-.891-1.029h-.754l2.057 2.057 1.029-1.097h3.634c.891 0 1.92.274 1.92 1.577 0 1.371-.96 1.646-1.989 1.646H26.63v1.029l1.029 1.029v-1.029h.343c.48 0 1.097 0 1.577-.206v1.852h3.086V21.41h.137c.206 0 .206 0 .206.206v1.577h9.326c.617 0 1.234-.137 1.577-.411v.411h2.949c.549.069 1.166 0 1.646-.274zM34.858 20.45c.137.206.206.48.206.891v.96h-1.166v-.617c0-.274 0-.754-.206-.96-.137-.206-.412-.206-.823-.206h-1.234v1.783H30.47v-4.869h2.606c.549 0 1.029 0 1.371.206a1.21 1.21 0 0 1 .617 1.097c0 .754-.48 1.166-.823 1.303.343.137.549.274.617.411zm4.731-1.989h-2.674v.892h2.606v.96h-2.606v.96h2.674v1.029h-3.84v-4.869h3.84v1.029zm2.88 3.84h-2.194v-1.029h2.194c.206 0 .343 0 .48-.137.069-.069.137-.206.137-.343a.53.53 0 0 0-.137-.343c-.068-.069-.206-.137-.411-.137-1.097-.069-2.4 0-2.4-1.509 0-.686.411-1.44 1.646-1.44h2.263v1.166h-2.126c-.206 0-.343 0-.48.069s-.137.206-.137.343c0 .206.137.274.274.343s.274.069.411.069h.617c.617 0 1.029.137 1.303.411.206.206.343.549.343 1.029 0 1.029-.617 1.509-1.783 1.509zm3.291-3.358c0 .206.069.274.274.343.137.069.274.069.411.069h.617c.411 0 .686.069.96.206l-1.028-1.029h-.617c-.206 0-.343 0-.48.069-.069.069-.137.206-.137.343zm-2.399-4.115l.137.206h.069l-.206-.206zm-3.771-3.771l1.166 2.812v-1.646l-1.166-1.166zm-11.726 2.261h.137c.137 0 .137 0 .137.206v1.509h4.937v-.411c.411.206 1.029.411 1.851.411h2.057l.412-1.097h.96l.411 1.097h3.977v-.686l-.96-.96v.754h-2.331l-.343-1.097h-2.4l-.411 1.097h-1.303c-.549 0-1.234-.137-1.646-.549s-.617-.96-.617-1.851c0-.686.137-1.371.617-1.92.343-.411.96-.549 1.714-.549h1.097v1.029h-1.097c-.411 0-.617.069-.891.274-.206.206-.343.617-.343 1.097 0 .549.069.891.343 1.166.206.206.48.274.823.274h.48l1.577-3.771h.686l-.96-.96h-1.783c-.754 0-1.371.137-1.92.411v-.411h-3.017v.411c-.343-.274-.754-.411-1.303-.411h-11.04l-.754 1.714-.754-1.714H13.19l.96.96h1.371l1.166 2.537.411.411 1.234-3.017h1.92v4.869h-1.166V10.37l-1.166 2.743 1.989 1.989h7.886l.069-1.783zm3.154-4.046h1.166v4.869h-1.166V9.272zm-6.034 1.029H22.31v.891h2.606v.96H22.31v.96h2.674v1.029h-3.84V9.272h3.84v1.029zm1.92 3.771h-1.166V9.204h2.606c.617 0 1.029 0 1.372.206s.549.549.549 1.097c0 .754-.48 1.166-.823 1.303a.9.9 0 0 1 .549.412c.137.274.206.48.206.891v.96h-1.166v-.617c0-.274 0-.686-.206-.96-.069-.137-.274-.137-.686-.137h-1.234v1.714z" fill="#228fe0"/><defs ><path id="B" d="M33.623 18.598c-.137-.069-.343-.069-.549-.069h-1.371v1.097h1.371c.206 0 .411 0 .549-.069s.206-.274.206-.48c.069-.274-.069-.412-.206-.48z"/></defs></svg>