<svg xmlns="http://www.w3.org/2000/svg" width="56" height="32" fill="none"  xmlns:v="https://vecta.io/nano"><rect width="56" height="32" rx="4" fill="#fff"/><path d="M28 23.858c2.22-1.986 3.622-4.907 3.622-8.178S30.219 9.547 28 7.503a11.02 11.02 0 0 0-7.36-2.862c-6.075 0-11.04 4.965-11.04 11.04s4.965 10.982 11.04 10.982c2.804.058 5.432-1.051 7.36-2.804z" fill="#07a9e2"/><path d="M9.6 15.681c0 6.075 4.965 10.982 11.04 10.982 2.862 0 5.432-1.051 7.36-2.862 2.22-1.986 3.622-4.907 3.622-8.178S30.219 9.547 28 7.503a11.02 11.02 0 0 0-7.36-2.862" fill="#009ddd"/><path d="M27.999 7.503a11.02 11.02 0 0 0-7.36-2.862h-.526c-3.446 2.512-5.666 6.542-5.666 11.04s2.22 8.528 5.608 10.982h.526c2.862 0 5.432-1.051 7.36-2.862 2.22-1.986 3.622-4.907 3.622-8.178s-1.344-6.075-3.563-8.119z" fill="#0284cc"/><path d="M35.418 4.641c-2.862 0-5.432 1.051-7.418 2.862-.409.35-.759.759-1.11 1.168h2.22a8.35 8.35 0 0 1 .818 1.168h-3.914l-.643 1.168h5.199c.175.409.35.759.467 1.168h-6.075l-.351 1.168h6.776c.175.759.234 1.519.234 2.337 0 1.227-.175 2.395-.584 3.505h-6.075c.117.409.292.759.467 1.168h5.199a7.48 7.48 0 0 1-.643 1.168h-3.914a8.36 8.36 0 0 0 .818 1.168h2.22c-.351.409-.701.818-1.11 1.168 1.986 1.752 4.556 2.862 7.418 2.862a10.97 10.97 0 0 0 10.982-10.982c0-6.133-4.907-11.098-10.982-11.098z" fill="#ff2957"/><path d="M35.418 4.641c-2.862 0-5.432 1.051-7.418 2.862-.409.35-.759.759-1.11 1.168h2.22a8.35 8.35 0 0 1 .818 1.168h-3.914l-.643 1.168h5.199c.175.409.35.759.467 1.168h-6.075l-.351 1.168h6.776c.175.759.234 1.519.234 2.337 0 1.227-.175 2.395-.584 3.505h-6.075c.117.409.292.759.467 1.168h5.199a7.48 7.48 0 0 1-.643 1.168h-3.914a8.36 8.36 0 0 0 .818 1.168h2.22c-.351.409-.701.818-1.11 1.168 1.986 1.752 4.556 2.862 7.418 2.862a10.97 10.97 0 0 0 10.982-10.982" fill="#ed1c2e"/><path d="M28 23.858c2.22-1.986 3.622-4.907 3.622-8.178S30.22 9.546 28 7.502v16.356z" fill="#0466b5"/><path d="M42.604 18.075a.38.38 0 0 1 .351-.351.38.38 0 0 1 .35.351.38.38 0 0 1-.35.351.38.38 0 0 1-.351-.351zm.351.292c.175 0 .234-.117.234-.292s-.117-.234-.234-.234c-.175 0-.292.117-.292.234a.38.38 0 0 0 .292.292zm0-.175h-.058V17.9h.175l.058.059c0 .058 0 .058-.058.058l.058.117h-.058l-.058-.117h-.058v.175zm0-.175h.058v-.058h-.058v.058z" fill="#fff"/><path d="M27.999 7.502c-.409.35-.759.759-1.11 1.168h2.22a8.35 8.35 0 0 1 .818 1.168h-3.914l-.643 1.168h5.199c.175.409.35.759.467 1.168h-6.075l-.351 1.168h6.776c.175.759.234 1.519.234 2.337 0 1.227-.175 2.395-.584 3.505h-6.075c.117.409.292.759.467 1.168h5.199a7.48 7.48 0 0 1-.643 1.168h-3.914a8.36 8.36 0 0 0 .818 1.168h2.22c-.351.409-.701.818-1.11 1.168 1.986 1.752 4.556 2.862 7.418 2.862h.526c3.388-2.453 5.608-6.484 5.608-10.981s-2.22-8.528-5.608-10.982h-.526c-2.862-.117-5.432.993-7.418 2.745z" fill="#d1094b"/><path d="M19.237 18.426h-1.402l.818-4.264-1.869 4.264h-1.227l-.234-4.264-.818 4.264h-1.227l1.051-5.608h2.161l.117 3.505 1.519-3.505h2.22l-1.11 5.608z" fill="#fff"/><path d="M17.894 15.971l.818-1.811-.642 3.388c.058.292.117.643.234.935h.935l1.052-5.608h-2.044c-.234.876-.409 1.869-.409 2.862.059.058.058.117.058.234zm16.649 2.395c-.409.117-.642.175-.993.175-.701 0-1.052-.35-1.052-.993 0-.117 0-.234.059-.409l.058-.467.058-.35.643-3.446h1.343l-.175 1.051h.701l-.175 1.052h-.701l-.35 1.869c0 .058-.058.175-.058.175 0 .234.175.351.467.351.175 0 .292 0 .35-.058l-.175 1.051zm4.03-4.441c-.117-.058-.117-.058-.175-.058s-.117 0-.117-.058h-.175c-.467 0-.759.175-1.168.759l.117-.701h-1.227l-.818 4.556h1.402c.467-2.804.701-3.271 1.343-3.271h.175l.175.058.467-1.285zm-9.463 1.402c0 .584.351.993 1.051 1.227.584.234.643.292.643.526 0 .292-.234.409-.818.409a4.44 4.44 0 0 1-1.227-.175l-.175 1.051h.058l.234.058h.351a4.22 4.22 0 0 0 .759.058c1.46 0 2.161-.467 2.161-1.519 0-.643-.292-.993-.993-1.285-.584-.234-.642-.292-.642-.467 0-.234.234-.351.701-.351.234 0 .643 0 .993.058l.175-1.051c-.351-.058-.876-.058-1.227-.058-1.519 0-2.044.701-2.044 1.519zm-5.432 3.098h-1.11v-.467c-.35.35-.818.526-1.46.526a1.16 1.16 0 0 1-1.227-1.227c0-1.11.876-1.752 2.395-1.752h.584c.058-.175.058-.234.058-.292 0-.292-.234-.409-.876-.409-.409 0-.818.058-1.11.117l-.175.058h-.117l.175-.993c.701-.175 1.11-.234 1.636-.234 1.168 0 1.811.467 1.811 1.343 0 .234 0 .409-.117.935l-.292 1.636-.058.292-.058.234v.175l-.058.058zm-.993-2.044h-.292c-.759 0-1.168.234-1.168.701 0 .292.175.467.467.467.584 0 .993-.467.993-1.168zm5.491 1.927c-.467.117-.935.175-1.402.175-1.519 0-2.337-.701-2.337-2.044 0-1.577.993-2.687 2.395-2.687 1.11 0 1.811.643 1.811 1.635 0 .351-.058.643-.175 1.11h-2.745v.175c0 .526.409.818 1.168.818.526 0 .935-.058 1.402-.292l-.117 1.11zm-.701-2.687v-.234c0-.35-.234-.584-.643-.584s-.759.292-.876.818h1.519z" fill="#dce5e5"/><g fill="#fff"><path d="M42.837 16.381c-.234 1.519-1.285 2.161-2.687 2.161-1.519 0-2.161-.935-2.161-2.103 0-1.577 1.051-2.687 2.687-2.687 1.402 0 2.161.935 2.161 2.044v.584zm-1.46-.584c0-.467-.175-.876-.759-.876-.701 0-1.11.818-1.11 1.577 0 .584.292.993.759.993.292 0 .935-.409 1.051-1.11.058-.234.058-.409.058-.584z"/><path d="M38.048 16.966c.058-.409.117-.876.117-1.285v-.117c-.058.292-.117.584-.117.935-.058.117-.058.292 0 .467z"/></g><defs /></svg>