<svg xmlns="http://www.w3.org/2000/svg" width="56" height="32" fill="none"  xmlns:v="https://vecta.io/nano"><rect width="56" height="32" rx="4" fill="#fff"/><path d="M46.4 15.681c0 6.075-4.907 11.04-11.04 11.04-6.075 0-11.04-4.965-11.04-11.04s4.907-11.04 10.981-11.04c6.192 0 11.098 4.965 11.098 11.04z" fill="#ffb600"/><path d="M35.36 4.641c6.075 0 11.04 4.965 11.04 11.04s-4.907 11.04-11.04 11.04c-6.075 0-11.04-4.965-11.04-11.04" fill="#f7981d"/><path d="M35.359 4.641c6.075 0 11.04 4.965 11.04 11.04s-4.907 11.04-11.04 11.04" fill="#ff8500"/><path d="M20.523 4.641C14.506 4.699 9.6 9.606 9.6 15.681s4.907 11.04 11.04 11.04c2.862 0 5.432-1.11 7.418-2.862.409-.35.759-.759 1.11-1.168H26.89c-.292-.351-.584-.759-.818-1.11h3.914c.234-.351.467-.759.643-1.168h-5.199c-.175-.35-.35-.759-.467-1.168h6.075c.35-1.11.584-2.278.584-3.505 0-.818-.117-1.577-.234-2.336h-6.776c.058-.409.175-.759.292-1.168h6.075c-.117-.409-.292-.818-.467-1.168h-5.14c.175-.409.409-.759.643-1.168h3.913c-.234-.409-.526-.818-.876-1.168H26.89c.35-.409.701-.759 1.11-1.11-1.928-1.811-4.556-2.862-7.418-2.862 0-.117 0-.117-.058-.117z" fill="#ff5050"/><path d="M9.6 15.681c0 6.075 4.907 11.04 11.04 11.04 2.862 0 5.432-1.11 7.418-2.862.409-.351.759-.759 1.11-1.168H26.89c-.292-.351-.584-.759-.818-1.11h3.914a7.48 7.48 0 0 0 .643-1.168h-5.199c-.175-.351-.35-.759-.467-1.168h6.075c.35-1.11.584-2.278.584-3.505 0-.818-.117-1.577-.234-2.336h-6.776c.058-.409.175-.759.292-1.168h6.075c-.117-.409-.292-.818-.467-1.168h-5.14c.175-.409.409-.759.643-1.168h3.913c-.234-.409-.526-.818-.876-1.168H26.89c.35-.409.701-.759 1.11-1.11-1.928-1.811-4.556-2.862-7.418-2.862h-.058" fill="#e52836"/><path d="M20.64 26.721c2.862 0 5.432-1.11 7.418-2.862.409-.351.759-.759 1.11-1.168H26.89c-.292-.351-.584-.759-.818-1.11h3.914a7.48 7.48 0 0 0 .642-1.168H25.43c-.175-.351-.35-.759-.467-1.168h6.075c.35-1.11.584-2.278.584-3.505 0-.818-.117-1.577-.234-2.336h-6.776c.058-.409.175-.759.292-1.168h6.075c-.117-.409-.292-.818-.467-1.168h-5.14c.175-.409.409-.759.643-1.168h3.914a5.56 5.56 0 0 0-.876-1.168H26.89c.351-.409.701-.759 1.11-1.11-1.928-1.811-4.556-2.862-7.418-2.862h-.058" fill="#cb2026"/><g fill="#fff"><path d="M24.551 18.484l.175-.993c-.058 0-.175.058-.292.058-.409 0-.467-.234-.409-.351l.35-2.044h.643l.175-1.11h-.584l.117-.701h-1.168l-.701 4.322c0 .701.409.993.935.993.35 0 .642-.117.759-.175z"/><path d="M24.961 16.614c0 1.636 1.11 2.044 2.045 2.044.876 0 1.227-.175 1.227-.175l.234-1.11s-.642.292-1.227.292c-1.285 0-1.051-.935-1.051-.935h2.395s.175-.759.175-1.051c0-.759-.409-1.694-1.694-1.694-1.227-.117-2.103 1.168-2.103 2.628zm2.045-1.694c.642 0 .526.759.526.818h-1.285c0-.058.117-.818.759-.818zm7.418 3.564l.234-1.285s-.584.292-.993.292c-.818 0-1.168-.642-1.168-1.343 0-1.402.701-2.161 1.519-2.161.584 0 1.051.351 1.051.351l.175-1.227s-.701-.292-1.343-.292c-1.343 0-2.687 1.168-2.687 3.388 0 1.46.701 2.453 2.103 2.453.467 0 1.11-.175 1.11-.175zm-16.296-4.615c-.818 0-1.402.234-1.402.234l-.175.993s.526-.234 1.285-.234c.409 0 .759.059.759.409 0 .234-.058.292-.058.292h-.526c-.993 0-2.103.409-2.103 1.752 0 1.052.701 1.285 1.11 1.285.818 0 1.168-.526 1.227-.526l-.058.467h1.051l.467-3.213c0-1.402-1.168-1.46-1.577-1.46zm.234 2.629c0 .175-.117 1.11-.818 1.11-.35 0-.467-.292-.467-.467 0-.292.175-.701 1.052-.701a.92.92 0 0 0 .234.058zm2.452 2.104c.292 0 1.752.058 1.752-1.519 0-1.46-1.402-1.168-1.402-1.752 0-.292.234-.409.643-.409.175 0 .818.058.818.058l.175-1.051s-.409-.117-1.11-.117c-.876 0-1.752.351-1.752 1.519 0 1.344 1.46 1.227 1.46 1.752 0 .35-.409.409-.701.409-.526 0-1.051-.175-1.051-.175l-.175 1.051c.058.117.351.234 1.343.234z"/><path d="M44.121 12.936l-.234 1.577s-.467-.584-1.11-.584c-1.051 0-1.986 1.285-1.986 2.804 0 .935.467 1.928 1.46 1.928.701 0 1.11-.467 1.11-.467l-.058.409h1.168l.876-5.608-1.227-.059zm-.526 3.096c0 .642-.292 1.46-.935 1.46-.409 0-.643-.351-.643-.935 0-.935.409-1.519.934-1.519.409 0 .643.292.643.993zM11.76 18.543l.701-4.206.117 4.206h.818l1.519-4.206-.643 4.206h1.227l.935-5.608h-1.928l-1.168 3.446-.058-3.446h-1.694l-.935 5.608h1.11zm18.107 0c.351-1.928.409-3.505 1.227-3.213.117-.759.292-1.051.409-1.344h-.234c-.526 0-.935.701-.935.701l.117-.643h-1.11l-.759 4.556h1.285v-.058zm7.243-4.674c-.818 0-1.402.234-1.402.234l-.175.993s.526-.234 1.285-.234c.409 0 .759.059.759.409 0 .234-.058.292-.058.292h-.526c-.993 0-2.103.409-2.103 1.752 0 1.052.701 1.285 1.11 1.285.818 0 1.168-.526 1.227-.526l-.058.467h1.051l.467-3.213c.058-1.402-1.168-1.46-1.577-1.46zm.292 2.629c0 .175-.117 1.11-.818 1.11-.351 0-.467-.292-.467-.467 0-.292.175-.701 1.051-.701.175.058.175.058.234.058zm2.28 2.045c.35-1.928.409-3.505 1.227-3.213.117-.759.292-1.051.409-1.344h-.234c-.526 0-.935.701-.935.701l.117-.643h-1.11l-.759 4.556h1.285v-.058z"/></g><g fill="#dce5e5"><path d="M22.742 17.666c0 .701.409.993.935.993.409 0 .759-.117.876-.175l.175-.993c-.058 0-.175.058-.292.058-.409 0-.467-.234-.409-.351l.351-2.044h.643l.175-1.11h-.584l.117-.701m.816 3.271c0 1.636.526 2.044 1.46 2.044.876 0 1.227-.175 1.227-.175l.234-1.11s-.642.292-1.227.292c-1.285 0-1.051-.935-1.051-.935h2.395s.175-.759.175-1.051c0-.759-.409-1.694-1.694-1.694-1.227-.117-1.519 1.168-1.519 2.628zm1.46-1.694c.643 0 .759.759.759.818h-1.519c0-.058.117-.818.759-.818zm7.419 3.564l.234-1.285s-.584.292-.993.292c-.818 0-1.168-.642-1.168-1.343 0-1.402.701-2.161 1.519-2.161.584 0 1.051.351 1.051.351l.175-1.227s-.701-.292-1.343-.292c-1.343 0-2.103 1.168-2.103 3.388 0 1.46.117 2.453 1.519 2.453.467 0 1.11-.175 1.11-.175zm-17.873-3.329s.526-.234 1.285-.234c.409 0 .759.058.759.409 0 .234-.058.292-.058.292h-.526c-.993 0-2.103.409-2.103 1.752 0 1.051.701 1.285 1.11 1.285.818 0 1.168-.526 1.227-.526l-.058.467h1.051l.467-3.213c0-1.343-1.168-1.402-1.636-1.402l-1.519 1.168zm2.395 1.343c0 .175-.701 1.11-1.402 1.11-.35 0-.467-.292-.467-.467 0-.292.175-.701 1.052-.701.175.058.818.058.818.058z"/><path d="M19.529 18.486s.351.117 1.344.117c.292 0 1.752.058 1.752-1.519 0-1.46-1.402-1.168-1.402-1.752 0-.292.234-.409.643-.409.175 0 .818.058.818.058l.175-1.051s-.409-.117-1.11-.117c-.876 0-1.168.351-1.168 1.519 0 1.344.876 1.227.876 1.752 0 .35-.409.409-.701.409m23.131-2.98s-.467-.584-1.11-.584c-1.051 0-1.402 1.285-1.402 2.804 0 .935-.117 1.928.876 1.928.701 0 1.11-.467 1.11-.467l-.058.409h1.168l.876-5.608-1.46 1.519zm-.058 1.519c0 .642-.526 1.46-1.168 1.46-.409 0-.643-.351-.643-.935 0-.935.409-1.519.935-1.519.409 0 .876.292.876.993z"/><path d="M11.76 18.543l.701-4.206.117 4.206h.818l1.519-4.206-.643 4.206h1.227l.935-5.608h-1.46l-1.636 3.446-.058-3.446h-.643l-1.986 5.608h1.11zm16.881 0h1.227c.35-1.928.409-3.505 1.227-3.213.117-.759.292-1.051.409-1.344h-.234c-.526 0-.935.701-.935.701l.117-.643m5.081 1.111s.526-.234 1.285-.234c.409 0 .759.058.759.409 0 .234-.058.292-.058.292h-.526c-.993 0-2.103.409-2.103 1.752 0 1.051.701 1.285 1.11 1.285.818 0 1.168-.526 1.227-.526l-.058.467h1.051l.467-3.213c0-1.343-1.168-1.402-1.635-1.402l-1.519 1.168zm2.395 1.343c0 .175-.701 1.11-1.402 1.11-.351 0-.467-.292-.467-.467 0-.292.175-.701 1.051-.701.234.058.818.058.818.058zm.527 2.045h1.227c.351-1.928.409-3.505 1.227-3.213.117-.759.292-1.051.409-1.344h-.234c-.526 0-.935.701-.935.701l.117-.643"/></g><defs /></svg>