<svg xmlns="http://www.w3.org/2000/svg" width="56" height="32" fill="none"  xmlns:v="https://vecta.io/nano"><rect width="56" height="32" rx="4" fill="#fff"/><path d="M21.44 22.522l2.194-12.343h3.429l-2.126 12.343H21.44z" fill="#3c58bf"/><path d="M21.44 22.522l2.811-12.343h2.811l-2.126 12.343H21.44z" fill="#293688"/><path d="M37.347 10.318c-.686-.274-1.783-.549-3.154-.549-3.429 0-5.897 1.714-5.897 4.183 0 1.852 1.714 2.811 3.086 3.429s1.783 1.029 1.783 1.577c0 .823-1.097 1.234-2.057 1.234-1.372 0-2.126-.206-3.291-.686l-.48-.206-.48 2.811c.823.343 2.331.686 3.909.686 3.634 0 6.034-1.714 6.034-4.32 0-1.44-.891-2.537-2.949-3.429-1.234-.617-1.989-.96-1.989-1.577 0-.549.617-1.097 1.989-1.097 1.166 0 1.989.206 2.606.48l.343.137.549-2.674z" fill="#3c58bf"/><path d="M37.347 10.318c-.686-.274-1.783-.549-3.154-.549-3.429 0-5.28 1.714-5.28 4.183 0 1.852 1.097 2.811 2.468 3.429s1.783 1.029 1.783 1.577c0 .823-1.097 1.234-2.057 1.234-1.372 0-2.126-.206-3.291-.686l-.48-.206-.48 2.811c.823.343 2.331.686 3.909.686 3.634 0 6.034-1.714 6.034-4.32 0-1.44-.891-2.537-2.949-3.429-1.234-.617-1.989-.96-1.989-1.577 0-.549.617-1.097 1.989-1.097 1.166 0 1.989.206 2.606.48l.343.137.549-2.674z" fill="#293688"/><path d="M43.244 10.18c-.823 0-1.44.069-1.783.891l-5.143 11.451h3.703l.686-2.057h4.389l.411 2.057h3.291l-2.88-12.343h-2.674zm-1.577 8.229l1.371-3.634.48-1.234.206 1.166.823 3.771h-2.88v-.069z" fill="#3c58bf"/><path d="M44.067 10.18c-.823 0-1.44.069-1.783.891l-5.966 11.451h3.703l.686-2.057h4.389l.411 2.057h3.291l-2.88-12.343h-1.852zm-2.4 8.229l1.371-3.634.48-1.234.206 1.166.823 3.771h-2.88v-.069z" fill="#293688"/><path d="M15.131 18.821l-.343-1.783c-.617-2.057-2.606-4.32-4.8-5.417l3.086 10.971h3.703l5.554-12.343h-3.703l-3.497 8.571z" fill="#3c58bf"/><path d="M15.131 18.821l-.343-1.783c-.617-2.057-2.606-4.32-4.8-5.417l3.086 10.971h3.703l5.554-12.343h-3.017l-4.183 8.571z" fill="#293688"/><path d="M5.6 10.18l.617.137c4.389 1.029 7.406 3.634 8.571 6.72l-1.234-5.829c-.206-.823-.823-1.028-1.577-1.028H5.6z" fill="#ffbc00"/><path d="M5.6 10.18c4.389 1.028 8.023 3.703 9.188 6.788L13.622 12.1c-.206-.823-.891-1.303-1.646-1.303L5.6 10.18z" fill="#f7981d"/><path d="M5.6 10.18c4.389 1.028 8.023 3.703 9.188 6.788l-.823-2.674c-.206-.823-.48-1.646-1.44-1.989L5.6 10.18z" fill="#ed7c00"/><path d="M18.559 18.41l-2.331-2.331-1.097 2.606-.274-1.714c-.617-2.057-2.606-4.32-4.8-5.417l3.086 10.971h3.703l1.714-4.114zm6.378 4.113l-2.949-3.017-.549 3.017h3.497zm7.886-4.25c.274.274.411.48.343.754 0 .823-1.097 1.234-2.057 1.234-1.371 0-2.126-.206-3.291-.686l-.48-.206-.48 2.811c.823.343 2.331.686 3.909.686 2.194 0 3.977-.617 5.006-1.714l-2.949-2.88zm3.976 4.251h3.223l.686-2.057h4.389l.411 2.057h3.291l-1.166-5.006-4.114-3.977.206 1.097.823 3.771h-2.88l1.372-3.634.48-1.234" fill="#051244"/><defs /></svg>