<svg xmlns="http://www.w3.org/2000/svg" width="40" height="40" fill="none" xmlns:v="https://vecta.io/nano"><path d="M28.521 9.609c-.422 0-.821.166-1.115.462l-8.965 9.034-3.355-3.406c-.291-.296-.688-.463-1.103-.466a1.57 1.57 0 0 0-1.109.451L6.87 21.623c-.614.607-.619 1.596-.012 2.21.306.309.708.464 1.111.464a1.56 1.56 0 0 0 1.099-.451l4.891-4.837 3.366 3.416a1.56 1.56 0 0 0 1.11.466c.419 0 .818-.166 1.112-.462l8.961-9.031 2.407 2.46c.604.617 1.593.628 2.21.024s.628-1.593.024-2.21l-3.516-3.594c-.293-.299-.693-.468-1.111-.47z" fill="#d946ef"/><path d="M38.438 18.906c.863 0 1.563-.699 1.563-1.562V4.766c0-.863-.7-1.562-1.562-1.562H21.563V1.563C21.563.7 20.863 0 20 0s-1.562.7-1.562 1.563v1.641H1.563C.7 3.203 0 3.903 0 4.766v20.469a6.26 6.26 0 0 0 6.25 6.25h12.188v5.391H13.75c-.863 0-1.562.7-1.562 1.563S12.887 40 13.75 40h12.422c.863 0 1.563-.7 1.563-1.562s-.7-1.562-1.562-1.562h-4.609v-5.391H33.75a6.26 6.26 0 0 0 6.25-6.25c0-.863-.7-1.562-1.562-1.562s-1.562.7-1.562 1.563a3.13 3.13 0 0 1-3.125 3.125H6.25a3.13 3.13 0 0 1-3.125-3.125V6.328h33.75v11.016c0 .863.7 1.562 1.563 1.562z" fill="#6366f1"/></svg>