<svg xmlns="http://www.w3.org/2000/svg" xmlns:xlink="http://www.w3.org/1999/xlink" width="40" height="40" fill="none" xmlns:v="https://vecta.io/nano"><g clip-path="url(#A)"><path d="M36.604 23.951c-.323-.8-1.234-1.186-2.034-.863s-1.186 1.234-.863 2.034l1.84 4.552-5.465-2.409a1.56 1.56 0 0 0-1.244-.007c-1.868.797-3.869 1.201-5.947 1.201-8.365 0-13.984-6.55-13.984-12.667 0-6.984 6.273-12.667 13.984-12.667s13.984 5.682 13.984 12.667c0 .545-.051 1.197-.139 1.79-.127.854.461 1.649 1.315 1.776s1.649-.461 1.776-1.315c.112-.749.173-1.549.173-2.251 0-4.244-1.797-8.227-5.061-11.214C31.714 1.626 27.435 0 22.891 0s-8.823 1.626-12.048 4.577c-2.917 2.669-4.661 6.134-4.999 9.87C2.175 16.877.001 20.77.001 24.963c0 2.619.825 5.105 2.396 7.243L.114 37.852a1.56 1.56 0 0 0 .361 1.707 1.56 1.56 0 0 0 1.718.308l6.58-2.901a14.87 14.87 0 0 0 5.211.928c.039 0 .077-.003.116-.006 2.612-.02 5.152-.707 7.351-1.993 1.97-1.152 3.591-2.734 4.727-4.603 1.109-.199 2.194-.5 3.246-.902l8.383 3.695a1.56 1.56 0 0 0 1.718-.308 1.56 1.56 0 0 0 .361-1.707l-3.282-8.119zM13.985 34.766c-.021 0-.042.002-.063.003a11.72 11.72 0 0 1-4.565-.934 1.56 1.56 0 0 0-1.243.007l-3.659 1.613 1.18-2.92c.218-.54.118-1.156-.26-1.599-1.471-1.726-2.249-3.792-2.249-5.974 0-2.497 1.05-4.863 2.888-6.657.572 3.119 2.187 6.103 4.622 8.447 3.031 2.917 7.039 4.606 11.368 4.81-2.032 2-4.94 3.203-8.018 3.203z" fill="#6366f1"/><g fill="#d946ef"><use xlink:href="#B"/><path d="M29.063 17.422c.863 0 1.563-.7 1.563-1.562s-.7-1.562-1.562-1.562-1.562.699-1.562 1.563.7 1.563 1.563 1.563zm-12.5 0c.863 0 1.563-.7 1.563-1.562s-.7-1.562-1.562-1.562-1.562.699-1.562 1.563a1.56 1.56 0 0 0 1.562 1.563z"/></g></g><defs><clipPath id="A"><path fill="#fff" d="M0 0h40v40H0z"/></clipPath><path id="B" d="M22.813 17.422c.863 0 1.563-.7 1.563-1.562s-.7-1.562-1.562-1.562-1.562.699-1.562 1.563.7 1.563 1.563 1.563z"/></defs></svg>