<svg xmlns="http://www.w3.org/2000/svg" width="40" height="40" fill="none" xmlns:v="https://vecta.io/nano"><g clip-path="url(#A)"><path d="M38.437 34.137c.863 0 1.563-.7 1.563-1.562s-.699-1.562-1.562-1.562h-4.296v-4.296c0-.863-.699-1.562-1.562-1.562s-1.562.699-1.562 1.562v4.296H26.72c-.863 0-1.562.699-1.562 1.563s.699 1.562 1.562 1.562h4.296v4.296c0 .863.7 1.563 1.562 1.563s1.562-.699 1.562-1.562v-4.296h4.296z" fill="#d946ef"/><path d="M23.161 26.219c-.978-.682-2.023-1.238-3.116-1.663 1.454-1.322 2.419-3.173 2.587-5.246a11.64 11.64 0 0 1 8.195-3.327c2.419 0 4.742.728 6.718 2.106a1.56 1.56 0 0 0 2.175-.388c.493-.708.32-1.681-.388-2.175-.978-.682-2.024-1.238-3.117-1.663 1.605-1.458 2.614-3.561 2.614-5.895A7.98 7.98 0 0 0 30.86 0a7.98 7.98 0 0 0-7.967 7.968c0 2.325 1.001 4.42 2.594 5.878l-.65.267c-.978.43-1.897.959-2.752 1.581-1.179-2.929-4.049-5.002-7.395-5.002a7.98 7.98 0 0 0-7.968 7.968c0 2.318.995 4.408 2.58 5.865-4.238 1.588-7.674 4.998-9.073 9.348a4.64 4.64 0 0 0 .674 4.197 4.64 4.64 0 0 0 3.788 1.926h13.592c.863 0 1.562-.699 1.562-1.562s-.7-1.562-1.562-1.562H4.692c-.505 0-.965-.234-1.263-.642a1.55 1.55 0 0 1-.225-1.399c1.544-4.801 6.254-8.154 11.452-8.154 2.419 0 4.742.729 6.717 2.106.708.494 1.681.32 2.175-.387a1.56 1.56 0 0 0-.388-2.175zM30.86 3.125a4.85 4.85 0 0 1 4.843 4.843 4.85 4.85 0 0 1-4.843 4.843 4.85 4.85 0 0 1-4.843-4.843 4.85 4.85 0 0 1 4.843-4.843zm-16.17 10.692a4.85 4.85 0 0 1 4.843 4.843 4.85 4.85 0 0 1-4.843 4.843 4.85 4.85 0 0 1-4.843-4.843 4.85 4.85 0 0 1 4.843-4.843z" fill="#6366f1"/></g><defs><clipPath id="A"><path fill="#fff" d="M0 0h40v40H0z"/></clipPath></defs></svg>