<svg xmlns="http://www.w3.org/2000/svg" width="40" height="40" fill="none" xmlns:v="https://vecta.io/nano"><path d="M4.953 13.245c.538-3.001 1.909-5.721 3.964-7.867.597-.623.576-1.612-.048-2.209s-1.612-.576-2.209.048c-2.482 2.592-4.136 5.869-4.784 9.477-.152.849.413 1.662 1.262 1.814.093.017.186.025.278.025.742 0 1.401-.531 1.536-1.287z" fill="#d946ef"/><path d="M35.588 26.234c-.087-.034-1.305-.525-2.201-1.652-.537-.675-1.52-.788-2.195-.251s-.788 1.52-.251 2.195c.808 1.016 1.747 1.692 2.464 2.107-.12.673-.373 1.425-.816 2.063-.696 1.003-1.678 1.49-3.004 1.49H10.524c-2.417 0-3.495-2.025-3.807-3.562a9.39 9.39 0 0 0 1.57-1.139c1.77-1.592 2.705-3.694 2.705-6.08v-5.469c0-4.931 3.997-8.996 8.91-9.062.014 0 .027-.002.04-.003s.023.002.035.002a1.58 1.58 0 0 0 .122-.006c.036.003.072.006.109.007 4.956.067 8.988 4.132 8.988 9.062v2.188c0 .863.7 1.563 1.563 1.563s1.563-.7 1.563-1.562v-2.187c0-6.196-4.73-11.376-10.781-12.1V1.563C21.539.7 20.84 0 19.977 0s-1.562.7-1.562 1.563v2.294c-2.661.353-5.12 1.578-7.04 3.529-2.262 2.299-3.507 5.336-3.507 8.552v5.469c0 3.489-3.144 4.75-3.346 4.828-.628.218-1.029.803-1.029 1.469 0 1.64.584 3.433 1.563 4.796 1.302 1.814 3.245 2.813 5.469 2.813h4.843c0 2.585 2.103 4.688 4.688 4.688s4.688-2.103 4.688-4.687h4.843c2.98 0 4.675-1.541 5.571-2.834 1.318-1.9 1.461-3.973 1.461-4.776 0-.666-.401-1.25-1.029-1.469zM20.055 36.875c-.862 0-1.562-.701-1.562-1.562h3.125c0 .862-.701 1.563-1.562 1.563z" fill="#6366f1"/><path d="M38.123 12.741c-.653-3.642-2.371-7.054-4.836-9.607-.599-.621-1.588-.638-2.209-.039s-.638 1.589-.039 2.209c2.04 2.113 3.463 4.95 4.008 7.989.136.756.794 1.287 1.536 1.287.092 0 .184-.008.278-.025.849-.152 1.414-.964 1.262-1.814z" fill="#d946ef"/></svg>