<svg xmlns="http://www.w3.org/2000/svg" width="40" height="40" fill="none" xmlns:v="https://vecta.io/nano"><g clip-path="url(#A)"><path d="M19.922 40c-.24 0-.479-.055-.699-.165-.183-.092-4.528-2.295-9.074-7.236-2.665-2.896-4.853-6.144-6.506-9.652C1.58 18.564.355 13.766.003 8.686c-.029-.414.109-.823.382-1.136s.66-.504 1.075-.531a5.48 5.48 0 0 0 5.103-5.456C6.563.699 7.262 0 8.125 0h23.75c.863 0 1.563.699 1.563 1.563a5.48 5.48 0 0 0 5.1 5.456 1.56 1.56 0 0 1 1.452 1.706c-.534 5.641-2.092 10.917-4.63 15.681-.406.762-1.352 1.05-2.114.645s-1.05-1.352-.645-2.114c2.126-3.991 3.507-8.379 4.115-13.064-3.199-.844-5.657-3.489-6.262-6.749H9.545c-.607 3.273-3.083 5.927-6.302 6.759.821 7.883 3.885 14.775 9.119 20.504 3.133 3.429 6.204 5.453 7.551 6.253 1.474-.897 5.039-3.306 8.509-7.483.552-.664 1.536-.755 2.2-.204s.755 1.537.203 2.2c-4.939 5.945-9.98 8.565-10.192 8.674a1.56 1.56 0 0 1-.712.172z" fill="#6366f1"/><path d="M21.13 31.544c.52-.689.384-1.668-.304-2.189a29.29 29.29 0 0 1-3.8-3.44c-3.404-3.669-5.713-7.981-6.873-12.827a14.99 14.99 0 0 0 1.756-1.594c.9-.958 1.669-2.028 2.285-3.18.406-.761.119-1.708-.642-2.115s-1.708-.119-2.114.642a11.78 11.78 0 0 1-1.805 2.512c-.627.667-1.331 1.26-2.089 1.761-.532.352-.797.992-.67 1.617 1.19 5.817 3.834 10.968 7.861 15.309 1.295 1.396 2.71 2.677 4.207 3.808.282.213.613.316.941.316a1.56 1.56 0 0 0 1.248-.62z" fill="#d946ef"/></g><defs><clipPath id="A"><path fill="#fff" d="M0 0h40v40H0z"/></clipPath></defs></svg>