<svg xmlns="http://www.w3.org/2000/svg" xmlns:xlink="http://www.w3.org/1999/xlink" width="40" height="40" fill="none" xmlns:v="https://vecta.io/nano"><g fill="#6366f1"><use xlink:href="#B"/><use xlink:href="#B" y="-9.453"/><path d="M34.293 27.5c.863 0 1.563-.7 1.563-1.562V6.25A6.26 6.26 0 0 0 29.605 0h-19.21a6.26 6.26 0 0 0-6.25 6.25v27.5a6.26 6.26 0 0 0 6.25 6.25h19.21a6.26 6.26 0 0 0 6.25-6.25c0-.863-.7-1.562-1.562-1.562s-1.562.7-1.562 1.563a3.13 3.13 0 0 1-3.125 3.125h-19.21A3.13 3.13 0 0 1 7.27 33.75V6.25a3.13 3.13 0 0 1 3.125-3.125h19.21A3.13 3.13 0 0 1 32.73 6.25v19.688c0 .863.7 1.563 1.563 1.563z"/></g><path d="M19.984 6.217c-.665-.55-1.65-.456-2.2.209l-3.375 4.085-1.332-1.368c-.602-.618-1.591-.631-2.21-.029s-.631 1.591-.029 2.21l1.676 1.721.042.042a2.73 2.73 0 0 0 1.878.75l.18-.006a2.73 2.73 0 0 0 1.933-1.001l3.646-4.414c.55-.665.456-1.65-.209-2.2zm0 19.051c-.665-.55-1.65-.456-2.2.209l-3.376 4.087-1.334-1.362c-.604-.617-1.593-.627-2.21-.023s-.627 1.593-.023 2.21l1.676 1.712.039.039a2.73 2.73 0 0 0 1.878.75l.18-.006a2.73 2.73 0 0 0 1.933-1.001l3.646-4.414c.55-.665.456-1.65-.209-2.2z" fill="#d946ef"/><path d="M28.051 10.078h-4.609c-.863 0-1.562.7-1.562 1.563s.7 1.563 1.563 1.563h4.609c.863 0 1.563-.699 1.563-1.562s-.7-1.562-1.562-1.562z" fill="#6366f1"/><path d="M19.984 15.819c-.665-.55-1.65-.456-2.2.209l-3.376 4.086-1.334-1.362c-.604-.617-1.593-.627-2.21-.023s-.627 1.593-.023 2.21l1.676 1.712.039.039a2.73 2.73 0 0 0 1.878.75l.18-.006a2.73 2.73 0 0 0 1.933-1.001l3.646-4.414c.55-.665.456-1.65-.209-2.2z" fill="#d946ef"/><defs ><path id="B" d="M28.051 29.141h-4.609c-.863 0-1.562.7-1.562 1.563s.7 1.563 1.563 1.563h4.609c.863 0 1.563-.7 1.563-1.562s-.7-1.562-1.562-1.562z"/></defs></svg>