<?xml version="1.0" encoding="utf-8"?>
<!-- Generator: Adobe Illustrator 23.0.1, SVG Export Plug-In . SVG Version: 6.00 Build 0)  -->
<svg version="1.1" id="Layer_1" xmlns="http://www.w3.org/2000/svg" xmlns:xlink="http://www.w3.org/1999/xlink" x="0px" y="0px"
	 viewBox="0 0 136 36" style="enable-background:new 0 0 136 36;" xml:space="preserve">
<style type="text/css">
	.st0{fill:#FFFFFF;}
</style>
<path class="st0" d="M21.6,16.8c0-3.9,3.3-5.8,3.4-5.9c-1.9-2.7-4.8-3-5.8-3.1c-2.4-0.3-4.8,1.4-6.1,1.4c-1.3,0-3.2-1.4-5.3-1.4
	c-2.7,0-5.2,1.5-6.5,3.9c-2.8,4.8-0.7,11.8,2,15.6c1.4,1.9,2.9,4,5,3.9c2-0.1,2.8-1.3,5.2-1.3c2.4,0,3.1,1.3,5.2,1.2
	c2.2,0,3.5-1.9,4.8-3.8c1.6-2.2,2.2-4.3,2.2-4.4C25.8,23,21.6,21.5,21.6,16.8z"/>
<path class="st0" d="M17.6,5.3c1.1-1.3,1.8-3.1,1.6-5c-1.6,0.1-3.5,1.1-4.7,2.4c-1,1.1-1.9,3-1.7,4.8C14.6,7.6,16.5,6.6,17.6,5.3z"
	/>
<path class="st0" d="M50.8,31h-2.8l-1.5-4.7H41L39.5,31h-2.8l5.3-16.1h3.3L50.8,31z M45.9,24.3l-1.4-4.2c-0.1-0.4-0.4-1.4-0.8-3h0
	c-0.2,0.7-0.4,1.7-0.8,3l-1.4,4.2H45.9z"/>
<path class="st0" d="M64.5,25.1c0,2-0.5,3.5-1.6,4.7c-1,1-2.2,1.5-3.7,1.5c-1.6,0-2.7-0.6-3.4-1.7h0v6.1h-2.7V23.2
	c0-1.2,0-2.5-0.1-3.8h2.3l0.1,1.8h0c0.9-1.4,2.2-2.1,4-2.1c1.4,0,2.6,0.5,3.5,1.6C64,21.9,64.5,23.3,64.5,25.1z M61.8,25.2
	c0-1.1-0.3-2.1-0.8-2.8c-0.6-0.8-1.3-1.1-2.3-1.1c-0.7,0-1.2,0.2-1.8,0.6c-0.5,0.4-0.9,1-1,1.7c-0.1,0.3-0.1,0.6-0.1,0.8v1.9
	c0,0.8,0.3,1.6,0.8,2.1c0.5,0.6,1.2,0.9,2.1,0.9c1,0,1.8-0.4,2.3-1.1C61.5,27.4,61.8,26.4,61.8,25.2z"/>
<path class="st0" d="M78.2,25.1c0,2-0.5,3.5-1.6,4.7c-1,1-2.2,1.5-3.7,1.5c-1.6,0-2.7-0.6-3.4-1.7h0v6.1h-2.7V23.2
	c0-1.2,0-2.5-0.1-3.8H69l0.1,1.8h0c0.9-1.4,2.2-2.1,4-2.1c1.4,0,2.6,0.5,3.5,1.6C77.7,21.9,78.2,23.3,78.2,25.1z M75.5,25.2
	c0-1.1-0.3-2.1-0.8-2.8c-0.6-0.8-1.3-1.1-2.3-1.1c-0.7,0-1.2,0.2-1.8,0.6c-0.5,0.4-0.9,1-1,1.7c-0.1,0.3-0.1,0.6-0.1,0.8v1.9
	c0,0.8,0.3,1.6,0.8,2.1c0.5,0.6,1.2,0.9,2.1,0.9c1,0,1.8-0.4,2.3-1.1C75.2,27.4,75.5,26.4,75.5,25.2z"/>
<path class="st0" d="M93.6,26.5c0,1.4-0.5,2.5-1.5,3.4c-1.1,0.9-2.6,1.4-4.5,1.4c-1.8,0-3.2-0.3-4.3-1l0.6-2.2c1.2,0.7,2.4,1,3.8,1
	c1,0,1.8-0.2,2.3-0.7c0.6-0.4,0.8-1,0.8-1.8c0-0.7-0.2-1.2-0.7-1.7c-0.5-0.4-1.2-0.9-2.3-1.2c-2.9-1.1-4.3-2.6-4.3-4.6
	c0-1.3,0.5-2.4,1.5-3.3c1-0.8,2.4-1.3,4.1-1.3c1.5,0,2.8,0.3,3.8,0.8l-0.7,2.1c-0.9-0.5-2-0.7-3.2-0.7c-0.9,0-1.7,0.2-2.2,0.7
	c-0.4,0.4-0.7,0.9-0.7,1.5c0,0.6,0.3,1.2,0.8,1.6c0.4,0.4,1.2,0.8,2.4,1.2c1.4,0.6,2.5,1.2,3.1,2C93.2,24.4,93.6,25.4,93.6,26.5z"/>
<path class="st0" d="M102.3,21.3h-2.9V27c0,1.4,0.5,2.2,1.5,2.2c0.5,0,0.9,0,1.2-0.1l0.1,2c-0.5,0.2-1.2,0.3-2.1,0.3
	c-1,0-1.9-0.3-2.5-0.9c-0.6-0.6-0.9-1.7-0.9-3.1v-5.9h-1.7v-1.9h1.7v-2.1l2.6-0.8v2.9h2.9V21.3z"/>
<path class="st0" d="M115.5,25.1c0,1.8-0.5,3.3-1.6,4.4c-1.1,1.2-2.6,1.8-4.4,1.8c-1.8,0-3.1-0.6-4.2-1.7c-1-1.1-1.6-2.6-1.6-4.3
	c0-1.8,0.5-3.3,1.6-4.4c1.1-1.1,2.5-1.7,4.3-1.7c1.8,0,3.2,0.6,4.2,1.7C115,21.9,115.5,23.4,115.5,25.1z M112.8,25.2
	c0-1.1-0.2-2-0.7-2.8c-0.6-0.9-1.4-1.4-2.4-1.4c-1.1,0-1.9,0.5-2.4,1.4c-0.5,0.8-0.7,1.7-0.7,2.8c0,1.1,0.2,2,0.7,2.8
	c0.6,0.9,1.4,1.4,2.4,1.4c1,0,1.8-0.5,2.4-1.4C112.5,27.2,112.8,26.3,112.8,25.2z"/>
<path class="st0" d="M124.1,21.7c-0.3,0-0.5-0.1-0.8-0.1c-0.9,0-1.7,0.3-2.2,1c-0.4,0.6-0.7,1.4-0.7,2.3V31h-2.7l0-8
	c0-1.3,0-2.6-0.1-3.7h2.3l0.1,2.2h0.1c0.3-0.8,0.7-1.4,1.3-1.8c0.6-0.4,1.2-0.6,1.9-0.6c0.2,0,0.5,0,0.7,0V21.7z"/>
<path class="st0" d="M136,24.7c0,0.5,0,0.9-0.1,1.2h-8c0,1.1,0.4,2,1.2,2.6c0.7,0.5,1.5,0.8,2.6,0.8c1.2,0,2.3-0.2,3.2-0.6l0.4,1.8
	c-1.1,0.5-2.5,0.7-4,0.7c-1.9,0-3.3-0.5-4.4-1.6c-1.1-1.1-1.6-2.5-1.6-4.3c0-1.8,0.5-3.2,1.5-4.4c1-1.2,2.4-1.9,4.2-1.9
	c1.7,0,3,0.6,3.9,1.9C135.6,22,136,23.2,136,24.7z M133.5,24c0-0.8-0.2-1.4-0.5-2c-0.5-0.7-1.2-1.1-2.1-1.1c-0.9,0-1.6,0.4-2.1,1.1
	c-0.4,0.6-0.7,1.2-0.8,2L133.5,24L133.5,24z"/>
<path class="st0" d="M45,5c0,1.4-0.4,2.5-1.3,3.2c-0.8,0.7-2,1-3.5,1c-0.7,0-1.4,0-1.9-0.1V1.3c0.7-0.1,1.4-0.2,2.2-0.2
	c1.4,0,2.5,0.3,3.2,0.9C44.6,2.7,45,3.7,45,5z M43.7,5c0-0.9-0.3-1.6-0.8-2.1c-0.5-0.5-1.2-0.7-2.2-0.7c-0.4,0-0.8,0-1.1,0.1v5.9
	c0.2,0,0.5,0,0.9,0c1,0,1.8-0.3,2.3-0.8C43.4,6.8,43.7,6,43.7,5z"/>
<path class="st0" d="M52.3,6.2c0,0.9-0.3,1.6-0.8,2.2c-0.5,0.6-1.3,0.9-2.1,0.9c-0.9,0-1.5-0.3-2.1-0.8c-0.5-0.6-0.8-1.3-0.8-2.1
	c0-0.9,0.3-1.6,0.8-2.2c0.5-0.6,1.2-0.8,2.1-0.8c0.9,0,1.6,0.3,2.1,0.8C52.1,4.6,52.3,5.3,52.3,6.2z M51,6.2c0-0.5-0.1-1-0.3-1.4
	c-0.3-0.5-0.7-0.7-1.2-0.7c-0.5,0-0.9,0.2-1.2,0.7c-0.2,0.4-0.3,0.8-0.3,1.4c0,0.5,0.1,1,0.3,1.4c0.3,0.5,0.7,0.7,1.2,0.7
	c0.5,0,0.9-0.2,1.2-0.7C50.9,7.2,51,6.8,51,6.2z"/>
<path class="st0" d="M62.1,3.4l-1.8,5.7h-1.2l-0.8-2.5C58.1,6,58,5.4,57.8,4.8h0c-0.1,0.6-0.3,1.2-0.5,1.8l-0.8,2.5h-1.2l-1.7-5.7
	h1.3l0.7,2.7c0.2,0.6,0.3,1.3,0.4,1.8h0c0.1-0.5,0.3-1.1,0.5-1.8l0.8-2.7h1.1l0.8,2.7c0.2,0.7,0.3,1.3,0.5,1.9h0
	c0.1-0.6,0.2-1.2,0.4-1.9l0.7-2.7L62.1,3.4L62.1,3.4z"/>
<path class="st0" d="M68.9,9.1h-1.3V5.8c0-1-0.4-1.5-1.2-1.5c-0.4,0-0.7,0.1-0.9,0.4c-0.2,0.3-0.4,0.6-0.4,1v3.4h-1.3V5
	c0-0.5,0-1,0-1.6h1.1l0.1,0.9h0c0.2-0.3,0.4-0.5,0.7-0.7c0.4-0.2,0.7-0.3,1.2-0.3c0.5,0,1,0.2,1.4,0.5c0.5,0.4,0.7,1.1,0.7,1.9V9.1z
	"/>
<path class="st0" d="M72.5,9.1h-1.3V0.8h1.3V9.1z"/>
<path class="st0" d="M80.1,6.2c0,0.9-0.3,1.6-0.8,2.2c-0.5,0.6-1.3,0.9-2.1,0.9c-0.9,0-1.5-0.3-2.1-0.8c-0.5-0.6-0.8-1.3-0.8-2.1
	c0-0.9,0.3-1.6,0.8-2.2c0.5-0.6,1.2-0.8,2.1-0.8c0.9,0,1.6,0.3,2.1,0.8C79.9,4.6,80.1,5.3,80.1,6.2z M78.8,6.2c0-0.5-0.1-1-0.3-1.4
	c-0.3-0.5-0.7-0.7-1.2-0.7c-0.5,0-0.9,0.2-1.2,0.7c-0.2,0.4-0.3,0.8-0.3,1.4c0,0.5,0.1,1,0.3,1.4c0.3,0.5,0.7,0.7,1.2,0.7
	c0.5,0,0.9-0.2,1.2-0.7C78.7,7.2,78.8,6.8,78.8,6.2z"/>
<path class="st0" d="M86.4,9.1h-1.2l-0.1-0.7h0c-0.4,0.5-1,0.8-1.7,0.8c-0.6,0-1-0.2-1.3-0.5c-0.3-0.3-0.5-0.7-0.5-1.2
	c0-0.7,0.3-1.2,0.9-1.6c0.6-0.4,1.4-0.5,2.5-0.5V5.3c0-0.8-0.4-1.1-1.2-1.1c-0.6,0-1.1,0.1-1.5,0.4l-0.3-0.8c0.5-0.3,1.2-0.5,2-0.5
	c1.5,0,2.3,0.8,2.3,2.4v2.1C86.4,8.3,86.4,8.8,86.4,9.1z M85.1,7.1V6.3c-1.4,0-2.2,0.4-2.2,1.2c0,0.3,0.1,0.5,0.3,0.7
	s0.4,0.2,0.6,0.2c0.3,0,0.6-0.1,0.8-0.3c0.2-0.2,0.4-0.4,0.5-0.7C85.1,7.3,85.1,7.2,85.1,7.1z"/>
<path class="st0" d="M93.9,9.1h-1.2l-0.1-0.9h0c-0.4,0.7-1,1-1.9,1C90,9.2,89.4,9,89,8.4c-0.5-0.5-0.7-1.2-0.7-2.1
	c0-0.9,0.3-1.7,0.8-2.2c0.5-0.5,1.1-0.8,1.8-0.8c0.8,0,1.3,0.3,1.7,0.8h0V0.8h1.3v6.8C93.8,8.1,93.8,8.6,93.9,9.1z M92.5,6.7v-1
	c0-0.2,0-0.3,0-0.4C92.4,5,92.2,4.8,92,4.6c-0.2-0.2-0.5-0.3-0.9-0.3c-0.5,0-0.9,0.2-1.1,0.6c-0.3,0.4-0.4,0.9-0.4,1.4
	c0,0.6,0.1,1,0.4,1.4c0.3,0.4,0.7,0.6,1.1,0.6c0.4,0,0.8-0.2,1-0.5C92.4,7.4,92.5,7.1,92.5,6.7z"/>
<path class="st0" d="M105,6.2c0,0.9-0.3,1.6-0.8,2.2c-0.5,0.6-1.3,0.9-2.1,0.9c-0.9,0-1.5-0.3-2.1-0.8c-0.5-0.6-0.8-1.3-0.8-2.1
	c0-0.9,0.3-1.6,0.8-2.2c0.5-0.6,1.2-0.8,2.1-0.8c0.9,0,1.6,0.3,2.1,0.8C104.8,4.6,105,5.3,105,6.2z M103.7,6.2c0-0.5-0.1-1-0.3-1.4
	c-0.3-0.5-0.7-0.7-1.2-0.7c-0.5,0-0.9,0.2-1.2,0.7c-0.2,0.4-0.3,0.8-0.3,1.4c0,0.5,0.1,1,0.3,1.4c0.3,0.5,0.7,0.7,1.2,0.7
	c0.5,0,0.9-0.2,1.2-0.7C103.5,7.2,103.7,6.8,103.7,6.2z"/>
<path class="st0" d="M112,9.1h-1.3V5.8c0-1-0.4-1.5-1.2-1.5c-0.4,0-0.7,0.1-0.9,0.4c-0.2,0.3-0.4,0.6-0.4,1v3.4h-1.3V5
	c0-0.5,0-1,0-1.6h1.1l0.1,0.9h0c0.2-0.3,0.4-0.5,0.7-0.7c0.4-0.2,0.7-0.3,1.2-0.3c0.5,0,1,0.2,1.4,0.5c0.5,0.4,0.7,1.1,0.7,1.9V9.1z
	"/>
<path class="st0" d="M120.8,4.3h-1.4v2.8c0,0.7,0.3,1.1,0.8,1.1c0.2,0,0.4,0,0.6-0.1l0,1c-0.3,0.1-0.6,0.1-1,0.1
	c-0.5,0-0.9-0.2-1.2-0.5c-0.3-0.3-0.4-0.8-0.4-1.5V4.3h-0.9v-1h0.9v-1l1.3-0.4v1.4h1.4L120.8,4.3L120.8,4.3z"/>
<path class="st0" d="M127.7,9.1h-1.3V5.9c0-1-0.4-1.5-1.2-1.5c-0.6,0-1,0.3-1.2,0.9c0,0.1-0.1,0.3-0.1,0.5v3.4h-1.3V0.8h1.3v3.4h0
	c0.4-0.6,1-0.9,1.8-0.9c0.5,0,1,0.2,1.3,0.5c0.4,0.4,0.7,1.1,0.7,1.9V9.1z"/>
<path class="st0" d="M134.8,6c0,0.2,0,0.4,0,0.6h-3.9c0,0.6,0.2,1,0.6,1.3c0.3,0.3,0.8,0.4,1.3,0.4c0.6,0,1.1-0.1,1.6-0.3l0.2,0.9
	c-0.6,0.2-1.2,0.4-2,0.4c-0.9,0-1.6-0.3-2.1-0.8c-0.5-0.5-0.8-1.2-0.8-2.1c0-0.9,0.2-1.6,0.7-2.2c0.5-0.6,1.2-0.9,2.1-0.9
	c0.8,0,1.5,0.3,1.9,0.9C134.6,4.7,134.8,5.3,134.8,6z M133.6,5.6c0-0.4-0.1-0.7-0.3-1c-0.2-0.4-0.6-0.5-1-0.5c-0.4,0-0.8,0.2-1,0.5
	c-0.2,0.3-0.3,0.6-0.4,1H133.6z"/>
</svg>
