<?xml version="1.0" encoding="utf-8"?>
<!-- Generator: Adobe Illustrator 23.0.1, SVG Export Plug-In . SVG Version: 6.00 Build 0)  -->
<svg version="1.1" id="Layer_1" xmlns="http://www.w3.org/2000/svg" xmlns:xlink="http://www.w3.org/1999/xlink" x="0px" y="0px"
	 viewBox="0 0 136 32" style="enable-background:new 0 0 136 32;" xml:space="preserve">
<style type="text/css">
	.st0{fill:#FFFFFF;}
	.st1{fill:url(#SVGID_1_);}
	.st2{fill:url(#SVGID_2_);}
	.st3{fill:url(#SVGID_3_);}
	.st4{fill:url(#SVGID_4_);}
</style>
<path class="st0" d="M44.5,4c0,1-0.3,1.7-0.9,2.3c-0.7,0.7-1.5,1-2.6,1c-1,0-1.9-0.3-2.6-1c-0.7-0.7-1.1-1.5-1.1-2.5
	c0-1,0.4-1.9,1.1-2.5c0.7-0.7,1.6-1,2.6-1c0.5,0,1,0.1,1.4,0.3c0.5,0.2,0.8,0.4,1.1,0.8L43,1.8C42.5,1.2,41.9,1,41.1,1
	c-0.7,0-1.4,0.3-1.9,0.8c-0.5,0.5-0.8,1.2-0.8,2s0.3,1.5,0.8,2c0.5,0.5,1.2,0.8,1.9,0.8c0.8,0,1.4-0.3,2-0.8
	c0.3-0.3,0.5-0.8,0.6-1.4h-2.5V3.4h3.4C44.5,3.6,44.5,3.8,44.5,4z"/>
<path class="st0" d="M49.9,1.1h-3.2v2.2h2.9v0.8h-2.9v2.2h3.2v0.8h-4.1V0.3h4.1V1.1z"/>
<path class="st0" d="M53.7,7.1h-0.9v-6h-2V0.3h4.8v0.8h-2V7.1z"/>
<path class="st0" d="M59.1,7.1V0.3H60v6.8H59.1z"/>
<path class="st0" d="M64,7.1h-0.9v-6h-2V0.3H66v0.8h-2V7.1z"/>
<path class="st0" d="M75.1,6.2c-0.7,0.7-1.5,1-2.6,1c-1,0-1.9-0.3-2.6-1c-0.7-0.7-1-1.5-1-2.5s0.3-1.8,1-2.5c0.7-0.7,1.5-1,2.6-1
	c1,0,1.9,0.3,2.6,1c0.7,0.7,1,1.5,1,2.5C76.1,4.7,75.8,5.5,75.1,6.2z M70.6,5.6c0.5,0.5,1.2,0.8,1.9,0.8c0.7,0,1.4-0.3,1.9-0.8
	c0.5-0.5,0.8-1.2,0.8-2c0-0.8-0.3-1.5-0.8-2c-0.5-0.5-1.2-0.8-1.9-0.8c-0.8,0-1.4,0.3-1.9,0.8c-0.5,0.5-0.8,1.2-0.8,2
	C69.8,4.5,70.1,5.1,70.6,5.6z"/>
<path class="st0" d="M77.4,7.1V0.3h1.1l3.4,5.3h0l0-1.3v-4h0.9v6.8h-0.9l-3.6-5.6h0l0,1.3v4.3H77.4z"/>
<path class="st0" d="M68.7,17.1c-2.7,0-5,2-5,4.8c0,2.8,2.2,4.8,5,4.8c2.7,0,5-2.1,5-4.8C73.7,19.1,71.4,17.1,68.7,17.1z M68.7,24.9
	c-1.5,0-2.8-1.2-2.8-2.9c0-1.7,1.3-2.9,2.8-2.9s2.8,1.2,2.8,2.9C71.5,23.6,70.2,24.9,68.7,24.9z M57.8,17.1c-2.7,0-5,2-5,4.8
	c0,2.8,2.2,4.8,5,4.8c2.7,0,5-2.1,5-4.8C62.8,19.1,60.6,17.1,57.8,17.1z M57.8,24.9c-1.5,0-2.8-1.2-2.8-2.9c0-1.7,1.3-2.9,2.8-2.9
	c1.5,0,2.8,1.2,2.8,2.9C60.6,23.6,59.3,24.9,57.8,24.9z M44.9,18.6v2.1h5c-0.1,1.2-0.5,2-1.1,2.6c-0.7,0.7-1.9,1.5-3.9,1.5
	c-3.1,0-5.5-2.4-5.5-5.5s2.4-5.5,5.5-5.5c1.7,0,2.9,0.6,3.8,1.5l1.5-1.5c-1.3-1.2-2.9-2.1-5.3-2.1c-4.3,0-7.8,3.4-7.8,7.5
	s3.6,7.5,7.8,7.5c2.3,0,4-0.7,5.4-2.1c1.4-1.4,1.8-3.3,1.8-4.8c0-0.5,0-0.9-0.1-1.3H44.9z M97.8,20.2c-0.4-1.1-1.7-3.1-4.3-3.1
	c-2.6,0-4.7,2-4.7,4.8c0,2.7,2.1,4.8,4.9,4.8c2.3,0,3.6-1.4,4.1-2.1l-1.7-1.1c-0.6,0.8-1.3,1.3-2.4,1.3c-1.1,0-1.9-0.5-2.4-1.5
	l6.6-2.7L97.8,20.2z M91,21.8c-0.1-1.9,1.5-2.8,2.6-2.8c0.9,0,1.6,0.4,1.8,1L91,21.8z M85.6,26.5h2.2V12.2h-2.2V26.5z M82,18.2
	L82,18.2c-0.6-0.6-1.5-1.1-2.7-1.1c-2.5,0-4.8,2.1-4.8,4.9c0,2.7,2.3,4.8,4.8,4.8c1.2,0,2.1-0.5,2.6-1.1H82v0.7c0,1.9-1,2.8-2.6,2.8
	c-1.3,0-2.2-0.9-2.5-1.7L75,28.2c0.5,1.3,2,2.9,4.4,2.9c2.6,0,4.7-1.5,4.7-5v-8.7H82V18.2z M79.5,24.9c-1.5,0-2.8-1.2-2.8-2.9
	c0-1.7,1.3-3,2.8-3c1.5,0,2.7,1.2,2.7,3C82.2,23.6,81,24.9,79.5,24.9z M108,12.2h-5.2v14.2h2.2v-5.4h3c2.4,0,4.8-1.7,4.8-4.4
	C112.8,13.9,110.4,12.2,108,12.2z M108,19.1h-3.1v-4.9h3.1c1.6,0,2.6,1.3,2.6,2.4C110.6,17.8,109.7,19.1,108,19.1z M121.5,17
	c-1.6,0-3.2,0.7-3.9,2.2l1.9,0.8c0.4-0.8,1.2-1,2-1c1.1,0,2.3,0.7,2.3,1.8V21c-0.4-0.2-1.2-0.6-2.3-0.6c-2.1,0-4.2,1.1-4.2,3.2
	c0,1.9,1.7,3.1,3.6,3.1c1.5,0,2.3-0.6,2.8-1.4h0.1v1.1h2.1V21C125.9,18.5,124,17,121.5,17z M121.2,24.9c-0.7,0-1.7-0.3-1.7-1.2
	c0-1.1,1.2-1.5,2.3-1.5c1,0,1.4,0.2,2,0.5C123.6,23.9,122.5,24.9,121.2,24.9z M133.6,17.4l-2.5,6.2H131l-2.6-6.2h-2.3L130,26
	l-2.2,4.8h2.3l6-13.4H133.6z M114,26.5h2.2V12.2H114V26.5z"/>
<linearGradient id="SVGID_1_" gradientUnits="userSpaceOnUse" x1="13.6593" y1="5.9193" x2="-5.4568" y2="25.4986" gradientTransform="matrix(1 0 0 -1 0 34)">
	<stop  offset="0" style="stop-color:#00A0FF"/>
	<stop  offset="6.599999e-03" style="stop-color:#00A1FF"/>
	<stop  offset="0.2601" style="stop-color:#00BEFF"/>
	<stop  offset="0.5122" style="stop-color:#00D2FF"/>
	<stop  offset="0.7604" style="stop-color:#00DFFF"/>
	<stop  offset="1" style="stop-color:#00E3FF"/>
</linearGradient>
<path class="st1" d="M0.5,0.9C0.2,1.2,0,1.8,0,2.5v25.2c0,0.7,0.2,1.3,0.5,1.6l0.1,0.1l14.5-14.1v-0.3L0.5,0.9L0.5,0.9z"/>
<linearGradient id="SVGID_2_" gradientUnits="userSpaceOnUse" x1="27.8473" y1="18.9245" x2="-0.3903" y2="18.9245" gradientTransform="matrix(1 0 0 -1 0 34)">
	<stop  offset="0" style="stop-color:#FFE000"/>
	<stop  offset="0.4087" style="stop-color:#FFBD00"/>
	<stop  offset="0.7754" style="stop-color:#FFA500"/>
	<stop  offset="1" style="stop-color:#FF9C00"/>
</linearGradient>
<path class="st2" d="M19.9,19.9l-4.8-4.7v-0.3l4.8-4.7l0.1,0.1l5.7,3.2c1.6,0.9,1.6,2.4,0,3.3L20,19.9L19.9,19.9z"/>
<linearGradient id="SVGID_3_" gradientUnits="userSpaceOnUse" x1="7.6618" y1="12.0953" x2="-18.2612" y2="38.6464" gradientTransform="matrix(1 0 0 -1 0 34)">
	<stop  offset="0" style="stop-color:#FF3A44"/>
	<stop  offset="1" style="stop-color:#C31162"/>
</linearGradient>
<path class="st3" d="M20,19.9l-4.9-4.8L0.5,29.3C1.1,29.8,2,29.9,3,29.3L20,19.9z"/>
<linearGradient id="SVGID_4_" gradientUnits="userSpaceOnUse" x1="-12.3031" y1="5.3012" x2="-0.7273" y2="17.1574" gradientTransform="matrix(1 0 0 -1 0 34)">
	<stop  offset="0" style="stop-color:#32A071"/>
	<stop  offset="6.850000e-02" style="stop-color:#2DA771"/>
	<stop  offset="0.4762" style="stop-color:#15CF74"/>
	<stop  offset="0.8009" style="stop-color:#06E775"/>
	<stop  offset="1" style="stop-color:#00F076"/>
</linearGradient>
<path class="st4" d="M20,10.3L3,0.8C2,0.3,1.1,0.3,0.5,0.9l14.5,14.2L20,10.3z"/>
</svg>
