<svg xmlns="http://www.w3.org/2000/svg" width="60" height="60" fill="none" xmlns:v="https://vecta.io/nano"><path d="M30 60c16.5685 0 30-13.4315 30-30S46.5685 0 30 0 0 13.4315 0 30s13.4315 30 30 30z" fill="#2565e1"/><path d="M40.3474 31.9567c-.9165 4.8565-5.1778 8.5287-10.3 8.5287-5.7916 0-10.4854-4.6938-10.4854-10.4853s4.6938-10.4854 10.4854-10.4854c5.1222 0 9.3835 3.6743 10.3 8.5287h10.5801C49.941 17.3789 40.9694 9.0293 30.0474 9.0293c-11.5831 0-20.97074 9.3897-20.97074 20.9708S18.4663 50.9708 30.0474 50.9708c10.922 0 19.8936-8.3496 20.8801-19.0141H40.3474z" fill="#fff"/></svg>