<svg xmlns="http://www.w3.org/2000/svg" width="60" height="60" fill="none" xmlns:v="https://vecta.io/nano"><g clip-path="url(#A)"><path d="M58.6093 1.88281L32.8638 20.9327L37.6514 9.70596L58.6093 1.88281Z" fill="#e17726"/><g fill="#e27625"><path d="M1.45093 1.90527L22.3527 9.70741l4.546 11.37389L1.45093 1.90527zM48.2483 42.3965l11.3791.2165-3.9768 13.5099-13.885-3.823 6.4827-9.9034z"/><path d="M11.7514 42.3965L18.2101 52.3 4.34839 56.1232.395752 42.6131l11.355648-.2166zm14.5291-24.2129l.4652 15.0195-13.9151-.633 3.958-5.9713.0501-.0576 9.4418-8.3576z"/><path d="M33.5753 18.0166l9.5859 8.5257.0496.0572 3.9581 5.9713-13.9118.6329.3182-15.1871zM18.6177 42.4404l7.598 5.9201-8.8261 4.2613 1.2281-10.1814zm22.766-.0009l1.2025 10.1823-8.8013-4.2618 7.5988-5.9205z"/></g><g fill="#d5bfb2"><path d="M33.979 47.8018l8.9313 4.3246-8.3079 3.9485.0863-2.6097-.7097-5.6634zm-7.9607.0019l-.6819 5.6188.056 2.6493-8.3275-3.9453 8.9534-4.3228z"/></g><g fill="#233447"><path d="M23.4391 35.1641l2.334 4.905-7.9462-2.3278 5.6122-2.5772zm13.1215 0l5.6386 2.5766-7.9719 2.3271 2.3333-4.9037z"/></g><g fill="#cc6228"><path d="M19.2249 42.3896l-1.2845 10.5562-6.8842-10.3254 8.1687-.2308zm21.551 0l8.169.2308-6.9102 10.3257-1.2588-10.5565zm6.5941-10.416l-5.945 6.0589-4.5835-2.0946-2.1946 4.6134-1.4386-7.9334 14.1617-.6443zm-34.743 0l14.1642.6445-1.4386 7.9333-2.195-4.6129-4.5594 2.0942-5.9712-6.0591z"/></g><g fill="#e27525"><path d="M12.2263 30.7305l6.7262 6.8252.2331 6.738-6.9593-13.5632zm35.554-.0127l-6.9717 13.5875.2625-6.7501 6.7092-6.8374zm-21.3177.4277l.2706 1.7039.669 4.2447-.4301 13.0372-2.0332-10.4729-.0007-.1083 1.5244-8.4046zm7.0712-.0234l1.5284 8.4281-.0007.1083-2.0383 10.4991-.0806-2.6261-.3181-10.5145.9093-5.8949z"/></g><g fill="#f5841f"><path d="M41.6691 37.2842l-.2277 5.8542-7.0954 5.5282-1.4344-1.0134 1.6079-8.2818 7.1496-2.0872zm-23.3136 0l7.1249 2.0873 1.6078 8.2816-1.4344 1.0134-7.0958-5.5287-.2025-5.8536z"/></g><path d="M15.7075 50.834l9.0778 4.3012-.0384-1.8367.7595-.6667h8.9845l.7871.6645-.058 1.8354 9.0202-4.2868-4.3892 3.627-5.3076 3.6455h-9.1097l-5.3041-3.6604-4.4221-3.623z" fill="#c0ac9d"/><path d="M33.329 47.2295l1.2835.9066.7521 6.0012-1.0885-.9192h-8.5489l-1.0678.9377.7275-6.0192 1.2839-.9071h6.6582z" fill="#161616"/><g fill="#763e1a"><path d="M56.9097 2.41016l3.0904 9.27124-1.93 9.3742 1.3743 1.0602-1.8596 1.4189 1.3976 1.0794-1.8507 1.6855 1.1362.8229-3.0154 3.5216-12.368-3.601-.1072-.0575-8.9126-7.5183 23.045-17.05714zm-53.81923 0L26.1355 19.4673l-8.9126 7.5184-.1072.0574-12.36803 3.601-3.01535-3.5216 1.13532-.8223-1.84986-1.6861 1.39501-1.0782L.525313 22.113l1.426167-1.0609L0 11.6818l3.09047-9.27164z"/></g><g fill="#f5841f"><path d="M42.2792 26.2559l13.1046 3.8153 4.2575 13.1216H48.4092l-7.7393.0977 5.6283-10.9707-4.019-6.0639zm-24.5584 0l-4.0198 6.0639 5.6291 10.9706-7.7355-.0976H.382324L4.61593 30.0713l13.10487-3.8154zM38.2932 9.64355l-3.6654 9.89975-.7779 13.3736-.2976 4.1917-.0236 10.708h-7.0574l-.0228-10.6879-.2987-4.2155-.7782-13.3699-3.6648-9.89975h16.5864z"/></g></g><defs><clipPath id="A"><path fill="#fff" d="M0 0h60v60H0z"/></clipPath></defs></svg>