<svg xmlns="http://www.w3.org/2000/svg" width="60" height="60" fill="none" xmlns:v="https://vecta.io/nano"><path d="M10.7742 34.4828l1.4446-.624 17.7949-7.7504 19.2396 8.3744-7.2231 14.9425-17.6636 2.4959-13.2969-14.3514-.2955-3.087z" fill="#133444"/><path d="M45.2808 25.2874c-3.1847-3.8424-7.6827-6.3054-12.6075-6.9622l-.3283-.0329c-1.5431-.197-3.0862-.197-4.6293 0l-.3283.0329c-4.9248.6568-9.4228 3.1527-12.6075 6.9622l-.788 1.3136-1.3461 2.2003-.9849 1.6092c0 .0329-.0329.0986-.0657.1314v.0328l2.1341 1.2808 13.6253 8.0788 2.6265 1.5435V22.2004l-2.6265 1.1822v-2.89l2.6265-1.1822 2.6266 1.1822 13.3954 6.1084-.7223-1.3136z" fill="#c42370"/><path d="M49.8443 39.2772c-.0329 6.3382-2.8892 12.3152-7.7812 16.3218-1.8714 1.5435-3.9727 2.6929-6.2709 3.4811-1.8714.624-3.8085.9195-5.7785.9195-10.9658 0-19.8633-9.7537-19.8633-20.7224 0-1.6092.197-3.2184.591-4.7948l19.2395 11.3957 19.2396-11.3957c.4268 1.5764.6566 3.1856.6238 4.7948z" fill="#1c4d6b"/><path d="M27.7158 18.2921l2.2982 1.0181-2.6265 1.2151v-2.3974l.3283.1642zm-.3283 5.1232l2.6265-1.2151v19.3103l-2.6265-1.5763V23.4153z" fill="#000"/><path d="M30.0137 22.2002v19.3103l18.4515-10.9031-18.4515-8.4072z" fill="#1d4259"/><path d="M30.0137 0v22.2003l18.4515 8.4073L30.0137 0z" fill="#4b6b9a"/><path d="M30.0138 22.2006v19.2775l-2.6265-1.5435-15.7922-9.3268h-.0328.0328c0-.0328.0328-.0985.0657-.1313l2.2982-3.8424 13.3954-6.0755v2.8571l2.6594-1.2151z" fill="#343535"/><path d="M30.0139 22.2002v19.3103l-2.6265-1.5763-15.7922-9.3268.0328-.0328 15.7594-7.1593 2.6265-1.2151z" fill="#3e5578"/><path d="M30.0139 0V22.2003L11.5952 30.6076L30.0139 0Z" fill="#6db2d8"/><g fill="#335f8a"><path d="M22.561 58.4238c.2627.1314.5582.2299.8208.3284l-.8208-.3284z"/><path d="M23.3816 58.752c.2626.0985.5581.2298.8536.2955-.2626-.0657-.5581-.1642-.8536-.2955zm1.6089.5253c.2298.0657.4268.1314.6566.1642-.2298-.0328-.4596-.0985-.6566-.1642z"/></g><path d="M10.7741 34.4824l19.2395 11.3957c-.2626 1.7406-.7223 3.4155-1.3789 5.0575-1.5431 3.7439-4.6293 7.6848-10.6704 4.6634-4.892-4.0066-7.7484-9.9836-7.7812-16.3218 0-1.6092.197-3.2184.591-4.7948z" fill="#6db2d8"/><path d="M42.0631 55.5991l-.0657.0329c-.0985.0657-.197.1642-.2955.2299l-.0328.0328c-.0985.0985-.2298.1642-.3283.2627-.1314.0986-.2298.1971-.3612.2628s-.2626.1642-.3611.2627c-.1314.0985-.2299.1314-.3283.2299l-.0657.0328c-.1313.0657-.2298.1314-.3283.2299 0 0-.0329 0-.0329.0328-.1313.0657-.2298.1314-.3611.2299-.1313.0657-.2627.1314-.394.2299l-.394.1971-.394.197-.394.197-.3939.1971c-.2627.1314-.5582.2299-.8208.3284l-.8537.2956-.3283.0985-.394.1313c-.2298.0657-.4268.1314-.6566.1642-.0657.0329-.1642.0329-.2627.0657l-.1313.0329-.3611.0656-.3284.0657c-.0985.0329-.197.0329-.2955.0657-.0985 0-.2298.0329-.3283.0657-.0656 0-.0985 0-.1641.0328l-.2627.0329h-.1313c-.0985 0-.197.0328-.2627.0328-.0985 0-.2298.0329-.3283.0329h-.2627-.2298-.2626-.3612-.788-.3611-.2627-.2298-.2626c-.0985 0-.2299-.0329-.3284-.0329s-.197 0-.2626-.0328h-.1313c-.0657 0-.1642-.0329-.2627-.0329-.0657 0-.0985 0-.1642-.0328-.0985 0-.2298-.0328-.3283-.0657-.0985 0-.197-.0328-.2955-.0657-.0985 0-.2298-.0328-.3283-.0657s-.2298-.0656-.3611-.0656l-.1314-.0329c-.0985 0-.197-.0328-.2626-.0328l-.6567-.1642-.394-.1314-.3283-.0985-.8536-.2956c-.2955-.0985-.5581-.2299-.8208-.3284l-.394-.197-.394-.1971-.394-.197-.3939-.1971c-.1314-.0656-.2627-.1313-.394-.2298-.1314-.0657-.2299-.1314-.3612-.2299l-.0328-.0329c-.1313-.0656-.2298-.1313-.3283-.2298l-.0657-.0329c-.0985-.0657-.2298-.1314-.3283-.2299-.0985-.0657-.2627-.1642-.3612-.2627-.1313-.0985-.2626-.1642-.3611-.2627l-.3283-.2627-.0329-.0329c-.0985-.0657-.197-.1642-.2955-.2299l-.0656-.0328c6.0082 2.9885 9.1273-.9524 10.6704-4.6634.6566-1.6092 1.1163-3.3169 1.3789-5.0575.2627 1.7406.7223 3.4155 1.379 5.0575 1.3461 3.6782 4.4651 7.6191 10.4734 4.6305z" fill="#529bba"/><g fill="#335f8a"><path d="M34.4131 59.4748l.6566-.1643c-.197.0329-.4268.0986-.6566.1643zm1.3791-.4273l.8536-.2955c-.2626.1313-.5581.2298-.8536.2955z"/><path d="M36.6458 58.7522l.8208-.3284-.8208.3284z"/></g><path d="M49.8442 39.2772c-.0328 6.3382-2.8892 12.3152-7.7812 16.3218-6.0082 2.9885-9.1273-.9524-10.6704-4.6634-.6566-1.6092-1.1163-3.3169-1.3789-5.0574l19.2395-11.3958c.394 1.5764.591 3.1856.591 4.7948z" fill="#4b6b9a"/></svg>