<svg xmlns="http://www.w3.org/2000/svg" width="60" height="60" fill="#39a0ff" xmlns:v="https://vecta.io/nano"><path d="M33.4985 1.77239H7.43981c-2.08151 0-3.76891 1.6874-3.76891 3.76891v9.5042c0 2.0815 1.6874 3.7689 3.76891 3.7689H33.4985c2.0815 0 3.7689-1.6874 3.7689-3.7689V5.5413c0-2.08151-1.6874-3.76891-3.7689-3.76891z"/><path d="M33.4985 1.77239h-9.5038c-2.0816 0-3.769 1.6874-3.769 3.76891v48.9139c0 2.0815 1.6874 3.7689 3.7689 3.7689h9.5043c2.0815 0 3.7689-1.6874 3.7689-3.7689l-.0004-48.9139c0-2.08151-1.6874-3.76891-3.7689-3.76891zM49.8032 18.7735c4.7061 0 8.5211-3.815 8.5211-8.521s-3.815-8.52105-8.5211-8.52105-8.521 3.81498-8.521 8.52105 3.815 8.521 8.521 8.521z"/></svg>