<svg xmlns="http://www.w3.org/2000/svg" width="60" height="60" fill="none" xmlns:v="https://vecta.io/nano"><path d="M12.2826 18.7894c9.7847-9.5864 25.648-9.5864 35.4327 0l1.1781 1.1529c.49.4806.49 1.2567 0 1.7341l-4.0275 3.9457c-.2434.2403-.6426.2403-.886 0l-1.6194-1.588c-6.825-6.6865-17.8916-6.6865-24.7198 0l-1.7363 1.7016c-.2434.2403-.6426.2403-.886 0l-4.0274-3.9456c-.4901-.4806-.4901-1.2568 0-1.7342l1.2916-1.2665zm43.7635 8.1609l3.5861 3.5137c.4901.4806.4901 1.2568 0 1.7341l-16.165 15.841c-.4901.4807-1.282.4807-1.772 0L30.2229 36.7997c-.1233-.1201-.3213-.1201-.4414 0L18.3092 48.0391c-.49.4807-1.2819.4807-1.7719 0L.372174 32.2014c-.490047-.4806-.490047-1.2568 0-1.7342l3.586106-3.5137c.49005-.4806 1.28191-.4806 1.77196 0L17.2025 38.1961c.1234.1202.3213.1202.4414 0l11.4723-11.2426c.4901-.4806 1.2819-.4806 1.772 0l11.4723 11.2426c.1233.1202.3213.1202.4414 0l11.4723-11.2393c.49-.4839 1.2851-.4839 1.7719-.0065z" fill="#3a99fb"/></svg>