<svg width="394" height="394" viewBox="0 0 394 394" fill="none" xmlns="http://www.w3.org/2000/svg">
<path d="M197 336.917C281.381 336.917 349.785 332.924 349.785 327.997C349.785 323.071 281.381 319.077 197 319.077C112.619 319.077 44.2148 323.071 44.2148 327.997C44.2148 332.924 112.619 336.917 197 336.917Z" fill="#F1F4F3"/>
<path d="M196.827 280.371C196.904 282.632 195.092 284.507 192.83 284.507H88.9382C86.782 284.507 85.0138 282.798 84.9405 280.643L79.0899 108.688C79.013 106.427 80.8252 104.552 83.0876 104.552H186.979C189.135 104.552 190.903 106.261 190.977 108.416L196.827 280.371Z" fill="#0AAD0A"/>
<path d="M202.413 274.784C202.49 277.045 200.678 278.92 198.415 278.92H94.524C92.3679 278.92 90.5998 277.212 90.5264 275.057L84.6683 103.101C84.5912 100.84 86.4034 98.9649 88.6659 98.9649H192.557C194.713 98.9649 196.482 100.674 196.555 102.829L202.413 274.784Z" fill="#0AAD0A"/>
<path opacity="0.3" d="M202.413 274.784C202.49 277.045 200.678 278.92 198.415 278.92H94.524C92.3679 278.92 90.5998 277.212 90.5264 275.057L84.6683 103.101C84.5912 100.84 86.4034 98.9649 88.6659 98.9649H192.557C194.713 98.9649 196.482 100.674 196.555 102.829L202.413 274.784Z" fill="white"/>
<path d="M165.064 173.016C177.045 160.829 176.535 140.9 163.925 128.504C151.316 116.108 131.381 115.94 119.4 128.127C107.419 140.315 107.929 160.244 120.539 172.639C133.149 185.035 153.083 185.204 165.064 173.016Z" fill="#0AAD0A"/>
<path d="M168.214 150.579C168.375 154.867 167.44 159.125 165.496 162.951C163.397 167.073 160.192 170.529 156.239 172.932C152.286 175.334 147.742 176.588 143.116 176.551C138.382 176.526 133.738 175.256 129.649 172.869C125.561 170.481 122.172 167.061 119.823 162.951C117.633 159.184 116.409 154.934 116.261 150.579C116.116 147.202 116.659 143.832 117.856 140.671C119.054 137.511 120.882 134.627 123.228 132.195C125.575 129.763 128.392 127.833 131.507 126.523C134.622 125.213 137.972 124.55 141.351 124.575C148.313 124.624 154.989 127.354 159.992 132.196C164.994 137.039 167.939 143.622 168.214 150.579Z" fill="white"/>
<path opacity="0.6" d="M165.481 162.951C163.383 167.073 160.178 170.529 156.225 172.932C152.272 175.334 147.727 176.588 143.102 176.551C138.368 176.526 133.723 175.256 129.635 172.869C125.546 170.481 122.158 167.061 119.809 162.951C126.473 158.407 134.359 155.992 142.424 156.024C150.62 156.042 158.632 158.449 165.481 162.951Z" fill="#0AAD0A"/>
<path opacity="0.6" d="M150.326 149.931C154.732 145.449 154.544 138.121 149.908 133.563C145.271 129.005 137.941 128.943 133.535 133.425C129.13 137.906 129.317 145.234 133.954 149.792C138.591 154.35 145.921 154.412 150.326 149.931Z" fill="#0AAD0A"/>
<path d="M180.002 211.685C180.041 212.816 179.135 213.753 178.004 213.753H110.629C109.551 213.753 108.667 212.898 108.63 211.821L108.285 201.637C108.247 200.506 109.153 199.569 110.284 199.569H177.659C178.737 199.569 179.621 200.424 179.657 201.501L180.002 211.685Z" fill="white"/>
<path d="M180.87 237.035C180.908 238.166 180.002 239.103 178.871 239.103H111.488C110.41 239.103 109.526 238.248 109.489 237.171L109.144 226.987C109.106 225.856 110.012 224.919 111.143 224.919H178.526C179.604 224.919 180.488 225.774 180.525 226.851L180.87 237.035Z" fill="white"/>
<path d="M153.393 226.873L136.191 229.237C136.027 229.256 135.868 229.308 135.726 229.391C135.583 229.474 135.458 229.586 135.361 229.719C135.263 229.852 135.194 230.004 135.158 230.165C135.122 230.326 135.119 230.493 135.151 230.655L137.412 242.184C137.486 242.522 137.684 242.821 137.967 243.02C138.25 243.22 138.598 243.307 138.941 243.263L156.143 240.899C156.307 240.879 156.465 240.825 156.607 240.74C156.749 240.656 156.872 240.544 156.969 240.41C157.065 240.277 157.134 240.124 157.169 239.963C157.205 239.802 157.207 239.635 157.175 239.473L154.922 227.945C154.848 227.607 154.65 227.309 154.366 227.111C154.083 226.912 153.736 226.828 153.393 226.873ZM148.452 238.551L145.3 238.969L144.993 235.25C144.668 235.109 144.382 234.893 144.158 234.618C143.935 234.344 143.781 234.02 143.709 233.674C143.651 233.405 143.65 233.128 143.706 232.859C143.762 232.59 143.874 232.336 144.034 232.113C144.195 231.89 144.4 231.704 144.637 231.565C144.874 231.427 145.138 231.34 145.411 231.31C145.97 231.237 146.537 231.378 146.998 231.703C147.459 232.029 147.781 232.515 147.901 233.067C147.969 233.4 147.948 233.745 147.84 234.067C147.732 234.39 147.541 234.678 147.286 234.903L148.452 238.551Z" fill="#001E2B"/>
<path d="M151.689 226.251C151.385 226.289 151.077 226.213 150.826 226.036C150.576 225.86 150.4 225.596 150.334 225.297L150.113 224.17C149.798 222.632 148.936 221.261 147.687 220.311C146.438 219.36 144.886 218.895 143.32 219.001C142.53 219.046 141.759 219.261 141.059 219.63C140.359 220 139.747 220.516 139.264 221.143C138.781 221.77 138.439 222.494 138.26 223.265C138.082 224.036 138.071 224.837 138.23 225.612L138.482 226.912C138.511 227.057 138.51 227.205 138.479 227.349C138.448 227.492 138.387 227.628 138.3 227.747C138.213 227.865 138.102 227.965 137.975 228.038C137.848 228.112 137.706 228.158 137.56 228.173C137.255 228.216 136.946 228.141 136.694 227.964C136.443 227.787 136.268 227.521 136.205 227.22L135.992 226.124C135.776 225.101 135.768 224.044 135.971 223.017C136.173 221.991 136.581 221.016 137.17 220.151C137.759 219.286 138.517 218.549 139.397 217.985C140.278 217.42 141.264 217.039 142.296 216.865C144.533 216.49 146.829 216.99 148.707 218.262C150.585 219.534 151.901 221.481 152.382 223.697L152.635 224.99C152.664 225.136 152.662 225.286 152.629 225.431C152.597 225.576 152.534 225.713 152.444 225.832C152.355 225.951 152.241 226.05 152.111 226.122C151.981 226.194 151.837 226.238 151.689 226.251Z" fill="#001E2B"/>
<path d="M169.088 256.9C169.126 258.031 168.22 258.968 167.089 258.968H124.625C123.546 258.968 122.662 258.113 122.626 257.035L122.452 251.799C122.414 250.669 123.32 249.733 124.45 249.733H166.91C167.988 249.733 168.872 250.587 168.909 251.665L169.088 256.9Z" fill="#0AAD0A"/>
<path d="M146.742 206.661C146.756 206.998 146.701 207.334 146.581 207.649C146.461 207.964 146.279 208.252 146.044 208.494C145.81 208.736 145.529 208.929 145.218 209.059C144.907 209.19 144.573 209.256 144.236 209.253C143.541 209.248 142.875 208.976 142.375 208.494C141.875 208.011 141.579 207.355 141.549 206.661C141.535 206.324 141.59 205.988 141.71 205.673C141.83 205.358 142.012 205.07 142.247 204.828C142.481 204.585 142.762 204.393 143.073 204.263C143.384 204.132 143.718 204.066 144.055 204.068C144.75 204.072 145.418 204.343 145.918 204.826C146.418 205.309 146.714 205.966 146.742 206.661Z" fill="#001E2B"/>
<path d="M135.535 206.661C135.55 206.998 135.496 207.335 135.376 207.65C135.257 207.966 135.074 208.254 134.84 208.496C134.605 208.739 134.324 208.931 134.012 209.061C133.701 209.192 133.366 209.257 133.029 209.253C132.335 209.248 131.67 208.976 131.171 208.493C130.672 208.01 130.378 207.354 130.35 206.661C130.336 206.324 130.391 205.988 130.51 205.673C130.63 205.358 130.813 205.07 131.047 204.828C131.282 204.585 131.563 204.393 131.874 204.263C132.184 204.132 132.518 204.066 132.856 204.068C133.55 204.072 134.217 204.344 134.716 204.827C135.215 205.31 135.508 205.967 135.535 206.661Z" fill="#001E2B"/>
<path d="M124.402 206.661C124.416 206.998 124.361 207.334 124.241 207.649C124.121 207.964 123.939 208.252 123.704 208.494C123.47 208.736 123.189 208.929 122.878 209.059C122.567 209.19 122.233 209.256 121.896 209.253C121.202 209.25 120.535 208.978 120.036 208.495C119.537 208.012 119.243 207.355 119.217 206.661C119.203 206.324 119.258 205.988 119.378 205.673C119.498 205.358 119.68 205.07 119.914 204.828C120.149 204.585 120.43 204.393 120.741 204.263C121.052 204.132 121.386 204.066 121.723 204.068C122.417 204.072 123.084 204.344 123.583 204.827C124.082 205.31 124.376 205.967 124.402 206.661Z" fill="#001E2B"/>
<path d="M157.905 206.661C157.919 206.998 157.865 207.334 157.745 207.649C157.625 207.964 157.442 208.252 157.208 208.494C156.973 208.736 156.692 208.929 156.382 209.059C156.071 209.19 155.737 209.256 155.399 209.253C154.705 209.25 154.038 208.978 153.539 208.495C153.04 208.012 152.747 207.355 152.72 206.661C152.709 206.325 152.765 205.99 152.887 205.677C153.008 205.364 153.192 205.078 153.427 204.838C153.662 204.598 153.943 204.408 154.254 204.28C154.565 204.151 154.898 204.088 155.234 204.092C155.923 204.097 156.584 204.367 157.081 204.844C157.578 205.322 157.873 205.972 157.905 206.661Z" fill="#001E2B"/>
<path d="M169.074 206.661C169.089 206.998 169.035 207.335 168.916 207.65C168.796 207.966 168.613 208.254 168.379 208.496C168.144 208.739 167.863 208.931 167.551 209.061C167.24 209.192 166.905 209.257 166.568 209.253C165.874 209.248 165.209 208.976 164.71 208.493C164.211 208.01 163.917 207.354 163.889 206.661C163.875 206.324 163.93 205.988 164.05 205.673C164.169 205.358 164.352 205.07 164.586 204.828C164.821 204.585 165.102 204.393 165.413 204.263C165.723 204.132 166.058 204.066 166.395 204.068C167.089 204.072 167.756 204.344 168.255 204.827C168.754 205.31 169.047 205.967 169.074 206.661Z" fill="#001E2B"/>
<path d="M263.124 137.333C264.172 139.019 265.047 140.626 265.945 142.305C266.843 143.983 267.655 145.67 268.451 147.395C270.075 150.89 271.419 154.508 272.47 158.215C272.612 158.68 272.714 159.176 272.832 159.657L273.006 160.39L273.092 160.752L273.195 161.351C273.372 162.709 273.29 164.089 272.95 165.417C272.406 167.478 271.579 169.454 270.492 171.288C268.547 174.62 266.197 177.698 263.494 180.452L260.177 177.946C261.842 174.885 263.324 171.727 264.613 168.49C265.188 167.064 265.593 165.575 265.819 164.054C265.892 163.589 265.87 163.115 265.756 162.659L265.441 161.698C265.315 161.304 265.197 160.91 265.047 160.508C263.848 157.257 262.462 154.079 260.894 150.989C259.318 147.837 257.624 144.685 255.93 141.675L263.124 137.333Z" fill="#FF8B7B"/>
<path d="M261.019 176.851L257.395 178.766L261.555 183.636C261.555 183.636 264.156 181.878 264.274 179.199L261.019 176.851Z" fill="#FF8B7B"/>
<path d="M252.531 181.768L256.983 185.306L261.554 183.636L257.393 178.766L252.531 181.768Z" fill="#FF8B7B"/>
<path d="M237.309 111.549C237.223 111.991 236.915 112.298 236.632 112.243C236.348 112.188 236.182 111.778 236.269 111.344C236.356 110.911 236.663 110.556 236.955 110.651C237.246 110.746 237.396 111.108 237.309 111.549Z" fill="#001E2B"/>
<path d="M236.954 112.306C236.161 113.54 235.201 114.659 234.102 115.631C234.361 115.9 234.676 116.11 235.024 116.246C235.372 116.382 235.746 116.441 236.119 116.419L236.954 112.306Z" fill="#FF5652"/>
<path d="M235.535 127.766V122.597L242.375 123.385C242.375 123.385 242.265 127.829 238.435 129.137L235.535 127.766Z" fill="#FF8B7B"/>
<path d="M237.505 118.878L242.32 120.265L242.406 123.424L235.566 122.597L237.505 118.878Z" fill="#FF8B7B"/>
<path opacity="0.2" d="M242.319 120.265L237.504 118.878L236.566 120.674C236.618 122.09 237.06 123.464 237.844 124.643C238.629 125.823 239.725 126.762 241.011 127.357C241.838 126.201 242.321 124.835 242.405 123.417L242.319 120.265Z" fill="black"/>
<path d="M239.406 109.445C239.456 109.444 239.505 109.428 239.547 109.4C239.589 109.372 239.623 109.333 239.643 109.287C239.664 109.241 239.671 109.19 239.664 109.14C239.657 109.089 239.635 109.043 239.603 109.004C239.326 108.691 238.978 108.45 238.589 108.299C238.2 108.148 237.78 108.093 237.365 108.137C237.297 108.149 237.236 108.187 237.196 108.243C237.157 108.299 237.141 108.369 237.152 108.437C237.164 108.505 237.201 108.566 237.257 108.607C237.313 108.649 237.383 108.666 237.451 108.657C237.78 108.625 238.112 108.672 238.419 108.794C238.726 108.916 239 109.109 239.217 109.359C239.241 109.385 239.27 109.406 239.302 109.421C239.335 109.436 239.37 109.444 239.406 109.445Z" fill="#001E2B"/>
<path d="M249.474 119.524C248.686 123.582 248.197 129.2 251.05 131.903C251.05 131.903 249.947 136.017 242.382 136.017C234.1 136.017 238.402 132.408 238.402 132.408C241.846 131.336 241.814 127.42 241.026 124.268L249.474 119.524Z" fill="#FF8B7B"/>
<path d="M252.586 134.614C253.326 133.574 253.295 130.272 252.507 129.689C251.238 128.751 245.793 128.531 238.473 130.217C239.261 133.416 237.566 135.087 237.566 135.087L252.586 134.614Z" fill="#0AAD0A"/>
<path d="M277.222 321.693C276.997 321.772 276.759 321.806 276.52 321.793C276.282 321.779 276.049 321.718 275.835 321.614C275.754 321.539 275.698 321.44 275.675 321.331C275.653 321.222 275.664 321.109 275.709 321.008C275.734 320.922 275.777 320.844 275.835 320.777C275.894 320.71 275.966 320.657 276.048 320.621C276.796 320.259 278.514 320.96 278.593 320.992C278.616 321.001 278.636 321.018 278.651 321.039C278.665 321.06 278.672 321.085 278.672 321.11C278.672 321.135 278.665 321.16 278.652 321.182C278.64 321.204 278.622 321.223 278.601 321.236C278.156 321.431 277.695 321.584 277.222 321.693ZM276.316 320.803C276.264 320.815 276.213 320.833 276.166 320.858C276.117 320.876 276.073 320.905 276.037 320.944C276.001 320.982 275.975 321.028 275.961 321.078C275.89 321.315 275.961 321.394 276.008 321.417C276.308 321.67 277.411 321.417 278.191 321.126C277.598 320.88 276.957 320.77 276.316 320.803Z" fill="#0AAD0A"/>
<path d="M278.568 321.244H278.505C277.875 321.063 276.535 320.109 276.52 319.487C276.519 319.388 276.552 319.292 276.614 319.214C276.676 319.137 276.762 319.083 276.858 319.061C276.952 319.026 277.052 319.012 277.151 319.021C277.251 319.029 277.347 319.059 277.434 319.108C278.174 319.487 278.647 321.015 278.663 321.086C278.674 321.106 278.68 321.127 278.68 321.149C278.68 321.172 278.674 321.193 278.663 321.212C278.651 321.225 278.636 321.234 278.619 321.239C278.603 321.245 278.585 321.246 278.568 321.244ZM276.992 319.282H276.929C276.772 319.337 276.772 319.416 276.772 319.455C276.772 319.826 277.67 320.574 278.348 320.874C278.182 320.432 277.82 319.558 277.339 319.298C277.232 319.249 277.111 319.243 277 319.282H276.992Z" fill="#0AAD0A"/>
<path d="M236.289 322.623C235.58 322.623 234.895 322.521 234.666 322.205C234.606 322.121 234.574 322.021 234.574 321.918C234.574 321.815 234.606 321.714 234.666 321.63C234.711 321.553 234.771 321.486 234.843 321.433C234.915 321.38 234.997 321.343 235.084 321.323C236.006 321.071 237.944 322.174 238.023 322.221C238.047 322.233 238.067 322.253 238.078 322.277C238.089 322.301 238.092 322.329 238.086 322.355C238.083 322.382 238.071 322.407 238.053 322.427C238.035 322.447 238.01 322.46 237.984 322.465C237.425 322.568 236.858 322.621 236.289 322.623ZM235.415 321.543C235.331 321.53 235.246 321.53 235.162 321.543C235.109 321.554 235.059 321.576 235.014 321.607C234.969 321.638 234.931 321.678 234.902 321.725C234.808 321.89 234.847 321.969 234.902 322.016C235.162 322.379 236.557 322.387 237.59 322.237C236.916 321.869 236.177 321.633 235.415 321.543Z" fill="#0AAD0A"/>
<path d="M237.979 322.465H237.924C237.254 322.166 235.931 320.968 236.033 320.338C236.033 320.188 236.159 320.007 236.522 319.975C236.651 319.96 236.782 319.972 236.907 320.01C237.032 320.048 237.147 320.111 237.246 320.196C237.751 320.8 238.055 321.546 238.113 322.331C238.113 322.354 238.108 322.376 238.099 322.396C238.089 322.417 238.075 322.435 238.058 322.45C238.034 322.462 238.007 322.467 237.979 322.465ZM236.624 320.22H236.545C236.309 320.22 236.293 320.33 236.293 320.361C236.23 320.74 237.128 321.685 237.814 322.095C237.754 321.463 237.497 320.865 237.081 320.385C236.952 320.275 236.786 320.216 236.616 320.22H236.624Z" fill="#0AAD0A"/>
<path d="M244.06 322.339H238.52L237.969 309.503H243.508L244.06 322.339Z" fill="#FF8B7B"/>
<path d="M284.745 319.77L279.332 320.945L273.887 308.991L279.308 307.816L284.745 319.77Z" fill="#FF8B7B"/>
<path d="M278.803 320.401L284.894 319.085C285 319.062 285.111 319.076 285.209 319.125C285.306 319.174 285.384 319.254 285.43 319.353L287.542 323.939C287.598 324.05 287.627 324.173 287.627 324.297C287.626 324.422 287.596 324.544 287.539 324.655C287.483 324.766 287.4 324.861 287.299 324.934C287.198 325.007 287.081 325.055 286.958 325.074C284.831 325.491 283.767 325.594 281.096 326.169C279.449 326.531 275.729 327.438 273.452 327.926C271.175 328.415 270.395 326.232 271.285 325.83C275.265 324.01 276.919 322.41 277.999 320.921C278.194 320.655 278.48 320.47 278.803 320.401Z" fill="#001E2B"/>
<path d="M238.559 321.693H244.611C244.721 321.694 244.827 321.732 244.913 321.8C244.999 321.869 245.059 321.964 245.084 322.071L246.179 326.996C246.211 327.115 246.215 327.24 246.19 327.361C246.165 327.482 246.112 327.595 246.036 327.692C245.959 327.788 245.861 327.865 245.749 327.917C245.637 327.969 245.514 327.994 245.391 327.989C243.208 327.95 240.056 327.824 237.314 327.824C234.099 327.824 231.333 327.997 227.567 327.997C225.289 327.997 224.659 325.696 225.612 325.483C229.946 324.538 233.492 324.435 237.235 322.127C237.628 321.863 238.087 321.713 238.559 321.693Z" fill="#001E2B"/>
<path d="M260.964 133.172C266.157 134.362 270.42 147.624 270.42 147.624L260.042 155.559C257.348 152.679 255.448 149.149 254.526 145.315C252.69 138.365 255.653 131.943 260.964 133.172Z" fill="#0AAD0A"/>
<path opacity="0.4" d="M260.964 133.172C266.157 134.362 270.42 147.624 270.42 147.624L260.042 155.559C257.348 152.679 255.448 149.149 254.526 145.315C252.69 138.365 255.653 131.943 260.964 133.172Z" fill="black"/>
<path d="M233.643 148.987C232.351 150.382 231.059 151.627 229.703 152.927C229.034 153.558 228.356 154.188 227.663 154.795L226.615 155.717L226.354 155.945L225.905 156.308C225.443 156.677 224.931 156.979 224.384 157.206C223.776 157.464 223.123 157.598 222.462 157.6C221.897 157.602 221.337 157.504 220.807 157.308C220.219 157.085 219.683 156.744 219.231 156.308C218.654 155.743 218.23 155.041 218.002 154.267C217.882 153.885 217.805 153.491 217.773 153.093C217.732 152.626 217.732 152.157 217.773 151.69C217.813 151.312 217.86 150.981 217.923 150.673C218.139 149.599 218.444 148.545 218.837 147.521C219.191 146.549 219.599 145.597 220.058 144.669C220.563 143.668 221.043 142.935 221.524 142.1C223.476 138.902 225.704 135.88 228.183 133.07C230.636 130.276 233.34 127.712 236.26 125.41L239.159 128.397C237.126 131.123 235.125 134.047 233.273 136.923C231.43 139.783 229.747 142.742 228.23 145.788C227.891 146.529 227.442 147.364 227.229 147.963C226.947 148.658 226.703 149.369 226.496 150.09C226.298 150.74 226.148 151.404 226.047 152.076C226.042 152.181 226.042 152.286 226.047 152.391C226.047 152.454 226.047 152.486 226.047 152.32C226.034 152.144 226 151.969 225.945 151.8C225.774 151.242 225.462 150.737 225.039 150.335C224.662 149.988 224.22 149.721 223.738 149.547C223.315 149.386 222.867 149.304 222.414 149.302C221.979 149.297 221.548 149.38 221.146 149.547C221.01 149.602 220.878 149.668 220.752 149.744L221.051 149.468L222.005 148.601L223.888 146.836C225.133 145.662 226.386 144.409 227.568 143.243L233.643 148.987Z" fill="#FF8B7B"/>
<path opacity="0.2" d="M256.512 142.912C259.333 145.701 260.255 150.792 260.452 155.204L259.995 155.559C257.301 152.679 255.401 149.149 254.479 145.315C254.376 144.905 254.282 144.527 254.211 144.078L256.512 142.912Z" fill="black"/>
<path d="M228.136 138.688C227.001 144.677 226.292 156.977 229.578 181.327H259.254C259.459 176.78 256.598 154.574 260.988 133.133C257.708 132.503 254.392 132.084 251.059 131.88C246.86 131.639 242.65 131.639 238.451 131.88C237.064 132.006 235.693 132.211 234.511 132.423C232.939 132.699 231.488 133.446 230.349 134.564C229.211 135.683 228.439 137.121 228.136 138.688Z" fill="#0AAD0A"/>
<path opacity="0.4" d="M228.136 138.688C227.001 144.677 226.292 156.977 229.578 181.327H259.254C259.459 176.78 256.598 154.574 260.988 133.133C257.708 132.503 254.392 132.084 251.059 131.88C246.86 131.639 242.65 131.639 238.451 131.88C237.064 132.006 235.693 132.211 234.511 132.423C232.939 132.699 231.488 133.446 230.349 134.564C229.211 135.683 228.439 137.121 228.136 138.688Z" fill="black"/>
<path opacity="0.2" d="M232.673 147.569L227.315 146.284C227.149 149.531 227.134 153.55 227.37 158.522C229.836 155.717 232.988 151.335 232.673 147.569Z" fill="black"/>
<path opacity="0.2" d="M237.969 309.503L238.252 316.122H243.8L243.516 309.503H237.969Z" fill="black"/>
<path opacity="0.2" d="M279.308 307.816L273.887 308.991L276.692 315.153L282.113 313.979L279.308 307.816Z" fill="black"/>
<path d="M252.107 113.598C250.689 118.909 250.121 122.093 246.843 124.299C241.918 127.656 235.772 123.811 235.614 118.2C235.441 113.133 237.797 105.293 243.494 104.221C244.746 103.986 246.038 104.074 247.246 104.476C248.455 104.878 249.541 105.581 250.403 106.519C251.265 107.457 251.873 108.6 252.171 109.838C252.47 111.077 252.447 112.371 252.107 113.598Z" fill="#FF8B7B"/>
<path d="M239.672 113.795C239.404 113.086 238.182 107.594 239.333 106.167C240.483 104.741 253.604 105.773 255.542 107.68C258.765 110.832 256.527 113.669 253.005 117.317C250.357 120.06 250.255 123.149 248.915 123.621C246.551 124.409 242.942 123.669 242.217 121.171C241.492 118.673 239.672 113.795 239.672 113.795Z" fill="#001E2B"/>
<path d="M253.952 101.431C249.318 99.4614 240.627 101.644 235.93 100.509C235.87 102.256 236.445 103.965 237.547 105.32C238.649 106.676 240.205 107.587 241.927 107.885C245.823 108.628 249.781 108.994 253.747 108.98C258.9 108.744 257.892 103.11 253.952 101.431Z" fill="#001E2B"/>
<path d="M254.676 107.846C256.368 108.012 258.073 107.687 259.585 106.908C260.452 109.004 255.684 109.579 254.676 107.846Z" fill="#001E2B"/>
<path d="M242.194 114.016C242.087 115.382 241.534 116.676 240.618 117.696C239.404 119.027 238.144 118.192 237.931 116.577C237.742 115.111 238.136 112.637 239.617 111.928C241.099 111.218 242.296 112.369 242.194 114.016Z" fill="#FF8B7B"/>
<path d="M240.098 181.35C240.098 181.35 246.402 223.705 249.845 239.576C253.62 256.951 273.903 314.436 273.903 314.436L283.824 312.284C283.824 312.284 269.64 265.43 266.488 241.136C264.045 222.476 259.246 181.335 259.246 181.335L240.098 181.35Z" fill="#21313C"/>
<path d="M271.524 311.134C271.485 311.134 273.376 314.727 273.376 314.727L284.534 312.308L283.596 308.951L271.524 311.134Z" fill="#001E2B"/>
<path opacity="0.3" d="M244.077 196.441C251.35 197.867 250.578 224.99 249.703 238.945C247.607 229.079 244.534 210.104 242.438 196.638C242.945 196.387 243.524 196.317 244.077 196.441Z" fill="black"/>
<path d="M229.578 181.35C229.578 181.35 228.79 222.791 229.42 239.662C230.051 257.243 236.189 314.806 236.189 314.806H245.582C245.582 314.806 245.921 258.267 246.37 241.002C246.827 222.184 249.097 181.319 249.097 181.319L229.578 181.35Z" fill="#21313C"/>
<path d="M234.386 311.102C234.338 311.102 234.914 314.995 234.914 314.995H246.332L246.647 311.52L234.386 311.102Z" fill="#001E2B"/>
<path d="M239.751 140.532C242.406 147.695 226.796 156.134 226.796 156.134L220.035 147.466C220.035 147.466 224.582 138.467 230.098 134.417C236.914 129.421 237.726 135.079 239.751 140.532Z" fill="#0AAD0A"/>
<path opacity="0.4" d="M239.751 140.532C242.406 147.695 226.796 156.134 226.796 156.134L220.035 147.466C220.035 147.466 224.582 138.467 230.098 134.417C236.914 129.421 237.726 135.079 239.751 140.532Z" fill="black"/>
<path d="M300.912 86.1521C316.618 86.1521 329.35 78.0377 329.35 68.0281C329.35 58.0184 316.618 49.9041 300.912 49.9041C285.205 49.9041 272.473 58.0184 272.473 68.0281C272.473 78.0377 285.205 86.1521 300.912 86.1521Z" fill="#0AAD0A"/>
<path d="M290.652 77.1531C288.779 77.1471 286.968 76.481 285.537 75.2718C284.106 74.0627 283.146 72.3879 282.828 70.5418C282.514 68.542 282.965 66.4976 284.091 64.8154C285.217 63.1333 286.935 61.9367 288.903 61.464C290.518 61.0918 292.209 61.2353 293.739 61.8742C295.268 62.5131 296.559 63.6153 297.429 65.0258L315.687 61.2591C316.389 61.1055 317.123 61.2222 317.742 61.5859C318.361 61.9496 318.821 62.5336 319.028 63.2213C319.124 63.5828 319.145 63.96 319.09 64.3298C319.034 64.6997 318.904 65.0544 318.707 65.3723C318.51 65.6901 318.251 65.9645 317.944 66.1786C317.638 66.3928 317.291 66.5421 316.924 66.6175L316.452 66.7121C316.381 66.7247 316.315 66.7533 316.258 66.7956C316.2 66.838 316.153 66.893 316.121 66.9564C316.091 67.0207 316.076 67.0906 316.076 67.1613C316.076 67.2319 316.091 67.3018 316.121 67.3661L316.444 68.2014C316.552 68.4722 316.562 68.7722 316.473 69.0498C316.384 69.3274 316.201 69.5652 315.955 69.7223C315.761 69.8419 315.598 70.0042 315.476 70.1968C315.355 70.3893 315.279 70.607 315.254 70.8333C315.231 71.0931 315.126 71.3389 314.955 71.5356C314.783 71.7323 314.554 71.8699 314.3 71.9287L313.93 72.0075C313.673 72.0549 313.408 72.0194 313.173 71.906C312.938 71.7927 312.745 71.6074 312.622 71.3771C312.458 71.1022 312.213 70.8853 311.92 70.7564C311.628 70.6276 311.302 70.5933 310.989 70.6584C310.676 70.7234 310.391 70.8846 310.173 71.1194C309.956 71.3541 309.818 71.6508 309.777 71.9681C309.755 72.2262 309.652 72.4706 309.482 72.6661C309.312 72.8616 309.084 72.9979 308.832 73.0555L308.461 73.1343C308.205 73.1805 307.94 73.1444 307.705 73.0312C307.47 72.918 307.277 72.7334 307.153 72.5039C307.035 72.3085 306.876 72.141 306.687 72.0131C306.498 71.8852 306.283 71.7999 306.058 71.7632C305.755 71.7267 305.476 71.5809 305.272 71.3531C305.069 71.1253 304.956 70.8312 304.955 70.526V69.6277C304.951 69.5574 304.933 69.4887 304.901 69.4261C304.869 69.3636 304.823 69.3088 304.768 69.2654C304.713 69.222 304.649 69.191 304.58 69.1747C304.512 69.1584 304.441 69.157 304.372 69.1707L298.548 70.3684C298.311 71.9817 297.582 73.4827 296.461 74.6671C295.34 75.8514 293.881 76.6617 292.284 76.9876C291.747 77.0974 291.2 77.1528 290.652 77.1531ZM289.076 62.1811C287.289 62.5986 285.726 63.6778 284.703 65.2013C283.679 66.7248 283.271 68.5796 283.56 70.3921C283.87 72.0783 284.774 73.5979 286.107 74.6761C287.44 75.7542 289.114 76.3197 290.828 76.2702C292.542 76.2207 294.181 75.5594 295.45 74.4061C296.719 73.2528 297.532 71.6836 297.744 69.9823V69.6986L304.167 68.3984C304.351 68.3539 304.543 68.3509 304.728 68.3897C304.914 68.4285 305.088 68.5081 305.239 68.6228C305.39 68.7375 305.514 68.8844 305.601 69.0527C305.688 69.2211 305.736 69.4067 305.743 69.5962V70.4945C305.744 70.6015 305.783 70.7045 305.852 70.7864C305.921 70.8682 306.016 70.9237 306.121 70.9437C306.465 70.993 306.794 71.1201 307.082 71.3154C307.37 71.5106 307.61 71.7688 307.784 72.0705C307.825 72.1555 307.893 72.2255 307.976 72.2707C308.059 72.3158 308.154 72.334 308.249 72.3227L308.611 72.2439C308.703 72.2202 308.785 72.1676 308.844 72.0938C308.904 72.02 308.938 71.9289 308.942 71.8341C308.992 71.3436 309.196 70.8815 309.525 70.5147C309.855 70.148 310.293 69.8954 310.775 69.7937C311.257 69.6919 311.76 69.7462 312.209 69.9487C312.659 70.1512 313.032 70.4913 313.276 70.92C313.316 71.0044 313.382 71.0741 313.464 71.1193C313.546 71.1645 313.64 71.183 313.733 71.1722L314.111 71.0934C314.202 71.0683 314.282 71.0151 314.34 70.9414C314.398 70.8677 314.431 70.7774 314.434 70.6836C314.473 70.3376 314.591 70.0052 314.778 69.7115C314.965 69.4179 315.217 69.1709 315.514 68.9894C315.601 68.9268 315.664 68.837 315.694 68.7342C315.724 68.6314 315.719 68.5216 315.679 68.4221L315.356 67.5868C315.289 67.4146 315.261 67.2299 315.273 67.0456C315.285 66.8612 315.337 66.6818 315.426 66.5197C315.514 66.3576 315.637 66.2168 315.786 66.1071C315.934 65.9974 316.105 65.9215 316.286 65.8847L316.767 65.7823C317.027 65.7268 317.273 65.6194 317.491 65.4666C317.709 65.3137 317.893 65.1185 318.034 64.8927C318.174 64.6669 318.268 64.415 318.309 64.1522C318.35 63.8893 318.337 63.621 318.272 63.3631C318.118 62.8672 317.782 62.4478 317.332 62.1891C316.882 61.9304 316.351 61.8515 315.845 61.9683L297.075 65.8689L296.933 65.6247C296.179 64.2821 295.008 63.2215 293.598 62.6031C292.188 61.9847 290.614 61.8421 289.116 62.1969L289.076 62.1811ZM290.652 74.2217C289.674 74.2326 288.713 73.9589 287.887 73.4337C286.909 72.7922 286.185 71.8317 285.837 70.7158C285.489 69.5999 285.538 68.3979 285.977 67.3145C286.416 66.2311 287.217 65.3335 288.244 64.7748C289.271 64.216 290.459 64.0306 291.608 64.2502C292.756 64.4698 293.792 65.0808 294.54 65.979C295.288 66.8772 295.701 68.0071 295.71 69.176C295.718 70.3449 295.32 71.4804 294.585 72.389C293.85 73.2976 292.822 73.9231 291.677 74.1587C291.342 74.2194 291.001 74.2458 290.66 74.2375L290.652 74.2217ZM290.652 64.9155C290.359 64.9171 290.066 64.9461 289.778 65.0021C289.229 65.1191 288.708 65.343 288.246 65.6611C287.783 65.9792 287.388 66.3853 287.083 66.8562C286.777 67.327 286.567 67.8535 286.465 68.4054C286.363 68.9573 286.371 69.524 286.488 70.0729C286.605 70.6219 286.829 71.1425 287.147 71.6049C287.465 72.0673 287.871 72.4626 288.342 72.7681C288.813 73.0736 289.339 73.2833 289.891 73.3854C290.443 73.4874 291.01 73.4798 291.559 73.3628C292.383 73.1913 293.138 72.7796 293.728 72.1796C294.319 71.5797 294.718 70.8183 294.877 69.9916C295.035 69.1649 294.945 68.3097 294.618 67.534C294.292 66.7582 293.742 66.0966 293.04 65.6325C292.342 65.1686 291.522 64.9243 290.684 64.9312L290.652 64.9155Z" fill="white"/>
<path opacity="0.6" d="M277.771 96.7822C282.933 96.7822 287.117 94.115 287.117 90.8249C287.117 87.5348 282.933 84.8676 277.771 84.8676C272.61 84.8676 268.426 87.5348 268.426 90.8249C268.426 94.115 272.61 96.7822 277.771 96.7822Z" fill="#0AAD0A"/>
<path opacity="0.3" d="M262.9 99.225C265.02 99.225 266.738 98.1313 266.738 96.7822C266.738 95.4331 265.02 94.3394 262.9 94.3394C260.781 94.3394 259.062 95.4331 259.062 96.7822C259.062 98.1313 260.781 99.225 262.9 99.225Z" fill="#0AAD0A"/>
</svg>
