<svg width="394" height="394" viewBox="0 0 394 394" fill="none" xmlns="http://www.w3.org/2000/svg">
<path d="M197 336.917C281.381 336.917 349.785 332.924 349.785 327.997C349.785 323.071 281.381 319.077 197 319.077C112.619 319.077 44.2148 323.071 44.2148 327.997C44.2148 332.924 112.619 336.917 197 336.917Z" fill="#F4F6F8"/>
<path d="M205.203 288.014H104.678C103.062 287.991 101.513 287.358 100.344 286.241C99.1751 285.125 98.4713 283.607 98.374 281.994L89.3593 107.412C89.3093 106.636 89.4203 105.857 89.6853 105.126C89.9502 104.394 90.3635 103.725 90.8991 103.16C91.4347 102.596 92.0812 102.148 92.798 101.845C93.5147 101.542 94.2863 101.391 95.0644 101.4H195.59C197.205 101.421 198.753 102.052 199.923 103.168C201.092 104.283 201.796 105.799 201.894 107.412L210.893 281.994C210.942 282.769 210.832 283.547 210.568 284.278C210.304 285.009 209.892 285.678 209.358 286.242C208.825 286.807 208.18 287.256 207.465 287.561C206.75 287.866 205.98 288.02 205.203 288.014Z" fill="#0AAD0A"/>
<path opacity="0.8" d="M205.203 288.014H104.678C103.062 287.991 101.513 287.358 100.344 286.241C99.1751 285.125 98.4713 283.607 98.374 281.994L89.3593 107.412C89.3093 106.636 89.4203 105.857 89.6853 105.126C89.9502 104.394 90.3635 103.725 90.8991 103.16C91.4347 102.596 92.0812 102.148 92.798 101.845C93.5147 101.542 94.2863 101.391 95.0644 101.4H195.59C197.205 101.421 198.753 102.052 199.923 103.168C201.092 104.283 201.796 105.799 201.894 107.412L210.893 281.994C210.942 282.769 210.832 283.547 210.568 284.278C210.304 285.009 209.892 285.678 209.358 286.242C208.825 286.807 208.18 287.256 207.465 287.561C206.75 287.866 205.98 288.02 205.203 288.014Z" fill="white"/>
<path d="M185.669 95.7105H174.551V96.4985H185.669V95.7105Z" fill="#0AAD0A"/>
<path d="M170.695 95.7105H166.621V96.4985H170.695V95.7105Z" fill="#0AAD0A"/>
<path d="M209.531 276.935H113.395C111.846 276.92 110.361 276.319 109.239 275.253C108.116 274.187 107.438 272.735 107.343 271.19L98.7377 104.213C98.6899 103.47 98.7961 102.725 99.0498 102.025C99.3035 101.324 99.6991 100.684 100.212 100.144C100.725 99.604 101.343 99.1757 102.029 98.886C102.715 98.5963 103.454 98.4515 104.199 98.4606H200.335C201.883 98.4777 203.367 99.0806 204.488 100.148C205.61 101.215 206.285 102.668 206.379 104.213L214.983 271.19C215.031 271.932 214.925 272.676 214.672 273.376C214.419 274.075 214.024 274.714 213.512 275.254C213 275.793 212.382 276.221 211.697 276.51C211.012 276.799 210.274 276.944 209.531 276.935Z" fill="#0AAD0A"/>
<path d="M209.528 273.097H113.392C112.828 273.078 112.291 272.852 111.883 272.463C111.474 272.073 111.224 271.548 111.177 270.985L102.565 104.016C102.545 103.794 102.573 103.57 102.646 103.36C102.72 103.149 102.837 102.957 102.99 102.795C103.144 102.633 103.33 102.506 103.537 102.422C103.743 102.338 103.965 102.298 104.188 102.306H200.324C200.886 102.327 201.421 102.554 201.828 102.943C202.235 103.332 202.484 103.857 202.53 104.418L211.183 271.387C211.202 271.608 211.174 271.831 211.1 272.041C211.027 272.251 210.91 272.443 210.758 272.604C210.605 272.766 210.42 272.893 210.215 272.978C210.01 273.063 209.789 273.104 209.567 273.097H209.528ZM104.188 102.503C103.992 102.497 103.797 102.531 103.615 102.605C103.433 102.678 103.269 102.788 103.132 102.929C103 103.074 102.9 103.245 102.836 103.43C102.772 103.616 102.747 103.812 102.762 104.008L111.367 270.977C111.41 271.489 111.64 271.967 112.011 272.321C112.383 272.675 112.871 272.881 113.384 272.9H209.52C209.715 272.908 209.909 272.874 210.09 272.801C210.271 272.727 210.434 272.616 210.568 272.475C210.703 272.331 210.805 272.161 210.869 271.975C210.933 271.789 210.957 271.591 210.938 271.395L202.341 104.426C202.299 103.915 202.072 103.437 201.701 103.083C201.331 102.729 200.844 102.523 200.332 102.503H104.188Z" fill="white"/>
<path opacity="0.3" d="M175.904 163.16C186.839 151.939 186.127 133.511 174.314 122C162.501 110.488 144.061 110.253 133.127 121.473C122.192 132.694 122.904 151.122 134.717 162.633C146.53 174.145 164.97 174.38 175.904 163.16Z" fill="white"/>
<path d="M178.089 142.321C178.31 146.193 177.531 150.057 175.828 153.542C173.984 157.279 171.121 160.42 167.571 162.602C164.02 164.784 159.925 165.918 155.757 165.874C151.438 165.835 147.203 164.679 143.464 162.518C139.724 160.357 136.608 157.264 134.418 153.542C132.377 150.138 131.203 146.285 130.998 142.321C130.804 139.281 131.239 136.233 132.277 133.37C133.314 130.506 134.932 127.887 137.028 125.676C139.124 123.466 141.654 121.713 144.459 120.525C147.264 119.338 150.284 118.742 153.33 118.775C159.67 118.841 165.749 121.307 170.343 125.676C174.937 130.045 177.705 135.993 178.089 142.321Z" fill="white"/>
<path d="M175.804 153.542C173.96 157.279 171.098 160.42 167.547 162.602C163.996 164.784 159.901 165.918 155.734 165.874C151.415 165.835 147.18 164.679 143.44 162.518C139.701 160.357 136.584 157.264 134.395 153.542C140.383 149.406 147.495 147.206 154.772 147.238C162.244 147.266 169.548 149.455 175.804 153.542Z" fill="#0AAD0A"/>
<path d="M161.813 141.773C165.752 137.731 165.494 131.09 161.237 126.941C156.979 122.792 150.334 122.706 146.395 126.748C142.455 130.791 142.713 137.431 146.971 141.58C151.228 145.729 157.873 145.816 161.813 141.773Z" fill="#0AAD0A"/>
<path d="M195.746 211.972H120.469C119.813 211.965 119.184 211.71 118.709 211.258C118.234 210.807 117.948 210.192 117.908 209.537L117.34 198.505C117.321 198.191 117.366 197.877 117.474 197.581C117.581 197.286 117.749 197.016 117.965 196.788C118.182 196.56 118.444 196.38 118.733 196.257C119.023 196.135 119.335 196.074 119.649 196.078H194.927C195.581 196.085 196.209 196.339 196.684 196.789C197.159 197.239 197.446 197.852 197.488 198.505L198.055 209.537C198.076 209.852 198.031 210.167 197.924 210.463C197.817 210.76 197.65 211.031 197.433 211.259C197.216 211.488 196.955 211.669 196.664 211.792C196.374 211.915 196.061 211.976 195.746 211.972Z" fill="white"/>
<path opacity="0.3" d="M172.7 189.987H141.258C140.6 189.982 139.968 189.727 139.491 189.273C139.014 188.819 138.728 188.201 138.69 187.544L138.571 185.18C138.551 184.866 138.595 184.55 138.702 184.254C138.809 183.957 138.977 183.686 139.193 183.458C139.41 183.229 139.672 183.048 139.962 182.925C140.253 182.802 140.565 182.741 140.88 182.745H172.313C172.969 182.752 173.598 183.007 174.073 183.459C174.548 183.91 174.835 184.526 174.874 185.18L175.001 187.544C175.02 187.858 174.975 188.172 174.868 188.468C174.761 188.764 174.595 189.035 174.379 189.264C174.163 189.492 173.903 189.675 173.614 189.799C173.325 189.924 173.014 189.987 172.7 189.987Z" fill="black"/>
<path opacity="0.3" d="M184.394 265.012H137.295C136.18 264.999 135.111 264.564 134.303 263.795C133.495 263.026 133.007 261.981 132.937 260.867L132.662 255.43C132.634 254.896 132.715 254.361 132.901 253.859C133.086 253.358 133.372 252.899 133.741 252.511C134.109 252.123 134.553 251.814 135.045 251.604C135.537 251.393 136.066 251.285 136.602 251.285H183.685C184.8 251.299 185.869 251.734 186.677 252.503C187.485 253.271 187.973 254.317 188.042 255.43L188.318 260.867C188.346 261.4 188.265 261.934 188.08 262.434C187.896 262.935 187.611 263.393 187.244 263.781C186.877 264.169 186.436 264.478 185.946 264.689C185.455 264.901 184.928 265.011 184.394 265.012Z" fill="black"/>
<path d="M197.125 238.654H121.84C121.185 238.645 120.557 238.39 120.082 237.938C119.607 237.487 119.32 236.873 119.279 236.219L118.711 225.187C118.692 224.873 118.737 224.558 118.845 224.262C118.952 223.966 119.12 223.695 119.336 223.467C119.553 223.239 119.814 223.057 120.104 222.934C120.394 222.811 120.706 222.749 121.02 222.752H196.298C196.954 222.759 197.582 223.014 198.058 223.465C198.533 223.917 198.819 224.532 198.859 225.187L199.434 236.219C199.452 236.533 199.406 236.847 199.298 237.142C199.19 237.438 199.023 237.708 198.807 237.936C198.59 238.164 198.33 238.346 198.04 238.469C197.751 238.592 197.44 238.655 197.125 238.654Z" fill="white"/>
<path d="M130.02 204.021C130.042 204.369 129.992 204.718 129.872 205.046C129.753 205.374 129.568 205.674 129.327 205.927C129.087 206.18 128.797 206.38 128.476 206.516C128.154 206.652 127.808 206.72 127.459 206.716C126.735 206.707 126.04 206.425 125.515 205.925C124.99 205.425 124.674 204.745 124.63 204.021C124.608 203.673 124.657 203.324 124.775 202.997C124.894 202.669 125.078 202.369 125.318 202.116C125.558 201.863 125.847 201.662 126.168 201.526C126.489 201.39 126.835 201.322 127.184 201.326C127.909 201.335 128.605 201.617 129.131 202.117C129.657 202.617 129.975 203.297 130.02 204.021Z" fill="#263238"/>
<path d="M138.317 204.021C138.34 204.369 138.291 204.718 138.172 205.046C138.054 205.373 137.869 205.673 137.629 205.926C137.39 206.179 137.1 206.38 136.779 206.516C136.458 206.652 136.113 206.72 135.764 206.716C135.039 206.709 134.343 206.427 133.818 205.927C133.293 205.426 132.977 204.745 132.935 204.021C132.912 203.673 132.962 203.324 133.08 202.997C133.198 202.669 133.383 202.369 133.623 202.116C133.863 201.863 134.152 201.662 134.473 201.526C134.794 201.39 135.14 201.322 135.488 201.326C136.214 201.333 136.909 201.615 137.435 202.115C137.96 202.616 138.275 203.297 138.317 204.021Z" fill="#263238"/>
<path d="M146.567 204.021C146.59 204.369 146.54 204.718 146.422 205.046C146.304 205.373 146.119 205.673 145.879 205.926C145.639 206.179 145.35 206.38 145.029 206.516C144.708 206.652 144.362 206.72 144.014 206.716C143.288 206.708 142.592 206.425 142.066 205.925C141.54 205.426 141.222 204.745 141.177 204.021C141.155 203.673 141.205 203.324 141.325 202.996C141.444 202.668 141.63 202.368 141.87 202.115C142.11 201.863 142.4 201.662 142.722 201.526C143.043 201.39 143.389 201.322 143.738 201.326C144.463 201.335 145.157 201.618 145.682 202.117C146.207 202.617 146.523 203.298 146.567 204.021Z" fill="#263238"/>
<path d="M154.883 204.021C154.905 204.369 154.855 204.717 154.736 205.044C154.617 205.372 154.432 205.671 154.193 205.924C153.953 206.177 153.664 206.377 153.344 206.514C153.023 206.65 152.678 206.719 152.33 206.716C151.604 206.708 150.909 206.425 150.383 205.925C149.857 205.426 149.539 204.745 149.493 204.021C149.472 203.674 149.522 203.325 149.64 202.998C149.759 202.671 149.944 202.371 150.184 202.118C150.423 201.866 150.712 201.665 151.033 201.528C151.353 201.392 151.698 201.323 152.046 201.326C152.772 201.335 153.467 201.617 153.994 202.117C154.52 202.617 154.837 203.297 154.883 204.021Z" fill="#263238"/>
<path d="M131.414 230.687C131.437 231.035 131.388 231.384 131.27 231.711C131.151 232.039 130.966 232.339 130.727 232.592C130.487 232.845 130.197 233.046 129.876 233.182C129.555 233.318 129.21 233.386 128.861 233.382C128.136 233.373 127.44 233.091 126.914 232.591C126.388 232.091 126.07 231.411 126.024 230.687C126.003 230.339 126.053 229.99 126.172 229.662C126.292 229.334 126.477 229.034 126.718 228.781C126.958 228.528 127.248 228.328 127.569 228.192C127.891 228.056 128.237 227.988 128.585 227.992C129.31 228.001 130.005 228.283 130.53 228.783C131.055 229.283 131.371 229.963 131.414 230.687Z" fill="#263238"/>
<path d="M139.696 230.687C139.718 231.035 139.668 231.383 139.549 231.71C139.43 232.038 139.245 232.337 139.006 232.59C138.766 232.843 138.477 233.043 138.157 233.18C137.836 233.316 137.491 233.385 137.143 233.382C136.417 233.373 135.722 233.091 135.196 232.591C134.67 232.091 134.352 231.411 134.306 230.687C134.283 230.339 134.333 229.99 134.451 229.663C134.569 229.335 134.754 229.035 134.994 228.782C135.234 228.529 135.523 228.328 135.844 228.192C136.165 228.056 136.511 227.988 136.859 227.992C137.585 228.001 138.28 228.283 138.807 228.783C139.333 229.283 139.65 229.963 139.696 230.687Z" fill="#263238"/>
<path d="M147.977 230.687C147.999 231.035 147.949 231.384 147.829 231.712C147.71 232.04 147.525 232.34 147.284 232.593C147.044 232.846 146.754 233.046 146.433 233.182C146.111 233.318 145.765 233.386 145.416 233.382C144.691 233.375 143.995 233.093 143.47 232.593C142.945 232.092 142.629 231.411 142.587 230.687C142.565 230.339 142.614 229.99 142.732 229.663C142.851 229.335 143.035 229.035 143.275 228.782C143.515 228.529 143.804 228.328 144.125 228.192C144.446 228.056 144.792 227.988 145.141 227.992C145.866 228.001 146.562 228.283 147.088 228.783C147.614 229.283 147.932 229.963 147.977 230.687Z" fill="#263238"/>
<path d="M156.254 230.687C156.277 231.035 156.228 231.384 156.109 231.711C155.991 232.039 155.806 232.339 155.566 232.592C155.327 232.845 155.037 233.046 154.716 233.182C154.395 233.318 154.05 233.386 153.701 233.382C152.975 233.373 152.28 233.091 151.754 232.591C151.228 232.091 150.91 231.411 150.864 230.687C150.843 230.339 150.893 229.99 151.012 229.662C151.131 229.334 151.317 229.034 151.557 228.781C151.798 228.528 152.088 228.328 152.409 228.192C152.73 228.056 153.076 227.988 153.425 227.992C154.151 227.999 154.846 228.281 155.372 228.781C155.897 229.282 156.212 229.963 156.254 230.687Z" fill="#263238"/>
<path d="M164.535 230.687C164.558 231.035 164.509 231.384 164.391 231.711C164.272 232.039 164.087 232.339 163.848 232.592C163.608 232.845 163.318 233.046 162.997 233.182C162.676 233.318 162.331 233.386 161.982 233.382C161.257 233.373 160.561 233.091 160.035 232.591C159.509 232.091 159.191 231.411 159.146 230.687C159.124 230.339 159.174 229.991 159.293 229.664C159.412 229.336 159.596 229.037 159.836 228.784C160.075 228.531 160.364 228.331 160.685 228.194C161.005 228.058 161.35 227.989 161.699 227.992C162.424 228.001 163.12 228.283 163.646 228.783C164.172 229.283 164.49 229.963 164.535 230.687Z" fill="#263238"/>
<path d="M172.817 230.687C172.839 231.035 172.789 231.384 172.669 231.712C172.55 232.04 172.364 232.34 172.124 232.593C171.884 232.846 171.594 233.046 171.272 233.182C170.951 233.318 170.605 233.386 170.256 233.382C169.531 233.373 168.837 233.091 168.312 232.591C167.787 232.091 167.471 231.411 167.427 230.687C167.404 230.339 167.454 229.99 167.572 229.663C167.69 229.335 167.875 229.035 168.115 228.782C168.355 228.529 168.644 228.328 168.965 228.192C169.286 228.056 169.632 227.988 169.98 227.992C170.706 228.001 171.402 228.283 171.928 228.783C172.454 229.283 172.772 229.963 172.817 230.687Z" fill="#263238"/>
<path d="M262.404 139.177C262.601 139.476 262.703 139.634 262.829 139.846L263.184 140.43C263.412 140.824 263.617 141.217 263.814 141.604C264.208 142.392 264.602 143.18 264.917 143.968C265.578 145.533 266.146 147.135 266.619 148.767C267.573 151.989 268.202 155.3 268.495 158.648L268.55 159.271C268.557 159.397 268.557 159.523 268.55 159.649V160.066C268.563 160.614 268.531 161.163 268.455 161.706C268.304 162.712 268.04 163.698 267.667 164.645C266.975 166.336 266.058 167.926 264.941 169.373C262.857 172.041 260.384 174.381 257.605 176.315L255.43 173.77C257.409 171.535 259.161 169.109 260.662 166.528C261.337 165.357 261.867 164.108 262.238 162.809C262.388 162.258 262.476 161.693 262.498 161.122C262.522 160.879 262.522 160.633 262.498 160.39V160.224C262.506 160.151 262.506 160.077 262.498 160.003L262.404 159.452C261.897 156.515 261.18 153.618 260.26 150.784C259.803 149.373 259.244 148.01 258.684 146.678C258.408 146.009 258.093 145.355 257.778 144.724L257.289 143.794L257.045 143.361L256.84 143.014L262.404 139.177Z" fill="#FF8B7B"/>
<path d="M255.074 176.331L257.927 182.359L260.188 177.261C260.188 177.261 258.179 172.848 255.46 173.258L255.074 176.331Z" fill="#FF8B7B"/>
<path d="M259.967 182.658L262.236 178.939L260.187 177.261L257.926 182.359L259.967 182.658Z" fill="#FF8B7B"/>
<path d="M247.138 321.677C247.728 321.663 248.315 321.583 248.888 321.441C248.917 321.432 248.943 321.416 248.964 321.394C248.984 321.372 248.999 321.344 249.006 321.315C249.011 321.285 249.007 321.253 248.994 321.226C248.982 321.198 248.961 321.174 248.935 321.157C248.707 321.008 246.705 319.715 245.933 320.062C245.847 320.102 245.774 320.164 245.72 320.241C245.666 320.319 245.633 320.409 245.626 320.503C245.602 320.646 245.613 320.792 245.658 320.929C245.703 321.067 245.782 321.191 245.886 321.291C246.243 321.567 246.688 321.704 247.138 321.677ZM248.439 321.212C247.296 321.449 246.429 321.409 246.075 321.102C246.002 321.03 245.949 320.941 245.92 320.844C245.891 320.746 245.888 320.642 245.909 320.543C245.909 320.409 245.988 320.369 246.043 320.346C246.469 320.157 247.627 320.716 248.439 321.212Z" fill="#0AAD0A"/>
<path d="M248.848 321.441H248.927C248.951 321.425 248.97 321.404 248.984 321.38C248.998 321.355 249.005 321.327 249.006 321.299C249.006 321.22 249.006 319.321 248.281 318.683C248.192 318.603 248.087 318.543 247.972 318.508C247.858 318.473 247.737 318.462 247.619 318.478C247.495 318.479 247.374 318.523 247.278 318.602C247.182 318.68 247.116 318.79 247.091 318.911C246.941 319.66 248.139 321.078 248.769 321.441H248.848ZM247.721 318.77C247.785 318.768 247.849 318.779 247.908 318.802C247.968 318.825 248.022 318.859 248.068 318.904C248.484 319.516 248.699 320.243 248.683 320.984C248.052 320.48 247.304 319.408 247.398 318.959C247.398 318.888 247.453 318.793 247.65 318.77H247.721Z" fill="#0AAD0A"/>
<path d="M239.702 318.462C239.72 318.439 239.732 318.412 239.736 318.382C239.741 318.353 239.737 318.323 239.726 318.296C239.714 318.268 239.696 318.245 239.672 318.227C239.649 318.209 239.621 318.198 239.591 318.194C239.268 318.194 236.439 318.06 235.793 318.754V318.801C235.74 318.869 235.705 318.95 235.693 319.036C235.68 319.122 235.69 319.209 235.722 319.29C235.764 319.425 235.839 319.548 235.939 319.648C236.039 319.748 236.162 319.823 236.297 319.865C237.212 320.149 238.827 319.116 239.709 318.478L239.702 318.462ZM236.03 318.959C236.384 318.58 237.944 318.478 239.111 318.494C237.889 319.329 236.873 319.723 236.361 319.565C236.271 319.538 236.19 319.49 236.124 319.424C236.058 319.358 236.009 319.277 235.982 319.187C235.966 319.157 235.958 319.123 235.958 319.089C235.958 319.054 235.966 319.021 235.982 318.99L236.03 318.959Z" fill="#0AAD0A"/>
<path d="M239.702 318.462C239.714 318.438 239.72 318.411 239.72 318.384C239.72 318.356 239.714 318.329 239.702 318.305C239.662 318.242 238.78 316.729 237.74 316.414C237.59 316.37 237.434 316.357 237.279 316.376C237.125 316.395 236.976 316.445 236.841 316.524C236.463 316.744 236.439 317.005 236.487 317.17C236.692 317.903 238.701 318.549 239.568 318.541C239.595 318.541 239.622 318.533 239.645 318.519C239.669 318.506 239.688 318.486 239.702 318.462ZM236.873 316.886C236.917 316.843 236.968 316.806 237.023 316.776C237.12 316.714 237.229 316.674 237.344 316.659C237.458 316.644 237.574 316.654 237.684 316.689C238.37 316.871 239.008 317.753 239.3 318.187C238.362 318.084 236.936 317.509 236.818 317.068C236.808 317.034 236.807 316.998 236.817 316.965C236.827 316.931 236.846 316.901 236.873 316.878V316.886Z" fill="#0AAD0A"/>
<path d="M248.375 116.096C247.587 120.036 245.885 128.554 248.619 131.17C248.619 131.17 247.547 135.11 240.274 135.11C232.268 135.11 236.452 131.17 236.452 131.17C240.818 130.13 240.707 126.884 239.943 123.842L248.375 116.096Z" fill="#FF8B7B"/>
<path d="M235.045 106.861C235.09 106.868 235.135 106.868 235.179 106.861C235.217 106.842 235.25 106.817 235.278 106.785C235.305 106.754 235.326 106.717 235.339 106.678C235.352 106.638 235.357 106.596 235.354 106.555C235.351 106.513 235.34 106.472 235.321 106.435C235.109 105.986 234.792 105.594 234.398 105.292C234.003 104.99 233.541 104.788 233.052 104.702C232.97 104.695 232.888 104.719 232.824 104.771C232.759 104.822 232.717 104.896 232.705 104.977C232.696 105.06 232.72 105.142 232.772 105.207C232.823 105.272 232.898 105.314 232.981 105.324C233.367 105.398 233.73 105.563 234.04 105.806C234.35 106.049 234.597 106.362 234.762 106.719C234.792 106.765 234.834 106.803 234.884 106.828C234.934 106.853 234.99 106.864 235.045 106.861Z" fill="#263238"/>
<path d="M232.656 110.32C232.036 111.47 231.262 112.531 230.355 113.472C230.601 113.697 230.892 113.865 231.209 113.966C231.526 114.066 231.862 114.097 232.192 114.055L232.656 110.32Z" fill="#FF8B7B"/>
<path d="M233.248 109.43C233.184 109.958 232.846 110.352 232.507 110.312C232.168 110.273 231.932 109.808 231.995 109.28C232.058 108.752 232.396 108.358 232.783 108.397C233.169 108.437 233.303 108.902 233.248 109.43Z" fill="#263238"/>
<path d="M232.885 108.445L231.672 107.956C231.672 107.956 232.184 108.996 232.885 108.445Z" fill="#263238"/>
<path d="M246.659 316.965L240.229 318.462L236.32 303.679L242.75 302.182L246.659 316.965Z" fill="#FF8B7B"/>
<path d="M256.525 321.283H249.93L250.442 306.004H257.045L256.525 321.283Z" fill="#FF8B7B"/>
<path d="M249.4 320.519H256.815C256.944 320.518 257.068 320.564 257.165 320.648C257.263 320.732 257.326 320.849 257.343 320.976L258.186 326.839C258.203 326.987 258.188 327.137 258.143 327.279C258.097 327.421 258.022 327.552 257.922 327.663C257.822 327.774 257.7 327.863 257.564 327.923C257.427 327.983 257.28 328.014 257.13 328.013C254.546 327.974 253.301 327.816 250.038 327.816C248.029 327.816 245.098 328.029 242.332 328.029C239.566 328.029 239.408 325.286 240.567 325.042C245.736 323.923 246.555 322.394 248.297 320.929C248.605 320.666 248.995 320.521 249.4 320.519Z" fill="#263238"/>
<path d="M239.661 317.477L246.399 314.38C246.513 314.326 246.643 314.315 246.765 314.35C246.887 314.385 246.992 314.463 247.061 314.57L250.283 319.55C250.359 319.678 250.406 319.82 250.423 319.968C250.44 320.116 250.426 320.265 250.381 320.407C250.336 320.549 250.263 320.68 250.164 320.791C250.066 320.903 249.946 320.993 249.811 321.055C247.447 322.095 246.249 322.481 243.286 323.844C241.466 324.68 237.77 326.602 235.264 327.784C232.758 328.966 231.466 326.516 232.412 325.806C236.643 322.654 237.857 320.393 238.826 318.336C238.99 317.957 239.287 317.652 239.661 317.477Z" fill="#263238"/>
<path opacity="0.2" d="M236.32 303.679L238.416 311.607L244.768 309.802L242.758 302.182L236.32 303.679Z" fill="black"/>
<path opacity="0.2" d="M257.043 306.004H250.44L250.18 313.884H256.783L257.043 306.004Z" fill="black"/>
<path d="M260.04 132.668C262.782 133.274 265.713 143.132 265.713 143.132L257.96 151.383C257.96 151.383 251.522 142.116 252.838 138.712C254.169 135.158 256.77 131.959 260.04 132.668Z" fill="#5C6C75"/>
<path opacity="0.4" d="M255.659 138.948C254.272 137.679 253.334 138.058 252.696 139.066C252.066 141.998 255.801 148.136 257.306 150.461C257.999 147.687 258.795 141.84 255.659 138.948Z" fill="black"/>
<path d="M225.296 132.865C225.296 132.865 222.144 133.968 228.448 172.698H255.24C254.791 161.792 254.775 155.063 259.968 132.668C256.214 131.893 252.408 131.393 248.581 131.17C244.531 130.879 240.465 130.879 236.414 131.17C231.222 131.651 225.296 132.865 225.296 132.865Z" fill="#5C6C75"/>
<path opacity="0.4" d="M225.051 147.726C225.224 149.61 225.453 151.729 225.752 154.125C227.951 152.147 229.747 146.521 229.085 143.243C227.515 144.517 226.153 146.03 225.051 147.726Z" fill="black"/>
<path d="M227.92 141.84C226.474 145.479 224.846 149.042 223.042 152.517C221.259 156.118 219.149 159.547 216.738 162.761L216.234 163.384L215.982 163.691C215.895 163.794 215.824 163.888 215.69 164.03C215.216 164.547 214.688 165.012 214.114 165.417C213.101 166.119 211.991 166.671 210.82 167.056C208.778 167.708 206.658 168.085 204.516 168.175C200.505 168.334 196.49 167.977 192.57 167.111L193.004 163.802C194.816 163.802 196.715 163.802 198.52 163.652C200.332 163.563 202.137 163.363 203.925 163.053C205.586 162.794 207.21 162.339 208.764 161.698C209.391 161.43 209.977 161.074 210.505 160.642C210.707 160.473 210.889 160.283 211.049 160.074C211.049 160.074 211.143 159.948 211.207 159.862L211.388 159.602L211.758 159.081C213.735 156.027 215.497 152.839 217.03 149.539C218.606 146.19 220.182 142.715 221.624 139.295L227.92 141.84Z" fill="#FF8B7B"/>
<path d="M225.297 132.865C222.011 133.653 217.977 142.667 217.977 142.667L224.785 152.675C224.785 152.675 233.855 141.257 232.775 137.774C231.672 134.141 229.308 131.888 225.297 132.865Z" fill="#5C6C75"/>
<path d="M194.893 164.306L189.212 161.682L188.645 167.332C188.645 167.332 193.373 168.727 195.737 167.332L194.893 164.306Z" fill="#FF8B7B"/>
<path d="M185.817 161.115L185.273 165.417L188.646 167.332L189.213 161.682L185.817 161.115Z" fill="#FF8B7B"/>
<path d="M251.228 109.816C250.022 116.254 249.652 119.012 245.964 121.935C240.448 126.332 232.765 123.448 232.024 116.782C231.346 110.777 233.427 101.258 240.101 99.4456C241.571 99.04 243.121 99.0178 244.602 99.3811C246.083 99.7444 247.447 100.481 248.563 101.521C249.678 102.561 250.509 103.869 250.976 105.321C251.442 106.773 251.529 108.321 251.228 109.816Z" fill="#FF8B7B"/>
<path d="M237.083 111.171C236.713 114.457 236.571 122.991 243.789 123.259C252.622 123.582 255.27 116.033 254.482 113.015C259.084 109.272 259.746 102.834 254.577 97.909C249.407 92.984 238.029 95.7341 234.877 100.533C230.881 106.482 237.083 111.171 237.083 111.171Z" fill="#263238"/>
<path d="M245.933 99.8238C245.508 96.3566 245.839 93.969 249.085 93.969C252.332 93.969 256.76 95.1431 258.384 98.4606C260.007 101.778 260.141 106.971 255.61 106.443C251.079 105.915 246.445 103.969 245.933 99.8238Z" fill="#0AAD0A"/>
<path d="M250.963 98.9886C250.175 94.8594 253.87 83.2286 262.846 82.4406C267.006 82.086 268.929 86.5618 266.786 87.3025C270.726 87.2552 273.247 92.4639 269.575 93.244C272.475 95.1037 271.758 98.9176 267.621 100.793C264.54 102.211 252.027 104.709 250.963 98.9886Z" fill="#263238"/>
<path d="M260.551 103.425C257.66 103.425 254.641 103 252.766 101.747C252.242 101.43 251.8 100.994 251.478 100.473C251.156 99.9525 250.963 99.3625 250.914 98.7522C250.912 98.7004 250.929 98.6496 250.963 98.6101C250.997 98.5706 251.044 98.5454 251.095 98.5394C251.122 98.5361 251.148 98.5383 251.173 98.5458C251.198 98.5533 251.222 98.566 251.242 98.5831C251.262 98.6001 251.278 98.6212 251.29 98.6449C251.301 98.6686 251.307 98.6944 251.308 98.7207C251.356 99.2714 251.532 99.8033 251.824 100.273C252.116 100.743 252.514 101.137 252.987 101.424C256.556 103.788 264.807 103 267.376 102.212C269.598 101.487 271.103 100.076 271.402 98.4527C271.496 97.8571 271.422 97.2472 271.19 96.6908C270.957 96.1343 270.576 95.6532 270.086 95.3007C270.067 95.2831 270.052 95.2617 270.042 95.238C270.032 95.2143 270.027 95.1887 270.027 95.1628C270.027 95.137 270.032 95.1114 270.042 95.0877C270.052 95.064 270.067 95.0426 270.086 95.0249C270.123 94.9888 270.173 94.9686 270.224 94.9686C270.276 94.9686 270.325 94.9888 270.362 95.0249C270.912 95.4263 271.34 95.9727 271.597 96.603C271.855 97.2334 271.932 97.9229 271.82 98.5946C271.497 100.368 269.897 101.881 267.533 102.653C265.252 103.228 262.903 103.488 260.551 103.425Z" fill="#263238"/>
<path d="M235.076 110.32C234.342 111.349 234.04 112.625 234.233 113.874C234.493 115.529 236.1 115.639 237.267 114.583C238.433 113.527 239.449 111.62 238.59 110.249C238.4 109.953 238.136 109.711 237.825 109.545C237.514 109.379 237.166 109.296 236.813 109.303C236.461 109.31 236.116 109.408 235.812 109.586C235.508 109.764 235.255 110.016 235.076 110.32Z" fill="#FF8B7B"/>
<path d="M235.523 172.698C235.523 172.698 239.353 218 243.332 243.531C246.54 264.153 249.077 312.355 249.077 312.355H258.076C258.076 312.355 261.275 265.595 259.652 245.202C255.531 193.588 264.727 189.38 255.263 172.706L235.523 172.698Z" fill="#21313C"/>
<path opacity="0.4" d="M246.854 189.821C243.288 193.564 240.41 197.907 238.352 202.65C239.4 212.831 240.645 224.131 241.968 234.028C247.401 219.965 249.084 204.731 246.854 189.821Z" fill="black"/>
<path d="M229.227 172.414C229.227 172.414 220.914 221.893 219.605 244.193C222.868 264.815 236.216 308.407 236.216 308.407L244.404 305.437C244.404 305.437 239.873 257.905 234.948 244.895C246.035 207.567 254.183 198.127 251.811 172.698C246.13 172.698 229.227 172.414 229.227 172.414Z" fill="#21313C"/>
<path d="M235.121 310.582L246.185 307.58L245.555 303.167L233.711 306.374L235.121 310.582Z" fill="#263238"/>
<path d="M247.84 312.537H259.306L259.905 308.518L247.777 308.108L247.84 312.537Z" fill="#263238"/>
<path d="M255.658 171.122L256.864 173.525C256.958 173.715 256.738 173.904 256.43 173.904H228.315C228.078 173.904 227.873 173.786 227.858 173.628L227.613 171.264C227.613 171.098 227.81 170.957 228.07 170.957H255.217C255.298 170.945 255.381 170.955 255.458 170.984C255.535 171.013 255.604 171.06 255.658 171.122Z" fill="#0AAD0A"/>
<path opacity="0.5" d="M255.658 171.122L256.864 173.525C256.958 173.715 256.738 173.904 256.43 173.904H228.315C228.078 173.904 227.873 173.786 227.858 173.628L227.613 171.264C227.613 171.098 227.81 170.957 228.07 170.957H255.217C255.298 170.945 255.381 170.955 255.458 170.984C255.535 171.013 255.604 171.06 255.658 171.122Z" fill="black"/>
<path d="M252.01 174.148H252.735C252.884 174.148 252.995 174.069 252.987 173.983L252.64 170.831C252.64 170.736 252.506 170.665 252.364 170.665H251.631C251.49 170.665 251.379 170.736 251.387 170.831L251.726 173.983C251.742 174.085 251.868 174.148 252.01 174.148Z" fill="#0AAD0A"/>
<path d="M242.254 151.201C242.167 151.2 242.083 151.171 242.014 151.119C241.944 151.066 241.893 150.993 241.868 150.91C239.299 141.407 233.988 133.574 231.412 132.392C231.211 132.269 230.971 132.229 230.742 132.282C230.694 132.307 230.642 132.322 230.588 132.326C230.535 132.33 230.481 132.323 230.43 132.306C230.379 132.288 230.332 132.26 230.293 132.224C230.253 132.188 230.221 132.144 230.199 132.095C230.177 132.046 230.165 131.993 230.164 131.939C230.163 131.885 230.174 131.832 230.194 131.782C230.215 131.732 230.245 131.688 230.284 131.65C230.322 131.613 230.368 131.584 230.419 131.564C230.634 131.485 230.864 131.454 231.093 131.473C231.321 131.492 231.543 131.561 231.743 131.675C234.469 132.967 239.859 140.69 242.554 150.406C244.484 150.406 247.463 150.146 248.188 150.082C249.086 149.011 255.69 140.753 253.223 131.714C253.209 131.665 253.205 131.612 253.211 131.561C253.217 131.51 253.234 131.46 253.26 131.416C253.285 131.371 253.32 131.331 253.361 131.3C253.402 131.269 253.449 131.246 253.499 131.234C253.599 131.207 253.706 131.221 253.796 131.273C253.886 131.324 253.952 131.409 253.98 131.509C256.73 141.564 248.755 150.634 248.669 150.721C248.638 150.759 248.6 150.791 248.556 150.814C248.513 150.837 248.466 150.851 248.417 150.855C248.377 150.855 244.445 151.201 242.254 151.201Z" fill="#0AAD0A"/>
<path d="M255.312 156.765C251.018 148.719 249.261 148.152 248.496 145.567C249.075 144.122 249.902 142.789 250.939 141.627C250.419 141.478 249.3 141.257 248.575 141.123C248.654 140.768 248.741 140.422 248.819 140.083C248.03 139.995 247.233 140.032 246.455 140.193V139.405C245.454 139.187 244.426 139.121 243.406 139.208C243.495 139.581 243.582 139.959 243.666 140.343C242.878 140.493 241.68 140.737 241.105 140.902C242.223 142.168 243.044 143.668 243.508 145.291C241.192 149.271 232.193 174.849 246.834 176.811C261.475 178.774 259.599 164.818 255.312 156.765Z" fill="#0AAD0A"/>
<path opacity="0.4" d="M255.312 156.765C251.018 148.719 249.261 148.152 248.496 145.567C249.075 144.122 249.902 142.789 250.939 141.627C250.419 141.478 249.3 141.257 248.575 141.123C248.654 140.768 248.741 140.422 248.819 140.083C248.03 139.995 247.233 140.032 246.455 140.193V139.405C245.454 139.187 244.426 139.121 243.406 139.208C243.495 139.581 243.582 139.959 243.666 140.343C242.878 140.493 241.68 140.737 241.105 140.902C242.223 142.168 243.044 143.668 243.508 145.291C241.192 149.271 232.193 174.849 246.834 176.811C261.475 178.774 259.599 164.818 255.312 156.765Z" fill="white"/>
<path d="M242.91 144.527C242.818 144.933 242.779 145.349 242.791 145.764C242.791 146.056 243.579 146.253 244.454 146.34C245.329 146.426 249.001 146.568 248.883 146.158C248.764 145.748 249.064 145.189 249.08 144.842C249.095 144.496 247.622 144.48 246.385 144.527C245.147 144.574 243.154 144.086 242.91 144.527Z" fill="#0AAD0A"/>
<path d="M234.388 174.148H235.113C235.255 174.148 235.365 174.069 235.358 173.983L235.019 170.831C235.019 170.736 234.885 170.665 234.735 170.665H234.034C233.892 170.665 233.782 170.736 233.789 170.831L234.128 173.983C234.113 174.085 234.239 174.148 234.388 174.148Z" fill="#0AAD0A"/>
</svg>
