<svg width="512" height="160" viewBox="0 0 512 160" fill="none" xmlns="http://www.w3.org/2000/svg">
<g opacity="0.35">
<path opacity="0.35" d="M95.4482 142.978H200.12C204.799 142.978 208.587 146.785 208.587 151.489C208.587 156.193 204.799 160 200.12 160H95.4482C90.7685 160 86.9805 156.193 86.9805 151.489C86.9805 146.792 90.7685 142.978 95.4482 142.978Z" fill="#92A39D"/>
<path opacity="0.35" d="M418.862 0H512V17.0218H418.862C414.183 17.0218 410.395 13.2145 410.395 8.51092C410.395 3.81388 414.189 0 418.862 0Z" fill="#92A39D"/>
<path opacity="0.35" d="M258.397 52.2234H304.914C309.594 52.2234 313.382 56.0307 313.382 60.7343C313.382 65.4379 309.594 69.2452 304.914 69.2452H258.397C253.718 69.2452 249.93 65.4379 249.93 60.7343C249.93 56.0307 253.724 52.2234 258.397 52.2234Z" fill="#E5EAE9"/>
<path opacity="0.35" d="M49.7255 75.3245H135.184C139.863 75.3245 143.651 79.1318 143.651 83.8354C143.651 88.5389 139.863 92.3463 135.184 92.3463H49.7255C45.0458 92.3463 41.2578 88.5389 41.2578 83.8354C41.2578 79.1318 45.0523 75.3245 49.7255 75.3245Z" fill="#92A39D"/>
<path opacity="0.35" d="M80.1786 6.42407H227.846C232.526 6.42407 236.314 10.2314 236.314 14.935C236.314 19.6386 232.526 23.4459 227.846 23.4459H80.1786C75.4989 23.4459 71.7109 19.6386 71.7109 14.935C71.7109 10.2314 75.4989 6.42407 80.1786 6.42407Z" fill="#92A39D"/>
</g>
<path opacity="0.65" d="M371.067 147.093C436.389 147.093 489.342 143.997 489.342 140.178C489.342 136.359 436.389 133.264 371.067 133.264C305.746 133.264 252.793 136.359 252.793 140.178C252.793 143.997 305.746 147.093 371.067 147.093Z" fill="#92A39D"/>
<path d="M280.754 82.0737C280.754 80.2159 279.251 78.7047 277.402 78.7047C279.251 78.7047 280.754 77.1935 280.754 75.3357C280.754 77.1935 282.258 78.7047 284.106 78.7047C282.258 78.7047 280.754 80.2093 280.754 82.0737Z" fill="#EABC49"/>
<path d="M460.508 51.7066C460.508 49.8487 459.005 48.3375 457.156 48.3375C459.005 48.3375 460.508 46.8264 460.508 44.9685C460.508 46.8264 462.012 48.3375 463.86 48.3375C462.012 48.3375 460.508 49.8422 460.508 51.7066Z" fill="#EABC49"/>
<path d="M272.879 72.0844C272.879 69.2387 270.581 66.9294 267.75 66.9294C270.581 66.9294 272.879 64.6201 272.879 61.7744C272.879 64.6201 275.176 66.9294 278.008 66.9294C275.176 66.9294 272.879 69.2387 272.879 72.0844Z" fill="#D7513E"/>
<path d="M467.605 43.248C467.605 40.4023 465.308 38.093 462.477 38.093C465.308 38.093 467.605 35.7838 467.605 32.9381C467.605 35.7838 469.903 38.093 472.734 38.093C469.903 38.0865 467.605 40.3958 467.605 43.248Z" fill="#D7513E"/>
<path d="M445.513 127.795H297.611C295.404 127.795 293.621 125.996 293.621 123.784V33.625C293.621 31.4073 295.411 29.6148 297.611 29.6148H445.513C447.719 29.6148 449.502 31.4138 449.502 33.625V123.778C449.502 125.996 447.719 127.795 445.513 127.795Z" fill="#2B5B4F"/>
<path d="M443.988 123.255H299.133C298.579 123.255 298.137 122.803 298.137 122.254V35.1558C298.137 34.5997 298.586 34.1549 299.133 34.1549H443.995C444.548 34.1549 444.991 34.6063 444.991 35.1558V122.254C444.991 122.81 444.541 123.255 443.988 123.255Z" fill="#EB8F48"/>
<path d="M453.017 136.227H290.106C286.579 136.227 283.715 133.349 283.715 129.803C283.715 128.697 284.607 127.795 285.713 127.795H457.41C458.51 127.795 459.408 128.691 459.408 129.803C459.408 133.349 456.545 136.227 453.017 136.227Z" fill="#254C40"/>
<path d="M382.015 131.628H361.103C358.994 131.628 357.289 129.914 357.289 127.795H385.829C385.829 129.914 384.124 131.628 382.015 131.628Z" fill="#FAE7DB"/>
<path d="M358.261 94.0845H385.864C387.556 94.0845 388.929 92.7042 388.929 91.0034V51.4057C388.929 49.7048 387.556 48.3245 385.864 48.3245H358.261C356.569 48.3245 355.195 49.7048 355.195 51.4057V91.0034C355.195 92.7108 356.569 94.0845 358.261 94.0845Z" fill="#FAE7DB"/>
<path d="M379.96 89.5118H364.157C362.901 89.5118 361.879 88.4913 361.879 87.2222C361.879 85.9596 362.901 84.9325 364.157 84.9325H379.96C381.216 84.9325 382.238 85.9596 382.238 87.2222C382.238 88.4847 381.216 89.5118 379.96 89.5118Z" fill="#EAC9B7"/>
<path d="M373.752 62.2324V57.7709C373.752 57.4896 373.525 57.2606 373.245 57.2606H371.572C371.292 57.2606 371.064 57.4896 371.064 57.7709V62.2324C371.064 63.8744 368.812 65.2286 368.812 66.9949V80.157C368.812 80.5757 369.151 80.9224 369.574 80.9224H372.412H375.249C375.666 80.9224 376.011 80.5822 376.011 80.157V66.9949C376.004 65.2286 373.752 63.8809 373.752 62.2324Z" fill="#2B5B4F"/>
<path d="M373.751 62.2324H371.062V57.7709C371.062 57.4896 371.29 57.2606 371.57 57.2606H373.243C373.523 57.2606 373.751 57.4896 373.751 57.7709V62.2324Z" fill="#D7513E"/>
<path d="M373.778 59.1905H371.038C370.803 59.1905 370.621 59.0008 370.621 58.7718C370.621 58.5363 370.81 58.3531 371.038 58.3531H373.778C374.012 58.3531 374.194 58.5428 374.194 58.7718C374.201 59.0008 374.012 59.1905 373.778 59.1905Z" fill="#EB8F48"/>
<path d="M374.65 68.1985H370.172V77.7758H374.65V68.1985Z" fill="#EB8F48"/>
<path d="M317.25 94.0845H344.853C346.546 94.0845 347.919 92.7042 347.919 91.0034V51.4057C347.919 49.7048 346.546 48.3245 344.853 48.3245H317.25C315.558 48.3245 314.191 49.7048 314.191 51.4057V91.0034C314.191 92.7108 315.558 94.0845 317.25 94.0845Z" fill="#FAE7DB"/>
<path d="M338.956 89.5118H323.153C321.897 89.5118 320.875 88.4913 320.875 87.2222C320.875 85.9596 321.89 84.9325 323.153 84.9325H338.956C340.212 84.9325 341.234 85.9596 341.234 87.2222C341.227 88.4847 340.212 89.5118 338.956 89.5118Z" fill="#EAC9B7"/>
<path d="M336.853 63.2922H325.945C325.392 63.2922 324.949 62.8408 324.949 62.2913V62.252C324.949 61.6959 325.398 61.2511 325.945 61.2511H336.853C337.407 61.2511 337.849 61.7025 337.849 62.252V62.2913C337.849 62.8408 337.407 63.2922 336.853 63.2922Z" fill="#EABC49"/>
<path d="M337.186 64.2342H336.178V63.2921H326.623V64.2342H325.614C324.82 64.2342 324.176 64.8818 324.176 65.6799V79.457C324.176 80.2551 324.82 80.9027 325.614 80.9027H337.186C337.981 80.9027 338.625 80.2551 338.625 79.457V65.6799C338.625 64.8818 337.981 64.2342 337.186 64.2342Z" fill="#D7513E"/>
<path d="M337.185 80.9028C337.979 80.9028 338.624 80.2551 338.624 79.457V66.6808C338.324 66.6743 338.025 66.7005 337.732 66.7528C336.743 66.949 335.838 67.4331 334.901 67.806C333.963 68.1789 332.935 68.4537 331.959 68.2051C330.833 67.9238 329.915 66.9883 328.763 66.8967C328.099 66.8444 327.448 67.0799 326.823 67.3285C326.205 67.5771 325.567 67.8387 324.897 67.8453C324.65 67.8453 324.402 67.806 324.168 67.7144V79.4505C324.168 80.2486 324.812 80.8962 325.606 80.8962H337.185V80.9028Z" fill="#2B5B4F"/>
<path d="M331.401 75.774C334.291 75.774 336.634 74.3388 336.634 72.5685C336.634 70.7981 334.291 69.363 331.401 69.363C328.511 69.363 326.168 70.7981 326.168 72.5685C326.168 74.3388 328.511 75.774 331.401 75.774Z" fill="#EABC49"/>
<path d="M399.269 94.0845H426.872C428.564 94.0845 429.931 92.7042 429.931 91.0034V51.4057C429.931 49.7048 428.557 48.3245 426.872 48.3245H399.269C397.576 48.3245 396.203 49.7048 396.203 51.4057V91.0034C396.21 92.7108 397.583 94.0845 399.269 94.0845Z" fill="#FAE7DB"/>
<path d="M420.975 89.5118H405.173C403.916 89.5118 402.895 88.4913 402.895 87.2222C402.895 85.9596 403.916 84.9325 405.173 84.9325H420.975C422.232 84.9325 423.253 85.9596 423.253 87.2222C423.253 88.4847 422.232 89.5118 420.975 89.5118Z" fill="#EAC9B7"/>
<path d="M413.072 80.9028L411.686 80.1505L410.299 80.9028L408.913 80.1505L407.527 80.9028L406.14 80.1505L404.754 80.9028C404.754 80.9028 405.873 75.5254 405.873 71.0704C405.873 66.6154 404.754 61.238 404.754 61.238L406.14 61.9903L407.527 61.238L408.913 61.9903L410.299 61.238L411.686 61.9903L413.072 61.238L414.458 61.9903L415.845 61.238L417.231 61.9903L418.617 61.238L420.004 61.9903L421.39 61.238C421.39 61.238 420.27 66.6154 420.27 71.0704C420.27 75.5254 421.39 80.9028 421.39 80.9028L420.004 80.1505L418.617 80.9028L417.231 80.1505L415.845 80.9028L414.458 80.1505L413.072 80.9028Z" fill="#EABC49"/>
<path d="M418.617 61.238L417.231 61.9903L415.845 61.238L414.458 61.9903L413.072 61.238L411.686 61.9903L410.299 61.238L408.913 61.9903L407.527 61.238L406.14 61.9903L404.754 61.238C404.754 61.238 404.93 62.095 405.144 63.4034H420.993C421.208 62.095 421.383 61.238 421.383 61.238L419.997 61.9903L418.617 61.238Z" fill="#2B5B4F"/>
<path d="M407.528 80.9028L408.914 80.1505L410.301 80.9028L411.687 80.1505L413.073 80.9028L414.46 80.1505L415.846 80.9028L417.232 80.1505L418.619 80.9028L420.005 80.1505L421.391 80.9028C421.391 80.9028 421.215 80.0458 421.001 78.7374H405.152C404.937 80.0458 404.762 80.9028 404.762 80.9028L406.148 80.1505L407.528 80.9028Z" fill="#2B5B4F"/>
<path d="M416.501 71.0704C416.501 74.132 414.965 76.6179 413.071 76.6179C411.177 76.6179 409.641 74.132 409.641 71.0704C409.641 68.0088 411.177 65.5229 413.071 65.5229C414.965 65.5229 416.501 68.0023 416.501 71.0704Z" fill="#D7513E"/>
<path d="M408.232 104.885H335.902C335.069 104.885 334.398 104.211 334.398 103.374C334.398 102.537 335.069 101.863 335.902 101.863H408.232C409.065 101.863 409.736 102.537 409.736 103.374C409.736 104.211 409.065 104.885 408.232 104.885Z" fill="#DD7C3A"/>
<path d="M417.148 112.454H326.984C326.151 112.454 325.48 111.78 325.48 110.943C325.48 110.105 326.151 109.432 326.984 109.432H417.148C417.981 109.432 418.651 110.105 418.651 110.943C418.651 111.774 417.981 112.454 417.148 112.454Z" fill="#DD7C3A"/>
<path d="M435.577 74.7927C435.44 74.7927 435.303 74.7403 435.199 74.6357C434.991 74.4263 434.991 74.0862 435.199 73.8768L437.848 71.2143L435.199 68.5518C434.991 68.3424 434.991 68.0023 435.199 67.7929C435.407 67.5836 435.746 67.5836 435.954 67.7929L438.603 70.4554C439.02 70.8741 439.02 71.5545 438.603 71.9732L435.954 74.6357C435.85 74.7403 435.713 74.7927 435.577 74.7927Z" fill="#DD7C3A"/>
<path d="M308.55 74.7927C308.687 74.7927 308.823 74.7403 308.927 74.6357C309.136 74.4263 309.136 74.0862 308.927 73.8768L306.278 71.2143L308.927 68.5518C309.136 68.3424 309.136 68.0023 308.927 67.7929C308.719 67.5836 308.381 67.5836 308.172 67.7929L305.523 70.4554C305.107 70.8741 305.107 71.5545 305.523 71.9732L308.172 74.6357C308.276 74.7403 308.413 74.7927 308.55 74.7927Z" fill="#DD7C3A"/>
<path d="M428.776 75.8655H414.613V99.403H428.776V75.8655Z" fill="#2B5B4F"/>
<path d="M432.12 70.39H417.957V68.0546C417.957 66.8967 418.888 65.9612 420.04 65.9612H430.037C431.189 65.9612 432.12 66.8967 432.12 68.0546V70.39V70.39Z" fill="#2B5B4F"/>
<path d="M428.776 75.8655H414.613L417.959 70.39H432.121L428.776 75.8655Z" fill="#FAE7DB"/>
<path d="M435.475 75.8655V99.403H428.777V75.8655L432.123 70.39L435.475 75.8655Z" fill="#D7513E"/>
<path d="M425.619 80.9878H417.763C417.477 80.9878 417.242 80.7523 417.242 80.4644C417.242 80.1766 417.477 79.9411 417.763 79.9411H425.619C425.905 79.9411 426.14 80.1766 426.14 80.4644C426.14 80.7523 425.905 80.9878 425.619 80.9878Z" fill="#254C40"/>
<path d="M425.619 84.7232H417.763C417.477 84.7232 417.242 84.4877 417.242 84.1998C417.242 83.912 417.477 83.6765 417.763 83.6765H425.619C425.905 83.6765 426.14 83.912 426.14 84.1998C426.14 84.4877 425.905 84.7232 425.619 84.7232Z" fill="#254C40"/>
<path d="M425.619 88.4586H417.763C417.477 88.4586 417.242 88.2231 417.242 87.9352C417.242 87.6474 417.477 87.4119 417.763 87.4119H425.619C425.905 87.4119 426.14 87.6474 426.14 87.9352C426.14 88.2231 425.905 88.4586 425.619 88.4586Z" fill="#254C40"/>
<path d="M475.738 67.9499L477.346 58.4512C477.45 57.8559 477.047 57.2867 476.454 57.1821L472.888 56.5737C472.295 56.469 471.729 56.8746 471.625 57.4699L470.017 66.9687C469.425 70.4751 464.14 72.5292 463.502 76.2908L458.757 104.336C458.608 105.232 459.206 106.082 460.098 106.239L466.138 107.273L472.178 108.306C473.07 108.457 473.916 107.855 474.072 106.959L478.817 78.914C479.455 75.1459 475.146 71.4498 475.738 67.9499Z" fill="#2B5B4F"/>
<path d="M475.737 67.9499L470.016 66.9752L471.623 57.4764C471.727 56.8811 472.287 56.4755 472.886 56.5802L476.453 57.1886C477.045 57.2932 477.448 57.8558 477.344 58.4577L475.737 67.9499Z" fill="#D7513E"/>
<path d="M476.897 61.4735L471.052 60.4726C470.557 60.3876 470.225 59.9166 470.31 59.4194C470.395 58.9222 470.863 58.5886 471.358 58.6736L477.203 59.6745C477.697 59.7596 478.029 60.2306 477.945 60.7277C477.853 61.2249 477.385 61.5586 476.897 61.4735Z" fill="#EB8F48"/>
<path d="M475.512 80.9982L465.977 79.369L462.526 99.769L472.062 101.398L475.512 80.9982Z" fill="#EB8F48"/>
<path d="M448.29 62.88C437.792 65.935 447.77 108.457 460.37 104.787C472.971 101.117 458.795 59.8184 448.29 62.88Z" fill="#D7513E"/>
<path d="M455.325 69.3302C453.763 68.3817 451.83 68.0546 449.943 68.6106C448.055 69.1602 446.591 70.4751 445.777 72.1105L455.325 69.3302Z" fill="#EB8F48"/>
<path d="M462.888 95.5695C461.326 94.621 459.393 94.2939 457.505 94.8499C455.618 95.3994 454.153 96.7143 453.34 98.3498L462.888 95.5695Z" fill="#EB8F48"/>
<path d="M458.08 75.617C456.238 74.4918 453.954 74.1123 451.721 74.7665C449.489 75.4142 447.758 76.9646 446.801 78.9075L458.08 75.617Z" fill="#EB8F48"/>
<path d="M461.983 89.152C460.141 88.0268 457.856 87.6474 455.624 88.3015C453.391 88.9492 451.66 90.4996 450.703 92.4425L461.983 89.152Z" fill="#EB8F48"/>
<path d="M460.515 82.355C458.523 81.1448 456.056 80.7326 453.642 81.4326C451.227 82.1326 449.359 83.8073 448.324 85.9072L460.515 82.355Z" fill="#EB8F48"/>
<path d="M445.297 75.1001H437.018C435.989 75.1001 435.156 74.2628 435.156 73.2292C435.156 72.1956 435.989 71.3582 437.018 71.3582H445.297C446.325 71.3582 447.158 72.1956 447.158 73.2292C447.158 74.2628 446.325 75.1001 445.297 75.1001Z" fill="#EABC49"/>
<path d="M448.89 87.4969C448.89 86.2997 447.927 85.3315 446.736 85.3315H446.528C448.278 85.3315 449.417 83.4867 448.643 81.9102L445.297 75.1001H441.158H437.019L433.673 81.9102C432.899 83.4867 434.038 85.3315 435.788 85.3315H435.58C434.389 85.3315 433.426 86.2997 433.426 87.4969C433.426 88.694 434.389 89.6622 435.58 89.6622C434.389 89.6622 433.426 90.6304 433.426 91.8276C433.426 93.0247 434.389 93.9929 435.58 93.9929C434.389 93.9929 433.426 94.9611 433.426 96.1583C433.426 97.3554 434.389 98.3236 435.58 98.3236C434.389 98.3236 433.426 99.2918 433.426 100.489C433.426 101.686 434.389 102.654 435.58 102.654H446.742C447.933 102.654 448.897 101.686 448.897 100.489C448.897 99.2918 447.933 98.3236 446.742 98.3236C447.933 98.3236 448.897 97.3554 448.897 96.1583C448.897 94.9611 447.933 93.9929 446.742 93.9929C447.933 93.9929 448.897 93.0247 448.897 91.8276C448.897 90.6304 447.933 89.6622 446.742 89.6622C447.927 89.6622 448.89 88.694 448.89 87.4969Z" fill="#FAE7DB"/>
<path d="M448.889 87.4969C448.889 86.2997 447.926 85.3315 446.735 85.3315H446.526C448.277 85.3315 449.416 83.4867 448.642 81.9102L447.529 79.6467C447.32 79.6794 447.112 79.7252 446.91 79.7841C445.622 80.1439 444.463 80.8635 443.253 81.4326C442.042 82.0018 440.695 82.4401 439.38 82.1915C438.195 81.969 437.18 81.2233 436.074 80.7457C435.559 80.5298 434.98 80.3859 434.42 80.3728L433.665 81.9102C432.891 83.4867 434.03 85.3315 435.781 85.3315H435.572C434.381 85.3315 433.418 86.2997 433.418 87.4969C433.418 88.694 434.381 89.6622 435.572 89.6622C434.381 89.6622 433.418 90.6304 433.418 91.8276C433.418 93.0247 434.381 93.9929 435.572 93.9929C434.381 93.9929 433.418 94.9611 433.418 96.1583C433.418 97.3554 434.381 98.3236 435.572 98.3236C434.381 98.3236 433.418 99.2918 433.418 100.489C433.418 101.686 434.381 102.654 435.572 102.654H446.735C447.926 102.654 448.889 101.686 448.889 100.489C448.889 99.2918 447.926 98.3236 446.735 98.3236C447.926 98.3236 448.889 97.3554 448.889 96.1583C448.889 94.9611 447.926 93.9929 446.735 93.9929C447.926 93.9929 448.889 93.0247 448.889 91.8276C448.889 90.6304 447.926 89.6622 446.735 89.6622C447.926 89.6622 448.889 88.694 448.889 87.4969Z" fill="#EB8F48"/>
<path d="M470.862 129.384H420.049C417.875 129.384 416.007 127.84 415.59 125.701L408.359 88.8445H480.709C481.666 88.8445 482.382 89.7211 482.193 90.6631L475.32 125.701C474.897 127.84 473.029 129.384 470.862 129.384Z" fill="#EABC49"/>
<path d="M408.359 88.8445L407.044 82.1588C406.368 78.7178 403.341 76.2122 399.852 76.2122H394.717C394.092 76.2122 393.578 75.702 393.578 75.0674C393.578 74.4394 394.086 73.9226 394.717 73.9226H399.852C404.428 73.9226 408.392 77.2001 409.277 81.7074L410.728 88.838H408.359V88.8445Z" fill="#2B5B4F"/>
<path d="M428.51 141.395C432.295 141.395 435.363 138.311 435.363 134.506C435.363 130.702 432.295 127.618 428.51 127.618C424.725 127.618 421.656 130.702 421.656 134.506C421.656 138.311 424.725 141.395 428.51 141.395Z" fill="#EB8F48"/>
<path d="M425.711 134.506C425.711 136.063 426.967 137.326 428.516 137.326C430.065 137.326 431.321 136.063 431.321 134.506C431.321 132.949 430.065 131.687 428.516 131.687C426.961 131.687 425.711 132.949 425.711 134.506Z" fill="#2B5B4F"/>
<path d="M462.393 141.395C466.178 141.395 469.246 138.311 469.246 134.506C469.246 130.702 466.178 127.618 462.393 127.618C458.608 127.618 455.539 130.702 455.539 134.506C455.539 138.311 458.608 141.395 462.393 141.395Z" fill="#EB8F48"/>
<path d="M459.586 134.506C459.586 136.063 460.842 137.326 462.391 137.326C463.94 137.326 465.196 136.063 465.196 134.506C465.196 132.949 463.94 131.687 462.391 131.687C460.842 131.687 459.586 132.949 459.586 134.506Z" fill="#2B5B4F"/>
<path opacity="0.8" d="M445.287 122.862C444.291 122.862 443.484 122.051 443.484 121.05V97.1722C443.484 96.1713 444.291 95.3602 445.287 95.3602C446.283 95.3602 447.09 96.1713 447.09 97.1722V121.05C447.09 122.051 446.283 122.862 445.287 122.862Z" fill="#D39F37"/>
<path opacity="0.8" d="M430.787 122.862C429.791 122.862 428.984 122.051 428.984 121.05V97.1722C428.984 96.1713 429.791 95.3602 430.787 95.3602C431.783 95.3602 432.59 96.1713 432.59 97.1722V121.05C432.59 122.051 431.783 122.862 430.787 122.862Z" fill="#D39F37"/>
<path opacity="0.8" d="M459.791 122.862C460.787 122.862 461.594 122.051 461.594 121.05V97.1722C461.594 96.1713 460.787 95.3602 459.791 95.3602C458.795 95.3602 457.988 96.1713 457.988 97.1722V121.05C457.988 122.051 458.795 122.862 459.791 122.862Z" fill="#D39F37"/>
<path d="M287.635 94.3658L273.322 86.2082C272.392 85.6783 271.279 85.5933 270.283 85.9727L221.11 104.702C219.255 105.408 218.324 107.489 219.027 109.347L228.003 133.152C228.706 135.017 230.775 135.952 232.624 135.246L281.796 116.516C282.792 116.137 283.573 115.332 283.918 114.318L289.255 98.6704C289.815 97.0284 289.138 95.2228 287.635 94.3658ZM279.642 103.217C278.035 103.832 276.238 103.014 275.626 101.398C275.015 99.7825 275.828 97.9769 277.436 97.362C279.043 96.7471 280.84 97.5648 281.452 99.1806C282.063 100.796 281.256 102.609 279.642 103.217Z" fill="#2B5B4F"/>
<path d="M238.142 123.019C235.63 123.732 233.384 123.13 232.421 120.847L235.675 119.611C236.027 120.317 236.554 120.631 237.231 120.599L236.164 117.759C234.061 117.982 231.464 118.355 230.403 115.542C229.557 113.298 230.931 111.257 233.3 110.164L232.753 108.712L233.899 108.274L234.445 109.726C236.971 108.993 239.014 109.648 240.036 111.872L236.769 113.115C236.45 112.48 235.949 112.192 235.383 112.205L236.43 114.992C238.546 114.803 241.188 114.39 242.236 117.177C242.965 119.114 242.073 121.41 239.301 122.607L239.847 124.059L238.702 124.498L238.142 123.019ZM235.135 115.045L234.192 112.552C233.573 112.912 233.306 113.461 233.573 114.161C233.814 114.789 234.387 115.005 235.135 115.045ZM237.433 117.661L238.396 120.213C239.066 119.814 239.327 119.159 239.079 118.492C238.832 117.851 238.227 117.668 237.433 117.661Z" fill="#EABC49"/>
<path d="M250.783 118.204C248.271 118.917 246.025 118.315 245.062 116.032L248.316 114.796C248.668 115.502 249.195 115.817 249.872 115.784L248.804 112.945C246.702 113.167 244.105 113.54 243.044 110.727C242.198 108.483 243.571 106.442 245.94 105.35L245.394 103.897L246.539 103.459L247.086 104.911C249.605 104.179 251.655 104.833 252.677 107.057L249.41 108.3C249.091 107.665 248.589 107.378 248.023 107.391L249.071 110.177C251.186 109.988 253.829 109.576 254.877 112.362C255.606 114.299 254.714 116.595 251.941 117.792L252.488 119.244L251.343 119.683L250.783 118.204ZM247.776 110.236L246.832 107.744C246.214 108.104 245.947 108.653 246.214 109.353C246.455 109.975 247.027 110.191 247.776 110.236ZM250.073 112.853L251.037 115.404C251.707 115.005 251.967 114.351 251.72 113.684C251.466 113.036 250.867 112.853 250.073 112.853Z" fill="#EABC49"/>
<path d="M263.423 113.389C260.911 114.103 258.666 113.501 257.702 111.218L260.957 109.981C261.308 110.688 261.835 111.002 262.512 110.969L261.445 108.13C259.343 108.352 256.746 108.725 255.685 105.912C254.839 103.668 256.212 101.627 258.581 100.535L258.034 99.0825L259.18 98.6442L259.727 100.096C262.245 99.3638 264.296 100.018 265.317 102.242L262.05 103.485C261.731 102.851 261.23 102.563 260.664 102.576L261.712 105.363C263.827 105.173 266.47 104.761 267.517 107.548C268.246 109.484 267.355 111.78 264.582 112.977L265.129 114.43L263.983 114.868L263.423 113.389ZM260.416 105.422L259.473 102.929C258.854 103.289 258.588 103.838 258.854 104.538C259.089 105.166 259.661 105.376 260.416 105.422ZM262.708 108.038L263.671 110.59C264.335 110.191 264.602 109.536 264.354 108.869C264.107 108.221 263.508 108.038 262.708 108.038Z" fill="#EABC49"/>
<path d="M276.972 96.1321C274.688 97.0022 273.536 99.5666 274.401 101.863C275.267 104.159 277.818 105.317 280.103 104.447C282.387 103.577 283.539 101.012 282.674 98.7162C281.808 96.42 279.257 95.2621 276.972 96.1321ZM279.641 103.217C278.033 103.832 276.237 103.014 275.625 101.398C275.013 99.7825 275.827 97.9769 277.434 97.362C279.042 96.7471 280.838 97.5648 281.45 99.1806C282.062 100.796 281.255 102.609 279.641 103.217Z" fill="#EABC49"/>
<path d="M397.193 136.227C390.632 141.539 381.455 144.398 372.193 143.528C361.174 142.494 349.778 136.783 339.234 127.016C336.083 124.098 333.089 120.919 330.187 117.844C327.603 115.103 324.928 112.271 322.155 109.628C314.95 102.759 308.448 98.6049 301.679 96.5508C293.387 94.0322 284.6 95.2621 278.176 99.8413C277.2 100.541 277.382 101.202 277.506 101.457C277.896 102.242 279.302 102.609 280.812 102.425C281.034 102.183 281.222 101.909 281.359 101.608C279.79 101.981 278.378 101.627 278.137 101.137C278.007 100.875 278.359 100.574 278.58 100.417C284.828 95.962 293.387 94.7649 301.471 97.2246C308.129 99.246 314.546 103.354 321.667 110.138C324.427 112.768 327.095 115.594 329.672 118.329C332.582 121.41 335.589 124.602 338.752 127.533C349.413 137.411 360.953 143.187 372.122 144.234C373.248 144.339 374.374 144.391 375.493 144.391C384.071 144.391 392.311 141.336 398.273 136.227H397.193Z" fill="black"/>
</svg>
