<svg width="169" height="50" viewBox="0 0 169 50" fill="none" xmlns="http://www.w3.org/2000/svg">
<g clip-path="url(#clip0_2490_5158)">
<path d="M167.564 44.1036C167.564 46.7469 165.429 48.9023 162.765 48.9023H5.89245C3.24909 48.9023 1.09375 46.7673 1.09375 44.1036V5.91735C1.09375 3.274 3.24909 1.11865 5.89245 1.11865H162.765C165.409 1.11865 167.564 3.274 167.564 5.91735V44.1036Z" fill="white"/>
<path d="M162.79 50H5.91705C2.66369 50 0 47.3566 0 44.1033V5.91704C0 2.66369 2.64336 0 5.91705 0H162.79C166.043 0 168.707 2.64335 168.707 5.91704V44.1033C168.687 47.3566 166.043 50 162.79 50Z" fill="black"/>
<path d="M167.564 44.1036C167.564 46.7469 165.429 48.9023 162.765 48.9023H5.89245C3.24909 48.9023 1.09375 46.7673 1.09375 44.1036V5.91735C1.09375 3.274 3.24909 1.11865 5.89245 1.11865H162.765C165.409 1.11865 167.564 3.274 167.564 5.91735V44.1036Z" fill="black"/>
<path d="M37.6603 24.7462C37.6197 20.7202 40.9544 18.7478 41.117 18.6665C39.2261 15.9215 36.298 15.5352 35.261 15.5148C32.8007 15.2504 30.4217 16.9788 29.161 16.9788C27.88 16.9788 25.9483 15.5352 23.8743 15.5758C21.1903 15.6165 18.6893 17.1619 17.3269 19.5815C14.5005 24.4819 16.6153 31.7003 19.3195 35.6653C20.682 37.6173 22.2679 39.7727 24.342 39.6913C26.3753 39.61 27.1276 38.39 29.5879 38.39C32.0077 38.39 32.7396 39.6913 34.8544 39.6303C37.03 39.5896 38.4127 37.6783 39.714 35.7263C41.2797 33.5099 41.9101 31.3139 41.9303 31.192C41.8897 31.1716 37.7011 29.5653 37.6603 24.7462Z" fill="white"/>
<path d="M33.6553 12.8913C34.7532 11.529 35.5055 9.65825 35.2819 7.7876C33.6959 7.8486 31.7236 8.88561 30.5849 10.2276C29.5682 11.4069 28.6736 13.3386 28.9175 15.1483C30.7069 15.2703 32.5165 14.2333 33.6553 12.8913Z" fill="white"/>
<path d="M67.0982 39.3862H64.2515L62.7061 34.5062H57.2771L55.7927 39.3862H53.0273L58.375 22.7534H61.6894L67.0982 39.3862ZM62.2181 32.4524L60.8151 28.1011C60.6728 27.6538 60.3881 26.6167 59.9815 24.9698H59.9407C59.7781 25.6815 59.5138 26.7184 59.1477 28.1011L57.765 32.4524H62.2181Z" fill="white"/>
<path d="M80.8458 33.2453C80.8458 35.2786 80.2967 36.9053 79.1784 38.0846C78.1821 39.142 76.9417 39.6706 75.4777 39.6706C73.8917 39.6706 72.7531 39.1012 72.0617 37.9626V44.266H69.3981V31.3542C69.3981 30.0732 69.3574 28.7515 69.2964 27.4095H71.6347L71.777 29.3209H71.8177C72.7124 27.8975 74.0544 27.1655 75.8641 27.1655C77.2875 27.1655 78.4667 27.7145 79.4021 28.8532C80.3578 29.9512 80.8458 31.4152 80.8458 33.2453ZM78.1211 33.3469C78.1211 32.1878 77.8567 31.2119 77.3281 30.4595C76.7588 29.6665 75.9861 29.2802 75.01 29.2802C74.3594 29.2802 73.7494 29.5038 73.2208 29.9309C72.6921 30.3782 72.326 30.9476 72.1633 31.6389C72.0821 31.9642 72.0414 32.2286 72.0414 32.4522V34.4449C72.0414 35.3193 72.3058 36.0512 72.8344 36.6612C73.3631 37.2712 74.0747 37.5559 74.9287 37.5559C75.925 37.5559 76.7181 37.1695 77.2671 36.397C77.8364 35.6243 78.1211 34.6076 78.1211 33.3469Z" fill="white"/>
<path d="M94.635 33.2453C94.635 35.2786 94.0859 36.9053 92.9681 38.0846C91.9717 39.142 90.7315 39.6706 89.2674 39.6706C87.6813 39.6706 86.5426 39.1012 85.8513 37.9626V44.266H83.1876V31.3542C83.1876 30.0732 83.147 28.7515 83.0859 27.4095H85.4243L85.5666 29.3209H85.6073C86.502 27.8975 87.844 27.1655 89.6538 27.1655C91.077 27.1655 92.2565 27.7145 93.1913 28.8532C94.1681 29.9512 94.635 31.4152 94.635 33.2453ZM91.9306 33.3469C91.9306 32.1878 91.6663 31.2119 91.1377 30.4595C90.569 29.6665 89.7958 29.2802 88.82 29.2802C88.1693 29.2802 87.5593 29.5038 87.0307 29.9309C86.502 30.3782 86.1563 30.9476 85.9733 31.6389C85.892 31.9642 85.8513 32.2286 85.8513 32.4522V34.4449C85.8513 35.3193 86.1157 36.0512 86.6443 36.6612C87.173 37.2509 87.8847 37.5559 88.7387 37.5559C89.735 37.5559 90.5279 37.1695 91.077 36.397C91.6466 35.6243 91.9306 34.6076 91.9306 33.3469Z" fill="white"/>
<path d="M110.065 34.7295C110.065 36.1528 109.578 37.2915 108.581 38.1862C107.504 39.1622 105.979 39.6503 104.047 39.6503C102.257 39.6503 100.814 39.3045 99.7358 38.6132L100.347 36.3969C101.505 37.0882 102.806 37.4338 104.189 37.4338C105.186 37.4338 105.979 37.2102 106.528 36.7628C107.077 36.3155 107.362 35.7055 107.362 34.9532C107.362 34.2822 107.138 33.7128 106.67 33.2452C106.202 32.7775 105.45 32.3505 104.372 31.9642C101.464 30.8865 100.001 29.2802 100.001 27.2061C100.001 25.8438 100.509 24.7254 101.546 23.8511C102.583 22.9768 103.946 22.5498 105.633 22.5498C107.138 22.5498 108.419 22.8141 109.415 23.3428L108.744 25.5185C107.809 25.0101 106.731 24.7458 105.552 24.7458C104.616 24.7458 103.864 24.9694 103.355 25.4371C102.908 25.8438 102.685 26.3521 102.685 26.9418C102.685 27.5925 102.949 28.1415 103.457 28.5685C103.905 28.9548 104.697 29.3818 105.877 29.8494C107.3 30.4188 108.357 31.0898 109.029 31.8625C109.74 32.6148 110.065 33.5705 110.065 34.7295Z" fill="white"/>
<path d="M118.902 29.4021H115.953V35.2175C115.953 36.7018 116.461 37.4338 117.499 37.4338C117.966 37.4338 118.373 37.3932 118.678 37.3118L118.76 39.3451C118.23 39.5484 117.539 39.6501 116.686 39.6501C115.628 39.6501 114.815 39.3248 114.225 38.6945C113.636 38.0438 113.33 36.9661 113.33 35.4615V29.4021H111.582V27.4094H113.33V25.2134L115.953 24.4204V27.4094H118.902C118.902 27.3891 118.902 29.4021 118.902 29.4021Z" fill="white"/>
<path d="M132.143 33.3062C132.143 35.1566 131.614 36.6612 130.557 37.8406C129.459 39.0606 127.995 39.6706 126.165 39.6706C124.396 39.6706 122.993 39.081 121.956 37.922C120.919 36.7629 120.39 35.2786 120.39 33.5095C120.39 31.6592 120.939 30.1342 122.017 28.9345C123.095 27.7552 124.559 27.1655 126.369 27.1655C128.137 27.1655 129.54 27.7552 130.618 28.9142C131.614 30.0326 132.143 31.4965 132.143 33.3062ZM129.378 33.3672C129.378 32.2692 129.134 31.3339 128.666 30.5409C128.117 29.5852 127.304 29.1175 126.267 29.1175C125.189 29.1175 124.376 29.5852 123.827 30.5409C123.359 31.3339 123.115 32.2895 123.115 33.4282C123.115 34.5262 123.359 35.4819 123.827 36.2545C124.396 37.2103 125.21 37.6779 126.246 37.6779C127.263 37.6779 128.056 37.1899 128.645 36.2343C129.113 35.4006 129.378 34.4653 129.378 33.3672Z" fill="white"/>
<path d="M140.81 29.7482C140.545 29.7076 140.261 29.6668 139.976 29.6668C139.041 29.6668 138.309 30.0126 137.801 30.7243C137.354 31.3545 137.129 32.1476 137.129 33.1033V39.4067H134.466V31.1919C134.466 29.8093 134.445 28.5485 134.385 27.4099H136.703L136.804 29.7076H136.886C137.17 28.9145 137.618 28.2843 138.228 27.7962C138.817 27.3692 139.468 27.1455 140.159 27.1455C140.404 27.1455 140.627 27.1659 140.83 27.1862L140.81 29.7482Z" fill="white"/>
<path d="M152.725 32.8185C152.725 33.2862 152.684 33.6929 152.623 34.0181H144.632C144.652 35.1975 145.059 36.1125 145.791 36.7429C146.462 37.2919 147.336 37.5765 148.414 37.5765C149.594 37.5765 150.671 37.3935 151.647 37.0071L152.074 38.8575C150.935 39.3455 149.594 39.5896 148.048 39.5896C146.198 39.5896 144.734 39.0405 143.656 37.9425C142.599 36.8445 142.07 35.3805 142.07 33.5302C142.07 31.7205 142.558 30.2158 143.554 29.0162C144.591 27.7351 145.994 27.0845 147.743 27.0845C149.471 27.0845 150.773 27.7351 151.668 29.0162C152.379 30.0735 152.725 31.3341 152.725 32.8185ZM150.183 32.1272C150.203 31.3341 150.02 30.6631 149.675 30.0735C149.207 29.3212 148.495 28.9551 147.56 28.9551C146.685 28.9551 145.974 29.3212 145.445 30.0328C144.998 30.6022 144.734 31.2935 144.652 32.1068L150.183 32.1272Z" fill="white"/>
<path d="M60.9376 16.7956H59.5346L58.7619 14.3963H56.0982L55.3662 16.7956H54.0039L56.6269 8.62158H58.2535L60.9376 16.7956ZM58.5585 13.3999L57.8672 11.2649C57.7859 11.0413 57.6639 10.533 57.4606 9.71957H57.4402C57.3589 10.0653 57.2369 10.5736 57.0539 11.2649L56.3829 13.3999H58.5585Z" fill="white"/>
<path d="M67.5285 10.8984L65.2919 16.7952H64.0108L61.8555 10.8984H63.2585L64.2752 14.0095C64.4379 14.5382 64.5802 15.0262 64.7022 15.4939H64.7429C64.8445 15.0668 64.9869 14.5788 65.1698 14.0095L66.1662 10.8984C66.1459 10.8984 67.5285 10.8984 67.5285 10.8984Z" fill="white"/>
<path d="M72.2839 16.7954L72.1823 16.1244H72.1415C71.7349 16.6735 71.1656 16.9378 70.4132 16.9378C69.3559 16.9378 68.6035 16.2058 68.6035 15.2094C68.6035 13.7454 69.8642 12.9931 72.0399 12.9931V12.8914C72.0399 12.1187 71.6332 11.7324 70.8199 11.7324C70.2302 11.7324 69.7219 11.8748 69.2746 12.1798L69.0102 11.3258C69.5592 10.9801 70.2302 10.8174 71.0436 10.8174C72.5889 10.8174 73.3615 11.6308 73.3615 13.2575V15.4331C73.3615 16.0227 73.3819 16.4904 73.4429 16.8361L72.2839 16.7954ZM72.1009 13.8675C70.6369 13.8675 69.9252 14.2131 69.9252 15.0468C69.9252 15.6568 70.3115 15.9618 70.8199 15.9618C71.4909 15.9618 72.1009 15.4535 72.1009 14.7621C72.1009 14.7825 72.1009 13.8675 72.1009 13.8675Z" fill="white"/>
<path d="M76.2903 9.92259C75.8632 9.92259 75.5176 9.57697 75.5176 9.12965C75.5176 8.68227 75.8632 8.35693 76.3105 8.35693C76.7578 8.35693 77.1239 8.68227 77.1036 9.12965C77.1239 9.61759 76.7782 9.92259 76.2903 9.92259ZM76.9612 16.7954H75.6599V10.8986H76.9612V16.7954Z" fill="white"/>
<path d="M80.5982 16.7954H79.2969V8.19434H80.5982V16.7954Z" fill="white"/>
<path d="M86.1706 16.7954L86.0689 16.1244H86.0283C85.6216 16.6735 85.0522 16.9378 84.2999 16.9378C83.2426 16.9378 82.4902 16.2058 82.4902 15.2094C82.4902 13.7454 83.7509 12.9931 85.9266 12.9931V12.8914C85.9266 12.1187 85.5199 11.7324 84.7066 11.7324C84.1169 11.7324 83.6085 11.8748 83.1612 12.1798L82.8969 11.3258C83.4459 10.9801 84.1169 10.8174 84.9302 10.8174C86.4756 10.8174 87.2483 11.6308 87.2483 13.2575V15.4331C87.2483 16.0227 87.2686 16.4904 87.3296 16.8361H86.1706V16.7954ZM85.9875 13.8675C84.5235 13.8675 83.8119 14.2131 83.8119 15.0468C83.8119 15.6568 84.1983 15.9618 84.7066 15.9618C85.3776 15.9618 85.9875 15.4535 85.9875 14.7621V13.8675Z" fill="white"/>
<path d="M92.5725 16.9379C91.7386 16.9379 91.1082 16.5923 90.7225 15.9009H90.702L90.6207 16.8159H89.502C89.543 16.3483 89.543 15.7992 89.543 15.2299V8.21484H90.8645V11.7732H90.885C91.2707 11.1225 91.9011 10.7972 92.7555 10.7972C94.1787 10.7972 95.1752 12.0172 95.1752 13.7862C95.1752 15.5959 94.077 16.9379 92.5725 16.9379ZM92.3082 11.8139C91.5555 11.8139 90.8645 12.4645 90.8645 13.3795V14.4166C90.8645 15.2299 91.4743 15.9009 92.2877 15.9009C93.2636 15.9009 93.8537 15.1079 93.8537 13.8269C93.8537 12.6272 93.2439 11.8139 92.3082 11.8139Z" fill="white"/>
<path d="M98.4302 16.7954H97.1284V8.19434H98.4302V16.7954Z" fill="white"/>
<path d="M105.576 14.1721H101.651C101.671 15.2904 102.424 15.9207 103.502 15.9207C104.091 15.9207 104.62 15.819 105.088 15.6361L105.291 16.5511C104.742 16.7951 104.071 16.9171 103.319 16.9171C101.468 16.9171 100.391 15.7581 100.391 13.9484C100.391 12.1387 101.509 10.7764 103.176 10.7764C104.681 10.7764 105.637 11.8948 105.637 13.5824C105.616 13.8061 105.616 14.0094 105.576 14.1721ZM104.376 13.2367C104.376 12.3217 103.908 11.6914 103.075 11.6914C102.322 11.6914 101.733 12.3421 101.651 13.2367H104.376Z" fill="white"/>
<path d="M113.521 16.9381C111.792 16.9381 110.673 15.657 110.673 13.9083C110.673 12.0783 111.813 10.7974 113.622 10.7974C115.31 10.7974 116.469 12.0174 116.469 13.827C116.448 15.657 115.269 16.9381 113.521 16.9381ZM113.561 11.7327C112.605 11.7327 112.016 12.6274 112.016 13.8474C112.016 15.0674 112.626 15.9417 113.561 15.9417C114.497 15.9417 115.106 14.986 115.106 13.827C115.086 12.6477 114.476 11.7327 113.561 11.7327Z" fill="white"/>
<path d="M123.484 16.7951H122.183V13.3994C122.183 12.3624 121.776 11.8337 121.004 11.8337C120.23 11.8337 119.681 12.5048 119.681 13.2774V16.7951H118.38V12.5861C118.38 12.0574 118.36 11.5084 118.339 10.8984H119.498L119.56 11.8134H119.6C119.946 11.1831 120.678 10.7764 121.472 10.7764C122.712 10.7764 123.525 11.7321 123.525 13.2571L123.484 16.7951Z" fill="white"/>
<path d="M132.064 11.8949H130.621V14.7619C130.621 15.4939 130.865 15.8599 131.394 15.8599C131.617 15.8599 131.821 15.8396 131.983 15.7989L132.024 16.7953C131.76 16.897 131.434 16.9376 131.007 16.9376C129.971 16.9376 129.36 16.3683 129.36 14.8839V11.9153H128.506V10.8986H129.36V9.82091L130.641 9.43457V10.8986H132.085V11.8949H132.064Z" fill="white"/>
<path d="M139.001 16.7954H137.679V13.4404C137.679 12.3831 137.273 11.8544 136.5 11.8544C135.829 11.8544 135.199 12.3221 135.199 13.2573V16.7954H133.877V8.19434H135.199V11.7323H135.219C135.626 11.0817 136.235 10.7767 136.988 10.7767C138.228 10.7767 139.001 11.7527 139.001 13.2981V16.7954Z" fill="white"/>
<path d="M145.713 14.1721H141.768C141.788 15.2904 142.541 15.9207 143.619 15.9207C144.208 15.9207 144.736 15.819 145.204 15.6361L145.408 16.5511C144.859 16.7951 144.188 16.9171 143.435 16.9171C141.585 16.9171 140.508 15.7581 140.508 13.9484C140.508 12.1387 141.626 10.7764 143.293 10.7764C144.798 10.7764 145.753 11.8948 145.753 13.5824C145.753 13.8061 145.733 14.0094 145.713 14.1721ZM144.513 13.2367C144.513 12.3217 144.045 11.6914 143.211 11.6914C142.46 11.6914 141.869 12.3421 141.788 13.2367H144.513Z" fill="white"/>
</g>
<defs>
<clipPath id="clip0_2490_5158">
<rect width="168.75" height="50" fill="white"/>
</clipPath>
</defs>
</svg>
