<svg xmlns="http://www.w3.org/2000/svg" width="306" height="300" fill="none" xmlns:v="https://vecta.io/nano"><path d="M48.134 155.504c-5.608 0-10.959-1.964-15.314-5.607a23.71 23.71 0 0 1-8.34-16.168 23.67 23.67 0 0 1 5.522-17.364c4.099-4.868 9.849-7.828 16.168-8.369 13.066-1.11 24.594 8.625 25.704 21.691a23.67 23.67 0 0 1-5.522 17.363c-4.099 4.868-9.849 7.828-16.168 8.369a24.64 24.64 0 0 1-2.05.085zm.057-46.739a22.63 22.63 0 0 0-1.964.085c-6.091.513-11.642 3.387-15.599 8.056s-5.835 10.617-5.323 16.737a22.86 22.86 0 0 0 8.056 15.599c4.697 3.957 10.618 5.836 16.738 5.323 6.091-.512 11.642-3.387 15.599-8.055a22.8 22.8 0 0 0 5.323-16.738c-.996-11.955-11.044-21.007-22.829-21.007zm-.027 39.91c-3.985 0-7.828-1.395-10.931-4.013a16.94 16.94 0 0 1-5.978-11.529 17 17 0 0 1 3.928-12.382c2.904-3.473 7.031-5.579 11.528-5.978a17 17 0 0 1 18.36 15.485 17 17 0 0 1-15.485 18.36c-.456.057-.939.057-1.423.057zm.029-33.076a21.51 21.51 0 0 0-1.366.057 16 16 0 0 0-10.959 5.664c-2.79 3.302-4.099 7.458-3.729 11.756a16 16 0 0 0 5.665 10.959c3.302 2.789 7.458 4.099 11.756 3.729 8.853-.74 15.457-8.568 14.688-17.42-.712-8.398-7.771-14.745-16.054-14.745z" fill="#fff"/><path d="M48.875 139.735c4.441-.37 7.714-4.27 7.344-8.711s-4.27-7.714-8.71-7.344-7.714 4.27-7.344 8.711 4.27 7.714 8.71 7.344z" fill="url(#A)"/><path d="M48.163 140.192a8.45 8.45 0 0 1-5.465-1.993c-1.736-1.451-2.79-3.501-2.989-5.778-.199-2.249.512-4.469 1.964-6.177 1.452-1.736 3.501-2.79 5.778-2.989 2.249-.199 4.469.512 6.177 1.964s2.79 3.501 2.989 5.779a8.39 8.39 0 0 1-1.964 6.177c-1.452 1.736-3.501 2.789-5.778 2.988-.228.029-.455.029-.712.029zm.028-16.111l-.655.028c-2.021.171-3.871 1.139-5.181 2.676s-1.936 3.529-1.765 5.579c.171 2.021 1.139 3.871 2.676 5.181a7.62 7.62 0 0 0 5.579 1.764c2.021-.17 3.871-1.138 5.181-2.675s1.936-3.53 1.765-5.579c-.171-2.021-1.139-3.872-2.676-5.181-1.395-1.167-3.131-1.793-4.925-1.793z" fill="#131022"/><g fill="#fff"><path d="M48.362 132.365h-.085l-40.25-7.372c-.228-.029-.399-.256-.342-.484.028-.228.256-.399.484-.342l40.278 7.344c.228.029.398.256.342.484-.029.228-.228.37-.427.37z"/><path d="M13.777 133.901h-.085l-11.87-2.106a.41.41 0 0 1-.313-.256c-.057-.143-.028-.285.057-.427l5.209-6.747-3.131-7.628c-.057-.143-.028-.313.057-.427a.42.42 0 0 1 .399-.143l11.87 2.107a.52.52 0 0 1 .285.199l4.384 7.828c.085.171.057.37-.057.512l-6.49 6.974c-.085.086-.199.114-.313.114zm-11.101-2.818l10.959 1.936 6.12-6.547-4.128-7.373-10.902-1.935 2.932 7.116c.057.142.028.313-.057.427l-4.924 6.376zm283.786-68.231c-2.363 0-4.725-.484-6.974-1.423a17.69 17.69 0 0 1-9.621-9.763c-1.793-4.441-1.765-9.308.085-13.72a17.69 17.69 0 0 1 9.764-9.621c4.441-1.793 9.308-1.765 13.72.085a17.69 17.69 0 0 1 9.621 9.763 17.9 17.9 0 0 1-.085 13.72 17.69 17.69 0 0 1-9.764 9.621c-2.191.882-4.469 1.338-6.746 1.338zm0-35.012c-2.163 0-4.355.427-6.433 1.252-4.213 1.708-7.515 4.981-9.308 9.166s-1.793 8.853-.086 13.066 4.982 7.515 9.166 9.308c4.213 1.765 8.824 1.793 13.066.085 4.213-1.708 7.515-4.981 9.308-9.166 1.765-4.213 1.822-8.853.085-13.065-1.708-4.213-4.981-7.515-9.166-9.308-2.134-.882-4.383-1.338-6.632-1.338z"/></g><path d="M273.88 57.074l1.509 1.338 1.765 1.309-4.27 5.266-3.302-2.676 4.298-5.238z" fill="#232438" fill-opacity=".8"/><path d="M272.884 65.444c-.085 0-.199-.028-.256-.085l-3.302-2.676c-.171-.142-.199-.427-.057-.598l4.27-5.266a.56.56 0 0 1 .313-.171c.114 0 .227.029.313.114l1.48 1.338 1.765 1.309c.085.057.171.171.171.285s-.029.228-.086.313l-4.269 5.266c-.057.085-.171.142-.285.142-.029.028-.029.028-.057.028zm-2.676-3.16l2.619 2.135 3.729-4.583-1.423-1.082-1.196-1.053-3.729 4.583z" fill="#fff"/><path d="M273.82 66.43l-5.778-4.668-19.954 24.622 5.778 4.668L273.82 66.43z" fill="#232438" fill-opacity=".8"/><path d="M254.183 91.089c-.086 0-.2-.028-.257-.085l-5.778-4.668c-.171-.142-.199-.427-.057-.598l19.954-24.622c.057-.085.171-.142.285-.142s.228.028.313.085l5.778 4.668a.44.44 0 0 1 .057.598l-19.954 24.622a.35.35 0 0 1-.284.142h-.057zm-5.181-5.181l5.095 4.127 19.413-23.968-5.095-4.127-19.413 23.968z" fill="#fff"/><path d="M48.305 27.466c3.188 0 5.75-2.59 5.75-5.75s-2.562-5.778-5.75-5.778-5.75 2.59-5.75 5.75 2.59 5.778 5.75 5.778z" fill="url(#B)"/><path d="M48.305 27.895c-3.416 0-6.205-2.79-6.205-6.205s2.79-6.205 6.205-6.205 6.205 2.79 6.205 6.205-2.79 6.205-6.205 6.205zm0-11.528c-2.932 0-5.351 2.391-5.351 5.351s2.419 5.323 5.351 5.323 5.351-2.391 5.351-5.351-2.391-5.323-5.351-5.323z" fill="#131022"/><path d="M68.943 5.975c-1.623 0-2.903-1.309-2.903-2.903S67.349.168 68.943.168s2.903 1.309 2.903 2.903-1.281 2.903-2.903 2.903zm0-4.981a2.06 2.06 0 0 0-2.049 2.049 2.08 2.08 0 0 0 2.049 2.049 2.08 2.08 0 0 0 2.05-2.049 2.06 2.06 0 0 0-2.05-2.049z" fill="#fff"/><path d="M93.083 42.126a16.22 16.22 0 1 0 0-32.45 16.22 16.22 0 1 0 0 32.45z" fill="#3e4265" fill-opacity=".57"/><g fill="#fff"><path d="M93.082 42.554A16.66 16.66 0 0 1 76.43 25.902 16.66 16.66 0 0 1 93.082 9.25a16.66 16.66 0 0 1 16.652 16.652 16.66 16.66 0 0 1-16.652 16.652zm0-32.45c-8.71 0-15.798 7.088-15.798 15.798S84.372 41.7 93.082 41.7s15.798-7.088 15.798-15.798-7.088-15.798-15.798-15.798z"/><path d="M77.653 39.848c-3.53 0-6.006-.883-6.803-2.704-1.025-2.391 1.053-5.892 5.721-9.621.171-.142.456-.114.598.057s.114.455-.057.598c-4.27 3.444-6.319 6.661-5.465 8.625 1.622 3.7 12.809 2.562 24.423-2.505 5.778-2.533 10.902-5.636 14.403-8.767 3.331-2.989 4.811-5.693 4.042-7.429-.768-1.793-3.928-2.533-8.596-2.021-.228.028-.455-.142-.455-.37-.029-.228.142-.455.37-.455 5.152-.541 8.539.37 9.478 2.533.911 2.106-.597 5.095-4.269 8.397-3.558 3.188-8.739 6.376-14.631 8.938-7.173 3.103-13.948 4.725-18.759 4.725z"/><path d="M253.146 263.574c-.57 0-.74-.171-.883-.285-.142-.142-.341-.455-.114-.996 3.473-7.743 4.64-12.382 3.53-13.749-.683-.825-2.391-.427-4.042-.057-1.48.342-2.875.655-3.871.228-3.16-1.366-3.644-11.841-3.672-13.037a.46.46 0 0 1 .398-.455h.029c.227 0 .427.17.427.398.114 3.074.882 11.329 3.159 12.297.74.313 2.05 0 3.331-.285 1.907-.455 3.843-.91 4.896.342.939 1.139 1.423 3.843-3.388 14.631 0 .029-.028.029-.028.057 1.167.399 9.593-2.59 22.117-8.397.228-.086.456 0 .57.199.085.228 0 .456-.2.569-.057.029-5.351 2.477-10.759 4.726-7.487 3.131-10.333 3.814-11.5 3.814zm-5.464-58.21a8.7 8.7 0 0 1-8.682-8.682 8.7 8.7 0 0 1 8.682-8.682 8.7 8.7 0 0 1 8.682 8.682 8.7 8.7 0 0 1-8.682 8.682zm0-16.51c-4.327 0-7.828 3.501-7.828 7.828s3.501 7.828 7.828 7.828 7.828-3.501 7.828-7.828-3.501-7.828-7.828-7.828z" fill-opacity=".55"/></g><path d="M173.564 79.758c1.862-.029 6.606 2.008 8.934.175 2.328-1.863.757-4.482.961-6.897.349-4.424-3.173-11.961-9.284-11.961-7.217 0-7.858 5.558-10.07 5.558-2.852 0-9.574 9.778-4.685 13.416 3.056 2.299 4.133-2.532 6.373-.553 2.358 2.154 5.792.291 7.771.262z" fill="#131022"/><g fill="#fff"><path d="M179.764 81.158c-1.31 0-2.736-.32-3.987-.582-.903-.204-1.688-.378-2.212-.378-.495 0-1.164.146-1.863.32-1.921.437-4.336.989-6.228-.669-.756-.669-1.251-.378-2.182.291-.961.699-2.299 1.659-4.162.262-1.892-1.426-2.386-3.871-1.397-6.897 1.222-3.696 4.365-7.305 6.344-7.305.582 0 1.135-.64 1.805-1.455 1.368-1.63 3.434-4.103 8.265-4.103 2.27 0 4.394.989 6.169 2.881 2.329 2.503 3.784 6.432 3.551 9.517-.058.698.058 1.484.146 2.212.261 1.746.523 3.58-1.281 5.006-.815.669-1.863.902-2.968.902zm-6.17-1.833c.611 0 1.426.175 2.386.378 2.125.466 4.773 1.048 6.228-.116 1.397-1.106 1.193-2.532.961-4.191-.117-.786-.233-1.601-.175-2.415.175-2.415-.902-6.257-3.318-8.876-1.571-1.717-3.492-2.619-5.529-2.619-4.424 0-6.257 2.183-7.596 3.783-.786.96-1.484 1.775-2.474 1.775-1.426 0-4.365 3.259-5.529 6.694-.611 1.863-.931 4.424 1.077 5.937 1.368 1.019 2.182.407 3.114-.262.873-.64 1.95-1.426 3.259-.262 1.543 1.368 3.638.902 5.442.495.757-.175 1.455-.32 2.067-.349.058.029.058.029.087.029zm16.385 53.022s-.03 0 0 0l-32.537-1.309c-.116 0-.233-.058-.32-.146s-.116-.203-.116-.32l1.338-21.477-2.619 2.532c-.174.174-.436.174-.611 0-.029-.029-3.638-3.755-11.292-12.02-.145-.175-.145-.437 0-.611 12.602-12.689 17.956-16.356 26.105-17.811.116-.029.233 0 .32.058 1.514.99 3.522 0 3.551-.029.058-.029.116-.058.203-.058 12.485 0 28.201 9.778 28.375 9.866.204.116.262.378.146.611l-7.567 12.456c-.116.204-.378.262-.582.146l-5.733-3.347 1.804 30.936a.44.44 0 0 1-.116.32c-.117.145-.233.203-.349.203zm-32.071-2.153l31.605 1.28-1.834-31.285c0-.174.059-.32.204-.407s.32-.087.437 0l6.053 3.521 7.13-11.699c-2.415-1.455-16.268-9.458-27.443-9.516-.466.204-2.474 1.019-4.162.029-7.77 1.426-13.038 5.006-25.174 17.228l10.71 11.379 3.114-3.026c.116-.117.32-.146.495-.087a.45.45 0 0 1 .262.436l-1.397 22.147z"/><path d="M138.787 127.431a.47.47 0 0 1-.262-.087L99.383 98.358c-1.95-1.106-5.122-.902-7.654-.757-2.561.145-4.394.262-4.54-.96-.145-1.164 1.222-2.27 4.191-3.376l.698-.262c-2.677.029-5.995-.204-7.043-1.31-.291-.32-.436-.699-.378-1.106.029-.233.145-.553.524-.844.844-.611 2.823-.728 4.947-.64-1.601-.553-2.968-1.222-3.463-1.95a1.42 1.42 0 0 1-.233-.989c.087-.378.32-.669.669-.873.786-.437 2.241-.437 3.812-.233-.524-.32-.931-.669-1.106-1.048-.145-.32-.175-.64-.058-.931.087-.204.262-.466.669-.64 2.037-.844 8.702 1.746 11.175 2.765-.32-1.222-.727-3.289-.174-4.22a1.08 1.08 0 0 1 .756-.524c1.659-.291 4.016 3.871 4.773 5.297l30.79 19.935 6.083-6.665c.087-.087.203-.145.32-.145s.233.058.32.145l11.292 11.991c.174.174.145.465-.029.611l-16.647 15.657c-.087.116-.175.145-.291.145zM94.726 96.583c1.862 0 3.725.204 5.093.989 3.667 2.095 35.301 26.076 38.939 28.841l16.064-15.104-10.68-11.35-6.024 6.577c-.146.145-.379.174-.553.058l-31.111-20.197c-.058-.029-.116-.087-.145-.175-1.31-2.503-3.172-5.093-3.9-4.947-.058 0-.116.029-.175.117-.407.669.059 2.968.495 4.394.058.175 0 .349-.116.466s-.32.146-.466.087c-3.696-1.601-9.778-3.754-11.321-3.114-.175.058-.204.145-.204.175-.029.058-.029.116.029.204.378.728 2.386 1.601 4.482 2.27 1.484.378 2.677.757 2.969.873a.43.43 0 0 1 .291.524c-.058.233-.291.349-.524.291-.291-.058-1.513-.378-2.939-.844-2.765-.698-6.228-1.368-7.363-.698-.204.116-.233.233-.262.32 0 .058-.029.145.087.32.96 1.397 6.635 2.677 9.546 3.23.378.058.64.117.757.146.233.029.378.262.349.495s-.262.407-.495.349c-.116-.029-.407-.058-.757-.145-3.172-.524-9.633-1.339-11.059-.291-.146.116-.175.204-.175.262-.029.145.029.262.146.407 1.106 1.164 6.694 1.164 9.953.873.233-.029.437.145.466.378s-.116.437-.32.495c-3.201.757-7.858 2.445-7.712 3.696.058.407 2.27.262 3.609.204.931-.087 1.979-.175 3.027-.175z"/></g><path d="M157.441 130.606l-35.243 46.272-32.565 24.592 20.692 24.155 34.661-24.737 16.297-22.845.727 13.241-16.937 49.27 32.333 3.871 19.993-49.649-7.421-62.861-32.537-1.309z" fill="#232438" fill-opacity=".8"/><g fill="#fff"><path d="M177.435 244.859h-.059l-32.332-3.871c-.117-.029-.262-.087-.32-.203s-.088-.262-.029-.379l16.908-49.182-.64-11.903-15.57 21.826c-.029.03-.058.088-.116.117l-34.661 24.737c-.175.145-.437.087-.582-.058l-20.692-24.155c-.087-.088-.116-.204-.116-.32s.087-.233.175-.291l32.507-24.534 35.214-46.214c.088-.117.204-.175.379-.175l32.536 1.31c.204 0 .378.174.407.378l7.422 62.861c0 .058 0 .146-.03.204l-19.964 49.648c-.087.117-.262.204-.436.204zm-31.751-4.685l31.489 3.783 19.789-49.241-7.363-62.366-31.925-1.281-35.126 46.069-.088.087-32.187 24.301 20.11 23.485 34.282-24.446 16.269-22.787c.116-.145.291-.203.465-.174.175.058.291.203.32.407l.728 13.242c0 .058 0 .116-.029.174l-16.734 48.747z"/><path d="M161.312 178.477c-.087 0-.174-.029-.262-.087-.204-.146-.233-.437-.087-.611l12.95-16.589a.437.437 0 0 1 .699.524l-12.951 16.589c-.087.116-.232.174-.349.174zm-63.124 57.334a.41.41 0 0 1-.349-.175l-19.469-28.2a.43.43 0 0 1 .116-.611l9.924-6.868a.45.45 0 0 1 .582.087l25.377 29.626c.087.117.116.262.087.408s-.145.262-.291.291l-15.832 5.471c-.058-.029-.087-.029-.145-.029zM79.33 207.262l19.033 27.589 14.901-5.152-24.708-28.84-9.226 6.403z"/><path d="M88.119 255.456c-.145 0-.291-.087-.378-.204l-22.263-35.214c-.116-.203-.087-.436.116-.582l14.115-10.826c.087-.058.204-.116.32-.087s.233.087.291.175l17.578 25.464a.48.48 0 0 1 .058.349c-.029.116-.087.233-.204.291l-3.492 2.154-5.733 18.189c-.058.174-.204.291-.349.291h-.058zm-21.681-35.534l21.536 34.079 5.529-17.433a.45.45 0 0 1 .175-.232l3.23-1.979-17.054-24.708-13.416 10.273zm107.826 40.538c-.058 0-.087 0-.146-.029l-33.38-11.787c-.204-.087-.349-.32-.262-.523l2.27-7.945c.058-.204.262-.35.466-.32l37.018 4.452c.145.029.262.087.32.204s.087.262.029.378l-5.879 15.279a.46.46 0 0 1-.436.291zm-32.857-12.485l32.595 11.495 5.529-14.347-36.087-4.336-2.037 7.188z"/><path d="M182.701 283.107c-.058 0-.087 0-.145-.029l-47.292-15.424c-.116-.029-.204-.116-.262-.233s-.058-.233-.029-.349l6.897-18.48a.42.42 0 0 1 .553-.262l29.277 10.331c.117.029.204.117.262.233s.058.233.029.32l-2.881 8.062 13.94 15.075a.44.44 0 0 1 .058.523c-.116.146-.261.233-.407.233zm-46.738-16.122l45.254 14.754-12.951-14.056c-.116-.116-.145-.291-.087-.436l2.823-7.887-28.433-10.041-6.606 17.666zm34.051-189.753c.582.931 0 4.424 0 4.424s1.047.582 1.833.495 1.543-.495 1.543-.495v-4.54s5.645-2.706 3.579-5.297c-1.63-2.066-5.879 1.164-6.868 1.484s-2.59-.786-3.143.32c-.611 1.31 2.415 2.619 3.056 3.609z"/></g><path d="M171.702 82.615c-.844 0-1.775-.495-1.892-.553a.43.43 0 0 1-.232-.466c.232-1.368.407-3.58.058-4.133-.175-.291-.699-.669-1.193-1.048-1.077-.815-2.416-1.834-1.863-2.998.466-.96 1.484-.757 2.241-.611.407.087.844.175 1.135.087.175-.058.553-.262.96-.495 1.688-.96 4.86-2.765 6.403-.844.495.611.64 1.281.495 2.008-.437 1.863-3.143 3.405-3.987 3.842v4.249c0 .145-.088.291-.233.378a5.02 5.02 0 0 1-1.717.553c-.059.029-.117.029-.175.029zm-1.222-1.193c.349.175.902.349 1.309.32.437-.029.903-.233 1.164-.349v-4.249a.44.44 0 0 1 .262-.407c.932-.436 3.405-1.921 3.755-3.376.116-.436 0-.844-.321-1.251-1.047-1.339-3.812.233-5.267 1.048l-1.106.582c-.495.175-1.048.058-1.601-.058-.844-.175-1.135-.175-1.28.146-.262.524.786 1.281 1.601 1.921.582.437 1.135.873 1.396 1.281.553.873.233 3.376.088 4.395zm31.633 10.034l15.948 10.652s23.893-14.028 25.086-15.541 2.852-5.733 4.191-5.675 0 5.558 0 5.558 11.233-3.725 12.543-1.31l-8.178 2.561s9.924-3.056 11.175-1.251-11.029 4.249-11.029 4.249 11.524-3.434 12.601-.931c1.106 2.503-10.593 3.114-10.593 3.114s9.836-.495 9.662.931-17.142 1.368-44.469 24.824l-24.562-14.755 7.625-12.427z" fill="#131022"/><path d="M219.11 119.078c-.088 0-.146-.029-.233-.058l-24.563-14.755c-.087-.058-.174-.145-.203-.262s0-.233.058-.32l7.567-12.427a.53.53 0 0 1 .291-.204c.116-.029.232 0 .349.058l15.715 10.506c9.575-5.617 23.893-14.231 24.737-15.308.378-.495.815-1.28 1.281-2.124 1.076-1.95 2.095-3.783 3.288-3.725.262 0 .524.145.669.378.67.873.204 3.58-.116 4.977 2.939-.931 11.059-3.201 12.339-.873.059.116.059.262.03.378-.03.058-.059.117-.117.175 2.125-.146 2.794.32 3.085.727.175.262.233.553.087.873-.174.466-.873.931-1.862 1.368 1.688-.029 2.997.291 3.376 1.164.174.378.145.786-.088 1.135-.494.786-2.095 1.368-3.899 1.746 1.367.116 2.502.349 2.881.757a.69.69 0 0 1 .203.611c-.058.611-.785.815-2.939 1.397-5.646 1.542-20.604 5.617-41.674 23.719-.059.058-.146.087-.262.087zm-23.952-15.337l23.893 14.377c21.1-18.044 36.116-22.147 41.762-23.689.932-.262 1.834-.495 2.183-.669-.902-.495-5.238-.611-9.08-.437-.233.029-.437-.175-.466-.407a.47.47 0 0 1 .408-.466c3.521-.175 9.429-.931 10.186-2.183.058-.116.087-.204.029-.32-.262-.611-2.299-.931-6.112-.262-2.503.728-5.151 1.281-6.024 1.455-.233.058-.466-.087-.524-.32s.088-.466.291-.524c.873-.262 3.347-.96 5.879-1.426 2.881-.844 4.86-1.659 4.918-2.154-.669-.96-6.082-.029-10.709 1.397a.46.46 0 0 1-.553-.291c-.088-.233.058-.466.291-.553.058-.029 4.802-1.513 7.421-2.328-1.834-.698-7.538.582-11.525 1.921-.145.058-.32 0-.436-.087-.117-.117-.175-.262-.117-.437.582-2.386.786-4.773.408-5.035-.641 0-1.776 2.066-2.474 3.289-.495.873-.931 1.688-1.368 2.241-1.222 1.542-22.758 14.231-25.232 15.657-.145.087-.32.087-.465 0l-15.57-10.419-7.014 11.67z" fill="#fff"/><defs><linearGradient id="A" x1="40.137" y1="131.746" x2="56.248" y2="131.746" gradientUnits="userSpaceOnUse"><stop stop-color="#6366f1"/><stop offset=".5" stop-color="#8b5cf6"/><stop offset="1" stop-color="#d946ef"/></linearGradient><linearGradient id="B" x1="42.555" y1="21.729" x2="54.055" y2="21.729" gradientUnits="userSpaceOnUse"><stop stop-color="#6366f1"/><stop offset=".5" stop-color="#8b5cf6"/><stop offset="1" stop-color="#d946ef"/></linearGradient></defs></svg>