<svg xmlns="http://www.w3.org/2000/svg" xmlns:xlink="http://www.w3.org/1999/xlink" width="306" height="300" fill="none" xmlns:v="https://vecta.io/nano"><style><![CDATA[.B{fill:#131022}.C{fill:#fff}]]></style><path d="M246.875 55.142l6.757-2.99s-1.943 7.953 1.047 10.196c2.81 2.093 11.032-.837 13.633 2.392 2.243 2.751.748 15.607.748 15.607l-4.784 2.541s1.555-10.584-1.196-12.886c-3.737-3.139-9.896.658-12.438-1.047-3.767-2.541-3.767-13.813-3.767-13.813z" fill="#d4d7e5"/><path d="M264.246 83.337c-.09 0-.179-.03-.269-.09a.4.4 0 0 1-.179-.419c.418-2.87 1.076-10.704-1.047-12.498-1.973-1.674-4.784-1.226-7.295-.807-2.003.329-3.887.628-5.113-.209-3.917-2.601-3.947-13.694-3.947-14.172a.45.45 0 0 1 .27-.419l6.757-2.99c.149-.06.329-.03.478.06.12.12.179.299.15.449-.03.09-1.854 7.684.896 9.717 1.137.837 3.379.777 5.771.718 3.139-.09 6.368-.179 7.953 1.764 2.332 2.87.897 15.398.837 15.936-.03.15-.119.269-.239.359l-4.784 2.541c-.09.03-.149.06-.239.06zm-5.262-15.099c1.555 0 3.079.329 4.335 1.405 2.482 2.063 1.794 9.807 1.465 12.438l3.827-2.033c.419-3.677 1.017-12.916-.687-15.039-1.316-1.615-4.306-1.525-7.236-1.435-2.541.09-4.963.149-6.338-.897-2.602-1.944-1.824-7.594-1.406-9.777l-5.68 2.511c0 .807.089 3.109.448 5.621.598 3.977 1.674 6.578 3.08 7.535.956.628 2.661.359 4.484.06 1.256-.179 2.512-.389 3.708-.389z" class="B"/><path d="M305.439 257c-.281 0-.526-.24-.526-.515V60.892c0-24.181-20.097-43.862-44.788-43.862H72.84c-24.691 0-44.787 19.681-44.787 43.862v195.593c0 .275-.245.515-.526.515s-.526-.24-.526-.515V60.892C27 36.128 47.552 16 72.84 16h187.322C285.448 16 306 36.128 306 60.892v195.593c-.035.275-.246.515-.561.515z" fill="#585c7b"/><path d="M48.875 9.836c2.556 0 4.656-2.066 4.656-4.657 0-2.556-2.066-4.657-4.656-4.657a4.68 4.68 0 0 0-4.657 4.657 4.68 4.68 0 0 0 4.657 4.657z" class="C"/><use xlink:href="#C" class="B"/><path d="M69.569 9.836c2.556 0 4.657-2.066 4.657-4.657 0-2.556-2.066-4.657-4.657-4.657a4.68 4.68 0 0 0-4.657 4.657 4.68 4.68 0 0 0 4.657 4.657z" fill="url(#A)"/><path d="M69.568 10.363a5.17 5.17 0 0 1-5.182-5.182 5.17 5.17 0 1 1 10.363 0c0 2.836-2.311 5.182-5.182 5.182zm0-9.313a4.14 4.14 0 0 0-4.131 4.131 4.14 4.14 0 0 0 4.131 4.131A4.14 4.14 0 0 0 73.7 5.182a4.14 4.14 0 0 0-4.131-4.131z" class="B"/><path d="M90.399 9.836c2.556 0 4.656-2.066 4.656-4.657A4.68 4.68 0 0 0 90.399.523a4.68 4.68 0 0 0-4.657 4.657 4.68 4.68 0 0 0 4.657 4.657z" fill="#d4d7e5"/><g class="B"><use xlink:href="#C" x="41.524"/><path d="M196.756 180.333h-.064c-.224-.032-21.12-2.304-36.703-1.824-.128 0-.256-.064-.352-.16s-.128-.224-.128-.384l3.999-42.559-6.751 1.088c-.256.032-.512-.128-.544-.384l-3.2-19.488c-.032-.128 0-.288.096-.384s.224-.16.352-.192l29.695-1.312c.128 0 .256.032.32.128 0 0 1.856 1.472 7.296.992.064 0 .128 0 .192.032 4.48 1.312 9.856 5.408 15.968 12.224 4.512 5.024 7.776 9.76 7.84 9.792a.49.49 0 0 1 .064.416c-.032.128-.16.256-.288.32l-17.568 6.816c-.224.096-.48 0-.608-.224l-1.056-2.144 1.92 36.735c0 .128-.032.288-.16.384a.49.49 0 0 1-.32.128zm-32.288-2.88c13.376 0 28.704 1.536 31.776 1.856l-2.016-38.495a.48.48 0 0 1 .352-.48.44.44 0 0 1 .544.256l1.888 3.84 16.576-6.464c-2.144-2.976-13.472-18.304-22.848-21.12-4.992.416-7.168-.704-7.744-1.088l-28.991 1.28 3.04 18.464 6.911-1.12c.16-.032.288.032.416.128a.59.59 0 0 1 .16.384l-4 42.623 3.936-.064z"/><path d="M203.443 198.287l-59.615 35.84 20.896 31.552s95.871-41.952 86.015-67.392-167.295-29.375-175.679 2.368c-4.064 15.392 64 36.32 64 36.32l64.383-38.688z"/><path d="M164.723 266.156c-.16 0-.32-.064-.416-.224l-20.64-31.199-4.352 2.624c-.128.064-.256.095-.384.032-.16-.064-17.216-5.312-33.568-12.416-22.144-9.6-32.512-17.856-30.752-24.512 1.696-6.4 9.184-11.68 22.24-15.648 11.424-3.488 26.912-5.824 44.736-6.816 23.84-1.312 49.44-.096 70.271 3.328 13.12 2.176 35.648 7.232 39.328 16.736 2.336 6.016-.832 13.344-9.408 21.792-6.752 6.688-16.896 14.08-30.112 22.047-22.495 13.536-46.527 24.064-46.751 24.192-.064.064-.128.064-.192.064zm-20.224-31.871l20.384 30.815c3.104-1.376 25.344-11.392 46.271-23.968 20.576-12.383 44.064-29.823 39.104-42.655-2.592-6.72-16.32-12.448-38.592-16.128-20.735-3.424-46.271-4.64-70.047-3.328-17.76.992-33.152 3.328-44.512 6.784-12.736 3.872-20 8.896-21.6 14.976-1.6 6.048 8.864 14.112 30.208 23.36 15.328 6.656 31.296 11.68 33.28 12.288l64.191-38.56c.224-.128.512-.064.672.16.128.224.064.512-.16.672l-59.199 35.584zm28.578-126.973c-1.856-5.856 9.344-20.544 18.464-19.264 8.544 1.216 8.352 5.792 10.016 8.672.928 1.6 3.616 3.136 4 6.176.384 2.784-1.632 4.288-1.376 6.592.256 2.272 2.464 6.08-.576 7.776-2.208 1.248-2.272-3.2-6.944-3.872-3.392-.48-8-.768-13.12-2.304-4.96-1.472-9.024.864-10.464-3.776z"/><path d="M202.9 117.966c-.832 0-1.44-.736-2.048-1.44-.864-1.056-1.952-2.336-4.224-2.656l-2.56-.32c-2.976-.352-6.656-.8-10.656-1.984-1.696-.512-3.296-.544-4.704-.608-2.72-.096-5.056-.16-6.112-3.488-.896-2.88 1.056-7.872 4.928-12.415 4.48-5.28 9.728-8.064 14.048-7.456 7.104.992 8.448 4.352 9.536 7.072.256.672.512 1.28.832 1.824.288.48.768.96 1.248 1.504 1.12 1.184 2.528 2.656 2.816 4.864.224 1.6-.288 2.816-.736 3.872-.384.928-.736 1.728-.608 2.688.064.512.224 1.152.416 1.824.576 2.08 1.376 4.96-1.216 6.432a1.73 1.73 0 0 1-.96.288zm-12.512-29.503c-4.416 0-9.088 3.616-12.128 7.2-3.584 4.224-5.536 8.96-4.736 11.52.832 2.688 2.592 2.752 5.248 2.816 1.472.032 3.136.096 4.96.64 3.904 1.152 7.552 1.6 10.496 1.952.896.096 1.76.224 2.56.32 2.656.384 3.904 1.888 4.832 3.008.896 1.088 1.152 1.28 1.792.928 1.824-1.024 1.472-2.848.768-5.344-.192-.704-.384-1.376-.448-1.984-.128-1.216.288-2.208.672-3.2.448-1.056.864-2.048.672-3.392-.256-1.888-1.472-3.168-2.56-4.32-.544-.576-1.056-1.12-1.408-1.696-.352-.608-.608-1.28-.896-1.952-1.056-2.592-2.24-5.536-8.768-6.464-.352 0-.704-.032-1.056-.032z"/></g><path d="M114.26 82.925s-3.136-17.632-7.424-16.352 1.504 16.896 1.504 16.896-12.096 6.72-11.424 9.76c.672 3.008 25.44 42.56 32.352 44s27.456-1.216 27.456-1.216l-3.2-19.488s-15.168.768-19.616-1.312c-15.904-7.488-11.296-41.28-14.944-41.792-4.128-.576-4.704 9.504-4.704 9.504z" class="C"/><path d="M135.22 138.159c-2.432 0-4.576-.128-6.08-.448-3.872-.8-12.384-12.191-18.816-21.631-7.072-10.336-13.568-21.152-13.92-22.752-.672-3.072 8.608-8.576 11.328-10.08-.32-.928-1.184-3.424-1.888-6.208-1.216-4.768-1.408-8.032-.576-9.696.32-.64.8-1.056 1.408-1.248s1.184-.096 1.76.288c1.568.96 3.104 4.064 4.576 9.152.448 1.6.832 3.136 1.088 4.384.384-2.24 1.152-5.12 2.688-6.368.64-.512 1.376-.736 2.176-.608 1.504.224 1.792 3.072 2.336 9.536.896 10.912 2.272 27.392 12.736 32.32 4.288 2.016 19.232 1.28 19.392 1.28.256 0 .448.16.512.416l3.2 19.488a.36.36 0 0 1-.096.352c-.064.096-.192.159-.32.192-.64.063-12.864 1.631-21.504 1.631zm-27.936-71.167c-.096 0-.192 0-.32.032-.352.096-.64.352-.832.768-1.472 2.912 1.408 12.192 2.656 15.52.096.224 0 .48-.224.576-4.896 2.72-11.616 7.392-11.2 9.248.288 1.344 6.336 11.552 13.76 22.4 8.832 12.896 15.456 20.639 18.208 21.215 6.144 1.28 23.616-.767 26.784-1.151l-3.072-18.56c-2.56.128-15.264.576-19.392-1.376-10.976-5.152-12.384-21.984-13.28-33.088-.32-3.808-.704-8.544-1.536-8.64-.512-.064-.992.064-1.408.416-1.888 1.536-2.592 6.752-2.688 8.608 0 .256-.192.448-.448.448a.52.52 0 0 1-.512-.384c-.672-3.808-3.04-14.08-5.824-15.776a.99.99 0 0 0-.672-.256z" class="B"/><path d="M109.779 95.375l3.712-1.92s-3.84-12.032-7.744-10.208c-2.944 1.376 4.032 12.128 4.032 12.128z" class="C"/><path d="M109.779 95.855c-.16 0-.32-.064-.416-.224-.576-.896-5.6-8.768-4.736-11.744.16-.512.448-.896.896-1.088.672-.32 1.376-.32 2.08 0 3.424 1.504 6.208 10.112 6.304 10.496.064.224-.032.48-.224.576l-3.712 1.92c-.032.064-.128.064-.192.064zm-3.232-12.32c-.224 0-.416.032-.608.128-.128.064-.288.16-.384.48-.608 2.08 2.784 8.032 4.384 10.592l2.944-1.536c-.896-2.624-3.296-8.48-5.664-9.536-.224-.064-.448-.128-.672-.128z" class="B"/><path d="M105.171 97.907l3.84-2.048s-4.192-12.288-7.424-10.592c-3.552 1.824 3.584 12.64 3.584 12.64z" class="C"/><path d="M105.172 98.383c-.16 0-.32-.064-.416-.224-.224-.352-5.472-8.32-4.544-11.84.192-.672.544-1.184 1.12-1.472.512-.256 1.056-.288 1.632-.064 1.344.544 2.848 2.56 4.48 6.016 1.184 2.496 1.984 4.896 2.016 4.928.064.224-.032.48-.224.576l-3.84 2.048c-.096 0-.16.032-.224.032zm-2.976-12.8c-.128 0-.288.032-.416.096-.32.16-.544.448-.64.864-.64 2.464 2.592 8.256 4.192 10.72l3.104-1.632c-.992-2.816-3.616-9.088-5.792-9.952-.16-.064-.32-.096-.448-.096z" class="B"/><path d="M100.727 100.593l3.52-2.368s-4.192-12.288-7.424-10.592c-3.552 1.856 3.904 12.96 3.904 12.96z" class="C"/><path d="M100.725 101.07c-.16 0-.32-.064-.384-.224 0-.032-1.44-2.144-2.752-4.672-1.792-3.456-2.496-5.984-2.112-7.52a2.07 2.07 0 0 1 1.12-1.44c.512-.256 1.056-.288 1.632-.064 1.344.544 2.848 2.56 4.48 6.016 1.184 2.496 1.984 4.896 2.016 4.928.064.192 0 .448-.192.544l-3.52 2.368c-.096.032-.192.064-.288.064zm-3.264-13.088c-.128 0-.288.032-.416.096-.32.16-.512.448-.608.832-.64 2.464 2.784 8.448 4.448 11.008l2.816-1.888c-.992-2.784-3.616-9.12-5.792-9.984-.16-.032-.32-.064-.448-.064zm19.421 11.491h-.096c-3.072-.576-5.504-4.512-5.6-4.704-.128-.224-.064-.512.16-.672.224-.128.512-.064.672.16.032.032 2.304 3.744 4.96 4.256.256.064.448.288.384.544a.48.48 0 0 1-.48.416z" class="B"/><path d="M214.355 138.157s14.208 20.192 13.248 25.792c-.896 5.312-37.312 23.935-37.312 23.935l-1.024-18.559 14.912-8.192-7.392-16.16 17.568-6.816z" class="C"/><path d="M190.291 188.366c-.096 0-.16-.032-.224-.064-.128-.096-.224-.224-.256-.384l-1.024-18.56a.51.51 0 0 1 .256-.448l14.528-7.967-7.2-15.744c-.064-.128-.064-.256 0-.384s.16-.224.256-.256l17.536-6.848c.192-.096.448 0 .576.16.032.064 3.584 5.12 7.008 10.816 4.608 7.744 6.752 12.896 6.336 15.327-.928 5.44-33.824 22.4-37.568 24.32-.064.032-.16.032-.224.032zm-.544-18.752l.96 17.504c14.528-7.456 35.776-19.584 36.384-23.264.256-1.503-.608-5.279-6.208-14.687a195.43 195.43 0 0 0-6.752-10.464l-16.736 6.528 7.168 15.68c.096.224 0 .512-.192.608l-14.624 8.095z" class="B"/><path d="M183.156 115.217l2.528-6.304s-5.184-3.776-2.528-9.216c2.496-1.6 4.512.064 5.056.736.576.64 2.336 3.616 3.84 3.616 1.536 0 6.176-.256 6.112 1.76s-1.44 2.56-2.88 1.76c-1.536 1.376-3.36 2.336-4.48 1.696-.256 2.176.032 7.072.032 7.072s-5.632.576-7.68-1.12z" class="C"/><path d="M188.627 116.913c-1.888 0-4.48-.224-5.792-1.312-.16-.128-.224-.352-.128-.544l2.4-5.984c-1.088-.96-4.8-4.64-2.368-9.6a.47.47 0 0 1 .16-.192c2.528-1.6 4.768-.256 5.696.8l.512.672c.64.896 2.016 2.784 2.976 2.784h.448c2.208-.032 4.64.032 5.664 1.088.32.32.48.736.448 1.184-.032 1.088-.448 1.92-1.152 2.336-.608.352-1.376.32-2.144 0-1.536 1.312-3.04 1.952-4.128 1.76-.128 2.304.064 6.368.064 6.4 0 .256-.16.48-.416.512-.096 0-1.024.096-2.24.096zm-4.896-1.856c1.568.96 4.896.96 6.56.832-.064-1.28-.192-4.896 0-6.688.032-.16.128-.288.256-.384a.55.55 0 0 1 .448 0c.768.448 2.368-.224 3.936-1.632.16-.128.384-.16.544-.064.576.32 1.12.384 1.504.16.416-.224.64-.768.672-1.536a.65.65 0 0 0-.192-.48c-.832-.832-3.744-.8-4.96-.8h-.448c-1.472 0-2.912-1.984-3.776-3.168l-.448-.608c-.192-.224-1.984-2.144-4.32-.704-2.304 4.96 2.4 8.48 2.432 8.512.192.128.256.352.16.576l-2.368 5.984z" class="B"/><path d="M187.122 194.345l-72.351 5.184c-2.112.16-3.968-1.44-4.096-3.552l-3.072-42.912c-.16-2.112 1.44-3.968 3.552-4.096l72.351-5.184c2.112-.16 3.968 1.44 4.096 3.552l3.072 42.912c.16 2.08-1.44 3.936-3.552 4.096z" fill="url(#B)"/><path d="M114.484 200.011c-2.24 0-4.16-1.728-4.32-4l-3.072-42.911c-.16-2.368 1.632-4.448 4-4.608l72.351-5.184c2.368-.16 4.448 1.632 4.608 4l3.072 42.911c.16 2.368-1.632 4.448-4 4.608l-72.383 5.184h-.256zm69.279-55.775h-.256l-72.351 5.184c-1.856.128-3.232 1.728-3.104 3.584l3.072 42.911c.128 1.856 1.76 3.232 3.584 3.104l72.351-5.184c1.856-.128 3.232-1.728 3.104-3.584l-3.072-42.911c-.096-1.76-1.568-3.104-3.328-3.104z" class="B"/><path d="M148.723 182.764a7.35 7.35 0 0 0 7.328-7.328 7.35 7.35 0 0 0-7.328-7.328 7.35 7.35 0 0 0-7.328 7.328c0 4.064 3.264 7.328 7.328 7.328z" class="C"/><path d="M148.723 183.248a7.8 7.8 0 1 1 0-15.616 7.8 7.8 0 0 1 7.807 7.808 7.82 7.82 0 0 1-7.807 7.808zm0-14.656a6.86 6.86 0 0 0-6.848 6.848 6.86 6.86 0 0 0 6.848 6.848c3.776 0 6.847-3.072 6.847-6.848s-3.071-6.848-6.847-6.848z" class="B"/><path d="M139.261 197.634l-.148.284 21.874 11.411.148-.284-21.874-11.411z" class="C"/><g class="B"><path d="M209.652 242.578l9.824 7.488-27.968 19.007-14.752-8.991c.032 0 26.944-13.504 32.896-17.504z"/><path d="M191.539 269.55c-.096 0-.16-.032-.256-.064l-14.752-8.992c-.16-.096-.224-.256-.224-.416a.5.5 0 0 1 .256-.416c.256-.128 26.944-13.536 32.832-17.472.16-.128.384-.096.544.032l9.824 7.488a.5.5 0 0 1 .192.384c0 .16-.096.288-.224.384l-27.968 19.008c-.032.032-.128.064-.224.064zm-13.76-9.44l13.76 8.384 27.136-18.464-9.024-6.88c-5.888 3.84-27.424 14.72-31.872 16.96z"/><path d="M198.131 278.35c-.064 0-.128 0-.192-.032l-11.776-5.28c-.16-.064-.256-.224-.288-.384 0-.16.064-.352.224-.448l33.151-22.528c.16-.128.384-.096.544 0l9.088 6.624c.128.096.192.224.192.384s-.064.288-.192.384l-30.431 21.184c-.128.064-.224.096-.32.096zm-10.784-5.856l10.752 4.832 29.663-20.64-8.288-6.016-32.127 21.824z"/></g><path d="M225.904 258.57l8.352 7.104-31.872 33.6 5.792-19.264-4.416-6.048 22.144-15.392z" class="C"/><path d="M202.384 299.754c-.096 0-.16-.032-.256-.064-.192-.096-.288-.352-.224-.544l5.728-19.04-4.256-5.856c-.064-.096-.096-.224-.096-.352.032-.128.096-.256.192-.32l22.144-15.392c.192-.128.416-.128.576.032l8.352 7.104c.096.096.16.224.16.352s-.032.256-.128.352l-31.872 33.6a.49.49 0 0 1-.32.128zm2.048-25.664l4.128 5.664c.096.128.128.288.064.416l-5.216 17.312 30.144-31.776-7.68-6.56-21.44 14.944zm-55.293-.765c-.16 0-.288-.064-.384-.192l-21.536-29.056c-.096-.096-.096-.256-.096-.384.032-.128.096-.256.224-.32l16.224-9.664c.224-.128.512-.064.64.16l23.2 34.976c.096.128.096.288.032.448a.46.46 0 0 1-.352.288l-17.888 3.776c0-.032-.032-.032-.064-.032zm-20.832-29.408l21.024 28.384 16.896-3.552-22.56-33.984-15.36 9.152z" class="B"/><path d="M130.036 247.086l-13.152 8.64 19.904 39.264 2.24-23.968 5.503-4.384-14.495-19.552z" class="C"/><path d="M136.787 295.468c-.192 0-.352-.096-.416-.256l-19.903-39.264c-.096-.224-.032-.48.16-.608l13.151-8.64c.224-.128.512-.096.64.128l14.496 19.552c.16.192.128.512-.096.672l-5.344 4.256-2.24 23.744c-.032.224-.192.384-.384.416h-.064zm-19.263-39.552l18.943 37.376 2.08-22.304c0-.128.064-.256.192-.32l5.12-4.096-13.952-18.816-12.383 8.16z" class="B"/><path d="M166.388 255.186l-.16-.288c.64-.32 65.152-33.184 65.152-40.832h.32c.032 7.84-62.624 39.744-65.312 41.12zm-146.851-83.99c10.398 0 18.836-8.438 18.836-18.836s-8.438-18.837-18.836-18.837S.701 141.961.701 152.36s8.438 18.836 18.836 18.836z" class="C"/><path d="M19.537 171.723c-10.678 0-19.361-8.683-19.361-19.362S8.859 133 19.537 133s19.361 8.683 19.361 19.361-8.683 19.362-19.361 19.362zm0-37.673c-10.083 0-18.311 8.228-18.311 18.311 0 10.119 8.228 18.311 18.311 18.311s18.311-8.227 18.311-18.311-8.193-18.311-18.311-18.311z" fill="#585c7b"/><defs><linearGradient id="A" x1="64.912" y1="5.202" x2="74.225" y2="5.202" gradientUnits="userSpaceOnUse"><stop stop-color="#6366f1"/><stop offset=".5" stop-color="#8b5cf6"/><stop offset="1" stop-color="#d946ef"/></linearGradient><linearGradient id="B" x1="107.592" y1="171.791" x2="190.685" y2="171.791" gradientUnits="userSpaceOnUse"><stop stop-color="#6366f1"/><stop offset=".5" stop-color="#8b5cf6"/><stop offset="1" stop-color="#d946ef"/></linearGradient><path id="C" d="M48.875 10.363a5.17 5.17 0 0 1-5.182-5.182 5.17 5.17 0 1 1 10.363 0c0 2.836-2.311 5.182-5.182 5.182zm0-9.313a4.14 4.14 0 0 0-4.131 4.131 4.14 4.14 0 0 0 4.131 4.131 4.14 4.14 0 0 0 4.131-4.131 4.14 4.14 0 0 0-4.131-4.131z"/></defs></svg>