<svg xmlns="http://www.w3.org/2000/svg" width="306" height="300" fill="none" xmlns:v="https://vecta.io/nano"><style><![CDATA[.B{fill:#131022}.C{fill:#fff}.D{fill:#585c7b}]]></style><path d="M9.912 235.036h-.138c-.276-.069-.449-.346-.38-.622L49.63 68.462c.069-.242.311-.414.587-.38l66.623 9.083c.276.035.483.311.448.587s-.31.484-.587.449l-66.173-9.014L10.43 234.621c-.069.242-.276.415-.518.415z" class="D"/><path d="M155.14 235.037H78.364a.52.52 0 0 1-.518-.449c-.035-.104-1.831-11.743-1.347-25.316.449-12.606 3.005-29.564 12.675-38.716 6.597-6.251 15.714-8.185 27.042-5.733 33.156 7.183 60.406 28.769 64.032 31.705l23.866-28.701a.49.49 0 0 1 .656-.103l24.418 13.849c.138.069.207.207.241.346s0 .31-.103.414l-39.822 50.079c-.138.173-.379.242-.587.173-.311-.104-28.217-10.914-35.366-13.919l2.107 15.784c.034.138-.035.311-.138.414-.069.104-.242.173-.38.173zm-76.327-1.036h75.74l-2.142-16.095c-.034-.172.035-.38.208-.483a.55.55 0 0 1 .518-.069c5.008 2.21 32.361 12.813 35.815 14.126l39.2-49.32-23.486-13.331-23.899 28.769c-.104.104-.208.173-.346.173s-.276-.034-.38-.138c-.276-.242-28.769-24.211-63.963-31.809-10.983-2.383-19.755-.518-26.11 5.457-9.429 8.911-11.915 25.592-12.364 37.991-.484 12.054.863 22.484 1.209 24.729z" class="B"/><path d="M119.948 163.373c7.184 0 13.021-5.837 13.021-13.02s-5.837-13.021-13.021-13.021-13.02 5.837-13.02 13.021 5.837 13.02 13.02 13.02z" class="C"/><g class="B"><path d="M119.949 163.89c-7.46 0-13.539-6.079-13.539-13.539s6.079-13.539 13.539-13.539 13.538 6.079 13.538 13.539c.035 7.46-6.044 13.539-13.538 13.539zm0-26.041a12.5 12.5 0 1 0 0 25.005 12.5 12.5 0 0 0 12.502-12.503c.035-6.873-5.595-12.502-12.502-12.502z"/><path d="M94.702 148.174s-9.221 11.086-5.388 14.713 6.493-2.418 9.878 0c3.419 2.417 9.014-.553 9.463-2.522s-.208-13.4 1.761-13.745 4.075.759 7.149-1.313 8.669-7.149 11.087-4.939 4.179 9.774 1.312 13.608-4.835 13.849 1.969 12.952c6.804-.864 3.177-3.074 5.491-3.42s12.848 5.699 12.744-3.522c-.069-7.53-6.803-.449-8.565-10.672s-7.598-22.622-24.832-21.206c-17.234 1.485-22.069 20.066-22.069 20.066z"/><path d="M131.138 167.514c-2.003 0-3.039-1.001-3.557-1.899-.829-1.416-1.002-3.557-.484-6.113.449-2.211 1.382-4.386 2.452-5.837 2.591-3.488 1.071-10.81-1.243-12.917-1.658-1.52-5.802 1.554-8.531 3.592-.69.518-1.347 1.002-1.934 1.381-2.279 1.555-4.11 1.451-5.595 1.382-.621-.035-1.209-.069-1.761.034 0 0-.518.173-.829 3.005-.207 1.9-.242 4.214-.276 6.286-.035 1.9-.069 3.385-.208 4.075-.241 1.175-1.761 2.453-3.764 3.212-2.452.933-4.801.795-6.493-.38-1.312-.932-2.521-.345-3.903.311-1.658.829-3.73 1.831-6.044-.38-4.006-3.764 4.317-14.194 5.284-15.334.207-.76 1.485-5.043 4.628-9.532s8.773-9.982 17.891-10.742c7.909-.656 14.194 1.486 18.65 6.39 3.35 3.695 5.629 8.807 6.735 15.231.863 5.111 2.935 5.56 4.904 6.009 1.796.415 3.626.795 3.695 4.732.035 2.245-.587 3.868-1.761 4.766-2.245 1.692-5.975.622-8.703-.173-1.175-.345-2.245-.656-2.729-.587-.449.069-.449.104-.518.518-.138 1.209-.656 2.349-5.008 2.901-.311.069-.622.069-.898.069zm-3.972-28.216c.691 0 1.313.207 1.865.69 2.694 2.452 4.387 10.292 1.382 14.333-1.865 2.487-3.488 8.116-1.9 10.81.657 1.106 1.796 1.555 3.42 1.347 3.902-.518 4.006-1.381 4.109-2.003.07-.483.139-1.243 1.382-1.416.691-.103 1.761.207 3.143.622 2.521.725 5.975 1.727 7.805.345.933-.691 1.382-2.038 1.382-3.937-.035-3.108-1.175-3.35-2.867-3.73-2.107-.449-4.697-1.036-5.699-6.838-3.211-18.581-14.989-21.552-24.279-20.792-16.716 1.382-21.586 19.445-21.655 19.617l-.104.207c-2.487 2.971-8.289 11.329-5.422 14.023 1.796 1.692 3.247 1.001 4.87.207 1.485-.725 3.143-1.52 4.973-.242 1.969 1.382 4.524.656 5.526.276 1.761-.69 2.97-1.796 3.143-2.486.138-.553.173-2.176.207-3.868.104-6.01.311-9.982 2.003-10.258.657-.104 1.313-.069 1.969-.035 1.451.07 2.97.173 4.973-1.208.553-.38 1.209-.864 1.9-1.347 2.452-2.038 5.526-4.317 7.874-4.317z"/></g><path d="M275.952 235.138H.69a.53.53 0 0 1-.518-.518.53.53 0 0 1 .518-.518h275.262a.53.53 0 0 1 .518.518c0 .276-.207.518-.518.518z" class="D"/><path d="M164.259 258.247H42.411L5.318 179.156h118.739l40.202 79.091z" fill="url(#A)"/><path d="M164.259 258.763H42.412a.52.52 0 0 1-.483-.311l-37.093-79.09c-.069-.173-.069-.345.035-.484a.59.59 0 0 1 .449-.241h118.739c.207 0 .38.103.449.276l40.236 79.09c.069.173.069.346-.035.518-.103.139-.242.242-.449.242zm-121.536-1.036H163.43l-39.718-78.054H6.113l36.609 78.054z" class="B"/><path d="M76.777 227.474a6.4 6.4 0 0 0 6.389-6.389 6.4 6.4 0 0 0-6.389-6.39 6.4 6.4 0 0 0-6.389 6.39c0 3.557 2.867 6.389 6.389 6.389z" class="C"/><path d="M76.777 227.991a6.93 6.93 0 0 1-6.907-6.907c0-3.799 3.108-6.873 6.907-6.873s6.907 3.074 6.907 6.873c-.035 3.833-3.108 6.907-6.907 6.907zm0-12.744c-3.246 0-5.871 2.625-5.871 5.837a5.89 5.89 0 0 0 5.871 5.871 5.87 5.87 0 0 0 5.871-5.871c-.035-3.212-2.659-5.837-5.871-5.837zm109.275 43.516h-21.759c-.276 0-.518-.242-.518-.518a.53.53 0 0 1 .518-.518h21.759a.53.53 0 0 1 .518.518c0 .276-.242.518-.518.518z" class="B"/><path d="M116.771 77.616l22.208 21.828 5.664-30.876-27.872 9.049z" fill="#d4d7e5"/><path d="M138.978 99.963c-.138 0-.276-.069-.38-.138l-22.207-21.827a.51.51 0 0 1-.138-.483c.034-.173.172-.311.345-.38l27.872-9.083c.172-.069.38-.035.518.104.138.104.207.311.172.483l-5.664 30.876c-.034.173-.172.345-.345.415-.035.034-.104.034-.173.034zm-21.24-22.104l20.895 20.55 5.319-29.08-26.214 8.531z" class="B"/><path d="M143.571 93.435c5.146 0 9.359-4.179 9.359-9.325s-4.179-9.325-9.359-9.325-9.36 4.179-9.36 9.325c.034 5.146 4.213 9.325 9.36 9.325z" class="C"/><path d="M143.571 93.952c-5.422 0-9.878-4.421-9.878-9.843s4.421-9.843 9.878-9.843c5.422 0 9.878 4.421 9.878 9.843s-4.421 9.843-9.878 9.843zm0-18.65c-4.87 0-8.842 3.972-8.842 8.807 0 4.87 3.972 8.807 8.842 8.807s8.842-3.972 8.842-8.807c0-4.87-3.972-8.807-8.842-8.807z" class="B"/><path d="M105.131 29.785h-.138c-.276-.069-.449-.345-.38-.622l3.523-13.849c.069-.276.345-.415.587-.38l12.122 2.314V8.199a.49.49 0 0 1 .208-.414c.138-.104.31-.138.449-.104l12.433 3.385L135.938.428c.069-.276.311-.484.587-.414s.484.311.415.587l-2.072 11.19c-.035.138-.104.276-.242.345s-.277.104-.415.069l-12.295-3.35v8.98c0 .138-.069.311-.173.415s-.276.138-.414.104l-12.295-2.314-3.385 13.366c-.069.242-.276.38-.518.38z" class="D"/><path d="M186.224 42.425c3.143 0 5.699-2.556 5.699-5.699s-2.556-5.699-5.699-5.699-5.699 2.556-5.699 5.699c.035 3.177 2.556 5.699 5.699 5.699z" fill="#d4d7e5"/><path d="M186.225 42.941c-3.42 0-6.217-2.797-6.217-6.217s2.797-6.217 6.217-6.217 6.216 2.798 6.216 6.217c0 3.454-2.797 6.217-6.216 6.217zm0-11.363c-2.867 0-5.181 2.314-5.181 5.181s2.314 5.181 5.181 5.181 5.18-2.314 5.18-5.181-2.314-5.181-5.18-5.181z" class="B"/><path d="M94.701 179.159s9.014-28.182 13.85-27.595 1.761 7.598 1.761 7.598 19.583-6.734 20.791-2.348c.933 3.281-12.986 6.942-12.986 6.942s12.296-3.35 12.537-1.002c.277 2.729-10.637 4.248-12.433 5.284 0 0 9.809-3.281 10.327-1.519.483 1.727-10.776 5.249-10.776 5.249s6.424-2.279 6.597-.587c.172 1.762-5.388 3.35-7.598 3.558s-1.555 4.386-1.555 4.386H94.701v.034z" class="C"/><path d="M115.251 179.676h-20.55a.49.49 0 0 1-.414-.207c-.104-.138-.138-.311-.069-.449.034-.069 2.279-7.149 5.111-14.056 5.25-12.814 7.806-14.092 9.291-13.919 1.243.138 2.141.691 2.659 1.623.967 1.693.38 4.248-.104 5.699 3.627-1.174 15.68-4.87 19.307-2.97.587.311.967.76 1.139 1.312.139.484.069.967-.207 1.451-.691 1.243-2.763 2.417-5.077 3.419 1.9-.207 3.558-.207 4.317.311.38.276.518.621.518.863.139 1.209-1.07 2.107-3.073 2.901.138.035.276.069.414.138.345.208.484.449.553.657.207.759-.277 1.761-5.146 3.73a1.02 1.02 0 0 1 .483.207c.311.173.484.483.518.794.242 2.452-6.286 3.937-8.047 4.11a.87.87 0 0 0-.656.38c-.656.829-.518 2.763-.415 3.419.035.138-.034.311-.103.415-.173.103-.311.172-.449.172zm-19.859-1.036h19.272c-.069-.932-.104-2.625.69-3.626.346-.449.829-.725 1.382-.76 3.626-.38 7.184-2.176 7.115-3.005-.242-.345-2.211-.138-4.628.622-.76.276-1.278.414-1.278.414-.277.069-.553-.069-.657-.345s.07-.553.311-.656.795-.276 1.451-.484c4.801-1.588 8.738-3.419 8.98-4.179-.484-.483-4.525.173-9.636 1.865-.242.069-.518-.034-.622-.276s-.035-.518.207-.656c.622-.38 2.072-.76 3.903-1.209 2.936-.76 8.392-2.176 8.254-3.592 0-.034 0-.069-.069-.103-.656-.449-4.248-.449-11.19 1.416-.276.069-.483.138-.621.172-.277.069-.553-.103-.622-.38s.103-.552.38-.621c.138-.035.311-.069.518-.138 3.35-.933 10.775-3.351 11.984-5.492.138-.242.173-.449.138-.656-.069-.276-.276-.518-.621-.691-3.178-1.658-15.162 1.865-19.514 3.35-.207.069-.414 0-.552-.138a.54.54 0 0 1-.104-.552c0-.035 1.658-3.834.553-5.803-.346-.621-.967-1.001-1.9-1.105-.794-.104-3.177 1.002-8.185 13.262-2.349 5.699-4.283 11.432-4.939 13.366zm80.298 25.071c-.103 0-.207-.034-.31-.103a.51.51 0 0 1-.104-.726l4.628-5.94a.518.518 0 1 1 .829.622l-4.628 5.94c-.104.138-.242.207-.415.207z" class="B"/><path d="M206.498 169.276s3.039-3.212 2.279-6.286-5.595-6.804-4.939-8.462 7.391-.414 8.462 1.589c1.105 1.969 6.769-13.677 11.017-11.397 2.176 1.139-4.766 11.466-4.766 11.466s10.776-13.366 14.299-10.154c1.865 1.692-7.15 10.603-7.15 10.603s13.505-11.121 17.373-7.909c2.935 2.418-12.192 9.774-10.914 11.121.38.414 16.336-11.086 18.754-6.804 1.243 2.176-7.253 6.321-13.608 12.33-6.907 6.562-12.226 14.54-12.226 14.54l-18.581-10.637z" class="C"/><path d="M225.148 180.399c-.103 0-.172-.035-.241-.069l-18.651-10.569c-.138-.069-.241-.207-.241-.38-.035-.172.034-.311.138-.449.034-.034 2.832-3.073 2.141-5.836-.345-1.382-1.623-2.971-2.763-4.387-1.45-1.83-2.625-3.246-2.141-4.386.242-.622.967-1.001 2.176-1.071 2.175-.138 5.975.795 7.114 2.383.484-.448 1.451-2.072 2.211-3.419 2.521-4.282 5.664-9.636 8.738-8.012.207.103.518.38.621.863.104.415.415 1.658-2.21 6.424 2.832-2.936 6.631-6.32 9.256-6.528.794-.069 1.45.139 1.969.622.172.173.414.484.414 1.002 0 .449.034 1.796-3.626 6.113 4.42-3.074 10.741-6.666 13.435-4.455.379.31.587.759.552 1.208-.069 1.727-3.005 3.869-7.115 6.735l-2.624 1.865c.138-.104.31-.173.449-.276 5.698-3.419 12.088-7.046 15.196-6.217.656.173 1.174.553 1.485 1.105.967 1.693-1.727 3.661-5.837 6.666-2.486 1.83-5.353 3.903-7.874 6.286-6.804 6.458-12.088 14.367-12.157 14.436-.069.242-.242.346-.415.346zm-17.821-11.259l17.683 10.015c1.174-1.692 6.01-8.53 12.019-14.229 2.59-2.452 5.457-4.524 7.978-6.389 2.97-2.176 6.044-4.421 5.526-5.319-.173-.311-.449-.518-.863-.622-2.97-.76-10.707 3.868-14.402 6.113-2.798 1.693-3.04 1.831-3.42 1.416-.172-.172-.241-.414-.207-.656.104-.898 1.658-2.038 4.697-4.11 2.798-1.934 6.597-4.593 6.666-5.906 0-.103 0-.241-.207-.38-1.382-1.139-4.766-.138-9.532 2.798-3.8 2.348-7.15 5.111-7.184 5.111-.207.173-.518.139-.726-.069-.172-.207-.172-.518.035-.725 2.832-2.797 7.287-7.84 7.253-9.601 0-.173-.069-.242-.069-.242-.311-.276-.691-.38-1.174-.345-3.42.276-10.085 7.632-12.365 10.464-.173.208-.483.242-.725.104-.207-.173-.276-.484-.138-.691 2.176-3.212 5.491-8.945 5.077-10.534-.035-.138-.104-.172-.104-.172-2.176-1.14-5.284 4.11-7.356 7.598-1.693 2.867-2.383 4.006-3.212 4.006-.277 0-.518-.172-.691-.449-.622-1.105-3.972-2.21-6.286-2.072-.794.035-1.209.242-1.278.414-.241.588 1.002 2.107 2.003 3.351 1.209 1.485 2.556 3.212 2.971 4.8.656 2.66-1.14 5.284-1.969 6.321z" class="B"/><path d="M230.433 123.936s10.707 9.877 12.123 7.77c.932-1.381-8.255-12.157-10.258-16.163-1.485 2.141-2.763 2.659-1.865 8.393z" class="C"/><path d="M241.865 132.533c-.656 0-2.279-.38-6.907-4.041l-4.87-4.179a.67.67 0 0 1-.173-.31c-.794-5.112.104-6.286 1.347-7.909l.622-.829c.104-.138.276-.242.449-.208.173 0 .345.139.414.277.795 1.588 2.832 4.386 4.801 7.114 4.386 6.01 6.079 8.566 5.388 9.567-.138.207-.415.449-.898.518 0-.034-.104 0-.173 0zm-10.948-8.876c3.454 3.178 9.394 8.013 11.052 7.806.069 0 .103-.035.138-.035.069-.932-3.177-5.422-5.353-8.392-1.796-2.487-3.523-4.836-4.49-6.528-.069.069-.104.138-.173.207-1.14 1.451-1.865 2.418-1.174 6.942z" class="B"/><path d="M232.297 115.539s8.738 14.263 10.741 11.915c.898-1.036-7.391-9.567-7.046-15.645-1.83 1.623-3.695 3.73-3.695 3.73z" class="C"/><path d="M242.451 128.246h-.104c-.483-.035-1.968-.173-6.458-6.39l-4.041-6.044c-.104-.207-.104-.449.069-.621.069-.104 1.9-2.142 3.73-3.765.173-.138.38-.172.553-.069s.311.276.276.484c-.207 3.626 2.936 8.358 5.008 11.501 1.692 2.555 2.487 3.73 1.899 4.42-.207.346-.552.484-.932.484zm-9.498-12.641c2.798 4.559 7.702 11.467 9.498 11.605.069 0 .104 0 .138-.035-.069-.483-1.036-1.934-1.899-3.246-2.073-3.109-4.836-7.253-5.181-10.983-1.105 1.07-2.107 2.176-2.556 2.659z" class="B"/><path d="M241.38 115.327c.069 10.05 3.834 9.878 3.039 10.879-1.07 1.313-4.455-4.144-6.458-7.771-1.969-3.626-1.796-4.421-1.969-6.596 0 0 2.97-2.28 4.11-.898.725.829 1.278 2.21 1.278 4.386z" class="C"/><path d="M244.005 126.934h-.103c-.898-.069-2.763-1.589-6.39-8.254-1.796-3.316-1.865-4.352-2.003-6.113 0-.208-.034-.449-.034-.691 0-.173.069-.346.207-.449.345-.277 3.419-2.556 4.835-.829.898 1.071 1.382 2.694 1.382 4.766.069 6.804 1.761 8.703 2.59 9.636.345.38.829.932.311 1.589-.208.207-.484.345-.795.345zm-7.494-14.851c0 .138.034.276.034.414.104 1.658.173 2.591 1.865 5.699 2.867 5.25 4.905 7.598 5.526 7.702-.069-.069-.138-.173-.207-.242-.898-1.001-2.797-3.108-2.867-10.292 0-1.83-.414-3.212-1.139-4.075-.587-.726-2.28.138-3.212.794zm44.588-18.478c-.103 0-.172-.035-.276-.069l-29.46-18.132c-.138-.104-.242-.242-.242-.414s.069-.345.207-.449l23.969-19.168c.242-.173.553-.138.725.069s.139.553-.069.725l-23.381 18.719 28.562 17.579 23.934-14.367c.242-.138.553-.069.726.173.138.242.069.553-.173.725l-24.211 14.54a.99.99 0 0 1-.311.069z" class="B"/><path d="M253.536 76.133s-16.267 12.157-19.479 16.958c-3.177 4.801-10.983 21.516-10.983 25.972 0 4.973 5.043 16.508 7.288 16.025s-1.106-14.057 0-16.613 6.389-8.841 9.256-7.839.794 13.504 4.628 13.883 3.35-12.398 4.8-15.127 2.383-1.589 3.04-6.596c.379-2.936 25.971-11.536 25.971-11.536l-24.521-15.127z" class="C"/><path d="M230.259 135.64c-.38 0-.76-.173-1.174-.484-2.66-2.175-6.493-11.604-6.493-16.059 0-4.628 7.771-21.31 11.052-26.283 3.212-4.801 18.926-16.578 19.582-17.096.173-.138.415-.138.587-.035l24.556 15.127c.173.104.277.311.242.484-.034.207-.172.38-.345.449-15.853 5.319-25.489 9.843-25.627 11.121-.414 3.316-1.001 4.075-1.865 5.077-.38.414-.76.863-1.209 1.727s-.725 3.039-1.001 5.319c-.587 4.731-1.244 10.084-4.076 10.084h-.241c-2.487-.241-2.867-4.144-3.212-7.943-.242-2.625-.518-5.595-1.52-5.94-1.036-.346-2.763.552-4.766 2.486-1.831 1.796-3.35 3.972-3.868 5.077-.449 1.002-.035 4.421.311 7.46.656 5.63.967 9.118-.657 9.463-.103-.069-.172-.034-.276-.034zm23.313-58.886c-2.176 1.623-16.198 12.295-19.065 16.612-1.589 2.383-4.317 7.737-6.631 13.021-2.694 6.147-4.248 10.741-4.248 12.675 0 4.352 3.903 13.47 6.113 15.265.276.208.449.277.553.277 0 0 .414-.207.38-2.452-.035-1.624-.277-3.799-.519-5.906-.414-3.627-.759-6.735-.207-7.978 1.14-2.591 6.562-9.291 9.912-8.151 1.658.552 1.9 3.488 2.245 6.838.311 3.212.657 6.839 2.28 7.011 2.003.208 2.659-5.215 3.177-9.152.311-2.487.587-4.663 1.105-5.664.518-.967.967-1.485 1.382-1.934.691-.76 1.209-1.347 1.623-4.49.069-.656.276-2.141 13.47-7.287 4.869-1.9 9.739-3.592 11.846-4.317l-23.416-14.367z" class="B"/><path d="M245.214 299.344h-98.777c-.207 0-.38-.104-.449-.276-.103-.173-.069-.38.035-.553l28.32-40.581c.104-.138.242-.207.415-.207l93.25.379a.59.59 0 0 1 .449.242.47.47 0 0 1 0 .518l-22.794 40.202a.54.54 0 0 1-.449.276zm-97.775-1.036h97.499l22.207-39.165-92.111-.38-27.595 39.545z" class="D"/><path d="M232.713 258.488l-9.602 14.437h27.216l8.979-14.333-26.593-.104z" class="C"/><path d="M250.327 273.441h-27.216c-.207 0-.38-.103-.449-.276a.47.47 0 0 1 .035-.518l9.601-14.436c.104-.139.242-.242.415-.242l26.593.103c.173 0 .346.104.449.277s.069.38 0 .518l-8.98 14.333c-.138.172-.276.241-.448.241zm-26.249-1.036h25.938l8.323-13.297-25.385-.103-8.876 13.4zm-.553-9.599h-31.118a.53.53 0 0 1-.518-.518.53.53 0 0 1 .518-.518h31.118a.53.53 0 0 1 .518.518c0 .276-.207.518-.518.518zm-3.453 5.558h-22.726c-.276 0-.518-.242-.518-.518s.242-.518.518-.518h22.726c.276 0 .518.242.518.518s-.207.518-.518.518zm-2.764 4.528h-24.452c-.276 0-.518-.242-.518-.518s.242-.519.518-.519h24.452a.53.53 0 0 1 .518.519c0 .276-.207.518-.518.518z" class="D"/><path d="M238.48 293.784h-80.576l11.777-16.854h78.745l-9.946 16.854z" class="C"/><path d="M238.48 294.3h-80.576c-.207 0-.38-.103-.449-.276-.103-.173-.069-.38.035-.552l11.777-16.855a.49.49 0 0 1 .414-.207h78.745c.173 0 .346.104.449.276a.47.47 0 0 1 0 .519l-9.981 16.854a.48.48 0 0 1-.414.241zm-79.574-1.036h79.263l9.359-15.818h-77.536l-11.086 15.818z" class="D"/><defs><linearGradient id="A" x1="5.318" y1="218.891" x2="164.259" y2="218.891" gradientUnits="userSpaceOnUse"><stop stop-color="#6366f1"/><stop offset=".5" stop-color="#8b5cf6"/><stop offset="1" stop-color="#d946ef"/></linearGradient></defs></svg>