<svg xmlns="http://www.w3.org/2000/svg" width="306" height="300" fill="none" xmlns:v="https://vecta.io/nano"><style><![CDATA[.B{fill:#fff}.C{fill:#131022}.D{fill-opacity:.55}.E{fill:#585c7b}.F{fill:#3e4265}]]></style><path d="M58.709 263.802c6.549-1.399 24.468-5.656 20.509-17.771-4.346-13.305-20.122-12.918-27.951-10.805-7.799 2.114-21.492 11.579-17.324 22.146 4.495 11.371 18.545 7.74 24.766 6.43z" class="C"/><path d="M47.517 265.827c-5.596 0-11.371-1.696-13.99-8.334-1.25-3.156-1.042-6.43.595-9.734 3.185-6.31 11.133-11.401 17.027-13.008 7.888-2.113 24.022-2.53 28.486 11.103.953 2.947.744 5.656-.655 8.067-3.929 6.846-16.163 9.436-20.182 10.299l-.893.179c-2.649.595-6.489 1.428-10.389 1.428zM59.9 234.543c-3.215 0-6.221.476-8.513 1.101-4.882 1.31-13.216 6.072-16.461 12.532-1.548 3.066-1.727 6.072-.566 8.989 4.167 10.538 16.669 7.829 23.367 6.37a23.71 23.71 0 0 0 .893-.178c10.508-2.233 17.116-5.537 19.586-9.853 1.25-2.173 1.459-4.644.566-7.352-2.947-9.079-11.43-11.609-18.872-11.609z" class="B"/><path d="M70.526 262.224a9.08 9.08 0 0 0 9.079-9.079 9.1 9.1 0 0 0-9.079-9.079 9.1 9.1 0 0 0-9.079 9.079 9.08 9.08 0 0 0 9.079 9.079z" class="C"/><path d="M70.525 262.672c-5.269 0-9.525-4.287-9.525-9.526s4.286-9.525 9.525-9.525 9.525 4.286 9.525 9.525-4.257 9.526-9.525 9.526zm0-18.188a8.64 8.64 0 0 0-8.632 8.633 8.64 8.64 0 0 0 8.632 8.632 8.64 8.64 0 0 0 8.632-8.632 8.64 8.64 0 0 0-8.632-8.633z" class="B"/><path d="M62.698 248.505s-1.22-6.578 0-7.025 4.584 3.155 4.584 3.155-1.578.566-2.56 1.489c-.982.952-2.024 2.381-2.024 2.381z" class="C"/><path d="M62.698 248.951h-.089c-.179-.03-.298-.178-.327-.357 0-.06-.298-1.697-.476-3.393-.298-3.305.208-3.959.744-4.138 1.399-.506 4.227 2.381 5.06 3.274.089.119.149.268.119.417s-.149.268-.298.327c-.03 0-1.518.536-2.411 1.399a19.08 19.08 0 0 0-1.965 2.322.49.49 0 0 1-.357.149zm.149-7.055s-.447.358-.149 3.364l.268 2.173 1.429-1.607c.655-.625 1.518-1.072 2.084-1.34-1.399-1.458-3.126-2.798-3.632-2.59zm16.669 10.296c-.059 0-.119-.029-.208-.059-.119-.06-.208-.179-.238-.328 0-.029-.417-2.113-1.101-3.095l-1.34-1.757c-.119-.119-.149-.297-.089-.446s.208-.268.357-.298c.625-.089 6.132-.833 7.62.298a1.07 1.07 0 0 1 .447.744c.238 1.905-4.346 4.376-5.239 4.822-.06.119-.149.119-.208.119zm-1.697-5.149l.893 1.19c.536.804.923 2.084 1.101 2.828 1.935-1.071 4.346-2.798 4.257-3.661 0-.03 0-.06-.119-.149-.774-.565-3.87-.446-6.132-.208z" class="B"/><path d="M37.991 243.325s-8.305 7.739-6.191 17.026c2.262 9.883 20.598 16.491 28.487 6.608 6.31-7.918-4.316-12.323-7.501-7.322-4.495 7.025-23.813 7.56-14.794-16.312z" fill="#2b2d49"/><g class="B"><path d="M49.333 272.288c-1.429 0-2.917-.179-4.435-.506-6.787-1.548-12.353-6.192-13.544-11.312-.893-3.899-.089-8.156 2.352-12.293 1.816-3.126 3.899-5.06 3.959-5.12.149-.149.387-.149.566-.03s.238.328.179.536c-3.661 9.674-2.977 16.64 1.875 19.08 3.84 1.935 9.853.358 12.115-3.155 1.042-1.607 2.887-2.47 5.001-2.322 2.203.179 4.138 1.459 4.912 3.245.863 1.994.268 4.435-1.667 6.876-2.62 3.245-6.668 5.001-11.311 5.001zM36.831 245.26c-2.232 2.709-6.102 8.513-4.584 14.972 1.101 4.793 6.4 9.168 12.859 10.657 6.072 1.369 11.609-.209 14.824-4.227 2.203-2.768 2.054-4.792 1.548-5.983-.655-1.488-2.292-2.56-4.167-2.709-1.756-.149-3.334.566-4.167 1.905-2.53 3.929-8.96 5.626-13.246 3.483-2.411-1.221-3.959-3.453-4.495-6.519-.566-3.096-.089-6.995 1.429-11.579zm18.903 8.869a.45.45 0 0 1-.417-.298.43.43 0 0 1 .268-.565c3.483-1.28 8.99-.417 9.228-.387a.42.42 0 0 1 .357.506c-.03.238-.268.416-.506.357-.06 0-5.507-.863-8.781.327-.059.06-.089.06-.149.06zm25.717 6.671a.55.55 0 0 1-.357-.149c-.655-.804-4.167-2.828-5.477-3.543-.208-.119-.298-.386-.179-.595s.387-.297.595-.178c.506.267 4.852 2.679 5.745 3.75.149.179.119.476-.06.625-.059.06-.149.09-.268.09zm-25.004-3.9c-.179 0-.328-.089-.417-.268-.119-.208 0-.476.208-.595 3.423-1.637 8.275-1.548 8.483-1.548a.46.46 0 0 1 .446.447c0 .238-.208.416-.446.446-.06 0-4.882-.089-8.096 1.459-.06.029-.119.059-.179.059zm23.843 8.509c-.179 0-.357-.119-.417-.327-.774-2.62-5.209-6.192-5.269-6.251-.179-.149-.208-.447-.059-.625s.447-.209.625-.06 4.703 3.81 5.566 6.668a.47.47 0 0 1-.298.565c-.059.03-.119.03-.149.03z"/><path d="M81.769 159.444a.46.46 0 0 1-.447-.447.46.46 0 0 1 .447-.446l152.791-1.489a.46.46 0 0 1 .447.447.46.46 0 0 1-.447.447l-152.791 1.488z" class="D"/></g><path d="M190.09 241.421l34.737-.417-2.798 10.478-31.909.089v-10.15h-.03z" class="C"/><path d="M190.089 252.019c-.119 0-.238-.06-.327-.119-.09-.09-.119-.209-.119-.328v-10.15a.46.46 0 0 1 .446-.447l34.738-.416c.148 0 .268.059.357.178s.119.268.089.387l-2.798 10.478c-.059.208-.238.327-.417.327l-31.969.09zm.447-10.151v9.258l31.135-.09 2.56-9.584-33.695.416z" class="B"/><path d="M107.575 112.859s-10.627 14.883-8.215 26.909 16.222 19.973 37.565 19.229c-1.816 18.039 1.459 82.93 1.459 82.93l51.734-.506 30.034-.417v-87.276l-41.911-32.326s-20.003-8.007-70.666-8.543z" fill="#202034"/><g class="B"><path d="M138.354 242.374c-.238 0-.446-.179-.446-.417-.03-.655-3.185-63.968-1.489-82.483-10.15.298-18.991-1.399-25.599-4.882-6.548-3.482-10.686-8.572-11.906-14.704-1.28-6.311 1.072-13.395 3.244-18.217 2.352-5.21 5.031-8.99 5.06-9.02.09-.119.239-.178.358-.178 49.442.506 69.951 8.215 70.814 8.543.03.029.09.029.119.059l41.912 32.327c.119.089.178.208.178.357v87.275a.46.46 0 0 1-.446.447l-30.035.417-51.764.476zm-1.458-83.823c.119 0 .238.06.327.149s.119.208.119.357c-1.697 17.027 1.161 76.768 1.429 82.424l51.288-.506 29.617-.417v-86.621l-41.673-32.147c-1.369-.506-21.759-7.948-70.189-8.484-1.221 1.756-10.21 15.389-8.007 26.344 1.16 5.893 5.119 10.745 11.46 14.109 6.548 3.512 15.419 5.149 25.629 4.792z"/><path d="M190.089 241.864c-.239 0-.447-.178-.447-.446l-2.113-88.228-26.612-24.2c-.178-.179-.208-.447-.029-.625s.446-.209.625-.03l26.73 24.349c.089.089.149.208.149.327l2.113 88.437c.03.208-.149.416-.416.416z"/></g><path d="M134.218 241.958l62.896-.536-2.411 10.121-57.271.208-3.214-9.793z" class="C"/><path d="M137.403 252.196a.45.45 0 0 1-.417-.298l-3.214-9.793c-.03-.149-.03-.297.059-.387s.209-.178.357-.178l62.897-.536c.149 0 .268.059.357.178s.119.239.09.387l-2.411 10.121c-.06.208-.239.357-.447.357l-57.271.149zm-2.589-9.793l2.917 8.9 56.616-.208 2.202-9.228-61.735.536z" class="B"/><path d="M217.118 251.57v6.936l18.306 12.978-45.334.387V251.57h27.028 0z" class="C"/><path d="M190.089 272.319c-.119 0-.238-.06-.327-.119-.09-.09-.119-.209-.119-.328v-20.301a.46.46 0 0 1 .446-.446h27.028a.46.46 0 0 1 .447.446v6.728l18.098 12.829c.148.119.238.328.178.506s-.238.298-.416.328l-45.335.357zm.447-20.301v19.408l43.488-.387-17.175-12.175c-.119-.089-.178-.208-.178-.357v-6.519h-26.135v.03z" class="B"/><path d="M138.713 251.747l51.377-.208v7.62l18.187 12.472-69.118.864-.446-20.748z" class="C"/><path d="M139.159 272.942a.46.46 0 0 1-.447-.446l-.446-20.718c0-.119.029-.238.119-.327s.208-.149.327-.149l51.377-.208c.119 0 .238.059.328.119.089.089.119.208.119.327v7.382l17.979 12.324c.148.119.238.297.178.506-.059.178-.238.327-.417.327l-69.117.863h0zm0-20.747l.446 19.825 67.243-.804-17.027-11.669c-.119-.089-.208-.208-.208-.357v-7.173l-50.454.178z" class="B"/><path d="M148.057 102.378l1.31-14.883-1.042-15.627 1.042 15.627 11.43-8.543s-14.883-20.747-21.491-21.789c-3.751 2.709-6.757-1.667-6.757-1.667s-20.211.655-25.629 19.884c11.728 3.751 20.212 6.043 20.212 6.043l2.411-9.228-5.269 25.391 23.783 4.792z" class="C"/><path d="M148.058 102.824h-.09l-23.753-4.823c-.12-.03-.209-.089-.298-.179s-.089-.208-.06-.328l3.245-15.627h-.06c-.089-.03-8.662-2.322-20.241-6.043-.238-.059-.357-.327-.298-.536 2.828-10.091 9.764-15.062 15.092-17.443 5.745-2.56 10.746-2.768 10.954-2.768a.48.48 0 0 1 .387.179c0 .03 1.369 1.965 3.304 2.292.953.149 1.905-.089 2.828-.744.089-.06.208-.089.327-.089 6.728 1.072 21.164 21.105 21.79 21.968.148.208.089.476-.09.625l-11.251 8.424-1.31 14.705c0 .119-.089.238-.179.327-.119.03-.208.06-.297.06zm-23.248-5.626l22.831 4.643 1.28-14.347-1.042-15.598v-.03c0-.238.179-.417.417-.447s.446.179.476.417l.982 14.794 10.419-7.799c-1.965-2.709-14.794-19.973-20.748-21.223-1.071.714-2.202.982-3.334.804-1.905-.328-3.304-1.905-3.75-2.471-1.042.059-5.507.476-10.418 2.679-7.323 3.304-12.175 8.811-14.437 16.431 9.882 3.155 17.502 5.269 19.348 5.775l2.292-8.811c.06-.238.298-.387.536-.327s.387.298.327.536l-5.179 24.974z" class="B"/><path d="M106.922 75.352s-7.174 32.565-5.775 34.976 40.483 10.329 50.693 10.686 7.203-14.794 4.078-16.55c-3.096-1.756-31.642-6.906-31.642-6.906l2.857-16.163-20.211-6.043z" class="C"/><path d="M152.197 121.461h-.387c-5.507-.208-18.396-2.44-28.725-4.584-6.37-1.309-21.313-4.584-22.325-6.31-.268-.447-.952-1.637 2.292-18.694l3.424-16.58c.029-.119.089-.238.208-.298s.238-.089.357-.03l20.241 6.043c.209.059.358.268.298.506l-2.768 15.717c3.75.685 28.397 5.21 31.344 6.876 2.232 1.251 4.018 7.829 2.768 12.324-.684 2.292-2.381 5.03-6.727 5.03zm-44.948-45.542c-2.768 12.561-6.667 32.534-5.715 34.172.506.773 7.561 2.946 21.819 5.923 10.27 2.114 23.069 4.346 28.487 4.554 3.244.119 5.328-1.369 6.191-4.405.566-1.965.536-4.495-.089-6.965-.536-2.144-1.429-3.87-2.262-4.346-2.412-1.37-21.67-5.09-31.493-6.847-.239-.03-.417-.268-.358-.506l2.798-15.747-19.378-5.834z" class="B"/><path d="M149.814 87.259l9.049-6.876 7.025 11.907-6.995 12.324-10.805-2.352 1.726-15.002z" class="C"/><path d="M158.892 105.057h-.089l-10.805-2.351c-.238-.06-.387-.268-.358-.476l1.757-15.003c0-.119.089-.238.178-.298l9.049-6.876c.09-.089.238-.119.358-.089s.238.089.297.208l7.025 11.907c.089.149.089.298 0 .447l-7.025 12.323c-.089.119-.238.208-.387.208zm-10.329-3.125l10.091 2.173 6.727-11.817-6.638-11.252-8.513 6.459-1.667 14.437z" class="B"/><path d="M150.202 57.224c6.579-2.203 3.959-14.675.447-19.676-6.221-8.87-21.551-7.352-25.54 4.644-.863 2.619-6.221 3.78-4.137 7.948 1.458 2.917 7.292 1.399 7.292 1.399s18.009 6.995 21.938 5.685z" class="C"/><g class="B"><path d="M148.922 57.819c-5.477 0-19.08-5.179-20.688-5.805-.952.238-6.191 1.31-7.65-1.667-1.488-3.006.506-4.673 2.114-6.043.893-.744 1.726-1.459 1.994-2.262 1.875-5.685 6.489-9.615 12.323-10.478 5.597-.833 10.955 1.369 13.991 5.685 2.738 3.87 4.673 11.52 3.125 16.252-.684 2.084-1.964 3.483-3.81 4.078-.357.179-.833.238-1.399.238zm-20.658-6.698c.06 0 .119 0 .149.03 4.495 1.726 15.985 5.804 20.45 5.804.476 0 .892-.059 1.19-.149 1.548-.536 2.649-1.697 3.245-3.512 1.429-4.376-.417-11.788-3.007-15.479-2.857-4.048-7.888-6.102-13.127-5.328-5.507.804-9.823 4.495-11.609 9.853-.357 1.072-1.309 1.875-2.262 2.679-1.637 1.399-3.066 2.59-1.905 4.941.655 1.31 2.411 1.578 3.78 1.548 1.578 0 2.977-.387 2.977-.387h.119z"/><path d="M132.551 55.499l1.577-4.495s-1.637-2.262-1.577-3.542-2.471-.387-1.816-3.006c.685-2.619 3.989.298 5.626.982s4.703-.923 6.31-1.042c1.102-.089 2.203.982 2.501 1.667.625 1.429-.238 3.453-1.905 4.405-1.667.982-4.138 1.131-4.138 1.131l-.238 5.834s-.357 1.221-3.572.328c-3.215-.923-2.768-2.262-2.768-2.262z"/></g><path d="M137.344 58.506c-.536 0-1.25-.089-2.143-.327-1.548-.417-2.531-1.042-2.947-1.786-.298-.536-.179-.953-.149-1.042l1.488-4.286c-.416-.625-1.607-2.411-1.518-3.632 0-.149-.03-.208-.536-.417-.654-.268-1.756-.714-1.25-2.679.179-.655.506-1.101.982-1.28 1.072-.447 2.56.447 3.87 1.22l1.369.744c.923.357 2.471-.119 3.84-.536.834-.268 1.637-.506 2.263-.536 1.309-.089 2.559 1.072 2.946 1.935.715 1.607-.238 3.899-2.083 4.971-1.34.774-3.126 1.072-3.929 1.161l-.239 5.417c0 .03 0 .06-.029.089.029.119-.268.982-1.935.982zm-4.376-2.887c0 .089-.089.982 2.471 1.697 2.083.566 2.857.208 3.006-.03l.238-5.715c0-.238.179-.417.417-.417.03 0 2.381-.149 3.929-1.072 1.459-.863 2.263-2.649 1.727-3.84-.268-.595-1.221-1.459-2.054-1.399-.536.03-1.28.268-2.054.506-1.518.476-3.245 1.012-4.465.506-.417-.179-.953-.476-1.488-.804-1.012-.595-2.411-1.429-3.096-1.161-.089.03-.328.119-.476.685-.298 1.191.119 1.369.744 1.637.446.179 1.131.476 1.071 1.28s.893 2.411 1.489 3.245c.089.119.119.268.059.417l-1.518 4.465z" class="C"/><g class="B"><path d="M305.524 122.147H6.28a.46.46 0 0 1-.446-.447.46.46 0 0 1 .446-.446h299.244a.46.46 0 0 1 .446.446c0 .239-.179.447-.446.447z"/><path d="M81.322 121.562L39.43 282.496l.864.225 41.892-160.934-.864-.225z" class="D"/><path d="M44.782 121.542l-.849.278 54.975 167.697.849-.278-54.975-167.697zm187.016.008l-.847.282 55.872 167.686.847-.282-55.872-167.686z" class="D"/><path d="M269.256 121.546l-41.887 158.7.864.228 41.886-158.7-.863-.228z" class="D"/><path d="M23.127 102.2c-.179 0-.357-.119-.417-.268s-5.626-13.96-13.276-17.443c-.238-.089-.327-.357-.208-.595.089-.238.357-.327.595-.208 3.364 1.548 6.697 5.031 9.912 10.359 2.381 3.959 3.81 7.501 3.84 7.561a.44.44 0 0 1-.238.565c-.089.03-.149.03-.208.03z"/></g><path d="M9.616 84.071s-6.043-9.585-8.424-6.816c-3.304 3.81 8.424 6.816 8.424 6.816z" class="E"/><path d="M9.616 84.519h-.119c-.833-.238-8.305-2.233-9.257-5.239-.238-.804-.06-1.578.595-2.292.417-.476.953-.714 1.578-.655 1.28.089 2.947 1.399 4.971 3.899 1.459 1.816 2.56 3.542 2.619 3.632a.45.45 0 0 1-.03.506c-.089.089-.208.149-.357.149zm-7.382-7.323c-.298 0-.536.119-.744.357-.417.506-.566.982-.417 1.459.566 1.845 4.882 3.512 7.471 4.316-1.548-2.262-4.465-5.983-6.251-6.102 0-.03-.03-.03-.06-.03z" class="B"/><path d="M17.412 91.333c-2.143-4.644-8.394 4.197-8.394 4.197s9.585-1.667 8.394-4.197z" class="E"/><path d="M9.454 95.978a.51.51 0 0 1-.387-.208.51.51 0 0 1 0-.506c.447-.625 4.316-5.983 7.204-5.715.863.089 1.518.625 1.965 1.607.208.417.179.893-.03 1.31-1.131 2.143-7.918 3.393-8.692 3.512h-.06zm6.608-5.566c-1.667 0-4.167 2.679-5.566 4.435 2.739-.566 6.311-1.667 6.906-2.828.089-.179.089-.327.03-.506-.328-.685-.714-1.042-1.25-1.072-.03-.03-.06-.03-.119-.03z" class="B"/><path d="M27.475 66.512c1.131 14.199 4.286 35.481 4.286 35.481l-4.286-35.481z" class="C"/><path d="M31.73 102.471c-.208 0-.417-.149-.447-.387-.03-.208-3.155-21.461-4.286-35.511-.03-.238.179-.447.417-.476s.447.179.476.417c1.101 14.02 4.257 35.244 4.286 35.452a.44.44 0 0 1-.387.506h-.059z" class="B"/><path d="M26.76 53.056c1.786-.179 7.114 15.657.536 14.913-5.834-.685-.536-14.913-.536-14.913z" class="E"/><path d="M27.742 68.416c-.149 0-.328 0-.476-.03-1.042-.119-1.845-.625-2.352-1.488-2.322-3.78 1.31-13.603 1.459-14.02.059-.149.208-.268.387-.298.476-.06.953.327 1.488 1.22 1.578 2.56 3.929 10.21 1.994 13.276-.595.893-1.429 1.34-2.5 1.34zm-.714-14.734c-.298.863-.923 2.768-1.399 4.941-.833 3.751-.833 6.459.03 7.829.387.625.953.982 1.697 1.072 1.429.179 2.262-.536 2.59-2.143.744-3.84-1.786-10.537-2.917-11.698zm1.221 21.431a.51.51 0 0 1-.387-.208c-.03-.059-3.036-5.031-7.858-5.418-4.733-.357-5.656-.06-5.685-.03-.208.119-.476.03-.595-.208-.119-.208 0-.506.208-.595.149-.089 1.161-.446 6.132-.059 5.269.417 8.424 5.626 8.543 5.834s.059.476-.149.625c-.059.06-.149.06-.208.06z" class="B"/><path d="M13.931 68.508c-.923-6.013-9.853 1.191-9.853 1.191s10.478 2.917 9.853-1.191z" class="E"/><path d="M10.507 71.156a16.69 16.69 0 0 1-2.56-.208c-2.113-.298-3.929-.804-4.018-.804-.149-.03-.298-.179-.327-.327a.49.49 0 0 1 .149-.447c.238-.179 5.834-4.644 8.841-3.483.953.387 1.548 1.25 1.756 2.56.119.774-.089 1.429-.625 1.875-.595.536-1.697.834-3.215.834zM5.06 69.519c2.411.566 6.787 1.31 8.096.149.298-.268.387-.595.327-1.072-.149-1.012-.536-1.607-1.191-1.875-1.816-.714-5.358 1.429-7.233 2.798zM29.022 82.02a.55.55 0 0 1-.208-.059c-.208-.119-.298-.387-.208-.595s2.619-5.15 8.87-8.603c4.703-2.59 7.352-3.393 7.442-3.423a.47.47 0 0 1 .566.298.47.47 0 0 1-.298.566c-.03 0-2.679.804-7.263 3.334-6.013 3.334-8.483 8.186-8.513 8.215a.41.41 0 0 1-.387.268z" class="B"/><path d="M45.363 69.788c-1.965-7.174 14.615-2.679 14.615-2.679s-13.216 7.799-14.615 2.679z" class="E"/><path d="M48.162 71.958c-.625 0-1.191-.089-1.667-.268-.804-.327-1.34-.923-1.578-1.786-.357-1.369-.149-2.471.625-3.245 1.31-1.31 4.167-1.697 8.513-1.161 3.155.387 5.983 1.161 6.013 1.161.179.059.298.178.328.357s-.06.357-.208.447c-.327.208-7.62 4.495-12.026 4.495zm2.471-5.804c-1.935 0-3.602.298-4.435 1.131-.566.566-.685 1.34-.417 2.381.149.566.506.952 1.042 1.191 1.399.566 4.048.03 7.68-1.518 1.726-.744 3.304-1.548 4.257-2.084-2.084-.506-5.358-1.101-8.126-1.101zm-9.645 36.315c-.238 0-.447-.178-.447-.446 0-.387-.268-9.436 3.185-12.145.208-.149.476-.119.625.089s.119.476-.089.625c-3.096 2.441-2.828 11.341-2.828 11.43 0 .238-.179.446-.447.446z" class="B"/><path d="M55.513 81.813s-15.925 3.215-11.788 8.424c2.768 3.513 11.788-8.424 11.788-8.424z" class="E"/><path d="M45.066 91.339c-.685 0-1.28-.268-1.697-.834-.774-.953-.953-1.935-.595-2.917 1.429-3.929 12.204-6.132 12.651-6.221a.46.46 0 0 1 .476.208.45.45 0 0 1-.03.506c-.268.387-6.995 9.198-10.805 9.257h0zm9.347-8.811c-3.512.833-9.853 2.858-10.805 5.388-.238.655-.089 1.34.476 2.054.268.327.595.476 1.012.476 2.471-.03 6.995-5.06 9.317-7.918z" class="B"/><path d="M37.028 86.009c3.721-1.756 4.495 9.079 4.495 9.079s-8.126-7.352-4.495-9.079z" class="E"/><path d="M41.553 95.565a.38.38 0 0 1-.298-.119c-.059-.06-1.488-1.369-2.887-3.007-1.965-2.292-2.858-4.078-2.649-5.328.089-.655.506-1.191 1.161-1.488.685-.327 1.369-.298 1.965.059 1.101.655 1.965 2.441 2.59 5.358.447 2.084.566 3.989.595 4.078 0 .179-.089.357-.238.447-.119-.03-.179 0-.238 0zm-4.316-9.138c-.387.179-.595.447-.655.804-.238 1.697 2.59 4.911 4.405 6.727-.298-2.5-1.101-6.638-2.619-7.531-.357-.208-.714-.208-1.131 0z" class="B"/><path d="M46.021 101.754H19.082v19.914h26.939v-19.914z" fill-opacity=".57" class="F"/><path d="M46.02 122.114H19.081a.46.46 0 0 1-.447-.447v-19.943a.46.46 0 0 1 .447-.447H46.02a.46.46 0 0 1 .447.447v19.943c0 .268-.208.447-.447.447zm-26.492-.893h26.046V102.17H19.528v19.051z" class="B"/><path d="M148.059 121.699l27.593-55.961h74.297l-24.438 55.961h-77.452z" fill="url(#A)"/><path d="M225.54 122.147h-77.482c-.149 0-.298-.089-.387-.208s-.089-.298-.03-.447l27.594-55.961c.089-.149.238-.238.387-.238h74.327c.148 0 .297.089.387.208a.42.42 0 0 1 .029.417l-24.438 55.961c-.059.179-.208.268-.387.268zm-76.768-.893h76.47l24.052-55.068h-73.345l-27.177 55.068z" class="C"/><path d="M205.865 91.037s-2.858-.774-4.882.655c-.893.625-3.662 2.768-2.203 4.584s4.167.238 5.209-1.34c1.042-1.607 1.876-3.899 1.876-3.899z" class="B"/><path d="M200.447 97.499c-.804 0-1.488-.327-2.024-.982a2.15 2.15 0 0 1-.476-1.726c.208-1.488 1.845-2.858 2.768-3.513 2.173-1.518 5.12-.744 5.269-.714.119.03.208.119.268.238a.5.5 0 0 1 .029.357c-.029.089-.863 2.381-1.934 3.989-.745 1.131-2.292 2.292-3.781 2.352h-.119zm3.602-6.221c-.863 0-1.935.149-2.828.774-.536.357-2.232 1.667-2.411 2.917-.06.387.06.714.298 1.042a1.6 1.6 0 0 0 1.399.625c1.19-.06 2.47-1.042 3.066-1.965.714-1.101 1.339-2.56 1.637-3.304-.268-.059-.685-.089-1.161-.089z" class="C"/><path d="M283.437 116.459h-.06c-.238-.029-.417-.267-.387-.506l9.764-75.517-44.204-24.081c-.208-.119-.297-.387-.178-.595s.387-.298.595-.179l44.501 24.23c.149.089.238.268.238.447l-9.823 75.816c-.03.238-.238.386-.446.386z" class="B D"/><path d="M248.759 15.97l-21.521 9.109 21.937 13.633-.416-22.742z" class="D F"/><path d="M249.175 39.157c-.089 0-.148-.03-.238-.059l-21.938-13.633c-.148-.089-.208-.238-.208-.417s.119-.298.268-.387l21.521-9.108c.149-.06.298-.03.417.03.119.089.208.208.208.357l.417 22.742c0 .149-.089.327-.238.387a.27.27 0 0 1-.209.089zm-20.955-13.99l20.509 12.74-.387-21.253-20.122 8.513z" class="B"/><path d="M237.926 38.469c3.155 0 5.685-2.56 5.685-5.685 0-3.155-2.56-5.685-5.685-5.685-3.156 0-5.686 2.56-5.686 5.685s2.53 5.685 5.686 5.685z" class="C"/><path d="M237.925 38.916c-3.394 0-6.132-2.739-6.132-6.132s2.738-6.132 6.132-6.132 6.132 2.739 6.132 6.132c0 3.364-2.739 6.132-6.132 6.132zm0-11.401a5.25 5.25 0 0 0-5.239 5.239 5.25 5.25 0 0 0 5.239 5.239 5.25 5.25 0 0 0 5.239-5.239 5.25 5.25 0 0 0-5.239-5.239z" class="B"/><path d="M297.666 115.238h-28.874v6.132h28.903v-6.132h-.029z" fill-opacity=".57" class="F"/><g class="B"><path d="M297.666 121.845h-28.874a.46.46 0 0 1-.446-.446v-6.132a.46.46 0 0 1 .446-.447h28.904a.46.46 0 0 1 .446.447v6.132c-.03.238-.208.446-.476.446zm-28.427-.893h28.01v-5.239h-28.01v5.239z"/><path d="M85.995 23.38a11.49 11.49 0 0 1-5.804-1.578 11.71 11.71 0 0 1-4.286-15.955C77.452 3.139 79.983 1.204 82.989.4s6.162-.387 8.87 1.161 4.644 4.078 5.447 7.084a11.7 11.7 0 0 1-1.161 8.87c-1.548 2.708-4.078 4.644-7.084 5.447a11.01 11.01 0 0 1-3.066.417zm.03-22.444a11.27 11.27 0 0 0-2.798.357c-2.768.744-5.12 2.53-6.549 5.031-2.977 5.15-1.191 11.758 3.959 14.734a10.77 10.77 0 0 0 8.186 1.072c2.768-.744 5.12-2.53 6.549-5.031a10.77 10.77 0 0 0 1.072-8.186c-.744-2.768-2.53-5.12-5.031-6.549A10.82 10.82 0 0 0 86.025.936zM86.74 17.1a.38.38 0 0 1-.298-.119l-4.554-4.257a.46.46 0 0 1-.03-.625.46.46 0 0 1 .625-.03l4.584 4.257a.46.46 0 0 1 .03.625.47.47 0 0 1-.357.149zm4.019-1.341c-.208 0-.387-.149-.447-.357l-.982-5.537c-.03-.238.119-.476.357-.506a.42.42 0 0 1 .506.357l.982 5.537c.03.238-.119.476-.357.506h-.06zm-9.644-5.562c-.238 0-.447-.179-.447-.417 0-.089-.059-2.381 1.369-3.096.982-.476 1.905.208 2.471.923.566-.833 1.637-2.232 2.739-2.381 1.28-.179 2.352 1.816 2.56 2.232.119.208.03.476-.208.595-.208.119-.476.03-.595-.208-.387-.774-1.161-1.786-1.637-1.726-.804.119-1.935 1.607-2.471 2.53-.089.149-.238.208-.387.208a.51.51 0 0 1-.387-.208c0-.03-.923-1.548-1.726-1.161-.923.446-.863 2.232-.863 2.262.03.208-.149.417-.417.446z" class="D"/></g><path d="M85.43 26.476c-.238 0-.447-.03-.595-.089-1.518-.685-1.399-3.364-1.399-3.691 0-.119.059-.238.179-.327.089-.089.208-.119.357-.089.03 0 3.959.566 6.072-.566 2.203-1.22 4.941-3.155 4.971-3.155.179-.119.447-.089.595.06.208.238 1.994 2.381.982 3.751-.834 1.131-8.603 4.108-11.163 4.108zm-1.072-3.215c.03.804.208 2.054.863 2.322 1.012.447 9.853-2.649 10.656-3.721.417-.566-.238-1.697-.685-2.322-.804.566-2.917 1.994-4.703 2.977-1.935 1.042-4.941.863-6.132.744z" fill="#fffefe" class="D"/><g class="B D"><path d="M88.288 28.859h-.208c-.744-.03-1.28-.238-1.548-.655-.595-.863-.536-1.518-.387-1.905.179-.476.625-.833 1.191-1.012l7.561-2.351c.119-.03.268-.03.387.059.149.089 1.369.923 1.548 1.935.06.417-.03.804-.298 1.131-.863 1.042-5.715 2.798-8.245 2.798zm6.668-5.001l-7.412 2.322c-.208.06-.506.179-.595.447-.119.268 0 .655.298 1.101.03.059.208.208.834.238 2.381.119 7.144-1.756 7.739-2.471.119-.149.149-.268.119-.417-.059-.476-.625-.982-.982-1.221z"/><path d="M92.484 33.172c-.268 0-.447-.06-.566-.119-.655-.476-2.114-3.453-2.53-4.376a.38.38 0 0 1 0-.357c.059-.119.149-.208.268-.238l5.537-1.816c.119-.03.238-.03.327.03.119.059.179.149.208.268l1.518 4.644c.059.208-.03.447-.238.536-2.5 1.101-3.81 1.429-4.525 1.429zm-.059-.863c.417.089 2.262-.536 3.87-1.22l-1.25-3.84-4.644 1.518 2.024 3.542z"/></g><defs><linearGradient id="A" x1="148.059" y1="93.853" x2="249.949" y2="93.853" gradientUnits="userSpaceOnUse"><stop stop-color="#6366f1"/><stop offset=".5" stop-color="#8b5cf6"/><stop offset="1" stop-color="#d946ef"/></linearGradient></defs></svg>