<svg xmlns="http://www.w3.org/2000/svg" width="40" height="41" fill="none" xmlns:v="https://vecta.io/nano"><g clip-path="url(#A)"><path d="M23.162 26.797a14.83 14.83 0 0 0-3.116-1.663c1.454-1.322 2.419-3.173 2.587-5.246a11.64 11.64 0 0 1 8.195-3.327c2.419 0 4.742.729 6.717 2.106a1.56 1.56 0 0 0 1.788-2.562 14.85 14.85 0 0 0-3.117-1.663 7.95 7.95 0 0 0 2.613-5.895A7.98 7.98 0 0 0 30.861.578a7.98 7.98 0 0 0-7.968 7.968c0 2.325 1.001 4.42 2.594 5.878a14.77 14.77 0 0 0-.65.267 14.84 14.84 0 0 0-2.752 1.581c-1.179-2.929-4.049-5.001-7.395-5.001a7.98 7.98 0 0 0-7.968 7.967c0 2.318.995 4.408 2.58 5.865C5.065 26.691 1.629 30.101.23 34.45a4.64 4.64 0 0 0 .674 4.197 4.64 4.64 0 0 0 3.788 1.927h13.592c.863 0 1.562-.7 1.562-1.562s-.7-1.562-1.562-1.562H4.692c-.505 0-.965-.234-1.263-.642a1.55 1.55 0 0 1-.225-1.399c1.544-4.801 6.254-8.154 11.452-8.154 2.419 0 4.742.729 6.718 2.106.708.494 1.681.32 2.175-.388a1.56 1.56 0 0 0-.388-2.175zm7.699-23.094a4.85 4.85 0 0 1 4.843 4.843 4.85 4.85 0 0 1-4.843 4.843 4.85 4.85 0 0 1-4.843-4.843 4.85 4.85 0 0 1 4.843-4.843zm-16.17 10.692a4.85 4.85 0 0 1 4.843 4.843 4.85 4.85 0 0 1-4.843 4.843 4.85 4.85 0 0 1-4.843-4.843 4.85 4.85 0 0 1 4.843-4.843zM40 33.152c0 .863-.7 1.562-1.562 1.562h-4.296v4.296c0 .863-.699 1.563-1.562 1.563s-1.562-.7-1.562-1.562v-4.296h-4.296c-.863 0-1.562-.7-1.562-1.562s.699-1.562 1.562-1.562h4.296v-4.296c0-.863.7-1.562 1.563-1.562s1.562.7 1.562 1.562v4.296h4.296c.863 0 1.563.699 1.563 1.562z" fill="#fff"/></g><defs><clipPath id="A"><path fill="#fff" transform="translate(0 .5)" d="M0 0h40v40H0z"/></clipPath></defs></svg>