<svg xmlns="http://www.w3.org/2000/svg" width="40" height="41" fill="none" xmlns:v="https://vecta.io/nano"><g clip-path="url(#A)" fill="#fff"><path d="M9.375 16.359H6.288A13.77 13.77 0 0 1 20 3.625a13.81 13.81 0 0 1 12.9 8.98c.299.809 1.198 1.223 2.008.923a1.56 1.56 0 0 0 .923-2.008 16.83 16.83 0 0 0-6.084-7.922C26.887 1.571 23.517.5 20 .5A16.76 16.76 0 0 0 8.068 5.443a16.76 16.76 0 0 0-4.94 11.756C1.26 18.281 0 20.3 0 22.609v5.313a6.26 6.26 0 0 0 6.25 6.25h3.125c.863 0 1.563-.7 1.563-1.562V17.922c0-.863-.7-1.562-1.562-1.562zM7.813 31.047H6.25a3.13 3.13 0 0 1-3.125-3.125V22.61a3.13 3.13 0 0 1 3.125-3.125h1.563v11.563zM33.75 16.359h-3.125c-.863 0-1.562.7-1.562 1.563v10.703 3.984 1.641c0 .862-.701 1.563-1.562 1.563h-4.766v.05c-.533-.961-1.558-1.612-2.734-1.612-1.726 0-3.125 1.399-3.125 3.125S18.274 40.5 20 40.5c1.177 0 2.201-.651 2.734-1.612v.05H27.5c2.585 0 4.688-2.103 4.688-4.687v-.078h1.563a6.26 6.26 0 0 0 6.25-6.25v-5.312a6.26 6.26 0 0 0-6.25-6.25zm3.125 11.563a3.13 3.13 0 0 1-3.125 3.125h-1.562v-2.422-9.141h1.563a3.13 3.13 0 0 1 3.125 3.125v5.313z"/></g><defs><clipPath id="A"><path fill="#fff" transform="translate(0 .5)" d="M0 0h40v40H0z"/></clipPath></defs></svg>