<svg xmlns="http://www.w3.org/2000/svg" width="40" height="41" fill="none" xmlns:v="https://vecta.io/nano"><g clip-path="url(#A)" fill="#fff"><path d="M19.999 17.168a5 5 0 1 0 0-10 5 5 0 1 0 0 10zm0-6.667c.921 0 1.667.745 1.667 1.667s-.745 1.667-1.667 1.667-1.667-.745-1.667-1.667.745-1.667 1.667-1.667zm-2.168 21.055l.678 1.356a1.67 1.67 0 0 0 2.982 0l1.437-2.875c1.443-2.883 2.808-5.158 5.919-10.048l.081-.127.941-1.481a11.58 11.58 0 0 0 1.798-6.213c0-6.956-6.043-12.384-13.03-11.589-5.199.593-9.468 4.753-10.187 9.932-.431 3.1.36 6.125 2.15 8.556 2.409 3.265 4.264 6.557 7.232 12.491zm-6.08-20.588c.51-3.671 3.575-6.658 7.263-7.078 5.004-.57 9.319 3.307 9.319 8.277 0 1.593-.448 3.114-1.281 4.43l-.937 1.475-.081.127c-3.137 4.93-4.546 7.275-6.038 10.246-2.593-5.107-4.396-8.216-6.714-11.358-1.279-1.737-1.842-3.889-1.532-6.12zm18.63 13.989c-.896-.212-1.794.341-2.006 1.237s.341 1.794 1.237 2.006c4.47 1.06 7.055 2.756 7.055 3.967 0 2.303-7.418 5-16.667 5s-16.667-2.697-16.667-5c0-1.212 2.582-2.907 7.05-3.967.896-.212 1.45-1.111 1.237-2.006a1.67 1.67 0 0 0-2.006-1.237C3.766 26.344 0 28.816 0 32.167 0 37.229 8.995 40.5 20 40.5s20-3.271 20-8.333c0-3.35-3.768-5.823-9.619-7.21z"/></g><defs><clipPath id="A"><path fill="#fff" transform="translate(0 .5)" d="M0 0h40v40H0z"/></clipPath></defs></svg>