<svg width="24" height="25" viewBox="0 0 24 25" fill="none" xmlns="http://www.w3.org/2000/svg">
<path fill-rule="evenodd" clip-rule="evenodd" d="M10.4408 1.5803C10.8092 1.42305 11.2359 1.50081 11.5251 1.77791C12.2702 2.49168 13.2236 4.07755 13.697 5.89742C14.1032 7.45931 14.193 9.34439 13.3613 11.089C13.5124 11.1264 13.6221 11.1049 13.7234 11.0661C14.1134 10.9168 14.7776 10.3512 15.8173 8.67808C15.9818 8.41343 16.2602 8.24056 16.5704 8.21056C16.8805 8.18055 17.1869 8.29683 17.3991 8.52504C18.0547 9.23032 18.6929 10.3108 19.1648 11.4067C19.6338 12.4957 20 13.7417 20 14.7941C20 16.8521 19.1462 18.8165 17.6415 20.258C16.1383 21.6981 14.1082 22.5 12 22.5C9.89179 22.5 7.86174 21.6981 6.35848 20.258C4.85376 18.8165 4 16.8521 4 14.7941C4 12.564 5.00707 10.0929 6.63175 8.49332L6.63233 8.49275C6.67011 8.45562 6.70807 8.41835 6.74619 8.38093C8.18162 6.97199 9.83333 5.35074 9.83333 2.50002C9.83333 2.09946 10.0724 1.73755 10.4408 1.5803ZM11.3803 5.26599C10.6609 7.35054 9.23432 8.74541 8.21382 9.74326C8.15265 9.80308 8.09293 9.86147 8.03491 9.9185C6.79893 11.1354 6 13.0901 6 14.7941C6 16.2932 6.62124 17.7401 7.74203 18.8138C8.86427 19.8889 10.3952 20.5 12 20.5C13.6048 20.5 15.1357 19.8889 16.258 18.8138C17.3788 17.7401 18 16.2932 18 14.7941C18 14.1343 17.7502 13.1786 17.3279 12.1977C17.1345 11.7486 16.9179 11.3243 16.6969 10.9503C15.9521 11.9546 15.2238 12.6333 14.4384 12.9339C13.197 13.4092 12.1635 12.8467 11.379 12.225C10.9631 11.8954 10.877 11.2984 11.1828 10.8648C12.1183 9.5385 12.1568 7.92107 11.7614 6.40087C11.6566 5.99822 11.5251 5.61689 11.3803 5.26599Z" fill="url(#paint0_linear_3959_18847)"/>
<defs>
<linearGradient id="paint0_linear_3959_18847" x1="4" y1="12.0503" x2="20" y2="12.0503" gradientUnits="userSpaceOnUse">
<stop stop-color="#6366F1"/>
<stop offset="0.5" stop-color="#8B5CF6"/>
<stop offset="1" stop-color="#D946EF"/>
</linearGradient>
</defs>
</svg>
