<svg width="1920" height="990" viewBox="0 0 1920 990" fill="none" xmlns="http://www.w3.org/2000/svg">
<g clip-path="url(#clip0_4424_17499)">
<rect width="1920" height="990" fill="url(#paint0_radial_4424_17499)"/>
<g opacity="0.15" filter="url(#filter0_f_4424_17499)">
<ellipse rx="346.044" ry="138.506" transform="matrix(-0.995683 -0.0928218 -0.123066 0.992398 1321.6 624.571)" fill="#6366F1"/>
</g>
<g opacity="0.15" filter="url(#filter1_f_4424_17499)">
<ellipse rx="420.946" ry="242.503" transform="matrix(-0.998433 -0.0559618 -0.0743519 0.997232 1481.81 350.389)" fill="white"/>
</g>
<g clip-path="url(#clip1_4424_17499)">
<path d="M-0.963013 990H-1.6051H-0.963013ZM0.160522 990L524.733 976.522C524.893 981.015 524.893 985.507 524.893 990H6.10352e-05H0.160522ZM-0.80249 990H-0.963013H-1.6051H-0.80249ZM-0.1604 990H6.10352e-05H0.160522H0.321106H0.481628L520.399 922.288C521.522 931.274 522.485 940.42 523.288 949.566L0.321106 990H0.160522H-0.1604H-0.642029H-0.1604ZM510.447 867.895C512.533 876.88 514.459 885.865 516.225 894.851L0.481628 989.84L510.447 867.895ZM-0.1604 990H0.160522H0.321106H-0.1604ZM494.716 814.784C497.766 823.449 500.655 832.274 503.223 841.099L0.321106 989.84L494.716 814.784ZM473.688 763.76C477.701 772.104 481.393 780.447 484.924 788.951L0.481628 989.679L473.688 763.76ZM6.10352e-05 990H0.160522H6.10352e-05ZM447.363 715.464C452.179 723.326 456.673 731.188 461.168 739.211L0.642212 989.84L447.363 715.464ZM6.10352e-05 990L0.160522 989.84L6.10352e-05 990ZM0.160522 990L416.223 670.376C421.841 677.596 427.138 684.977 432.274 692.519L0.321106 989.84L0.160522 990ZM6.10352e-05 990L380.748 628.818C387.008 635.397 393.108 642.136 399.047 649.196L6.10352e-05 990ZM6.10352e-05 989.84L341.1 591.112C348.003 597.049 354.744 603.146 361.486 609.404L6.10352e-05 989.84ZM6.10352e-05 989.84V989.679L297.6 557.898C305.144 563.032 312.528 568.488 319.751 573.943L6.10352e-05 989.84ZM0.160522 989.519L250.889 529.016C258.915 533.348 266.941 538.002 274.646 542.815L0.160522 989.519ZM200.968 505.269C209.476 508.799 217.823 512.489 226.17 516.501L6.10352e-05 989.519L200.968 505.269ZM148.961 486.817C157.789 489.384 166.617 492.272 175.285 495.321L0.160522 989.358L148.961 486.817ZM6.10352e-05 990V989.84V990ZM95.1871 473.981C104.337 475.585 113.326 477.511 122.154 479.757L0.160522 989.519L95.1871 473.981ZM6.10352e-05 990V989.84V990ZM6.10352e-05 990V989.84V989.679L40.7716 466.921C49.9211 467.562 58.9101 468.525 68.0596 469.809L0.321106 989.519V989.679V989.84L6.10352e-05 990ZM6.10352e-05 990V465.316C4.49457 465.316 8.98914 465.316 13.4836 465.477L6.10352e-05 989.84V990ZM6.10352e-05 465.316V990H-0.1604H-0.642029H-0.80249H-0.963013H-1.6051V465.316H6.10352e-05ZM0.160522 990L524.733 976.522L990.073 964.488C990.234 972.992 990.395 981.496 990.395 990H6.10352e-05H0.160522ZM-0.80249 990H-0.963013H-1.6051H-0.80249ZM-0.1604 990H6.10352e-05H0.160522H0.321106H0.481628L520.559 922.128L982.048 861.958C984.295 878.966 986.061 896.135 987.345 913.303L523.288 949.245L0.321106 990H0.160522H-0.1604H-0.642029H-0.1604ZM0.481628 989.84L510.447 867.895L963.107 759.588C967.119 776.436 970.811 793.444 973.861 810.613L516.065 894.851L0.481628 989.84ZM-0.1604 990H6.10352e-05H-0.1604ZM494.716 814.784L933.571 659.465C939.35 675.831 944.807 692.358 949.623 709.045L503.223 841.099L0.321106 989.84L494.716 814.784ZM6.10352e-05 990H0.160522H6.10352e-05ZM473.688 763.76L893.602 563.193C901.147 578.757 908.209 594.642 914.791 610.848L484.764 789.112L0.321106 989.84L473.688 763.76ZM447.363 715.464L844.002 472.055C852.991 486.817 861.659 501.739 870.006 516.982L0.481628 989.84L447.363 715.464ZM6.10352e-05 990L0.160522 989.84L6.10352e-05 990ZM0.160522 990L416.223 670.376L785.413 386.854C795.847 400.493 805.96 414.452 815.912 428.572L432.435 692.519L0.481628 989.84L0.160522 990ZM0.160522 990L380.748 628.818L718.317 308.392C730.195 320.908 741.592 333.583 752.828 346.741L399.047 649.036L0.160522 990ZM6.10352e-05 989.84L341.1 591.112L643.516 237.472C656.678 248.703 669.359 260.096 681.879 271.969L361.326 609.404L6.10352e-05 989.84ZM6.10352e-05 989.84V989.679L297.6 557.898L561.652 174.574C575.938 184.361 589.742 194.47 603.386 205.06L319.751 574.104L6.10352e-05 989.84ZM0.160522 989.519L473.206 120.34C488.456 128.684 503.384 137.348 518.151 146.334L274.485 542.815L0.160522 989.519ZM200.968 505.269L379.303 75.4133C395.355 82.1524 411.247 89.2123 426.977 96.5932L226.33 516.501L0.160522 989.519L200.968 505.269ZM148.961 486.817L280.906 40.5948C297.6 45.5689 314.294 50.8639 330.506 56.6402L175.125 495.321L6.10352e-05 989.358L148.961 486.817ZM6.10352e-05 990V989.84V990ZM0.160522 989.519L95.1871 473.981L179.459 16.3663C196.634 19.5754 213.649 23.1053 230.504 27.1167L122.154 479.596L0.160522 989.519ZM6.10352e-05 990V989.84V990ZM6.10352e-05 990V989.84V989.679L40.7716 466.921L76.7275 2.88817C93.903 4.1718 111.078 6.09724 128.093 8.18314L67.899 469.648L6.10352e-05 989.519V989.679V989.84V990ZM6.10352e-05 990V0C8.50751 0 17.015 0.160454 25.5225 0.320908L13.4836 465.477L6.10352e-05 989.84V990ZM6.10352e-05 0V990H-0.1604H-0.642029H-0.80249H-0.963013H-1.6051V0H6.10352e-05Z" fill="url(#paint1_radial_4424_17499)"/>
</g>
</g>
<defs>
<filter id="filter0_f_4424_17499" x="626.616" y="133.383" width="1389.96" height="982.376" filterUnits="userSpaceOnUse" color-interpolation-filters="sRGB">
<feFlood flood-opacity="0" result="BackgroundImageFix"/>
<feBlend mode="normal" in="SourceGraphic" in2="BackgroundImageFix" result="shape"/>
<feGaussianBlur stdDeviation="175" result="effect1_foregroundBlur_4424_17499"/>
</filter>
<filter id="filter1_f_4424_17499" x="611.131" y="-342.605" width="1741.36" height="1385.99" filterUnits="userSpaceOnUse" color-interpolation-filters="sRGB">
<feFlood flood-opacity="0" result="BackgroundImageFix"/>
<feBlend mode="normal" in="SourceGraphic" in2="BackgroundImageFix" result="shape"/>
<feGaussianBlur stdDeviation="225" result="effect1_foregroundBlur_4424_17499"/>
</filter>
<radialGradient id="paint0_radial_4424_17499" cx="0" cy="0" r="1" gradientUnits="userSpaceOnUse" gradientTransform="translate(1407.5 310.86) rotate(-46.4358) scale(2362.27 1232.19)">
<stop stop-color="#6387F1" stop-opacity="0.1"/>
<stop offset="0.524709" stop-color="#DA46EF" stop-opacity="0.05"/>
<stop offset="1" stop-color="#6387F1" stop-opacity="0.1"/>
</radialGradient>
<radialGradient id="paint1_radial_4424_17499" cx="0" cy="0" r="1" gradientUnits="userSpaceOnUse" gradientTransform="translate(-34.798 1048.81) rotate(-46.0678) scale(1058.92 1061.02)">
<stop stop-color="#6366F1" stop-opacity="0.05"/>
<stop offset="1" stop-color="white" stop-opacity="0"/>
</radialGradient>
<clipPath id="clip0_4424_17499">
<rect width="1920" height="990" fill="white"/>
</clipPath>
<clipPath id="clip1_4424_17499">
<rect width="992" height="990" fill="white" transform="matrix(-1 0 0 1 992 0)"/>
</clipPath>
</defs>
</svg>
