<svg width="44" height="28" viewBox="0 0 44 28" fill="none" xmlns="http://www.w3.org/2000/svg">
<path fill-rule="evenodd" clip-rule="evenodd" d="M17.4927 18.4705C15.9362 19.6649 13.6776 20.2998 11.7349 20.2998C9.01046 20.2998 6.55754 19.2538 4.70147 17.5121C4.55636 17.3759 4.68509 17.1886 4.86063 17.2932C6.86416 18.5046 9.34048 19.2343 11.8987 19.2343C13.6237 19.2343 15.5219 18.8622 17.2656 18.0935C17.5301 17.9767 17.7501 18.2735 17.4927 18.4705Z" fill="#F8991D"/>
<path fill-rule="evenodd" clip-rule="evenodd" d="M18.1431 17.7008C17.9441 17.4357 16.8277 17.5743 16.3245 17.6376C16.1723 17.657 16.1489 17.5184 16.2847 17.4187C17.1764 16.7692 18.6369 16.9565 18.8055 17.173C18.9763 17.3919 18.761 18.9147 17.9254 19.6395C17.7967 19.7514 17.675 19.6906 17.7311 19.5447C17.9207 19.0582 18.342 17.966 18.1431 17.7008Z" fill="#F8991D"/>
<path fill-rule="evenodd" clip-rule="evenodd" d="M16.358 12.8228V12.1903C16.358 12.093 16.4282 12.0298 16.5125 12.0298H19.2392C19.3258 12.0298 19.3961 12.0955 19.3961 12.1903V12.7328C19.3961 12.8228 19.3212 12.942 19.1901 13.1317L17.7787 15.2261C18.303 15.214 18.8577 15.2942 19.3329 15.574C19.4405 15.6372 19.4686 15.7296 19.478 15.8196V16.4935C19.478 16.5859 19.3797 16.6929 19.2767 16.637C18.4388 16.1797 17.3246 16.131 16.3954 16.6418C16.2995 16.6954 16.2012 16.5883 16.2012 16.4959V15.8537C16.2012 15.7515 16.2035 15.5764 16.3018 15.4183L17.9379 12.9785H16.5125C16.4282 12.9809 16.358 12.9177 16.358 12.8228Z" fill="#333E47"/>
<path fill-rule="evenodd" clip-rule="evenodd" d="M6.41156 16.7714H5.583C5.50342 16.7666 5.44023 16.7033 5.43555 16.6255V12.2007C5.43555 12.1132 5.5081 12.0426 5.59471 12.0426H6.36709C6.44901 12.0475 6.51221 12.1107 6.51689 12.191V12.7675H6.53327C6.73456 12.208 7.11374 11.9478 7.62398 11.9478C8.14359 11.9478 8.46893 12.208 8.70064 12.7675C8.90193 12.208 9.35834 11.9478 9.84752 11.9478C10.1963 11.9478 10.5754 12.0961 10.8072 12.4318C11.0693 12.804 11.0155 13.344 11.0155 13.8184V16.6109C11.0155 16.6985 10.9429 16.769 10.8563 16.769H10.0277C9.94349 16.7641 9.87795 16.696 9.87795 16.6109V14.2659C9.87795 14.0811 9.89433 13.614 9.85454 13.4389C9.79369 13.1397 9.60644 13.057 9.36771 13.057C9.16642 13.057 8.95811 13.1956 8.8715 13.4194C8.78724 13.6432 8.79427 14.0154 8.79427 14.2659V16.6109C8.79427 16.6985 8.72171 16.769 8.63511 16.769H7.80654C7.72228 16.7641 7.65675 16.696 7.65675 16.6109V14.2659C7.65675 13.7721 7.73399 13.0473 7.1465 13.0473C6.54966 13.0473 6.57306 13.7551 6.57306 14.2659V16.6109C6.57306 16.7009 6.50051 16.7714 6.41156 16.7714Z" fill="#333E47"/>
<path fill-rule="evenodd" clip-rule="evenodd" d="M21.7517 12.8517C21.1409 12.8517 21.1011 13.7177 21.1011 14.2577C21.1011 14.7977 21.0941 15.9507 21.7447 15.9507C22.3884 15.9507 22.4188 15.0191 22.4188 14.4523C22.4188 14.0801 22.4024 13.6325 22.2948 13.2798C22.1988 12.9709 22.0139 12.8517 21.7517 12.8517ZM21.7424 11.9492C22.9735 11.9492 23.6382 13.0487 23.6382 14.445C23.6382 15.795 22.9033 16.8653 21.7424 16.8653C20.5347 16.8653 19.877 15.7658 19.877 14.3988C19.877 13.0195 20.544 11.9492 21.7424 11.9492Z" fill="#333E47"/>
<path fill-rule="evenodd" clip-rule="evenodd" d="M25.2358 16.7705H24.4096C24.3276 16.7656 24.2598 16.6975 24.2598 16.6124V12.1852C24.2668 12.1049 24.3347 12.0417 24.4189 12.0417H25.189C25.2615 12.0465 25.32 12.0976 25.3364 12.1657V12.842H25.3528C25.5845 12.2363 25.9099 11.9492 26.4833 11.9492C26.8555 11.9492 27.2182 12.0879 27.45 12.4698C27.6676 12.8225 27.6676 13.4185 27.6676 13.8466V16.6294C27.6583 16.7072 27.5904 16.768 27.5085 16.768H26.6776C26.6003 16.7632 26.5395 16.7048 26.5301 16.6294V14.2285C26.5301 13.7444 26.5839 13.0366 26.0105 13.0366C25.8092 13.0366 25.6243 13.1752 25.5307 13.3893C25.4137 13.6593 25.3996 13.9293 25.3996 14.2285V16.6099C25.3949 16.6999 25.3247 16.7705 25.2358 16.7705Z" fill="#333E47"/>
<path fill-rule="evenodd" clip-rule="evenodd" d="M15.0252 16.7577C14.9714 16.8088 14.8918 16.8112 14.8286 16.7771C14.5524 16.5387 14.5033 16.4293 14.3535 16.2031C13.8994 16.6847 13.5764 16.8307 12.9866 16.8307C12.2891 16.8307 11.7461 16.3831 11.7461 15.4879C11.7461 14.7873 12.1112 14.313 12.6308 14.0795C13.0802 13.8751 13.7098 13.8362 14.1896 13.7803V13.6684C14.1896 13.464 14.206 13.2208 14.089 13.0432C13.9884 12.8851 13.7941 12.8194 13.6232 12.8194C13.3073 12.8194 13.0264 12.9873 12.9562 13.3375C12.9421 13.4154 12.8883 13.4932 12.8134 13.4957L12.0082 13.4057C11.9404 13.3886 11.8655 13.3327 11.8842 13.2257C12.0668 12.2259 12.9257 11.9145 13.7051 11.9072H13.766C14.1662 11.9121 14.6765 12.0264 14.9854 12.3354C15.388 12.727 15.3506 13.25 15.3506 13.8192V15.1619C15.3506 15.5657 15.5121 15.7433 15.6642 15.9598C15.718 16.0376 15.7297 16.1325 15.6619 16.1885C15.4933 16.3368 15.1914 16.6069 15.0252 16.7577ZM14.1873 14.656C14.1873 14.9917 14.1943 15.2714 14.0328 15.5706C13.9018 15.8139 13.6911 15.9622 13.4594 15.9622C13.1411 15.9622 12.9562 15.7093 12.9562 15.3371C12.9562 14.6025 13.5905 14.4687 14.1896 14.4687V14.656H14.1873Z" fill="#333E47"/>
<path fill-rule="evenodd" clip-rule="evenodd" d="M4.14828 16.7611C4.09445 16.8122 4.01487 16.8146 3.95167 16.7805C3.67548 16.5422 3.62633 16.4327 3.47654 16.2065C3.02012 16.6881 2.69947 16.8341 2.10964 16.8341C1.41215 16.8341 0.869141 16.3865 0.869141 15.4913C0.869141 14.7907 1.23427 14.3164 1.75388 14.0829C2.20327 13.8785 2.83288 13.8396 3.3127 13.7837V13.6718C3.3127 13.4674 3.32908 13.2242 3.21205 13.0466C3.11141 12.8885 2.91714 12.8228 2.74628 12.8228C2.4303 12.8228 2.14943 12.9907 2.07922 13.341C2.06517 13.4188 2.01134 13.4942 1.93644 13.4991L1.13128 13.4091C1.06341 13.392 0.98851 13.3361 1.00723 13.2266C1.1898 12.2269 2.04879 11.9155 2.8282 11.9082H2.88905C3.28929 11.9131 3.79953 12.0274 4.10849 12.3363C4.51107 12.728 4.47362 13.251 4.47362 13.8202V15.1629C4.47362 15.5667 4.63512 15.7443 4.78726 15.9608C4.84109 16.0386 4.85279 16.1335 4.78491 16.1894C4.61873 16.3403 4.3168 16.6103 4.14828 16.7611ZM3.3127 14.6594C3.3127 14.9951 3.31972 15.2748 3.15822 15.574C3.02715 15.8173 2.8165 15.9656 2.58478 15.9656C2.26646 15.9656 2.08156 15.7127 2.08156 15.3405C2.08156 14.6059 2.71585 14.4721 3.31504 14.4721V14.6594H3.3127Z" fill="#333E47"/>
<path fill-rule="evenodd" clip-rule="evenodd" d="M39.0075 18.3578C39.0075 18.2459 39.0075 18.1461 39.0075 18.0318C39.0075 17.9394 39.052 17.8761 39.1433 17.881C39.3165 17.9078 39.5622 17.9321 39.7354 17.8956C39.9625 17.8469 40.1263 17.6791 40.2223 17.4504C40.358 17.1269 40.447 16.8666 40.5055 16.6964L38.7805 12.2546C38.7524 12.1792 38.743 12.0381 38.8882 12.0381H39.492C39.6067 12.0381 39.6535 12.1135 39.6793 12.1889L40.9291 15.7963L42.1228 12.1889C42.1462 12.1159 42.1954 12.0381 42.3101 12.0381H42.8788C43.0216 12.0381 43.0146 12.1767 42.9865 12.2546L41.2755 16.835C41.0532 17.4456 40.7583 18.4161 40.0936 18.584C39.7612 18.674 39.3399 18.6424 39.0941 18.5353C39.0309 18.5037 39.0075 18.4161 39.0075 18.3578Z" fill="#333E47"/>
<path fill-rule="evenodd" clip-rule="evenodd" d="M38.2002 16.5022C38.2002 16.5849 38.1347 16.653 38.0551 16.653H37.6291C37.5378 16.653 37.4746 16.5849 37.4629 16.5022L37.4208 16.2006C37.2242 16.3733 36.9855 16.5241 36.7257 16.6287C36.2248 16.8306 35.649 16.8647 35.1598 16.5533C34.8064 16.3271 34.6191 15.8868 34.6191 15.4319C34.6191 15.0792 34.7245 14.7314 34.9538 14.4784C35.2628 14.133 35.7098 13.9627 36.2505 13.9627C36.5759 13.9627 37.044 14.0016 37.3834 14.1184V13.5102C37.3834 12.8948 37.1329 12.6272 36.4752 12.6272C35.972 12.6272 35.5881 12.7051 35.0521 12.8778C34.9655 12.8802 34.9164 12.8121 34.9164 12.7294V12.3888C34.9164 12.3061 34.9843 12.2259 35.0592 12.2015C35.4407 12.0288 35.9814 11.9194 36.5571 11.8999C37.3061 11.8999 38.1979 12.075 38.1979 13.2743V16.5022H38.2002ZM37.3834 15.6168V14.7022C37.0978 14.6219 36.625 14.5878 36.4424 14.5878C36.1546 14.5878 35.8362 14.6584 35.6724 14.8433C35.5483 14.9795 35.4922 15.1741 35.4922 15.3614C35.4922 15.6046 35.5741 15.8479 35.7613 15.9695C35.9814 16.1252 36.3207 16.1057 36.6414 16.0109C36.9504 15.9209 37.2382 15.7603 37.3834 15.6168Z" fill="#333E47"/>
<path fill-rule="evenodd" clip-rule="evenodd" d="M31.9278 12.6409C32.871 12.6409 33.1285 13.412 33.1285 14.295C33.1332 14.8909 33.0278 15.4212 32.7306 15.7253C32.5082 15.9539 32.2601 16.0148 31.888 16.0148C31.5556 16.0148 31.1179 15.8348 30.7926 15.5842V13.0592C31.132 12.7892 31.565 12.6409 31.9278 12.6409ZM30.6475 18.5154H30.0787C29.9991 18.5154 29.9336 18.4473 29.9336 18.3646C29.9336 16.3091 29.9336 14.2512 29.9336 12.1957C29.9336 12.113 29.9991 12.0449 30.0787 12.0449H30.5141C30.6053 12.0449 30.6685 12.113 30.6802 12.1957L30.727 12.5192C31.1366 12.1422 31.6609 11.9014 32.1618 11.9014C33.5638 11.9014 34.0273 13.103 34.0273 14.3533C34.0273 15.6912 33.3204 16.764 32.129 16.764C31.6258 16.764 31.1554 16.5718 30.7949 16.2361V18.367C30.7926 18.4497 30.727 18.5154 30.6475 18.5154Z" fill="#333E47"/>
</svg>
