<svg width="34" height="28" viewBox="0 0 34 28" fill="none" xmlns="http://www.w3.org/2000/svg">
<g clip-path="url(#clip0_2598_6265)">
<path d="M2.88867 11.4406H4.06571L3.47719 9.93701L2.88867 11.4406Z" fill="#2FABF7"/>
<path d="M17.4941 10.1523C17.3871 10.0986 17.2266 10.0986 17.0661 10.0986H15.9961V10.9578H17.0661C17.2266 10.9578 17.3871 10.9578 17.4941 10.9041C17.6012 10.8504 17.6547 10.6893 17.6547 10.5282C17.7082 10.3134 17.6012 10.206 17.4941 10.1523Z" fill="#228FE0"/>
<path d="M28.9444 8.53955V9.18393L28.6234 8.53955H26.1088V9.18393L25.7878 8.53955H22.3637C21.7752 8.53955 21.2937 8.64695 20.8657 8.86174V8.53955H18.4581V8.86174C18.1906 8.64695 17.8696 8.53955 17.4416 8.53955H8.82778L8.23926 9.88201L7.65074 8.53955H4.92216V9.18393L4.60115 8.53955H2.30057L1.23054 11.0634L0 13.8557H1.23054H2.72859L3.0496 12.9965H3.79862L4.11963 13.8557H7.22273V13.2113L7.49024 13.8557H9.04179L9.3093 13.2113V13.8557H16.746V12.4595H16.853C16.96 12.4595 16.96 12.4595 16.96 12.6206V13.802H20.8122V13.4798C21.1332 13.6409 21.6147 13.802 22.2567 13.802H23.8618L24.1828 12.9428H24.9318L25.2528 13.802H28.3559V12.9965L28.8374 13.802H31.352V8.53955H28.9444ZM10.8608 13.0502H9.95132V10.0968L8.66728 13.0502H7.86475L6.58071 10.0968V13.0502H4.76165L4.38714 12.2447H2.56808L2.24707 13.1039H1.23054L2.83559 9.29133H4.17313L5.67118 12.8891V9.29133H7.11573L8.29276 11.8688L9.3628 9.29133H10.8608V13.0502ZM14.499 10.0968H12.4124V10.7949H14.4455V11.5467H12.4124V12.2984H14.499V13.1039H11.5029V9.29133H14.499V10.0968ZM18.5116 11.6541C18.6186 11.8688 18.6721 12.0299 18.6721 12.3521V13.1039H17.7626V12.6206C17.7626 12.4058 17.7626 12.0836 17.6021 11.8688C17.4416 11.7077 17.281 11.7077 16.96 11.7077H15.997V13.1039H15.0875V9.29133H17.1205C17.6021 9.29133 17.9231 9.29133 18.1906 9.45242C18.4581 9.61352 18.6186 9.88201 18.6186 10.3116C18.6186 10.9023 18.2441 11.2245 17.9766 11.3319C18.2441 11.3856 18.4046 11.5467 18.5116 11.6541ZM20.1166 13.0502H19.2071V9.23763H20.1166V13.0502ZM30.6565 13.0502H29.3724L27.6604 10.2042V13.0502H25.8413L25.5203 12.2447H23.6478L23.3267 13.1039H22.3102C21.8822 13.1039 21.3472 12.9965 21.0262 12.6743C20.7052 12.3521 20.5447 11.9225 20.5447 11.2245C20.5447 10.6875 20.6517 10.1505 21.0262 9.72091C21.2937 9.39872 21.7752 9.29133 22.3637 9.29133H23.2197V10.0968H22.3637C22.0427 10.0968 21.8822 10.1505 21.6682 10.3116C21.5077 10.4727 21.4007 10.7949 21.4007 11.1708C21.4007 11.6004 21.4542 11.8688 21.6682 12.0836C21.8287 12.2447 22.0427 12.2984 22.3102 12.2984H22.6847L23.9153 9.34502H25.2528L26.7509 12.9428V9.34502H28.0884L29.6399 11.9762V9.34502H30.5495V13.0502H30.6565Z" fill="#0571C1"/>
<path d="M23.9688 11.4406H25.1993L24.6108 9.93701L23.9688 11.4406Z" fill="#228FE0"/>
<path d="M14.8735 19.1716V16.1108L13.4824 17.6144L14.8735 19.1716Z" fill="#228FE0"/>
<path d="M9.14844 16.4868V17.1849H11.128V17.9367H9.14844V18.7421H11.342L12.3585 17.6145L11.3955 16.4868H9.14844Z" fill="#2FABF7"/>
<path d="M16.9067 16.4873H15.7832V17.4539H16.9602C17.2813 17.4539 17.4953 17.2928 17.4953 16.9706C17.4418 16.6484 17.2278 16.4873 16.9067 16.4873Z" fill="#228FE0"/>
<path d="M33.4374 17.4003V14.9839H32.7953H31.1903C30.7088 14.9839 30.3343 15.0913 30.0668 15.3061V14.9839H27.6057C27.2312 14.9839 26.7497 15.0913 26.5356 15.3061V14.9839H22.202V15.3061C21.881 15.0376 21.2925 14.9839 21.025 14.9839H18.1359V15.3061C17.8684 15.0376 17.2264 14.9839 16.9053 14.9839H13.6952L12.9462 15.7894L12.2507 14.9839H7.43555V20.2463H12.1437L12.8927 19.4408L13.5882 20.2463H16.4773V19.0113H16.8518C17.2264 19.0113 17.7079 19.0113 18.0824 18.8502V20.3H20.49V18.9039H20.597C20.7575 18.9039 20.7575 18.9039 20.7575 19.065V20.3H28.0337C28.5152 20.3 28.9967 20.1926 29.2642 19.9778V20.3H31.5648C32.0463 20.3 32.5278 20.2463 32.8488 20.0315C33.3839 19.7093 33.7049 19.1187 33.7049 18.4206C33.7049 18.0447 33.5979 17.6688 33.4374 17.4003ZM16.8518 18.2595H15.7818V19.5482H14.0698L12.9997 18.3132L11.8762 19.5482H8.34508V15.7357H11.9297L12.9997 16.9707L14.1233 15.7357H16.9588C17.6544 15.7357 18.4569 15.9505 18.4569 16.9707C18.4034 18.0447 17.6544 18.2595 16.8518 18.2595ZM22.202 18.0447C22.309 18.2058 22.3625 18.4206 22.3625 18.7428V19.4945H21.453V19.0113C21.453 18.7965 21.453 18.4206 21.2925 18.2595C21.1855 18.0984 20.9715 18.0984 20.6505 18.0984H19.6874V19.4945H18.7779V15.682H20.811C21.239 15.682 21.6135 15.682 21.881 15.8431C22.1485 16.0042 22.3625 16.2726 22.3625 16.7022C22.3625 17.2929 21.988 17.6151 21.7205 17.7225C21.988 17.8299 22.1485 17.9373 22.202 18.0447ZM25.8936 16.4874H23.8071V17.1855H25.8401V17.9373H23.8071V18.6891H25.8936V19.4945H22.8975V15.682H25.8936V16.4874ZM28.1407 19.4945H26.4286V18.6891H28.1407C28.3012 18.6891 28.4082 18.6891 28.5152 18.5817C28.5687 18.528 28.6222 18.4206 28.6222 18.3132C28.6222 18.2058 28.5687 18.0984 28.5152 18.0447C28.4617 17.991 28.3547 17.9373 28.1942 17.9373C27.3382 17.8836 26.3216 17.9373 26.3216 16.7559C26.3216 16.2189 26.6426 15.6283 27.6057 15.6283H29.3712V16.5411H27.7127C27.5522 16.5411 27.4452 16.5411 27.3382 16.5948C27.2312 16.6485 27.2312 16.7559 27.2312 16.8633C27.2312 17.0244 27.3382 17.0781 27.4452 17.1318C27.5522 17.1855 27.6592 17.1855 27.7662 17.1855H28.2477C28.7292 17.1855 29.0502 17.2929 29.2642 17.5077C29.4247 17.6688 29.5317 17.9373 29.5317 18.3132C29.5317 19.1187 29.0502 19.4945 28.1407 19.4945ZM32.7418 19.1187C32.5278 19.3334 32.1533 19.4945 31.6183 19.4945H29.9063V18.6891H31.6183C31.7788 18.6891 31.8858 18.6891 31.9928 18.5817C32.0463 18.528 32.0998 18.4206 32.0998 18.3132C32.0998 18.2058 32.0463 18.0984 31.9928 18.0447C31.9393 17.991 31.8323 17.9373 31.6718 17.9373C30.8158 17.8836 29.7993 17.9373 29.7993 16.7559C29.7993 16.2189 30.1203 15.6283 31.0833 15.6283H32.8488V16.5411H31.2438C31.0833 16.5411 30.9763 16.5411 30.8693 16.5948C30.7623 16.6485 30.7623 16.7559 30.7623 16.8633C30.7623 17.0244 30.8158 17.0781 30.9763 17.1318C31.0833 17.1855 31.1903 17.1855 31.2973 17.1855H31.7788C32.2603 17.1855 32.5813 17.2929 32.7953 17.5077C32.8488 17.5077 32.8488 17.5614 32.8488 17.5614C33.0094 17.7762 33.0629 18.0447 33.0629 18.3132C33.0629 18.6354 32.9559 18.9039 32.7418 19.1187Z" fill="#0571C1"/>
<path d="M21.2402 16.5947C21.1332 16.541 20.9727 16.541 20.8122 16.541H19.7422V17.4002H20.8122C20.9727 17.4002 21.1332 17.4002 21.2402 17.3465C21.3472 17.2928 21.4007 17.1317 21.4007 16.9706C21.4542 16.7558 21.3472 16.6484 21.2402 16.5947Z" fill="#228FE0"/>
<path d="M17.4942 10.1514C17.3871 10.0977 17.2266 10.0977 17.0661 10.0977H15.9961V10.9568H17.0661C17.2266 10.9568 17.3871 10.9568 17.4942 10.9031C17.6012 10.8494 17.6547 10.6883 17.6547 10.5272C17.7082 10.3124 17.6012 10.2051 17.4942 10.1514Z" fill="#228FE0"/>
<path d="M23.9688 11.4406H25.1993L24.6108 9.93701L23.9688 11.4406Z" fill="#228FE0"/>
<path d="M14.8735 19.1716V16.1108L13.4824 17.6144L14.8735 19.1716Z" fill="#228FE0"/>
<path d="M16.9067 16.4873H15.7832V17.4539H16.9602C17.2813 17.4539 17.4953 17.2928 17.4953 16.9706C17.4418 16.6484 17.2278 16.4873 16.9067 16.4873Z" fill="#228FE0"/>
<path d="M21.2402 16.5947C21.1332 16.541 20.9727 16.541 20.8122 16.541H19.7422V17.4002H20.8122C20.9727 17.4002 21.1332 17.4002 21.2402 17.3465C21.3472 17.2928 21.4007 17.1317 21.4007 16.9706C21.4542 16.7558 21.3472 16.6484 21.2402 16.5947Z" fill="#228FE0"/>
<path d="M16.5308 19.3871L15.7818 18.5817V19.4945H14.0163L12.9462 18.2595L11.7692 19.4945H8.23807V15.7357H11.8227L12.9462 16.9707L13.4812 16.3263L12.1437 14.9839H7.43555V20.2463H12.1437L12.9462 19.4408L13.6417 20.2463H16.5308V19.3871Z" fill="#2FABF7"/>
<path d="M10.9678 13.802L10.2723 13.0502H9.95131V12.728L9.14879 11.9225L8.61377 13.0502H7.86475L6.58071 10.0968V13.0502H4.76165L4.38714 12.2447H2.56808L2.19357 13.0502H1.23054L2.83559 9.29133H4.17313L5.67118 12.8891V9.29133H6.4737L5.72468 8.53955H4.92216V9.18393L4.65465 8.53955H2.30057L1.23054 11.0634L0 13.802H1.23054H2.78209L3.1031 12.9965H3.85212L4.22663 13.802H7.22273V13.1576L7.49024 13.802H9.04179L9.30929 13.1576V13.802H10.9678Z" fill="#2FABF7"/>
<path d="M8.50447 11.3309L7.64844 10.4717L8.29046 11.8678L8.50447 11.3309Z" fill="#2FABF7"/>
<path d="M32.8507 19.9773C33.3322 19.6551 33.6532 19.1181 33.7067 18.5274L32.9577 17.7757C33.0112 17.9368 33.0647 18.0979 33.0647 18.3127C33.0647 18.6348 32.9577 18.9033 32.7437 19.1181C32.5297 19.3329 32.1552 19.494 31.6202 19.494H29.9081V18.6885H31.6202C31.7807 18.6885 31.8877 18.6885 31.9947 18.5811C32.0482 18.5274 32.1017 18.42 32.1017 18.3127C32.1017 18.2053 32.0482 18.0979 31.9947 18.0442C31.9412 17.9905 31.8342 17.9368 31.6737 17.9368C30.8176 17.8831 29.8011 17.9368 29.8011 16.7554C29.8011 16.2184 30.1221 15.7351 30.9246 15.6277L30.3361 15.0371C30.2291 15.0908 30.1756 15.1445 30.1221 15.1445V14.8223H27.661C27.2865 14.8223 26.805 14.9297 26.591 15.1445V14.8223H22.2039V15.1445C21.8829 14.876 21.2943 14.8223 21.0268 14.8223H18.1378V15.1445C17.8702 14.876 17.2282 14.8223 16.9072 14.8223H13.6971L12.9481 15.6277L12.2526 14.8223H11.6641L13.2691 16.4332L14.0716 15.574H16.9072C17.6027 15.574 18.4053 15.7888 18.4053 16.8091C18.4053 17.8831 17.6562 18.0979 16.8537 18.0979H15.7837V18.9033L16.5862 19.7088V18.9033H16.8537C17.2282 18.9033 17.7097 18.9033 18.0843 18.7422V20.1921H20.4918V18.7959H20.5988C20.7593 18.7959 20.7593 18.7959 20.7593 18.957V20.1921H28.0356C28.5171 20.1921 28.9986 20.0847 29.2661 19.8699V20.1921H31.5667C31.9947 20.2458 32.4762 20.1921 32.8507 19.9773ZM22.2039 18.0442C22.3109 18.2053 22.3644 18.42 22.3644 18.7422V19.494H21.4549V19.0107C21.4549 18.7959 21.4549 18.42 21.2943 18.259C21.1873 18.0979 20.9733 18.0979 20.6523 18.0979H19.6893V19.494H18.7798V15.6814H20.8128C21.2408 15.6814 21.6154 15.6814 21.8829 15.8425C22.1504 16.0036 22.3644 16.2721 22.3644 16.7017C22.3644 17.2924 21.9899 17.6146 21.7224 17.722C21.9899 17.8294 22.1504 17.9368 22.2039 18.0442ZM25.8955 16.4869H23.8089V17.185H25.842V17.9368H23.8089V18.6885H25.8955V19.494H22.8994V15.6814H25.8955V16.4869ZM28.1426 19.494H26.4305V18.6885H28.1426C28.3031 18.6885 28.4101 18.6885 28.5171 18.5811C28.5706 18.5274 28.6241 18.42 28.6241 18.3127C28.6241 18.2053 28.5706 18.0979 28.5171 18.0442C28.4636 17.9905 28.3566 17.9368 28.1961 17.9368C27.34 17.8831 26.3235 17.9368 26.3235 16.7554C26.3235 16.2184 26.6445 15.6277 27.6075 15.6277H29.3731V16.5406H27.7145C27.554 16.5406 27.447 16.5406 27.34 16.5943C27.233 16.648 27.233 16.7554 27.233 16.8628C27.233 17.0239 27.34 17.0776 27.447 17.1313C27.554 17.185 27.661 17.185 27.768 17.185H28.2496C28.7311 17.185 29.0521 17.2924 29.2661 17.5072C29.4266 17.6683 29.5336 17.9368 29.5336 18.3127C29.5336 19.1181 29.0521 19.494 28.1426 19.494Z" fill="#228FE0"/>
<path d="M30.7109 16.8632C30.7109 17.0243 30.7644 17.078 30.9249 17.1317C31.0319 17.1854 31.139 17.1854 31.246 17.1854H31.7275C32.0485 17.1854 32.2625 17.2391 32.4765 17.3465L31.674 16.541H31.1925C31.0319 16.541 30.9249 16.541 30.8179 16.5947C30.7644 16.6484 30.7109 16.7558 30.7109 16.8632Z" fill="#228FE0"/>
<path d="M28.8398 13.6431L28.9465 13.8042H28.9998L28.8398 13.6431Z" fill="#228FE0"/>
<path d="M25.8965 10.6895L26.806 12.8911V11.6023L25.8965 10.6895Z" fill="#228FE0"/>
<path d="M16.7462 12.461H16.8532C16.9602 12.461 16.9602 12.461 16.9602 12.6221V13.8035H20.8124V13.4813C21.1334 13.6424 21.6149 13.8035 22.2569 13.8035H23.862L24.183 12.9443H24.932L25.253 13.8035H28.3561V13.2665L27.6071 12.5147V13.1054H25.788L25.5205 12.2462H23.648L23.3269 13.1054H22.3104C21.8824 13.1054 21.3474 12.998 21.0264 12.6758C20.7054 12.3536 20.5449 11.924 20.5449 11.2259C20.5449 10.689 20.6519 10.152 21.0264 9.72239C21.2939 9.4002 21.7754 9.2928 22.3639 9.2928H23.2199V10.0983H22.3639C22.0429 10.0983 21.8824 10.152 21.6684 10.3131C21.5079 10.4742 21.4009 10.7964 21.4009 11.1722C21.4009 11.6018 21.4544 11.8703 21.6684 12.0851C21.8289 12.2462 22.0429 12.2999 22.3104 12.2999H22.6849L23.9155 9.3465H24.4505L23.7015 8.59473H22.3104C21.7219 8.59473 21.2404 8.70212 20.8124 8.91692V8.59473H18.4583V8.91692C18.1908 8.70212 17.8698 8.59473 17.4418 8.59473H8.82799L8.23947 9.93718L7.65095 8.59473H5.29688L6.0459 9.3465H7.11593L8.02546 11.3333L8.34647 11.6555L9.3095 9.2928H10.8075V13.1054H9.89802V10.152L8.98849 12.2999L10.54 13.8572H16.6927L16.7462 12.461ZM19.2073 9.2928H20.1168V13.1054H19.2073V9.2928ZM14.4992 10.0983H12.4126V10.7964H14.4457V11.5481H12.4126V12.2999H14.4992V13.1054H11.5031V9.2928H14.4992V10.0983ZM15.9972 13.0517H15.0877V9.23911H17.1207C17.6023 9.23911 17.9233 9.23911 18.1908 9.4002C18.4583 9.5613 18.6188 9.82979 18.6188 10.2594C18.6188 10.8501 18.2443 11.1722 17.9768 11.2796C18.1908 11.3333 18.3513 11.4944 18.4048 11.6018C18.5118 11.8166 18.5653 11.9777 18.5653 12.2999V13.0517H17.6558V12.5684C17.6558 12.3536 17.6558 12.0314 17.4953 11.8166C17.4418 11.7092 17.2813 11.7092 16.9602 11.7092H15.9972V13.0517Z" fill="#228FE0"/>
</g>
<defs>
<clipPath id="clip0_2598_6265">
<rect width="33.7052" height="28" fill="white"/>
</clipPath>
</defs>
</svg>
