<svg width="29" height="28" viewBox="0 0 29 28" fill="none" xmlns="http://www.w3.org/2000/svg">
<g clip-path="url(#clip0_2598_6225)">
<path d="M28.087 13.9986C28.087 18.6209 24.342 22.3986 19.6607 22.3986C15.024 22.3986 11.2344 18.6209 11.2344 13.9986C11.2344 9.37641 14.9794 5.59863 19.6161 5.59863C24.342 5.59863 28.087 9.37641 28.087 13.9986Z" fill="#FFB600"/>
<path d="M19.6607 5.59863C24.2974 5.59863 28.087 9.37641 28.087 13.9986C28.087 18.6209 24.342 22.3986 19.6607 22.3986C15.024 22.3986 11.2344 18.6209 11.2344 13.9986" fill="#F7981D"/>
<path d="M19.6602 5.59863C24.2968 5.59863 28.0865 9.37641 28.0865 13.9986C28.0865 18.6209 24.3414 22.3986 19.6602 22.3986" fill="#FF8500"/>
<path d="M8.33713 5.59863C3.74502 5.64308 0 9.37641 0 13.9986C0 18.6209 3.74502 22.3986 8.4263 22.3986C10.6109 22.3986 12.5726 21.5542 14.0884 20.2209C14.4005 19.9542 14.668 19.6431 14.9355 19.332H13.1967C12.9738 19.0653 12.7509 18.7542 12.5726 18.4875H15.5597C15.738 18.2209 15.9163 17.9097 16.0501 17.5986H12.0821C11.9484 17.332 11.8146 17.0209 11.7255 16.7097H16.3622C16.6297 15.8653 16.808 14.9764 16.808 14.0431C16.808 13.4209 16.7188 12.8431 16.6297 12.2653H11.458C11.5026 11.9542 11.5917 11.6875 11.6809 11.3764H16.3176C16.2284 11.0653 16.0947 10.7542 15.9609 10.4875H12.0376C12.1713 10.1764 12.3497 9.90974 12.528 9.59863H15.5151C15.3367 9.28752 15.1138 8.97641 14.8463 8.70974H13.1967C13.4642 8.39863 13.7317 8.13197 14.0438 7.8653C12.5726 6.48752 10.5663 5.68752 8.38171 5.68752C8.38171 5.59863 8.38171 5.59863 8.33713 5.59863Z" fill="#FF5050"/>
<path d="M0 13.9991C0 18.6213 3.74502 22.3991 8.4263 22.3991C10.6109 22.3991 12.5726 21.5547 14.0884 20.2213C14.4005 19.9547 14.668 19.6435 14.9355 19.3324H13.1967C12.9738 19.0658 12.7509 18.7547 12.5726 18.488H15.5597C15.738 18.2213 15.9163 17.9102 16.0501 17.5991H12.0821C11.9484 17.3324 11.8146 17.0213 11.7255 16.7102H16.3622C16.6297 15.8658 16.808 14.9769 16.808 14.0435C16.808 13.4213 16.7188 12.8435 16.6297 12.2658H11.458C11.5026 11.9547 11.5917 11.688 11.6809 11.3769H16.3176C16.2284 11.0658 16.0947 10.7547 15.9609 10.488H12.0376C12.1713 10.1769 12.3497 9.91021 12.528 9.5991H15.5151C15.3367 9.28799 15.1138 8.97688 14.8463 8.71021H13.1967C13.4642 8.3991 13.7317 8.13243 14.0438 7.86577C12.5726 6.48799 10.5663 5.68799 8.38171 5.68799H8.33713" fill="#E52836"/>
<path d="M8.42683 22.3998C10.6114 22.3998 12.5731 21.5553 14.0889 20.222C14.401 19.9553 14.6685 19.6442 14.936 19.3331H13.1973C12.9744 19.0664 12.7514 18.7553 12.5731 18.4886H15.5602C15.7385 18.222 15.9169 17.9109 16.0506 17.5998H12.0827C11.9489 17.3331 11.8152 17.022 11.726 16.7109H16.3627C16.6302 15.8664 16.8085 14.9775 16.8085 14.0442C16.8085 13.422 16.7194 12.8442 16.6302 12.2664H11.4585C11.5031 11.9553 11.5923 11.6886 11.6814 11.3775H16.3181C16.229 11.0664 16.0952 10.7553 15.9615 10.4886H12.0381C12.1719 10.1775 12.3502 9.91086 12.5285 9.59975H15.5156C15.3373 9.28864 15.1144 8.97753 14.8469 8.71086H13.1973C13.4648 8.39975 13.7323 8.13308 14.0444 7.86642C12.5731 6.48864 10.6003 5.61084 8.41568 5.61084H8.37109" fill="#CB2026"/>
<path d="M11.414 16.1333L11.5478 15.3777C11.5032 15.3777 11.414 15.4222 11.3249 15.4222C11.0128 15.4222 10.9682 15.2444 11.0128 15.1555L11.2803 13.5999H11.7707L11.9044 12.7555H11.4586L11.5478 12.2222H10.6561C10.6561 12.2222 10.1211 15.1555 10.1211 15.5111C10.1211 16.0444 10.4332 16.2666 10.8344 16.2666C11.1019 16.2666 11.3249 16.1777 11.414 16.1333Z" fill="white"/>
<path d="M11.7266 14.7107C11.7266 15.9551 12.5737 16.2662 13.287 16.2662C13.9557 16.2662 14.2232 16.1329 14.2232 16.1329L14.4016 15.2885C14.4016 15.2885 13.9112 15.5107 13.4653 15.5107C12.4845 15.5107 12.6628 14.7996 12.6628 14.7996H14.4907C14.4907 14.7996 14.6245 14.2218 14.6245 13.9996C14.6245 13.4218 14.3124 12.7107 13.3316 12.7107C12.3953 12.6218 11.7266 13.5996 11.7266 14.7107ZM13.287 13.4218C13.7774 13.4218 13.6882 13.9996 13.6882 14.044H12.7074C12.7074 13.9996 12.7966 13.4218 13.287 13.4218Z" fill="white"/>
<path d="M18.9482 16.1324L19.1265 15.1546C19.1265 15.1546 18.6807 15.3769 18.3686 15.3769C17.7444 15.3769 17.4769 14.888 17.4769 14.3546C17.4769 13.288 18.0119 12.7102 18.6361 12.7102C19.0819 12.7102 19.4386 12.9768 19.4386 12.9768L19.5724 12.0435C19.5724 12.0435 19.0374 11.8213 18.5469 11.8213C17.5215 11.8213 16.4961 12.7102 16.4961 14.3991C16.4961 15.5102 17.0311 16.2657 18.1011 16.2657C18.4578 16.2657 18.9482 16.1324 18.9482 16.1324Z" fill="white"/>
<path d="M6.51059 12.6211C5.88642 12.6211 5.44058 12.7989 5.44058 12.7989L5.30683 13.5544C5.30683 13.5544 5.70808 13.3767 6.28767 13.3767C6.59976 13.3767 6.86726 13.4211 6.86726 13.6878C6.86726 13.8655 6.82267 13.91 6.82267 13.91C6.82267 13.91 6.55517 13.91 6.42142 13.91C5.6635 13.91 4.81641 14.2211 4.81641 15.2433C4.81641 16.0433 5.35141 16.2211 5.6635 16.2211C6.28767 16.2211 6.55517 15.8211 6.59975 15.8211L6.55517 16.1767H7.35768L7.71435 13.7322C7.71435 12.6655 6.82267 12.6211 6.51059 12.6211ZM6.68892 14.6211C6.68892 14.7544 6.59976 15.4656 6.06475 15.4656C5.79725 15.4656 5.70808 15.2433 5.70808 15.11C5.70808 14.8878 5.84183 14.5767 6.51059 14.5767C6.64434 14.6211 6.68892 14.6211 6.68892 14.6211Z" fill="white"/>
<path d="M8.56058 16.2216C8.7835 16.2216 9.89809 16.266 9.89809 15.066C9.89809 13.9549 8.82808 14.1771 8.82808 13.7327C8.82808 13.5105 9.00641 13.4216 9.3185 13.4216C9.45225 13.4216 9.94267 13.466 9.94267 13.466L10.0764 12.666C10.0764 12.666 9.76434 12.5771 9.22933 12.5771C8.56058 12.5771 7.89183 12.8438 7.89183 13.7327C7.89183 14.7549 9.00642 14.666 9.00642 15.066C9.00642 15.3327 8.69433 15.3771 8.47141 15.3771C8.07016 15.3771 7.66891 15.2438 7.66891 15.2438L7.53516 16.0438C7.57974 16.1327 7.80266 16.2216 8.56058 16.2216Z" fill="white"/>
<path d="M26.3499 11.9106L26.1715 13.1106C26.1715 13.1106 25.8149 12.6662 25.3244 12.6662C24.5219 12.6662 23.8086 13.644 23.8086 14.7995C23.8086 15.5106 24.1653 16.2662 24.9232 16.2662C25.4582 16.2662 25.7703 15.9106 25.7703 15.9106L25.7257 16.2218H26.6174L27.2861 11.9551L26.3499 11.9106ZM25.9486 14.2662C25.9486 14.7551 25.7257 15.3773 25.2353 15.3773C24.9232 15.3773 24.7448 15.1106 24.7448 14.6662C24.7448 13.9551 25.0569 13.5106 25.4582 13.5106C25.7703 13.5106 25.9486 13.7329 25.9486 14.2662Z" fill="white"/>
<path d="M1.64982 16.1773L2.18483 12.9773L2.27399 16.1773H2.89816L4.05734 12.9773L3.56692 16.1773H4.50317L5.21651 11.9106H3.74525L2.85358 14.5329L2.809 11.9106H1.51607L0.802734 16.1773H1.64982Z" fill="white"/>
<path d="M15.4711 16.1766C15.7386 14.71 15.7832 13.51 16.4073 13.7322C16.4965 13.1544 16.6302 12.9322 16.7194 12.71C16.7194 12.71 16.6748 12.71 16.5411 12.71C16.1398 12.71 15.8277 13.2433 15.8277 13.2433L15.9169 12.7544H15.0698L14.4902 16.2211H15.4711V16.1766Z" fill="white"/>
<path d="M20.9989 12.6211C20.3747 12.6211 19.9289 12.7989 19.9289 12.7989L19.7951 13.5544C19.7951 13.5544 20.1964 13.3767 20.7759 13.3767C21.088 13.3767 21.3555 13.4211 21.3555 13.6878C21.3555 13.8655 21.311 13.91 21.311 13.91C21.311 13.91 21.0435 13.91 20.9097 13.91C20.1518 13.91 19.3047 14.2211 19.3047 15.2433C19.3047 16.0433 19.8397 16.2211 20.1518 16.2211C20.7759 16.2211 21.0434 15.8211 21.088 15.8211L21.0434 16.1767H21.846L22.2026 13.7322C22.2472 12.6655 21.311 12.6211 20.9989 12.6211ZM21.2218 14.6211C21.2218 14.7544 21.1326 15.4656 20.5976 15.4656C20.3301 15.4656 20.2409 15.2433 20.2409 15.11C20.2409 14.8878 20.3747 14.5767 21.0434 14.5767C21.1772 14.6211 21.1772 14.6211 21.2218 14.6211Z" fill="white"/>
<path d="M22.9613 16.1766C23.2288 14.71 23.2734 13.51 23.8976 13.7322C23.9867 13.1544 24.1205 12.9322 24.2096 12.71C24.2096 12.71 24.1651 12.71 24.0313 12.71C23.6301 12.71 23.318 13.2433 23.318 13.2433L23.4071 12.7544H22.5601L21.9805 16.2211H22.9613V16.1766Z" fill="white"/>
<path d="M10.0312 15.5111C10.0312 16.0444 10.3433 16.2666 10.7446 16.2666C11.0567 16.2666 11.3242 16.1777 11.4133 16.1333L11.5471 15.3777C11.5025 15.3777 11.4133 15.4222 11.3242 15.4222C11.0121 15.4222 10.9675 15.2444 11.0121 15.1555L11.2796 13.5999H11.77L11.9038 12.7555H11.4579L11.5471 12.2222" fill="#DCE5E5"/>
<path d="M12.1719 14.7107C12.1719 15.9551 12.5731 16.2662 13.2865 16.2662C13.9552 16.2662 14.2227 16.1329 14.2227 16.1329L14.4011 15.2885C14.4011 15.2885 13.9106 15.5107 13.4648 15.5107C12.484 15.5107 12.6623 14.7996 12.6623 14.7996H14.4902C14.4902 14.7996 14.624 14.2218 14.624 13.9996C14.624 13.4218 14.3119 12.7107 13.331 12.7107C12.3948 12.6218 12.1719 13.5996 12.1719 14.7107ZM13.2865 13.4218C13.7769 13.4218 13.8661 13.9996 13.8661 14.044H12.7069C12.7069 13.9996 12.796 13.4218 13.2865 13.4218Z" fill="#DCE5E5"/>
<path d="M18.9496 16.1324L19.128 15.1546C19.128 15.1546 18.6821 15.3769 18.37 15.3769C17.7459 15.3769 17.4784 14.888 17.4784 14.3546C17.4784 13.288 18.0134 12.7102 18.6375 12.7102C19.0834 12.7102 19.44 12.9768 19.44 12.9768L19.5738 12.0435C19.5738 12.0435 19.0388 11.8213 18.5484 11.8213C17.5229 11.8213 16.9434 12.7102 16.9434 14.3991C16.9434 15.5102 17.0325 16.2657 18.1025 16.2657C18.4592 16.2657 18.9496 16.1324 18.9496 16.1324Z" fill="#DCE5E5"/>
<path d="M5.30683 13.5989C5.30683 13.5989 5.70808 13.4211 6.28767 13.4211C6.59976 13.4211 6.86726 13.4655 6.86726 13.7322C6.86726 13.91 6.82267 13.9544 6.82267 13.9544C6.82267 13.9544 6.55517 13.9544 6.42142 13.9544C5.6635 13.9544 4.81641 14.2655 4.81641 15.2878C4.81641 16.0878 5.35141 16.2655 5.6635 16.2655C6.28767 16.2655 6.55517 15.8655 6.59975 15.8655L6.55517 16.2211H7.35768L7.71435 13.7766C7.71435 12.7544 6.82267 12.71 6.466 12.71L5.30683 13.5989ZM7.13476 14.6211C7.13476 14.7544 6.59976 15.4655 6.06475 15.4655C5.79725 15.4655 5.70808 15.2433 5.70808 15.11C5.70808 14.8878 5.84183 14.5766 6.51059 14.5766C6.64434 14.6211 7.13476 14.6211 7.13476 14.6211Z" fill="#DCE5E5"/>
<path d="M7.58008 16.1327C7.58008 16.1327 7.84758 16.2216 8.6055 16.2216C8.82842 16.2216 9.94301 16.266 9.94301 15.066C9.94301 13.9549 8.873 14.1771 8.873 13.7327C8.873 13.5105 9.05134 13.4216 9.36342 13.4216C9.49717 13.4216 9.98759 13.466 9.98759 13.466L10.1213 12.666C10.1213 12.666 9.80926 12.5771 9.27425 12.5771C8.6055 12.5771 8.38258 12.8438 8.38258 13.7327C8.38258 14.7549 9.05134 14.666 9.05134 15.066C9.05134 15.3327 8.73925 15.3771 8.51633 15.3771" fill="#DCE5E5"/>
<path d="M26.1703 13.1097C26.1703 13.1097 25.8136 12.6652 25.3232 12.6652C24.5207 12.6652 24.2532 13.643 24.2532 14.7986C24.2532 15.5097 24.1641 16.2652 24.922 16.2652C25.457 16.2652 25.7691 15.9097 25.7691 15.9097L25.7245 16.2208H26.6161L27.2849 11.9541L26.1703 13.1097ZM26.1257 14.2652C26.1257 14.7541 25.7245 15.3763 25.2341 15.3763C24.922 15.3763 24.7436 15.1097 24.7436 14.6652C24.7436 13.9541 25.0557 13.5097 25.457 13.5097C25.7691 13.5097 26.1257 13.7319 26.1257 14.2652Z" fill="#DCE5E5"/>
<path d="M1.64982 16.1773L2.18483 12.9773L2.27399 16.1773H2.89816L4.05734 12.9773L3.56692 16.1773H4.50317L5.21651 11.9106H4.10192L2.85358 14.5329L2.809 11.9106H2.31858L0.802734 16.1773H1.64982Z" fill="#DCE5E5"/>
<path d="M14.5352 16.1766H15.4714C15.7389 14.71 15.7835 13.51 16.4077 13.7322C16.4968 13.1544 16.6306 12.9322 16.7198 12.71C16.7198 12.71 16.6752 12.71 16.5414 12.71C16.1402 12.71 15.8281 13.2433 15.8281 13.2433L15.9172 12.7544" fill="#DCE5E5"/>
<path d="M19.7951 13.5989C19.7951 13.5989 20.1964 13.4211 20.7759 13.4211C21.088 13.4211 21.3555 13.4655 21.3555 13.7322C21.3555 13.91 21.3109 13.9544 21.3109 13.9544C21.3109 13.9544 21.0434 13.9544 20.9097 13.9544C20.1518 13.9544 19.3047 14.2655 19.3047 15.2878C19.3047 16.0878 19.8397 16.2655 20.1518 16.2655C20.7759 16.2655 21.0434 15.8655 21.088 15.8655L21.0434 16.2211H21.846L22.2026 13.7766C22.2026 12.7544 21.3109 12.71 20.9543 12.71L19.7951 13.5989ZM21.623 14.6211C21.623 14.7544 21.088 15.4655 20.553 15.4655C20.2855 15.4655 20.1964 15.2433 20.1964 15.11C20.1964 14.8878 20.3301 14.5766 20.9989 14.5766C21.1772 14.6211 21.623 14.6211 21.623 14.6211Z" fill="#DCE5E5"/>
<path d="M22.0234 16.1766H22.9597C23.2272 14.71 23.2718 13.51 23.8959 13.7322C23.9851 13.1544 24.1189 12.9322 24.208 12.71C24.208 12.71 24.1634 12.71 24.0297 12.71C23.6284 12.71 23.3164 13.2433 23.3164 13.2433L23.4055 12.7544" fill="#DCE5E5"/>
</g>
<defs>
<clipPath id="clip0_2598_6225">
<rect width="28.0877" height="28" fill="white"/>
</clipPath>
</defs>
</svg>
