<svg width="40" height="28" viewBox="0 0 40 28" fill="none" xmlns="http://www.w3.org/2000/svg">
<g clip-path="url(#clip0_2598_6254)">
<path d="M30.3979 12.3062H28.2758C28.1509 12.3062 28.0261 12.4306 27.9637 12.555L27.0898 18.0306C27.0898 18.155 27.1523 18.2172 27.2771 18.2172H28.4006C28.5254 18.2172 28.5878 18.155 28.5878 18.0306L28.8375 16.475C28.8375 16.3506 28.9624 16.2261 29.1496 16.2261H29.8362C31.2718 16.2261 32.0832 15.5417 32.2705 14.1728C32.3953 13.6128 32.2705 13.115 32.0208 12.8039C31.6463 12.4928 31.0845 12.3062 30.3979 12.3062ZM30.6476 14.3595C30.5228 15.1061 29.961 15.1061 29.3993 15.1061H29.0248L29.2744 13.675C29.2744 13.6128 29.3369 13.5506 29.4617 13.5506H29.5865C29.961 13.5506 30.3355 13.5506 30.5228 13.7995C30.6476 13.8617 30.6476 14.0484 30.6476 14.3595Z" fill="#139AD6"/>
<path d="M15.1069 12.3062H12.9848C12.8599 12.3062 12.7351 12.4306 12.6727 12.555L11.7988 18.0306C11.7988 18.155 11.8612 18.2172 11.9861 18.2172H12.9848C13.1096 18.2172 13.2344 18.0928 13.2968 17.9683L13.5465 16.475C13.5465 16.3506 13.6713 16.2261 13.8586 16.2261H14.5452C15.9808 16.2261 16.7922 15.5417 16.9794 14.1728C17.1043 13.6128 16.9794 13.115 16.7298 12.8039C16.3553 12.4928 15.8559 12.3062 15.1069 12.3062ZM15.3566 14.3595C15.2318 15.1061 14.67 15.1061 14.1083 15.1061H13.7962L14.0458 13.675C14.0458 13.6128 14.1083 13.5506 14.2331 13.5506H14.3579C14.7324 13.5506 15.1069 13.5506 15.2942 13.7995C15.3566 13.8617 15.419 14.0484 15.3566 14.3595Z" fill="#263B80"/>
<path d="M21.5346 14.2968H20.536C20.4736 14.2968 20.3487 14.359 20.3487 14.4213L20.2863 14.7324L20.2239 14.6079C19.9742 14.2968 19.5373 14.1724 19.038 14.1724C17.9145 14.1724 16.9158 15.0435 16.7286 16.2257C16.6037 16.8479 16.791 17.4079 17.1031 17.7812C17.4151 18.1546 17.8521 18.279 18.4138 18.279C19.3501 18.279 19.8494 17.719 19.8494 17.719L19.787 18.0301C19.787 18.1546 19.8494 18.2168 19.9742 18.2168H20.9105C21.0353 18.2168 21.1601 18.0923 21.2225 17.9679L21.7843 14.4835C21.7219 14.4213 21.597 14.2968 21.5346 14.2968ZM20.0991 16.2879C19.9742 16.8479 19.5373 17.2835 18.9131 17.2835C18.6011 17.2835 18.3514 17.159 18.2266 17.0346C18.1017 16.8479 18.0393 16.599 18.0393 16.2879C18.1017 15.7279 18.6011 15.2924 19.1628 15.2924C19.4749 15.2924 19.6621 15.4168 19.8494 15.5412C20.0366 15.7279 20.0991 16.039 20.0991 16.2879Z" fill="#263B80"/>
<path d="M36.7632 14.2963H35.7645C35.7021 14.2963 35.5773 14.3585 35.5773 14.4208L35.5149 14.7319L35.4524 14.6074C35.2028 14.2963 34.7658 14.1719 34.2665 14.1719C33.143 14.1719 32.1443 15.043 31.9571 16.2252C31.8322 16.8474 32.0195 17.4074 32.3316 17.7807C32.6437 18.1541 33.0806 18.2785 33.6423 18.2785C34.5786 18.2785 35.0779 17.7185 35.0779 17.7185L35.0155 18.0296C35.0155 18.1541 35.0779 18.2163 35.2028 18.2163H36.139C36.2639 18.2163 36.3887 18.0919 36.4511 17.9674L37.0129 14.483C36.9504 14.4208 36.888 14.2963 36.7632 14.2963ZM35.3276 16.2874C35.2028 16.8474 34.7658 17.283 34.1417 17.283C33.8296 17.283 33.5799 17.1585 33.4551 17.0341C33.3302 16.8474 33.2678 16.5985 33.2678 16.2874C33.3302 15.7274 33.8296 15.2919 34.3913 15.2919C34.7034 15.2919 34.8907 15.4163 35.0779 15.5408C35.3276 15.7274 35.39 16.0385 35.3276 16.2874Z" fill="#139AD6"/>
<path d="M26.9624 14.2939H25.9013C25.7765 14.2939 25.714 14.3562 25.6516 14.4184L24.2784 16.534L23.6543 14.5428C23.5918 14.4184 23.5294 14.3562 23.3422 14.3562H22.3435C22.2187 14.3562 22.1562 14.4806 22.1562 14.6051L23.2798 17.9029L22.2187 19.3962C22.1562 19.5206 22.2187 19.7073 22.3435 19.7073H23.3422C23.467 19.7073 23.5294 19.6451 23.5918 19.5829L27.0248 14.6673C27.2121 14.4806 27.0872 14.2939 26.9624 14.2939Z" fill="#263B80"/>
<path d="M37.952 12.4916L37.0781 18.0916C37.0781 18.2161 37.1405 18.2783 37.2654 18.2783H38.1392C38.264 18.2783 38.3889 18.1538 38.4513 18.0294L39.3251 12.5538C39.3251 12.4294 39.2627 12.3672 39.1379 12.3672H38.1392C38.0768 12.305 38.0144 12.3672 37.952 12.4916Z" fill="#139AD6"/>
<path d="M7.17796 10.4386C6.74104 9.94078 5.92962 9.69189 4.80611 9.69189H1.68526C1.49801 9.69189 1.31076 9.87856 1.24834 10.0652L0 18.2163C0 18.403 0.124834 18.5274 0.249668 18.5274H2.1846L2.68393 15.4786V15.603C2.74635 15.4163 2.9336 15.2297 3.12085 15.2297H4.05711C5.8672 15.2297 7.24037 14.483 7.67729 12.4297C7.67729 12.3674 7.67729 12.3052 7.67729 12.243C7.61488 12.243 7.61488 12.243 7.67729 12.243C7.73971 11.4341 7.61488 10.9363 7.17796 10.4386Z" fill="#263B80"/>
<path d="M7.61362 12.2417C7.61362 12.3039 7.61362 12.3661 7.61362 12.4284C7.17671 14.5439 5.80353 15.2284 3.99344 15.2284H3.05718C2.86993 15.2284 2.68268 15.415 2.62026 15.6017L1.99609 19.3973C1.99609 19.5217 2.05851 19.6461 2.24576 19.6461H3.8686C4.05585 19.6461 4.24311 19.5217 4.24311 19.335V19.2728L4.55519 17.3439V17.2195C4.55519 17.0328 4.74244 16.9084 4.92969 16.9084H5.17936C6.73979 16.9084 7.98813 16.2861 8.30021 14.4195C8.42505 13.6728 8.36263 12.9884 7.98813 12.5528C7.92571 12.4284 7.80088 12.3039 7.61362 12.2417Z" fill="#139AD6"/>
<path d="M7.17762 12.0568C7.1152 12.0568 7.05278 11.9946 6.99037 11.9946C6.92795 11.9946 6.86553 11.9946 6.80312 11.9323C6.55345 11.8701 6.30378 11.8701 5.99169 11.8701H3.55743C3.49501 11.8701 3.4326 11.8701 3.37018 11.9323C3.24535 11.9946 3.18293 12.119 3.18293 12.2434L2.68359 15.479V15.6035C2.74601 15.4168 2.93326 15.2301 3.12051 15.2301H4.05677C5.86686 15.2301 7.24003 14.4835 7.67695 12.4301C7.67695 12.3679 7.67695 12.3057 7.73937 12.2434C7.61454 12.1812 7.55212 12.119 7.42729 12.119C7.24003 12.0568 7.24003 12.0568 7.17762 12.0568Z" fill="#232C65"/>
</g>
<defs>
<clipPath id="clip0_2598_6254">
<rect width="39.3227" height="28" fill="white"/>
</clipPath>
</defs>
</svg>
