<svg width="100" height="100" viewBox="0 0 100 100" fill="none" xmlns="http://www.w3.org/2000/svg">
<rect width="100" height="100" fill="#F1F4F3"/>
<g clip-path="url(#clip0_2503_4792)">
<path d="M38.353 34.7424H28.957V50.2785H38.353V34.7424Z" fill="#2B5B4F"/>
<path d="M40.5756 31.1325H31.1797V29.591C31.1797 28.8267 31.7972 28.2093 32.5614 28.2093H39.1939C39.9582 28.2093 40.5756 28.8267 40.5756 29.591V31.1325Z" fill="#2B5B4F"/>
<path d="M38.353 34.7424H28.957L31.1808 31.1325H40.5767L38.353 34.7424Z" fill="#FAE7DB"/>
<path d="M42.7948 34.7424V50.2785H38.3516V34.7424L40.5753 31.1325L42.7948 34.7424Z" fill="#D7513E"/>
<path d="M36.2604 38.1234H31.0486C30.8586 38.1234 30.7031 37.9679 30.7031 37.7779C30.7031 37.5879 30.8586 37.4325 31.0486 37.4325H36.2604C36.4504 37.4325 36.6058 37.5879 36.6058 37.7779C36.6058 37.9722 36.4504 38.1234 36.2604 38.1234Z" fill="#254C40"/>
<path d="M36.2604 40.5889H31.0486C30.8586 40.5889 30.7031 40.4335 30.7031 40.2435C30.7031 40.0535 30.8586 39.8981 31.0486 39.8981H36.2604C36.4504 39.8981 36.6058 40.0535 36.6058 40.2435C36.6058 40.4378 36.4504 40.5889 36.2604 40.5889Z" fill="#254C40"/>
<path d="M36.2604 43.0545H31.0486C30.8586 43.0545 30.7031 42.899 30.7031 42.7091C30.7031 42.5191 30.8586 42.3636 31.0486 42.3636H36.2604C36.4504 42.3636 36.6058 42.5191 36.6058 42.7091C36.6058 42.9034 36.4504 43.0545 36.2604 43.0545Z" fill="#254C40"/>
<path d="M69.5074 29.5176L70.5739 23.2479C70.643 22.855 70.3753 22.4793 69.9824 22.4102L67.6161 22.0086C67.2232 21.9396 66.8475 22.2073 66.7784 22.6002L65.7119 28.8699C65.319 31.1844 61.8128 32.5402 61.3896 35.0231L58.2418 53.5343C58.1425 54.1258 58.5397 54.6872 59.1313 54.7908L63.1384 55.4731L67.1455 56.1553C67.737 56.2546 68.2984 55.8574 68.402 55.2658L71.5498 36.7546C71.9773 34.2717 69.1145 31.8321 69.5074 29.5176Z" fill="#2B5B4F"/>
<path d="M69.5064 29.5176L65.7109 28.8742L66.7775 22.6045C66.8466 22.2116 67.2179 21.9439 67.6152 22.0129L69.9814 22.4145C70.3744 22.4836 70.6421 22.855 70.573 23.2522L69.5064 29.5176Z" fill="#D7513E"/>
<path d="M70.277 25.2471L66.3994 24.5865C66.0713 24.5303 65.851 24.2194 65.9072 23.8913C65.9633 23.5631 66.2742 23.3429 66.6024 23.399L70.4799 24.0597C70.8081 24.1158 71.0283 24.4267 70.9722 24.7549C70.916 25.0787 70.6051 25.2989 70.277 25.2471Z" fill="#EB8F48"/>
<path d="M69.3456 38.1247L63.0195 37.0493L60.7305 50.5145L67.0565 51.5899L69.3456 38.1247Z" fill="#EB8F48"/>
<path d="M51.2965 26.1712C44.3316 28.1877 50.9511 56.2546 59.3107 53.8322C67.6703 51.4098 58.2657 24.1547 51.2965 26.1712Z" fill="#D7513E"/>
<path d="M55.9634 30.4287C54.9271 29.8026 53.6446 29.5867 52.3924 29.9537C51.1402 30.3164 50.1687 31.1843 49.6289 32.2638L55.9634 30.4287Z" fill="#EB8F48"/>
<path d="M60.9829 47.7482C59.9466 47.1221 58.6642 46.9062 57.412 47.2732C56.1597 47.6359 55.1882 48.5038 54.6484 49.5833L60.9829 47.7482Z" fill="#EB8F48"/>
<path d="M57.7917 34.5826C56.5697 33.8399 55.0541 33.5895 53.573 34.0213C52.0919 34.4488 50.9433 35.4721 50.3086 36.7546L57.7917 34.5826Z" fill="#EB8F48"/>
<path d="M60.3815 43.5165C59.1595 42.7738 57.6439 42.5234 56.1628 42.9552C54.6818 43.3827 53.5332 44.406 52.8984 45.6885L60.3815 43.5165Z" fill="#EB8F48"/>
<path d="M59.4118 39.0302C58.0905 38.2313 56.454 37.9593 54.852 38.4213C53.25 38.8834 52.0108 39.9888 51.3242 41.3748L59.4118 39.0302Z" fill="#EB8F48"/>
<path d="M49.3095 34.2372H43.817C43.1347 34.2372 42.582 33.6845 42.582 33.0022C42.582 32.32 43.1347 31.7673 43.817 31.7673H49.3095C49.9917 31.7673 50.5444 32.32 50.5444 33.0022C50.5444 33.6845 49.9917 34.2372 49.3095 34.2372Z" fill="#EABC49"/>
<path d="M51.6931 42.4198C51.6931 41.6296 51.0541 40.9905 50.2639 40.9905H50.1257C51.2872 40.9905 52.0429 39.7728 51.5291 38.7322L49.3096 34.2372H46.5634H43.8171L41.5977 38.7322C41.0838 39.7728 41.8395 40.9905 43.001 40.9905H42.8628C42.0727 40.9905 41.4336 41.6296 41.4336 42.4198C41.4336 43.21 42.0727 43.849 42.8628 43.849C42.0727 43.849 41.4336 44.4881 41.4336 45.2783C41.4336 46.0685 42.0727 46.7075 42.8628 46.7075C42.0727 46.7075 41.4336 47.3466 41.4336 48.1368C41.4336 48.927 42.0727 49.5661 42.8628 49.5661C42.0727 49.5661 41.4336 50.2051 41.4336 50.9953C41.4336 51.7855 42.0727 52.4246 42.8628 52.4246H50.2682C51.0584 52.4246 51.6975 51.7855 51.6975 50.9953C51.6975 50.2051 51.0584 49.5661 50.2682 49.5661C51.0584 49.5661 51.6975 48.927 51.6975 48.1368C51.6975 47.3466 51.0584 46.7075 50.2682 46.7075C51.0584 46.7075 51.6975 46.0685 51.6975 45.2783C51.6975 44.4881 51.0584 43.849 50.2682 43.849C51.0541 43.849 51.6931 43.21 51.6931 42.4198Z" fill="#FAE7DB"/>
<path d="M51.6935 42.4198C51.6935 41.6296 51.0545 40.9905 50.2643 40.9905H50.1261C51.2877 40.9905 52.0433 39.7728 51.5295 38.7322L50.7911 37.2382C50.6529 37.2598 50.5147 37.29 50.3809 37.3289C49.5259 37.5664 48.7573 38.0413 47.9542 38.417C47.151 38.7927 46.2572 39.082 45.385 38.9179C44.5991 38.7711 43.9255 38.2788 43.1914 37.9636C42.8503 37.8211 42.466 37.7261 42.0947 37.7175L41.5938 38.7322C41.0799 39.7728 41.8356 40.9905 42.9971 40.9905H42.8589C42.0687 40.9905 41.4297 41.6296 41.4297 42.4198C41.4297 43.21 42.0687 43.849 42.8589 43.849C42.0687 43.849 41.4297 44.4881 41.4297 45.2783C41.4297 46.0685 42.0687 46.7075 42.8589 46.7075C42.0687 46.7075 41.4297 47.3466 41.4297 48.1368C41.4297 48.927 42.0687 49.5661 42.8589 49.5661C42.0687 49.5661 41.4297 50.2051 41.4297 50.9953C41.4297 51.7855 42.0687 52.4246 42.8589 52.4246H50.2643C51.0545 52.4246 51.6935 51.7855 51.6935 50.9953C51.6935 50.2051 51.0545 49.5661 50.2643 49.5661C51.0545 49.5661 51.6935 48.927 51.6935 48.1368C51.6935 47.3466 51.0545 46.7075 50.2643 46.7075C51.0545 46.7075 51.6935 46.0685 51.6935 45.2783C51.6935 44.4881 51.0545 43.849 50.2643 43.849C51.0545 43.849 51.6935 43.21 51.6935 42.4198Z" fill="#EB8F48"/>
<path d="M66.2703 70.0678H32.5598C31.1176 70.0678 29.8783 69.0488 29.602 67.6368L24.8047 43.3093H72.8034C73.4382 43.3093 73.9132 43.8879 73.7879 44.5097L69.2282 67.6368C68.9518 69.0488 67.7125 70.0678 66.2703 70.0678Z" fill="#EABC49"/>
<path d="M24.8062 43.3093L23.9339 38.8963C23.4848 36.625 21.477 34.9712 19.1625 34.9712H15.7556C15.3368 34.9712 15 34.6344 15 34.2199C15 33.8054 15.3368 33.4643 15.7556 33.4643H19.1625C22.1981 33.4643 24.8277 35.6276 25.415 38.6027L26.3779 43.3093H24.8062Z" fill="#2B5B4F"/>
<path d="M38.1797 77.9957C40.6908 77.9957 42.7265 75.96 42.7265 73.4489C42.7265 70.9377 40.6908 68.902 38.1797 68.902C35.6685 68.902 33.6328 70.9377 33.6328 73.4489C33.6328 75.96 35.6685 77.9957 38.1797 77.9957Z" fill="#EB8F48"/>
<path d="M36.3203 73.4489C36.3203 74.4765 37.1537 75.3099 38.1814 75.3099C39.209 75.3099 40.0424 74.4765 40.0424 73.4489C40.0424 72.4212 39.209 71.5878 38.1814 71.5878C37.1537 71.5878 36.3203 72.4212 36.3203 73.4489Z" fill="#2B5B4F"/>
<path d="M60.6562 77.9957C63.1674 77.9957 65.2031 75.96 65.2031 73.4489C65.2031 70.9377 63.1674 68.902 60.6562 68.902C58.1451 68.902 56.1094 70.9377 56.1094 73.4489C56.1094 75.96 58.1451 77.9957 60.6562 77.9957Z" fill="#EB8F48"/>
<path d="M58.8008 73.4489C58.8008 74.4765 59.6342 75.3099 60.6618 75.3099C61.6895 75.3099 62.5229 74.4765 62.5229 73.4489C62.5229 72.4212 61.6895 71.5878 60.6618 71.5878C59.6298 71.5921 58.8008 72.4212 58.8008 73.4489Z" fill="#2B5B4F"/>
<path opacity="0.8" d="M49.3055 65.7671C48.6448 65.7671 48.1094 65.2317 48.1094 64.5711V48.8104C48.1094 48.1497 48.6448 47.6143 49.3055 47.6143C49.9661 47.6143 50.5015 48.1497 50.5015 48.8104V64.5711C50.5015 65.2317 49.9661 65.7671 49.3055 65.7671Z" fill="#D39F37"/>
<path opacity="0.8" d="M39.6844 65.7671C39.0237 65.7671 38.4883 65.2317 38.4883 64.5711V48.8104C38.4883 48.1497 39.0237 47.6143 39.6844 47.6143C40.345 47.6143 40.8804 48.1497 40.8804 48.8104V64.5711C40.8804 65.2317 40.345 65.7671 39.6844 65.7671Z" fill="#D39F37"/>
<path opacity="0.8" d="M58.9266 65.7671C59.5872 65.7671 60.1226 65.2317 60.1226 64.5711V48.8104C60.1226 48.1497 59.5872 47.6143 58.9266 47.6143C58.2659 47.6143 57.7305 48.1497 57.7305 48.8104V64.5711C57.7305 65.2317 58.2659 65.7671 58.9266 65.7671Z" fill="#D39F37"/>
</g>
<defs>
<clipPath id="clip0_2503_4792">
<rect width="58.811" height="56" fill="white" transform="translate(15 22)"/>
</clipPath>
</defs>
</svg>
