<svg width="100" height="100" viewBox="0 0 100 100" fill="none" xmlns="http://www.w3.org/2000/svg">
<rect width="100" height="100" fill="#F1F4F3"/>
<path d="M71.7192 60.5057C75.6422 55.7049 78 49.5739 78 42.8976C78 27.4912 65.4641 15 49.9974 15C34.5308 15 22 27.4912 22 42.8976C22 49.5739 24.3578 55.6998 28.2808 60.5057L28.2961 60.5209C28.7257 61.0459 29.1809 61.5555 29.6515 62.0499L48.4682 83.3069C49.2814 84.2242 50.7186 84.2242 51.5318 83.3069L70.3485 62.0499C70.8191 61.5555 71.2692 61.0459 71.7039 60.5209L71.7192 60.5057Z" fill="#DB3030"/>
<path opacity="0.8" d="M49.9984 63.9457C61.6645 63.9457 71.1218 54.5222 71.1218 42.8976C71.1218 31.2731 61.6645 21.8495 49.9984 21.8495C38.3323 21.8495 28.875 31.2731 28.875 42.8976C28.875 54.5222 38.3323 63.9457 49.9984 63.9457Z" fill="#700B0B"/>
<path d="M61.3332 37.1948C61.2616 37.1081 61.1542 37.0572 61.0366 37.0572H39.279L38.5374 33.3011C38.5016 33.1228 38.343 32.9954 38.164 32.9954H35.9852C35.7755 32.9954 35.6016 33.1635 35.6016 33.3776C35.6016 33.5865 35.7755 33.7598 35.9852 33.7598H37.852L38.5936 37.5159L40.7469 48.3865C40.9054 49.1917 41.6215 49.7778 42.45 49.7778H43.2121C42.803 50.211 42.5472 50.7869 42.5472 51.429C42.5472 52.7592 43.6315 53.8447 44.9716 53.8447C46.3065 53.8447 47.3959 52.7643 47.3959 51.429C47.3959 50.7869 47.1402 50.211 46.731 49.7778H53.293C52.8839 50.211 52.6281 50.7869 52.6281 51.429C52.6281 52.7592 53.7176 53.8447 55.0525 53.8447C56.3874 53.8447 57.4768 52.7643 57.4768 51.429C57.4768 50.7869 57.2211 50.211 56.8119 49.7778H57.574C58.4026 49.7778 59.1135 49.1917 59.2771 48.3865L61.4304 37.5159C61.4355 37.3986 61.4048 37.2814 61.3332 37.1948ZM60.1313 40.0437H55.6458L55.8657 37.8165H60.5712L60.1313 40.0437ZM59.538 43.0352H55.3491L55.569 40.8081H59.9779L59.538 43.0352ZM58.9498 46.0217H55.0576L55.2775 43.7946H59.3897L58.9498 46.0217ZM50.3828 40.0437V37.8165H55.0934L54.8735 40.0437H50.3828ZM54.8019 40.8081L54.5819 43.0352H50.3879V40.8081H54.8019ZM49.6207 40.0437H45.1301L44.9102 37.8165H49.6207V40.0437ZM49.6207 40.8081V43.0352H45.4268L45.2068 40.8081H49.6207ZM44.6544 43.0352H40.4656L40.0257 40.8081H44.4345L44.6544 43.0352ZM40.6139 43.7946H44.726L44.946 46.0217H41.0538L40.6139 43.7946ZM45.4984 43.7946H49.6207V46.0217H45.7183L45.4984 43.7946ZM49.6207 46.7862V49.0133H46.0149L45.795 46.7862H49.6207ZM50.3828 46.7862H54.2086L53.9886 49.0133H50.3828V46.7862ZM50.3828 46.0217V43.7946H54.5052L54.2853 46.0217H50.3828ZM44.1379 37.8165L44.3578 40.0437H39.8723L39.4324 37.8165H44.1379ZM41.4936 48.2336L41.2072 46.7862H45.0227L45.2426 49.0133H42.4398C41.9795 49.0082 41.5806 48.682 41.4936 48.2336ZM44.9613 53.0751C44.0458 53.0751 43.3042 52.3362 43.3042 51.4239C43.3042 50.5117 44.0458 49.7727 44.9613 49.7727C45.8768 49.7727 46.6185 50.5117 46.6185 51.4239C46.6185 52.3362 45.8768 53.0751 44.9613 53.0751ZM56.6994 51.4239C56.6994 52.3362 55.9578 53.0751 55.0422 53.0751C54.1267 53.0751 53.3851 52.3362 53.3851 51.4239C53.3851 50.5117 54.1267 49.7727 55.0422 49.7727C55.9526 49.7727 56.6994 50.5167 56.6994 51.4239ZM57.5586 49.0082H54.7558L54.9758 46.7811H58.7913L58.5048 48.2285C58.423 48.682 58.019 49.0082 57.5586 49.0082Z" fill="white"/>
</svg>
