<svg width="100" height="100" viewBox="0 0 100 100" fill="none" xmlns="http://www.w3.org/2000/svg">
<rect width="100" height="100" fill="#F1F4F3"/>
<g clip-path="url(#clip0_2503_4792)">
<path d="M52.7937 33.7587V23.2038C52.7937 22.5387 52.2531 22 51.5857 22H47.5877C46.9202 22 46.3796 22.5387 46.3796 23.2038V33.7587C46.3796 37.6561 41 40.8485 41 45.0318V76.1976C41 77.1953 41.8143 78.0067 42.8154 78.0067H49.59H56.3646C57.3657 78.0067 58.18 77.1953 58.18 76.1976V45.0318C58.1733 40.8485 52.7937 37.6561 52.7937 33.7587Z" fill="#2B5B4F"/>
<path d="M52.793 33.7587H46.3789V23.2038C46.3789 22.5387 46.9195 22 47.587 22H51.585C52.2524 22 52.793 22.5387 52.793 23.2038V33.7587Z" fill="#D7513E"/>
<path d="M52.8613 26.5558H46.3137C45.7597 26.5558 45.3125 26.1102 45.3125 25.5582C45.3125 25.0062 45.7597 24.5606 46.3137 24.5606H52.8613C53.4153 24.5606 53.8625 25.0062 53.8625 25.5582C53.8625 26.1036 53.4153 26.5558 52.8613 26.5558Z" fill="#EB8F48"/>
<path d="M54.9346 47.885H44.2422V70.5511H54.9346V47.885Z" fill="#EB8F48"/>
</g>
<defs>
<clipPath id="clip0_2503_4792">
<rect width="17.1733" height="56" fill="white" transform="translate(41 22)"/>
</clipPath>
</defs>
</svg>
