<svg width="100" height="100" viewBox="0 0 100 100" fill="none" xmlns="http://www.w3.org/2000/svg">
<rect width="100" height="100" fill="#F1F4F3"/>
<g clip-path="url(#clip0_2503_4792)">
<path d="M71.674 22.1051C63.8606 19.9702 53.8199 50.5704 63.1978 53.1323C72.5757 55.6943 79.4905 24.2433 71.674 22.1051Z" fill="#EABC49"/>
<path d="M73.645 28.8829C73.0236 27.6816 71.9275 26.732 70.519 26.3496C69.1106 25.9672 67.683 26.2253 66.5391 26.9423L73.645 28.8829Z" fill="#EB8F48"/>
<path d="M68.3364 48.3079C67.715 47.1066 66.6189 46.157 65.2104 45.7747C63.802 45.3891 62.3744 45.6504 61.2305 46.3674L68.3364 48.3079Z" fill="#EB8F48"/>
<path d="M72.9629 33.9048C72.23 32.4868 70.9331 31.362 69.2697 30.9095C67.6064 30.4538 65.9207 30.7629 64.5664 31.6105L72.9629 33.9048Z" fill="#EB8F48"/>
<path d="M70.2246 43.9265C69.4917 42.5085 68.1948 41.3868 66.5314 40.9311C64.8681 40.4755 63.1824 40.7846 61.8281 41.6322L70.2246 43.9265Z" fill="#EB8F48"/>
<path d="M71.9112 39.083C71.1177 37.5502 69.7156 36.3362 67.9184 35.8454C66.1212 35.3547 64.2986 35.6861 62.8359 36.6038L71.9112 39.083Z" fill="#EB8F48"/>
<path d="M60.4755 25.2439H54.0482C53.2484 25.2439 52.6016 24.597 52.6016 23.7972C52.6016 22.9974 53.2484 22.3505 54.0482 22.3505H60.4755C61.2753 22.3505 61.9221 22.9974 61.9221 23.7972C61.9221 24.5938 61.2753 25.2439 60.4755 25.2439Z" fill="#D7513E"/>
<path d="M63.2649 34.8194C63.2649 33.8953 62.5161 33.1464 61.592 33.1464H61.4295C62.787 33.1464 63.6728 31.7189 63.0738 30.5016L60.4736 25.2407H57.2583H54.0463L51.4461 30.5016C50.8439 31.7189 51.7297 33.1464 53.0904 33.1464H52.9279C52.0038 33.1464 51.2549 33.8953 51.2549 34.8194C51.2549 35.7434 52.0038 36.4923 52.9279 36.4923C52.0038 36.4923 51.2549 37.2411 51.2549 38.1652C51.2549 39.0893 52.0038 39.8381 52.9279 39.8381C52.0038 39.8381 51.2549 40.587 51.2549 41.5111C51.2549 42.4352 52.0038 43.184 52.9279 43.184C52.0038 43.184 51.2549 43.9328 51.2549 44.8569C51.2549 45.781 52.0038 46.5298 52.9279 46.5298H61.592C62.5161 46.5298 63.2649 45.781 63.2649 44.8569C63.2649 43.9328 62.5161 43.184 61.592 43.184C62.5161 43.184 63.2649 42.4352 63.2649 41.5111C63.2649 40.587 62.5161 39.8381 61.592 39.8381C62.5161 39.8381 63.2649 39.0893 63.2649 38.1652C63.2649 37.2411 62.5161 36.4923 61.592 36.4923C62.5161 36.4923 63.2649 35.7434 63.2649 34.8194Z" fill="#FAE7DB"/>
<path d="M63.2649 34.8193C63.2649 33.8952 62.5161 33.1464 61.592 33.1464H61.4295C62.787 33.1464 63.6728 31.7189 63.0738 30.5016L62.2102 28.7522C62.0477 28.7809 61.8884 28.8127 61.7322 28.8574C60.7317 29.1378 59.8331 29.689 58.893 30.1288C57.953 30.5685 56.9078 30.9063 55.885 30.7151C54.964 30.543 54.1802 29.9663 53.3166 29.5998C52.9183 29.4309 52.469 29.3226 52.0324 29.313L51.4461 30.5016C50.8439 31.7189 51.7297 33.1464 53.0904 33.1464H52.9279C52.0038 33.1464 51.2549 33.8952 51.2549 34.8193C51.2549 35.7434 52.0038 36.4923 52.9279 36.4923C52.0038 36.4923 51.2549 37.2411 51.2549 38.1652C51.2549 39.0893 52.0038 39.8381 52.9279 39.8381C52.0038 39.8381 51.2549 40.587 51.2549 41.511C51.2549 42.4351 52.0038 43.184 52.9279 43.184C52.0038 43.184 51.2549 43.9328 51.2549 44.8569C51.2549 45.781 52.0038 46.5298 52.9279 46.5298H61.592C62.5161 46.5298 63.2649 45.781 63.2649 44.8569C63.2649 43.9328 62.5161 43.184 61.592 43.184C62.5161 43.184 63.2649 42.4351 63.2649 41.511C63.2649 40.587 62.5161 39.8381 61.592 39.8381C62.5161 39.8381 63.2649 39.0893 63.2649 38.1652C63.2649 37.2411 62.5161 36.4923 61.592 36.4923C62.5161 36.4923 63.2649 35.7434 63.2649 34.8193Z" fill="#EB8F48"/>
<path d="M37.7669 31.824H24.3867V53.9481H37.7669V31.824Z" fill="#2B5B4F"/>
<path d="M40.931 26.681H27.5508V24.4887C27.5508 23.402 28.4334 22.5194 29.5201 22.5194H38.9617C40.0483 22.5194 40.931 23.402 40.931 24.4887V26.681Z" fill="#2B5B4F"/>
<path d="M37.7669 31.824H24.3867L27.5509 26.681H40.9312L37.7669 31.824Z" fill="#FAE7DB"/>
<path d="M44.0941 31.824V53.9481H37.7656V31.824L40.9298 26.681L44.0941 31.824Z" fill="#EABC49"/>
<path d="M34.7871 36.6421H27.3657C27.0949 36.6421 26.875 36.4222 26.875 36.1513C26.875 35.8805 27.0949 35.6606 27.3657 35.6606H34.7871C35.058 35.6606 35.2779 35.8805 35.2779 36.1513C35.2747 36.4222 35.058 36.6421 34.7871 36.6421Z" fill="#254C40"/>
<path d="M34.7871 40.1536H27.3657C27.0949 40.1536 26.875 39.9337 26.875 39.6629C26.875 39.392 27.0949 39.1721 27.3657 39.1721H34.7871C35.058 39.1721 35.2779 39.392 35.2779 39.6629C35.2747 39.9337 35.058 40.1536 34.7871 40.1536Z" fill="#254C40"/>
<path d="M34.7871 43.662H27.3657C27.0949 43.662 26.875 43.4421 26.875 43.1712C26.875 42.9004 27.0949 42.6805 27.3657 42.6805H34.7871C35.058 42.6805 35.2779 42.9004 35.2779 43.1712C35.2747 43.4421 35.058 43.662 34.7871 43.662Z" fill="#EABC49"/>
<path d="M46.2362 48.308L45.1751 47.2819L43.7379 47.6101L42.6768 46.584L41.2397 46.9123L40.1786 45.8862L38.7383 46.2176C38.7383 46.2176 41.0931 41.6768 42.2084 37.6809C43.3237 33.685 43.6583 28.5802 43.6583 28.5802L44.7194 29.6062L46.1597 29.278L47.2208 30.3041L48.6579 29.9759L49.719 31.0019L51.1562 30.6737L52.2173 31.6998L53.6544 31.3716L54.7155 32.3976L56.1526 32.0694L57.2138 33.0955L58.6541 32.7673C58.6541 32.7673 56.2992 37.3081 55.1839 41.304C54.0687 45.2999 53.7341 50.4047 53.7341 50.4047L52.673 49.3786L51.2326 49.7068L50.1715 48.6808L48.7344 49.009L47.6733 47.9829L46.2362 48.308Z" fill="#FAE7DB"/>
<path d="M56.155 32.063L54.7179 32.3913L53.6568 31.3652L52.2197 31.6934L51.1586 30.6673L49.7214 30.9956L48.6603 29.9695L47.2232 30.2977L46.1621 29.2716L44.7218 29.5999L43.6607 28.5738C43.6607 28.5738 43.6065 29.3864 43.4727 30.6164L57.761 34.6027C58.2836 33.481 58.6565 32.7577 58.6565 32.7577L57.2161 33.0859L56.155 32.063Z" fill="#EABC49"/>
<path d="M41.2397 46.9155L42.6768 46.5872L43.7379 47.6133L45.1751 47.2851L46.2362 48.3111L47.6733 47.9829L48.7344 49.009L50.1715 48.6808L51.2326 49.7068L52.673 49.3786L53.7341 50.4047C53.7341 50.4047 53.7882 49.5921 53.9221 48.3621L39.6369 44.3694C39.1143 45.4911 38.7383 46.2176 38.7383 46.2176L40.1786 45.8894L41.2397 46.9155Z" fill="#EABC49"/>
<path d="M51.7864 40.3512C51.0216 43.1012 49.0141 44.943 47.3093 44.465C45.6014 43.9902 44.8398 41.3741 45.6077 38.6241C46.3757 35.8741 48.38 34.0323 50.0848 34.5103C51.7928 34.9883 52.5544 37.6012 51.7864 40.3512Z" fill="#D7513E"/>
<path d="M69.6903 78H30.2603C28.5746 78 27.1279 76.8083 26.7997 75.1544L21.1914 48.8401H78.7592L73.1477 75.1544C72.8227 76.8083 71.376 78 69.6903 78Z" fill="#D7513E"/>
<path d="M79.2299 48.8401H20.7189C19.3041 48.8401 18.1602 47.693 18.1602 46.2813V44.379C18.1602 42.9642 19.3073 41.8202 20.7189 41.8202H79.2299C80.6447 41.8202 81.7887 42.9673 81.7887 44.379V46.2813C81.7887 47.6961 80.6447 48.8401 79.2299 48.8401Z" fill="#C94536"/>
<path d="M49.9763 72.3694C49.2689 72.3694 48.6953 71.7958 48.6953 71.0884V55.7485C48.6953 55.0411 49.2689 54.4675 49.9763 54.4675C50.6837 54.4675 51.2573 55.0411 51.2573 55.7485V71.0884C51.2573 71.799 50.6837 72.3694 49.9763 72.3694Z" fill="#C94536"/>
<path d="M57.1443 72.3694C56.4369 72.3694 55.8633 71.7958 55.8633 71.0884V55.7485C55.8633 55.0411 56.4369 54.4675 57.1443 54.4675C57.8517 54.4675 58.4252 55.0411 58.4252 55.7485V71.0884C58.4252 71.799 57.8517 72.3694 57.1443 72.3694Z" fill="#C94536"/>
<path d="M64.32 72.3694C63.6126 72.3694 63.0391 71.7958 63.0391 71.0884V55.7485C63.0391 55.0411 63.6126 54.4675 64.32 54.4675C65.0275 54.4675 65.601 55.0411 65.601 55.7485V71.0884C65.5978 71.799 65.0243 72.3694 64.32 72.3694Z" fill="#C94536"/>
<path d="M42.8044 72.3694C43.5118 72.3694 44.0854 71.7958 44.0854 71.0884V55.7485C44.0854 55.0411 43.5118 54.4675 42.8044 54.4675C42.097 54.4675 41.5234 55.0411 41.5234 55.7485V71.0884C41.5234 71.799 42.097 72.3694 42.8044 72.3694Z" fill="#C94536"/>
<path d="M35.6365 72.3694C36.3439 72.3694 36.9174 71.7958 36.9174 71.0884V55.7485C36.9174 55.0411 36.3439 54.4675 35.6365 54.4675C34.929 54.4675 34.3555 55.0411 34.3555 55.7485V71.0884C34.3555 71.799 34.929 72.3694 35.6365 72.3694Z" fill="#C94536"/>
<path d="M80.8463 60.694L65.2546 46.8294C64.4834 46.1443 64.4165 44.9653 65.1016 44.1942C65.7867 43.423 66.9657 43.3561 67.7369 44.0412L83.3286 57.9058C84.0997 58.5909 84.1666 59.7699 83.4815 60.541C82.7964 61.3122 81.6174 61.3791 80.8463 60.694Z" fill="#EABC49"/>
<path d="M67.2341 45.4178C67.2341 45.8384 66.8931 46.1794 66.4725 46.1794C66.0519 46.1794 65.7109 45.8384 65.7109 45.4178C65.7109 44.9972 66.0519 44.6562 66.4725 44.6562C66.8931 44.6562 67.2341 44.9972 67.2341 45.4178Z" fill="#D7513E"/>
<path d="M19.108 60.694L34.6996 46.8294C35.4708 46.1443 35.5377 44.9653 34.8526 44.1942C34.1675 43.423 32.9885 43.3561 32.2173 44.0412L16.6257 57.9058C15.8545 58.5909 15.7876 59.7699 16.4727 60.541C17.1578 61.3122 18.3368 61.3791 19.108 60.694Z" fill="#EABC49"/>
<path d="M32.7188 45.4178C32.7188 45.8384 33.0597 46.1794 33.4803 46.1794C33.901 46.1794 34.2419 45.8384 34.2419 45.4178C34.2419 44.9972 33.901 44.6562 33.4803 44.6562C33.0597 44.6562 32.7188 44.9972 32.7188 45.4178Z" fill="#D7513E"/>
</g>
<defs>
<clipPath id="clip0_2503_4792">
<rect width="67.9495" height="56" fill="white" transform="translate(16 22)"/>
</clipPath>
</defs>
</svg>
