<svg width="100" height="100" viewBox="0 0 100 100" fill="none" xmlns="http://www.w3.org/2000/svg">
<rect width="100" height="100" fill="#F1F4F3"/>
<path d="M49.8062 78L45.8385 75.8498L41.8708 78L37.9031 75.8498L33.9354 78L29.9677 75.8498L26 78C26 78 29.2083 62.6838 29.2083 50.0043C29.2083 37.3162 26 22.0085 26 22.0085L29.9677 24.1588L33.9354 22.0085L37.9031 24.1588L41.8708 22.0085L45.8385 24.1588L49.8062 22.0085L53.7739 24.1588L57.7416 22.0085L61.7093 24.1588L65.677 22.0085L69.6447 24.1588L73.6124 22.0085C73.6124 22.0085 70.4041 37.3247 70.4041 50.0043C70.4041 62.6924 73.6124 78 73.6124 78L69.6447 75.8498L65.677 78L61.7093 75.8498L57.7416 78L53.7739 75.8498L49.8062 78Z" fill="#FAE7DB"/>
<path d="M65.677 22L61.7093 24.1502L57.7416 22L53.7739 24.1502L49.8062 22L45.8385 24.1502L41.8708 22L37.9031 24.1502L33.9354 22L29.9677 24.1502L26 22C26 22 26.5119 24.4403 27.1263 28.1777H72.4946C73.1089 24.4403 73.6209 22 73.6209 22L69.6532 24.1502L65.677 22Z" fill="#2B5B4F"/>
<path d="M33.9439 78L37.9116 75.8498L41.8793 78L45.847 75.8498L49.8147 78L53.7824 75.8498L57.7501 78L61.7178 75.8498L65.6855 78L69.6532 75.8498L73.6209 78C73.6209 78 73.1089 75.5597 72.4946 71.8224H27.1263C26.5119 75.5597 26 78 26 78L29.9677 75.8498L33.9439 78Z" fill="#2B5B4F"/>
<path d="M49.8126 65.7983C55.2319 65.7983 59.6252 58.7233 59.6252 49.9958C59.6252 41.2683 55.2319 34.1933 49.8126 34.1933C44.3932 34.1933 40 41.2683 40 49.9958C40 58.7233 44.3932 65.7983 49.8126 65.7983Z" fill="#D7513E"/>
</svg>
