<svg xmlns="http://www.w3.org/2000/svg" xmlns:xlink="http://www.w3.org/1999/xlink" width="192" height="148" fill="none" xmlns:v="https://vecta.io/nano"><style><![CDATA[.B{fill:#f6651d}.C{fill:#edbd7b}.D{fill:#d9a761}.E{fill:#dc4b03}.F{fill:#9e7442}.G{fill:#d1c8c9}.H{fill:#797071}]]></style><g clip-path="url(#A)"><path d="M186.055 144.498H5.945c-1.074 0-1.945.871-1.945 1.945s.871 1.946 1.945 1.946h180.11c1.074 0 1.945-.871 1.945-1.946s-.871-1.945-1.945-1.945z" fill="#fd5631"/><path d="M72.312 92.847H57.684v51.655h14.629V92.847z" fill="#b9d2e6"/><path d="M80.095 92.847h-7.784v51.654h7.784V92.847z" fill="#98b1c5"/><path d="M76.607 89.089H61.173v3.891h15.434v-3.891z" fill="#7c93a5"/><g fill="#fff"><use xlink:href="#B"/><path d="M76.605 96.869h-1.342v47.092h1.342V96.869zm-2.283 0H72.98v47.092h1.342V96.869zm-2.412 0h-1.342v47.092h1.342V96.869zm-2.285 0h-1.342v47.092h1.342V96.869zm-2.417 0h-1.342v47.092h1.342V96.869zm-2.279 0h-1.342v47.092h1.342V96.869zm-2.417 0H61.17v47.092h1.342V96.869zm-2.28.001H58.89v47.092h1.342V96.87z"/></g><path d="M130.827 101.428h-18.118v43.202h18.118v-43.202z" fill="#5ea7df"/><path d="M148.944 101.428h-18.118v43.202h18.118v-43.202z" fill="#2470ab"/><g fill="#fff"><use xlink:href="#C"/><path d="M119.958 106.396h-1.879v1.476h1.879v-1.476zm3.355 0h-1.879v1.476h1.879v-1.476zm3.353 0h-1.879v1.476h1.879v-1.476zm3.355 0h-1.879v1.476h1.879v-1.476zm3.49 0h-1.879v1.476h1.879v-1.476zm3.354 0h-1.879v1.476h1.879v-1.476zm3.359 0h-1.879v1.476h1.879v-1.476zm3.353 0h-1.879v1.476h1.879v-1.476zm3.355 0h-1.879v1.476h1.879v-1.476zm-30.332 2.68h-1.879v1.476h1.879v-1.476zm3.358 0h-1.879v1.476h1.879v-1.476zm3.355 0h-1.879v1.476h1.879v-1.476zm3.353 0h-1.879v1.476h1.879v-1.476zm3.355 0h-1.879v1.476h1.879v-1.476zm3.49 0h-1.879v1.476h1.879v-1.476zm3.354 0h-1.879v1.476h1.879v-1.476zm3.359 0h-1.879v1.476h1.879v-1.476zm3.353 0h-1.879v1.476h1.879v-1.476zm3.355 0h-1.879v1.476h1.879v-1.476zm-30.332 2.82h-1.879v1.476h1.879v-1.476zm3.358 0h-1.879v1.476h1.879v-1.476zm3.355 0h-1.879v1.476h1.879v-1.476zm3.353 0h-1.879v1.476h1.879v-1.476zm3.355 0h-1.879v1.476h1.879v-1.476zm3.49 0h-1.879v1.476h1.879v-1.476zm3.354 0h-1.879v1.476h1.879v-1.476zm3.359 0h-1.879v1.476h1.879v-1.476zm3.353 0h-1.879v1.476h1.879v-1.476zm3.355 0h-1.879v1.476h1.879v-1.476zM116.6 114.58h-1.879v1.476h1.879v-1.476zm3.358 0h-1.879v1.476h1.879v-1.476zm3.355 0h-1.879v1.476h1.879v-1.476zm3.353 0h-1.879v1.476h1.879v-1.476zm3.355 0h-1.879v1.476h1.879v-1.476zm3.49 0h-1.879v1.476h1.879v-1.476zm3.354 0h-1.879v1.476h1.879v-1.476zm3.359 0h-1.879v1.476h1.879v-1.476zm3.353 0h-1.879v1.476h1.879v-1.476zm3.355 0h-1.879v1.476h1.879v-1.476zm-30.332 2.68h-1.879v1.476h1.879v-1.476zm3.358 0h-1.879v1.476h1.879v-1.476zm3.355 0h-1.879v1.476h1.879v-1.476zm3.353 0h-1.879v1.476h1.879v-1.476zm3.355 0h-1.879v1.476h1.879v-1.476zm3.49 0h-1.879v1.476h1.879v-1.476zm3.354 0h-1.879v1.476h1.879v-1.476zm3.359 0h-1.879v1.476h1.879v-1.476zm3.353 0h-1.879v1.476h1.879v-1.476zm3.355 0h-1.879v1.476h1.879v-1.476zm-30.332 2.684h-1.879v1.476h1.879v-1.476zm3.358 0h-1.879v1.476h1.879v-1.476zm3.355 0h-1.879v1.476h1.879v-1.476zm3.353 0h-1.879v1.476h1.879v-1.476zm3.355 0h-1.879v1.476h1.879v-1.476zm3.49 0h-1.879v1.476h1.879v-1.476zm3.354 0h-1.879v1.476h1.879v-1.476zm3.359 0h-1.879v1.476h1.879v-1.476zm3.353 0h-1.879v1.476h1.879v-1.476zm3.355 0h-1.879v1.476h1.879v-1.476z"/><use xlink:href="#D"/><path d="M119.958 122.629h-1.879v1.475h1.879v-1.475zm3.354 0h-1.879v1.476h1.879v-1.476zm3.355 0h-1.879v1.476h1.879v-1.476zm3.354 0h-1.879v1.475h1.879v-1.475zm3.491 0h-1.879v1.476h1.879v-1.476zm3.353 0h-1.879v1.475h1.879v-1.475zm3.359 0h-1.879v1.475h1.879v-1.475zm3.353 0h-1.879v1.476h1.879v-1.476zm3.356 0h-1.879v1.476h1.879v-1.476zm-30.333 2.82h-1.879v1.476h1.879v-1.476zm3.358 0h-1.879v1.476h1.879v-1.476zm3.355 0h-1.879v1.476h1.879v-1.476zm3.353 0h-1.879v1.476h1.879v-1.476zm3.355 0h-1.879v1.476h1.879v-1.476zm3.49 0h-1.879v1.476h1.879v-1.476zm3.354 0h-1.879v1.476h1.879v-1.476zm3.359 0h-1.879v1.476h1.879v-1.476zm3.353 0h-1.879v1.476h1.879v-1.476zm3.355 0h-1.879v1.476h1.879v-1.476zm-30.332 2.68h-1.879v1.476h1.879v-1.476zm3.358 0h-1.879v1.476h1.879v-1.476zm3.354 0h-1.879v1.476h1.879v-1.476zm3.355 0h-1.879v1.476h1.879v-1.476zm3.354 0h-1.879v1.476h1.879v-1.476zm3.491 0h-1.879v1.476h1.879v-1.476zm3.353 0h-1.879v1.476h1.879v-1.476zm3.359 0h-1.879v1.476h1.879v-1.476zm3.353 0h-1.879v1.476h1.879v-1.476zm3.356 0h-1.879v1.476h1.879v-1.476zm-30.333 2.684h-1.879v1.476h1.879v-1.476zm3.358 0h-1.879v1.476h1.879v-1.476zm3.354 0h-1.879v1.476h1.879v-1.476zm3.355 0h-1.879v1.476h1.879v-1.476zm3.354 0h-1.879v1.476h1.879v-1.476zm3.491 0h-1.879v1.476h1.879v-1.476zm3.353 0h-1.879v1.476h1.879v-1.476zm3.359 0h-1.879v1.476h1.879v-1.476zm3.353 0h-1.879v1.476h1.879v-1.476zm3.356 0h-1.879v1.476h1.879v-1.476zm-30.333 2.684h-1.879v1.476h1.879v-1.476zm3.358 0h-1.879v1.476h1.879v-1.476zm3.354 0h-1.879v1.476h1.879v-1.476zm3.355 0h-1.879v1.476h1.879v-1.476zm3.354 0h-1.879v1.476h1.879v-1.476zm3.491 0h-1.879v1.476h1.879v-1.476zm3.353 0h-1.879v1.476h1.879v-1.476zm3.359 0h-1.879v1.476h1.879v-1.476zm3.353 0h-1.879v1.476h1.879v-1.476zm3.356 0h-1.879v1.476h1.879v-1.476zm-30.333 2.68h-1.879v1.476h1.879v-1.476zm3.358 0h-1.879v1.476h1.879v-1.476zm3.355 0h-1.879v1.476h1.879v-1.476zm3.353 0h-1.879v1.476h1.879v-1.476zm3.355 0h-1.879v1.476h1.879v-1.476zm3.49 0h-1.879v1.476h1.879v-1.476zm3.354 0h-1.879v1.476h1.879v-1.476zm3.359 0h-1.879v1.476h1.879v-1.476zm3.353 0h-1.879v1.476h1.879v-1.476zm3.355 0h-1.879v1.476h1.879v-1.476zm-30.332 2.821h-1.879v1.476h1.879v-1.476zm3.358 0h-1.879v1.476h1.879v-1.476zm3.354-.001h-1.879v1.476h1.879v-1.476zm3.355 0h-1.879v1.476h1.879v-1.476zm3.354.001h-1.879v1.476h1.879v-1.476zm3.491-.001h-1.879v1.476h1.879v-1.476zm3.353.001h-1.879v1.476h1.879v-1.476zm3.359 0h-1.879v1.476h1.879v-1.476zm3.353-.001h-1.879v1.476h1.879v-1.476zm3.356 0h-1.879v1.476h1.879v-1.476zm-30.333 2.685h-1.879v1.476h1.879v-1.476zm3.358 0h-1.879v1.476h1.879v-1.476zm3.355 0h-1.879v1.476h1.879v-1.476zm3.353 0h-1.879v1.476h1.879v-1.476zm3.355 0h-1.879v1.476h1.879v-1.476zm3.49 0h-1.879v1.476h1.879v-1.476zm3.354 0h-1.879v1.476h1.879v-1.476zm3.359 0h-1.879v1.476h1.879v-1.476zm3.353 0h-1.879v1.476h1.879v-1.476zm3.355 0h-1.879v1.476h1.879v-1.476z"/></g><path d="M140.22 98.48h-19.192v2.951h19.192V98.48z" fill="#7c93a5"/><path d="M36.208 90.832h-.939v4.964h.939v-4.964z" class="B"/><path d="M47.08 128.67H31.512 15.944l-9.26 15.831h24.829 24.694L47.08 128.67z" class="C"/><path d="M31.513 127.327H15.944v1.342h15.568 15.568v-1.342H31.513z" class="D"/><path d="M43.054 118.471H31.512 19.97l-2.953 8.855h14.494 14.36l-2.818-8.855z" class="C"/><path d="M36.879 105.996h-5.368-5.368l-4.563 12.477h9.931 9.932l-4.563-12.477z" class="D"/><path d="M31.512 95.8h-5.368v10.197h5.368 5.368V95.8h-5.368z" class="C"/><g class="D"><path d="M27.353 96.737h-.268v9.258h.268.268v-9.258h-.268zm8.318 0h.268v9.258h-.268-.403v-9.258h.403z"/><path d="M36.612 97.008v-.403h-10.2v.403.268h10.2v-.268z"/></g><path d="M31.512 79.963H28.56v15.832h2.953 2.953V79.963h-2.953z" class="B"/><g class="E"><use xlink:href="#E"/><path d="M31.512 93.381H28.56v.402h2.953 2.953v-.402h-2.953zm0-2.145H28.56v.403h2.953 2.953v-.403h-2.953zm0-2.014H28.56v.403h2.953 2.953v-.403h-2.953zm0-2.148H28.56v.403h2.953 2.953v-.403h-2.953zm0-2.011H28.56v.402h2.953 2.953v-.402h-2.953zm0-2.011H28.56v.402h2.953 2.953v-.402h-2.953zm0-2.143H28.56v.402h2.953 2.953v-.402h-2.953z"/></g><g class="B"><path d="M32.319 76.075l-.805.939-.805-.939v-1.476l.805-.805.805.805v1.476zm-5.64 19.774h.94v-4.964h-.94v4.964z"/></g><path d="M31.915 76.61h-.403-.403c-1.476.805-2.416 2.013-2.55 3.22h2.953 2.953c-.268-1.073-1.074-2.415-2.55-3.22z" class="E"/><g class="B"><path d="M36.075 90.698l-.268.403-.403-.403v-.537l.403-.402.268.402v.537zm-9.126 0l.268.403.268-.403v-.537l-.268-.402-.268.402v.537z"/></g><g class="F"><path d="M41.041 117.265l-.134-.269H22.118l-.134.269h19.058zm-17.986-2.817l-.134.403H40.1l-.134-.403h-16.91zm.806-2.415l-.134.402h15.568l-.134-.402h-15.3zm.941-2.544l-.134.403h13.689l-.134-.403H24.802zm.939-2.42l-.134.403h11.81l-.134-.403H25.741zm-7.114 15.564l-.134.403H44.53l-.134-.403H18.627zm.806-2.684l-.134.402h24.426l-.134-.402H19.433zm26.038 5.902l-.134-.402H17.69l-.134.402h27.915z"/><path d="M15.271 130.012l-.268.403h33.015l-.269-.403H15.271zm-5.634 9.658l-.268.403h44.289l-.268-.403H9.637zm45.899 3.624l-.268-.403H7.758l-.268.403h48.047zm-44.019-6.84l-.269.403h40.531l-.269-.403H11.517zm1.879-3.221l-.268.403h36.773l-.268-.403H13.396zm18.115-35.554c-.671 0-1.208.537-1.208 1.207v7.111h1.208 1.208v-7.111a1.2 1.2 0 0 0-1.208-1.207zm2.147 19.317H29.23v1.476h4.429v-1.476z"/><path d="M32.719 118.471h-2.416v8.855h2.416v-8.855z"/></g><path d="M34.061 128.67h-5.1v7.782h5.1v-7.782z" class="B"/><g class="F"><path d="M32.184 130.012h-1.208v6.44h1.208v-6.44zm3.086 0h-1.208v6.44h1.208v-6.44z"/></g><path d="M35.805 130.012h-.537v6.44h.537v-6.44z" class="D"/><path d="M27.737 136.372h1.208v-6.44h-1.208v6.44z" class="F"/><path d="M31.511 121.828l-2.55 6.842h5.1l-2.55-6.842z" class="E"/><g class="D"><path d="M35.807 129.207h-1.745v.805h1.745v-.805zm-8.618 7.164h.537v-6.44h-.537v6.44z"/><path d="M27.15 129.996h1.745v-.805H27.15v.805zm-12.145 7.801H6.684v6.708h8.321v-6.708zm-1.21-14.759H8.158v8.05h5.637v-8.05z"/></g><path d="M11.783 124.916h-1.61v6.306h1.611v-6.306z" class="F"/><path d="M9.232 120.486h3.355l1.208 2.549H8.158l1.074-2.549z" class="C"/><g class="B"><path d="M8.026 131.219h5.771l1.342 6.574H6.684l1.342-6.574zm2.953-18.377c-.94 0-1.611.805-1.611 1.744v5.904h3.221v-5.904c0-.939-.805-1.744-1.61-1.744z"/></g><g class="E"><path d="M11.114 110.29h-.403v2.683h.403v-2.683z"/><path d="M10.979 112.842c-.94 0-1.611.805-1.611 1.744h3.221c0-.939-.805-1.744-1.61-1.744zm1.609 6.706H9.232v.269h3.355v-.269zm0-1.342H9.232v.269h3.355v-.269zm0-1.21H9.232v.269h3.355v-.269zm0-1.205H9.232v.268h3.355v-.268z"/></g><g class="D"><path d="M7.487 134.038l-.134.403h7.113l-.134-.403H7.487zm.4-1.61l-.134.403h6.308l-.134-.403h-6.04zm6.847 3.758l-.134-.537H7.218l-.134.537h7.65zm33.247 8.441h8.321v-6.709h-8.321v6.709zm1.341-13.447h5.637v-8.05h-5.637v8.05z"/></g><path d="M51.201 131.119h1.611v-6.306h-1.611v6.306z" class="F"/><path d="M53.79 120.486h-3.355l-1.208 2.549h5.637l-1.074-2.549z" class="C"/><g class="B"><path d="M54.863 131.219h-5.637l-1.342 6.574h8.321l-1.342-6.574zm-2.818-18.381c.94 0 1.611.805 1.611 1.744v5.904H50.3v-5.904c.134-.939.94-1.744 1.745-1.744z"/></g><g class="E"><path d="M51.873 113.172h.403v-2.684h-.403v2.684z"/><path d="M52.045 112.838c.94 0 1.611.805 1.611 1.744H50.3c.134-.939.94-1.744 1.745-1.744zm-1.646 6.834h3.355v-.268h-3.355v.268zm0-1.115h3.355v-.268h-3.355v.268zm0-1.247h3.355v-.268h-3.355v.268zm0-1.247h3.355v-.268h-3.355v.268z"/></g><g class="D"><path d="M55.532 134.038v.403h-6.979l.134-.403h6.845zm-.405-1.61l.134.403h-6.308v-.403h6.174zm-6.843 3.758v-.537H55.8l.134.537h-7.65z"/></g><path opacity=".78" d="M31.514 144.498h16.373 8.321v-6.708l-.403-2.013-.537-2.817-.134-.403-.268-1.208v-8.05l-1.074-2.549v-.805-.268-.939-.269-.939-.268-.939-.269-1.073c0-.939-.671-1.61-1.476-1.744v-2.549h-.403v2.549c-.805.134-1.476.805-1.476 1.744v1.073.269.939.268.939.269.939.268.805l-1.074 2.549v8.05l-.268 1.074-2.013-3.489v-1.341h-1.074l-.403-1.476-.134-.268-.805-2.55-.134-.268-.805-2.549-.134-.403-.403-1.475h-1.61l-.403-1.208-.134-.268-.805-2.147-.134-.402-.805-2.147-.134-.403-.805-2.146-.134-.403-.805-2.146v-.135l-.537-1.341V95.661h-.671v-4.964h-.268l.134-.134v-.671l-.268-.268-.268.268v.671l.134.134h-.268v4.964h-.805v-.403-1.61-.403-1.61-.403-1.61-.402-1.61-.402-1.61-.403-1.61-.403-1.61-.403-1.073c-.268-1.208-1.074-2.415-2.55-3.22h-.134l.537-.671v-1.476l-.805-.805-.134 70.572z" class="C"/><g class="B"><path d="M175.384 142.619l1.073-28.98h-2.952v.939h.671l1.476 2.817-1.476 25.224h1.208zm8.053 0l-1.208-28.98h3.087v.939h-.671l-1.476 2.817 1.342 25.224h-1.074z"/></g><g class="E"><path d="M185.181 113.639h-11.676v.939h11.676v-.939zm-8.722 2.548v.403h5.905v-.403h-5.905z"/></g><path d="M186.122 111.491s-1.208 1.208-1.61 1.208h-1.074c-.268 0-.671-.537-.671-.537h-.268s-.269.537-.671.537h-1.611c-.402 0-.805-1.074-.805-1.074h-.134-.135s-.536 1.074-.805 1.074h-1.61c-.403 0-.671-.537-.671-.537h-.269s-.402.537-.671.537h-1.073c-.403 0-1.611-1.208-1.611-1.208h-.134l1.208 2.147h5.905 5.905l1.208-2.147h-.403z" class="B"/><g class="C"><path d="M186.525 142.615h-14.226v1.878h14.226v-1.878z"/><path opacity=".78" d="M182.367 114.579v1.61h-2.953v.537h2.953v-.269l1.074 26.297h-4.027v1.879h7.114v-1.879h-2.014l-1.342-25.223 1.477-2.818h.671v-.939l1.208-2.147h-.403s-1.208 1.208-1.611 1.208h-1.073c-.269 0-.671-.537-.671-.537h-.269s-.268.537-.671.537h-1.61c-.403 0-.806-1.073-.806-1.073h-.134v2.951h3.087v-.134z"/></g><path d="M106.131 32.066H95.932v112.566h10.199V32.066z" fill="#ab9698"/><path d="M95.933 32.065h-10.2v112.566h10.2V32.065z" class="G"/><path d="M95.932 76.61l-2.684 3.757v64.132h2.684V76.61z" fill="#c2aa7d"/><path d="M95.932 76.61l2.684 3.757v64.132h-2.684V76.61z" fill="#977f52"/><g class="H"><use xlink:href="#F"/><path d="M92.039 141.546h-2.013v2.012h2.013v-2.012z"/><use xlink:href="#G"/><path d="M99.827 143.758h2.013v-2.013h-2.013v2.013z"/><use xlink:href="#H"/><path d="M92.039 137.924h-2.013v2.013h2.013v-2.013z"/><use xlink:href="#I"/><path d="M99.826 139.91h2.013v-2.012h-2.013v2.012zm-11.005-5.744h-2.013v2.013h2.013v-2.013zm3.218 0h-2.013v2.013h2.013v-2.013zm10.951 2.032h2.013v-2.013h-2.013v2.013zm-3.164 0h2.013v-2.013h-2.013v2.013zm-11.005-5.79h-2.013v2.013h2.013v-2.013zm3.218 0h-2.013v2.013h2.013v-2.013zm10.951 2.074h2.013v-2.013h-2.013v2.013zm-3.163 0h2.013v-2.013h-2.013v2.013zm-11.006-5.827h-2.013v2.012h2.013v-2.012zm3.218 0h-2.013v2.012h2.013v-2.012zm10.951 2.114h2.013v-2.012h-2.013v2.012zm-3.164 0h2.013v-2.012h-2.013v2.012zm-11.005-5.872h-2.013v2.013h2.013v-2.013zm3.218 0h-2.013v2.013h2.013v-2.013zm10.951 2.155h2.013v-2.013h-2.013v2.013zm-3.163 0h2.013v-2.013h-2.013v2.013zm-11.006-5.909h-2.013v2.013h2.013v-2.013zm3.218 0h-2.013v2.013h2.013v-2.013zm10.951 2.193h2.013v-2.012h-2.013v2.012zm-3.164 0h2.013v-2.012h-2.013v2.012zm-11.005-5.818h-2.013v2.012h2.013v-2.012zm3.218 0h-2.013v2.012h2.013v-2.012zm10.951 1.97h2.013v-2.012h-2.013v2.012zm-3.163 0h2.013v-2.012h-2.013v2.012zm-11.006-5.724h-2.013v2.012h2.013v-2.012zm3.218 0h-2.013v2.012h2.013v-2.012zm10.951 2.008h2.013v-2.013h-2.013v2.013zm-3.163 0h2.013v-2.013h-2.013v2.013zm-11.006-5.766h-2.013v2.013h2.013v-2.013zm3.218 0h-2.013v2.013h2.013v-2.013zm10.951 2.053h2.013v-2.013h-2.013v2.013zm-3.164 0h2.013v-2.013h-2.013v2.013zm-11.005-5.815h-2.013v2.013h2.013v-2.013zm3.218 0h-2.013v2.013h2.013v-2.013zm10.951 2.101h2.013v-2.012h-2.013v2.012zm-3.163 0h2.013v-2.012h-2.013v2.012zm-11.006-5.85h-2.013v2.012h2.013v-2.012zm3.218 0h-2.013v2.012h2.013v-2.012zm10.951 2.135h2.013v-2.013h-2.013v2.013zm-3.163 0h2.013v-2.013h-2.013v2.013zm-11.006-5.897h-2.013v2.013h2.013v-2.013zm3.218 0h-2.013v2.013h2.013v-2.013zm10.951 2.184h2.013v-2.013h-2.013v2.013zm-3.163 0h2.013v-2.013h-2.013v2.013zm-11.006-5.806h-2.013v2.012h2.013v-2.012zm3.218 0h-2.013v2.012h2.013v-2.012zm10.951 1.958h2.013v-2.013h-2.013v2.013zm-3.164 0h2.013v-2.013h-2.013v2.013zm-11.005-5.711h-2.013v2.013h2.013v-2.013zm3.218 0h-2.013v2.013h2.013v-2.013zm10.951 1.994h2.013V89.34h-2.013v2.013zm-3.164 0h2.013V89.34h-2.013v2.013zM88.821 85.6h-2.013v2.013h2.013V85.6zm3.218 0h-2.013v2.013h2.013V85.6zm10.951 2.036h2.013v-2.012h-2.013v2.012zm-3.164 0h2.013v-2.012h-2.013v2.012zm-11.005-5.794h-2.013v2.013h2.013v-2.013zm3.218 0h-2.013v2.013h2.013v-2.013zm10.951 2.081h2.013V81.91h-2.013v2.013zm-3.164 0h2.013V81.91h-2.013v2.013zm-11.005-5.839h-2.013v2.013h2.013v-2.013zm3.218 0h-2.013v2.013h2.013v-2.013zm10.951 2.127h2.013v-2.013h-2.013v2.013zm-3.164 0h2.013v-2.013h-2.013v2.013zm-11.005-5.885h-2.013v2.013h2.013v-2.013zm3.218 0h-2.013v2.013h2.013v-2.013zm10.951 2.168h2.013v-2.013h-2.013v2.013zm-3.164 0h2.013v-2.013h-2.013v2.013zm-11.005-5.921h-2.013v2.013h2.013v-2.013zm3.218 0h-2.013v2.013h2.013v-2.013zm10.951 2.205h2.013v-2.013h-2.013v2.013zm-3.164 0h2.013v-2.013h-2.013v2.013zm-11.005-5.831h-2.013v2.013h2.013v-2.013zm3.218 0h-2.013v2.013h2.013v-2.013zm10.951 1.986h2.013V66.92h-2.013v2.013zm-3.164 0h2.013V66.92h-2.013v2.013zm-11.005-5.744h-2.013v2.012h2.013v-2.012zm3.218 0h-2.013v2.012h2.013v-2.012zm10.951 2.028h2.013v-2.012h-2.013v2.012zm-3.163 0h2.013v-2.012h-2.013v2.012zm-11.006-5.782h-2.013v2.012h2.013v-2.012zm3.218 0h-2.013v2.012h2.013v-2.012zm10.951 2.069h2.013v-2.012h-2.013v2.012zm-3.164 0h2.013v-2.012h-2.013v2.012zm-11.005-5.826h-2.013v2.013h2.013v-2.013zm3.218 0h-2.013v2.013h2.013v-2.013zm10.951 2.109h2.013v-2.013h-2.013v2.013zm-3.163 0h2.013v-2.013h-2.013v2.013zM88.821 51.92h-2.013v2.013h2.013V51.92zm3.218 0h-2.013v2.013h2.013V51.92zm10.951 2.151h2.013v-2.013h-2.013v2.013zm-3.163 0h2.013v-2.013h-2.013v2.013zm-11.006-5.905h-2.013v2.013h2.013v-2.013zm3.218 0h-2.013v2.013h2.013v-2.013zm10.951 2.193h2.013v-2.013h-2.013v2.013zm-3.164 0h2.013v-2.013h-2.013v2.013z"/></g><g fill="#fff"><use xlink:href="#J"/><path d="M98.482 42.666h-5.234v1.878h5.234v-1.878zm6.576 0h-5.234v1.878h5.234v-1.878zm-13.016-3.89h-5.234v1.878h5.234v-1.878zm6.439 0h-5.234v1.878h5.234v-1.878zm6.576 0h-5.234v1.878h5.234v-1.878zm-13.015-4.022h-5.234v1.878h5.234v-1.878zm6.439 0h-5.234v1.878h5.234v-1.878zm6.576 0h-5.234v1.878h5.234v-1.878z"/></g><path d="M85.732 103.443h-4.295v41.189h4.295v-41.189z" fill="#c2aa7d"/><path d="M106.182 144.506h4.295v-41.189h-4.295v41.189z" fill="#977f52"/><path d="M102.911 22.943H88.819v9.123h14.092v-9.123z" class="H"/><path d="M100.764 17.979h-9.529v4.964h9.529v-4.964z" class="G"/><path d="M96.738 17.979h-1.611l.403-15.295h.805l.403 15.295z" class="H"/><path d="M97.274 1.342c0 .805-.537 1.342-1.342 1.342s-1.342-.537-1.342-1.342S95.127 0 95.932 0s1.342.671 1.342 1.342z" class="B"/><path d="M168.27 100.222h-8.187v44.275h8.187v-44.275z" fill="#7ba39f"/><path d="M160.216 100.222h-8.187v44.275h8.187v-44.275z" fill="#9bc1bd"/><path d="M166.391 96.464l-6.308-6.037-6.174 6.037v1.878h12.482v-1.878z" fill="#a09798"/><path d="M166.391 98.343h-12.482v1.878h12.482v-1.878z" fill="#5f8884"/><g fill="#fff"><use xlink:href="#K"/><use xlink:href="#L"/><path d="M168.137 103.98h-6.979v1.341h6.979v-1.341zm-16.055 1.235h6.979v-1.342h-6.979v1.342zm16.055 1.313h-6.979v1.341h6.979v-1.341zm-16.056 1.226h6.979v-1.342h-6.979v1.342z"/><use xlink:href="#M"/><path d="M152.082 110.297h6.979v-1.342h-6.979v1.342zm16.055 1.33h-6.979v1.342h6.979v-1.342zm-16.056 1.21h6.979v-1.341h-6.979v1.341zm16.056 1.338h-6.979v1.342h6.979v-1.342zm-16.056 1.206h6.979v-1.342h-6.979v1.342zm16.056 1.342h-6.979v1.342h6.979v-1.342zm-16.056 1.202h6.979v-1.342h-6.979v1.342zm16.056 1.214h-6.979v1.342h6.979v-1.342zm-16.056 1.458h6.979v-1.342h-6.979v1.342zm16.056 1.094h-6.979v1.342h6.979v-1.342zm-16.055 1.446h6.979v-1.341h-6.979v1.341zm16.055 1.102h-6.979v1.341h6.979v-1.341zm-16.056 1.445h6.979v-1.342h-6.979v1.342zm16.056 1.099h-6.979v1.341h6.979v-1.341zm-16.056 1.437h6.979v-1.342h-6.979v1.342zm16.056 1.115h-6.979v1.341h6.979v-1.341zm-16.056 1.424h6.979v-1.341h-6.979v1.341zm16.056 1.128h-6.979v1.341h6.979v-1.341zm-16.056 1.416h6.979v-1.342h-6.979v1.342zm16.056 1.131h-6.979v1.342h6.979v-1.342zm-16.055 1.413h6.979v-1.342h-6.979v1.342zm16.055 1.135h-6.979v1.342h6.979v-1.342zm-16.056 1.408h6.979v-1.341h-6.979v1.341zm16.056 1.14h-6.979v1.342h6.979v-1.342zm-16.055 1.4h6.979v-1.342h-6.979v1.342zm16.055 1.152h-6.979v1.342h6.979v-1.342zm-16.056 1.392h6.979v-1.342h-6.979v1.342z"/></g><path d="M168.271 144.495h2.014v-25.76l-2.014-3.891v29.651z" fill="#a09798"/><path d="M152.031 144.495h-2.013v-25.76l2.013-3.891v29.651z" class="G"/></g><defs><clipPath id="A"><path fill="#fff" d="M0 0h192v148H0z"/></clipPath><path id="B" d="M79.023 96.869h-1.342v47.092h1.342V96.869z"/><path id="C" d="M116.6 106.396h-1.879v1.476h1.879v-1.476z"/><path id="D" d="M116.6 122.629h-1.879v1.475h1.879v-1.475z"/><path id="E" d="M31.512 95.396H28.56v.402h2.953 2.953v-.402h-2.953z"/><path id="F" d="M88.821 141.546h-2.013v2.012h2.013v-2.012z"/><path id="G" d="M102.99 143.758h2.013v-2.013h-2.013v2.013z"/><path id="H" d="M88.821 137.924h-2.013v2.013h2.013v-2.013z"/><path id="I" d="M102.99 139.91h2.013v-2.012h-2.013v2.012z"/><path id="J" d="M92.042 42.666h-5.234v1.878h5.234v-1.878z"/><path id="K" d="M168.137 101.428h-6.979v1.341h6.979v-1.341z"/><path id="L" d="M152.081 102.675h6.979v-1.342h-6.979v1.342z"/><path id="M" d="M168.137 109.075h-6.979v1.342h6.979v-1.342z"/></defs></svg>