<svg xmlns="http://www.w3.org/2000/svg" xmlns:xlink="http://www.w3.org/1999/xlink" width="192" height="148" fill="none" xmlns:v="https://vecta.io/nano"><style><![CDATA[.B{fill:#fff}.C{fill:#7c8c8c}.D{fill:#d9a761}.E{fill:#f6651d}.F{fill:#edbd7b}.G{fill:#9e7442}.H{fill:#e9d946}]]></style><g clip-path="url(#A)"><path d="M181.16 144.75H10.84a1.84 1.84 0 1 0 0 3.681h170.32a1.84 1.84 0 1 0 0-3.681z" fill="#fd5631"/><path d="M155.587 116.829h-9.646v28.048h9.646v-28.048z" fill="#ada4a5"/><path d="M155.588 116.828h-4.822v28.048h4.822v-28.048z" fill="#948b8c"/><g fill="#797071"><use xlink:href="#B"/><path d="M155.589 118.984h-4.316v1.27h4.316v-1.27zm-5.332 2.539h-4.316v1.27h4.316v-1.27zm5.332 0h-4.316v1.27h4.316v-1.27zm-5.332 2.668h-4.316v1.27h4.316v-1.27zm5.332 0h-4.316v1.27h4.316v-1.27z"/><use xlink:href="#C"/><path d="M155.589 126.727h-4.316v1.269h4.316v-1.269zm-5.332 2.539h-4.316v1.269h4.316v-1.269zm5.332 0h-4.316v1.269h4.316v-1.269zm-5.332 2.664h-4.316v1.269h4.316v-1.269zm5.332 0h-4.316v1.269h4.316v-1.269zm-5.332 2.539h-4.316v1.269h4.316v-1.269zm5.332 0h-4.316v1.269h4.316v-1.269zm-5.332 2.538h-4.316v1.269h4.316v-1.269zm5.332.001h-4.316v1.269h4.316v-1.269zm-5.332 2.668h-4.316v1.269h4.316v-1.269zm5.332 0h-4.316v1.269h4.316v-1.269zm-5.332 2.536h-4.316v1.269h4.316v-1.269zm5.332-.001h-4.316v1.269h4.316v-1.269z"/></g><path d="M145.94 103.379h-10.534v41.374h10.534v-41.374z" fill="#7ba39f"/><path d="M135.406 103.379h-14.722v41.374h14.722v-41.374z" fill="#9bc1bd"/><path d="M142.638 101.09h-15.611v2.411h15.611v-2.411z" fill="#7c93a5"/><use xlink:href="#D" class="B"/><use xlink:href="#E" class="C"/><path d="M134.39 108.578h-13.706v1.142h13.706v-1.142z" class="B"/><path d="M134.39 109.723h-13.706v.507h13.706v-.507z" class="C"/><path d="M134.39 110.608h-13.706v1.143h13.706v-1.143z" class="B"/><use xlink:href="#F" class="C"/><path d="M134.39 112.766h-13.706v1.142h13.706v-1.142z" class="B"/><path d="M134.39 113.91h-13.706v.508h13.706v-.508z" class="C"/><path d="M134.39 114.925h-13.706v1.142h13.706v-1.142z" class="B"/><path d="M134.39 115.938h-13.706v.508h13.706v-.508z" class="C"/><path d="M134.39 116.953h-13.706v1.142h13.706v-1.142z" class="B"/><path d="M134.39 118.097h-13.706v.507h13.706v-.507z" class="C"/><path d="M134.39 119.113h-13.706v1.142h13.706v-1.142z" class="B"/><path d="M134.39 120.129h-13.706v.508h13.706v-.508z" class="C"/><path d="M134.39 121.144h-13.706v1.142h13.706v-1.142z" class="B"/><path d="M134.39 122.285h-13.706v.508h13.706v-.508z" class="C"/><path d="M134.39 123.301h-13.706v1.142h13.706v-1.142z" class="B"/><path d="M134.39 124.316h-13.706v.508h13.706v-.508z" class="C"/><path d="M134.39 125.332h-13.706v1.142h13.706v-1.142z" class="B"/><path d="M134.39 126.474h-13.706v.507h13.706v-.507z" class="C"/><path d="M134.39 127.488h-13.706v1.143h13.706v-1.143z" class="B"/><path d="M134.39 128.629h-13.706v.508h13.706v-.508z" class="C"/><path d="M134.39 129.52h-13.706v1.142h13.706v-1.142z" class="B"/><path d="M134.39 130.664h-13.706v.508h13.706v-.508z" class="C"/><path d="M134.39 131.676h-13.706v1.142h13.706v-1.142z" class="B"/><path d="M134.39 132.817h-13.706v.508h13.706v-.508z" class="C"/><path d="M134.39 133.703h-13.706v1.142h13.706v-1.142z" class="B"/><path d="M134.39 134.848h-13.706v.507h13.706v-.507z" class="C"/><path d="M134.39 135.867h-13.706v1.142h13.706v-1.142z" class="B"/><path d="M134.39 137.009h-13.706v.507h13.706v-.507z" class="C"/><path d="M134.39 137.895h-13.706v1.142h13.706v-1.142z" class="B"/><path d="M134.39 139.039h-13.706v.508h13.706v-.508z" class="C"/><path d="M134.39 140.051h-13.706v1.142h13.706v-1.142z" class="B"/><path d="M134.39 141.194h-13.706v.508h13.706v-.508z" class="C"/><path d="M134.39 142.086h-13.706v1.142h13.706v-1.142z" class="B"/><path d="M134.39 143.223h-13.706v.507h13.706v-.507z" class="C"/><use xlink:href="#G" class="B"/><use xlink:href="#H" class="C"/><path d="M145.052 108.578h-9.646v1.142h9.646v-1.142z" class="B"/><path d="M145.052 109.723h-9.646v.507h9.646v-.507z" class="C"/><path d="M145.052 110.608h-9.646v1.143h9.646v-1.143z" class="B"/><use xlink:href="#I" class="C"/><path d="M145.052 112.766h-9.646v1.142h9.646v-1.142z" class="B"/><path d="M145.052 113.91h-9.646v.508h9.646v-.508z" class="C"/><path d="M145.052 114.925h-9.646v1.142h9.646v-1.142z" class="B"/><path d="M145.052 115.938h-9.646v.508h9.646v-.508z" class="C"/><path d="M145.052 116.953h-9.646v1.142h9.646v-1.142z" class="B"/><path d="M145.052 118.097h-9.646v.507h9.646v-.507z" class="C"/><path d="M145.052 119.113h-9.646v1.142h9.646v-1.142z" class="B"/><path d="M145.052 120.129h-9.646v.508h9.646v-.508z" class="C"/><path d="M145.052 121.144h-9.646v1.142h9.646v-1.142z" class="B"/><path d="M145.052 122.285h-9.646v.508h9.646v-.508z" class="C"/><path d="M145.052 123.301h-9.646v1.142h9.646v-1.142z" class="B"/><path d="M145.052 124.316h-9.646v.508h9.646v-.508z" class="C"/><path d="M145.052 125.332h-9.646v1.142h9.646v-1.142z" class="B"/><path d="M145.052 126.474h-9.646v.507h9.646v-.507z" class="C"/><path d="M145.052 127.488h-9.646v1.143h9.646v-1.143z" class="B"/><path d="M145.052 128.629h-9.646v.508h9.646v-.508z" class="C"/><path d="M145.052 129.52h-9.646v1.142h9.646v-1.142z" class="B"/><path d="M145.052 130.664h-9.646v.508h9.646v-.508z" class="C"/><path d="M145.052 131.676h-9.646v1.142h9.646v-1.142z" class="B"/><path d="M145.052 132.817h-9.646v.508h9.646v-.508z" class="C"/><path d="M145.052 133.703h-9.646v1.142h9.646v-1.142z" class="B"/><path d="M145.052 134.848h-9.646v.507h9.646v-.507z" class="C"/><path d="M145.052 135.867h-9.646v1.142h9.646v-1.142z" class="B"/><path d="M145.052 137.009h-9.646v.507h9.646v-.507z" class="C"/><path d="M145.052 137.895h-9.646v1.142h9.646v-1.142z" class="B"/><path d="M145.052 139.039h-9.646v.508h9.646v-.508z" class="C"/><path d="M145.052 140.051h-9.646v1.142h9.646v-1.142z" class="B"/><path d="M145.052 141.194h-9.646v.508h9.646v-.508z" class="C"/><path d="M145.052 142.086h-9.646v1.142h9.646v-1.142z" class="B"/><path d="M145.052 143.223h-9.646v.507h9.646v-.507z" class="C"/><path d="M171.196 107.184h-15.61v37.693h15.61v-37.693z" fill="#2470ab"/><path d="M180.843 107.184h-9.519v37.693h9.519v-37.693z" fill="#085189"/><g class="B"><use xlink:href="#J"/><use xlink:href="#K"/><path d="M164.599 111.242h-2.411v1.015h2.411v-1.015z"/><use xlink:href="#L"/><path d="M170.818 111.242h-2.412v1.015h2.412v-1.015zm-12.313 1.65h-2.411v1.015h2.411v-1.015zm3.047 0h-2.411v1.015h2.411v-1.015zm3.047-.001h-2.411v1.015h2.411v-1.015zm3.172.001h-2.412v1.015h2.412v-1.015zm3.047-.001h-2.412v1.015h2.412v-1.015zm-12.313 1.777h-2.411v1.015h2.411v-1.015zm3.047 0h-2.411v1.015h2.411v-1.015zm3.047 0h-2.411v1.015h2.411v-1.015zm3.172 0h-2.412v1.015h2.412v-1.015zm3.047 0h-2.412v1.015h2.412v-1.015zm-12.313 1.648h-2.411v1.016h2.411v-1.016zm3.047 0h-2.411v1.016h2.411v-1.016zm3.047 0h-2.411v1.016h2.411v-1.016z"/><use xlink:href="#M"/><path d="M170.818 116.316h-2.412v1.016h2.412v-1.016zm-12.313 1.657h-2.411v1.015h2.411v-1.015zm3.047 0h-2.411v1.015h2.411v-1.015zm3.047 0h-2.411v1.015h2.411v-1.015zm3.172 0h-2.412v1.015h2.412v-1.015zm3.047 0h-2.412v1.015h2.412v-1.015zm-12.313 1.644h-2.411v1.016h2.411v-1.016zm3.047 0h-2.411v1.016h2.411v-1.016zm3.047 0h-2.411v1.016h2.411v-1.016zm3.172 0h-2.412v1.016h2.412v-1.016zm3.047 0h-2.412v1.016h2.412v-1.016zm-12.313 1.649h-2.411v1.015h2.411v-1.015zm3.047 0h-2.411v1.015h2.411v-1.015zm3.047 0h-2.411v1.015h2.411v-1.015zm3.172 0h-2.412v1.015h2.412v-1.015zm3.047 0h-2.412v1.015h2.412v-1.015zm-12.313 1.652h-2.411v1.015h2.411v-1.015zm3.047 0h-2.411v1.015h2.411v-1.015zm3.047 0h-2.411v1.015h2.411v-1.015zm3.172 0h-2.412v1.015h2.412v-1.015zm3.047 0h-2.412v1.015h2.412v-1.015zm-12.313 1.648h-2.411v1.016h2.411v-1.016zm3.047 0h-2.411v1.016h2.411v-1.016zm3.047 0h-2.411v1.016h2.411v-1.016zm3.172 0h-2.412v1.016h2.412v-1.016zm3.047 0h-2.412v1.016h2.412v-1.016zm-12.313 1.653h-2.411v1.015h2.411v-1.015zm3.047 0h-2.411v1.015h2.411v-1.015zm3.047 0h-2.411v1.015h2.411v-1.015zm3.172 0h-2.412v1.015h2.412v-1.015zm3.047 0h-2.412v1.015h2.412v-1.015zm-12.313 1.648h-2.411v1.016h2.411v-1.016zm3.047 0h-2.411v1.016h2.411v-1.016zm3.047 0h-2.411v1.016h2.411v-1.016zm3.172 0h-2.412v1.016h2.412v-1.016zm3.047 0h-2.412v1.016h2.412v-1.016zm-12.313 1.652h-2.411v1.015h2.411v-1.015zm3.047 0h-2.411v1.015h2.411v-1.015zm3.047.001h-2.411v1.015h2.411v-1.015zm3.172-.001h-2.412v1.015h2.412v-1.015zm3.047.001h-2.412v1.015h2.412v-1.015zm-12.313 1.648h-2.411v1.015h2.411v-1.015zm3.047 0h-2.411v1.015h2.411v-1.015zm3.047 0h-2.411v1.015h2.411v-1.015zm3.172 0h-2.412v1.015h2.412v-1.015zm3.047 0h-2.412v1.015h2.412v-1.015zm-12.313 1.652h-2.411v1.016h2.411v-1.016zm3.047 0h-2.411v1.016h2.411v-1.016zm3.047 0h-2.411v1.016h2.411v-1.016zm3.172 0h-2.412v1.016h2.412v-1.016zm3.047 0h-2.412v1.016h2.412v-1.016zm-12.313 1.649h-2.411v1.015h2.411v-1.015zm3.047 0h-2.411v1.015h2.411v-1.015zm3.047 0h-2.411v1.015h2.411v-1.015zm3.172 0h-2.412v1.015h2.412v-1.015zm3.047 0h-2.412v1.015h2.412v-1.015zm-12.313 1.648h-2.411v1.016h2.411v-1.016zm3.047 0h-2.411v1.016h2.411v-1.016zm3.047 0h-2.411v1.016h2.411v-1.016zm3.172 0h-2.412v1.016h2.412v-1.016zm3.047 0h-2.412v1.016h2.412v-1.016zm-12.313 1.653h-2.411v1.015h2.411v-1.015zm3.047 0h-2.411v1.015h2.411v-1.015zm3.047 0h-2.411v1.015h2.411v-1.015zm3.172 0h-2.412v1.015h2.412v-1.015zm3.047 0h-2.412v1.015h2.412v-1.015zm-12.313 1.644h-2.411v1.015h2.411v-1.015zm3.047 0h-2.411v1.015h2.411v-1.015zm3.047 0h-2.411v1.015h2.411v-1.015zm3.172 0h-2.412v1.015h2.412v-1.015zm3.047 0h-2.412v1.015h2.412v-1.015zm-12.313 1.656h-2.411v1.016h2.411v-1.016zm3.047 0h-2.411v1.016h2.411v-1.016zm3.047 0h-2.411v1.016h2.411v-1.016zm3.172 0h-2.412v1.016h2.412v-1.016zm3.047 0h-2.412v1.016h2.412v-1.016zm-12.313 1.649h-2.411v1.015h2.411v-1.015zm3.047 0h-2.411v1.015h2.411v-1.015zm3.047 0h-2.411v1.015h2.411v-1.015zm3.172 0h-2.412v1.015h2.412v-1.015zm3.047 0h-2.412v1.015h2.412v-1.015zm3.425-31.477h-2.411v1.016h2.411v-1.016zm3.047 0h-2.411v1.015h2.411v-1.015zm3.047 0h-2.411v1.015h2.411v-1.015zm-6.094 1.65h-2.411v1.015h2.411v-1.015zm3.047 0h-2.411v1.015h2.411v-1.015zm3.047-.001h-2.411v1.015h2.411v-1.015zm-6.094 1.777h-2.411v1.015h2.411v-1.015zm3.047 0h-2.411v1.015h2.411v-1.015zm3.047 0h-2.411v1.015h2.411v-1.015zm-6.094 1.648h-2.411v1.016h2.411v-1.016zm3.047 0h-2.411v1.016h2.411v-1.016zm3.047 0h-2.411v1.016h2.411v-1.016zm-6.094 1.657h-2.411v1.015h2.411v-1.015zm3.047 0h-2.411v1.015h2.411v-1.015zm3.047 0h-2.411v1.015h2.411v-1.015zm-6.094 1.644h-2.411v1.016h2.411v-1.016zm3.047 0h-2.411v1.016h2.411v-1.016zm3.047 0h-2.411v1.016h2.411v-1.016zm-6.094 1.649h-2.411v1.015h2.411v-1.015zm3.047 0h-2.411v1.015h2.411v-1.015zm3.047 0h-2.411v1.015h2.411v-1.015zm-6.094 1.652h-2.411v1.015h2.411v-1.015zm3.047 0h-2.411v1.015h2.411v-1.015zm3.047 0h-2.411v1.015h2.411v-1.015zm-6.094 1.648h-2.411v1.016h2.411v-1.016zm3.047 0h-2.411v1.016h2.411v-1.016zm3.047 0h-2.411v1.016h2.411v-1.016zm-6.094 1.653h-2.411v1.015h2.411v-1.015zm3.047 0h-2.411v1.015h2.411v-1.015zm3.047 0h-2.411v1.015h2.411v-1.015zm-6.094 1.648h-2.411v1.016h2.411v-1.016zm3.047 0h-2.411v1.016h2.411v-1.016zm3.047 0h-2.411v1.016h2.411v-1.016zm-6.094 1.652h-2.411v1.015h2.411v-1.015zm3.047 0h-2.411v1.015h2.411v-1.015zm3.047.001h-2.411v1.015h2.411v-1.015zm-6.094 1.648h-2.411v1.015h2.411v-1.015zm3.047 0h-2.411v1.015h2.411v-1.015zm3.047 0h-2.411v1.015h2.411v-1.015zm-6.094 1.652h-2.411v1.016h2.411v-1.016zm3.047 0h-2.411v1.016h2.411v-1.016zm3.047 0h-2.411v1.016h2.411v-1.016zm-6.094 1.649h-2.411v1.015h2.411v-1.015zm3.047 0h-2.411v1.015h2.411v-1.015zm3.047 0h-2.411v1.015h2.411v-1.015zm-6.094 1.648h-2.411v1.016h2.411v-1.016zm3.047 0h-2.411v1.016h2.411v-1.016zm3.047 0h-2.411v1.016h2.411v-1.016zm-6.094 1.653h-2.411v1.015h2.411v-1.015zm3.047 0h-2.411v1.015h2.411v-1.015zm3.047 0h-2.411v1.015h2.411v-1.015zm-6.094 1.644h-2.411v1.015h2.411v-1.015zm3.047 0h-2.411v1.015h2.411v-1.015zm3.047 0h-2.411v1.015h2.411v-1.015zm-6.094 1.656h-2.411v1.016h2.411v-1.016zm3.047 0h-2.411v1.016h2.411v-1.016zm3.047 0h-2.411v1.016h2.411v-1.016zm-6.094 1.649h-2.411v1.015h2.411v-1.015zm3.047 0h-2.411v1.015h2.411v-1.015zm3.047 0h-2.411v1.015h2.411v-1.015z"/></g><path d="M104.57 75.075l-7.488-2.919v-2.538l7.488 2.919v2.538z" class="D"/><path d="M118.783 51.721l-7.615-2.792v-2.538l7.615 2.919v2.411z" class="G"/><path d="M87.434 75.075l7.488-2.919v-2.538l-7.488 2.919v2.538z" class="D"/><path d="M73.223 51.721l7.615-2.792v-2.538l-7.615 2.919v2.411z" class="G"/><path d="M67.383 77.863l9.138-4.696v71.58h-9.138V77.863z" class="F"/><g class="E"><path d="M72.334 24.56l1.777-1.777c.254-.254.254-.508 0-.762l-1.777-1.777c-.254-.254-.508-.254-.762 0l-1.777 1.777c-.254.254-.254.508 0 .762l1.777 1.777c.254.254.635.254.762 0z"/><path d="M71.062 24.305h1.777c.254 0 .508.254.508.635s-.254.634-.508.634h-1.777c-.254 0-.508-.254-.508-.634.127-.381.254-.635.508-.635z"/></g><path d="M76.521 73.168l-9.138 4.696 2.792-40.866h3.554l2.792 36.171z" class="D"/><path d="M72.841 25.703l.888 11.295h-3.554l.888-11.295h1.777z" class="E"/><path d="M70.684 31.414l.381-5.711h1.777l.508 5.711h-2.665z" class="H"/><g class="G"><path d="M75.252 82.431a.55.55 0 0 1 .508.508v12.818h-1.142V82.938c.127-.254.381-.508.635-.508zm-2.156 1.398a.55.55 0 0 1 .508.508v12.818h-1.142V84.337c0-.254.254-.508.635-.508zm-2.161 1.391a.55.55 0 0 1 .508.508v12.818h-1.142V85.727c0-.254.254-.508.635-.508zm-2.156 1.402a.55.55 0 0 1 .508.508v12.818h-1.142V87.13c0-.254.254-.508.635-.508zm3.555-48.227v36.678l-.635.381V38.395h.635zm1.523 0v35.917l-.635.381V38.395h.635zm1.393 18.908v16.245l-.254.254V52.734l.254 4.569zm-5.074-18.908h.508v37.567l-.508.254V38.395zm-1.524 21.574l.381-5.203v22.083l-.381.127V59.969z"/></g><path d="M78.043 71.52l11.168-5.204v78.434H78.043V71.52z" class="F"/><g class="E"><path d="M83.121 13.011c.254.254.635.254 1.015 0l2.157-1.904a.61.61 0 0 0 0-.888l-2.157-1.904c-.254-.254-.635-.254-1.015 0l-2.158 1.904a.61.61 0 0 0 0 .888l2.158 1.904z"/><path d="M82.484 12.633h2.158c.254 0 .508.381.508.761s-.254.761-.508.761h-2.158c-.254 0-.508-.381-.508-.761s.254-.761.508-.761z"/></g><path d="M89.212 66.317l-11.168 5.204L81.47 26.72h4.315l3.427 39.597z" class="D"/><path d="M84.642 14.152l1.142 12.565h-4.315l1.015-12.565h2.157z" class="E"/><path d="M81.977 20.498l.508-6.346h2.158l.635 6.346h-3.3z" class="H"/><g class="G"><path d="M87.562 76.469c.381 0 .635.254.635.635v14.087h-1.396V77.103c.127-.381.381-.635.761-.635zm-2.664 1.523c.381 0 .635.254.635.635v14.087h-1.396V78.627c.127-.381.381-.635.761-.635zm-2.668 1.524c.381 0 .635.254.635.635v14.088h-1.396V80.15c.127-.381.381-.635.761-.635zm-2.664 1.519c.381 0 .635.254.635.635v14.088h-1.396V81.67c.127-.381.381-.635.761-.635zm4.444-52.922v40.359l-.888.381v-40.74h.888zm1.773 0v39.47l-.635.254V28.113h.635zm1.904 20.817v17.768l-.508.254V43.981l.508 4.95zm-6.343-20.816h.635v41.247l-.635.254V28.241v-.127zm-1.778 23.73l.381-5.711v24.114l-.381.254V51.844z"/></g><path d="M75.123 144.752h11.803v-17.007c0-3.299-6.346-15.229-6.346-15.229s-5.584 16.499-5.584 20.306c.127 3.934.127 11.93.127 11.93z" class="D"/><path d="M86.294 144.751v-17.007c0-2.284-3.68-9.265-5.457-13.326-1.396 4.315-4.95 15.357-4.95 18.403v11.93h10.407z" class="F"/><path d="M80.836 127.488c1.015 0 1.777.508 1.777 1.016v16.245h-3.427v-16.245c-.127-.508.635-1.016 1.65-1.016z" class="D"/><path d="M124.622 77.863l-9.138-4.696v71.58h9.138V77.863z" class="F"/><g class="E"><path d="M120.436 24.56c-.254.254-.508.254-.762 0l-1.777-1.777c-.253-.254-.253-.508 0-.762l1.777-1.777c.254-.254.508-.254.762 0l1.776 1.777c.254.254.254.508 0 .762l-1.776 1.777z"/><path d="M120.941 24.305h-1.777c-.254 0-.508.254-.508.635s.254.634.508.634h1.777c.254 0 .507-.254.507-.634-.127-.381-.253-.635-.507-.635z"/></g><path d="M115.484 73.168l9.138 4.696-2.792-40.866h-3.554l-2.792 36.171z" class="D"/><path d="M119.166 25.703l-.889 11.295h3.554l-.888-11.295h-1.777z" class="E"/><path d="M121.321 31.414l-.38-5.711h-1.777l-.508 5.711h2.665z" class="H"/><g class="G"><path d="M116.754 82.435a.55.55 0 0 0-.508.508v12.818h1.142V82.942c0-.254-.38-.508-.634-.508zm2.156 1.394a.55.55 0 0 0-.508.508v12.818h1.143V84.337c0-.254-.254-.508-.635-.508zm2.16 1.399a.55.55 0 0 0-.508.508v12.818h1.143V85.735c0-.254-.254-.508-.635-.508zm2.156 1.394a.55.55 0 0 0-.507.508v12.818h1.142V87.13c0-.254-.254-.508-.635-.508zm-3.554-48.227v36.678l.761.381V38.395h-.761zm-1.524 0v35.917l.635.381V38.395h-.635zm-1.394 18.908v16.245l.254.254V52.734l-.254 4.569zm5.078-18.908h-.508v37.567l.508.254V38.395zm1.521 21.574l-.38-5.203v22.083l.38.127V59.969z"/></g><path d="M113.961 71.52l-11.168-5.204v78.434h11.168V71.52z" class="F"/><g class="E"><path d="M108.887 13.011c-.254.254-.635.254-1.016 0l-2.157-1.904a.61.61 0 0 1 0-.888l2.157-1.904c.254-.254.635-.254 1.016 0l2.157 1.904a.61.61 0 0 1 0 .888l-2.157 1.904z"/><path d="M109.521 12.633h-2.158c-.254 0-.508.381-.508.761s.254.761.508.761h2.158c.254 0 .507-.381.507-.761s-.253-.761-.507-.761z"/></g><path d="M102.793 66.317l11.168 5.204-3.426-44.801h-4.315l-3.427 39.597z" class="D"/><path d="M107.361 14.152l-1.142 12.565h4.315l-1.015-12.565h-2.158z" class="E"/><path d="M110.026 20.498l-.507-6.346h-2.158l-.634 6.346h3.299z" class="H"/><g class="G"><path d="M104.443 76.469c-.381 0-.634.254-.634.635v14.088h1.396V77.103c-.127-.381-.381-.635-.762-.635zm2.664 1.519c-.381 0-.634.254-.634.635V92.71h1.396V78.623c-.127-.381-.381-.635-.762-.635zm2.668 1.528c-.381 0-.634.254-.634.635v14.088h1.396V80.15c-.127-.381-.381-.635-.762-.635zm2.664 1.519c-.38 0-.634.254-.634.635v14.088h1.396V81.67c-.127-.381-.381-.635-.762-.635zm-4.443-52.921v40.359l.888.381v-40.74h-.888zm-1.777 0v39.47l.634.254V28.114h-.634zm-1.903 20.816v17.768l.508.254V43.981l-.508 4.95zm6.346-20.816h-.635v41.247l.635.254V28.241v-.127zm1.777 23.73l-.38-5.711v24.114l.38.254V51.844z"/></g><g class="D"><path d="M96.574 137.132h-1.015v7.742h1.015v-7.742z"/><path d="M96.447 137.134h-.888l-1.523-2.919h3.934l-1.523 2.919z"/><path d="M98.096 88.019h-2.157-2.031l-7.615 39.851v16.879h6.853v-6.726c0-2.031 1.142-3.173 2.919-3.173s2.919 1.142 2.919 3.173v6.726h6.854V127.87l-7.742-39.851z"/></g><path d="M99.617 144.75v-6.727c0-2.411-1.396-3.934-3.681-3.934-2.157 0-3.68 1.523-3.68 3.934v6.727h-5.33v-16.753l7.488-39.217h3.046l7.488 39.217v16.753h-5.331z" class="F"/><g class="D"><path d="M94.795 80.784h-.888v7.234h.888v-7.234zm2.387 7.317h.888v-7.234h-.888v7.234z"/></g><path d="M98.729 78.879c0-2.538-1.269-14.595-2.665-14.595-1.523 0-2.665 12.184-2.665 14.595 0 1.015.254 1.523.635 1.65v.254h4.188v-.254c.254-.127.508-.508.508-1.65z" class="H"/><g class="E"><path d="M96.321 63.904a.58.58 0 0 1-.635 0l-1.396-1.396a.58.58 0 0 1 0-.634l1.396-1.396a.58.58 0 0 1 .635 0l1.396 1.396a.58.58 0 0 1 0 .634l-1.396 1.396z"/><path d="M96.699 63.648h-1.396c-.254 0-.381.254-.381.508s.127.508.381.508h1.396c.254 0 .381-.254.381-.508s-.127-.508-.381-.508z"/></g><g class="D"><path d="M98.986 122.795a3.09 3.09 0 0 0-3.046-3.046 3.09 3.09 0 0 0-3.046 3.046h-.381c-.254 0-.381.254-.381.381v9.899h7.742v-9.899c0-.254-.254-.381-.381-.381h-.508zm-1.398-14.22c0-1.65.127-3.046-1.523-3.046s-1.523 1.396-1.523 3.046h-1.904c-.254 0-.381.254-.381.381v5.711H100v-5.711c0-.254-.254-.381-.381-.381h-2.031zm19.293 36.177h-11.803v-17.007c0-3.299 6.346-15.229 6.346-15.229s5.584 16.499 5.584 20.306c-.127 3.934-.127 11.93-.127 11.93z"/></g><path d="M105.711 144.751v-17.007c0-2.284 3.68-9.265 5.457-13.326 1.396 4.315 4.95 15.357 4.95 18.403v11.93h-10.407z" class="F"/><path d="M111.167 127.488c-1.015 0-1.776.508-1.776 1.016v16.245h3.426v-16.245c.127-.508-.634-1.016-1.65-1.016z" class="D"/><path opacity=".78" d="M97.209 80.786v7.234h-1.142v56.731h.508v-7.742l1.015-1.904c.888.508 1.523 1.396 1.523 2.919v6.727h.761 5.33.635 3.68 3.427 1.142 1.396.635.761 7.742V77.867L121.83 37l-.381-5.711-.38-5.711c.253 0 .507-.254.507-.635s-.254-.635-.507-.635h-.127l1.523-1.396c.254-.254.254-.508 0-.762l-1.777-1.777c-.254-.254-.508-.254-.762 0l-1.776 1.777c-.254.254-.254.508 0 .762l1.523 1.396h-.127c-.254 0-.508.254-.508.635s.254.635.508.635l-.381 5.711-.381 5.711-.888 11.676-5.204-2.031-1.523-20.052-.507-6.219-.508-6.219c.254 0 .508-.381.508-.761s-.254-.761-.508-.761h-.254l1.777-1.65a.61.61 0 0 0 0-.888l-2.158-1.904c-.253-.254-.634-.254-1.015 0l-2.157 1.904a.61.61 0 0 0 0 .888l1.776 1.65h-.254c-.253 0-.507.381-.507.761s.254.761.507.761l-.507 6.219-.508 6.219-3.427 39.597v5.584l-4.949-1.904c-.381-2.158-.761-4.188-1.269-5.077h.127c.254 0 .381-.254.381-.508s-.127-.508-.381-.508h-.127l1.142-1.142a.58.58 0 0 0 0-.635l-1.396-1.396c-.127-.127-.254-.127-.254-.127v20.433h.508v-.127zm19.925-29.571l-1.65 21.956v52.923l-1.396-4.95V71.521l-1.65-22.21 4.696 1.904zM98.097 80.786v-.254c.381-.127.635-.635.635-1.65s-.254-3.554-.508-6.346l4.696 1.777v38.328L98.224 88.02v-7.234h-.127z" class="F"/><path d="M62.56 116.195H40.223v28.556H62.56v-28.556z" fill="#d1c8c9"/><path d="M62.559 116.195H51.391v28.556h11.169v-28.556z" fill="#ab9698"/><g class="B"><path d="M50.249 118.48H40.223v1.27h10.026v-1.27zm12.184 0H52.406v1.27h10.026v-1.27z"/><use xlink:href="#N"/><use xlink:href="#O"/><path d="M50.249 123.684H40.223v1.269h10.026v-1.269zm12.184 0H52.406v1.269h10.026v-1.269zm-12.184 2.668H40.223v1.269h10.026v-1.269zm12.184 0H52.406v1.269h10.026v-1.269zm-12.184 2.664H40.223v1.269h10.026v-1.269zm12.184 0H52.406v1.269h10.026v-1.269zm-12.184 2.664H40.223v1.269h10.026v-1.269zm12.184 0H52.406v1.269h10.026v-1.269zm-12.184 2.539H40.223v1.269h10.026v-1.269zm12.184 0H52.406v1.269h10.026v-1.269zm-12.184 2.668H40.223v1.269h10.026v-1.269zm12.184 0H52.406v1.269h10.026v-1.269zm-12.184 2.664H40.223v1.269h10.026v-1.269zm12.184 0H52.406v1.269h10.026v-1.269zm-12.184 2.664H40.223v1.269h10.026v-1.269zm12.184 0H52.406v1.269h10.026v-1.269z"/></g><path d="M56.975 113.531H45.68v2.792h11.295v-2.792z" fill="#7c93a5"/><path d="M31.336 57.309c-1.396-3.807-3.681-6.727-7.234-6.727-3.427 0-5.838 2.919-7.234 6.727-1.396 4.061-5.457 18.783-5.457 42.136v45.309h25.256V99.444c0-23.352-3.934-38.074-5.33-42.136z" fill="#5ea7df"/><path d="M36.664 144.753V99.444c0-23.352-3.934-38.074-5.457-42.136-1.396-3.807-3.681-6.727-7.234-6.727v94.298h12.691v-.127z" fill="#2470ab"/><g class="B"><use xlink:href="#P"/><path d="M35.776 113.156H12.297v1.016h23.479v-1.016z"/><use xlink:href="#Q"/><path d="M12.426 98.309v1.015h23.479v-1.015H12.426zm23.35 2.155H12.297v1.015h23.479v-1.015zm0 21.192H12.297v1.016h23.479v-1.016zm0-12.687H12.297v1.015h23.479v-1.015zm0-6.477H12.297v1.016h23.479v-1.016zm0 4.318H12.297v1.015h23.479v-1.015zm0-2.158H12.297v1.016h23.479v-1.016zm0 14.852H12.297v1.015h23.479v-1.015zm0 17.004H12.297v1.015h23.479v-1.015zm0 2.156H12.297v1.015h23.479v-1.015zm0 2.031H12.297v1.016h23.479v-1.016zm0-16.875H12.297v1.016h23.479v-1.016zm0 10.532H12.297v1.015h23.479v-1.015zm0 8.5H12.297v1.015h23.479v-1.015zm0-14.848H12.297v1.015h23.479v-1.015zm0-2.156H12.297v1.015h23.479v-1.015zm0 6.343H12.297v1.016h23.479v-1.016zm0-2.031H12.297v1.015h23.479v-1.015zm0-19.161H12.297v1.015h23.479v-1.015zm-2.412-41.374c-.127-.381-.127-.761-.254-1.015H14.961c-.127.381-.127.762-.254 1.015h18.657zm-.379-2.032c-.127-.381-.127-.761-.254-1.015H15.344c-.127.381-.127.635-.254 1.015h17.895zm.761 4.188c0-.381-.127-.761-.127-1.015h-18.91c0 .381-.127.761-.127 1.015h19.164zm-1.142-6.344c-.127-.381-.127-.761-.254-1.015H15.852c-.127.381-.127.635-.254 1.015h17.007zm-.507-2.16c-.127-.381-.127-.761-.254-1.015H16.359c-.127.381-.127.635-.254 1.015h15.991zm2.028 10.664c0-.381-.127-.762-.127-1.015H14.326c0 .381-.127.761-.127 1.015h19.926zm-2.538-12.82c-.127-.381-.254-.762-.254-1.015H16.992c-.127.381-.127.635-.254 1.015h14.849zm3.428 21.32c0-.381 0-.762-.127-1.015H13.186c0 .381-.127.761-.127 1.015h21.956zm-.127-2.155c0-.381-.127-.761-.127-1.015H13.439c0 .381-.127.761-.127 1.015h21.575zm-.507-4.314c0-.381-.127-.761-.127-1.015H13.947c0 .381-.127.762-.127 1.015h20.56zm.253 2.157c0-.381-.127-.762-.127-1.015H13.693c0 .381-.127.635-.127 1.015h21.068zm-21.958 9.519v1.015H35.52v-1.015H12.676zM30.955 59.09l-.381-1.015H17.502l-.381 1.015h13.834zM12.551 89.801v1.015h23.098v-1.015H12.551zm-.125 6.347v1.015h23.479v-1.015H12.426zm.125-4.187v1.015h23.225v-1.015H12.551zm-.125 2.156v1.015h23.352v-1.015H12.426zm.377-8.5c0 .381 0 .761-.127 1.015h22.591c0-.381 0-.761-.127-1.015H12.803zm.254-2.16c0 .381 0 .762-.127 1.015h22.337c0-.381 0-.761-.127-1.015H13.057zm9.648-31.855c-.761.254-1.396.635-1.904 1.015h6.6c-.508-.508-1.142-.888-1.904-1.015h-2.792zm7.489 5.331c-.127-.381-.254-.635-.508-1.015H18.391c-.127.381-.381.761-.508 1.015h12.311zm-1.017-2.16c-.254-.381-.508-.761-.762-1.015h-8.63c-.254.381-.508.635-.762 1.015h10.153z"/></g></g><defs><clipPath id="A"><path d="M0 0h192v148H0z" class="B"/></clipPath><path id="B" d="M150.257 118.984h-4.316v1.27h4.316v-1.27z"/><path id="C" d="M150.257 126.727h-4.316v1.269h4.316v-1.269z"/><path id="D" d="M134.39 106.418h-13.706v1.142h13.706v-1.142z"/><path id="E" d="M134.39 107.562h-13.706v.507h13.706v-.507z"/><path id="F" d="M134.39 111.75h-13.706v.508h13.706v-.508z"/><path id="G" d="M145.052 106.418h-9.646v1.142h9.646v-1.142z"/><path id="H" d="M145.052 107.562h-9.646v.507h9.646v-.507z"/><path id="I" d="M145.052 111.75h-9.646v.508h9.646v-.508z"/><path id="J" d="M158.505 111.242h-2.411v1.016h2.411v-1.016z"/><path id="K" d="M161.552 111.242h-2.411v1.015h2.411v-1.015z"/><path id="L" d="M167.771 111.242h-2.412v1.015h2.412v-1.015z"/><path id="M" d="M167.771 116.316h-2.412v1.016h2.412v-1.016z"/><path id="N" d="M50.249 121.145H40.223v1.269h10.026v-1.269z"/><path id="O" d="M62.433 121.145H52.406v1.269h10.026v-1.269z"/><path id="P" d="M35.776 115.312H12.297v1.016h23.479v-1.016z"/><path id="Q" d="M35.776 117.345H12.297v1.015h23.479v-1.015z"/></defs></svg>