<svg xmlns="http://www.w3.org/2000/svg" xmlns:xlink="http://www.w3.org/1999/xlink" width="192" height="148" fill="none" xmlns:v="https://vecta.io/nano"><style><![CDATA[.B{fill:#2470ab}.C{fill:#7c93a5}.D{fill:#5ea7df}.E{fill:#c6e1ea}.F{fill:#fbd4bf}.G{fill:#dfa98d}.H{fill:#b57f63}]]></style><path d="M68.224 72.126H48.703v71.993h19.521V72.126z" fill="#9bc1bd"/><path d="M68.225 72.127h-7.889v71.993h7.889V72.127z" fill="#7ba39f"/><g fill="#fff"><use xlink:href="#B"/><use xlink:href="#B" x="1.87"/><use xlink:href="#B" x="3.742"/><use xlink:href="#B" x="5.48"/><use xlink:href="#B" x="7.352"/><use xlink:href="#B" x="9.222"/><use xlink:href="#B" x="11.629"/><use xlink:href="#B" x="13.367"/><use xlink:href="#B" x="15.242"/><use xlink:href="#B" x="17.112"/></g><path d="M53.918 70.922h-3.343v1.204h3.343v-1.204zm4.947 0h-3.343v1.204h3.343v-1.204z" class="C"/><path d="M179.16 144.119H12.84a1.84 1.84 0 1 0 0 3.68h166.32a1.84 1.84 0 1 0 0-3.68z" fill="#fd5631"/><path d="M165.696 96.749h-10.83v47.37h10.83v-47.37z" class="B"/><path d="M170.243 96.749h-4.412v47.37h4.412v-47.37z" fill="#085189"/><g fill="#fff"><use xlink:href="#C"/><use xlink:href="#C" y="2.944"/><use xlink:href="#C" y="5.888"/><use xlink:href="#D"/><use xlink:href="#D" y="2.944"/><use xlink:href="#D" y="5.888"/><use xlink:href="#D" y="8.832"/><use xlink:href="#D" y="11.776"/><use xlink:href="#D" y="14.72"/><use xlink:href="#D" y="17.664"/><use xlink:href="#D" y="20.608"/><use xlink:href="#C" y="32.517"/><use xlink:href="#D" y="26.63"/><use xlink:href="#C" y="38.405"/><use xlink:href="#C" y="41.349"/></g><g class="D"><path d="M82.536 51.787h-4.68V28.77l4.68.803v22.213z"/><path d="M80.26 10.304h-3.877v18.868h3.877V10.304z"/></g><g class="B"><path d="M80.263 10.304h-2.407v18.868h2.407V10.304z"/><path d="M77.858 43.089h-3.075V25.425l3.075-.803v18.467z"/></g><path d="M80.798 144.119h-5.883V38.807c1.203-.669 4.412-1.338 5.883-.401v105.714z" class="D"/><path d="M80.798 41.082V38.54c-1.471-.937-4.68-.268-5.883.401v2.543c1.604-.535 4.145-.803 5.883-.401zm0 19.403v-2.542c-1.471-.937-4.68-.268-5.883.401v2.542c1.604-.535 4.145-.803 5.883-.401z" class="E"/><path d="M80.797 144.119h3.61V52.322c-.802-.803-2.139-1.338-3.61-1.338v93.135z" class="B"/><g class="E"><use xlink:href="#E"/><use xlink:href="#E" y="28.771"/></g><path d="M84.407 144.119h2.942V81.226c-.669-.803-1.738-1.338-2.942-1.338v64.231z" class="D"/><path d="M87.348 144.119h2.941v-37.736c-.668-.803-1.738-1.338-2.941-1.338v39.074z" class="B"/><path d="M90.29 144.119h2.942v-16.727c-.669-.803-1.738-1.338-2.942-1.338v18.065z" class="D"/><path d="M79.325 144.119H74.11V71.19c1.07-.669 3.877-1.338 5.215-.401v73.331z" class="B"/><path d="M77.852 144.119h-4.546V97.953c.936-.669 3.343-1.338 4.546-.401v46.568z" class="D"/><path d="M76.25 144.119h-4.546v-23.284c.936-.669 3.343-1.338 4.546-.401v23.685z" class="B"/><path d="M78.524 0h-.535v10.438h.535V0z" class="C"/><g class="E"><path d="M79.325 89.121v-2.542c-1.337-.937-4.145-.268-5.215.401v2.542c1.471-.535 3.744-.803 5.215-.401z"/><path d="M80.796 89.255l-1.471-.134v-2.676l1.471.134v2.676z"/><use xlink:href="#E" y="54.597"/><path d="M87.348 113.743v2.676c1.203 0 2.273.536 2.941 1.339v-2.677c-.535-.669-1.738-1.338-2.941-1.338zm-2.941-25.826v2.676c1.203 0 2.273.535 2.942 1.338v-2.676c-.669-.669-1.738-1.338-2.942-1.338zm-6.555 27.03v-2.542c-1.203-.937-3.61-.268-4.546.401v2.543c1.203-.535 3.075-.803 4.546-.402zm2.944-2.542h-1.471v2.676h1.471v-2.676z"/><path d="M79.327 115.081l-1.471-.134v-2.542h1.471v2.676zm8.022-1.338h-2.942v2.676h2.942v-2.676z"/></g><path d="M80.797 51.787h1.738V29.573l-1.738-.268v22.481z" class="B"/><path d="M82.533 38.806c-.535-.134-1.203-.268-1.872-.268v2.542c.669 0 1.203.134 1.872.401v-2.676z" class="E"/><path d="M99.516 78.148v65.971h14.172V63.696L99.516 78.148z" fill="#edbd7b"/><g fill="#9e7442"><use xlink:href="#F"/><use xlink:href="#F" x="1.739"/><use xlink:href="#F" x="3.609"/><use xlink:href="#F" x="5.347"/><path d="M108.872 80.958h-.803v63.161h.803V80.958z"/><use xlink:href="#F" x="8.957"/><use xlink:href="#F" x="10.695"/></g><path d="M113.691 63.696V52.723h-.803v6.423l-2.005 1.873v5.486l2.808-2.81z" class="C"/><path d="M148.986 88.854v55.265h-11.9V76.81l11.9 12.043z" fill="#9bc1bd"/><path d="M147.117 144.035h.668V91.178h-.668v52.857zm-1.387 0h.668V91.178h-.668v52.857zm-1.524 0h.669V91.178h-.669v52.857zm-1.523 0h.669V91.178h-.669v52.857zm-1.52 0h.668V91.178h-.668v52.857zm-1.523 0h.669V91.178h-.669v52.857zm-1.39 0h.669V91.178h-.669v52.857z" fill="#7ba39f"/><path d="M137.086 76.81v-9.233h.668v5.353l1.739 1.606v4.55l-2.407-2.275z" class="C"/><path d="M117.293 88.184h9.761c3.342 7.895 8.69 35.06 8.69 48.843h-18.317V88.184h-.134z" fill="#98b1c5"/><path d="M135.342 131.005c-1.07-14.586-5.482-35.996-8.424-42.821h-7.621c2.941 24.89 9.092 42.821 16.045 42.821z" fill="#b9d2e6"/><g fill="#315c75"><path d="M117.293 117.222v1.071h17.783c0-.402-.134-.669-.134-1.071h-17.649zm0 2.676v1.071h18.184c0-.402-.134-.669-.134-1.071h-18.05zm0-5.486v1.071h17.248c0-.402-.134-.67-.134-1.071h-17.114zm18.986 13.649h-18.986v1.071h19.12c-.134-.402-.134-.669-.134-1.071zm-18.986-16.325v1.07h16.847c0-.401-.134-.803-.134-1.07h-16.713zm0 10.839v1.07h18.451c0-.401-.133-.669-.133-1.07h-18.318z"/><path d="M117.293 125.251v1.071h18.853c0-.402-.134-.669-.134-1.071h-18.719zm0-24.354v1.07h14.708c-.134-.401-.134-.803-.268-1.07h-14.44z"/><path d="M117.293 95.41v1.07h13.504c-.133-.401-.133-.803-.267-1.07h-13.237zm0 13.649v1.071h16.312c-.134-.402-.134-.803-.267-1.071h-16.045zm0-19.001v1.071h11.9l-.401-1.071h-11.499zm0 2.676v1.07h12.702c-.134-.401-.267-.803-.267-1.07h-12.435z"/><path d="M117.293 98.22v1.07h14.173c-.134-.401-.134-.803-.268-1.07h-13.905zm0 8.163v1.071h15.911c-.134-.402-.134-.803-.267-1.071h-15.644zm0-2.81v1.07h15.376c-.134-.401-.134-.802-.267-1.07h-15.109z"/></g><path d="M122.241 86.445c1.846 0 3.343-1.498 3.343-3.345s-1.497-3.345-3.343-3.345-3.343 1.498-3.343 3.345 1.497 3.345 3.343 3.345z" class="C"/><path d="M115.957 85.107v59.013h23.131v-8.43c-7.086 0-21.393-2.543-21.393-50.582h-1.738z" fill="#b9d2e6"/><path d="M124.647 85.909h-2.406-2.273l-1.605 2.275h3.878 4.011l-1.605-2.275z" fill="#315c75"/><path d="M43.491 97.819h-19.12v46.3h19.12v-46.3z" class="F"/><path d="M43.49 97.819h-5.616v46.3h5.616v-46.3z" class="G"/><g class="H"><path d="M27.314 97.819h-.802v46.3h.802v-46.3zm7.085 0h-.802v46.3h.802v-46.3zm7.087 0h-.802v46.3h.802v-46.3z"/><use xlink:href="#G"/><use xlink:href="#G" y="2.676"/><use xlink:href="#G" y="5.218"/><use xlink:href="#G" y="7.895"/><use xlink:href="#G" y="10.571"/><use xlink:href="#G" y="13.114"/><use xlink:href="#G" y="15.79"/><use xlink:href="#G" y="18.466"/><use xlink:href="#G" y="21.143"/><use xlink:href="#G" y="23.685"/><use xlink:href="#G" y="26.361"/><use xlink:href="#G" y="29.038"/><use xlink:href="#G" y="31.58"/><path d="M43.491 133.548h-19.12v.802h19.12v-.802z"/><use xlink:href="#G" y="36.933"/><use xlink:href="#G" y="39.609"/><use xlink:href="#G" y="42.152"/></g><path d="M41.487 78.014H26.512v19.805h14.975V78.014z" class="F"/><path d="M41.487 78.014h-4.412v19.805h4.412V78.014z" class="G"/><g class="H"><path d="M28.648 78.014h-.535v19.805h.535V78.014zm5.484 0h-.535v19.805h.535V78.014zm5.615 0h-.535v19.805h.535V78.014z"/><use xlink:href="#H"/><use xlink:href="#H" y="2.543"/><use xlink:href="#H" y="5.219"/><use xlink:href="#H" y="7.895"/><use xlink:href="#H" y="10.438"/><path d="M41.487 92.6H26.512v.803h14.975V92.6z"/><use xlink:href="#H" y="15.79"/></g><path d="M39.746 63.428H28.113v14.586h11.632V63.428z" class="F"/><path d="M39.616 63.428h-3.343v14.586h3.343V63.428z" class="G"/><g class="H"><path d="M29.721 63.428h-.401v14.586h.401V63.428zm4.411 0h-.401v14.586h.401V63.428zm4.276 0h-.401v14.586h.401V63.428z"/><path d="M39.746 64.9H28.113v.803h11.632V64.9zm0 2.543H28.113v.803h11.632v-.803zm0 2.676H28.113v.803h11.632v-.803zm0 2.676H28.113v.803h11.632v-.803zm0 2.677H28.113v.803h11.632v-.803z"/></g><defs ><path id="B" d="M50.444 74.535h-.936v69.45h.936v-69.45z"/><path id="C" d="M170.242 99.157h-15.376v1.205h15.376v-1.205z"/><path id="D" d="M170.242 107.989h-15.376v1.204h15.376v-1.204z"/><path id="E" d="M80.797 57.808v2.676c1.471 0 2.808.535 3.61 1.338v-2.676c-.802-.803-2.139-1.338-3.61-1.338z"/><path id="F" d="M101.654 80.958h-.802v63.161h.802V80.958z"/><path id="G" d="M43.491 99.291h-19.12v.803h19.12v-.803z"/><path id="H" d="M41.487 79.486H26.512v.803h14.975v-.803z"/></defs></svg>