<svg xmlns="http://www.w3.org/2000/svg" xmlns:xlink="http://www.w3.org/1999/xlink" width="192" height="148" fill="none" xmlns:v="https://vecta.io/nano"><style><![CDATA[.B{fill:#fff}.C{fill:#6a7f96}.D{fill:#2470ab}.E{fill:#5ea7df}.F{fill:#7c93a5}.G{fill:#b9d2e6}.H{fill:#98b1c5}.I{fill:#ede2c6}]]></style><path d="M186.621 144.119H6.84a1.84 1.84 0 1 0 0 3.68h179.781a1.84 1.84 0 1 0 0-3.68z" fill="#fd5631"/><path d="M40.462 99.425H19.453v44.694h21.009V99.425z" fill="#d1c8c9"/><path d="M40.463 99.425H29.892v44.694h10.571V99.425z" fill="#ab9698"/><g class="B"><use xlink:href="#B"/><use xlink:href="#B" x="11.51"/><use xlink:href="#B" y="2.275"/><use xlink:href="#B" x="11.51" y="2.275"/><use xlink:href="#B" y="4.55"/><use xlink:href="#B" x="11.51" y="4.55"/><use xlink:href="#C"/><use xlink:href="#C" x="11.51"/><use xlink:href="#C" y="2.275"/><use xlink:href="#C" x="11.51" y="2.275"/><use xlink:href="#C" y="4.55"/><use xlink:href="#C" x="11.51" y="4.55"/><use xlink:href="#C" y="6.825"/><use xlink:href="#C" x="11.51" y="6.825"/><use xlink:href="#B" y="15.924"/><use xlink:href="#B" x="11.51" y="15.924"/><use xlink:href="#B" y="18.199"/><use xlink:href="#B" x="11.51" y="18.199"/><use xlink:href="#C" y="13.649"/><use xlink:href="#C" x="11.51" y="13.649"/><use xlink:href="#C" y="-27.432"/><use xlink:href="#C" x="11.51" y="-27.432"/><use xlink:href="#B" y="-18.333"/><use xlink:href="#B" x="11.51" y="-18.333"/><use xlink:href="#B" y="-15.924"/><use xlink:href="#B" x="11.51" y="-15.924"/><use xlink:href="#C" y="-20.474"/><use xlink:href="#C" x="11.51" y="-20.474"/><use xlink:href="#B" y="-11.374"/><use xlink:href="#B" x="11.51" y="-11.374"/><use xlink:href="#C" y="-15.924"/><use xlink:href="#C" x="11.51" y="-15.924"/><use xlink:href="#C" y="-13.649"/><use xlink:href="#C" x="11.51" y="-13.649"/><use xlink:href="#C" y="-11.374"/><use xlink:href="#C" x="11.51" y="-11.374"/><use xlink:href="#B" y="-2.275"/><use xlink:href="#B" x="11.51" y="-2.275"/></g><path d="M35.244 97.016H24.539v2.409h10.705v-2.409z" class="F"/><path d="M106.567 114.145L96.798 94.34l-9.902 19.805-.535-.268 10.438-21.143 10.304 21.143-.535.268z" fill="#666"/><path d="M125.165 62.358h-18.868v81.628h18.868V62.358z" class="D"/><path d="M109.106 64.098h-2.543v-.803h2.543v.803zm0 1.606h-2.543v.803h2.543v-.803zm0 2.409h-2.543v.803h2.543v-.803zm0 2.543h-2.543v.803h2.543v-.803zm0 2.409h-2.543v.803h2.543v-.803zm0 2.409h-2.543v.803h2.543v-.803zm0 2.543h-2.543v.803h2.543v-.803zm0 2.409h-2.543v.803h2.543v-.803zm0 2.409h-2.543v.803h2.543v-.803zm0 2.542h-2.543v.803h2.543v-.803zm0 2.409h-2.543v.803h2.543v-.803zm0 2.542h-2.543v.803h2.543v-.803zm0 2.409h-2.543v.803h2.543v-.803zm0 2.409h-2.543v.803h2.543v-.803zm0 2.543h-2.543v.803h2.543v-.803zm0 2.409h-2.543v.803h2.543v-.803zm0 2.409h-2.543v.803h2.543v-.803zm0 2.542h-2.543v.803h2.543v-.803zm0 2.409h-2.543v.803h2.543v-.803zm0 2.409h-2.543v.936h2.543v-.936zm0 2.542h-2.543v.803h2.543v-.803zm0 2.409h-2.543v.803h2.543v-.803zm0 2.542h-2.543v.803h2.543v-.803zm0 2.409h-2.543v.803h2.543v-.803zm0 2.409h-2.543v.803h2.543v-.803zm0 2.542h-2.543v.803h2.543v-.803zm0 2.409h-2.543v.803h2.543v-.803zm0 2.409h-2.543v.802h2.543v-.802zm0 2.542h-2.543v.803h2.543v-.803zm0 2.409h-2.543v.803h2.543v-.803zm0 2.408h-2.543v.803h2.543v-.803zm0 2.543h-2.543v.803h2.543v-.803zm0 2.409h-2.543v.802h2.543v-.802zm4.014-77.747h-2.542v-.803h2.542v.803zm0 1.606h-2.542v.803h2.542v-.803zm0 2.409h-2.542v.803h2.542v-.803zm0 2.543h-2.542v.803h2.542v-.803zm0 2.409h-2.542v.803h2.542v-.803zm0 2.409h-2.542v.803h2.542v-.803zm0 2.543h-2.542v.803h2.542v-.803zm0 2.409h-2.542v.803h2.542v-.803zm0 2.409h-2.542v.803h2.542v-.803zm0 2.542h-2.542v.803h2.542v-.803zm0 2.409h-2.542v.803h2.542v-.803zm0 2.542h-2.542v.803h2.542v-.803zm0 2.409h-2.542v.803h2.542v-.803zm0 2.409h-2.542v.803h2.542v-.803zm0 2.543h-2.542v.803h2.542v-.803zm0 2.409h-2.542v.803h2.542v-.803zm0 2.409h-2.542v.803h2.542v-.803zm0 2.542h-2.542v.803h2.542v-.803zm0 2.409h-2.542v.803h2.542v-.803zm0 2.409h-2.542v.936h2.542v-.936zm0 2.542h-2.542v.803h2.542v-.803zm0 2.409h-2.542v.803h2.542v-.803zm0 2.542h-2.542v.803h2.542v-.803zm0 2.409h-2.542v.803h2.542v-.803zm0 2.409h-2.542v.803h2.542v-.803zm0 2.542h-2.542v.803h2.542v-.803zm0 2.409h-2.542v.803h2.542v-.803zm0 2.409h-2.542v.802h2.542v-.802zm0 2.542h-2.542v.803h2.542v-.803zm0 2.409h-2.542v.803h2.542v-.803zm0 2.408h-2.542v.803h2.542v-.803zm0 2.543h-2.542v.803h2.542v-.803zm0 2.409h-2.542v.802h2.542v-.802zm3.881-77.747h-2.542v-.803h2.542v.803zm0 1.606h-2.542v.803h2.542v-.803zm0 2.409h-2.542v.803h2.542v-.803zm0 2.543h-2.542v.803h2.542v-.803zm0 2.409h-2.542v.803h2.542v-.803zm0 2.409h-2.542v.803h2.542v-.803zm0 2.543h-2.542v.803h2.542v-.803zm0 2.409h-2.542v.803h2.542v-.803zm0 2.409h-2.542v.803h2.542v-.803zm0 2.542h-2.542v.803h2.542v-.803zm0 2.409h-2.542v.803h2.542v-.803zm0 2.542h-2.542v.803h2.542v-.803zm0 2.409h-2.542v.803h2.542v-.803zm0 2.409h-2.542v.803h2.542v-.803zm0 2.543h-2.542v.803h2.542v-.803zm0 2.409h-2.542v.803h2.542v-.803zm0 2.409h-2.542v.803h2.542v-.803zm0 2.542h-2.542v.803h2.542v-.803zm0 2.409h-2.542v.803h2.542v-.803zm0 2.409h-2.542v.936h2.542v-.936zm0 2.542h-2.542v.803h2.542v-.803zm0 2.409h-2.542v.803h2.542v-.803zm0 2.542h-2.542v.803h2.542v-.803zm0 2.409h-2.542v.803h2.542v-.803zm0 2.409h-2.542v.803h2.542v-.803zm0 2.542h-2.542v.803h2.542v-.803zm0 2.409h-2.542v.803h2.542v-.803zm0 2.409h-2.542v.802h2.542v-.802zm0 2.542h-2.542v.803h2.542v-.803zm0 2.409h-2.542v.803h2.542v-.803zm0 2.408h-2.542v.803h2.542v-.803zm0 2.543h-2.542v.803h2.542v-.803zm0 2.409h-2.542v.802h2.542v-.802zm4.015-77.747h-2.543v-.803h2.543v.803zm0 1.606h-2.543v.803h2.543v-.803zm0 2.409h-2.543v.803h2.543v-.803zm0 2.543h-2.543v.803h2.543v-.803zm0 2.409h-2.543v.803h2.543v-.803zm0 2.409h-2.543v.803h2.543v-.803zm0 2.543h-2.543v.803h2.543v-.803zm0 2.409h-2.543v.803h2.543v-.803zm0 2.409h-2.543v.803h2.543v-.803zm0 2.542h-2.543v.803h2.543v-.803zm0 2.409h-2.543v.803h2.543v-.803zm0 2.542h-2.543v.803h2.543v-.803zm0 2.409h-2.543v.803h2.543v-.803zm0 2.409h-2.543v.803h2.543v-.803zm0 2.543h-2.543v.803h2.543v-.803zm0 2.409h-2.543v.803h2.543v-.803zm0 2.409h-2.543v.803h2.543v-.803zm0 2.542h-2.543v.803h2.543v-.803zm0 2.409h-2.543v.803h2.543v-.803zm0 2.409h-2.543v.936h2.543v-.936zm0 2.542h-2.543v.803h2.543v-.803zm0 2.409h-2.543v.803h2.543v-.803zm0 2.542h-2.543v.803h2.543v-.803zm0 2.409h-2.543v.803h2.543v-.803zm0 2.409h-2.543v.803h2.543v-.803zm0 2.542h-2.543v.803h2.543v-.803zm0 2.409h-2.543v.803h2.543v-.803zm0 2.409h-2.543v.802h2.543v-.802zm0 2.542h-2.543v.803h2.543v-.803zm0 2.409h-2.543v.803h2.543v-.803zm0 2.408h-2.543v.803h2.543v-.803zm0 2.543h-2.543v.803h2.543v-.803zm0 2.409h-2.543v.802h2.543v-.802zm4.014-77.747h-2.542v-.803h2.542v.803zm0 1.606h-2.542v.803h2.542v-.803zm0 2.409h-2.542v.803h2.542v-.803zm0 2.543h-2.542v.803h2.542v-.803zm0 2.409h-2.542v.803h2.542v-.803zm0 2.409h-2.542v.803h2.542v-.803zm0 2.543h-2.542v.803h2.542v-.803zm0 2.409h-2.542v.803h2.542v-.803zm0 2.409h-2.542v.803h2.542v-.803zm0 2.542h-2.542v.803h2.542v-.803zm0 2.409h-2.542v.803h2.542v-.803zm0 2.542h-2.542v.803h2.542v-.803zm0 2.409h-2.542v.803h2.542v-.803zm0 2.409h-2.542v.803h2.542v-.803zm0 2.543h-2.542v.803h2.542v-.803zm0 2.409h-2.542v.803h2.542v-.803zm0 2.409h-2.542v.803h2.542v-.803zm0 2.542h-2.542v.803h2.542v-.803zm0 2.409h-2.542v.803h2.542v-.803zm0 2.409h-2.542v.936h2.542v-.936zm0 2.542h-2.542v.803h2.542v-.803zm0 2.409h-2.542v.803h2.542v-.803zm0 2.542h-2.542v.803h2.542v-.803zm0 2.409h-2.542v.803h2.542v-.803zm0 2.409h-2.542v.803h2.542v-.803zm0 2.542h-2.542v.803h2.542v-.803zm0 2.409h-2.542v.803h2.542v-.803zm0 2.409h-2.542v.802h2.542v-.802zm0 2.542h-2.542v.803h2.542v-.803zm0 2.409h-2.542v.803h2.542v-.803zm0 2.408h-2.542v.803h2.542v-.803zm0 2.543h-2.542v.803h2.542v-.803zm0 2.409h-2.542v.802h2.542v-.802z" class="B"/><g class="C"><use xlink:href="#D"/><use xlink:href="#D" x="4.014"/><use xlink:href="#D" x="8.028"/><use xlink:href="#D" x="11.912"/></g><path d="M124.496 44.427h-17.53v18.065h17.53V44.427z" class="D"/><g class="B"><use xlink:href="#E"/><use xlink:href="#E" y="2.409"/><use xlink:href="#E" y="4.818"/><use xlink:href="#E" y="7.36"/><use xlink:href="#E" y="9.769"/><use xlink:href="#E" y="12.178"/><use xlink:href="#E" y="14.72"/><use xlink:href="#E" x="3.743"/><use xlink:href="#E" x="3.743" y="2.409"/><use xlink:href="#E" x="3.743" y="4.818"/><use xlink:href="#E" x="3.743" y="7.36"/><use xlink:href="#E" x="3.743" y="9.769"/><use xlink:href="#E" x="3.743" y="12.178"/><use xlink:href="#E" x="3.743" y="14.72"/><use xlink:href="#E" x="7.491"/><use xlink:href="#E" x="7.491" y="2.409"/><use xlink:href="#E" x="7.491" y="4.818"/><use xlink:href="#E" x="7.491" y="7.36"/><use xlink:href="#E" x="7.491" y="9.769"/><use xlink:href="#E" x="7.491" y="12.178"/><use xlink:href="#E" x="7.491" y="14.72"/><use xlink:href="#F"/><use xlink:href="#F" y="2.409"/><use xlink:href="#F" y="4.818"/><use xlink:href="#F" y="7.36"/><use xlink:href="#F" y="9.769"/><use xlink:href="#F" y="12.178"/><use xlink:href="#F" y="14.72"/><use xlink:href="#F" x="3.748"/><use xlink:href="#F" x="3.748" y="2.409"/><use xlink:href="#F" x="3.748" y="4.818"/><use xlink:href="#F" x="3.748" y="7.36"/><use xlink:href="#F" x="3.748" y="9.769"/><use xlink:href="#F" x="3.748" y="12.178"/><use xlink:href="#F" x="3.748" y="14.72"/></g><g class="C"><use xlink:href="#G"/><path d="M114.192 44.427h-.536v18.065h.536V44.427zm3.748 0h-.536v18.065h.536V44.427z"/><use xlink:href="#G" x="11.108"/></g><path d="M123.157 26.362h-14.853v18.065h14.853V26.362z" class="D"/><g class="B"><use xlink:href="#H"/><use xlink:href="#H" y="2.409"/><use xlink:href="#H" y="4.951"/><use xlink:href="#H" y="7.36"/><use xlink:href="#H" y="9.902"/><use xlink:href="#H" y="12.311"/><use xlink:href="#H" y="14.72"/><use xlink:href="#H" x="3.209"/><use xlink:href="#H" x="3.209" y="2.409"/><use xlink:href="#H" x="3.209" y="4.951"/><use xlink:href="#H" x="3.209" y="7.36"/><use xlink:href="#H" x="3.209" y="9.902"/><use xlink:href="#H" x="3.209" y="12.311"/><use xlink:href="#H" x="3.209" y="14.72"/><use xlink:href="#I"/><use xlink:href="#I" y="2.409"/><use xlink:href="#I" y="4.951"/><use xlink:href="#I" y="7.36"/><use xlink:href="#I" y="9.902"/><use xlink:href="#I" y="12.311"/><use xlink:href="#I" y="14.72"/><use xlink:href="#I" x="3.078"/><use xlink:href="#I" x="3.078" y="2.409"/><use xlink:href="#I" x="3.078" y="4.951"/><use xlink:href="#I" x="3.078" y="7.36"/></g><path d="M115.933 0h-.536v7.895h.536V0z" class="C"/><g class="B"><use xlink:href="#I" x="3.078" y="9.902"/><use xlink:href="#I" x="3.078" y="12.311"/><use xlink:href="#I" x="3.078" y="14.72"/><use xlink:href="#I" x="6.288"/><use xlink:href="#I" x="6.288" y="2.409"/><use xlink:href="#I" x="6.288" y="4.951"/><use xlink:href="#I" x="6.288" y="7.36"/><use xlink:href="#I" x="6.288" y="9.902"/></g><path d="M117.539 9.233c0 .937-.803 1.74-1.74 1.74s-1.739-.803-1.739-1.74.802-1.74 1.739-1.74 1.74.803 1.74 1.74z" class="D"/><g class="B"><use xlink:href="#I" x="6.288" y="12.311"/><use xlink:href="#I" x="6.288" y="14.72"/></g><g class="C"><use xlink:href="#J"/><use xlink:href="#J" x="3.078"/><use xlink:href="#J" x="6.293"/><use xlink:href="#J" x="9.367"/></g><path d="M121.688 18.6h-11.91v7.761h11.91V18.6z" class="D"/><path d="M121.688 18.601h-11.91l5.219-7.761h1.606l5.085 7.761z" class="C"/><g class="B"><use xlink:href="#K"/><use xlink:href="#K" y="2.409"/><use xlink:href="#K" y="4.952"/><use xlink:href="#K" x="2.545"/><use xlink:href="#K" x="2.545" y="2.409"/><use xlink:href="#K" x="2.545" y="4.952"/><use xlink:href="#K" x="5.086"/><use xlink:href="#K" x="5.086" y="2.409"/><use xlink:href="#K" x="5.086" y="4.952"/><use xlink:href="#K" x="7.495"/><use xlink:href="#K" x="7.495" y="2.409"/><use xlink:href="#K" x="7.495" y="4.952"/><use xlink:href="#K" x="10.036"/><use xlink:href="#K" x="10.036" y="2.409"/><use xlink:href="#K" x="10.036" y="4.952"/></g><path d="M112.187 18.6h-.402v7.761h.402V18.6zm2.541 0h-.402v7.761h.402V18.6zm2.54 0h-.402v7.761h.402V18.6zm2.546 0h-.402v7.761h.402V18.6z" class="C"/><path d="M87.162 62.358H68.294v81.628h18.868V62.358z" class="E"/><path d="M71.103 64.098h-2.542v-.803h2.542v.803zm0 1.606h-2.542v.803h2.542v-.803zm0 2.409h-2.542v.803h2.542v-.803zm0 2.543h-2.542v.803h2.542v-.803zm0 2.409h-2.542v.803h2.542v-.803zm0 2.409h-2.542v.803h2.542v-.803zm0 2.543h-2.542v.803h2.542v-.803zm0 2.409h-2.542v.803h2.542v-.803zm0 2.409h-2.542v.803h2.542v-.803zm0 2.542h-2.542v.803h2.542v-.803zm0 2.409h-2.542v.803h2.542v-.803zm0 2.542h-2.542v.803h2.542v-.803zm0 2.409h-2.542v.803h2.542v-.803zm0 2.409h-2.542v.803h2.542v-.803zm0 2.543h-2.542v.803h2.542v-.803zm0 2.409h-2.542v.803h2.542v-.803zm0 2.409h-2.542v.803h2.542v-.803zm0 2.542h-2.542v.803h2.542v-.803zm0 2.409h-2.542v.803h2.542v-.803zm0 2.409h-2.542v.936h2.542v-.936zm0 2.542h-2.542v.803h2.542v-.803zm0 2.409h-2.542v.803h2.542v-.803zm0 2.542h-2.542v.803h2.542v-.803zm0 2.409h-2.542v.803h2.542v-.803zm0 2.409h-2.542v.803h2.542v-.803zm0 2.542h-2.542v.803h2.542v-.803zm0 2.409h-2.542v.803h2.542v-.803zm0 2.409h-2.542v.802h2.542v-.802zm0 2.542h-2.542v.803h2.542v-.803zm0 2.409h-2.542v.803h2.542v-.803zm0 2.408h-2.542v.803h2.542v-.803zm0 2.543h-2.542v.803h2.542v-.803zm0 2.409h-2.542v.802h2.542v-.802zm3.881-77.747h-2.543v-.803h2.543v.803zm0 1.606h-2.543v.803h2.543v-.803zm0 2.409h-2.543v.803h2.543v-.803zm0 2.543h-2.543v.803h2.543v-.803zm0 2.409h-2.543v.803h2.543v-.803zm0 2.409h-2.543v.803h2.543v-.803zm0 2.543h-2.543v.803h2.543v-.803zm0 2.409h-2.543v.803h2.543v-.803zm0 2.409h-2.543v.803h2.543v-.803zm0 2.542h-2.543v.803h2.543v-.803zm0 2.409h-2.543v.803h2.543v-.803zm0 2.542h-2.543v.803h2.543v-.803zm0 2.409h-2.543v.803h2.543v-.803zm0 2.409h-2.543v.803h2.543v-.803zm0 2.543h-2.543v.803h2.543v-.803zm0 2.409h-2.543v.803h2.543v-.803zm0 2.409h-2.543v.803h2.543v-.803zm0 2.542h-2.543v.803h2.543v-.803zm0 2.409h-2.543v.803h2.543v-.803zm0 2.409h-2.543v.936h2.543v-.936zm0 2.542h-2.543v.803h2.543v-.803zm0 2.409h-2.543v.803h2.543v-.803zm0 2.542h-2.543v.803h2.543v-.803zm0 2.409h-2.543v.803h2.543v-.803zm0 2.409h-2.543v.803h2.543v-.803zm0 2.542h-2.543v.803h2.543v-.803zm0 2.409h-2.543v.803h2.543v-.803zm0 2.409h-2.543v.802h2.543v-.802zm0 2.542h-2.543v.803h2.543v-.803zm0 2.409h-2.543v.803h2.543v-.803zm0 2.408h-2.543v.803h2.543v-.803zm0 2.543h-2.543v.803h2.543v-.803zm0 2.409h-2.543v.802h2.543v-.802zm4.014-77.747h-2.542v-.803h2.542v.803zm0 1.606h-2.542v.803h2.542v-.803zm0 2.409h-2.542v.803h2.542v-.803zm0 2.543h-2.542v.803h2.542v-.803zm0 2.409h-2.542v.803h2.542v-.803zm0 2.409h-2.542v.803h2.542v-.803zm0 2.543h-2.542v.803h2.542v-.803zm0 2.409h-2.542v.803h2.542v-.803zm0 2.409h-2.542v.803h2.542v-.803zm0 2.542h-2.542v.803h2.542v-.803zm0 2.409h-2.542v.803h2.542v-.803zm0 2.542h-2.542v.803h2.542v-.803zm0 2.409h-2.542v.803h2.542v-.803zm0 2.409h-2.542v.803h2.542v-.803zm0 2.543h-2.542v.803h2.542v-.803zm0 2.409h-2.542v.803h2.542v-.803zm0 2.409h-2.542v.803h2.542v-.803zm0 2.542h-2.542v.803h2.542v-.803zm0 2.409h-2.542v.803h2.542v-.803zm0 2.409h-2.542v.936h2.542v-.936zm0 2.542h-2.542v.803h2.542v-.803zm0 2.409h-2.542v.803h2.542v-.803zm0 2.542h-2.542v.803h2.542v-.803zm0 2.409h-2.542v.803h2.542v-.803zm0 2.409h-2.542v.803h2.542v-.803zm0 2.542h-2.542v.803h2.542v-.803zm0 2.409h-2.542v.803h2.542v-.803zm0 2.409h-2.542v.802h2.542v-.802zm0 2.542h-2.542v.803h2.542v-.803zm0 2.409h-2.542v.803h2.542v-.803zm0 2.408h-2.542v.803h2.542v-.803zm0 2.543h-2.542v.803h2.542v-.803zm0 2.409h-2.542v.802h2.542v-.802zm4.015-77.747H80.47v-.803h2.543v.803zm0 1.606H80.47v.803h2.543v-.803zm0 2.409H80.47v.803h2.543v-.803zm0 2.543H80.47v.803h2.543v-.803zm0 2.409H80.47v.803h2.543v-.803zm0 2.409H80.47v.803h2.543v-.803zm0 2.543H80.47v.803h2.543v-.803zm0 2.409H80.47v.803h2.543v-.803zm0 2.409H80.47v.803h2.543v-.803zm0 2.542H80.47v.803h2.543v-.803zm0 2.409H80.47v.803h2.543v-.803zm0 2.542H80.47v.803h2.543v-.803zm0 2.409H80.47v.803h2.543v-.803zm0 2.409H80.47v.803h2.543v-.803zm0 2.543H80.47v.803h2.543v-.803zm0 2.409H80.47v.803h2.543v-.803zm0 2.409H80.47v.803h2.543v-.803zm0 2.542H80.47v.803h2.543v-.803zm0 2.409H80.47v.803h2.543v-.803zm0 2.409H80.47v.936h2.543v-.936zm0 2.542H80.47v.803h2.543v-.803zm0 2.409H80.47v.803h2.543v-.803zm0 2.542H80.47v.803h2.543v-.803zm0 2.409H80.47v.803h2.543v-.803zm0 2.409H80.47v.803h2.543v-.803zm0 2.542H80.47v.803h2.543v-.803zm0 2.409H80.47v.803h2.543v-.803zm0 2.409H80.47v.802h2.543v-.802zm0 2.542H80.47v.803h2.543v-.803zm0 2.409H80.47v.803h2.543v-.803zm0 2.408H80.47v.803h2.543v-.803zm0 2.543H80.47v.803h2.543v-.803zm0 2.409H80.47v.802h2.543v-.802zm3.881-77.747h-2.542v-.803h2.542v.803zm0 1.606h-2.542v.803h2.542v-.803zm0 2.409h-2.542v.803h2.542v-.803zm0 2.543h-2.542v.803h2.542v-.803zm0 2.409h-2.542v.803h2.542v-.803zm0 2.409h-2.542v.803h2.542v-.803zm0 2.543h-2.542v.803h2.542v-.803zm0 2.409h-2.542v.803h2.542v-.803zm0 2.409h-2.542v.803h2.542v-.803zm0 2.542h-2.542v.803h2.542v-.803zm0 2.409h-2.542v.803h2.542v-.803zm0 2.542h-2.542v.803h2.542v-.803zm0 2.409h-2.542v.803h2.542v-.803zm0 2.409h-2.542v.803h2.542v-.803zm0 2.543h-2.542v.803h2.542v-.803zm0 2.409h-2.542v.803h2.542v-.803zm0 2.409h-2.542v.803h2.542v-.803zm0 2.542h-2.542v.803h2.542v-.803zm0 2.409h-2.542v.803h2.542v-.803zm0 2.409h-2.542v.936h2.542v-.936zm0 2.542h-2.542v.803h2.542v-.803zm0 2.409h-2.542v.803h2.542v-.803zm0 2.542h-2.542v.803h2.542v-.803zm0 2.409h-2.542v.803h2.542v-.803zm0 2.409h-2.542v.803h2.542v-.803zm0 2.542h-2.542v.803h2.542v-.803zm0 2.409h-2.542v.803h2.542v-.803zm0 2.409h-2.542v.802h2.542v-.802zm0 2.542h-2.542v.803h2.542v-.803zm0 2.409h-2.542v.803h2.542v-.803zm0 2.408h-2.542v.803h2.542v-.803zm0 2.543h-2.542v.803h2.542v-.803zm0 2.409h-2.542v.802h2.542v-.802z" class="B"/><g class="C"><use xlink:href="#D" x="-38.003"/><use xlink:href="#D" x="-33.989"/><use xlink:href="#D" x="-30.105"/><use xlink:href="#D" x="-26.091"/></g><path d="M86.493 44.427h-17.53v18.065h17.53V44.427z" class="E"/><g class="B"><use xlink:href="#F" x="-49.106"/><use xlink:href="#F" x="-49.106" y="2.409"/><use xlink:href="#F" x="-49.106" y="4.818"/><use xlink:href="#F" x="-49.106" y="7.36"/><use xlink:href="#F" x="-49.106" y="9.769"/><use xlink:href="#F" x="-49.106" y="12.178"/><use xlink:href="#F" x="-49.106" y="14.72"/><use xlink:href="#F" x="-45.362"/><use xlink:href="#F" x="-45.362" y="2.409"/><use xlink:href="#F" x="-45.362" y="4.818"/><use xlink:href="#F" x="-45.362" y="7.36"/><use xlink:href="#F" x="-45.362" y="9.769"/><use xlink:href="#F" x="-45.362" y="12.178"/><use xlink:href="#F" x="-45.362" y="14.72"/><use xlink:href="#F" x="-41.745"/><use xlink:href="#F" x="-41.745" y="2.409"/><use xlink:href="#F" x="-41.745" y="4.818"/><use xlink:href="#F" x="-41.745" y="7.36"/><use xlink:href="#F" x="-41.745" y="9.769"/><use xlink:href="#F" x="-41.745" y="12.178"/><use xlink:href="#F" x="-41.745" y="14.72"/><use xlink:href="#F" x="-38.003"/><use xlink:href="#F" x="-38.003" y="2.409"/><use xlink:href="#F" x="-38.003" y="4.818"/><use xlink:href="#F" x="-38.003" y="7.36"/><use xlink:href="#F" x="-38.003" y="9.769"/><use xlink:href="#F" x="-38.003" y="12.178"/><use xlink:href="#F" x="-38.003" y="14.72"/><use xlink:href="#F" x="-34.255"/><use xlink:href="#F" x="-34.255" y="2.409"/><use xlink:href="#F" x="-34.255" y="4.818"/><use xlink:href="#F" x="-34.255" y="7.36"/><use xlink:href="#F" x="-34.255" y="9.769"/><use xlink:href="#F" x="-34.255" y="12.178"/><use xlink:href="#F" x="-34.255" y="14.72"/></g><g class="C"><use xlink:href="#G" x="-38.002"/><use xlink:href="#G" x="-34.255"/><use xlink:href="#G" x="-30.643"/><use xlink:href="#G" x="-26.895"/></g><path d="M85.154 26.362H70.301v18.065h14.854V26.362z" class="E"/><g class="B"><use xlink:href="#I" x="-44.291"/><use xlink:href="#I" x="-44.291" y="2.409"/><use xlink:href="#I" x="-44.291" y="4.951"/><use xlink:href="#I" x="-44.291" y="7.36"/><use xlink:href="#I" x="-44.291" y="9.902"/><use xlink:href="#I" x="-44.291" y="12.311"/><use xlink:href="#I" x="-44.291" y="14.72"/><use xlink:href="#I" x="-41.218"/><use xlink:href="#I" x="-41.218" y="2.409"/><use xlink:href="#I" x="-41.218" y="4.951"/><use xlink:href="#I" x="-41.218" y="7.36"/><use xlink:href="#I" x="-41.218" y="9.902"/><use xlink:href="#I" x="-41.218" y="12.311"/><use xlink:href="#I" x="-41.218" y="14.72"/><use xlink:href="#I" x="-38.003"/><use xlink:href="#I" x="-38.003" y="2.409"/><use xlink:href="#I" x="-38.003" y="4.951"/><use xlink:href="#I" x="-38.003" y="7.36"/><use xlink:href="#I" x="-38.003" y="9.902"/><use xlink:href="#I" x="-38.003" y="12.311"/><use xlink:href="#I" x="-38.003" y="14.72"/><use xlink:href="#I" x="-34.925"/><use xlink:href="#I" x="-34.925" y="2.409"/><use xlink:href="#I" x="-34.925" y="4.951"/><use xlink:href="#I" x="-34.925" y="7.36"/></g><path d="M77.93 0h-.535v7.895h.535V0z" class="H"/><g class="B"><use xlink:href="#I" x="-34.925" y="9.902"/><use xlink:href="#I" x="-34.925" y="12.311"/><use xlink:href="#I" x="-34.925" y="14.72"/><use xlink:href="#I" x="-31.851"/><use xlink:href="#I" x="-31.851" y="2.409"/><use xlink:href="#I" x="-31.851" y="4.951"/><use xlink:href="#I" x="-31.851" y="7.36"/><use xlink:href="#I" x="-31.851" y="9.902"/></g><path d="M79.536 9.233c0 .937-.803 1.74-1.74 1.74s-1.74-.803-1.74-1.74.803-1.74 1.74-1.74 1.74.803 1.74 1.74z" class="E"/><g class="B"><use xlink:href="#I" x="-31.851" y="12.311"/><use xlink:href="#I" x="-31.851" y="14.72"/></g><g class="C"><use xlink:href="#J" x="-38.003"/><use xlink:href="#J" x="-34.925"/><use xlink:href="#J" x="-31.71"/><use xlink:href="#J" x="-28.636"/></g><path d="M83.685 18.6h-11.91v7.761h11.91V18.6z" class="E"/><path d="M83.685 18.601h-11.91l5.085-7.761h1.606l5.219 7.761z" class="H"/><g class="B"><use xlink:href="#K" x="-38.003"/><use xlink:href="#K" x="-38.003" y="2.409"/><use xlink:href="#K" x="-38.003" y="4.952"/><use xlink:href="#K" x="-35.594"/><use xlink:href="#K" x="-35.594" y="2.409"/><use xlink:href="#K" x="-35.594" y="4.952"/><use xlink:href="#K" x="-33.053"/><use xlink:href="#K" x="-33.053" y="2.409"/><use xlink:href="#K" x="-33.053" y="4.952"/><use xlink:href="#K" x="-30.508"/><use xlink:href="#K" x="-30.508" y="2.409"/><use xlink:href="#K" x="-30.508" y="4.952"/><use xlink:href="#K" x="-27.967"/><use xlink:href="#K" x="-27.967" y="2.409"/><use xlink:href="#K" x="-27.967" y="4.952"/></g><path d="M74.184 18.6h-.401v7.761h.401V18.6zm2.541 0h-.401v7.761h.401V18.6zm2.54 0h-.401v7.761h.401V18.6zm2.41 0h-.401v7.761h.401V18.6z" class="C"/><path d="M106.434 90.326h-9.635v3.212h9.635v-3.212z" class="D"/><path d="M96.8 90.326h-9.635v3.212H96.8v-3.212z" class="E"/><path d="M58.124 67.844H42.2v76.141h15.924V67.844z" fill="#9bc1bd"/><path d="M66.017 67.844h-7.895v76.141h7.895V67.844z" fill="#7ba39f"/><path d="M62.003 61.555H46.748v6.289h15.255v-6.289z" class="F"/><g fill="#5f8884"><use xlink:href="#L"/><use xlink:href="#L" y="2.81"/><use xlink:href="#L" y="5.487"/><path d="M65.616 81.36H42.733v1.071h22.882V81.36z"/><use xlink:href="#M"/><use xlink:href="#M" y="2.81"/><use xlink:href="#M" y="5.486"/><use xlink:href="#M" y="8.163"/><use xlink:href="#L" y="21.812"/><use xlink:href="#L" y="24.488"/><use xlink:href="#L" y="27.165"/><use xlink:href="#L" y="29.841"/><use xlink:href="#M" y="21.812"/><use xlink:href="#L" y="35.328"/><use xlink:href="#L" y="38.004"/><use xlink:href="#M" y="29.841"/><use xlink:href="#M" y="32.651"/><use xlink:href="#M" y="35.327"/><use xlink:href="#L" y="48.843"/><use xlink:href="#M" y="40.68"/><use xlink:href="#M" y="43.49"/><use xlink:href="#L" y="57.006"/><use xlink:href="#L" y="59.682"/><use xlink:href="#L" y="62.492"/><use xlink:href="#M" y="54.329"/><use xlink:href="#M" y="57.005"/></g><path d="M155.274 87.248h-21.812v56.737h21.812V87.248z" fill="#edbd7b"/><g class="B"><use xlink:href="#N"/><use xlink:href="#N" y="2.408"/><use xlink:href="#N" y="4.817"/><use xlink:href="#N" y="7.226"/><use xlink:href="#O"/><use xlink:href="#N" y="12.177"/><use xlink:href="#N" y="14.586"/><use xlink:href="#O" y="7.226"/><use xlink:href="#O" y="9.635"/><use xlink:href="#N" y="21.946"/><use xlink:href="#O" y="14.586"/><use xlink:href="#O" y="16.995"/><use xlink:href="#O" y="19.403"/><use xlink:href="#O" y="21.946"/><use xlink:href="#N" y="34.123"/><use xlink:href="#O" y="26.763"/><use xlink:href="#O" y="29.172"/><use xlink:href="#N" y="41.349"/><use xlink:href="#O" y="34.123"/><use xlink:href="#N" y="46.3"/><use xlink:href="#N" y="48.709"/><use xlink:href="#O" y="41.349"/></g><path d="M133.46 144.119h-2.408V97.551l2.408-2.007v48.575zm21.679 0h2.408V97.551l-2.408-2.007v48.575zm-2.813-71.591h-16.057v14.72h16.057v-14.72z" fill="#da9c48"/><path d="M152.326 72.528h-16.057l8.028-10.705 8.029 10.705z" fill="#edbd7b"/><path d="M144.773 87.32V74.742h-.802V87.32h.802zm1.667.076V74.818h-.802v12.579h.802zm1.663-.057V74.76h-.803v12.579h.803zm1.662-.058V74.702h-.803v12.579h.803zm1.668.075V74.777h-.803v12.579h.803zm-8.323.022V74.8h-.803v12.579h.803zm-1.662-.075V74.725h-.803v12.579h.803zm-1.667.058V74.782h-.803v12.579h.803zm-1.662-.076V74.706h-.803v12.579h.803z" class="B"/><path d="M162.013 144.027h12.177V77.789h-12.177v66.238z" class="G"/><path d="M171.444 144.049h1.204V80.086h-1.204v63.964zm-2.56 0h1.204V80.086h-1.204v63.964zm-2.562 0h1.204V80.086h-1.204v63.964zm-2.557 0h1.205V80.086h-1.205v63.964z" class="B"/><path d="M174.124 144.082h4.416V92.43h-4.416v51.652z" class="H"/><path d="M178.438 144.053h2.81v-38.405h-2.81v38.405z" class="F"/><path d="M16.238 60.083h-2.007-2.007l-2.007 84.036h4.015 4.014l-2.007-84.036z" class="I"/><path d="M18.651 58.611H9.819v1.472h8.832v-1.472z" class="G"/><path d="M18.651 57.541H9.819v1.071h8.832v-1.071zm1.202-2.543H8.612v1.071h11.24v-1.071zm1.472-2.408H7.007v1.071h14.318V52.59z" class="F"/><path d="M19.853 56.069H8.612v1.472h11.24v-1.472zm1.472-2.409H7.007v1.472h14.318V53.66zm2.008-2.542H5v1.472h18.333v-1.472z" class="G"/><path d="M17.578 46.434h-3.345-3.345c-3.881 0-5.62 4.684-5.62 4.684h8.966 8.966s-1.873-4.684-5.62-4.684z" class="I"/><path d="M17.577 42.152h-6.691v4.282h6.691v-4.282z" class="G"/><path d="M15.975 40.278h-3.479v1.74h3.479v-1.74z" class="I"/><path d="M15.306 40.279h-2.141l.669-25.96h.669l.803 25.96z" fill="#fbffff"/><path d="M13.165 40.279h2.141l-.134-3.881h-2.007v3.881zm.131-7.36h1.74v-3.881H13.43l-.134 3.881zm.267-7.494h1.338l-.134-3.881h-1.07l-.134 3.881zm.938-11.107h-.669l-.134 3.747h.937l-.134-3.747z" fill="#f6651d"/><path d="M18.647 60.083v-1.472-1.07h1.204v-1.472-1.071h1.606v-1.472-1.071h2.007v-1.472h-.268s-1.873-4.684-5.62-4.684v-4.282h-1.606v-1.74h-.669l-.134-3.881-.134-3.479-.134-2.275-.268-8.564v-.535l-.268-7.226h-.134v129.668h4.014l-2.007-84.037h2.409v.134z" fill="#b8c6db"/><defs ><path id="B" d="M28.954 121.237h-9.501v1.07h9.501v-1.07z"/><path id="C" d="M28.954 128.061h-9.501v1.071h9.501v-1.071z"/><path id="D" d="M110.042 62.358h-.535v81.628h.535V62.358z"/><path id="E" d="M109.51 45.497h-2.408v.803h2.408v-.803z"/><path id="F" d="M120.613 45.497h-2.409v.803h2.409v-.803z"/><path id="G" d="M110.444 44.427h-.535v18.065h.535V44.427z"/><path id="H" d="M110.448 27.432h-2.008v.803h2.008v-.803z"/><path id="I" d="M116.736 27.432h-2.007v.803h2.007v-.803z"/><path id="J" d="M111.246 26.362h-.401v18.065h.401V26.362z"/><path id="K" d="M111.515 19.269h-1.606v.803h1.606v-.803z"/><path id="L" d="M65.616 73.197H42.733v1.07h22.882v-1.07z"/><path id="M" d="M65.616 84.036H42.733v1.071h22.882v-1.071z"/><path id="N" d="M154.07 90.058h-19.537v1.07h19.537v-1.07z"/><path id="O" d="M154.07 99.826h-19.537v1.071h19.537v-1.071z"/></defs></svg>