<svg xmlns="http://www.w3.org/2000/svg" xmlns:xlink="http://www.w3.org/1999/xlink" width="192" height="148" fill="none" xmlns:v="https://vecta.io/nano"><path d="M114.594 110.222h-21.59v33.634h21.59v-33.634z" fill="#b9d2e6"/><path d="M114.594 110.222h-8.366v33.633h8.366v-33.633z" fill="#98b1c5"/><g fill="#fff"><use xlink:href="#B"/><use xlink:href="#C"/><use xlink:href="#D"/><use xlink:href="#D" x="1.62"/><use xlink:href="#C" x="4.585"/><use xlink:href="#C" x="-10.122"/><use xlink:href="#C" x="-8.502"/><use xlink:href="#D" x="-13.087"/><use xlink:href="#C" x="-13.224"/><use xlink:href="#C" x="-14.711"/><use xlink:href="#D" x="-8.502"/><use xlink:href="#D" x="-6.882"/><use xlink:href="#C" x="-3.913"/><use xlink:href="#B" y="4.053"/><use xlink:href="#C" y="4.053"/><use xlink:href="#D" y="4.053"/><use xlink:href="#D" x="1.62" y="4.053"/><use xlink:href="#C" x="4.585" y="4.053"/><use xlink:href="#C" x="-10.122" y="4.053"/><use xlink:href="#C" x="-8.502" y="4.053"/><use xlink:href="#D" x="-13.087" y="4.053"/><use xlink:href="#C" x="-13.224" y="4.053"/><use xlink:href="#C" x="-14.711" y="4.053"/><use xlink:href="#D" x="-8.502" y="4.053"/><use xlink:href="#D" x="-6.882" y="4.053"/><use xlink:href="#C" x="-3.913" y="4.053"/><use xlink:href="#B" y="7.973"/><use xlink:href="#C" y="7.973"/><use xlink:href="#D" y="7.973"/><use xlink:href="#D" x="1.62" y="7.973"/><use xlink:href="#C" x="4.585" y="7.973"/><use xlink:href="#C" x="-10.122" y="7.973"/><use xlink:href="#C" x="-8.502" y="7.973"/><use xlink:href="#D" x="-13.087" y="7.973"/><use xlink:href="#C" x="-13.224" y="7.973"/><use xlink:href="#C" x="-14.711" y="7.973"/><use xlink:href="#D" x="-8.502" y="7.973"/><use xlink:href="#D" x="-6.882" y="7.973"/><use xlink:href="#C" x="-3.913" y="7.973"/><use xlink:href="#B" y="11.886"/><use xlink:href="#C" y="11.886"/><use xlink:href="#D" y="11.887"/><use xlink:href="#D" x="1.62" y="11.887"/><use xlink:href="#C" x="4.585" y="11.886"/><use xlink:href="#C" x="-10.122" y="11.887"/><use xlink:href="#C" x="-8.502" y="11.887"/><use xlink:href="#D" x="-13.087" y="11.886"/><use xlink:href="#C" x="-13.224" y="11.887"/><use xlink:href="#C" x="-14.711" y="11.886"/><use xlink:href="#D" x="-8.502" y="11.886"/><use xlink:href="#D" x="-6.882" y="11.887"/><use xlink:href="#C" x="-3.913" y="11.886"/><use xlink:href="#B" y="15.939"/><use xlink:href="#C" y="15.939"/><use xlink:href="#D" y="15.939"/><use xlink:href="#D" x="1.62" y="15.939"/><use xlink:href="#C" x="4.585" y="15.939"/><use xlink:href="#C" x="-10.122" y="15.939"/><use xlink:href="#C" x="-8.502" y="15.939"/><use xlink:href="#D" x="-13.087" y="15.939"/><use xlink:href="#C" x="-13.224" y="15.939"/><use xlink:href="#C" x="-14.711" y="15.939"/><use xlink:href="#D" x="-8.502" y="15.939"/><use xlink:href="#D" x="-6.882" y="15.939"/><use xlink:href="#C" x="-3.913" y="15.939"/><use xlink:href="#B" y="19.859"/><use xlink:href="#C" y="19.859"/><use xlink:href="#D" y="19.859"/><use xlink:href="#D" x="1.62" y="19.859"/><use xlink:href="#C" x="4.585" y="19.859"/><use xlink:href="#C" x="-10.122" y="19.859"/><use xlink:href="#C" x="-8.502" y="19.859"/><use xlink:href="#D" x="-13.087" y="19.859"/><use xlink:href="#C" x="-13.224" y="19.859"/><use xlink:href="#C" x="-14.711" y="19.859"/><use xlink:href="#D" x="-8.502" y="19.859"/><use xlink:href="#D" x="-6.882" y="19.859"/><use xlink:href="#C" x="-3.913" y="19.859"/><use xlink:href="#B" y="23.909"/><use xlink:href="#C" y="23.909"/><use xlink:href="#D" y="23.91"/><use xlink:href="#D" x="1.62" y="23.91"/><use xlink:href="#C" x="4.585" y="23.909"/><use xlink:href="#C" x="-10.122" y="23.91"/><use xlink:href="#C" x="-8.502" y="23.91"/><use xlink:href="#D" x="-13.087" y="23.909"/><use xlink:href="#C" x="-13.224" y="23.91"/><use xlink:href="#C" x="-14.711" y="23.909"/><use xlink:href="#D" x="-8.502" y="23.909"/><use xlink:href="#D" x="-6.882" y="23.91"/><use xlink:href="#C" x="-3.913" y="23.909"/><use xlink:href="#B" y="27.829"/><use xlink:href="#C" y="27.829"/><use xlink:href="#D" y="27.829"/><use xlink:href="#D" x="1.62" y="27.829"/><use xlink:href="#C" x="4.585" y="27.829"/><use xlink:href="#C" x="-10.122" y="27.829"/><use xlink:href="#C" x="-8.502" y="27.829"/><use xlink:href="#D" x="-13.087" y="27.829"/><use xlink:href="#C" x="-13.224" y="27.829"/><use xlink:href="#C" x="-14.711" y="27.829"/><use xlink:href="#D" x="-8.502" y="27.829"/><use xlink:href="#D" x="-6.882" y="27.829"/><use xlink:href="#C" x="-3.913" y="27.829"/></g><path d="M186.041 143.859H4.959A1.96 1.96 0 0 0 3 145.818a1.96 1.96 0 0 0 1.959 1.959h181.082a1.96 1.96 0 0 0 1.959-1.959 1.96 1.96 0 0 0-1.959-1.959z" fill="#fd5631"/><path d="M65.881 77.4H50.633v66.456h15.248V77.4z" fill="#2470ab"/><path d="M72.086 77.399h-6.207v66.457h6.207V77.399z" fill="#085189"/><g fill="#fff"><use xlink:href="#E"/><use xlink:href="#E" y="4.184"/><use xlink:href="#E" y="8.241"/><use xlink:href="#E" y="12.428"/><use xlink:href="#E" y="16.477"/><use xlink:href="#E" y="20.667"/><use xlink:href="#E" y="24.854"/><use xlink:href="#E" y="28.908"/><use xlink:href="#E" y="33.09"/><use xlink:href="#E" y="37.146"/><use xlink:href="#E" y="41.33"/><use xlink:href="#E" y="45.387"/><use xlink:href="#E" y="49.574"/><use xlink:href="#E" y="53.76"/><use xlink:href="#E" y="57.813"/></g><path d="M40.378 12H26.614v15.829h13.764V12z" fill="#293d55"/><path d="M46.992 27.831H20.14v116.028h26.853V27.831z" fill="#bbc3d0"/><g fill="#6a7f96"><use xlink:href="#F"/><use xlink:href="#F" x="2.159"/><use xlink:href="#F" x="4.182"/><use xlink:href="#F" x="6.342"/><use xlink:href="#F" x="8.502"/><use xlink:href="#F" x="10.661"/><use xlink:href="#F" x="12.821"/><use xlink:href="#F" x="14.844"/><path d="M40.515 27.831h-1.08v116.028h1.08V27.831z"/><use xlink:href="#F" x="19.163"/><path d="M44.831 27.831h-1.08v116.028h1.08V27.831z"/></g><path d="M20.138 39.203H8.129v104.655h12.009V39.203z" fill="#293d55"/><path d="M19.33 39.203h-1.08v104.655h1.079V39.203zm-2.16 0h-1.079v104.655h1.079V39.203zm-2.16 0h-1.079v104.655h1.079V39.203zm-2.292 0h-1.079v104.655h1.079V39.203zm-2.16 0H9.479v104.655h1.079V39.203z" fill="#6a7f96"/><path d="M179.77 83.483c-2.699-29.581-13.089-51.598-17.407-51.598s-14.708 22.017-17.407 51.598c-2.698 30.391 0 60.242 0 60.242h17.407 17.407c0 .135 2.699-29.716 0-60.242z" fill="#5ea7df"/><path d="M180.848 116.711v-12.292l-2.429-5.268 2.024-5.673c0-.811-.135-1.621-.135-2.431l-2.428-5.268 1.619-4.863c0-.405-.135-.811-.135-1.216l-1.754 5.403-2.564-5.133 2.024-5.808 2.159 5.133a197.67 197.67 0 0 0-3.104-17.965l-2.968-5.808.674-2.702c-.135-.27-.135-.54-.269-.81v-.135c-.54-1.891-1.215-3.647-1.89-5.403 0-.135-.135-.27-.135-.405s-.134-.27-.134-.27l-2.429-5.673v-.135c0-.135-.135-.27-.135-.27s0-.135-.135-.135c-2.159-4.457-4.183-7.159-5.803-7.834-.269-.135-.404-.135-.674-.135s-.675.135-1.08.405c-.135 0-.135.135-.27.135h-.135c-.135.135-.269.135-.269.27-.405.405-.81.81-1.215 1.351-.135.135-.27.27-.405.54 0 0 0 .135-.135.135-.135.135-.27.27-.27.54l-.134.135c-.135.135-.27.27-.27.54v.135c-1.08 1.756-2.294 4.187-3.509 7.024v.135s0 .135-.135.135c-.135.27-.27.54-.27.81 0 .135-.134.135-.134.27-.135.27-.27.54-.27.81 0 .135 0 .135-.135.27-.135.27-.27.675-.405.945l-.405 1.081v.135c-.135.27-.27.675-.27.945 0 .135-.135.27-.135.27-.135.27-.135.54-.27.946 0 .135 0 .135-.135.27 0 .135 0 .135-.134.27l-1.89 6.348 2.564-4.322 1.35 4.457-2.699 5.808-1.619-4.593c-.135.27-.135.54-.27.81l1.484 4.457-2.564 5.133c-.27-.675-.405-1.486-.54-2.161-.674 3.242-1.214 6.619-1.754 9.995.405 1.216.81 2.566 1.35 3.782-.675 1.216-1.35 2.431-2.159 3.647 0 .405 0 .675-.135 1.081l2.429-4.187c.674 1.891 1.349 3.647 2.159 5.538-.945 1.756-2.025 3.512-3.104 5.268-.54-1.351-1.08-2.837-1.619-4.322 0 .405 0 .675-.135 1.081.405 1.216.944 2.566 1.349 3.782l-1.754 2.972v.945c.675-1.081 1.349-2.161 2.024-3.377.81 1.891 1.484 3.782 2.294 5.673-1.079 1.756-2.024 3.377-3.104 4.998-.539-1.486-.944-2.972-1.484-4.457l-.27 13.102c.405 1.08.81 2.161 1.35 3.241l-1.215 2.027v.81l1.484-2.296c.81 2.161 1.755 4.187 2.699 6.213l-3.508 5.673c-.135-.27-.27-.675-.405-.945v1.215c0 .135 0 .135.135.271 0 0 0 .135-.135.135v.81c.135-.135.135-.27.27-.405.81 1.891 1.754 3.512 2.564 5.268l-2.429 3.917v.81c.809-1.35 1.754-2.701 2.699-4.187.944 1.756 1.889 3.512 2.968 5.268-.944 1.351-1.754 2.701-2.564 3.917-1.484-1.621-2.428-3.107-3.103-4.593l.405 4.998h2.429.539.135l-.135-.135c.81-1.08 1.62-2.431 2.429-3.782.81 1.216 1.619 2.566 2.429 3.917h.54l-2.699-4.322a90.1 90.1 0 0 0 3.239-5.268c.944 1.621 1.754 3.377 2.698 4.998-.944 1.486-2.024 3.106-3.103 4.592h.54c.944-1.351 1.889-2.836 2.833-4.187l2.429 4.187h2.834 2.429c-.54-.945-1.08-1.891-1.62-2.701 1.215-1.891 2.294-3.782 3.509-5.673l2.429 5.403a36.55 36.55 0 0 1-1.889 2.971h.539c.54-.81.945-1.621 1.485-2.431.404.81.674 1.621 1.079 2.431h.54c-.405-.945-.81-2.026-1.215-2.971l4.049-6.889 2.833 5.538c-.809 1.486-1.619 2.836-2.564 4.322h.54l2.294-3.917 1.889 3.917h1.215s.27-2.566.539-6.889c-.269-.54-.539-1.215-.944-1.755.405-.676.675-1.351 1.079-2.162v-1.08c-.404.945-.944 1.756-1.349 2.701l-2.834-5.538c.945-1.756 1.889-3.647 2.699-5.403.54 1.486 1.215 2.837 1.754 4.323v-1.081c-.539-1.216-.944-2.566-1.484-3.782.54-1.216 1.214-2.431 1.754-3.647v-1.081l-2.024 4.323-2.429-5.403 2.564-5.403c.675 1.486 1.349 3.242 1.889 4.863zm-3.103-30.257c.809 1.891 1.754 3.782 2.698 5.808l-2.159 6.348-2.833-5.673c.674-2.161 1.484-4.322 2.294-6.484zm-19.971 7.564l3.238-6.619 2.834 5.673c-1.08 2.296-2.159 4.457-3.373 6.619-.945-1.756-1.89-3.647-2.699-5.673zm.135 10.671c-1.08 1.891-2.024 3.782-3.104 5.673-.944-1.891-1.889-3.782-2.699-5.808 1.08-1.756 2.024-3.647 3.104-5.538.81 1.891 1.754 3.782 2.699 5.673zm6.207-12.157l-2.834-5.673c.945-1.891 1.754-3.782 2.699-5.808l2.834 5.538c-.81 2.161-1.755 4.052-2.699 5.943zm2.968-5.268l.81 1.621c.54 1.081 1.08 2.161 1.754 3.242l-2.833 5.943c-.81-1.621-1.755-3.242-2.564-4.863 1.079-2.026 2.024-4.052 2.833-5.943zm-2.968 6.349c.809 1.621 1.754 3.242 2.564 4.998-1.08 2.296-2.159 4.457-3.374 6.753l-2.564-4.997c1.08-2.297 2.294-4.458 3.374-6.754zm2.834 5.403c.134.27.269.54.404.945l2.429 4.593-3.238 6.754-2.969-5.538 3.374-6.754zm.809.675c-.27-.405-.405-.811-.675-1.216l2.834-5.943 2.834 5.403c-.945 2.026-1.754 4.053-2.699 6.079-.81-1.351-1.484-2.837-2.294-4.323zm4.183-12.967c-.809-1.621-1.619-3.107-2.564-4.728.945-2.161 1.89-4.457 2.699-6.619.81 1.486 1.619 3.107 2.429 4.728-.675 2.161-1.619 4.457-2.564 6.619zm-2.699-5.268c-.944-1.891-1.889-3.782-2.968-5.673.944-2.296 1.889-4.457 2.699-6.754.944 1.756 1.754 3.512 2.698 5.268.135.135.135.27.27.54-.809 2.161-1.754 4.457-2.699 6.619zm-3.238-6.213c-.81-1.621-1.619-3.377-2.429-5.133.945-2.161 1.889-4.322 2.699-6.484.809 1.756 1.619 3.377 2.429 4.998-.81 2.161-1.754 4.322-2.699 6.619zm-2.294 5.403a111.74 111.74 0 0 1-2.699 5.808c-.809-1.756-1.754-3.512-2.564-5.403l2.699-5.538c.81 1.756 1.754 3.512 2.564 5.133zm-2.969 6.349l-3.238 6.619c-.81-1.891-1.754-3.782-2.564-5.673l3.239-6.213c.944 1.756 1.754 3.512 2.563 5.268zm-5.937.27c-.81-1.891-1.484-3.782-2.294-5.673 1.08-2.026 2.159-3.917 3.104-5.943l2.429 5.268c-1.08 2.296-2.159 4.322-3.239 6.348zm-2.564-6.213l-2.024-5.673 2.834-5.538c.675 1.891 1.484 3.647 2.159 5.403-.81 1.891-1.889 3.917-2.969 5.808zm2.564 17.56c-1.079 1.891-2.024 3.782-3.103 5.538-.945-1.891-1.755-3.917-2.699-5.943 1.079-1.756 2.024-3.512 3.103-5.403l2.699 5.808zm-.405 12.291c-1.214 2.162-2.429 4.188-3.643 6.214-.945-2.026-1.754-4.188-2.564-6.214 1.08-1.891 2.294-3.782 3.374-5.673 1.079 1.756 2.024 3.782 2.833 5.673zm.27.406c.81 1.756 1.754 3.376 2.564 5.132-1.214 2.162-2.429 4.458-3.778 6.484l-2.429-5.403c1.214-1.891 2.429-4.052 3.643-6.213zm.27-.406c1.08-1.891 2.159-3.782 3.104-5.673l2.563 4.998c-1.079 2.026-2.159 3.917-3.238 5.808-.675-1.756-1.484-3.377-2.429-5.133zm6.072-.27c.945 1.891 2.024 3.647 2.969 5.538l-3.239 5.943c-.404-.675-.674-1.35-1.079-2.026-.675-1.215-1.215-2.431-1.889-3.647l3.238-5.808zm3.239 6.079l2.833 5.267s0 .135.135.135c-1.079 2.027-2.294 4.053-3.508 6.079l-2.834-5.538 3.374-5.943zm2.429-4.863c1.079-2.161 2.159-4.458 3.238-6.754l2.969 5.808c-.945 2.162-2.024 4.323-3.239 6.484-.944-1.891-1.889-3.782-2.968-5.538zm6.477-.54l2.833 5.943c-.944 2.026-2.024 4.052-2.968 6.078-.675-1.216-1.35-2.296-1.889-3.512-.405-.675-.675-1.351-1.08-2.026 1.08-2.161 2.159-4.322 3.104-6.483zm0-1.081c-.945-1.891-1.889-3.782-2.969-5.673.945-2.026 1.889-4.052 2.699-6.078l2.833 5.808c-.674 2.026-1.619 3.917-2.563 5.943zm4.318-24.448l-2.429 6.619-2.699-5.133c.945-2.161 1.754-4.457 2.699-6.619.674 1.621 1.484 3.377 2.429 5.133zm-.54-12.157l-2.024 5.808-2.429-4.728c.81-2.026 1.484-4.052 2.159-6.078.81 1.756 1.484 3.377 2.294 4.998zm-2.564-5.403c-.675 2.026-1.484 4.052-2.159 6.078 0 0 0-.135-.135-.135-.944-1.891-1.889-3.782-2.968-5.673.809-2.161 1.484-4.187 2.159-6.348 1.079 1.891 2.159 3.917 3.103 6.078zm-3.238-6.754c-.675 2.161-1.35 4.322-2.159 6.348l-2.429-4.998c.809-2.026 1.484-4.052 2.159-5.943.809 1.621 1.619 3.107 2.429 4.593zm-5.128-10.13c.675 1.351 1.619 3.782 2.429 5.133-.675 2.026-1.35 4.052-2.159 5.943-.81-1.756-1.619-3.512-2.294-5.403l2.024-5.673zm0 11.616c-.81 2.161-1.754 4.322-2.699 6.483-.809-1.756-1.619-3.647-2.294-5.538.945-2.161 1.754-4.322 2.564-6.483.81 2.026 1.619 3.782 2.429 5.538zm-5.802-8.78l1.079-2.566c.675 1.891 1.35 3.647 2.159 5.403-.809 2.161-1.619 4.322-2.564 6.483l-2.159-5.673c.54-1.351.945-2.431 1.485-3.647zm-1.755 15.533a99.86 99.86 0 0 0 2.429 5.268c-.809 1.891-1.754 3.647-2.698 5.538l-2.429-5.403c.944-1.756 1.889-3.512 2.698-5.403zm-.134-.54c-.81 1.891-1.755 3.647-2.699 5.538-.81-1.756-1.485-3.512-2.159-5.403.944-1.891 1.754-3.782 2.698-5.538.675 1.891 1.35 3.647 2.16 5.403zm-4.318-11.346c.674 1.891 1.214 3.647 1.889 5.403-.81 1.891-1.755 3.782-2.699 5.673l-2.024-5.268c.944-2.026 1.889-3.917 2.834-5.808zm-5.668 11.346l2.699-5.133 2.024 5.268-2.834 5.538c-.809-1.891-1.349-3.782-1.889-5.673zm-1.754 22.827c1.079-1.756 2.024-3.512 3.103-5.268l2.294 5.538c-1.079 1.756-2.024 3.647-3.103 5.403-.81-1.756-1.619-3.647-2.294-5.673zm-.81 11.751c1.08-1.62 2.024-3.376 3.104-4.997.809 2.026 1.754 4.052 2.699 5.943a210.42 210.42 0 0 1-3.374 5.673c-.944-2.161-1.754-4.457-2.429-6.619zm-1.079 24.314c1.214-1.756 2.294-3.782 3.508-5.673.81 1.756 1.619 3.647 2.564 5.403-1.214 1.891-2.294 3.782-3.508 5.538-.81-1.756-1.62-3.377-2.564-5.268zm5.802 11.076c-1.079-1.756-2.024-3.512-2.969-5.268 1.08-1.756 2.294-3.647 3.374-5.538l2.834 5.538-3.239 5.268zm3.239-15.669c1.214-2.161 2.428-4.322 3.778-6.483.54 1.08 1.079 2.296 1.754 3.376.405.811.81 1.486 1.215 2.297l-3.779 6.618c-1.079-1.891-2.024-3.782-2.968-5.808zm3.103 6.214c1.215-2.027 2.564-4.323 3.778-6.619l2.834 5.538c-1.214 2.026-2.429 4.187-3.778 6.213-.945-1.621-1.889-3.376-2.834-5.132zm6.072 10.941c-1.079-1.756-2.024-3.512-3.103-5.268 1.349-2.026 2.564-4.188 3.778-6.214l2.834 5.808c-1.08 1.891-2.294 3.782-3.509 5.674zm1.08-11.887c1.214-2.026 2.429-4.052 3.508-6.078 1.08 1.891 2.024 3.647 2.969 5.538l-3.778 6.483c-.81-2.161-1.755-4.052-2.699-5.943zm5.397 11.616c-.809-1.891-1.619-3.647-2.428-5.403 1.349-2.161 2.563-4.322 3.778-6.483.944 1.621 1.754 3.242 2.699 4.998l-4.049 6.888zm9.311-17.154c-.944 1.756-1.754 3.647-2.699 5.538-.809-1.621-1.754-3.242-2.698-4.863 1.079-2.026 2.024-3.917 2.968-5.943.81 1.621 1.62 3.377 2.429 5.268zm-2.429-6.483l-2.833-5.944 2.698-5.943c.945 2.026 1.889 4.187 2.699 6.349-.81 1.891-1.619 3.782-2.564 5.538z" fill="#085189"/><path d="M179.77 143.858s2.699-29.851 0-60.242c-2.698-29.581-13.089-51.598-17.407-51.598v111.841h17.407z" fill="#7c93a5"/><path d="M77.351 143.856V81.722h.81v-4.458l2.834-5.673-.135-4.593 3.104-9.185 2.834 8.915.135.675v4.187l2.699 5.673v4.458h1.619v12.021h-.81v50.113H77.351z" fill="#9e7442"/><g fill="#edbd7b"><path d="M90.575 143.858H77.351v-9.725h13.224v9.725zm-8.906-.27v-1.621h-1.079v1.621h1.079zm0-.135h-.945v-1.486h.945v1.486zm1.349.135v-1.621h-1.079v1.621h1.079zm0-.135h-.945v-1.486h.945v1.486zm1.484.135v-1.621h-1.08v1.621h1.08zm-.135-.135h-.945v-1.486h.945v1.486zm1.484.135v-1.621h-1.079v1.621h1.079zm-.135-.135h-.945v-1.486h.945v1.486zm1.484.135v-1.621h-1.079v1.621h1.079zm-.135-.135h-.945v-1.486h.945v1.486zm1.079-9.455h-.135v9.455h.135v-9.455zm-8.501 9.455h.135v-9.455h-.135v9.455zm3.374-1.891v-7.024c0-.27-.27-.54-.54-.54s-.54.27-.54.54v7.024h1.079zm0 0h-.945v-6.889c0-.27.27-.405.405-.405.27 0 .405.27.405.405v6.889h.135zm1.484 0v-7.024c0-.27-.27-.54-.54-.54s-.54.27-.54.54v7.024h1.08zm-.135 0h-.945v-6.889c0-.27.27-.405.405-.405.27 0 .405.27.405.405v6.889h.135zm-1.619-6.079c0-.135-.135-.27-.27-.27s-.27.135-.27.27v2.837h.405v-2.837h.135zm0 3.242c0-.135-.135-.27-.27-.27s-.27.135-.27.27v2.837h.405v-2.837h.135zm-1.079 2.837v-7.024c0-.27-.27-.54-.54-.54s-.54.27-.54.54v7.024h1.079zm0 0h-.945v-6.889c0-.27.27-.405.405-.405.27 0 .405.27.405.405v6.889h.135zm-.27-6.079c0-.135-.135-.27-.27-.27s-.27.135-.27.27v2.837h.405v-2.837h.135zm0 3.242c0-.135-.135-.27-.27-.27s-.27.135-.27.27v2.837h.405v-2.837h.135zm4.453 2.837v-7.024c0-.27-.27-.54-.54-.54s-.54.27-.54.54v7.024h1.079zm-1.079-6.889c0-.27.27-.405.405-.405.27 0 .405.27.405.405v6.889h-.945v-6.889h.135zm.27 3.647h.405v-2.837c0-.135-.135-.27-.27-.27s-.27.135-.27.27v2.837h.135zm0 3.242h.405v-2.837c0-.135-.135-.27-.27-.27s-.27.135-.27.27v2.837h.135zm2.159 0v-7.024c0-.27-.27-.54-.54-.54s-.54.27-.54.54v7.024h1.079zm-1.079-6.889c0-.27.27-.405.405-.405.27 0 .405.27.405.405v6.889h-.945v-6.889h.135zm.27 3.647h.405v-2.837c0-.135-.135-.27-.27-.27s-.27.135-.27.27v2.837h.135zm0 3.242h.405v-2.837c0-.135-.135-.27-.27-.27s-.27.135-.27.27v2.837h.135zm2.024 0h.27v-1.621c0-.135 0-.135-.135-.135s-.135 0-.135.135v1.621zm0 1.891h.27v-1.081c0-.135 0-.135-.135-.135s-.135 0-.135.135v1.081zm.81 0h.27v-1.081c0-.135 0-.135-.135-.135s-.135 0-.135.135v1.081zm.54 0h.27v-1.081c0-.135 0-.135-.135-.135s-.135 0-.135.135v1.081zm-10.39-1.081s0-.135 0 0c-.135-.135-.27-.135-.27 0v1.081h.27v-1.081zm-.81 0s0-.135 0 0c-.135-.135-.27-.135-.27 0v1.081h.27v-1.081zm-.405 0s-.135-.135 0 0c-.135-.135-.27-.135-.27 0v1.081h.27v-1.081zm11.065-.81h.27v-1.621c0-.135 0-.135-.135-.135s-.135 0-.135.135v1.621zm.54 0h.27v-1.621c0-.135 0-.135-.135-.135s-.135 0-.135.135v1.621zm-1.349-2.026h.27v-1.621c0-.135 0-.135-.135-.135s-.135 0-.135.135v1.621zm.81 0h.27v-1.621c0-.135 0-.135-.135-.135s-.135 0-.135.135v1.621zm.54 0h.27v-1.621c0-.135 0-.135-.135-.135s-.135 0-.135.135v1.621zm-1.349-2.027h.27v-1.62c0-.135 0-.135-.135-.135s-.135 0-.135.135v1.62zm.81 0h.27v-1.62c0-.135 0-.135-.135-.135s-.135 0-.135.135v1.62zm.54 0h.27v-1.62c0-.135 0-.135-.135-.135s-.135 0-.135.135v1.62zm-10.39 2.432c0-.135 0-.135 0 0-.135-.135-.27-.135-.27 0v1.621h.27v-1.621zm-.81 0c0-.135 0-.135 0 0-.135-.135-.27-.135-.27 0v1.621h.27v-1.621zm-.405 0c0-.135-.135-.135 0 0-.135-.135-.27-.135-.27 0v1.621h.27v-1.621zm1.215-2.026c0-.135 0-.135 0 0-.135-.135-.27-.135-.27 0v1.621h.27v-1.621zm-.81 0c0-.135 0-.135 0 0-.135-.135-.27-.135-.27 0v1.621h.27v-1.621zm-.405 0c0-.135-.135-.135 0 0-.135-.135-.27-.135-.27 0v1.621h.27v-1.621zm1.215-2.026c0-.135 0-.135 0 0-.135-.135-.27-.135-.27 0v1.62h.27v-1.62zm-.81 0c0-.135 0-.135 0 0-.135-.135-.27-.135-.27 0v1.62h.27v-1.62zm-.405 0c0-.135-.135-.135 0 0-.135-.135-.27-.135-.27 0v1.62h.27v-1.62zm8.906 6.483l-.405-.405-.405.405.405.405.405-.405zm0 .675l-.405-.405-.405.405.405.406.405-.406zm-1.349-.675l-.405-.405-.405.405.405.405.405-.405zm0 .675l-.405-.405-.405.405.405.406.405-.406zm-1.349-.675l-.405-.405-.405.405.405.405.405-.405zm0 .675l-.405-.405-.405.405.405.406.405-.406zm-1.349-.675l-.405-.405-.405.405.405.405.405-.405zm0 .675l-.405-.405-.405.405.405.406.405-.406zm-1.349-.675l-.405-.405-.405.405.405.405.405-.405zm0 .675l-.405-.405-.405.405.405.406.405-.406z"/><path d="M90.575 133.725H77.351V124h13.224v9.725zm-8.906-.27v-1.621h-1.079v1.621h1.079zm0 0h-.945v-1.621h.945v1.621zm1.349 0v-1.621h-1.079v1.621h1.079zm0 0h-.945v-1.621h.945v1.621zm1.484 0v-1.621h-1.08v1.621h1.08zm-.135 0h-.945v-1.621h.945v1.621zm1.484 0v-1.621h-1.079v1.621h1.079zm-.135 0h-.945v-1.621h.945v1.621zm1.484 0v-1.621h-1.079v1.621h1.079zm-.135 0h-.945v-1.621h.945v1.621zM88.146 124h-.135v9.455h.135V124zm-8.501 9.455h.135V124h-.135v9.455zm3.374-1.891v-7.024c0-.27-.27-.54-.54-.54s-.54.27-.54.54v7.024h1.079zm0 0h-.945v-6.889c0-.27.27-.405.405-.405.27 0 .405.27.405.405v6.889h.135zm1.484 0v-7.024c0-.27-.27-.54-.54-.54s-.54.27-.54.54v7.024h1.08zm-.135 0h-.945v-6.889c0-.27.27-.405.405-.405.27 0 .405.27.405.405v6.889h.135zm-1.619-6.078c0-.135-.135-.27-.27-.27s-.27.135-.27.27v2.836h.405v-2.836h.135zm0 3.242c0-.135-.135-.27-.27-.27s-.27.135-.27.27v2.836h.405v-2.836h.135zm-1.079 2.836v-7.024c0-.27-.27-.54-.54-.54s-.54.27-.54.54v7.024h1.079zm0 0h-.945v-6.889c0-.27.27-.405.405-.405.27 0 .405.27.405.405v6.889h.135zm-.27-6.078c0-.135-.135-.27-.27-.27s-.27.135-.27.27v2.836h.405v-2.836h.135zm0 3.242c0-.135-.135-.27-.27-.27s-.27.135-.27.27v2.836h.405v-2.836h.135zm4.453 2.836v-7.024c0-.27-.27-.54-.54-.54s-.54.27-.54.54v7.024h1.079zm-1.079-6.889c0-.27.27-.405.405-.405.27 0 .405.27.405.405v6.889h-.945v-6.889h.135zm.27 3.647h.405v-2.836c0-.135-.135-.27-.27-.27s-.27.135-.27.27v2.836h.135zm0 3.242h.405v-2.836c0-.135-.135-.27-.27-.27s-.27.135-.27.27v2.836h.135zm2.159 0v-7.024c0-.27-.27-.54-.54-.54s-.54.27-.54.54v7.024h1.079zm-1.079-6.889c0-.27.27-.405.405-.405.27 0 .405.27.405.405v6.889h-.945v-6.889h.135zm.27 3.647h.405v-2.836c0-.135-.135-.27-.27-.27s-.27.135-.27.27v2.836h.135zm0 3.242h.405v-2.836c0-.135-.135-.27-.27-.27s-.27.135-.27.27v2.836h.135zm2.024 0h.27v-1.621c0-.135 0-.135-.135-.135s-.135 0-.135.135v1.621zm0 1.891h.27v-1.08c0-.135 0-.135-.135-.135s-.135 0-.135.135v1.08zm.81 0h.27v-1.08c0-.135 0-.135-.135-.135s-.135 0-.135.135v1.08zm.54 0h.27v-1.08c0-.135 0-.135-.135-.135s-.135 0-.135.135v1.08zm-10.39-1.08c0-.135 0-.135 0 0-.135-.135-.27-.135-.27 0v1.08h.27v-1.08zm-.81 0c0-.135 0-.135 0 0-.135-.135-.27-.135-.27 0v1.08h.27v-1.08zm-.405 0c0-.135-.135-.135 0 0-.135-.135-.27-.135-.27 0v1.08h.27v-1.08zm11.065-.811h.27v-1.621c0-.135 0-.135-.135-.135s-.135 0-.135.135v1.621zm.54 0h.27v-1.621c0-.135 0-.135-.135-.135s-.135 0-.135.135v1.621zm-1.349-2.026h.27v-1.756c0-.135 0-.135-.135-.135s-.135 0-.135.135v1.756zm.81 0h.27v-1.756c0-.135 0-.135-.135-.135s-.135 0-.135.135v1.756zm.54 0h.27v-1.756c0-.135 0-.135-.135-.135s-.135 0-.135.135v1.756zm-1.349-2.026h.27v-1.621c0-.135 0-.135-.135-.135s-.135 0-.135.135v1.621zm.81 0h.27v-1.621c0-.135 0-.135-.135-.135s-.135 0-.135.135v1.621zm.54 0h.27v-1.621c0-.135 0-.135-.135-.135s-.135 0-.135.135v1.621zm-10.39 2.296s0-.135 0 0c-.135-.135-.27-.135-.27 0v1.621h.27v-1.621zm-.81 0s0-.135 0 0c-.135-.135-.27-.135-.27 0v1.621h.27v-1.621zm-.405 0s-.135-.135 0 0c-.135-.135-.27-.135-.27 0v1.621h.27v-1.621zm1.215-2.026s0-.135 0 0c-.135-.135-.27-.135-.27 0v1.621h.27v-1.621zm-.81 0s0-.135 0 0c-.135-.135-.27-.135-.27 0v1.621h.27v-1.621zm-.405 0s-.135-.135 0 0c-.135-.135-.27-.135-.27 0v1.621h.27v-1.621zm1.215-2.026s0-.135 0 0c-.135-.135-.27-.135-.27 0v1.621h.27v-1.621zm-.81 0s0-.135 0 0c-.135-.135-.27-.135-.27 0v1.621h.27v-1.621zm-.405 0s-.135-.135 0 0c-.135-.135-.27-.135-.27 0v1.621h.27v-1.621zm8.906 6.484l-.405-.406-.405.406.405.405.405-.405zm0 .81l-.405-.405-.405.405.405.405.405-.405zm-1.349-.81l-.405-.406-.405.406.405.405.405-.405zm0 .81l-.405-.405-.405.405.405.405.405-.405zm-1.349-.81l-.405-.406-.405.406.405.405.405-.405zm0 .81l-.405-.405-.405.405.405.405.405-.405zm-1.349-.81l-.405-.406-.405.406.405.405.405-.405zm0 .81l-.405-.405-.405.405.405.405.405-.405zm-1.349-.81l-.405-.406-.405.406.405.405.405-.405zm0 .81l-.405-.405-.405.405.405.405.405-.405z"/><path d="M90.575 123.728H77.351v-9.725h13.224v9.725zm-8.906-.27v-1.621h-1.079v1.621h1.079zm0-.135h-.945v-1.486h.945v1.486zm1.349.135v-1.621h-1.079v1.621h1.079zm0-.135h-.945v-1.486h.945v1.486zm1.484.135v-1.621h-1.08v1.621h1.08zm-.135-.135h-.945v-1.486h.945v1.486zm1.484.135v-1.621h-1.079v1.621h1.079zm-.135-.135h-.945v-1.486h.945v1.486zm1.484.135v-1.621h-1.079v1.621h1.079zm-.135-.135h-.945v-1.486h.945v1.486zm1.079-9.455h-.135v9.455h.135v-9.455zm-8.501 9.455h.135v-9.455h-.135v9.455zm3.374-1.756v-7.024c0-.27-.27-.54-.54-.54s-.54.27-.54.54v7.024h1.079zm0-.135h-.945v-6.889c0-.27.27-.405.405-.405.27 0 .405.27.405.405v6.889h.135zm1.484.135v-7.024c0-.27-.27-.54-.54-.54s-.54.27-.54.54v7.024h1.08zm-.135-.135h-.945v-6.889c0-.27.27-.405.405-.405.27 0 .405.27.405.405v6.889h.135zm-1.619-6.079c0-.135-.135-.27-.27-.27s-.27.135-.27.27v2.837h.405v-2.837h.135zm0 3.242c0-.135-.135-.27-.27-.27s-.27.135-.27.27v2.837h.405v-2.837h.135zm-1.079 2.972v-7.024c0-.27-.27-.54-.54-.54s-.54.27-.54.54v7.024h1.079zm0-.135h-.945v-6.889c0-.27.27-.405.405-.405.27 0 .405.27.405.405v6.889h.135zm-.27-6.079c0-.135-.135-.27-.27-.27s-.27.135-.27.27v2.837h.405v-2.837h.135zm0 3.242c0-.135-.135-.27-.27-.27s-.27.135-.27.27v2.837h.405v-2.837h.135zm4.453 2.972v-7.024c0-.27-.27-.54-.54-.54s-.54.27-.54.54v7.024h1.079zm-1.079-7.024c0-.27.27-.405.405-.405.27 0 .405.27.405.405v6.889h-.945v-6.889h.135zm.27 3.647h.405v-2.837c0-.135-.135-.27-.27-.27s-.27.135-.27.27v2.837h.135zm0 3.242h.405v-2.837c0-.135-.135-.27-.27-.27s-.27.135-.27.27v2.837h.135zm2.159.135v-7.024c0-.27-.27-.54-.54-.54s-.54.27-.54.54v7.024h1.079zm-1.079-7.024c0-.27.27-.405.405-.405.27 0 .405.27.405.405v6.889h-.945v-6.889h.135zm.27 3.647h.405v-2.837c0-.135-.135-.27-.27-.27s-.27.135-.27.27v2.837h.135zm0 3.242h.405v-2.837c0-.135-.135-.27-.27-.27s-.27.135-.27.27v2.837h.135zm2.024 0h.27v-1.621c0-.135 0-.135-.135-.135s-.135 0-.135.135v1.621zm0 1.891h.27v-1.081c0-.135 0-.135-.135-.135s-.135 0-.135.135v1.081zm.81 0h.27v-1.081c0-.135 0-.135-.135-.135s-.135 0-.135.135v1.081zm.54 0h.27v-1.081c0-.135 0-.135-.135-.135s-.135 0-.135.135v1.081zm-10.39-1.081s0-.135 0 0c-.135-.135-.27-.135-.27 0v1.081h.27v-1.081zm-.81 0s0-.135 0 0c-.135-.135-.27-.135-.27 0v1.081h.27v-1.081zm-.405 0s-.135-.135 0 0c-.135-.135-.27-.135-.27 0v1.081h.27v-1.081zm11.065-.81h.27v-1.621c0-.135 0-.135-.135-.135s-.135 0-.135.135v1.621zm.54 0h.27v-1.621c0-.135 0-.135-.135-.135s-.135 0-.135.135v1.621zm-1.349-2.026h.27v-1.621c0-.135 0-.135-.135-.135s-.135 0-.135.135v1.621zm.81 0h.27v-1.621c0-.135 0-.135-.135-.135s-.135 0-.135.135v1.621zm.54 0h.27v-1.621c0-.135 0-.135-.135-.135s-.135 0-.135.135v1.621zm-1.349-2.026h.27v-1.621c0-.135 0-.135-.135-.135s-.135 0-.135.135v1.621zm.81 0h.27v-1.621c0-.135 0-.135-.135-.135s-.135 0-.135.135v1.621zm.54 0h.27v-1.621c0-.135 0-.135-.135-.135s-.135 0-.135.135v1.621zm-10.39 2.431c0-.135 0-.135 0 0-.135-.135-.27-.135-.27 0v1.621h.27v-1.621zm-.81 0c0-.135 0-.135 0 0-.135-.135-.27-.135-.27 0v1.621h.27v-1.621zm-.405 0c0-.135-.135-.135 0 0-.135-.135-.27-.135-.27 0v1.621h.27v-1.621zm1.215-2.026c0-.135 0-.135 0 0-.135-.135-.27-.135-.27 0v1.621h.27v-1.621zm-.81 0c0-.135 0-.135 0 0-.135-.135-.27-.135-.27 0v1.621h.27v-1.621zm-.405 0c0-.135-.135-.135 0 0-.135-.135-.27-.135-.27 0v1.621h.27v-1.621zm1.215-2.026c0-.135 0-.135 0 0-.135-.135-.27-.135-.27 0v1.621h.27v-1.621zm-.81 0c0-.135 0-.135 0 0-.135-.135-.27-.135-.27 0v1.621h.27v-1.621zm-.405 0c0-.135-.135-.135 0 0-.135-.135-.27-.135-.27 0v1.621h.27v-1.621zm8.906 6.483l-.405-.405-.405.405.405.405.405-.405zm0 .676l-.405-.406-.405.406.405.405.405-.405zm-1.349-.676l-.405-.405-.405.405.405.405.405-.405zm0 .676l-.405-.406-.405.406.405.405.405-.405zm-1.349-.676l-.405-.405-.405.405.405.405.405-.405zm0 .676l-.405-.406-.405.406.405.405.405-.405zm-1.349-.676l-.405-.405-.405.405.405.405.405-.405zm0 .676l-.405-.406-.405.406.405.405.405-.405zm-1.349-.676l-.405-.405-.405.405.405.405.405-.405zm0 .676l-.405-.406-.405.406.405.405.405-.405z"/><path d="M90.575 113.599H77.351v-9.726h13.224v9.726zm-8.906-.271v-1.62h-1.079v1.62h1.079zm0 0h-.945v-1.485h.945v1.485zm1.349 0v-1.62h-1.079v1.62h1.079zm0 0h-.945v-1.485h.945v1.485zm1.484 0v-1.62h-1.08v1.62h1.08zm-.135 0h-.945v-1.485h.945v1.485zm1.484 0v-1.62h-1.079v1.62h1.079zm-.135 0h-.945v-1.485h.945v1.485zm1.484 0v-1.62h-1.079v1.62h1.079zm-.135 0h-.945v-1.485h.945v1.485zm1.079-9.455h-.135v9.455h.135v-9.455zm-8.501 9.455h.135v-9.455h-.135v9.455zm3.374-1.891v-7.023c0-.271-.27-.541-.54-.541s-.54.27-.54.541v7.023h1.079zm0 0h-.945v-6.888c0-.27.27-.406.405-.406.27 0 .405.271.405.406v6.888h.135zm1.484 0v-7.023c0-.271-.27-.541-.54-.541s-.54.27-.54.541v7.023h1.08zm-.135 0h-.945v-6.888c0-.27.27-.406.405-.406.27 0 .405.271.405.406v6.888h.135zm-1.619-6.078c0-.135-.135-.27-.27-.27s-.27.135-.27.27v2.837h.405v-2.837h.135zm0 3.242c0-.135-.135-.27-.27-.27s-.27.135-.27.27v2.836h.405v-2.836h.135zm-1.079 2.836v-7.023c0-.271-.27-.541-.54-.541s-.54.27-.54.541v7.023h1.079zm0 0h-.945v-6.888c0-.27.27-.406.405-.406.27 0 .405.271.405.406v6.888h.135zm-.27-6.078c0-.135-.135-.27-.27-.27s-.27.135-.27.27v2.837h.405v-2.837h.135zm0 3.242c0-.135-.135-.27-.27-.27s-.27.135-.27.27v2.836h.405v-2.836h.135zm4.453 2.836v-7.023c0-.271-.27-.541-.54-.541s-.54.27-.54.541v7.023h1.079zm-1.079-6.888c0-.27.27-.406.405-.406.27 0 .405.271.405.406v6.888h-.945v-6.888h.135zm.27 3.647h.405v-2.837c0-.135-.135-.27-.27-.27s-.27.135-.27.27v2.837h.135zm0 3.241h.405v-2.836c0-.135-.135-.27-.27-.27s-.27.135-.27.27v2.836h.135zm2.159 0v-7.023c0-.271-.27-.541-.54-.541s-.54.27-.54.541v7.023h1.079zm-1.079-6.888c0-.27.27-.406.405-.406.27 0 .405.271.405.406v6.888h-.945v-6.888h.135zm.27 3.647h.405v-2.837c0-.135-.135-.27-.27-.27s-.27.135-.27.27v2.837h.135zm0 3.241h.405v-2.836c0-.135-.135-.27-.27-.27s-.27.135-.27.27v2.836h.135zm2.024 0h.27v-1.62c0-.136 0-.136-.135-.136s-.135 0-.135.136v1.62zm0 1.891h.27v-1.08c0-.135 0-.135-.135-.135s-.135 0-.135.135v1.08zm.81 0h.27v-1.08c0-.135 0-.135-.135-.135s-.135 0-.135.135v1.08zm.54 0h.27v-1.08c0-.135 0-.135-.135-.135s-.135 0-.135.135v1.08zm-10.39-1.08c0-.135 0-.135 0 0-.135-.135-.27-.135-.27 0v1.08h.27v-1.08zm-.81 0c0-.135 0-.135 0 0-.135-.135-.27-.135-.27 0v1.08h.27v-1.08zm-.405 0c0-.135-.135-.135 0 0-.135-.135-.27-.135-.27 0v1.08h.27v-1.08zm11.065-.811h.27v-1.62c0-.136 0-.136-.135-.136s-.135 0-.135.136v1.62zm.54 0h.27v-1.62c0-.136 0-.136-.135-.136s-.135 0-.135.136v1.62zm-1.349-2.026h.27v-1.621c0-.135 0-.135-.135-.135s-.135 0-.135.135v1.621zm.81 0h.27v-1.621c0-.135 0-.135-.135-.135s-.135 0-.135.135v1.621zm.54 0h.27v-1.621c0-.135 0-.135-.135-.135s-.135 0-.135.135v1.621zm-1.349-2.026h.27v-1.621c0-.135 0-.135-.135-.135s-.135 0-.135.135v1.621zm.81 0h.27v-1.621c0-.135 0-.135-.135-.135s-.135 0-.135.135v1.621zm.54 0h.27v-1.621c0-.135 0-.135-.135-.135s-.135 0-.135.135v1.621zm-10.39 2.296s0-.135 0 0c-.135-.135-.27-.135-.27 0v1.621h.27v-1.621zm-.81 0s0-.135 0 0c-.135-.135-.27-.135-.27 0v1.621h.27v-1.621zm-.405 0s-.135-.135 0 0c-.135-.135-.27-.135-.27 0v1.621h.27v-1.621zm1.215-2.026s0-.135 0 0c-.135-.135-.27-.135-.27 0v1.621h.27v-1.621zm-.81 0s0-.135 0 0c-.135-.135-.27-.135-.27 0v1.621h.27v-1.621zm-.405 0s-.135-.135 0 0c-.135-.135-.27-.135-.27 0v1.621h.27v-1.621zm1.215-2.026s0-.135 0 0c-.135-.135-.27-.135-.27 0v1.621h.27v-1.621zm-.81 0s0-.135 0 0c-.135-.135-.27-.135-.27 0v1.621h.27v-1.621zm-.405 0s-.135-.135 0 0c-.135-.135-.27-.135-.27 0v1.621h.27v-1.621zm8.906 6.484l-.405-.405-.405.405.405.405.405-.405zm0 .81l-.405-.405-.405.405.405.405.405-.405zm-1.349-.81l-.405-.405-.405.405.405.405.405-.405zm0 .81l-.405-.405-.405.405.405.405.405-.405zm-1.349-.81l-.405-.405-.405.405.405.405.405-.405zm0 .81l-.405-.405-.405.405.405.405.405-.405zm-1.349-.81l-.405-.405-.405.405.405.405.405-.405zm0 .81l-.405-.405-.405.405.405.405.405-.405zm-1.349-.81l-.405-.405-.405.405.405.405.405-.405zm0 .81l-.405-.405-.405.405.405.405.405-.405z"/><path d="M90.575 103.602H77.351v-9.725h13.224v9.725zm-8.906-.27v-1.621H80.59v1.621h1.079zm0-.135h-.945v-1.486h.945v1.486zm1.349.135v-1.621h-1.079v1.621h1.079zm0-.135h-.945v-1.486h.945v1.486zm1.484.135v-1.621h-1.08v1.621h1.08zm-.135-.135h-.945v-1.486h.945v1.486zm1.484.135v-1.621h-1.079v1.621h1.079zm-.135-.135h-.945v-1.486h.945v1.486zm1.484.135v-1.621h-1.079v1.621H87.2zm-.135-.135h-.945v-1.486h.945v1.486zm1.079-9.455h-.135v9.455h.135v-9.455zm-8.501 9.455h.135v-9.455h-.135v9.455zm3.374-1.756v-7.024c0-.27-.27-.54-.54-.54s-.54.27-.54.54v7.024h1.079zm0-.135h-.945v-6.889c0-.27.27-.405.405-.405.27 0 .405.27.405.405v6.889h.135zm1.484.135v-7.024c0-.27-.27-.54-.54-.54s-.54.27-.54.54v7.024h1.08zm-.135-.135h-.945v-6.889c0-.27.27-.405.405-.405.27 0 .405.27.405.405v6.889h.135zm-1.619-6.078c0-.135-.135-.27-.27-.27s-.27.135-.27.27v2.837h.405v-2.837h.135zm0 3.242c0-.135-.135-.27-.27-.27s-.27.135-.27.27v2.837h.405V98.47h.135zm-1.079 2.972v-7.024c0-.27-.27-.54-.54-.54s-.54.27-.54.54v7.024h1.079zm0-.135h-.945v-6.889c0-.27.27-.405.405-.405.27 0 .405.27.405.405v6.889h.135zm-.27-6.078c0-.135-.135-.27-.27-.27s-.27.135-.27.27v2.837h.405v-2.837h.135zm0 3.242c0-.135-.135-.27-.27-.27s-.27.135-.27.27v2.837h.405v-2.837h.135zm4.453 2.972v-7.024c0-.27-.27-.54-.54-.54s-.54.27-.54.54v7.024h1.079zm-1.079-7.024c0-.27.27-.405.405-.405.27 0 .405.27.405.405v6.889h-.945v-6.889h.135zm.27 3.647h.405v-2.837c0-.135-.135-.27-.27-.27s-.27.135-.27.27v2.837h.135zm0 3.242h.405v-2.837c0-.135-.135-.27-.27-.27s-.27.135-.27.27v2.837h.135zm2.159.135v-7.024c0-.27-.27-.54-.54-.54s-.54.27-.54.54v7.024H87.2zm-1.079-7.024c0-.27.27-.405.405-.405.27 0 .405.27.405.405v6.889h-.945v-6.889h.135zm.27 3.647h.405v-2.837c0-.135-.135-.27-.27-.27s-.27.135-.27.27v2.837h.135zm0 3.242h.405v-2.837c0-.135-.135-.27-.27-.27s-.27.135-.27.27v2.837h.135zm2.024 0h.27v-1.621c0-.135 0-.135-.135-.135s-.135 0-.135.135v1.621zm0 1.891h.27v-1.081c0-.135 0-.135-.135-.135s-.135 0-.135.135v1.081zm.81 0h.27v-1.081c0-.135 0-.135-.135-.135s-.135 0-.135.135v1.081zm.54 0h.27v-1.081c0-.135 0-.135-.135-.135s-.135 0-.135.135v1.081zm-10.39-1.081s0-.135 0 0c-.135-.135-.27-.135-.27 0v1.081h.27v-1.081zm-.81 0s0-.135 0 0c-.135-.135-.27-.135-.27 0v1.081h.27v-1.081zm-.405 0s-.135-.135 0 0c-.135-.135-.27-.135-.27 0v1.081h.27v-1.081zm11.065-.81h.27v-1.621c0-.135 0-.135-.135-.135s-.135 0-.135.135v1.621zm.54 0h.27v-1.621c0-.135 0-.135-.135-.135s-.135 0-.135.135v1.621zm-1.349-2.026h.27v-1.621c0-.135 0-.135-.135-.135s-.135 0-.135.135v1.621zm.81 0h.27v-1.621c0-.135 0-.135-.135-.135s-.135 0-.135.135v1.621zm.54 0h.27v-1.621c0-.135 0-.135-.135-.135s-.135 0-.135.135v1.621zm-1.349-2.026h.27v-1.621c0-.135 0-.135-.135-.135s-.135 0-.135.135v1.621zm.81 0h.27v-1.621c0-.135 0-.135-.135-.135s-.135 0-.135.135v1.621zm.54 0h.27v-1.621c0-.135 0-.135-.135-.135s-.135 0-.135.135v1.621zm-10.39 2.431c0-.135 0-.135 0 0-.135-.135-.27-.135-.27 0v1.621h.27v-1.621zm-.81 0c0-.135 0-.135 0 0-.135-.135-.27-.135-.27 0v1.621h.27v-1.621zm-.405 0c0-.135-.135-.135 0 0-.135-.135-.27-.135-.27 0v1.621h.27v-1.621zm1.215-2.026c0-.135 0-.135 0 0-.135-.135-.27-.135-.27 0v1.621h.27v-1.621zm-.81 0c0-.135 0-.135 0 0-.135-.135-.27-.135-.27 0v1.621h.27v-1.621zm-.405 0c0-.135-.135-.135 0 0-.135-.135-.27-.135-.27 0v1.621h.27v-1.621zm1.215-2.026c0-.135 0-.135 0 0-.135-.135-.27-.135-.27 0v1.621h.27v-1.621zm-.81 0c0-.135 0-.135 0 0-.135-.135-.27-.135-.27 0v1.621h.27v-1.621zm-.405 0c0-.135-.135-.135 0 0-.135-.135-.27-.135-.27 0v1.621h.27v-1.621zm8.906 6.483l-.405-.405-.405.405.405.406.405-.406zm0 .676l-.405-.405-.405.405.405.405.405-.405zm-1.349-.676l-.405-.405-.405.405.405.406.405-.406zm0 .676l-.405-.405-.405.405.405.405.405-.405zm-1.349-.676l-.405-.405-.405.405.405.406.405-.406zm0 .676l-.405-.405-.405.405.405.405.405-.405zm-1.349-.676l-.405-.405-.405.405.405.406.405-.406zm0 .676l-.405-.405-.405.405.405.405.405-.405zm-1.349-.676l-.405-.405-.405.405.405.406.405-.406zm0 .676l-.405-.405-.405.405.405.405.405-.405zm8.225-25.935H78.023v.405h11.875v-.405zm-1.752 14.05H79.78V80.643h8.366v10.266zm-.405-.675v-7.699H80.05v7.699h7.692zm-5.938-4.863c0 .135 2.699 1.216 2.834 1.486 0 0 .135-.135.135-.27v-.27c-.27.135-2.969-1.081-2.969-.945z"/><path d="M84.771 85.639h.135l.405-.54-.675.27.135.27c-.54.27-1.349.81-1.484.675 0 0 0 .135.135.27s.27.135.27.135c-.135 0 .675-.675 1.079-1.081zm-.809-2.968c-2.024 0-3.508 1.621-3.508 3.512 0 2.026 1.619 3.512 3.508 3.512 2.024 0 3.508-1.621 3.508-3.512s-1.619-3.512-3.508-3.512zm-1.754 5.943l-.27.405-.135-.135.405-.27c-.135-.135-.135 0 0 0zm0 0s.135 0 .135.135l-.27.54-.135-.135.27-.54zm.27.27s.135 0 .135.135l-.27.54c-.135 0-.135-.135-.27-.135l.405-.54zm.27.135h.135l-.135.54c-.135 0-.135 0-.27-.135l.27-.405zm.27 0h.135l-.135.54h-.27l.27-.54zm.405.135h.135v.54h-.27l.135-.54zm.27 0h.135v.54h-.27l.135-.54zm.27 0h.135v.54h-.27v-.54h.135zm.27 0h.135l.135.54h-.27v-.54zm.405 0h.135l.135.54h-.27v-.54zm.27-.135h.135l.27.54c-.135 0-.135 0-.27.135l-.135-.675zm.27-.135s.135 0 .135-.135l.27.54s-.135.135-.27.135l-.135-.54zm.27-.135s.135 0 .135-.135l.27.405-.135.135-.27-.405zm.27-.135l.135-.135.405.405-.135.135-.405-.405zm-1.754.405a2.71 2.71 0 0 1-2.699-2.701 2.71 2.71 0 0 1 2.699-2.701 2.71 2.71 0 0 1 2.699 2.701 2.71 2.71 0 0 1-2.699 2.701zm-2.294-4.457l-.405-.27.135-.135.405.405c-.135-.135-.135-.135-.135 0zm-.135.135s0 .135-.135.135l-.54-.27.135-.135.54.27zm-.135.135s0 .135-.135.135l-.54-.27c0-.135.135-.135.135-.27l.54.405zm-.135.405v.135l-.54-.135c0-.135 0-.135.135-.27l.405.27zm-.135.27v.135l-.54-.135v-.27l.54.27zm0 .27v.135h-.54v-.27l.54.135zm-.135.27v.135h-.54v-.27l.54.135zm0 .27v.135h-.54v-.27h.54v.135zm0 .405v.135l-.54.135v-.27h.54zm.135.27v.135l-.54.135v-.27h.54zm0 .27v.135l-.54.27c0-.135 0-.135-.135-.27l.675-.135zm.135.27s0 .135.135.135l-.54.27s-.135-.135-.135-.27l.54-.135zm.135.27s0 .135.135.135l-.405.27-.135-.135.405-.27zm.27.27l-.27.54-.135-.135.405-.405zm4.048-4.052l.27-.405.135.135-.405.405v-.135zm-.135-.135s-.135 0-.135-.135l.27-.54.135.135-.27.54zm-.27-.135s-.135 0-.135-.135l.27-.54c.135 0 .135.135.27.135l-.405.54zm-.27-.135h-.135l.135-.54c.135 0 .135 0 .27.135l-.27.405zm-.27-.135h-.135l.135-.54h.27l-.27.54zm-.27 0h-.135v-.54h.27l-.135.54zm-.405-.135h-.135v-.54h.27l-.135.54zm-.27 0h-.135v-.54h.27v.54h-.135zm-.27.135h-.135l-.135-.54h.27v.54zm-.27 0h-.135l-.135-.54h.27v.54zm-.27.135h-.135l-.27-.54c.135 0 .135 0 .27-.135l.135.675zm-.405 0s-.135 0-.135.135l-.27-.54s.135-.135.27-.135l.135.54zm-.27.135s-.135 0-.135.135l-.27-.405.135-.135.27.405zm-.135.27c-.135 0-.135 0 0 0l-.54-.27.135-.135.405.405zm4.588 1.756l.54-.135v.27h-.54v-.135zm-.135-.135v-.135l.54-.135v.27h-.54zm0-.27v-.135l.54-.27c0 .135 0 .135.135.27l-.675.135zm-.135-.27s0-.135-.135-.135l.54-.27s.135.135.135.27l-.54.135zm-.135-.27s0-.135-.135-.135l.405-.27.135.135-.405.27zm-.135-.27l-.135-.135.405-.405.135.135-.405.405zm0 3.512l.405.27-.135.135-.27-.405c-.135 0-.135 0 0 0zm0-.135s0-.135.135-.135l.54.27-.135.135-.54-.27zm.135-.27s0-.135.135-.135l.54.27c0 .135 0 .135-.135.27l-.54-.405zm.135-.27v-.135l.54.135c0 .135 0 .135-.135.27l-.405-.27zm.135-.27v-.135l.54.135v.27l-.54-.27zm.135-.27v-.135h.54v.27l-.54-.135zm0-.27v-.135h.54v.27l-.54-.135zm0-.405v-.135h.54v.27h-.54v-.135zm-.405-2.296l-.405.405-.135-.135.405-.405c0 .135.135.135.135.135zm-4.858-.135l.405.405-.135.135-.405-.405s.135 0 .135-.135zm-.135 4.863l.405-.405.135.135-.405.405s-.135 0-.135-.135zm4.858.135l-.405-.405.135-.135.405.405c0 .135-.135.135-.135.135z"/><path d="M83.96 84.292a2.08 2.08 0 0 0-2.024 2.026 2.08 2.08 0 0 0 2.024 2.026 2.08 2.08 0 0 0 2.024-2.026c0-1.216-.945-2.026-2.024-2.026zm0 3.917c-1.079 0-1.889-.81-1.889-1.891s.81-1.891 1.889-1.891 1.889.81 1.889 1.891-.945 1.891-1.889 1.891z"/><path d="M84.095 83.615h-.27v.54h.27v-.54zm-1.406.209l-.234.135.27.468.234-.135-.27-.468zm-.481 1.279l-.54-.27-.135.27.54.27.135-.27zm-.405 1.081h-.54v.27h.54v-.27zm-.27 1.351l.135.27.54-.27-.135-.27-.54.27zm1.15.505l-.269.468.234.135.269-.468-.234-.135zm1.412.301h-.27v.54h.27v-.54zm.81-.131l.27.54.135-.135-.27-.54-.135.135zm.961-.93l-.135.234.468.27.135-.234-.468-.27zm.208-1.075l-.001.27.54.003.001-.27-.54-.003zm.181-1.102l-.135-.27-.405.27.135.27.405-.27zm-.945-1.083l-.135-.135-.27.54.135.135.27-.54zm4.321-6.351v4.052h-1.349V80.37h-8.771v1.351h-1.349v-4.052h11.47zm-9.446.405c-.27 0-.405.135-.405.405v1.891h.81v-1.89c0-.27-.135-.405-.405-.405zm1.214 0c-.27 0-.405.135-.405.405v1.891h.81v-1.89c0-.27-.135-.405-.405-.405zm1.214 0c-.27 0-.405.135-.405.405v1.891h.81v-1.89c0-.27-.135-.405-.405-.405zm1.349 0c-.27 0-.405.135-.405.405v1.891h.81v-1.89c-.135-.27-.27-.405-.405-.405zm1.215 0c-.27 0-.405.135-.405.405v1.891h.81v-1.89c0-.27-.27-.405-.405-.405zm1.215 0c-.27 0-.405.135-.405.405v1.891h.81v-1.89c0-.27-.135-.405-.405-.405zm1.214 0c-.27 0-.405.135-.405.405v1.891h.81v-1.89c0-.27-.135-.405-.405-.405z"/><path d="M91.249 81.723v12.022H76.541V81.723h2.969v9.59h8.906v-9.59h2.834zM88.82 93.069h.27v-1.216c0-.135 0-.135-.135-.135s-.135 0-.135.135v1.216zm.27 0h.27v-1.216c0-.135 0-.135-.135-.135s-.135 0-.135.135v1.216zm.54 0h.27v-1.216c0-.135 0-.135-.135-.135s-.135 0-.135.135v1.216zm.405 0h.27v-1.216c0-.135 0-.135-.135-.135s-.135 0-.135.135v1.216zm-1.214-2.837h.27v-1.621c0-.135 0-.135-.135-.135s-.135 0-.135.135v1.621zm.27 0h.27v-1.621c0-.135 0-.135-.135-.135s-.135 0-.135.135v1.621zm.54 0h.27v-1.621c0-.135 0-.135-.135-.135s-.135 0-.135.135v1.621zm.405 0h.27v-1.621c0-.135 0-.135-.135-.135s-.135 0-.135.135v1.621zm-9.85 1.351c-.27 0-.405.135-.405.405v1.081h.81v-1.081c0-.27-.135-.405-.405-.405zm1.214 0c-.27 0-.405.135-.405.405v1.081h.81v-1.081c0-.27-.135-.405-.405-.405zm1.214 0c-.27 0-.405.135-.405.405v1.081h.81v-1.081c0-.27-.135-.405-.405-.405zm1.349 0c-.27 0-.405.135-.405.405v1.081h.81v-1.081c-.135-.27-.27-.405-.405-.405zm1.215 0c-.27 0-.405.135-.405.405v1.081h.81v-1.081c0-.27-.27-.405-.405-.405zm1.214 0c-.27 0-.405.135-.405.405v1.081h.81v-1.081c0-.27-.135-.405-.405-.405zm1.214 0c-.27 0-.405.135-.405.405v1.081h.81v-1.081c0-.27-.135-.405-.405-.405zm2.834-3.512l-.405-.405-.405.405.405.405.405-.405zm-.945 0l-.405-.405-.405.405.405.405.405-.405zm-.675-.54h.27V85.91c0-.135 0-.135-.135-.135s-.135 0-.135.135v1.621zm.27 0h.27V85.91c0-.135 0-.135-.135-.135s-.135 0-.135.135v1.621zm.54 0h.27V85.91c0-.135 0-.135-.135-.135s-.135 0-.135.135v1.621zm.405 0h.27V85.91c0-.135 0-.135-.135-.135s-.135 0-.135.135v1.621zm.405-2.161l-.405-.405-.405.405.405.405.405-.405zm-.945 0l-.405-.405-.405.405.405.405.405-.405zm-.675-.405h.27v-1.621c0-.135 0-.135-.135-.135s-.135 0-.135.135v1.621zm.27 0h.27v-1.621c0-.135 0-.135-.135-.135s-.135 0-.135.135v1.621zm.54 0h.27v-1.621c0-.135 0-.135-.135-.135s-.135 0-.135.135v1.621zm.405 0h.27v-1.621c0-.135 0-.135-.135-.135s-.135 0-.135.135v1.621zm.405-2.296l-.405-.405-.405.405.405.405.405-.405zm-.945 0l-.405-.405-.405.405.405.405.405-.405zm-10.39 9.185c0-.135-.135-.135 0 0-.135-.135-.27-.135-.27 0v1.216h.27v-1.216zm-.405 0c0-.135 0-.135 0 0-.135-.135-.27-.135-.27 0v1.216h.27v-1.216zm-.54 0c0-.135 0-.135 0 0-.135-.135-.27-.135-.27 0v1.216h.27v-1.216zm-.405 0c0-.135 0-.135 0 0-.135-.135-.27-.135-.27 0v1.216h.27v-1.216zm1.349-3.242c0-.135-.135-.135 0 0-.135-.135-.27-.135-.27 0v1.621h.27v-1.621zm-.405 0c0-.135 0-.135 0 0-.135-.135-.27-.135-.27 0v1.621h.27v-1.621zm-.54 0c0-.135 0-.135 0 0-.135-.135-.27-.135-.27 0v1.621h.27v-1.621zm-.405 0c0-.135 0-.135 0 0-.135-.135-.27-.135-.27 0v1.621h.27v-1.621zm.135-.135l.405-.405-.405-.405-.405.405.405.405zm.81 0l.405-.405-.405-.405-.405.405.405.405zm.405-2.567s-.135-.135 0 0c-.135-.135-.27-.135-.27 0v1.621h.27V85.91zm-.405 0s0-.135 0 0c-.135-.135-.27-.135-.27 0v1.621h.27V85.91zm-.54 0s0-.135 0 0c-.135-.135-.27-.135-.27 0v1.621h.27V85.91zm-.405 0s0-.135 0 0c-.135-.135-.27-.135-.27 0v1.621h.27V85.91zm.135-.135l.405-.405-.405-.405-.405.405.405.405zm.81 0l.405-.405-.405-.405-.405.405.405.405zm.405-2.431c0-.135-.135-.135 0 0-.135-.135-.27-.135-.27 0v1.621h.27v-1.621zm-.405 0c0-.135 0-.135 0 0-.135-.135-.27-.135-.27 0v1.621h.27v-1.621zm-.54 0c0-.135 0-.135 0 0-.135-.135-.27-.135-.27 0v1.621h.27v-1.621zm-.405 0c0-.135 0-.135 0 0-.135-.135-.27-.135-.27 0v1.621h.27v-1.621zm.135-.135l.405-.405-.405-.405-.405.405.405.405zm.81 0l.405-.405-.405-.405-.405.405.405.405z"/><path d="M77.621 78.888h-.54v2.837h.54v-2.837z"/><path d="M77.486 77.265h-.135l-.27 1.621h.54l-.135-1.621zm.807-3.242h-.27v2.837h.27v-2.837z"/><path d="M78.158 72.539h-.135v1.621h.27l-.135-1.621zm11.607 1.485h-.27v2.837h.27v-2.837z"/><path d="M89.63 72.538h.135v1.621h-.27l.135-1.621zm-8.5-9.59h-.27v2.837h.27v-2.837z"/><path d="M80.995 61.46h.135v1.621h-.27l.135-1.621zm5.937 1.488h-.27v2.837h.27v-2.837z"/><path d="M86.797 61.46l-.135 1.621h.27l-.135-1.621zm3.915 17.428h-.54v2.837h.54v-2.837z"/><path d="M90.307 77.266h.27l.135 1.621h-.54l.135-1.621zm-12.284-.405l2.969-5.403h5.937l2.969 5.403H78.023zm9.716-.811v-.675l-.27-.405-.27.405v.675h.54zm-2.294 0v-.675l-.27-.405-.27.405v.675h.54zm-2.429 0v-.675l-.27-.405-.27.405v.675h.54zm-2.294 0v-.675l-.27-.405-.27.405v.675h.54zm5.802-2.026v-.675l-.27-.405-.27.405v.675h.54zm-2.294 0v-.675l-.27-.405-.27.405v.675h.54zm-2.294 0v-.675l-.27-.405-.27.405v.675h.54z"/><path d="M86.933 65.915h-2.969-3.103c1.349-3.377 2.294-6.213 2.699-10.671h.27.27c.54 4.457 1.484 7.159 2.834 10.671zm-1.349-1.621v-.405l-.27-.135-.27.135v.405h.54zm-1.484 0v-.405l-.27-.135-.27.135v.405h.54zm.81-2.161v-.405l-.27-.135-.27.135v.405h.54zm-1.484 0v-.405l-.27-.135-.27.135v.405h.54zm.675-2.161v-.405l-.27-.135-.27.135v.405h.54zm-1.484 4.322v-.405l-.27-.135-.27.135v.405h.54zm4.316 6.757H80.86v.54h6.072v-.54z"/><path d="M86.933 66.457H80.86v.405h6.072v-.405zm0 .946v.946 2.701h-.405v-2.566s-.135-.27-.27-.27-.27.27-.27.27v2.566h-.405v-2.566s-.135-.27-.27-.27-.27.27-.27.27v2.566h-.405v-2.566s-.135-.27-.27-.27-.27.27-.27.27v2.566h-.405v-2.566s-.135-.27-.27-.27-.27.27-.27.27v2.566h-.405v-2.566s-.135-.27-.27-.27-.27.27-.27.27v2.566h-.405v-2.566s-.135-.27-.27-.27-.27.27-.27.27v2.566h-.405v-2.566-.946h.135l.405-.405.54.405.405-.405.54.405.405-.405.54.405.405-.405.54.405.405-.405.54.405.54-.54.54.405h.135zm-3.643.54h.135.135v-.405l-.27-.135-.135.135v.405h.135zm.945 0h.135.135v-.405l-.27-.135-.135.135v.405h.135zm.945 0h.135.135v-.405l-.27-.135-.135.135v.405h.135zm.945 0h.135.135v-.405l-.27-.135-.135.135v.405h.135zm-3.778 0h.135.135v-.405l-.27-.135-.135.135v.405h.135zm-1.08 0h.135.135v-.405l-.27-.135-.135.135v.405h.135z"/><path d="M86.933 65.921H80.86v.675h6.072v-.675zm-2.703-11.08h-.675v.405h.675v-.405z"/><path d="M84.233 54.438h-.81v.405h.81v-.405z"/><path d="M84.095 51.603h-.27v2.972h.27v-2.972z"/><path d="M84.232 51.466c0 .135-.135.27-.27.27s-.27-.135-.27-.27.135-.27.27-.27.27.135.27.27z"/></g><g opacity=".608" fill="#edbd7b"><path opacity=".78" d="M89.628 77.673v-.405h.135v-.405-2.837l-.135-1.621h-.135l-.135 1.621v2.431l-2.699-4.863v-.54-2.566-.945l-.135-.405h.135v-.405-.675-3.107l-.135-1.621h-.135l-.135 1.621v2.161c-1.214-3.107-2.024-5.808-2.429-9.995h-.27v88.608h6.477.135v-9.725h-.135v-.271h.135v-9.725h-.135v-.27h.135v-9.725h-.135v-.27h.135v-9.726h-.135v-.27h.135v-9.725h-.135v-.135h.81V81.86h-1.619v-4.187h.405z"/><path opacity=".78" d="M84.233 51.466c0-.135-.135-.27-.27-.27v4.052h.27v-.405h.135v-.405h-.27v-2.837l.135-.135zm6.475 27.42l-.135-1.621h-.27l-.135 1.621v2.837h.54v-2.837z"/></g><path d="M129.979 94.823H117.43v49.032h12.549V94.823z" fill="#9bc1bd"/><path d="M142.53 94.823h-12.55v49.032h12.55V94.823z" fill="#5f8884"/><g fill="#fff"><use xlink:href="#G"/><path d="M140.1 104.685h-20.781v1.35H140.1v-1.35z"/><use xlink:href="#G" y="6.481"/><use xlink:href="#G" y="9.724"/><use xlink:href="#G" y="12.967"/><path d="M140.1 117.656h-20.781v1.35H140.1v-1.35z"/><use xlink:href="#G" y="19.452"/><use xlink:href="#G" y="22.692"/><use xlink:href="#G" y="25.935"/><use xlink:href="#G" y="29.172"/><use xlink:href="#G" y="32.414"/><use xlink:href="#G" y="35.658"/><path d="M140.1 140.347h-20.781v1.35H140.1v-1.35z"/></g><path d="M136.186 90.504h-12.955v4.322h12.955v-4.322z" fill="#7c93a5"/><defs ><path id="B" d="M108.115 111.436H106.9v1.891h1.215v-1.891z"/><path id="C" d="M109.602 111.436h-1.214v1.891h1.214v-1.891z"/><path id="D" d="M111.085 111.436h-1.215v1.891h1.215v-1.891z"/><path id="E" d="M71.009 80.911H51.713v1.756h19.296v-1.756z"/><path id="F" d="M23.512 27.831h-1.079v116.028h1.079V27.831z"/><path id="G" d="M140.1 101.446h-20.781v1.351H140.1v-1.351z"/></defs></svg>