<svg xmlns="http://www.w3.org/2000/svg" xmlns:xlink="http://www.w3.org/1999/xlink" width="192" height="148" fill="none" xmlns:v="https://vecta.io/nano"><g clip-path="url(#A)"><path d="M186.055 144.217H5.945c-1.074 0-1.945.871-1.945 1.945s.871 1.946 1.945 1.946h180.11c1.074 0 1.945-.871 1.945-1.946s-.871-1.945-1.945-1.945z" fill="#fd5631"/><path d="M66.944 93.36H52.986v50.983h13.958V93.36z" fill="#ba5c61"/><use xlink:href="#B" fill="#fff"/><path d="M76.071 93.359h-9.126v50.984h9.126V93.359z" fill="#85383c"/><g fill="#fff"><use xlink:href="#C"/><path d="M66.407 99.401H53.523v1.341h12.884v-1.341zm9.125 0h-7.918v1.341h7.918v-1.341zm-9.125 3.221H53.523v1.342h12.884v-1.342zm9.125 0h-7.918v1.341h7.918v-1.341zm-9.125 3.217H53.523v1.342h12.884v-1.342zm9.125 0h-7.918v1.341h7.918v-1.341zm-9.125 3.217H53.523v1.342h12.884v-1.342zm9.125-.001h-7.918v1.342h7.918v-1.342zm-9.125 3.218H53.523v1.342h12.884v-1.342zm9.125-.001h-7.918v1.342h7.918v-1.342zm-9.125 3.225H53.523v1.342h12.884v-1.342zm9.125 0h-7.918v1.342h7.918v-1.342zm-9.125 3.217H53.523v1.342h12.884v-1.342zm9.125 0h-7.918v1.342h7.918v-1.342zm-9.125 3.23H53.523v1.341h12.884v-1.341zm9.125 0h-7.918v1.341h7.918v-1.341zm-9.125 3.217H53.523v1.342h12.884v-1.342zm9.125-.001h-7.918v1.342h7.918v-1.342zm-9.125 3.22H53.523v1.342h12.884v-1.342zm9.125.001h-7.918v1.342h7.918v-1.342zm-9.125 3.217H53.523v1.342h12.884v-1.342zm9.125 0h-7.918v1.342h7.918v-1.342zm-9.125 3.221H53.523v1.342h12.884v-1.342zm9.125 0h-7.918v1.342h7.918v-1.342zm-9.125 3.221H53.523v1.342h12.884v-1.342zm9.125 0h-7.918v1.342h7.918v-1.342zm-9.125 3.354H53.523v1.342h12.884v-1.342zm9.125-.001h-7.918v1.342h7.918v-1.342z"/></g><path d="M51.242 54.723H33.258v89.624h17.984V54.723z" fill="#085189"/><path d="M48.557 50.028H35.941v94.185h12.616V50.028z" fill="#2470ab"/><path d="M45.739 41.843H38.76v8.318h6.979v-8.318z" fill="#085189"/><path d="M45.873 41.842H38.76l3.489-6.977 3.624 6.977z" fill="#f6651d"/><g fill="#fff"><use xlink:href="#D"/><path d="M40.907 52.845h-1.879v1.744h1.879v-1.744zm2.417 0h-1.879v1.744h1.879v-1.744zm2.282 0h-1.879v1.744h1.879v-1.744zm-4.699-5.1h-1.879v1.744h1.879v-1.744zm2.417 0h-1.879v1.744h1.879v-1.744zm2.281 0h-1.879v1.744h1.879v-1.744zm-4.698-2.816h-1.879v1.744h1.879v-1.744zm2.417 0h-1.879v1.744h1.879v-1.744zm2.282 0h-1.879v1.744h1.879v-1.744zm-4.699-2.688h-1.879v1.744h1.879v-1.744zm2.417 0h-1.879v1.744h1.879v-1.744zm2.282 0h-1.879v1.744h1.879v-1.744z"/><use xlink:href="#E"/><path d="M38.627 55.661h-1.879v1.744h1.879v-1.744zm2.28 0h-1.879v1.744h1.879v-1.744zm2.417 0h-1.879v1.744h1.879v-1.744zm2.281 0h-1.879v1.744h1.879v-1.744zm2.284 0H46.01v1.744h1.879v-1.744zm-9.263 2.817h-1.879v1.744h1.879v-1.744zm2.281 0h-1.879v1.744h1.879v-1.744zm2.417 0h-1.879v1.744h1.879v-1.744zm2.282 0h-1.879v1.744h1.879v-1.744zm2.283 0H46.01v1.744h1.879v-1.744zm-9.262 2.816h-1.879v1.744h1.879v-1.744zm2.28 0h-1.879v1.744h1.879v-1.744zm2.417 0h-1.879v1.744h1.879v-1.744zm2.281 0h-1.879v1.744h1.879v-1.744zm2.284 0H46.01v1.744h1.879v-1.744zm-9.262 2.684h-1.879v1.744h1.879v-1.744zm2.28 0h-1.879v1.744h1.879v-1.744zm2.417 0h-1.879v1.744h1.879v-1.744zm2.281 0h-1.879v1.744h1.879v-1.744zm2.284 0H46.01v1.744h1.879v-1.744zm-9.262 2.82h-1.879v1.744h1.879v-1.744zm2.28 0h-1.879v1.744h1.879v-1.744zm2.417 0h-1.879v1.744h1.879v-1.744zm2.281 0h-1.879v1.744h1.879v-1.744zm2.284 0H46.01v1.744h1.879v-1.744zm-9.263 2.817h-1.879v1.744h1.879v-1.744zm2.281 0h-1.879v1.744h1.879v-1.744zm2.417 0h-1.879v1.744h1.879v-1.744zm2.282 0h-1.879v1.744h1.879v-1.744zm2.283 0H46.01v1.744h1.879v-1.744zm-9.263 2.813h-1.879v1.744h1.879v-1.744zm2.281 0h-1.879v1.744h1.879v-1.744zm2.417 0h-1.879v1.744h1.879v-1.744zm2.282 0h-1.879v1.744h1.879v-1.744zm2.283-.001H46.01v1.744h1.879v-1.744zm-9.263 2.824h-1.879v1.744h1.879v-1.744zm2.281 0h-1.879v1.744h1.879v-1.744zm2.417 0h-1.879v1.744h1.879v-1.744zm2.282 0h-1.879v1.744h1.879v-1.744zm2.283 0H46.01v1.744h1.879v-1.744zm-9.263 2.681h-1.879v1.744h1.879v-1.744zm2.281 0h-1.879v1.744h1.879v-1.744zm2.417 0h-1.879v1.744h1.879v-1.744zm2.282 0h-1.879v1.744h1.879v-1.744zm2.283-.001H46.01v1.744h1.879v-1.744zm-9.262 2.821h-1.879v1.744h1.879v-1.744zm2.28 0h-1.879v1.744h1.879v-1.744zm2.417 0h-1.879v1.744h1.879v-1.744zm2.281 0h-1.879v1.744h1.879v-1.744zm2.284 0H46.01v1.744h1.879v-1.744zm-9.262 2.816h-1.879v1.744h1.879v-1.744zm2.28 0h-1.879v1.744h1.879v-1.744zm2.417 0h-1.879v1.744h1.879v-1.744zm2.281 0h-1.879v1.744h1.879v-1.744zm2.284 0H46.01v1.744h1.879v-1.744zm-9.263 2.82h-1.879v1.744h1.879v-1.744zm2.281 0h-1.879v1.744h1.879v-1.744zm2.417 0h-1.879v1.744h1.879v-1.744zm2.282 0h-1.879v1.744h1.879v-1.744zm2.283.001H46.01v1.744h1.879v-1.744zm-9.263 2.815h-1.879v1.744h1.879v-1.744zm2.281 0h-1.879v1.744h1.879v-1.744zm2.417 0h-1.879v1.744h1.879v-1.744zm2.282 0h-1.879v1.744h1.879v-1.744zm2.283.001H46.01v1.744h1.879v-1.744zm-9.262 2.812h-1.879v1.744h1.879v-1.744zm2.28 0h-1.879v1.744h1.879v-1.744zm2.417 0h-1.879v1.744h1.879v-1.744zm2.281 0h-1.879v1.744h1.879v-1.744zm2.284 0H46.01v1.744h1.879v-1.744zm-9.262 2.684h-1.879v1.744h1.879v-1.744zm2.28 0h-1.879v1.744h1.879v-1.744zm2.417 0h-1.879v1.744h1.879v-1.744zm2.281 0h-1.879v1.744h1.879v-1.744zm2.284 0H46.01v1.744h1.879v-1.744zm-9.262 2.821h-1.879v1.744h1.879v-1.744zm2.28 0h-1.879v1.744h1.879v-1.744zm2.417 0h-1.879v1.744h1.879v-1.744zm2.281 0h-1.879v1.744h1.879v-1.744zm2.284 0H46.01v1.744h1.879v-1.744zm-9.263 2.82h-1.879v1.744h1.879v-1.744zm2.281 0h-1.879v1.744h1.879v-1.744zm2.417 0h-1.879v1.744h1.879v-1.744zm2.282 0h-1.879v1.744h1.879v-1.744zm2.283 0H46.01v1.744h1.879v-1.744zm-9.263 2.816h-1.879v1.744h1.879v-1.744zm2.281 0h-1.879v1.744h1.879v-1.744zm2.417 0h-1.879v1.744h1.879v-1.744zm2.282 0h-1.879v1.744h1.879v-1.744zm2.283 0H46.01v1.744h1.879v-1.744zm-9.262 2.817h-1.879v1.744h1.879v-1.744zm2.28 0h-1.879v1.744h1.879v-1.744zm2.417 0h-1.879v1.744h1.879v-1.744zm2.281 0h-1.879v1.744h1.879v-1.744zm2.284 0H46.01v1.744h1.879v-1.744zm-9.262 2.684h-1.879v1.744h1.879v-1.744zm2.28 0h-1.879v1.744h1.879v-1.744zm2.417 0h-1.879v1.744h1.879v-1.744zm2.281 0h-1.879v1.744h1.879v-1.744zm2.284 0H46.01v1.744h1.879v-1.744zm-9.263 2.816h-1.879v1.744h1.879v-1.744zm2.281 0h-1.879v1.744h1.879v-1.744zm2.417 0h-1.879v1.744h1.879v-1.744zm2.282 0h-1.879v1.744h1.879v-1.744zm2.283 0H46.01v1.744h1.879v-1.744zm-9.263 2.816h-1.879v1.744h1.879v-1.744zm2.281 0h-1.879v1.744h1.879v-1.744zm2.417 0h-1.879v1.744h1.879v-1.744zm2.282 0h-1.879v1.744h1.879v-1.744zm2.283 0H46.01v1.745h1.879v-1.745zm-9.262 2.821h-1.879v1.744h1.879v-1.744zm2.28 0h-1.879v1.744h1.879v-1.744zm2.417 0h-1.879v1.744h1.879v-1.744zm2.281 0h-1.879v1.744h1.879v-1.744zm2.284 0H46.01v1.744h1.879v-1.744zm-9.262 2.816h-1.879v1.744h1.879v-1.744zm2.28 0h-1.879v1.744h1.879v-1.744zm2.417 0h-1.879v1.744h1.879v-1.744zm2.281 0h-1.879v1.744h1.879v-1.744zm2.284 0H46.01v1.744h1.879v-1.744zm-9.263 2.684h-1.879v1.744h1.879v-1.744zm2.281 0h-1.879v1.744h1.879v-1.744zm2.417 0h-1.879v1.744h1.879v-1.744zm2.282 0h-1.879v1.744h1.879v-1.744zm2.283 0H46.01v1.744h1.879v-1.744zm-9.263 2.816h-1.879v1.745h1.879v-1.745zm2.281 0h-1.879v1.745h1.879v-1.745zm2.417 0h-1.879v1.745h1.879v-1.745zm2.282 0h-1.879v1.745h1.879v-1.745zm2.283.001H46.01v1.744h1.879v-1.744zm-9.263 2.816h-1.879v1.744h1.879v-1.744zm2.281 0h-1.879v1.744h1.879v-1.744zm2.417 0h-1.879v1.744h1.879v-1.744zm2.282 0h-1.879v1.744h1.879v-1.744zm2.283 0H46.01v1.744h1.879v-1.744zm-9.263 2.817h-1.879v1.744h1.879v-1.744zm2.281 0h-1.879v1.744h1.879v-1.744zm2.417 0h-1.879v1.744h1.879v-1.744zm2.282 0h-1.879v1.744h1.879v-1.744zm2.283-.001H46.01v1.744h1.879v-1.744zm-9.263 2.817h-1.879v1.744h1.879v-1.744zm2.281 0h-1.879v1.744h1.879v-1.744zm2.417 0h-1.879v1.744h1.879v-1.744zm2.282 0h-1.879v1.744h1.879v-1.744zm2.283-.001H46.01v1.745h1.879v-1.745zm-9.263 2.689h-1.879v1.744h1.879v-1.744zm2.281 0h-1.879v1.744h1.879v-1.744zm2.417 0h-1.879v1.744h1.879v-1.744zm2.282 0h-1.879v1.744h1.879v-1.744zm2.283 0H46.01v1.744h1.879v-1.744zm-9.263 2.816h-1.879v1.744h1.879v-1.744zm2.281 0h-1.879v1.744h1.879v-1.744zm2.417 0h-1.879v1.744h1.879v-1.744zm2.282 0h-1.879v1.744h1.879v-1.744zm2.283 0H46.01v1.744h1.879v-1.744z"/></g><path d="M135.658 75.243h-13.287v68.962h13.287V75.243z" fill="#6a7f96"/><path d="M144.786 75.243h-9.126v68.962h9.126V75.243z" fill="#2f505c"/><g fill="#fff"><use xlink:href="#F"/><use xlink:href="#G"/><path d="M126.666 82.222h-4.026v1.476h4.026v-1.476zm8.724 3.63h-4.027v1.476h4.027v-1.476zm-4.428 0h-4.026v1.476h4.026v-1.476zm-4.296 0h-4.026v1.476h4.026v-1.476zm8.724 3.621h-4.027v1.476h4.027v-1.476zm-4.428 0h-4.026v1.476h4.026v-1.476zm-4.296 0h-4.026v1.476h4.026v-1.476zm8.724 3.622h-4.027v1.476h4.027v-1.476zm-4.428 0h-4.026v1.476h4.026v-1.476zm-4.296 0h-4.026v1.476h4.026v-1.476zm8.724 3.622h-4.027v1.476h4.027v-1.476zm-4.428-.001h-4.026v1.476h4.026v-1.476zm-4.296.001h-4.026v1.476h4.026v-1.476zm8.724 3.621h-4.027v1.476h4.027v-1.476zm-4.428 0h-4.026v1.476h4.026v-1.476zm-4.296 0h-4.026v1.476h4.026v-1.476zm8.724 3.63h-4.027v1.476h4.027v-1.476zm-4.428 0h-4.026v1.476h4.026v-1.476zm-4.296 0h-4.026v1.476h4.026v-1.476zm8.724 3.609h-4.027v1.476h4.027v-1.476zm-4.428 0h-4.026v1.476h4.026v-1.476zm-4.296 0h-4.026v1.476h4.026v-1.476zm8.724 3.625h-4.027v1.476h4.027v-1.476z"/><use xlink:href="#H"/><path d="M126.666 111.202h-4.026v1.476h4.026v-1.476zm8.724 3.626h-4.027v1.476h4.027v-1.476zm-4.428 0h-4.026v1.476h4.026v-1.476zm-4.296 0h-4.026v1.476h4.026v-1.476zm8.724 3.618h-4.027v1.475h4.027v-1.475zm-4.428 0h-4.026v1.475h4.026v-1.475zm-4.296 0h-4.026v1.475h4.026v-1.475zm8.724 3.629h-4.027v1.476h4.027v-1.476zm-4.428 0h-4.026v1.476h4.026v-1.476zm-4.296 0h-4.026v1.476h4.026v-1.476zm8.724 3.618h-4.027v1.476h4.027v-1.476zm-4.428 0h-4.026v1.476h4.026v-1.476zm-4.296 0h-4.026v1.476h4.026v-1.476zm8.724 3.63h-4.027v1.475h4.027v-1.475zm-4.428 0h-4.026v1.475h4.026v-1.475zm-4.296 0h-4.026v1.475h4.026v-1.475zm8.724 3.621h-4.027v1.476h4.027v-1.476zm-4.428 0h-4.026v1.476h4.026v-1.476zm-4.296 0h-4.026v1.476h4.026v-1.476zm8.724 3.618h-4.027v1.476h4.027v-1.476zm-4.428 0h-4.026v1.475h4.026v-1.475zm-4.296 0h-4.026v1.476h4.026v-1.476zm8.724 3.626h-4.027v1.476h4.027v-1.476zm-4.428-.001h-4.026v1.476h4.026v-1.476zm-4.296.001h-4.026v1.476h4.026v-1.476z"/><use xlink:href="#I"/><path d="M140.291 141.591h4.026v-1.476h-4.026v1.476zm-4.329-3.612h4.026v-1.476h-4.026v1.476zm4.328 0h4.026v-1.476h-4.026v1.476zm-4.328-3.609h4.026v-1.476h-4.026v1.476zm4.328 0h4.026v-1.476h-4.026v1.476zm-4.328-3.606h4.026v-1.476h-4.026v1.476zm4.329 0h4.026v-1.476h-4.026v1.476zm-4.329-3.618h4.026v-1.475h-4.026v1.475zm4.329 0h4.026v-1.475h-4.026v1.475zm-4.329-3.609h4.026v-1.476h-4.026v1.476zm4.329 0h4.026v-1.476h-4.026v1.476zm-4.329-3.609h4.026v-1.476h-4.026v1.476zm4.329 0h4.026v-1.476h-4.026v1.476zm-4.329-3.609h4.026v-1.476h-4.026v1.476zm4.329 0h4.026v-1.476h-4.026v1.476zm-4.329-3.61h4.026v-1.476h-4.026v1.476zm4.328 0h4.026v-1.476h-4.026v1.476zm-4.328-3.609h4.026v-1.476h-4.026v1.476zm4.328 0h4.026v-1.476h-4.026v1.476zm-4.328-3.609h4.026v-1.476h-4.026v1.476zm4.328 0h4.026v-1.476h-4.026v1.476zm-4.328-3.609h4.026v-1.476h-4.026v1.476zm4.328 0h4.026v-1.476h-4.026v1.476zm-4.328-3.613h4.026v-1.476h-4.026v1.476zm4.329 0h4.026v-1.476h-4.026v1.476zm-4.329-3.609h4.026v-1.476h-4.026v1.476zm4.328 0h4.026v-1.476h-4.026v1.476zm-4.328-3.609h4.026v-1.476h-4.026v1.476zm4.328 0h4.026v-1.476h-4.026v1.476zm-4.328-3.601h4.026v-1.476h-4.026v1.476zm4.328 0h4.026v-1.476h-4.026v1.476zm-4.328-3.609h4.026v-1.476h-4.026v1.476zm4.328 0h4.026v-1.476h-4.026v1.476z"/></g><path d="M179.007 98.059h-10.066v46.288h10.066V98.059z" fill="#ba5c61"/><path d="M185.851 98.059h-6.844v46.288h6.844V98.059z" fill="#85383c"/><g fill="#fff"><use xlink:href="#J"/><use xlink:href="#K"/><path d="M172.16 103.959h-3.087v1.208h3.087v-1.208zm6.576 2.957h-3.087v1.208h3.087v-1.208zm-3.219-.001h-3.086v1.208h3.086v-1.208zm-3.357.001h-3.087v1.208h3.087v-1.208z"/><use xlink:href="#L"/><use xlink:href="#M"/><path d="M172.16 109.997h-3.087v1.207h3.087v-1.207zm6.576 3.084h-3.087v1.208h3.087v-1.208zm-3.219.001h-3.086v1.208h3.086v-1.208zm-3.357-.001h-3.087v1.208h3.087v-1.208zm6.576 3.089h-3.087v1.208h3.087v-1.208zm-3.218 0h-3.086v1.208h3.086v-1.208zm-3.358 0h-3.087v1.208h3.087v-1.208zm6.576 2.953h-3.087v1.207h3.087v-1.207zm-3.218 0h-3.086v1.207h3.086v-1.207zm-3.358 0h-3.087v1.207h3.087v-1.207zm6.576 3.084h-3.087v1.208h3.087v-1.208zm-3.219.001h-3.086v1.207h3.086v-1.207zm-3.357-.001h-3.087v1.208h3.087v-1.208zm6.576 3.081h-3.087v1.208h3.087v-1.208zm-3.219.001h-3.086v1.207h3.086v-1.207zm-3.357-.001h-3.087v1.208h3.087v-1.208zm6.576 3.093h-3.087v1.208h3.087v-1.208zm-3.219 0h-3.086v1.207h3.086v-1.207zm-3.357 0h-3.087v1.208h3.087v-1.208zm6.576 3.081h-3.087v1.207h3.087v-1.207zm-3.219 0h-3.086v1.208h3.086v-1.208zm-3.357 0h-3.087v1.207h3.087v-1.207zm6.576 2.956h-3.087v1.208h3.087v-1.208zm-3.218 0h-3.086v1.208h3.086v-1.208zm-3.358 0h-3.087v1.208h3.087v-1.208zm6.576 3.081h-3.087v1.207h3.087v-1.207zm-3.219-.001h-3.086v1.207h3.086v-1.207zm-3.357.001h-3.087v1.207h3.087v-1.207zm6.576 3.089h-3.087v1.207h3.087v-1.207zm-3.218 0h-3.086v1.207h3.086v-1.207zm-3.358 0h-3.087v1.207h3.087v-1.207z"/><use xlink:href="#N"/><path d="M182.406 141.818h3.087v-1.207h-3.087v1.207zm-3.242-3.023h3.087v-1.207h-3.087v1.207zm3.242 0h3.087v-1.207h-3.087v1.207zm-3.242-3.022h3.087v-1.207h-3.087v1.207zm3.242 0h3.087v-1.207h-3.087v1.207z"/><use xlink:href="#O"/><path d="M182.406 132.61h3.087v-1.208h-3.087v1.208zm-3.242-3.018h3.087v-1.208h-3.087v1.208zm3.242 0h3.087v-1.208h-3.087v1.208zm-3.242-3.032h3.087v-1.208h-3.087v1.208zm3.242 0h3.087v-1.208h-3.087v1.208zm-3.242-3.022h3.087v-1.208h-3.087v1.208zm3.242 0h3.087v-1.208h-3.087v1.208zm-3.242-3.028h3.087v-1.207h-3.087v1.207zm3.242 0h3.087v-1.207h-3.087v1.207zm-3.242-3.155h3.087v-1.207h-3.087v1.207zm3.242 0h3.087v-1.207h-3.087v1.207zm-3.242-3.027h3.087v-1.207h-3.087v1.207zm3.242 0h3.087v-1.207h-3.087v1.207zm-3.242-3.026h3.087v-1.208h-3.087v1.208zm3.242 0h3.087v-1.208h-3.087v1.208zm-3.242-3.019h3.087v-1.208h-3.087v1.208zm3.242 0h3.087v-1.208h-3.087v1.208zm-3.242-3.167h3.087v-1.208h-3.087v1.208zm3.242 0h3.087v-1.208h-3.087v1.208z"/></g><path d="M182.631 95.643h-8.724v2.415h8.724v-2.415z" fill="#7c93a5"/><path d="M161.293 63.718h-13.286v80.5h13.286v-80.5z" fill="#5ea7df"/><path d="M161.161 40.778h-14.36v19.991l1.208 2.952h13.152V40.778z" fill="#4489be"/><path d="M161.303 144.254h6.576v-80.5h-6.576v80.5z" fill="#2470ab"/><path d="M161.159 40.779h7.784v19.991l-1.073 2.952h-6.711V40.779z" fill="#085189"/><path d="M153.512 38.357h-.402l-2.55-11.404h.402l2.55 11.404z" fill="#4489be"/><use xlink:href="#P" fill="#fff"/><path d="M154.851 39.164c.134.805-.268 1.476-1.073 1.61s-1.477-.268-1.611-1.073.268-1.476 1.074-1.61c.671-.134 1.476.268 1.61 1.073z" fill="#5ee3df"/><path d="M157.806 38.357h.268l2.55-11.404h-.268l-2.55 11.404z" fill="#4489be"/><path d="M156.331 39.164c-.134.805.269 1.476 1.074 1.61s1.476-.268 1.61-1.073-.268-1.476-1.073-1.61c-.671-.134-1.477.268-1.611 1.073z" fill="#5ee3df"/><g fill="#fff"><use xlink:href="#Q"/><use xlink:href="#R"/><path d="M153.646 58.482h-1.611v1.208h1.611v-1.208zm2.279 0h-1.611v1.208h1.611v-1.208zm2.283 0h-1.61v1.208h1.61v-1.208zm2.418 0h-1.61v1.208h1.61v-1.208zm2.817 0h-1.611v1.208h1.611v-1.208zm2.416 0h-1.61v1.208h1.61v-1.208zm2.281 0h-1.611v1.208h1.611v-1.208zm-19.192-3.89h-1.61V55.8h1.61v-1.208zm2.281 0h-1.611V55.8h1.611v-1.208zm2.416 0h-1.611V55.8h1.611v-1.208zm2.28 0h-1.611V55.8h1.611v-1.208zm2.284 0h-1.61V55.8h1.61v-1.208zm2.417 0h-1.61V55.8h1.61v-1.208zm2.818 0h-1.611V55.8h1.611v-1.208zm2.415 0h-1.61V55.8h1.61v-1.208zm2.281 0h-1.611V55.8h1.611v-1.208zm-19.192-4.026h-1.61v1.207h1.61v-1.207zm2.281-.001h-1.611v1.208h1.611v-1.208z"/><use xlink:href="#S"/><path d="M155.925 50.565h-1.611v1.208h1.611v-1.208zm2.283.001h-1.61v1.207h1.61v-1.207zm2.418-.001h-1.61v1.208h1.61v-1.208zm2.817.001h-1.611v1.207h1.611v-1.207zm2.416-.001h-1.61v1.208h1.61v-1.208zm2.281.001h-1.611v1.207h1.611v-1.207zm-19.192-3.894h-1.61v1.207h1.61v-1.207zm2.281-.001h-1.611v1.207h1.611v-1.207zm2.417.001h-1.611v1.207h1.611v-1.207zm2.279-.001h-1.611v1.207h1.611v-1.207zm2.283.001h-1.61v1.207h1.61v-1.207zm2.418-.001h-1.61v1.207h1.61v-1.207zm2.817.001h-1.611v1.207h1.611v-1.207zm2.416-.001h-1.61v1.207h1.61v-1.207zm2.281.001h-1.611v1.207h1.611v-1.207zm-19.192-3.886h-1.61v1.208h1.61v-1.208zm2.281 0h-1.611v1.208h1.611v-1.208zm2.416 0h-1.611v1.208h1.611v-1.208zm2.28 0h-1.611v1.208h1.611v-1.208zm2.284 0h-1.61v1.208h1.61v-1.208zm2.417 0h-1.61v1.208h1.61v-1.208zm2.818 0h-1.611v1.208h1.611v-1.208zm2.415 0h-1.61v1.208h1.61v-1.208zm2.281 0h-1.611v1.208h1.611v-1.208z"/><use xlink:href="#T"/><path d="M167.469 66.534h-5.906v1.208h5.906v-1.208z"/><use xlink:href="#U"/><use xlink:href="#V"/><path d="M167.469 70.289h-5.906v1.207h5.906v-1.207zm-13.153 3.621h-5.905v1.208h5.905V73.91zm6.577 0h-5.906v1.208h5.906V73.91zm6.576 0h-5.906v1.208h5.906V73.91zm-13.153 3.621h-5.905v1.207h5.905v-1.207zm6.577 0h-5.906v1.207h5.906v-1.207zm6.576 0h-5.906v1.207h5.906v-1.207zm-13.152 3.626h-5.905v1.208h5.905v-1.208zm6.576 0h-5.905v1.208h5.905v-1.208zm6.577 0h-5.906v1.208h5.906v-1.208zm-13.154 3.757h-5.905v1.207h5.905v-1.207zm6.577 0h-5.906v1.207h5.906v-1.207zm6.576 0h-5.906v1.207h5.906v-1.207zm-13.153 3.625h-5.905v1.207h5.905v-1.207zm6.577 0h-5.906v1.207h5.906v-1.207zm6.576 0h-5.906v1.207h5.906v-1.207zm-13.153 3.619h-5.905v1.207h5.905v-1.207zm6.577 0h-5.906v1.207h5.906v-1.207zm6.576 0h-5.906v1.207h5.906v-1.207zm-13.153 3.757h-5.905v1.207h5.905v-1.207zm6.577 0h-5.906v1.207h5.906v-1.207zm6.576 0h-5.906v1.207h5.906v-1.207zm-13.152 3.622h-5.905v1.207h5.905v-1.207zm6.576 0h-5.905v1.207h5.905v-1.207zm6.577 0h-5.906v1.207h5.906v-1.207zm-13.154 3.625h-5.905v1.208h5.905v-1.208zm6.577 0h-5.906v1.208h5.906v-1.208zm6.576 0h-5.906v1.208h5.906v-1.208zm-13.153 3.622h-5.905v1.207h5.905v-1.207zm6.577 0h-5.906v1.207h5.906v-1.207zm6.576 0h-5.906v1.207h5.906v-1.207zm-13.152 3.754h-5.905v1.207h5.905v-1.207zm6.576 0h-5.905v1.207h5.905v-1.207zm6.577 0h-5.906v1.207h5.906v-1.207zm-13.153 3.625h-5.905v1.208h5.905v-1.208zm6.576 0h-5.905v1.208h5.905v-1.208zm6.577 0h-5.906v1.208h5.906v-1.208zm-13.154 3.618h-5.905v1.208h5.905v-1.208zm6.577 0h-5.906v1.208h5.906v-1.208zm6.576 0h-5.906v1.208h5.906v-1.208zm-13.153 3.761h-5.905v1.208h5.905v-1.208zm6.577 0h-5.906v1.208h5.906v-1.208zm6.576 0h-5.906v1.208h5.906v-1.208zm-13.152 3.618h-5.905v1.208h5.905v-1.208zm6.576 0h-5.905v1.208h5.905v-1.208zm6.577 0h-5.906v1.208h5.906v-1.208zm-13.154 3.629h-5.905v1.207h5.905v-1.207zm6.577 0h-5.906v1.207h5.906v-1.207zm6.576 0h-5.906v1.207h5.906v-1.207zm-13.153 3.751h-5.905v1.207h5.905v-1.207zm6.577 0h-5.906v1.207h5.906v-1.207zm6.576 0h-5.906v1.207h5.906v-1.207zm-13.153 3.625h-5.905v1.208h5.905v-1.208zm6.577 0h-5.906v1.208h5.906v-1.208zm6.576 0h-5.906v1.208h5.906v-1.208zm-13.152 3.622h-5.905v1.207h5.905v-1.207zm6.576 0h-5.905v1.207h5.905v-1.207zm6.577 0h-5.906v1.207h5.906v-1.207z"/></g><path d="M104.791 91.344v26.431 26.431h16.239v-26.431-26.431h-16.239z" fill="#b9d2e6"/><path d="M114.723 91.344v26.431 26.431h6.307v-26.431-26.431h-6.307z" fill="#98b1c5"/><g fill="#6e879b"><use xlink:href="#W"/><path d="M117.272 118.718h-.939v1.475h.939v-1.475z"/><use xlink:href="#X"/><use xlink:href="#Y"/><use xlink:href="#Z"/><path d="M109.758 118.718h-.94v1.476h.94v-1.476zm1.074 0h-.939v1.476h.939v-1.476zm-2.284 0h-.94v1.476h.94v-1.476zm-1.074 0h-.94v1.476h.94v-1.476zm-1.206 0h-.94v1.475h.94v-1.475zm5.77 0h-.939v1.475h.939v-1.475zm1.074 0h-.939v1.475h.939v-1.475zm1.206 0h-.939v1.476h.939v-1.476zm1.747 3.085h-.939v1.476h.939v-1.476zm1.207 0h-.94v1.476h.94v-1.476zm1.074 0h-.94v1.476h.94v-1.476zm1.206 0h-.94v1.476h.94v-1.476zm1.074 0h-.939v1.476h.939v-1.476zm-10.868 0h-.94v1.476h.94v-1.476zm1.074 0h-.939v1.476h.939v-1.476zm-2.284 0h-.94v1.476h.94v-1.476zm-1.074 0h-.94v1.476h.94v-1.476zm-1.206 0h-.94v1.476h.94v-1.476zm5.77 0h-.939v1.476h.939v-1.476zm1.074 0h-.939v1.476h.939v-1.476zm1.206 0h-.939v1.476h.939v-1.476zm1.746 3.217h-.939v1.476h.939v-1.476zm1.208 0h-.939v1.476h.939v-1.476zm1.074 0h-.94v1.476h.94v-1.476zm1.206 0h-.94v1.475h.94v-1.475zm1.074 0h-.939v1.475h.939v-1.475zm-10.868 0h-.94v1.475h.94v-1.475zm1.074 0h-.939v1.475h.939v-1.475zm-2.284 0h-.94v1.475h.94v-1.475zm-1.074 0h-.94v1.475h.94v-1.475zm-1.206 0h-.94v1.476h.94v-1.476zm5.77 0h-.939v1.476h.939v-1.476zm1.074 0h-.939v1.476h.939v-1.476zm1.206 0h-.939v1.475h.939v-1.475zm1.746 3.092h-.939v1.476h.939v-1.476zm1.208 0h-.939v1.476h.939v-1.476zm1.074 0h-.94v1.476h.94v-1.476zm1.206.001h-.94v1.475h.94v-1.475zm1.074 0h-.939v1.475h.939v-1.475zm-10.868 0h-.94v1.475h.94v-1.475zm1.074 0h-.939v1.475h.939v-1.475zm-2.284 0h-.94v1.475h.94v-1.475zm-1.074 0h-.94v1.475h.94v-1.475zm-1.206-.001h-.94v1.476h.94v-1.476zm5.77 0h-.939v1.476h.939v-1.476zm1.074 0h-.939v1.476h.939v-1.476zm1.206.001h-.939v1.475h.939v-1.475zm1.746 3.216h-.939v1.476h.939v-1.476zm1.208 0h-.939v1.476h.939v-1.476zm1.074 0h-.94v1.476h.94v-1.476zm1.206 0h-.94v1.476h.94v-1.476zm1.074 0h-.939v1.476h.939v-1.476zm-10.868 0h-.94v1.476h.94v-1.476zm1.074 0h-.939v1.476h.939v-1.476zm-2.284 0h-.94v1.476h.94v-1.476zm-1.074 0h-.94v1.476h.94v-1.476zm-1.206 0h-.94v1.476h.94v-1.476zm5.77 0h-.939v1.476h.939v-1.476zm1.074 0h-.939v1.476h.939v-1.476zm1.206 0h-.939v1.476h.939v-1.476zm1.746 3.081h-.939v1.476h.939v-1.476zm1.208 0h-.939v1.476h.939v-1.476zm1.074 0h-.94v1.476h.94v-1.476zm1.206 0h-.94v1.476h.94v-1.476zm1.074 0h-.939v1.476h.939v-1.476zm-10.868 0h-.94v1.476h.94v-1.476zm1.074 0h-.939v1.476h.939v-1.476zm-2.284 0h-.94v1.476h.94v-1.476zm-1.074 0h-.94v1.476h.94v-1.476zm-1.206 0h-.94v1.476h.94v-1.476zm5.77 0h-.939v1.476h.939v-1.476zm1.074 0h-.939v1.476h.939v-1.476zm1.206 0h-.939v1.476h.939v-1.476zm1.747 3.093h-.939v1.476h.939v-1.476zm1.207 0h-.94v1.476h.94v-1.476zm1.074 0h-.94v1.476h.94v-1.476zm1.206 0h-.94v1.476h.94v-1.476zm1.074 0h-.939v1.476h.939v-1.476zm-10.868 0h-.94v1.476h.94v-1.476zm1.074 0h-.939v1.476h.939v-1.476zm-2.284 0h-.94v1.476h.94v-1.476zm-1.074 0h-.94v1.476h.94v-1.476zm-1.206 0h-.94v1.476h.94v-1.476zm5.77 0h-.939v1.476h.939v-1.476zm1.074 0h-.939v1.476h.939v-1.476zm1.206 0h-.939v1.476h.939v-1.476zm1.746 3.22h-.939v1.476h.939v-1.476zm1.208 0h-.939v1.476h.939v-1.476zm1.074 0h-.94v1.476h.94v-1.476zm1.206.001h-.94v1.476h.94v-1.476zm1.074 0h-.939v1.476h.939v-1.476zm-10.868 0h-.94v1.476h.94v-1.476zm1.074 0h-.939v1.476h.939v-1.476zm-2.284 0h-.94v1.476h.94v-1.476zm-1.074 0h-.94v1.476h.94v-1.476zm-1.206-.001h-.94v1.476h.94v-1.476zm5.77 0h-.939v1.476h.939v-1.476zm1.074 0h-.939v1.476h.939v-1.476zm1.206.001h-.939v1.476h.939v-1.476zm1.747-47.097h-.939v1.476h.939v-1.476zm1.207 0h-.94v1.476h.94v-1.476zm1.074 0h-.94v1.476h.94v-1.476zm1.206 0h-.94v1.476h.94v-1.476zm1.074 0h-.939v1.476h.939v-1.476zm-10.868 0h-.94v1.476h.94v-1.476zm1.074 0h-.939v1.476h.939v-1.476zm-2.284 0h-.94v1.476h.94v-1.476zm-1.074 0h-.94v1.476h.94v-1.476zm-1.206 0h-.94v1.476h.94v-1.476zm5.77 0h-.939v1.476h.939v-1.476zm1.074 0h-.939v1.476h.939v-1.476zm1.206 0h-.939v1.476h.939v-1.476zm1.746 3.221h-.939v1.476h.939v-1.476zm1.208 0h-.939v1.476h.939v-1.476zm1.074 0h-.94v1.476h.94v-1.476zm1.206 0h-.94v1.476h.94v-1.476zm1.074 0h-.939v1.476h.939v-1.476zm-10.868 0h-.94v1.476h.94v-1.476zm1.074 0h-.939v1.476h.939v-1.476zm-2.284 0h-.94v1.476h.94v-1.476zm-1.074 0h-.94v1.476h.94v-1.476zm-1.206 0h-.94v1.476h.94v-1.476zm5.77 0h-.939v1.476h.939v-1.476zm1.074 0h-.939v1.476h.939v-1.476zm1.206 0h-.939v1.476h.939v-1.476zm1.746 3.081h-.939v1.476h.939v-1.476zm1.208 0h-.939v1.476h.939v-1.476zm1.074 0h-.94v1.476h.94v-1.476z"/><path d="M119.552 99.929h-.94v1.476h.94v-1.476zm1.074 0h-.939v1.476h.939v-1.476zm-10.868 0h-.94v1.476h.94v-1.476zm1.074 0h-.939v1.476h.939v-1.476zm-2.284 0h-.94v1.476h.94v-1.476zm-1.074 0h-.94v1.476h.94v-1.476zm-1.206 0h-.94v1.476h.94v-1.476zm5.77 0h-.939v1.476h.939v-1.476zm1.074 0h-.939v1.476h.939v-1.476zm1.206 0h-.939v1.476h.939v-1.476zm1.746 3.092h-.939v1.476h.939v-1.476zm1.208 0h-.939v1.476h.939v-1.476zm1.074 0h-.94v1.476h.94v-1.476zm1.206.001h-.94v1.476h.94v-1.476zm1.074 0h-.939v1.476h.939v-1.476zm-10.868 0h-.94v1.476h.94v-1.476zm1.074 0h-.939v1.476h.939v-1.476zm-2.284 0h-.94v1.476h.94v-1.476zm-1.074 0h-.94v1.476h.94v-1.476zm-1.206-.001h-.94v1.476h.94v-1.476zm5.77 0h-.939v1.476h.939v-1.476zm1.074 0h-.939v1.476h.939v-1.476zm1.206.001h-.939v1.476h.939v-1.476zm1.746 3.22h-.939v1.476h.939v-1.476zm1.208 0h-.939v1.476h.939v-1.476zm1.074 0h-.94v1.476h.94v-1.476zm1.206.001h-.94v1.476h.94v-1.476zm1.074 0h-.939v1.476h.939v-1.476zm-10.868 0h-.94v1.476h.94v-1.476zm1.074 0h-.939v1.476h.939v-1.476zm-2.284 0h-.94v1.476h.94v-1.476zm-1.074 0h-.94v1.476h.94v-1.476zm-1.206-.001h-.94v1.476h.94v-1.476zm5.77 0h-.939v1.476h.939v-1.476zm1.074 0h-.939v1.476h.939v-1.476zm1.206.001h-.939v1.476h.939v-1.476zm1.746 3.08h-.939v1.476h.939v-1.476zm1.208 0h-.939v1.476h.939v-1.476zm1.074 0h-.94v1.476h.94v-1.476zm1.206 0h-.94v1.476h.94v-1.476zm1.074 0h-.939v1.476h.939v-1.476zm-10.868 0h-.94v1.476h.94v-1.476zm1.074 0h-.939v1.476h.939v-1.476zm-2.284 0h-.94v1.476h.94v-1.476zm-1.074 0h-.94v1.476h.94v-1.476zm-1.206 0h-.94v1.476h.94v-1.476zm5.77 0h-.939v1.476h.939v-1.476zm1.074 0h-.939v1.476h.939v-1.476zm1.206 0h-.939v1.476h.939v-1.476zm1.747 3.085h-.939v1.476h.939v-1.476zm1.207 0h-.94v1.476h.94v-1.476zm1.074 0h-.94v1.476h.94v-1.476zm1.206 0h-.94v1.476h.94v-1.476zm1.074 0h-.939v1.476h.939v-1.476zm-10.868 0h-.94v1.476h.94v-1.476zm1.074 0h-.939v1.476h.939v-1.476zm-2.284 0h-.94v1.476h.94v-1.476zm-1.074 0h-.94v1.476h.94v-1.476zm-1.206 0h-.94v1.476h.94v-1.476zm5.77 0h-.939v1.476h.939v-1.476zm1.074 0h-.939v1.476h.939v-1.476zm1.206 0h-.939v1.476h.939v-1.476zm1.746 3.218h-.939v1.476h.939v-1.476zm1.208 0h-.939v1.476h.939v-1.476zm1.074 0h-.94v1.476h.94v-1.476zm1.206-.001h-.94v1.476h.94v-1.476zm1.074 0h-.939v1.476h.939v-1.476zm-10.868 0h-.94v1.476h.94v-1.476zm1.074 0h-.939v1.476h.939v-1.476zm-2.284 0h-.94v1.476h.94v-1.476zm-1.074 0h-.94v1.476h.94v-1.476zm-1.206.001h-.94v1.476h.94v-1.476zm5.77 0h-.939v1.476h.939v-1.476zm1.074 0h-.939v1.476h.939v-1.476zm1.206-.001h-.939v1.476h.939v-1.476z"/></g><path d="M72.581 60.894H55.94v32.334h16.642V60.894z" fill="#ba5c61"/><g fill="#fff"><path d="M56.588 64.582v28.712h1.074V64.582h-1.074zm1.78.033v28.712h1.074V64.615h-1.074zm1.778.033V93.36h1.074V64.648h-1.074zm1.78-.099v28.712H63V64.549h-1.074zm1.779.037v28.712h1.074V64.586h-1.074zm1.78.029v28.712h1.074V64.615h-1.074zm1.777.037v28.712h1.074V64.652h-1.074zm1.78-.099v28.712h1.074V64.553h-1.074zm1.78.037v28.712h1.074V64.59h-1.074z"/></g><path d="M106.133 72.03l5.1-7.647 8.723 3.488-9.931 17.039-1.476-.537-1.208-1.61c.134-.403.537-2.549.537-3.22-.269-.403-1.074-4.83-1.745-7.513z" fill="#5ea7df"/><path d="M108.681 84.242l-1.207-1.476.536-3.086c0-.403-.536-2.952-1.476-7.513l4.832-7.379 8.186 3.22-9.663 16.637-1.208-.403z" fill="#fff"/><path d="M111.234 136.161h-.403l-1.073-12.745.805-1.342-1.074-8.587.671-1.207-.402-3.355 1.744-1.61-2.952-22.808-1.208-1.61c.134-.402.537-2.549.537-3.22 0-.537-.94-4.964-1.477-7.647l2.148-3.22-2.684-2.147-2.953-8.855c-.671-.939-1.745-1.878-3.489-2.683l-1.476-5.635s.671-.537.671-1.208c0-.537-.939-3.354-1.208-4.025 1.61 0 1.611-.134 1.611-.268.134-.268-.268-1.878-.537-2.952l6.845-.403-6.845-1.208V38.22l6.442-2.549-6.845 1.207c0-.134-.134-.268-.134-.403-.134-.402-.403-.805-.805-1.073l4.966-4.83-5.771 4.159a5.75 5.75 0 0 0-2.282-.805v-6.44l-1.745 6.44c-.939 0-1.879.268-2.684.537l-4.429-4.159 2.953 5.233c-.403.268-.671.671-.94 1.073 0 .134-.134.134-.134.268l-4.295-.134v.671l3.624.939c-.134.268-.134.537-.269.805 0 0-.403 2.147-.268 5.769-.537-.671-2.953-6.843-3.355-6.977-.134 0-.268-.134-.403-.134-1.208 0-4.563 1.61-4.697 1.744s-3.355 4.159-3.49 7.648c-.134 3.086 1.745 5.635 2.147 6.038-.134.402-.805 2.147-.537 2.817s2.013 1.61 2.55 1.878c-.134.402-.537 1.61-.537 2.683 0 .671.134 1.342.134 1.476-.134.134-.403.537-.805.805-.537.537 0 1.61.671 2.683.537.939 1.342 1.744 1.611 1.878 0 .134.134.939.403 2.013s.805 1.476 1.208 1.61c-.403.537-1.476 2.147-2.953 4.83-1.342 2.415-1.074 4.159-.805 5.098.268.671.537 1.207.939 1.476.134.134.403.134.805.134.805 0 1.611-.268 2.013-.403v2.952c-.268.403-2.416 4.428-2.55 6.038-.134 1.342.939 2.012 1.342 2.147-.134.402-.268 2.013-.134 3.354s.671 1.878.805 2.147l.134 3.354c.134 2.013.268 3.086.403 3.22-.268.537-1.745 4.025-1.476 4.696.134.537.403.671.671.671-.268.537-1.208 2.415-1.745 4.964-.671 2.952-.403 9.526-.403 10.197-.134.268-.939 1.073-.805 1.61s.671 1.61.805 1.878l-1.074 6.574h-.671-1.879v4.159h1.879 35.163 1.879v-4.159h-1.879v.134z" fill="#5ea7df"/><g fill="#fff"><path d="M96.604 46.678c-.537 1.342-1.745 3.086-3.355 3.086-.403 0-.671 0-1.074-.134h-.268c-1.208-.268-2.282-.939-3.087-2.415-.939-1.476-1.342-3.622-1.476-4.562.134 0 .403-.134.537-.134.805-.268 3.892-1.342 4.429-2.415.134-.268.268-.537.268-.939h.134c0 .268.134.402.268.671.805 1.073 3.624 2.147 4.429 2.147 0 0-.268 2.952-.805 4.696zm-4.162-12.081c5.771 0 5.637 5.769 5.637 5.769l-.403.402v-.402c0-.403-.134-.939-.403-1.61.134-.268.403-.537.269-.671 0 0-.268.134-.403.402-.134-.134-.134-.268-.268-.402.134-.537.403-.939.268-1.208-.134-.134-.403.268-.671.805l-.268-.268c.134-.671.537-1.073.268-1.342-.134-.134-.403.268-.671 1.073-.134 0-.269-.134-.269-.134.134-.805.403-1.207.269-1.476-.134-.134-.537.268-.805 1.208-.134 0-.134 0-.268-.134 0-.805.403-1.476 0-1.61-.269-.134-.537.537-.671 1.476h-.403c0-.805.134-1.61-.268-1.744-.268-.134-.537.939-.537 1.744h-.269-.403c0-.805-.268-1.744-.537-1.744-.403.134-.268 1.073-.268 1.878-.134 0-.268 0-.403.134-.134-.805-.403-1.744-.671-1.61-.403.134 0 1.073 0 1.744-.134 0-.268.134-.403.134-.134-.939-.537-1.476-.805-1.342-.403.134.134.805.268 1.61-.134 0-.134.134-.268.134-.403-.805-.805-1.208-.939-1.073-.134.268.134.671.403 1.476l-.268.268c-.403-.671-.805-1.073-.805-.939-.134.268.268.671.537 1.342l-.268.268c-.403-.537-.671-.939-.805-.805s.268.671.537 1.207c0 .134-.134.134-.134.268-.268-.403-.671-.671-.671-.537-.134.134.268.537.537.805 0 .134-.134.134-.134.268-.268-.268-.537-.537-.671-.402s.268.402.537.671c-.537 1.207-.805 2.147-.805 2.147L86 41.037c0 .268.671-6.44 6.442-6.44z"/></g><g fill="#5ea7df"><path d="M94.993 41.712c-.805 0-1.476.805-1.342.939s.403.403 1.208.403 1.476-.537 1.476-.537-.403-.805-1.342-.805zm-4.427 0c-.939 0-1.208.805-1.208.805a1.66 1.66 0 0 0 1.476.537c.805 0 1.074-.403 1.208-.403 0-.134-.671-.939-1.476-.939z"/><path d="M91.502 44.93c0 .402.268.671.403.671s.268-.134.268-.134l.537.134.537-.134a.47.47 0 0 0 .268.134c.134 0 .403-.268.403-.671s-.403-.671-.403-.671-.268-.939-.134-1.61v-1.073s-.134.134-.268.537v2.147c0 .268.134.402.134.671s-.269.402-.537.402-.537-.134-.537-.402.134-.403.134-.671v-2.147c0-.268-.268-.537-.268-.537v1.073c0 .671-.134 1.61-.134 1.61s-.268.268-.403.671zm1.344 1.341c-.134 0-.403-.268-.671-.268s-1.074.671-1.074.671 0 .134.134 0c.134 0 .403-.268.805-.402s.671.134.671.134.269-.268.671-.134.671.402.805.402h.134s-.805-.671-1.074-.671c-.134 0-.403.268-.403.268z"/><path d="M92.847 47.078c-.403 0-.805 0-.939-.134l-.268-.268a1.93 1.93 0 0 0 .268.402c.134.134 1.074.134 1.074.134l1.074-.134c.134-.134.268-.402.268-.402l-.268.268c-.537.134-.939.134-1.208.134zm-14.63-21.062c-.403 0-.805 0-.939-.268-.134-.134-.268-.268-.537-3.086l-1.745-8.184c0-.134 0-.134.134-.268 0 0 .805-.402 2.55-.537h.403c1.342 0 2.013.402 2.013.402l.134.134.134 4.696v.134 1.744.402.134 3.757c0 .268-.134.537-.805.671-.403.268-.94.268-1.342.268z"/><path d="M82.645 13.128c0 .805-2.282 1.61-5.1 1.744-2.953.134-5.234-.402-5.234-1.342 0-.805 2.282-1.61 5.1-1.744s5.1.537 5.234 1.342z"/><path d="M75.533 17.161s-.939-.402-1.074-1.476c-.134-.671.403-1.073.671-1.207h.268c.268 0 .537.134.671.268s.134.402.134.537c0 .268-.268.537-.403.671l.269 1.342-.537-.134z"/></g><path d="M75.132 14.878c.268-.134.671.134.671.402-.134.268-.403.671-.403.671l.134.939s-.805-.268-.939-1.208c0-.671.537-.805.537-.805z" fill="#fff"/><g fill="#5ea7df"><path d="M77.278 11.523c2.55-.134 4.697.402 5.234 1.073.268-1.744-2.55-2.549-5.1-2.415-2.684.134-5.503 1.073-5.1 2.818.403-.805 2.416-1.476 4.966-1.476zM74.46 5.619c-.134-.939.537-1.61.537-1.744.134-.805-.671-1.342-.671-1.342s.671-.134 1.074 0 .537.268.537.268 0-.537.403-1.073 1.074-.537 1.074-.537c-.269.403-.403.939-.403 1.476.403-.805.671-1.208 1.476-1.61 0 .134-.403 1.342-.134 1.744.269.537.805 1.073.939 2.147 0 1.207-.268 1.61-1.074 2.147-.537.402-2.013.671-2.953.134-.537-.134-.805-.939-.805-1.61z"/><path d="M78.351 7.764l-.134.134c-.537.402-1.745.537-2.684.268l.134 2.281c.537-.134 1.074-.134 1.611-.134h1.208l-.134-2.549zm35.698 69.635c-.402-.671-1.342-2.415-.537-3.086-.134-.134-.268-.403-.268-.537 0-.268.134-.403.268-.537s.269-.134.537-.134c0-.268.134-.805.671-.939h.269c.268 0 .671.134.939.268-.134-.134-.134-.134-.134-.268 0-.268-.134-.671.134-1.073.134-.134.269-.268.537-.268h.268c.806.268 2.416 2.147 2.55 2.952.135 1.073-2.684 4.427-2.818 4.696-1.208 1.342-3.489 2.281-3.624 2.281l-.805.268 2.013-3.623z"/></g><path d="M113.783 74.448c.268-.268 1.879 2.013 1.879 2.013.134 0-.269-1.073-.806-1.61-.402-.537-1.073-.671-1.342-.805-.134-.134-.268-.537 0-.671s1.208 0 1.745.134c.403.268 1.61 1.476 1.61 1.476v-.268s-.939-1.073-1.342-1.342c-.402-.134-1.342-.537-1.342-.537s0-.537.537-.671 1.208.134 1.879.537c.805.537 1.208 1.207 1.208 1.207l-.134-.537s-1.477-1.208-1.611-1.61-.134-1.073.671-.939c.671.134 2.148 2.013 2.282 2.683s-1.611 3.086-2.819 4.428c-1.073 1.342-3.489 2.281-3.489 2.281l1.611-2.818c.134 0-1.477-2.281-.537-2.952z" fill="#fff"/><g fill="#5ea7df"><path d="M77.546 43.183c-.134-.805-.134-1.744-.268-1.878-.134-.268-.134-.402-.268-.537-.268-.402-.537-.939-.671-3.488-.268-3.623 0-12.209 0-12.88 0-.134-.403-.671-.671-.939-.537-.671-1.208-1.342-1.074-2.147s.403-1.207.537-1.476c-.268-.268-.403-.537-.403-.805 0-.134.134-.402.134-.537-.134-.134-.403-.403-.403-.805 0-.939.939-1.073 1.879-1.207h.805c.805 0 1.208.134 1.342.403.134-.402.403-.805.805-.805h.134a1.62 1.62 0 0 1 .671.671c.134.134.134.268.268.402.268.268 1.208 1.476 1.208 2.683 0 .537-.134 1.342-.269 2.415s-.403 2.281-.403 3.22c0 1.073.403 3.086.671 5.098.268 1.342.537 2.549.537 3.354l.671 8.721c0 .134.134 2.818-1.476 5.501s-2.818 3.891-2.818 3.891l-.403.402-.537-9.257z"/><path d="M77.679 25.473c.134 0 .403.134.671.134.805 0 1.476-.268 1.476-.537.134-.939.134-4.293 0-5.769v.134c-.134.268-.268.268-.268.268h-.269-.403c.134.268.268.537.268.671a.58.58 0 0 1-.537.537h-.537c-.939 0-1.074.134-1.074.134-.268.537.403 3.891.671 4.428z"/></g><path d="M81.306 47.884c1.611-2.683 1.476-5.367 1.476-5.367l-.671-8.721c-.134-1.744-1.342-6.574-1.208-8.318 0-1.744.671-4.427.671-5.501s-.94-2.147-1.208-2.415-.403-.939-.805-.939c-.268-.134-.671.537-.671.805s.537.939.939 1.476.268 5.769.134 6.44c-.134.805-2.013.939-2.684.537-.134 0-1.074-4.159-.939-4.562s1.476-.268 1.879-.268c.268 0 .268-.671-.268-.939-.268-.134-1.879-.268-1.879-.268s.268-.134 1.342-.134 1.476.134 1.745 0 .268-.805.134-.939-.268-.268-.939-.403-2.282 0-2.282 0v-.134l2.147-.268c.268 0 .268-.537.134-.805 0-.134-.671-.268-1.879-.268-1.208.134-1.611.268-1.611.939 0 .537.537.671.537.671s-.268.268-.403.671c0 .402.537.805.537.805s-.671.402-.805 1.476c-.134 1.207 1.745 2.415 1.745 3.086s-.268 9.258 0 12.88c.134 3.488.537 2.952.94 3.891.134.268.268 1.878.268 1.878l.671 8.587c.134-.134 1.342-1.207 2.953-3.891z" fill="#fff"/><path d="M113.111 136.165H74.19v12.075h38.921v-12.075z" fill="#edbd7b"/><path opacity=".51" d="M111.231 136.161h-.402l-1.074-12.745.805-1.342-1.073-8.587.671-1.207-.403-3.355 1.745-1.61-2.953-22.808 1.342.537 2.55-4.428.403-.134c.134 0 2.416-.939 3.623-2.281.135-.134 2.953-3.488 2.819-4.696-.134-.537-.671-1.476-1.342-2.147l2.013-3.488-8.724-3.488-2.952 4.428-2.55-2.147-2.953-8.855c-.671-.939-1.745-1.878-3.489-2.683l-1.476-5.635s.671-.537.671-1.208c0-.537-.939-3.354-1.208-4.025 1.611 0 1.611-.134 1.611-.268.134-.268-.268-1.878-.537-2.952l6.845-.403-6.845-1.208V38.22l6.442-2.549-6.844 1.207c0-.134-.134-.268-.134-.403-.134-.402-.403-.805-.805-1.073l4.966-4.83-5.771 4.159c-.671-.403-1.342-.671-2.281-.805v-6.44l-1.074 3.891v116.591h20.131v-12.075h-1.745v.268z" fill="#2a7ebf"/><path d="M20.643 48.148H6.148v96.198h14.495V48.148z" fill="#315c75"/><path d="M31.915 48.148H20.775v96.198h11.139V48.148z" fill="#19425a"/><path d="M27.487 45.332H9.234v2.683h18.252v-2.683z" fill="#607687"/><g fill="#fff"><use xlink:href="#a"/><use xlink:href="#b"/><path d="M16.483 49.627h-2.684v1.476h2.684v-1.476zm3.622 0h-2.684v1.476h2.684v-1.476zm4.027 0h-2.684v1.476h2.684v-1.476zm3.624 0h-2.684v1.476h2.684v-1.476zm3.623 0h-2.684v1.476h2.684v-1.476zM9.37 53.782H6.686v1.476H9.37v-1.476zm3.623 0h-2.684v1.476h2.684v-1.476zm3.489 0h-2.684v1.476h2.684v-1.476zm3.624 0h-2.684v1.476h2.684v-1.476zm4.026 0h-2.684v1.476h2.684v-1.476zm3.624 0h-2.684v1.476h2.684v-1.476zm3.623-.001h-2.684v1.476h2.684v-1.476zM9.37 57.811H6.686v1.476H9.37v-1.476zm3.622 0h-2.684v1.476h2.684v-1.476zm3.491 0h-2.684v1.476h2.684v-1.476zm3.622 0h-2.684v1.476h2.684v-1.476zm4.027 0h-2.684v1.476h2.684v-1.476zm3.624 0h-2.684v1.476h2.684v-1.476zm3.623 0h-2.684v1.476h2.684v-1.476zM9.37 61.97H6.686v1.476H9.37V61.97z"/><use xlink:href="#c"/><path d="M16.483 61.97h-2.684v1.476h2.684V61.97zm3.622 0h-2.684v1.476h2.684V61.97zm4.027 0h-2.684v1.476h2.684V61.97zm3.624 0h-2.684v1.476h2.684V61.97zm3.623 0h-2.684v1.476h2.684V61.97zM9.37 66.128H6.686v1.476H9.37v-1.476zm3.622 0h-2.684v1.476h2.684v-1.476zm3.491 0h-2.684v1.476h2.684v-1.476zm3.622 0h-2.684v1.476h2.684v-1.476zm4.027 0h-2.684v1.476h2.684v-1.476zm3.624 0h-2.684v1.476h2.684v-1.476zm3.623 0h-2.684v1.476h2.684v-1.476zM9.37 70.154H6.686v1.476H9.37v-1.476zm3.623 0h-2.684v1.476h2.684v-1.476zm3.489 0h-2.684v1.476h2.684v-1.476zm3.624 0h-2.684v1.476h2.684v-1.476zm4.026 0h-2.684v1.476h2.684v-1.476zm3.624 0h-2.684v1.476h2.684v-1.476zm3.623 0h-2.684v1.476h2.684v-1.476zM9.37 74.309H6.686v1.476H9.37v-1.476zm3.622 0h-2.684v1.476h2.684v-1.476zm3.491 0h-2.684v1.476h2.684v-1.476zm3.622 0h-2.684v1.476h2.684v-1.476zm4.027 0h-2.684v1.476h2.684v-1.476zm3.624 0h-2.684v1.476h2.684v-1.476zm3.623 0h-2.684v1.476h2.684v-1.476zM9.37 78.339H6.686v1.476H9.37v-1.476zm3.622 0h-2.684v1.476h2.684v-1.476zm3.491 0h-2.684v1.476h2.684v-1.476zm3.622 0h-2.684v1.476h2.684v-1.476zm4.027 0h-2.684v1.476h2.684v-1.476zm3.624 0h-2.684v1.476h2.684v-1.476zm3.623 0h-2.684v1.476h2.684v-1.476zM9.37 82.497H6.686v1.476H9.37v-1.476zm3.622 0h-2.684v1.476h2.684v-1.476zm3.491 0h-2.684v1.476h2.684v-1.476zm3.622 0h-2.684v1.476h2.684v-1.476zm4.027 0h-2.684v1.476h2.684v-1.476zm3.624 0h-2.684v1.476h2.684v-1.476zm3.623 0h-2.684v1.476h2.684v-1.476zM9.37 86.656H6.686v1.476H9.37v-1.476zm3.622 0h-2.684v1.476h2.684v-1.476zm3.491 0h-2.684v1.476h2.684v-1.476zm3.622 0h-2.684v1.476h2.684v-1.476zm4.027 0h-2.684v1.476h2.684v-1.476zm3.624 0h-2.684v1.476h2.684v-1.476zm3.623 0h-2.684v1.476h2.684v-1.476zM9.37 90.682H6.686v1.476H9.37v-1.476zm3.622 0h-2.684v1.476h2.684v-1.476zm3.491 0h-2.684v1.476h2.684v-1.476zm3.622 0h-2.684v1.476h2.684v-1.476zm4.027 0h-2.684v1.476h2.684v-1.476zm3.624 0h-2.684v1.476h2.684v-1.476zm3.623 0h-2.684v1.476h2.684v-1.476zM9.37 94.841H6.686v1.476H9.37v-1.476zm3.623 0h-2.684v1.476h2.684v-1.476zm3.489 0h-2.684v1.476h2.684v-1.476zm3.624 0h-2.684v1.476h2.684v-1.476zm4.026 0h-2.684v1.476h2.684v-1.476zm3.624 0h-2.684v1.476h2.684v-1.476zm3.623-.001h-2.684v1.476h2.684V94.84zM9.37 98.862H6.686v1.476H9.37v-1.476zm3.622 0h-2.684v1.476h2.684v-1.476zm3.491 0h-2.684v1.476h2.684v-1.476zm3.622 0h-2.684v1.476h2.684v-1.476zm4.027 0h-2.684v1.476h2.684v-1.476zm3.624 0h-2.684v1.476h2.684v-1.476zm3.623 0h-2.684v1.476h2.684v-1.476zm-22.009 4.16H6.686v1.475H9.37v-1.475z"/><use xlink:href="#d"/><path d="M16.482 103.022h-2.684v1.475h2.684v-1.475zm3.624 0h-2.684v1.475h2.684v-1.475zm4.026 0h-2.684v1.475h2.684v-1.475zm3.624 0h-2.684v1.475h2.684v-1.475zm3.623-.001h-2.684v1.476h2.684v-1.476zM9.37 107.047H6.686v1.476H9.37v-1.476zm3.623 0h-2.684v1.476h2.684v-1.476zm3.489 0h-2.684v1.476h2.684v-1.476zm3.624 0h-2.684v1.476h2.684v-1.476zm4.026 0h-2.684v1.476h2.684v-1.476zm3.624 0h-2.684v1.476h2.684v-1.476zm3.623 0h-2.684v1.476h2.684v-1.476zM9.37 111.209H6.686v1.475H9.37v-1.475zm3.623 0h-2.684v1.475h2.684v-1.475zm3.489 0h-2.684v1.475h2.684v-1.475zm3.624 0h-2.684v1.475h2.684v-1.475zm4.026 0h-2.684v1.475h2.684v-1.475zm3.624 0h-2.684v1.475h2.684v-1.475zm3.623 0h-2.684v1.476h2.684v-1.476zM9.37 115.364H6.686v1.476H9.37v-1.476zm3.623 0h-2.684v1.476h2.684v-1.476zm3.489 0h-2.684v1.476h2.684v-1.476zm3.624 0h-2.684v1.476h2.684v-1.476zm4.026 0h-2.684v1.476h2.684v-1.476zm3.624 0h-2.684v1.476h2.684v-1.476zm3.623 0h-2.684v1.475h2.684v-1.475zm-22.009 4.03H6.686v1.476H9.37v-1.476zm3.623 0h-2.684v1.476h2.684v-1.476zm3.489 0h-2.684v1.476h2.684v-1.476zm3.624 0h-2.684v1.476h2.684v-1.476zm4.026 0h-2.684v1.476h2.684v-1.476zm3.624 0h-2.684v1.476h2.684v-1.476zm3.623 0h-2.684v1.476h2.684v-1.476zM9.37 123.553H6.686v1.476H9.37v-1.476zm3.623 0h-2.684v1.476h2.684v-1.476zm3.489 0h-2.684v1.476h2.684v-1.476zm3.624 0h-2.684v1.476h2.684v-1.476zm4.026 0h-2.684v1.476h2.684v-1.476zm3.624 0h-2.684v1.476h2.684v-1.476zm3.623-.001h-2.684v1.476h2.684v-1.476zM9.37 127.579H6.686v1.475H9.37v-1.475zm3.622 0h-2.684v1.475h2.684v-1.475zm3.491 0h-2.684v1.475h2.684v-1.475zm3.622 0h-2.684v1.475h2.684v-1.475zm4.027 0h-2.684v1.475h2.684v-1.475zm3.624 0h-2.684v1.475h2.684v-1.475zm3.623 0h-2.684v1.475h2.684v-1.475zM9.37 131.734H6.686v1.476H9.37v-1.476zm3.623 0h-2.684v1.476h2.684v-1.476zm3.489 0h-2.684v1.476h2.684v-1.476zm3.624 0h-2.684v1.476h2.684v-1.476zm4.026 0h-2.684v1.476h2.684v-1.476zm3.624 0h-2.684v1.476h2.684v-1.476zm3.623-.001h-2.684v1.476h2.684v-1.476zM9.37 135.895H6.686v1.476H9.37v-1.476zm3.623 0h-2.684v1.476h2.684v-1.476zm3.489 0h-2.684v1.476h2.684v-1.476zm3.624 0h-2.684v1.476h2.684v-1.476zm4.026 0h-2.684v1.476h2.684v-1.476zm3.624 0h-2.684v1.476h2.684v-1.476zm3.623 0h-2.684v1.476h2.684v-1.476zM9.37 139.921H6.686v1.476H9.37v-1.476zm3.623 0h-2.684v1.476h2.684v-1.476zm3.489 0h-2.684v1.476h2.684v-1.476zm3.624 0h-2.684v1.476h2.684v-1.476zm4.026 0h-2.684v1.476h2.684v-1.476zm3.624 0h-2.684v1.476h2.684v-1.476zm3.623.001h-2.684v1.475h2.684v-1.475z"/></g></g><defs><clipPath id="A"><path fill="#fff" d="M0 0h192v148H0z"/></clipPath><path id="B" d="M66.407 96.176H53.523v1.342h12.884v-1.342z"/><path id="C" d="M75.532 96.176h-7.918v1.342h7.918v-1.342z"/><path id="D" d="M38.626 52.845h-1.879v1.744h1.879v-1.744z"/><path id="E" d="M47.889 52.845H46.01v1.744h1.879v-1.744z"/><path id="F" d="M135.39 82.222h-4.027v1.476h4.027v-1.476z"/><path id="G" d="M130.962 82.222h-4.026v1.476h4.026v-1.476z"/><path id="H" d="M130.962 111.203h-4.026v1.475h4.026v-1.475z"/><path id="I" d="M135.962 141.591h4.026v-1.476h-4.026v1.476z"/><path id="J" d="M178.736 103.959h-3.087v1.208h3.087v-1.208z"/><path id="K" d="M175.518 103.959h-3.086v1.208h3.086v-1.208z"/><path id="L" d="M178.736 109.997h-3.087v1.207h3.087v-1.207z"/><path id="M" d="M175.517 109.997h-3.086v1.207h3.086v-1.207z"/><path id="N" d="M179.164 141.818h3.087v-1.207h-3.087v1.207z"/><path id="O" d="M179.164 132.61h3.087v-1.208h-3.087v1.208z"/><path id="P" d="M154.316 66.534h-5.905v1.208h5.905v-1.208z"/><path id="Q" d="M148.948 58.482h-1.61v1.208h1.61v-1.208z"/><path id="R" d="M151.229 58.482h-1.611v1.208h1.611v-1.208z"/><path id="S" d="M153.646 50.566h-1.611v1.207h1.611v-1.207z"/><path id="T" d="M160.893 66.534h-5.906v1.208h5.906v-1.208z"/><path id="U" d="M154.316 70.289h-5.905v1.207h5.905v-1.207z"/><path id="V" d="M160.893 70.289h-5.906v1.207h5.906v-1.207z"/><path id="W" d="M116.064 118.718h-.939v1.475h.939v-1.475z"/><path id="X" d="M118.346 118.718h-.94v1.475h.94v-1.475z"/><path id="Y" d="M119.552 118.718h-.94v1.476h.94v-1.476z"/><path id="Z" d="M120.626 118.718h-.939v1.476h.939v-1.476z"/><path id="a" d="M9.37 49.627H6.686v1.476H9.37v-1.476z"/><path id="b" d="M12.992 49.627h-2.684v1.476h2.684v-1.476z"/><path id="c" d="M12.992 61.97h-2.684v1.476h2.684V61.97z"/><path id="d" d="M12.993 103.022h-2.684v1.475h2.684v-1.475z"/></defs></svg>