<svg xmlns="http://www.w3.org/2000/svg" xmlns:xlink="http://www.w3.org/1999/xlink" width="192" height="148" fill="none" xmlns:v="https://vecta.io/nano"><style><![CDATA[.B{fill:#d1d5d5}.C{fill:#919595}.D{fill:#7c93a5}]]></style><g clip-path="url(#A)"><path d="M48.961 101.833H15.141v33.408h33.821v-33.408z" fill="#b9d2e6"/><path d="M48.959 101.833H35.807v33.408h13.152v-33.408z" fill="#98b1c5"/><g fill="#fff"><use xlink:href="#B"/><use xlink:href="#C"/><path d="M43.456 103.039h-1.879v1.878h1.879v-1.878zm2.417 0h-1.879v1.878h1.879v-1.878zm2.417 0h-1.879v1.879h1.879v-1.879z"/><use xlink:href="#D"/><path d="M27.756 103.039h-1.879v1.879h1.879v-1.879zm-4.829 0h-1.879v1.878h1.879v-1.878zm-2.418 0H18.63v1.879h1.879v-1.879zm-2.415 0h-1.879v1.879h1.879v-1.879zm12.078 0h-1.879v1.879h1.879v-1.879zm2.416 0h-1.879v1.879h1.879v-1.879zm2.417 0h-1.879v1.878h1.879v-1.878zm3.755 4.026h-1.879v1.878h1.879v-1.878zm2.416 0h-1.879v1.878h1.879v-1.878zm2.28 0h-1.879v1.878h1.879v-1.878zm2.417 0h-1.879v1.878h1.879v-1.878zm2.416 0H46.41v1.878h1.879v-1.878zm-22.95 0H23.46v1.878h1.879v-1.878zm2.416 0h-1.879v1.878h1.879v-1.878zm-4.828 0h-1.879v1.878h1.879v-1.878zm-2.417 0h-1.879v1.878h1.879v-1.878zm-2.416 0h-1.879v1.878h1.879v-1.878zm12.078 0h-1.879v1.878h1.879v-1.878zm2.416 0h-1.879v1.878h1.879v-1.878zm2.417 0h-1.879v1.878h1.879v-1.878zm3.755 3.894h-1.879v1.878h1.879v-1.878zm2.416 0h-1.879v1.878h1.879v-1.878zm2.28 0h-1.879v1.878h1.879v-1.878zm2.417 0h-1.879v1.878h1.879v-1.878zm2.416 0H46.41v1.878h1.879v-1.878zm-22.95 0H23.46v1.878h1.879v-1.878zm2.416 0h-1.879v1.878h1.879v-1.878zm-4.828 0h-1.879v1.878h1.879v-1.878zm-2.417 0h-1.879v1.878h1.879v-1.878zm-2.416 0h-1.879v1.878h1.879v-1.878zm12.078 0h-1.879v1.878h1.879v-1.878zm2.416 0h-1.879v1.878h1.879v-1.878zm2.417 0h-1.879v1.878h1.879v-1.878zm3.755 3.886h-1.879v1.878h1.879v-1.878zm2.417.001h-1.879v1.878h1.879v-1.878zm2.279-.001h-1.879v1.878h1.879v-1.878zm2.417 0h-1.879v1.878h1.879v-1.878zm2.417.001h-1.879v1.878h1.879v-1.878zm-22.951-.001H23.46v1.878h1.879v-1.878zm2.417.001h-1.879v1.878h1.879v-1.878zm-4.829-.001h-1.879v1.878h1.879v-1.878z"/><use xlink:href="#E"/><path d="M18.094 114.846h-1.879v1.878h1.879v-1.878zm12.078 0h-1.879v1.878h1.879v-1.878zm2.416 0h-1.879v1.878h1.879v-1.878zm2.417-.001h-1.879v1.878h1.879v-1.878zm3.755 4.026h-1.879v1.879h1.879v-1.879zm2.417.001h-1.879v1.878h1.879v-1.878zm2.279-.001h-1.879v1.879h1.879v-1.879zm2.417 0h-1.879v1.879h1.879v-1.879zm2.417.001h-1.879v1.878h1.879v-1.878zm-22.951-.001H23.46v1.879h1.879v-1.879zm2.417.001h-1.879v1.878h1.879v-1.878zm-4.829-.001h-1.879v1.879h1.879v-1.879zm-2.418.001H18.63v1.878h1.879v-1.878zm-2.415 0h-1.879v1.878h1.879v-1.878zm12.078 0h-1.879v1.878h1.879v-1.878zm2.416 0h-1.879v1.878h1.879v-1.878zm2.417-.001h-1.879v1.879h1.879v-1.879zm3.755 3.89h-1.879v1.878h1.879v-1.878zm2.417.001h-1.879v1.878h1.879v-1.878zm2.279-.001h-1.879v1.878h1.879v-1.878zm2.417 0h-1.879v1.878h1.879v-1.878zm2.417.001h-1.879v1.878h1.879v-1.878zm-22.951-.001H23.46v1.878h1.879v-1.878zm2.417.001h-1.879v1.878h1.879v-1.878zm-4.829-.001h-1.879v1.878h1.879v-1.878zm-2.418.001H18.63v1.878h1.879v-1.878zm-2.415 0h-1.879v1.878h1.879v-1.878zm12.078 0h-1.879v1.878h1.879v-1.878zm2.416 0h-1.879v1.878h1.879v-1.878zm2.417-.001h-1.879v1.878h1.879v-1.878zm3.755 4.026h-1.879v1.879h1.879v-1.879zm2.417.001h-1.879v1.878h1.879v-1.878zm2.279-.001h-1.879v1.879h1.879v-1.879zm2.417 0h-1.879v1.879h1.879v-1.879zm2.417.001h-1.879v1.878h1.879v-1.878zm-22.951-.001H23.46v1.879h1.879v-1.879zm2.417.001h-1.879v1.878h1.879v-1.878zm-4.829-.001h-1.879v1.879h1.879v-1.879zm-2.418.001H18.63v1.878h1.879v-1.878zm-2.415 0h-1.879v1.878h1.879v-1.878zm12.078 0h-1.879v1.878h1.879v-1.878zm2.416 0h-1.879v1.878h1.879v-1.878zm2.417-.001h-1.879v1.879h1.879v-1.879zm3.755 3.89h-1.879v1.879h1.879v-1.879zm2.417.001h-1.879v1.878h1.879v-1.878zm2.279-.001h-1.879v1.879h1.879v-1.879zm2.417 0h-1.879v1.879h1.879v-1.879zm2.417.001h-1.879v1.878h1.879v-1.878zm-22.951-.001H23.46v1.879h1.879v-1.879zm2.417.001h-1.879v1.878h1.879v-1.878zm-4.829-.001h-1.879v1.879h1.879v-1.879zm-2.418.001H18.63v1.878h1.879v-1.878zm-2.415 0h-1.879v1.878h1.879v-1.878zm12.078 0h-1.879v1.878h1.879v-1.878zm2.416 0h-1.879v1.878h1.879v-1.878zm2.417-.001h-1.879v1.879h1.879v-1.879z"/></g><path d="M73.656 86.537H52.049v48.703h21.608V86.537z" fill="#fbd4bf"/><path d="M73.793 86.537h-8.724v48.703h8.724V86.537z" fill="#dfa98d"/><g fill="#fff"><path d="M54.063 89.217h-.94v46.02h.94v-46.02z"/><use xlink:href="#F"/><path d="M58.09 89.217h-.94v46.02h.94v-46.02zm2.012 0h-.939v46.02h.939v-46.02zm2.011 0h-.94v46.02h.94v-46.02zm2.016 0h-.939v46.02h.939v-46.02zm2.685 0h-.94v46.02h.94v-46.02zm2.011 0h-.939v46.02h.939v-46.02zm2.012 0h-.939v46.02h.939v-46.02zm2.017 0h-.939v46.02h.939v-46.02z"/></g><g class="D"><path d="M58.087 85.195h-3.758v1.342h3.758v-1.342zm5.369 0h-3.758v1.342h3.758v-1.342z"/></g><path d="M179.41 81.173h-13.823v54.069h13.823V81.173z" fill="#9bc1bd"/><g fill="#7ba39f"><path d="M165.722 88.685h-4.027v46.556h4.027V88.685zm17.716 0h-4.026v46.556h4.026V88.685z"/></g><g fill="#fff"><use xlink:href="#G"/><path d="M177.934 87.615h-10.737v.939h10.737v-.939zm.001 2.948h-10.737v.939h10.737v-.939zm0 2.953h-10.737v.939h10.737v-.939zm0 2.952h-10.737v.939h10.737v-.939zm0 2.95h-10.737v.939h10.737v-.939zm0 2.955h-10.737v.939h10.737v-.939zm0 2.95h-10.737v.939h10.737v-.939zm-.001 2.948h-10.737v.939h10.737v-.939zm0 2.956h-10.737v.94h10.737v-.94zm0 2.949h-10.737v.939h10.737v-.939zm.001 2.953h-10.737v.939h10.737v-.939zm-.001 2.952h-10.737v.939h10.737v-.939zm0 2.953h-10.737v.939h10.737v-.939zm.001 2.952h-10.737v.939h10.737v-.939zm-.001 2.949h-10.737v.939h10.737v-.939zm.001 2.952h-10.737v.939h10.737v-.939z"/></g><path d="M176.456 79.831h-7.784v1.342h7.784v-1.342z" class="D"/><path d="M134.452 94.185h-15.837v41.055h15.837V94.185z" fill="#f1e0d8"/><path d="M136.599 97.674h-2.147v37.566h2.147V97.674z" fill="#b09b91"/><path d="M160.221 94.185h-23.62v41.055h23.62V94.185z" fill="#d9c0b4"/><g fill="#797071"><use xlink:href="#H"/><path d="M151.632 96.068h-6.576v1.073h6.576v-1.073z"/><use xlink:href="#I"/><path d="M144.115 98.88h-6.576v1.073h6.576V98.88zm7.517 0h-6.576v1.073h6.576V98.88zm7.515 0h-6.577v1.073h6.577V98.88zm-15.032 2.82h-6.576v1.073h6.576V101.7zm7.517.001h-6.576v1.073h6.576v-1.073zm7.515-.001h-6.577v1.073h6.577V101.7zm-15.033 2.681h-6.576v1.073h6.576v-1.073zm7.518 0h-6.576v1.073h6.576v-1.073zm7.515 0h-6.577v1.073h6.577v-1.073zm-15.033 2.82h-6.576v1.073h6.576v-1.073zm7.518 0h-6.576v1.073h6.576v-1.073zm7.515 0h-6.577v1.073h6.577v-1.073z"/><use xlink:href="#J"/><path d="M151.632 110.017h-6.576v1.074h6.576v-1.074z"/><use xlink:href="#K"/><path d="M144.115 112.837h-6.576v1.073h6.576v-1.073zm7.517.001h-6.576v1.073h6.576v-1.073zm7.515-.001h-6.577v1.073h6.577v-1.073zm-15.032 2.816h-6.576v1.073h6.576v-1.073zm7.517.001h-6.576v1.073h6.576v-1.073zm7.515-.001h-6.577v1.073h6.577v-1.073zm-15.033 2.685h-6.576v1.073h6.576v-1.073zm7.518 0h-6.576v1.073h6.576v-1.073zm7.515 0h-6.577v1.073h6.577v-1.073zm-15.032 2.813h-6.576v1.074h6.576v-1.074zm7.517-.001h-6.576v1.074h6.576v-1.074zm7.515.001h-6.577v1.074h6.577v-1.074zm-15.032 2.819h-6.576v1.074h6.576v-1.074zm7.517.001h-6.576v1.073h6.576v-1.073zm7.515-.001h-6.577v1.074h6.577v-1.074zm-15.032 2.817h-6.576v1.073h6.576v-1.073zm7.517 0h-6.576v1.073h6.576v-1.073zm7.515 0h-6.577v1.073h6.577v-1.073zm-15.032 2.821h-6.576v1.073h6.576v-1.073zm7.517-.001h-6.576v1.074h6.576v-1.074zm7.515.001h-6.577v1.073h6.577v-1.073zm-15.032 2.68h-6.576v1.074h6.576v-1.074zm7.517-.001h-6.576v1.074h6.576v-1.074zm-25.503-36.219h-6.576v1.073h6.576v-1.073zm7.518 0h-6.576v1.073h6.576v-1.073zm-7.518 2.812h-6.576v1.073h6.576V98.88zm7.518 0h-6.577v1.073h6.577V98.88zm-7.518 2.821h-6.576v1.073h6.576v-1.073zm7.518-.001h-6.577v1.073h6.577V101.7zm-7.518 2.681h-6.576v1.073h6.576v-1.073zm7.518 0h-6.576v1.073h6.576v-1.073zm-7.518 2.82h-6.576v1.073h6.576v-1.073zm7.518 0h-6.576v1.073h6.576v-1.073zm-7.518 2.816h-6.576v1.074h6.576v-1.074zm7.518 0h-6.576v1.074h6.576v-1.074zm-7.518 2.821h-6.576v1.073h6.576v-1.073zm7.518-.001h-6.577v1.073h6.577v-1.073zm-7.518 2.817h-6.576v1.073h6.576v-1.073zm7.518-.001h-6.577v1.073h6.577v-1.073zm-7.518 2.685h-6.576v1.073h6.576v-1.073zm7.518 0h-6.576v1.073h6.576v-1.073zm-7.518 2.812h-6.576v1.074h6.576v-1.074zm7.518.001h-6.577v1.074h6.577v-1.074zm-7.518 2.82h-6.576v1.073h6.576v-1.073zm7.518-.001h-6.577v1.074h6.577v-1.074zm-7.518 2.817h-6.576v1.073h6.576v-1.073zm7.518 0h-6.577v1.073h6.577v-1.073zm-7.518 2.82h-6.576v1.074h6.576v-1.074zm7.518.001h-6.577v1.073h6.577v-1.073zm-7.518 2.679h-6.576v1.074h6.576v-1.074zm7.518.001h-6.577v1.074h6.577v-1.074zm25.5 0h-6.577v1.074h6.577v-1.074z"/></g><path d="M155.255 90.295h-13.69v3.891h13.69v-3.891z" class="D"/><path d="M125.593 136.847h-10.468v7.782h10.468v-7.782z" class="B"/><path d="M186.658 135.24h-72.07v1.61h72.07v-1.61z" fill="#e7ebeb"/><use xlink:href="#L" class="C"/><path d="M130.961 136.847h-2.684v7.782h2.684v-7.782z" class="B"/><use xlink:href="#M" class="C"/><path d="M136.464 136.847h-2.685v7.782h2.685v-7.782z" class="B"/><path d="M139.148 136.847h-2.684v7.782h2.684v-7.782z" class="C"/><path d="M141.834 136.847h-2.685v7.781h2.685v-7.781z" class="B"/><path d="M144.514 136.847h-2.684v7.781h2.684v-7.781z" class="C"/><path d="M147.336 136.847h-2.685v7.781h2.685v-7.781z" class="B"/><path d="M150.021 136.847h-2.684v7.781h2.684v-7.781z" class="C"/><path d="M152.702 136.847h-2.684v7.781h2.684v-7.781z" class="B"/><path d="M155.523 136.847h-2.684v7.781h2.684v-7.781z" class="C"/><path d="M158.204 136.847h-2.684v7.781h2.684v-7.781z" class="B"/><path d="M160.889 136.847h-2.684v7.782h2.684v-7.782z" class="C"/><path d="M163.574 136.847h-2.684v7.782h2.684v-7.782z" class="B"/><path d="M166.391 136.847h-2.684v7.781h2.684v-7.781z" class="C"/><path d="M169.077 136.847h-2.684v7.782h2.684v-7.782z" class="B"/><path d="M171.76 136.847h-2.684v7.782h2.684v-7.782z" class="C"/><path d="M174.578 136.847h-2.684v7.781h2.684v-7.781z" class="B"/><path d="M177.263 136.847h-2.684v7.782h2.684v-7.782z" class="C"/><path d="M179.948 136.847h-2.684v7.782h2.684v-7.782z" class="B"/><path d="M182.766 136.847h-2.684v7.782h2.684v-7.782z" class="C"/><g class="B"><path d="M186.792 136.847h-4.026v7.782h4.026v-7.782zm-120.386 7.854h10.468v-7.782H66.406v7.782z"/></g><path d="M5.299 136.826h72.07v-1.61H5.299v1.61z" fill="#e7ebeb"/><use xlink:href="#N" class="C"/><path d="M61.12 144.701h2.684v-7.782H61.12v7.782z" class="B"/><path d="M58.361 144.701h2.684v-7.782h-2.684v7.782z" class="C"/><path d="M55.597 144.701h2.684v-7.782h-2.684v7.782z" class="B"/><path d="M52.97 144.701h2.684v-7.782H52.97v7.782z" class="C"/><path d="M50.21 144.701h2.684v-7.782H50.21v7.782z" class="B"/><path d="M47.452 144.701h2.684v-7.782h-2.684v7.782z" class="C"/><path d="M44.824 144.701h2.684v-7.782h-2.684v7.782z" class="B"/><path d="M42.061 144.701h2.684v-7.782h-2.684v7.782z" class="C"/><path d="M39.301 144.701h2.684v-7.782h-2.684v7.782z" class="B"/><path d="M36.538 144.701h2.684v-7.782h-2.684v7.782z" class="C"/><path d="M33.911 144.701h2.684v-7.782h-2.684v7.782z" class="B"/><path d="M31.152 144.701h2.684v-7.782h-2.684v7.782z" class="C"/><path d="M28.392 144.701h2.684v-7.782h-2.684v7.782z" class="B"/><path d="M25.765 144.701h2.684v-7.782h-2.684v7.782z" class="C"/><path d="M23.001 144.701h2.684v-7.782h-2.684v7.782z" class="B"/><path d="M20.242 144.701h2.684v-7.782h-2.684v7.782z" class="C"/><path d="M17.479 144.701h2.684v-7.782h-2.684v7.782z" class="B"/><path d="M14.851 144.701h2.684v-7.782h-2.684v7.782z" class="C"/><path d="M12.092 144.701h2.684v-7.782h-2.684v7.782z" class="B"/><path d="M9.332 144.701h2.684v-7.782H9.332v7.782z" class="C"/><path d="M5.252 144.701h4.026v-7.782H5.252v7.782z" class="B"/><path d="M125.189 144.632l-2.818-2.013c-.537-1.073-5.503-10.33-10.066-22.54v-3.756h-1.342l-1.208-3.623h2.148v-.939h-2.416c-.134-.402-.268-.671-.268-1.073-2.014-6.44-3.356-11.807-4.027-15.295l-.134-.403c-.537-2.281-.805-3.623-.805-4.025v-1.744h.939v-1.744h-.939v-1.744h-.94c-.537-4.025-2.684-21.735-3.489-36.628-.805-15.832-.805-27.638-.805-32.2 0 0 .134-.671.403-.939s.671-.402.671-.402h.537v-2.012h-.939v-.537-.805h-1.074c-.134-.805-.671-2.683-2.147-2.952V.268A.29.29 0 0 0 96.2 0a.29.29 0 0 0-.269.268v8.989c-1.476.268-2.013 2.147-2.147 2.952h-1.074v.805.537h-.939v2.012h.537s.403.134.671.402.403.939.403.939c0 4.696 0 16.368-.805 32.2-.805 14.892-2.953 32.468-3.489 36.628h-.939v1.744h-.94v1.744h.94v1.744c0 .268-.269 1.342-.671 2.952l-.403 1.744c-.805 3.488-2.147 8.587-4.026 14.893-.134.402-.268.67-.268 1.073h-2.684v.939h2.147l-1.208 3.623h-1.342v3.756c-4.563 12.209-9.395 21.467-10.066 22.54l-2.818 2.013h13.689l-2.147-1.61c.671-1.342 2.953-5.769 5.503-12.209 1.745-1.745 6.174-5.099 12.213-5.099 6.174 0 10.334 3.354 12.079 5.099 2.55 6.44 4.831 11.001 5.502 12.209l-2.147 1.61h13.689v.134zM96.335 10.063c.939.268 1.342 1.61 1.476 2.281h-1.476v-2.281zm-.671 0v2.281h-1.476c.134-.671.537-2.013 1.476-2.281zm18.119 130.411h2.281l-1.342 1.744c-.268-.268-.537-.939-.939-1.744zm1.476 2.012l1.476-1.878 3.49 1.878h-4.966zm5.368-.536l-2.55-1.476h1.879a4.98 4.98 0 0 0 .671 1.476zm-1.073-2.013h-2.148l1.342-1.744c.269.671.537 1.207.806 1.744zm-2.953-.134l-3.758-2.013h5.368l-1.61 2.013zm1.208-3.623l-2.416-1.341h1.879c.134.536.268.939.537 1.341zm-.94-2.012h-2.147l1.342-1.744c.269.671.537 1.207.805 1.744zm-1.61-3.488l-2.55-1.476h1.879c.268.536.402.939.671 1.476zm-.94-2.147h-1.878l1.207-1.61c.269.537.537 1.073.671 1.61zm-2.684 0l-3.489-2.147h5.234l-1.745 2.147zm1.208-3.488l-2.281-1.476h1.744c.269.536.403.939.537 1.476zm-.805-2.147h-1.879l1.342-1.61c.134.671.403 1.073.537 1.61zm-.94-2.147l-1.61 2.013-3.087-2.013h4.697zm-24.828-4.293h-2.684l1.745-1.208.939 1.208zm-2.147-3.623h3.489l-2.281 1.61-1.208-1.61zm1.611 2.013l2.281-1.61-.805 3.22h-.268l-1.208-1.61zm2.147 5.903l-.537.671-.134-.134c0-.134.134-.268.134-.403h.537v-.134zm-.537 1.61l.537.537h-1.074l.537-.537zm.403-.536l.805-.94.805.94-.805.939-.805-.939zm1.208-12.21c-.134.537-.268 1.074-.403 1.476l-1.208-1.476h1.611zm-1.208-.67l1.611-1.208c-.134.403-.134.805-.268 1.208h-1.342zm1.476 11.806h1.074l-.537.671-.537-.671zm1.611.269l.805.939-.805.939-.805-.939.805-.939zm.671-.269h1.074l-.537.671-.537-.671zm.537 1.61l.537.537h-1.074l.537-.537zm.403-.536l.805-.94.805.94-.805.939-.805-.939zm1.476-1.074h1.074l-.537.671-.537-.671zm.403 1.61l.537.537h-1.074l.537-.537zm.403-.536l.939-1.074v2.147l-.939-1.073zm-6.174-5.367c.268-1.208.671-2.415.939-3.623h13.152c.269 1.208.537 2.415.94 3.623H88.55zm2.416-17.71c-.134.403-.134.939-.268 1.342l-.939-1.342h1.208zm-.939-.671l1.342-1.207c0 .402-.134.805-.134 1.207h-1.208zm2.684-2.012h6.71a185.36 185.36 0 0 0 2.953 15.697h-12.75c1.611-6.306 2.55-11.941 3.087-15.697zM91.503 85.33l-.805-1.208h1.745l-.939 1.208zm1.476-.671c0 .537-.134.939-.134 1.207h-.939l1.074-1.207zm-.939 7.379c0 .403-.134.939-.134 1.476l-1.074-.805 1.208-.671zm3.489-.805l-1.208 1.073-.939-.939v-.134h2.147zM93.65 77.549l-.805-1.208 1.074-1.073c0 .805-.134 1.61-.268 2.281zm.671 6.708l1.342 1.744h-1.476c0-.537 0-1.073.134-1.744zm-.134-11.807l-.805-1.073.939-1.073c0 .671-.134 1.476-.134 2.147zm2.953-54.74l.537 1.073v.134h-1.074v-.134l.537-1.073zm-.537-.403v-.671l.134.268-.134.402zm.268-1.61h.671l-.403.671-.268-.671zm.671 1.342l.134-.402v.671l-.134-.268zm.134 2.415v.268l-.537 1.073-.537-1.207v-.268h1.074v.134zm0 2.549l-.134-.402.134-.402v.805zm-.805-.402l-.134.402v-.805l.134.402zm.268.805l.537 1.073v.268h-1.074v-.268l.537-1.073zm.537 2.012v.268l-.537 1.073-.537-1.073v-.268h1.074zm0 1.744v.805l-.134-.402.134-.402zm-.805.402l-.134.402v-.805l.134.402zm.268.805l.537 1.207v.268h-1.074v-.268l.537-1.207zm.671 2.012v.268l-.537 1.207-.537-1.207v-.268h1.074zm0 1.61v.939l-.268-.537.268-.402zm-.939.537l-.268.537v-1.073l.268.537zm.403.671l.671 1.208v.268h-1.208v-.268l.537-1.208zm.671 2.147v.268l-.537 1.208-.671-1.208v-.268h1.208zm0 1.61v1.208l-.268-.537.268-.671zm-.939.537l-.268.671v-1.208l.268.537zm.268.671l.671 1.342v.268h-1.342v-.268l.671-1.342zm.805 2.147v.134l-.671 1.342-.671-1.342v-.134h1.342zm0 1.476v1.342l-.403-.671.403-.671zm-1.074.671l-.403.805v-1.476l.403.671zm.403.671l.805 1.476v.134h-1.61v-.134l.805-1.476zm.805 2.147c0 .134 0 .134 0 0l-.671 1.476-.805-1.342v-.134h1.476zm.134 1.342c0 .537 0 1.073.134 1.61l-.537-.805.403-.805zm-1.208.805l-.537.939v-1.744l.537.805zm.403.537l.939 1.476v.134h-1.879v-.134l.939-1.476zm.939 2.415l-.805 1.61-1.074-1.476h1.879v-.134zm-.403 2.013l.537-.939c0 .671.134 1.207.134 1.878l-.671-.939zm.671 2.147c0 .134 0 .134 0 0l-2.013.134.939-1.61 1.074 1.476zm-1.476-2.147l-.671 1.073v-2.147l.671 1.073zm-.671 2.952h2.147l-.939 1.476-1.208-1.476zm.805 2.012l-.805 1.208c0-.403 0-.805-.134-1.208v-1.073l.939 1.073zm-.939 14.758l-.134-.268.134-.134v.403zm-.805-1.61v-.268h.671v.268l-.403.671-.268-.671zm0 1.342l-.134.268v-.537l.134.268zm.134-2.281c.134-1.073.134-2.147.268-3.22.134 1.073.134 2.147.268 3.22h-.537zm-1.476-16.502l.939 1.61h-2.013v-.134l1.074-1.476zm-.939.268c0-.671.134-1.207.134-1.878l.537.939-.671.939zm1.342-.939l.671-.939v2.147l-.671-1.208zm-.268-.537l-.805-1.476h1.879l-1.074 1.476zm-.805-2.147v-.134l.939-1.476.805 1.476v.134H93.65zm0-1.476c0-.537 0-1.073.134-1.61l.403.805-.537.805zm1.208-.805l.537-.805v1.744l-.537-.939zm-.268-.671l-.805-1.342v-.134h1.611v.134l-.805 1.342zm-.805-2.013v-.134l.805-1.476.805 1.476v.134h-1.611zm.134-1.61v-1.342l.403.671-.403.671zm1.074-.671l.403-.671v1.476l-.403-.805zm-.268-.671l-.671-1.342v-.134h1.342v.134l-.671 1.342zm-.671-2.013v-.268l.671-1.342.671 1.342v.268h-1.342zm0-1.744v-1.207l.269.537-.269.671zm1.074-.537l.268-.537v1.208l-.268-.671zm-.403-.671l-.537-1.208v-.268h1.208v.268l-.671 1.208zm-.537-2.013v-.268l.671-1.207.537 1.207v.268h-1.208zm0-1.744v-.939l.269.402-.269.537zm.939-.537l.268-.537v1.073l-.268-.537zm-.268-.671l-.537-1.207v-.268h1.074v.268l-.537 1.207zm-.537-2.012v-.268l.537-1.207.537 1.207v.268h-1.074zm.537-11.136l.537.939v.134h-1.074v-.134l.537-.939zm-.268-2.013h.671l-.403.671-.268-.671zm.671 1.342l.134-.268v.671l-.134-.402zm-.805 2.683v-.268h1.074v.268l-.537 1.207-.537-1.207zm.134 1.878l-.134.402v-.671l.134.268zm.805-.402v.805l-.134-.402.134-.402zm-1.074-3.891v-.671l.134.402-.134.268zm0 9.66v-.805l.134.402-.134.402zm.939-.402l.134-.402v.805l-.134-.402zm-.403-.671l-.537-1.073v-.268h1.074v.268l-.537 1.073zm-.537-2.147v-.268l.537-1.073.537 1.207v.134.134h-1.074v-.134zm-1.074 30.59h2.147l-1.208 1.61-.939-1.61zm2.147.939v1.073c0 .403 0 .805-.134 1.208l-.805-1.208.939-1.073zm0 17.576l.671-1.342.671 1.342v.671h-1.342v-.671zm1.342 1.342l-.805 1.207-.805-1.073h1.611v-.134zm.268 2.549l-.671-.939.537-.671c0 .537.134 1.073.134 1.61zm-.134-16.368l.939 1.073-.805 1.073c0-.671 0-1.342-.134-2.147zm-1.208 15.429l-.671.939c0-.537.134-1.073.134-1.61l.537.671zm-.671-13.148l-.805-1.073.939-1.073c0 .671-.134 1.342-.134 2.147zm1.074 13.685l1.074 1.61v.537h-2.282v-.537l1.208-1.61zm1.208 2.818v.134l-1.208 1.476-1.208-1.476v-.134h2.416zm.537 5.098c.134.671.134 1.207.134 1.61h-1.476l1.342-1.61zm-.134-13.953l.939 1.073-.805 1.073c0-.671 0-1.476-.134-2.147zm1.074 20.93v.134l-.939.939-1.208-1.073h2.147zm-.671-15.966l1.074 1.073-.805 1.208c0-.671-.134-1.476-.268-2.281zm-.939 8.855l-1.074 1.342-1.074-1.342h2.147zm-2.55-.671l1.342-1.744 1.342 1.744H94.59zm2.684 9.258l-1.208 1.207-1.208-1.207 1.208-1.073 1.208 1.073zm.537.403l1.208 1.073h-2.416l1.208-1.073zm.403-.403l.671-.537c0 .268.134.671.134 1.207l-.805-.671zm.403-12.478l1.074 1.208-.805 1.207c-.134-.805-.134-1.61-.268-2.415zm-2.147 1.073l.939-1.073c.134.939.134 1.878.268 2.549l-1.208-1.476zm.805-15.966l.939 1.073-.805 1.208c0-.805-.134-1.61-.134-2.281zM94.59 67.62l-.805-1.208.94-1.073c0 .671 0 1.476-.134 2.281zm.134 12.612l.939 1.073-1.208 1.476c0-.805.134-1.61.268-2.549zm-1.476 2.415l-.805-1.207 1.074-1.208c-.134.805-.268 1.61-.268 2.415zm0 9.526l.671.537-.805.671c0-.537.134-.939.134-1.207zm1.074.939l1.208 1.073h-2.416l1.208-1.073zm5.771-7.245h-.939c0-.403-.134-.805-.134-1.207l1.073 1.207zm-.671-1.744h1.745l-.805 1.208-.94-1.208zm1.745 8.587l-.939.805c-.135-.671-.135-1.073-.135-1.476l1.074.671zm-.268 5.367c0-.402-.135-.805-.135-1.207l1.342 1.207h-1.207zm1.342.671l-.94 1.342c-.134-.537-.134-.94-.268-1.342h1.208zm.805 4.83h-1.208c-.134-.403-.134-.805-.268-1.208l1.476 1.208zm-1.342-2.013h3.355l-1.208 1.879-2.147-1.879zm1.61 2.684l-1.073 1.61c-.135-.537-.269-1.074-.269-1.61h1.342zm-13.152-.671h-1.208l1.476-1.208c-.134.403-.134.805-.268 1.208zm-2.013-.134l-1.208-1.879h3.355l-2.147 1.879zm1.879.805c-.134.536-.268 1.073-.268 1.61l-1.074-1.61h1.342zm13.018 4.696c-.134-.403-.134-.805-.269-1.208l1.611 1.208h-1.342zm1.61.67l-1.207 1.476c-.135-.536-.269-1.073-.403-1.476h1.61zm-4.16 11.136l-.537.671-.537-.671h1.074zm-2.282 0l-.537.671-.537-.671h1.074zm-1.879 0l.939 1.074-.939 1.073v-2.147zm1.342 1.61l.537.537H97.14l.537-.537zm.403-.536l.805-.94.805.94-.805.939-.805-.939zm2.013.536l.537.537h-1.074l.537-.537zm.269-.536l.805-.94.805.94-.805.939-.805-.939zm1.476-1.074h1.074l-.537.671-.537-.671zm1.745.269l.805.939-.805.939-.806-.939.806-.939zm.671-.269h.537c0 .134.134.269.134.403l-.134.134-.537-.537zm.537 1.61l.536.537h-1.073l.537-.537zm.268-5.903h-.268l-.806-3.22 2.282 1.61-1.208 1.61zm-.537-3.623h3.49l-1.208 1.61-2.282-1.61zm2.282 2.415l1.744 1.208h-2.684l.94-1.208zm1.744 7.648h-1.878c-.135-.537-.269-.939-.403-1.476l2.281 1.476zm1.208-6.44l-2.55-1.744 1.342-1.744 1.208 3.488zm-6.039-4.562l1.61-2.146 2.819 2.146h-4.429zm4.295-.939l-1.879-1.342h1.342c.134.403.402.94.537 1.342zm-.671-2.012h-1.477l1.074-1.476c.134.536.268.939.403 1.476zm-2.148-.135l-2.281-1.744h3.489l-1.208 1.744zm-2.55-2.28l1.342-2.147 2.416 2.147h-3.758zm3.758-.805l-1.61-1.476h1.207c.135.402.269.939.403 1.476zm-.537-2.147h-1.342l.94-1.476a22.07 22.07 0 0 0 .402 1.476zm-.671-2.549h-3.758l1.342-2.147 2.416 2.147zm-.268-1.074l-1.342-1.208h.939l.403 1.208zm-.537-1.878h-1.074l.806-1.207c.134.402.268.805.268 1.207zm-1.611-.134l-1.878-1.744h3.086l-1.208 1.744zm-2.415-3.757l1.342-1.073 1.745 1.073h-3.087zm2.952-.805l-1.073-.671.805-.671c.134.403.134.805.268 1.342zm-1.61-1.073l-.805-.537h1.476l-.671.537zm.268-6.44h-1.073l.805-1.342c.134.537.134 1.073.268 1.342zm-2.952-2.281l1.073-1.744 1.477 1.744h-2.55zm2.55-1.073l-1.074-1.207.805-1.207c0 .939.134 1.744.269 2.415zm-.403-3.354l-1.074 1.61-1.476-1.61h2.55zm-.134-.537h-2.684l1.074-1.61 1.611 1.61zm-.134-1.073l-1.074-1.208.805-1.207c.134.805.269 1.61.269 2.415zm-.269-3.354l-1.074 1.61-1.476-1.61h2.55zm-.134-.671h-2.55v-.134l1.074-1.61 1.476 1.744zm-.134-1.073l-1.074-1.207.805-1.207c.135.939.269 1.744.269 2.415zm-1.342-1.61l-1.342-1.61h2.415l-1.073 1.61zm-1.476-2.281l1.074-1.744 1.342 1.744h-2.416zm2.416-1.073l-.939-1.073.671-1.073c.134.671.134 1.476.268 2.147zm-.403-3.22l-1.074 1.61-1.342-1.61h2.416zm0-.671H97.14l1.074-1.61 1.342 1.61zm-.134-1.073l-.939-1.073.671-1.073c.134.671.268 1.476.268 2.147zm-.268-3.22l-1.074 1.61-1.342-1.61h2.416zm0-.671h-2.282l1.074-1.61 1.208 1.61zm-.134-1.208l-.805-1.073.671-1.073c0 .805.134 1.476.134 2.147zm-5.905-2.012l.671 1.073-.805 1.073c.134-.805.134-1.476.134-2.147zm-.134 3.22l1.208-1.744 1.074 1.61-2.282.134zm-.134.671h2.416l-1.342 1.61-1.074-1.61zm0 1.073l.671 1.073-.939 1.073c.134-.671.134-1.476.269-2.147zm-.403 3.22l1.342-1.61 1.074 1.61h-2.416zm0 .671h2.416l-1.342 1.61-1.074-1.61zm-.134 1.073l.671 1.073-.939 1.073c.134-.671.268-1.476.268-2.147zm1.074 1.61l1.074 1.61H92.04l1.342-1.61zm1.074 2.281l-1.342 1.61-1.074-1.61h2.416zm-2.55.939l.805 1.207-1.074 1.207c.134-.805.134-1.61.268-2.415zm-.403 3.354l1.476-1.744 1.074 1.61v.134h-2.55zm0 .671h2.55l-1.476 1.61-1.074-1.61zm-.134.939l.805 1.207-1.074 1.208c.134-.805.134-1.61.268-2.415zm-.403 3.354l1.476-1.61 1.074 1.61h-2.55c0 .134 0 .134 0 0zm0 .671h2.684l-1.476 1.61-1.208-1.61zm-.134.939l.805 1.207-1.074 1.207c0-.671.134-1.476.268-2.415zm1.208 1.744l1.074 1.744h-2.684l1.611-1.744zm-1.745 2.683l.805 1.342h-1.074c.134-.268.268-.805.268-1.342zm.939 7.379l-.805.537-.671-.537h1.476zm-2.281.134l.805.671-1.074.671c.134-.537.268-.939.268-1.342zm1.342 1.073l1.342 1.073H88.55l1.745-1.073zm.939 2.952l-1.879 1.744-1.208-1.744h3.087zm-3.355.805l.805 1.207h-1.074c.134-.402.268-.805.268-1.207zm-.403 1.878h.94l-1.342 1.208c.268-.403.268-.805.403-1.208zm1.745.134l1.342 2.147h-3.758l2.416-2.147zm-2.684 3.354l.939 1.476h-1.342c.268-.537.403-1.073.403-1.476zM86 104.248h1.208l-1.61 1.476c.134-.537.268-1.074.403-1.476zm2.013.134l1.342 2.147h-3.758l2.416-2.147zm1.074 2.683l-2.281 1.744-1.342-1.744h3.624zm-3.892.403l1.074 1.476h-1.476c0-.537.268-.94.403-1.476zm-.671 2.146h1.342l-1.879 1.342c.268-.402.403-.939.537-1.342zm2.282.135l1.611 2.146h-4.429l2.818-2.146zm-3.355 3.22l1.342 1.744-2.416 1.744c.403-1.208.671-2.281 1.074-3.488zm2.281 7.781l-3.087 2.013-1.611-2.013h4.697zm.134.671c-.134.537-.268.939-.403 1.476h-1.879l2.282-1.476zm-5.234 0l1.342 1.61h-1.879c.134-.671.268-1.073.537-1.61zm-.939 2.147h1.745l-2.281 1.476c.134-.537.403-.94.537-1.476zm-1.342 3.354l1.208 1.61H77.68c.268-.537.403-1.073.671-1.61zm.403-.537h5.234l-3.49 2.147-1.745-2.147zm-1.342 2.818h1.879l-2.55 1.476c.268-.537.537-.94.671-1.476zm-1.476 3.354l1.342 1.744H75.13c.403-.671.671-1.207.805-1.744zm-.939 2.281h1.879l-2.416 1.341c0-.402.268-.805.537-1.341zm-1.611 3.354l1.342 1.744H72.58c.269-.537.537-1.073.805-1.744zm.403-.403h5.368l-3.758 2.013-1.611-2.013zm-1.611 2.684h1.879l-2.55 1.476c.134-.403.403-.94.671-1.476zm-.403 2.012l3.489-1.878 1.476 1.878h-4.966zm5.637-.268l-1.342-1.744h2.281c-.403.805-.805 1.476-.939 1.744zm1.208-2.281h-2.147l2.818-1.61c-.268.537-.537 1.073-.671 1.61zm-4.697-2.817l4.026-2.147 1.745 2.147h-5.771zm6.174-.403l-1.476-1.878h2.282c-.268.671-.537 1.207-.805 1.878zm1.074-2.549h-2.013l2.55-1.476c-.134.537-.403 1.073-.537 1.476zm-3.087 0l-1.611-2.013h5.368l-3.758 2.013zm-1.342-2.683l3.49-2.147 1.745 2.147H76.74zm5.771-.403l-1.476-1.878h2.281c-.403.671-.671 1.341-.805 1.878zm.94-2.549h-1.879l2.416-1.476c-.134.537-.403 1.073-.537 1.476zm-4.295-2.683l3.355-2.147 1.745 2.147h-5.1zm4.026-2.281h2.013c-.134.536-.403 1.207-.537 1.744l-1.476-1.744zm2.013 3.891c.134-.403.268-.805.403-1.342l.537.537c-.403.268-.671.536-.939.805zm1.476-1.074l-.805-.805c.134-.536.268-.939.537-1.476l1.074 1.745c-.268.134-.537.268-.805.536zm1.342-.805l-1.208-2.012h1.074.403l.671 1.476c-.403.134-.671.402-.94.536zm1.476-.671l-.537-1.341h.268.805l.268 1.073c-.403 0-.537.134-.805.268zm-.268-2.012l.537-.537.537.537h-1.074zm2.282 1.207c-.268.135-.537.135-.805.269l-.134-.805h.939v.536zm8.455-.134c-1.208-.268-2.416-.402-3.892-.402-1.342 0-2.684.134-3.892.402v-.402h.403 1.342 2.013.134.134 2.013 1.342.403v.402zm1.342.403c-.268-.134-.537-.134-.805-.269v-.536h.939l-.134.805zm1.074-2.013l.537.537h-1.074l.537-.537zm.268 2.549c-.268-.134-.402-.134-.671-.268l.269-1.073h.805.268l-.671 1.341zm.537.135l.671-1.476h.403 1.073l-1.207 2.012c-.403-.134-.671-.402-.94-.536zm1.476.805l1.074-1.745c.134.537.269.94.537 1.476l-.805.805c-.269-.268-.537-.402-.806-.536zm1.342.805l.537-.537a16.38 16.38 0 0 1 .403 1.342c-.268-.269-.671-.537-.94-.805zm.94-3.086h2.013l-1.476 1.744c-.269-.671-.403-1.208-.537-1.744zm2.684.134l3.355 2.147h-5.234l1.879-2.147zm-1.476 3.354l2.416 1.476h-1.879c-.269-.403-.403-.939-.537-1.476zm.671 2.147h2.281l-1.476 1.878c-.268-.537-.537-1.207-.805-1.878zm2.952.134l3.49 2.147h-5.234l1.744-2.147zm3.893 2.683l-1.611 2.013-3.758-2.013h5.369zm-5.369.805l2.55 1.476h-1.879c-.268-.537-.402-1.073-.671-1.476zm.805 2.013h2.282l-1.476 1.878c-.135-.671-.403-1.207-.806-1.878zm3.087.134l4.026 2.147h-5.77l1.744-2.147zm-.671 4.964c-.268-.402-.537-.939-.805-1.61l2.818 1.61h-2.013z" fill="#c2aa7d"/><path opacity=".7" d="M112.304 120.079v-3.756h-1.342l-1.208-3.623h2.148v-.939h-2.416c-.134-.402-.269-.671-.269-1.073-2.013-6.44-3.355-11.807-4.026-15.295l-.134-.403c-.537-2.281-.805-3.623-.805-4.025v-1.744h.939v-1.744h-.939v-1.744h-.94c-.537-4.025-2.684-21.735-3.489-36.628-.805-15.832-.805-27.638-.805-32.2 0 0 .134-.671.403-.939s.671-.402.671-.402h.537v-2.012h-.939v-.537-.805h-1.074c-.134-.805-.671-2.683-2.147-2.952V.268A.29.29 0 0 0 96.199 0v65.071c.134 1.073.134 2.147.268 3.22h-.268v.671h.268v.268l-.403.671v1.342l.671 1.342v.671h-.671v.671h.805l-.805 1.073v1.073l1.074 1.61v.537h-1.208v.671h1.208v.134L95.931 80.5v.939l1.342 1.744h-1.342v.671h1.074l-1.074 1.342v6.172l1.208 1.073-1.208 1.207v2.281h3.355c.537 3.757 1.476 9.392 2.952 15.698h-6.307v.939h6.576c.268 1.208.537 2.415.939 3.623h-7.515v7.11h.134 2.013 1.342.403v.403c-1.208-.268-2.416-.403-3.892-.403v2.147c6.173 0 10.334 3.354 12.078 5.098 2.55 6.44 4.832 11.002 5.503 12.21l-2.147 1.61h13.689l-2.818-2.013c-.403-.805-5.369-10.062-9.932-22.272zm7.247 19.857h-2.147l1.342-1.744c.269.671.537 1.207.805 1.744zm-2.952-.134l-3.758-2.013h5.368l-1.61 2.013zm1.208-3.623l-2.416-1.341h1.879c.134.536.268.939.537 1.341zm-.94-2.012h-2.147l1.342-1.744c.268.671.537 1.207.805 1.744zm-1.61-3.488l-2.55-1.476h1.879c.268.536.402.939.671 1.476zm-.94-2.147h-1.879l1.208-1.61c.269.537.537 1.073.671 1.61zm-2.684 0l-3.489-2.147h5.234l-1.745 2.147zm1.208-3.488l-2.282-1.476h1.745c.269.536.403.939.537 1.476zm-.805-2.147h-1.879l1.342-1.61c.134.671.402 1.073.537 1.61zm-.94-2.147l-1.61 2.013-3.087-2.013h4.697zm-5.905 2.147h-.939l.536-.537.403.537zm-.939-2.147h.536c0 .134.135.269.135.403l-.135.134-.536-.537zm.805-4.293h-.269l-.805-3.22 2.282 1.61-1.208 1.61zm-.537-3.623h3.489l-1.207 1.61-2.282-1.61zm2.282 2.415l1.744 1.208h-2.684l.94-1.208zm1.744 7.648h-1.879c-.134-.537-.268-.939-.402-1.476l2.281 1.476zm1.208-6.44l-2.55-1.744 1.342-1.744 1.208 3.488zm-6.039-4.562l1.61-2.146 2.819 2.146h-4.429zm4.294-.939l-1.878-1.342h1.342c.134.403.402.94.536 1.342zm-.671-2.012h-1.476l1.074-1.476c.134.536.268.939.402 1.476zm-2.147-.135l-2.281-1.744h3.489l-1.208 1.744zm1.208-3.085l-1.611-1.476h1.208c.135.402.269.939.403 1.476zm-.537-2.147h-1.342l.939-1.476c.135.537.269 1.073.403 1.476zm-2.013-.134l-2.147-1.879h3.355l-1.208 1.879zm1.074-3.489l-1.342-1.208h.939l.403 1.208zm-.537-1.878h-1.074l.805-1.207c.135.403.269.805.269 1.207zm-1.611-.134l-1.879-1.744h3.087l-1.208 1.744zm.537-4.562l-1.074-.671.806-.671c.134.403.134.805.268 1.342zm-1.61-1.073l-.806-.537h1.477l-.671.537zm.268-6.44h-1.074l.806-1.342c.134.537.134 1.073.268 1.342zm-1.476-.537l-1.074-1.208h1.745l-.671 1.208zm-1.477-1.744l1.073-1.744 1.476 1.744h-2.549zm0 9.794l-.805-.671.671-.537a4.62 4.62 0 0 0 .134 1.207zm-.403-13.148l1.074 1.207-.805 1.207c-.134-.805-.134-1.61-.269-2.415zm2.952 2.281l-1.073-1.207.805-1.207c0 .939.134 1.744.268 2.415zm-.402-3.354l-1.074 1.61-1.476-1.61h2.55zm-.134-.537h-2.685l1.074-1.61 1.611 1.61zm-2.685-1.073c-.134-.671-.134-1.476-.268-2.281l1.074 1.073-.805 1.208zm2.55 0l-1.073-1.208.805-1.207c.134.805.268 1.61.268 2.415zm-.268-3.354l-1.074 1.61-1.476-1.61h2.55zm-.134-.671h-2.55v-.134l1.074-1.61 1.477 1.744zM97.81 72.45c0-.671-.134-1.476-.134-2.281l.939 1.073-.805 1.207zm2.55 0l-1.074-1.207.805-1.207c.134.939.269 1.744.269 2.415zm-1.343-1.61l-1.342-1.61h2.416l-1.073 1.61zm-1.476-2.281l1.074-1.744 1.342 1.744h-2.416zm2.416-1.073l-.939-1.073.671-1.073c.134.671.134 1.476.268 2.147zm-.537-4.964l-.939-1.073.671-1.073c.134.671.268 1.476.268 2.147zm-.268-3.22l-1.074 1.61-1.342-1.61h2.416zm-.134-1.878l-.805-1.073.671-1.073c0 .805.134 1.476.134 2.147zm-.268-3.086l-.939 1.476-1.208-1.61 2.147.134zm0-.671h-2.013l.939-1.61 1.074 1.61zm-2.147-1.073v-2.147l.671.939-.671 1.208zm2.147-.268l-.671-.939.537-.939c0 .671 0 1.342.134 1.878zm-.268-2.952l-.805 1.61-1.074-1.476h1.879v-.134zm0-.671h-1.879v-.134l.805-1.476.939 1.476c.134 0 .134.134.134.134zm-1.879-1.342v-1.744l.537.805-.537.939zm1.745-.134l-.537-.805.403-.805c.134.537.134 1.073.134 1.61zm-.134-2.817l-.805 1.342-.805-1.342v-.134l1.611.134zm0-.671h-1.611v-.134l.805-1.476.805 1.476v.134zm-1.611-1.476v-1.476l.403.671-.403.805zm1.611-.134l-.403-.671.403-.671c-.134.403-.134.939 0 1.342zm-.134-2.549l-.671 1.342-.671-1.342v-.134h1.342v.134zm0-.805h-1.342v-.268l.671-1.342.671 1.342v.268zm-1.476-1.61v-1.208l.268.537-.268.671zm1.342-.134l-.268-.537.268-.537v1.073zm0-2.415l-.537 1.208-.671-1.208v-.268h1.208v.268zm-.805-16.905l.537 1.073v.134h-1.074v-.134l.537-1.073zm-.537-.403v-.671l.134.268-.134.402zm.268-1.61h.671l-.403.671-.269-.671zm.671 1.342l.134-.402v.671l-.134-.268zm.134 2.415v.268l-.537 1.073-.537-1.207v-.268h1.074v.134zm0 2.549l-.134-.402.134-.402v.805zm-.805-.402l-.134.402v-.805l.134.402zm.269.805l.537 1.073v.268h-1.074v-.268l.537-1.073zm.537 2.012v.268l-.537 1.073-.537-1.073v-.268h1.074zm0 1.744v.805l-.134-.402.134-.402zm-.805.402l-.134.402v-.805l.134.402zm.269.805l.537 1.207v.268h-1.074v-.268l.537-1.207zm.671 2.012v.268l-.537 1.207-.537-1.207v-.268h1.074zm0 1.61v.939l-.268-.537.268-.402zm-.94.537l-.268.537v-1.073l.268.537zm.403.671l.671 1.208v.268h-1.208v-.268l.537-1.208zm-.939-19.857v-2.281c.94.268 1.342 1.61 1.476 2.281h-1.476zm0 58.497l.134-.134v.537l-.134-.403zm.403-13.283c0-.403 0-.805-.134-1.208v-1.073l.805 1.073-.671 1.208zm0 1.073l1.074-1.744 1.208 1.744h-2.282zm-.268 17.173l.537-.671c0 .537.134 1.073.134 1.61l-.671-.939zm.403-15.429l.94 1.073-.805 1.073c0-.671 0-1.342-.134-2.147zm.269 3.22l1.074-1.61 1.342 1.61h-2.416zm.134.671h2.416l-1.074 1.61-1.342-1.61zm0 1.073l.939 1.073-.805 1.207c0-.805-.134-1.61-.134-2.281zm-.805 15.966l.939-1.073c.134.939.134 1.878.268 2.549l-1.208-1.476zm1.342 2.952c.134.671.134 1.207.134 1.61h-1.476l1.342-1.61zm-1.342 6.977h2.282v.134l-.939.939-1.342-1.073zm.134 2.952l1.208-1.073 1.208 1.073h-2.416zm2.55-8.318c0-.403-.134-.805-.134-1.207l1.073 1.207h-.939zm.939 6.172l1.074.671-.94.805c0-.537-.134-1.073-.134-1.476zm1.611 1.073l1.744 1.073h-3.086l1.342-1.073zm-.94 3.891l1.342 1.207h-1.073c-.135-.537-.269-.939-.269-1.207zm.269 1.744h1.073l-.939 1.342c0-.403 0-.94-.134-1.342zm1.744.134l2.282 2.147h-3.758l1.476-2.147zm-1.073 3.488l1.476 1.208h-1.208c-.134-.403-.268-.805-.268-1.208zm.671 3.489c-.135-.537-.269-1.074-.269-1.61h1.342l-1.073 1.61zm1.61-1.476l2.416 2.147h-3.758l1.342-2.147zm-1.208 3.354l1.611 1.208h-1.342c-.134-.403-.269-.805-.269-1.208zm.671 3.354c-.134-.536-.268-1.073-.402-1.476h1.476l-1.074 1.476zm.135 9.929l.805.939-.805.939-.806-.939.806-.939zm-.671-.269l-.537.671-.537-.671h1.074zm-.94 1.074l-.805.939-.805-.939.805-.94.805.94zm-1.476-1.074l-.537.671-.537-.671h1.074zm-2.282 0l-.537.671-.537-.671h1.074zm-1.879 2.147v-2.147l.939 1.074-.939 1.073zm.805 0l.537-.537.537.537h-1.074zm1.745-.134l-.805-.939.805-.94.805.94-.805.939zm.671.134l.537-.537.537.537h-1.074zm1.745 1.476c-.268-.134-.537-.134-.805-.269v-.536h.939l-.134.805zm1.074-2.013l.537.537h-1.074l.537-.537zm.268 2.549c-.268-.134-.403-.134-.671-.268l.268-1.073h.806.268l-.671 1.341zm.537.135l.671-1.476h.403 1.073l-1.208 2.012c-.402-.134-.671-.402-.939-.536zm1.476.805l1.074-1.745c.134.537.268.94.537 1.476l-.806.805c-.268-.268-.536-.402-.805-.536zm1.342.805l.537-.537c.134.402.269.805.403 1.342-.269-.269-.671-.537-.94-.805zm.94-3.086h2.013l-1.476 1.744c-.269-.671-.403-1.208-.537-1.744zm2.684.134l3.355 2.147h-5.234l1.879-2.147zm-1.476 3.354l2.415 1.476h-1.879c-.268-.403-.402-.939-.536-1.476zm.671 2.147h2.281l-1.476 1.878c-.268-.537-.537-1.207-.805-1.878zm2.952.134l3.49 2.147h-5.234l1.744-2.147zm3.892 2.683l-1.61 2.013-3.758-2.013h5.368zm-5.368.805l2.55 1.476h-1.879c-.268-.537-.403-1.073-.671-1.476zm.805 2.013h2.282l-1.476 1.878c-.135-.671-.403-1.207-.806-1.878zm3.087.134l4.026 2.147h-5.771l1.745-2.147zm-.671 4.964c-.268-.402-.537-.939-.805-1.61l2.818 1.61h-2.013zm.268.537h2.282l-1.342 1.744c-.269-.268-.537-.939-.94-1.744zm1.477 2.012l1.476-1.878 3.489 1.878h-4.965zm2.684-2.012h1.879c.268.536.537 1.073.671 1.476l-2.55-1.476z" fill="#b2927d"/><path d="M186.055 144.63H5.945c-1.074 0-1.945.871-1.945 1.945s.871 1.946 1.945 1.946h180.11c1.074 0 1.945-.871 1.945-1.946s-.871-1.945-1.945-1.945z" fill="#fd5631"/></g><defs><clipPath id="A"><path fill="#fff" d="M0 0h192v148H0z"/></clipPath><path id="B" d="M38.76 103.039h-1.879v1.878h1.879v-1.878z"/><path id="C" d="M41.177 103.039h-1.879v1.879h1.879v-1.879z"/><path id="D" d="M25.339 103.039H23.46v1.878h1.879v-1.878z"/><path id="E" d="M20.509 114.846H18.63v1.878h1.879v-1.878z"/><path id="F" d="M56.074 89.217h-.939v46.02h.939v-46.02z"/><path id="G" d="M177.934 84.658h-10.737v.939h10.737v-.939z"/><path id="H" d="M144.114 96.068h-6.576v1.073h6.576v-1.073z"/><path id="I" d="M159.147 96.068h-6.577v1.073h6.577v-1.073z"/><path id="J" d="M144.114 110.017h-6.576v1.074h6.576v-1.074z"/><path id="K" d="M159.147 110.017h-6.577v1.074h6.577v-1.074z"/><path id="L" d="M128.277 136.847h-2.684v7.782h2.684v-7.782z"/><path id="M" d="M133.646 136.847h-2.684v7.781h2.684v-7.781z"/><path id="N" d="M63.883 144.701h2.684v-7.782h-2.684v7.782z"/></defs></svg>