<svg width="200" height="144" viewBox="0 0 200 144" fill="none" xmlns="http://www.w3.org/2000/svg">
<path d="M196 0H4C1.79086 0 0 1.79086 0 4V140C0 142.209 1.79086 144 4 144H196C198.209 144 200 142.209 200 140V4C200 1.79086 198.209 0 196 0Z" fill="#F8FAFD"/>
<path opacity="0.3" d="M100 71.9167C97.6068 71.9167 95.6667 69.9766 95.6667 67.5833C95.6667 65.1901 97.6068 63.25 100 63.25C102.393 63.25 104.333 65.1901 104.333 67.5833C104.333 69.9766 102.393 71.9167 100 71.9167Z" fill="#71869D"/>
<path d="M90.2507 81.8825C90.6706 76.7121 94.8671 74.0833 99.982 74.0833C105.169 74.0833 109.43 76.5676 109.748 81.8833C109.76 82.0951 109.748 82.75 108.934 82.75C104.92 82.75 98.9543 82.75 91.0381 82.75C90.7664 82.75 90.2278 82.1641 90.2507 81.8825Z" fill="#71869D"/>
<path opacity="0.3" fill-rule="evenodd" clip-rule="evenodd" d="M139.702 73.766L137.404 76.0641C136.981 76.4872 136.981 77.1731 137.404 77.5962C137.827 78.0193 138.513 78.0193 138.936 77.5962L141.234 75.2981L142 76.0641C142.846 76.9103 142.846 78.2821 142 79.1283L138.936 82.1924C138.09 83.0385 136.718 83.0385 135.872 82.1924L132.808 79.1283C131.961 78.2821 131.961 76.9103 132.808 76.0641L135.872 73C136.718 72.1539 138.09 72.1539 138.936 73L139.702 73.766Z" fill="#71869D"/>
<path fill-rule="evenodd" clip-rule="evenodd" d="M144.298 72.234L146.596 69.9359C147.019 69.5128 147.019 68.8269 146.596 68.4038C146.173 67.9807 145.487 67.9807 145.064 68.4038L142.766 70.7019L142 69.9359C141.154 69.0897 141.154 67.7179 142 66.8717L145.064 63.8076C145.91 62.9615 147.282 62.9615 148.128 63.8076L151.192 66.8717C152.039 67.7179 152.039 69.0897 151.192 69.9359L148.128 73C147.282 73.8461 145.91 73.8461 145.064 73L144.298 72.234Z" fill="#71869D"/>
<path opacity="0.3" fill-rule="evenodd" clip-rule="evenodd" d="M133.515 66.0468C133.124 65.6563 133.124 65.0231 133.515 64.6326L133.632 64.5147C134.023 64.1242 134.656 64.1242 135.047 64.5147L136.697 66.1646C137.087 66.5552 137.087 67.1883 136.697 67.5788L136.579 67.6967C136.188 68.0872 135.555 68.0872 135.165 67.6967L133.515 66.0468ZM138.038 62.641C138.038 62.0887 138.486 61.6409 139.038 61.641L139.205 61.641C139.757 61.6409 140.205 62.0887 140.205 62.641L140.205 64.9743C140.205 65.5266 139.757 65.9743 139.205 65.9743L139.038 65.9743C138.486 65.9743 138.038 65.5266 138.038 64.9743L138.038 62.641ZM130.827 69.8525C130.827 69.3002 131.274 68.8525 131.827 68.8525H134.16C134.712 68.8525 135.16 69.3002 135.16 69.8525V70.0192C135.16 70.5715 134.712 71.0192 134.16 71.0192L131.827 71.0192C131.274 71.0192 130.827 70.5715 130.827 70.0192L130.827 69.8525Z" fill="#71869D"/>
<path opacity="0.3" fill-rule="evenodd" clip-rule="evenodd" d="M148.822 81.3538C149.212 81.7444 149.845 81.7444 150.236 81.3538L150.354 81.236C150.744 80.8455 150.744 80.2123 150.354 79.8218L148.704 78.1719C148.313 77.7813 147.68 77.7813 147.29 78.1719L147.172 78.2897C146.781 78.6802 146.781 79.3134 147.172 79.7039L148.822 81.3538ZM152.228 76.8302C152.78 76.8302 153.228 76.3824 153.228 75.8302L153.228 75.6635C153.228 75.1112 152.78 74.6635 152.228 74.6635L149.894 74.6635C149.342 74.6635 148.894 75.1112 148.894 75.6635V75.8302C148.894 76.3824 149.342 76.8302 149.894 76.8302L152.228 76.8302ZM145.016 84.0418C145.568 84.0418 146.016 83.594 146.016 83.0418V80.7084C146.016 80.1561 145.568 79.7084 145.016 79.7084L144.849 79.7084C144.297 79.7084 143.849 80.1561 143.849 80.7084L143.849 83.0418C143.849 83.594 144.297 84.0418 144.849 84.0418L145.016 84.0418Z" fill="#71869D"/>
<rect opacity="0.3" x="47.1667" y="61.1667" width="10.8333" height="13" rx="2" fill="#71869D"/>
<path fill-rule="evenodd" clip-rule="evenodd" d="M49.1667 65.5C48.0621 65.5 47.1667 66.3954 47.1667 67.5V80.8333C47.1667 81.9379 48.0621 82.8333 49.1667 82.8333H66.8333C67.9379 82.8333 68.8333 81.9379 68.8333 80.8333V67.5C68.8333 66.3954 67.9379 65.5 66.8333 65.5H49.1667ZM66.6666 74.1667C66.6666 75.3633 65.6966 76.3333 64.5 76.3333C63.3034 76.3333 62.3333 75.3633 62.3333 74.1667C62.3333 72.97 63.3034 72 64.5 72C65.6966 72 66.6666 72.97 66.6666 74.1667Z" fill="#71869D"/>
</svg>
