<svg width="200" height="144" viewBox="0 0 200 144" fill="none" xmlns="http://www.w3.org/2000/svg">
<path d="M196 0H4C1.79086 0 0 1.79086 0 4V140C0 142.209 1.79086 144 4 144H196C198.209 144 200 142.209 200 140V4C200 1.79086 198.209 0 196 0Z" fill="#F8FAFD"/>
<rect x="39.5" y="30.5" width="121" height="83" rx="3.5" stroke="#D9DDEA" stroke-dasharray="5 6"/>
<path d="M123.726 85.7011L111.244 70.5295C110.94 70.1249 110.46 69.876 109.932 69.876H109.228C108.7 69.8915 108.204 70.1249 107.9 70.5295L103.899 75.4156L95.6104 64.1497C95.2904 63.714 94.7623 63.465 94.2183 63.4961H93.5462C93.0181 63.4961 92.5221 63.7451 92.218 64.1497L76.264 85.7011C75.912 86.2302 75.912 86.8993 76.264 87.4284L76.7281 88.1908C77.0161 88.6888 77.5602 89 78.1523 89H121.87C122.462 89 123.006 88.6888 123.294 88.1908L123.758 87.4284C124.078 86.8993 124.094 86.2302 123.726 85.7011ZM82.3608 84.7519L93.8982 69.1757L98.8748 84.7519H82.3608ZM113.117 63.4961C115.533 63.4961 117.485 61.5977 117.485 59.2481C117.485 56.8984 115.533 55 113.117 55C110.7 55 108.748 56.8984 108.748 59.2481C108.748 61.5977 110.7 63.4961 113.117 63.4961Z" fill="#BDC5D1"/>
</svg>
