<svg width="200" height="144" viewBox="0 0 200 144" fill="none" xmlns="http://www.w3.org/2000/svg">
<path d="M196 0H4C1.79086 0 0 1.79086 0 4V140C0 142.209 1.79086 144 4 144H196C198.209 144 200 142.209 200 140V4C200 1.79086 198.209 0 196 0Z" fill="#F8FAFD"/>
<path d="M111.49 38.7169C112.169 39.567 113.292 41.836 112.362 43.6088M115.351 45.992C115.587 45.5321 116.057 44.5119 116.057 44.1105C116.057 43.6088 121.288 43.9015 122.077 38.3406C123.538 38.3406 124.319 37.128 123.198 36.6263C122.002 36.0242 121.869 34.912 122.077 34.2431C122.409 33.365 122.326 32.2361 122.201 32.2361" stroke="#71869D" stroke-width="0.541571" stroke-linecap="round"/>
<ellipse cx="121.131" cy="35.323" rx="0.216629" ry="0.3791" fill="#71869D"/>
<path d="M119.939 34.5107C120.174 34.2855 120.784 33.9533 121.347 34.4263" stroke="#71869D" stroke-width="0.541571" stroke-linecap="round"/>
<ellipse cx="118.26" cy="35.9188" rx="0.270786" ry="0.324943" fill="#71869D"/>
<ellipse cx="117.177" cy="37.7601" rx="0.270786" ry="0.324943" fill="#71869D"/>
<ellipse cx="118.748" cy="37.1644" rx="0.324943" ry="0.270786" fill="#71869D"/>
<path d="M119.289 38.6266C119.397 39.096 119.809 40.0347 120.589 40.0347" stroke="#71869D" stroke-width="0.541571" stroke-linecap="round"/>
<path d="M119.265 38.6266C118.958 39.4911 118.792 40.9904 120.589 40.0721" stroke="#71869D" stroke-width="0.541571" stroke-linecap="round"/>
<path d="M114.952 37.0218C114.118 37.3945 113.715 36.4996 113.618 36.0056C113.354 35.0882 113.185 33.2448 114.618 33.2109C114.938 33.2251 115.56 33.609 115.493 35.0317" stroke="#71869D" stroke-width="0.541571" stroke-linecap="round"/>
<path d="M114.589 34.8356C114.502 35.0617 114.433 35.5731 114.848 35.8105" stroke="#71869D" stroke-width="0.541571" stroke-linecap="round"/>
<path d="M113.655 36.0767C113.455 37.9211 111.982 38.6896 111.27 38.8433C110.559 37.9909 109.295 35.3557 109.931 31.6333C110.726 26.9804 113.655 25.4713 119.096 25.9325C123.448 26.3013 125.875 24.8007 126.544 24.0042C126.628 28.5314 123.866 31.4237 122.401 32.1783C121.23 32.7819 119.542 31.3399 118.844 30.5435C118.607 31.2561 117.974 32.7064 117.338 32.807C116.702 32.9076 116.459 34.1624 116.417 34.7772C116.049 35.7162 115.734 35.4199 115.622 35.1545C115.287 33.3436 114.59 33.1144 114.283 33.2262C113.078 33.461 113.363 35.2243 113.655 36.0767Z" fill="#71869D"/>
<path d="M92.6295 98.3915C91.4257 92.1774 95.8896 77.9841 98.2721 71.6642C99.0662 72.0401 105.712 70.7455 107.844 67.6551C109.549 65.1828 112.445 64.2118 113.862 63.7713C115.743 63.1866 118.878 63.2702 119.463 64.6901L120.09 66.1517C122.138 72.0401 120.355 80.9909 119.087 84.9861L114.406 85.8213C110.861 80.075 112.678 73.0702 114.03 70.2861C112.592 72.2238 108.554 74.2673 106.715 75.0469C106.631 80.1835 98.7736 97.8904 97.0599 99.0179C95.689 99.92 93.5351 98.9762 92.6295 98.3915Z" fill="#71869D"/>
<path d="M93.207 98.741L92.0904 101.69L91.9946 101.942C91.8884 102.198 91.8147 102.626 91.9946 102.991C92.1215 103.248 92.3744 103.474 92.8308 103.585C93.9344 103.855 98.0844 104.147 100.021 104.259C100.356 104.301 100.991 104.141 100.857 103.164C100.724 102.187 100.021 101.292 99.227 100.931C98.5827 100.639 96.9213 100.184 95.0465 100.479M94.4612 100.594C94.6579 100.547 94.8533 100.509 95.0465 100.479M95.6317 99.415L95.0465 100.479" stroke="#71869D" stroke-width="0.541571" stroke-linecap="round"/>
<path d="M115.073 85.5947C115.031 86.8339 115.144 89.2734 115.45 89.6464C115.827 90.1059 116.288 90.1477 119.096 89.2705C121.342 88.5688 122.239 88.5604 122.784 88.4769C123.161 88.419 123.622 88.3683 123.622 87.4326C123.622 86.2631 123.161 85.4694 121.736 85.3024C120.596 85.1687 118.97 85.8593 118.3 86.2213V85.0935" stroke="#71869D" stroke-width="0.541571" stroke-linecap="round"/>
<path d="M119.614 51.8515C119.614 49.8549 117.667 46.1465 115.393 46.113C113.12 46.0794 112.189 44.5073 112.008 43.7254C111.841 43.5159 111.248 43.34 110.211 44.3118M111.298 43.5159C110.931 43.4383 110.587 43.2646 109.71 43.5513M108.08 44.6469C108.493 44.0175 109.166 43.6111 109.71 43.5513M109.71 43.5513C105.405 43.9863 96.9466 45.8197 97.5484 49.6734C97.6407 50.0006 97.9057 50.5227 98.3999 51.0138M100.516 52.1447C99.5642 51.931 98.8758 51.4868 98.3999 51.0138M98.3999 51.0138C99.7459 53.1081 103.692 57.6571 108.707 59.098" stroke="#71869D" stroke-width="0.541571" stroke-linecap="round"/>
<path d="M108.674 59.098C108.981 58.6862 109.786 57.9419 110.732 57.9066" stroke="#71869D" stroke-width="0.541571" stroke-linecap="round"/>
<path d="M110.732 57.9065C110.705 56.7304 109.712 53.6975 105.967 50.9744" stroke="#71869D" stroke-width="0.541571" stroke-linecap="round"/>
<path d="M104.883 51.9493C105.272 51.3198 106.466 49.9837 108.133 49.6747" stroke="#71869D" stroke-width="0.541571" stroke-linecap="round"/>
<path d="M114.198 50.7578C114.379 50.9712 114.74 51.5515 114.74 52.1659" stroke="#71869D" stroke-width="0.541571" stroke-linecap="round"/>
<path d="M108.783 59.0812C109.161 60.1803 110.521 62.1531 112.939 61.2516C115.357 60.35 115.457 59.8742 115.205 59.749M114.156 59.749C115.009 59.7073 116.792 59.5821 117.094 59.4151C117.472 59.2064 117.556 59.2064 117.556 58.7891C117.556 58.3717 114.156 59.0812 114.156 57.7456C114.464 57.4396 114.962 56.7523 114.492 56.4518C114.022 56.1513 113.037 57.0222 112.603 57.4952C112.155 57.9682 111.15 58.7139 110.714 57.9126" stroke="#71869D" stroke-width="0.541571" stroke-linecap="round"/>
<path d="M115.715 59.7354C117.534 61.4336 121.985 63.9697 125.242 60.5288M125.242 60.5288C125.298 59.9303 125.628 58.6664 126.501 58.3991C126.641 57.5918 127.114 56.1358 127.886 56.7706M125.242 60.5288C127.262 60.736 128.698 60.1935 129.607 59.549M127.425 58.3156C127.607 57.3691 128.247 55.5429 129.355 55.8101M128.81 58.3156C129.118 57.8284 129.708 56.5701 129.607 55.4343C129.621 54.9332 129.884 54.0312 130.824 54.4321C131.765 54.833 131.132 57.2438 130.698 58.3991C130.523 58.7216 130.164 59.1544 129.607 59.549M129.607 59.549C130.195 59.3884 131.479 58.6413 131.916 56.9376C132.352 55.2339 131.762 55.2255 131.412 55.4343" stroke="#71869D" stroke-width="0.541571" stroke-linecap="round"/>
<path d="M115.39 59.9645C115.39 60.7529 115.195 62.5498 114.415 63.4306" stroke="#71869D" stroke-width="0.541571" stroke-linecap="round"/>
<path d="M98.3845 61.8059C96.668 64.1226 94.2649 69.3591 98.3845 71.7708" stroke="#71869D" stroke-width="0.541571" stroke-linecap="round"/>
<path d="M149.725 51.841L150.7 50.2162" stroke="#71869D" stroke-width="0.541571" stroke-linecap="round"/>
<path d="M150.202 52.6903L152 52.6066" stroke="#71869D" stroke-width="0.541571" stroke-linecap="round"/>
<path d="M149.834 53.6823L150.917 55.0904" stroke="#71869D" stroke-width="0.541571" stroke-linecap="round"/>
<path d="M147.16 48.8082V50.3787M147.16 55.2529V73.7229M150.592 70.4622H131.171V93.7467M134.77 90.4442H110.828V107.876M114.428 104.699H85.1702V118.996" stroke="#71869D" stroke-width="1.62471" stroke-linecap="round"/>
<path d="M64.5905 109.464L81.0542 95.3833" stroke="#71869D" stroke-opacity="0.3" stroke-width="1.62471" stroke-linecap="round"/>
<path d="M48.8849 109.897L58.0916 101.882" stroke="#71869D" stroke-opacity="0.3" stroke-width="1.62471" stroke-linecap="round"/>
<path d="M65.8903 89.8592L84.8453 75.1285" stroke="#71869D" stroke-opacity="0.3" stroke-width="1.62471" stroke-linecap="round"/>
<path d="M109.22 60.1309L85.2424 62.889C82.4687 60.6669 83.1398 57.3495 83.8221 55.9686L100.49 53.9708M117.45 59.4649L125.679 58.6741M131.694 57.8L137.083 57.4254L144.31 54.1497C143.441 53.2273 143.917 52.4056 144.279 52.1117L137.083 50.4329L108.594 52.8053" stroke="#71869D" stroke-width="0.541571" stroke-linecap="round"/>
<path d="M81.2403 56.0032L83.6828 55.7403C81.9888 59.5353 83.9307 62.1173 85.1702 63.1219L82.3193 63.5389C79.9366 60.6369 80.5508 57.3893 81.2403 56.0032Z" fill="#71869D"/>
<path d="M144.57 54.3322C143.663 53.386 144.173 52.2591 144.55 51.8951L147.992 52.7446L144.57 54.3322Z" fill="#71869D"/>
<path d="M137.161 50.4329C136.262 51.5743 135.003 54.5587 137.161 57.365" stroke="#71869D" stroke-width="0.541571"/>
</svg>
