<svg width="200" height="144" viewBox="0 0 200 144" fill="none" xmlns="http://www.w3.org/2000/svg">
<path d="M196 0H4C1.79086 0 0 1.79086 0 4V140C0 142.209 1.79086 144 4 144H196C198.209 144 200 142.209 200 140V4C200 1.79086 198.209 0 196 0Z" fill="#F8FAFD"/>
<path d="M40 78H28C26.8954 78 26 78.8954 26 80C26 81.1046 26.8954 82 28 82H40C41.1046 82 42 81.1046 42 80C42 78.8954 41.1046 78 40 78Z" fill="#A7B4C3"/>
<path d="M76 78H64C62.8954 78 62 78.8954 62 80C62 81.1046 62.8954 82 64 82H76C77.1046 82 78 81.1046 78 80C78 78.8954 77.1046 78 76 78Z" fill="#71869D"/>
<path d="M100 78H88C86.8954 78 86 78.8954 86 80C86 81.1046 86.8954 82 88 82H100C101.105 82 102 81.1046 102 80C102 78.8954 101.105 78 100 78Z" fill="#D9DDEA"/>
<path d="M124 78H112C110.895 78 110 78.8954 110 80C110 81.1046 110.895 82 112 82H124C125.105 82 126 81.1046 126 80C126 78.8954 125.105 78 124 78Z" fill="#D9DDEA"/>
<path d="M148 78H136C134.895 78 134 78.8954 134 80C134 81.1046 134.895 82 136 82H148C149.105 82 150 81.1046 150 80C150 78.8954 149.105 78 148 78Z" fill="#D9DDEA"/>
<path d="M172 78H160C158.895 78 158 78.8954 158 80C158 81.1046 158.895 82 160 82H172C173.105 82 174 81.1046 174 80C174 78.8954 173.105 78 172 78Z" fill="#D9DDEA"/>
<path d="M70 62H38C35.7909 62 34 63.7909 34 66C34 68.2091 35.7909 70 38 70H70C72.2091 70 74 68.2091 74 66C74 63.7909 72.2091 62 70 62Z" fill="#71869D"/>
<path d="M94 70C96.2091 70 98 68.2091 98 66C98 63.7909 96.2091 62 94 62C91.7909 62 90 63.7909 90 66C90 68.2091 91.7909 70 94 70Z" fill="#A7B4C3"/>
<path d="M118 70C120.209 70 122 68.2091 122 66C122 63.7909 120.209 62 118 62C115.791 62 114 63.7909 114 66C114 68.2091 115.791 70 118 70Z" fill="#A7B4C3"/>
<path d="M142 70C144.209 70 146 68.2091 146 66C146 63.7909 144.209 62 142 62C139.791 62 138 63.7909 138 66C138 68.2091 139.791 70 142 70Z" fill="#A7B4C3"/>
<path d="M166 70C168.209 70 170 68.2091 170 66C170 63.7909 168.209 62 166 62C163.791 62 162 63.7909 162 66C162 68.2091 163.791 70 166 70Z" fill="#A7B4C3"/>
</svg>
