<svg width="200" height="144" viewBox="0 0 200 144" fill="none" xmlns="http://www.w3.org/2000/svg">
<path d="M196 0H4C1.79086 0 0 1.79086 0 4V140C0 142.209 1.79086 144 4 144H196C198.209 144 200 142.209 200 140V4C200 1.79086 198.209 0 196 0Z" fill="#F8FAFD"/>
<rect x="43.5" y="48.5" width="112" height="19" rx="3.5" stroke="#D9DDEA"/>
<rect x="43.5" y="75.5" width="112" height="19" rx="3.5" stroke="#D9DDEA"/>
<path d="M148.019 87.4285C149.295 86.29 150 85 150 85C150 85 147.75 80.875 144 80.875C143.28 80.8775 142.568 81.0276 141.908 81.316L142.485 81.8942C142.971 81.7174 143.483 81.6263 144 81.625C145.59 81.625 146.909 82.501 147.876 83.4677C148.341 83.9355 148.758 84.4488 149.121 85C149.078 85.0652 149.03 85.1372 148.975 85.216C148.724 85.576 148.352 86.056 147.876 86.5323C147.752 86.656 147.623 86.7783 147.488 86.8968L148.019 87.4285Z" fill="#D9DDEA"/>
<path d="M146.473 85.8819C146.64 85.4138 146.671 84.9078 146.562 84.4227C146.453 83.9377 146.209 83.4935 145.857 83.142C145.506 82.7905 145.061 82.546 144.576 82.437C144.091 82.328 143.585 82.359 143.117 82.5264L143.735 83.1436C144.023 83.1024 144.317 83.1288 144.593 83.2209C144.869 83.3129 145.12 83.468 145.326 83.6739C145.532 83.8798 145.687 84.1308 145.779 84.407C145.871 84.6833 145.898 84.9772 145.856 85.2654L146.473 85.8819ZM144.266 86.8561L144.882 87.4726C144.414 87.64 143.908 87.671 143.423 87.562C142.938 87.453 142.494 87.2086 142.142 86.857C141.791 86.5055 141.546 86.0614 141.437 85.5763C141.328 85.0913 141.359 84.5853 141.527 84.1171L142.144 84.7344C142.102 85.0226 142.129 85.3165 142.221 85.5928C142.313 85.869 142.468 86.12 142.674 86.3259C142.88 86.5318 143.131 86.6869 143.407 86.7789C143.683 86.871 143.977 86.8974 144.266 86.8561Z" fill="#D9DDEA"/>
<path d="M140.512 83.1025C140.377 83.2225 140.248 83.344 140.124 83.4677C139.659 83.9355 139.242 84.4488 138.879 85L139.025 85.216C139.276 85.576 139.648 86.056 140.124 86.5322C141.091 87.499 142.411 88.375 144 88.375C144.537 88.375 145.043 88.2752 145.515 88.105L146.092 88.684C145.432 88.9724 144.72 89.1225 144 89.125C140.25 89.125 138 85 138 85C138 85 138.704 83.7092 139.981 82.5715L140.512 83.1032L140.512 83.1025ZM148.234 89.7655L139.235 80.7655L139.766 80.2345L148.766 89.2345L148.234 89.7655Z" fill="#D9DDEA"/>
<path d="M150 58C150 58 147.75 53.875 144 53.875C140.25 53.875 138 58 138 58C138 58 140.25 62.125 144 62.125C147.75 62.125 150 58 150 58ZM138.88 58C139.242 57.4488 139.659 56.9355 140.125 56.4677C141.09 55.501 142.41 54.625 144 54.625C145.59 54.625 146.909 55.501 147.876 56.4677C148.341 56.9355 148.758 57.4488 149.121 58C149.078 58.0652 149.03 58.1372 148.975 58.216C148.724 58.576 148.352 59.056 147.876 59.5323C146.909 60.499 145.589 61.375 144 61.375C142.41 61.375 141.091 60.499 140.124 59.5323C139.659 59.0645 139.242 58.5512 138.879 58H138.88Z" fill="#D9DDEA"/>
<path d="M144 56.125C143.503 56.125 143.026 56.3225 142.674 56.6742C142.323 57.0258 142.125 57.5027 142.125 58C142.125 58.4973 142.323 58.9742 142.674 59.3258C143.026 59.6775 143.503 59.875 144 59.875C144.497 59.875 144.974 59.6775 145.326 59.3258C145.677 58.9742 145.875 58.4973 145.875 58C145.875 57.5027 145.677 57.0258 145.326 56.6742C144.974 56.3225 144.497 56.125 144 56.125ZM141.375 58C141.375 57.3038 141.652 56.6361 142.144 56.1438C142.636 55.6516 143.304 55.375 144 55.375C144.696 55.375 145.364 55.6516 145.856 56.1438C146.348 56.6361 146.625 57.3038 146.625 58C146.625 58.6962 146.348 59.3639 145.856 59.8562C145.364 60.3484 144.696 60.625 144 60.625C143.304 60.625 142.636 60.3484 142.144 59.8562C141.652 59.3639 141.375 58.6962 141.375 58Z" fill="#D9DDEA"/>
<rect x="50" y="55" width="63" height="6" rx="3" fill="#D9DDEA"/>
<circle cx="53" cy="85" r="3" fill="#D9DDEA"/>
<circle cx="62" cy="85" r="3" fill="#D9DDEA"/>
<circle cx="71" cy="85" r="3" fill="#D9DDEA"/>
<circle cx="80" cy="85" r="3" fill="#D9DDEA"/>
<circle cx="89" cy="85" r="3" fill="#D9DDEA"/>
<circle cx="98" cy="85" r="3" fill="#D9DDEA"/>
<circle cx="107" cy="85" r="3" fill="#D9DDEA"/>
</svg>
