<svg width="200" height="144" viewBox="0 0 200 144" fill="none" xmlns="http://www.w3.org/2000/svg">
<path d="M196 0H4C1.79086 0 0 1.79086 0 4V140C0 142.209 1.79086 144 4 144H196C198.209 144 200 142.209 200 140V4C200 1.79086 198.209 0 196 0Z" fill="#F8FAFD"/>
<rect x="36.4445" y="84.2222" width="4.88889" height="9.77778" fill="#D9DDEA"/>
<rect x="48.6667" y="74.4443" width="4.88889" height="19.5556" fill="#D9DDEA"/>
<rect x="60.8889" y="67.1111" width="4.88889" height="26.8889" fill="#D9DDEA"/>
<rect x="73.1111" y="57.3333" width="4.88889" height="36.6667" fill="#71869D"/>
<rect x="85.3333" y="50" width="4.88889" height="44" fill="#71869D"/>
<rect x="97.5555" y="64.6667" width="4.88889" height="29.3333" fill="#71869D"/>
<rect x="109.778" y="74.4443" width="4.88889" height="19.5556" fill="#71869D"/>
<rect x="122" y="62.2222" width="4.88889" height="31.7778" fill="#71869D"/>
<rect x="134.222" y="52.4443" width="4.88889" height="41.5556" fill="#D9DDEA"/>
<rect x="146.444" y="57.3333" width="4.88889" height="36.6667" fill="#D9DDEA"/>
<rect x="158.667" y="76.8889" width="4.88889" height="17.1111" fill="#D9DDEA"/>
</svg>
