<svg width="200" height="144" viewBox="0 0 200 144" fill="none" xmlns="http://www.w3.org/2000/svg">
<path d="M196 0H4C1.79086 0 0 1.79086 0 4V140C0 142.209 1.79086 144 4 144H196C198.209 144 200 142.209 200 140V4C200 1.79086 198.209 0 196 0Z" fill="#F8FAFD"/>
<path fill-rule="evenodd" clip-rule="evenodd" d="M73 72C73 62.6112 80.6112 55 90 55H109C118.389 55 126 62.6112 126 72C126 81.3888 118.389 89 109 89H90C80.6112 89 73 81.3888 73 72Z" fill="#D9DDEA"/>
<path fill-rule="evenodd" clip-rule="evenodd" d="M77 72C77 64.8203 82.8203 59 90 59C97.1797 59 103 64.8203 103 72C103 79.1797 97.1797 85 90 85C82.8203 85 77 79.1797 77 72Z" fill="#71869D"/>
</svg>
