<svg width="200" height="144" viewBox="0 0 200 144" fill="none" xmlns="http://www.w3.org/2000/svg">
<path d="M196 0H4C1.79086 0 0 1.79086 0 4V140C0 142.209 1.79086 144 4 144H196C198.209 144 200 142.209 200 140V4C200 1.79086 198.209 0 196 0Z" fill="#F8FAFD"/>
<path d="M75.4286 32H108.594C108.948 32 109.291 32.1257 109.562 32.3547L131.469 50.8839C131.806 51.1689 132 51.5879 132 52.0292V104.333C132 111.496 131.918 112 124.571 112H75.4286C68.0818 112 68 111.496 68 104.333V39.6667C68 32.5045 68.0818 32 75.4286 32Z" fill="#D9DDEA"/>
<path d="M101.68 76.9248L99.8646 75.3468L102.626 72.1707C103.28 71.4189 103.2 70.2796 102.448 69.626C101.697 68.9724 100.557 69.0519 99.9036 69.8037L95.9587 74.3411C94.4336 76.0952 94.6192 78.7536 96.3734 80.2787C98.1275 81.8038 100.786 81.6181 102.311 79.864L110.201 70.7893C111.726 69.0351 111.54 66.3768 109.786 64.8516L109.332 64.4572C107.829 63.1499 105.55 63.3091 104.243 64.8126L102.428 63.2346C104.607 60.7287 108.405 60.4635 110.91 62.6422L111.364 63.0367C114.121 65.4333 114.412 69.6107 112.016 72.3672L104.126 81.442C101.729 84.1985 97.5519 84.4902 94.7954 82.0936C92.0389 79.697 91.7471 75.5196 94.1437 72.7631L98.0887 68.2257C99.6138 66.4716 102.272 66.2859 104.026 67.811C105.78 69.3361 105.966 71.9945 104.441 73.7486L101.68 76.9248Z" fill="#71869D"/>
</svg>
