<svg width="200" height="144" viewBox="0 0 200 144" fill="none" xmlns="http://www.w3.org/2000/svg">
<path d="M196 0H4C1.79086 0 0 1.79086 0 4V140C0 142.209 1.79086 144 4 144H196C198.209 144 200 142.209 200 140V4C200 1.79086 198.209 0 196 0Z" fill="#F8FAFD"/>
<path d="M115 53H85C82.7909 53 81 54.7909 81 57V87C81 89.2091 82.7909 91 85 91H115C117.209 91 119 89.2091 119 87V57C119 54.7909 117.209 53 115 53Z" fill="#D9DDEA"/>
<path d="M93 72C93 75.866 96.134 79 100 79C103.866 79 107 75.866 107 72C107 68.134 103.866 65 100 65C96.134 65 93 68.134 93 72Z" fill="#71869D"/>
</svg>
