<svg width="200" height="144" viewBox="0 0 200 144" fill="none" xmlns="http://www.w3.org/2000/svg">
<path d="M196 0H4C1.79086 0 0 1.79086 0 4V140C0 142.209 1.79086 144 4 144H196C198.209 144 200 142.209 200 140V4C200 1.79086 198.209 0 196 0Z" fill="#F8FAFD"/>
<path fill-rule="evenodd" clip-rule="evenodd" d="M99.0233 89.1847C95.6947 86.3378 85 76.5994 85 69C85 60 91 54 100 54C109 54 115 61.5 115 69C115 75.3634 104.202 86.0462 100.929 89.1378C100.395 89.6421 99.5813 89.662 99.0233 89.1847ZM105 67C105 69.7614 102.761 72 100 72C97.2386 72 95 69.7614 95 67C95 64.2386 97.2386 62 100 62C102.761 62 105 64.2386 105 67Z" fill="#71869D"/>
</svg>
