<svg width="200" height="144" viewBox="0 0 200 144" fill="none" xmlns="http://www.w3.org/2000/svg">
<path d="M196 0H4C1.79086 0 0 1.79086 0 4V140C0 142.209 1.79086 144 4 144H196C198.209 144 200 142.209 200 140V4C200 1.79086 198.209 0 196 0Z" fill="#F8FAFD"/>
<rect x="51" y="71" width="76.9111" height="5.80461" rx="2.90231" fill="#D9DDEA"/>
<rect x="51" y="84.0604" width="97.2272" height="5.80461" rx="2.90231" fill="#D9DDEA"/>
<rect x="39.5" y="59.5" width="121" height="42" rx="3.5" stroke="#D9DDEA"/>
<path d="M131.903 44.9091H131.003L129.128 51.875H130.028L131.903 44.9091Z" fill="#BDC5D1"/>
<path d="M110.646 52H115.632V50.8991H112.464V50.8494L113.718 49.5746C115.131 48.218 115.522 47.5575 115.522 46.7372C115.522 45.5192 114.531 44.6278 113.068 44.6278C111.626 44.6278 110.604 45.5227 110.604 46.9041H111.857C111.857 46.1619 112.326 45.6967 113.05 45.6967C113.743 45.6967 114.258 46.1193 114.258 46.8047C114.258 47.4119 113.888 47.8452 113.171 48.5732L110.646 51.0483V52ZM119.386 52.0994C120.923 52.0994 121.996 51.0554 121.996 49.6101C121.996 48.2109 121.023 47.2024 119.702 47.2024C119.112 47.2024 118.59 47.4368 118.32 47.7564H118.278L118.487 45.8281H121.616V44.7273H117.397L117.017 48.4773L118.207 48.6726C118.452 48.4027 118.913 48.2216 119.35 48.2251C120.149 48.2287 120.724 48.8182 120.721 49.642C120.724 50.4553 120.163 51.0341 119.386 51.0341C118.729 51.0341 118.2 50.6186 118.153 50.022H116.875C116.911 51.2294 117.965 52.0994 119.386 52.0994Z" fill="#1E2022"/>
<path d="M142.604 44.7273H141.351L139.543 45.8885V47.0959L141.244 46.0092H141.287V52H142.604V44.7273ZM147.139 52.1385C148.893 52.142 149.941 50.7571 149.941 48.3707C149.941 45.9986 148.886 44.6278 147.139 44.6278C145.392 44.6278 144.341 45.995 144.337 48.3707C144.337 50.7536 145.385 52.1385 147.139 52.1385ZM147.139 51.027C146.234 51.027 145.665 50.1179 145.669 48.3707C145.673 46.6378 146.237 45.7251 147.139 45.7251C148.045 45.7251 148.609 46.6378 148.613 48.3707C148.613 50.1179 148.048 51.027 147.139 51.027ZM153.809 52.1385C155.563 52.142 156.611 50.7571 156.611 48.3707C156.611 45.9986 155.556 44.6278 153.809 44.6278C152.062 44.6278 151.011 45.995 151.007 48.3707C151.007 50.7536 152.055 52.1385 153.809 52.1385ZM153.809 51.027C152.904 51.027 152.335 50.1179 152.339 48.3707C152.343 46.6378 152.907 45.7251 153.809 45.7251C154.715 45.7251 155.279 46.6378 155.283 48.3707C155.283 50.1179 154.718 51.027 153.809 51.027Z" fill="#1E2022"/>
</svg>
