<svg width="200" height="144" viewBox="0 0 200 144" fill="none" xmlns="http://www.w3.org/2000/svg">
<path d="M196 0H4C1.79086 0 0 1.79086 0 4V140C0 142.209 1.79086 144 4 144H196C198.209 144 200 142.209 200 140V4C200 1.79086 198.209 0 196 0Z" fill="#F8FAFD"/>
<path d="M196 0H4C1.79086 0 0 1.79086 0 4V140C0 142.209 1.79086 144 4 144H196C198.209 144 200 142.209 200 140V4C200 1.79086 198.209 0 196 0Z" fill="#9CAABA" fill-opacity="0.5"/>
<rect x="39" y="30" width="122" height="84" rx="4" fill="#71869D"/>
<rect x="91" y="61" width="7" height="22" rx="1" fill="white"/>
<rect x="102" y="61" width="7" height="22" rx="1" fill="white"/>
</svg>
