<svg width="200" height="144" viewBox="0 0 200 144" fill="none" xmlns="http://www.w3.org/2000/svg">
<path d="M196 0H4C1.79086 0 0 1.79086 0 4V140C0 142.209 1.79086 144 4 144H196C198.209 144 200 142.209 200 140V4C200 1.79086 198.209 0 196 0Z" fill="#F8FAFD"/>
<rect x="16" y="30" width="117" height="48" rx="4" fill="#D9DDEA"/>
<rect x="92" y="86" width="41" height="42" rx="4" fill="#D9DDEA"/>
<rect x="16" y="86" width="68" height="42" rx="4" fill="#71869D"/>
<rect x="141" y="30" width="43" height="26" rx="4" fill="#71869D"/>
<rect x="141" y="64" width="43" height="64" rx="4" fill="#71869D"/>
<rect x="62" y="11" width="30" height="9" rx="2" fill="#71869D"/>
<rect x="16" y="11" width="30" height="9" rx="2" fill="#D9DDEA"/>
<rect x="108" y="11" width="30" height="9" rx="2" fill="#D9DDEA"/>
</svg>
