<svg width="200" height="144" viewBox="0 0 200 144" fill="none" xmlns="http://www.w3.org/2000/svg">
<path d="M196 0H4C1.79086 0 0 1.79086 0 4V140C0 142.209 1.79086 144 4 144H196C198.209 144 200 142.209 200 140V4C200 1.79086 198.209 0 196 0Z" fill="#F8FAFD"/>
<mask id="path-2-inside-1" fill="white">
<path d="M106.683 35.2863C106.949 33.8285 105.982 32.4221 104.51 32.255C96.7529 31.3747 88.8856 32.7823 81.8899 36.3346C74.0946 40.2928 67.8108 46.696 64 54.5644C60.1892 62.4328 59.0612 71.333 60.7886 79.9033C62.3388 87.5946 66.1121 94.64 71.6123 100.18C72.6562 101.232 74.3588 101.118 75.338 100.006C76.3173 98.8943 76.2011 97.2058 75.1681 96.1435C70.5426 91.3862 67.3671 85.3845 66.0486 78.8431C64.5529 71.4225 65.5296 63.7162 68.8292 56.9033C72.1289 50.0904 77.5697 44.5462 84.3193 41.1189C90.269 38.0978 96.9469 36.8683 103.547 37.5479C105.021 37.6997 106.418 36.7441 106.683 35.2863Z"/>
</mask>
<path d="M106.683 35.2863C106.949 33.8285 105.982 32.4221 104.51 32.255C96.7529 31.3747 88.8856 32.7823 81.8899 36.3346C74.0946 40.2928 67.8108 46.696 64 54.5644C60.1892 62.4328 59.0612 71.333 60.7886 79.9033C62.3388 87.5946 66.1121 94.64 71.6123 100.18C72.6562 101.232 74.3588 101.118 75.338 100.006C76.3173 98.8943 76.2011 97.2058 75.1681 96.1435C70.5426 91.3862 67.3671 85.3845 66.0486 78.8431C64.5529 71.4225 65.5296 63.7162 68.8292 56.9033C72.1289 50.0904 77.5697 44.5462 84.3193 41.1189C90.269 38.0978 96.9469 36.8683 103.547 37.5479C105.021 37.6997 106.418 36.7441 106.683 35.2863Z" stroke="#D9DDEA" stroke-width="8" mask="url(#path-2-inside-1)"/>
<mask id="path-3-inside-2" fill="white">
<path d="M71.9156 96.5729C70.8004 97.5486 70.6813 99.2508 71.7295 100.298C75.8128 104.377 80.7389 107.533 86.1749 109.535C92.4518 111.847 99.2083 112.548 105.826 111.573C112.444 110.599 118.712 107.981 124.056 103.958C129.4 99.9351 133.65 94.6363 136.417 88.5463C139.184 82.4562 140.38 75.7696 139.895 69.0981C139.409 62.4266 137.259 55.9833 133.639 50.3578C130.02 44.7323 125.048 40.1043 119.178 36.8972C114.094 34.1197 108.477 32.4848 102.719 32.0925C101.24 31.9918 100.037 33.2012 100.035 34.6829C100.034 36.1647 101.236 37.3562 102.713 37.4722C107.573 37.8541 112.309 39.2589 116.605 41.6061C121.688 44.383 125.993 48.3902 129.127 53.261C132.261 58.1318 134.123 63.7108 134.543 69.4873C134.963 75.2639 133.928 81.0536 131.532 86.3266C129.136 91.5997 125.456 96.1877 120.829 99.6709C116.202 103.154 110.775 105.421 105.045 106.265C99.3145 107.108 93.4644 106.502 88.0295 104.5C83.4357 102.808 79.2625 100.165 75.7778 96.755C74.7187 95.7187 73.0307 95.5972 71.9156 96.5729Z"/>
</mask>
<path d="M71.9156 96.5729C70.8004 97.5486 70.6813 99.2508 71.7295 100.298C75.8128 104.377 80.7389 107.533 86.1749 109.535C92.4518 111.847 99.2083 112.548 105.826 111.573C112.444 110.599 118.712 107.981 124.056 103.958C129.4 99.9351 133.65 94.6363 136.417 88.5463C139.184 82.4562 140.38 75.7696 139.895 69.0981C139.409 62.4266 137.259 55.9833 133.639 50.3578C130.02 44.7323 125.048 40.1043 119.178 36.8972C114.094 34.1197 108.477 32.4848 102.719 32.0925C101.24 31.9918 100.037 33.2012 100.035 34.6829C100.034 36.1647 101.236 37.3562 102.713 37.4722C107.573 37.8541 112.309 39.2589 116.605 41.6061C121.688 44.383 125.993 48.3902 129.127 53.261C132.261 58.1318 134.123 63.7108 134.543 69.4873C134.963 75.2639 133.928 81.0536 131.532 86.3266C129.136 91.5997 125.456 96.1877 120.829 99.6709C116.202 103.154 110.775 105.421 105.045 106.265C99.3145 107.108 93.4644 106.502 88.0295 104.5C83.4357 102.808 79.2625 100.165 75.7778 96.755C74.7187 95.7187 73.0307 95.5972 71.9156 96.5729Z" stroke="#71869D" stroke-width="8" mask="url(#path-3-inside-2)"/>
<circle cx="99.5" cy="71.5" r="29.5" fill="#D9DDEA"/>
</svg>
