<svg width="200" height="144" viewBox="0 0 200 144" fill="none" xmlns="http://www.w3.org/2000/svg">
<path d="M196 0H4C1.79086 0 0 1.79086 0 4V140C0 142.209 1.79086 144 4 144H196C198.209 144 200 142.209 200 140V4C200 1.79086 198.209 0 196 0Z" fill="#F8FAFD"/>
<rect x="31" y="102.5" width="138" height="4" rx="2" fill="#D9DDEA"/>
<rect x="31" y="102.5" width="70" height="4" rx="2" fill="#71869D"/>
<g filter="url(#filter0_d)">
<circle cx="100" cy="104.5" r="8" fill="white"/>
</g>
<rect x="31" y="31" width="138" height="30" rx="4" fill="#D9DDEA" fill-opacity="0.2"/>
<g filter="url(#filter1_d)">
<rect x="35" y="35" width="61" height="22" rx="4" fill="white"/>
<rect x="53" y="43" width="25" height="6" rx="3" fill="#71869D"/>
</g>
<rect x="122" y="43" width="25" height="6" rx="3" fill="#D9DDEA"/>
<rect x="78" y="73" width="45" height="5" rx="2.5" fill="#D9DDEA"/>
<rect x="70" y="81" width="60" height="3" rx="1.5" fill="#71869D"/>
<defs>
<filter id="filter0_d" x="89" y="95.5" width="22" height="22" filterUnits="userSpaceOnUse" color-interpolation-filters="sRGB">
<feFlood flood-opacity="0" result="BackgroundImageFix"/>
<feColorMatrix in="SourceAlpha" type="matrix" values="0 0 0 0 0 0 0 0 0 0 0 0 0 0 0 0 0 0 127 0"/>
<feOffset dy="2"/>
<feGaussianBlur stdDeviation="1.5"/>
<feColorMatrix type="matrix" values="0 0 0 0 0.54902 0 0 0 0 0.596078 0 0 0 0 0.643137 0 0 0 0.25 0"/>
<feBlend mode="normal" in2="BackgroundImageFix" result="effect1_dropShadow"/>
<feBlend mode="normal" in="SourceGraphic" in2="effect1_dropShadow" result="shape"/>
</filter>
<filter id="filter1_d" x="31" y="34" width="69" height="30" filterUnits="userSpaceOnUse" color-interpolation-filters="sRGB">
<feFlood flood-opacity="0" result="BackgroundImageFix"/>
<feColorMatrix in="SourceAlpha" type="matrix" values="0 0 0 0 0 0 0 0 0 0 0 0 0 0 0 0 0 0 127 0"/>
<feOffset dy="3"/>
<feGaussianBlur stdDeviation="2"/>
<feColorMatrix type="matrix" values="0 0 0 0 0.54902 0 0 0 0 0.596078 0 0 0 0 0.643137 0 0 0 0.125 0"/>
<feBlend mode="normal" in2="BackgroundImageFix" result="effect1_dropShadow"/>
<feBlend mode="normal" in="SourceGraphic" in2="effect1_dropShadow" result="shape"/>
</filter>
</defs>
</svg>
