<svg width="200" height="144" viewBox="0 0 200 144" fill="none" xmlns="http://www.w3.org/2000/svg">
<g clip-path="url(#clip0)">
<path d="M196 0H4C1.79086 0 0 1.79086 0 4V140C0 142.209 1.79086 144 4 144H196C198.209 144 200 142.209 200 140V4C200 1.79086 198.209 0 196 0Z" fill="#F3F4F6"/>
<g filter="url(#filter0_d)">
<path d="M27 24C27 21.7909 28.7909 20 31 20H169C171.209 20 173 21.7909 173 24V144H27V24Z" fill="white"/>
<path d="M31 20.5H169C170.933 20.5 172.5 22.067 172.5 24V143.5H27.5V24C27.5 22.067 29.067 20.5 31 20.5Z" stroke="#E7EAF3"/>
</g>
<path d="M0 104H200V140C200 142.209 198.209 144 196 144H4C1.79086 144 0 142.209 0 140V104Z" fill="url(#paint0_linear)"/>
<path d="M57.0914 74H58.3219L61.1024 68.4677V67.4545H56.644V68.4453H59.8752V68.4901L57.0914 74ZM64.3288 74.0895C65.7447 74.0895 66.7578 73.3097 66.761 72.2454C66.7578 71.4272 66.1537 70.7433 65.3931 70.6154V70.5707C66.0547 70.4237 66.5149 69.8292 66.5181 69.1197C66.5149 68.1129 65.588 67.3651 64.3288 67.3651C63.06 67.3651 62.1331 68.1097 62.1363 69.1197C62.1331 69.8292 62.587 70.4237 63.2613 70.5707V70.6154C62.4879 70.7433 61.8902 71.4272 61.8934 72.2454C61.8902 73.3097 62.9002 74.0895 64.3288 74.0895ZM64.3288 73.1754C63.5873 73.1754 63.1079 72.7663 63.1143 72.1623C63.1079 71.5359 63.6225 71.0916 64.3288 71.0916C65.0255 71.0916 65.5369 71.5391 65.5433 72.1623C65.5369 72.7663 65.0607 73.1754 64.3288 73.1754ZM64.3288 70.1935C63.7216 70.1935 63.2869 69.8004 63.2933 69.2315C63.2869 68.669 63.7088 68.2919 64.3288 68.2919C64.9393 68.2919 65.3579 68.669 65.3643 69.2315C65.3579 69.8036 64.9265 70.1935 64.3288 70.1935Z" fill="#377dff"/>
<path d="M56.9739 81.7C58.1705 81.7 58.8801 80.9598 58.8801 79.7325C58.8801 78.5091 58.1705 77.7727 57.0008 77.7727H55.6431V81.7H56.9739ZM56.3546 81.0845V78.3883H56.9605C57.7582 78.3883 58.1744 78.8332 58.1744 79.7325C58.1744 80.6357 57.7582 81.0845 56.9394 81.0845H56.3546ZM60.3729 81.7595C60.8351 81.7595 61.1112 81.5428 61.2378 81.2954H61.2608V81.7H61.9281V79.7287C61.9281 78.9502 61.2934 78.7162 60.7315 78.7162C60.1121 78.7162 59.6366 78.9923 59.4831 79.5293L60.1313 79.6213C60.2003 79.42 60.3959 79.2474 60.7353 79.2474C61.0575 79.2474 61.2339 79.4123 61.2339 79.7019V79.7134C61.2339 79.9128 61.0249 79.9224 60.5052 79.978C59.9338 80.0394 59.3873 80.21 59.3873 80.8735C59.3873 81.4526 59.8111 81.7595 60.3729 81.7595ZM60.5532 81.2494C60.2636 81.2494 60.0565 81.1171 60.0565 80.862C60.0565 80.5955 60.2885 80.4842 60.5992 80.4401C60.7814 80.4152 61.1457 80.3692 61.2358 80.2963V80.6434C61.2358 80.9713 60.9712 81.2494 60.5532 81.2494ZM62.9521 82.8046C63.4929 82.8046 63.8054 82.5265 63.9723 82.0567L65.1554 78.7584L64.4133 78.7546L63.7326 80.979H63.7019L63.0231 78.7546H62.2867L63.3548 81.7614L63.2954 81.9205C63.1669 82.2561 62.9636 82.2791 62.6606 82.1909L62.4995 82.7317C62.5935 82.77 62.7623 82.8046 62.9521 82.8046ZM67.9652 79.5331C67.8693 79.0345 67.4705 78.7162 66.7801 78.7162C66.0706 78.7162 65.5874 79.0652 65.5893 79.6098C65.5874 80.0394 65.852 80.3232 66.4177 80.4401L66.9201 80.5456C67.1905 80.6051 67.3171 80.7144 67.3171 80.8812C67.3171 81.0825 67.0985 81.234 66.7686 81.234C66.4503 81.234 66.2432 81.096 66.1838 80.8313L65.5068 80.8965C65.5931 81.4373 66.0476 81.7575 66.7706 81.7575C67.5069 81.7575 68.0266 81.3759 68.0285 80.8179C68.0266 80.398 67.7562 80.141 67.2001 80.0202L66.6977 79.9128C66.3985 79.8457 66.2796 79.7421 66.2816 79.5715C66.2796 79.372 66.5002 79.234 66.7897 79.234C67.11 79.234 67.2787 79.4085 67.3324 79.6021L67.9652 79.5331Z" fill="#677788"/>
<path d="M85.5639 67.4545H84.4357L82.8089 68.4996V69.5863L84.3398 68.6083H84.3782V74H85.5639V67.4545ZM89.4982 67.3651C88.0792 67.3555 87.1363 68.3303 87.1363 69.6087C87.1395 70.8423 88.0184 71.734 89.1658 71.734C89.8721 71.734 90.4858 71.392 90.8022 70.8295H90.8469C90.8437 72.2294 90.3355 73.0636 89.4311 73.0636C88.8654 73.0636 88.485 72.7376 88.3668 72.2166H87.2002C87.3345 73.3001 88.191 74.0895 89.4311 74.0895C91.0003 74.0895 92.0007 72.7791 91.9975 70.5259C91.9943 68.1417 90.7542 67.3714 89.4982 67.3651ZM89.5014 68.3239C90.2013 68.3239 90.7159 68.9055 90.7159 69.5735C90.7191 70.2511 90.1789 70.8327 89.4886 70.8327C88.7919 70.8327 88.2901 70.283 88.2869 69.5831C88.2869 68.88 88.8078 68.3239 89.5014 68.3239Z" fill="#377dff"/>
<path d="M79.9404 81.7H80.6518V80.0317H82.4717V81.7H83.185V77.7727H82.4717V79.4353H80.6518V77.7727H79.9404V81.7ZM85.2129 81.7575C86.0758 81.7575 86.6243 81.1497 86.6243 80.2388C86.6243 79.326 86.0758 78.7162 85.2129 78.7162C84.35 78.7162 83.8015 79.326 83.8015 80.2388C83.8015 81.1497 84.35 81.7575 85.2129 81.7575ZM85.2167 81.2014C84.7392 81.2014 84.5053 80.7757 84.5053 80.2369C84.5053 79.698 84.7392 79.2666 85.2167 79.2666C85.6865 79.2666 85.9205 79.698 85.9205 80.2369C85.9205 80.7757 85.6865 81.2014 85.2167 81.2014ZM89.0908 80.4612C89.0908 80.91 88.7705 81.1324 88.4637 81.1324C88.1301 81.1324 87.9076 80.8965 87.9076 80.5226V78.7546H87.2134V80.63C87.2134 81.3376 87.6161 81.7384 88.1953 81.7384C88.6363 81.7384 88.947 81.5063 89.0812 81.1765H89.1119V81.7H89.785V78.7546H89.0908V80.4612ZM90.4988 81.7H91.193V79.9684C91.193 79.5945 91.4749 79.3298 91.8565 79.3298C91.9734 79.3298 92.1192 79.3509 92.1786 79.3701V78.7315C92.1153 78.72 92.006 78.7124 91.9293 78.7124C91.5918 78.7124 91.3099 78.9041 91.2026 79.2455H91.1719V78.7546H90.4988V81.7ZM94.9678 79.5331C94.8719 79.0345 94.473 78.7162 93.7827 78.7162C93.0732 78.7162 92.5899 79.0652 92.5919 79.6098C92.5899 80.0394 92.8546 80.3232 93.4203 80.4401L93.9227 80.5456C94.1931 80.6051 94.3196 80.7144 94.3196 80.8812C94.3196 81.0825 94.101 81.234 93.7712 81.234C93.4529 81.234 93.2458 81.096 93.1863 80.8313L92.5094 80.8965C92.5957 81.4373 93.0502 81.7575 93.7731 81.7575C94.5095 81.7575 95.0292 81.3759 95.0311 80.8179C95.0292 80.398 94.7588 80.141 94.2027 80.0202L93.7002 79.9128C93.4011 79.8457 93.2822 79.7421 93.2841 79.5715C93.2822 79.372 93.5027 79.234 93.7923 79.234C94.1125 79.234 94.2813 79.4085 94.335 79.6021L94.9678 79.5331Z" fill="#677788"/>
<path d="M108.889 74H113.376V73.0092H110.525V72.9645L111.654 71.8171C112.926 70.5962 113.277 70.0018 113.277 69.2635C113.277 68.1673 112.386 67.3651 111.069 67.3651C109.771 67.3651 108.851 68.1705 108.851 69.4137H109.979C109.979 68.7457 110.401 68.3271 111.053 68.3271C111.676 68.3271 112.139 68.7074 112.139 69.3242C112.139 69.8707 111.807 70.2607 111.161 70.9158L108.889 73.1435V74ZM116.754 74.0895C118.138 74.0895 119.104 73.1499 119.104 71.8491C119.104 70.5898 118.228 69.6822 117.039 69.6822C116.508 69.6822 116.039 69.8931 115.796 70.1808H115.757L115.946 68.4453H118.762V67.4545H114.965L114.623 70.8295L115.693 71.0053C115.914 70.7624 116.329 70.5994 116.723 70.6026C117.442 70.6058 117.959 71.1364 117.956 71.8778C117.959 72.6097 117.454 73.1307 116.754 73.1307C116.163 73.1307 115.687 72.7567 115.645 72.2198H114.495C114.527 73.3065 115.476 74.0895 116.754 74.0895Z" fill="#377dff"/>
<path d="M107.609 77.7727V81.7H108.292V78.9962H108.329L109.414 81.6885H109.924L111.009 79.0019H111.046V81.7H111.728V77.7727H110.858L109.692 80.6185H109.646L108.48 77.7727H107.609ZM112.472 81.7H113.167V78.7546H112.472V81.7ZM112.821 78.3365C113.042 78.3365 113.222 78.1678 113.222 77.9607C113.222 77.7516 113.042 77.5829 112.821 77.5829C112.599 77.5829 112.419 77.7516 112.419 77.9607C112.419 78.1678 112.599 78.3365 112.821 78.3365ZM114.575 79.9742C114.575 79.5484 114.832 79.303 115.198 79.303C115.556 79.303 115.771 79.5389 115.771 79.932V81.7H116.465V79.8246C116.467 79.1189 116.065 78.7162 115.457 78.7162C115.016 78.7162 114.713 78.9271 114.578 79.2551H114.544V78.7546H113.88V81.7H114.575V79.9742ZM119.499 79.5331C119.403 79.0345 119.004 78.7162 118.314 78.7162C117.604 78.7162 117.121 79.0652 117.123 79.6098C117.121 80.0394 117.386 80.3232 117.952 80.4401L118.454 80.5456C118.724 80.6051 118.851 80.7144 118.851 80.8812C118.851 81.0825 118.632 81.234 118.302 81.234C117.984 81.234 117.777 81.096 117.718 80.8313L117.041 80.8965C117.127 81.4373 117.581 81.7575 118.304 81.7575C119.041 81.7575 119.56 81.3759 119.562 80.8179C119.56 80.398 119.29 80.141 118.734 80.0202L118.232 79.9128C117.932 79.8457 117.814 79.7421 117.815 79.5715C117.814 79.372 118.034 79.234 118.324 79.234C118.644 79.234 118.813 79.4085 118.866 79.6021L119.499 79.5331Z" fill="#677788"/>
<path d="M132.269 72.7855H135.392V74H136.523V72.7855H137.361V71.8107H136.523V67.4545H135.047L132.269 71.8427V72.7855ZM135.405 71.8107H133.484V71.7596L135.353 68.7969H135.405V71.8107ZM138.263 72.7855H141.386V74H142.517V72.7855H143.355V71.8107H142.517V67.4545H141.041L138.263 71.8427V72.7855ZM141.399 71.8107H139.478V71.7596L141.348 68.7969H141.399V71.8107Z" fill="#377dff"/>
<path d="M134.378 78.8524H135.062C135.049 78.1889 134.483 77.719 133.647 77.719C132.822 77.719 132.203 78.1831 132.205 78.8773C132.205 79.4411 132.606 79.7651 133.252 79.932L133.699 80.047C134.123 80.1544 134.403 80.2867 134.404 80.5916C134.403 80.9272 134.084 81.1516 133.62 81.1516C133.175 81.1516 132.83 80.9521 132.801 80.5399H132.101C132.13 81.3203 132.711 81.7595 133.626 81.7595C134.567 81.7595 135.114 81.2896 135.116 80.5974C135.114 79.9166 134.552 79.606 133.961 79.466L133.593 79.3739C133.271 79.2972 132.922 79.1611 132.926 78.8332C132.928 78.5379 133.193 78.3212 133.637 78.3212C134.061 78.3212 134.341 78.5187 134.378 78.8524ZM137.023 81.7575C137.71 81.7575 138.182 81.422 138.304 80.91L137.656 80.8371C137.562 81.0864 137.332 81.2168 137.033 81.2168C136.584 81.2168 136.287 80.9215 136.281 80.4171H138.333V80.2043C138.333 79.1707 137.712 78.7162 136.987 78.7162C136.143 78.7162 135.593 79.3356 135.593 80.2445C135.593 81.1688 136.136 81.7575 137.023 81.7575ZM136.283 79.9492C136.304 79.5734 136.582 79.257 136.997 79.257C137.395 79.257 137.664 79.5484 137.668 79.9492H136.283ZM140.205 81.7575C140.945 81.7575 141.417 81.3184 141.467 80.6933H140.804C140.744 81.0097 140.516 81.1918 140.211 81.1918C139.778 81.1918 139.498 80.8294 139.498 80.2273C139.498 79.6328 139.783 79.2761 140.211 79.2761C140.545 79.2761 140.75 79.4909 140.804 79.7747H141.467C141.419 79.1362 140.921 78.7162 140.201 78.7162C139.338 78.7162 138.794 79.3394 138.794 80.2388C138.794 81.1305 139.325 81.7575 140.205 81.7575ZM144.365 79.5331C144.269 79.0345 143.87 78.7162 143.18 78.7162C142.47 78.7162 141.987 79.0652 141.989 79.6098C141.987 80.0394 142.252 80.3232 142.818 80.4401L143.32 80.5456C143.59 80.6051 143.717 80.7144 143.717 80.8812C143.717 81.0825 143.498 81.234 143.168 81.234C142.85 81.234 142.643 81.096 142.584 80.8313L141.907 80.8965C141.993 81.4373 142.447 81.7575 143.17 81.7575C143.907 81.7575 144.426 81.3759 144.428 80.8179C144.426 80.398 144.156 80.141 143.6 80.0202L143.097 79.9128C142.798 79.8457 142.679 79.7421 142.681 79.5715C142.679 79.372 142.9 79.234 143.19 79.234C143.51 79.234 143.679 79.4085 143.732 79.6021L144.365 79.5331Z" fill="#677788"/>
<rect x="66" y="52" width="18" height="3" rx="1.5" fill="#D9DDEA"/>
<rect x="88" y="52" width="21" height="3" rx="1.5" fill="#D9DDEA"/>
<rect x="113" y="52" width="21" height="3" rx="1.5" fill="#D9DDEA"/>
<path d="M82.0746 42.6268C81.918 41.4957 81.0479 40.8395 79.9194 40.8395C78.5895 40.8395 77.5877 41.8089 77.5877 43.4545C77.5877 45.0977 78.5771 46.0696 79.9194 46.0696C81.13 46.0696 81.9329 45.2866 82.0746 44.3146L81.1449 44.3097C81.0281 44.9062 80.5408 45.2418 79.9318 45.2418C79.1065 45.2418 78.5149 44.6229 78.5149 43.4545C78.5149 42.3061 79.1016 41.6673 79.9343 41.6673C80.5533 41.6673 81.038 42.0178 81.1449 42.6268H82.0746ZM84.5448 46.0746C85.6634 46.0746 86.3744 45.2866 86.3744 44.1058C86.3744 42.9226 85.6634 42.1321 84.5448 42.1321C83.4262 42.1321 82.7153 42.9226 82.7153 44.1058C82.7153 45.2866 83.4262 46.0746 84.5448 46.0746ZM84.5498 45.3537C83.9308 45.3537 83.6276 44.8018 83.6276 44.1033C83.6276 43.4048 83.9308 42.8455 84.5498 42.8455C85.1588 42.8455 85.4621 43.4048 85.4621 44.1033C85.4621 44.8018 85.1588 45.3537 84.5498 45.3537ZM87.1381 46H88.038V43.6783C88.038 43.2085 88.3512 42.8903 88.739 42.8903C89.1193 42.8903 89.3803 43.1463 89.3803 43.5391V46H90.2628V43.6186C90.2628 43.1886 90.5188 42.8903 90.9538 42.8903C91.3168 42.8903 91.6051 43.104 91.6051 43.5763V46H92.5075V43.4371C92.5075 42.5845 92.0153 42.1321 91.3143 42.1321C90.7599 42.1321 90.3374 42.4055 90.1683 42.8306H90.1286C89.9819 42.3981 89.6115 42.1321 89.0969 42.1321C88.5849 42.1321 88.2021 42.3956 88.043 42.8306H87.9982V42.1818H87.1381V46ZM93.4204 46H94.3202V42.1818H93.4204V46ZM93.8728 41.6399C94.1586 41.6399 94.3923 41.4212 94.3923 41.1527C94.3923 40.8817 94.1586 40.663 93.8728 40.663C93.5844 40.663 93.3508 40.8817 93.3508 41.1527C93.3508 41.4212 93.5844 41.6399 93.8728 41.6399ZM96.1454 43.7628C96.1454 43.2109 96.4785 42.8928 96.9533 42.8928C97.4181 42.8928 97.6966 43.1985 97.6966 43.7081V46H98.5964V43.5689C98.5989 42.6541 98.0769 42.1321 97.2889 42.1321C96.7172 42.1321 96.3244 42.4055 96.1504 42.8306H96.1056V42.1818H95.2456V46H96.1454V43.7628ZM101.172 47.5114C102.203 47.5114 102.964 47.0391 102.964 46.0621V42.1818H102.077V42.8132H102.027C101.89 42.5373 101.604 42.1321 100.931 42.1321C100.048 42.1321 99.3546 42.8232 99.3546 44.0785C99.3546 45.3239 100.048 45.9453 100.928 45.9453C101.582 45.9453 101.888 45.5948 102.027 45.3139H102.072V46.0373C102.072 46.5991 101.699 46.8303 101.187 46.8303C100.645 46.8303 100.406 46.5742 100.297 46.3505L99.4863 46.5469C99.6504 47.0813 100.2 47.5114 101.172 47.5114ZM101.179 45.2393C100.585 45.2393 100.272 44.777 100.272 44.0735C100.272 43.38 100.58 42.8704 101.179 42.8704C101.758 42.8704 102.077 43.3501 102.077 44.0735C102.077 44.8018 101.753 45.2393 101.179 45.2393ZM108.64 43.1911C108.516 42.5447 107.999 42.1321 107.104 42.1321C106.184 42.1321 105.558 42.5845 105.56 43.2905C105.558 43.8473 105.901 44.2152 106.634 44.3668L107.286 44.5036C107.636 44.5806 107.8 44.7223 107.8 44.9386C107.8 45.1996 107.517 45.396 107.089 45.396C106.676 45.396 106.408 45.217 106.331 44.8739L105.453 44.9585C105.565 45.6594 106.154 46.0746 107.092 46.0746C108.046 46.0746 108.72 45.5799 108.722 44.8565C108.72 44.3121 108.369 43.979 107.648 43.8224L106.997 43.6832C106.609 43.5962 106.455 43.462 106.458 43.2408C106.455 42.9822 106.741 42.8033 107.116 42.8033C107.532 42.8033 107.75 43.0295 107.82 43.2805L108.64 43.1911ZM111.13 46.0746C112.248 46.0746 112.959 45.2866 112.959 44.1058C112.959 42.9226 112.248 42.1321 111.13 42.1321C110.011 42.1321 109.3 42.9226 109.3 44.1058C109.3 45.2866 110.011 46.0746 111.13 46.0746ZM111.135 45.3537C110.516 45.3537 110.213 44.8018 110.213 44.1033C110.213 43.4048 110.516 42.8455 111.135 42.8455C111.744 42.8455 112.047 43.4048 112.047 44.1033C112.047 44.8018 111.744 45.3537 111.135 45.3537ZM115.389 46.0746C116.507 46.0746 117.218 45.2866 117.218 44.1058C117.218 42.9226 116.507 42.1321 115.389 42.1321C114.27 42.1321 113.559 42.9226 113.559 44.1058C113.559 45.2866 114.27 46.0746 115.389 46.0746ZM115.394 45.3537C114.775 45.3537 114.471 44.8018 114.471 44.1033C114.471 43.4048 114.775 42.8455 115.394 42.8455C116.003 42.8455 116.306 43.4048 116.306 44.1033C116.306 44.8018 116.003 45.3537 115.394 45.3537ZM118.882 43.7628C118.882 43.2109 119.215 42.8928 119.69 42.8928C120.154 42.8928 120.433 43.1985 120.433 43.7081V46H121.333V43.5689C121.335 42.6541 120.813 42.1321 120.025 42.1321C119.453 42.1321 119.061 42.4055 118.887 42.8306H118.842V42.1818H117.982V46H118.882V43.7628Z" fill="#555A60"/>
<g filter="url(#filter1_d)">
<rect x="128" y="93" width="21" height="11" rx="2" fill="#377dff"/>
</g>
<rect x="135" y="98" width="7" height="1" rx="0.5" fill="white"/>
<rect x="51.5" y="93.5" width="71" height="10" rx="1.5" stroke="#D9DDEA"/>
</g>
<defs>
<filter id="filter0_d" x="22" y="18" width="156" height="134" filterUnits="userSpaceOnUse" color-interpolation-filters="sRGB">
<feFlood flood-opacity="0" result="BackgroundImageFix"/>
<feColorMatrix in="SourceAlpha" type="matrix" values="0 0 0 0 0 0 0 0 0 0 0 0 0 0 0 0 0 0 127 0"/>
<feOffset dy="3"/>
<feGaussianBlur stdDeviation="2.5"/>
<feColorMatrix type="matrix" values="0 0 0 0 0.54902 0 0 0 0 0.596078 0 0 0 0 0.643137 0 0 0 0.125 0"/>
<feBlend mode="normal" in2="BackgroundImageFix" result="effect1_dropShadow"/>
<feBlend mode="normal" in="SourceGraphic" in2="effect1_dropShadow" result="shape"/>
</filter>
<filter id="filter1_d" x="126" y="92" width="25" height="15" filterUnits="userSpaceOnUse" color-interpolation-filters="sRGB">
<feFlood flood-opacity="0" result="BackgroundImageFix"/>
<feColorMatrix in="SourceAlpha" type="matrix" values="0 0 0 0 0 0 0 0 0 0 0 0 0 0 0 0 0 0 127 0"/>
<feOffset dy="1"/>
<feGaussianBlur stdDeviation="1"/>
<feColorMatrix type="matrix" values="0 0 0 0 0.215686 0 0 0 0 0.490196 0 0 0 0 1 0 0 0 0.2 0"/>
<feBlend mode="normal" in2="BackgroundImageFix" result="effect1_dropShadow"/>
<feBlend mode="normal" in="SourceGraphic" in2="effect1_dropShadow" result="shape"/>
</filter>
<linearGradient id="paint0_linear" x1="100" y1="154" x2="100" y2="92.5" gradientUnits="userSpaceOnUse">
<stop offset="0.256387" stop-color="#F3F4F6"/>
<stop offset="0.749415" stop-color="#F3F4F6" stop-opacity="0"/>
</linearGradient>
<clipPath id="clip0">
<rect width="200" height="144" fill="white"/>
</clipPath>
</defs>
</svg>
