<svg width="200" height="144" viewBox="0 0 200 144" fill="none" xmlns="http://www.w3.org/2000/svg">
<path d="M196 0H4C1.79086 0 0 1.79086 0 4V140C0 142.209 1.79086 144 4 144H196C198.209 144 200 142.209 200 140V4C200 1.79086 198.209 0 196 0Z" fill="#F3F4F6"/>
<g filter="url(#filter0_d)">
<rect x="25" y="32" width="150" height="79" rx="5.17997" fill="white"/>
<rect x="25.6475" y="32.6475" width="148.705" height="77.705" rx="4.53247" stroke="#E7EAF3" stroke-width="1.29499"/>
</g>
<path d="M30.18 32.6475H169.82C172.323 32.6475 174.353 34.6768 174.353 37.18V47.3525H25.6475V37.18C25.6475 34.6768 27.6768 32.6475 30.18 32.6475Z" fill="#F8FAFD" stroke="#E7EAF3" stroke-width="1.29499"/>
<rect x="33" y="38" width="12.9499" height="3" rx="1.5" fill="#D9DDEA"/>
<rect x="83" y="38" width="12.9499" height="3" rx="1.5" fill="#D9DDEA"/>
<rect x="106" y="38" width="12.9499" height="3" rx="1.5" fill="#D9DDEA"/>
<rect x="129" y="38" width="12.9499" height="3" rx="1.5" fill="#D9DDEA"/>
<rect x="33" y="54" width="31.0798" height="3" rx="1.5" fill="#71869D"/>
<rect x="83" y="54" width="12.9499" height="3" rx="1.5" fill="#D9DDEA"/>
<rect x="106" y="54" width="12.9499" height="3" rx="1.5" fill="#D9DDEA"/>
<rect x="129" y="54" width="12.9499" height="3" rx="1.5" fill="#D9DDEA"/>
<rect x="152" y="54" width="8" height="3" rx="1.5" fill="#377dff"/>
<rect x="33" y="70" width="31.0798" height="3" rx="1.5" fill="#71869D"/>
<rect x="83" y="70" width="12.9499" height="3" rx="1.5" fill="#D9DDEA"/>
<rect x="106" y="70" width="12.9499" height="3" rx="1.5" fill="#D9DDEA"/>
<rect x="129" y="70" width="12.9499" height="3" rx="1.5" fill="#D9DDEA"/>
<rect x="152" y="70" width="8" height="3" rx="1.5" fill="#377dff"/>
<rect x="33" y="86" width="31.0798" height="3" rx="1.5" fill="#71869D"/>
<rect x="83" y="86" width="12.9499" height="3" rx="1.5" fill="#D9DDEA"/>
<rect x="106" y="86" width="12.9499" height="3" rx="1.5" fill="#D9DDEA"/>
<rect x="129" y="86" width="12.9499" height="3" rx="1.5" fill="#D9DDEA"/>
<rect x="152" y="86" width="8" height="3" rx="1.5" fill="#377dff"/>
<rect x="33" y="102" width="31.0798" height="3" rx="1.5" fill="#71869D"/>
<rect x="83" y="102" width="12.9499" height="3" rx="1.5" fill="#D9DDEA"/>
<rect x="106" y="102" width="12.9499" height="3" rx="1.5" fill="#D9DDEA"/>
<rect x="129" y="102" width="12.9499" height="3" rx="1.5" fill="#D9DDEA"/>
<rect x="152" y="102" width="8" height="3" rx="1.5" fill="#377dff"/>
<rect x="26" y="47" width="148" height="1" fill="#E7EAF3"/>
<rect x="26" y="63" width="148" height="1" fill="#E7EAF3"/>
<rect x="26" y="79" width="148" height="1" fill="#E7EAF3"/>
<rect x="26" y="95" width="148" height="1" fill="#E7EAF3"/>
<defs>
<filter id="filter0_d" x="18.525" y="29.41" width="162.95" height="91.9499" filterUnits="userSpaceOnUse" color-interpolation-filters="sRGB">
<feFlood flood-opacity="0" result="BackgroundImageFix"/>
<feColorMatrix in="SourceAlpha" type="matrix" values="0 0 0 0 0 0 0 0 0 0 0 0 0 0 0 0 0 0 127 0"/>
<feOffset dy="3.88498"/>
<feGaussianBlur stdDeviation="3.23748"/>
<feColorMatrix type="matrix" values="0 0 0 0 0.54902 0 0 0 0 0.596078 0 0 0 0 0.643137 0 0 0 0.125 0"/>
<feBlend mode="normal" in2="BackgroundImageFix" result="effect1_dropShadow"/>
<feBlend mode="normal" in="SourceGraphic" in2="effect1_dropShadow" result="shape"/>
</filter>
</defs>
</svg>
