<svg width="200" height="144" viewBox="0 0 200 144" fill="none" xmlns="http://www.w3.org/2000/svg">
<path d="M196 0H4C1.79086 0 0 1.79086 0 4V140C0 142.209 1.79086 144 4 144H196C198.209 144 200 142.209 200 140V4C200 1.79086 198.209 0 196 0Z" fill="#F3F4F6"/>
<g filter="url(#filter0_d)">
<rect x="33.9091" y="59" width="131.182" height="26" rx="2.36364" fill="white"/>
</g>
<path fill-rule="evenodd" clip-rule="evenodd" d="M46.7909 75.7059V71.0968H47.5V75.7059C47.5 75.9017 47.6588 76.0604 47.8546 76.0604H54.2364C54.4322 76.0604 54.5909 75.9017 54.5909 75.7059V71.0968H55.3V75.7059C55.3 76.2933 54.8238 76.7695 54.2364 76.7695H47.8546C47.2671 76.7695 46.7909 76.2933 46.7909 75.7059Z" fill="#677788"/>
<path fill-rule="evenodd" clip-rule="evenodd" d="M54.5909 67.9059V70.3877L53.1727 68.9695V67.9059C53.1727 67.7101 53.3315 67.5513 53.5273 67.5513H54.2364C54.4322 67.5513 54.5909 67.7101 54.5909 67.9059Z" fill="#677788"/>
<path fill-rule="evenodd" clip-rule="evenodd" d="M50.5441 67.1968C50.821 66.9199 51.27 66.9199 51.5469 67.1968L56.2598 71.9097C56.3983 72.0482 56.3983 72.2727 56.2598 72.4111C56.1214 72.5496 55.8969 72.5496 55.7584 72.4111L51.0455 67.6982L46.3325 72.4111C46.1941 72.5496 45.9696 72.5496 45.8311 72.4111C45.6927 72.2727 45.6927 72.0482 45.8311 71.9097L50.5441 67.1968Z" fill="#677788"/>
<path d="M132.517 75.2727H133.607V72.7169H136.107V71.8032H133.607V70.1698H136.372V69.2562H132.517V75.2727ZM137.253 75.2727H138.316V72.6199C138.316 72.0471 138.748 71.6417 139.333 71.6417C139.512 71.6417 139.735 71.674 139.826 71.7034V70.7251C139.73 70.7075 139.562 70.6957 139.445 70.6957C138.928 70.6957 138.496 70.9895 138.331 71.5124H138.284V70.7603H137.253V75.2727ZM142.316 75.3609C143.637 75.3609 144.478 74.4296 144.478 73.0342C144.478 71.6358 143.637 70.7016 142.316 70.7016C140.994 70.7016 140.153 71.6358 140.153 73.0342C140.153 74.4296 140.994 75.3609 142.316 75.3609ZM142.321 74.5089C141.59 74.5089 141.231 73.8567 141.231 73.0312C141.231 72.2057 141.59 71.5447 142.321 71.5447C143.041 71.5447 143.4 72.2057 143.4 73.0312C143.4 73.8567 143.041 74.5089 142.321 74.5089ZM146.444 72.6288C146.444 71.9766 146.837 71.6005 147.399 71.6005C147.948 71.6005 148.277 71.9619 148.277 72.5641V75.2727H149.34V72.3996C149.343 71.3185 148.726 70.7016 147.795 70.7016C147.119 70.7016 146.655 71.0247 146.45 71.5271H146.397V70.7603H145.38V75.2727H146.444V72.6288ZM152.675 70.7603H151.785V69.6792H150.721V70.7603H150.081V71.5829H150.721V74.0918C150.715 74.9408 151.332 75.3579 152.131 75.3344C152.434 75.3256 152.642 75.2669 152.757 75.2287L152.578 74.3973C152.519 74.412 152.399 74.4384 152.266 74.4384C151.999 74.4384 151.785 74.3444 151.785 73.9155V71.5829H152.675V70.7603Z" fill="#377dff"/>
<path d="M74.1434 70.1698H76.003V75.2727H77.0841V70.1698H78.9437V69.2562H74.1434V70.1698ZM81.1654 75.3609C82.2171 75.3609 82.9398 74.8468 83.1278 74.0624L82.1348 73.9507C81.9909 74.3327 81.6384 74.5324 81.1801 74.5324C80.4926 74.5324 80.0373 74.08 80.0285 73.3074H83.1719V72.9813C83.1719 71.3978 82.22 70.7016 81.1096 70.7016C79.817 70.7016 78.9738 71.6505 78.9738 73.043C78.9738 74.459 79.8052 75.3609 81.1654 75.3609ZM80.0314 72.5906C80.0637 72.0148 80.4897 71.53 81.1243 71.53C81.7353 71.53 82.1466 71.9766 82.1525 72.5906H80.0314ZM84.0716 75.2727H85.135V72.5289C85.135 71.9736 85.5052 71.5976 85.9635 71.5976C86.413 71.5976 86.7214 71.9002 86.7214 72.3644V75.2727H87.7643V72.4584C87.7643 71.9501 88.0669 71.5976 88.581 71.5976C89.0099 71.5976 89.3507 71.8502 89.3507 72.4084V75.2727H90.4171V72.2439C90.4171 71.2363 89.8354 70.7016 89.007 70.7016C88.3519 70.7016 87.8525 71.0247 87.6527 71.5271H87.6057C87.4324 71.0159 86.9946 70.7016 86.3865 70.7016C85.7813 70.7016 85.3289 71.013 85.1409 71.5271H85.088V70.7603H84.0716V75.2727ZM91.496 76.9649H92.5595V74.5618H92.6035C92.771 74.8908 93.1206 75.3521 93.8962 75.3521C94.9596 75.3521 95.7558 74.5089 95.7558 73.0224C95.7558 71.5183 94.9361 70.7016 93.8932 70.7016C93.0971 70.7016 92.7651 71.1804 92.6035 71.5065H92.5418V70.7603H91.496V76.9649ZM92.5389 73.0165C92.5389 72.1411 92.9149 71.5741 93.5994 71.5741C94.3074 71.5741 94.6717 72.1763 94.6717 73.0165C94.6717 73.8626 94.3016 74.4795 93.5994 74.4795C92.9208 74.4795 92.5389 73.892 92.5389 73.0165ZM97.7299 69.2562H96.6665V75.2727H97.7299V69.2562ZM100.122 75.3638C100.83 75.3638 101.253 75.0318 101.447 74.6529H101.482V75.2727H102.505V72.2527C102.505 71.06 101.532 70.7016 100.671 70.7016C99.7225 70.7016 98.9939 71.1246 98.7589 71.9472L99.7518 72.0882C99.8576 71.7797 100.157 71.5153 100.677 71.5153C101.171 71.5153 101.441 71.768 101.441 72.2116V72.2292C101.441 72.5347 101.121 72.5494 100.325 72.6346C99.4493 72.7286 98.612 72.9901 98.612 74.0066C98.612 74.8938 99.2612 75.3638 100.122 75.3638ZM100.398 74.5824C99.9546 74.5824 99.6373 74.3797 99.6373 73.9889C99.6373 73.5806 99.9927 73.4102 100.469 73.3426C100.748 73.3044 101.306 73.2339 101.444 73.1223V73.654C101.444 74.1564 101.039 74.5824 100.398 74.5824ZM105.827 70.7603H104.937V69.6792H103.874V70.7603H103.233V71.5829H103.874V74.0918C103.868 74.9408 104.485 75.3579 105.284 75.3344C105.586 75.3256 105.795 75.2669 105.909 75.2287L105.73 74.3973C105.671 74.412 105.551 74.4384 105.419 74.4384C105.151 74.4384 104.937 74.3444 104.937 73.9155V71.5829H105.827V70.7603ZM108.666 75.3609C109.717 75.3609 110.44 74.8468 110.628 74.0624L109.635 73.9507C109.491 74.3327 109.139 74.5324 108.68 74.5324C107.993 74.5324 107.538 74.08 107.529 73.3074H110.672V72.9813C110.672 71.3978 109.72 70.7016 108.61 70.7016C107.317 70.7016 106.474 71.6505 106.474 73.043C106.474 74.459 107.306 75.3609 108.666 75.3609ZM107.532 72.5906C107.564 72.0148 107.99 71.53 108.625 71.53C109.236 71.53 109.647 71.9766 109.653 72.5906H107.532ZM115.138 71.9531C114.991 71.1893 114.38 70.7016 113.323 70.7016C112.236 70.7016 111.496 71.2363 111.498 72.0706C111.496 72.7286 111.901 73.1634 112.768 73.3426L113.537 73.5042C113.951 73.5953 114.145 73.7627 114.145 74.0183C114.145 74.3268 113.81 74.5589 113.305 74.5589C112.818 74.5589 112.5 74.3473 112.409 73.9419L111.372 74.0418C111.504 74.8703 112.201 75.3609 113.308 75.3609C114.436 75.3609 115.232 74.7763 115.235 73.9214C115.232 73.278 114.818 72.8843 113.966 72.6993L113.196 72.5347C112.738 72.4319 112.556 72.2733 112.559 72.0118C112.556 71.7063 112.894 71.4948 113.338 71.4948C113.828 71.4948 114.087 71.7621 114.169 72.0588L115.138 71.9531Z" fill="#677788"/>
<path d="M122.022 69.3192C121.824 69.1214 121.824 68.8007 122.022 68.6029C122.22 68.4051 122.54 68.4051 122.738 68.6029L125.777 71.6418C125.969 71.8336 125.976 72.1423 125.792 72.3422L123.007 75.3812C122.818 75.5874 122.497 75.6013 122.291 75.4123C122.085 75.2233 122.071 74.9029 122.26 74.6967L124.718 72.0152L122.022 69.3192Z" fill="#D9DDEA"/>
<path d="M63.6029 69.3192C63.4051 69.1214 63.4051 68.8007 63.6029 68.6029C63.8007 68.4051 64.1214 68.4051 64.3192 68.6029L67.3581 71.6418C67.5499 71.8336 67.5566 72.1423 67.3733 72.3422L64.5876 75.3812C64.3986 75.5874 64.0782 75.6013 63.872 75.4123C63.6658 75.2233 63.6519 74.9029 63.8409 74.6967L66.2989 72.0152L63.6029 69.3192Z" fill="#D9DDEA"/>
<defs>
<filter id="filter0_d" x="31.5454" y="57.8182" width="135.909" height="30.7273" filterUnits="userSpaceOnUse" color-interpolation-filters="sRGB">
<feFlood flood-opacity="0" result="BackgroundImageFix"/>
<feColorMatrix in="SourceAlpha" type="matrix" values="0 0 0 0 0 0 0 0 0 0 0 0 0 0 0 0 0 0 127 0"/>
<feOffset dy="1.18182"/>
<feGaussianBlur stdDeviation="1.18182"/>
<feColorMatrix type="matrix" values="0 0 0 0 0.54902 0 0 0 0 0.596078 0 0 0 0 0.643137 0 0 0 0.18 0"/>
<feBlend mode="normal" in2="BackgroundImageFix" result="effect1_dropShadow"/>
<feBlend mode="normal" in="SourceGraphic" in2="effect1_dropShadow" result="shape"/>
</filter>
</defs>
</svg>
