<svg width="200" height="144" viewBox="0 0 200 144" fill="none" xmlns="http://www.w3.org/2000/svg">
<path d="M196 0H4C1.79086 0 0 1.79086 0 4V140C0 142.209 1.79086 144 4 144H196C198.209 144 200 142.209 200 140V4C200 1.79086 198.209 0 196 0Z" fill="#F3F4F6"/>
<g filter="url(#filter0_d)">
<rect x="21" y="26" width="157" height="91" rx="4" fill="white"/>
<rect x="21.5" y="26.5" width="156" height="90" rx="3.5" stroke="#E7EAF3"/>
</g>
<rect x="22" y="48" width="156" height="1" fill="#E7EAF3"/>
<rect x="22" y="71" width="156" height="1" fill="#E7EAF3"/>
<rect x="21" y="94" width="156" height="1" fill="#E7EAF3"/>
<rect x="43" y="27" width="1" height="89" fill="#E7EAF3"/>
<rect x="65" y="27" width="1" height="89" fill="#E7EAF3"/>
<rect x="88" y="27" width="1" height="89" fill="#E7EAF3"/>
<rect x="110" y="27" width="1" height="89" fill="#E7EAF3"/>
<rect x="133" y="27" width="1" height="89" fill="#E7EAF3"/>
<rect x="155" y="27" width="1" height="89" fill="#E7EAF3"/>
<path d="M31.1023 36.8906H31.6094C31.5994 36.3991 31.1804 36.0511 30.5611 36.0511C29.9503 36.0511 29.4915 36.3949 29.4929 36.9091C29.4929 37.3267 29.7898 37.5668 30.2685 37.6903L30.5994 37.7756C30.9134 37.8551 31.1207 37.9531 31.1222 38.179C31.1207 38.4276 30.8849 38.5938 30.5412 38.5938C30.2116 38.5938 29.956 38.446 29.9347 38.1406H29.4162C29.4375 38.7188 29.8679 39.044 30.5455 39.044C31.2429 39.044 31.6477 38.696 31.6491 38.1832C31.6477 37.679 31.2315 37.4489 30.794 37.3452L30.5213 37.277C30.2827 37.2202 30.0241 37.1193 30.027 36.8764C30.0284 36.6577 30.2244 36.4972 30.554 36.4972C30.8679 36.4972 31.0753 36.6435 31.1023 36.8906ZM33.9528 36.0909V37.9474C33.9528 38.3125 33.6985 38.5739 33.2994 38.5739C32.8988 38.5739 32.646 38.3125 32.646 37.9474V36.0909H32.119V37.9915C32.119 38.6165 32.5877 39.044 33.2994 39.044C34.0082 39.044 34.4798 38.6165 34.4798 37.9915V36.0909H33.9528Z" fill="#555A60"/>
<path d="M31.5389 61.0554C32.2406 61.0568 32.6596 60.5028 32.6596 59.5483C32.6596 58.5994 32.2377 58.0511 31.5389 58.0511C30.84 58.0511 30.4196 58.598 30.4181 59.5483C30.4181 60.5014 30.8372 61.0554 31.5389 61.0554ZM31.5389 60.6108C31.1767 60.6108 30.9494 60.2472 30.9508 59.5483C30.9522 58.8551 31.1781 58.4901 31.5389 58.4901C31.9011 58.4901 32.127 58.8551 32.1284 59.5483C32.1284 60.2472 31.9025 60.6108 31.5389 60.6108ZM34.3148 58.0909H33.8134L33.0904 58.5554V59.0384L33.7708 58.6037H33.7878V61H34.3148V58.0909Z" fill="#555A60"/>
<path d="M30.7576 84.0554C31.4593 84.0568 31.8784 83.5028 31.8784 82.5483C31.8784 81.5994 31.4565 81.0511 30.7576 81.0511C30.0588 81.0511 29.6383 81.598 29.6369 82.5483C29.6369 83.5014 30.0559 84.0554 30.7576 84.0554ZM30.7576 83.6108C30.3954 83.6108 30.1681 83.2472 30.1696 82.5483C30.171 81.8551 30.3968 81.4901 30.7576 81.4901C31.1199 81.4901 31.3457 81.8551 31.3471 82.5483C31.3471 83.2472 31.1213 83.6108 30.7576 83.6108ZM32.3503 84H34.3446V83.5597H33.0776V83.5398L33.579 83.0298C34.1444 82.4872 34.3006 82.223 34.3006 81.8949C34.3006 81.4077 33.9043 81.0511 33.3191 81.0511C32.7424 81.0511 32.3333 81.4091 32.3333 81.9616H32.8347C32.8347 81.6648 33.0222 81.4787 33.312 81.4787C33.589 81.4787 33.7949 81.6477 33.7949 81.9219C33.7949 82.1648 33.6472 82.3381 33.3603 82.6293L32.3503 83.6193V84Z" fill="#555A60"/>
<path d="M30.6971 107.055C31.3988 107.057 31.8178 106.503 31.8178 105.548C31.8178 104.599 31.396 104.051 30.6971 104.051C29.9982 104.051 29.5778 104.598 29.5763 105.548C29.5763 106.501 29.9954 107.055 30.6971 107.055ZM30.6971 106.611C30.3349 106.611 30.1076 106.247 30.109 105.548C30.1104 104.855 30.3363 104.49 30.6971 104.49C31.0593 104.49 31.2852 104.855 31.2866 105.548C31.2866 106.247 31.0607 106.611 30.6971 106.611ZM33.3338 107.04C33.956 107.04 34.4091 106.683 34.4077 106.192C34.4091 105.828 34.1818 105.567 33.7741 105.509V105.486C34.0895 105.418 34.3011 105.183 34.2997 104.857C34.3011 104.413 33.9233 104.051 33.3423 104.051C32.777 104.051 32.3395 104.388 32.3281 104.875H32.8352C32.8438 104.631 33.071 104.479 33.3395 104.479C33.6108 104.479 33.7912 104.643 33.7898 104.888C33.7912 105.142 33.581 105.311 33.2798 105.311H33.0227V105.717H33.2798C33.6477 105.717 33.8665 105.902 33.8651 106.165C33.8665 106.422 33.6435 106.598 33.3324 106.598C33.0398 106.598 32.8139 106.446 32.8011 106.209H32.267C32.2812 106.7 32.7202 107.04 33.3338 107.04Z" fill="#555A60"/>
<path d="M51.4256 36.0909V39H51.9313V36.9972H51.9583L52.7623 38.9915H53.1401L53.9441 37.0014H53.9711V39H54.4767V36.0909H53.8319L52.9682 38.1989H52.9341L52.0705 36.0909H51.4256ZM57.65 37.5455C57.65 36.6051 57.0762 36.0511 56.3134 36.0511C55.5492 36.0511 54.9767 36.6051 54.9767 37.5455C54.9767 38.4844 55.5492 39.0398 56.3134 39.0398C57.0762 39.0398 57.65 38.4858 57.65 37.5455ZM57.1202 37.5455C57.1202 38.2074 56.7878 38.5668 56.3134 38.5668C55.8404 38.5668 55.5066 38.2074 55.5066 37.5455C55.5066 36.8835 55.8404 36.5241 56.3134 36.5241C56.7878 36.5241 57.1202 36.8835 57.1202 37.5455Z" fill="#555A60"/>
<path d="M74.372 36.5327H75.2711V39H75.7939V36.5327H76.693V36.0909H74.372V36.5327ZM78.9743 36.0909V37.9474C78.9743 38.3125 78.72 38.5739 78.3208 38.5739C77.9203 38.5739 77.6674 38.3125 77.6674 37.9474V36.0909H77.1404V37.9915C77.1404 38.6165 77.6092 39.044 78.3208 39.044C79.0297 39.044 79.5012 38.6165 79.5012 37.9915V36.0909H78.9743Z" fill="#555A60"/>
<path d="M97.1706 39H97.6905L98.2743 36.9588H98.2971L98.8794 39H99.3993L100.22 36.0909H99.6536L99.1294 38.2301H99.1039L98.5428 36.0909H98.0272L97.4675 38.2287H97.4405L96.9164 36.0909H96.3496L97.1706 39ZM100.586 39H102.489V38.5582H101.113V37.7642H102.38V37.3224H101.113V36.5327H102.478V36.0909H100.586V39Z" fill="#555A60"/>
<path d="M119.35 36.5327H120.25V39H120.772V36.5327H121.672V36.0909H119.35V36.5327ZM122.119 39H122.646V37.7642H123.994V39H124.522V36.0909H123.994V37.3224H122.646V36.0909H122.119V39Z" fill="#555A60"/>
<path d="M142.314 39H142.841V37.7642H144.05V37.3224H142.841V36.5327H144.178V36.0909H142.314V39ZM144.658 39H145.185V37.9347H145.722L146.293 39H146.881L146.252 37.8466C146.594 37.7088 146.775 37.4162 146.775 37.0213C146.775 36.4659 146.417 36.0909 145.749 36.0909H144.658V39ZM145.185 37.4972V36.5312H145.668C146.061 36.5312 146.238 36.7116 146.238 37.0213C146.238 37.331 146.061 37.4972 145.671 37.4972H145.185Z" fill="#555A60"/>
<path d="M166.145 36.8906H166.652C166.642 36.3991 166.223 36.0511 165.604 36.0511C164.993 36.0511 164.534 36.3949 164.536 36.9091C164.536 37.3267 164.833 37.5668 165.311 37.6903L165.642 37.7756C165.956 37.8551 166.164 37.9531 166.165 38.179C166.164 38.4276 165.928 38.5938 165.584 38.5938C165.255 38.5938 164.999 38.446 164.978 38.1406H164.459C164.48 38.7188 164.911 39.044 165.588 39.044C166.286 39.044 166.691 38.696 166.692 38.1832C166.691 37.679 166.275 37.4489 165.837 37.3452L165.564 37.277C165.326 37.2202 165.067 37.1193 165.07 36.8764C165.071 36.6577 165.267 36.4972 165.597 36.4972C165.911 36.4972 166.118 36.6435 166.145 36.8906ZM167.489 39L167.729 38.2827H168.822L169.064 39H169.626L168.601 36.0909H167.95L166.926 39H167.489ZM167.871 37.8594L168.264 36.6875H168.287L168.68 37.8594H167.871Z" fill="#555A60"/>
<rect x="47" y="52" width="4" height="4" rx="2" fill="#DDE0EC"/>
<rect x="54" y="52" width="4" height="4" rx="2" fill="#377dff"/>
<rect x="92" y="75" width="4" height="4" rx="2" fill="#377dff"/>
<rect x="69" y="98" width="4" height="4" rx="2" fill="#377dff"/>
<rect x="99" y="75" width="4" height="4" rx="2" fill="#DDE0EC"/>
<rect x="92" y="83" width="4" height="4" rx="2" fill="#DDE0EC"/>
<rect x="137" y="98" width="4" height="4" rx="2" fill="#DDE0EC"/>
<defs>
<filter id="filter0_d" x="16" y="23" width="167" height="101" filterUnits="userSpaceOnUse" color-interpolation-filters="sRGB">
<feFlood flood-opacity="0" result="BackgroundImageFix"/>
<feColorMatrix in="SourceAlpha" type="matrix" values="0 0 0 0 0 0 0 0 0 0 0 0 0 0 0 0 0 0 127 0"/>
<feOffset dy="2"/>
<feGaussianBlur stdDeviation="2.5"/>
<feColorMatrix type="matrix" values="0 0 0 0 0.54902 0 0 0 0 0.596078 0 0 0 0 0.643137 0 0 0 0.125 0"/>
<feBlend mode="normal" in2="BackgroundImageFix" result="effect1_dropShadow"/>
<feBlend mode="normal" in="SourceGraphic" in2="effect1_dropShadow" result="shape"/>
</filter>
</defs>
</svg>
