<svg width="400" height="395" viewBox="0 0 400 395" fill="none" xmlns="http://www.w3.org/2000/svg">
<path d="M156.387 260.387C169.806 272.516 184 283.097 198.71 292.129C234.581 276.645 269.419 253.42 300.129 222.452C363.613 158.968 395.355 78.1938 392.516 6.19377C320.516 3.35506 240 35.097 176.258 98.5809C145.29 129.549 122.323 164.387 106.581 200C115.871 214.968 126.452 229.42 138.581 242.581" fill="#FFC107"/>
<path d="M314.323 16.2583C322.839 30.4519 332.645 43.097 344.516 54.7099C356.387 66.5809 369.032 76.3873 382.968 84.6454" fill="#FFC107"/>
<g opacity="0.5">
<path opacity="0.5" d="M25.0322 331.355L7.2258 348.903" stroke="#377dff" stroke-width="4" stroke-miterlimit="10" stroke-linecap="round" stroke-linejoin="round"/>
</g>
<path opacity="0.5" d="M33.8064 365.419L26.0645 372.903" stroke="#377dff" stroke-width="4" stroke-miterlimit="10" stroke-linecap="round" stroke-linejoin="round"/>
<path d="M280.258 175.226C311.329 175.226 336.516 150.038 336.516 118.968C336.516 87.8973 311.329 62.7097 280.258 62.7097C249.188 62.7097 224 87.8973 224 118.968C224 150.038 249.188 175.226 280.258 175.226Z" fill="white"/>
<path d="M271.226 82.5806C277.677 81.0322 284.645 81.2903 291.355 83.3548" stroke="#377dff" stroke-width="4" stroke-miterlimit="10" stroke-linecap="round" stroke-linejoin="round"/>
<path d="M253.677 145.549C238.968 130.839 238.968 107.097 253.677 92.3872" stroke="#377dff" stroke-width="4" stroke-miterlimit="10" stroke-linecap="round" stroke-linejoin="round"/>
<path d="M142.71 138.839C110.452 133.677 76.3871 143.484 51.3549 168.516C41.2904 178.064 34.0645 189.419 28.9033 201.29C51.871 196.903 78.4516 196.387 107.097 200C116.387 178.839 128.258 158.193 142.71 138.839Z" stroke="#FFC107" stroke-width="4" stroke-miterlimit="10" stroke-linecap="round" stroke-linejoin="round"/>
<path d="M201.29 349.677C201.032 351.226 199.226 362.839 198.968 364.129C198.71 366.194 198.194 368.516 197.936 370.323C209.807 365.161 221.161 357.935 230.71 347.871C255.742 322.839 265.548 289.032 260.387 256.516C240.774 270.968 220.387 282.839 199.226 291.613C201.29 307.097 201.807 321.806 201.548 336" stroke="#FFC107" stroke-width="4" stroke-miterlimit="10" stroke-linecap="round" stroke-linejoin="round"/>
<path d="M174.194 242.581C189.935 257.032 206.71 268.903 224.774 278.968" stroke="white" stroke-width="4" stroke-miterlimit="10" stroke-linecap="round" stroke-linejoin="round"/>
<path d="M120.258 174.194C130.064 192 142.193 209.032 156.645 224.774" stroke="white" stroke-width="4" stroke-miterlimit="10" stroke-linecap="round" stroke-linejoin="round"/>
<path d="M114.581 284.645C109.677 279.742 109.677 271.742 114.581 266.839L180.387 201.29C185.29 196.387 193.29 196.387 198.194 201.29C203.097 206.193 203.097 214.193 198.194 219.097L132.387 284.903C127.484 289.548 119.484 289.548 114.581 284.645Z" stroke="white" stroke-width="4" stroke-miterlimit="10" stroke-linecap="round" stroke-linejoin="round"/>
<path opacity="0.5" d="M186.323 308.645C175.226 301.677 163.871 293.419 153.032 284.387L142.194 295.226C132.129 305.29 115.355 305.29 105.032 295.226C94.9678 285.161 94.9678 268.387 105.032 258.065L115.871 247.226C106.323 236.129 97.8065 224.258 90.3226 212.387C80.7742 217.548 71.2258 224.516 62.7097 233.29C38.1936 257.807 26.5807 289.032 31.2258 312.516C36.129 313.548 41.2903 313.807 46.9678 313.548C42.3226 328.258 41.2903 342.452 44.129 354.839C56.5161 357.419 70.9678 356.129 85.4194 352C85.1613 357.677 85.1613 362.839 86.4516 367.742C109.677 372.645 140.903 361.29 165.677 336.258C174.194 328 180.903 318.452 186.323 308.645Z" stroke="#377dff" stroke-width="4" stroke-miterlimit="10" stroke-linecap="round" stroke-linejoin="round"/>
<path opacity="0.5" d="M66.5806 180.903L36.129 211.355" stroke="#377dff" stroke-width="4" stroke-miterlimit="10" stroke-linecap="round" stroke-linejoin="round"/>
<path d="M56.5161 216.258L33.8065 238.968" stroke="#FFC107" stroke-width="4" stroke-miterlimit="10" stroke-linecap="round" stroke-linejoin="round"/>
<path d="M21.1613 226.581L16 231.484" stroke="#FFC107" stroke-width="4" stroke-miterlimit="10" stroke-linecap="round" stroke-linejoin="round"/>
<path opacity="0.5" d="M218.065 332.645L169.548 381.419" stroke="#377dff" stroke-width="4" stroke-miterlimit="10" stroke-linecap="round" stroke-linejoin="round"/>
<path d="M182.968 342.71L160 365.419" stroke="#FFC107" stroke-width="4" stroke-miterlimit="10" stroke-linecap="round" stroke-linejoin="round"/>
<path d="M144.774 380.645L137.29 388.387" stroke="#FFC107" stroke-width="4" stroke-miterlimit="10" stroke-linecap="round" stroke-linejoin="round"/>
</svg>
