<svg width="400" height="438" viewBox="0 0 400 438" fill="none" xmlns="http://www.w3.org/2000/svg">
<g clip-path="url(#clip0)">
<path d="M227.473 353.297C227.473 324.835 255.549 298.626 284.011 298.626C288.352 298.626 292.582 297.527 296.648 298.516C296.703 297.253 296.758 290 296.758 288.736V0H50.5494L0 51.9231V387.912H232.418C227.418 380 227.473 363.352 227.473 353.297Z" fill="#E7EAF3"/>
<path d="M223.077 358.791C223.077 323.297 251.868 294.506 287.363 294.506C289.286 294.506 291.209 294.615 293.132 294.78V145.714H4.67033V381.319H227.143C224.451 374.121 223.077 366.484 223.077 358.791Z" fill="white"/>
<path d="M292.912 147.912H3.79121V51.9231L50.5495 3.02197H292.912V147.912Z" fill="white"/>
<path d="M274.89 32.1978H196.484V38.1868H274.89V32.1978Z" fill="#377dff"/>
<path d="M274.89 54.1758H196.484V60.1648H274.89V54.1758Z" fill="#377dff"/>
<path d="M274.89 76.1538H196.484V82.1429H274.89V76.1538Z" fill="#377dff"/>
<path opacity="0.5" d="M274.89 98.1319H196.484V104.121H274.89V98.1319Z" fill="#377dff"/>
<path d="M274.89 120.11H196.484V126.099H274.89V120.11Z" fill="#377dff"/>
<path d="M274.89 142.088H196.484V148.077H274.89V142.088Z" fill="#377dff"/>
<path opacity="0.5" d="M124.945 188.791H46.5385V194.78H124.945V188.791Z" fill="#377dff"/>
<path d="M124.945 212.692H46.5385V218.681H124.945V212.692Z" fill="#377dff"/>
<path opacity="0.5" d="M251.264 200.769H46.5385V206.758H251.264V200.769Z" fill="#00C9A7"/>
<path opacity="0.5" d="M124.945 246.593H46.5385V252.582H124.945V246.593Z" fill="#377dff"/>
<path d="M124.945 270.549H46.5385V276.538H124.945V270.549Z" fill="#377dff"/>
<path d="M251.264 258.571H46.5385V264.56H251.264V258.571Z" fill="#00C9A7"/>
<path opacity="0.5" d="M124.945 304.451H46.5385V310.44H124.945V304.451Z" fill="#377dff"/>
<path d="M124.945 328.352H46.5385V334.341H124.945V328.352Z" fill="#377dff"/>
<path d="M214.341 316.374H46.5385V322.363H214.341V316.374Z" fill="#E7EAF3"/>
<path d="M170.33 154.396H27.4725V29.6703L32.4176 23.6264H43.8462H170.33V154.396Z" fill="#377dff"/>
<path d="M2.69231 53.022H51.6484V1.92308L2.69231 53.022Z" fill="url(#paint0_linear)"/>
<path d="M3.79121 51.9231H50.5495V3.02197L3.79121 51.9231Z" fill="#E7EAF3"/>
<path d="M345 437.582C375.376 437.582 400 412.958 400 382.582C400 352.207 375.376 327.582 345 327.582C314.624 327.582 290 352.207 290 382.582C290 412.958 314.624 437.582 345 437.582Z" fill="#E7EAF3"/>
<path d="M345 434.066C373.434 434.066 396.483 411.016 396.483 382.582C396.483 354.149 373.434 331.099 345 331.099C316.566 331.099 293.516 354.149 293.516 382.582C293.516 411.016 316.566 434.066 345 434.066Z" fill="#00C9A7"/>
<g opacity="0.5">
<path opacity="0.5" d="M372.747 376.374H351.209V354.78H338.791V376.374H317.198V388.736H338.791V410.33H351.209V388.736H372.747V376.374Z" fill="url(#paint1_linear)"/>
</g>
<path d="M350.275 358.956H339.725V406.209H350.275V358.956Z" fill="white"/>
<path d="M368.626 377.308H321.374V387.857H368.626V377.308Z" fill="white"/>
<path d="M285.165 378.022C285.165 349.56 313.242 323.352 341.703 323.352C346.044 323.352 350.275 322.253 354.341 323.242C354.396 321.978 354.451 314.725 354.451 313.462V24.7253H108.242L57.6923 76.6484V412.637H290.11C285.11 404.725 285.165 388.077 285.165 378.022Z" fill="#E7EAF3"/>
<path d="M280.769 383.516C280.769 348.022 309.56 319.231 345.055 319.231C346.978 319.231 348.901 319.341 350.824 319.505V170.44H62.3626V406.044H284.835C282.143 398.846 280.769 391.209 280.769 383.516Z" fill="white"/>
<path d="M350.604 172.637H61.4835V76.6484L108.242 27.7473H350.604V172.637Z" fill="white"/>
<path d="M332.582 56.9231H254.176V62.9121H332.582V56.9231Z" fill="#377dff"/>
<path d="M332.582 78.9011H254.176V84.8901H332.582V78.9011Z" fill="#377dff"/>
<path d="M332.582 100.879H254.176V106.868H332.582V100.879Z" fill="#377dff"/>
<path opacity="0.5" d="M332.582 122.857H254.176V128.846H332.582V122.857Z" fill="#377dff"/>
<path d="M332.582 144.835H254.176V150.824H332.582V144.835Z" fill="#377dff"/>
<path d="M332.582 166.813H254.176V172.802H332.582V166.813Z" fill="#377dff"/>
<path opacity="0.5" d="M182.637 213.516H104.231V219.505H182.637V213.516Z" fill="#377dff"/>
<path d="M182.637 237.418H104.231V243.407H182.637V237.418Z" fill="#377dff"/>
<path opacity="0.5" d="M308.956 225.495H104.231V231.484H308.956V225.495Z" fill="#00C9A7"/>
<path opacity="0.5" d="M182.637 271.319H104.231V277.308H182.637V271.319Z" fill="#377dff"/>
<path d="M182.637 295.275H104.231V301.264H182.637V295.275Z" fill="#377dff"/>
<path d="M308.956 283.297H104.231V289.286H308.956V283.297Z" fill="#00C9A7"/>
<path opacity="0.5" d="M182.637 329.176H104.231V335.165H182.637V329.176Z" fill="#377dff"/>
<path d="M182.637 353.077H104.231V359.066H182.637V353.077Z" fill="#377dff"/>
<path d="M272.033 341.099H104.231V347.088H272.033V341.099Z" fill="#E7EAF3"/>
<path d="M228.022 179.121H85.1648V54.3956L90.1099 48.3517H101.538H228.022V179.121Z" fill="#377dff"/>
<path d="M60.3846 77.7472H109.341V26.6483L60.3846 77.7472Z" fill="url(#paint2_linear)"/>
<path d="M61.4835 76.6483H108.242V27.7473L61.4835 76.6483Z" fill="#E7EAF3"/>
</g>
<defs>
<linearGradient id="paint0_linear" x1="27.1731" y1="53.022" x2="27.1731" y2="1.92308" gradientUnits="userSpaceOnUse">
<stop stop-color="#B3B3B3" stop-opacity="0.25"/>
<stop offset="0.54" stop-color="#B3B3B3" stop-opacity="0.1"/>
<stop offset="1" stop-color="#B3B3B3" stop-opacity="0.05"/>
</linearGradient>
<linearGradient id="paint1_linear" x1="344.984" y1="410.341" x2="344.984" y2="354.769" gradientUnits="userSpaceOnUse">
<stop stop-color="#808080" stop-opacity="0.25"/>
<stop offset="0.54" stop-color="#808080" stop-opacity="0.12"/>
<stop offset="1" stop-color="#808080" stop-opacity="0.1"/>
</linearGradient>
<linearGradient id="paint2_linear" x1="84.8654" y1="77.7472" x2="84.8654" y2="26.6483" gradientUnits="userSpaceOnUse">
<stop stop-color="#B3B3B3" stop-opacity="0.25"/>
<stop offset="0.54" stop-color="#B3B3B3" stop-opacity="0.1"/>
<stop offset="1" stop-color="#B3B3B3" stop-opacity="0.05"/>
</linearGradient>
<clipPath id="clip0">
<rect width="400" height="437.582" fill="white"/>
</clipPath>
</defs>
</svg>
