<svg width="135" height="70" viewBox="0 0 135 70" fill="none" xmlns="http://www.w3.org/2000/svg">
<g clip-path="url(#clip0)">
<path fill-rule="evenodd" clip-rule="evenodd" d="M133.386 25.2999C132.886 25.8999 132.386 26.5999 131.986 27.2999C131.586 28.0999 131.386 29 131.386 29.9C131.286 31 131.486 32.1 131.386 33.2C132.186 32.4 132.886 31.5 133.386 30.5C133.686 30 133.986 29.5 134.086 29C134.286 28.4 134.286 27.8 134.286 27.2C134.286 26.9 134.286 26.6 134.286 26.4C134.286 26.1 134.586 25.8 134.586 25.4C134.686 25 134.586 24.6 134.786 24.2C134.286 24.4 133.886 24.8 133.586 25.1C133.486 25.2 133.386 25.1999 133.386 25.2999Z" fill="#21325B"/>
<path fill-rule="evenodd" clip-rule="evenodd" d="M134.486 35.6999C134.386 36.3999 134.086 36.9999 133.786 37.5999C133.586 37.8999 133.386 38.1999 133.086 38.4999C132.786 38.7999 132.386 39.0999 132.086 39.2999C131.786 39.4999 131.586 39.5999 131.286 39.6999C131.086 39.7999 130.886 39.8999 130.686 39.9999C130.786 39.7999 130.786 39.4999 130.786 39.2999C130.786 38.9999 130.886 38.6999 130.986 38.2999C131.086 37.6999 131.186 37.1999 131.486 36.6999C131.686 36.1999 131.986 35.6999 132.186 35.1999C132.486 34.6999 132.886 34.2999 133.286 33.8999C133.586 33.5999 133.886 33.2999 134.286 33.0999C134.586 32.8999 134.886 32.6999 135.086 32.3999C134.786 32.7999 134.886 33.5999 134.886 34.0999C134.686 34.5999 134.586 35.1999 134.486 35.6999Z" fill="#21325B"/>
<path fill-rule="evenodd" clip-rule="evenodd" d="M121.086 56C121.286 54.9 121.686 53.8 121.586 52.7C121.486 51.4 120.686 50.4 120.486 49.1C120.386 48.7 120.386 48.4 120.586 48C120.386 48.2 120.186 48.3 119.986 48.6C119.786 48.8 119.686 49.1 119.486 49.4C119.286 49.9 119.186 50.4 119.086 50.9C118.886 52 118.886 53.4 119.286 54.4C119.586 55.1 120.186 56.1 121.086 56C121.086 55.8 121.186 55.6 121.186 55.4L121.086 56Z" fill="#21325B"/>
<path fill-rule="evenodd" clip-rule="evenodd" d="M115.586 59.3C115.786 59.9 116.086 60.4 116.486 60.8C116.586 60.9 116.686 61 116.786 61.2C116.886 61.1 116.786 60.9 116.886 60.7C116.986 60.4 117.186 60.1 117.486 59.9C117.786 59.4 117.986 58.8 118.086 58.2C118.186 57.5 118.086 56.9 117.986 56.2C117.786 55.6 117.586 55 117.286 54.4C117.086 53.9 116.986 53.5 116.886 53C116.786 53.5 116.486 53.9 116.286 54.3C116.086 54.8 115.886 55.3 115.686 55.8C115.286 57 115.186 58.2 115.586 59.3Z" fill="#21325B"/>
<path fill-rule="evenodd" clip-rule="evenodd" d="M124.686 11.7999C124.386 11.8999 124.286 11.0999 124.186 10.8999C123.886 10.3999 123.486 10.0999 123.286 9.6999C122.786 8.7999 122.486 7.8999 122.386 6.8999C122.286 6.3999 122.286 5.8999 122.286 5.3999C122.286 4.9999 122.286 4.2999 122.686 3.9999C122.986 3.6999 123.286 4.4999 123.386 4.7999C123.586 5.2999 123.786 5.6999 123.986 6.1999C124.286 6.5999 124.586 6.9999 124.786 7.4999C124.986 7.9999 125.186 8.4999 125.286 9.0999C125.386 9.5999 125.386 10.0999 125.286 10.5999C125.186 10.8999 125.086 11.6999 124.686 11.7999Z" fill="#21325B"/>
<path fill-rule="evenodd" clip-rule="evenodd" d="M129.086 17.6C128.886 17.9 128.686 18.4 128.386 18.5C127.886 18.7 127.486 18 127.286 17.6C126.986 17 126.886 16.4 126.786 15.7C126.686 15.1 126.786 14.6 126.786 14C126.786 13.4 126.886 12.8 126.986 12.2C127.086 11.6 127.286 11 127.486 10.4C127.586 10.2 127.686 9.89998 127.686 9.69998C127.786 9.49998 127.686 9.29998 127.886 9.09998C128.186 9.49998 128.286 10.1 128.486 10.5C128.786 11 128.986 11.5 129.186 12.1C129.486 13.3 129.786 14.5 129.486 15.8C129.486 16.5 129.386 17.1 129.086 17.6Z" fill="#21325B"/>
<path fill-rule="evenodd" clip-rule="evenodd" d="M116.286 7.19995C116.686 7.19995 117.286 7.39995 117.686 7.59995C118.286 7.79995 118.986 7.99995 119.586 8.29995C120.086 8.59995 120.586 8.89995 120.986 9.29995C121.386 9.69995 121.786 10.3 121.986 10.8C121.586 10.9 121.186 10.8 120.786 10.8C120.386 10.8 119.986 10.7 119.586 10.5C119.086 10.3 118.586 9.89995 118.186 9.49995C117.586 8.89995 116.886 8.09995 116.286 7.19995Z" fill="#21325B"/>
<path fill-rule="evenodd" clip-rule="evenodd" d="M122.786 13.7C123.786 14.4 124.586 15.4 124.986 16.6C124.686 16.8 124.286 16.9 123.886 16.9C122.786 16.9 121.786 16.1 121.186 15.2C120.886 14.7 120.586 14.1 120.286 13.6C120.086 13.1 119.886 12.6 119.686 12.1C120.186 12.3 120.686 12.6 121.186 12.8C121.686 13.1 122.186 13.4 122.786 13.7Z" fill="#21325B"/>
<path fill-rule="evenodd" clip-rule="evenodd" d="M132.186 21.9C131.986 22.7 131.686 23.6 131.286 24.3C130.986 24.8 130.586 25.3 130.186 25.7C130.186 25.3 129.986 24.8 129.886 24.5C129.886 24.3 129.786 24 129.786 23.8C129.786 23.5 129.786 23.2 129.786 22.8C129.686 21.7 129.886 20.7 130.186 19.7C130.386 19.1 130.686 18.6 130.986 18.1C131.186 17.8 131.286 17.5 131.486 17.2C131.586 17.1 131.986 16.6 132.086 16.5C132.286 16.5 132.286 17.1 132.286 17.2C132.386 17.9 132.386 18.5 132.386 19.2C132.486 20.1 132.386 21 132.186 21.9Z" fill="#21325B"/>
<path fill-rule="evenodd" clip-rule="evenodd" d="M125.586 34.3C125.486 33.7 125.486 33.2 125.486 32.6C125.486 32.1 125.486 31.5 125.586 31.1C125.686 31.3 125.686 31.4 125.786 31.6C126.086 32.2 126.686 32.6 127.186 33.1C127.586 33.5 127.986 34 128.186 34.6C128.386 35.1 128.586 35.7 128.586 36.3C128.686 36.8 128.686 37.4 128.686 37.9C128.186 37.9 127.686 37.3 127.286 37C126.386 36.4 125.786 35.4 125.586 34.3Z" fill="#21325B"/>
<path fill-rule="evenodd" clip-rule="evenodd" d="M124.786 49.7C124.586 50.3 124.186 50.2 123.786 49.9C123.486 49.7 123.186 49.3 123.186 48.9C123.086 48.4 123.086 47.9 123.086 47.5C123.086 47 123.086 46.3999 123.086 45.7999C123.086 45.2999 123.186 44.7 123.286 44.2C123.286 43.7 123.286 43.1 123.386 42.7C123.486 43 123.686 43.2 123.886 43.4C124.086 43.7 124.386 44.1 124.586 44.5C125.186 45.4 125.486 46.4999 125.486 47.5999C125.486 48.0999 125.486 48.6 125.286 49.2C124.986 49.2 124.886 49.4 124.786 49.7Z" fill="#21325B"/>
<path fill-rule="evenodd" clip-rule="evenodd" d="M121.186 62.7C122.586 62.6 124.086 62.7 125.486 62.6C125.186 62.8 125.086 63.1 124.786 63.3C124.486 63.5 124.086 63.8 123.786 64C123.186 64.4 122.486 64.8 121.786 65C121.186 65.2 120.486 65.3 119.886 65.3C119.386 65.3 118.686 65.1 118.286 64.7C118.086 64.4 118.086 63.9 118.386 63.6C118.986 62.7 120.186 62.7 121.186 62.7Z" fill="#21325B"/>
<path fill-rule="evenodd" clip-rule="evenodd" d="M127.086 44.3C126.686 44 126.086 43.8 125.786 43.4C124.986 42.5 124.586 41.4 124.486 40.2C124.386 39.6 124.486 39 124.586 38.5C124.586 38 124.586 37.4 124.686 37C124.986 37.5 125.386 37.9 125.786 38.3C126.286 38.8 126.786 39.3 127.186 39.9C127.686 40.9 127.886 42 127.686 43.1C127.486 43.4 127.386 43.9 127.086 44.3Z" fill="#21325B"/>
<path fill-rule="evenodd" clip-rule="evenodd" d="M130.686 46.3C130.186 46.7 129.586 46.8 128.986 47.1C129.086 46.3 129.286 45.5 129.686 44.9C129.986 44.4 130.286 43.8 130.586 43.3C130.886 42.7 131.386 42.2 131.886 41.7C132.386 41.3 132.886 41 133.286 40.6C133.586 40.3 133.986 40.1 134.386 40C134.286 40.3 134.086 40.7 133.986 41C133.886 41.4 133.786 41.7 133.586 42.1C133.186 43.2 132.786 44.2 131.986 45.1C131.686 45.6 131.186 46 130.686 46.3Z" fill="#21325B"/>
<path fill-rule="evenodd" clip-rule="evenodd" d="M129.086 37C129.086 34.7 128.986 32.3 128.686 30C127.886 30.4 126.586 30 125.986 29.4C125.586 28.9 125.286 28.3999 125.086 27.7999C124.886 27.2999 124.786 26.7 124.686 26.1C124.586 25.7 124.286 25 124.586 24.6C124.886 24.8 125.186 25.1 125.386 25.4C125.786 25.7 126.186 26 126.486 26.4C126.886 26.7 127.286 27 127.586 27.4C127.786 27.6 128.086 27.8 128.286 28C128.086 26.5 127.786 25.1999 127.486 23.7999C127.386 23.7999 127.286 23.7999 127.286 23.7999C125.986 23.5999 124.786 22.7 123.986 21.6C123.586 21.1 123.186 20.4999 122.886 19.7999C122.786 19.4999 122.686 19.3 122.686 19C122.586 18.8 122.486 18.4 122.486 18.2C122.886 18.4 123.286 18.5999 123.686 18.7999C124.286 19.0999 124.786 19.3999 125.286 19.7999C125.686 20.0999 126.086 20.4 126.386 20.7C126.486 20.8 126.686 20.9 126.786 21C124.686 13.5 121.486 8.69995 120.186 6.99995C120.086 6.99995 119.286 6.29995 119.186 6.19995C118.586 5.69995 117.886 5.39995 117.286 5.09995C116.786 4.79995 116.286 4.49995 115.886 4.09995C115.486 3.69995 115.286 3.29995 114.886 2.89995C114.286 2.09995 113.886 1.09995 113.486 0.199951C114.186 0.599951 114.886 0.999951 115.686 1.29995C116.386 1.59995 117.086 1.89995 117.786 2.29995C118.386 2.69995 118.986 3.19995 119.486 3.69995C119.886 4.09995 120.186 4.69995 120.386 5.19995C120.486 5.49995 120.786 6.09995 120.786 6.19995C122.186 8.09995 130.186 19.8999 130.186 36.5999C130.186 41.4999 129.086 46.3 126.886 50.7C127.486 50 128.486 49.4999 129.386 49.2999C129.886 49.0999 130.386 49.1 130.786 48.9C131.286 48.8 131.786 48.6 132.386 48.5C132.186 48.5 131.986 48.8 131.886 49C131.686 49.3 131.386 49.6 131.186 49.9C130.586 50.8 130.186 51.7999 129.486 52.5999C129.086 53.0999 128.586 53.5 127.986 53.7C127.586 53.9 126.886 53.9999 126.486 53.7999C125.986 53.4999 125.986 53 126.086 52.4C125.186 54 124.286 55.6 123.186 57C123.586 56.8 124.086 56.6 124.586 56.5C125.386 56.4 126.186 56.2999 126.986 56.2999C127.786 56.1999 128.486 56.1 129.286 56C128.586 56.6 127.986 57.3 127.386 58C126.986 58.4 126.586 58.7 126.086 59C125.686 59.3 125.186 59.5999 124.686 59.7999C124.186 59.9999 123.286 60.1 122.786 59.9C122.386 59.7 122.086 58.9999 122.186 58.5999C122.186 58.5999 122.186 58.6 122.186 58.5C116.286 65.8 109.586 69.8 109.586 69.8V67.2C109.586 67.2 129.086 55.2 129.086 37Z" fill="#21325B"/>
<path fill-rule="evenodd" clip-rule="evenodd" d="M5.89995 37C5.89995 34.7 5.99995 32.3 6.29995 30C7.09995 30.4 8.39995 30 8.99995 29.4C9.39995 28.9 9.69995 28.4 9.89995 27.8C10.0999 27.3 10.1999 26.7 10.2999 26.1C10.3999 25.7 10.6999 25 10.3999 24.6C10.0999 24.8 9.79995 25.1 9.59995 25.4C9.19995 25.7 8.79995 26 8.49995 26.4C8.09995 26.7 7.69995 27 7.39995 27.4C7.19995 27.6 6.89995 27.8 6.69995 28C6.89995 26.5 7.19995 25.2 7.49995 23.8C7.59995 23.8 7.69995 23.8 7.69995 23.8C8.99995 23.6 10.1999 22.7 10.9999 21.6C11.3999 21.1 11.7999 20.5 12.0999 19.8C12.1999 19.5 12.2999 19.3 12.2999 19C12.3999 18.8 12.4999 18.4 12.4999 18.2C12.0999 18.4 11.6999 18.6 11.2999 18.8C10.6999 19.1 10.1999 19.4 9.69995 19.8C9.29995 20.1 8.89995 20.4 8.59995 20.7C8.49995 20.8 8.29995 20.9 8.19995 21C10.3999 13.4 13.5999 8.59998 14.8999 6.89998C14.9999 6.89998 15.7999 6.19998 15.8999 6.09998C16.4999 5.69998 17.1999 5.39998 17.7999 4.99998C18.2999 4.79998 18.7999 4.39998 19.1999 4.09998C19.5999 3.69998 19.7999 3.19998 20.1999 2.79998C20.8999 1.99998 21.2999 0.999976 21.5999 0.0999756C20.8999 0.599976 20.1999 0.999976 19.3999 1.29998C18.6999 1.59998 17.9999 1.89998 17.2999 2.29998C16.6999 2.69998 16.0999 3.19998 15.5999 3.69998C15.1999 4.09998 14.8999 4.69998 14.6999 5.19998C14.5999 5.49998 14.2999 6.09998 14.2999 6.19998C12.8999 8.09998 4.89995 19.9 4.89995 36.6C4.89995 41.5 5.99995 46.3 8.19995 50.7C7.59995 50 6.59995 49.5 5.69995 49.3C5.19995 49.1 4.69995 49.1 4.29995 48.9C3.79995 48.8 3.29995 48.6 2.69995 48.5C2.89995 48.5 3.09995 48.8 3.19995 49C3.39995 49.3 3.69995 49.6 3.89995 49.9C4.49995 50.8 4.89995 51.8 5.59995 52.6C5.99995 53.1 6.49995 53.5 7.09995 53.7C7.49995 53.9 8.19995 54 8.59995 53.8C9.09995 53.5 9.09995 53 8.99995 52.4C9.89995 54 10.7999 55.6 11.8999 57C11.4999 56.8 10.9999 56.6 10.4999 56.5C9.69995 56.4 8.89995 56.3 8.09995 56.3C7.29995 56.2 6.59995 56.1 5.79995 56C6.49995 56.6 7.09995 57.3 7.69995 58C8.09995 58.4 8.49995 58.7 8.99995 59C9.39995 59.3 9.89995 59.6 10.3999 59.8C10.8999 60 11.7999 60.1 12.2999 59.9C12.6999 59.7 12.9999 59 12.8999 58.6C12.8999 58.6 12.8999 58.6 12.8999 58.5C18.5999 65.8 25.2999 69.9 25.2999 69.9V67.3C25.3999 67.2 5.89995 55.2 5.89995 37Z" fill="#21325B"/>
<path fill-rule="evenodd" clip-rule="evenodd" d="M7.89998 44.3C8.39998 44 8.89998 43.8 9.19998 43.4C9.99997 42.5 10.4 41.4 10.5 40.2C10.6 39.6 10.5 39 10.4 38.5C10.4 38 10.4 37.4 10.3 37C9.99997 37.5 9.59998 37.9 9.19998 38.3C8.69998 38.8 8.19998 39.3 7.79998 39.9C7.49998 40.4 7.39998 40.9 7.29998 41.4C7.19998 41.9 7.19998 42.5 7.29998 43C7.49998 43.4 7.69998 43.9 7.89998 44.3Z" fill="#21325B"/>
<path fill-rule="evenodd" clip-rule="evenodd" d="M13.8999 56C13.6999 54.9 13.2999 53.8 13.3999 52.7C13.4999 51.4 14.2999 50.4 14.4999 49.1C14.5999 48.7 14.5999 48.4 14.3999 48C14.5999 48.2 14.7999 48.3 14.9999 48.6C15.1999 48.8 15.2999 49.1 15.4999 49.4C15.6999 49.9 15.7999 50.4 15.8999 50.9C16.0999 52 16.0999 53.3 15.6999 54.3C15.3999 55.1 14.7999 56.1 13.8999 56C13.8999 55.8 13.7999 55.6 13.7999 55.4L13.8999 56Z" fill="#21325B"/>
<path fill-rule="evenodd" clip-rule="evenodd" d="M1.69993 25.2999C2.29993 25.8999 2.69993 26.5999 3.09993 27.2999C3.49993 28.0999 3.69993 29 3.69993 29.9C3.79993 31 3.59993 32.1 3.69993 33.2C2.89993 32.4 2.19993 31.5 1.69993 30.5C1.39993 30 1.09993 29.5 0.999929 29C0.799927 28.4 0.799927 27.8 0.799927 27.2C0.799927 26.9 0.799927 26.6 0.799927 26.4C0.799927 26.1 0.499927 25.8 0.499927 25.4C0.399927 25 0.499927 24.6 0.299927 24.2C0.799927 24.4 1.19993 24.8 1.49993 25.1C1.49993 25.2 1.59993 25.1999 1.69993 25.2999Z" fill="#21325B"/>
<path fill-rule="evenodd" clip-rule="evenodd" d="M10.3 11.8C10.6 11.9 10.7 11.1 10.8 10.9C11.1 10.4 11.5 10.1 11.7 9.7C12.2 8.8 12.5 7.9 12.6 6.9C12.7 6.4 12.7 5.89999 12.7 5.49999C12.7 5.09999 12.7 4.39999 12.4 4.09999C12.1 3.79999 11.8 4.6 11.7 4.9C11.5 5.4 11.3 5.8 11.1 6.3C10.8 6.7 10.5 7.19999 10.3 7.59999C10 7.99999 9.8 8.5 9.7 9.1C9.6 9.6 9.6 10.1 9.7 10.6C9.8 10.9 10 11.7 10.3 11.8Z" fill="#21325B"/>
<path fill-rule="evenodd" clip-rule="evenodd" d="M0.499976 35.7C0.599976 36.4 0.899976 37 1.19998 37.6C1.39998 37.9 1.59998 38.2 1.89998 38.5C2.19998 38.8 2.59998 39.1 2.89998 39.3C3.19998 39.5 3.39998 39.6 3.69998 39.7C3.99998 39.9 4.19998 40 4.39998 40.1C4.29998 39.9 4.29998 39.6 4.29998 39.4C4.29998 39.1 4.19998 38.8 4.09998 38.4C3.99998 37.8 3.89998 37.3 3.69998 36.8C3.49998 36.3 3.19998 35.8 2.99998 35.3C2.69998 34.8 2.29998 34.4 1.89998 34C1.59998 33.7 1.29998 33.4 0.899976 33.2C0.599976 33 0.299976 32.8 0.0999756 32.5C0.399976 32.9 0.299976 33.7 0.299976 34.2C0.299976 34.6 0.399976 35.2 0.499976 35.7Z" fill="#21325B"/>
<path fill-rule="evenodd" clip-rule="evenodd" d="M18.8 7.19995C18.4 7.19995 17.8 7.39995 17.4 7.59995C16.7 7.79995 16.1 7.99995 15.4 8.29995C14.9 8.59995 14.4 8.89995 14 9.29995C13.6 9.69995 13.2 10.3 13 10.8C13.4 10.9 13.8 10.8 14.2 10.8C14.6 10.8 15 10.7 15.4 10.5C15.9 10.3 16.4 9.89995 16.8 9.49995C17.5 8.89995 18.1 8.09995 18.8 7.19995Z" fill="#21325B"/>
<path fill-rule="evenodd" clip-rule="evenodd" d="M12.3 13.7C11.3 14.4 10.5 15.4 10.1 16.6C10.4 16.8 10.8 16.9 11.2 16.9C12.3 16.9 13.3 16.1 13.9 15.2C14.2 14.7 14.5 14.1 14.8 13.6C15 13.1 15.3 12.6 15.4 12.1C14.9 12.3 14.4 12.6 13.9 12.8C13.4 13.1 12.8 13.4 12.3 13.7Z" fill="#21325B"/>
<path fill-rule="evenodd" clip-rule="evenodd" d="M5.90002 17.6C6.10002 17.9 6.30002 18.4 6.60002 18.5C7.10002 18.7 7.50002 18 7.70002 17.6C8.00002 17 8.10002 16.4 8.20002 15.7C8.30002 15.1 8.20002 14.6 8.20002 14C8.20002 13.4 8.10002 12.8 8.00002 12.2C7.90002 11.6 7.70002 11 7.50002 10.4C7.40002 10.2 7.30002 9.89995 7.30002 9.69995C7.10002 9.59995 7.10002 9.39995 7.00002 9.19995C6.70002 9.59995 6.60002 10.2 6.40002 10.6C6.10002 11.1 5.90002 11.6 5.70002 12.2C5.40002 13.4 5.10002 14.6 5.40002 15.9C5.50002 16.5 5.60002 17.1 5.90002 17.6Z" fill="#21325B"/>
<path fill-rule="evenodd" clip-rule="evenodd" d="M2.8 21.9C3 22.8 3.3 23.6 3.7 24.3C4 24.8 4.4 25.3 4.8 25.7C4.8 25.3 5 24.8 5.1 24.5C5.1 24.3 5.2 24 5.2 23.8C5.2 23.5 5.2 23.2 5.2 22.8C5.3 21.7 5.1 20.7 4.8 19.7C4.6 19.1 4.3 18.6 4 18.1C3.8 17.8 3.7 17.5 3.5 17.2C3.4 17 3 16.5 2.8 16.5C2.6 16.5 2.6 17.1 2.6 17.2C2.5 17.9 2.5 18.5 2.5 19.2C2.5 20.1 2.6 21 2.8 21.9Z" fill="#21325B"/>
<path fill-rule="evenodd" clip-rule="evenodd" d="M9.40005 34.3C9.50005 33.7 9.50005 33.2 9.50005 32.6C9.50005 32.1 9.50005 31.5 9.40005 31.1C9.30005 31.3 9.30005 31.4 9.20005 31.6C8.90005 32.2 8.30005 32.6 7.80005 33.1C7.40005 33.5 7.00005 34 6.80005 34.6C6.60005 35.1 6.40005 35.7 6.40005 36.3C6.30005 36.8 6.30005 37.4 6.30005 37.9C6.80005 37.9 7.30005 37.3 7.70005 37C8.60005 36.4 9.20005 35.4 9.40005 34.3Z" fill="#21325B"/>
<path fill-rule="evenodd" clip-rule="evenodd" d="M4.29998 46.3C4.79998 46.7 5.39998 46.8 5.99998 47.1C5.89998 46.3 5.69998 45.5 5.29998 44.9C4.99998 44.4 4.69998 43.8 4.39998 43.3C4.09998 42.7 3.59998 42.2 3.09998 41.7C2.59998 41.3 2.09998 41 1.69998 40.6C1.39998 40.3 0.99998 40.1 0.599976 40C0.699976 40.3 0.899976 40.7 0.99998 41C1.09998 41.4 1.19998 41.7 1.39998 42.1C1.79998 43.2 2.19998 44.2 2.99998 45.1C3.29998 45.6 3.79998 46 4.29998 46.3Z" fill="#21325B"/>
<path fill-rule="evenodd" clip-rule="evenodd" d="M10.2 49.7C10.4 50.3 10.8 50.2 11.2 49.9C11.5 49.7 11.8 49.3 11.8 48.9C11.9 48.4 11.9 47.9 11.9 47.5C11.9 47 11.9 46.3999 11.9 45.7999C11.9 45.2999 11.8 44.7 11.8 44.2C11.8 43.7 11.8 43.1 11.7 42.7C11.6 43 11.4 43.2 11.2 43.4C11 43.7 10.7 44.1 10.5 44.5C9.89998 45.4 9.59998 46.4999 9.59998 47.5999C9.59998 48.0999 9.59998 48.6 9.79998 49.2C9.99997 49.3 10.1 49.4 10.2 49.7Z" fill="#21325B"/>
<path fill-rule="evenodd" clip-rule="evenodd" d="M13.8 62.7C12.4 62.6 10.9 62.7 9.5 62.6C9.8 62.8 9.9 63.1 10.2 63.3C10.5 63.5 10.9 63.8 11.2 64C11.8 64.4 12.5 64.8 13.2 65C13.8 65.2 14.5 65.3 15.1 65.3C15.6 65.3 16.4 65.1 16.7 64.7C16.9 64.4 16.9 63.9 16.6 63.6C16.1 62.8 14.8 62.7 13.8 62.7Z" fill="#21325B"/>
<path fill-rule="evenodd" clip-rule="evenodd" d="M20.2999 59.8C20.0999 60.4 19.7999 60.9 19.3999 61.3C19.2999 61.4 19.1999 61.5 19.1999 61.7C19.0999 61.6 19.1999 61.4 19.0999 61.2C18.9999 60.9 18.7999 60.6 18.4999 60.4C18.1999 59.9 17.9999 59.3 17.8999 58.7C17.7999 58 17.8999 57.4 17.9999 56.7C18.1999 56.1 18.3999 55.5 18.6999 54.9C18.8999 54.4 18.9999 54 19.0999 53.5C19.1999 54 19.4999 54.4 19.6999 54.8C19.8999 55.3 20.0999 55.8 20.2999 56.3C20.5999 57.5 20.6999 58.7 20.2999 59.8Z" fill="#21325B"/>
<path d="M58.4 58.5C60 57.1 61.7 55.9 61.7 54.6C61.7 54 61.4 53.5 60.7 53.5C60 53.5 59.7 54.0001 59.7 54.7001H58.4C58.4 53.1001 59.5 52.3 60.8 52.3C62.3 52.3 63.1 53.2 63.1 54.5C63.1 56.2 61.5 57.4001 60.4 58.4001H63.3V59.5H58.5V58.5H58.4Z" fill="#21325B"/>
<path d="M66.7 52.4C68.7 52.4 69.3 53.9 69.3 56C69.3 58.1 68.7 59.6 66.7 59.6C64.7 59.6 64.1 58 64.1 56C64.1 53.9 64.7 52.4 66.7 52.4ZM66.7 53.7C65.5 53.7 65.4 54.8 65.4 56C65.4 57.3 65.5 58.4 66.7 58.4C67.9 58.4 68 57.3 68 56C68 54.8 67.9 53.7 66.7 53.7Z" fill="#21325B"/>
<path d="M71.2 53.8H70.2V52.5H72.6V59.6H71.2V53.8Z" fill="#21325B"/>
<path d="M75.6 57.7C75.7 58.3 76.1 58.6 76.7 58.6C77.5 58.6 77.9 58 77.9 56.4C77.6 56.8 77 57.1 76.4 57.1C75.2 57.1 74.2 56.3 74.2 54.8C74.2 53.4 75.1 52.4 76.6 52.4C78.5 52.4 79.1 53.7 79.1 56C79.1 58.4 78.6 59.7 76.7 59.7C75.2 59.7 74.5 58.7 74.4 57.7H75.6ZM77.7 54.7C77.7 53.9 77.2 53.5 76.6 53.5C75.9 53.5 75.5 54 75.5 54.7C75.5 55.3 75.9 55.9 76.7 55.9C77.3 55.9 77.7 55.4 77.7 54.7Z" fill="#21325B"/>
<path d="M32.4 29.1H29.4V22.1H32.3C33.8 22.1 34.6 22.9 34.6 23.9C34.6 24.7 34.1 25.3 33.4 25.5C34.2 25.6 34.7 26.4 34.7 27.2C34.7 28.3 33.9 29.1 32.4 29.1ZM32.1 23.3H30.8V25H32.1C32.8 25 33.1 24.7 33.1 24.1C33.1 23.6 32.8 23.3 32.1 23.3ZM32.2 26.1H30.8V28H32.2C32.9 28 33.3 27.7 33.3 27.1C33.3 26.5 32.9 26.1 32.2 26.1Z" fill="#21325B"/>
<path d="M39.9 23.3H37.3V25H39.6V26.1H37.3V28H39.9V29.1H35.9V22.1H39.9V23.3Z" fill="#21325B"/>
<path d="M43.6 29.2C42.2 29.2 41 28.4 41 27.1H42.5C42.5 27.7 42.9 28 43.6 28C44.3 28 44.6 27.7 44.6 27.2C44.6 25.7 41 26.6 41 24.1C41 22.8 42 22.1 43.5 22.1C44.9 22.1 45.9 22.8 46 24.1H44.5C44.5 23.6 44.1 23.3 43.5 23.3C43 23.3 42.5 23.6 42.5 24.1C42.5 25.5 46.1 24.7 46.1 27.2C46.1 28.2 45.2 29.2 43.6 29.2Z" fill="#21325B"/>
<path d="M46.8999 22.1H51.9999V23.2H50.0999V29H48.6999V23.2H46.7999V22.1H46.8999Z" fill="#21325B"/>
<path d="M61.9 24.2H60.2999C59.9999 23.6 59.4 23.3 58.7 23.3C57.5 23.3 56.5999 24.2 56.5999 25.6C56.5999 27 57.4999 27.9 58.7999 27.9C59.8999 27.9 60.5999 27.3 60.7999 26.3H58.4V25.2H62.2V26.4C61.9 27.8 60.6999 29.1 58.7999 29.1C56.7999 29.1 55.2 27.6 55.2 25.5C55.2 23.4 56.6999 21.9 58.7999 21.9C60.1999 22.1 61.4 22.8 61.9 24.2Z" fill="#21325B"/>
<path d="M63.1 22.1H64.5V26.4C64.5 27.4 65 27.9 65.9 27.9C66.8 27.9 67.3 27.4 67.3 26.4V22.1H68.7V26.4C68.7 28.2 67.4 29.1 65.9 29.1C64.4 29.1 63.1 28.2 63.1 26.4V22.1Z" fill="#21325B"/>
<path d="M70.1 22.1H71.5V29.1H70.1V22.1Z" fill="#21325B"/>
<path d="M76.9 23.3H74.3V25H76.6V26.1H74.3V28H76.9V29.1H72.9V22.1H76.9V23.3Z" fill="#21325B"/>
<path d="M84.3 25.6C84.3 27.7 82.9 29.1 80.6 29.1H78.2V22.1H80.6C82.8 22.1 84.3 23.5 84.3 25.6ZM80.6 27.9C82.1 27.9 82.9 27.1 82.9 25.6C82.9 24.1 82.1 23.3 80.6 23.3H79.6V27.9H80.6Z" fill="#21325B"/>
<path d="M87.7 29.2C86.3 29.2 85.1 28.4 85.1 27.1H86.6C86.6 27.7 87 28 87.7 28C88.4 28 88.7 27.7 88.7 27.2C88.7 25.7 85.1 26.6 85.1 24.1C85.1 22.8 86.1 22.1 87.6 22.1C89 22.1 90 22.8 90.1 24.1H88.6C88.6 23.6 88.2 23.3 87.6 23.3C87.1 23.3 86.6 23.6 86.6 24.1C86.6 25.5 90.2 24.7 90.2 27.2C90.2 28.2 89.3 29.2 87.7 29.2Z" fill="#21325B"/>
<path d="M97 29.2C95 29.2 93.4 27.7 93.4 25.6C93.4 23.5 95 22 97 22C99 22 100.6 23.5 100.6 25.6C100.6 27.7 99 29.2 97 29.2ZM97 27.9C98.3 27.9 99.1 27 99.1 25.6C99.1 24.2 98.2 23.3 97 23.3C95.7 23.3 94.9 24.2 94.9 25.6C94.9 27 95.8 27.9 97 27.9Z" fill="#21325B"/>
<path d="M101.7 22.1H106V23.2H103.1V25H105.3V26.1H103.1V29H101.7V22.1Z" fill="#21325B"/>
<path d="M44.8999 36.2001H49.9999V37.3001H48.0999V43.1001H46.6999V37.3001H44.7999V36.2001H44.8999Z" fill="#21325B"/>
<path d="M55.4 40.2H52.4V43.2H51V36.2H52.4V39H55.4V36.1H56.8V43.1H55.4V40.2Z" fill="#21325B"/>
<path d="M62.2 37.3H59.5999V39H61.9V40.1H59.5999V42H62.2V43.1H58.2V36.1H62.2V37.3Z" fill="#21325B"/>
<path d="M65.2999 36.2001H66.8999L68.3999 39.4001L69.8999 36.2001H71.4999L69.0999 40.7001V43.1001H67.6999V40.7001L65.2999 36.2001Z" fill="#21325B"/>
<path d="M76.2999 37.3H73.6999V39H75.9999V40.1H73.6999V42H76.2999V43.1H72.2999V36.1H76.2999V37.3Z" fill="#21325B"/>
<path d="M81.8 41.8H79L78.5 43.1H77L79.5 36.1H81.1L83.6 43.1H82.1L81.8 41.8ZM80.5 37.8L79.5 40.7H81.5L80.5 37.8Z" fill="#21325B"/>
<path d="M87.3 36.2C89 36.2 89.8 37.2 89.8 38.3C89.8 39.1 89.3 40 88.2 40.3L89.9 43.1H88.3L86.8 40.4H86.1V43.1H84.7V36.1H87.3V36.2ZM87.3 37.3H86.1V39.3H87.3C88.1 39.3 88.4 38.9 88.4 38.3C88.4 37.7 88.1 37.3 87.3 37.3Z" fill="#21325B"/>
<path d="M67.7 5.69999L68.9 8.19999C69 8.29999 69 8.29999 69.1 8.29999L71.9 8.69999C72 8.69999 72.1 8.89999 72 8.99999L70 11C69.9 11.1 69.9 11.1 69.9 11.2L70.4 14C70.5 14.2 70.2 14.3 70.1 14.2L67.6 13C67.5 13 67.5 13 67.4 13L64.9 14.3C64.7 14.4 64.6 14.2 64.6 14.1L65.1 11.3C65.1 11.2 65.1 11.2 65 11.1L63 8.99999C62.9 8.89999 62.9 8.69999 63.1 8.69999L65.9 8.29999C66 8.29999 66 8.19999 66.1 8.19999L67.3 5.59999C67.4 5.49999 67.6 5.49999 67.7 5.69999Z" fill="#21325B"/>
<path d="M78.5 7.29998L79.3 8.89998L79.4 8.99998L81.1 9.19998C81.2 9.19998 81.2 9.29998 81.2 9.39998L80 10.6V10.7L80.3 12.4C80.3 12.5 80.2 12.6 80.1 12.5L78.5 11.7H78.4L76.9 12.5C76.8 12.5 76.7 12.5 76.7 12.4L77 10.7V10.6L75.7 9.39998C75.6 9.29998 75.7 9.19998 75.8 9.19998L77.4 8.99998C77.4 8.99998 77.5 8.99998 77.5 8.89998L78.3 7.29998C78.4 7.19998 78.5 7.19998 78.5 7.29998Z" fill="#21325B"/>
<path d="M56.5 7.29998L57.3 8.89998L57.4 8.99998L59.1 9.19998C59.2 9.19998 59.2 9.29998 59.2 9.39998L58 10.6V10.7L58.3 12.4C58.3 12.5 58.2 12.6 58.1 12.5L56.5 11.7H56.4L54.9 12.5C54.8 12.5 54.7 12.5 54.7 12.4L55 10.7V10.6L53.7 9.39998C53.6 9.29998 53.7 9.19998 53.8 9.19998L55.4 8.99998C55.4 8.99998 55.5 8.99998 55.5 8.89998L56.3 7.29998C56.4 7.19998 56.5 7.19998 56.5 7.29998Z" fill="#21325B"/>
</g>
<defs>
<clipPath id="clip0">
<rect width="135" height="70" fill="white"/>
</clipPath>
</defs>
</svg>
