<svg width="400" height="394" viewBox="0 0 400 394" fill="none" xmlns="http://www.w3.org/2000/svg">
<g clip-path="url(#clip0)">
<path opacity="0.3" d="M235.313 211.875L103.75 157.188C94.375 153.438 90 142.5 93.75 133.125L148.437 1.87505C152.187 -7.49994 163.125 -11.8749 172.5 -8.12494L304.063 46.25C313.438 50 317.812 60.9375 314.062 70.3125L259.375 201.875C255.625 211.25 244.688 215.625 235.313 211.875Z" fill="#BDC5D1"/>
<path d="M229.375 198.125L97.8125 143.438C88.4375 139.688 84.0625 128.75 87.8125 119.375L142.5 -11.8751C146.25 -21.2501 157.187 -25.6251 166.562 -21.8751L298.125 32.5C307.5 36.25 311.875 47.1875 308.125 56.5625L253.437 188.125C249.687 197.5 238.75 201.875 229.375 198.125Z" fill="white"/>
<path d="M253.125 62.5L211.875 45.3125C207.5 55.625 212.5 67.5 222.813 71.5625L230.312 74.6875L227.187 81.875C222.812 92.1875 227.812 104.062 238.125 108.125L255 67.1875C255.937 65.625 255 63.125 253.125 62.5Z" fill="#2684FF"/>
<path d="M224.062 74.375L182.812 57.1875C178.437 67.5 183.437 79.3753 193.75 83.4378L201.25 86.5628L198.125 93.75C193.75 104.062 198.75 115.938 209.062 120L225.937 79.0625C227.187 77.5 226.25 75.3125 224.062 74.375Z" fill="url(#paint0_linear)"/>
<path d="M195.312 86.5625L154.062 69.375C149.687 79.6875 154.687 91.5625 165 95.625L172.5 98.75L169.375 105.938C165 116.25 170 127.812 180.312 132.187L197.187 91.25C198.125 89.6875 197.187 87.5 195.312 86.5625Z" fill="url(#paint1_linear)"/>
<path opacity="0.3" d="M150.625 420.938L19.0625 366.563C9.6875 362.813 5.3125 351.875 9.0625 342.5L63.4375 210.938C67.1875 201.563 78.125 197.188 87.5 200.938L219.375 255.625C228.75 259.375 233.125 270.313 229.375 279.688L175 411.25C170.625 420.313 160 425 150.625 420.938Z" fill="#BDC5D1"/>
<path d="M143.75 404.688L12.1875 350.313C2.8125 346.563 -1.5625 335.625 2.1875 326.25L56.5625 194.688C60.3125 185.313 71.25 180.938 80.625 184.688L212.5 239.375C221.875 243.125 226.25 254.063 222.5 263.438L168.125 395C163.75 404.063 153.125 408.75 143.75 404.688Z" fill="white"/>
<path d="M155.312 280.312C155.625 280 155 279.375 155 279.062C154.687 279.062 148.125 275.625 148.125 275.625C148.125 275.625 145.312 269.062 145 268.437C144.687 267.812 143.437 267.5 143.125 267.5C143.125 267.5 141.875 267.5 140.312 267.187C140.625 262.187 139.687 256.875 134.687 255L134.375 254.687C133.75 252.187 132.5 250.625 130.937 250.312C119.687 245.625 108.75 257.5 104.062 264.062C99.0625 263.75 95.625 263.437 95.3125 263.125C92.8125 262.812 92.5 262.812 91.25 265C90 266.875 63.4375 313.437 63.4375 313.437L109.062 343.437L138.437 348.75C138.125 348.437 155.312 280.625 155.312 280.312ZM137.5 266.875C135.937 266.875 134.687 266.562 132.812 266.25L133.125 265.312C134.375 262.5 134.687 260 135 258.125C136.875 260 137.5 263.437 137.5 266.875ZM131.562 257.812C131.562 259.687 130.937 262.5 129.687 265.625L129.375 265.937C126.562 265.625 122.812 265.312 119.687 265C123.75 259.687 128.125 257.812 131.562 257.812ZM129.375 253.125C129.687 253.437 130.312 253.75 130.625 254.062C126.25 254.375 120.625 256.875 115.625 264.687C113.125 264.375 110.312 264.062 107.812 264.062C112.5 258.75 121.562 250 129.375 253.125Z" fill="#95BF47"/>
<path d="M155 279.375C154.687 279.375 148.125 275.938 148.125 275.938C148.125 275.938 145.312 269.375 145 268.75C145 268.437 144.687 268.125 144.375 268.125L108.75 343.125L138.125 348.438C138.125 348.438 155 280.625 155.312 280.312C155.625 279.687 155.312 279.375 155 279.375Z" fill="#5E8E3E"/>
<path d="M123.125 283.438L115.625 291.875C115.625 291.875 113.437 289.063 109.687 287.5C104.375 285.313 102.812 288.438 102.5 289.375C100.625 293.75 111.562 300.313 107.187 310.938C103.75 319.063 96.25 322.5 89.375 319.375C80.9375 315.938 78.75 308.75 78.75 308.75L84.0625 302.188C84.0625 302.188 86.875 307.813 90.625 309.375C93.125 310.313 95 308.75 95.3125 307.5C97.8125 301.563 88.125 297.188 92.1875 287.5C95.625 279.375 104.687 274.063 116.25 278.75C121.562 281.25 123.125 283.438 123.125 283.438Z" fill="white"/>
<path opacity="0.3" d="M388.75 430.625L257.188 376.25C247.813 372.5 243.437 361.563 247.187 352.188L301.562 220.625C305.312 211.25 316.25 206.875 325.625 210.625L457.188 265C466.563 268.75 470.938 279.688 467.188 289.063L412.813 420.625C408.75 430 398.125 434.375 388.75 430.625Z" fill="#BDC5D1"/>
<path d="M382.813 418.75L251.25 364.375C241.875 360.625 237.5 349.688 241.25 340.313L295.625 208.75C299.375 199.375 310.313 195 319.688 198.75L451.25 253.125C460.625 256.875 465 267.813 461.25 277.188L406.875 408.75C402.812 418.125 392.188 422.5 382.813 418.75Z" fill="white"/>
<path d="M351.562 287.813L312.812 295.625C307.5 296.563 305.625 301.25 308.75 305.938L330.625 338.75C333.75 343.125 340.312 346.25 345.625 345L384.375 337.188C389.687 336.25 391.562 331.563 388.437 326.875L366.562 294.063C363.75 289.375 356.875 286.563 351.562 287.813Z" fill="black"/>
<path d="M351.562 287.813L312.812 295.625C307.5 296.563 305.625 301.25 308.75 305.938L330.625 338.75C333.75 343.125 340.312 346.25 345.625 345L384.375 337.188C389.687 336.25 391.562 331.563 388.437 326.875L366.562 294.063C363.75 289.375 356.875 286.563 351.562 287.813Z" fill="url(#paint2_linear)"/>
<path d="M355.625 277.5L316.875 285.313C311.562 286.25 309.687 290.938 312.812 295.625L334.687 328.438C337.812 332.813 344.375 335.938 349.687 334.688L388.437 326.875C393.75 325.938 395.625 321.25 392.5 316.563L370.625 283.75C367.812 279.063 360.937 276.25 355.625 277.5Z" fill="black"/>
<path d="M355.625 277.5L316.875 285.313C311.562 286.25 309.687 290.938 312.812 295.625L334.687 328.438C337.812 332.813 344.375 335.938 349.687 334.688L388.437 326.875C393.75 325.938 395.625 321.25 392.5 316.563L370.625 283.75C367.812 279.063 360.937 276.25 355.625 277.5Z" fill="url(#paint3_linear)"/>
<path d="M360 267.188L321.25 275C315.937 275.938 314.062 280.625 317.187 285.313L339.062 318.125C342.187 322.5 348.75 325.625 354.062 324.375L392.812 316.563C398.125 315.625 400 310.938 396.875 306.25L375 273.438C372.187 268.75 365.312 265.938 360 267.188Z" fill="black"/>
<path d="M360 267.188L321.25 275C315.937 275.938 314.062 280.625 317.187 285.313L339.062 318.125C342.187 322.5 348.75 325.625 354.062 324.375L392.812 316.563C398.125 315.625 400 310.938 396.875 306.25L375 273.438C372.187 268.75 365.312 265.938 360 267.188Z" fill="url(#paint4_linear)"/>
<path d="M356.25 309.688L339.375 284.063L351.25 281.563C356.25 280.625 361.563 282.5 364.063 286.25C365.938 289.063 365.313 291.875 362.5 292.813C366.875 292.5 371.25 294.375 373.438 297.813C376.563 302.188 374.375 305.625 368.125 307.188L356.25 309.688ZM350.312 294.375L356.25 293.125C360.625 292.188 362.188 290.313 360.313 287.5C358.75 285 355.625 284.063 351.875 284.688L344.688 286.25L350.312 294.375ZM365.625 304.688C370 303.75 371.562 301.875 369.375 298.75C367.5 295.938 364.063 294.688 359.063 295.625L351.875 297.188L357.813 306.25L365.625 304.688Z" fill="white"/>
<path opacity="0.3" d="M475.313 225.625L343.75 171.25C334.375 167.5 330 156.563 333.75 147.188L388.125 15.6249C391.875 6.24993 402.812 1.87494 412.187 5.62493L543.75 60C553.125 63.75 557.5 74.6875 553.75 84.0625L499.375 215.625C495.313 225 484.688 229.375 475.313 225.625Z" fill="#BDC5D1"/>
<path d="M468.437 211.875L336.875 157.5C327.5 153.75 323.125 142.813 326.875 133.438L381.25 1.87505C385 -7.49994 395.937 -11.8749 405.312 -8.12494L536.875 46.25C546.25 50 550.625 60.9375 546.875 70.3125L492.5 201.875C488.438 211.25 477.812 215.625 468.437 211.875Z" fill="white"/>
</g>
<defs>
<linearGradient id="paint0_linear" x1="226.983" y1="75.1772" x2="201.671" y2="86.0244" gradientUnits="userSpaceOnUse">
<stop offset="0.18" stop-color="#0052CC"/>
<stop offset="1" stop-color="#2684FF"/>
</linearGradient>
<linearGradient id="paint1_linear" x1="198.936" y1="88.3525" x2="170.71" y2="99.58" gradientUnits="userSpaceOnUse">
<stop offset="0.18" stop-color="#0052CC"/>
<stop offset="1" stop-color="#2684FF"/>
</linearGradient>
<linearGradient id="paint2_linear" x1="360.016" y1="288.838" x2="337.212" y2="343.869" gradientUnits="userSpaceOnUse">
<stop stop-color="#5C24AE"/>
<stop offset="1" stop-color="#30135A"/>
</linearGradient>
<linearGradient id="paint3_linear" x1="368.037" y1="268.92" x2="341.278" y2="333.503" gradientUnits="userSpaceOnUse">
<stop stop-color="#7331D4"/>
<stop offset="1" stop-color="#461B84"/>
</linearGradient>
<linearGradient id="paint4_linear" x1="368.472" y1="268.177" x2="345.669" y2="323.209" gradientUnits="userSpaceOnUse">
<stop stop-color="#905BDD"/>
<stop offset="1" stop-color="#5521A0"/>
</linearGradient>
<clipPath id="clip0">
<rect width="400" height="393.75" fill="white"/>
</clipPath>
</defs>
</svg>
