<svg width="333" height="214" viewBox="0 0 333 214" fill="none" xmlns="http://www.w3.org/2000/svg">
<g clip-path="url(#clip0)">
<path d="M213.4 23.3C207.6 15.8 198.8 11.2 189.3 10.8C144.7 8.9 66.1 5.4 28.1 3.5C15.8 2.9 5.29999 12.3 4.59999 24.6C1.79999 78.5 5.19999 140.7 4.19999 159.5C3.19999 177.1 23 184.6 39.2 186.9" stroke="#21325B" stroke-width="7" stroke-linecap="round" stroke-linejoin="round"/>
<path d="M223.2 22.7C235.4 21.9 246 31.2 246.8 43.4C250.4 97.1 247.9 159.4 249.3 178.3C250.9 199.8 220.8 206.8 204.5 207.2C158.4 208.4 112.2 207.4 66.1 204.2C57.3 203.6 47.1 202.1 42.6 194.5C40.3 190.7 40.1 186.1 39.9 181.7C38.7 157.4 34.5 102.6 31.7 67C30.4 49.2 43.7 33.8 61.5 32.5C61.7 32.5 61.8 32.5 62 32.5C106.6 29.8 185.1 25.2 223.2 22.7Z" fill="#f5ca99" stroke="#f5ca99" stroke-width="7" stroke-linecap="round" stroke-linejoin="round"/>
<path d="M39.2 167.9C68.3 155.1 78.6 134.6 95.8 128.9C112.9 123.2 127.5 151.7 134.3 162.3C138.8 149.9 143.6 137.2 152.2 127.3C160.9 117.4 174.8 110.9 187.5 114.4C195.7 116.7 202.3 122.7 208.5 128.6C220.3 139.7 235.2 153.1 248.9 161.7" stroke="#21325B" stroke-width="7" stroke-linecap="round" stroke-linejoin="round"/>
<path d="M124.6 54.5C129.8 51.1 140.1 49.2 151.3 61.4C162.5 73.6 153.1 95 130 90.5C110.5 86.7 109.8 64.2 124.6 54.5Z" stroke="#21325B" stroke-width="7" stroke-linecap="round" stroke-linejoin="round"/>
<path d="M222.6 171.5C214.4 165.3 208 150.4 209.1 136C210.1 123.7 221.7 107.3 233.8 103.7C241.4 101.4 250.3 99.6 258.2 100.1C270.2 100.8 277.7 107.7 283.4 117.9C292.1 133.6 292.6 152.4 280.3 166.5C271.8 176.1 262.7 179.4 250 180.8C243.9 181.4 230.9 177.8 222.6 171.5Z" fill="white" stroke="#21325B" stroke-width="7" stroke-linecap="round" stroke-linejoin="round"/>
<path d="M278.4 170.1C291.5 183.9 304.9 197.4 318.5 210.6Z" fill="white"/>
<path d="M278.4 170.1C291.5 183.9 304.9 197.4 318.5 210.6" stroke="#21325B" stroke-width="7" stroke-linecap="round" stroke-linejoin="round"/>
<path d="M223.7 133.1C226 125.7 231.3 119.5 238.3 116.1Z" fill="white"/>
<path d="M223.7 133.1C226 125.7 231.3 119.5 238.3 116.1" stroke="#21325B" stroke-width="7" stroke-linecap="round" stroke-linejoin="round"/>
<path d="M248.7 113.1L251.5 112.1Z" fill="white"/>
<path d="M248.7 113.1L251.5 112.1" stroke="#21325B" stroke-width="7" stroke-linecap="round" stroke-linejoin="round"/>
<path d="M275.8 73.9L283.5 55.9Z" fill="white"/>
<path d="M275.8 73.9L283.5 55.9" stroke="#21325B" stroke-width="7" stroke-linecap="round" stroke-linejoin="round"/>
<path d="M305.5 92.3L320.3 82.4Z" fill="white"/>
<path d="M305.5 92.3L320.3 82.4" stroke="#21325B" stroke-width="7" stroke-linecap="round" stroke-linejoin="round"/>
<path d="M316.2 127.1L328.8 127Z" fill="white"/>
<path d="M316.2 127.1L328.8 127" stroke="#21325B" stroke-width="7" stroke-linecap="round" stroke-linejoin="round"/>
</g>
<defs>
<clipPath id="clip0">
<rect width="332.2" height="214" fill="white"/>
</clipPath>
</defs>
</svg>
