<svg width="128" height="126" viewBox="0 0 128 126" fill="none" xmlns="http://www.w3.org/2000/svg">
<path opacity="0.5" d="M61.5 49.9C66.4 39.4 61.9 26.9 51.3 22C40.7 17.1 28.3 21.6 23.4 32.2C21.9 35.5 21.2 38.9 21.5 42.2C21.3 55 30.1 68.8 30.1 68.8L33.6 61.4L34.1 60.3C44.5 64.8 56.7 60.3 61.5 49.9Z" fill="#BDC5D1"/>
<path d="M31.2 60.3L27.7 67.7C27.7 67.7 14.9 47.6 20.5 33.5L39.5 42.4L31.2 60.3Z" fill="#F4B20C"/>
<path d="M40.1 61C51.698 61 61.1 51.598 61.1 40C61.1 28.402 51.698 19 40.1 19C28.502 19 19.1 28.402 19.1 40C19.1 51.598 28.502 61 40.1 61Z" fill="#FFC107"/>
<path d="M44.5 30.6C43.1 29.9 41.5 30.6 40.9 32.1L36.8 44.7C36.5 45.8 37.9 46.4 38.5 45.5L45.5 34.3C46.4 33 45.9 31.2 44.5 30.6Z" fill="white"/>
<path d="M36.2 49.4C36.8075 49.4 37.3 48.9074 37.3 48.2999C37.3 47.6924 36.8075 47.2 36.2 47.2C35.5925 47.2 35.1 47.6924 35.1 48.2999C35.1 48.9074 35.5925 49.4 36.2 49.4Z" fill="white"/>
<path opacity="0.5" d="M116.9 72.8C117.1 74.3 116.9 75.8 116.7 77.3" stroke="#BDC5D1" stroke-width="1.7303" stroke-miterlimit="10" stroke-linecap="round" stroke-linejoin="round"/>
<path opacity="0.5" d="M97.8 49.9C106.7 52.3 113.3 58.9 115.7 67.1" stroke="#BDC5D1" stroke-width="1.7303" stroke-miterlimit="10" stroke-linecap="round" stroke-linejoin="round"/>
<path opacity="0.3" d="M94.7 51.1C111.7 55.5 122.1 72.8 117.7 89.7C115.4 98.4 109.8 105.5 102.5 109.6L100.8 124.3L89.3 113.6C86 113.8 82.4 113.6 79 112.7C62 108.3 51.6 91 56 74.1C60.3 57.1 77.7 46.9 94.7 51.1Z" fill="#BDC5D1"/>
<path d="M99.5 43.1C116.5 47.5 126.9 64.8 122.5 81.7C120.2 90.4 114.6 97.5 107.3 101.6L105.6 116.3L94.1 105.6C90.8 105.8 87.2 105.6 83.8 104.7C66.8 100.3 56.4 83 60.8 66.1C65.1 49 82.6 38.7 99.5 43.1Z" fill="white"/>
<path opacity="0.5" d="M102.7 82C104.136 82 105.3 80.836 105.3 79.4C105.3 77.9641 104.136 76.8 102.7 76.8C101.264 76.8 100.1 77.9641 100.1 79.4C100.1 80.836 101.264 82 102.7 82Z" stroke="#377dff" stroke-width="1.7303" stroke-miterlimit="10" stroke-linecap="round" stroke-linejoin="round"/>
<path opacity="0.5" d="M91.6 76.8C93.0359 76.8 94.2 75.636 94.2 74.2C94.2 72.7641 93.0359 71.6 91.6 71.6C90.1641 71.6 89 72.7641 89 74.2C89 75.636 90.1641 76.8 91.6 76.8Z" stroke="#377dff" stroke-width="1.7303" stroke-miterlimit="10" stroke-linecap="round" stroke-linejoin="round"/>
<path d="M80.5 71.6C81.9359 71.6 83.1 70.436 83.1 69C83.1 67.5641 81.9359 66.4 80.5 66.4C79.0641 66.4 77.9 67.5641 77.9 69C77.9 70.436 79.0641 71.6 80.5 71.6Z" stroke="#377dff" stroke-width="1.7303" stroke-miterlimit="10" stroke-linecap="round" stroke-linejoin="round"/>
</svg>
