<svg width="400" height="250" viewBox="0 0 400 250" fill="none" xmlns="http://www.w3.org/2000/svg">
<rect width="400" height="250" fill="#09A5BE" fill-opacity="0.1"/>
<path d="M344.991 190.939H55.5167C54.6893 190.939 53.9801 190.205 53.9801 189.349V178.586C53.9801 177.729 54.6893 176.995 55.5167 176.995H344.872C345.7 176.995 346.409 177.729 346.409 178.586V189.349C346.527 190.205 345.818 190.939 344.991 190.939Z" stroke="url(#paint0_linear)" stroke-width="1.47751" stroke-miterlimit="10"/>
<path d="M258.704 214.178H55.5167C54.6893 214.178 53.9801 213.444 53.9801 212.588V201.824C53.9801 200.968 54.6893 200.234 55.5167 200.234H258.586C259.413 200.234 260.122 200.968 260.122 201.824V212.588C260.241 213.444 259.531 214.178 258.704 214.178Z" stroke="url(#paint1_linear)" stroke-width="1.47751" stroke-miterlimit="10"/>
<path d="M117.218 123.057L110.835 101.53H78.9205L72.5377 123.057H52.6799L83.6485 32.1798H106.343L137.312 123.057H117.218ZM106.461 85.3849C100.551 65.8152 97.2416 54.8073 96.5324 52.2387C95.8232 49.6702 95.2322 47.7132 94.9958 46.1232C93.6956 51.3826 89.9132 64.4698 83.6485 85.2626H106.461V85.3849Z" fill="#09A5BE"/>
<path d="M189.32 123.056L185.774 113.639H185.301C182.228 117.675 179.037 120.366 175.845 121.956C172.654 123.546 168.399 124.28 163.08 124.28C156.697 124.28 151.614 122.323 147.95 118.531C144.286 114.739 142.394 109.358 142.394 102.264C142.394 94.925 144.877 89.5434 149.841 85.9964C154.805 82.4493 162.252 80.6147 172.299 80.2478L183.883 79.8808V76.8231C183.883 69.8514 180.455 66.3044 173.481 66.3044C168.162 66.3044 161.898 68.0167 154.687 71.3191L148.659 58.5988C156.342 54.4402 164.853 52.361 174.309 52.361C183.292 52.361 190.148 54.4402 194.994 58.4765C199.722 62.5127 202.204 68.6283 202.204 76.9454V123.056H189.32ZM183.883 91.0111L176.791 91.2557C171.472 91.378 167.571 92.3565 164.971 94.1912C162.37 96.0258 161.07 98.7166 161.07 102.508C161.07 107.89 164.025 110.458 169.935 110.458C174.19 110.458 177.5 109.235 180.1 106.667C182.583 104.098 183.883 100.796 183.883 96.6374V91.0111Z" fill="#09A5BE"/>
<g opacity="0.6">
<path opacity="0.3" d="M345.7 124.157H320.405C319.696 124.157 319.105 123.546 319.105 122.812V96.5151C319.105 95.7812 319.696 95.1697 320.405 95.1697H345.7C346.409 95.1697 347 95.7812 347 96.5151V122.69C347 123.546 346.409 124.157 345.7 124.157Z" fill="#09A5BE"/>
<path opacity="0.6" d="M339.672 118.653H316.031C314.968 118.653 314.022 117.797 314.022 116.574V92.112C314.022 91.0112 314.849 90.0327 316.031 90.0327H339.672C340.735 90.0327 341.681 90.8889 341.681 92.112V116.574C341.563 117.797 340.735 118.653 339.672 118.653Z" fill="#09A5BE"/>
<path opacity="0.3" d="M332.58 110.336H325.842C325.369 110.336 324.896 109.847 324.896 109.358V102.386C324.896 101.897 325.369 101.408 325.842 101.408H332.58C333.052 101.408 333.525 101.897 333.525 102.386V109.358C333.643 109.847 333.171 110.336 332.58 110.336Z" fill="#09A5BE"/>
<path opacity="0.6" d="M329.743 107.401H323.005C322.533 107.401 322.06 106.912 322.06 106.422V99.4508C322.06 98.9615 322.533 98.4723 323.005 98.4723H329.743C330.216 98.4723 330.688 98.9615 330.688 99.4508V106.422C330.688 106.912 330.334 107.401 329.743 107.401Z" fill="#09A5BE"/>
</g>
<g opacity="0.4">
<path opacity="0.4" d="M277.143 123.056C285.825 123.056 292.864 115.773 292.864 106.789C292.864 97.805 285.825 90.5219 277.143 90.5219C268.461 90.5219 261.423 97.805 261.423 106.789C261.423 115.773 268.461 123.056 277.143 123.056Z" stroke="#09A5BE" stroke-width="1.47751" stroke-miterlimit="10" stroke-linecap="round" stroke-linejoin="round"/>
<path opacity="0.3" d="M278.562 115.351C282.153 115.351 285.063 112.339 285.063 108.624C285.063 104.909 282.153 101.897 278.562 101.897C274.971 101.897 272.061 104.909 272.061 108.624C272.061 112.339 274.971 115.351 278.562 115.351Z" fill="#09A5BE"/>
<path opacity="0.4" d="M275.725 111.559C279.316 111.559 282.226 108.547 282.226 104.832C282.226 101.117 279.316 98.1051 275.725 98.1051C272.134 98.1051 269.224 101.117 269.224 104.832C269.224 108.547 272.134 111.559 275.725 111.559Z" fill="#09A5BE"/>
</g>
<g opacity="0.9">
<path opacity="0.9" d="M312.367 64.2252L328.324 35.7268C328.561 35.2376 329.27 35.2376 329.624 35.7268L345.582 64.2252C345.818 64.7144 345.582 65.326 344.991 65.326H313.195C312.485 65.4483 312.131 64.7144 312.367 64.2252Z" stroke="#09A5BE" stroke-width="1.47751" stroke-miterlimit="10" stroke-linecap="round" stroke-linejoin="round"/>
<path opacity="0.3" d="M327.024 59.455L331.752 51.0156C331.87 50.771 332.343 50.771 332.461 51.0156L337.189 59.455C337.308 59.6997 337.189 60.0666 336.835 60.0666H327.261C327.024 60.0666 326.906 59.6997 327.024 59.455Z" fill="#09A5BE"/>
<path opacity="0.9" d="M321.587 59.2104L327.379 48.814C327.615 48.4471 328.088 48.4471 328.324 48.814L334.116 59.2104C334.353 59.5773 333.998 60.0666 333.643 60.0666H322.06C321.705 60.0666 321.469 59.6997 321.587 59.2104Z" fill="#09A5BE"/>
</g>
<defs>
<linearGradient id="paint0_linear" x1="52.7981" y1="183.948" x2="347.709" y2="183.948" gradientUnits="userSpaceOnUse">
<stop stop-color="#09A5BE"/>
<stop offset="1" stop-color="#09A5BE" stop-opacity="0"/>
</linearGradient>
<linearGradient id="paint1_linear" x1="52.7981" y1="207.187" x2="261.423" y2="207.187" gradientUnits="userSpaceOnUse">
<stop stop-color="#09A5BE"/>
<stop offset="1" stop-color="#09A5BE" stop-opacity="0"/>
</linearGradient>
</defs>
</svg>
