<svg width="781" height="630" viewBox="0 0 781 630" fill="none" xmlns="http://www.w3.org/2000/svg">
<g clip-path="url(#clip0)">
<path opacity="0.1" d="M521.7 215.6C516.1 214.5 510.2 215.2 504.9 217.4C498.5 220.3 491.1 220.2 484.7 217.3C477.1 214 468.5 214.1 461 217.8C458.9 218.9 456.6 219.5 454.2 219.5C444.6 219.5 436.6 209.8 434.9 197.1C436.8 195.7 438.4 193.9 439.7 191.9C445.3 182.8 454 177 463.8 177C473.6 177 482.2 182.8 487.8 191.7C491.2 197.2 497.3 200.5 503.8 200.5H504.1C511.8 200.5 518.5 206.6 521.7 215.6Z" fill="#FFC107"/>
<path opacity="0.1" d="M550.9 175.5L535.4 185.4L544.8 168.3C542.1 166.2 538.8 165 535.4 164.9H535.1C534 164.9 532.9 164.8 531.9 164.7L526.7 168L529 163.9C525.3 162.6 522 160.1 519.8 156.9L510.4 162.9L516.4 152.1C510.9 145.5 503.5 141.4 495.3 141.4C485.5 141.4 476.8 147.2 471.2 156.3C467.8 161.8 461.7 165.1 455.2 164.9H454.7C443.9 164.9 435.1 177.2 435.1 192.3C435.1 207.4 443.9 219.7 454.7 219.7C457.1 219.7 459.4 219.1 461.5 218C468.9 214.4 477.6 214.2 485.2 217.5C491.6 220.4 498.9 220.4 505.3 217.5C512.8 214.2 521.4 214.4 528.8 218C530.9 219.1 533.2 219.7 535.5 219.7C546.3 219.7 555.1 207.4 555.1 192.3C555.1 186.4 553.7 180.7 550.9 175.5Z" fill="#FFC107"/>
<g opacity="0.1">
<path opacity="0.1" d="M296.4 536.1V541.3C296.4 552 287.8 560.6 277.1 560.6C266.4 560.6 257.8 552 257.8 541.3V536.1C257.8 525.4 266.4 516.8 277.1 516.8C287.7 516.8 296.4 525.5 296.4 536.1Z" fill="#1E2022"/>
<path opacity="0.1" d="M257.8 453.8V448.7C257.8 438 266.4 429.4 277.1 429.4C287.8 429.4 296.4 438 296.4 448.7V453.8C296.4 455.7 296.1 457.6 295.6 459.4C292.5 469.6 281.8 475.4 271.6 472.3C263.4 469.8 257.8 462.3 257.8 453.8Z" fill="#1E2022"/>
<path opacity="0.1" d="M296.4 492.3V497.5C296.4 508.2 287.8 516.8 277.1 516.8C266.4 516.8 257.8 508.2 257.8 497.5V492.3C257.8 481.6 266.4 473 277.1 473C287.7 473 296.4 481.7 296.4 492.3Z" fill="#1E2022"/>
<path opacity="0.1" d="M277.1 560.6C287.7 560.6 296.4 569.3 296.4 579.9V585C296.4 595.7 287.8 604.3 277.1 604.3C266.4 604.3 257.8 595.7 257.8 585V579.9C257.8 569.2 266.4 560.6 277.1 560.6Z" fill="#1E2022"/>
<path opacity="0.1" d="M257.8 449.1V453.8C257.8 464.5 266.4 473.1 277.1 473.1C285.6 473.1 293.2 467.5 295.6 459.3L257.8 449.1Z" fill="#1E2022"/>
<path opacity="0.1" d="M257.8 492.9V497.6C257.8 508.3 266.5 516.9 277.1 516.9C285.6 516.9 293.1 511.3 295.6 503.2L257.8 492.9Z" fill="#1E2022"/>
<path opacity="0.1" d="M257.8 536.6V541.3C257.8 552 266.5 560.6 277.1 560.6C285.6 560.6 293.1 555 295.6 546.9L257.8 536.6Z" fill="#1E2022"/>
<path opacity="0.1" d="M257.8 580.3V585C257.8 595.7 266.4 604.3 277 604.3C285.5 604.3 293.1 598.7 295.5 590.5L257.8 580.3Z" fill="#1E2022"/>
<path opacity="0.1" d="M217.5 497.8L219 499C222.2 501.4 226.8 500.8 229.2 497.6C231.1 495.1 231.2 491.6 229.4 489C229 488.4 228.5 487.9 227.9 487.5L226.4 486.3C223.2 483.8 218.6 484.4 216.2 487.6C213.7 490.8 214.3 495.4 217.5 497.8Z" fill="#1E2022"/>
<path opacity="0.1" d="M239.5 496.4L241 497.6C244.2 500.1 244.8 504.6 242.3 507.8C239.8 511 235.3 511.6 232.1 509.1L230.6 507.9C227.4 505.4 226.8 500.9 229.3 497.7C231.7 494.5 236.3 493.9 239.5 496.4Z" fill="#1E2022"/>
<path opacity="0.1" d="M252.6 506.5L254.1 507.7C257.3 510.2 257.9 514.7 255.4 517.9C252.9 521.1 248.4 521.7 245.2 519.2L243.7 518C240.5 515.5 239.9 511 242.4 507.8C244.8 504.6 249.4 504 252.6 506.5Z" fill="#1E2022"/>
<path opacity="0.1" d="M265.7 516.6L267.2 517.8C270.4 520.3 271 524.8 268.5 528C266 531.2 261.5 531.8 258.3 529.3L256.7 528.1C253.5 525.6 252.9 521.1 255.4 517.9C257.9 514.7 262.4 514.1 265.7 516.6Z" fill="#1E2022"/>
<path opacity="0.1" d="M217.6 498L219 499.1C222.2 501.5 226.8 500.9 229.2 497.7C231.1 495.2 231.2 491.7 229.4 489.1L217.6 498Z" fill="#1E2022"/>
<path opacity="0.1" d="M230.7 508L232.1 509.1C235.3 511.5 239.9 510.9 242.3 507.7C244.2 505.2 244.3 501.7 242.5 499.1L230.7 508Z" fill="#1E2022"/>
<path opacity="0.1" d="M243.8 518.2L245.2 519.3C248.4 521.8 253 521.2 255.4 518C257.4 515.5 257.4 511.9 255.6 509.3L243.8 518.2Z" fill="#1E2022"/>
<path opacity="0.1" d="M224.3 258.1C212.2 257.8 202.2 267.4 202 279.5C201.8 291.6 211.3 301.6 223.4 301.8C223.7 301.8 224 301.8 224.3 301.8C212.2 301.5 202.2 311.1 202 323.2C201.8 335.3 211.3 345.3 223.4 345.5C223.7 345.5 224 345.5 224.3 345.5C212.2 345.5 202.4 355.3 202.4 367.4C202.4 379.5 212.2 389.3 224.3 389.3C212.2 389 202.2 398.6 202 410.7C201.8 422.8 211.3 432.8 223.4 433C223.7 433 224 433 224.3 433H329.8C341.9 433.3 351.9 423.7 352.1 411.6C352.3 399.5 342.8 389.5 330.7 389.3C330.4 389.3 330.1 389.3 329.8 389.3C341.9 389.3 351.7 379.5 351.7 367.4C351.7 355.3 341.9 345.5 329.8 345.5C341.9 345.8 351.9 336.2 352.1 324.1C352.3 312 342.8 302 330.7 301.8C330.4 301.8 330.1 301.8 329.8 301.8C341.9 302.1 351.9 292.5 352.1 280.4C352.3 268.3 342.8 258.3 330.7 258.1C330.4 258.1 330.1 258.1 329.8 258.1C341.9 258.1 351.7 248.3 351.7 236.2C351.7 224.1 341.9 214.3 329.8 214.3C341.9 214.6 351.9 205 352.1 192.9C352.3 180.8 342.8 170.8 330.7 170.6C330.4 170.6 330.1 170.6 329.8 170.6H325C322.2 151.8 301 137.1 275.1 137.1C249.2 137.1 228 151.7 225.2 170.6H224.2C212.1 170.3 202.1 179.9 201.9 192C201.7 204.1 211.2 214.1 223.3 214.3C223.6 214.3 223.9 214.3 224.2 214.3C212.1 214.3 202.3 224.1 202.3 236.2C202.3 248.3 212.2 258.1 224.3 258.1Z" fill="#FFC107"/>
<path opacity="0.1" d="M202.4 192.5C202.4 204.6 212.2 214.3 224.3 214.4H329.8L225 170.6H224.4C212.3 170.7 202.5 180.4 202.4 192.5Z" fill="#1E2022"/>
<path opacity="0.1" d="M351.1 236.3C351 248.4 341.3 258.1 329.2 258.2H223.7L328.6 214.4H329.2C341.3 214.5 351 224.3 351.1 236.3Z" fill="#1E2022"/>
<path opacity="0.1" d="M351.1 323.8C351.1 335.9 341.3 345.6 329.2 345.7H223.7L328.6 301.9H329.2C341.3 302 351 311.7 351.1 323.8Z" fill="#1E2022"/>
<path opacity="0.1" d="M351.1 411.3C351.1 423.4 341.3 433.1 329.2 433.2H223.7L328.6 389.4H329.2C341.3 389.5 351 399.3 351.1 411.3Z" fill="#1E2022"/>
<path opacity="0.1" d="M202.4 280C202.4 292.1 212.2 301.8 224.3 301.9H329.8L225 258.1H224.4C212.3 258.2 202.5 268 202.4 280Z" fill="#1E2022"/>
<path opacity="0.1" d="M202.4 367.5C202.5 379.6 212.2 389.3 224.3 389.4H329.8L225 345.6H224.4C212.3 345.7 202.5 355.5 202.4 367.5Z" fill="#1E2022"/>
<path opacity="0.1" d="M214.5 520.4L249.3 501.7C253.2 499.4 254.5 494.4 252.2 490.5C250 486.8 245.4 485.4 241.5 487.3C245.5 485.2 247 480.2 244.8 476.2C242.7 472.2 237.7 470.7 233.7 472.9L232.1 473.8C227.8 468.1 218.2 467 209.7 471.6C201.2 476.2 196.8 484.8 199.2 491.5L198.9 491.7C194.9 493.8 193.4 498.8 195.6 502.8C197.7 506.8 202.7 508.3 206.7 506.1C202.7 508.2 201.2 513.2 203.4 517.2C205.6 521.1 210.6 522.6 214.5 520.4Z" fill="#FFC107"/>
<path opacity="0.1" d="M195.7 502.7C197.9 506.7 202.8 508.2 206.8 506L241.5 487.3L199.2 491.5L199 491.6C195.1 493.8 193.6 498.7 195.7 502.7Z" fill="#1E2022"/>
<path opacity="0.1" d="M252.4 490.7C254.5 494.7 253 499.6 249.1 501.8L214.3 520.5L241.1 487.5L241.3 487.4C245.3 485.3 250.2 486.8 252.4 490.7Z" fill="#1E2022"/>
</g>
<g opacity="0.1">
<path opacity="0.1" d="M108.9 583.2V584.7C108.8 587.8 106.2 590.1 103.1 590C100.2 589.9 97.9 587.6 97.8 584.7V583.2C97.7 580.1 100 577.6 103.1 577.4C106.2 577.3 108.7 579.6 108.9 582.7C108.9 582.8 108.9 583 108.9 583.2Z" fill="#1E2022"/>
<path opacity="0.1" d="M97.8 559.5V558C97.9 554.9 100.5 552.6 103.6 552.7C106.5 552.8 108.8 555.1 108.9 558V559.5C108.9 560 108.8 560.6 108.7 561.1C107.8 564 104.7 565.7 101.8 564.8C99.4 564.2 97.8 562 97.8 559.5Z" fill="#1E2022"/>
<path opacity="0.1" d="M108.9 570.6V572.1C108.8 575.2 106.2 577.5 103.1 577.4C100.2 577.3 97.9 575 97.8 572.1V570.6C97.7 567.5 100 565 103.1 564.8C106.2 564.7 108.7 567 108.9 570.1C108.9 570.3 108.9 570.5 108.9 570.6Z" fill="#1E2022"/>
<path opacity="0.1" d="M103.3 590.2C106.4 590.2 108.8 592.7 108.8 595.7V597.2C108.9 600.3 106.6 602.8 103.5 603C100.4 603.1 97.9001 600.8 97.7001 597.7C97.7001 597.5 97.7001 597.4 97.7001 597.2V595.7C97.8001 592.6 100.3 590.2 103.3 590.2Z" fill="#1E2022"/>
<path opacity="0.1" d="M97.8 558.2V559.5C97.8 562.6 100.3 565 103.3 565.1C105.8 565.1 107.9 563.5 108.6 561.1L97.8 558.2Z" fill="#1E2022"/>
<path opacity="0.1" d="M97.8 570.8V572.1C97.8 575.2 100.3 577.6 103.3 577.7C105.8 577.7 107.9 576.1 108.6 573.7L97.8 570.8Z" fill="#1E2022"/>
<path opacity="0.1" d="M97.8 583.3V584.6C97.8 587.7 100.3 590.1 103.3 590.2C105.8 590.2 107.9 588.6 108.6 586.2L97.8 583.3Z" fill="#1E2022"/>
<path opacity="0.1" d="M97.8 595.8V597.1C97.8 600.2 100.3 602.6 103.3 602.7C105.8 602.7 107.9 601.1 108.6 598.7L97.8 595.8Z" fill="#1E2022"/>
<path opacity="0.1" d="M86.2 572.2L86.6 572.5C87.5 573.2 88.8 573.1 89.5 572.2C90.1 571.5 90.1 570.4 89.6 569.6C89.5 569.4 89.3 569.3 89.2 569.1L88.8001 568.8C87.9001 568.1 86.6001 568.3 85.9001 569.2C85.2001 570.1 85.3 571.5 86.2 572.2Z" fill="#1E2022"/>
<path opacity="0.1" d="M92.6 571.8L93 572.1C93.9 572.8 94.1 574.1 93.5 575C92.8 575.9 91.5 576.1 90.6 575.5C90.6 575.5 90.5 575.5 90.5 575.4L90 575.1C89.1 574.4 88.9 573.1 89.6 572.2C90.3 571.3 91.6 571.1 92.6 571.8Z" fill="#1E2022"/>
<path opacity="0.1" d="M96.3 574.7L96.7 575C97.6 575.7 97.8 577 97.1 577.9C96.4 578.8 95.1 579 94.2 578.3L93.8 578C92.9 577.3 92.8 576 93.5 575.1C94.2 574.2 95.4 574 96.3 574.7Z" fill="#1E2022"/>
<path opacity="0.1" d="M100.1 577.5L100.5 577.8C101.4 578.5 101.6 579.8 101 580.7C100.3 581.6 99.0001 581.8 98.1001 581.2C98.1001 581.2 98.0001 581.2 98.0001 581.1L97.6001 580.8C96.7001 580.1 96.6001 578.8 97.3001 577.9C97.9001 577.1 99.2001 576.9 100.1 577.5Z" fill="#1E2022"/>
<path opacity="0.1" d="M86.3 572.2L86.7 572.5C87.6 573.2 88.9 573.1 89.6 572.2C90.2 571.5 90.2 570.4 89.7 569.6L86.3 572.2Z" fill="#1E2022"/>
<path opacity="0.1" d="M90 575.1L90.4 575.4C91.3 576.1 92.6 576 93.3 575.1C93.9 574.4 93.9 573.3 93.4 572.5L90 575.1Z" fill="#1E2022"/>
<path opacity="0.1" d="M93.8 578L94.2 578.3C95.1 579 96.4 578.8 97.1 577.9C97.6 577.2 97.6 576.1 97.1 575.4L93.8 578Z" fill="#1E2022"/>
<path opacity="0.1" d="M88.2 503.5C84.7 503.5 81.9 506.3 81.9 509.8C81.9 513.3 84.7 516.1 88.2 516.1C84.7 516.2 82 519.2 82.2 522.6C82.3 525.9 85 528.5 88.2 528.6C84.7 528.6 81.9 531.4 81.9 534.9C81.9 538.4 84.7 541.2 88.2 541.2C84.7 541.2 81.9 544 81.9 547.5C81.9 551 84.7 553.8 88.2 553.8H118.5C122 553.8 124.8 551 124.8 547.5C124.8 544 122 541.2 118.5 541.2C122 541.2 124.8 538.4 124.8 534.9C124.8 531.4 122 528.6 118.5 528.6C122 528.5 124.7 525.5 124.5 522.1C124.4 518.8 121.7 516.2 118.5 516.1C122 516.1 124.8 513.3 124.8 509.8C124.8 506.3 122 503.5 118.5 503.5C122 503.5 124.8 500.7 124.8 497.2C124.8 493.7 122 490.9 118.5 490.9C122 490.9 124.8 488.1 124.8 484.6C124.8 481.1 122 478.3 118.5 478.3H117.1C116.3 472.9 110.2 468.7 102.8 468.7C95.4 468.7 89.3 472.9 88.5 478.3H88.2C84.7 478.3 81.9 481.1 81.9 484.6C81.9 488.1 84.7 490.9 88.2 490.9C84.7 490.9 81.9 493.7 81.9 497.2C81.9 500.7 84.7 503.5 88.2 503.5Z" fill="#FFC107"/>
<path opacity="0.1" d="M81.9 484.7C81.9 488.2 84.7 491 88.2 491H118.5L88.4 478.5H88.2C84.7 478.4 81.9 481.2 81.9 484.7Z" fill="#1E2022"/>
<path opacity="0.1" d="M124.5 497.2C124.5 500.7 121.7 503.5 118.2 503.5H88L118.1 491H118.3C121.7 490.9 124.5 493.7 124.5 497.2Z" fill="#1E2022"/>
<path opacity="0.1" d="M124.5 522.3C124.5 525.8 121.7 528.6 118.2 528.6H88L118.1 516.1H118.3C121.7 516.1 124.5 518.9 124.5 522.3Z" fill="#1E2022"/>
<path opacity="0.1" d="M124.5 547.4C124.5 550.9 121.7 553.7 118.2 553.7H88L118.1 541.2H118.3C121.7 541.1 124.5 543.9 124.5 547.4Z" fill="#1E2022"/>
<path opacity="0.1" d="M81.9 509.7C81.9 513.2 84.7 516 88.2 516H118.5L88.4 503.5H88.2C84.7 503.5 81.9 506.3 81.9 509.7Z" fill="#1E2022"/>
<path opacity="0.1" d="M81.9 534.8C81.9 538.3 84.7 541.1 88.2 541.1H118.5L88.4 528.6H88.2C84.7 528.6 81.9 531.4 81.9 534.8Z" fill="#1E2022"/>
<path opacity="0.1" d="M85.4 578.7L95.4 573.3C93 571.6 92.5 568.4 94.1 566C93.5 564.9 92.1 564.4 90.9 565L90.4 565.2C89.2 563.6 86.4 563.3 84 564.6C81.6 565.9 80.3 568.4 81 570.3H80.9C83.3 572 83.8 575.2 82.2 577.6C82.9 578.8 84.3 579.2 85.4 578.7Z" fill="#FFC107"/>
<path opacity="0.1" d="M80 573.6C80.6 574.8 82 575.2 83.2 574.6L93.2 569.2L81 570.3C79.8 570.9 79.4 572.3 80 573.6C80 573.5 80 573.5 80 573.6Z" fill="#1E2022"/>
<path opacity="0.1" d="M96.3 570.1C96.9 571.2 96.5 572.7 95.3 573.3L85.3 578.7L93 569.2C94.2 568.6 95.6 569 96.3 570.1C96.2 570.1 96.2 570.1 96.3 570.1Z" fill="#1E2022"/>
</g>
<g opacity="0.1">
<path opacity="0.1" d="M647 524.3V530.6C647 543.6 657.5 554.1 670.5 554.1C683.5 554.1 694 543.6 694 530.6V524.3C694 511.3 683.5 500.8 670.5 500.8C657.5 500.8 647 511.3 647 524.3Z" fill="#1E2022"/>
<path opacity="0.1" d="M694 423.9V417.6C694 404.6 683.5 394.1 670.5 394.1C657.5 394.1 647 404.6 647 417.6V423.9C647 426.2 647.3 428.5 648 430.7C651.8 443.1 665 450.1 677.4 446.3C687.2 443.3 693.9 434.2 694 423.9Z" fill="#1E2022"/>
<path opacity="0.1" d="M647 471V477.3C647 490.3 657.5 500.8 670.5 500.8C683.5 500.8 694 490.3 694 477.3V471C694 458 683.5 447.5 670.5 447.5C657.5 447.5 647 458 647 471Z" fill="#1E2022"/>
<path opacity="0.1" d="M670.5 554.1C657.5 554.1 647 564.7 647 577.6V583.9C647 596.9 657.5 607.4 670.5 607.4C683.5 607.4 694 596.9 694 583.9V577.6C694 564.7 683.5 554.2 670.5 554.1Z" fill="#1E2022"/>
<path opacity="0.1" d="M694 418.3V424C693.9 437 683.4 447.5 670.4 447.4C660.1 447.3 651.1 440.6 648 430.8L694 418.3Z" fill="#1E2022"/>
<path opacity="0.1" d="M694 471.6V477.3C693.9 490.3 683.4 500.8 670.4 500.7C660.1 500.6 651.1 493.9 648 484.1L694 471.6Z" fill="#1E2022"/>
<path opacity="0.1" d="M694 524.9V530.6C693.9 543.6 683.4 554.1 670.4 554C660.1 553.9 651.1 547.2 648 537.4L694 524.9Z" fill="#1E2022"/>
<path opacity="0.1" d="M694 578.3V584C693.9 597 683.4 607.5 670.4 607.4C660.1 607.3 651.1 600.6 648 590.8L694 578.3Z" fill="#1E2022"/>
<path opacity="0.1" d="M743.2 477.7L741.3 479.2C737.4 482.2 731.8 481.5 728.8 477.6C726.4 474.5 726.3 470.2 728.6 467C729.1 466.3 729.7 465.7 730.4 465.1L732.3 463.6C736.2 460.6 741.8 461.3 744.8 465.2C747.8 469.1 747.1 474.7 743.2 477.7Z" fill="#1E2022"/>
<path opacity="0.1" d="M716.4 475.9L714.5 477.3C710.5 480.2 709.7 485.8 712.6 489.7C715.5 493.7 721.1 494.5 725 491.6C725.1 491.5 725.3 491.4 725.4 491.3L727.3 489.9C731.2 486.9 731.9 481.3 728.9 477.4C725.8 473.6 720.2 472.9 716.4 475.9Z" fill="#1E2022"/>
<path opacity="0.1" d="M700.4 488.2L698.5 489.7C694.5 492.6 693.7 498.2 696.6 502.1C699.5 506.1 705.1 506.9 709 504C709.1 503.9 709.3 503.8 709.4 503.7L711.3 502.3C715.2 499.3 715.9 493.7 712.9 489.8C709.9 485.9 704.3 485.2 700.4 488.2Z" fill="#1E2022"/>
<path opacity="0.1" d="M684.4 500.5L682.5 501.9C678.6 504.9 677.9 510.5 680.9 514.4C683.9 518.3 689.5 519 693.4 516L695.3 514.5C699.3 511.6 700.1 506 697.2 502.1C694.3 498.1 688.7 497.3 684.8 500.2C684.7 500.3 684.6 500.4 684.4 500.5Z" fill="#1E2022"/>
<path opacity="0.1" d="M743 477.8L741.3 479.1C737.4 482.1 731.8 481.4 728.8 477.5C726.4 474.4 726.3 470.1 728.6 466.9L743 477.8Z" fill="#1E2022"/>
<path opacity="0.1" d="M727 490.1L725.3 491.4C721.4 494.3 715.8 493.5 712.9 489.6C710.6 486.5 710.5 482.3 712.7 479.2L727 490.1Z" fill="#1E2022"/>
<path opacity="0.1" d="M711.1 502.4L709.4 503.7C705.5 506.7 699.9 506 696.9 502.1C694.5 499 694.4 494.7 696.7 491.5L711.1 502.4Z" fill="#1E2022"/>
<path opacity="0.1" d="M734.8 185.5C749.5 185.5 761.5 197.4 761.5 212.2C761.5 226.9 749.6 238.9 734.8 238.9C749.5 239.2 761.2 251.4 760.9 266.1C760.6 280.4 749.1 292 734.8 292.2C749.5 292.5 761.2 304.7 760.9 319.4C760.6 333.7 749.1 345.3 734.8 345.5C749.5 345.5 761.5 357.4 761.5 372.2C761.5 386.9 749.6 398.9 734.8 398.9H606.2C591.5 398.9 579.5 387 579.5 372.2C579.5 357.5 591.4 345.5 606.2 345.5C591.5 345.8 579.3 334.1 579 319.4C578.7 304.7 590.4 292.5 605.1 292.2C605.4 292.2 605.8 292.2 606.1 292.2C591.4 292.5 579.2 280.8 578.9 266.1C578.6 251.4 590.3 239.2 605 238.9C605.3 238.9 605.7 238.9 606 238.9C591.3 238.9 579.3 227 579.3 212.2C579.3 197.5 591.2 185.5 606 185.5C591.3 185.8 579.1 174.1 578.8 159.4C578.5 144.7 590.2 132.5 604.9 132.2C605.2 132.2 605.6 132.2 605.9 132.2C591.2 132.5 579 120.8 578.7 106.1C578.4 91.4001 590.1 79.2001 604.8 78.9001C605.1 78.9001 605.5 78.9001 605.8 78.9001H611.7C615.1 56.0001 641 38.1001 672.5 38.1001C704 38.1001 729.9 56.0001 733.3 78.9001H734.5C749.2 79.2001 760.9 91.4001 760.6 106.1C760.3 120.4 748.8 132 734.5 132.2C749.2 132.5 760.9 144.7 760.6 159.4C760.7 173.7 749.2 185.2 734.8 185.5Z" fill="#FFC107"/>
<path opacity="0.1" d="M761.5 105.5C761.5 120.2 749.5 132.1 734.8 132.2H606.2L734 78.8H734.8C749.5 78.9 761.5 90.8 761.5 105.5Z" fill="#1E2022"/>
<path opacity="0.1" d="M580.3 158.8C580.3 173.5 592.3 185.4 607 185.5H735.6L607.8 132.2H607C592.3 132.2 580.4 144.1 580.3 158.8Z" fill="#1E2022"/>
<path opacity="0.1" d="M580.3 265.5C580.3 280.2 592.3 292.1 607 292.2H735.6L607.8 238.9H607C592.3 238.9 580.4 250.8 580.3 265.5Z" fill="#1E2022"/>
<path opacity="0.1" d="M580.3 372.2C580.3 386.9 592.3 398.8 607 398.9H735.6L607.8 345.6H607C592.3 345.5 580.4 357.4 580.3 372.2Z" fill="#1E2022"/>
<path opacity="0.1" d="M761.5 212.2C761.5 226.9 749.5 238.8 734.8 238.9H606.2L734 185.5H734.8C749.5 185.5 761.5 197.5 761.5 212.2Z" fill="#1E2022"/>
<path opacity="0.1" d="M761.5 318.8C761.5 333.5 749.5 345.4 734.8 345.5H606.2L734 292.2H734.8C749.5 292.2 761.5 304.1 761.5 318.8Z" fill="#1E2022"/>
<path opacity="0.1" d="M746.7 505.2L704.3 482.4C699.6 479.4 698.3 473.2 701.2 468.6C703.9 464.4 709.2 462.8 713.7 464.8C708.7 462.6 706.4 456.7 708.6 451.6C710.8 446.6 716.7 444.3 721.8 446.5C722.3 446.7 722.7 446.9 723.1 447.2L725 448.2C730.2 441.2 741.9 440 752.2 445.5C762.5 451 768 461.6 765 469.7L765.4 469.9C770.4 472.2 772.7 478.1 770.4 483.1C768.1 488.1 762.2 490.4 757.2 488.1C756.8 487.9 756.3 487.7 755.9 487.4C760.9 489.8 763 495.7 760.6 500.7C758.2 505.7 752.3 507.8 747.3 505.4C747.3 505.5 747 505.3 746.7 505.2Z" fill="#FFC107"/>
<path opacity="0.1" d="M769.7 483.6C767.1 488.4 761 490.2 756.2 487.6L713.9 464.8L765.4 469.9L765.7 470C770.5 472.6 772.3 478.7 769.7 483.6Z" fill="#1E2022"/>
<path opacity="0.1" d="M700.6 469C698 473.9 699.8 479.9 704.6 482.5L747 505.3L714.3 465.1L714 465C709.3 462.4 703.2 464.2 700.6 469Z" fill="#1E2022"/>
</g>
<path opacity="0.1" d="M392.7 629.7C455.108 629.7 505.7 622.939 505.7 614.6C505.7 606.26 455.108 599.5 392.7 599.5C330.292 599.5 279.7 606.26 279.7 614.6C279.7 622.939 330.292 629.7 392.7 629.7Z" fill="#2D1582"/>
<path d="M400.6 614.7C388.1 617.1 376.1 609 373.6 596.5C373.2 594.2 373.1 591.9 373.3 589.6C375.9 566.4 384.1 529.1 406.4 473.1C432.2 408.2 422.9 392.5 395.2 345.9C386.3 330.9 376.1 313.8 365.2 291.9C337 235.6 347.7 192.3 361.6 165.9C376.4 137.8 397.5 123.1 399.9 121.5L421.7 157.6L419.7 159.6C419.7 159.6 420.7 159.6 422.2 162.4C413.7 169.8 406.6 178.8 401.5 188.9C389.4 213.1 391 240.9 406.3 271.4C416.5 291.8 426.2 308.1 434.7 322.5C450 348.3 462.2 368.7 466.2 394.4C470.4 421 465.2 449.7 449.1 490.2C427.9 543.5 421.1 576.8 419 594.7C417.9 604.7 410.4 612.7 400.6 614.7Z" fill="#377dff"/>
<path d="M299.7 92.6L392.3 0L485.7 92.6H422.2V163.3H363.2V93L299.7 92.6Z" fill="#FFC107"/>
<path opacity="0.1" d="M594.7 614.3C627.285 614.3 653.7 610.763 653.7 606.4C653.7 602.037 627.285 598.5 594.7 598.5C562.115 598.5 535.7 602.037 535.7 606.4C535.7 610.763 562.115 614.3 594.7 614.3Z" fill="#2D1582"/>
<path d="M598.8 606.4C592.3 607.7 586 603.4 584.7 596.9C584.5 595.7 584.4 594.5 584.5 593.3C585.9 581.2 590.1 561.7 601.8 532.5C615.3 498.6 610.4 490.4 596 466.1C591.3 458.3 586 449.3 580.3 437.9C565.6 408.5 571.2 385.9 578.5 372.1C583.3 362.9 590.1 355 598.5 348.9L609.9 367.8L608.8 368.8C608.8 368.8 609.3 368.8 610.1 370.3C605.6 374.2 602 378.9 599.3 384.1C593 396.8 593.8 411.2 601.8 427.2C607.1 437.9 612.2 446.4 616.6 453.9C624.6 467.4 630.9 478 633 491.4C635.2 505.3 632.5 520.3 624.1 541.4C613 569.2 609.5 586.6 608.4 596C607.9 601.1 604 605.4 598.8 606.4Z" fill="#377dff"/>
<path d="M546.2 333.8L594.5 285.5L643.3 333.8H610.1V370.7H579.3V334L546.2 333.8Z" fill="#FFC107"/>
<path opacity="0.1" d="M190.7 614.3C223.285 614.3 249.7 610.763 249.7 606.4C249.7 602.037 223.285 598.5 190.7 598.5C158.115 598.5 131.7 602.037 131.7 606.4C131.7 610.763 158.115 614.3 190.7 614.3Z" fill="#2D1582"/>
<path d="M186.6 606.4C193.1 607.7 199.4 603.4 200.7 596.9C200.9 595.7 201 594.5 200.9 593.3C199.5 581.2 195.3 561.7 183.6 532.5C170.1 498.6 175 490.4 189.4 466.1C194.1 458.3 199.4 449.3 205.1 437.9C219.8 408.5 214.2 385.9 206.9 372.1C202.1 362.9 195.3 355 186.9 348.9L175.5 367.8L176.6 368.8C176.6 368.8 176.1 368.8 175.3 370.3C179.8 374.2 183.4 378.9 186.1 384.1C192.4 396.8 191.6 411.2 183.6 427.2C178.3 437.9 173.2 446.4 168.8 453.9C160.8 467.4 154.5 478 152.4 491.4C150.2 505.3 152.9 520.3 161.3 541.4C172.4 569.2 175.9 586.6 177 596C177.6 601.1 181.5 605.4 186.6 606.4Z" fill="#377dff"/>
<path d="M239.3 333.8L191 285.5L142.2 333.8H175.3V370.7H206.1V334L239.3 333.8Z" fill="#FFC107"/>
<path opacity="0.1" d="M392.704 292.632C403.825 289.34 412.523 285.599 412.131 284.275C411.739 282.951 402.406 284.546 391.285 287.837C380.163 291.129 371.465 294.87 371.857 296.194C372.249 297.518 381.582 295.923 392.704 292.632Z" fill="#1E2022"/>
<path opacity="0.1" d="M401.702 312.632C412.823 309.341 421.521 305.599 421.129 304.275C420.738 302.951 411.404 304.546 400.283 307.838C389.162 311.129 380.464 314.871 380.856 316.195C381.247 317.519 390.581 315.924 401.702 312.632Z" fill="#1E2022"/>
<path opacity="0.1" d="M411.703 327.632C422.824 324.34 431.522 320.599 431.13 319.275C430.739 317.951 421.405 319.546 410.284 322.837C399.163 326.129 390.465 329.87 390.857 331.194C391.249 332.518 400.582 330.923 411.703 327.632Z" fill="#1E2022"/>
<path opacity="0.1" d="M419.702 342.635C430.824 339.344 439.522 335.602 439.13 334.278C438.738 332.954 429.405 334.549 418.283 337.841C407.162 341.132 398.464 344.874 398.856 346.198C399.248 347.522 408.581 345.927 419.702 342.635Z" fill="#1E2022"/>
<path d="M771.9 608H729.4C724.5 608 720.6 604 720.6 599.2C720.6 594.3 724.5 590.4 729.4 590.4C724.5 590.6 720.5 586.8 720.3 581.9C720.1 577 723.9 573 728.8 572.8C729 572.8 729.2 572.8 729.4 572.8H731.3C732.4 565.2 741 559.3 751.4 559.3C761.8 559.3 770.4 565.2 771.5 572.8H771.9C776.8 572.6 780.8 576.4 781 581.3C781.2 586.2 777.4 590.2 772.5 590.4C772.3 590.4 772.1 590.4 771.9 590.4C776.8 590.4 780.7 594.4 780.7 599.2C780.7 604.1 776.8 608 771.9 608Z" fill="#FFC107"/>
<path opacity="0.1" d="M780.7 581.6C780.7 586.5 776.8 590.4 771.9 590.4H729.4L771.6 572.7H771.9C776.8 572.8 780.7 576.7 780.7 581.6Z" fill="#1E2022"/>
<path opacity="0.1" d="M720.9 599.3C720.9 604.2 724.9 608.1 729.7 608.1H772.2L730 590.5H729.8C724.9 590.6 720.9 594.5 720.9 599.3Z" fill="#1E2022"/>
<path d="M513.7 597.5H489.6C486.8 597.5 484.6 595.3 484.6 592.5C484.6 589.7 486.8 587.5 489.6 587.5C486.8 587.5 484.6 585.3 484.6 582.5C484.6 579.7 486.8 577.5 489.6 577.5H490.7C491.3 573.2 496.2 569.8 502.1 569.8C508 569.8 512.9 573.1 513.5 577.4H513.7C516.5 577.4 518.7 579.6 518.7 582.4C518.7 585.2 516.5 587.4 513.7 587.4C516.5 587.4 518.7 589.6 518.7 592.4C518.7 595.2 516.5 597.5 513.7 597.5Z" fill="#FFC107"/>
<path opacity="0.1" d="M518.7 582.5C518.7 585.3 516.5 587.5 513.7 587.5H489.6L513.6 577.5H513.7C516.5 577.5 518.7 579.8 518.7 582.5Z" fill="#1E2022"/>
<path opacity="0.1" d="M484.8 592.5C484.8 595.3 487 597.5 489.8 597.5H513.9L489.9 587.5H489.8C487 587.6 484.8 589.8 484.8 592.5Z" fill="#1E2022"/>
<path d="M62.2 625.9H11.2C5.40001 626.1 0.500009 621.5 0.300009 615.7C0.100009 609.9 4.70001 605 10.5 604.8C10.7 604.8 10.9 604.8 11.1 604.8C5.30001 605 0.400009 600.4 0.200009 594.6C8.0741e-06 588.8 4.60001 583.9 10.4 583.7C10.6 583.7 10.8 583.7 11 583.7H13.3C14.6 574.6 24.9 567.5 37.4 567.5C49.9 567.5 60.2 574.5 61.5 583.6H62C67.8 583.8 72.4 588.7 72.2 594.5C72 600.1 67.5 604.6 62 604.7C67.8 604.9 72.4 609.8 72.2 615.6C72.2 621.2 67.7 625.7 62.2 625.9Z" fill="#FFC107"/>
<path opacity="0.1" d="M72.7 594.2C72.7 600 68 604.7 62.1 604.8H11.1L61.7 583.6H62C68 583.6 72.7 588.3 72.7 594.2Z" fill="#1E2022"/>
<path opacity="0.1" d="M0.900024 615.4C0.900024 621.2 5.70002 625.9 11.5 625.9H62.5L11.8 604.8H11.5C5.70002 604.9 1.00002 609.6 0.900024 615.4Z" fill="#1E2022"/>
<path opacity="0.1" d="M166.7 153.1C162.7 152.3 158.6 152.8 154.9 154.4C150.4 156.4 145.3 156.4 140.8 154.4C135.5 152.1 129.4 152.2 124.2 154.7C122.7 155.5 121.1 155.9 119.4 155.9C112.7 155.9 107.1 149.1 105.9 140.2C107.2 139.2 108.4 138 109.3 136.6C113.2 130.2 119.3 126.2 126.2 126.2C133.1 126.2 139.1 130.2 143 136.5C145.4 140.3 149.6 142.7 154.2 142.6H154.4C159.8 142.5 164.4 146.8 166.7 153.1Z" fill="#FFC107"/>
<path opacity="0.1" d="M187.1 125L176.2 131.9L182.8 119.9C180.9 118.4 178.6 117.6 176.2 117.5H176C175.2 117.5 174.5 117.5 173.7 117.3L170 119.6L171.6 116.7C169 115.8 166.7 114.1 165.2 111.8L158.6 116L162.8 108.4C158.9 103.8 153.8 100.9 148 100.9C141.1 100.9 135 105 131.1 111.3C128.7 115.2 124.5 117.4 119.9 117.3H119.6C112 117.3 105.9 125.9 105.9 136.5C105.9 147.1 112 155.7 119.6 155.7C121.3 155.7 122.9 155.3 124.4 154.5C129.6 152 135.7 151.9 141 154.2C143.2 155.2 145.6 155.7 148.1 155.7C150.5 155.7 152.9 155.2 155.1 154.2C160.4 151.9 166.4 152 171.5 154.5C173 155.3 174.6 155.7 176.2 155.7C183.8 155.7 189.9 147.1 189.9 136.5C190 132.6 189.1 128.6 187.1 125Z" fill="#FFC107"/>
<path opacity="0.1" d="M23.3 263.1C27.3 262.3 31.3 262.8 35 264.4C39.5 266.4 44.6 266.4 49.1 264.4C54.4 262.1 60.5 262.2 65.7 264.7C67.2 265.5 68.8 265.9 70.5 265.9C77.2 265.9 82.8 259.1 84 250.2C82.7 249.2 81.5 248 80.6 246.6C76.7 240.2 70.6001 236.2 63.7001 236.2C56.8001 236.2 50.8001 240.2 46.9001 246.5C44.5001 250.4 40.2001 252.7 35.7001 252.6H35.5C30.2 252.5 25.6 256.8 23.3 263.1Z" fill="#FFC107"/>
<path opacity="0.1" d="M2.9 235L13.8 241.9L7.2 229.9C9.1 228.4 11.4 227.6 13.8 227.5H14C14.8 227.5 15.5 227.5 16.3 227.3L20 229.6L18.4 226.7C21 225.8 23.3 224.1 24.8 221.8L31.4 226L27.2 218.4C31.1 213.8 36.3 210.9 42 210.9C48.9 210.9 54.9 215 58.9 221.3C61.3 225.2 65.5 227.4 70.1 227.3H70.5C78.1 227.3 84.2 235.9 84.2 246.5C84.2 257.1 78.1 265.7 70.5 265.7C68.8 265.7 67.2 265.3 65.7 264.5C60.5 262 54.4 261.9 49.1 264.2C46.9 265.2 44.5 265.7 42 265.7C39.6 265.7 37.2 265.2 35 264.2C29.7 261.9 23.7 262 18.6 264.5C17.1 265.3 15.5 265.7 13.9 265.7C6.3 265.7 0.200002 257.1 0.200002 246.5C2.38977e-06 242.6 0.900002 238.6 2.9 235Z" fill="#FFC107"/>
</g>
<defs>
<clipPath id="clip0">
<rect width="781" height="630" fill="white"/>
</clipPath>
</defs>
</svg>
