<svg width="400" height="250" viewBox="0 0 400 250" fill="none" xmlns="http://www.w3.org/2000/svg">
<rect width="400" height="250" fill="#F5CA99" fill-opacity="0.1"/>
<g opacity="0.4">
<path opacity="0.4" d="M322.943 220H101.475C98.5445 220 96.2249 217.838 96.2249 215.167V56.4524C96.2249 53.7817 98.5445 51.6198 101.475 51.6198H322.943C325.873 51.6198 328.193 53.7817 328.193 56.4524V215.04C328.193 217.965 325.873 220 322.943 220Z" fill="#F5CA99" fill-opacity="0.4"/>
<g opacity="0.4">
<path opacity="0.4" d="M323.187 51.7469H101.353C98.5445 51.7469 96.2249 53.7818 96.2249 56.3253V61.4123H328.193V56.3253C328.193 53.7818 325.995 51.7469 323.187 51.7469Z" fill="white"/>
<path opacity="0.4" d="M105.382 58.1057C106.191 58.1057 106.847 57.4224 106.847 56.5796C106.847 55.7368 106.191 55.0535 105.382 55.0535C104.572 55.0535 103.917 55.7368 103.917 56.5796C103.917 57.4224 104.572 58.1057 105.382 58.1057Z" fill="#F5CA99"/>
<path opacity="0.4" d="M112.707 58.1057C113.516 58.1057 114.172 57.4224 114.172 56.5796C114.172 55.7368 113.516 55.0535 112.707 55.0535C111.898 55.0535 111.242 55.7368 111.242 56.5796C111.242 57.4224 111.898 58.1057 112.707 58.1057Z" fill="#F5CA99"/>
<path opacity="0.4" d="M120.032 58.1057C120.841 58.1057 121.497 57.4224 121.497 56.5796C121.497 55.7368 120.841 55.0535 120.032 55.0535C119.223 55.0535 118.567 55.7368 118.567 56.5796C118.567 57.4224 119.223 58.1057 120.032 58.1057Z" fill="#F5CA99"/>
</g>
<g opacity="0.4">
<path opacity="0.4" d="M283.386 134.538H141.275C139.566 134.538 138.223 133.139 138.223 131.359V100.837C138.223 99.0562 139.566 97.6573 141.275 97.6573H283.386C285.096 97.6573 286.439 99.0562 286.439 100.837V131.359C286.439 133.139 285.096 134.538 283.386 134.538Z" stroke="#F5CA99" stroke-width="3.81526" stroke-miterlimit="10"/>
<path opacity="0.4" d="M138.345 161.372H274.718" stroke="#F5CA99" stroke-width="3.81526" stroke-miterlimit="10" stroke-linecap="round"/>
<path opacity="0.4" d="M138.345 182.229H235.284" stroke="#F5CA99" stroke-width="3.81526" stroke-miterlimit="10" stroke-linecap="round"/>
</g>
</g>
<g opacity="0.7">
<path opacity="0.7" d="M310.734 209.826H89.2658C86.3357 209.826 84.016 207.664 84.016 204.993V46.2784C84.016 43.6077 86.3357 41.4457 89.2658 41.4457H310.734C313.664 41.4457 315.984 43.6077 315.984 46.2784V204.866C315.984 207.791 313.664 209.826 310.734 209.826Z" fill="#F5CA99" fill-opacity="0.4"/>
<g opacity="0.7">
<path opacity="0.7" d="M310.978 41.5729H89.1437C86.3357 41.5729 84.016 43.6077 84.016 46.1512V51.2382H315.984V46.1512C315.984 43.6077 313.786 41.5729 310.978 41.5729Z" fill="white"/>
<path opacity="0.7" d="M93.1727 47.9317C93.9818 47.9317 94.6378 47.2484 94.6378 46.4056C94.6378 45.5628 93.9818 44.8795 93.1727 44.8795C92.3636 44.8795 91.7076 45.5628 91.7076 46.4056C91.7076 47.2484 92.3636 47.9317 93.1727 47.9317Z" fill="#F5CA99"/>
<path opacity="0.7" d="M100.498 47.9317C101.307 47.9317 101.963 47.2484 101.963 46.4056C101.963 45.5628 101.307 44.8795 100.498 44.8795C99.6889 44.8795 99.033 45.5628 99.033 46.4056C99.033 47.2484 99.6889 47.9317 100.498 47.9317Z" fill="#F5CA99"/>
<path opacity="0.7" d="M107.823 47.9317C108.632 47.9317 109.288 47.2484 109.288 46.4056C109.288 45.5628 108.632 44.8795 107.823 44.8795C107.014 44.8795 106.358 45.5628 106.358 46.4056C106.358 47.2484 107.014 47.9317 107.823 47.9317Z" fill="#F5CA99"/>
</g>
<g opacity="0.7">
<path opacity="0.7" d="M271.178 124.364H129.067C127.357 124.364 126.014 122.965 126.014 121.185V90.6626C126.014 88.8821 127.357 87.4832 129.067 87.4832H271.178C272.887 87.4832 274.23 88.8821 274.23 90.6626V121.185C274.23 122.965 272.887 124.364 271.178 124.364Z" stroke="#F5CA99" stroke-width="3.81526" stroke-miterlimit="10"/>
<path opacity="0.7" d="M126.137 151.198H262.509" stroke="#F5CA99" stroke-width="3.81526" stroke-miterlimit="10" stroke-linecap="round"/>
<path opacity="0.7" d="M126.137 172.055H223.075" stroke="#F5CA99" stroke-width="3.81526" stroke-miterlimit="10" stroke-linecap="round"/>
</g>
</g>
<path d="M298.525 198.38H77.0569C74.1268 198.38 71.8071 196.218 71.8071 193.548V34.8326C71.8071 32.1619 74.1268 29.9999 77.0569 29.9999H298.525C301.455 29.9999 303.775 32.1619 303.775 34.8326V193.42C303.775 196.345 301.455 198.38 298.525 198.38Z" fill="#F5CA99"/>
<path d="M298.769 30H76.9348C74.1268 30 71.8071 32.0348 71.8071 34.5783V39.6653H303.775V34.5783C303.775 32.0348 301.577 30 298.769 30Z" fill="white"/>
<path d="M80.9638 36.4859C81.7729 36.4859 82.4289 35.8026 82.4289 34.9598C82.4289 34.1169 81.7729 33.4337 80.9638 33.4337C80.1548 33.4337 79.4988 34.1169 79.4988 34.9598C79.4988 35.8026 80.1548 36.4859 80.9638 36.4859Z" fill="#F5CA99"/>
<path d="M88.2892 36.4859C89.0982 36.4859 89.7542 35.8026 89.7542 34.9598C89.7542 34.1169 89.0982 33.4337 88.2892 33.4337C87.4801 33.4337 86.8241 34.1169 86.8241 34.9598C86.8241 35.8026 87.4801 36.4859 88.2892 36.4859Z" fill="#F5CA99"/>
<path d="M95.6145 36.4859C96.4236 36.4859 97.0795 35.8026 97.0795 34.9598C97.0795 34.1169 96.4236 33.4337 95.6145 33.4337C94.8054 33.4337 94.1494 34.1169 94.1494 34.9598C94.1494 35.8026 94.8054 36.4859 95.6145 36.4859Z" fill="#F5CA99"/>
<g opacity="0.8">
<path opacity="0.8" d="M258.969 112.918H116.858C115.149 112.918 113.806 111.519 113.806 109.739V79.2169C113.806 77.4364 115.149 76.0375 116.858 76.0375H258.969C260.678 76.0375 262.021 77.4364 262.021 79.2169V109.739C262.021 111.519 260.678 112.918 258.969 112.918Z" stroke="white" stroke-width="3.81526" stroke-miterlimit="10"/>
<path opacity="0.8" d="M113.928 139.752H250.3" stroke="white" stroke-width="3.81526" stroke-miterlimit="10" stroke-linecap="round"/>
<path opacity="0.8" d="M113.928 160.609H210.866" stroke="white" stroke-width="3.81526" stroke-miterlimit="10" stroke-linecap="round"/>
</g>
</svg>
