<svg width="427" height="233" viewBox="0 0 427 233" fill="none" xmlns="http://www.w3.org/2000/svg">
<g clip-path="url(#clip0)">
<path d="M293.1 33.4L557.6 275.5L273.2 355.8L3.10001 115.8L293.1 33.4Z" fill="url(#paint0_linear)"/>
<path d="M40.4 87.5C40.4 87.5 34.7 72.3 47.1 58.2L301.2 294.5C301.2 294.5 289.1 306 294.5 323.8L40.4 87.5Z" fill="url(#paint1_linear)"/>
<path d="M296 303.7L566.9 220.5" stroke="#E7EAF3" stroke-miterlimit="10"/>
<path d="M294.1 311.8L565 228.6" stroke="#E7EAF3" stroke-miterlimit="10"/>
<path d="M572.3 211.1C572.3 211.1 560.3 225.6 565.6 240.4L294.2 324.6C294.2 324.6 289.1 311.7 301.1 294.4L572.3 211.1Z" fill="white"/>
<path d="M323.7 -27.4L572.3 211.1L301.2 294.4L47.1 58.1L323.7 -27.4Z" fill="url(#paint2_linear)"/>
<path opacity="0.09" d="M347.2 -5L326.1 -25.2L140.3 32.2C143.3 34.9 147.4 37.1 152.1 38.4L320 84.3C329.6 86.9 338 84.3 338.6 78.6L347.2 -5Z" fill="#3A350C"/>
<path d="M344.7 -7.3L323.6 -27.5L137.9 29.9C140.9 32.6 145 34.8 149.7 36.1L317.6 82C327.2 84.6 335.6 82 336.2 76.3L344.7 -7.3Z" fill="url(#paint3_linear)"/>
<path d="M316.9 -6.99999L302.4 -20.9L174.8 18.5C176.8 20.3 179.7 21.9 182.9 22.8L298.1 54.3C304.7 56.1 310.5 54.3 310.9 50.4L316.9 -6.99999Z" fill="url(#paint4_linear)"/>
<path d="M185 138.1L192.4 135.8L215.4 148.2L206.8 131.3L214.2 129L237 150.2L230.7 152.1L217 139.4L224.9 153.9L219.8 155.5L200.3 144.6L214 157.3L207.7 159.2L185 138.1Z" fill="#AFF9F9"/>
<path d="M230.8 129.5C233.8 128.6 237.2 129 239.9 130.2L237.3 127.8L243.6 125.9L261.7 142.7L255.4 144.6L252.8 142.2C253.3 144 252.3 145.8 249.3 146.8C244.3 148.3 236.7 146.2 231 140.9C225.3 135.6 225.8 131 230.8 129.5ZM237.5 133.4C235.2 134.1 234.6 136.2 237.5 138.9C240.4 141.6 244.1 142.4 246.5 141.7C248.9 141 249.4 138.8 246.5 136.2C243.6 133.6 239.8 132.7 237.5 133.4Z" fill="#AFF9F9"/>
<path d="M274.8 139C269.3 140.7 263 139.3 259.2 136.1L265.4 134.2C266.8 135.3 268.9 135.7 270.7 135.2C272.3 134.7 272.5 133.8 271.7 133.1C268.8 130.4 259.7 135.8 253.1 129.6C250 126.7 250.5 123.5 255.8 121.8C261.1 120.2 266.6 121.7 270.6 124.9L264.8 126.7C263.4 125.6 261.5 125.2 259.8 125.7C258.3 126.2 258 126.9 258.9 127.7C261.8 130.4 270.8 125.1 277.7 131.3C280.8 134.2 280 137.4 274.8 139Z" fill="#AFF9F9"/>
<path d="M274.2 122.1L271.7 122.9L267.1 118.6L269.6 117.8L265.2 113.7L271.5 111.8L275.9 115.9L280 114.6L284.6 118.9L280.5 120.2L287.8 127C288.9 128 289.8 128.3 291.2 127.8L293.4 127.1L298.1 131.5L294.9 132.5C290.6 133.8 286.1 133.2 281.4 128.9L274.2 122.1Z" fill="#AFF9F9"/>
<path d="M311 127.9C305 129.7 297.1 127.8 291.4 122.4C285.7 117.1 286.3 112.4 292.4 110.6C298.4 108.8 306.1 110.7 311.6 115.9C312.1 116.4 312.6 116.9 313.1 117.4L298.9 121.8C301.5 123.9 304.2 124.5 306.3 123.8C308.1 123.3 308.3 122.2 307.8 121.2L314.5 119.2C317 122.7 316.1 126.3 311 127.9ZM295.8 118.8L303.6 116.4C301.6 114.6 298.7 114 296.6 114.7C294.7 115.3 294.2 116.9 295.8 118.8Z" fill="#AFF9F9"/>
<path d="M330.5 121.6L324.2 123.5L306.1 106.7L312.4 104.8L315.4 107.6C314.9 105.4 315.9 103.5 318.6 102.6L324.5 108.1L322.8 108.6C319.8 109.5 319 110.9 322.1 113.8L330.5 121.6Z" fill="#AFF9F9"/>
<path d="M258.6 186.8L249 189.7L251.5 193.9L244.9 195.9L231.4 171.9L238.7 169.7L270.8 188L264.2 190L258.6 186.8ZM241.2 176.5L246.4 185.2L252.7 183.3L241.2 176.5Z" fill="#AFF9F9"/>
<path d="M263.1 167.7C265.8 166.9 269.3 167.2 272.2 168.3L263.8 160.5L270.1 158.6L294.1 180.9L287.8 182.8L285.2 180.4C285.7 182.3 284.8 184.1 281.7 185C276.7 186.5 269.1 184.4 263.3 179.1C257.5 173.8 258.1 169.2 263.1 167.7ZM269.7 171.6C267.4 172.3 266.8 174.4 269.7 177.1C272.6 179.8 276.3 180.6 278.7 179.9C281.1 179.2 281.6 177 278.7 174.4C275.8 171.8 272.1 170.9 269.7 171.6Z" fill="#AFF9F9"/>
<path d="M308.1 176.9C302.1 178.7 294 176.8 288.2 171.5C282.5 166.2 283.5 161.4 289.5 159.6C295.5 157.8 303.7 159.7 309.4 165C315.1 170.3 314.1 175 308.1 176.9ZM303.3 172.4C305.5 171.7 306.2 169.7 303.1 166.9C300 164 296.5 163.3 294.3 164C292 164.7 291.5 166.6 294.6 169.5C297.7 172.4 301 173.1 303.3 172.4Z" fill="#AFF9F9"/>
<path d="M316.1 151.4C321.2 149.8 328.7 151.9 334.4 157.3C340.1 162.7 339.7 167.2 334.7 168.8C331.7 169.7 328.3 169.3 325.6 168.1L328.1 170.5L321.8 172.4L297.8 150.1L304.1 148.2L312.6 156.1C312.2 154.1 313.2 152.3 316.1 151.4ZM319.1 156.5C316.8 157.2 316.2 159.4 319.1 162C322 164.7 325.7 165.5 328 164.8C330.4 164.1 330.9 161.9 328 159.2C325.1 156.5 321.5 155.7 319.1 156.5Z" fill="#AFF9F9"/>
<path d="M356.1 162.1C350.1 163.9 342.2 162 336.5 156.6C330.8 151.3 331.4 146.6 337.5 144.8C343.5 143 351.2 144.9 356.7 150.1C357.2 150.6 357.7 151.1 358.2 151.6L344 156C346.6 158.1 349.3 158.7 351.4 158C353.2 157.5 353.4 156.4 352.9 155.4L359.6 153.4C362.1 156.9 361.2 160.6 356.1 162.1ZM341 153.1L348.8 150.7C346.8 148.9 343.9 148.3 341.8 149C339.8 149.6 339.4 151.1 341 153.1Z" fill="#AFF9F9"/>
<path d="M389.1 146.7L379.5 149.7L382 153.9L375.4 155.9L361.9 131.9L369.2 129.7L401.3 148L394.7 150L389.1 146.7ZM371.7 136.4L376.9 145.1L383.2 143.2L371.7 136.4Z" fill="#AFF9F9"/>
<path d="M380.6 125.9C378.9 124.3 379.1 122.6 381.3 121.9C383.5 121.2 386.3 122 388 123.6C389.7 125.1 389.5 126.8 387.3 127.5C385.1 128.2 382.3 127.4 380.6 125.9ZM386.1 130.2L392.4 128.3L410.5 145.1L404.2 147L386.1 130.2Z" fill="#AFF9F9"/>
<path d="M151.6 103.9L150.5 104.2L152.7 106.3L151.4 106.7L145.6 101.3L148 100.6C149.6 100.1 151.2 100.6 152.2 101.5C153 102.4 153.3 103.4 151.6 103.9ZM150.6 103.1C151.3 102.9 151.3 102.5 150.8 102C150.3 101.5 149.6 101.3 148.9 101.5L147.9 101.8L149.6 103.4L150.6 103.1Z" fill="white"/>
<path d="M160 102.7L157.4 103.5L158.1 104.7L156.7 105.1L153.3 99L154.8 98.5L163 103.2L161.6 103.6L160 102.7ZM155.3 100L156.8 102.5L158.7 101.9L155.3 100Z" fill="white"/>
<path d="M160.5 96.8C162.1 96.3 163.7 96.8 164.6 97.7C165.3 98.4 165.6 99.2 164.8 99.7L168.7 101.4L167.2 101.9L163.5 100.2L162.9 100.4L165.2 102.5L163.9 102.9L158.1 97.5L160.5 96.8ZM161.4 97.7L160.3 98L162 99.6L163.1 99.3C163.8 99.1 163.8 98.7 163.3 98.2C162.8 97.6 162.1 97.4 161.4 97.7Z" fill="white"/>
<path d="M163.7 95.8L168.5 94.3L169.4 95.2L167.7 95.7L172.6 100.2L171.3 100.6L166.4 96.1L164.7 96.6L163.7 95.8Z" fill="white"/>
<path d="M173.9 92.6L175.2 92.2L181 97.6L179.7 98L173.9 92.6Z" fill="white"/>
<path d="M176.5 91.8L177.8 91.4L183.6 96.8L182.3 97.2L176.5 91.8Z" fill="white"/>
</g>
<defs>
<linearGradient id="paint0_linear" x1="-0.0843551" y1="129.609" x2="561.506" y2="258.44" gradientUnits="userSpaceOnUse">
<stop offset="1.33195e-07" stop-color="#2D1582" stop-opacity="0"/>
<stop offset="0.0980726" stop-color="#231E73" stop-opacity="0.077677"/>
<stop offset="0.2642" stop-color="#162960" stop-opacity="0.2093"/>
<stop offset="0.3788" stop-color="#112D59" stop-opacity="0.3"/>
</linearGradient>
<linearGradient id="paint1_linear" x1="39.0621" y1="190.944" x2="301.152" y2="190.944" gradientUnits="userSpaceOnUse">
<stop stop-color="#1F6CDD"/>
<stop offset="1" stop-color="#0E39A1"/>
</linearGradient>
<linearGradient id="paint2_linear" x1="47.0842" y1="133.514" x2="572.344" y2="133.514" gradientUnits="userSpaceOnUse">
<stop stop-color="#0079DD"/>
<stop offset="1" stop-color="#0E39A1"/>
</linearGradient>
<linearGradient id="paint3_linear" x1="243.506" y1="-31.6057" x2="237.88" y2="78.675" gradientUnits="userSpaceOnUse">
<stop offset="1.33195e-07" stop-color="#377DFF"/>
<stop offset="1" stop-color="#47DDFC"/>
</linearGradient>
<linearGradient id="paint4_linear" x1="247.35" y1="-23.7122" x2="243.488" y2="51.9982" gradientUnits="userSpaceOnUse">
<stop offset="1.33195e-07" stop-color="#377DFF"/>
<stop offset="1" stop-color="#47DDFC"/>
</linearGradient>
<clipPath id="clip0">
<rect width="426.5" height="232.7" fill="white"/>
</clipPath>
</defs>
</svg>
