<svg width="400" height="395" viewBox="0 0 400 395" fill="none" xmlns="http://www.w3.org/2000/svg">
<g clip-path="url(#clip0)">
<path d="M220.903 154.839H147.613L32.7742 0H106.065L220.903 154.839Z" fill="#00C9A7"/>
<path d="M179.097 154.839H252.387L367.226 0H293.935L179.097 154.839Z" fill="#00C9A7"/>
<path d="M328.774 0L220.903 146.065" stroke="white" stroke-width="2" stroke-miterlimit="10"/>
<path d="M71.2258 0L179.097 146.065" stroke="white" stroke-width="2" stroke-miterlimit="10"/>
<path d="M208 395.097C276.27 395.097 331.613 339.753 331.613 271.484C331.613 203.214 276.27 147.871 208 147.871C139.73 147.871 84.3871 203.214 84.3871 271.484C84.3871 339.753 139.73 395.097 208 395.097Z" fill="#E7EAF3"/>
<path d="M200 377.29C268.27 377.29 323.613 321.947 323.613 253.677C323.613 185.408 268.27 130.065 200 130.065C131.73 130.065 76.3871 185.408 76.3871 253.677C76.3871 321.947 131.73 377.29 200 377.29Z" fill="#FFC107" stroke="white" stroke-width="5" stroke-miterlimit="10"/>
<path d="M200 193.29L219.613 233.032L263.484 239.484L231.742 270.452L239.226 314.065L200 293.419L160.774 314.065L168.258 270.452L136.516 239.484L180.387 233.032L200 193.29Z" fill="white"/>
</g>
<defs>
<clipPath id="clip0">
<rect width="400" height="394.581" fill="white"/>
</clipPath>
</defs>
</svg>
