<svg width="191" height="109" viewBox="0 0 191 109" fill="none" xmlns="http://www.w3.org/2000/svg">
<path d="M160 69C144.856 70.8089 118.77 77.288 135.58 88.7333C152.39 100.179 128.198 105.013 114 106" stroke="#21325B" stroke-width="5" stroke-linecap="round"/>
<path d="M84.8333 88.5C80.3635 88.875 78.082 93.0312 77.5 95.0625L88.5 98.5L84.8333 88.5Z" fill="#21325B"/>
<path d="M9.50003 34L3.50003 27.5C3.10003 13.1 17 7.16667 24 6L31.5 15.5C20.3 16.7 12.3334 28 9.50003 34Z" fill="#21325B"/>
<path d="M24 6L77.5 65L88.5 99" stroke="#21325B" stroke-width="5" stroke-linecap="round"/>
<path d="M24 6C16.5 6 4.2 11.3 3 26.5" stroke="#21325B" stroke-width="5" stroke-linecap="round"/>
<path d="M3.5 27L56 88.5L88.5 99" stroke="#21325B" stroke-width="5" stroke-linecap="round"/>
<path d="M56.5 88.5C57.8333 82.3333 63.7 70.2 76.5 67" stroke="#21325B" stroke-width="5" stroke-linecap="round"/>
<path fill-rule="evenodd" clip-rule="evenodd" d="M167.568 52.4852C162.686 48.2385 147 33.7117 147 22.3756C147 8.95024 155.8 0 169 0C182.2 0 191 11.1878 191 22.3756C191 31.8679 175.163 47.8035 170.363 52.4153C169.58 53.1676 168.386 53.1972 167.568 52.4852ZM176.333 19.3922C176.333 23.5114 173.05 26.8507 169 26.8507C164.95 26.8507 161.667 23.5114 161.667 19.3922C161.667 15.273 164.95 11.9337 169 11.9337C173.05 11.9337 176.333 15.273 176.333 19.3922Z" fill="#21325B"/>
</svg>
