<svg width="1083" height="869" viewBox="0 0 1083 869" fill="none" xmlns="http://www.w3.org/2000/svg">
<path d="M820.259 237L829.259 257L806.259 250.5C767.059 281.3 726.259 271.833 714.759 265C688.425 251.5 660.759 219.5 682.259 185.5C706.778 146.725 766.092 162.333 788.759 172C800.425 175.833 824.859 186.9 829.259 200.5C833.659 214.1 825.092 230.5 820.259 237Z" stroke="#21325B" stroke-width="5" stroke-linecap="round"/>
<path d="M720.759 189H750.259" stroke="#21325B" stroke-width="5" stroke-linecap="round"/>
<path d="M713.259 211H787.259" stroke="#21325B" stroke-width="5" stroke-linecap="round"/>
<path d="M710.759 229.5L758.259 232.5" stroke="#21325B" stroke-width="5" stroke-linecap="round"/>
<path d="M949.759 463C988.959 463.4 999.759 415.5 1030.26 417.5C1014.26 440.5 1023.59 466 1034.76 471C1029.96 513 1009.09 554.5 999.259 570C985.092 593.5 937.859 634.2 862.259 609C786.659 583.8 796.426 511.833 810.759 479C822.259 451 859.259 470.5 862.259 475C865.259 479.5 878.759 489 886.759 479C894.759 469 900.759 462.5 949.759 463Z" fill="#21325B"/>
<path d="M911.259 549C919.592 551.333 937.659 552 943.259 536" stroke="white" stroke-width="5" stroke-linecap="round"/>
<path d="M873.759 411C873.759 429.018 859.588 443.5 842.259 443.5C824.93 443.5 810.759 429.018 810.759 411C810.759 392.982 824.93 378.5 842.259 378.5C859.588 378.5 873.759 392.982 873.759 411Z" stroke="#21325B" stroke-width="5"/>
<path d="M969.759 413C969.759 430.983 955.398 445.5 937.759 445.5C920.12 445.5 905.759 430.983 905.759 413C905.759 395.017 920.12 380.5 937.759 380.5C955.398 380.5 969.759 395.017 969.759 413Z" stroke="#21325B" stroke-width="5"/>
<ellipse cx="848.759" cy="418.5" rx="6.5" ry="7.5" fill="#21325B"/>
<ellipse cx="931.759" cy="418.5" rx="6.5" ry="7.5" fill="#21325B"/>
<path d="M871.259 397C877.811 393.227 894.583 387.945 909.259 397" stroke="#21325B" stroke-width="5" stroke-linecap="round"/>
<path d="M972.259 404.5L1048.26 402" stroke="#21325B" stroke-width="5" stroke-linecap="round"/>
<path d="M1046.26 429C1047.76 433.333 1049.86 443.8 1046.26 451" stroke="#21325B" stroke-width="5" stroke-linecap="round"/>
<path d="M1033.26 412.5C1034.26 410.5 1063.14 394.063 1070.31 426.895C1074.39 445.549 1066.52 477.663 1040.76 480.5" stroke="#21325B" stroke-width="5" stroke-linecap="round"/>
<path d="M874.369 412C876.203 422.667 876.969 446.9 865.369 458.5C850.869 473 869.869 496 889.369 480" stroke="#21325B" stroke-width="5" stroke-linecap="round"/>
<path d="M823.259 477C819.426 471 814.059 455.3 823.259 440.5C834.759 422 856.259 365 857.759 339" stroke="#21325B" stroke-width="5" stroke-linecap="round"/>
<path d="M865.259 314C873.759 293 903.559 251.5 954.759 253.5C1005.96 255.5 1030.43 277.333 1036.26 288M1036.26 288C1040.93 305.167 1046.46 350.5 1031.26 394.5L1055.76 404.5C1061.59 379.5 1065.86 321.2 1036.26 288Z" stroke="#21325B" stroke-width="5" stroke-linecap="round"/>
<path d="M1030.76 396C1003.49 324.938 908.564 311.355 865.259 314.446L803.759 315.5" stroke="#21325B" stroke-width="5" stroke-linecap="round"/>
<path d="M809.259 415C784.426 419.167 729.859 416.4 728.259 370C726.259 312 822.759 299.5 859.259 338C895.759 376.5 1020.76 403.5 1037.26 399" stroke="#21325B" stroke-width="5" stroke-linecap="round"/>
<path d="M782.759 519.5C782.926 529.667 785.359 552.3 793.759 561.5" stroke="#21325B" stroke-width="5" stroke-linecap="round"/>
<path d="M851.259 396.105C853.092 391.272 859.659 381.905 871.259 383.105" stroke="#21325B" stroke-width="5" stroke-linecap="round"/>
<path d="M927.259 396.417C931.426 393.084 942.259 388.417 952.259 396.417" stroke="#21325B" stroke-width="5" stroke-linecap="round"/>
<path d="M1009.76 549L1019.76 583C1026.26 606 916.259 663.5 911.259 635L906.759 608.5" stroke="#21325B" stroke-width="5" stroke-linecap="round"/>
<path d="M328.259 658.5C350.659 648.5 361.592 668.667 364.259 680C395.459 663.6 409.592 592.833 412.759 559.5C448.359 588.7 492.592 571.667 510.259 559.5C554.547 529 543.759 496.125 516.259 475.5C500.259 463.5 494.592 451.167 491.759 442C483.926 454.167 477.259 475.5 456.259 487.5C445.84 493.454 413.759 494.071 396.759 498C306.759 518.8 313.592 613.667 328.259 658.5Z" fill="#21325B"/>
<path d="M330.759 654.5C324.426 666.333 318.059 696.5 349.259 706.5C351.926 718.5 366.059 744.9 401.259 754.5C445.259 766.5 476.759 762.5 492.259 751C507.759 739.5 528.259 708.5 530.259 679" stroke="#21325B" stroke-width="5" stroke-linecap="round"/>
<path d="M512.759 678.5L535.259 677C539.259 673.5 547.259 659.5 531.759 655.5C526.092 654.5 513.559 650.5 508.759 642.5" stroke="#21325B" stroke-width="5" stroke-linecap="round"/>
<path d="M508.759 559C511.926 562.833 517.759 573 515.759 583" stroke="#21325B" stroke-width="5" stroke-linecap="round"/>
<path d="M433.759 624C434.926 621.167 438.559 614.5 443.759 610.5" stroke="#21325B" stroke-width="5" stroke-linecap="round"/>
<ellipse cx="472.259" cy="639" rx="4" ry="6" fill="#21325B"/>
<ellipse cx="529.259" cy="613" rx="4" ry="6" fill="#21325B"/>
<path d="M486.759 642.5C486.759 659.476 475.191 672.5 461.759 672.5C448.327 672.5 436.759 659.476 436.759 642.5C436.759 625.524 448.327 612.5 461.759 612.5C475.191 612.5 486.759 625.524 486.759 642.5Z" stroke="#21325B" stroke-width="5"/>
<path d="M538.759 615C538.759 623.348 536.218 630.809 532.23 636.127C528.242 641.445 522.923 644.5 517.259 644.5C511.595 644.5 506.276 641.445 502.288 636.127C498.3 630.809 495.759 623.348 495.759 615C495.759 606.652 498.3 599.191 502.288 593.873C506.276 588.555 511.595 585.5 517.259 585.5C522.923 585.5 528.242 588.555 532.23 593.873C536.218 599.191 538.759 606.652 538.759 615Z" stroke="#21325B" stroke-width="5"/>
<path d="M483.759 627L495.759 620.5" stroke="#21325B" stroke-width="5" stroke-linecap="round"/>
<path d="M497.759 586C499.092 583.167 503.159 577.6 508.759 578" stroke="#21325B" stroke-width="5" stroke-linecap="round"/>
<path d="M392.259 644L436.259 645.5" stroke="#21325B" stroke-width="5" stroke-linecap="round"/>
<path d="M345.759 673.5C343.926 676.333 341.359 683 345.759 687" stroke="#21325B" stroke-width="5" stroke-linecap="round"/>
<path d="M455.759 696.5C451.092 697.667 442.759 704 446.759 720" stroke="#21325B" stroke-width="5" stroke-linecap="round"/>
<path d="M463.259 713C475.092 711.624 500.459 706.497 507.259 697" stroke="#21325B" stroke-width="5" stroke-linecap="round"/>
<path d="M462.259 713.5C473.426 722.667 498.059 732.4 507.259 698" stroke="#21325B" stroke-width="5" stroke-linecap="round"/>
<path d="M371.259 739C367.426 744.167 362.459 756.3 373.259 763.5C384.059 770.7 402.759 776.833 410.759 779C419.259 781.5 436.559 779.5 431.759 761.5" stroke="#21325B" stroke-width="5" stroke-linecap="round"/>
<path d="M519.259 745C526.592 741 540.659 728.3 538.259 709.5" stroke="#21325B" stroke-width="5" stroke-linecap="round"/>
<path d="M561.759 789L555.759 758.5L576.759 780C596.759 760.4 663.597 761.103 694.259 770.5C725.259 780 735.759 806.5 723.759 831.5C711.759 856.5 641.759 875.5 586.259 862C541.859 851.2 551.426 808.833 561.759 789Z" stroke="#21325B" stroke-width="5" stroke-linecap="round"/>
<path d="M596.759 800.5L619.259 795.5" stroke="#21325B" stroke-width="5" stroke-linecap="round"/>
<path d="M595.259 821.5L690.259 809.5" stroke="#21325B" stroke-width="5" stroke-linecap="round"/>
<path d="M596.259 840.987L655.689 833.985" stroke="#21325B" stroke-width="5" stroke-linecap="round"/>
<path d="M172.281 404V419.5C171.948 424.667 175.281 435.2 191.281 436C211.281 437 244.281 437.5 260.781 432C273.981 427.6 274.948 413.833 273.781 407.5" stroke="#21325B" stroke-width="5" stroke-linecap="round"/>
<path d="M169.259 405C141.259 383.5 133.259 363 124.259 342.5C114.2 340.776 108.992 338.699 105.259 336.5C102.498 334.873 98.759 331.5 97.259 328.5C86.721 307.424 93.759 296.5 100.259 291C108.648 283.902 118.359 282.7 158.759 273.5C199.159 264.3 230.592 218.333 241.259 196.5C247.259 224.9 303.092 262 330.259 277C349.059 240.2 331.426 194 320.259 175.5C268.659 95.8999 185.426 108.667 150.259 125C123.259 80 70.0924 100.167 57.759 109C32.0924 128.333 8.05903 175.7 37.259 246.5C66.459 317.3 25.0924 345.333 0.759033 350.5C29.959 408.9 123.926 411.833 169.259 405Z" fill="#21325B"/>
<path d="M335.759 362.5C334.259 368.667 329.259 381.6 321.259 384" stroke="#21325B" stroke-width="5" stroke-linecap="round"/>
<path d="M115.259 301.5C113.259 306 111.159 316.2 118.759 321" stroke="#21325B" stroke-width="5" stroke-linecap="round"/>
<path d="M328.759 276.5C326.259 312 339.759 380.5 268.259 407C242.759 415.5 189.859 417.6 162.259 398C152.092 391.333 130.259 373 124.259 345" stroke="#21325B" stroke-width="5" stroke-linecap="round"/>
<path d="M264.259 289C264.259 298 268.191 308.267 275.259 317.5C281 325 274.926 332.667 268.259 337" stroke="#21325B" stroke-width="5" stroke-linecap="round"/>
<ellipse cx="297.5" cy="285" rx="7.5" ry="9" fill="#21325B"/>
<ellipse cx="228.5" cy="292" rx="7.5" ry="9" fill="#21325B"/>
<path d="M289.259 267C291.259 262.833 297.259 255.1 305.259 257.5" stroke="#21325B" stroke-width="5" stroke-linecap="round"/>
<path d="M212.259 266.5C216.592 263.833 227.859 259.9 238.259 265.5" stroke="#21325B" stroke-width="5" stroke-linecap="round"/>
<path d="M381.763 112.804C374.763 123.804 360.263 145.804 358.263 145.804L362.263 97.8042C352.763 87.8042 340.663 59.8042 368.263 27.8042C395.863 -4.19583 452.096 1.47084 476.763 8.30417C497.096 15.9708 529.663 42.2042 497.263 85.8042C464.863 129.404 406.763 121.971 381.763 112.804Z" stroke="#21325B" stroke-width="5" stroke-linecap="round"/>
<path d="M384.259 48L413.759 43" stroke="#21325B" stroke-width="5" stroke-linecap="round"/>
<path d="M388.759 68.5L466.259 56" stroke="#21325B" stroke-width="5" stroke-linecap="round"/>
<path d="M397.259 91L439.259 85.5" stroke="#21325B" stroke-width="5" stroke-linecap="round"/>
<path d="M232.5 353.5C236 363 242.5 372 262.5 369.5" stroke="#21325B" stroke-width="5" stroke-linecap="round"/>
</svg>
