<svg width="659" height="800" viewBox="0 0 659 800" fill="none" xmlns="http://www.w3.org/2000/svg">
<path d="M292.351 413L319.351 362" stroke="#21325B" stroke-width="5" stroke-linecap="round"/>
<path d="M337.351 442.5L375.851 411.5" stroke="#21325B" stroke-width="5" stroke-linecap="round"/>
<path d="M438.351 634.854C396.751 517.654 400.184 416.021 413.351 384.354C465.351 421.354 548.184 391.687 574.351 378.354C613.551 421.554 579.684 652.687 557.851 762.854C549.451 777.254 531.351 769.854 523.351 764.354L513.351 687.854L501.851 754.854C495.451 766.054 476.518 763.854 467.851 761.354L438.351 634.854Z" fill="#21325B"/>
<path d="M437.351 573.5L224.851 440L231.351 583L320.351 640L437.351 573.5Z" stroke="#21325B" stroke-width="5" stroke-linecap="round"/>
<path d="M448.851 771.354C456.851 771.354 465.185 764.354 467.851 760.854C482.651 765.654 493.685 761.854 497.351 759.354V774.854C488.151 786.054 459.351 788.354 446.851 783.354C439.351 779.354 442.004 771.354 448.851 771.354Z" stroke="#21325B" stroke-width="5"/>
<path d="M512.351 772.354C517.551 771.554 523.518 767.354 525.851 765.354C536.651 772.554 548.018 770.354 552.351 768.354V777.354C552.351 783.354 548.351 784.854 545.851 785.854L522.351 794.354C516.351 796.187 506.351 797.854 501.851 789.854C496.798 780.87 505.851 773.354 512.351 772.354Z" stroke="#21325B" stroke-width="5"/>
<path d="M573.851 350.214C577.451 358.214 575.351 371.687 573.851 375.854C488.651 415.454 433.018 397.687 415.851 383.854C417.845 376.305 423.851 361.354 412.947 340.854M580.851 250.854L563.351 222.354C554.851 206.354 517.651 188.454 500.851 208.854C484.051 229.254 463.851 226.354 455.851 222.354C453.944 221.162 449.856 220.09 445.341 222.354M573.851 276.354C577.184 256.021 588.751 212.754 608.351 202.354C627.951 191.954 639.184 207.354 642.351 216.354C649.518 236.187 657.451 285.454 631.851 323.854C599.851 371.854 549.351 354.854 529.851 302.854M445.341 222.354C443.542 223.256 441.675 224.688 439.851 226.854C431.851 236.354 383.065 270.354 408.851 331.854C410.16 334.975 411.832 337.837 412.947 340.854M445.341 222.354C428.011 232.021 388.551 258.554 369.351 287.354C364.851 292.354 360.742 287.165 356.351 276.854C343.851 247.5 337.351 229.5 306.851 204.854C300.851 200.5 295.651 204.154 288.851 215.354C280.351 229.354 293.351 335.854 330.351 347.354C367.351 358.854 396.543 349.854 412.947 340.854" stroke="#21325B" stroke-width="5" stroke-linecap="round"/>
<path d="M608.351 201.854C605.351 194.354 600.851 177.854 601.851 167.854C602.418 162.181 601.851 156.854 606.351 155.854C612.851 154.409 612.528 163.345 615.851 167.854C616.677 168.68 617.628 170.038 618.202 171.736M615.851 181.854C619.069 178.141 619.134 174.492 618.202 171.736M618.202 171.736L619.351 152.854C619.351 150.187 621.051 144.954 627.851 145.354M628.851 163.854L627.851 140.854C627.851 139.354 628.851 136.154 632.851 135.354C637.851 134.354 637.351 141.354 637.851 143.354M637.851 143.354C638.251 144.954 638.017 152.021 637.851 155.354M637.851 143.354C640.684 141.521 646.751 140.054 648.351 148.854M648.351 148.854C648.684 151.521 648.651 157.454 645.851 159.854M648.351 148.854C651.517 147.854 657.351 149.254 655.351 162.854C652.851 179.854 643.351 193.854 634.851 203.854" stroke="#21325B" stroke-width="5" stroke-linecap="round"/>
<path d="M306.351 203.854V189.854L310.351 178.854C311.684 174.187 311.851 161.854 304.351 161.854C297.75 161.854 297.124 168.354 297.124 174.354M298.351 180.354C297.822 178.719 297.332 176.588 297.124 174.354M297.124 174.354C294.199 170.521 294.946 161.937 297.124 154.354C299.851 144.854 291.851 141.354 286.851 144.354M286.851 144.354C282.851 146.754 285.018 157.521 285.851 162.854M286.851 144.354C284.927 141.011 280.301 137.276 276.351 138.354C273.802 139.05 271.243 141.009 270.851 148.854M270.851 148.854C272.851 154.354 271.851 156.354 276.851 162.854M270.851 148.854C266.184 148.354 258.251 150.554 263.851 163.354M263.851 163.354L270.851 177.354M263.851 163.354C259.351 164.687 252.651 171.854 261.851 189.854C271.051 207.854 283.684 213.687 288.851 214.354" stroke="#21325B" stroke-width="5" stroke-linecap="round"/>
<path d="M404 249.5C358.8 193.1 375.5 149.333 389.5 134.5C395.9 182.1 433.833 201 452 204.5V221.5C446.4 217.5 417.667 238.5 404 249.5Z" fill="#21325B"/>
<path d="M601.851 179.854C583.351 204.854 564.851 207.854 556.351 210.354C523.432 192.237 506.067 201.236 501.5 208L499.5 185.5C513.5 171.1 521.333 148.5 523.5 139C528.3 141.8 533.5 139.5 535.5 138C538 135.667 542.2 127.8 539 115C535.8 102.2 527 107.333 523 111.5L500.5 118C497.7 96.4 483.234 91.5693 476.351 91.854C479.551 79.054 469.184 75.5207 463.851 74.354C458.251 84.354 449.518 89.5207 445.851 91.854C407.451 109.454 380.351 99.354 365.851 83.354C350.351 67.354 344.851 24.354 377.851 7.854C388.468 1.47199 414.832 -6.86281 435.351 10.854C481.851 -16.146 514.562 32.0028 524.351 49.854L534.851 65.854C602.051 68.254 614.184 127.854 611.851 157.354C600.931 149.237 600.635 168.972 601.851 179.854Z" fill="#21325B"/>
<path d="M499.851 118.354C499.851 133.253 489.08 144.854 476.351 144.854C463.622 144.854 452.851 133.253 452.851 118.354C452.851 103.455 463.622 91.854 476.351 91.854C489.08 91.854 499.851 103.455 499.851 118.354Z" stroke="#21325B" stroke-width="5"/>
<path d="M436.851 127.354C436.851 142.253 426.08 153.854 413.351 153.854C400.622 153.854 389.851 142.253 389.851 127.354C389.851 112.455 400.622 100.854 413.351 100.854C426.08 100.854 436.851 112.455 436.851 127.354Z" stroke="#21325B" stroke-width="5"/>
<path d="M436.995 121.738L452.707 119.97" stroke="#21325B" stroke-width="5" stroke-linecap="round"/>
<path d="M448.351 135.354C445.851 147.854 438.251 159.254 449.851 164.854M450.851 185.854C450.851 181.687 453.251 174.454 462.851 178.854" stroke="#21325B" stroke-width="5" stroke-linecap="round"/>
<circle cx="407.851" cy="145.5" r="7.5" fill="#21325B"/>
<circle cx="469.851" cy="136.5" r="7.5" fill="#21325B"/>
<path d="M530.351 119.354C531.518 121.354 533.151 126.154 530.351 129.354" stroke="#21325B" stroke-width="5" stroke-linecap="round"/>
<path d="M390.851 100C384.684 119.333 383.939 164.054 427.539 194.854C471.139 225.654 504.706 183.687 516.039 158.854L523.539 138.354C528.706 141.521 539.139 143.354 539.539 125.354C539.939 107.354 532.706 106.187 529.039 107.854C527.039 108.687 522.839 111.554 522.039 116.354" stroke="#21325B" stroke-width="5" stroke-linecap="round"/>
<path d="M500.351 117.354L525.351 110.354" stroke="#21325B" stroke-width="5" stroke-linecap="round"/>
<path d="M451.351 204.854V218.354M498.851 185.354L501.351 207.354" stroke="#21325B" stroke-width="5" stroke-linecap="round"/>
<path d="M240.851 408L216.851 296" stroke="#21325B" stroke-width="5" stroke-linecap="round"/>
<path d="M200.851 412.5L171.351 369" stroke="#21325B" stroke-width="5" stroke-linecap="round"/>
<path d="M249.351 794.5L262.492 672L435.351 576.5L395.927 714L249.351 794.5Z" stroke="#21325B" stroke-width="5" stroke-linecap="round"/>
<path d="M69.0014 679.401L47.3511 531.5L263.351 672.334L249.253 795.5L69.0014 679.401Z" stroke="#21325B" stroke-width="5" stroke-linecap="round"/>
<path d="M224.351 440.5L47.3511 530.5L174.351 613.5L231.351 582L224.351 440.5Z" stroke="#21325B" stroke-width="5" stroke-linecap="round"/>
<path d="M112.045 595.958L158.351 686L176.351 670.5C171.018 660 156.045 631.758 136.045 592.958C116.045 554.158 131.351 528 157.851 515.5L240.351 473C273.851 453.909 306.684 476.167 312.851 492.5L347.351 514L339.351 500.5L327.851 481.591C306.851 443.091 262.545 443.124 244.545 449.958C220.711 461.458 161.744 486.672 127.545 511.958C94.3511 536.5 102.045 577.124 112.045 595.958Z" fill="#21325B"/>
<ellipse cx="165.851" cy="672.5" rx="21.5" ry="25" fill="#21325B"/>
<path d="M0.351074 678L62.3511 631.5L70.3511 680.5L246.351 794.5L0.351074 678Z" fill="#21325B" fill-opacity="0.3"/>
<path d="M472.351 118.007C476.469 117.873 485.033 119.686 486.351 128" stroke="#21325B" stroke-width="5" stroke-linecap="round"/>
<path d="M399.351 125.839C402.18 123.953 409.392 121.031 415.615 124.425" stroke="#21325B" stroke-width="5" stroke-linecap="round"/>
</svg>
