<svg width="726" height="784" viewBox="0 0 726 784" fill="none" xmlns="http://www.w3.org/2000/svg">
<path d="M420.995 114.192C419.367 108.406 418.553 97.6262 428.321 100.801M428.321 100.801L439.066 122.624M428.321 100.801C427.507 94.3526 431.74 83.9368 441.997 92.3686L446.881 104.52M451.765 116.672L446.881 104.52M446.881 104.52C446.881 94.0219 449.323 76.4969 462.022 92.3686C469.836 103.776 472.767 126.493 466.906 138" stroke="#21325B" stroke-width="5" stroke-linecap="round"/>
<path d="M324 108.5C339.833 121.167 364.7 149 337.5 159C342.833 175 344 213.3 306 238.5L298.5 262.5M259.5 214.5C257.667 220.5 256.3 240 263.5 256M254.5 260.5C270.167 254.833 300 247.9 300 267.5V272.5C327 250 384.7 199.7 399.5 178.5" stroke="#21325B" stroke-width="5" stroke-linecap="round"/>
<path d="M309.5 198.5C309 201.5 310.3 207.7 319.5 208.5" stroke="#21325B" stroke-width="5" stroke-linecap="round"/>
<path d="M336.5 137C336.5 142.604 334.844 147.576 332.292 151.086C329.738 154.598 326.421 156.5 323 156.5C319.579 156.5 316.262 154.598 313.708 151.086C311.156 147.576 309.5 142.604 309.5 137C309.5 131.396 311.156 126.424 313.708 122.914C316.262 119.402 319.579 117.5 323 117.5C326.421 117.5 329.738 119.402 332.292 122.914C334.844 126.424 336.5 131.396 336.5 137Z" stroke="#21325B" stroke-width="5" stroke-linecap="round"/>
<path d="M278 152L309 142" stroke="#21325B" stroke-width="5" stroke-linecap="round"/>
<path d="M301.5 131.5C302.333 128.167 305.4 120.5 311 116.5" stroke="#21325B" stroke-width="5" stroke-linecap="round"/>
<circle cx="324.5" cy="136.5" r="3.5" fill="#21325B"/>
<path d="M254.753 260.266L138.725 396.407M138.725 396.407C137.044 401.412 135.375 413.085 149.5 427.5M138.725 396.407C147.301 395.239 169.599 395.806 190.181 407.418C215.909 421.933 243.15 447.46 310.749 469.983M310.749 469.983L288.048 486M310.749 469.983C308.899 450.129 307.42 406.317 316.298 389.9C325.177 373.483 335.468 347.69 339.504 336.845C358.337 322.497 403.269 275.381 432.326 201.705" stroke="#21325B" stroke-width="5" stroke-linecap="round"/>
<path d="M395 184C392.5 184 387.2 181.6 386 172C384.8 162.4 380.5 156.333 378.5 154.5C377.333 151.667 376.1 145.8 380.5 145C383.091 144.529 386.155 147.039 388.714 150M393 156C392.04 154.355 390.5 152.068 388.714 150M388.714 150C388.309 145.5 386.6 135.1 383 129.5C378.5 122.5 378 104.5 387.5 106.5M395 137C395.333 132.333 395 121.7 391 116.5C386 110 385 97.5 395 98.5C398.174 98.8175 400.194 101.455 401.434 105M403 122.5C403.402 117.876 403.319 110.389 401.434 105M401.434 105C404.623 103.167 411.2 102.5 412 114.5" stroke="#21325B" stroke-width="5" stroke-linecap="round"/>
<path d="M418 139.5C419.167 137.333 420.3 131.8 415.5 127C409.5 121 411 115.5 414.5 114C418 112.5 423 113.5 428 128.5C433 141.5 440.4 174.5 432 202.5" stroke="#21325B" stroke-width="5" stroke-linecap="round"/>
<path d="M222 297.5C203.333 313 156 345.7 116 352.5C106.667 356.333 90.6 367.1 101 379.5C111.4 391.9 118.333 407 120.5 413C122.167 418.5 128 425.1 138 407.5" stroke="#21325B" stroke-width="5" stroke-linecap="round"/>
<path d="M108 388C100.167 392.5 81.9 401.1 71.5 399.5C61.1 397.9 54.1667 402.167 52 404.5C50.8333 406.333 50.1 410.1 56.5 410.5C62.9 410.9 70.5 410.667 73.5 410.5M82 404.5C78.5 408.167 66.6 416.5 47 420.5C43.1667 421.167 38 425 45 429.5C51 433 67.6 429.8 76 425C69.5 428.167 57.8 436.6 63 445C64.6667 446.667 71.7 446.8 86.5 434M86.5 434L97.5 425M86.5 434C83.3333 442.167 78.5 462 91.5 451C101 441.5 99 433.4 103 431C107 428.6 116 419.333 120 415M97.5 408.5C96.3333 412.833 95.4 422.9 101 428.5" stroke="#21325B" stroke-width="5" stroke-linecap="round"/>
<path d="M165.5 399C159.167 417 129.5 454 103 500.5C85.3333 529.667 43.2 594.8 16 622C12.3333 627.167 8.90001 638.9 24.5 644.5C36.5 649.5 41.9 661.1 43.5 673.5C45.5 689 71 700.5 88 689C101.55 679.834 140.512 613.808 169.946 576.5M190 555C184.318 559.363 177.441 567.001 169.946 576.5M169.946 576.5L136.5 751M136.5 751C139.964 756.333 151.504 766.4 169.946 764M136.5 751C153.5 746.5 200.2 738 229 738" stroke="#21325B" stroke-width="5" stroke-linecap="round"/>
<path d="M218 745C224.333 743.333 237.1 734.9 237.5 714.5C237.9 694.1 246.333 659 250.5 644L291.5 464" stroke="#21325B" stroke-width="5" stroke-linecap="round"/>
<circle cx="305.5" cy="168.5" r="1.5" fill="#21325B"/>
<circle cx="311.5" cy="176.5" r="1.5" fill="#21325B"/>
<circle cx="296.5" cy="179.5" r="1.5" fill="#21325B"/>
<path d="M452 153.5C449.333 159.333 446.5 172.6 456.5 179M464.5 145C466.833 138.333 473.9 125.1 483.5 125.5C493.1 125.9 485.5 138.5 483.5 143L469.5 170.5C466.5 178 462 191.5 472.5 207C483 221 522.6 264.7 579 249.5" stroke="#21325B" stroke-width="5" stroke-linecap="round"/>
<path d="M520 454.5L559.5 466M557.5 486C561.833 471.833 567.4 436.7 555 409.5C539.5 375.5 530 332 537.5 303C543.5 279.8 565.333 276.333 575.5 277.5C591.5 279.336 619.1 298.5 617.5 350.5C615.5 415.5 600.5 471 579 514M551 472C554 482.667 565 507.4 585 521" stroke="#21325B" stroke-width="5" stroke-linecap="round"/>
<path d="M541.5 509.5C541.5 484 541.333 466 538.5 459C576.9 473.4 623.5 469.667 642 466C642.5 467.167 646.6 478.3 659 513.5C674.5 557.5 663.5 704.5 659 721C654.5 737.5 642.5 738 625 736C611 734.4 592.5 696 585 677C550 611.5 541.5 539.421 541.5 509.5Z" fill="#21325B"/>
<path d="M616 228C612.333 232.667 601 241.8 585 241" stroke="#21325B" stroke-width="5" stroke-linecap="round"/>
<path d="M654 730C647.2 735.6 634.167 737 628.5 737C632 744 629.5 750.5 620 752.5C611.743 754.238 599.5 755.167 594.5 757C586.333 759.333 572.2 766.4 581 776C589.8 785.6 629 780 647.5 776C666 770 658.167 741 654 730Z" stroke="#21325B" stroke-width="5" stroke-linecap="round"/>
<path d="M512.35 82.8C520.393 93.1458 531.174 96.5143 534.339 94.1143L550.331 84.8571C554.995 81.9429 565.023 78.1714 567.822 86.4C571.32 96.6857 570.32 102.343 578.316 105.943C584.713 108.823 585.313 116.057 584.813 119.314V130.114C584.646 133.2 585.812 138.446 591.809 134.743C597.806 131.04 598.639 125.657 598.306 123.429C598.639 119.829 601.904 113.143 612.299 115.2C622.693 117.257 621.627 128.4 619.795 133.714L613.798 147.6C611.299 152.057 608.501 162.206 617.296 167.143C626.092 172.08 629.29 177.771 629.79 180C646.181 167.246 656.276 133.2 659.274 117.771C666.071 55.6457 632 40 611 29.5C589.865 18.9327 564.5 21 550.331 25.5C537.138 1.63714 498.857 1.71429 493.86 0C490.262 8.22857 491.861 32.9143 498.857 55.0286C503.022 65.3143 504.355 72.5143 512.35 82.8Z" fill="#21325B"/>
<circle cx="575.5" cy="155.5" r="2.5" fill="#21325B"/>
<circle cx="568.5" cy="138.5" r="2.5" fill="#21325B"/>
<circle cx="559.5" cy="152.5" r="2.5" fill="#21325B"/>
<ellipse cx="532.5" cy="130" rx="3.5" ry="5" fill="#21325B"/>
<path d="M527 92.5C524.667 94.3333 520.7 99.5 523.5 105.5V127C523.833 129.333 521.9 135.2 511.5 140C501.1 144.8 507 154 513 155L520 156C520.5 178 533.1 223 579.5 227L585 241.5" stroke="#21325B" stroke-width="5" stroke-linecap="round"/>
<path d="M531 118.5C533.833 116 540.9 112.8 546.5 120" stroke="#21325B" stroke-width="5" stroke-linecap="round"/>
<path d="M536.5 182.5C541 183.833 549.6 182.6 548 167" stroke="#21325B" stroke-width="5" stroke-linecap="round"/>
<path d="M440.841 61.2633L448.687 47" stroke="#21325B" stroke-width="6" stroke-linecap="round"/>
<path d="M373 68L387 77" stroke="#21325B" stroke-width="6" stroke-linecap="round"/>
<path d="M398.402 31.7545L412.098 63.2455" stroke="#21325B" stroke-width="6" stroke-linecap="round"/>
<path d="M631 174.5C622.667 184.667 608.3 209.5 617.5 227.5" stroke="#21325B" stroke-width="6" stroke-linecap="round"/>
<path d="M609.5 123.5C609.667 127 608.7 134.2 603.5 135" stroke="#21325B" stroke-width="3" stroke-linecap="round"/>
<path d="M681.38 741.955C693.01 740.458 692.594 727.65 691.348 722.493C705.969 730.477 715.993 723.491 719.178 719C726.654 743.951 721.947 754.43 715.439 761.416C709.763 765.575 692.927 773.193 670.996 770.398C643.582 766.905 670.198 743.394 681.38 741.955Z" stroke="#21325B" stroke-width="5" stroke-linecap="round"/>
<path d="M673 420C672.786 416.79 678.711 393.433 677.269 376.535M677.269 376.535C676.465 367.112 675.437 355.355 674.148 341.035C670.548 301.035 656.314 270.369 649.648 260.035C642.848 229.635 624.481 226.369 616.148 228.535C606.948 240.135 592.314 242.369 586.148 242.035C587.748 246.435 579.814 253.535 575.648 256.535L553.5 282C541.9 288.4 536.648 302.869 536.648 308.035C516.648 365.235 517 429.333 520 454.5L596 469.5C644 475.5 684.314 456.202 698.648 446.035C693.448 419.635 682.229 388.702 677.269 376.535Z" stroke="#21325B" stroke-width="5" stroke-linecap="round"/>
<path d="M663.402 687.955C667.712 594.175 648.597 505.566 638 471C664.725 467.393 685.777 455.841 693.5 452C701.259 481.256 712.614 556.369 717.283 590.768C728.922 628.441 726.443 682.612 723.749 704.988C725.473 718.614 714.41 724.024 708.662 725.026C678.058 735.046 665.737 704.487 663.402 687.955Z" fill="#21325B"/>
<path d="M149.5 156C173.9 110.4 210.333 104.667 225.5 107.5C257 59 300.5 43 327 57.5C348.2 69.1 330.833 98.3333 319.5 111.5L308.5 95.5C300.9 110.3 279.167 104.833 268.5 101.5C277.667 120.833 292.3 170.8 261.5 216C230.7 261.2 192 262 172.5 249C154.5 236.167 125.1 201.6 149.5 156Z" fill="#21325B"/>
<path d="M11.3038 733.077C-12.5 685.5 9.56591 653.84 21.5 646C40 652 40.5 672 43.5 681.5L36.576 701.049C31.9428 709.456 34.6455 725.904 36.576 733.077C44.5789 766.306 32.5 769.5 26.5724 760.601L11.3038 733.077Z" fill="#21325B"/>
<path d="M238 777.5C175.2 785.9 162.167 761.667 163.5 747.5C174.3 743.1 204 741.5 218 740.5C214 749.7 219 748.5 222.5 751C227 754 239.5 757.667 246.5 758C278 759.5 253.333 775.333 238 777.5Z" fill="#21325B"/>
<path d="M420 112.5C428.5 126.167 441.1 159.3 431.5 206.5C432.333 216.667 447.17 250.286 458.5 265.5C476 289 512.5 315.5 535 323" stroke="#21325B" stroke-width="5" stroke-linecap="round"/>
</svg>
