<svg width="961" height="773" viewBox="0 0 961 773" fill="none" xmlns="http://www.w3.org/2000/svg">
<path d="M460 362.682C462.167 362.015 467.9 361.382 473.5 364.182" stroke="#21325B" stroke-width="5" stroke-linecap="round"/>
<ellipse cx="440" cy="381.182" rx="7" ry="7.5" fill="#21325B"/>
<ellipse cx="497" cy="391.182" rx="7" ry="7.5" fill="#21325B"/>
<path d="M423 369.182C423.5 366.015 426.6 359.982 435 361.182" stroke="#21325B" stroke-width="5" stroke-linecap="round"/>
<path d="M487 368.182C491 364.682 501 359.782 509 368.182" stroke="#21325B" stroke-width="5" stroke-linecap="round"/>
<path d="M465.5 376.682C470.167 384.349 476.7 400.782 465.5 405.182L460 407.182" stroke="#21325B" stroke-width="5" stroke-linecap="round"/>
<path d="M446.5 422.682C447.667 425.849 452.1 431.082 460.5 426.682" stroke="#21325B" stroke-width="5" stroke-linecap="round"/>
<path d="M285.5 349.182C269.1 403.182 314.667 442.349 339.5 455.182C361.9 441.582 393.833 434.682 407.5 432.682C390.5 418.682 385.333 393.015 384 381.182C375 384.182 351 372.682 362 349.182C370.8 330.382 380.333 340.015 384 347.182L408.5 358.182C408.5 335.382 424.167 327.682 432 326.682C436.8 323.482 442 313.015 444 308.182C446.4 326.982 471 340.682 483 345.182C498.6 332.782 511.167 340.015 515.5 345.182L526.5 343.682C548 336.349 586.6 311.282 569 269.682C551.4 228.082 515 235.682 499 244.682C444.2 208.282 389.167 261.515 368.5 292.682C347.667 289.015 301.9 295.182 285.5 349.182Z" fill="#21325B"/>
<path d="M408 358.682L384 346.182" stroke="#21325B" stroke-width="5" stroke-linecap="round"/>
<path d="M459.5 357.682C459.5 374.928 447.714 388.182 434 388.182C420.286 388.182 408.5 374.928 408.5 357.682C408.5 340.436 420.286 327.182 434 327.182C447.714 327.182 459.5 340.436 459.5 357.682Z" stroke="#21325B" stroke-width="5"/>
<path d="M525.5 368.682C525.5 385.928 513.714 399.182 500 399.182C486.286 399.182 474.5 385.928 474.5 368.682C474.5 351.436 486.286 338.182 500 338.182C513.714 338.182 525.5 351.436 525.5 368.682Z" stroke="#21325B" stroke-width="5"/>
<path d="M526.5 465.067C564.9 434.267 543 392.734 527 375.567C518.2 417.167 497.833 435.067 489 439.067L503 446.567L526.5 465.067Z" fill="#21325B"/>
<path d="M387 357.682C386.167 348.515 375.5 326.682 364 347.182C359 356.515 355.4 376.482 381 381.682" stroke="#21325B" stroke-width="5" stroke-linecap="round"/>
<path d="M378.5 354.182C376.167 356.182 372.7 361.382 377.5 366.182" stroke="#21325B" stroke-width="5" stroke-linecap="round"/>
<path d="M383.5 381.682C383.167 402.015 391.1 432.182 427.5 448.182C463.9 464.182 496.334 435.849 508 419.682C514.5 410.675 520.701 396.182 523.501 380.182" stroke="#21325B" stroke-width="5" stroke-linecap="round"/>
<path d="M425 448.682V463.182" stroke="#21325B" stroke-width="5" stroke-linecap="round"/>
<path d="M406 454.682C412.833 461.182 433.1 473.182 459.5 469.182" stroke="#21325B" stroke-width="5" stroke-linecap="round"/>
<path d="M455.5 696.182L444.5 612.682C486.5 569.882 554 576.182 582.5 584.682L604 627.182C612.833 642.515 637.2 679.082 664 702.682C664 707.182 646.8 712.182 578 696.182C509.2 680.182 466 719.849 453 741.682" stroke="#21325B" stroke-width="5" stroke-linecap="round"/>
<path d="M652.5 708.682L645.5 730.182L477 752.682C470.5 758.182 454.8 765.882 444 752.682C433.2 739.482 275.5 747.182 198 752.682" stroke="#21325B" stroke-width="5" stroke-linecap="round"/>
<path d="M467 741.682C437.333 712.682 349 667.182 233 717.182" stroke="#21325B" stroke-width="5" stroke-linecap="round"/>
<path d="M254.5 635.682L233 716.682" stroke="#21325B" stroke-width="5" stroke-linecap="round"/>
<path d="M233 617.682L198 752.682" stroke="#21325B" stroke-width="5" stroke-linecap="round"/>
<path d="M198 752.567L233 716.567" stroke="#21325B" stroke-width="5" stroke-linecap="round"/>
<path d="M444 610.682C429.881 590.202 380.514 555.852 296 582.286" stroke="#21325B" stroke-width="5" stroke-linecap="round"/>
<path d="M487 736.682C492.833 728.515 511.6 712.982 540 716.182" stroke="#21325B" stroke-width="5" stroke-linecap="round"/>
<path d="M604.5 624.682C609.5 600.182 604.2 537.382 543 482.182L502.5 446.682L477 433.182L472 432.182L453 436.682L451 438.682L444.5 450.682C443.5 453.182 447.8 456.082 455 453.682C464 450.682 457.5 446.682 474 446.682M464.152 447.682C457.152 450.682 447 461.482 451 468.682C451.5 469.515 453 471.082 455 470.682C455.876 470.507 457.304 468.982 459.327 467.182M477 461.182C468.879 459.558 463.079 463.843 459.327 467.182M459.327 467.182C456.718 472.849 454.6 483.482 467 480.682M467 480.682C469.833 477.182 477.5 470.682 485.5 472.682M467 480.682C465.5 483.849 464.8 490.082 474 489.682C485.5 489.182 489 472.682 502.5 499.182C513.3 520.382 514 562.015 513 580.182" stroke="#21325B" stroke-width="5" stroke-linecap="round" stroke-linejoin="round"/>
<path d="M406 434.682C373.5 439.015 296 462.782 238 533.182C180 603.582 260.5 641.849 308 652.182C322.5 653.349 351 653.282 349 643.682M334 639.182C339.667 639.182 352.4 640.482 358 645.682C360.339 647.553 365.04 649.336 366.292 642.682M346 631.182C353.167 631.015 367.3 632.782 366.5 641.182C366.449 641.724 366.379 642.223 366.292 642.682M351.5 622.182C356.828 621.792 366.797 623.044 372.448 629.682M366.292 642.682C374.926 646.282 376.362 640.182 376 636.682C375.295 633.862 374.044 631.557 372.448 629.682M338.5 527.182C335.334 529.515 328.6 537.082 327 548.682C325.4 560.282 307 566.849 298 568.682C290.667 570.682 282.4 578.382 308 593.182C312 595.182 320 600.082 334 597.682C353.5 594.339 356.4 600.682 374 616.682C377.465 619.762 382.006 626.674 372.448 629.682" stroke="#21325B" stroke-width="5" stroke-linecap="round" stroke-linejoin="round"/>
<path d="M323 556.682L310 577.682" stroke="#21325B" stroke-width="5" stroke-linecap="round" stroke-linejoin="round"/>
<path d="M3 635.682L228.5 624.682" stroke="#21325B" stroke-width="5" stroke-linecap="round" stroke-linejoin="round"/>
<path d="M603 623.567L764.221 614.067" stroke="#21325B" stroke-width="5" stroke-linecap="round"/>
<path d="M441 43.682C440.5 39.682 445.036 28.4812 458 31.182C469.5 33.5778 472 46.182 464 53.682C459.5 58.3686 453.4 66.282 455 74.682" stroke="#21325B" stroke-width="5" stroke-linecap="round"/>
<path d="M504 44.682C507.6 15.082 486.5 13.0153 475.5 15.682C456.3 -7.51801 439.5 6.01532 433.5 15.682C403.9 12.082 401.167 33.5153 403.5 44.682C382.7 61.482 394.834 79.3486 403.5 86.182C399.1 114.982 422 118.515 434 116.682C451.2 139.082 468.834 125.349 475.5 115.682C503.9 119.282 506.334 97.5153 504 86.182C527.6 68.582 513.834 51.182 504 44.682Z" stroke="#21325B" stroke-width="5"/>
<circle cx="455.617" cy="88.7857" r="4.5" transform="rotate(61.4426 455.617 88.7857)" fill="#21325B"/>
<path opacity="0.4" d="M646.028 143.387C645.649 140.381 649.088 131.965 658.918 133.994C667.639 135.794 669.534 145.266 663.468 150.902C660.056 154.423 655.43 160.37 656.644 166.682" stroke="#21325B" stroke-width="5" stroke-linecap="round"/>
<path opacity="0.4" d="M694.098 144.226C696.833 121.894 680.799 120.335 672.441 122.347C657.85 104.843 645.084 115.053 640.524 122.347C618.031 119.63 615.954 135.801 617.727 144.226C601.921 156.901 611.141 170.38 617.727 175.535C614.384 197.264 631.786 199.929 640.904 198.546C653.975 215.446 667.374 205.085 672.441 197.792C694.022 200.508 695.871 184.086 694.098 175.535C712.032 162.257 701.57 149.13 694.098 144.226Z" stroke="#21325B" stroke-width="5"/>
<circle opacity="0.4" cx="657.497" cy="177.386" r="3.40738" transform="rotate(61.4426 657.497 177.386)" fill="#21325B"/>
<path opacity="0.3" d="M213.02 172.625C212.749 170.439 215.206 164.318 222.227 165.794C228.456 167.103 229.81 173.992 225.477 178.091C223.04 180.652 219.736 184.976 220.603 189.567" stroke="#21325B" stroke-width="5" stroke-linecap="round"/>
<path opacity="0.3" d="M247.808 173.478C249.795 157.258 238.149 156.125 232.078 157.587C221.481 144.874 212.208 152.29 208.897 157.587C192.559 155.614 191.051 167.359 192.339 173.478C180.859 182.684 187.555 192.474 192.339 196.219C189.91 212 202.55 213.936 209.173 212.932C218.666 225.206 228.398 217.681 232.078 212.384C247.753 214.356 249.096 202.429 247.808 196.219C260.833 186.574 253.235 177.04 247.808 173.478Z" stroke="#21325B" stroke-width="5"/>
<circle opacity="0.3" cx="221.048" cy="197.839" r="2.47896" transform="rotate(61.4426 221.048 197.839)" fill="#21325B"/>
<path d="M166.5 772.067L229 624.567L198 752.567L297.5 749.067L347.5 747.567H397L422.5 748.567L444.5 753.567L166.5 772.067Z" fill="#21325B" fill-opacity="0.4"/>
<path d="M474 642.023C482.833 627.023 512.9 600.523 562.5 614.523" stroke="#21325B" stroke-width="5" stroke-linecap="round"/>
<path d="M484 676.204C496.833 657.038 537.7 625.704 598.5 653.704" stroke="#21325B" stroke-width="5" stroke-linecap="round"/>
<path d="M435 682.448C408.833 668.448 342 646.348 284 669.948" stroke="#21325B" stroke-width="5" stroke-linecap="round"/>
<path d="M424 635.567C415.333 630.567 393.7 622.067 376.5 628.067" stroke="#21325B" stroke-width="5" stroke-linecap="round"/>
<path d="M673.221 448.067L625.221 450.067" stroke="#21325B" stroke-width="5" stroke-linecap="round"/>
<path d="M673.721 448.067L736.721 453.567" stroke="#21325B" stroke-width="5" stroke-linecap="round"/>
<path d="M737.221 453.567L724.721 513.067" stroke="#21325B" stroke-width="5" stroke-linecap="round"/>
<path d="M724.721 513.067L672.221 522.067" stroke="#21325B" stroke-width="5" stroke-linecap="round"/>
<path d="M672.221 521.567V459.067" stroke="#21325B" stroke-width="5" stroke-linecap="round"/>
<path d="M672.221 459.567L736.721 454.067" stroke="#21325B" stroke-width="5" stroke-linecap="round"/>
<path d="M672.221 459.567L625.221 450.067" stroke="#21325B" stroke-width="5" stroke-linecap="round"/>
<path d="M624.221 450.067L627.221 497.067" stroke="#21325B" stroke-width="5" stroke-linecap="round"/>
<path d="M627.221 497.067L672.221 522.067" stroke="#21325B" stroke-width="5" stroke-linecap="round"/>
<path d="M672.721 448.067V458.567" stroke="#21325B" stroke-width="5" stroke-linecap="round"/>
<rect x="696.31" y="474.238" width="17.513" height="8.72172" rx="4.36086" transform="rotate(-3.53924 696.31 474.238)" stroke="#21325B" stroke-width="3"/>
<path d="M606.221 380.567C615.221 394.734 639.821 421.567 666.221 415.567L703.221 388.567" stroke="#21325B" stroke-width="5" stroke-linecap="round"/>
<path d="M606.221 380.567L648.221 366.567" stroke="#21325B" stroke-width="5" stroke-linecap="round"/>
<path d="M648.221 366.567C656.054 373.734 678.021 388.067 703.221 388.067" stroke="#21325B" stroke-width="5" stroke-linecap="round"/>
<path d="M629.721 387.567C633.387 386.734 641.821 384.067 646.221 380.067" stroke="#21325B" stroke-width="5" stroke-linecap="round"/>
<path d="M640.221 396.567C642.554 396.067 647.921 394.167 650.721 390.567" stroke="#21325B" stroke-width="5" stroke-linecap="round"/>
<path d="M652.721 403.067C655.554 402.567 663.021 400.267 666.221 393.067" stroke="#21325B" stroke-width="5" stroke-linecap="round"/>
<path d="M671.721 537.067L624.221 498.067L671.721 524.567L726.987 515.067H734.721L671.721 537.067Z" fill="#21325B" fill-opacity="0.3"/>
<path d="M821.285 568.067L796.785 549.067C791.985 545.345 799.118 543.516 803.285 543.067L894.785 531.567C906.285 533.067 931.685 536.867 941.285 540.067C950.885 543.267 947.952 546.4 945.285 547.567C915.285 553.067 852.385 564.967 840.785 568.567C829.185 572.167 822.952 569.734 821.285 568.067Z" stroke="#21325B" stroke-width="5" stroke-linecap="round"/>
<path d="M944.285 541.067C947.785 542.234 958.985 552.767 953.785 577.567C951.785 584.067 946.285 588.067 928.285 588.067H834.785C830.451 588.4 820.485 587.767 815.285 582.567C810.085 577.367 799.451 566.4 794.785 561.567C793.785 560.4 792.785 558.067 796.785 558.067" stroke="#21325B" stroke-width="5" stroke-linecap="round"/>
<path d="M796.785 558.067V549.567" stroke="#21325B" stroke-width="5" stroke-linecap="round"/>
<path d="M796.785 561.067L817.285 577.067C819.785 579.067 824.285 582.567 835.785 582.067C847.088 581.576 908.118 580.4 937.285 581.067C941.624 581.166 947.285 579.067 948.285 569.067C949.579 556.122 947.285 548.067 942.285 548.067" stroke="#21325B" stroke-width="5" stroke-linecap="round"/>
<path d="M797.785 566.567L778.785 568.067C776.118 568.067 770.885 569.367 771.285 574.567C771.685 579.767 771.451 582.734 771.285 583.567C770.785 586.067 773.285 588.067 776.285 590.567L800.285 611.567" stroke="#21325B" stroke-width="5" stroke-linecap="round"/>
<path d="M802.785 587.567L800.285 611.567" stroke="#21325B" stroke-width="5" stroke-linecap="round"/>
<path d="M802.785 587.567L775.785 570.067" stroke="#21325B" stroke-width="5" stroke-linecap="round"/>
<path d="M802.285 588.067L819.285 586.067" stroke="#21325B" stroke-width="5" stroke-linecap="round"/>
<path d="M800.285 611.567L941.285 614.567" stroke="#21325B" stroke-width="5" stroke-linecap="round"/>
<path d="M942.285 587.067L941.285 614.067" stroke="#21325B" stroke-width="5" stroke-linecap="round"/>
<circle cx="819.285" cy="601.067" r="3" fill="#21325B"/>
<circle cx="835.285" cy="627.067" r="3" fill="#21325B"/>
<circle cx="926.285" cy="600.067" r="3" fill="#21325B"/>
<circle cx="944.285" cy="628.067" r="3" fill="#21325B"/>
<path d="M786.285 613.567L810.785 637.067C814.285 640.567 823.285 641.567 843.285 641.567C861.793 641.567 926.951 639.734 957.285 640.067" stroke="#21325B" stroke-width="5" stroke-linecap="round"/>
<path d="M957.785 614.567L957.285 640.067" stroke="#21325B" stroke-width="5" stroke-linecap="round"/>
<path d="M957.785 614.567L942.285 607.567" stroke="#21325B" stroke-width="5" stroke-linecap="round"/>
<path d="M789.285 602.067C789.451 605.067 788.985 611.467 785.785 613.067" stroke="#21325B" stroke-width="5" stroke-linecap="round"/>
<path d="M816.285 613.067C817.618 614.567 819.285 619.067 817.785 626.067C816.613 631.533 814.785 636.567 810.785 636.067" stroke="#21325B" stroke-width="5" stroke-linecap="round"/>
<path d="M957.785 615.067L939.285 614.567" stroke="#21325B" stroke-width="5" stroke-linecap="round"/>
<path d="M799.285 626.067L777.285 638.567" stroke="#21325B" stroke-width="5" stroke-linecap="round"/>
<path d="M777.285 638.567C774.118 644.734 769.185 661.967 774.785 683.567" stroke="#21325B" stroke-width="5" stroke-linecap="round"/>
<path d="M775.285 683.567L889.785 691.067C896.618 691.234 911.885 690.067 918.285 684.067C924.685 678.067 936.785 664.9 942.285 659.067" stroke="#21325B" stroke-width="5" stroke-linecap="round"/>
<path d="M942.285 659.067L942.285 644.067" stroke="#21325B" stroke-width="5" stroke-linecap="round"/>
<path d="M941.785 643.567L912.785 670.067C911.618 671.4 907.185 673.667 898.785 672.067C890.385 670.467 826.618 654.734 795.785 647.067C789.952 645.734 780.285 646.067 779.785 658.567C779.118 664.234 780.085 675.767 789.285 676.567C798.485 677.367 861.785 680.234 892.285 681.567C900.618 682.067 916.785 683.567 933.785 668.067" stroke="#21325B" stroke-width="5" stroke-linecap="round"/>
</svg>
