<svg width="862" height="811" viewBox="0 0 862 811" fill="none" xmlns="http://www.w3.org/2000/svg">
<path d="M279.417 148.589C276.79 103.85 254.236 83.4544 243.288 78.8489C278.498 92.3488 308.759 75.7015 319.488 65.6904L326.057 84.7703C348.654 83.7176 349.486 52.7511 347.077 37.3995C343.361 13.714 312.788 -11.682 262.338 7.79271C211.889 27.2674 189.642 74.6821 184.825 95.9551C145.937 91.218 109.939 125.123 96.8011 142.668C83.2253 160.871 62.5113 210.566 88.2615 263.727C120.449 330.177 214.785 293.92 227.523 284.78C271.535 253.2 282.702 204.513 279.417 148.589Z" fill="#21325B"/>
<path d="M349.5 129.872C349.5 137.515 347.679 144.312 344.864 149.114C342.015 153.975 338.442 156.372 335 156.372C331.558 156.372 327.985 153.975 325.136 149.114C322.321 144.312 320.5 137.515 320.5 129.872C320.5 122.229 322.321 115.432 325.136 110.63C327.985 105.77 331.558 103.372 335 103.372C338.442 103.372 342.015 105.77 344.864 110.63C347.679 115.432 349.5 122.229 349.5 129.872Z" stroke="#21325B" stroke-width="5"/>
<ellipse cx="336.5" cy="130.372" rx="2.5" ry="4.5" fill="#21325B"/>
<path d="M279 144.872L321 134.872" stroke="#21325B" stroke-width="5" stroke-linecap="round"/>
<path d="M330.421 84.8721C334.998 91.447 347.697 105.415 359.843 112.487C372.266 119.719 374.881 130.897 368.997 140.101L359.843 154.566C366.382 164.648 376.712 189.939 365.728 210.453M320.614 293.955C319.742 285.846 323.098 266.603 343.498 254.505M250 299.872V266.34" stroke="#21325B" stroke-width="5" stroke-linecap="round"/>
<circle cx="302.5" cy="182.372" r="2.5" fill="#21325B"/>
<ellipse cx="297" cy="206.372" rx="3" ry="2.5" fill="#21325B"/>
<path d="M327 217.872C328.522 221.555 333.652 229.312 342 230.872" stroke="#21325B" stroke-width="5" stroke-linecap="round"/>
<ellipse cx="318" cy="199.372" rx="3" ry="2.5" fill="#21325B"/>
<path d="M369.953 282.595L379.134 279.967C382.85 278.434 389.889 277.864 388.315 287.852C386.741 297.84 358.979 299.023 357.493 287.852C356.948 283.762 357.059 277.838 358.837 272.082M379.134 254.34C367.164 256.185 361.344 263.967 358.837 272.082M358.837 272.082C353.525 269.804 347.114 264.24 350.852 256.312M362.739 244.484C356.143 248.836 352.505 252.805 350.852 256.312M350.852 256.312C344.977 253.026 339.655 242.907 365.362 228.714M381.101 230.685C371.264 230.028 350.672 226.348 347 216.886C343.327 207.424 355.088 206.373 361.427 207.03C369.515 208.344 389.364 214.521 404.053 228.714C422.415 246.455 463.73 292.452 483.404 333.848C499.143 366.966 525.811 410.728 537.178 428.469C559.694 463.514 595.543 536.232 501.11 538.861C476.846 539.536 441.433 510.211 404.709 487.608" stroke="#21325B" stroke-width="5" stroke-linecap="round"/>
<path d="M149.981 652.105C150.418 669.104 143.297 704.295 111.319 709.064C79.341 713.832 39.4556 714.141 23.5102 713.7C13.2439 714.583 -4.5363 712.508 6.4726 697.142C17.4815 681.777 35.0868 679.26 42.5133 679.922C62.3905 681.247 102.014 674.491 101.49 636.872" stroke="#21325B" stroke-width="5" stroke-linecap="round"/>
<path d="M766 659.872C772.808 658.775 790.244 651.181 797.622 634.853C806.845 614.442 825.95 605.883 832.538 613.784C837.808 620.104 835.612 624.318 835.173 625.635" stroke="#21325B" stroke-width="5" stroke-linecap="round"/>
<path d="M583.191 646.055C505.256 640.825 473.924 616.421 468 604.872C480.506 723.191 797.118 695.735 789.878 682.008C784.085 671.026 775.616 663.487 772.105 661.09C718.13 627.098 680.61 652.592 583.191 646.055Z" fill="#21325B"/>
<path d="M312.763 794.66C219.855 780.027 189.377 725.558 193.336 699.137C215.772 764.852 362.26 772.304 423.619 725.558C468.807 691.132 470.029 623.938 467.17 598.872C479.047 635.455 504.95 644.325 541.734 661.199C572.748 675.426 695.262 672.942 754.869 667.974C784.563 665.499 812.096 687.037 794.461 745.882C768.066 833.953 428.898 812.952 312.763 794.66Z" fill="#21325B"/>
<path d="M388.646 281.872C394.777 295.01 407.17 330.219 407.696 365.953L361.713 310.118C353.611 300.922 331.627 285.288 308.504 296.324L246.099 302.892C197.051 375.588 97.6412 530.831 92.386 570.244C87.1309 609.657 98.0791 631.334 104.21 637.246C115.815 648.413 145.726 664.047 172.527 637.246C177.855 631.919 182.25 626.866 185.859 622.138M200.117 580.754C197.489 592.578 200.404 603.083 185.859 622.138M185.859 622.138C180.102 660.675 189.607 740.246 273.689 750.231C357.772 760.215 409.01 739.501 424.118 727.896C441.416 713.226 474.699 667.857 469.444 603.745L441.197 513.095" stroke="#21325B" stroke-width="5" stroke-linecap="round"/>
<path d="M810.31 665.054C806.645 684.963 800.055 691.905 795.255 693.869C803.11 731.198 788.055 760.668 773 767.872C783.909 766.562 809.786 761.716 826.02 752.81C842.253 743.903 849.366 726.832 850.893 719.41C854.166 701.291 860.319 659.684 858.748 638.204C857.177 616.723 843.257 620.958 836.493 625.761C829.292 630.563 813.976 645.145 810.31 665.054Z" stroke="#21325B" stroke-width="5"/>
</svg>
