<svg width="1127" height="642" viewBox="0 0 1127 642" fill="none" xmlns="http://www.w3.org/2000/svg">
<path d="M276 70.933C282 63.333 286.167 67.7664 287.5 70.933C290.7 76.133 299.833 84.433 304 87.933C306.8 101.533 291.5 124.6 283.5 134.433C283.5 146.433 301.167 157.766 310 161.933V169.933C286.4 161.933 252.167 204.266 238 226.433C208 189.433 215.5 167.933 223.5 143.433C229.9 123.833 261.167 86.933 276 70.933Z" fill="#21325B"/>
<path d="M382.5 97.433C372.1 107.033 344.5 102.766 332 99.433C339.6 114.233 360.167 122.933 369.5 125.433C368.3 140.633 354 154.433 347 159.433V167.433C361.8 167.033 376.833 194.6 382.5 208.433C409.3 156.833 393.667 112.933 382.5 97.433Z" fill="#21325B"/>
<path d="M388.5 70.4331C397.5 44.4331 369.622 -5.58476 325 5.43302C284.5 15.433 277.167 54.4331 278.5 70.9331C279.7 64.9331 287.5 62.9331 295.5 66.9331C356.7 103.333 383 84.4331 388.5 70.4331ZM388.5 70.4331C394.333 74.5997 401.3 85.9331 382.5 97.9331C363.7 109.933 324.333 97.5997 307 89.9331C301.157 86.5997 288.476 77.3331 284.5 66.9331" stroke="#21325B" stroke-width="5" stroke-linecap="round"/>
<path d="M329 5.43304C338.149 15.6597 352.615 45.577 337.286 83.433" stroke="#21325B" stroke-width="5" stroke-linecap="round"/>
<path d="M342 4.43304C350.539 14.7707 364.04 48.1664 349.733 86.433" stroke="#21325B" stroke-width="5" stroke-linecap="round"/>
<path d="M282.5 135.933C298.167 159.6 339.1 190.833 369.5 126.433" stroke="#21325B" stroke-width="5" stroke-linecap="round"/>
<circle cx="314" cy="119.433" r="3" fill="#21325B"/>
<circle cx="346" cy="122.433" r="3" fill="#21325B"/>
<path d="M307 112.433C307.833 110.433 311.2 106.733 318 107.933" stroke="#21325B" stroke-width="5" stroke-linecap="round"/>
<path d="M339 114.433C339.167 112.933 340.3 109.933 343.5 109.933" stroke="#21325B" stroke-width="5" stroke-linecap="round"/>
<path d="M322 149.881C324.947 150.525 331.874 151.137 336 148.433" stroke="#21325B" stroke-width="5" stroke-linecap="round"/>
<path d="M330.5 115.933C329.667 118.766 329.4 125.533 335 129.933C342 135.433 333 136.433 326 135.933" stroke="#21325B" stroke-width="5" stroke-linecap="round"/>
<path d="M311 162.484V168.587C319 172.075 337.2 176.347 346 165.536V159.433" stroke="#21325B" stroke-width="5" stroke-linecap="round"/>
<path d="M310.5 169.433C293 169.933 251.4 188.733 225 259.933C221.667 269.6 221.4 291.933 247 303.933M252.5 281.933C243.667 331.266 228.1 434.033 236.5 450.433C244.9 466.833 360.667 453.933 417.5 445.433" stroke="#21325B" stroke-width="5" stroke-linecap="round"/>
<path d="M414.5 445.933C422.5 444.933 424.5 442.433 419 432.933C412.053 420.934 396 373.433 400.5 333.933M387 221.933C380.5 204.266 363.4 168.333 347 165.933" stroke="#21325B" stroke-width="5" stroke-linecap="round"/>
<path d="M268 478.484C274.8 476.484 276.167 463.266 275.5 459.433H300C299.6 466.633 297.833 485.433 297 493.933C296.516 498.872 284.5 504.033 260.5 506.433C236.5 508.833 237.5 501.433 237.5 497.933C237.5 478.433 268.667 475.1 275.5 480.933" stroke="#21325B" stroke-width="5" stroke-linecap="round"/>
<path d="M391 466.433C392.997 465.391 395.612 464.636 398.5 464.185M398.5 464.185C412.242 462.041 432.156 466.798 421 480.433C410.2 493.633 360.5 496.872 360.5 487.433L362 453.433L393 449.433C391.4 454.633 396 461.434 398.5 464.185Z" stroke="#21325B" stroke-width="5" stroke-linecap="round"/>
<path d="M280 265.933C284.8 265.533 284.667 268.433 284 269.933C282.167 274.433 275 283.333 261 282.933C247 282.533 242.833 273.433 242.5 268.933C246 245.933 265.5 237.933 267 237.933C268.5 237.933 283.5 232.933 284 237.933C284.4 241.933 278.833 242.933 276 242.933C272.167 243.6 265.252 245.933 268.852 251.933M264.5 272.433L281.5 264.933C284.167 264.266 288.8 261.833 286 257.433C283.2 253.033 272.833 259.266 268 262.933M268.852 252.178C274.686 249.111 287.6 245.171 286 254.933" stroke="#21325B" stroke-width="5" stroke-linecap="round"/>
<path d="M289.5 208.433L286.5 218.433" stroke="#21325B" stroke-width="5" stroke-linecap="round"/>
<path d="M694.5 202.872C696 204.539 702 205.833 712 203.433M710.5 203.767C712.333 205.934 719.9 207.633 727.5 202.433C735.1 197.233 734.333 191.6 733 189.433C732.774 189.013 732.44 188.576 732 188.193C734 183.202 731.613 179.273 730.17 177.933M719.528 192.933C717.519 190.766 715.2 185.833 722 183.433C725.682 182.133 728.358 179.993 730.17 177.933M733 173.433C732.618 174.503 731.703 176.189 730.17 177.933M691 178.933C693.4 172.933 702.333 166.1 706.5 163.433C713.5 159.1 729.3 151.733 736.5 156.933C739.167 158.933 741.7 163.633 730.5 166.433L723.5 167.933M709.5 177.433C710.167 181.433 709.2 190.933 700 196.933M725 167.933C728 167.1 733 167.933 733 172.933" stroke="#21325B" stroke-width="5" stroke-linecap="round"/>
<path d="M732 187.933C729.5 188.1 722.4 190.633 714 197.433" stroke="#21325B" stroke-width="5" stroke-linecap="round"/>
<path d="M700.5 168.933C702 170.1 706.6 172.233 713 171.433C721 170.433 721.5 175.933 720 178.433C718.8 180.433 713.833 179.933 711.5 179.433" stroke="#21325B" stroke-width="5" stroke-linecap="round"/>
<path d="M503 317.433C497.658 321.707 483.648 328.386 467.5 323.948M464.5 315.433C458.9 317.833 461.833 321.433 463 322.433C464.515 323.039 466.016 323.54 467.5 323.948M467.5 323.948C467.5 319.11 469 309.933 475 311.933M475 317.433C476.667 312.266 481.5 302.933 487.5 306.933M484 315.433C485 312.1 488.4 306.533 494 310.933M492 316.433C494.167 313.261 499.4 308.621 503 315.433" stroke="#21325B" stroke-width="5" stroke-linecap="round"/>
<path d="M505.5 474.933C506.333 476.433 507.1 480.933 503.5 486.933M508 489.433C499 486.6 470.5 489.433 478 509.933" stroke="#21325B" stroke-width="5" stroke-linecap="round"/>
<path d="M531.5 471.872C535.5 481.539 538.2 501.772 517 505.372C495.8 508.972 479.5 514.372 478 509.872" stroke="#21325B" stroke-width="5" stroke-linecap="round"/>
<path d="M572.5 468.433C570.333 479.6 568.7 502.333 579.5 503.933C593 505.933 626.5 509.933 635.5 500.433C644.5 490.933 620.5 478.433 605 485.433M600.5 474.433C603.667 477.433 606.5 481.933 603 490.433" stroke="#21325B" stroke-width="5" stroke-linecap="round"/>
<path d="M614.5 303.872C608.5 306.672 595.667 308.705 590 309.372L592 320.372C590.4 323.972 576.667 321.872 570 320.372C523.6 309.972 507 314.705 504.5 318.372C485 335.372 481.09 406.794 482 441.372C483 479.372 506.5 477.205 520.5 476.872C547.5 474.372 549.833 455.205 553 445.372C563 476.572 590.5 480.039 602.5 476.872C613.667 471.872 628.83 461.363 627.5 437.872C626 411.372 615.333 337.205 614.5 303.872Z" fill="#21325B"/>
<path d="M535.5 207.872C534.5 209.205 532.8 212.872 534 216.872" stroke="#21325B" stroke-width="5" stroke-linecap="round"/>
<path d="M484 213.372C491.833 194.039 508 166.872 549 162.372" stroke="#21325B" stroke-width="5" stroke-linecap="round"/>
<path d="M593.5 175.872C595.5 176.705 604.5 178.372 606 189.372" stroke="#21325B" stroke-width="5" stroke-linecap="round"/>
<path d="M684.5 177.372C692.333 177.705 704.7 184.172 691.5 207.372C678.3 230.572 633 249.372 612 255.872" stroke="#21325B" stroke-width="5" stroke-linecap="round"/>
<path d="M611.5 256.053C613.167 267.553 613.5 293.253 611.5 306.053M689 177.872C681.167 176.372 655.1 176.053 633.5 188.053C627 191.387 613.7 197.472 606.5 189.872" stroke="#21325B" stroke-width="5" stroke-linecap="round"/>
<path d="M534.758 116.114C545.396 110.301 551.566 119.844 553.321 125.342C568.041 116.024 572.24 80.4977 572.498 63.8993C591.164 76.9487 612.277 66.8113 620.5 60.1114C641.114 43.3159 634.521 27.4861 620.178 18.3603C611.832 13.0508 608.562 7.17505 606.809 2.75439C603.427 9.07223 600.977 19.8755 591.106 26.6225C586.209 29.9699 570.439 31.5214 562.223 34.1238C518.725 47.9009 525.789 94.5244 534.758 116.114Z" fill="#21325B"/>
<path d="M534.923 114.757C532.237 120.833 530.247 135.939 546.133 139.641C547.924 145.446 555.97 157.894 573.827 161.242C596.149 165.428 611.64 162.223 618.892 155.952C626.144 149.681 635.121 133.61 634.968 119.003" stroke="#21325B" stroke-width="5" stroke-linecap="round"/>
<path d="M626.897 118.533L638.002 116.946C639.856 115.142 643.305 108.238 635.467 106.962C632.619 106.713 626.254 105.32 623.575 101.742" stroke="#21325B" stroke-width="5" stroke-linecap="round"/>
<path d="M620.271 59.8723C621.7 61.6822 624.455 66.5639 624.041 71.6121" stroke="#21325B" stroke-width="5" stroke-linecap="round"/>
<path d="M584.985 95.7594C585.567 94.2398 587.469 90.6222 590.416 88.3091" stroke="#21325B" stroke-width="5" stroke-linecap="round"/>
<ellipse cx="605.474" cy="101.164" rx="2" ry="3" transform="rotate(-4.51193 605.474 101.164)" fill="#21325B"/>
<ellipse cx="632.364" cy="86.0019" rx="2" ry="3" transform="rotate(-4.51193 632.364 86.0019)" fill="#21325B"/>
<path d="M611.114 102.725C611.733 110.572 606.886 116.601 601.21 117.049C595.534 117.497 589.801 112.303 589.182 104.456C588.563 96.6098 593.41 90.5806 599.086 90.1326C604.762 89.6847 610.495 94.8791 611.114 102.725Z" stroke="#21325B" stroke-width="5"/>
<path d="M635.932 86.7236C636.241 90.641 635.32 94.186 633.699 96.744C632.079 99.3013 629.867 100.744 627.524 100.929C625.18 101.114 622.77 100.036 620.768 97.7644C618.766 95.4922 617.3 92.1357 616.991 88.2182C616.682 84.3007 617.604 80.7558 619.224 78.1978C620.845 75.6405 623.056 74.1976 625.4 74.0127C627.743 73.8278 630.153 74.906 632.155 77.1774C634.157 79.4496 635.623 82.8061 635.932 86.7236Z" stroke="#21325B" stroke-width="5"/>
<path d="M609.986 94.7896L616.65 90.2513" stroke="#21325B" stroke-width="5" stroke-linecap="round"/>
<path d="M615.313 73.3041C615.926 71.8382 617.919 68.8961 620.98 68.8546" stroke="#21325B" stroke-width="5" stroke-linecap="round"/>
<path d="M565.755 106.305L587.765 105.571" stroke="#21325B" stroke-width="5" stroke-linecap="round"/>
<path d="M544.006 123.068C542.617 124.651 540.783 128.263 544.557 130.046" stroke="#21325B" stroke-width="5" stroke-linecap="round"/>
<path d="M603.4 138.443C609.244 137.292 621.687 133.738 624.702 128.737" stroke="#21325B" stroke-width="5" stroke-linecap="round"/>
<path d="M603.376 138.142C609.177 142.252 621.563 146.124 624.702 128.737" stroke="#21325B" stroke-width="5" stroke-linecap="round"/>
<path d="M558.84 155C557.124 157.671 555.11 163.785 560.782 166.872C566.453 169.958 576.028 172.213 580.107 172.954C584.449 173.839 593.012 172.182 589.922 163.591" stroke="#21325B" stroke-width="5" stroke-linecap="round"/>
<path d="M272 302.433C303.333 318.1 384.7 344.033 459.5 322.433M505 317.433C508.833 314.433 524.1 310.233 554.5 317.433C584.9 324.633 592.333 322.933 591.5 319.933C589.167 303.766 584.4 264.433 590 246.433C595.6 228.433 566.333 222.933 551 222.433C516 215.766 434 206.433 386 222.433C326 242.433 274.5 215.933 272 208.933" stroke="#21325B" stroke-width="5" stroke-linecap="round"/>
<path d="M272 210.433C271.333 214.6 270.4 225.133 272 233.933M272 281.933C271.167 285.766 270 295.133 272 301.933" stroke="#21325B" stroke-width="5" stroke-linecap="round"/>
<path d="M342 230.933C339.667 254.266 337.1 305.533 345.5 323.933M423.5 215.433C427.167 239.433 429 294.933 429 327.933M506.5 218.433C506.5 241.433 515.5 283.433 506.5 313.933" stroke="#21325B" stroke-width="5" stroke-linecap="round"/>
<path d="M3 330.872L12.5 349.872M18.5 343.872V327.872M28.5 343.872L37.5 330.872" stroke="#21325B" stroke-width="5" stroke-linecap="round"/>
<path d="M372 614.372L384 631.372M392.5 631.372V610.872M401 631.372L413 610.872" stroke="#21325B" stroke-width="5" stroke-linecap="round"/>
<path d="M854 343.372L872 357.372M883.5 357.372V325.872M895.5 357.372L909 336.872" stroke="#21325B" stroke-width="5" stroke-linecap="round"/>
<path d="M1036.83 462.034L1033.02 475.279C1032.41 477.388 1033.23 479.696 1035.22 480.63C1043.13 484.355 1050.51 482.788 1055.04 480.605C1056.92 479.702 1057.6 477.508 1057.01 475.516L1053.04 462.303C1052.74 461.283 1052.13 460.365 1051.22 459.81C1045.76 456.474 1040.85 458.085 1038.25 459.885C1037.52 460.389 1037.07 461.182 1036.83 462.034Z" fill="#21325B"/>
<path d="M1018 521.644L1025.1 496.872C1041.77 506.508 1058.06 500.887 1064.13 496.872L1071 521.644C1049.71 534.735 1026.8 527.098 1018 521.644Z" fill="#21325B"/>
<path d="M1003 566.455L1011.58 542.872C1037.26 556.892 1067.43 548.714 1079.3 542.872L1087 566.455C1051.99 585.321 1016.41 574.316 1003 566.455Z" fill="#21325B"/>
<path d="M995.576 583.47L1000.44 573.534C992.11 577.214 973.715 585.59 966.812 589.652C959.908 593.715 963.935 598.999 966.812 601.134C989.012 612.909 1034.61 637.211 1039.39 640.214C1044.17 643.217 1049.64 641.465 1051.78 640.214C1071.32 629.984 1112.71 608.111 1121.92 602.458C1131.12 596.806 1125.75 591.124 1121.92 588.99L1089.83 572.872L1094.7 582.145C1096.91 588.99 1091.53 592.964 1089.39 594.951C1058.77 617.737 1018.96 605.77 1002.88 596.939C994.558 591.993 994.543 585.899 995.576 583.47Z" fill="#21325B"/>
</svg>
