<svg width="318" height="237" viewBox="0 0 318 237" fill="none" xmlns="http://www.w3.org/2000/svg">
<path d="M37.9172 211.644C33.3431 164.377 54.741 141.206 67.582 134.515C68.7782 133.892 70.1126 133.644 71.4614 133.644H97.7157C99.1659 133.644 100.61 133.943 101.89 134.625C127.071 148.063 133.855 187.268 131.417 211.644C130.417 230.644 116.917 234.144 104.917 234.144H64.417C39.917 233.144 38.2505 217.81 37.9172 211.644Z" fill="#21325B"/>
<path d="M92.71 173.81C90.6052 172.752 87.4096 171.763 84.4216 171.774M76.7959 200.477C78.9615 201.466 81.7117 201.986 84.4216 201.617M84.4216 171.774C80.8204 171.788 77.5208 173.256 76.7959 177.81C75.8398 183.816 83.0875 185.973 87.4051 188.143C93.3734 191.143 93.3191 196.767 89.726 199.477C88.11 200.695 86.2752 201.364 84.4216 201.617M84.4216 171.774V167.144M84.4216 201.617V206.144" stroke="white" stroke-width="7" stroke-linecap="round"/>
<rect x="66.417" y="122.644" width="35" height="8" rx="4" stroke="#21325B" stroke-width="5"/>
<rect x="128.71" y="54.1436" width="60" height="12" rx="6" fill="#21325B"/>
<path d="M69.417 116.644L58.417 96.6436" stroke="#21325B" stroke-width="5" stroke-linecap="round"/>
<path d="M99.417 116.644L109.917 96.1436" stroke="#21325B" stroke-width="5" stroke-linecap="round"/>
<path d="M57.917 96.1435C61.2503 96.8102 68.617 97.0435 71.417 92.6435C74.217 88.2435 77.917 89.4769 79.417 90.6435L83.917 94.6436" stroke="#21325B" stroke-width="5" stroke-linecap="round"/>
<path d="M109.917 95.7412C106.584 96.4079 99.217 96.6412 96.417 92.2412C93.617 87.8412 89.917 89.0745 88.417 90.2412L83.917 94.6436" stroke="#21325B" stroke-width="5" stroke-linecap="round"/>
<path d="M132.417 51.1436L113.917 15.6436" stroke="#21325B" stroke-width="5" stroke-linecap="round"/>
<path d="M185.917 51.1436L203.917 15.1436" stroke="#21325B" stroke-width="5" stroke-linecap="round"/>
<path d="M113.917 15.5064C119.686 16.6546 132.436 17.0564 137.282 9.47849C142.129 1.90057 148.532 4.02468 151.129 6.03398L158.917 12.923" stroke="#21325B" stroke-width="5" stroke-linecap="round"/>
<path d="M203.917 14.5064C198.148 15.6546 185.398 16.0564 180.552 8.47849C175.705 0.900566 169.302 3.02468 166.705 5.03398L158.917 12.616" stroke="#21325B" stroke-width="5" stroke-linecap="round"/>
<rect x="4.09956" y="227.048" width="47.2945" height="11.8004" rx="5.90019" transform="rotate(-61.5197 4.09956 227.048)" stroke="#21325B" stroke-width="5"/>
<rect x="208.417" y="188.644" width="47.2945" height="11.8004" rx="5.90019" stroke="#21325B" stroke-width="5"/>
<rect x="215.417" y="205.644" width="47.2945" height="11.8004" rx="5.90019" stroke="#21325B" stroke-width="5"/>
<rect x="208.417" y="222.644" width="47.2945" height="11.8004" rx="5.90019" stroke="#21325B" stroke-width="5"/>
<rect x="259.417" y="222.644" width="47.2945" height="11.8004" rx="5.90019" stroke="#21325B" stroke-width="5"/>
<rect x="267.417" y="207.644" width="47.2945" height="11.8004" rx="5.90019" stroke="#21325B" stroke-width="5"/>
<rect x="260.417" y="191.644" width="47.2945" height="11.8004" rx="5.90019" stroke="#21325B" stroke-width="5"/>
<rect x="251.417" y="174.644" width="47.2945" height="11.8004" rx="5.90019" stroke="#21325B" stroke-width="5"/>
<rect x="256.417" y="157.644" width="47.2945" height="11.8004" rx="5.90019" stroke="#21325B" stroke-width="5"/>
<path d="M115.21 88.1436C121.21 80.3102 126.417 73.6436 136.917 70.1436H181.917C201.25 80.3102 232.71 111.144 230.71 176.644" stroke="#21325B" stroke-width="5" stroke-linecap="round"/>
<path d="M130.71 231.144H200.21" stroke="#21325B" stroke-width="5" stroke-linecap="round"/>
<path d="M171.917 134.143C168.743 132.556 163.923 131.072 159.417 131.089M147.917 174.143C151.183 175.628 155.33 176.407 159.417 175.853M159.417 131.089C153.986 131.11 149.01 133.312 147.917 140.143C146.475 149.153 157.405 152.387 163.916 155.643C172.917 160.143 172.835 168.579 167.417 172.643C164.979 174.471 162.212 175.474 159.417 175.853M159.417 131.089V124.144M159.417 175.853V182.644" stroke="#21325B" stroke-width="7" stroke-linecap="round"/>
</svg>
