<svg width="429" height="300" viewBox="0 0 429 300" fill="none" xmlns="http://www.w3.org/2000/svg">
<path d="M53 3L137 72M79.5 81L117 99M3 131.5C44.0051 131.5 66.9949 131.5 108 131.5M76 185.5L117 173M31.5 260L137 202" stroke="#21325B" stroke-width="5" stroke-linecap="round"/>
<path d="M269 135C269 158.131 263.81 178.948 255.546 193.894C247.234 208.927 236.152 217.5 224.5 217.5C212.848 217.5 201.766 208.927 193.454 193.894C185.19 178.948 180 158.131 180 135C180 111.869 185.19 91.0516 193.454 76.1057C201.766 61.0725 212.848 52.5 224.5 52.5C236.152 52.5 247.234 61.0725 255.546 76.1057C263.81 91.0516 269 111.869 269 135Z" stroke="#21325B" stroke-width="5"/>
<ellipse cx="220.5" cy="135" rx="8" ry="15" fill="#21325B"/>
<path d="M407.5 150C410.7 140.4 408.833 126.333 407.5 120.5L423 126C429.4 133.6 425.667 141.167 423 144L407.5 150Z" fill="#21325B"/>
<path d="M423 126L225 52M238 213.5L423 144" stroke="#21325B" stroke-width="5" stroke-linecap="round"/>
<path d="M220 123L266 108.5M220 147L266 163.5" stroke="#21325B" stroke-width="5" stroke-linecap="round"/>
<path d="M342 272.5C330.5 275.5 321.5 271 320 268.5C319.56 271.694 317.638 282.082 319.5 289C320.456 292.552 323.286 294.822 326 295.5C328.738 296.185 332.678 295.486 335 292.5C339.463 286.761 341.452 275.789 342 272.5Z" fill="#21325B"/>
<path d="M329 180L319.5 271C318.788 281.5 315 293 325 296C337.21 299.663 338.5 288.5 341 277L351.5 222L361.5 167.5" stroke="#21325B" stroke-width="5" stroke-linecap="round"/>
<path d="M423 126C425.5 128.833 429 136.4 423 144" stroke="#21325B" stroke-width="5" stroke-linecap="round"/>
<path d="M406.5 120C408.333 125.833 410 139 406.5 150" stroke="#21325B" stroke-width="5" stroke-linecap="round"/>
</svg>
