<svg width="1327" height="1009" viewBox="0 0 1327 1009" fill="none" xmlns="http://www.w3.org/2000/svg">
<path d="M407 7.49999C413.4 43.1 448.333 72 465 82C472.333 81.1667 487.6 77 490 67C492.4 57 498 54.8333 500.5 55C503.667 55.3333 510.5 58.2 512.5 67C514.5 75.8 524 75.3333 528.5 74C528.5 74 536.167 95.5 542 102.5V89C542.333 82.8333 545.4 71.2 555 74C564.6 76.8 563.333 94.1667 561.5 102.5C566.7 112.5 585.667 126 594.5 131.5C620.9 35.1 568.167 4.33333 538.5 0.999988C532.833 -1.22786e-05 512.5 0.499988 476.5 10.5C440.5 20.5 415.167 12.6667 407 7.49999Z" fill="#21325B"/>
<path d="M550.5 92C552.167 94.8333 554.3 101.5 549.5 105.5" stroke="#21325B" stroke-width="5" stroke-linecap="round"/>
<path d="M542.5 89.5C543.333 83.5 547.6 72.3 558 75.5C570.5 80 564.6 103.8 553 119" stroke="#21325B" stroke-width="5" stroke-linecap="round"/>
<path d="M465.5 82.5C470.5 95.1667 477.5 123.7 465.5 136.5C453.5 149.3 473.5 150.167 485 149" stroke="#21325B" stroke-width="5" stroke-linecap="round"/>
<path d="M485 149C489.167 165.5 507.9 197.2 549.5 192" stroke="#21325B" stroke-width="5" stroke-linecap="round"/>
<path d="M559 206L550 192.5" stroke="#21325B" stroke-width="5" stroke-linecap="round"/>
<path d="M592 130.5C588.167 140.333 584.8 164.1 596 178.5" stroke="#21325B" stroke-width="5" stroke-linecap="round"/>
<path d="M481.5 98.5C484.5 96 492.4 92.5 500 98.5" stroke="#21325B" stroke-width="5" stroke-linecap="round"/>
<path d="M503 162.5C506.667 162.667 514.5 160.9 516.5 152.5" stroke="#21325B" stroke-width="5" stroke-linecap="round"/>
<circle cx="492.5" cy="113.5" r="5.5" fill="#21325B"/>
<path d="M613.5 190.5V176C613.5 171.5 608 169.4 602 175C596 180.6 573.833 196 563.5 203C558.333 205.833 547.7 213.7 546.5 222.5C545.3 231.3 540.667 243.833 538.5 249C530 272.333 505.5 319 489 362C474.886 398.781 481 442 489 460.5C493.757 471.5 519.6 481.4 570 465" stroke="#21325B" stroke-width="5" stroke-linecap="round"/>
<path d="M613.5 191C632.833 197.5 668.6 230 657 308C645.4 386 658.5 409.5 661 418C663.548 426.664 668.5 445 650 450.5L619.5 459.5" stroke="#21325B" stroke-width="5" stroke-linecap="round"/>
<path d="M613.5 189.5C595.5 198.333 554.5 222.1 540.5 244.5" stroke="#21325B" stroke-width="5" stroke-linecap="round"/>
<path d="M609 236C598.833 234.5 577.8 243.5 575 291.5C572.2 339.5 573.833 409.833 575 439C572.167 449 568.7 470.1 577.5 474.5C586.3 478.9 596.5 482 600.5 483C604.833 483.667 614 480.4 616 462C618 443.6 631.167 408 637.5 392.5C641.833 382.833 647.9 356.3 637.5 327.5C635.167 320.167 630.9 303.3 632.5 294.5" stroke="#21325B" stroke-width="5" stroke-linecap="round"/>
<path d="M507 315L489.5 296.5C486.333 293 478.1 289.2 470.5 302C462.9 314.8 465.667 328.333 468 333.5C471.667 342.667 480.3 363.2 485.5 372" stroke="#21325B" stroke-width="5" stroke-linecap="round"/>
<path d="M433.565 248.34C439.965 255.54 432.898 262.673 428.565 265.34C422.965 263.74 416.898 267.006 414.565 268.84C409.065 262.673 398.5 250.5 395 246C388.41 237.527 391.28 235 399.065 227.34C405 221.5 411 222.5 413.065 224.84C417.232 229.673 427.165 241.14 433.565 248.34Z" fill="#21325B"/>
<path d="M465.5 323C464 318 456.4 306.4 438 300C425.608 295.69 418.568 289.474 414.986 284.5M424.5 285.5C428.833 277.833 440 264.7 450 273.5M479 286.5C477.667 275.667 467.1 254.4 435.5 256M414.986 284.5C413.25 282.089 412.326 279.969 412 278.5C410.333 275.5 409.338 268.576 419 266C434 262 431.5 271.5 428.5 272C418.5 273.2 414.324 281.833 414.986 284.5ZM439 285.5C443.5 283 454.8 280.1 464 288.5" stroke="#21325B" stroke-width="5" stroke-linecap="round"/>
<path d="M362.5 243.5H383.5M365.5 224L382 230M376 206.5L391 221.5" stroke="#21325B" stroke-width="5" stroke-linecap="round"/>
<path d="M398.5 780C410.9 788 429.333 783.333 437 780C443.4 776.4 452.5 781.5 459.5 788.5C475 812 484.667 818 489.5 820C492.167 826.333 494 841.1 480 849.5C466 857.9 452.5 849.5 448.5 842.5C443 834.5 446.9 826.7 422.5 823.5C398.1 820.3 387.333 797.167 385 786C384.333 780.667 386.1 772 398.5 780Z" fill="#21325B"/>
<path d="M491 464C487 474.833 482.7 500.4 497.5 516C501.5 576.667 494.7 713.4 435.5 775" stroke="#21325B" stroke-width="5" stroke-linecap="round"/>
<path d="M435.5 775C442.167 777.167 457 783.6 463 794C470.5 807 487.5 824 503.5 821" stroke="#21325B" stroke-width="5" stroke-linecap="round"/>
<path d="M503.5 821L579.5 658.5" stroke="#21325B" stroke-width="5" stroke-linecap="round"/>
<path d="M543 534C556.333 585.333 594.2 703.9 639 767.5C642.833 773.5 647.5 792 635.5 818" stroke="#21325B" stroke-width="5" stroke-linecap="round"/>
<path d="M599 840C622.6 834 632.833 822.167 635 817C639.333 816.5 651.3 817.4 664.5 825C677.7 832.6 695 829.167 702 826.5C703.6 832.1 702.667 841.167 702 845C697.5 862.5 676 855 668.5 859C637 871.5 612 867.833 601.5 863.5C590.833 858.167 575.4 846 599 840Z" fill="#21325B"/>
<path d="M636 818C642 816.667 652.282 820.093 663.5 825.001C687.5 835.501 702.167 825.167 715.5 820.501" stroke="#21325B" stroke-width="5" stroke-linecap="round"/>
<path d="M656 449.5C665 472.667 686.2 540.1 699 608.5C715 694 725.5 789 715.5 820.5" stroke="#21325B" stroke-width="5" stroke-linecap="round"/>
<path d="M561 478.5C561.667 494.5 572.8 531.2 612 550" stroke="#21325B" stroke-width="5" stroke-linecap="round"/>
<path d="M576 474.5C573.667 477 569.2 484.1 570 492.5" stroke="#21325B" stroke-width="5" stroke-linecap="round"/>
<path d="M600.5 483.5C603.667 492 606.3 512.8 591.5 528" stroke="#21325B" stroke-width="5" stroke-linecap="round"/>
<path d="M1137 406.5C1090.6 390.5 1122 291.5 1143.5 244C1179.5 253.6 1217.17 237 1231.5 227.5C1232.83 234.667 1240.2 256.1 1259 284.5C1277.8 312.9 1302.18 327.669 1306.5 340C1317 370 1294 385.5 1282.5 389C1242.1 398.2 1208 352.833 1196 329C1178.8 399.4 1149.5 410 1137 406.5Z" fill="#21325B"/>
<path d="M1251.5 117C1220.3 122.6 1203.5 84.6667 1199 65C1194.84 52.2 1177.5 54 1168.5 52.5C1159.5 52 1147.3 44.5 1170.5 18.5C1193.7 -7.50002 1216.83 -0.33333 1225.5 6.50002C1257.9 6.10002 1271.67 39.3334 1274.5 56C1279.83 74 1282.7 111.4 1251.5 117Z" fill="#21325B"/>
<ellipse cx="1177" cy="70" rx="4" ry="5" fill="#21325B"/>
<path d="M1173 52.5C1162 61.5 1145.2 80.8 1166 86C1166.17 97.8333 1173.9 120.5 1203.5 116.5V124" stroke="#21325B" stroke-width="5" stroke-linecap="round"/>
<path d="M1189 91C1189 94 1188.4 97.8 1182 99" stroke="#21325B" stroke-width="5" stroke-linecap="round"/>
<path d="M1225.5 108.5V126.5" stroke="#21325B" stroke-width="5" stroke-linecap="round"/>
<path d="M1142 173C1130.83 180.333 1109.1 197.8 1111.5 209C1113.9 220.2 1156.83 220.333 1178 219C1190.5 219 1216.9 208.5 1222.5 166.5C1228.1 124.5 1217.5 122.826 1209.5 124.5C1202.33 126 1186 135 1178 159C1170 183 1170 184 1164.5 186.5" stroke="#21325B" stroke-width="5" stroke-linecap="round"/>
<path d="M1142 173.5C1142.83 180 1146.9 191.3 1164.5 186.5" stroke="#21325B" stroke-width="5" stroke-linecap="round"/>
<path d="M1222.5 133C1227.5 153.333 1235.8 200.3 1229 225.5" stroke="#21325B" stroke-width="5" stroke-linecap="round"/>
<path d="M1151.5 225C1147.83 228.333 1144.2 232.6 1145 241" stroke="#21325B" stroke-width="5" stroke-linecap="round"/>
<path d="M1077.73 87.5945C1069.38 92.9454 1084.05 112.71 1091 123L1097.5 131C1105.84 132.646 1111.51 124.288 1112.5 120L1095.61 89.138C1093.13 86.394 1086.07 82.2437 1077.73 87.5945Z" fill="#21325B"/>
<path d="M1095.5 139C1093.37 138.493 1090.1 136.939 1088.22 134M1088.22 134C1087.01 132.106 1086.37 129.636 1087 126.5C1088.6 118.5 1093.33 123.167 1095.5 126.5C1099 131.333 1105.4 142.6 1111 139C1116.6 135.4 1109 134 1109 126C1109.17 120.167 1113 112.4 1127 128C1135 136.4 1133.32 148.5 1131.48 153.5M1088.22 134C1087.31 137.5 1089.3 145.8 1096.5 147M1089 143.5C1088 147.667 1088.8 153.5 1098 155.5M1092 156.5C1093.5 162.167 1100.6 172 1117 166C1120 165.167 1125.4 168.3 1123 187.5M1139.5 175C1140.27 170.507 1139.61 160.368 1131.48 153.5M1129.5 152C1130.2 152.479 1130.86 152.98 1131.48 153.5" stroke="#21325B" stroke-width="5" stroke-linecap="round"/>
<path d="M1050 104.5H1066M1050 80.5C1050.8 80.9 1061 88.6667 1066 92.5M1066 68L1071 81.5" stroke="#21325B" stroke-width="5" stroke-linecap="round"/>
<path d="M1128.5 399C1128.83 404.167 1126.5 421.5 1113 412C1109.67 408.667 1101.8 403.2 1097 408C1092.2 412.8 1101.67 421.667 1107 425.5C1112.5 429.833 1126 437.2 1136 432C1146 426.8 1145.83 413.167 1144.5 407" stroke="#21325B" stroke-width="5" stroke-linecap="round"/>
<path d="M1293 381.5C1296.5 383.167 1303.5 387.8 1303.5 393C1299.5 398.667 1293.1 412.6 1299.5 423C1305.9 433.4 1317.5 409.667 1322.5 396.5C1325 389 1325.3 372.4 1306.5 366" stroke="#21325B" stroke-width="5" stroke-linecap="round"/>
<path d="M1143.5 428.5C1145.67 432.667 1154.2 438.8 1171 430M1154.5 421.5C1159.33 426.333 1173.1 434.3 1189.5 427.5M1177.5 419C1183.5 426 1200.2 437.3 1219 426.5M1203.5 415.5C1205 421.5 1225.3 434.3 1294.5 437.5" stroke="#21325B" stroke-width="5" stroke-linecap="round"/>
<path d="M748 989.5C781.167 973.833 861.9 943.5 919.5 947.5C927.667 947.833 940 951.3 924 962.5C908 973.7 900 979.5 898 981C889.667 988 881.5 1002.8 915.5 1006C958 1010 1078 966.5 1315.5 998.5" stroke="#21325B" stroke-width="5" stroke-linecap="round"/>
<path d="M3 517.345C18.3122 510.19 55.5847 496.338 82.1771 498.164C85.9474 498.317 91.6414 499.9 84.2546 505.015C76.8678 510.129 73.1744 512.778 72.2511 513.463C68.4038 516.66 64.6335 523.419 80.3304 524.88C99.9515 526.707 155.352 506.841 265 521.455" stroke="#21325B" stroke-width="5" stroke-linecap="round"/>
</svg>
