<svg width="345" height="638" viewBox="0 0 345 638" fill="none" xmlns="http://www.w3.org/2000/svg">
<path d="M207.325 245C197.492 254.667 175.625 296.6 164.825 377C154.025 457.4 151.325 434.5 144.825 476.5C143.325 483.833 138.025 492.7 128.825 469.5C119.625 446.3 106.992 401.333 103.825 381.5" stroke="#21325B" stroke-width="5" stroke-linecap="round"/>
<path d="M206.744 249.289C161.544 192.889 178.244 149.123 192.244 134.289C198.644 181.889 236.578 200.789 254.744 204.289V221.289C249.144 217.289 220.411 238.289 206.744 249.289Z" fill="#21325B"/>
<path d="M238.095 10.6434C284.595 -16.3566 317.306 31.7922 327.095 49.6434C333.312 46.9582 339.451 50.7623 341.744 53V114.789C343.542 121.981 343.004 127.615 341.744 131.585V171.5C341.744 193.5 316.825 206.57 304.325 209.5L302.244 185.289C316.244 170.889 324.078 148.289 326.244 138.789C331.044 141.589 336.244 139.289 338.244 137.789C339.34 136.767 340.762 134.682 341.744 131.585V114.789C338.544 101.989 329.744 107.123 325.744 111.289L303.244 117.789C300.444 96.1894 285.978 91.3588 279.095 91.6434C282.295 78.8434 271.929 75.3101 266.595 74.1434C260.995 84.1434 252.262 89.3101 248.595 91.6434C210.195 109.243 183.095 99.1435 168.595 83.1434C153.095 67.1434 147.595 24.1435 180.595 7.64343C191.212 1.26142 217.576 -7.07338 238.095 10.6434Z" fill="#21325B"/>
<path d="M302.595 118.143C302.595 133.043 291.824 144.643 279.095 144.643C266.367 144.643 255.595 133.043 255.595 118.143C255.595 103.244 266.367 91.6434 279.095 91.6434C291.824 91.6434 302.595 103.244 302.595 118.143Z" stroke="#21325B" stroke-width="5"/>
<path d="M239.595 127.143C239.595 142.043 228.824 153.643 216.095 153.643C203.367 153.643 192.595 142.043 192.595 127.143C192.595 112.244 203.367 100.643 216.095 100.643C228.824 100.643 239.595 112.244 239.595 127.143Z" stroke="#21325B" stroke-width="5"/>
<path d="M239.739 121.528L255.452 119.759" stroke="#21325B" stroke-width="5" stroke-linecap="round"/>
<path d="M251.095 135.143C248.596 147.643 240.995 159.043 252.595 164.643M253.596 185.643C260.325 187 268.825 180.5 268.825 173" stroke="#21325B" stroke-width="5" stroke-linecap="round"/>
<circle cx="210.595" cy="145.289" r="7.5" fill="#21325B"/>
<circle cx="272.595" cy="136.289" r="7.5" fill="#21325B"/>
<path d="M333.095 119.143C334.262 121.143 335.895 125.943 333.095 129.143" stroke="#21325B" stroke-width="5" stroke-linecap="round"/>
<path d="M193.595 99.7894C187.429 119.123 186.683 163.843 230.283 194.643C273.883 225.443 307.45 183.477 318.783 158.643L326.283 138.143C331.45 141.31 341.883 143.143 342.283 125.143C342.683 107.143 335.45 105.977 331.783 107.643C329.783 108.477 325.583 111.343 324.783 116.143" stroke="#21325B" stroke-width="5" stroke-linecap="round"/>
<path d="M303.095 117.143L328.095 110.143" stroke="#21325B" stroke-width="5" stroke-linecap="round"/>
<path d="M254.095 204.643V218.143M301.595 185.143L304.095 207.143" stroke="#21325B" stroke-width="5" stroke-linecap="round"/>
<path d="M275.095 117.796C279.213 117.663 287.778 119.475 289.095 127.789" stroke="#21325B" stroke-width="5" stroke-linecap="round"/>
<path d="M202.095 125.628C204.924 123.743 212.136 120.82 218.359 124.214" stroke="#21325B" stroke-width="5" stroke-linecap="round"/>
<path d="M303.825 207C294.992 214.333 272.025 227.3 254.825 218.5" stroke="#21325B" stroke-width="5" stroke-linecap="round"/>
<path d="M56.8251 384C51.1585 393 46.8251 410.7 74.8251 409.5C102.825 408.3 105.158 383 102.825 370.5" stroke="#21325B" stroke-width="5" stroke-linecap="round"/>
<path d="M52.877 394C48.7103 450.833 75.8251 577 169.877 609.5C179.325 611.5 199.49 614.574 214.877 579C224.825 556 235.493 512.976 240.038 472.5M244.377 394C245.618 397.226 244.518 432.606 240.038 472.5M240.038 472.5C235.151 493 230.177 554.3 249.377 635.5" stroke="#21325B" stroke-width="5" stroke-linecap="round"/>
<path d="M67.8251 409C66.6584 398.833 58.9251 377.1 37.3251 371.5C27.8251 369.333 9.82511 364 8.82511 355.5C7.93713 347.952 15.3251 346.677 19.8251 348.01M37.8251 361.5C20.8251 351.833 -2.87489 332.2 4.32511 291C4.49178 288.833 6.22511 284.6 11.8251 285M11.8251 300.5C13.6584 310.667 19.1581 332.296 26.3251 331.5C30.8251 331 30.3251 325.5 27.8251 321C18.8551 297.934 22.8251 290 27.8251 290.5C32.8251 291 33.8251 300.5 37.3251 315.5M35.251 305C43.8251 305 45.9251 305.1 54.3251 327.5M50.3251 315.5C51.8251 312.167 56.6251 308.8 63.8251 322C68.8251 331.167 75.1251 351.8 88.3251 357C101.525 362.2 101.825 367 102.825 370" stroke="#21325B" stroke-width="5" stroke-linecap="round"/>
<path d="M11.8251 300.5V269M11.8251 269L72.3251 259.5L99.8251 274M11.8251 269L38.8251 283.5M99.8251 274L38.8251 283.5M99.8251 274V334.5L73.3251 339M38.8251 283.5V304M75.8251 289.5L89.3251 287.5V300.5" stroke="#21325B" stroke-width="5" stroke-linecap="round"/>
</svg>
