<svg width="411" height="488" viewBox="0 0 411 488" fill="none" xmlns="http://www.w3.org/2000/svg">
<path d="M148.695 79.424L157.695 99.424L134.695 92.924C95.4953 123.724 54.6953 114.257 43.1953 107.424C16.862 93.924 -10.8044 61.924 10.6953 27.924C35.2142 -10.8506 94.5286 4.75731 117.195 14.424C128.862 18.2573 153.295 29.324 157.695 42.924C162.095 56.524 153.529 72.924 148.695 79.424Z" stroke="#21325B" stroke-width="5" stroke-linecap="round"/>
<path d="M49.1953 31.4241H78.6953" stroke="#21325B" stroke-width="5" stroke-linecap="round"/>
<path d="M41.6953 53.4241H115.695" stroke="#21325B" stroke-width="5" stroke-linecap="round"/>
<path d="M39.1953 71.924L86.6953 74.924" stroke="#21325B" stroke-width="5" stroke-linecap="round"/>
<path d="M278.196 305.424C317.396 305.824 328.196 257.924 358.696 259.924C342.696 282.924 352.029 308.424 363.196 313.424C358.396 355.424 337.529 396.924 327.696 412.424C313.529 435.924 266.296 476.624 190.696 451.424C115.096 426.224 124.863 354.257 139.196 321.424C150.696 293.424 187.696 312.924 190.696 317.424C193.696 321.924 207.196 331.424 215.196 321.424C223.196 311.424 229.196 304.924 278.196 305.424Z" fill="#21325B"/>
<path d="M239.695 391.424C248.029 393.757 266.095 394.424 271.695 378.424" stroke="white" stroke-width="5" stroke-linecap="round"/>
<path d="M202.195 253.424C202.195 271.442 188.024 285.924 170.695 285.924C153.366 285.924 139.195 271.442 139.195 253.424C139.195 235.406 153.366 220.924 170.695 220.924C188.024 220.924 202.195 235.406 202.195 253.424Z" stroke="#21325B" stroke-width="5"/>
<path d="M298.195 255.424C298.195 273.407 283.835 287.924 266.195 287.924C248.556 287.924 234.195 273.407 234.195 255.424C234.195 237.441 248.556 222.924 266.195 222.924C283.835 222.924 298.195 237.441 298.195 255.424Z" stroke="#21325B" stroke-width="5"/>
<ellipse cx="177.195" cy="260.924" rx="6.5" ry="7.5" fill="#21325B"/>
<ellipse cx="260.195" cy="260.924" rx="6.5" ry="7.5" fill="#21325B"/>
<path d="M199.695 239.424C206.247 235.651 223.019 230.369 237.695 239.424" stroke="#21325B" stroke-width="5" stroke-linecap="round"/>
<path d="M300.695 246.924L376.695 244.424" stroke="#21325B" stroke-width="5" stroke-linecap="round"/>
<path d="M374.695 271.424C376.195 275.757 378.295 286.224 374.695 293.424" stroke="#21325B" stroke-width="5" stroke-linecap="round"/>
<path d="M361.695 254.924C362.695 252.924 391.575 236.488 398.749 269.319C402.825 287.973 394.955 320.087 369.195 322.924" stroke="#21325B" stroke-width="5" stroke-linecap="round"/>
<path d="M202.806 254.424C204.639 265.091 205.406 289.324 193.806 300.924C179.306 315.424 198.306 338.424 217.806 322.424" stroke="#21325B" stroke-width="5" stroke-linecap="round"/>
<path d="M151.695 319.424C147.862 313.424 142.495 297.724 151.695 282.924C163.195 264.424 184.695 207.424 186.195 181.424" stroke="#21325B" stroke-width="5" stroke-linecap="round"/>
<path d="M193.695 156.424C202.195 135.424 231.995 93.924 283.195 95.924C334.395 97.924 358.862 119.757 364.695 130.424M364.695 130.424C369.362 147.591 374.895 192.924 359.695 236.924L384.195 246.924C390.029 221.924 394.295 163.624 364.695 130.424Z" stroke="#21325B" stroke-width="5" stroke-linecap="round"/>
<path d="M359.195 238.424C331.928 167.362 237.001 153.779 193.695 156.87L132.195 157.924" stroke="#21325B" stroke-width="5" stroke-linecap="round"/>
<path d="M137.696 257.424C112.862 261.591 58.2957 258.824 56.6957 212.424C54.6957 154.424 151.196 141.924 187.696 180.424C224.196 218.924 349.196 245.924 365.696 241.424" stroke="#21325B" stroke-width="5" stroke-linecap="round"/>
<path d="M111.195 361.924C111.362 372.091 113.795 394.724 122.195 403.924" stroke="#21325B" stroke-width="5" stroke-linecap="round"/>
<path d="M179.695 238.529C181.529 233.696 188.095 224.329 199.695 225.529" stroke="#21325B" stroke-width="5" stroke-linecap="round"/>
<path d="M255.695 238.841C259.862 235.508 270.695 230.841 280.695 238.841" stroke="#21325B" stroke-width="5" stroke-linecap="round"/>
<path d="M338.195 391.424L348.195 425.424C354.695 448.424 244.695 505.924 239.695 477.424L235.195 450.924" stroke="#21325B" stroke-width="5" stroke-linecap="round"/>
</svg>
