<svg width="412" height="427" viewBox="0 0 412 427" fill="none" xmlns="http://www.w3.org/2000/svg">
<path d="M8.95268 216.5C31.3527 206.5 42.286 226.667 44.9527 238C76.1527 221.6 90.286 150.833 93.4526 117.5C129.053 146.7 173.286 129.667 190.953 117.5C235.24 87 224.453 54.125 196.953 33.5C180.953 21.5 175.286 9.16667 172.453 0C164.619 12.1667 157.953 33.5 136.953 45.5C126.534 51.4537 94.4526 52.0711 77.4527 56C-12.5473 76.8 -5.71399 171.667 8.95268 216.5Z" fill="#21325B"/>
<path d="M11.4526 212.5C5.1193 224.333 -1.24697 254.5 29.953 264.5C32.6197 276.5 46.7529 302.9 81.9529 312.5C125.953 324.5 157.453 320.5 172.953 309C188.453 297.5 208.953 266.5 210.953 237" stroke="#21325B" stroke-width="5" stroke-linecap="round"/>
<path d="M193.453 236.5L215.953 235C219.953 231.5 227.953 217.5 212.453 213.5C206.786 212.5 194.253 208.5 189.453 200.5" stroke="#21325B" stroke-width="5" stroke-linecap="round"/>
<path d="M189.453 117C192.62 120.833 198.453 131 196.453 141" stroke="#21325B" stroke-width="5" stroke-linecap="round"/>
<path d="M114.453 182C115.62 179.167 119.253 172.5 124.453 168.5" stroke="#21325B" stroke-width="5" stroke-linecap="round"/>
<ellipse cx="152.953" cy="197" rx="4" ry="6" fill="#21325B"/>
<ellipse cx="209.953" cy="171" rx="4" ry="6" fill="#21325B"/>
<path d="M167.453 200.5C167.453 217.476 155.885 230.5 142.453 230.5C129.021 230.5 117.453 217.476 117.453 200.5C117.453 183.524 129.021 170.5 142.453 170.5C155.885 170.5 167.453 183.524 167.453 200.5Z" stroke="#21325B" stroke-width="5"/>
<path d="M219.453 173C219.453 181.348 216.912 188.809 212.924 194.127C208.936 199.445 203.617 202.5 197.953 202.5C192.289 202.5 186.971 199.445 182.983 194.127C178.994 188.809 176.453 181.348 176.453 173C176.453 164.652 178.994 157.191 182.983 151.873C186.971 146.555 192.289 143.5 197.953 143.5C203.617 143.5 208.936 146.555 212.924 151.873C216.912 157.191 219.453 164.652 219.453 173Z" stroke="#21325B" stroke-width="5"/>
<path d="M164.453 185L176.453 178.5" stroke="#21325B" stroke-width="5" stroke-linecap="round"/>
<path d="M178.453 144C179.786 141.167 183.853 135.6 189.453 136" stroke="#21325B" stroke-width="5" stroke-linecap="round"/>
<path d="M72.9531 202L116.953 203.5" stroke="#21325B" stroke-width="5" stroke-linecap="round"/>
<path d="M26.4529 231.5C24.6196 234.333 22.0529 241 26.4529 245" stroke="#21325B" stroke-width="5" stroke-linecap="round"/>
<path d="M136.453 254.5C131.787 255.667 123.453 262 127.453 278" stroke="#21325B" stroke-width="5" stroke-linecap="round"/>
<path d="M143.953 271C155.786 269.624 181.153 264.497 187.953 255" stroke="#21325B" stroke-width="5" stroke-linecap="round"/>
<path d="M142.953 271.5C154.12 280.667 178.753 290.4 187.953 256" stroke="#21325B" stroke-width="5" stroke-linecap="round"/>
<path d="M51.953 297C48.1197 302.167 43.153 314.3 53.953 321.5C64.753 328.7 83.4529 334.833 91.4529 337C99.9529 339.5 117.253 337.5 112.453 319.5" stroke="#21325B" stroke-width="5" stroke-linecap="round"/>
<path d="M199.953 303C207.286 299 221.353 286.3 218.953 267.5" stroke="#21325B" stroke-width="5" stroke-linecap="round"/>
<path d="M242.453 347L236.453 316.5L257.453 338C277.453 318.4 344.291 319.103 374.953 328.5C405.953 338 416.453 364.5 404.453 389.5C392.453 414.5 322.453 433.5 266.953 420C222.553 409.2 232.12 366.833 242.453 347Z" stroke="#21325B" stroke-width="5" stroke-linecap="round"/>
<path d="M277.453 358.5L299.953 353.5" stroke="#21325B" stroke-width="5" stroke-linecap="round"/>
<path d="M275.953 379.5L370.953 367.5" stroke="#21325B" stroke-width="5" stroke-linecap="round"/>
<path d="M276.953 398.987L336.383 391.985" stroke="#21325B" stroke-width="5" stroke-linecap="round"/>
</svg>
