<svg width="260" height="193" viewBox="0 0 260 193" fill="none" xmlns="http://www.w3.org/2000/svg">
<path d="M242.534 62.1436V24.1436C242.534 13.0979 233.579 4.14355 222.534 4.14355H23.5337C12.488 4.14355 3.53369 13.0979 3.53369 24.1436V149.144C3.53369 160.189 12.488 169.144 23.5337 169.144H143.034" stroke="#21325B" stroke-width="7" stroke-linecap="round"/>
<circle cx="201.534" cy="127.144" r="48" fill="#21325B"/>
<path d="M4.53369 62.1436H241.534" stroke="#21325B" stroke-width="7" stroke-linecap="round"/>
<path d="M31.5337 127.144H79.5337" stroke="#21325B" stroke-width="7" stroke-linecap="round"/>
<path d="M95.5337 127.144H102.534" stroke="#21325B" stroke-width="7" stroke-linecap="round"/>
<path d="M182.034 123.144C182.034 121.763 183.153 120.644 184.534 120.644H218.534C219.914 120.644 221.034 121.763 221.034 123.144V139.144C221.034 146.047 215.437 151.644 208.534 151.644H194.534C187.63 151.644 182.034 146.047 182.034 139.144V123.144Z" stroke="white" stroke-width="5"/>
<path d="M191.034 112.144C191.034 106.345 195.735 101.644 201.534 101.644C207.333 101.644 212.034 106.345 212.034 112.144V120.644H191.034V112.144Z" stroke="white" stroke-width="5"/>
<circle cx="201.534" cy="133.144" r="4" fill="white"/>
<rect x="199.534" y="134.144" width="4" height="8" rx="2" fill="white"/>
</svg>
