<svg width="514" height="440" viewBox="0 0 514 440" fill="none" xmlns="http://www.w3.org/2000/svg">
<path d="M172.281 404V419.5C171.948 424.667 175.281 435.2 191.281 436C211.281 437 244.281 437.5 260.781 432C273.981 427.6 274.948 413.833 273.781 407.5" stroke="#21325B" stroke-width="5" stroke-linecap="round"/>
<path d="M169.259 405C141.259 383.5 133.259 363 124.259 342.5C114.2 340.776 108.992 338.699 105.259 336.5C102.498 334.873 98.759 331.5 97.259 328.5C86.721 307.424 93.759 296.5 100.259 291C108.648 283.902 118.359 282.7 158.759 273.5C199.159 264.3 230.592 218.333 241.259 196.5C247.259 224.9 303.092 262 330.259 277C349.059 240.2 331.426 194 320.259 175.5C268.659 95.8999 185.426 108.667 150.259 125C123.259 80 70.0924 100.167 57.759 109C32.0924 128.333 8.05903 175.7 37.259 246.5C66.459 317.3 25.0924 345.333 0.759033 350.5C29.959 408.9 123.926 411.833 169.259 405Z" fill="#21325B"/>
<path d="M335.759 362.5C334.259 368.667 329.259 381.6 321.259 384" stroke="#21325B" stroke-width="5" stroke-linecap="round"/>
<path d="M115.259 301.5C113.259 306 111.159 316.2 118.759 321" stroke="#21325B" stroke-width="5" stroke-linecap="round"/>
<path d="M328.759 276.5C326.259 312 339.759 380.5 268.259 407C242.759 415.5 189.859 417.6 162.259 398C152.092 391.333 130.259 373 124.259 345" stroke="#21325B" stroke-width="5" stroke-linecap="round"/>
<path d="M264.259 289C264.259 298 268.191 308.267 275.259 317.5C281 325 274.926 332.667 268.259 337" stroke="#21325B" stroke-width="5" stroke-linecap="round"/>
<ellipse cx="297.5" cy="285" rx="7.5" ry="9" fill="#21325B"/>
<ellipse cx="228.5" cy="292" rx="7.5" ry="9" fill="#21325B"/>
<path d="M289.259 267C291.259 262.833 297.259 255.1 305.259 257.5" stroke="#21325B" stroke-width="5" stroke-linecap="round"/>
<path d="M212.259 266.5C216.592 263.833 227.859 259.9 238.259 265.5" stroke="#21325B" stroke-width="5" stroke-linecap="round"/>
<path d="M381.763 112.804C374.763 123.804 360.263 145.804 358.263 145.804L362.263 97.8042C352.763 87.8042 340.663 59.8042 368.263 27.8042C395.863 -4.19583 452.096 1.47084 476.763 8.30417C497.096 15.9708 529.663 42.2042 497.263 85.8042C464.863 129.404 406.763 121.971 381.763 112.804Z" stroke="#21325B" stroke-width="5" stroke-linecap="round"/>
<path d="M384.259 48L413.759 43" stroke="#21325B" stroke-width="5" stroke-linecap="round"/>
<path d="M388.759 68.5L466.259 56" stroke="#21325B" stroke-width="5" stroke-linecap="round"/>
<path d="M397.259 91L439.259 85.5" stroke="#21325B" stroke-width="5" stroke-linecap="round"/>
<path d="M232.5 353.5C236 363 242.5 372 262.5 369.5" stroke="#21325B" stroke-width="5" stroke-linecap="round"/>
</svg>
