<svg width="1098" height="740" viewBox="0 0 1098 740" fill="none" xmlns="http://www.w3.org/2000/svg">
<path d="M593.5 239.5C558.74 176.13 585.92 150.666 602.275 138.479C600.343 186.468 634.434 211.646 651.721 218.237L648.78 234.98C647.5 226 608.864 231.031 593.5 239.5Z" fill="#21325B"/>
<path d="M803.576 219.89C781.03 241.312 761.698 241.008 752.894 242C723 235 709.5 236.5 697.5 240L701.792 207.742C718.072 195.981 729.698 175.077 733.475 166.096C737.718 169.684 743.238 168.318 745.467 167.187C748.333 165.321 753.831 158.3 752.894 145.139C751.957 131.979 742.401 135.512 737.741 138.924L714.456 141.433C715.435 119.674 702.023 112.413 695.194 111.503C700.561 99.4496 690.962 94.1759 685.911 92.1041C678.665 100.984 669.169 104.562 665.154 106.226C624.288 116.916 599.345 102.28 587.832 84.0125C575.334 65.572 577.357 22.2689 612.714 11.7274C624.275 7.27854 651.683 3.63087 668.827 24.6307C719.298 6.0833 743.184 59.1654 749.737 78.4412L757.311 96.0166C823.082 110.007 828.871 172.215 817.318 199.459C812.08 211.812 811.391 212.466 803.923 219.56L803.576 219.89Z" fill="#21325B"/>
<path d="M713.755 141.669C711.177 156.344 698.561 165.906 686.024 163.704C673.487 161.501 664.886 148.212 667.464 133.537C670.042 118.863 682.657 109.301 695.194 111.503C707.731 113.705 716.333 126.995 713.755 141.669Z" stroke="#21325B" stroke-width="5"/>
<path d="M650.148 139.633C647.57 154.308 634.954 163.87 622.417 161.668C609.88 159.465 601.279 146.176 603.857 131.501C606.435 116.827 619.05 107.265 631.587 109.467C644.124 111.669 652.726 124.959 650.148 139.633Z" stroke="#21325B" stroke-width="5"/>
<path d="M651.262 134.127L667.043 135.104" stroke="#21325B" stroke-width="5" stroke-linecap="round"/>
<path d="M660.091 149.502C655.466 161.381 646.008 171.294 656.464 178.817M645.5 194.5C648.667 198 657.5 202.9 667.5 194.5" stroke="#21325B" stroke-width="5" stroke-linecap="round"/>
<circle cx="618.446" cy="152.488" r="7.5" transform="rotate(9.96339 618.446 152.488)" fill="#21325B"/>
<circle cx="681.068" cy="154.351" r="7.5" transform="rotate(9.96339 681.068 154.351)" fill="#21325B"/>
<path d="M743.622 147.931C744.425 150.103 745.203 155.113 741.892 157.78" stroke="#21325B" stroke-width="5" stroke-linecap="round"/>
<path d="M609.575 104.733C600.156 122.708 591.684 166.625 629.298 204.504C666.911 242.383 707.233 206.857 722.692 184.359L733.625 165.466C738.166 169.479 748.125 173.09 751.633 155.43C755.142 137.771 748.219 135.37 744.32 136.378C742.206 136.852 737.573 138.949 735.954 143.538" stroke="#21325B" stroke-width="5" stroke-linecap="round"/>
<path d="M714.421 140.771L740.255 138.202" stroke="#21325B" stroke-width="5" stroke-linecap="round"/>
<path d="M651 220L646.5 247M701.178 207.486L696 249" stroke="#21325B" stroke-width="5" stroke-linecap="round"/>
<path d="M686.73 136.569C690.808 137.15 698.93 140.417 698.79 148.834" stroke="#21325B" stroke-width="5" stroke-linecap="round"/>
<path d="M613.476 131.653C616.588 130.285 624.197 128.654 629.739 133.074" stroke="#21325B" stroke-width="5" stroke-linecap="round"/>
<path d="M553.5 292.5C559.1 242.5 612.167 230 638 229.5C632.167 241.333 632 264.3 678 261.5C689.667 260.667 716.6 254.9 731 238.5C751.167 239 797.3 253 806.5 305M806.5 305C807 310.667 805.1 322.6 793.5 331M806.5 305C792.667 302.333 754.414 298.1 726.814 328.5M724 339C722.5 330.833 720 314.4 732 298M562.5 373.5C560 383.833 555.2 407.7 556 420.5" stroke="#21325B" stroke-width="5" stroke-linecap="round"/>
<path d="M992.708 529.013C949.294 529.655 915 537.456 915 546.985C915 556.934 952.384 565 998.5 565C1044.62 565 1082 556.934 1082 546.985C1082 537.385 1047.2 529.539 1003.33 529" stroke="#21325B" stroke-width="5" stroke-linecap="round"/>
<path d="M990.999 563C993.833 532.334 995.599 447 985.999 375C983.999 360 978.899 321.2 942.499 284C896.999 237.5 872.682 229.671 874.999 206.5C877 186.5 889.999 168 913.499 176.5C932.299 183.3 953.666 217.667 961.999 234C969.999 251 987.171 303.321 996.499 375C1006 448 1003 532.334 1003.5 563" stroke="#21325B" stroke-width="5" stroke-linecap="round"/>
<path d="M947 259.5C957.167 267.5 977.1 293.6 975.5 334" stroke="#21325B" stroke-width="5" stroke-linecap="round"/>
<path d="M972.5 614C938.9 600 918.167 610.166 912 617C916.5 692.5 936 696.5 950.5 696.5H1048C1081.5 695 1083.5 623.5 1081.5 595C1069.5 612.5 1052 605.5 1036 601.5C1030.5 600.333 1016.4 600.3 1004 609.5C991.6 618.7 977.833 616.333 972.5 614Z" fill="#21325B"/>
<path d="M914.5 547.5C909.5 596.5 906 696.5 948 696.5H995H1046.5C1070.5 696.5 1090 679.5 1082.5 547" stroke="#21325B" stroke-width="5" stroke-linecap="round"/>
<path d="M997.5 381C1001.5 357.333 1024 312 1037 290C1053.84 261.495 1072.5 265.5 1080.5 269.5C1099.18 278.838 1096.82 294.5 1088.5 303C1080.83 310.833 1062 326 1048.5 337.5C1033.09 350.63 1000.5 383.5 999 395.5" stroke="#21325B" stroke-width="5" stroke-linecap="round"/>
<path d="M998 375C1000.5 372 1020.5 335.5 1048 310" stroke="#21325B" stroke-width="5" stroke-linecap="round"/>
<path d="M988.999 407.5C966.833 379.833 914.499 328.2 882.499 343C874.833 346.333 867 357.5 877.5 382.5C881.5 392.023 897.999 402.1 923.999 402.5C949.999 402.9 978.166 411.333 988.999 415.5" stroke="#21325B" stroke-width="5" stroke-linecap="round"/>
<path d="M983 413.5C973.667 403.167 948.1 381.3 920.5 376.5" stroke="#21325B" stroke-width="5" stroke-linecap="round"/>
<path d="M157.5 608.5C157.5 609.426 156.629 611.089 152.998 613.133C149.57 615.063 144.444 616.883 137.893 618.442C124.832 621.552 106.661 623.5 86.5 623.5C66.3393 623.5 48.1678 621.552 35.1067 618.442C28.5564 616.883 23.4302 615.063 20.0023 613.133C16.3705 611.089 15.5 609.426 15.5 608.5C15.5 607.574 16.3705 605.911 20.0023 603.867C23.4302 601.937 28.5564 600.117 35.1067 598.558C48.1678 595.448 66.3393 593.5 86.5 593.5C106.661 593.5 124.832 595.448 137.893 598.558C144.444 600.117 149.57 601.937 152.998 603.867C156.629 605.911 157.5 607.574 157.5 608.5Z" stroke="#21325B" stroke-width="5"/>
<path d="M0 152C0 96.7715 44.7715 52 100 52V52C155.228 52 200 96.7715 200 152V172H100H0V152Z" fill="#21325B"/>
<path d="M87.0142 592.5V170.5M87.0142 52.5259V21.026C86.847 14.8593 88.0122 4.40848 98.5129 5.0262C107.012 5.5262 108.013 13.526 108.013 21.026V52.5259" stroke="#21325B" stroke-width="5" stroke-linecap="round"/>
<path d="M551.038 292.738C542.808 298.092 549.152 322.938 552.581 332.891L556.695 323.625C558.238 319.506 565.953 316.418 571.097 323.625C576.125 330.67 582.24 336.837 585.498 338.553C599.076 346.378 596.641 333.577 593.727 326.199C592.012 322.767 587.143 311.064 585.497 299.945C583.852 288.826 576.754 287.59 572.639 287.075C568.867 286.732 559.267 287.384 551.038 292.738Z" fill="#21325B"/>
<path d="M521.5 307L538 305.5M538.5 296.5L513 292M543 289L527.5 278.5" stroke="#21325B" stroke-width="5" stroke-linecap="round"/>
<path d="M591.5 323C591.167 319.833 592.626 314.233 595.5 311C599.5 306.5 600.667 298 601 293C601.333 291 602.527 285.566 598 285C594 284.5 593.5 288 593 290.5C592.833 293.666 588 296.389 588 288.5C588 282.5 588.5 281 588.5 275C588.5 268.5 589.5 262.5 582 262.5C576 263 577 267 576.133 277M576.5 284C576.162 281.431 576.057 279.103 576.133 277M576.133 277C573.492 276.314 568.611 276.756 566.739 282.5M566 287C566.071 285.225 566.335 283.739 566.739 282.5M566.739 282.5C563.992 281.666 558.4 282.1 558 290.5" stroke="#21325B" stroke-width="5" stroke-linecap="round"/>
<path d="M550 315C540.333 329.833 525.9 375 555.5 413" stroke="#21325B" stroke-width="5" stroke-linecap="round"/>
<path d="M623.499 365.001C621.5 354.5 611.5 348 606.999 329.001C605.453 322.473 603.499 316.501 597.499 317.001C592.699 317.401 591 323.5 591.999 327.5C594.5 333.5 596.999 343.1 588.999 341.5C580.999 339.9 573.333 330.5 570.499 326C568.166 322 561 317.5 555.499 325.5C554.5 326.954 554 331.347 560 334.147M570 342C567.333 337.5 554.936 328.5 551 336.5C549.524 339.5 550.5 343.5 558 347M558 347C555.5 349.5 552.886 354.2 558.523 359M558 347L567 353.5M568 364C563.578 362.421 560.537 360.715 558.523 359M558.523 359C556.182 362.334 554 369.9 564 373.5C574 377.1 594.833 390.667 604 397" stroke="#21325B" stroke-width="5" stroke-linecap="round"/>
<path d="M731.5 324C724.167 335.333 717 353.7 711 386.5" stroke="#21325B" stroke-width="5" stroke-linecap="round"/>
<path d="M723 395.5C693.8 372.7 641.074 368.833 622.241 364C614.074 372.5 600.341 392.7 610.741 405.5C623.741 421.5 664.241 462.5 715.241 460C756.041 458 772 424 779 398C786.522 370.06 787.759 364.5 796.5 306" stroke="#21325B" stroke-width="5" stroke-linecap="round"/>
<path d="M638.5 580.303C640.488 580.228 642.488 580.127 644.5 580C733 574.43 742 493.5 743.5 455C694 470.5 635.5 460.5 595 444C559 426.999 516 388.5 458 413C433 425.666 379.2 462.2 352 523C359 524 380.7 528.2 401.5 557C410.333 552.167 438 533.2 478 496C515.902 554.797 569.861 582.898 638.5 580.303ZM638.5 580.303C592.833 584.368 490.3 579.1 445.5 525.5" stroke="#21325B" stroke-width="5" stroke-linecap="round"/>
<path d="M445.5 524.5C506.7 584.5 604.333 586.167 645.5 579.5C551.9 587.9 496 527 478.5 495.5L445.5 524.5Z" stroke="#21325B"/>
<path d="M328.5 515C389.3 402.6 476.333 396.667 511.5 406.5C437.5 395.3 374.667 480 352.5 524L328.5 515Z" stroke="#21325B" stroke-width="5"/>
<path d="M352.5 542C337.166 535.167 305.4 526.8 301 548C299.5 554 310.5 560.4 338.5 566C366.5 571.6 376.5 569.667 378 568C381.833 565.333 391 557.7 395 550.5" stroke="#21325B" stroke-width="5" stroke-linecap="round"/>
<path d="M352.5 542C354 538 357.7 530 364.5 526" stroke="#21325B" stroke-width="5" stroke-linecap="round"/>
<path d="M336 519L325.5 530.5" stroke="#21325B" stroke-width="5" stroke-linecap="round"/>
<path d="M325.5 530.5C313.333 524.667 288.6 515.3 283 526.5C277.4 537.7 292.334 546.167 300.5 549" stroke="#21325B" stroke-width="5" stroke-linecap="round"/>
<path d="M499.5 467C493.833 476.667 484.5 490 471.5 502" stroke="#21325B" stroke-width="5" stroke-linecap="round"/>
<path d="M651 493C636 478.333 602.2 447.2 587 440" stroke="#21325B" stroke-width="5" stroke-linecap="round"/>
<path d="M389 559C390 560 397 561.5 401.5 556.5" stroke="#21325B" stroke-width="5" stroke-linecap="round"/>
<path d="M354.5 522.5C353.5 524.333 352.3 529.3 355.5 534.5" stroke="#21325B" stroke-width="5" stroke-linecap="round"/>
<path d="M328 515.5C326.667 517 325.9 520.3 331.5 523.5" stroke="#21325B" stroke-width="5" stroke-linecap="round"/>
<path d="M447 406C446.5 394.5 448.7 371.2 461.5 370C474.3 368.8 516.5 368.833 536 369M786.5 369H825M825 369C831.5 369 843.9 370.8 841.5 390C838.5 414 828.5 555 841.5 566.5C842.167 567.5 845.5 569.4 853.5 569C861.5 568.6 862.833 560.5 862.5 556.5L869.5 390C869.5 383 871.5 373.357 865 371.5C860.369 370.176 836.5 368.5 825 369Z" stroke="#21325B" stroke-width="5" stroke-linecap="round"/>
<path d="M706.5 556.5C744.333 556.333 811.2 558.1 844 568.5M483.5 556C453.5 558.833 389.607 569.592 371 570.5C350.5 571.5 324.5 564.5 310.5 561C286.5 558.833 231.6 557.9 206 567.5C180.4 577.1 166 612.166 162 628.5L671.5 637" stroke="#21325B" stroke-width="5" stroke-linecap="round"/>
<path d="M424.5 634L426.5 654C427.333 658.667 434 666.5 447 666" stroke="#21325B" stroke-width="5" stroke-linecap="round"/>
<path d="M441.5 634.5L445 665" stroke="#21325B" stroke-width="5" stroke-linecap="round"/>
<path d="M458 634.5L459.5 653C460 657.167 460 665 447.5 666" stroke="#21325B" stroke-width="5" stroke-linecap="round"/>
<path d="M162 629.5C155 644.667 145.3 680.1 144.5 700.5C144.167 704.667 144.5 712.8 146.5 714C148.5 715.2 155.834 716.333 159.5 716.5M159.5 716.5L186.5 629.5M159.5 716.5C180.5 717.455 181 702.5 185 693L207 630.5" stroke="#21325B" stroke-width="5" stroke-linecap="round"/>
<path d="M650.5 729.5C653.5 686 674.054 605.7 703 591.5C729.5 578.5 805.5 561 827.5 564.5" stroke="#21325B" stroke-width="5" stroke-linecap="round"/>
<path d="M650.5 729.5L675 737.5" stroke="#21325B" stroke-width="5" stroke-linecap="round"/>
<path d="M675 737.5L691 729" stroke="#21325B" stroke-width="5" stroke-linecap="round"/>
<path d="M691 729C696.167 696 712.2 628.3 735 621.5C757.8 614.7 807.167 603 829 598C836 596.397 845.658 596.894 852 610C859.5 625.5 867 667.5 870 688.5" stroke="#21325B" stroke-width="5" stroke-linecap="round"/>
<path d="M675 736.5C678.667 694.167 694.6 608.2 731 597C767.4 585.8 822.167 573 844.5 568.5" stroke="#21325B" stroke-width="5" stroke-linecap="round"/>
<path d="M870 688.5L851 684.5" stroke="#21325B" stroke-width="5" stroke-linecap="round"/>
<path d="M870 688.5C874.167 689.333 884.4 688.2 892 677" stroke="#21325B" stroke-width="5" stroke-linecap="round"/>
<path d="M892 677C888.833 646.833 876.1 583.9 852.5 569.5" stroke="#21325B" stroke-width="5" stroke-linecap="round"/>
<path d="M851 684.5C848 658.833 841.5 612.5 818.5 600.5" stroke="#21325B" stroke-width="5" stroke-linecap="round"/>
</svg>
