<svg width="344" height="257" viewBox="0 0 344 257" fill="none" xmlns="http://www.w3.org/2000/svg">
<path d="M156 119.778V221L4 197.026V28" stroke="#21325B" stroke-width="7" stroke-miterlimit="10" stroke-linecap="round" stroke-linejoin="round"/>
<path d="M4 28L156 52.1043V84" stroke="#21325B" stroke-width="7" stroke-miterlimit="10" stroke-linecap="round" stroke-linejoin="round"/>
<path d="M256 25V106M156 221L195.5 207.5" stroke="#21325B" stroke-width="7" stroke-miterlimit="10" stroke-linecap="round" stroke-linejoin="round"/>
<path d="M156 52L256 25" stroke="#21325B" stroke-width="7" stroke-miterlimit="10" stroke-linecap="round" stroke-linejoin="round"/>
<path d="M4 28L102.767 4L256 24.8485" stroke="#21325B" stroke-width="7" stroke-miterlimit="10" stroke-linecap="round" stroke-linejoin="round"/>
<path d="M193 42V84" stroke="#21325B" stroke-width="7" stroke-miterlimit="10" stroke-linecap="round" stroke-linejoin="round"/>
<path d="M205 80L193 84" stroke="#21325B" stroke-width="7" stroke-miterlimit="10" stroke-linecap="round" stroke-linejoin="round"/>
<path d="M230 73L220 76" stroke="#21325B" stroke-width="7" stroke-miterlimit="10" stroke-linecap="round" stroke-linejoin="round"/>
<path d="M230 33V72" stroke="#21325B" stroke-width="7" stroke-miterlimit="10" stroke-linecap="round" stroke-linejoin="round"/>
<path d="M94 156V182" stroke="#21325B" stroke-width="7" stroke-miterlimit="10" stroke-linecap="round" stroke-linejoin="round"/>
<path d="M112 158V185" stroke="#21325B" stroke-width="7" stroke-miterlimit="10" stroke-linecap="round" stroke-linejoin="round"/>
<path d="M278.5 257C314.675 257 344 227.451 344 191C344 154.549 314.675 125 278.5 125C242.325 125 213 154.549 213 191C213 227.451 242.325 257 278.5 257Z" fill="#21325B"/>
<path d="M274.155 172H290.256C300.589 172 309 180.526 309 191C309 201.474 300.589 210 290.256 210H247" stroke="white" stroke-width="7" stroke-miterlimit="10" stroke-linecap="round" stroke-linejoin="round"/>
<path d="M285 182L274 171.624L285 161" stroke="white" stroke-width="7" stroke-miterlimit="10" stroke-linecap="round" stroke-linejoin="round"/>
</svg>
