<svg width="1292" height="1221" viewBox="0 0 1292 1221" fill="none" xmlns="http://www.w3.org/2000/svg">
<path d="M967 105.5C1029.4 85.9 1071.67 127 1085 150C1119 45.9999 1046 2.5 984.5 18C920 31.5 890.333 16.3333 876.5 0C880.667 43.3333 904.6 125.1 967 105.5Z" fill="#21325B"/>
<path d="M933 105.5C919.833 147.167 910.8 236.1 980 258.5C1009.5 265.5 1052 249.5 1068 208.5L1081 183" stroke="#21325B" stroke-width="5" stroke-linecap="round"/>
<path d="M1081 155.301C1083.65 150.3 1089.99 143.53 1094.11 156.456C1098.23 169.382 1087.09 179.538 1081 183" stroke="#21325B" stroke-width="5" stroke-linecap="round"/>
<path d="M1086 160C1087.5 161 1089.7 163.9 1086.5 167.5" stroke="#21325B" stroke-width="5" stroke-linecap="round"/>
<path d="M990 206C990 209.175 989.154 211.934 987.918 213.824C986.668 215.737 985.228 216.5 984 216.5C982.772 216.5 981.332 215.737 980.082 213.824C978.846 211.934 978 209.175 978 206C978 202.825 978.846 200.066 980.082 198.176C981.332 196.263 982.772 195.5 984 195.5C985.228 195.5 986.668 196.263 987.918 198.176C989.154 200.066 990 202.825 990 206Z" stroke="#21325B" stroke-width="5"/>
<path d="M977 231C979.833 234 987.1 237.8 993.5 229" stroke="#21325B" stroke-width="5" stroke-linecap="round"/>
<path d="M984.5 136C983.5 143 978.8 158.7 968 165.5" stroke="#21325B" stroke-width="5" stroke-linecap="round"/>
<path d="M983.5 174.5C982.167 171.5 975.2 166.3 968 165.5" stroke="#21325B" stroke-width="5" stroke-linecap="round"/>
<path d="M1015.5 123C1020.83 122.833 1032.4 125.1 1036 135.5" stroke="#21325B" stroke-width="5" stroke-linecap="round"/>
<path d="M939 133C940 128.5 944.6 119.6 955 120" stroke="#21325B" stroke-width="5" stroke-linecap="round"/>
<ellipse cx="956.5" cy="137.5" rx="5" ry="6.5" fill="#21325B"/>
<ellipse cx="1020.5" cy="146.5" rx="5" ry="5.5" fill="#21325B"/>
<path d="M1064.5 253C1113.67 269.833 1221.4 318.5 1259 378.5C1296.6 438.5 1254.5 468 1219.5 479L1151.5 500" stroke="#21325B" stroke-width="5" stroke-linecap="round"/>
<path d="M971.5 256L968 288.5M1070.5 205.5L1059 276.5M951.5 286.5C972 292.167 1025.9 296.3 1077.5 267.5" stroke="#21325B" stroke-width="5" stroke-linecap="round"/>
<path d="M388 100L472 169M414.5 178L452 196M338 228.5C379.005 228.5 401.995 228.5 443 228.5M411 282.5L452 270M366.5 357L472 299" stroke="#21325B" stroke-width="5" stroke-linecap="round"/>
<path d="M604 232C604 255.131 598.81 275.948 590.546 290.894C582.234 305.927 571.152 314.5 559.5 314.5C547.848 314.5 536.766 305.927 528.454 290.894C520.19 275.948 515 255.131 515 232C515 208.869 520.19 188.052 528.454 173.106C536.766 158.073 547.848 149.5 559.5 149.5C571.152 149.5 582.234 158.073 590.546 173.106C598.81 188.052 604 208.869 604 232Z" stroke="#21325B" stroke-width="5"/>
<ellipse cx="555.5" cy="232" rx="8" ry="15" fill="#21325B"/>
<path d="M742.5 247C745.7 237.4 743.833 223.333 742.5 217.5L758 223C764.4 230.6 760.667 238.167 758 241L742.5 247Z" fill="#21325B"/>
<path d="M758 223L566.5 150.5M573 310.5L758 241" stroke="#21325B" stroke-width="5" stroke-linecap="round"/>
<path d="M555 220L601 205.5M555 244L601 260.5" stroke="#21325B" stroke-width="5" stroke-linecap="round"/>
<path d="M660 310C657.167 311.167 654.7 315.4 661.5 319C668.3 322.6 666.667 327.5 665 329.5C662.333 331.833 653.7 333.6 640.5 322C627.3 310.4 649 303.167 661.5 301M642.5 327C639.667 327.667 634.8 330.3 638 335.5C641.2 340.7 657.333 344 665 345C665.331 345.033 665.666 345.05 666 345.049M663 331.5C664.667 331.833 672 333.773 672 339.5C672 343.553 669.026 345.037 666 345.049M640.5 339.5C637.708 341.206 633.878 345.539 639.161 350M666 345.049C670.4 351.087 665.833 354.199 663 355C662.305 355.103 661.459 355.193 660.5 355.255M639.161 350C639.555 350.333 640 350.667 640.5 351C646.588 355.058 655.249 355.59 660.5 355.255M639.161 350C637.714 353.414 637.175 360.959 645.5 365.535C646.117 365.874 646.782 366.196 647.5 366.5C657.9 370.9 660.5 363.667 660.5 359.5V355.255M688.5 322C682.833 317.5 671.8 311.2 673 322C674.2 332.8 681.833 337.5 685.5 338.5" stroke="#21325B" stroke-width="5" stroke-linecap="round"/>
<path d="M688.5 365C685.5 362.167 680.4 352.9 684 338.5" stroke="#21325B" stroke-width="5" stroke-linecap="round"/>
<path d="M691.5 310.5C717 330 748.2 370.5 761 408.5C768.833 429.333 784.1 473.2 782.5 482M858 521.5L820.5 551C788.5 573 760.667 570.5 746.5 560C702.1 530 720.631 443.094 714.937 404.969C713 392 708.684 382.064 695 380.5C689.833 379.833 678.9 377.6 676.5 374" stroke="#21325B" stroke-width="5" stroke-linecap="round"/>
<path d="M664 277L660 314M686.5 319L696.5 264.5M654.5 368C654.5 377.5 650 390 660 393C672.21 396.663 673.5 385.5 676 374L682.5 339.5" stroke="#21325B" stroke-width="5" stroke-linecap="round"/>
<path d="M835.5 426C825.167 434.333 800.1 457.3 782.5 482.5" stroke="#21325B" stroke-width="5" stroke-linecap="round"/>
<path d="M818.5 437.5C818.167 428.5 819.3 408.3 826.5 399.5C835.5 388.5 866 525 858.5 535.5M858.5 535.5C856.833 536.333 852.4 536.5 848 530.5M858.5 535.5C874 523.167 907.2 490.6 916 459" stroke="#21325B" stroke-width="5" stroke-linecap="round"/>
<path d="M948.121 994.313C886.563 827.851 891.644 683.499 911.127 638.522C978 688 1106 647.5 1149.37 630C1207.38 691.358 1157.26 1019.64 1124.95 1176.11C1112.52 1196.57 1085.74 1186.06 1073.9 1178.25L1059.1 1069.59L1042.09 1164.75C1032.62 1180.66 1004.6 1177.54 991.774 1173.98L948.121 994.313Z" fill="#21325B"/>
<path d="M933.57 418C913.386 450.248 882.776 535.903 912 636C940 658.5 1000.5 680 1146.5 630C1154 624 1153.55 627.481 1152.75 595.147C1151.75 554.73 1152.25 464.437 1141.74 418" stroke="#21325B" stroke-width="5" stroke-linecap="round"/>
<path d="M826 400C845.167 368.5 903 297.5 969 269.5" stroke="#21325B" stroke-width="5" stroke-linecap="round"/>
<path d="M1270 441.5C1286.67 461.833 1303.2 525.8 1270 563C1236.8 600.2 1177.83 636.5 1152.5 650M1152.5 553L1196 505.5C1198.83 502.167 1203.5 493.4 1199.5 485" stroke="#21325B" stroke-width="5" stroke-linecap="round"/>
<path d="M758 223C760.5 225.833 764 233.4 758 241" stroke="#21325B" stroke-width="5" stroke-linecap="round"/>
<path d="M741.5 217C743.333 222.833 745 236 741.5 247" stroke="#21325B" stroke-width="5" stroke-linecap="round"/>
<path d="M964.715 1187.39C976.639 1187.39 989.059 1178.41 993.033 1173.92C1015.09 1180.08 1031.54 1175.21 1037 1172V1191.88C1023.29 1206.25 980.364 1209.2 961.735 1202.78C950.556 1197.65 954.511 1187.39 964.715 1187.39Z" stroke="#21325B" stroke-width="5"/>
<path d="M1057.97 1188.72C1065.77 1187.72 1074.73 1182.49 1078.23 1180C1094.44 1188.97 1111.5 1186.23 1118 1183.74V1194.94C1118 1202.41 1112 1204.28 1108.24 1205.53L1072.98 1216.11C1063.97 1218.39 1048.96 1220.47 1042.21 1210.51C1034.63 1199.32 1048.21 1189.96 1057.97 1188.72Z" stroke="#21325B" stroke-width="5"/>
<path d="M3 581.5L15 598.5M23.5 598.5V578M32 598.5L44 578" stroke="#21325B" stroke-width="5" stroke-linecap="round"/>
<path d="M348.846 1051L292.313 1030.33C291.525 1030.04 291 1029.29 291 1028.45V974.255C291 972.952 292.225 971.997 293.488 972.315L293.629 972.351M348.846 1051V993.5M348.846 1051L384.489 1011.25C384.818 1010.89 385 1010.41 385 1009.92V958.471M348.846 993.5L293.629 972.351M348.846 993.5L385 958.471M293.629 972.351L328.844 936.944C329.413 936.372 330.269 936.198 331.016 936.502L385 958.471" stroke="#21325B" stroke-width="5" stroke-linecap="round"/>
<path d="M564 1060.16V1106.51C564 1106.99 564.174 1107.46 564.491 1107.82L590.723 1138M564 1060.16L590.723 1086.32M564 1060.16L609.51 1052.89C610.133 1052.79 610.767 1052.99 611.219 1053.43L637 1078.47M590.723 1138V1086.32M590.723 1138L635.375 1129.47C636.318 1129.29 637 1128.46 637 1127.5V1078.47M590.723 1086.32L637 1078.47" stroke="#21325B" stroke-width="5" stroke-linecap="round"/>
<path d="M445 789.5L463 803.5M474.5 803.5V772M486.5 803.5L500 783" stroke="#21325B" stroke-width="5" stroke-linecap="round"/>
<path d="M664 745L570 749" stroke="#21325B" stroke-width="5" stroke-linecap="round"/>
<path d="M665 745L789 756" stroke="#21325B" stroke-width="5" stroke-linecap="round"/>
<path d="M790 756L765 872" stroke="#21325B" stroke-width="5" stroke-linecap="round"/>
<path d="M765 872L662 890" stroke="#21325B" stroke-width="5" stroke-linecap="round"/>
<path d="M662 889V766" stroke="#21325B" stroke-width="5" stroke-linecap="round"/>
<path d="M662 767L789 757" stroke="#21325B" stroke-width="5" stroke-linecap="round"/>
<path d="M662 767L570 749" stroke="#21325B" stroke-width="5" stroke-linecap="round"/>
<path d="M568 749L574 841" stroke="#21325B" stroke-width="5" stroke-linecap="round"/>
<path d="M574 841L662 890" stroke="#21325B" stroke-width="5" stroke-linecap="round"/>
<path d="M663 745V765" stroke="#21325B" stroke-width="5" stroke-linecap="round"/>
<rect x="708.212" y="794.881" width="37.2431" height="19.996" rx="8.5" transform="rotate(-3.53924 708.212 794.881)" stroke="#21325B" stroke-width="3"/>
<path d="M533 612C550.629 640.048 598.814 693.175 650.526 681.296L723 627.839" stroke="#21325B" stroke-width="5" stroke-linecap="round"/>
<path d="M533 612L615 585" stroke="#21325B" stroke-width="5" stroke-linecap="round"/>
<path d="M615 585C630.382 599 673.516 627 723 627" stroke="#21325B" stroke-width="5" stroke-linecap="round"/>
<path d="M579 626C586.111 624.333 602.467 619 611 611" stroke="#21325B" stroke-width="5" stroke-linecap="round"/>
<path d="M600 644C604.444 643 614.667 639.2 620 632" stroke="#21325B" stroke-width="5" stroke-linecap="round"/>
<path d="M624 657C629.667 656 644.6 651.4 651 637" stroke="#21325B" stroke-width="5" stroke-linecap="round"/>
<path d="M661.281 916L571.5 842.5L661.5 892.5L767.5 874L777.5 875.5L661.281 916Z" fill="#21325B" fill-opacity="0.3"/>
</svg>
