<svg width="400" height="395" viewBox="0 0 400 395" fill="none" xmlns="http://www.w3.org/2000/svg">
<path d="M372.903 342.968H64.2581C49.5484 342.968 37.6774 330.839 37.6774 316.387V122.065C37.6774 107.355 49.8065 95.4839 64.2581 95.4839H372.903C387.613 95.4839 399.484 107.613 399.484 122.065V316.129C399.484 331.355 387.871 342.968 372.903 342.968Z" fill="#00DFFC"/>
<path d="M335.742 299.097H27.0968C12.3871 299.097 0.516144 286.968 0.516144 272.516V78.4515C0.516144 63.7418 12.3871 51.6128 27.0968 51.6128H335.742C350.452 51.6128 362.323 63.7418 362.323 78.1934V272.258C362.581 287.484 350.968 299.097 335.742 299.097Z" fill="#2D1582"/>
<path opacity="0.7" d="M70.1935 225.032H36.129" stroke="white" stroke-width="4" stroke-miterlimit="10" stroke-linecap="round" stroke-linejoin="round"/>
<path opacity="0.7" d="M105.548 248.774H36.129" stroke="white" stroke-width="4" stroke-miterlimit="10" stroke-linecap="round" stroke-linejoin="round"/>
<path opacity="0.7" d="M326.968 219.096H261.161V248.774H326.968V219.096Z" stroke="white" stroke-width="4" stroke-miterlimit="10" stroke-linecap="round" stroke-linejoin="round"/>
<path d="M326.71 105.806H36.129" stroke="white" stroke-width="4" stroke-miterlimit="10" stroke-linecap="round" stroke-linejoin="round"/>
<path d="M326.71 158.451H36.129" stroke="white" stroke-width="4" stroke-miterlimit="10" stroke-linecap="round" stroke-linejoin="round"/>
</svg>
