<svg width="400" height="339" viewBox="0 0 400 339" fill="none" xmlns="http://www.w3.org/2000/svg">
<g clip-path="url(#clip0)">
<path d="M200.191 0C200.191 0 125.31 50.8118 62.6553 43.9351C62.6553 47.7555 62.6553 51.1939 62.6553 55.0143C62.6553 63.8013 62.6553 72.2063 62.6553 80.9933C62.6553 90.9265 62.6553 100.478 62.6553 110.411C62.6553 117.67 62.6553 124.928 62.6553 132.187C62.6553 141.738 62.6553 151.289 63.4194 161.223C63.8014 166.953 64.5655 172.302 65.7116 178.032C66.8578 184.527 68.0039 191.404 69.9141 197.899C71.8243 205.158 73.7345 212.416 76.4089 219.675C79.0832 227.316 82.5216 234.957 85.96 242.216C89.7804 250.239 94.3649 257.88 99.3315 265.139C104.68 272.779 110.411 280.42 116.906 286.915C123.782 294.174 131.423 301.051 139.446 307.163C148.233 314.04 157.402 319.771 167.335 324.737C178.033 330.468 189.494 335.053 200.955 338.491C212.416 334.671 223.878 330.086 234.575 324.737C244.126 319.771 253.677 314.04 262.464 307.163C270.487 301.051 277.746 294.174 285.005 286.915C291.5 280.038 297.23 272.779 302.579 265.139C307.545 257.88 311.748 250.239 315.95 242.216C319.771 234.957 322.827 227.316 325.501 219.675C328.176 212.416 330.086 205.54 331.996 197.899C333.524 191.404 335.053 184.909 336.199 178.032C336.963 172.302 337.727 166.953 338.491 161.223C339.255 151.671 339.255 142.12 339.255 132.187C339.255 124.928 339.255 117.67 339.255 110.411C339.255 100.478 339.255 90.9265 339.255 80.9933C339.255 72.2063 339.255 63.8013 339.255 55.0143C339.255 51.1939 339.255 47.7555 339.255 43.9351C275.072 50.8118 200.191 0 200.191 0Z" fill="#377dff"/>
<path opacity="0.08" d="M200.191 0C200.191 0 125.31 50.8118 62.6553 43.9351C62.6553 47.7555 62.6553 51.1939 62.6553 55.0143C62.6553 63.8013 62.6553 72.2063 62.6553 80.9933C62.6553 90.9265 62.6553 100.478 62.6553 110.411C62.6553 117.67 62.6553 124.928 62.6553 132.187C62.6553 141.738 62.6553 151.289 63.4194 161.223C63.8014 166.953 64.5655 172.302 65.7116 178.032C66.8578 184.527 68.0039 191.404 69.9141 197.899C71.8243 205.158 73.7345 212.416 76.4089 219.675C79.0832 227.316 82.5216 234.957 85.96 242.216C89.7804 250.239 94.3649 257.88 99.3315 265.139C104.68 272.779 110.411 280.42 116.906 286.915C123.782 294.174 131.423 301.051 139.446 307.163C148.233 314.04 157.402 319.771 167.335 324.737C178.033 330.468 189.494 335.053 200.955 338.491V0H200.191Z" fill="white"/>
<path d="M33.2379 193.696L42.0249 211.652C42.4069 212.034 42.789 212.416 43.171 212.416L62.6552 215.091C63.8014 215.091 64.1834 216.619 63.4193 217.383L49.2837 231.137C48.9017 231.519 48.9017 231.901 48.9017 232.283L52.3401 251.767C52.7221 252.913 51.1939 253.677 50.4298 253.295L32.4738 244.508C32.0917 244.508 31.7097 244.508 31.3276 244.508L13.7536 253.677C12.6075 254.059 11.4614 253.295 11.8434 252.149L15.2818 232.665C15.2818 232.283 15.2818 231.901 14.8998 231.519L0.382082 217.765C-0.382006 217.001 3.78938e-05 215.473 1.14617 215.473L20.6304 212.798C21.0125 212.798 21.3945 212.416 21.7765 212.034L30.5636 193.696C31.3276 192.932 32.8558 192.932 33.2379 193.696Z" fill="url(#paint0_linear)"/>
<path d="M117.288 193.696L126.075 211.652C126.457 212.034 126.839 212.416 127.221 212.416L146.705 215.091C147.851 215.091 148.233 216.619 147.469 217.383L133.333 231.137C132.951 231.519 132.951 231.901 132.951 232.283L136.39 251.767C136.772 252.913 135.244 253.677 134.48 253.295L116.523 244.508C116.141 244.126 115.759 244.126 115.377 244.508L97.8033 253.677C96.6572 254.059 95.511 253.295 95.8931 252.149L99.3315 232.665C99.3315 232.283 99.3315 231.901 98.9494 231.519L84.4318 217.765C83.6677 217.001 84.0497 215.473 85.1958 215.473L104.68 212.798C105.062 212.798 105.444 212.416 105.826 212.034L114.613 194.078C115.377 192.932 116.906 192.932 117.288 193.696Z" fill="url(#paint1_linear)"/>
<path d="M201.337 193.696L210.124 211.652C210.506 212.034 210.888 212.416 211.27 212.416L230.755 215.091C231.901 215.091 232.283 216.619 231.519 217.383L217.383 231.137C217.001 231.519 217.001 231.901 217.001 232.283L220.439 251.767C220.821 252.913 219.293 253.677 218.529 253.295L200.573 244.508C200.191 244.126 199.809 244.126 199.427 244.508L181.853 253.677C180.707 254.059 179.561 253.295 179.943 252.149L183.381 232.665C183.381 232.283 183.381 231.901 182.999 231.519L168.481 217.765C167.717 217.001 168.099 215.473 169.245 215.473L188.73 212.798C189.112 212.798 189.494 212.416 189.876 212.034L198.663 194.078C199.427 192.932 200.955 192.932 201.337 193.696Z" fill="url(#paint2_linear)"/>
<path d="M285.387 193.696L294.174 211.652C294.556 212.034 294.938 212.416 295.32 212.416L314.804 215.091C315.95 215.091 316.332 216.619 315.568 217.383L301.433 231.137C301.051 231.519 301.051 231.901 301.051 232.283L304.489 251.767C304.871 252.913 303.343 253.677 302.579 253.295L284.623 244.508C284.241 244.126 283.859 244.126 283.477 244.508L265.903 253.677C264.756 254.059 263.61 253.295 263.992 252.149L267.431 232.665C267.431 232.283 267.431 231.901 267.049 231.519L252.531 217.765C251.767 217.001 252.149 215.473 253.295 215.473L272.779 212.798C273.161 212.798 273.543 212.416 273.926 212.034L282.713 194.078C283.477 192.932 285.005 192.932 285.387 193.696Z" fill="url(#paint3_linear)"/>
<path d="M369.437 193.696L378.224 211.652C378.606 212.034 378.988 212.416 379.37 212.416L398.854 215.091C400 215.091 400.382 216.619 399.618 217.383L385.482 231.137C385.1 231.519 385.1 231.901 385.1 232.283L388.539 251.767C388.921 252.913 387.393 253.677 386.629 253.295L368.672 244.508C368.29 244.126 367.908 244.126 367.526 244.508L349.952 253.677C348.806 254.059 347.66 253.295 348.042 252.149L351.48 232.665C351.48 232.283 351.48 231.901 351.098 231.519L336.581 217.765C335.817 217.001 336.199 215.473 337.345 215.473L356.829 212.798C357.211 212.798 357.593 212.416 357.975 212.034L366.762 194.078C367.526 192.932 369.054 192.932 369.437 193.696Z" fill="url(#paint4_linear)"/>
</g>
<defs>
<linearGradient id="paint0_linear" x1="31.9679" y1="193.06" x2="31.9679" y2="254.006" gradientUnits="userSpaceOnUse">
<stop stop-color="#FDDF4E"/>
<stop offset="1" stop-color="#FFC107"/>
</linearGradient>
<linearGradient id="paint1_linear" x1="116.018" y1="193.06" x2="116.018" y2="254.006" gradientUnits="userSpaceOnUse">
<stop stop-color="#FDDF4E"/>
<stop offset="1" stop-color="#FFC107"/>
</linearGradient>
<linearGradient id="paint2_linear" x1="200.067" y1="193.06" x2="200.067" y2="254.006" gradientUnits="userSpaceOnUse">
<stop stop-color="#FDDF4E"/>
<stop offset="1" stop-color="#FFC107"/>
</linearGradient>
<linearGradient id="paint3_linear" x1="284.117" y1="193.06" x2="284.117" y2="254.006" gradientUnits="userSpaceOnUse">
<stop stop-color="#FDDF4E"/>
<stop offset="1" stop-color="#FFC107"/>
</linearGradient>
<linearGradient id="paint4_linear" x1="368.167" y1="193.06" x2="368.167" y2="254.006" gradientUnits="userSpaceOnUse">
<stop stop-color="#FDDF4E"/>
<stop offset="1" stop-color="#FFC107"/>
</linearGradient>
<clipPath id="clip0">
<rect width="400" height="338.491" fill="white"/>
</clipPath>
</defs>
</svg>
