<svg width="400" height="250" viewBox="0 0 400 250" fill="none" xmlns="http://www.w3.org/2000/svg">
<rect width="400" height="250" fill="#21325B" fill-opacity="0.1"/>
<path d="M242.507 119.609H156.099C154.187 119.609 152.753 117.99 152.753 116.123V35.9495C152.753 33.9576 154.307 32.4637 156.099 32.4637H242.507C244.42 32.4637 245.854 34.0821 245.854 35.9495V115.998C245.973 117.99 244.42 119.609 242.507 119.609Z" fill="#21325B"/>
<path d="M213.705 66.8237H187.412C186.934 66.8237 186.575 67.3217 186.575 68.0687V70.434C186.575 71.0565 186.934 71.6789 187.412 71.6789H213.705C214.183 71.6789 214.541 71.181 214.541 70.434V68.0687C214.541 67.3217 214.183 66.8237 213.705 66.8237ZM213.705 57.1133H187.412C186.934 57.1133 186.575 57.6113 186.575 58.3582V60.7237C186.575 61.3462 186.934 61.9686 187.412 61.9686H213.705C214.183 61.9686 214.541 61.4707 214.541 60.7237V58.3582C214.541 57.7357 214.183 57.1133 213.705 57.1133Z" fill="white"/>
<path d="M186.814 96.453H185.619V93.7142H183.229V96.453H181.914V90.2284H183.229V92.7183H185.619V90.2284H186.934V96.453H186.814Z" fill="white"/>
<path d="M191.834 96.453H188.368V90.2284H191.834V91.3488H189.683V92.7183H191.714V93.8387H189.683V95.3326H191.834V96.453Z" fill="white"/>
<path d="M196.734 96.453L196.256 94.9591H194.104L193.626 96.453H192.312L194.463 90.2284H196.017L198.168 96.453H196.734ZM196.017 93.8387C195.658 92.4693 195.419 91.7223 195.3 91.5978C195.3 91.4733 195.18 91.2243 195.18 91.2243C195.061 91.5978 194.822 92.4693 194.463 93.9632H196.017V93.8387Z" fill="white"/>
<path d="M203.785 93.2162C203.785 94.2122 203.546 95.0836 202.949 95.5816C202.351 96.0796 201.634 96.453 200.558 96.453H198.766V90.2284H200.678C201.634 90.2284 202.351 90.4774 202.949 90.9753C203.546 91.4733 203.785 92.2203 203.785 93.2162ZM202.471 93.2162C202.471 91.8468 201.873 91.2243 200.797 91.2243H200.08V95.3326H200.678C201.873 95.3326 202.471 94.5856 202.471 93.2162Z" fill="white"/>
<path d="M208.446 96.453H204.98V90.2284H208.446V91.3488H206.295V92.7183H208.326V93.8387H206.295V95.3326H208.446V96.453Z" fill="white"/>
<path d="M210.956 93.9633V96.3285H209.641V90.1039H211.434C212.27 90.1039 212.868 90.2285 213.227 90.602C213.585 90.851 213.824 91.3488 213.824 91.9713C213.824 92.3448 213.705 92.7182 213.585 92.9672C213.346 93.2162 213.107 93.4652 212.748 93.5897C213.705 94.9591 214.183 95.8306 214.541 96.3285H213.107L211.673 93.9633H210.956ZM210.956 92.9672H211.314C211.673 92.9672 212.031 92.8429 212.151 92.7184C212.39 92.5939 212.39 92.3449 212.39 92.0959C212.39 91.8469 212.27 91.5979 212.151 91.4734C212.031 91.3489 211.673 91.2244 211.195 91.2244H210.836V92.9672H210.956Z" fill="white"/>
<path d="M218.724 94.7101C218.724 95.3326 218.485 95.7061 218.127 96.0796C217.768 96.453 217.171 96.5775 216.453 96.5775C215.856 96.5775 215.258 96.453 214.78 96.204V94.9591C215.139 95.2081 215.497 95.3326 215.856 95.3326C216.095 95.4571 216.334 95.4571 216.573 95.4571C216.812 95.4571 217.051 95.4571 217.171 95.3326C217.29 95.2081 217.41 95.0836 217.41 94.8346C217.41 94.7101 217.41 94.5856 217.29 94.4611C217.171 94.3367 217.171 94.3367 217.051 94.2122C216.932 94.0877 216.692 93.9632 216.334 93.8387C215.975 93.7142 215.736 93.4652 215.497 93.3407C215.258 93.2162 215.139 92.9672 215.019 92.7182C214.9 92.4693 214.9 92.2203 214.9 91.9713C214.9 91.4733 215.139 90.9753 215.497 90.7264C215.856 90.3529 216.334 90.2284 216.932 90.2284C217.29 90.2284 217.529 90.2284 217.768 90.3529C218.007 90.4774 218.366 90.4774 218.605 90.7264L218.246 91.7223C217.888 91.5978 217.649 91.4733 217.41 91.4733C217.171 91.4733 217.051 91.3488 216.812 91.3488C216.573 91.3488 216.334 91.3488 216.214 91.4733C216.095 91.5978 215.975 91.7223 215.975 91.9713C215.975 92.0958 215.975 92.2203 216.095 92.2203C216.095 92.3448 216.214 92.3448 216.334 92.4693C216.453 92.5938 216.692 92.7182 217.171 92.9672C217.768 93.2162 218.127 93.4652 218.366 93.8387C218.605 93.9632 218.724 94.3367 218.724 94.7101Z" fill="white"/>
<path opacity="0.3" d="M140.802 119.609H54.3937C52.4815 119.609 51.0474 117.99 51.0474 116.123V35.9495C51.0474 33.9576 52.601 32.4637 54.3937 32.4637H140.802C142.714 32.4637 144.148 34.0821 144.148 35.9495V115.998C144.268 117.99 142.714 119.609 140.802 119.609Z" fill="#21325B"/>
<path opacity="0.3" d="M108.772 50.1417H93.4744C92.1597 50.1417 91.2036 51.2621 91.2036 52.5071V54.8724H88.9329C87.6182 54.8724 86.6621 55.9929 86.6621 57.2378V73.1729C86.6621 74.5423 87.7377 75.5381 88.9329 75.5381H104.231C105.545 75.5381 106.501 74.4178 106.501 73.1729V70.8074H108.772C110.087 70.8074 111.043 69.6871 111.043 68.4421V52.5071C111.043 51.1376 110.087 50.1417 108.772 50.1417ZM103.872 73.1729H89.1719C89.0524 73.1729 88.9329 73.0484 88.9329 72.9239V57.6113C88.9329 57.4868 89.0524 57.3623 89.1719 57.3623H91.2036V68.5666C91.2036 69.9361 92.2792 70.932 93.4744 70.932H104.231V72.9239C104.231 73.0484 104.111 73.1729 103.872 73.1729ZM108.533 68.4421H93.8329C93.7134 68.4421 93.5939 68.3177 93.5939 68.1932V52.756C93.5939 52.6315 93.7134 52.5071 93.8329 52.5071H108.533C108.653 52.5071 108.772 52.6315 108.772 52.756V68.0687C108.772 68.3177 108.653 68.4421 108.533 68.4421Z" fill="white"/>
<path opacity="0.3" d="M83.7938 96.453L82.3597 91.5978C82.3597 92.5938 82.4792 93.2162 82.4792 93.5897V96.453H81.4036V90.2284H83.0767L84.5109 94.9591L86.0646 90.2284H87.7378V96.453H86.5426V93.4652C86.5426 93.3407 86.5426 93.2162 86.5426 92.9672C86.5426 92.8427 86.5426 92.3448 86.5426 91.4733L84.989 96.3285H83.7938V96.453Z" fill="white"/>
<path opacity="0.3" d="M94.6695 93.3408C94.6695 94.3368 94.4305 95.2081 93.9524 95.7061C93.4744 96.204 92.7573 96.5775 91.8012 96.5775C90.8451 96.5775 90.128 96.3285 89.6499 95.7061C89.1719 95.0836 88.9329 94.3368 88.9329 93.3408C88.9329 92.3449 89.1719 91.4733 89.6499 90.9753C90.128 90.4774 90.8451 90.1039 91.8012 90.1039C92.7573 90.1039 93.4744 90.3529 93.9524 90.9753C94.311 91.4733 94.6695 92.2204 94.6695 93.3408ZM90.2475 93.3408C90.2475 94.0878 90.367 94.5858 90.606 94.9592C90.8451 95.3327 91.2036 95.4571 91.8012 95.4571C92.7573 95.4571 93.3548 94.7102 93.3548 93.3408C93.3548 91.9714 92.8768 91.2244 91.8012 91.2244C91.3231 91.2244 90.9646 91.3488 90.606 91.7223C90.367 92.0958 90.2475 92.5939 90.2475 93.3408Z" fill="white"/>
<path opacity="0.3" d="M100.765 93.2162C100.765 94.2122 100.526 95.0836 99.9279 95.5816C99.3304 96.0796 98.6133 96.453 97.5377 96.453H95.8645V90.2284H97.7767C98.7328 90.2284 99.4499 90.4774 100.047 90.9753C100.645 91.4733 100.765 92.2203 100.765 93.2162ZM99.4499 93.2162C99.4499 91.8468 98.8523 91.2243 97.7767 91.2243H97.0596V95.3326H97.6572C98.8523 95.3326 99.4499 94.5856 99.4499 93.2162Z" fill="white"/>
<path opacity="0.3" d="M105.665 96.453L105.187 94.9591H103.036L102.558 96.453H101.243L103.394 90.2284H104.948L107.099 96.453H105.665ZM104.948 93.8387C104.589 92.4693 104.35 91.7223 104.231 91.5978C104.231 91.4733 104.111 91.2243 104.111 91.2243C103.992 91.5978 103.753 92.4693 103.394 93.9632H104.948V93.8387Z" fill="white"/>
<path opacity="0.3" d="M107.816 96.453V90.2284H109.13V95.3326H111.521V96.453H107.816Z" fill="white"/>
<path opacity="0.3" d="M116.063 94.7101C116.063 95.3326 115.824 95.7061 115.465 96.0796C115.106 96.453 114.509 96.5775 113.792 96.5775C113.194 96.5775 112.597 96.453 112.119 96.204V94.9591C112.477 95.2081 112.836 95.3326 113.194 95.3326C113.433 95.4571 113.672 95.4571 113.911 95.4571C114.15 95.4571 114.389 95.4571 114.509 95.3326C114.628 95.2081 114.748 95.0836 114.748 94.8346C114.748 94.7101 114.748 94.5856 114.628 94.4611C114.509 94.3367 114.509 94.3367 114.389 94.2122C114.27 94.0877 114.031 93.9632 113.672 93.8387C113.314 93.7142 113.075 93.4652 112.836 93.3407C112.597 93.2162 112.477 92.9672 112.358 92.7182C112.238 92.4693 112.238 92.2203 112.238 91.9713C112.238 91.4733 112.358 90.9753 112.716 90.7264C113.075 90.3529 113.553 90.2284 114.15 90.2284C114.509 90.2284 114.748 90.2284 114.987 90.3529C115.226 90.4774 115.585 90.4774 115.824 90.7264L115.585 91.5978C115.226 91.4733 114.987 91.3488 114.748 91.3488C114.509 91.3488 114.389 91.2243 114.15 91.2243C113.911 91.2243 113.672 91.2243 113.553 91.3488C113.433 91.4733 113.314 91.5978 113.314 91.8468C113.314 91.9713 113.314 92.0958 113.433 92.0958C113.433 92.2203 113.553 92.2203 113.672 92.3448C113.792 92.4693 114.031 92.5938 114.509 92.8427C115.106 93.0917 115.465 93.3407 115.704 93.7142C115.943 93.9632 116.063 94.3367 116.063 94.7101Z" fill="white"/>
<path opacity="0.3" d="M345.647 119.609H259.239C257.327 119.609 255.893 117.99 255.893 116.123V35.9495C255.893 33.9576 257.446 32.4637 259.239 32.4637H345.647C347.559 32.4637 348.993 34.0821 348.993 35.9495V115.998C349.113 117.99 347.559 119.609 345.647 119.609Z" fill="#21325B"/>
<path opacity="0.3" d="M312.781 72.3014V73.1729C312.781 74.5423 311.705 75.6627 310.391 75.6627H291.508C290.193 75.6627 289.117 74.5423 289.117 73.1729V59.9766C289.117 58.6072 290.193 57.4868 291.508 57.4868H292.344V59.9766H291.866C291.747 59.9766 291.627 60.101 291.627 60.2255V72.6748C291.627 72.7993 291.747 72.9239 291.866 72.9239H310.152C310.271 72.9239 310.391 72.7993 310.391 72.6748V72.1769H312.781V72.3014ZM314.813 55.1214H296.527C296.408 55.1214 296.288 55.2459 296.288 55.3704V67.8197C296.288 67.9442 296.408 68.0686 296.527 68.0686H314.813C314.932 68.0686 315.052 67.9442 315.052 67.8197V55.3704C315.171 55.2459 315.052 55.1214 314.813 55.1214ZM315.171 52.6315C316.486 52.6315 317.562 53.752 317.562 55.1214V68.1931C317.562 69.5626 316.486 70.683 315.171 70.683H296.288C294.974 70.683 293.898 69.5626 293.898 68.1931V55.1214C293.898 53.752 294.974 52.6315 296.288 52.6315H315.171ZM302.144 58.3581C302.144 59.4785 301.308 60.3501 300.232 60.3501C299.157 60.3501 298.32 59.4785 298.32 58.3581C298.32 57.2376 299.157 56.3663 300.232 56.3663C301.308 56.3663 302.144 57.2376 302.144 58.3581ZM298.678 63.2134L300.591 61.2215C300.83 60.9726 301.188 60.9726 301.427 61.2215L303.339 63.2134L308.479 57.8602C308.718 57.6112 309.076 57.6112 309.315 57.8602L312.781 61.4704V65.5788H298.678V63.2134Z" fill="white"/>
<path opacity="0.3" d="M294.974 96.453H293.659V93.7142H291.269V96.453H289.954V90.2284H291.269V92.7183H293.659V90.2284H294.974V96.453Z" fill="white"/>
<path opacity="0.3" d="M299.993 96.453H296.527V90.2284H299.993V91.3488H297.842V92.7183H299.873V93.8387H297.842V95.3326H299.993V96.453Z" fill="white"/>
<path opacity="0.3" d="M302.503 93.9633V96.3285H301.188V90.1039H302.981C303.817 90.1039 304.415 90.2285 304.773 90.602C305.132 90.851 305.371 91.3488 305.371 91.9713C305.371 92.3448 305.251 92.7182 305.132 92.9672C304.893 93.2162 304.654 93.4652 304.295 93.5897C305.251 94.9591 305.729 95.8306 306.088 96.3285H304.654L303.22 93.9633H302.503ZM302.503 92.9672H302.861C303.22 92.9672 303.578 92.8429 303.698 92.7184C303.937 92.5939 303.937 92.3449 303.937 92.0959C303.937 91.8469 303.817 91.5979 303.698 91.4734C303.459 91.3489 303.22 91.2244 302.742 91.2244H302.383V92.9672H302.503Z" fill="white"/>
<path opacity="0.3" d="M312.183 93.3408C312.183 94.3368 311.944 95.2081 311.466 95.7061C310.988 96.204 310.271 96.5775 309.315 96.5775C308.359 96.5775 307.642 96.3285 307.164 95.7061C306.686 95.0836 306.447 94.3368 306.447 93.3408C306.447 92.3449 306.686 91.4733 307.164 90.9753C307.642 90.4774 308.359 90.1039 309.315 90.1039C310.271 90.1039 310.988 90.3529 311.466 90.9753C311.825 91.4733 312.183 92.2204 312.183 93.3408ZM307.761 93.3408C307.761 94.0878 307.881 94.5858 308.12 94.9592C308.359 95.3327 308.718 95.4571 309.315 95.4571C310.271 95.4571 310.869 94.7102 310.869 93.3408C310.869 91.9714 310.391 91.2244 309.315 91.2244C308.837 91.2244 308.478 91.3488 308.12 91.7223C307.881 92.0958 307.761 92.5939 307.761 93.3408Z" fill="white"/>
<path opacity="0.3" d="M316.845 94.7101C316.845 95.3326 316.606 95.7061 316.247 96.0796C315.888 96.453 315.291 96.5775 314.574 96.5775C313.976 96.5775 313.379 96.453 312.901 96.204V94.9591C313.259 95.2081 313.618 95.3326 313.976 95.3326C314.335 95.3326 314.454 95.4571 314.693 95.4571C314.932 95.4571 315.171 95.4571 315.291 95.3326C315.41 95.2081 315.53 95.0836 315.53 94.8346C315.53 94.7101 315.53 94.5856 315.41 94.4611C315.291 94.3367 315.291 94.3367 315.171 94.2122C315.052 94.0877 314.813 93.9632 314.454 93.8387C314.096 93.7142 313.857 93.4652 313.618 93.3407C313.379 93.2162 313.259 92.9672 313.14 92.7182C313.02 92.4693 313.02 92.2203 313.02 91.9713C313.02 91.4733 313.14 90.9753 313.498 90.7264C313.857 90.4774 314.335 90.2284 314.932 90.2284C315.291 90.2284 315.53 90.2284 315.769 90.3529C316.008 90.4774 316.367 90.4774 316.606 90.7264L316.247 91.7223C315.888 91.5978 315.649 91.4733 315.41 91.4733C315.171 91.4733 315.052 91.3488 314.813 91.3488C314.574 91.3488 314.335 91.3488 314.215 91.4733C314.096 91.5978 313.976 91.7223 313.976 91.9713C313.976 92.0958 313.976 92.2203 314.096 92.2203C314.096 92.3448 314.215 92.3448 314.335 92.4693C314.454 92.5938 314.693 92.7182 315.171 92.9672C315.769 93.2162 316.127 93.4652 316.367 93.8387C316.845 93.9632 316.845 94.3367 316.845 94.7101Z" fill="white"/>
<path opacity="0.3" d="M242.507 219.203H156.099C154.187 219.203 152.753 217.585 152.753 215.717V135.544C152.753 133.552 154.307 132.058 156.099 132.058H242.507C244.42 132.058 245.854 133.676 245.854 135.544V215.593C245.973 217.585 244.42 219.203 242.507 219.203Z" fill="#21325B"/>
<path opacity="0.3" d="M211.195 176.626H189.085C187.651 176.626 186.456 175.382 186.456 173.888V154.467C186.456 152.973 187.651 151.728 189.085 151.728H211.195C212.629 151.728 213.824 152.973 213.824 154.467V173.888C213.824 175.506 212.509 176.626 211.195 176.626ZM193.507 156.708C192.312 156.708 191.475 157.704 191.475 158.824C191.475 160.069 192.431 160.94 193.507 160.94C194.702 160.94 195.539 159.944 195.539 158.824C195.539 157.704 194.702 156.708 193.507 156.708ZM193.507 162.061C192.312 162.061 191.475 163.057 191.475 164.177C191.475 165.422 192.431 166.294 193.507 166.294C194.702 166.294 195.539 165.298 195.539 164.177C195.539 163.057 194.702 162.061 193.507 162.061ZM193.507 167.289C192.312 167.289 191.475 168.285 191.475 169.406C191.475 170.526 192.431 171.522 193.507 171.522C194.702 171.522 195.539 170.526 195.539 169.406C195.539 168.285 194.702 167.289 193.507 167.289ZM208.685 159.944V158.201C208.685 157.828 208.446 157.579 208.087 157.579H197.57C197.212 157.579 196.973 157.828 196.973 158.201V159.944C196.973 160.318 197.212 160.567 197.57 160.567H208.087C208.566 160.567 208.685 160.318 208.685 159.944ZM208.685 165.173V163.43C208.685 163.057 208.446 162.808 208.087 162.808H197.57C197.212 162.808 196.973 163.057 196.973 163.43V165.173C196.973 165.547 197.212 165.796 197.57 165.796H208.087C208.566 165.796 208.685 165.671 208.685 165.173ZM208.685 170.526V168.783C208.685 168.41 208.446 168.161 208.087 168.161H197.57C197.212 168.161 196.973 168.41 196.973 168.783V170.526C196.973 170.9 197.212 171.149 197.57 171.149H208.087C208.566 171.149 208.685 170.9 208.685 170.526Z" fill="white"/>
<path opacity="0.3" d="M183.348 196.047H182.153V189.823H185.619V190.943H183.468V192.562H185.5V193.682H183.468V196.047H183.348Z" fill="white"/>
<path opacity="0.3" d="M192.073 192.935C192.073 193.931 191.834 194.802 191.355 195.3C190.877 195.798 190.16 196.172 189.204 196.172C188.248 196.172 187.531 195.923 187.053 195.3C186.575 194.802 186.336 193.931 186.336 192.935C186.336 191.939 186.575 191.068 187.053 190.57C187.531 190.072 188.248 189.698 189.204 189.698C190.16 189.698 190.877 189.947 191.355 190.57C191.834 191.068 192.073 191.815 192.073 192.935ZM187.77 192.935C187.77 193.682 187.89 194.18 188.129 194.553C188.368 194.927 188.726 195.051 189.324 195.051C190.28 195.051 190.877 194.304 190.877 192.935C190.877 191.566 190.399 190.819 189.324 190.819C188.846 190.819 188.487 190.943 188.129 191.317C187.89 191.69 187.77 192.188 187.77 192.935Z" fill="white"/>
<path opacity="0.3" d="M198.765 192.935C198.765 193.931 198.526 194.802 198.048 195.3C197.57 195.798 196.853 196.172 195.897 196.172C194.941 196.172 194.224 195.923 193.746 195.3C193.268 194.802 193.029 193.931 193.029 192.935C193.029 191.939 193.268 191.068 193.746 190.57C194.224 190.072 194.941 189.698 195.897 189.698C196.853 189.698 197.57 189.947 198.048 190.57C198.526 191.068 198.765 191.815 198.765 192.935ZM194.463 192.935C194.463 193.682 194.582 194.18 194.822 194.553C195.061 194.927 195.419 195.051 196.017 195.051C196.973 195.051 197.57 194.304 197.57 192.935C197.57 191.566 197.092 190.819 196.017 190.819C195.539 190.819 195.18 190.943 194.822 191.317C194.582 191.69 194.463 192.188 194.463 192.935Z" fill="white"/>
<path opacity="0.3" d="M202.351 196.047H201.036V190.943H199.363V189.823H203.904V190.943H202.351V196.047Z" fill="white"/>
<path opacity="0.3" d="M208.326 196.047H204.861V189.823H208.326V190.943H206.175V192.313H208.207V193.433H206.175V195.051H208.326V196.047Z" fill="white"/>
<path opacity="0.3" d="M210.836 193.557V195.923H209.522V189.698H211.314C212.151 189.698 212.749 189.823 213.107 190.196C213.466 190.445 213.705 190.943 213.705 191.566C213.705 191.939 213.585 192.313 213.466 192.561C213.227 192.81 212.988 193.059 212.629 193.184C213.585 194.553 214.063 195.425 214.422 195.923H212.988L211.553 193.557H210.836ZM210.836 192.561H211.195C211.553 192.561 211.912 192.437 212.032 192.312C212.271 192.188 212.271 191.939 212.271 191.69C212.271 191.441 212.151 191.192 212.032 191.068C211.912 190.943 211.553 190.819 211.075 190.819H210.717V192.561H210.836Z" fill="white"/>
<path opacity="0.3" d="M218.605 194.304C218.605 194.927 218.366 195.3 218.007 195.674C217.649 196.047 217.051 196.172 216.334 196.172C215.737 196.172 215.139 196.047 214.661 195.798V194.553C215.019 194.802 215.378 194.927 215.737 194.927C215.976 195.051 216.215 195.051 216.454 195.051C216.693 195.051 216.932 195.051 217.051 194.927C217.171 194.802 217.29 194.678 217.29 194.429C217.29 194.304 217.29 194.18 217.171 194.055C217.051 193.931 217.051 193.931 216.932 193.806C216.812 193.682 216.573 193.557 216.215 193.433C215.856 193.308 215.617 193.059 215.378 192.935C215.139 192.81 215.019 192.561 214.9 192.313C214.78 192.064 214.78 191.815 214.78 191.566C214.78 191.068 215.019 190.57 215.378 190.321C215.736 189.947 216.215 189.823 216.812 189.823C217.171 189.823 217.41 189.823 217.649 189.947C217.888 190.072 218.246 190.072 218.485 190.321L218.127 191.317C217.768 191.192 217.529 191.068 217.29 191.068C217.051 191.068 216.932 190.943 216.693 190.943C216.454 190.943 216.215 190.943 216.095 191.068C215.976 191.192 215.856 191.317 215.856 191.566C215.856 191.69 215.856 191.815 215.976 191.815C215.976 191.939 216.095 191.939 216.215 192.064C216.334 192.188 216.573 192.313 217.051 192.562C217.649 192.81 218.007 193.059 218.246 193.433C218.485 193.557 218.605 193.931 218.605 194.304Z" fill="white"/>
<path opacity="0.1" d="M345.289 219.203H258.881C256.968 219.203 255.534 217.585 255.534 215.717V135.544C255.534 133.552 257.088 132.058 258.881 132.058H345.289C347.201 132.058 348.635 133.676 348.635 135.544V215.593C348.754 217.585 347.201 219.203 345.289 219.203Z" fill="#21325B"/>
<path opacity="0.1" d="M314.096 151.728H291.986C290.551 151.728 289.476 152.973 289.476 154.342V173.888C289.476 175.381 290.671 176.502 291.986 176.502H314.096C315.53 176.502 316.605 175.257 316.605 173.888V154.342C316.725 152.973 315.53 151.728 314.096 151.728ZM301.308 173.016H292.822V167.663H301.308V173.016ZM301.308 164.177H292.822V158.824H301.308V164.177ZM313.259 173.016H304.774V167.663H313.259V173.016ZM313.259 164.177H304.774V158.824H313.259V164.177Z" fill="white"/>
<path opacity="0.1" d="M290.91 196.047H289.596V190.943H287.922V189.823H292.464V190.943H290.791V196.047H290.91Z" fill="white"/>
<path opacity="0.1" d="M297.005 196.047L296.527 194.553H294.376L293.898 196.047H292.583L294.734 189.823H296.288L298.439 196.047H297.005ZM296.288 193.433C295.93 192.064 295.691 191.317 295.571 191.192C295.571 191.068 295.452 190.819 295.452 190.819C295.332 191.192 295.093 192.064 294.734 193.557H296.288V193.433Z" fill="white"/>
<path opacity="0.1" d="M299.156 189.823H301.069C301.905 189.823 302.503 189.947 302.861 190.196C303.22 190.445 303.459 190.819 303.459 191.441C303.459 191.815 303.339 192.064 303.22 192.313C303.1 192.561 302.861 192.686 302.503 192.686C302.861 192.81 303.1 192.935 303.339 193.184C303.459 193.433 303.578 193.806 303.578 194.18C303.578 194.802 303.339 195.176 302.981 195.549C302.622 195.923 302.025 196.047 301.427 196.047H299.156V189.823ZM300.471 192.188H301.188C301.547 192.188 301.786 192.188 301.905 192.064C302.025 191.939 302.144 191.815 302.144 191.566C302.144 191.317 302.025 191.192 301.905 191.068C301.786 190.943 301.427 190.943 301.069 190.943H300.352V192.188H300.471ZM300.471 193.308V194.927H301.308C301.666 194.927 301.905 194.802 302.025 194.678C302.144 194.553 302.264 194.304 302.264 194.055C302.264 193.557 301.905 193.308 301.188 193.308H300.471Z" fill="white"/>
<path opacity="0.1" d="M304.773 196.047V189.823H306.088V194.927H308.478V196.047H304.773Z" fill="white"/>
<path opacity="0.1" d="M312.9 196.047H309.435V189.823H312.9V190.943H310.749V192.313H312.781V193.433H310.749V195.051H312.9V196.047Z" fill="white"/>
<path opacity="0.1" d="M317.681 194.304C317.681 194.927 317.442 195.3 317.083 195.674C316.725 196.047 316.127 196.172 315.41 196.172C314.812 196.172 314.215 196.047 313.737 195.798V194.553C314.095 194.802 314.454 194.927 314.812 194.927C315.051 195.051 315.29 195.051 315.53 195.051C315.769 195.051 316.008 195.051 316.127 194.927C316.247 194.802 316.366 194.678 316.366 194.429C316.366 194.304 316.366 194.18 316.247 194.055C316.127 193.931 316.127 193.931 316.008 193.806C315.888 193.682 315.649 193.557 315.29 193.433C314.932 193.308 314.693 193.059 314.454 192.935C314.215 192.81 314.095 192.561 313.976 192.313C313.856 192.064 313.856 191.815 313.856 191.566C313.856 191.068 314.095 190.57 314.454 190.321C314.812 189.947 315.29 189.823 315.888 189.823C316.247 189.823 316.486 189.823 316.725 189.947C316.964 190.072 317.322 190.072 317.561 190.321L317.203 191.317C316.844 191.192 316.605 191.068 316.366 191.068C316.127 191.068 316.008 190.943 315.769 190.943C315.529 190.943 315.29 190.943 315.171 191.068C315.051 191.192 314.932 191.317 314.932 191.566C314.932 191.69 314.932 191.815 315.051 191.815C315.051 191.939 315.171 191.939 315.29 192.064C315.41 192.188 315.649 192.313 316.127 192.562C316.725 192.81 317.083 193.059 317.322 193.433C317.561 193.557 317.681 193.931 317.681 194.304Z" fill="white"/>
<path opacity="0.1" d="M140.443 219.203H54.0351C52.1229 219.203 50.6887 217.585 50.6887 215.717V135.544C50.6887 133.552 52.2424 132.058 54.0351 132.058H140.443C142.355 132.058 143.789 133.676 143.789 135.544V215.593C143.909 217.585 142.355 219.203 140.443 219.203Z" fill="#21325B"/>
<path opacity="0.1" d="M110.445 152.848H91.8011C91.0841 152.848 90.4865 153.471 90.4865 154.218V158.45H97.1792V155.712H105.187V169.655H110.565C111.282 169.655 111.879 169.032 111.879 168.285V154.342C111.879 153.471 111.282 152.848 110.445 152.848ZM94.789 157.455C94.789 157.703 94.6695 157.828 94.4304 157.828H93.2353C92.9963 157.828 92.8768 157.703 92.8768 157.455V156.21C92.8768 155.961 92.9963 155.836 93.2353 155.836H94.4304C94.6695 155.836 94.789 155.961 94.789 156.21V157.455ZM109.489 166.418C109.489 166.667 109.37 166.791 109.131 166.791H107.935C107.696 166.791 107.577 166.667 107.577 166.418V165.173C107.577 164.924 107.696 164.8 107.935 164.8H109.131C109.37 164.8 109.489 164.924 109.489 165.173V166.418ZM109.489 161.936C109.489 162.185 109.37 162.31 109.131 162.31H107.935C107.696 162.31 107.577 162.185 107.577 161.936V160.691C107.577 160.442 107.696 160.318 107.935 160.318H109.131C109.37 160.318 109.489 160.442 109.489 160.691V161.936ZM109.489 157.455C109.489 157.703 109.37 157.828 109.131 157.828H107.935C107.696 157.828 107.577 157.703 107.577 157.455V156.21C107.577 155.961 107.696 155.836 107.935 155.836H109.131C109.37 155.836 109.489 155.961 109.489 156.21V157.455ZM102.438 159.82H86.423C85.706 159.82 85.1084 160.442 85.1084 161.189V173.763C85.1084 174.51 85.706 175.132 86.423 175.132H102.438C103.155 175.132 103.752 174.51 103.752 173.763V161.314C103.752 160.442 103.155 159.82 102.438 159.82ZM89.0523 162.683C89.7694 162.683 90.367 163.306 90.367 164.053C90.367 164.8 89.7694 165.422 89.0523 165.422C88.3353 165.422 87.7377 164.8 87.7377 164.053C87.7377 163.306 88.3353 162.683 89.0523 162.683ZM101.123 172.394H87.7377V171.024L90.367 168.285L91.6816 169.655L97.0597 164.053L101.123 168.285V172.394Z" fill="white"/>
<path opacity="0.1" d="M54.9912 189.823H56.9034C57.74 189.823 58.3376 189.947 58.6961 190.196C59.0547 190.445 59.2937 190.819 59.2937 191.441C59.2937 191.815 59.1742 192.064 59.0547 192.313C58.9351 192.561 58.6961 192.686 58.3376 192.686C58.6961 192.81 58.9351 192.935 59.1742 193.184C59.2937 193.433 59.4132 193.806 59.4132 194.18C59.4132 194.802 59.1742 195.176 58.8156 195.549C58.4571 195.923 57.8595 196.047 57.262 196.047H54.9912V189.823ZM56.3059 192.188H57.0229C57.3815 192.188 57.6205 192.188 57.74 192.064C57.8595 191.939 57.979 191.815 57.979 191.566C57.979 191.317 57.8595 191.192 57.74 191.068C57.6205 190.943 57.262 190.943 56.9034 190.943H56.3059V192.188ZM56.3059 193.308V194.927H57.1424C57.501 194.927 57.74 194.802 57.8595 194.678C57.979 194.553 58.0986 194.304 58.0986 194.055C58.0986 193.557 57.74 193.308 57.0229 193.308H56.3059Z" fill="white"/>
<path opacity="0.1" d="M64.3131 196.047L63.835 194.553H61.6838L61.2058 196.047H59.8911L62.0424 189.823H63.596L65.7472 196.047H64.3131ZM63.4765 193.433C63.1179 192.064 62.8789 191.317 62.7594 191.192C62.7594 191.068 62.6399 190.819 62.6399 190.819C62.5204 191.192 62.2814 192.064 61.9228 193.557H63.4765V193.433Z" fill="white"/>
<path opacity="0.1" d="M68.9744 190.819C68.4963 190.819 68.1378 190.943 67.8988 191.317C67.6597 191.69 67.5402 192.188 67.5402 192.935C67.5402 194.304 68.0183 195.051 69.0939 195.051C69.572 195.051 70.05 194.927 70.6476 194.678V195.798C70.1695 196.047 69.572 196.172 68.9744 196.172C68.1378 196.172 67.4207 195.923 66.9427 195.3C66.4646 194.802 66.2256 193.931 66.2256 192.935C66.2256 192.312 66.3451 191.69 66.5841 191.192C66.8232 190.694 67.1817 190.321 67.5402 190.072C68.0183 189.823 68.4963 189.698 68.9744 189.698C69.572 189.698 70.1695 189.823 70.7671 190.196L70.4085 191.317C70.1695 191.192 69.9305 191.068 69.6915 191.068C69.4524 191.068 69.0939 190.819 68.9744 190.819Z" fill="white"/>
<path opacity="0.1" d="M76.5034 196.047H75.0693L73.5156 193.433L73.0375 193.806V196.047H71.7229V189.823H73.0375V192.686L73.5156 191.939L75.1888 189.823H76.6229L74.5912 192.562L76.5034 196.047Z" fill="white"/>
<path opacity="0.1" d="M79.4915 192.561H81.8817V195.798C81.5232 195.923 81.1646 196.047 80.8061 196.047C80.4476 196.047 80.089 196.172 79.7305 196.172C78.7744 196.172 78.1768 195.923 77.6988 195.3C77.2207 194.802 76.9817 193.931 76.9817 192.935C76.9817 191.939 77.2207 191.192 77.8183 190.57C78.4158 189.947 79.1329 189.698 80.089 189.698C80.6866 189.698 81.2842 189.823 81.8817 190.072L81.4037 191.068C80.9256 190.819 80.5671 190.694 80.089 190.694C79.4915 190.694 79.1329 190.943 78.7744 191.317C78.4158 191.69 78.2963 192.188 78.2963 192.81C78.2963 193.433 78.4158 194.055 78.6549 194.304C78.8939 194.678 79.2524 194.802 79.85 194.802C80.089 194.802 80.3281 194.802 80.6866 194.678V193.433H79.611V192.561H79.4915Z" fill="white"/>
<path opacity="0.1" d="M84.6306 193.557V195.923H83.3159V189.698H85.1086C85.9452 189.698 86.5428 189.823 86.9013 190.196C87.2599 190.445 87.4989 190.943 87.4989 191.566C87.4989 191.939 87.3794 192.313 87.2599 192.561C87.0208 192.81 86.7818 193.059 86.4233 193.184C87.3794 194.553 87.8574 195.425 88.216 195.923H86.7818L85.3476 193.557H84.6306ZM84.6306 192.561H84.9891C85.3476 192.561 85.7062 192.437 85.8257 192.312C85.9452 192.188 86.0647 191.939 86.0647 191.69C86.0647 191.441 85.9452 191.192 85.8257 191.068C85.5867 190.943 85.3476 190.819 84.8696 190.819H84.511V192.561H84.6306Z" fill="white"/>
<path opacity="0.1" d="M94.3111 192.935C94.3111 193.931 94.0721 194.802 93.594 195.3C93.116 195.798 92.3989 196.172 91.4428 196.172C90.4867 196.172 89.7696 195.923 89.2915 195.3C88.8135 194.802 88.5745 193.931 88.5745 192.935C88.5745 191.939 88.8135 191.068 89.2915 190.57C89.7696 190.072 90.4867 189.698 91.4428 189.698C92.3989 189.698 93.116 189.947 93.594 190.57C94.0721 191.068 94.3111 191.815 94.3111 192.935ZM89.8891 192.935C89.8891 193.682 90.0086 194.18 90.2476 194.553C90.4867 194.927 90.8452 195.051 91.4428 195.051C92.3989 195.051 92.9965 194.304 92.9965 192.935C92.9965 191.566 92.5184 190.819 91.4428 190.819C90.9647 190.819 90.6062 190.943 90.2476 191.317C90.0086 191.69 89.8891 192.188 89.8891 192.935Z" fill="white"/>
<path opacity="0.1" d="M100.406 189.823V193.806C100.406 194.304 100.287 194.678 100.167 195.051C99.9282 195.425 99.6892 195.674 99.3306 195.798C98.9721 195.923 98.494 196.047 98.016 196.047C97.2989 196.047 96.7014 195.798 96.2233 195.425C95.7452 195.051 95.6257 194.429 95.6257 193.682V189.698H96.9404V193.557C96.9404 194.055 97.0599 194.429 97.1794 194.553C97.4184 194.802 97.6575 194.927 98.1355 194.927C98.494 194.927 98.8526 194.802 99.0916 194.553C99.3306 194.304 99.3306 193.931 99.3306 193.433V189.574H100.406V189.823Z" fill="white"/>
<path opacity="0.1" d="M107.099 196.047H105.545L102.916 191.317C102.916 192.188 103.036 192.686 103.036 193.059V196.047H101.96V189.823H103.514L106.143 194.429C106.143 193.682 106.023 193.059 106.023 192.686V189.698H107.219V196.047H107.099Z" fill="white"/>
<path opacity="0.1" d="M113.553 192.81C113.553 193.806 113.314 194.678 112.716 195.176C112.118 195.674 111.401 196.047 110.326 196.047H108.653V189.823H110.565C111.521 189.823 112.238 190.072 112.836 190.57C113.314 191.068 113.553 191.815 113.553 192.81ZM112.238 192.81C112.238 191.441 111.64 190.819 110.565 190.819H109.848V194.927H110.445C111.64 194.927 112.238 194.18 112.238 192.81Z" fill="white"/>
<path opacity="0.1" d="M120.365 189.823H121.68L119.648 196.047H118.214L116.182 189.823H117.497L118.572 193.557C118.692 193.806 118.692 194.055 118.811 194.304C118.931 194.553 118.931 194.802 118.931 194.927C118.931 194.678 119.05 194.18 119.289 193.557L120.365 189.823Z" fill="white"/>
<path opacity="0.1" d="M122.396 196.047V189.823H123.711V196.047H122.396Z" fill="white"/>
<path opacity="0.1" d="M130.165 192.81C130.165 193.806 129.926 194.678 129.328 195.176C128.731 195.674 128.014 196.047 126.938 196.047H125.265V189.823H127.058C128.014 189.823 128.731 190.072 129.328 190.57C129.926 191.068 130.165 191.815 130.165 192.81ZM128.85 192.81C128.85 191.441 128.253 190.819 127.177 190.819H126.46V194.927H127.058C128.253 194.927 128.85 194.18 128.85 192.81Z" fill="white"/>
<path opacity="0.1" d="M134.826 196.047H131.36V189.823H134.826V190.943H132.675V192.313H134.706V193.433H132.675V195.051H134.826V196.047Z" fill="white"/>
<path opacity="0.1" d="M141.519 192.935C141.519 193.931 141.28 194.802 140.802 195.3C140.323 195.798 139.606 196.172 138.65 196.172C137.694 196.172 136.977 195.923 136.499 195.3C136.021 194.802 135.782 193.931 135.782 192.935C135.782 191.939 136.021 191.068 136.499 190.57C136.977 190.072 137.694 189.698 138.65 189.698C139.606 189.698 140.323 189.947 140.802 190.57C141.28 191.068 141.519 191.815 141.519 192.935ZM137.097 192.935C137.097 193.682 137.216 194.18 137.455 194.553C137.694 194.927 138.053 195.051 138.531 195.051C139.487 195.051 140.084 194.304 140.084 192.935C140.084 191.566 139.606 190.819 138.531 190.819C138.053 190.819 137.694 190.943 137.336 191.317C137.216 191.69 137.097 192.188 137.097 192.935Z" fill="white"/>
</svg>
