<svg width="100" height="96" viewBox="0 0 100 96" fill="none" xmlns="http://www.w3.org/2000/svg">
<g clip-path="url(#clip0)">
<path d="M52.0957 1.19814L65.8681 29.3418C66.4669 29.9407 67.0657 30.5395 67.6645 30.5395L98.2035 34.7311C99.9999 34.7311 100.599 37.1263 99.4011 38.3239L77.2454 59.8808C76.6466 60.4796 76.6466 61.0784 76.6466 61.6772L82.0358 92.2161C82.6346 94.0125 80.2394 95.2101 79.0418 94.6113L50.8981 80.8388C50.2993 80.8388 49.7005 80.8388 49.1017 80.8388L21.5568 95.2101C19.7603 95.8089 17.9639 94.6113 18.5627 92.8149L23.952 62.276C23.952 61.6772 23.952 61.0784 23.3532 60.4796L0.598651 38.3239C-0.598954 37.1263 -0.000151634 35.3299 1.79626 35.3299L32.3352 31.1383C32.934 31.1383 33.5328 30.5395 34.1316 29.9407L47.9041 1.19814C49.1017 -0.598273 51.4969 -0.598273 52.0957 1.19814Z" fill="#F5CA99"/>
</g>
<defs>
<clipPath id="clip0">
<rect width="100" height="96" fill="white"/>
</clipPath>
</defs>
</svg>
