<svg width="100" height="96" viewBox="0 0 100 96" fill="none" xmlns="http://www.w3.org/2000/svg">
<g clip-path="url(#clip0)">
<path d="M52.0958 1.19838L65.8682 29.342C66.467 29.9409 67.0658 30.5397 67.6646 30.5397L98.2036 34.7313C100 34.7313 100.599 37.1265 99.4012 38.3241L77.2455 59.881C76.6467 60.4798 76.6467 61.0786 76.6467 61.6774L82.0359 92.2163C82.6347 94.0127 80.2395 95.2103 79.0419 94.6115L50.8982 80.839C50.2994 80.839 49.7006 80.839 49.1018 80.839L21.5569 95.2103C19.7604 95.8091 17.964 94.6115 18.5628 92.8151L23.9521 62.2762C23.9521 61.6774 23.9521 61.0786 23.3533 60.4798L0.598773 38.3241C-0.598832 37.1265 -2.95639e-05 35.3301 1.79638 35.3301L32.3353 31.1385C32.9341 31.1385 33.5329 30.5397 34.1317 29.9409L47.9042 1.19838C49.1018 -0.598029 51.497 -0.598029 52.0958 1.19838Z" fill="#E7EAF3"/>
</g>
<defs>
<clipPath id="clip0">
<rect width="100" height="96" fill="white"/>
</clipPath>
</defs>
</svg>
