<svg width="100" height="100" viewBox="0 0 100 100" fill="none" xmlns="http://www.w3.org/2000/svg">
<path d="M100 50C100 46.0938 98.0469 42.5781 94.9219 41.0156C96.875 38.2813 97.2656 34.375 96.0938 30.8594C94.5313 27.3438 91.4063 25 88.2813 24.6094C89.0625 21.0938 87.8906 17.5781 85.1562 14.8437C82.4219 11.7187 78.9062 10.9375 75.3906 11.7188C74.6094 8.20313 72.2656 5.07813 68.75 3.90625C65.2344 2.34375 61.3281 3.125 58.5938 5.07812C57.0312 1.95312 53.5156 0 50 0C46.0938 0 42.9688 1.95312 41.0156 5.07812C37.8906 2.73437 34.375 2.34375 30.8594 3.90625C27.3438 5.46875 25 8.20313 24.2187 11.7188C21.0937 10.9375 17.1875 12.1094 14.4531 14.8437C11.7188 17.5781 10.9375 21.0938 11.7188 24.6094C8.20313 25 5.07813 27.3438 3.90625 30.8594C2.34375 34.375 3.125 38.2813 5.07812 41.0156C1.95312 42.9688 0 46.4844 0 50C0 53.9063 1.95313 57.0313 4.6875 58.9844C2.73438 61.7188 2.34375 65.625 3.51562 69.1406C5.07812 72.6563 8.20313 75 11.3281 75.3906C10.5469 78.9062 11.7187 82.4219 14.0625 85.1562C16.7969 87.8906 20.3125 88.6719 23.8281 87.8906C24.6094 91.4062 26.9531 94.5312 30.0781 95.7031C33.5937 97.2656 37.5 96.4844 40.2344 94.5313C42.1875 97.2656 45.3125 99.2187 49.2188 99.2187C53.125 99.2187 56.25 97.2656 58.2031 94.5313C60.9375 96.4844 64.8438 96.875 68.3594 95.7031C71.875 94.1406 74.2188 91.0156 74.6094 87.8906C78.125 88.6719 81.6406 87.5 84.375 85.1562C87.1094 82.4219 87.8906 78.9062 87.1094 75.3906C90.625 74.6094 93.75 72.2656 94.9219 69.1406C96.4844 65.625 95.7031 61.7188 93.75 58.9844C98.0469 57.0313 100 53.9063 100 50Z" fill="#377dff"/>
<mask id="mask0" mask-type="alpha" maskUnits="userSpaceOnUse" x="0" y="0" width="100" height="100">
<path d="M100 50C100 46.0938 98.0469 42.5781 94.9219 41.0156C96.875 38.2813 97.2656 34.375 96.0938 30.8594C94.5313 27.3438 91.4063 25 88.2813 24.6094C89.0625 21.0938 87.8906 17.5781 85.1562 14.8437C82.4219 11.7187 78.9062 10.9375 75.3906 11.7188C74.6094 8.20313 72.2656 5.07813 68.75 3.90625C65.2344 2.34375 61.3281 3.125 58.5938 5.07812C57.0312 1.95312 53.5156 0 50 0C46.0938 0 42.9688 1.95312 41.0156 5.07812C37.8906 2.73437 34.375 2.34375 30.8594 3.90625C27.3438 5.46875 25 8.20313 24.2187 11.7188C21.0937 10.9375 17.1875 12.1094 14.4531 14.8437C11.7188 17.5781 10.9375 21.0938 11.7188 24.6094C8.20313 25 5.07813 27.3438 3.90625 30.8594C2.34375 34.375 3.125 38.2813 5.07812 41.0156C1.95312 42.9688 0 46.4844 0 50C0 53.9063 1.95313 57.0313 4.6875 58.9844C2.73438 61.7188 2.34375 65.625 3.51562 69.1406C5.07812 72.6563 8.20313 75 11.3281 75.3906C10.5469 78.9062 11.7187 82.4219 14.0625 85.1562C16.7969 87.8906 20.3125 88.6719 23.8281 87.8906C24.6094 91.4062 26.9531 94.5312 30.0781 95.7031C33.5937 97.2656 37.5 96.4844 40.2344 94.5313C42.1875 97.2656 45.3125 99.2187 49.2188 99.2187C53.125 99.2187 56.25 97.2656 58.2031 94.5313C60.9375 96.4844 64.8438 96.875 68.3594 95.7031C71.875 94.1406 74.2188 91.0156 74.6094 87.8906C78.125 88.6719 81.6406 87.5 84.375 85.1562C87.1094 82.4219 87.8906 78.9062 87.1094 75.3906C90.625 74.6094 93.75 72.2656 94.9219 69.1406C96.4844 65.625 95.7031 61.7188 93.75 58.9844C98.0469 57.0313 100 53.9063 100 50Z" fill="#377dff"/>
</mask>
<g mask="url(#mask0)">
<path opacity="0.1" d="M78.125 100L35.9375 71.875L50 28.125L100 63.6719L78.125 100Z" fill="black"/>
</g>
<path d="M50 28.125L57.0313 42.5781L73.0469 44.9219L61.3281 56.25L64.0625 71.875L50 64.4531L35.9375 71.875L38.6719 56.25L26.9531 44.9219L42.9688 42.5781L50 28.125Z" fill="white"/>
</svg>
