<svg width="2245" height="1814" viewBox="0 0 2245 1814" fill="none" xmlns="http://www.w3.org/2000/svg">
<path d="M1829.7 1811L46.2999 1266.4C14.4999 1256.7 -3.50004 1223 6.19996 1191.1L343.2 87.5999C352.9 55.7999 386.6 37.7999 418.5 47.4999L2201.9 592.1C2233.7 601.8 2251.7 635.5 2242 667.4L1905 1770.9C1895.3 1802.7 1861.6 1820.7 1829.7 1811Z" fill="#2D1582"/>
<path d="M594 406L648.2 422.6L661.8 377.9L593.3 357L585 384.3L594 406ZM554.1 374.8L533.2 443.3L598.3 463.2C617.2 469 637.2 458.4 643 439.4L646 429.5L588.5 411.9L576.1 381.7L554.1 374.8ZM595.4 350.2L663.9 371.1L677.5 326.4L623.3 309.8L603.7 323L595.4 350.2ZM496.8 376.4L516.4 363.3L524.7 336L456.2 315.1L442.6 359.8L496.8 376.4ZM477 246.8L473.9 256.8L531.4 274.4L543.8 304.6L565.9 311.3L586.8 242.8L521.7 222.9C502.8 217.3 482.8 227.9 477 246.8ZM526.1 280.2L471.9 263.6L458.3 308.3L526.8 329.2L535.1 301.9L526.1 280.2ZM594.9 320.3L622.1 302.1L679.6 319.7L682.7 309.7C688.5 290.9 677.9 270.8 658.9 265L593.8 245L572.9 313.5L594.9 320.3ZM525.2 366L498 384.1L440.5 366.5L437.5 376.4C431.7 395.3 442.3 415.3 461.3 421.1L526.4 441L547.3 372.5L525.2 366Z" fill="white"/>
<path d="M1874.9 739.8C1870.8 752.5 1880.2 763.2 1887.6 770C1895.2 777 1897.4 780.8 1896.1 784.6C1894.2 790.5 1886.4 791 1879.8 789.1C1868.3 785.8 1862.6 780.5 1858 776.4L1848 794.6C1852.6 798.7 1861.8 803.8 1872 807.1C1896.1 814.5 1915.4 807.4 1921.1 789C1928.3 765.7 1896.3 754.5 1899.7 744.1C1900.8 741 1904.7 738.5 1911.7 739.7C1915.1 740.2 1924.3 742.7 1933.1 750.5L1942.8 733C1937.9 729.3 1931.4 725.2 1922.6 722.5C1899.9 715.4 1880.4 722.6 1874.9 739.8ZM1982.3 742.3C1977.9 741 1973.4 742.4 1970.6 745.8L1911.2 817.4L1935.2 824.7L1944 813L1973.4 822L1972.1 836L1993.3 842.5L2001.9 748.3L1982.3 742.3ZM1978.3 767.3L1975.1 802.7L1956.1 796.9L1978.3 767.3ZM1854.3 703.2L1808.3 786L1831.3 793L1877.3 710.2L1854.3 703.2ZM1820.3 692.9L1778.1 745.9L1784.1 691.7C1784.7 685.6 1781.2 681 1776.3 679.5L1737.3 667.6L1735.9 670C1743.4 674.2 1751.6 679.7 1756.2 684.4C1759 687.2 1759.5 689.2 1759.3 693.8L1756 770.1L1780.2 777.5L1844.4 700.3L1820.3 692.9Z" fill="white"/>
<path d="M348.988 833.796C352.471 822.387 346.046 810.314 334.637 806.831C323.227 803.347 311.155 809.772 307.671 821.182C304.188 832.591 310.613 844.664 322.022 848.147C333.431 851.631 345.504 845.205 348.988 833.796Z" fill="white"/>
<path d="M443.758 862.718C447.241 851.309 440.816 839.236 429.407 835.753C417.998 832.269 405.925 838.694 402.442 850.104C398.958 861.513 405.383 873.586 416.793 877.069C428.202 880.553 440.275 874.127 443.758 862.718Z" fill="white"/>
<path d="M538.433 891.611C541.916 880.202 535.491 868.129 524.082 864.646C512.672 861.162 500.599 867.587 497.116 878.997C493.633 890.406 500.058 902.479 511.467 905.962C522.876 909.445 534.949 903.02 538.433 891.611Z" fill="white"/>
<path d="M633.078 920.6C636.561 909.19 630.136 897.118 618.727 893.634C607.318 890.151 595.245 896.576 591.762 907.985C588.278 919.394 594.703 931.467 606.113 934.951C617.522 938.434 629.595 932.009 633.078 920.6Z" fill="white"/>
<path d="M784.6 988.4C796.529 988.4 806.2 978.729 806.2 966.8C806.2 954.871 796.529 945.2 784.6 945.2C772.671 945.2 763 954.871 763 966.8C763 978.729 772.671 988.4 784.6 988.4Z" fill="white"/>
<path d="M879.3 1017.4C891.229 1017.4 900.9 1007.73 900.9 995.8C900.9 983.871 891.229 974.2 879.3 974.2C867.371 974.2 857.7 983.871 857.7 995.8C857.7 1007.73 867.371 1017.4 879.3 1017.4Z" fill="white"/>
<path d="M974 1046.3C985.929 1046.3 995.6 1036.63 995.6 1024.7C995.6 1012.77 985.929 1003.1 974 1003.1C962.071 1003.1 952.4 1012.77 952.4 1024.7C952.4 1036.63 962.071 1046.3 974 1046.3Z" fill="white"/>
<path d="M1068.6 1075.2C1080.53 1075.2 1090.2 1065.53 1090.2 1053.6C1090.2 1041.67 1080.53 1032 1068.6 1032C1056.67 1032 1047 1041.67 1047 1053.6C1047 1065.53 1056.67 1075.2 1068.6 1075.2Z" fill="white"/>
<path d="M1240.8 1127.7C1252.73 1127.7 1262.4 1118.03 1262.4 1106.1C1262.4 1094.17 1252.73 1084.5 1240.8 1084.5C1228.87 1084.5 1219.2 1094.17 1219.2 1106.1C1219.2 1118.03 1228.87 1127.7 1240.8 1127.7Z" fill="white"/>
<path d="M1335.5 1156.7C1347.43 1156.7 1357.1 1147.03 1357.1 1135.1C1357.1 1123.17 1347.43 1113.5 1335.5 1113.5C1323.57 1113.5 1313.9 1123.17 1313.9 1135.1C1313.9 1147.03 1323.57 1156.7 1335.5 1156.7Z" fill="white"/>
<path d="M1430.2 1185.6C1442.13 1185.6 1451.8 1175.93 1451.8 1164C1451.8 1152.07 1442.13 1142.4 1430.2 1142.4C1418.27 1142.4 1408.6 1152.07 1408.6 1164C1408.6 1175.93 1418.27 1185.6 1430.2 1185.6Z" fill="white"/>
<path d="M1524.8 1214.5C1536.73 1214.5 1546.4 1204.83 1546.4 1192.9C1546.4 1180.97 1536.73 1171.3 1524.8 1171.3C1512.87 1171.3 1503.2 1180.97 1503.2 1192.9C1503.2 1204.83 1512.87 1214.5 1524.8 1214.5Z" fill="white"/>
<path d="M1713.3 1227.3L1709.2 1240.9C1708.2 1244.1 1706.5 1246.3 1703.9 1247.6C1705.2 1250.4 1705.5 1253.2 1704.7 1255.9L1700.4 1270.1C1699.8 1272.1 1698.5 1273.6 1696.7 1274.5C1694.8 1275.5 1692.9 1275.6 1690.9 1275L1665.3 1267.2C1664.2 1266.9 1663.6 1266.3 1663 1265.4C1662.5 1264.5 1662.4 1263.5 1662.7 1262.5C1663 1261.4 1663.6 1260.8 1664.5 1260.2C1665.4 1259.7 1666.4 1259.6 1667.4 1259.9L1692.9 1267.7L1697.2 1253.5C1697.5 1252.4 1697.4 1251.5 1696.9 1250.6C1696.5 1249.6 1695.7 1249.1 1694.6 1248.8L1680.1 1244.4C1679 1244.1 1678.4 1243.5 1677.8 1242.6C1677.2 1241.7 1677.2 1240.7 1677.5 1239.7C1677.8 1238.6 1678.4 1238 1679.3 1237.4C1680.2 1236.9 1681.2 1236.8 1682.2 1237.1L1696.8 1241.6C1697.8 1241.9 1698.7 1241.8 1699.7 1241.3C1700.7 1240.9 1701.2 1240.1 1701.5 1239L1705.8 1225L1680 1217.1C1678.9 1216.8 1678.3 1216.2 1677.7 1215.3C1677.2 1214.4 1677.1 1213.4 1677.4 1212.4C1677.7 1211.3 1678.3 1210.7 1679.2 1210.1C1680.1 1209.6 1681.1 1209.5 1682.1 1209.8L1707.9 1217.7C1709.9 1218.3 1711.4 1219.5 1712.4 1221.4C1713.8 1223.4 1713.9 1225.3 1713.3 1227.3Z" fill="white"/>
<path d="M1736.1 1226.3L1739.7 1227.4C1740.7 1227.7 1741.4 1228.3 1742 1229.2C1742.4 1230.2 1742.6 1231.1 1742.3 1232.1C1742 1233.2 1741.4 1233.8 1740.5 1234.4C1739.6 1234.9 1738.6 1235 1737.6 1234.7L1730.3 1258.6L1755.8 1266.4C1756.8 1266.7 1757.5 1267.3 1758.1 1268.2C1758.6 1269.2 1758.7 1270.1 1758.4 1271.1L1752.7 1289.8C1752.4 1290.9 1751.8 1291.5 1750.9 1292.1C1749.9 1292.5 1749 1292.7 1748 1292.4L1718.9 1283.5C1717.8 1283.2 1717.1 1282.5 1716.6 1281.7C1716.1 1280.7 1716 1279.8 1716.3 1278.8L1731.5 1228.9C1731.8 1227.8 1732.4 1227.2 1733.3 1226.6C1734.1 1226.1 1735 1226 1736.1 1226.3ZM1727.9 1265.9L1724.4 1277.4L1746.3 1284.1L1749.8 1272.6L1727.9 1265.9Z" fill="white"/>
<path d="M1801.1 1308.6L1797.5 1307.5C1796.5 1307.2 1795.8 1306.6 1795.2 1305.7C1794.6 1304.8 1794.6 1303.8 1794.9 1302.8C1795.2 1301.7 1795.8 1301.1 1796.7 1300.5C1797.6 1300 1798.6 1299.9 1799.6 1300.2L1806.9 1276.3L1781.4 1268.5C1780.4 1268.2 1779.7 1267.6 1779.1 1266.7C1778.6 1265.7 1778.5 1264.8 1778.8 1263.8L1784.5 1245.1C1784.8 1244.1 1785.4 1243.4 1786.3 1242.8C1787.3 1242.3 1788.2 1242.2 1789.2 1242.5L1818.3 1251.4C1819.3 1251.7 1820 1252.3 1820.6 1253.2C1821.1 1254.2 1821.2 1255.1 1820.9 1256.1L1805.7 1306C1805.4 1307.1 1804.8 1307.7 1803.9 1308.3C1803 1308.8 1802.1 1308.9 1801.1 1308.6ZM1809.3 1269.1L1812.8 1257.7L1790.8 1251L1787.3 1262.4L1809.3 1269.1Z" fill="white"/>
<path d="M1873.2 1276.1L1869.1 1289.7C1868.1 1292.9 1866.4 1295.1 1863.8 1296.4C1865.1 1299.2 1865.4 1302 1864.6 1304.7L1860.3 1318.9C1859.7 1320.9 1858.4 1322.4 1856.6 1323.3C1854.7 1324.3 1852.8 1324.4 1850.8 1323.8L1825.2 1316C1824.1 1315.7 1823.5 1315.1 1822.9 1314.2C1822.4 1313.3 1822.3 1312.3 1822.6 1311.3C1822.9 1310.2 1823.5 1309.6 1824.4 1309C1825.3 1308.5 1826.3 1308.4 1827.3 1308.7L1852.8 1316.5L1857.1 1302.3C1857.4 1301.2 1857.3 1300.3 1856.8 1299.4C1856.4 1298.4 1855.6 1297.9 1854.5 1297.6L1840 1293.2C1838.9 1292.9 1838.3 1292.3 1837.7 1291.4C1837.1 1290.5 1837.1 1289.5 1837.4 1288.5C1837.7 1287.4 1838.3 1286.8 1839.2 1286.2C1840.1 1285.7 1841.1 1285.6 1842.1 1285.9L1856.7 1290.4C1857.7 1290.7 1858.6 1290.6 1859.6 1290.1C1860.6 1289.7 1861.1 1288.9 1861.4 1287.8L1865.7 1273.8L1839.9 1265.9C1838.8 1265.6 1838.2 1265 1837.6 1264.1C1837.1 1263.2 1837 1262.2 1837.3 1261.2C1837.6 1260.1 1838.2 1259.5 1839.1 1258.9C1840 1258.4 1841 1258.3 1842 1258.6L1867.8 1266.5C1869.8 1267.1 1871.3 1268.3 1872.3 1270.2C1873.6 1272.2 1873.8 1274.1 1873.2 1276.1Z" fill="white"/>
<path d="M206.6 1150.4L219.8 1107.1C220.4 1105.2 221.5 1103.8 223.4 1102.9C225.2 1102 227.1 1101.7 228.9 1102.3L251.5 1109.2C253.4 1109.8 254.7 1110.9 255.7 1112.8C256.6 1114.5 256.8 1116.5 256.2 1118.3L243 1161.6C242.4 1163.5 241.2 1164.9 239.5 1166C237.8 1166.9 235.9 1167.1 233.9 1166.5L211.4 1159.6C209.5 1159 208 1157.8 207 1156.1C206.2 1154.2 206 1152.3 206.6 1150.4ZM236 1159.1L249 1116.4L226.9 1109.7L213.9 1152.4L236 1159.1Z" fill="white"/>
<path d="M290.8 1183.6L287.2 1182.5C286.2 1182.2 285.5 1181.6 284.9 1180.7C284.3 1179.8 284.3 1178.8 284.6 1177.8C284.9 1176.7 285.5 1176.1 286.4 1175.5C287.3 1175 288.3 1174.9 289.3 1175.2L296.6 1151.3L271.1 1143.5C270.1 1143.2 269.4 1142.6 268.8 1141.7C268.3 1140.7 268.2 1139.8 268.5 1138.8L274.2 1120.1C274.5 1119.1 275.1 1118.4 276 1117.8C277 1117.3 277.9 1117.2 278.9 1117.5L308 1126.4C309 1126.7 309.7 1127.3 310.3 1128.2C310.8 1129.2 310.9 1130.1 310.6 1131.1L295.4 1181C295.1 1182.1 294.5 1182.7 293.6 1183.3C292.8 1183.9 291.8 1183.9 290.8 1183.6ZM299 1144.1L302.5 1132.7L280.5 1126L277 1137.4L299 1144.1Z" fill="white"/>
<path d="M363.1 1150.1L318.5 1191C317.8 1191.6 317 1191.8 315.9 1191.5C314.9 1191.2 314.2 1190.7 313.5 1189.7C312.8 1188.8 312.7 1187.9 313 1186.8C313.3 1185.9 313.8 1185.1 314.7 1184.2L359.2 1143.4C359.9 1142.8 360.8 1142.6 361.8 1143C362.8 1143.3 363.5 1143.8 364.1 1144.7C364.8 1145.5 364.9 1146.5 364.6 1147.5C364.5 1148.5 364 1149.4 363.1 1150.1Z" fill="white"/>
<path d="M397.4 1216.2L364.5 1206.2L372.1 1181.2C372.7 1179.2 373.9 1177.7 375.8 1176.7C377.7 1175.7 379.6 1175.5 381.5 1176L403.5 1182.7L408.9 1165.1L383.1 1157.2C382 1156.9 381.3 1156.2 380.8 1155.4C380.3 1154.6 380.2 1153.5 380.5 1152.5C380.8 1151.4 381.4 1150.8 382.3 1150.2C383.2 1149.7 384.2 1149.6 385.2 1149.9L411 1157.8C413 1158.4 414.5 1159.6 415.5 1161.5C416.5 1163.4 416.7 1165.3 416.2 1167.2L410.8 1184.8C410.2 1186.8 408.9 1188.3 407 1189.3C405.1 1190.3 403.2 1190.4 401.2 1189.8L379.2 1183.1L373.8 1200.9L399.4 1208.7C400.4 1209 401.1 1209.6 401.7 1210.5C402.3 1211.4 402.3 1212.4 402 1213.4C401.7 1214.5 401.1 1215.1 400.2 1215.7C399.3 1216.5 398.3 1216.5 397.4 1216.2Z" fill="white"/>
<path d="M450.7 1232.5L417.8 1222.5L425.4 1197.5C426 1195.5 427.2 1194 429.1 1193C431 1192 432.9 1191.8 434.8 1192.3L456.8 1199L462.2 1181.4L436.4 1173.5C435.3 1173.2 434.6 1172.5 434.1 1171.7C433.6 1170.8 433.5 1169.8 433.8 1168.8C434.1 1167.8 434.7 1167.1 435.6 1166.5C436.5 1166 437.5 1165.9 438.5 1166.2L464.3 1174.1C466.3 1174.7 467.8 1175.9 468.8 1177.8C469.8 1179.7 470 1181.6 469.5 1183.5L464.1 1201.1C463.5 1203.1 462.2 1204.6 460.3 1205.6C458.4 1206.6 456.5 1206.7 454.5 1206.1L432.5 1199.4L427.1 1217.2L452.7 1225C453.7 1225.3 454.4 1225.9 455 1226.8C455.6 1227.7 455.6 1228.7 455.3 1229.7C455 1230.7 454.4 1231.4 453.5 1232C452.6 1232.8 451.6 1232.8 450.7 1232.5Z" fill="white"/>
<path d="M660.9 1294.7L675.2 1247.7C675.5 1246.7 676 1246 676.9 1245.5C677.8 1245 678.7 1244.9 679.6 1245.2C680.6 1245.5 681.2 1246 681.7 1246.9C682.2 1247.8 682.2 1248.6 681.9 1249.6L677 1265.7L704.5 1253.7C705.5 1253.3 706.4 1253.2 707.3 1253.6C708.3 1253.9 708.9 1254.5 709.4 1255.4C709.9 1256.3 709.9 1257.2 709.6 1258.1C709.3 1259.1 708.7 1259.7 707.8 1260L676.7 1273.5L695 1302.4C695.5 1303.2 695.6 1304.1 695.3 1304.9C695 1305.8 694.5 1306.5 693.6 1307C692.7 1307.6 691.8 1307.6 690.8 1307.3C689.8 1307 689.2 1306.5 688.6 1305.6L672.6 1280.2L667.6 1296.5C667.3 1297.5 666.8 1298.1 665.9 1298.6C665 1299.1 664.2 1299.1 663.2 1298.8C662.2 1298.5 661.6 1298 661.1 1297.1C660.6 1296.5 660.6 1295.7 660.9 1294.7Z" fill="white"/>
<path d="M755.3 1275.9L731.2 1268.5L726.1 1285L736.5 1288.2C737.5 1288.5 738.1 1289.1 738.6 1290C739.1 1290.9 739.2 1291.8 738.9 1292.7C738.6 1293.7 738.1 1294.4 737.2 1294.9C736.3 1295.4 735.4 1295.5 734.5 1295.2L724.1 1292L719 1308.7L743.2 1316.1C744.2 1316.4 744.8 1316.9 745.3 1317.8C745.8 1318.7 745.9 1319.6 745.6 1320.5C745.3 1321.4 744.7 1322.1 743.8 1322.6C742.9 1323.1 742 1323.1 741 1322.8L710.1 1313.4L726.5 1259.6L757.4 1269C758.4 1269.3 759 1269.9 759.6 1270.8C760.1 1271.7 760.2 1272.7 759.9 1273.6C759.6 1274.6 759 1275.2 758.1 1275.7C757.1 1276.1 756.2 1276.1 755.3 1275.9Z" fill="white"/>
<path d="M760.2 1328.7L775.6 1278.2C775.9 1277.2 776.5 1276.6 777.4 1276.1C778.3 1275.6 779.2 1275.5 780.1 1275.8C781.1 1276.1 781.7 1276.7 782.2 1277.6C782.7 1278.5 782.8 1279.4 782.5 1280.3L769.2 1323.9L793.3 1331.3C794.3 1331.6 794.9 1332.1 795.5 1333C796 1333.9 796.1 1334.8 795.8 1335.7C795.5 1336.7 794.9 1337.3 794 1337.8C793.1 1338.3 792.2 1338.3 791.2 1338L760.2 1328.5V1328.7Z" fill="white"/>
<path d="M810.3 1344L825.7 1293.5C826 1292.5 826.6 1291.9 827.5 1291.4C828.4 1290.9 829.3 1290.8 830.2 1291.1C831.1 1291.4 831.8 1292 832.3 1292.9C832.8 1293.8 832.9 1294.7 832.6 1295.6L819.3 1339.2L843.4 1346.6C844.4 1346.9 845 1347.4 845.6 1348.3C846.1 1349.2 846.2 1350.1 845.9 1351C845.6 1352 845 1352.6 844.1 1353.1C843.2 1353.6 842.3 1353.6 841.3 1353.3L810.3 1343.8V1344Z" fill="white"/>
<path d="M889 1339.8L882.1 1362.3C881.8 1363.3 881.2 1363.9 880.3 1364.4C879.4 1364.9 878.6 1364.9 877.6 1364.6C876.6 1364.3 875.9 1363.8 875.4 1362.9C874.9 1362 874.8 1361.1 875.1 1360.2L881.9 1337.8L873.5 1316.3L875.7 1309.1C876 1308.1 876.5 1307.4 877.4 1306.9C878.3 1306.4 879.2 1306.3 880.1 1306.6C881.1 1306.9 881.7 1307.5 882.3 1308.4C882.9 1309.3 882.9 1310.3 882.6 1311.2L881.2 1315.9L887.4 1332.1L901.7 1322.2L903.1 1317.5C903.4 1316.5 904 1315.9 904.9 1315.3C905.8 1314.8 906.7 1314.7 907.6 1315C908.5 1315.3 909.2 1315.8 909.7 1316.7C910.2 1317.6 910.3 1318.5 910 1319.5L907.8 1326.7L889 1339.8Z" fill="white"/>
<path d="M962.3 1385.3L990.2 1342.9C991.3 1341.4 992.7 1340.9 994.4 1341.5C996.1 1342 997 1343 996.9 1344.6L996 1396.1C996 1396.5 996 1396.8 995.9 1397.2C995.6 1398.2 995.1 1398.8 994.2 1399.3C993.3 1399.8 992.5 1399.8 991.7 1399.6C989.9 1399 989.1 1397.9 989 1396.1L989.2 1386L973.6 1381.2L967.6 1390.2C967.4 1390.6 967 1390.9 966.2 1391.1C965.5 1391.3 964.8 1391.3 964.1 1391.1C963 1390.8 962.4 1390.2 961.9 1389.3C961.4 1388.4 961.4 1387.5 961.7 1386.5C961.9 1386.1 962.1 1385.6 962.3 1385.3ZM989.6 1357.1L977.8 1374.8L989.3 1378.3L989.6 1357.1Z" fill="white"/>
<path d="M1060.5 1365.4L1045.1 1415.8L1036 1413L1030.4 1365.6L1018.7 1404C1018.4 1405 1017.9 1405.6 1017 1406.1C1016.1 1406.6 1015.3 1406.6 1014.3 1406.3C1013.3 1406 1012.7 1405.5 1012.2 1404.6C1011.7 1403.7 1011.7 1402.9 1012 1401.9L1027.4 1351.4L1036.4 1354.1L1042 1401.5L1053.7 1363.2C1054 1362.2 1054.6 1361.6 1055.5 1361C1056.4 1360.4 1057.4 1360.4 1058.3 1360.7C1059.3 1361 1059.9 1361.6 1060.4 1362.5C1060.8 1363.5 1060.8 1364.3 1060.5 1365.4Z" fill="white"/>
<path d="M1080.8 1367.7L1094.3 1371.8C1096 1372.3 1097.6 1373.4 1098.9 1375.1C1100.2 1376.7 1101 1378.5 1101.3 1380.2L1103.8 1395.8C1104.3 1398.7 1104.2 1401.5 1103.3 1404.1C1102.5 1406.6 1101.1 1409 1099 1411.1L1088.1 1422.5C1086.7 1424 1085 1425 1083.1 1425.5C1081.2 1426.1 1079.2 1426 1077.2 1425.4L1064.2 1421.4C1063.2 1421.1 1062.6 1420.5 1062.1 1419.6C1061.6 1418.7 1061.6 1417.9 1061.9 1416.9C1062.2 1415.9 1062.7 1415.3 1063.6 1414.7C1064.5 1414.2 1065.4 1414.1 1066.3 1414.4L1069.8 1415.5L1082 1375.4L1078.6 1374.3C1077.6 1374 1077 1373.4 1076.5 1372.5C1076 1371.6 1076 1370.7 1076.3 1369.7C1076.6 1368.7 1077.1 1368.1 1078 1367.6C1078.9 1367.6 1079.9 1367.4 1080.8 1367.7ZM1089 1377.7L1076.7 1417.9L1079.1 1418.6C1080.6 1419.1 1082 1418.7 1083.2 1417.5L1094 1406.2C1095.4 1404.7 1096.2 1403.3 1096.6 1402.2C1097.1 1400.7 1097.1 1399.2 1096.8 1397.7L1094.1 1381.7C1093.7 1380.1 1092.8 1379 1091.2 1378.5L1089 1377.7Z" fill="white"/>
<path d="M1156.4 1398.3L1132.3 1390.9L1127.2 1407.4L1137.6 1410.6C1138.6 1410.9 1139.2 1411.5 1139.7 1412.4C1140.2 1413.3 1140.3 1414.2 1140 1415.1C1139.7 1416.1 1139.2 1416.8 1138.3 1417.3C1137.4 1417.8 1136.5 1417.9 1135.6 1417.6L1125.2 1414.4L1120.1 1431.1L1144.3 1438.5C1145.3 1438.8 1145.9 1439.3 1146.4 1440.2C1146.9 1441.1 1147 1442 1146.7 1442.9C1146.4 1443.9 1145.8 1444.5 1144.9 1445C1144 1445.5 1143.1 1445.5 1142.1 1445.2L1111.2 1435.8L1127.6 1382L1158.5 1391.4C1159.5 1391.7 1160.1 1392.3 1160.7 1393.2C1161.2 1394.1 1161.3 1395.1 1161 1396C1160.7 1396.9 1160.1 1397.6 1159.2 1398.1C1158.3 1398.6 1157.3 1398.6 1156.4 1398.3Z" fill="white"/>
<path d="M1162.4 1447.8L1177.8 1397.3L1201.9 1404.7C1204.7 1405.5 1206.7 1407.3 1208.1 1410C1209.5 1412.7 1209.8 1415.3 1208.9 1418.2L1207.7 1422.1C1206.8 1425 1205.1 1427.1 1202.5 1428.5C1199.9 1429.9 1197.2 1430.2 1194.4 1429.4L1190.1 1428.1L1196.7 1456.2C1197 1457 1196.9 1457.8 1196.7 1458.5C1196.4 1459.5 1195.8 1460.1 1194.9 1460.6C1194 1461.1 1193.1 1461.1 1192.2 1460.8C1190.9 1460.4 1190 1459.5 1189.7 1458L1182.1 1425.6L1177.2 1424.1L1169.3 1450.1C1169 1451.1 1168.4 1451.7 1167.5 1452.2C1166.6 1452.7 1165.7 1452.7 1164.7 1452.4C1163.7 1452.1 1163.1 1451.6 1162.6 1450.7C1162.3 1449.8 1162.1 1448.8 1162.4 1447.8ZM1179.2 1417.1L1196.5 1422.4C1197.5 1422.7 1198.3 1422.6 1199.2 1422.2C1200.1 1421.7 1200.6 1421.1 1200.9 1420.1L1202.1 1416.1C1202.4 1415.1 1202.3 1414.3 1201.9 1413.4C1201.4 1412.5 1200.8 1412 1199.8 1411.7L1182.5 1406.4L1179.2 1417.1Z" fill="white"/>
<path d="M1235.6 1415L1253.3 1420.4C1255.5 1421.1 1257.2 1422.6 1258.6 1425C1260 1427.4 1260.2 1429.9 1259.5 1432.5C1259.2 1433.5 1258.6 1434.2 1257.7 1434.7C1256.8 1435.2 1255.9 1435.3 1255.1 1435.1C1254 1434.7 1253.3 1434.2 1252.9 1433.6C1252.6 1432.9 1252.5 1431.8 1252.6 1430.3C1252.7 1428.7 1252 1427.8 1250.7 1427.4L1233.9 1422.3C1233.1 1422.1 1232.6 1422.2 1232.4 1422.7C1232.3 1423 1232.4 1423.4 1232.5 1424L1248 1464.1C1248.8 1466 1248.8 1467.9 1248.3 1469.7C1247.7 1471.7 1246.4 1473.3 1244.5 1474.4C1242.6 1475.5 1240.6 1475.7 1238.9 1475.2L1220.5 1469.6C1218.1 1468.9 1216.2 1467.2 1215 1464.9C1213.7 1462.5 1213.5 1460.2 1214.2 1458C1215 1455.4 1216.5 1454.5 1218.9 1455.3C1219.9 1455.6 1220.5 1456.1 1221 1457C1221.5 1457.9 1221.5 1458.7 1221.3 1459.6C1221.1 1460.4 1221.2 1461 1221.5 1461.7C1221.8 1462.3 1222.4 1462.8 1223.2 1463L1240.1 1468.2C1240.9 1468.4 1241.2 1468.2 1241.4 1467.7C1241.5 1467.4 1241.4 1467 1241.2 1466.5L1225.8 1426.5C1225.1 1424.6 1225 1422.7 1225.5 1420.9C1226.1 1418.8 1227.5 1417.2 1229.5 1416.1C1231.5 1415 1233.5 1414.3 1235.6 1415Z" fill="white"/>
<path d="M1301.8 1440.6L1304.6 1458.2C1305 1460.6 1304.9 1463 1304.2 1465.5C1303.5 1467.9 1302.2 1469.9 1300.5 1471.7L1288.4 1484.5C1285.8 1487.4 1282.6 1488.2 1278.8 1487C1277 1486.4 1275.5 1485.5 1274.4 1484.1C1273.3 1482.7 1272.6 1481.2 1272.2 1479.6L1269.3 1462.2C1269 1459.9 1269.1 1457.5 1269.8 1455C1270.6 1452.5 1271.7 1450.4 1273.4 1448.7L1285.6 1435.7C1288.3 1432.9 1291.5 1432.1 1295.2 1433.2C1298.9 1434.3 1301.1 1436.9 1301.8 1440.6ZM1290.3 1440.9L1278.8 1453.1C1277.7 1454.3 1277 1455.7 1276.6 1457C1276.1 1458.5 1276 1460 1276.2 1461.6L1279 1478.4C1279.1 1479.4 1279.6 1480.1 1280.7 1480.4C1281.6 1480.7 1282.4 1480.4 1283.1 1479.7L1294.8 1467.4C1295.9 1466.2 1296.7 1464.9 1297.2 1463.4C1297.7 1461.9 1297.7 1460.4 1297.4 1458.9L1294.6 1442.4C1294.4 1441.2 1293.9 1440.4 1293 1440.1C1292.1 1439.7 1291.2 1440 1290.3 1440.9Z" fill="white"/>
<path d="M1361.4 1457.3L1346 1507.7L1336.9 1504.9L1331.3 1457.5L1319.6 1495.9C1319.3 1496.9 1318.8 1497.5 1317.9 1498C1317 1498.5 1316.2 1498.5 1315.2 1498.2C1314.2 1497.9 1313.6 1497.4 1313.1 1496.5C1312.6 1495.6 1312.6 1494.8 1312.9 1493.8L1328.3 1443.3L1337.3 1446L1342.9 1493.4L1354.6 1455.1C1354.9 1454.1 1355.5 1453.5 1356.4 1452.9C1357.3 1452.3 1358.3 1452.3 1359.2 1452.6C1360.2 1452.9 1360.8 1453.5 1361.3 1454.4C1361.6 1455.3 1361.7 1456.2 1361.4 1457.3Z" fill="white"/>
<g opacity="0.7">
<path opacity="0.7" d="M263.9 1028.2L249.6 1023.8L246.6 1033.7L252.7 1035.6C253.3 1035.8 253.7 1036.1 254 1036.6C254.3 1037.1 254.3 1037.6 254.1 1038.2C253.9 1038.8 253.6 1039.2 253.1 1039.5C252.6 1039.8 252.1 1039.8 251.5 1039.6L245.4 1037.7L242.4 1047.6L256.7 1052C257.3 1052.2 257.7 1052.5 258 1053C258.3 1053.5 258.3 1054 258.1 1054.6C257.9 1055.2 257.6 1055.6 257.1 1055.9C256.6 1056.2 256.1 1056.2 255.5 1056L237.2 1050.4L246.9 1018.6L265.2 1024.2C265.8 1024.4 266.2 1024.7 266.5 1025.2C266.8 1025.7 266.8 1026.2 266.6 1026.8C266.4 1027.4 266.1 1027.8 265.6 1028.1C265 1028.3 264.5 1028.3 263.9 1028.2Z" fill="white"/>
<path opacity="0.7" d="M280.9 1050.7L271.1 1059.7C270.5 1060.3 269.9 1060.4 269.1 1060.1C268.5 1059.9 268.1 1059.6 267.9 1059C267.6 1058.5 267.6 1058 267.7 1057.5C267.8 1057.1 268 1056.8 268.4 1056.5L280 1046L276.5 1031.1C276.4 1030.5 276.3 1030 276.4 1029.6C276.5 1029.1 276.9 1028.7 277.4 1028.4C277.9 1028.1 278.4 1028.1 279 1028.3C279.8 1028.5 280.3 1029 280.4 1029.8L283.6 1042.7L293.3 1033.8C293.9 1033.2 294.5 1033.1 295.3 1033.4C295.9 1033.6 296.3 1033.9 296.6 1034.4C296.9 1034.9 297 1035.5 296.8 1036C296.7 1036.4 296.5 1036.7 296.2 1037L284.7 1047.6L288.3 1062.8C288.4 1063.1 288.4 1063.6 288.3 1063.9C288.1 1064.5 287.8 1064.9 287.3 1065.2C286.8 1065.5 286.3 1065.5 285.7 1065.3C284.9 1065.1 284.4 1064.6 284.3 1063.8L280.9 1050.7Z" fill="white"/>
<path opacity="0.7" d="M297.1 1066.4L306.2 1036.6L320.5 1041C322.1 1041.5 323.4 1042.5 324.2 1044.1C325 1045.7 325.2 1047.3 324.7 1049L322.4 1056.6C321.9 1058.2 320.9 1059.5 319.3 1060.3C317.8 1061.1 316.2 1061.3 314.4 1060.8L304.2 1057.7L301.1 1067.8C300.9 1068.4 300.6 1068.8 300.1 1069.1C299.6 1069.4 299.1 1069.4 298.5 1069.2C297.9 1069 297.5 1068.7 297.2 1068.2C297 1067.5 296.9 1067 297.1 1066.4ZM305.5 1053.5L315.7 1056.6C316.3 1056.8 316.8 1056.7 317.3 1056.5C317.8 1056.2 318.1 1055.8 318.3 1055.2L320.6 1047.6C320.8 1047 320.7 1046.5 320.5 1046C320.2 1045.5 319.8 1045.2 319.2 1045L309 1041.9L305.5 1053.5Z" fill="white"/>
<path opacity="0.7" d="M337.8 1046.2L354.2 1051.2C354.8 1051.4 355.1 1051.7 355.5 1052.2C355.9 1052.7 355.8 1053.2 355.6 1053.8C355.4 1054.4 355.1 1054.8 354.6 1055.1C354.1 1055.4 353.6 1055.4 353 1055.2L346.9 1053.3L339.6 1077.1L345.7 1079C346.3 1079.2 346.7 1079.5 347 1080C347.3 1080.5 347.3 1081 347.1 1081.6C346.9 1082.2 346.6 1082.6 346.1 1082.9C345.6 1083.2 345.1 1083.2 344.5 1083L328.1 1078C327.5 1077.8 327.1 1077.5 326.8 1077C326.5 1076.5 326.5 1076 326.7 1075.4C326.9 1074.8 327.2 1074.4 327.7 1074.1C328.2 1073.8 328.7 1073.8 329.3 1074L335.5 1075.9L342.7 1052.2L336.5 1050.3C335.9 1050.1 335.5 1049.8 335.2 1049.3C334.9 1048.8 334.9 1048.3 335.1 1047.7C335.3 1047.1 335.6 1046.7 336.1 1046.4C336.7 1046.1 337.3 1046.1 337.8 1046.2Z" fill="white"/>
<path opacity="0.7" d="M356.5 1084.6L365.6 1054.8L379.9 1059.2C381.5 1059.7 382.8 1060.7 383.6 1062.3C384.4 1063.9 384.6 1065.5 384.1 1067.2L383.4 1069.5C382.9 1071.2 381.9 1072.5 380.3 1073.2C378.8 1074 377.2 1074.2 375.4 1073.7L372.8 1072.9L376.7 1089.6C376.9 1090.1 376.8 1090.6 376.7 1091C376.5 1091.6 376.2 1092 375.6 1092.2C375.1 1092.5 374.6 1092.5 374 1092.3C373.2 1092.1 372.7 1091.5 372.5 1090.7L368 1071.5L365.1 1070.6L360.4 1086C360.2 1086.6 359.9 1087 359.4 1087.3C358.9 1087.6 358.4 1087.6 357.8 1087.4C357.2 1087.2 356.8 1086.9 356.5 1086.4C356.4 1085.7 356.4 1085.1 356.5 1084.6ZM366.5 1066.5L376.7 1069.6C377.3 1069.8 377.8 1069.7 378.3 1069.5C378.8 1069.2 379.1 1068.8 379.3 1068.2L380 1065.8C380.2 1065.2 380.1 1064.7 379.9 1064.2C379.7 1063.7 379.2 1063.4 378.6 1063.2L368.4 1060.1L366.5 1066.5Z" fill="white"/>
<path opacity="0.7" d="M412.2 1073.4L397.9 1069L394.9 1078.9L401 1080.8C401.6 1081 402 1081.3 402.3 1081.8C402.6 1082.3 402.6 1082.8 402.4 1083.4C402.2 1084 401.9 1084.4 401.4 1084.7C400.9 1085 400.4 1085 399.8 1084.8L393.7 1082.9L390.7 1092.8L405 1097.2C405.6 1097.4 406 1097.7 406.3 1098.2C406.6 1098.7 406.6 1099.2 406.4 1099.8C406.2 1100.4 405.9 1100.8 405.4 1101.1C404.9 1101.4 404.4 1101.4 403.8 1101.2L385.5 1095.6L395.2 1063.8L413.5 1069.4C414.1 1069.6 414.5 1069.9 414.8 1070.4C415.1 1070.9 415.1 1071.4 414.9 1072C414.7 1072.6 414.4 1073 413.9 1073.3C413.3 1073.6 412.8 1073.6 412.2 1073.4Z" fill="white"/>
<path opacity="0.7" d="M429.5 1074.2L440 1077.4C441.2 1077.8 442.3 1078.7 443.1 1080.1C443.9 1081.5 444.1 1083 443.6 1084.5C443.4 1085.1 443.1 1085.5 442.6 1085.8C442.1 1086.1 441.6 1086.1 441.1 1086C440.4 1085.8 440 1085.5 439.8 1085.1C439.6 1084.7 439.6 1084.1 439.6 1083.1C439.7 1082.2 439.2 1081.6 438.4 1081.4L428.5 1078.4C428 1078.3 427.7 1078.4 427.6 1078.6C427.5 1078.8 427.6 1079 427.7 1079.4L436.9 1103.1C437.4 1104.3 437.4 1105.3 437 1106.4C436.6 1107.6 435.8 1108.5 434.7 1109.1C433.5 1109.8 432.5 1109.9 431.4 1109.6L420.5 1106.3C419.1 1105.9 418 1104.9 417.3 1103.5C416.6 1102.1 416.4 1100.7 416.8 1099.4C417.3 1097.9 418.2 1097.3 419.6 1097.7C420.2 1097.9 420.6 1098.2 420.9 1098.7C421.2 1099.2 421.2 1099.7 421.1 1100.2C421 1100.7 421.1 1101 421.3 1101.4C421.5 1101.8 421.8 1102.1 422.3 1102.2L432.3 1105.3C432.8 1105.4 433 1105.3 433.1 1105C433.2 1104.8 433.1 1104.6 433 1104.2L423.9 1080.5C423.5 1079.3 423.4 1078.3 423.8 1077.2C424.2 1076 425 1075.1 426.1 1074.4C427.2 1073.8 428.2 1073.8 429.5 1074.2Z" fill="white"/>
</g>
<g opacity="0.7">
<path opacity="0.7" d="M701.9 1187.8L709.2 1190C709.8 1190.2 710.2 1190.5 710.5 1191C710.8 1191.5 710.8 1192 710.6 1192.6C710.4 1193.2 710.1 1193.6 709.6 1193.9C709.1 1194.2 708.6 1194.2 708 1194L700.4 1191.7C699.4 1191.4 698.6 1190.8 697.7 1189.8C696.8 1188.8 696.4 1188 696.2 1187.1L694.3 1176.7C694 1175.2 694.1 1173.8 694.6 1172.4C695.1 1170.9 695.7 1169.7 696.7 1168.7L704.1 1161.2C704.8 1160.5 705.7 1160 706.9 1159.6C708.1 1159.2 709 1159.2 710 1159.5L717.9 1161.9C718.5 1162.1 718.9 1162.4 719.2 1162.9C719.5 1163.4 719.5 1163.9 719.3 1164.5C719.1 1165.1 718.8 1165.5 718.3 1165.8C717.8 1166.1 717.3 1166.1 716.7 1165.9L709 1163.6C708.3 1163.4 707.7 1163.6 707.1 1164.3L700.1 1171.2C699.5 1171.8 699.1 1172.5 698.9 1173.3C698.6 1174.3 698.5 1175.2 698.7 1176L700.5 1185.5C700.4 1187 701 1187.6 701.9 1187.8Z" fill="white"/>
<path opacity="0.7" d="M720.2 1194.8L736.7 1169.7C737.3 1168.8 738.1 1168.5 739.2 1168.8C740.2 1169.1 740.7 1169.7 740.7 1170.6L740.2 1201.1C740.2 1201.3 740.2 1201.5 740.1 1201.7C739.9 1202.3 739.6 1202.7 739.1 1203C738.6 1203.3 738.1 1203.3 737.6 1203.2C736.5 1202.9 736 1202.2 736 1201.2V1195.3L726.8 1192.5L723.3 1197.8C723.2 1198.1 722.9 1198.2 722.5 1198.4C722.1 1198.6 721.6 1198.5 721.2 1198.4C720.6 1198.2 720.2 1197.9 719.9 1197.4C719.6 1196.9 719.6 1196.4 719.8 1195.8C720 1195.2 720.1 1195.1 720.2 1194.8ZM736.4 1178.2L729.4 1188.7L736.2 1190.8L736.4 1178.2Z" fill="white"/>
<path opacity="0.7" d="M749.6 1204.6L758.7 1174.8L773 1179.2C774.6 1179.7 775.9 1180.7 776.7 1182.3C777.5 1183.9 777.7 1185.5 777.2 1187.2L776.5 1189.5C776 1191.2 775 1192.5 773.4 1193.2C771.9 1194 770.3 1194.2 768.5 1193.7L765.9 1192.9L769.8 1209.6C770 1210.1 769.9 1210.6 769.8 1211C769.6 1211.6 769.3 1212 768.7 1212.2C768.2 1212.5 767.7 1212.5 767.1 1212.3C766.3 1212.1 765.8 1211.5 765.6 1210.7L761.1 1191.5L758.2 1190.6L753.5 1206C753.3 1206.6 753 1207 752.5 1207.3C752 1207.6 751.5 1207.6 750.9 1207.4C750.3 1207.2 749.9 1206.9 749.6 1206.4C749.5 1205.7 749.5 1205.2 749.6 1204.6ZM759.5 1186.5L769.7 1189.6C770.3 1189.8 770.8 1189.7 771.3 1189.5C771.8 1189.3 772.1 1188.8 772.3 1188.2L773 1185.8C773.2 1185.2 773.1 1184.7 772.9 1184.2C772.7 1183.7 772.2 1183.4 771.6 1183.2L761.4 1180.1L759.5 1186.5Z" fill="white"/>
<path opacity="0.7" d="M790.3 1184.4L798.2 1186.8C799.3 1187.1 800.1 1187.8 800.9 1188.8C801.7 1189.8 802.2 1190.8 802.4 1191.9L804 1201.2C804.3 1202.9 804.2 1204.5 803.7 1206.1C803.3 1207.5 802.4 1208.9 801.1 1210.2L794.7 1216.9C793.9 1217.8 792.9 1218.3 791.7 1218.7C790.6 1219 789.4 1219 788.2 1218.7L780.5 1216.3C779.9 1216.1 779.5 1215.8 779.2 1215.3C778.9 1214.8 778.9 1214.3 779.1 1213.7C779.3 1213.1 779.6 1212.7 780.1 1212.4C780.6 1212.1 781.1 1212.1 781.7 1212.3L783.8 1212.9L791.1 1189.1L789 1188.5C788.4 1188.3 788 1188 787.7 1187.5C787.4 1187 787.4 1186.5 787.6 1185.9C787.8 1185.3 788.1 1184.9 788.6 1184.6C789.2 1184.3 789.7 1184.2 790.3 1184.4ZM795.2 1190.4L787.9 1214.2L789.3 1214.6C790.2 1214.9 791 1214.6 791.7 1213.9L798.1 1207.2C798.9 1206.3 799.4 1205.5 799.7 1204.9C800 1204 800 1203.1 799.9 1202.2L798.3 1192.7C798.1 1191.7 797.5 1191.1 796.6 1190.8L795.2 1190.4Z" fill="white"/>
<path opacity="0.7" d="M808.8 1222.7L817.3 1194.9C817.5 1194.3 817.8 1193.9 818.3 1193.6C818.8 1193.3 819.3 1193.3 819.9 1193.5C820.5 1193.7 820.9 1194 821.2 1194.5C821.5 1195 821.5 1195.5 821.3 1196.1L817.7 1208L829.9 1211.7L833.5 1199.8C833.7 1199.2 834 1198.8 834.5 1198.5C835 1198.2 835.5 1198.2 836.1 1198.4C836.7 1198.6 837.1 1198.9 837.4 1199.4C837.7 1199.9 837.7 1200.4 837.5 1201L829 1228.8C828.8 1229.4 828.5 1229.8 828 1230.1C827.5 1230.4 827 1230.4 826.4 1230.2C825.8 1230 825.4 1229.7 825.1 1229.2C824.8 1228.7 824.8 1228.2 825 1227.6L828.7 1215.6L816.5 1211.9L812.8 1223.9C812.6 1224.5 812.3 1224.9 811.8 1225.2C811.3 1225.5 810.8 1225.5 810.2 1225.3C809.6 1225.1 809.2 1224.8 808.9 1224.3C808.7 1223.8 808.7 1223.2 808.8 1222.7Z" fill="white"/>
<path opacity="0.7" d="M861.7 1209.4L863.3 1219.8C863.6 1221.2 863.5 1222.7 863 1224.1C862.5 1225.5 861.9 1226.8 860.8 1227.8L853.7 1235.4C852.1 1237.1 850.2 1237.6 848 1236.9C846.9 1236.6 846.1 1236 845.4 1235.2C844.7 1234.4 844.2 1233.5 844.1 1232.5L842.3 1222.1C842.1 1220.8 842.2 1219.4 842.7 1217.8C843.2 1216.3 843.9 1215 844.8 1214L852.1 1206.3C853.8 1204.6 855.6 1204.1 857.8 1204.8C860.1 1205.7 861.4 1207.1 861.7 1209.4ZM855 1209.6L848.2 1216.8C847.6 1217.5 847.1 1218.3 846.9 1219.1C846.6 1220 846.6 1220.9 846.7 1221.8L848.4 1231.7C848.4 1232.3 848.8 1232.7 849.4 1232.8C849.9 1232.9 850.3 1232.8 850.8 1232.4L857.7 1225.1C858.3 1224.4 858.8 1223.6 859 1222.8C859.3 1221.9 859.3 1221 859.2 1220.1L857.6 1210.3C857.5 1209.5 857.2 1209.1 856.6 1209C856 1208.9 855.4 1209.1 855 1209.6Z" fill="white"/>
<path opacity="0.7" d="M867.7 1242.9L876.8 1213.1C877 1212.5 877.3 1212.1 877.8 1211.8C878.3 1211.5 878.8 1211.5 879.4 1211.7C880 1211.9 880.4 1212.2 880.7 1212.7C881 1213.2 881 1213.7 880.8 1214.3L872.9 1240.1L887.2 1244.5C887.8 1244.7 888.2 1245 888.5 1245.5C888.8 1246 888.8 1246.5 888.6 1247.1C888.4 1247.7 888.1 1248.1 887.6 1248.4C887.1 1248.7 886.6 1248.7 886 1248.5L867.7 1242.9Z" fill="white"/>
<path opacity="0.7" d="M909 1220.6L916.9 1223C918 1223.3 918.8 1224 919.6 1225C920.4 1226 920.9 1227 921.1 1228.1L922.7 1237.4C923 1239.1 922.9 1240.7 922.4 1242.3C922 1243.7 921.1 1245.1 919.8 1246.4L913.4 1253.1C912.6 1254 911.6 1254.5 910.4 1254.9C909.3 1255.2 908.1 1255.2 906.9 1254.9L899.2 1252.6C898.6 1252.4 898.2 1252.1 897.9 1251.6C897.6 1251.1 897.6 1250.6 897.8 1250C898 1249.4 898.3 1249 898.8 1248.7C899.3 1248.4 899.8 1248.4 900.4 1248.6L902.5 1249.2L909.8 1225.4L907.7 1224.8C907.1 1224.6 906.7 1224.3 906.4 1223.8C906.1 1223.3 906.1 1222.8 906.3 1222.2C906.5 1221.6 906.8 1221.2 907.3 1220.9C908 1220.5 908.5 1220.5 909 1220.6ZM913.9 1226.6L906.6 1250.4L908 1250.8C908.9 1251.1 909.7 1250.8 910.4 1250.1L916.8 1243.4C917.6 1242.5 918.1 1241.7 918.4 1241.1C918.7 1240.2 918.7 1239.3 918.6 1238.4L917 1228.9C916.8 1227.9 916.2 1227.3 915.3 1227L913.9 1226.6Z" fill="white"/>
<path opacity="0.7" d="M953.7 1238.8L939.4 1234.4L936.4 1244.3L942.5 1246.2C943.1 1246.4 943.5 1246.7 943.8 1247.2C944.1 1247.7 944.1 1248.2 943.9 1248.8C943.7 1249.4 943.4 1249.8 942.9 1250.1C942.4 1250.4 941.9 1250.4 941.3 1250.2L935.2 1248.3L932.2 1258.2L946.5 1262.6C947.1 1262.8 947.5 1263.1 947.8 1263.6C948.1 1264.1 948.1 1264.6 947.9 1265.2C947.7 1265.8 947.4 1266.2 946.9 1266.5C946.4 1266.8 945.9 1266.8 945.3 1266.6L927 1261L936.7 1229.2L955 1234.8C955.6 1235 956 1235.3 956.3 1235.8C956.6 1236.3 956.6 1236.8 956.4 1237.4C956.2 1238 955.9 1238.4 955.4 1238.7C954.9 1238.9 954.3 1239 953.7 1238.8Z" fill="white"/>
<path opacity="0.7" d="M957.4 1268L966.5 1238.2L980.8 1242.6C982.4 1243.1 983.7 1244.1 984.5 1245.7C985.3 1247.3 985.5 1248.9 985 1250.6L984.3 1252.9C983.8 1254.6 982.8 1255.9 981.2 1256.6C979.7 1257.4 978.1 1257.6 976.3 1257.1L973.7 1256.3L977.6 1273C977.8 1273.5 977.7 1274 977.6 1274.4C977.4 1275 977.1 1275.4 976.5 1275.6C976 1275.9 975.5 1275.9 974.9 1275.7C974.1 1275.5 973.6 1274.9 973.4 1274.1L968.9 1254.9L966 1254L961.3 1269.4C961.1 1270 960.8 1270.4 960.3 1270.7C959.8 1271 959.3 1271 958.7 1270.8C958.1 1270.6 957.7 1270.3 957.4 1269.8C957.2 1269.1 957.2 1268.6 957.4 1268ZM967.3 1249.9L977.5 1253C978.1 1253.2 978.6 1253.1 979.1 1252.9C979.6 1252.6 979.9 1252.2 980.1 1251.6L980.8 1249.2C981 1248.6 980.9 1248.1 980.7 1247.6C980.5 1247.1 980 1246.8 979.4 1246.6L969.2 1243.5L967.3 1249.9Z" fill="white"/>
<path opacity="0.7" d="M1045.4 1264.6L1036.3 1294.4L1030.8 1292.7L1027.5 1264.6L1020.5 1287.4C1020.3 1288 1020 1288.4 1019.5 1288.7C1019 1289 1018.5 1289 1017.9 1288.8C1017.3 1288.6 1016.9 1288.3 1016.6 1287.8C1016.3 1287.3 1016.3 1286.8 1016.5 1286.2L1025.6 1256.4L1031 1258L1034.4 1286L1041.3 1263.3C1041.5 1262.7 1041.8 1262.3 1042.3 1262C1042.8 1261.7 1043.3 1261.7 1043.9 1261.9C1044.5 1262.1 1044.9 1262.4 1045.2 1262.9C1045.5 1263.5 1045.6 1264 1045.4 1264.6Z" fill="white"/>
<path opacity="0.7" d="M1046.7 1294.5L1063.2 1269.4C1063.8 1268.5 1064.6 1268.2 1065.7 1268.5C1066.7 1268.8 1067.2 1269.4 1067.2 1270.3L1066.7 1300.8C1066.7 1301 1066.7 1301.2 1066.6 1301.4C1066.4 1302 1066.1 1302.4 1065.6 1302.7C1065.1 1303 1064.6 1303 1064.1 1302.9C1063 1302.6 1062.5 1301.9 1062.5 1300.9V1295L1053.3 1292.2L1049.8 1297.5C1049.7 1297.8 1049.4 1297.9 1049 1298.1C1048.6 1298.3 1048.1 1298.2 1047.7 1298.1C1047.1 1297.9 1046.7 1297.6 1046.4 1297.1C1046.1 1296.6 1046.1 1296.1 1046.3 1295.5C1046.4 1294.9 1046.6 1294.7 1046.7 1294.5ZM1062.8 1277.8L1055.8 1288.3L1062.6 1290.4L1062.8 1277.8Z" fill="white"/>
<path opacity="0.7" d="M1089.4 1289.4L1089.7 1288.3L1087.3 1281.1L1079.9 1305.4C1079.7 1306 1079.4 1306.4 1078.9 1306.7C1078.4 1307 1077.9 1307 1077.3 1306.8C1076.7 1306.6 1076.3 1306.3 1076 1305.8C1075.7 1305.3 1075.7 1304.8 1075.9 1304.2L1085 1274.4L1090.3 1276L1093.1 1284.8L1100.4 1279.1L1105.5 1280.6L1096.4 1310.4C1096.2 1311 1095.9 1311.4 1095.4 1311.7C1094.9 1312 1094.4 1312 1093.8 1311.8C1093.2 1311.6 1092.8 1311.3 1092.5 1310.8C1092.2 1310.3 1092.2 1309.8 1092.4 1309.2L1099.8 1285L1093.9 1289.5L1093.5 1290.6C1093.3 1291.2 1093 1291.6 1092.5 1291.9C1092 1292.2 1091.5 1292.2 1090.9 1292C1090.3 1291.8 1089.9 1291.5 1089.6 1291C1089.3 1290.5 1089.2 1290 1089.4 1289.4Z" fill="white"/>
<path opacity="0.7" d="M1131.8 1293.2L1117.5 1288.8L1114.5 1298.7L1120.6 1300.6C1121.2 1300.8 1121.6 1301.1 1121.9 1301.6C1122.2 1302.1 1122.2 1302.6 1122 1303.2C1121.8 1303.8 1121.5 1304.2 1121 1304.5C1120.5 1304.8 1120 1304.8 1119.4 1304.6L1113.3 1302.7L1110.3 1312.6L1124.6 1317C1125.2 1317.2 1125.6 1317.5 1125.9 1318C1126.2 1318.5 1126.2 1319 1126 1319.6C1125.8 1320.2 1125.5 1320.6 1125 1320.9C1124.5 1321.2 1124 1321.2 1123.4 1321L1105.1 1315.4L1114.8 1283.6L1133.1 1289.2C1133.7 1289.4 1134.1 1289.7 1134.4 1290.2C1134.7 1290.7 1134.7 1291.2 1134.5 1291.8C1134.3 1292.4 1134 1292.8 1133.5 1293.1C1132.9 1293.3 1132.4 1293.3 1131.8 1293.2Z" fill="white"/>
</g>
<path d="M1925 1274.4H60.3C27 1274.4 0 1247.4 0 1214.1V60.3C0 27 27 0 60.3 0H1925C1958.3 0 1985.3 27 1985.3 60.3V1214.1C1985.3 1247.4 1958.3 1274.4 1925 1274.4Z" fill="#377dff"/>
<path d="M332.8 291.6H389.5V244.9H317.9V273.4L332.8 291.6ZM285.6 273.4V345H353.7C373.5 345 389.5 329 389.5 309.2V298.8H329.4L308.7 273.5H285.6V273.4ZM317.9 237.8H389.5V191.1H332.8L317.9 209.3V237.8ZM231.2 291.6L246.1 273.4V244.9H174.5V291.6H231.2ZM174.5 173.5V184H234.6L255.3 209.3H278.4V137.7H210.3C190.5 137.7 174.5 153.7 174.5 173.5ZM231.2 191.1H174.5V237.8H246.1V209.3L231.2 191.1ZM308.7 209.3L329.4 184H389.5V173.5C389.5 153.8 373.5 137.7 353.7 137.7H285.6V209.3H308.7ZM255.3 273.4L234.6 298.7H174.5V309.1C174.5 328.9 190.5 344.9 210.3 344.9H278.4V273.3H255.3V273.4Z" fill="white"/>
<path d="M1655.4 236.7C1655.2 250 1667.3 257.5 1676.4 261.9C1685.7 266.4 1688.9 269.4 1688.8 273.4C1688.7 279.6 1681.4 282.4 1674.5 282.5C1662.5 282.7 1655.5 279.3 1649.9 276.7L1645.6 297C1651.2 299.6 1661.5 301.8 1672.2 301.9C1697.4 301.9 1713.8 289.5 1713.9 270.2C1714 245.8 1680.1 244.4 1680.3 233.5C1680.4 230.2 1683.5 226.7 1690.5 225.8C1693.9 225.3 1703.4 225 1714.1 229.9L1718.3 210.3C1712.5 208.2 1705.1 206.2 1695.9 206.2C1672.2 206.1 1655.6 218.7 1655.4 236.7ZM1758.8 207.8C1754.2 207.8 1750.3 210.5 1748.6 214.6L1712.7 300.4H1737.8L1742.8 286.6H1773.5L1776.4 300.4H1798.6L1779.3 207.8H1758.8ZM1762.3 232.8L1769.6 267.6H1749.7L1762.3 232.8ZM1625 207.8L1605.2 300.4H1629.2L1649 207.8H1625ZM1589.5 207.8L1564.6 270.8L1554.5 217.2C1553.3 211.2 1548.6 207.8 1543.5 207.8H1502.7L1502.1 210.5C1510.5 212.3 1520 215.2 1525.7 218.4C1529.2 220.3 1530.2 222 1531.4 226.5L1550.5 300.4H1575.8L1614.6 207.8H1589.5Z" fill="white"/>
<path d="M201.9 793.9C213.829 793.9 223.5 784.229 223.5 772.3C223.5 760.371 213.829 750.7 201.9 750.7C189.971 750.7 180.3 760.371 180.3 772.3C180.3 784.229 189.971 793.9 201.9 793.9Z" fill="white"/>
<path d="M300.9 793.9C312.829 793.9 322.5 784.229 322.5 772.3C322.5 760.371 312.829 750.7 300.9 750.7C288.971 750.7 279.3 760.371 279.3 772.3C279.3 784.229 288.971 793.9 300.9 793.9Z" fill="white"/>
<path d="M399.9 793.9C411.829 793.9 421.5 784.229 421.5 772.3C421.5 760.371 411.829 750.7 399.9 750.7C387.971 750.7 378.3 760.371 378.3 772.3C378.3 784.229 387.971 793.9 399.9 793.9Z" fill="white"/>
<path d="M498.9 793.9C510.829 793.9 520.5 784.229 520.5 772.3C520.5 760.371 510.829 750.7 498.9 750.7C486.971 750.7 477.3 760.371 477.3 772.3C477.3 784.229 486.971 793.9 498.9 793.9Z" fill="white"/>
<path d="M678.9 793.9C690.829 793.9 700.5 784.229 700.5 772.3C700.5 760.371 690.829 750.7 678.9 750.7C666.971 750.7 657.3 760.371 657.3 772.3C657.3 784.229 666.971 793.9 678.9 793.9Z" fill="white"/>
<path d="M777.9 793.9C789.829 793.9 799.5 784.229 799.5 772.3C799.5 760.371 789.829 750.7 777.9 750.7C765.971 750.7 756.3 760.371 756.3 772.3C756.3 784.229 765.971 793.9 777.9 793.9Z" fill="white"/>
<path d="M876.9 793.9C888.829 793.9 898.5 784.229 898.5 772.3C898.5 760.371 888.829 750.7 876.9 750.7C864.971 750.7 855.3 760.371 855.3 772.3C855.3 784.229 864.971 793.9 876.9 793.9Z" fill="white"/>
<path d="M975.9 793.9C987.829 793.9 997.5 784.229 997.5 772.3C997.5 760.371 987.829 750.7 975.9 750.7C963.971 750.7 954.3 760.371 954.3 772.3C954.3 784.229 963.971 793.9 975.9 793.9Z" fill="white"/>
<path d="M1155.9 793.9C1167.83 793.9 1177.5 784.229 1177.5 772.3C1177.5 760.371 1167.83 750.7 1155.9 750.7C1143.97 750.7 1134.3 760.371 1134.3 772.3C1134.3 784.229 1143.97 793.9 1155.9 793.9Z" fill="white"/>
<path d="M1254.9 793.9C1266.83 793.9 1276.5 784.229 1276.5 772.3C1276.5 760.371 1266.83 750.7 1254.9 750.7C1242.97 750.7 1233.3 760.371 1233.3 772.3C1233.3 784.229 1242.97 793.9 1254.9 793.9Z" fill="white"/>
<path d="M1353.9 793.9C1365.83 793.9 1375.5 784.229 1375.5 772.3C1375.5 760.371 1365.83 750.7 1353.9 750.7C1341.97 750.7 1332.3 760.371 1332.3 772.3C1332.3 784.229 1341.97 793.9 1353.9 793.9Z" fill="white"/>
<path d="M1452.9 793.9C1464.83 793.9 1474.5 784.229 1474.5 772.3C1474.5 760.371 1464.83 750.7 1452.9 750.7C1440.97 750.7 1431.3 760.371 1431.3 772.3C1431.3 784.229 1440.97 793.9 1452.9 793.9Z" fill="white"/>
<path d="M1643.2 750.2V764.4C1643.2 767.7 1642.2 770.4 1640.1 772.4C1642.2 774.7 1643.3 777.3 1643.3 780.1V794.9C1643.3 797 1642.5 798.8 1641 800.2C1639.5 801.7 1637.7 802.4 1635.6 802.4H1608.8C1607.7 802.4 1606.9 802 1606.1 801.3C1605.4 800.6 1605 799.7 1605 798.6C1605 797.5 1605.4 796.7 1606.1 795.9C1606.8 795.2 1607.7 794.8 1608.8 794.8H1635.5V780C1635.5 778.9 1635.1 778 1634.4 777.3C1633.7 776.5 1632.8 776.2 1631.7 776.2H1616.5C1615.4 776.2 1614.6 775.8 1613.8 775.1C1613 774.4 1612.7 773.5 1612.7 772.4C1612.7 771.3 1613.1 770.5 1613.8 769.7C1614.5 769 1615.4 768.6 1616.5 768.6H1631.8C1632.8 768.6 1633.7 768.2 1634.5 767.5C1635.3 766.8 1635.6 765.9 1635.6 764.8V750.2H1608.6C1607.5 750.2 1606.7 749.8 1605.9 749.1C1605.2 748.4 1604.8 747.5 1604.8 746.4C1604.8 745.3 1605.2 744.5 1605.9 743.7C1606.6 743 1607.5 742.6 1608.6 742.6H1635.6C1637.7 742.6 1639.5 743.3 1641 744.8C1642.5 746.3 1643.2 748.1 1643.2 750.2Z" fill="white"/>
<path d="M1664.7 742.6H1668.5C1669.5 742.6 1670.4 743 1671.2 743.7C1671.9 744.5 1672.3 745.3 1672.3 746.4C1672.3 747.5 1671.9 748.3 1671.2 749.1C1670.5 749.8 1669.6 750.2 1668.5 750.2V775.2H1695.2C1696.2 775.2 1697.1 775.6 1697.9 776.3C1698.7 777.1 1699 778 1699 779V798.5C1699 799.6 1698.6 800.4 1697.9 801.2C1697.1 801.9 1696.2 802.3 1695.2 802.3H1664.8C1663.7 802.3 1662.8 801.9 1662.1 801.2C1661.3 800.4 1661 799.6 1661 798.5V746.3C1661 745.2 1661.4 744.4 1662.1 743.6C1662.7 743 1663.6 742.6 1664.7 742.6ZM1668.4 782.8V794.8H1691.3V782.8H1668.4Z" fill="white"/>
<path d="M1750.9 802.3H1747.1C1746.1 802.3 1745.2 801.9 1744.4 801.2C1743.6 800.5 1743.3 799.6 1743.3 798.5C1743.3 797.4 1743.7 796.6 1744.4 795.8C1745.1 795.1 1746 794.7 1747.1 794.7V769.7H1720.4C1719.4 769.7 1718.5 769.3 1717.7 768.6C1716.9 767.8 1716.6 767 1716.6 765.9V746.3C1716.6 745.3 1717 744.4 1717.7 743.6C1718.5 742.8 1719.3 742.5 1720.4 742.5H1750.8C1751.8 742.5 1752.7 742.9 1753.5 743.6C1754.3 744.4 1754.6 745.2 1754.6 746.3V798.5C1754.6 799.6 1754.2 800.4 1753.5 801.2C1752.8 801.9 1751.9 802.3 1750.9 802.3ZM1747.2 762.1V750.2H1724.2V762.1H1747.2Z" fill="white"/>
<path d="M1810.4 750.2V764.4C1810.4 767.7 1809.4 770.4 1807.3 772.4C1809.4 774.7 1810.5 777.3 1810.5 780.1V794.9C1810.5 797 1809.7 798.8 1808.2 800.2C1806.7 801.7 1804.9 802.4 1802.8 802.4H1776C1774.9 802.4 1774.1 802 1773.3 801.3C1772.6 800.6 1772.2 799.7 1772.2 798.6C1772.2 797.5 1772.6 796.7 1773.3 795.9C1774 795.2 1774.9 794.8 1776 794.8H1802.7V780C1802.7 778.9 1802.3 778 1801.6 777.3C1800.9 776.5 1800 776.2 1798.9 776.2H1783.7C1782.6 776.2 1781.8 775.8 1781 775.1C1780.2 774.4 1779.9 773.5 1779.9 772.4C1779.9 771.3 1780.3 770.5 1781 769.7C1781.7 769 1782.6 768.6 1783.7 768.6H1799C1800 768.6 1800.9 768.2 1801.7 767.5C1802.5 766.8 1802.8 765.9 1802.8 764.8V750.2H1775.8C1774.7 750.2 1773.9 749.8 1773.1 749.1C1772.4 748.4 1772 747.5 1772 746.4C1772 745.3 1772.4 744.5 1773.1 743.7C1773.8 743 1774.7 742.6 1775.8 742.6H1802.8C1804.9 742.6 1806.7 743.3 1808.2 744.8C1809.6 746.3 1810.4 748.1 1810.4 750.2Z" fill="white"/>
<path d="M179.7 1116.6V1071.3C179.7 1069.3 180.4 1067.6 181.9 1066.2C183.4 1064.8 185.1 1064 187 1064H210.6C212.6 1064 214.2 1064.7 215.7 1066.2C217.1 1067.6 217.8 1069.4 217.8 1071.3V1116.6C217.8 1118.6 217.1 1120.3 215.7 1121.8C214.3 1123.2 212.6 1123.9 210.5 1123.9H187C185 1123.9 183.2 1123.2 181.8 1121.8C180.4 1120.4 179.7 1118.6 179.7 1116.6ZM210.4 1116.4V1071.8H187.3V1116.4H210.4Z" fill="white"/>
<path d="M269.9 1123.8H266.1C265.1 1123.8 264.2 1123.4 263.4 1122.7C262.6 1122 262.3 1121.1 262.3 1120C262.3 1118.9 262.7 1118.1 263.4 1117.3C264.1 1116.6 265 1116.2 266.1 1116.2V1091.2H239.4C238.4 1091.2 237.5 1090.8 236.7 1090.1C235.9 1089.3 235.6 1088.5 235.6 1087.4V1067.8C235.6 1066.8 236 1065.9 236.7 1065.1C237.5 1064.3 238.3 1064 239.4 1064H269.8C270.8 1064 271.7 1064.4 272.5 1065.1C273.3 1065.9 273.6 1066.7 273.6 1067.8V1120C273.6 1121.1 273.2 1121.9 272.5 1122.7C271.9 1123.5 271 1123.8 269.9 1123.8ZM266.2 1083.6V1071.7H243.2V1083.6H266.2Z" fill="white"/>
<path d="M329.3 1070.7L298.6 1122.8C298.1 1123.6 297.4 1124 296.3 1124C295.3 1124 294.4 1123.7 293.5 1123C292.6 1122.3 292.2 1121.5 292.2 1120.4C292.2 1119.5 292.5 1118.5 293.1 1117.4L323.8 1065.4C324.3 1064.6 325.1 1064.2 326.2 1064.2C327.2 1064.2 328.1 1064.5 328.9 1065.2C329.8 1065.8 330.2 1066.7 330.2 1067.7C330.2 1068.7 329.9 1069.7 329.3 1070.7Z" fill="white"/>
<path d="M381.4 1123.9H347V1097.8C347 1095.7 347.7 1093.9 349.2 1092.4C350.7 1090.9 352.5 1090.1 354.5 1090.1H377.5V1071.7H350.5C349.4 1071.7 348.5 1071.3 347.8 1070.6C347.1 1069.9 346.7 1069 346.7 1067.9C346.7 1066.8 347.1 1066 347.8 1065.2C348.5 1064.5 349.4 1064.1 350.5 1064.1H377.5C379.6 1064.1 381.4 1064.8 382.9 1066.3C384.4 1067.8 385.2 1069.6 385.2 1071.6V1090C385.2 1092.1 384.4 1093.9 382.9 1095.4C381.4 1096.9 379.6 1097.6 377.5 1097.6H354.5V1116.2H381.3C382.3 1116.2 383.2 1116.6 384 1117.3C384.8 1118 385.1 1118.9 385.1 1120C385.1 1121.1 384.7 1121.9 384 1122.7C383.3 1123.6 382.4 1123.9 381.4 1123.9Z" fill="white"/>
<path d="M437.1 1123.9H402.7V1097.8C402.7 1095.7 403.4 1093.9 404.9 1092.4C406.4 1090.9 408.2 1090.1 410.2 1090.1H433.2V1071.7H406.2C405.1 1071.7 404.2 1071.3 403.5 1070.6C402.8 1069.9 402.4 1069 402.4 1067.9C402.4 1066.8 402.8 1066 403.5 1065.2C404.2 1064.5 405.1 1064.1 406.2 1064.1H433.2C435.3 1064.1 437.1 1064.8 438.6 1066.3C440.1 1067.8 440.9 1069.6 440.9 1071.6V1090C440.9 1092.1 440.1 1093.9 438.6 1095.4C437.1 1096.9 435.3 1097.6 433.2 1097.6H410.2V1116.2H437C438 1116.2 438.9 1116.6 439.7 1117.3C440.5 1118 440.8 1118.9 440.8 1120C440.8 1121.1 440.4 1121.9 439.7 1122.7C439 1123.6 438.1 1123.9 437.1 1123.9Z" fill="white"/>
<path d="M656.3 1122V1072.9C656.3 1071.9 656.6 1071 657.3 1070.3C658 1069.6 658.8 1069.2 659.8 1069.2C660.8 1069.2 661.6 1069.5 662.3 1070.2C663 1070.9 663.3 1071.7 663.3 1072.7V1089.5L686.1 1070C686.9 1069.3 687.8 1069 688.8 1069.1C689.8 1069.1 690.6 1069.5 691.3 1070.2C692 1070.9 692.3 1071.8 692.3 1072.7C692.3 1073.7 691.9 1074.5 691.1 1075.1L665.3 1097.1L691.2 1119.4C691.9 1120 692.3 1120.8 692.2 1121.7C692.2 1122.6 691.9 1123.5 691.2 1124.2C690.5 1125 689.7 1125.3 688.6 1125.3C687.6 1125.3 686.8 1125 686 1124.3L663.3 1104.7V1121.7C663.3 1122.7 663 1123.5 662.3 1124.2C661.6 1124.9 660.8 1125.2 659.8 1125.2C658.8 1125.2 658 1124.9 657.3 1124.2C656.6 1123.8 656.3 1123 656.3 1122Z" fill="white"/>
<path d="M741.1 1076.4H715.9V1093.7H726.8C727.8 1093.7 728.6 1094.1 729.3 1094.8C730 1095.5 730.4 1096.3 730.4 1097.3C730.4 1098.3 730.1 1099.2 729.4 1099.9C728.7 1100.6 727.9 1101 726.9 1101H716V1118.5H741.3C742.3 1118.5 743.1 1118.8 743.8 1119.5C744.5 1120.2 744.9 1121 744.9 1122C744.9 1123 744.5 1123.8 743.8 1124.5C743.1 1125.2 742.2 1125.5 741.2 1125.5H708.9V1069.2H741.2C742.2 1069.2 743 1069.6 743.8 1070.3C744.5 1071 744.9 1071.9 744.9 1072.9C744.9 1073.9 744.5 1074.7 743.8 1075.4C742.9 1076.1 742.1 1076.4 741.1 1076.4Z" fill="white"/>
<path d="M761.2 1125.5V1072.7C761.2 1071.7 761.6 1070.9 762.3 1070.2C763 1069.5 763.8 1069.1 764.8 1069.1C765.8 1069.1 766.6 1069.5 767.3 1070.2C768 1070.9 768.4 1071.7 768.4 1072.7V1118.3H793.6C794.6 1118.3 795.4 1118.6 796.2 1119.3C796.9 1120 797.3 1120.8 797.3 1121.8C797.3 1122.8 796.9 1123.6 796.2 1124.3C795.5 1125 794.6 1125.3 793.6 1125.3H761.2V1125.5Z" fill="white"/>
<path d="M813.6 1125.5V1072.7C813.6 1071.7 814 1070.9 814.7 1070.2C815.4 1069.5 816.2 1069.1 817.2 1069.1C818.2 1069.1 819 1069.5 819.7 1070.2C820.4 1070.9 820.8 1071.7 820.8 1072.7V1118.3H846C847 1118.3 847.8 1118.6 848.6 1119.3C849.3 1120 849.7 1120.8 849.7 1121.8C849.7 1122.8 849.3 1123.6 848.6 1124.3C847.9 1125 847 1125.3 846 1125.3H813.6V1125.5Z" fill="white"/>
<path d="M887.7 1098.5V1122C887.7 1123 887.3 1123.8 886.6 1124.5C885.9 1125.2 885.1 1125.5 884.1 1125.5C883.1 1125.5 882.2 1125.2 881.5 1124.5C880.8 1123.8 880.4 1123 880.4 1122V1098.6L866.1 1080.5V1073C866.1 1072 866.4 1071.1 867.1 1070.4C867.8 1069.7 868.6 1069.3 869.6 1069.3C870.6 1069.3 871.4 1069.7 872.2 1070.4C873 1071.1 873.3 1072 873.3 1073V1077.9L884 1091.6L894.8 1077.9V1073C894.8 1072 895.2 1071.2 895.9 1070.4C896.6 1069.7 897.4 1069.3 898.4 1069.3C899.3 1069.3 900.2 1069.6 900.9 1070.3C901.6 1071 902 1071.8 902 1072.9V1080.4L887.7 1098.5Z" fill="white"/>
<path d="M971.1 1120.6L985.4 1071.9C986 1070.1 987.2 1069.3 989 1069.3C990.8 1069.3 991.9 1070 992.3 1071.5L1006.5 1121C1006.6 1121.4 1006.7 1121.7 1006.7 1122.1C1006.7 1123.1 1006.4 1123.9 1005.7 1124.6C1005 1125.3 1004.2 1125.6 1003.4 1125.6C1001.5 1125.6 1000.4 1124.7 999.8 1123L997 1113.3H980.7L977.6 1123.7C977.5 1124.2 977.2 1124.6 976.5 1125C975.9 1125.4 975.2 1125.6 974.5 1125.6C973.4 1125.6 972.6 1125.2 971.9 1124.5C971.2 1123.8 970.9 1122.9 970.9 1121.9C970.9 1121.5 971 1121 971.1 1120.6ZM989 1085.7L982.9 1106.1H994.9L989 1085.7Z" fill="white"/>
<path d="M1059.2 1072.9V1125.6H1049.7L1030.5 1081.9V1122.1C1030.5 1123.1 1030.2 1123.9 1029.5 1124.6C1028.8 1125.3 1028 1125.6 1027 1125.6C1026 1125.6 1025.2 1125.3 1024.5 1124.6C1023.8 1123.9 1023.5 1123.1 1023.5 1122.1V1069.3H1032.9L1052.1 1113V1073C1052.1 1072 1052.5 1071.2 1053.2 1070.4C1053.9 1069.6 1054.8 1069.3 1055.8 1069.3C1056.8 1069.3 1057.6 1069.7 1058.3 1070.4C1058.9 1071 1059.2 1071.8 1059.2 1072.9Z" fill="white"/>
<path d="M1079.3 1069.2H1093.4C1095.2 1069.2 1097 1069.8 1098.8 1071C1100.5 1072.2 1101.8 1073.6 1102.6 1075.2L1109.6 1089.4C1110.9 1092 1111.6 1094.7 1111.6 1097.5C1111.6 1100.1 1110.9 1102.8 1109.5 1105.5L1102.4 1119.6C1101.5 1121.4 1100.2 1122.9 1098.5 1123.9C1096.8 1125 1094.9 1125.5 1092.8 1125.5H1079.2C1078.2 1125.5 1077.4 1125.1 1076.7 1124.4C1076 1123.7 1075.7 1122.9 1075.7 1121.9C1075.7 1120.9 1076 1120.1 1076.7 1119.3C1077.4 1118.6 1078.2 1118.2 1079.2 1118.2H1082.9V1076.3H1079.3C1078.3 1076.3 1077.5 1075.9 1076.8 1075.2C1076.1 1074.5 1075.8 1073.6 1075.8 1072.6C1075.8 1071.6 1076.1 1070.8 1076.8 1070.1C1077.4 1069.6 1078.3 1069.2 1079.3 1069.2ZM1090 1076.4V1118.4H1092.5C1094.1 1118.4 1095.3 1117.6 1096.1 1116.1L1103.1 1102.1C1104 1100.3 1104.4 1098.7 1104.4 1097.5C1104.4 1095.9 1104 1094.5 1103.3 1093.1L1096 1078.6C1095.2 1077.2 1094 1076.4 1092.3 1076.4H1090Z" fill="white"/>
<path d="M1160.5 1076.4H1135.3V1093.7H1146.2C1147.2 1093.7 1148 1094.1 1148.7 1094.8C1149.4 1095.5 1149.8 1096.3 1149.8 1097.3C1149.8 1098.3 1149.5 1099.2 1148.8 1099.9C1148.1 1100.6 1147.3 1101 1146.3 1101H1135.4V1118.5H1160.7C1161.7 1118.5 1162.5 1118.8 1163.2 1119.5C1163.9 1120.2 1164.3 1121 1164.3 1122C1164.3 1123 1163.9 1123.8 1163.2 1124.5C1162.5 1125.2 1161.6 1125.5 1160.6 1125.5H1128.3V1069.2H1160.6C1161.6 1069.2 1162.4 1069.6 1163.2 1070.3C1163.9 1071 1164.3 1071.9 1164.3 1072.9C1164.3 1073.9 1163.9 1074.7 1163.2 1075.4C1162.4 1076.1 1161.5 1076.4 1160.5 1076.4Z" fill="white"/>
<path d="M1180.7 1122V1069.2H1205.9C1208.8 1069.2 1211.3 1070.3 1213.4 1072.4C1215.5 1074.5 1216.6 1077 1216.6 1080V1084.1C1216.6 1087.1 1215.6 1089.6 1213.5 1091.7C1211.4 1093.8 1208.9 1094.9 1206 1094.9H1201.5L1216 1119.9C1216.5 1120.6 1216.7 1121.4 1216.7 1122.1C1216.7 1123.1 1216.3 1123.9 1215.6 1124.6C1214.9 1125.3 1214 1125.6 1213.1 1125.6C1211.7 1125.6 1210.6 1125 1209.9 1123.7L1193.2 1094.9H1188.1V1122.1C1188.1 1123.1 1187.7 1123.9 1187 1124.6C1186.3 1125.3 1185.4 1125.6 1184.4 1125.6C1183.4 1125.6 1182.6 1125.3 1181.9 1124.6C1181.2 1123.9 1180.7 1123 1180.7 1122ZM1187.8 1087.7H1205.9C1206.9 1087.7 1207.7 1087.4 1208.4 1086.7C1209.1 1086 1209.4 1085.2 1209.4 1084.2V1080C1209.4 1079 1209.1 1078.2 1208.4 1077.5C1207.7 1076.8 1206.9 1076.5 1205.9 1076.5H1187.8V1087.7Z" fill="white"/>
<path d="M1241.1 1069.2H1259.6C1261.9 1069.2 1264 1070.2 1266 1072.1C1268 1074 1269 1076.3 1269 1079C1269 1080 1268.6 1080.9 1267.9 1081.6C1267.2 1082.3 1266.4 1082.7 1265.5 1082.7C1264.3 1082.7 1263.5 1082.4 1263 1081.9C1262.5 1081.3 1262.1 1080.3 1261.7 1078.8C1261.3 1077.3 1260.4 1076.6 1259 1076.6H1241.4C1240.6 1076.6 1240.1 1076.9 1240.1 1077.4C1240.1 1077.7 1240.3 1078.1 1240.6 1078.6L1267.1 1112.4C1268.4 1114 1269 1115.8 1269 1117.7C1269 1119.8 1268.2 1121.7 1266.7 1123.3C1265.2 1124.9 1263.4 1125.7 1261.6 1125.7H1242.4C1239.9 1125.7 1237.6 1124.7 1235.8 1122.8C1233.9 1120.9 1233 1118.7 1233 1116.4C1233 1113.7 1234.2 1112.4 1236.7 1112.4C1237.7 1112.4 1238.5 1112.7 1239.2 1113.4C1239.9 1114.1 1240.2 1114.9 1240.2 1115.8C1240.2 1116.6 1240.5 1117.2 1241 1117.7C1241.5 1118.2 1242.2 1118.5 1243 1118.5H1260.7C1261.5 1118.5 1261.8 1118.2 1261.8 1117.6C1261.8 1117.3 1261.6 1116.9 1261.3 1116.5L1234.9 1082.7C1233.7 1081.1 1233 1079.3 1233 1077.4C1233 1075.2 1233.8 1073.3 1235.4 1071.7C1237 1070.1 1238.9 1069.2 1241.1 1069.2Z" fill="white"/>
<path d="M1311.9 1074.4L1319.7 1090.4C1320.8 1092.6 1321.4 1094.9 1321.4 1097.5C1321.4 1100 1320.8 1102.3 1319.7 1104.5L1311.9 1120.3C1310.2 1123.8 1307.4 1125.5 1303.4 1125.5C1301.5 1125.5 1299.8 1125 1298.3 1124C1296.8 1123 1295.7 1121.8 1294.9 1120.3L1287 1104.5C1286 1102.4 1285.4 1100.1 1285.4 1097.5C1285.4 1094.9 1285.9 1092.5 1287 1090.4L1294.9 1074.4C1296.7 1070.9 1299.5 1069.2 1303.4 1069.2C1307.3 1069.2 1310.2 1071 1311.9 1074.4ZM1301 1078L1293.6 1093C1292.9 1094.5 1292.6 1096 1292.6 1097.4C1292.6 1099 1292.9 1100.4 1293.6 1101.9L1301.2 1117.1C1301.6 1118 1302.3 1118.5 1303.4 1118.5C1304.3 1118.5 1305 1118 1305.5 1117.1L1313.1 1101.9C1313.8 1100.4 1314.2 1098.9 1314.2 1097.4C1314.2 1095.8 1313.8 1094.4 1313.1 1093L1305.6 1078C1305.1 1076.9 1304.4 1076.3 1303.4 1076.3C1302.4 1076.3 1301.6 1076.9 1301 1078Z" fill="white"/>
<path d="M1373.8 1072.9V1125.6H1364.3L1345.1 1081.9V1122.1C1345.1 1123.1 1344.8 1123.9 1344.1 1124.6C1343.4 1125.3 1342.6 1125.6 1341.6 1125.6C1340.6 1125.6 1339.8 1125.3 1339.1 1124.6C1338.4 1123.9 1338.1 1123.1 1338.1 1122.1V1069.3H1347.5L1366.7 1113V1073C1366.7 1072 1367.1 1071.2 1367.8 1070.4C1368.5 1069.6 1369.4 1069.3 1370.4 1069.3C1371.4 1069.3 1372.2 1069.7 1372.9 1070.4C1373.4 1071 1373.8 1071.8 1373.8 1072.9Z" fill="white"/>
<g opacity="0.7">
<path opacity="0.7" d="M198.8 983H183.9V993.3H190.3C190.9 993.3 191.4 993.5 191.8 993.9C192.2 994.3 192.4 994.8 192.4 995.4C192.4 996 192.2 996.5 191.8 996.9C191.4 997.3 190.9 997.5 190.3 997.5H183.9V1007.8H198.9C199.5 1007.8 200 1008 200.4 1008.4C200.8 1008.8 201 1009.3 201 1009.9C201 1010.5 200.8 1011 200.4 1011.4C200 1011.8 199.5 1012 198.9 1012H179.8V978.7H198.9C199.5 978.7 200 978.9 200.4 979.3C200.8 979.7 201 980.2 201 980.8C201 981.4 200.8 981.9 200.4 982.3C199.9 982.8 199.4 983 198.8 983Z" fill="white"/>
<path opacity="0.7" d="M221.7 999.6L215 1011.1C214.6 1011.8 214 1012.1 213.2 1012.1C212.6 1012.1 212.1 1011.9 211.7 1011.4C211.3 1011 211.1 1010.5 211.1 1010C211.1 1009.6 211.2 1009.2 211.5 1008.8L219.4 995.4L211.7 982.2C211.4 981.7 211.2 981.2 211.2 980.8C211.2 980.3 211.4 979.8 211.8 979.4C212.2 979 212.7 978.8 213.3 978.8C214.1 978.8 214.7 979.1 215.1 979.8L221.9 991.2L228.6 979.8C229 979.1 229.6 978.8 230.4 978.8C231 978.8 231.5 979 231.9 979.4C232.3 979.8 232.6 980.3 232.6 980.9C232.6 981.3 232.5 981.7 232.3 982L224.4 995.5L232.3 1009C232.5 1009.3 232.6 1009.7 232.6 1010.1C232.6 1010.7 232.4 1011.2 232 1011.6C231.6 1012 231.1 1012.2 230.5 1012.2C229.7 1012.2 229.1 1011.9 228.7 1011.2L221.7 999.6Z" fill="white"/>
<path opacity="0.7" d="M241.7 1009.9V978.7H256.7C258.4 978.7 259.9 979.3 261.2 980.6C262.4 981.9 263.1 983.4 263.1 985.1V993C263.1 994.7 262.5 996.2 261.2 997.5C260 998.7 258.5 999.4 256.7 999.4H246V1010C246 1010.6 245.8 1011.1 245.4 1011.5C245 1011.9 244.5 1012.1 243.9 1012.1C243.3 1012.1 242.8 1011.9 242.4 1011.5C242 1011 241.7 1010.5 241.7 1009.9ZM246 995.1H256.7C257.3 995.1 257.8 994.9 258.2 994.5C258.6 994.1 258.8 993.6 258.8 993V985.1C258.8 984.5 258.6 984 258.2 983.6C257.8 983.2 257.3 983 256.7 983H246V995.1Z" fill="white"/>
<path opacity="0.7" d="M274.8 978.7H291.9C292.5 978.7 292.9 978.9 293.4 979.3C293.9 979.7 294 980.2 294 980.8C294 981.4 293.8 981.9 293.4 982.3C293 982.7 292.5 982.9 291.9 982.9H285.5V1007.8H291.9C292.5 1007.8 293 1008 293.4 1008.4C293.8 1008.8 294 1009.3 294 1009.9C294 1010.5 293.8 1011 293.4 1011.4C293 1011.8 292.5 1012 291.9 1012H274.8C274.2 1012 273.7 1011.8 273.3 1011.4C272.9 1011 272.7 1010.5 272.7 1009.9C272.7 1009.3 272.9 1008.8 273.3 1008.4C273.7 1008 274.2 1007.8 274.8 1007.8H281.3V983H274.8C274.2 983 273.7 982.8 273.3 982.4C272.9 982 272.7 981.5 272.7 980.9C272.7 980.3 272.9 979.8 273.3 979.4C273.7 978.9 274.2 978.7 274.8 978.7Z" fill="white"/>
<path opacity="0.7" d="M303.9 1009.9V978.7H318.8C320.5 978.7 322 979.3 323.3 980.6C324.5 981.9 325.2 983.4 325.2 985.1V987.5C325.2 989.3 324.6 990.8 323.3 992C322.1 993.2 320.6 993.9 318.8 993.9H316.1L324.7 1008.7C325 1009.1 325.1 1009.6 325.1 1010C325.1 1010.6 324.9 1011.1 324.4 1011.5C324 1011.9 323.5 1012.1 322.9 1012.1C322.1 1012.1 321.4 1011.7 321 1011L311.1 993.9H308.1V1010C308.1 1010.6 307.9 1011.1 307.5 1011.5C307.1 1011.9 306.6 1012.1 306 1012.1C305.4 1012.1 304.9 1011.9 304.5 1011.5C304.1 1011 303.9 1010.5 303.9 1009.9ZM308.1 989.7H318.8C319.4 989.7 319.9 989.5 320.3 989.1C320.7 988.7 320.9 988.2 320.9 987.6V985.1C320.9 984.5 320.7 984 320.3 983.6C319.9 983.2 319.4 983 318.8 983H308.1V989.7Z" fill="white"/>
<path opacity="0.7" d="M353.9 983H339V993.3H345.4C346 993.3 346.5 993.5 346.9 993.9C347.3 994.3 347.5 994.8 347.5 995.4C347.5 996 347.3 996.5 346.9 996.9C346.5 997.3 346 997.5 345.4 997.5H339V1007.8H354C354.6 1007.8 355.1 1008 355.5 1008.4C355.9 1008.8 356.1 1009.3 356.1 1009.9C356.1 1010.5 355.9 1011 355.5 1011.4C355.1 1011.8 354.6 1012 354 1012H334.9V978.7H354C354.6 978.7 355.1 978.9 355.5 979.3C355.9 979.7 356.1 980.2 356.1 980.8C356.1 981.4 355.9 981.9 355.5 982.3C355 982.8 354.5 983 353.9 983Z" fill="white"/>
<path opacity="0.7" d="M370.6 978.7H381.6C382.9 978.7 384.2 979.3 385.4 980.4C386.6 981.5 387.2 982.9 387.2 984.5C387.2 985.1 387 985.6 386.6 986C386.2 986.4 385.7 986.6 385.2 986.6C384.5 986.6 384 986.4 383.7 986.1C383.4 985.8 383.2 985.2 382.9 984.3C382.7 983.4 382.1 983 381.3 983H370.9C370.4 983 370.1 983.2 370.1 983.5C370.1 983.7 370.2 983.9 370.4 984.2L386.1 1004.2C386.9 1005.2 387.2 1006.2 387.2 1007.3C387.2 1008.6 386.7 1009.7 385.8 1010.6C384.9 1011.6 383.9 1012 382.8 1012H371.4C369.9 1012 368.6 1011.4 367.5 1010.3C366.4 1009.2 365.8 1007.9 365.8 1006.5C365.8 1004.9 366.5 1004.1 368 1004.1C368.6 1004.1 369.1 1004.3 369.5 1004.7C369.9 1005.1 370.1 1005.6 370.1 1006.1C370.1 1006.6 370.3 1006.9 370.6 1007.2C370.9 1007.5 371.3 1007.7 371.8 1007.7H382.3C382.8 1007.7 383 1007.5 383 1007.2C383 1007 382.9 1006.8 382.7 1006.5L367.1 986.5C366.4 985.5 366 984.5 366 983.4C366 982.1 366.5 981 367.4 980C368.3 979 369.3 978.7 370.6 978.7Z" fill="white"/>
</g>
<g opacity="0.7">
<path opacity="0.7" d="M664.3 1007.8H671.9C672.5 1007.8 673 1008 673.4 1008.4C673.8 1008.8 674 1009.3 674 1009.9C674 1010.5 673.8 1011 673.4 1011.4C673 1011.8 672.5 1012 671.9 1012H664C663 1012 662 1011.7 660.9 1011C659.8 1010.3 659.1 1009.7 658.7 1008.9L653.8 999.5C653.1 998.1 652.8 996.8 652.8 995.3C652.8 993.7 653.1 992.4 653.7 991.2L658.6 981.9C659.1 981 659.8 980.3 660.8 979.6C661.8 978.9 662.7 978.6 663.7 978.6H672C672.6 978.6 673.1 978.8 673.5 979.2C673.9 979.6 674.1 980.1 674.1 980.7C674.1 981.3 673.9 981.8 673.5 982.2C673.1 982.6 672.6 982.8 672 982.8H664C663.3 982.8 662.8 983.2 662.4 984L657.7 992.7C657.3 993.4 657.1 994.2 657.2 995.1C657.2 996.1 657.4 997 657.8 997.7L662.3 1006.3C662.7 1007.4 663.4 1007.8 664.3 1007.8Z" fill="white"/>
<path opacity="0.7" d="M683.9 1009.1L692.4 980.3C692.7 979.3 693.4 978.7 694.5 978.7C695.5 978.7 696.2 979.1 696.5 980L704.9 1009.3C705 1009.5 705 1009.7 705 1009.9C705 1010.5 704.8 1011 704.4 1011.4C704 1011.8 703.5 1012 703 1012C701.9 1012 701.2 1011.5 700.9 1010.5L699.2 1004.8H689.6L687.8 1010.9C687.8 1011.2 687.5 1011.4 687.2 1011.7C686.9 1012 686.4 1012.1 686 1012.1C685.4 1012.1 684.9 1011.9 684.5 1011.5C684.1 1011.1 683.9 1010.6 683.9 1010C683.8 1009.6 683.9 1009.4 683.9 1009.1ZM694.5 988.5L690.9 1000.6H698L694.5 988.5Z" fill="white"/>
<path opacity="0.7" d="M714.9 1009.9V978.7H729.8C731.5 978.7 733 979.3 734.3 980.6C735.5 981.9 736.2 983.4 736.2 985.1V987.5C736.2 989.3 735.6 990.8 734.3 992C733.1 993.2 731.6 993.9 729.8 993.9H727.1L735.7 1008.7C736 1009.1 736.1 1009.6 736.1 1010C736.1 1010.6 735.9 1011.1 735.4 1011.5C735 1011.9 734.5 1012.1 733.9 1012.1C733.1 1012.1 732.4 1011.7 732 1011L722.1 993.9H719.1V1010C719.1 1010.6 718.9 1011.1 718.5 1011.5C718.1 1011.9 717.6 1012.1 717 1012.1C716.4 1012.1 715.9 1011.9 715.5 1011.5C715.1 1011 714.9 1010.5 714.9 1009.9ZM719.1 989.7H729.8C730.4 989.7 730.9 989.5 731.3 989.1C731.7 988.7 731.9 988.2 731.9 987.6V985.1C731.9 984.5 731.7 984 731.3 983.6C730.9 983.2 730.4 983 729.8 983H719.1V989.7Z" fill="white"/>
<path opacity="0.7" d="M747.9 978.7H756.2C757.3 978.7 758.3 979.1 759.4 979.8C760.4 980.5 761.2 981.3 761.7 982.3L765.9 990.7C766.7 992.2 767.1 993.8 767.1 995.5C767.1 997 766.7 998.6 765.8 1000.2L761.6 1008.5C761.1 1009.6 760.3 1010.4 759.3 1011.1C758.3 1011.7 757.2 1012.1 755.9 1012.1H747.8C747.2 1012.1 746.7 1011.9 746.3 1011.5C745.9 1011.1 745.7 1010.6 745.7 1010C745.7 1009.4 745.9 1008.9 746.3 1008.5C746.7 1008.1 747.2 1007.9 747.8 1007.9H750V983H747.8C747.2 983 746.7 982.8 746.3 982.4C745.9 982 745.7 981.5 745.7 980.9C745.7 980.3 745.9 979.8 746.3 979.4C746.8 978.9 747.3 978.7 747.9 978.7ZM754.3 983V1007.9H755.8C756.7 1007.9 757.4 1007.4 757.9 1006.5L762.1 998.2C762.6 997.1 762.9 996.2 762.9 995.5C762.9 994.6 762.7 993.7 762.3 992.9L758 984.3C757.5 983.4 756.8 983 755.8 983H754.3Z" fill="white"/>
<path opacity="0.7" d="M776.8 1009.9V980.8C776.8 980.2 777 979.7 777.4 979.3C777.8 978.9 778.3 978.7 778.9 978.7C779.5 978.7 780 978.9 780.4 979.3C780.8 979.7 781 980.2 781 980.8V993.2H793.8V980.8C793.8 980.2 794 979.7 794.4 979.3C794.8 978.9 795.3 978.7 795.9 978.7C796.5 978.7 797 978.9 797.4 979.3C797.8 979.7 798 980.2 798 980.8V1009.9C798 1010.5 797.8 1011 797.4 1011.4C797 1011.8 796.5 1012 795.9 1012C795.3 1012 794.8 1011.8 794.4 1011.4C794 1011 793.8 1010.5 793.8 1009.9V997.4H781V1009.9C781 1010.5 780.8 1011 780.4 1011.4C780 1011.8 779.5 1012 778.9 1012C778.3 1012 777.8 1011.8 777.4 1011.4C777 1011 776.8 1010.5 776.8 1009.9Z" fill="white"/>
<path opacity="0.7" d="M823.5 981.8L828.1 991.3C828.8 992.6 829.1 994 829.1 995.5C829.1 997 828.8 998.4 828.1 999.7L823.5 1009.1C822.5 1011.2 820.8 1012.2 818.5 1012.2C817.4 1012.2 816.4 1011.9 815.5 1011.3C814.6 1010.7 813.9 1010 813.5 1009.1L808.8 999.7C808.2 998.5 807.9 997.1 807.9 995.5C807.9 993.9 808.2 992.5 808.8 991.3L813.5 981.8C814.6 979.7 816.2 978.7 818.5 978.7C820.9 978.7 822.5 979.7 823.5 981.8ZM817.1 983.9L812.7 992.8C812.3 993.7 812.1 994.6 812.1 995.4C812.1 996.3 812.3 997.2 812.7 998L817.2 1007C817.4 1007.6 817.9 1007.8 818.5 1007.8C819 1007.8 819.4 1007.5 819.7 1007L824.2 998C824.6 997.1 824.8 996.2 824.8 995.4C824.8 994.5 824.6 993.6 824.2 992.8L819.8 983.9C819.5 983.2 819.1 982.9 818.5 982.9C817.9 982.9 817.4 983.3 817.1 983.9Z" fill="white"/>
<path opacity="0.7" d="M839 1012.1V980.9C839 980.3 839.2 979.8 839.6 979.4C840 979 840.5 978.8 841.1 978.8C841.7 978.8 842.2 979 842.6 979.4C843 979.8 843.2 980.3 843.2 980.9V1007.9H858.1C858.7 1007.9 859.2 1008.1 859.6 1008.5C860 1008.9 860.2 1009.4 860.2 1010C860.2 1010.6 860 1011.1 859.6 1011.5C859.2 1011.9 858.7 1012.1 858.1 1012.1H839Z" fill="white"/>
<path opacity="0.7" d="M872 978.7H880.3C881.4 978.7 882.4 979.1 883.5 979.8C884.5 980.5 885.3 981.3 885.8 982.3L890 990.7C890.8 992.2 891.2 993.8 891.2 995.5C891.2 997 890.8 998.6 889.9 1000.2L885.7 1008.5C885.2 1009.6 884.4 1010.4 883.4 1011.1C882.4 1011.7 881.3 1012.1 880 1012.1H872C871.4 1012.1 870.9 1011.9 870.5 1011.5C870.1 1011.1 869.9 1010.6 869.9 1010C869.9 1009.4 870.1 1008.9 870.5 1008.5C870.9 1008.1 871.4 1007.9 872 1007.9H874.2V983H872C871.4 983 870.9 982.8 870.5 982.4C870.1 982 869.9 981.5 869.9 980.9C869.9 980.3 870.1 979.8 870.5 979.4C871 978.9 871.5 978.7 872 978.7ZM878.4 983V1007.9H879.9C880.8 1007.9 881.5 1007.4 882 1006.5L886.2 998.2C886.7 997.1 887 996.2 887 995.5C887 994.6 886.8 993.7 886.4 992.9L882.1 984.3C881.6 983.4 880.9 983 879.9 983H878.4Z" fill="white"/>
<path opacity="0.7" d="M920.1 983H905.2V993.3H911.6C912.2 993.3 912.7 993.5 913.1 993.9C913.5 994.3 913.7 994.8 913.7 995.4C913.7 996 913.5 996.5 913.1 996.9C912.7 997.3 912.2 997.5 911.6 997.5H905.2V1007.8H920.2C920.8 1007.8 921.3 1008 921.7 1008.4C922.1 1008.8 922.3 1009.3 922.3 1009.9C922.3 1010.5 922.1 1011 921.7 1011.4C921.3 1011.8 920.8 1012 920.2 1012H901V978.7H920.1C920.7 978.7 921.2 978.9 921.6 979.3C922 979.7 922.2 980.2 922.2 980.8C922.2 981.4 922 981.9 921.6 982.3C921.2 982.8 920.7 983 920.1 983Z" fill="white"/>
<path opacity="0.7" d="M932.1 1009.9V978.7H947C948.7 978.7 950.2 979.3 951.5 980.6C952.7 981.9 953.4 983.4 953.4 985.1V987.5C953.4 989.3 952.8 990.8 951.5 992C950.3 993.2 948.8 993.9 947 993.9H944.3L952.9 1008.7C953.2 1009.1 953.3 1009.6 953.3 1010C953.3 1010.6 953.1 1011.1 952.6 1011.5C952.2 1011.9 951.7 1012.1 951.1 1012.1C950.3 1012.1 949.6 1011.7 949.2 1011L939.3 993.9H936.3V1010C936.3 1010.6 936.1 1011.1 935.7 1011.5C935.3 1011.9 934.8 1012.1 934.2 1012.1C933.6 1012.1 933.1 1011.9 932.7 1011.5C932.3 1011 932.1 1010.5 932.1 1009.9ZM936.3 989.7H947C947.6 989.7 948.1 989.5 948.5 989.1C948.9 988.7 949.1 988.2 949.1 987.6V985.1C949.1 984.5 948.9 984 948.5 983.6C948.1 983.2 947.6 983 947 983H936.3V989.7Z" fill="white"/>
<path opacity="0.7" d="M1015.3 980.9V1012.1H1009.6L998.2 986.2V1010C998.2 1010.6 998 1011.1 997.6 1011.5C997.2 1011.9 996.7 1012.1 996.1 1012.1C995.5 1012.1 995 1011.9 994.6 1011.5C994.2 1011.1 994 1010.6 994 1010V978.8H999.6L1011 1004.6V980.9C1011 980.3 1011.2 979.8 1011.6 979.4C1012 979 1012.5 978.8 1013.1 978.8C1013.7 978.8 1014.2 979 1014.6 979.4C1015.1 979.8 1015.3 980.3 1015.3 980.9Z" fill="white"/>
<path opacity="0.7" d="M1025.3 1009.1L1033.8 980.3C1034.1 979.3 1034.8 978.7 1035.9 978.7C1036.9 978.7 1037.6 979.1 1037.9 980L1046.3 1009.3C1046.4 1009.5 1046.4 1009.7 1046.4 1009.9C1046.4 1010.5 1046.2 1011 1045.8 1011.4C1045.4 1011.8 1044.9 1012 1044.4 1012C1043.3 1012 1042.6 1011.5 1042.3 1010.5L1040.6 1004.8H1031L1029.2 1010.9C1029.2 1011.2 1028.9 1011.4 1028.6 1011.7C1028.3 1012 1027.8 1012.1 1027.4 1012.1C1026.8 1012.1 1026.3 1011.9 1025.9 1011.5C1025.5 1011.1 1025.3 1010.6 1025.3 1010C1025.1 1009.6 1025.2 1009.4 1025.3 1009.1ZM1035.8 988.5L1032.2 1000.6H1039.3L1035.8 988.5Z" fill="white"/>
<path opacity="0.7" d="M1064.6 991.8V990.7L1060.2 984.5V1009.9C1060.2 1010.5 1060 1011 1059.6 1011.4C1059.2 1011.8 1058.7 1012 1058.1 1012C1057.5 1012 1057 1011.8 1056.6 1011.4C1056.2 1011 1056 1010.5 1056 1009.9V978.7H1061.5L1066.7 986.3L1072 978.7H1077.3V1009.9C1077.3 1010.5 1077.1 1011 1076.7 1011.4C1076.3 1011.8 1075.8 1012 1075.2 1012C1074.6 1012 1074.1 1011.8 1073.7 1011.4C1073.3 1011 1073.1 1010.5 1073.1 1009.9V984.6L1068.8 990.6V991.8C1068.8 992.4 1068.6 992.9 1068.2 993.3C1067.8 993.7 1067.3 993.9 1066.7 993.9C1066.1 993.9 1065.6 993.7 1065.2 993.3C1064.8 992.9 1064.6 992.4 1064.6 991.8Z" fill="white"/>
<path opacity="0.7" d="M1106.3 983H1091.4V993.3H1097.8C1098.4 993.3 1098.9 993.5 1099.3 993.9C1099.7 994.3 1099.9 994.8 1099.9 995.4C1099.9 996 1099.7 996.5 1099.3 996.9C1098.9 997.3 1098.4 997.5 1097.8 997.5H1091.4V1007.8H1106.4C1107 1007.8 1107.5 1008 1107.9 1008.4C1108.3 1008.8 1108.5 1009.3 1108.5 1009.9C1108.5 1010.5 1108.3 1011 1107.9 1011.4C1107.5 1011.8 1107 1012 1106.4 1012H1087.3V978.7H1106.4C1107 978.7 1107.5 978.9 1107.9 979.3C1108.3 979.7 1108.5 980.2 1108.5 980.8C1108.5 981.4 1108.3 981.9 1107.9 982.3C1107.4 982.8 1106.9 983 1106.3 983Z" fill="white"/>
</g>
</svg>
